<?xml version="1.0" encoding="utf-8" standalone="no"?>
<!DOCTYPE svg PUBLIC "-//W3C//DTD SVG 1.1//EN"
  "http://www.w3.org/Graphics/SVG/1.1/DTD/svg11.dtd">
<!-- Created with matplotlib (https://matplotlib.org/) -->
<svg height="576pt" version="1.1" viewBox="0 0 864 576" width="864pt" xmlns="http://www.w3.org/2000/svg" xmlns:xlink="http://www.w3.org/1999/xlink">
 <defs>
  <style type="text/css">
*{stroke-linecap:butt;stroke-linejoin:round;}
  </style>
 </defs>
 <g id="figure_1">
  <g id="patch_1">
   <path d="M 0 576 
L 864 576 
L 864 0 
L 0 0 
z
" style="fill:#ffffff;"/>
  </g>
  <g id="axes_1">
   <g id="patch_2">
    <path d="M 108 512.64 
L 777.6 512.64 
L 777.6 69.12 
L 108 69.12 
z
" style="fill:#ffffff;"/>
   </g>
   <g id="matplotlib.axis_1">
    <g id="xtick_1">
     <g id="line2d_1">
      <defs>
       <path d="M 0 0 
L 0 3.5 
" id="mcbae48e2e8" style="stroke:#000000;stroke-width:0.8;"/>
      </defs>
      <g>
       <use style="stroke:#000000;stroke-width:0.8;" x="388.871688" xlink:href="#mcbae48e2e8" y="512.64"/>
      </g>
     </g>
     <g id="text_1">
      <!-- $\mathdefault{10^{1}}$ -->
      <defs>
       <path d="M 12.40625 8.296875 
L 28.515625 8.296875 
L 28.515625 63.921875 
L 10.984375 60.40625 
L 10.984375 69.390625 
L 28.421875 72.90625 
L 38.28125 72.90625 
L 38.28125 8.296875 
L 54.390625 8.296875 
L 54.390625 0 
L 12.40625 0 
z
" id="DejaVuSans-49"/>
       <path d="M 31.78125 66.40625 
Q 24.171875 66.40625 20.328125 58.90625 
Q 16.5 51.421875 16.5 36.375 
Q 16.5 21.390625 20.328125 13.890625 
Q 24.171875 6.390625 31.78125 6.390625 
Q 39.453125 6.390625 43.28125 13.890625 
Q 47.125 21.390625 47.125 36.375 
Q 47.125 51.421875 43.28125 58.90625 
Q 39.453125 66.40625 31.78125 66.40625 
z
M 31.78125 74.21875 
Q 44.046875 74.21875 50.515625 64.515625 
Q 56.984375 54.828125 56.984375 36.375 
Q 56.984375 17.96875 50.515625 8.265625 
Q 44.046875 -1.421875 31.78125 -1.421875 
Q 19.53125 -1.421875 13.0625 8.265625 
Q 6.59375 17.96875 6.59375 36.375 
Q 6.59375 54.828125 13.0625 64.515625 
Q 19.53125 74.21875 31.78125 74.21875 
z
" id="DejaVuSans-48"/>
      </defs>
      <g transform="translate(371.271688 534.836875)scale(0.2 -0.2)">
       <use transform="translate(0 0.684375)" xlink:href="#DejaVuSans-49"/>
       <use transform="translate(63.623047 0.684375)" xlink:href="#DejaVuSans-48"/>
       <use transform="translate(128.203125 38.965625)scale(0.7)" xlink:href="#DejaVuSans-49"/>
      </g>
     </g>
    </g>
    <g id="xtick_2">
     <g id="line2d_2">
      <g>
       <use style="stroke:#000000;stroke-width:0.8;" x="747.163636" xlink:href="#mcbae48e2e8" y="512.64"/>
      </g>
     </g>
     <g id="text_2">
      <!-- $\mathdefault{10^{2}}$ -->
      <defs>
       <path d="M 19.1875 8.296875 
L 53.609375 8.296875 
L 53.609375 0 
L 7.328125 0 
L 7.328125 8.296875 
Q 12.9375 14.109375 22.625 23.890625 
Q 32.328125 33.6875 34.8125 36.53125 
Q 39.546875 41.84375 41.421875 45.53125 
Q 43.3125 49.21875 43.3125 52.78125 
Q 43.3125 58.59375 39.234375 62.25 
Q 35.15625 65.921875 28.609375 65.921875 
Q 23.96875 65.921875 18.8125 64.3125 
Q 13.671875 62.703125 7.8125 59.421875 
L 7.8125 69.390625 
Q 13.765625 71.78125 18.9375 73 
Q 24.125 74.21875 28.421875 74.21875 
Q 39.75 74.21875 46.484375 68.546875 
Q 53.21875 62.890625 53.21875 53.421875 
Q 53.21875 48.921875 51.53125 44.890625 
Q 49.859375 40.875 45.40625 35.40625 
Q 44.1875 33.984375 37.640625 27.21875 
Q 31.109375 20.453125 19.1875 8.296875 
z
" id="DejaVuSans-50"/>
      </defs>
      <g transform="translate(729.563636 534.836875)scale(0.2 -0.2)">
       <use transform="translate(0 0.765625)" xlink:href="#DejaVuSans-49"/>
       <use transform="translate(63.623047 0.765625)" xlink:href="#DejaVuSans-48"/>
       <use transform="translate(128.203125 39.046875)scale(0.7)" xlink:href="#DejaVuSans-50"/>
      </g>
     </g>
    </g>
    <g id="xtick_3">
     <g id="line2d_3">
      <defs>
       <path d="M 0 0 
L 0 2 
" id="me484bd83eb" style="stroke:#000000;stroke-width:0.6;"/>
      </defs>
      <g>
       <use style="stroke:#000000;stroke-width:0.6;" x="138.436364" xlink:href="#me484bd83eb" y="512.64"/>
      </g>
     </g>
    </g>
    <g id="xtick_4">
     <g id="line2d_4">
      <g>
       <use style="stroke:#000000;stroke-width:0.6;" x="201.528444" xlink:href="#me484bd83eb" y="512.64"/>
      </g>
     </g>
    </g>
    <g id="xtick_5">
     <g id="line2d_5">
      <g>
       <use style="stroke:#000000;stroke-width:0.6;" x="246.292987" xlink:href="#me484bd83eb" y="512.64"/>
      </g>
     </g>
    </g>
    <g id="xtick_6">
     <g id="line2d_6">
      <g>
       <use style="stroke:#000000;stroke-width:0.6;" x="281.015065" xlink:href="#me484bd83eb" y="512.64"/>
      </g>
     </g>
    </g>
    <g id="xtick_7">
     <g id="line2d_7">
      <g>
       <use style="stroke:#000000;stroke-width:0.6;" x="309.385068" xlink:href="#me484bd83eb" y="512.64"/>
      </g>
     </g>
    </g>
    <g id="xtick_8">
     <g id="line2d_8">
      <g>
       <use style="stroke:#000000;stroke-width:0.6;" x="333.371563" xlink:href="#me484bd83eb" y="512.64"/>
      </g>
     </g>
    </g>
    <g id="xtick_9">
     <g id="line2d_9">
      <g>
       <use style="stroke:#000000;stroke-width:0.6;" x="354.149611" xlink:href="#me484bd83eb" y="512.64"/>
      </g>
     </g>
    </g>
    <g id="xtick_10">
     <g id="line2d_10">
      <g>
       <use style="stroke:#000000;stroke-width:0.6;" x="372.477148" xlink:href="#me484bd83eb" y="512.64"/>
      </g>
     </g>
    </g>
    <g id="xtick_11">
     <g id="line2d_11">
      <g>
       <use style="stroke:#000000;stroke-width:0.6;" x="496.728312" xlink:href="#me484bd83eb" y="512.64"/>
      </g>
     </g>
    </g>
    <g id="xtick_12">
     <g id="line2d_12">
      <g>
       <use style="stroke:#000000;stroke-width:0.6;" x="559.820392" xlink:href="#me484bd83eb" y="512.64"/>
      </g>
     </g>
    </g>
    <g id="xtick_13">
     <g id="line2d_13">
      <g>
       <use style="stroke:#000000;stroke-width:0.6;" x="604.584935" xlink:href="#me484bd83eb" y="512.64"/>
      </g>
     </g>
    </g>
    <g id="xtick_14">
     <g id="line2d_14">
      <g>
       <use style="stroke:#000000;stroke-width:0.6;" x="639.307013" xlink:href="#me484bd83eb" y="512.64"/>
      </g>
     </g>
    </g>
    <g id="xtick_15">
     <g id="line2d_15">
      <g>
       <use style="stroke:#000000;stroke-width:0.6;" x="667.677016" xlink:href="#me484bd83eb" y="512.64"/>
      </g>
     </g>
    </g>
    <g id="xtick_16">
     <g id="line2d_16">
      <g>
       <use style="stroke:#000000;stroke-width:0.6;" x="691.663511" xlink:href="#me484bd83eb" y="512.64"/>
      </g>
     </g>
    </g>
    <g id="xtick_17">
     <g id="line2d_17">
      <g>
       <use style="stroke:#000000;stroke-width:0.6;" x="712.441559" xlink:href="#me484bd83eb" y="512.64"/>
      </g>
     </g>
    </g>
    <g id="xtick_18">
     <g id="line2d_18">
      <g>
       <use style="stroke:#000000;stroke-width:0.6;" x="730.769096" xlink:href="#me484bd83eb" y="512.64"/>
      </g>
     </g>
    </g>
    <g id="text_3">
     <!-- $\alpha$ Pe -->
     <defs>
      <path d="M 40.921875 25.4375 
L 40.96875 36.71875 
Q 41.015625 48.25 32.328125 48.296875 
Q 25.828125 48.34375 21.78125 42.921875 
Q 16.703125 36.234375 14.984375 27.296875 
Q 12.890625 16.546875 15.53125 11.421875 
Q 18.265625 6.203125 24.171875 6.203125 
Q 30.71875 6.203125 36.234375 16.609375 
z
M 33.84375 55.90625 
Q 49.078125 56.15625 48.875 40.375 
Q 48.875 40.375 56.5 54.6875 
L 64.5 54.6875 
L 48.734375 25.046875 
L 48.578125 14.359375 
Q 48.578125 11.96875 49.90625 9.96875 
Q 51.421875 7.625 52.984375 7.625 
L 57.328125 7.625 
L 55.859375 0 
L 50.4375 0 
Q 45.84375 0 42.53125 4.109375 
Q 40.96875 6.15625 40.921875 10.453125 
Q 37.75 5.21875 32.28125 0.78125 
Q 29.6875 -1.265625 22.703125 -1.21875 
Q 11.28125 -1.125 7.125 6.203125 
Q 2.875 13.8125 5.515625 27.296875 
Q 8.34375 41.796875 15.765625 48.390625 
Q 24.125 55.765625 33.84375 55.90625 
z
" id="DejaVuSans-Oblique-945"/>
      <path id="DejaVuSans-32"/>
      <path d="M 19.671875 64.796875 
L 19.671875 37.40625 
L 32.078125 37.40625 
Q 38.96875 37.40625 42.71875 40.96875 
Q 46.484375 44.53125 46.484375 51.125 
Q 46.484375 57.671875 42.71875 61.234375 
Q 38.96875 64.796875 32.078125 64.796875 
z
M 9.8125 72.90625 
L 32.078125 72.90625 
Q 44.34375 72.90625 50.609375 67.359375 
Q 56.890625 61.8125 56.890625 51.125 
Q 56.890625 40.328125 50.609375 34.8125 
Q 44.34375 29.296875 32.078125 29.296875 
L 19.671875 29.296875 
L 19.671875 0 
L 9.8125 0 
z
" id="DejaVuSans-80"/>
      <path d="M 56.203125 29.59375 
L 56.203125 25.203125 
L 14.890625 25.203125 
Q 15.484375 15.921875 20.484375 11.0625 
Q 25.484375 6.203125 34.421875 6.203125 
Q 39.59375 6.203125 44.453125 7.46875 
Q 49.3125 8.734375 54.109375 11.28125 
L 54.109375 2.78125 
Q 49.265625 0.734375 44.1875 -0.34375 
Q 39.109375 -1.421875 33.890625 -1.421875 
Q 20.796875 -1.421875 13.15625 6.1875 
Q 5.515625 13.8125 5.515625 26.8125 
Q 5.515625 40.234375 12.765625 48.109375 
Q 20.015625 56 32.328125 56 
Q 43.359375 56 49.78125 48.890625 
Q 56.203125 41.796875 56.203125 29.59375 
z
M 47.21875 32.234375 
Q 47.125 39.59375 43.09375 43.984375 
Q 39.0625 48.390625 32.421875 48.390625 
Q 24.90625 48.390625 20.390625 44.140625 
Q 15.875 39.890625 15.1875 32.171875 
z
" id="DejaVuSans-101"/>
     </defs>
     <g transform="translate(420.8 558.193125)scale(0.2 -0.2)">
      <use transform="translate(0 0.09375)" xlink:href="#DejaVuSans-Oblique-945"/>
      <use transform="translate(65.917969 0.09375)" xlink:href="#DejaVuSans-32"/>
      <use transform="translate(97.705078 0.09375)" xlink:href="#DejaVuSans-80"/>
      <use transform="translate(158.007812 0.09375)" xlink:href="#DejaVuSans-101"/>
     </g>
    </g>
   </g>
   <g id="matplotlib.axis_2">
    <g id="ytick_1">
     <g id="line2d_19">
      <defs>
       <path d="M 0 0 
L -3.5 0 
" id="m8b3e955242" style="stroke:#000000;stroke-width:0.8;"/>
      </defs>
      <g>
       <use style="stroke:#000000;stroke-width:0.8;" x="108" xlink:href="#m8b3e955242" y="348.135191"/>
      </g>
     </g>
     <g id="text_4">
      <!-- $\mathdefault{10^{1}}$ -->
      <g transform="translate(65.8 355.733629)scale(0.2 -0.2)">
       <use transform="translate(0 0.684375)" xlink:href="#DejaVuSans-49"/>
       <use transform="translate(63.623047 0.684375)" xlink:href="#DejaVuSans-48"/>
       <use transform="translate(128.203125 38.965625)scale(0.7)" xlink:href="#DejaVuSans-49"/>
      </g>
     </g>
    </g>
    <g id="ytick_2">
     <g id="line2d_20">
      <g>
       <use style="stroke:#000000;stroke-width:0.8;" x="108" xlink:href="#m8b3e955242" y="149.494676"/>
      </g>
     </g>
     <g id="text_5">
      <!-- $\mathdefault{10^{2}}$ -->
      <g transform="translate(65.8 157.093114)scale(0.2 -0.2)">
       <use transform="translate(0 0.765625)" xlink:href="#DejaVuSans-49"/>
       <use transform="translate(63.623047 0.765625)" xlink:href="#DejaVuSans-48"/>
       <use transform="translate(128.203125 39.046875)scale(0.7)" xlink:href="#DejaVuSans-50"/>
      </g>
     </g>
    </g>
    <g id="ytick_3">
     <g id="line2d_21">
      <defs>
       <path d="M 0 0 
L -2 0 
" id="m00d105d349" style="stroke:#000000;stroke-width:0.6;"/>
      </defs>
      <g>
       <use style="stroke:#000000;stroke-width:0.6;" x="108" xlink:href="#m00d105d349" y="486.978953"/>
      </g>
     </g>
    </g>
    <g id="ytick_4">
     <g id="line2d_22">
      <g>
       <use style="stroke:#000000;stroke-width:0.6;" x="108" xlink:href="#m00d105d349" y="452.000095"/>
      </g>
     </g>
    </g>
    <g id="ytick_5">
     <g id="line2d_23">
      <g>
       <use style="stroke:#000000;stroke-width:0.6;" x="108" xlink:href="#m00d105d349" y="427.1822"/>
      </g>
     </g>
    </g>
    <g id="ytick_6">
     <g id="line2d_24">
      <g>
       <use style="stroke:#000000;stroke-width:0.6;" x="108" xlink:href="#m00d105d349" y="407.931945"/>
      </g>
     </g>
    </g>
    <g id="ytick_7">
     <g id="line2d_25">
      <g>
       <use style="stroke:#000000;stroke-width:0.6;" x="108" xlink:href="#m00d105d349" y="392.203341"/>
      </g>
     </g>
    </g>
    <g id="ytick_8">
     <g id="line2d_26">
      <g>
       <use style="stroke:#000000;stroke-width:0.6;" x="108" xlink:href="#m00d105d349" y="378.904997"/>
      </g>
     </g>
    </g>
    <g id="ytick_9">
     <g id="line2d_27">
      <g>
       <use style="stroke:#000000;stroke-width:0.6;" x="108" xlink:href="#m00d105d349" y="367.385446"/>
      </g>
     </g>
    </g>
    <g id="ytick_10">
     <g id="line2d_28">
      <g>
       <use style="stroke:#000000;stroke-width:0.6;" x="108" xlink:href="#m00d105d349" y="357.224483"/>
      </g>
     </g>
    </g>
    <g id="ytick_11">
     <g id="line2d_29">
      <g>
       <use style="stroke:#000000;stroke-width:0.6;" x="108" xlink:href="#m00d105d349" y="288.338438"/>
      </g>
     </g>
    </g>
    <g id="ytick_12">
     <g id="line2d_30">
      <g>
       <use style="stroke:#000000;stroke-width:0.6;" x="108" xlink:href="#m00d105d349" y="253.35958"/>
      </g>
     </g>
    </g>
    <g id="ytick_13">
     <g id="line2d_31">
      <g>
       <use style="stroke:#000000;stroke-width:0.6;" x="108" xlink:href="#m00d105d349" y="228.541685"/>
      </g>
     </g>
    </g>
    <g id="ytick_14">
     <g id="line2d_32">
      <g>
       <use style="stroke:#000000;stroke-width:0.6;" x="108" xlink:href="#m00d105d349" y="209.29143"/>
      </g>
     </g>
    </g>
    <g id="ytick_15">
     <g id="line2d_33">
      <g>
       <use style="stroke:#000000;stroke-width:0.6;" x="108" xlink:href="#m00d105d349" y="193.562826"/>
      </g>
     </g>
    </g>
    <g id="ytick_16">
     <g id="line2d_34">
      <g>
       <use style="stroke:#000000;stroke-width:0.6;" x="108" xlink:href="#m00d105d349" y="180.264481"/>
      </g>
     </g>
    </g>
    <g id="ytick_17">
     <g id="line2d_35">
      <g>
       <use style="stroke:#000000;stroke-width:0.6;" x="108" xlink:href="#m00d105d349" y="168.744931"/>
      </g>
     </g>
    </g>
    <g id="ytick_18">
     <g id="line2d_36">
      <g>
       <use style="stroke:#000000;stroke-width:0.6;" x="108" xlink:href="#m00d105d349" y="158.583968"/>
      </g>
     </g>
    </g>
    <g id="ytick_19">
     <g id="line2d_37">
      <g>
       <use style="stroke:#000000;stroke-width:0.6;" x="108" xlink:href="#m00d105d349" y="89.697923"/>
      </g>
     </g>
    </g>
    <g id="text_6">
     <!-- $\frac{1}{N \mathcal{I}} - 1$ -->
     <defs>
      <path d="M 16.890625 72.90625 
L 30.171875 72.90625 
L 50.296875 10.40625 
L 62.5 72.90625 
L 72.125 72.90625 
L 57.90625 0 
L 44.578125 0 
L 24.515625 62.890625 
L 12.3125 0 
L 2.6875 0 
z
" id="DejaVuSans-Oblique-78"/>
      <path d="M 59.09375 66.203125 
L 58.5 63.796875 
Q 54.40625 63.796875 52.296875 63.546875 
Q 50.203125 63.296875 47.953125 62.140625 
Q 45.703125 61 44.34375 58.640625 
Q 43 56.296875 41.796875 52.09375 
L 30 11.09375 
Q 29.703125 9.90625 29.703125 8.703125 
Q 29.703125 5.5 34.5 5.5 
Q 43.59375 5.5 51.296875 12.796875 
L 53.09375 10.90625 
Q 47 5 40.09375 2.5 
Q 33.203125 0 24.203125 0 
L 3.796875 0 
L 4.40625 2.40625 
Q 7.296875 2.40625 8.6875 2.5 
Q 10.09375 2.59375 12.140625 3.140625 
Q 14.203125 3.703125 15.34375 4.84375 
Q 16.5 6 17.796875 8.140625 
Q 19.09375 10.296875 20 13.59375 
L 30.40625 49.796875 
Q 32.203125 56.09375 32.203125 57.40625 
Q 32.203125 60.59375 27.40625 60.59375 
Q 23.796875 60.59375 18.796875 58.59375 
Q 13.796875 56.59375 10.59375 53.296875 
L 8.90625 55.203125 
Q 14.796875 61 21.640625 63.59375 
Q 28.5 66.203125 40.296875 66.203125 
z
" id="STIXNonUnicode-Italic-57909"/>
      <path d="M 10.59375 35.5 
L 73.1875 35.5 
L 73.1875 27.203125 
L 10.59375 27.203125 
z
" id="DejaVuSans-8722"/>
     </defs>
     <g transform="translate(54 320.08)rotate(-90)scale(0.2 -0.2)">
      <use transform="translate(24 43.965625)scale(0.7)" xlink:href="#DejaVuSans-49"/>
      <use transform="translate(0 -38.31875)scale(0.7)" xlink:href="#DejaVuSans-Oblique-78"/>
      <use transform="translate(52.363281 -38.31875)scale(0.7)" xlink:href="#STIXNonUnicode-Italic-57909"/>
      <use transform="translate(124.595692 0.16875)" xlink:href="#DejaVuSans-8722"/>
      <use transform="translate(227.867177 0.16875)" xlink:href="#DejaVuSans-49"/>
      <path d="M 0 18.965625 
L 0 25.215625 
L 92.613271 25.215625 
L 92.613271 18.965625 
L 0 18.965625 
z
"/>
     </g>
    </g>
   </g>
   <g id="line2d_38">
    <path clip-path="url(#p9bbab615fd)" d="M 138.436364 479.68279 
L 281.015065 398.126963 
L 388.871688 337.328084 
L 496.728312 290.159544 
L 639.307013 228.154592 
L 747.163636 166.196339 
" style="fill:none;stroke:#0000ff;stroke-linecap:square;stroke-width:1.5;"/>
    <defs>
     <path d="M 0 3 
C 0.795609 3 1.55874 2.683901 2.12132 2.12132 
C 2.683901 1.55874 3 0.795609 3 0 
C 3 -0.795609 2.683901 -1.55874 2.12132 -2.12132 
C 1.55874 -2.683901 0.795609 -3 0 -3 
C -0.795609 -3 -1.55874 -2.683901 -2.12132 -2.12132 
C -2.683901 -1.55874 -3 -0.795609 -3 0 
C -3 0.795609 -2.683901 1.55874 -2.12132 2.12132 
C -1.55874 2.683901 -0.795609 3 0 3 
z
" id="m760ba57aee" style="stroke:#0000ff;"/>
    </defs>
    <g clip-path="url(#p9bbab615fd)">
     <use style="fill:#0000ff;stroke:#0000ff;" x="138.436364" xlink:href="#m760ba57aee" y="479.68279"/>
     <use style="fill:#0000ff;stroke:#0000ff;" x="281.015065" xlink:href="#m760ba57aee" y="398.126963"/>
     <use style="fill:#0000ff;stroke:#0000ff;" x="388.871688" xlink:href="#m760ba57aee" y="337.328084"/>
     <use style="fill:#0000ff;stroke:#0000ff;" x="496.728312" xlink:href="#m760ba57aee" y="290.159544"/>
     <use style="fill:#0000ff;stroke:#0000ff;" x="639.307013" xlink:href="#m760ba57aee" y="228.154592"/>
     <use style="fill:#0000ff;stroke:#0000ff;" x="747.163636" xlink:href="#m760ba57aee" y="166.196339"/>
    </g>
   </g>
   <g id="line2d_39">
    <path clip-path="url(#p9bbab615fd)" d="M 138.436364 399.72747 
L 281.015065 329.7146 
L 388.871688 273.468799 
L 496.728312 221.39952 
L 639.307013 163.185492 
L 747.163636 99.426862 
" style="fill:none;stroke:#ff0000;stroke-linecap:square;stroke-width:1.5;"/>
    <defs>
     <path d="M 0 3 
C 0.795609 3 1.55874 2.683901 2.12132 2.12132 
C 2.683901 1.55874 3 0.795609 3 0 
C 3 -0.795609 2.683901 -1.55874 2.12132 -2.12132 
C 1.55874 -2.683901 0.795609 -3 0 -3 
C -0.795609 -3 -1.55874 -2.683901 -2.12132 -2.12132 
C -2.683901 -1.55874 -3 -0.795609 -3 0 
C -3 0.795609 -2.683901 1.55874 -2.12132 2.12132 
C -1.55874 2.683901 -0.795609 3 0 3 
z
" id="m50bac6d64d" style="stroke:#ff0000;"/>
    </defs>
    <g clip-path="url(#p9bbab615fd)">
     <use style="fill:#ff0000;stroke:#ff0000;" x="138.436364" xlink:href="#m50bac6d64d" y="399.72747"/>
     <use style="fill:#ff0000;stroke:#ff0000;" x="281.015065" xlink:href="#m50bac6d64d" y="329.7146"/>
     <use style="fill:#ff0000;stroke:#ff0000;" x="388.871688" xlink:href="#m50bac6d64d" y="273.468799"/>
     <use style="fill:#ff0000;stroke:#ff0000;" x="496.728312" xlink:href="#m50bac6d64d" y="221.39952"/>
     <use style="fill:#ff0000;stroke:#ff0000;" x="639.307013" xlink:href="#m50bac6d64d" y="163.185492"/>
     <use style="fill:#ff0000;stroke:#ff0000;" x="747.163636" xlink:href="#m50bac6d64d" y="99.426862"/>
    </g>
   </g>
   <g id="line2d_40">
    <path clip-path="url(#p9bbab615fd)" d="M 138.436364 492.48 
L 281.015065 411.525045 
L 388.871688 345.400578 
L 496.728312 302.220563 
L 639.307013 222.219639 
L 747.163636 151.342641 
" style="fill:none;stroke:#0000ff;stroke-linecap:square;stroke-width:1.5;"/>
    <defs>
     <path d="M -0 3 
L 3 -3 
L -3 -3 
z
" id="m2cad570000" style="stroke:#0000ff;stroke-linejoin:miter;"/>
    </defs>
    <g clip-path="url(#p9bbab615fd)">
     <use style="fill:#0000ff;stroke:#0000ff;stroke-linejoin:miter;" x="138.436364" xlink:href="#m2cad570000" y="492.48"/>
     <use style="fill:#0000ff;stroke:#0000ff;stroke-linejoin:miter;" x="281.015065" xlink:href="#m2cad570000" y="411.525045"/>
     <use style="fill:#0000ff;stroke:#0000ff;stroke-linejoin:miter;" x="388.871688" xlink:href="#m2cad570000" y="345.400578"/>
     <use style="fill:#0000ff;stroke:#0000ff;stroke-linejoin:miter;" x="496.728312" xlink:href="#m2cad570000" y="302.220563"/>
     <use style="fill:#0000ff;stroke:#0000ff;stroke-linejoin:miter;" x="639.307013" xlink:href="#m2cad570000" y="222.219639"/>
     <use style="fill:#0000ff;stroke:#0000ff;stroke-linejoin:miter;" x="747.163636" xlink:href="#m2cad570000" y="151.342641"/>
    </g>
   </g>
   <g id="line2d_41">
    <path clip-path="url(#p9bbab615fd)" d="M 138.436364 410.320672 
L 281.015065 342.010494 
L 388.871688 281.304419 
L 496.728312 240.353763 
L 639.307013 163.935739 
L 747.163636 89.28 
" style="fill:none;stroke:#ff0000;stroke-linecap:square;stroke-width:1.5;"/>
    <defs>
     <path d="M -0 3 
L 3 -3 
L -3 -3 
z
" id="m33c4de1d0f" style="stroke:#ff0000;stroke-linejoin:miter;"/>
    </defs>
    <g clip-path="url(#p9bbab615fd)">
     <use style="fill:#ff0000;stroke:#ff0000;stroke-linejoin:miter;" x="138.436364" xlink:href="#m33c4de1d0f" y="410.320672"/>
     <use style="fill:#ff0000;stroke:#ff0000;stroke-linejoin:miter;" x="281.015065" xlink:href="#m33c4de1d0f" y="342.010494"/>
     <use style="fill:#ff0000;stroke:#ff0000;stroke-linejoin:miter;" x="388.871688" xlink:href="#m33c4de1d0f" y="281.304419"/>
     <use style="fill:#ff0000;stroke:#ff0000;stroke-linejoin:miter;" x="496.728312" xlink:href="#m33c4de1d0f" y="240.353763"/>
     <use style="fill:#ff0000;stroke:#ff0000;stroke-linejoin:miter;" x="639.307013" xlink:href="#m33c4de1d0f" y="163.935739"/>
     <use style="fill:#ff0000;stroke:#ff0000;stroke-linejoin:miter;" x="747.163636" xlink:href="#m33c4de1d0f" y="89.28"/>
    </g>
   </g>
   <g id="line2d_42">
    <path clip-path="url(#p9bbab615fd)" d="M 138.436364 484.929055 
L 281.015065 421.107528 
L 388.871688 337.785506 
L 496.728312 300.113334 
L 639.307013 221.771058 
L 747.163636 166.83918 
" style="fill:none;stroke:#0000ff;stroke-linecap:square;stroke-width:1.5;"/>
    <defs>
     <path d="M 0 -3 
L -3 3 
L 3 3 
z
" id="mf901b60c8c" style="stroke:#0000ff;stroke-linejoin:miter;"/>
    </defs>
    <g clip-path="url(#p9bbab615fd)">
     <use style="fill:#0000ff;stroke:#0000ff;stroke-linejoin:miter;" x="138.436364" xlink:href="#mf901b60c8c" y="484.929055"/>
     <use style="fill:#0000ff;stroke:#0000ff;stroke-linejoin:miter;" x="281.015065" xlink:href="#mf901b60c8c" y="421.107528"/>
     <use style="fill:#0000ff;stroke:#0000ff;stroke-linejoin:miter;" x="388.871688" xlink:href="#mf901b60c8c" y="337.785506"/>
     <use style="fill:#0000ff;stroke:#0000ff;stroke-linejoin:miter;" x="496.728312" xlink:href="#mf901b60c8c" y="300.113334"/>
     <use style="fill:#0000ff;stroke:#0000ff;stroke-linejoin:miter;" x="639.307013" xlink:href="#mf901b60c8c" y="221.771058"/>
     <use style="fill:#0000ff;stroke:#0000ff;stroke-linejoin:miter;" x="747.163636" xlink:href="#mf901b60c8c" y="166.83918"/>
    </g>
   </g>
   <g id="line2d_43">
    <path clip-path="url(#p9bbab615fd)" d="M 138.436364 405.777558 
L 281.015065 350.969317 
L 388.871688 272.6159 
L 496.728312 238.039064 
L 639.307013 160.292869 
L 747.163636 104.850227 
" style="fill:none;stroke:#ff0000;stroke-linecap:square;stroke-width:1.5;"/>
    <defs>
     <path d="M 0 -3 
L -3 3 
L 3 3 
z
" id="mdcc90f7449" style="stroke:#ff0000;stroke-linejoin:miter;"/>
    </defs>
    <g clip-path="url(#p9bbab615fd)">
     <use style="fill:#ff0000;stroke:#ff0000;stroke-linejoin:miter;" x="138.436364" xlink:href="#mdcc90f7449" y="405.777558"/>
     <use style="fill:#ff0000;stroke:#ff0000;stroke-linejoin:miter;" x="281.015065" xlink:href="#mdcc90f7449" y="350.969317"/>
     <use style="fill:#ff0000;stroke:#ff0000;stroke-linejoin:miter;" x="388.871688" xlink:href="#mdcc90f7449" y="272.6159"/>
     <use style="fill:#ff0000;stroke:#ff0000;stroke-linejoin:miter;" x="496.728312" xlink:href="#mdcc90f7449" y="238.039064"/>
     <use style="fill:#ff0000;stroke:#ff0000;stroke-linejoin:miter;" x="639.307013" xlink:href="#mdcc90f7449" y="160.292869"/>
     <use style="fill:#ff0000;stroke:#ff0000;stroke-linejoin:miter;" x="747.163636" xlink:href="#mdcc90f7449" y="104.850227"/>
    </g>
   </g>
   <g id="line2d_44">
    <path clip-path="url(#p9bbab615fd)" d="M 138.436364 489.986857 
L 281.015065 395.036591 
L 388.871688 356.355911 
L 496.728312 280.017671 
L 639.307013 209.338345 
L 747.163636 153.676077 
" style="fill:none;stroke:#0000ff;stroke-linecap:square;stroke-width:1.5;"/>
    <defs>
     <path d="M -3 -0 
L 3 3 
L 3 -3 
z
" id="m80133c97bd" style="stroke:#0000ff;stroke-linejoin:miter;"/>
    </defs>
    <g clip-path="url(#p9bbab615fd)">
     <use style="fill:#0000ff;stroke:#0000ff;stroke-linejoin:miter;" x="138.436364" xlink:href="#m80133c97bd" y="489.986857"/>
     <use style="fill:#0000ff;stroke:#0000ff;stroke-linejoin:miter;" x="281.015065" xlink:href="#m80133c97bd" y="395.036591"/>
     <use style="fill:#0000ff;stroke:#0000ff;stroke-linejoin:miter;" x="388.871688" xlink:href="#m80133c97bd" y="356.355911"/>
     <use style="fill:#0000ff;stroke:#0000ff;stroke-linejoin:miter;" x="496.728312" xlink:href="#m80133c97bd" y="280.017671"/>
     <use style="fill:#0000ff;stroke:#0000ff;stroke-linejoin:miter;" x="639.307013" xlink:href="#m80133c97bd" y="209.338345"/>
     <use style="fill:#0000ff;stroke:#0000ff;stroke-linejoin:miter;" x="747.163636" xlink:href="#m80133c97bd" y="153.676077"/>
    </g>
   </g>
   <g id="line2d_45">
    <path clip-path="url(#p9bbab615fd)" d="M 138.436364 409.978105 
L 281.015065 327.260256 
L 388.871688 291.529601 
L 496.728312 218.224285 
L 639.307013 148.687167 
L 747.163636 93.255263 
" style="fill:none;stroke:#ff0000;stroke-linecap:square;stroke-width:1.5;"/>
    <defs>
     <path d="M -3 -0 
L 3 3 
L 3 -3 
z
" id="mbc026b08cc" style="stroke:#ff0000;stroke-linejoin:miter;"/>
    </defs>
    <g clip-path="url(#p9bbab615fd)">
     <use style="fill:#ff0000;stroke:#ff0000;stroke-linejoin:miter;" x="138.436364" xlink:href="#mbc026b08cc" y="409.978105"/>
     <use style="fill:#ff0000;stroke:#ff0000;stroke-linejoin:miter;" x="281.015065" xlink:href="#mbc026b08cc" y="327.260256"/>
     <use style="fill:#ff0000;stroke:#ff0000;stroke-linejoin:miter;" x="388.871688" xlink:href="#mbc026b08cc" y="291.529601"/>
     <use style="fill:#ff0000;stroke:#ff0000;stroke-linejoin:miter;" x="496.728312" xlink:href="#mbc026b08cc" y="218.224285"/>
     <use style="fill:#ff0000;stroke:#ff0000;stroke-linejoin:miter;" x="639.307013" xlink:href="#mbc026b08cc" y="148.687167"/>
     <use style="fill:#ff0000;stroke:#ff0000;stroke-linejoin:miter;" x="747.163636" xlink:href="#mbc026b08cc" y="93.255263"/>
    </g>
   </g>
   <g id="line2d_46">
    <path clip-path="url(#p9bbab615fd)" d="M 138.436364 486.978953 
L 281.015065 407.931945 
L 388.871688 348.135191 
L 496.728312 288.338438 
L 639.307013 209.29143 
L 747.163636 149.494676 
" style="fill:none;stroke:#000000;stroke-linecap:square;stroke-width:4;"/>
   </g>
   <g id="patch_3">
    <path d="M 108 512.64 
L 108 69.12 
" style="fill:none;stroke:#000000;stroke-linecap:square;stroke-linejoin:miter;stroke-width:0.8;"/>
   </g>
   <g id="patch_4">
    <path d="M 777.6 512.64 
L 777.6 69.12 
" style="fill:none;stroke:#000000;stroke-linecap:square;stroke-linejoin:miter;stroke-width:0.8;"/>
   </g>
   <g id="patch_5">
    <path d="M 108 512.64 
L 777.6 512.64 
" style="fill:none;stroke:#000000;stroke-linecap:square;stroke-linejoin:miter;stroke-width:0.8;"/>
   </g>
   <g id="patch_6">
    <path d="M 108 69.12 
L 777.6 69.12 
" style="fill:none;stroke:#000000;stroke-linecap:square;stroke-linejoin:miter;stroke-width:0.8;"/>
   </g>
   <g id="text_7">
    <!-- $N_c = 1, g = 1, \tau = 100$ -->
    <defs>
     <path d="M 53.609375 52.59375 
L 51.8125 43.703125 
Q 48.578125 46.046875 44.9375 47.21875 
Q 41.3125 48.390625 37.40625 48.390625 
Q 33.109375 48.390625 29.21875 46.875 
Q 25.34375 45.359375 22.703125 42.578125 
Q 18.5 38.328125 16.203125 32.609375 
Q 13.921875 26.90625 13.921875 20.796875 
Q 13.921875 13.421875 17.609375 9.8125 
Q 21.296875 6.203125 28.8125 6.203125 
Q 32.515625 6.203125 36.6875 7.328125 
Q 40.875 8.453125 45.40625 10.6875 
L 43.703125 1.8125 
Q 39.796875 0.203125 35.671875 -0.609375 
Q 31.546875 -1.421875 27.203125 -1.421875 
Q 16.3125 -1.421875 10.453125 4.015625 
Q 4.59375 9.46875 4.59375 19.578125 
Q 4.59375 28.078125 7.640625 35.234375 
Q 10.6875 42.390625 16.703125 48.09375 
Q 20.796875 52 26.3125 54 
Q 31.84375 56 38.375 56 
Q 42.1875 56 45.9375 55.140625 
Q 49.703125 54.296875 53.609375 52.59375 
z
" id="DejaVuSans-Oblique-99"/>
     <path d="M 10.59375 45.40625 
L 73.1875 45.40625 
L 73.1875 37.203125 
L 10.59375 37.203125 
z
M 10.59375 25.484375 
L 73.1875 25.484375 
L 73.1875 17.1875 
L 10.59375 17.1875 
z
" id="DejaVuSans-61"/>
     <path d="M 11.71875 12.40625 
L 22.015625 12.40625 
L 22.015625 4 
L 14.015625 -11.625 
L 7.71875 -11.625 
L 11.71875 4 
z
" id="DejaVuSans-44"/>
     <path d="M 59.625 54.6875 
L 50.296875 6.78125 
Q 47.609375 -7.125 40.015625 -13.953125 
Q 32.421875 -20.796875 19.578125 -20.796875 
Q 14.84375 -20.796875 10.78125 -20.09375 
Q 6.734375 -19.390625 3.21875 -17.921875 
L 4.890625 -9.1875 
Q 8.203125 -11.328125 11.90625 -12.34375 
Q 15.625 -13.375 19.828125 -13.375 
Q 28.375 -13.375 33.859375 -8.703125 
Q 39.359375 -4.046875 41.109375 4.6875 
L 41.890625 8.796875 
Q 38.140625 4.5 33.15625 2.25 
Q 28.171875 0 22.40625 0 
Q 14.109375 0 9.34375 5.484375 
Q 4.59375 10.984375 4.59375 20.609375 
Q 4.59375 28.171875 7.46875 35.421875 
Q 10.359375 42.671875 15.578125 48.296875 
Q 19.046875 52 23.65625 54 
Q 28.265625 56 33.296875 56 
Q 38.8125 56 42.90625 53.4375 
Q 47.015625 50.875 49.03125 46.1875 
L 50.59375 54.6875 
z
M 46.09375 34.625 
Q 46.09375 41.265625 42.96875 44.875 
Q 39.84375 48.484375 34.078125 48.484375 
Q 30.515625 48.484375 27.296875 47.0625 
Q 24.078125 45.65625 21.78125 43.109375 
Q 18.0625 38.921875 15.984375 33.234375 
Q 13.921875 27.546875 13.921875 21.484375 
Q 13.921875 14.75 17.0625 11.125 
Q 20.21875 7.515625 26.125 7.515625 
Q 34.671875 7.515625 40.375 15.25 
Q 46.09375 23 46.09375 34.625 
z
" id="DejaVuSans-Oblique-103"/>
     <path d="M 32.859375 9.96875 
Q 34.1875 7.625 39.453125 7.625 
L 43.75 7.625 
L 42.28125 0 
L 36.921875 0 
Q 28.125 0 25 4.6875 
Q 21.921875 9.46875 23.96875 19.828125 
L 29 45.703125 
L 8.453125 45.703125 
L 10.203125 54.6875 
L 60.640625 54.6875 
L 58.890625 45.703125 
L 38.1875 45.703125 
L 33.015625 19.28125 
Q 31.640625 12.203125 32.859375 9.96875 
z
" id="DejaVuSans-Oblique-964"/>
    </defs>
    <g transform="translate(319.32 63.12)scale(0.24 -0.24)">
     <use transform="translate(0 0.78125)" xlink:href="#DejaVuSans-Oblique-78"/>
     <use transform="translate(74.804688 -15.625)scale(0.7)" xlink:href="#DejaVuSans-Oblique-99"/>
     <use transform="translate(135.507812 0.78125)" xlink:href="#DejaVuSans-61"/>
     <use transform="translate(238.779297 0.78125)" xlink:href="#DejaVuSans-49"/>
     <use transform="translate(302.402344 0.78125)" xlink:href="#DejaVuSans-44"/>
     <use transform="translate(353.671875 0.78125)" xlink:href="#DejaVuSans-Oblique-103"/>
     <use transform="translate(436.630859 0.78125)" xlink:href="#DejaVuSans-61"/>
     <use transform="translate(539.902344 0.78125)" xlink:href="#DejaVuSans-49"/>
     <use transform="translate(603.525391 0.78125)" xlink:href="#DejaVuSans-44"/>
     <use transform="translate(654.794922 0.78125)" xlink:href="#DejaVuSans-Oblique-964"/>
     <use transform="translate(734.482422 0.78125)" xlink:href="#DejaVuSans-61"/>
     <use transform="translate(837.753906 0.78125)" xlink:href="#DejaVuSans-49"/>
     <use transform="translate(901.376953 0.78125)" xlink:href="#DejaVuSans-48"/>
     <use transform="translate(965 0.78125)" xlink:href="#DejaVuSans-48"/>
    </g>
   </g>
   <g id="legend_1">
    <g id="patch_7">
     <path d="M 122 291.454375 
L 263.8 291.454375 
Q 267.8 291.454375 267.8 287.454375 
L 267.8 83.12 
Q 267.8 79.12 263.8 79.12 
L 122 79.12 
Q 118 79.12 118 83.12 
L 118 287.454375 
Q 118 291.454375 122 291.454375 
z
" style="fill:#ffffff;opacity:0.8;stroke:#cccccc;stroke-linejoin:miter;"/>
    </g>
    <g id="line2d_47">
     <path d="M 126 95.316875 
L 166 95.316875 
" style="fill:none;stroke:#0000ff;stroke-linecap:square;stroke-width:1.5;"/>
    </g>
    <g id="line2d_48"/>
    <g id="text_8">
     <!-- $\mathcal{I}_1(0, \tau)$ -->
     <defs>
      <path d="M 31 75.875 
Q 24.46875 64.65625 21.28125 53.65625 
Q 18.109375 42.671875 18.109375 31.390625 
Q 18.109375 20.125 21.3125 9.0625 
Q 24.515625 -2 31 -13.1875 
L 23.1875 -13.1875 
Q 15.875 -1.703125 12.234375 9.375 
Q 8.59375 20.453125 8.59375 31.390625 
Q 8.59375 42.28125 12.203125 53.3125 
Q 15.828125 64.359375 23.1875 75.875 
z
" id="DejaVuSans-40"/>
      <path d="M 8.015625 75.875 
L 15.828125 75.875 
Q 23.140625 64.359375 26.78125 53.3125 
Q 30.421875 42.28125 30.421875 31.390625 
Q 30.421875 20.453125 26.78125 9.375 
Q 23.140625 -1.703125 15.828125 -13.1875 
L 8.015625 -13.1875 
Q 14.5 -2 17.703125 9.0625 
Q 20.90625 20.125 20.90625 31.390625 
Q 20.90625 42.671875 17.703125 53.65625 
Q 14.5 64.65625 8.015625 75.875 
z
" id="DejaVuSans-41"/>
     </defs>
     <g transform="translate(182 102.316875)scale(0.2 -0.2)">
      <use transform="translate(0 0.125)" xlink:href="#STIXNonUnicode-Italic-57909"/>
      <use transform="translate(58.457016 -16.28125)scale(0.7)" xlink:href="#DejaVuSans-49"/>
      <use transform="translate(105.727524 0.125)" xlink:href="#DejaVuSans-40"/>
      <use transform="translate(144.741196 0.125)" xlink:href="#DejaVuSans-48"/>
      <use transform="translate(208.364243 0.125)" xlink:href="#DejaVuSans-44"/>
      <use transform="translate(259.633774 0.125)" xlink:href="#DejaVuSans-Oblique-964"/>
      <use transform="translate(319.838852 0.125)" xlink:href="#DejaVuSans-41"/>
     </g>
    </g>
    <g id="line2d_49">
     <path d="M 126 124.673125 
L 166 124.673125 
" style="fill:none;stroke:#ff0000;stroke-linecap:square;stroke-width:1.5;"/>
    </g>
    <g id="line2d_50"/>
    <g id="text_9">
     <!-- $\mathcal{I}_2(0, \tau)$ -->
     <g transform="translate(182 131.673125)scale(0.2 -0.2)">
      <use transform="translate(0 0.125)" xlink:href="#STIXNonUnicode-Italic-57909"/>
      <use transform="translate(58.457016 -16.28125)scale(0.7)" xlink:href="#DejaVuSans-50"/>
      <use transform="translate(105.727524 0.125)" xlink:href="#DejaVuSans-40"/>
      <use transform="translate(144.741196 0.125)" xlink:href="#DejaVuSans-48"/>
      <use transform="translate(208.364243 0.125)" xlink:href="#DejaVuSans-44"/>
      <use transform="translate(259.633774 0.125)" xlink:href="#DejaVuSans-Oblique-964"/>
      <use transform="translate(319.838852 0.125)" xlink:href="#DejaVuSans-41"/>
     </g>
    </g>
    <g id="line2d_51">
     <path d="M 126 154.029375 
L 166 154.029375 
" style="fill:none;"/>
    </g>
    <g id="line2d_52">
     <defs>
      <path d="M 0 3 
C 0.795609 3 1.55874 2.683901 2.12132 2.12132 
C 2.683901 1.55874 3 0.795609 3 0 
C 3 -0.795609 2.683901 -1.55874 2.12132 -2.12132 
C 1.55874 -2.683901 0.795609 -3 0 -3 
C -0.795609 -3 -1.55874 -2.683901 -2.12132 -2.12132 
C -2.683901 -1.55874 -3 -0.795609 -3 0 
C -3 0.795609 -2.683901 1.55874 -2.12132 2.12132 
C -1.55874 2.683901 -0.795609 3 0 3 
z
" id="mc99adec17d" style="stroke:#000000;"/>
     </defs>
     <g>
      <use style="stroke:#000000;" x="146" xlink:href="#mc99adec17d" y="154.029375"/>
     </g>
    </g>
    <g id="text_10">
     <!-- $N=10$ -->
     <g transform="translate(182 161.029375)scale(0.2 -0.2)">
      <use transform="translate(0 0.78125)" xlink:href="#DejaVuSans-Oblique-78"/>
      <use transform="translate(94.287109 0.78125)" xlink:href="#DejaVuSans-61"/>
      <use transform="translate(197.558594 0.78125)" xlink:href="#DejaVuSans-49"/>
      <use transform="translate(261.181641 0.78125)" xlink:href="#DejaVuSans-48"/>
     </g>
    </g>
    <g id="line2d_53">
     <path d="M 126 183.385625 
L 166 183.385625 
" style="fill:none;"/>
    </g>
    <g id="line2d_54">
     <defs>
      <path d="M -0 3 
L 3 -3 
L -3 -3 
z
" id="m78658e454e" style="stroke:#000000;stroke-linejoin:miter;"/>
     </defs>
     <g>
      <use style="stroke:#000000;stroke-linejoin:miter;" x="146" xlink:href="#m78658e454e" y="183.385625"/>
     </g>
    </g>
    <g id="text_11">
     <!-- $N=20$ -->
     <g transform="translate(182 190.385625)scale(0.2 -0.2)">
      <use transform="translate(0 0.78125)" xlink:href="#DejaVuSans-Oblique-78"/>
      <use transform="translate(94.287109 0.78125)" xlink:href="#DejaVuSans-61"/>
      <use transform="translate(197.558594 0.78125)" xlink:href="#DejaVuSans-50"/>
      <use transform="translate(261.181641 0.78125)" xlink:href="#DejaVuSans-48"/>
     </g>
    </g>
    <g id="line2d_55">
     <path d="M 126 212.741875 
L 166 212.741875 
" style="fill:none;"/>
    </g>
    <g id="line2d_56">
     <defs>
      <path d="M 0 -3 
L -3 3 
L 3 3 
z
" id="m62fa6ae24e" style="stroke:#000000;stroke-linejoin:miter;"/>
     </defs>
     <g>
      <use style="stroke:#000000;stroke-linejoin:miter;" x="146" xlink:href="#m62fa6ae24e" y="212.741875"/>
     </g>
    </g>
    <g id="text_12">
     <!-- $N=50$ -->
     <defs>
      <path d="M 10.796875 72.90625 
L 49.515625 72.90625 
L 49.515625 64.59375 
L 19.828125 64.59375 
L 19.828125 46.734375 
Q 21.96875 47.46875 24.109375 47.828125 
Q 26.265625 48.1875 28.421875 48.1875 
Q 40.625 48.1875 47.75 41.5 
Q 54.890625 34.8125 54.890625 23.390625 
Q 54.890625 11.625 47.5625 5.09375 
Q 40.234375 -1.421875 26.90625 -1.421875 
Q 22.3125 -1.421875 17.546875 -0.640625 
Q 12.796875 0.140625 7.71875 1.703125 
L 7.71875 11.625 
Q 12.109375 9.234375 16.796875 8.0625 
Q 21.484375 6.890625 26.703125 6.890625 
Q 35.15625 6.890625 40.078125 11.328125 
Q 45.015625 15.765625 45.015625 23.390625 
Q 45.015625 31 40.078125 35.4375 
Q 35.15625 39.890625 26.703125 39.890625 
Q 22.75 39.890625 18.8125 39.015625 
Q 14.890625 38.140625 10.796875 36.28125 
z
" id="DejaVuSans-53"/>
     </defs>
     <g transform="translate(182 219.741875)scale(0.2 -0.2)">
      <use transform="translate(0 0.78125)" xlink:href="#DejaVuSans-Oblique-78"/>
      <use transform="translate(94.287109 0.78125)" xlink:href="#DejaVuSans-61"/>
      <use transform="translate(197.558594 0.78125)" xlink:href="#DejaVuSans-53"/>
      <use transform="translate(261.181641 0.78125)" xlink:href="#DejaVuSans-48"/>
     </g>
    </g>
    <g id="line2d_57">
     <path d="M 126 242.098125 
L 166 242.098125 
" style="fill:none;"/>
    </g>
    <g id="line2d_58">
     <defs>
      <path d="M -3 -0 
L 3 3 
L 3 -3 
z
" id="m99257d349c" style="stroke:#000000;stroke-linejoin:miter;"/>
     </defs>
     <g>
      <use style="stroke:#000000;stroke-linejoin:miter;" x="146" xlink:href="#m99257d349c" y="242.098125"/>
     </g>
    </g>
    <g id="text_13">
     <!-- $N=100$ -->
     <g transform="translate(182 249.098125)scale(0.2 -0.2)">
      <use transform="translate(0 0.78125)" xlink:href="#DejaVuSans-Oblique-78"/>
      <use transform="translate(94.287109 0.78125)" xlink:href="#DejaVuSans-61"/>
      <use transform="translate(197.558594 0.78125)" xlink:href="#DejaVuSans-49"/>
      <use transform="translate(261.181641 0.78125)" xlink:href="#DejaVuSans-48"/>
      <use transform="translate(324.804688 0.78125)" xlink:href="#DejaVuSans-48"/>
     </g>
    </g>
    <g id="line2d_59">
     <path d="M 126 271.454375 
L 166 271.454375 
" style="fill:none;stroke:#000000;stroke-linecap:square;stroke-width:4;"/>
    </g>
    <g id="line2d_60"/>
    <g id="text_14">
     <!-- $\mathcal{I}_{1, th.}$ -->
     <defs>
      <path d="M 42.28125 54.6875 
L 40.921875 47.703125 
L 23 47.703125 
L 17.1875 18.015625 
Q 16.890625 16.359375 16.75 15.234375 
Q 16.609375 14.109375 16.609375 13.484375 
Q 16.609375 10.359375 18.484375 8.9375 
Q 20.359375 7.515625 24.515625 7.515625 
L 33.59375 7.515625 
L 32.078125 0 
L 23.484375 0 
Q 15.484375 0 11.546875 3.125 
Q 7.625 6.25 7.625 12.59375 
Q 7.625 13.71875 7.765625 15.0625 
Q 7.90625 16.40625 8.203125 18.015625 
L 14.015625 47.703125 
L 6.390625 47.703125 
L 7.8125 54.6875 
L 15.28125 54.6875 
L 18.3125 70.21875 
L 27.296875 70.21875 
L 24.3125 54.6875 
z
" id="DejaVuSans-Oblique-116"/>
      <path d="M 55.71875 33.015625 
L 49.3125 0 
L 40.28125 0 
L 46.6875 32.671875 
Q 47.125 34.96875 47.359375 36.71875 
Q 47.609375 38.484375 47.609375 39.5 
Q 47.609375 43.609375 45.015625 45.890625 
Q 42.4375 48.1875 37.796875 48.1875 
Q 30.5625 48.1875 25.265625 43.296875 
Q 19.96875 38.421875 18.40625 30.328125 
L 12.5 0 
L 3.515625 0 
L 18.3125 75.984375 
L 27.296875 75.984375 
L 21.484375 46.09375 
Q 24.90625 50.6875 30.21875 53.34375 
Q 35.546875 56 41.40625 56 
Q 48.640625 56 52.609375 52.09375 
Q 56.59375 48.1875 56.59375 41.109375 
Q 56.59375 39.359375 56.375 37.359375 
Q 56.15625 35.359375 55.71875 33.015625 
z
" id="DejaVuSans-Oblique-104"/>
      <path d="M 10.6875 12.40625 
L 21 12.40625 
L 21 0 
L 10.6875 0 
z
" id="DejaVuSans-46"/>
     </defs>
     <g transform="translate(182 278.454375)scale(0.2 -0.2)">
      <use transform="translate(0 0.796875)" xlink:href="#STIXNonUnicode-Italic-57909"/>
      <use transform="translate(58.457016 -15.609375)scale(0.7)" xlink:href="#DejaVuSans-49"/>
      <use transform="translate(102.993149 -15.609375)scale(0.7)" xlink:href="#DejaVuSans-44"/>
      <use transform="translate(138.881821 -15.609375)scale(0.7)" xlink:href="#DejaVuSans-Oblique-116"/>
      <use transform="translate(166.32811 -15.609375)scale(0.7)" xlink:href="#DejaVuSans-Oblique-104"/>
      <use transform="translate(210.693344 -15.609375)scale(0.7)" xlink:href="#DejaVuSans-46"/>
     </g>
    </g>
   </g>
  </g>
 </g>
 <defs>
  <clipPath id="p9bbab615fd">
   <rect height="443.52" width="669.6" x="108" y="69.12"/>
  </clipPath>
 </defs>
</svg>
