<?xml version="1.0" encoding="utf-8" standalone="no"?>
<!DOCTYPE svg PUBLIC "-//W3C//DTD SVG 1.1//EN"
  "http://www.w3.org/Graphics/SVG/1.1/DTD/svg11.dtd">
<!-- Created with matplotlib (http://matplotlib.org/) -->
<svg height="276.478125pt" version="1.1" viewBox="0 0 422.898515 276.478125" width="422.898515pt" xmlns="http://www.w3.org/2000/svg" xmlns:xlink="http://www.w3.org/1999/xlink">
 <defs>
  <style type="text/css">
*{stroke-linecap:butt;stroke-linejoin:round;}
  </style>
 </defs>
 <g id="figure_1">
  <g id="patch_1">
   <path d="M 0 276.478125 
L 422.898515 276.478125 
L 422.898515 0 
L 0 0 
z
" style="fill:#ffffff;"/>
  </g>
  <g id="axes_1">
   <g id="patch_2">
    <path d="M 23.213804 242.6 
L 381.458515 242.6 
L 381.458515 31.2 
L 23.213804 31.2 
z
" style="fill:#ffffff;"/>
   </g>
   <g id="matplotlib.axis_1">
    <g id="xtick_1">
     <g id="line2d_1">
      <defs>
       <path d="M 0 0 
L 0 3.5 
" id="m4539df45d2" style="stroke:#000000;stroke-width:0.8;"/>
      </defs>
      <g>
       <use style="stroke:#000000;stroke-width:0.8;" x="30.103125" xlink:href="#m4539df45d2" y="252.6"/>
      </g>
     </g>
     <g id="text_1">
      <!-- 0 -->
      <defs>
       <path d="M 31.78125 66.40625 
Q 24.171875 66.40625 20.328125 58.90625 
Q 16.5 51.421875 16.5 36.375 
Q 16.5 21.390625 20.328125 13.890625 
Q 24.171875 6.390625 31.78125 6.390625 
Q 39.453125 6.390625 43.28125 13.890625 
Q 47.125 21.390625 47.125 36.375 
Q 47.125 51.421875 43.28125 58.90625 
Q 39.453125 66.40625 31.78125 66.40625 
z
M 31.78125 74.21875 
Q 44.046875 74.21875 50.515625 64.515625 
Q 56.984375 54.828125 56.984375 36.375 
Q 56.984375 17.96875 50.515625 8.265625 
Q 44.046875 -1.421875 31.78125 -1.421875 
Q 19.53125 -1.421875 13.0625 8.265625 
Q 6.59375 17.96875 6.59375 36.375 
Q 6.59375 54.828125 13.0625 64.515625 
Q 19.53125 74.21875 31.78125 74.21875 
z
" id="DejaVuSans-30"/>
      </defs>
      <g transform="translate(26.921875 267.198437)scale(0.1 -0.1)">
       <use xlink:href="#DejaVuSans-30"/>
      </g>
     </g>
    </g>
    <g id="xtick_2">
     <g id="line2d_2">
      <g>
       <use style="stroke:#000000;stroke-width:0.8;" x="98.996339" xlink:href="#m4539df45d2" y="252.6"/>
      </g>
     </g>
     <g id="text_2">
      <!-- 0.2 -->
      <defs>
       <path d="M 10.6875 12.40625 
L 21 12.40625 
L 21 0 
L 10.6875 0 
z
" id="DejaVuSans-2e"/>
       <path d="M 19.1875 8.296875 
L 53.609375 8.296875 
L 53.609375 0 
L 7.328125 0 
L 7.328125 8.296875 
Q 12.9375 14.109375 22.625 23.890625 
Q 32.328125 33.6875 34.8125 36.53125 
Q 39.546875 41.84375 41.421875 45.53125 
Q 43.3125 49.21875 43.3125 52.78125 
Q 43.3125 58.59375 39.234375 62.25 
Q 35.15625 65.921875 28.609375 65.921875 
Q 23.96875 65.921875 18.8125 64.3125 
Q 13.671875 62.703125 7.8125 59.421875 
L 7.8125 69.390625 
Q 13.765625 71.78125 18.9375 73 
Q 24.125 74.21875 28.421875 74.21875 
Q 39.75 74.21875 46.484375 68.546875 
Q 53.21875 62.890625 53.21875 53.421875 
Q 53.21875 48.921875 51.53125 44.890625 
Q 49.859375 40.875 45.40625 35.40625 
Q 44.1875 33.984375 37.640625 27.21875 
Q 31.109375 20.453125 19.1875 8.296875 
z
" id="DejaVuSans-32"/>
      </defs>
      <g transform="translate(91.044776 267.198437)scale(0.1 -0.1)">
       <use xlink:href="#DejaVuSans-30"/>
       <use x="63.623047" xlink:href="#DejaVuSans-2e"/>
       <use x="95.410156" xlink:href="#DejaVuSans-32"/>
      </g>
     </g>
    </g>
    <g id="xtick_3">
     <g id="line2d_3">
      <g>
       <use style="stroke:#000000;stroke-width:0.8;" x="167.889553" xlink:href="#m4539df45d2" y="252.6"/>
      </g>
     </g>
     <g id="text_3">
      <!-- 0.4 -->
      <defs>
       <path d="M 37.796875 64.3125 
L 12.890625 25.390625 
L 37.796875 25.390625 
z
M 35.203125 72.90625 
L 47.609375 72.90625 
L 47.609375 25.390625 
L 58.015625 25.390625 
L 58.015625 17.1875 
L 47.609375 17.1875 
L 47.609375 0 
L 37.796875 0 
L 37.796875 17.1875 
L 4.890625 17.1875 
L 4.890625 26.703125 
z
" id="DejaVuSans-34"/>
      </defs>
      <g transform="translate(159.93799 267.198437)scale(0.1 -0.1)">
       <use xlink:href="#DejaVuSans-30"/>
       <use x="63.623047" xlink:href="#DejaVuSans-2e"/>
       <use x="95.410156" xlink:href="#DejaVuSans-34"/>
      </g>
     </g>
    </g>
    <g id="xtick_4">
     <g id="line2d_4">
      <g>
       <use style="stroke:#000000;stroke-width:0.8;" x="236.782766" xlink:href="#m4539df45d2" y="252.6"/>
      </g>
     </g>
     <g id="text_4">
      <!-- 0.6 -->
      <defs>
       <path d="M 33.015625 40.375 
Q 26.375 40.375 22.484375 35.828125 
Q 18.609375 31.296875 18.609375 23.390625 
Q 18.609375 15.53125 22.484375 10.953125 
Q 26.375 6.390625 33.015625 6.390625 
Q 39.65625 6.390625 43.53125 10.953125 
Q 47.40625 15.53125 47.40625 23.390625 
Q 47.40625 31.296875 43.53125 35.828125 
Q 39.65625 40.375 33.015625 40.375 
z
M 52.59375 71.296875 
L 52.59375 62.3125 
Q 48.875 64.0625 45.09375 64.984375 
Q 41.3125 65.921875 37.59375 65.921875 
Q 27.828125 65.921875 22.671875 59.328125 
Q 17.53125 52.734375 16.796875 39.40625 
Q 19.671875 43.65625 24.015625 45.921875 
Q 28.375 48.1875 33.59375 48.1875 
Q 44.578125 48.1875 50.953125 41.515625 
Q 57.328125 34.859375 57.328125 23.390625 
Q 57.328125 12.15625 50.6875 5.359375 
Q 44.046875 -1.421875 33.015625 -1.421875 
Q 20.359375 -1.421875 13.671875 8.265625 
Q 6.984375 17.96875 6.984375 36.375 
Q 6.984375 53.65625 15.1875 63.9375 
Q 23.390625 74.21875 37.203125 74.21875 
Q 40.921875 74.21875 44.703125 73.484375 
Q 48.484375 72.75 52.59375 71.296875 
z
" id="DejaVuSans-36"/>
      </defs>
      <g transform="translate(228.831204 267.198437)scale(0.1 -0.1)">
       <use xlink:href="#DejaVuSans-30"/>
       <use x="63.623047" xlink:href="#DejaVuSans-2e"/>
       <use x="95.410156" xlink:href="#DejaVuSans-36"/>
      </g>
     </g>
    </g>
    <g id="xtick_5">
     <g id="line2d_5">
      <g>
       <use style="stroke:#000000;stroke-width:0.8;" x="305.67598" xlink:href="#m4539df45d2" y="252.6"/>
      </g>
     </g>
     <g id="text_5">
      <!-- 0.8 -->
      <defs>
       <path d="M 31.78125 34.625 
Q 24.75 34.625 20.71875 30.859375 
Q 16.703125 27.09375 16.703125 20.515625 
Q 16.703125 13.921875 20.71875 10.15625 
Q 24.75 6.390625 31.78125 6.390625 
Q 38.8125 6.390625 42.859375 10.171875 
Q 46.921875 13.96875 46.921875 20.515625 
Q 46.921875 27.09375 42.890625 30.859375 
Q 38.875 34.625 31.78125 34.625 
z
M 21.921875 38.8125 
Q 15.578125 40.375 12.03125 44.71875 
Q 8.5 49.078125 8.5 55.328125 
Q 8.5 64.0625 14.71875 69.140625 
Q 20.953125 74.21875 31.78125 74.21875 
Q 42.671875 74.21875 48.875 69.140625 
Q 55.078125 64.0625 55.078125 55.328125 
Q 55.078125 49.078125 51.53125 44.71875 
Q 48 40.375 41.703125 38.8125 
Q 48.828125 37.15625 52.796875 32.3125 
Q 56.78125 27.484375 56.78125 20.515625 
Q 56.78125 9.90625 50.3125 4.234375 
Q 43.84375 -1.421875 31.78125 -1.421875 
Q 19.734375 -1.421875 13.25 4.234375 
Q 6.78125 9.90625 6.78125 20.515625 
Q 6.78125 27.484375 10.78125 32.3125 
Q 14.796875 37.15625 21.921875 38.8125 
z
M 18.3125 54.390625 
Q 18.3125 48.734375 21.84375 45.5625 
Q 25.390625 42.390625 31.78125 42.390625 
Q 38.140625 42.390625 41.71875 45.5625 
Q 45.3125 48.734375 45.3125 54.390625 
Q 45.3125 60.0625 41.71875 63.234375 
Q 38.140625 66.40625 31.78125 66.40625 
Q 25.390625 66.40625 21.84375 63.234375 
Q 18.3125 60.0625 18.3125 54.390625 
z
" id="DejaVuSans-38"/>
      </defs>
      <g transform="translate(297.724418 267.198437)scale(0.1 -0.1)">
       <use xlink:href="#DejaVuSans-30"/>
       <use x="63.623047" xlink:href="#DejaVuSans-2e"/>
       <use x="95.410156" xlink:href="#DejaVuSans-38"/>
      </g>
     </g>
    </g>
    <g id="xtick_6">
     <g id="line2d_6">
      <g>
       <use style="stroke:#000000;stroke-width:0.8;" x="374.569194" xlink:href="#m4539df45d2" y="252.6"/>
      </g>
     </g>
     <g id="text_6">
      <!-- 1 -->
      <defs>
       <path d="M 12.40625 8.296875 
L 28.515625 8.296875 
L 28.515625 63.921875 
L 10.984375 60.40625 
L 10.984375 69.390625 
L 28.421875 72.90625 
L 38.28125 72.90625 
L 38.28125 8.296875 
L 54.390625 8.296875 
L 54.390625 0 
L 12.40625 0 
z
" id="DejaVuSans-31"/>
      </defs>
      <g transform="translate(371.387944 267.198437)scale(0.1 -0.1)">
       <use xlink:href="#DejaVuSans-31"/>
      </g>
     </g>
    </g>
    <g id="xtick_7">
     <g id="line2d_7">
      <defs>
       <path d="M 0 0 
L 0 2 
" id="mbcea447e14" style="stroke:#000000;stroke-width:0.6;"/>
      </defs>
      <g>
       <use style="stroke:#000000;stroke-width:0.6;" x="47.326428" xlink:href="#mbcea447e14" y="252.6"/>
      </g>
     </g>
    </g>
    <g id="xtick_8">
     <g id="line2d_8">
      <g>
       <use style="stroke:#000000;stroke-width:0.6;" x="64.549732" xlink:href="#mbcea447e14" y="252.6"/>
      </g>
     </g>
    </g>
    <g id="xtick_9">
     <g id="line2d_9">
      <g>
       <use style="stroke:#000000;stroke-width:0.6;" x="81.773035" xlink:href="#mbcea447e14" y="252.6"/>
      </g>
     </g>
    </g>
    <g id="xtick_10">
     <g id="line2d_10">
      <g>
       <use style="stroke:#000000;stroke-width:0.6;" x="116.219642" xlink:href="#mbcea447e14" y="252.6"/>
      </g>
     </g>
    </g>
    <g id="xtick_11">
     <g id="line2d_11">
      <g>
       <use style="stroke:#000000;stroke-width:0.6;" x="133.442946" xlink:href="#mbcea447e14" y="252.6"/>
      </g>
     </g>
    </g>
    <g id="xtick_12">
     <g id="line2d_12">
      <g>
       <use style="stroke:#000000;stroke-width:0.6;" x="150.666249" xlink:href="#mbcea447e14" y="252.6"/>
      </g>
     </g>
    </g>
    <g id="xtick_13">
     <g id="line2d_13">
      <g>
       <use style="stroke:#000000;stroke-width:0.6;" x="185.112856" xlink:href="#mbcea447e14" y="252.6"/>
      </g>
     </g>
    </g>
    <g id="xtick_14">
     <g id="line2d_14">
      <g>
       <use style="stroke:#000000;stroke-width:0.6;" x="202.336159" xlink:href="#mbcea447e14" y="252.6"/>
      </g>
     </g>
    </g>
    <g id="xtick_15">
     <g id="line2d_15">
      <g>
       <use style="stroke:#000000;stroke-width:0.6;" x="219.559463" xlink:href="#mbcea447e14" y="252.6"/>
      </g>
     </g>
    </g>
    <g id="xtick_16">
     <g id="line2d_16">
      <g>
       <use style="stroke:#000000;stroke-width:0.6;" x="254.00607" xlink:href="#mbcea447e14" y="252.6"/>
      </g>
     </g>
    </g>
    <g id="xtick_17">
     <g id="line2d_17">
      <g>
       <use style="stroke:#000000;stroke-width:0.6;" x="271.229373" xlink:href="#mbcea447e14" y="252.6"/>
      </g>
     </g>
    </g>
    <g id="xtick_18">
     <g id="line2d_18">
      <g>
       <use style="stroke:#000000;stroke-width:0.6;" x="288.452677" xlink:href="#mbcea447e14" y="252.6"/>
      </g>
     </g>
    </g>
    <g id="xtick_19">
     <g id="line2d_19">
      <g>
       <use style="stroke:#000000;stroke-width:0.6;" x="322.899283" xlink:href="#mbcea447e14" y="252.6"/>
      </g>
     </g>
    </g>
    <g id="xtick_20">
     <g id="line2d_20">
      <g>
       <use style="stroke:#000000;stroke-width:0.6;" x="340.122587" xlink:href="#mbcea447e14" y="252.6"/>
      </g>
     </g>
    </g>
    <g id="xtick_21">
     <g id="line2d_21">
      <g>
       <use style="stroke:#000000;stroke-width:0.6;" x="357.34589" xlink:href="#mbcea447e14" y="252.6"/>
      </g>
     </g>
    </g>
    <g id="text_7">
     <!-- $r/L$ -->
     <defs>
      <path d="M 7.71875 1.703125 
Q 7.71875 2.296875 7.8125 2.59375 
L 15.28125 32.421875 
Q 16.015625 35.203125 16.015625 37.3125 
Q 16.015625 41.609375 13.09375 41.609375 
Q 9.96875 41.609375 8.453125 37.859375 
Q 6.9375 34.125 5.515625 28.421875 
Q 5.515625 28.125 5.21875 27.953125 
Q 4.9375 27.78125 4.6875 27.78125 
L 3.515625 27.78125 
Q 3.171875 27.78125 2.921875 28.140625 
Q 2.6875 28.515625 2.6875 28.8125 
Q 3.765625 33.15625 4.765625 36.171875 
Q 5.765625 39.203125 7.890625 41.6875 
Q 10.015625 44.1875 13.1875 44.1875 
Q 16.65625 44.1875 19.265625 42.1875 
Q 21.875 40.1875 22.515625 36.921875 
Q 25.046875 40.234375 28.296875 42.203125 
Q 31.546875 44.1875 35.40625 44.1875 
Q 38.578125 44.1875 40.984375 42.328125 
Q 43.40625 40.484375 43.40625 37.3125 
Q 43.40625 34.765625 41.8125 32.875 
Q 40.234375 31 37.59375 31 
Q 35.984375 31 34.890625 32 
Q 33.796875 33.015625 33.796875 34.625 
Q 33.796875 36.8125 35.40625 38.546875 
Q 37.015625 40.28125 39.109375 40.28125 
Q 37.5 41.609375 35.203125 41.609375 
Q 30.90625 41.609375 27.734375 38.546875 
Q 24.5625 35.5 22.015625 30.8125 
L 14.890625 2.203125 
Q 14.546875 0.828125 13.34375 -0.140625 
Q 12.15625 -1.125 10.6875 -1.125 
Q 9.46875 -1.125 8.59375 -0.34375 
Q 7.71875 0.4375 7.71875 1.703125 
z
" id="Cmmi10-72"/>
      <path d="M 5.609375 -23 
Q 5.609375 -22.703125 5.71875 -22.609375 
L 40.484375 73.78125 
Q 40.671875 74.359375 41.15625 74.671875 
Q 41.65625 75 42.28125 75 
Q 43.171875 75 43.71875 74.453125 
Q 44.28125 73.921875 44.28125 73 
L 44.28125 72.609375 
L 9.515625 -23.78125 
Q 8.9375 -25 7.625 -25 
Q 6.78125 -25 6.1875 -24.40625 
Q 5.609375 -23.828125 5.609375 -23 
z
" id="Cmmi10-3d"/>
      <path d="M 4.6875 0 
Q 3.71875 0 3.71875 1.3125 
Q 3.765625 1.5625 3.90625 2.171875 
Q 4.046875 2.78125 4.3125 3.140625 
Q 4.59375 3.515625 4.984375 3.515625 
Q 11.078125 3.515625 13.484375 4.203125 
Q 14.796875 4.640625 15.375 6.890625 
L 29.109375 61.8125 
Q 29.296875 62.796875 29.296875 63.1875 
Q 29.296875 64.265625 28.078125 64.40625 
Q 26.21875 64.796875 20.90625 64.796875 
Q 19.921875 64.796875 19.921875 66.109375 
Q 20.265625 67.390625 20.453125 67.84375 
Q 20.65625 68.3125 21.578125 68.3125 
L 51.125 68.3125 
Q 52 68.3125 52 67 
Q 51.859375 65.96875 51.65625 65.375 
Q 51.46875 64.796875 50.6875 64.796875 
Q 43.3125 64.796875 40.828125 64.3125 
Q 38.375 63.875 37.796875 61.375 
L 24.125 6.5 
Q 23.6875 5.28125 23.6875 4.296875 
Q 23.6875 3.515625 27.09375 3.515625 
L 36.375 3.515625 
Q 44.234375 3.515625 49.109375 6.640625 
Q 54 9.765625 56.34375 13.6875 
Q 58.6875 17.625 60.265625 21.84375 
Q 61.859375 26.078125 62.59375 26.21875 
L 63.484375 26.21875 
Q 64.5 26.21875 64.5 24.90625 
L 55.609375 0.6875 
Q 55.46875 0 54.6875 0 
z
" id="Cmmi10-4c"/>
     </defs>
     <g transform="translate(389.458515 252.6)scale(0.16 -0.16)">
      <use xlink:href="#Cmmi10-72"/>
      <use transform="translate(45.117188 0)" xlink:href="#Cmmi10-3d"/>
      <use transform="translate(95.117188 0)" xlink:href="#Cmmi10-4c"/>
     </g>
    </g>
   </g>
   <g id="matplotlib.axis_2">
    <g id="ytick_1">
     <g id="line2d_22">
      <defs>
       <path d="M 0 0 
L -3.5 0 
" id="md13e7f521a" style="stroke:#000000;stroke-width:0.8;"/>
      </defs>
      <g>
       <use style="stroke:#000000;stroke-width:0.8;" x="30.103125" xlink:href="#md13e7f521a" y="229.929335"/>
      </g>
     </g>
     <g id="text_8">
      <!-- 0.4 -->
      <g transform="translate(7.2 233.728554)scale(0.1 -0.1)">
       <use xlink:href="#DejaVuSans-30"/>
       <use x="63.623047" xlink:href="#DejaVuSans-2e"/>
       <use x="95.410156" xlink:href="#DejaVuSans-34"/>
      </g>
     </g>
    </g>
    <g id="ytick_2">
     <g id="line2d_23">
      <g>
       <use style="stroke:#000000;stroke-width:0.8;" x="30.103125" xlink:href="#md13e7f521a" y="191.829927"/>
      </g>
     </g>
     <g id="text_9">
      <!-- 0.6 -->
      <g transform="translate(7.2 195.629145)scale(0.1 -0.1)">
       <use xlink:href="#DejaVuSans-30"/>
       <use x="63.623047" xlink:href="#DejaVuSans-2e"/>
       <use x="95.410156" xlink:href="#DejaVuSans-36"/>
      </g>
     </g>
    </g>
    <g id="ytick_3">
     <g id="line2d_24">
      <g>
       <use style="stroke:#000000;stroke-width:0.8;" x="30.103125" xlink:href="#md13e7f521a" y="153.730518"/>
      </g>
     </g>
     <g id="text_10">
      <!-- 0.8 -->
      <g transform="translate(7.2 157.529737)scale(0.1 -0.1)">
       <use xlink:href="#DejaVuSans-30"/>
       <use x="63.623047" xlink:href="#DejaVuSans-2e"/>
       <use x="95.410156" xlink:href="#DejaVuSans-38"/>
      </g>
     </g>
    </g>
    <g id="ytick_4">
     <g id="line2d_25">
      <g>
       <use style="stroke:#000000;stroke-width:0.8;" x="30.103125" xlink:href="#md13e7f521a" y="115.63111"/>
      </g>
     </g>
     <g id="text_11">
      <!-- 1 -->
      <g transform="translate(16.740625 119.430329)scale(0.1 -0.1)">
       <use xlink:href="#DejaVuSans-31"/>
      </g>
     </g>
    </g>
    <g id="ytick_5">
     <g id="line2d_26">
      <g>
       <use style="stroke:#000000;stroke-width:0.8;" x="30.103125" xlink:href="#md13e7f521a" y="77.531702"/>
      </g>
     </g>
     <g id="text_12">
      <!-- 1.2 -->
      <g transform="translate(7.2 81.33092)scale(0.1 -0.1)">
       <use xlink:href="#DejaVuSans-31"/>
       <use x="63.623047" xlink:href="#DejaVuSans-2e"/>
       <use x="95.410156" xlink:href="#DejaVuSans-32"/>
      </g>
     </g>
    </g>
    <g id="ytick_6">
     <g id="line2d_27">
      <g>
       <use style="stroke:#000000;stroke-width:0.8;" x="30.103125" xlink:href="#md13e7f521a" y="39.432293"/>
      </g>
     </g>
     <g id="text_13">
      <!-- 1.4 -->
      <g transform="translate(7.2 43.231512)scale(0.1 -0.1)">
       <use xlink:href="#DejaVuSans-31"/>
       <use x="63.623047" xlink:href="#DejaVuSans-2e"/>
       <use x="95.410156" xlink:href="#DejaVuSans-34"/>
      </g>
     </g>
    </g>
    <g id="ytick_7">
     <g id="line2d_28">
      <defs>
       <path d="M 0 0 
L -2 0 
" id="m11ca2bdb0e" style="stroke:#000000;stroke-width:0.6;"/>
      </defs>
      <g>
       <use style="stroke:#000000;stroke-width:0.6;" x="30.103125" xlink:href="#m11ca2bdb0e" y="239.454187"/>
      </g>
     </g>
    </g>
    <g id="ytick_8">
     <g id="line2d_29">
      <g>
       <use style="stroke:#000000;stroke-width:0.6;" x="30.103125" xlink:href="#m11ca2bdb0e" y="220.404483"/>
      </g>
     </g>
    </g>
    <g id="ytick_9">
     <g id="line2d_30">
      <g>
       <use style="stroke:#000000;stroke-width:0.6;" x="30.103125" xlink:href="#m11ca2bdb0e" y="210.879631"/>
      </g>
     </g>
    </g>
    <g id="ytick_10">
     <g id="line2d_31">
      <g>
       <use style="stroke:#000000;stroke-width:0.6;" x="30.103125" xlink:href="#m11ca2bdb0e" y="201.354779"/>
      </g>
     </g>
    </g>
    <g id="ytick_11">
     <g id="line2d_32">
      <g>
       <use style="stroke:#000000;stroke-width:0.6;" x="30.103125" xlink:href="#m11ca2bdb0e" y="182.305075"/>
      </g>
     </g>
    </g>
    <g id="ytick_12">
     <g id="line2d_33">
      <g>
       <use style="stroke:#000000;stroke-width:0.6;" x="30.103125" xlink:href="#m11ca2bdb0e" y="172.780223"/>
      </g>
     </g>
    </g>
    <g id="ytick_13">
     <g id="line2d_34">
      <g>
       <use style="stroke:#000000;stroke-width:0.6;" x="30.103125" xlink:href="#m11ca2bdb0e" y="163.25537"/>
      </g>
     </g>
    </g>
    <g id="ytick_14">
     <g id="line2d_35">
      <g>
       <use style="stroke:#000000;stroke-width:0.6;" x="30.103125" xlink:href="#m11ca2bdb0e" y="144.205666"/>
      </g>
     </g>
    </g>
    <g id="ytick_15">
     <g id="line2d_36">
      <g>
       <use style="stroke:#000000;stroke-width:0.6;" x="30.103125" xlink:href="#m11ca2bdb0e" y="134.680814"/>
      </g>
     </g>
    </g>
    <g id="ytick_16">
     <g id="line2d_37">
      <g>
       <use style="stroke:#000000;stroke-width:0.6;" x="30.103125" xlink:href="#m11ca2bdb0e" y="125.155962"/>
      </g>
     </g>
    </g>
    <g id="ytick_17">
     <g id="line2d_38">
      <g>
       <use style="stroke:#000000;stroke-width:0.6;" x="30.103125" xlink:href="#m11ca2bdb0e" y="106.106258"/>
      </g>
     </g>
    </g>
    <g id="ytick_18">
     <g id="line2d_39">
      <g>
       <use style="stroke:#000000;stroke-width:0.6;" x="30.103125" xlink:href="#m11ca2bdb0e" y="96.581406"/>
      </g>
     </g>
    </g>
    <g id="ytick_19">
     <g id="line2d_40">
      <g>
       <use style="stroke:#000000;stroke-width:0.6;" x="30.103125" xlink:href="#m11ca2bdb0e" y="87.056554"/>
      </g>
     </g>
    </g>
    <g id="ytick_20">
     <g id="line2d_41">
      <g>
       <use style="stroke:#000000;stroke-width:0.6;" x="30.103125" xlink:href="#m11ca2bdb0e" y="68.00685"/>
      </g>
     </g>
    </g>
    <g id="ytick_21">
     <g id="line2d_42">
      <g>
       <use style="stroke:#000000;stroke-width:0.6;" x="30.103125" xlink:href="#m11ca2bdb0e" y="58.481997"/>
      </g>
     </g>
    </g>
    <g id="ytick_22">
     <g id="line2d_43">
      <g>
       <use style="stroke:#000000;stroke-width:0.6;" x="30.103125" xlink:href="#m11ca2bdb0e" y="48.957145"/>
      </g>
     </g>
    </g>
    <g id="text_14">
     <!-- $L\varepsilon(r)$ -->
     <defs>
      <path d="M 2.6875 10.40625 
Q 2.6875 13.140625 3.875 15.71875 
Q 5.078125 18.3125 7 20.359375 
Q 8.9375 22.40625 11.53125 24.03125 
Q 7.71875 26.65625 7.71875 30.8125 
Q 7.71875 35.25 11.421875 38.59375 
Q 15.140625 41.9375 20.5 43.625 
Q 25.875 45.3125 30.171875 45.3125 
Q 31.984375 45.3125 35.03125 44.5 
Q 38.09375 43.703125 40.375 42.375 
Q 42.671875 41.0625 42.671875 39.5 
Q 42.671875 38.328125 41.765625 37.421875 
Q 40.875 36.53125 39.796875 36.53125 
Q 39.359375 36.53125 37.578125 37.578125 
Q 35.796875 38.625 33.78125 39.453125 
Q 31.78125 40.28125 29.390625 40.28125 
Q 25.78125 40.28125 21.453125 39.421875 
Q 17.140625 38.578125 13.859375 36.453125 
Q 10.59375 34.328125 10.59375 30.90625 
Q 10.59375 27.640625 14.3125 25.390625 
Q 18.5 27.296875 22.90625 27.296875 
Q 30.71875 27.296875 30.71875 24.515625 
Q 30.71875 22.3125 28.046875 21.703125 
Q 25.390625 21.09375 21.921875 21.09375 
Q 17.234375 21.09375 14.203125 22.515625 
Q 10.890625 20.75 8.296875 17.578125 
Q 5.71875 14.40625 5.71875 10.984375 
Q 5.71875 7.765625 7.890625 5.953125 
Q 10.0625 4.15625 13.234375 3.46875 
Q 16.40625 2.78125 19.578125 2.78125 
Q 25.09375 2.78125 29.34375 3.96875 
Q 33.59375 5.171875 35.5 8.984375 
Q 35.796875 9.625 36.625 9.625 
Q 37.703125 9.28125 37.703125 8.296875 
Q 37.703125 8.203125 37.40625 7.328125 
Q 35.796875 4.15625 32.84375 2 
Q 29.890625 -0.140625 26.25 -1.171875 
Q 22.609375 -2.203125 18.796875 -2.203125 
Q 12.59375 -2.203125 7.640625 1.109375 
Q 2.6875 4.4375 2.6875 10.40625 
z
M 18.109375 24.03125 
Q 19.875 23.6875 22.125 23.6875 
Q 26.515625 23.6875 27.59375 24.3125 
Q 26.21875 24.703125 22.796875 24.703125 
Q 20.3125 24.703125 18.109375 24.03125 
z
" id="Cmmi10-22"/>
      <path d="M 31 -24.8125 
Q 25.4375 -20.40625 21.40625 -14.71875 
Q 17.390625 -9.03125 14.8125 -2.578125 
Q 12.25 3.859375 10.984375 10.890625 
Q 9.71875 17.921875 9.71875 25 
Q 9.71875 32.171875 10.984375 39.203125 
Q 12.25 46.234375 14.859375 52.734375 
Q 17.484375 59.234375 21.53125 64.890625 
Q 25.59375 70.5625 31 74.8125 
Q 31 75 31.5 75 
L 32.421875 75 
Q 32.71875 75 32.953125 74.734375 
Q 33.203125 74.46875 33.203125 74.125 
Q 33.203125 73.6875 33.015625 73.484375 
Q 28.125 68.703125 24.875 63.234375 
Q 21.625 57.765625 19.640625 51.578125 
Q 17.671875 45.40625 16.796875 38.78125 
Q 15.921875 32.171875 15.921875 25 
Q 15.921875 -6.78125 32.90625 -23.296875 
Q 33.203125 -23.578125 33.203125 -24.125 
Q 33.203125 -24.359375 32.9375 -24.671875 
Q 32.671875 -25 32.421875 -25 
L 31.5 -25 
Q 31 -25 31 -24.8125 
z
" id="Cmr10-28"/>
      <path d="M 6.5 -25 
Q 5.609375 -25 5.609375 -24.125 
Q 5.609375 -23.6875 5.8125 -23.484375 
Q 22.90625 -6.78125 22.90625 25 
Q 22.90625 56.78125 6 73.296875 
Q 5.609375 73.53125 5.609375 74.125 
Q 5.609375 74.46875 5.875 74.734375 
Q 6.15625 75 6.5 75 
L 7.421875 75 
Q 7.71875 75 7.90625 74.8125 
Q 15.09375 69.140625 19.875 61.03125 
Q 24.65625 52.9375 26.875 43.75 
Q 29.109375 34.578125 29.109375 25 
Q 29.109375 17.921875 27.90625 11.0625 
Q 26.703125 4.203125 24.09375 -2.453125 
Q 21.484375 -9.125 17.484375 -14.765625 
Q 13.484375 -20.40625 7.90625 -24.8125 
Q 7.71875 -25 7.421875 -25 
z
" id="Cmr10-29"/>
     </defs>
     <g transform="translate(11.063125 19.2)scale(0.16 -0.16)">
      <use xlink:href="#Cmmi10-4c"/>
      <use transform="translate(68.017578 0)" xlink:href="#Cmmi10-22"/>
      <use transform="translate(114.599609 0)" xlink:href="#Cmr10-28"/>
      <use transform="translate(153.417969 0)" xlink:href="#Cmmi10-72"/>
      <use transform="translate(198.535156 0)" xlink:href="#Cmr10-29"/>
     </g>
    </g>
   </g>
   <g id="line2d_44">
    <path clip-path="url(#p09f84d7fb8)" d="M 30.103125 232.491039 
L 40.682559 223.612337 
L 48.554937 217.23762 
L 58.706159 209.337561 
L 68.688549 201.948838 
L 76.529998 196.427914 
L 85.008165 190.755706 
L 92.23376 186.176746 
L 98.615787 182.335658 
L 106.148646 178.055979 
L 113.419454 174.19448 
L 121.077051 170.422453 
L 127.116583 167.666446 
L 133.625926 164.917208 
L 139.272489 162.721643 
L 145.663017 160.452536 
L 152.843487 158.180541 
L 159.145799 156.431953 
L 165.334123 154.941118 
L 171.21826 153.733432 
L 178.193941 152.569009 
L 184.48793 151.768973 
L 190.277753 151.244062 
L 196.204566 150.916944 
L 202.738614 150.803305 
L 208.506928 150.918407 
L 214.348417 151.240693 
L 221.074883 151.867673 
L 227.086002 152.658853 
L 231.919193 153.452266 
L 239.061631 154.879759 
L 246.234404 156.616818 
L 252.917376 158.505903 
L 258.789415 160.378579 
L 265.629651 162.807533 
L 271.859509 165.247937 
L 278.566217 168.113908 
L 286.267477 171.703842 
L 292.506475 174.841034 
L 299.620574 178.661716 
L 307.620684 183.259056 
L 314.12231 187.222223 
L 320.35158 191.203753 
L 329.546852 197.397795 
L 337.257279 202.869468 
L 344.488056 208.219019 
L 353.51338 215.175656 
L 363.345414 223.08285 
L 372.779496 230.965333 
L 374.569194 232.491039 
L 374.569194 232.491039 
" style="fill:none;stroke:#0028ff;stroke-linecap:square;"/>
   </g>
   <g id="line2d_45">
    <path clip-path="url(#p09f84d7fb8)" d="M 30.103125 212.127528 
L 41.180852 206.228535 
L 50.486585 201.508776 
L 59.742993 197.038238 
L 68.173241 193.169361 
L 76.991622 189.336791 
L 86.573157 185.429617 
L 96.171822 181.792638 
L 105.212844 178.628173 
L 114.156359 175.753623 
L 122.767701 173.231619 
L 131.850828 170.837963 
L 141.255404 168.65307 
L 149.444109 166.997543 
L 156.250234 165.798551 
L 164.189137 164.605012 
L 172.29117 163.616397 
L 179.859348 162.903724 
L 187.783017 162.376904 
L 195.478676 162.08078 
L 203.936651 162.000836 
L 211.845336 162.158798 
L 219.782562 162.543205 
L 227.306594 163.115977 
L 235.550818 163.97545 
L 243.02412 164.962887 
L 250.533452 166.153206 
L 257.980254 167.528092 
L 266.548408 169.347124 
L 275.34392 171.474966 
L 284.846671 174.065834 
L 293.314629 176.62544 
L 302.405865 179.631188 
L 310.989583 182.708645 
L 319.019509 185.793054 
L 327.720448 189.353564 
L 337.461299 193.600952 
L 347.153468 198.091494 
L 356.833927 202.829337 
L 366.952155 208.039369 
L 374.569194 212.127528 
L 374.569194 212.127528 
" style="fill:none;stroke:#00d4ff;stroke-linecap:square;"/>
   </g>
   <g id="line2d_46">
    <path clip-path="url(#p09f84d7fb8)" d="M 30.103125 179.130124 
L 374.569194 179.130124 
L 374.569194 179.130124 
" style="fill:none;stroke:#7dff7a;stroke-linecap:square;"/>
   </g>
   <g id="line2d_47">
    <path clip-path="url(#p09f84d7fb8)" d="M 30.103125 123.348928 
L 35.836545 129.289261 
L 41.649003 135.023595 
L 47.941096 140.915221 
L 54.883112 147.047573 
L 60.649882 151.858279 
L 67.196422 157.018173 
L 72.896698 161.258131 
L 78.203705 165.000116 
L 84.580022 169.241436 
L 90.858226 173.15359 
L 97.448785 176.986879 
L 104.123157 180.591539 
L 111.129431 184.083631 
L 115.890144 186.290118 
L 123.242259 189.439567 
L 130.684788 192.316023 
L 135.761705 194.102234 
L 142.280413 196.190561 
L 149.929226 198.352164 
L 157.074848 200.094995 
L 163.538646 201.445101 
L 170.230702 202.619302 
L 178.080592 203.71013 
L 184.555423 204.379266 
L 191.297027 204.856024 
L 197.343518 205.093608 
L 204.488398 205.143325 
L 210.300583 204.999256 
L 216.264765 204.679084 
L 223.123351 204.094381 
L 231.261023 203.098376 
L 237.523936 202.106559 
L 245.49723 200.557113 
L 250.190781 199.493067 
L 256.625903 197.848682 
L 263.955741 195.710395 
L 269.265401 193.981988 
L 275.573902 191.728812 
L 283.013843 188.787254 
L 288.94118 186.218563 
L 296.596484 182.597861 
L 303.161499 179.21342 
L 309.950017 175.434525 
L 317.202059 171.074495 
L 323.954578 166.705143 
L 331.678151 161.328626 
L 338.671694 156.099118 
L 344.515621 151.456701 
L 351.398625 145.659501 
L 359.123943 138.712788 
L 366.452876 131.674649 
L 373.049842 124.951107 
L 374.569194 123.348928 
L 374.569194 123.348928 
" style="fill:none;stroke:#ffe600;stroke-linecap:square;"/>
   </g>
   <g id="line2d_48">
    <path clip-path="url(#p09f84d7fb8)" d="M 30.103125 35.265385 
L 34.37442 48.350415 
L 39.030957 61.846086 
L 44.001559 75.412308 
L 48.648332 87.352261 
L 53.317975 98.666555 
L 57.484876 108.212328 
L 62.193799 118.406125 
L 66.35764 126.920161 
L 71.106081 136.085335 
L 76.05595 145.052658 
L 80.870903 153.230631 
L 85.353176 160.384785 
L 89.858417 167.151238 
L 94.759598 174.052203 
L 98.662573 179.220167 
L 103.867426 185.681207 
L 107.958801 190.429354 
L 112.512156 195.386617 
L 117.147959 200.094465 
L 121.175474 203.91801 
L 126.078791 208.251962 
L 130.812723 212.114903 
L 135.35886 215.539209 
L 140.389583 219.015043 
L 144.946055 221.8892 
L 149.304589 224.402993 
L 153.722165 226.723013 
L 157.621194 228.585334 
L 163.403214 231.036019 
L 167.111823 232.417124 
L 171.598566 233.893338 
L 174.987132 234.869396 
L 180.80413 236.271359 
L 185.028176 237.075962 
L 190.368716 237.839798 
L 195.54683 238.312866 
L 201.308589 238.531866 
L 206.025705 238.470833 
L 211.250063 238.150489 
L 216.825941 237.514116 
L 222.217943 236.606914 
L 227.797551 235.36199 
L 231.897456 234.245595 
L 237.64648 232.386764 
L 242.296255 230.62736 
L 247.83893 228.222843 
L 252.331865 226.021614 
L 257.531785 223.183194 
L 262.517432 220.158952 
L 268.065318 216.431824 
L 272.706772 213.009281 
L 276.786349 209.763172 
L 280.774522 206.36688 
L 285.767343 201.79238 
L 290.073117 197.547567 
L 295.030668 192.300868 
L 298.69508 188.165174 
L 303.73894 182.098317 
L 308.096364 176.492551 
L 312.929504 169.859992 
L 316.798088 164.222312 
L 321.320443 157.243755 
L 325.375487 150.614531 
L 330.193545 142.258489 
L 335.076706 133.231104 
L 339.276484 124.99395 
L 343.940694 115.306408 
L 347.941345 106.522547 
L 352.274291 96.490131 
L 356.539232 86.062484 
L 360.800263 75.069462 
L 365.091009 63.389996 
L 370.084698 48.985551 
L 374.569194 35.265385 
L 374.569194 35.265385 
" style="fill:none;stroke:#ff4700;stroke-linecap:square;"/>
   </g>
   <g id="patch_3">
    <path d="M 30.103125 242.6 
L 30.103125 31.2 
" style="fill:none;stroke:#000000;stroke-linecap:square;stroke-linejoin:miter;stroke-width:0.8;"/>
   </g>
   <g id="patch_4">
    <path d="M 23.213804 252.6 
L 381.458515 252.6 
" style="fill:none;stroke:#000000;stroke-linecap:square;stroke-linejoin:miter;stroke-width:0.8;"/>
   </g>
   <g id="legend_1">
    <g id="patch_5">
     <path d="M 178.336159 99.390625 
L 230.336159 99.390625 
L 230.336159 38.2 
L 178.336159 38.2 
z
" style="fill:#4c4c4c;opacity:0.5;stroke:#4c4c4c;stroke-linejoin:miter;"/>
    </g>
    <g id="patch_6">
     <path d="M 176.336159 97.390625 
L 228.336159 97.390625 
L 228.336159 36.2 
L 176.336159 36.2 
z
" style="fill:#ffffff;stroke:#cccccc;stroke-linejoin:miter;"/>
    </g>
    <g id="line2d_49">
     <path d="M 185.336159 46.298437 
L 179.836159 46.298437 
" style="fill:none;stroke:#0028ff;stroke-linecap:square;"/>
    </g>
    <g id="line2d_50"/>
    <g id="text_15">
     <!-- $\Lambda=-2$ -->
     <defs>
      <path d="M 3.21875 0 
L 3.21875 3.515625 
Q 11.03125 3.515625 12.984375 9.421875 
L 32.515625 70.515625 
Q 32.859375 71.578125 33.984375 71.578125 
L 35.296875 71.578125 
Q 35.84375 71.578125 36.25 71.28125 
Q 36.671875 71 36.8125 70.515625 
L 57.171875 6.6875 
Q 58.0625 4.546875 60.296875 4.03125 
Q 62.546875 3.515625 66.109375 3.515625 
L 66.109375 0 
L 39.015625 0 
L 39.015625 3.515625 
Q 47.515625 3.515625 47.515625 6.203125 
Q 47.515625 6.5 47.40625 6.6875 
L 31.59375 56.296875 
L 16.703125 9.421875 
Q 16.5 8.734375 16.5 8.40625 
Q 16.5 5.90625 18.96875 4.703125 
Q 21.4375 3.515625 24.21875 3.515625 
L 24.21875 0 
z
" id="Cmr10-a4"/>
      <path d="M 7.515625 13.28125 
Q 6.6875 13.28125 6.140625 13.90625 
Q 5.609375 14.546875 5.609375 15.28125 
Q 5.609375 16.109375 6.140625 16.6875 
Q 6.6875 17.28125 7.515625 17.28125 
L 70.3125 17.28125 
Q 71.046875 17.28125 71.578125 16.6875 
Q 72.125 16.109375 72.125 15.28125 
Q 72.125 14.546875 71.578125 13.90625 
Q 71.046875 13.28125 70.3125 13.28125 
z
M 7.515625 32.71875 
Q 6.6875 32.71875 6.140625 33.296875 
Q 5.609375 33.890625 5.609375 34.71875 
Q 5.609375 35.453125 6.140625 36.078125 
Q 6.6875 36.71875 7.515625 36.71875 
L 70.3125 36.71875 
Q 71.046875 36.71875 71.578125 36.078125 
Q 72.125 35.453125 72.125 34.71875 
Q 72.125 33.890625 71.578125 33.296875 
Q 71.046875 32.71875 70.3125 32.71875 
z
" id="Cmr10-3d"/>
      <path d="M 10.203125 23 
Q 9.375 23 8.828125 23.625 
Q 8.296875 24.265625 8.296875 25 
Q 8.296875 25.734375 8.828125 26.359375 
Q 9.375 27 10.203125 27 
L 67.578125 27 
Q 68.359375 27 68.875 26.359375 
Q 69.390625 25.734375 69.390625 25 
Q 69.390625 24.265625 68.875 23.625 
Q 68.359375 23 67.578125 23 
z
" id="Cmsy10-a1"/>
      <path d="M 4.984375 0 
L 4.984375 2.6875 
Q 4.984375 2.9375 5.171875 3.21875 
L 20.703125 20.40625 
Q 24.21875 24.21875 26.40625 26.796875 
Q 28.609375 29.390625 30.75 32.765625 
Q 32.90625 36.140625 34.15625 39.625 
Q 35.40625 43.109375 35.40625 47.015625 
Q 35.40625 51.125 33.890625 54.859375 
Q 32.375 58.59375 29.375 60.84375 
Q 26.375 63.09375 22.125 63.09375 
Q 17.78125 63.09375 14.3125 60.46875 
Q 10.84375 57.859375 9.421875 53.71875 
Q 9.8125 53.8125 10.5 53.8125 
Q 12.75 53.8125 14.328125 52.296875 
Q 15.921875 50.78125 15.921875 48.390625 
Q 15.921875 46.09375 14.328125 44.5 
Q 12.75 42.921875 10.5 42.921875 
Q 8.15625 42.921875 6.5625 44.546875 
Q 4.984375 46.1875 4.984375 48.390625 
Q 4.984375 52.15625 6.390625 55.4375 
Q 7.8125 58.734375 10.46875 61.296875 
Q 13.140625 63.875 16.484375 65.234375 
Q 19.828125 66.609375 23.578125 66.609375 
Q 29.296875 66.609375 34.21875 64.1875 
Q 39.15625 61.765625 42.03125 57.34375 
Q 44.921875 52.9375 44.921875 47.015625 
Q 44.921875 42.671875 43.015625 38.765625 
Q 41.109375 34.859375 38.125 31.65625 
Q 35.15625 28.46875 30.515625 24.40625 
Q 25.875 20.359375 24.421875 19 
L 13.09375 8.109375 
L 22.703125 8.109375 
Q 29.78125 8.109375 34.546875 8.21875 
Q 39.3125 8.34375 39.59375 8.59375 
Q 40.765625 9.859375 42 17.828125 
L 44.921875 17.828125 
L 42.09375 0 
z
" id="Cmr10-32"/>
     </defs>
     <g transform="translate(187.836159 49.798437)scale(0.1 -0.1)">
      <use transform="translate(0 0.421875)" xlink:href="#Cmr10-a4"/>
      <use transform="translate(86.943359 0.421875)" xlink:href="#Cmr10-3d"/>
      <use transform="translate(199.746094 0.421875)" xlink:href="#Cmsy10-a1"/>
      <use transform="translate(294.990234 0.421875)" xlink:href="#Cmr10-32"/>
     </g>
    </g>
    <g id="line2d_51">
     <path d="M 185.336159 56.176562 
L 179.836159 56.176562 
" style="fill:none;stroke:#00d4ff;stroke-linecap:square;"/>
    </g>
    <g id="line2d_52"/>
    <g id="text_16">
     <!-- $\Lambda=-1$ -->
     <defs>
      <path d="M 9.28125 0 
L 9.28125 3.515625 
Q 21.78125 3.515625 21.78125 6.6875 
L 21.78125 59.1875 
Q 16.609375 56.6875 8.6875 56.6875 
L 8.6875 60.203125 
Q 20.953125 60.203125 27.203125 66.609375 
L 28.609375 66.609375 
Q 28.953125 66.609375 29.265625 66.328125 
Q 29.59375 66.0625 29.59375 65.71875 
L 29.59375 6.6875 
Q 29.59375 3.515625 42.09375 3.515625 
L 42.09375 0 
z
" id="Cmr10-31"/>
     </defs>
     <g transform="translate(187.836159 59.676562)scale(0.1 -0.1)">
      <use transform="translate(0 0.421875)" xlink:href="#Cmr10-a4"/>
      <use transform="translate(86.943359 0.421875)" xlink:href="#Cmr10-3d"/>
      <use transform="translate(199.746094 0.421875)" xlink:href="#Cmsy10-a1"/>
      <use transform="translate(294.990234 0.421875)" xlink:href="#Cmr10-31"/>
     </g>
    </g>
    <g id="line2d_53">
     <path d="M 185.336159 66.054687 
L 179.836159 66.054687 
" style="fill:none;stroke:#7dff7a;stroke-linecap:square;"/>
    </g>
    <g id="line2d_54"/>
    <g id="text_17">
     <!-- $\Lambda=0$ -->
     <defs>
      <path d="M 25 -2.203125 
Q 12.75 -2.203125 8.328125 7.875 
Q 3.90625 17.96875 3.90625 31.890625 
Q 3.90625 40.578125 5.484375 48.234375 
Q 7.078125 55.90625 11.78125 61.25 
Q 16.5 66.609375 25 66.609375 
Q 31.59375 66.609375 35.78125 63.375 
Q 39.984375 60.15625 42.1875 55.046875 
Q 44.390625 49.953125 45.1875 44.109375 
Q 46 38.28125 46 31.890625 
Q 46 23.296875 44.40625 15.796875 
Q 42.828125 8.296875 38.1875 3.046875 
Q 33.546875 -2.203125 25 -2.203125 
z
M 25 0.390625 
Q 30.5625 0.390625 33.296875 6.09375 
Q 36.03125 11.8125 36.671875 18.75 
Q 37.3125 25.6875 37.3125 33.5 
Q 37.3125 41.015625 36.671875 47.359375 
Q 36.03125 53.71875 33.3125 58.859375 
Q 30.609375 64.015625 25 64.015625 
Q 19.34375 64.015625 16.609375 58.828125 
Q 13.875 53.65625 13.234375 47.328125 
Q 12.59375 41.015625 12.59375 33.5 
Q 12.59375 27.9375 12.859375 23 
Q 13.140625 18.0625 14.3125 12.8125 
Q 15.484375 7.5625 18.09375 3.96875 
Q 20.703125 0.390625 25 0.390625 
z
" id="Cmr10-30"/>
     </defs>
     <g transform="translate(187.836159 69.554687)scale(0.1 -0.1)">
      <use transform="translate(0 0.421875)" xlink:href="#Cmr10-a4"/>
      <use transform="translate(86.943359 0.421875)" xlink:href="#Cmr10-3d"/>
      <use transform="translate(182.1875 0.421875)" xlink:href="#Cmr10-30"/>
     </g>
    </g>
    <g id="line2d_55">
     <path d="M 185.336159 75.932812 
L 179.836159 75.932812 
" style="fill:none;stroke:#ffe600;stroke-linecap:square;"/>
    </g>
    <g id="line2d_56"/>
    <g id="text_18">
     <!-- $\Lambda=1$ -->
     <g transform="translate(187.836159 79.432812)scale(0.1 -0.1)">
      <use transform="translate(0 0.421875)" xlink:href="#Cmr10-a4"/>
      <use transform="translate(86.943359 0.421875)" xlink:href="#Cmr10-3d"/>
      <use transform="translate(182.1875 0.421875)" xlink:href="#Cmr10-31"/>
     </g>
    </g>
    <g id="line2d_57">
     <path d="M 185.336159 85.810937 
L 179.836159 85.810937 
" style="fill:none;stroke:#ff4700;stroke-linecap:square;"/>
    </g>
    <g id="line2d_58"/>
    <g id="text_19">
     <!-- $\Lambda=2$ -->
     <g transform="translate(187.836159 89.310937)scale(0.1 -0.1)">
      <use transform="translate(0 0.421875)" xlink:href="#Cmr10-a4"/>
      <use transform="translate(86.943359 0.421875)" xlink:href="#Cmr10-3d"/>
      <use transform="translate(182.1875 0.421875)" xlink:href="#Cmr10-32"/>
     </g>
    </g>
   </g>
  </g>
 </g>
 <defs>
  <clipPath id="p09f84d7fb8">
   <rect height="211.4" width="358.244712" x="23.213804" y="31.2"/>
  </clipPath>
 </defs>
</svg>
