<?xml version="1.0" encoding="utf-8" standalone="no"?>
<!DOCTYPE svg PUBLIC "-//W3C//DTD SVG 1.1//EN"
  "http://www.w3.org/Graphics/SVG/1.1/DTD/svg11.dtd">
<!-- Created with matplotlib (https://matplotlib.org/) -->
<svg height="360pt" version="1.1" viewBox="0 0 810 360" width="810pt" xmlns="http://www.w3.org/2000/svg" xmlns:xlink="http://www.w3.org/1999/xlink">
 <defs>
  <style type="text/css">
*{stroke-linecap:butt;stroke-linejoin:round;}
  </style>
 </defs>
 <g id="figure_1">
  <g id="patch_1">
   <path d="M 0 360 
L 810 360 
L 810 0 
L 0 0 
z
" style="fill:#ffffff;"/>
  </g>
  <g id="axes_1">
   <g id="patch_2">
    <path d="M 97.2 284.4 
L 785.7 284.4 
L 785.7 7.2 
L 97.2 7.2 
z
" style="fill:#ffffff;"/>
   </g>
   <g id="line2d_1">
    <path clip-path="url(#p77d40e892b)" d="M 97.2 273.006153 
L 104.154545 268.603891 
L 111.109091 264.246542 
L 118.063636 259.936634 
L 125.018182 255.67667 
L 131.972727 251.469121 
L 138.927273 247.316428 
L 145.881818 243.221001 
L 152.836364 239.185218 
L 159.790909 235.21142 
L 166.745455 231.301913 
L 173.7 227.458965 
L 180.654545 223.684807 
L 187.609091 219.98163 
L 194.563636 216.351581 
L 201.518182 212.796768 
L 208.472727 209.319253 
L 215.427273 205.921054 
L 222.381818 202.604144 
L 229.336364 199.370447 
L 236.290909 196.221839 
L 243.245455 193.160149 
L 250.2 190.187151 
L 257.154545 187.304573 
L 264.109091 184.514086 
L 271.063636 181.817311 
L 278.018182 179.215811 
L 284.972727 176.711096 
L 291.927273 174.30462 
L 298.881818 171.99778 
L 305.836364 169.791914 
L 312.790909 167.688303 
L 319.745455 165.688166 
L 326.7 163.792665 
L 333.654545 162.002899 
L 340.609091 160.319908 
L 347.563636 158.744667 
L 354.518182 157.278092 
L 361.472727 155.921033 
L 368.427273 154.674277 
L 375.381818 153.538548 
L 382.336364 152.514505 
L 389.290909 151.602743 
L 396.245455 150.80379 
L 403.2 150.11811 
L 410.154545 149.546101 
L 417.109091 149.088095 
L 424.063636 148.744358 
L 431.018182 148.515089 
L 437.972727 148.400421 
L 444.927273 148.400421 
L 451.881818 148.515089 
L 458.836364 148.744358 
L 465.790909 149.088095 
L 472.745455 149.546101 
L 479.7 150.11811 
L 486.654545 150.80379 
L 493.609091 151.602743 
L 500.563636 152.514505 
L 507.518182 153.538548 
L 514.472727 154.674277 
L 521.427273 155.921033 
L 528.381818 157.278092 
L 535.336364 158.744667 
L 542.290909 160.319908 
L 549.245455 162.002899 
L 556.2 163.792665 
L 563.154545 165.688166 
L 570.109091 167.688303 
L 577.063636 169.791914 
L 584.018182 171.99778 
L 590.972727 174.30462 
L 597.927273 176.711096 
L 604.881818 179.215811 
L 611.836364 181.817311 
L 618.790909 184.514086 
L 625.745455 187.304573 
L 632.7 190.187151 
L 639.654545 193.160149 
L 646.609091 196.221839 
L 653.563636 199.370447 
L 660.518182 202.604144 
L 667.472727 205.921054 
L 674.427273 209.319253 
L 681.381818 212.796768 
L 688.336364 216.351581 
L 695.290909 219.98163 
L 702.245455 223.684807 
L 709.2 227.458965 
L 716.154545 231.301913 
L 723.109091 235.21142 
L 730.063636 239.185218 
L 737.018182 243.221001 
L 743.972727 247.316428 
L 750.927273 251.469121 
L 757.881818 255.67667 
L 764.836364 259.936634 
L 771.790909 264.246542 
L 778.745455 268.603891 
L 785.7 273.006153 
" style="fill:none;stroke:#0173b2;stroke-linecap:square;stroke-width:4;"/>
   </g>
   <g id="line2d_2">
    <path clip-path="url(#p77d40e892b)" d="M 97.2 256.706366 
L 104.154545 253.119957 
L 111.109091 249.577504 
L 118.063636 246.080685 
L 125.018182 242.631153 
L 131.972727 239.230542 
L 138.927273 235.880462 
L 145.881818 232.582496 
L 152.836364 229.338207 
L 159.790909 226.14913 
L 166.745455 223.016773 
L 173.7 219.94262 
L 180.654545 216.928125 
L 187.609091 213.974715 
L 194.563636 211.083788 
L 201.518182 208.256712 
L 208.472727 205.494824 
L 215.427273 202.799432 
L 222.381818 200.171811 
L 229.336364 197.613206 
L 236.290909 195.124827 
L 243.245455 192.707851 
L 250.2 190.363422 
L 257.154545 188.092651 
L 264.109091 185.896611 
L 271.063636 183.776342 
L 278.018182 181.732848 
L 284.972727 179.767095 
L 291.927273 177.880014 
L 298.881818 176.072498 
L 305.836364 174.345402 
L 312.790909 172.699544 
L 319.745455 171.135702 
L 326.7 169.654618 
L 333.654545 168.256991 
L 340.609091 166.943483 
L 347.563636 165.714716 
L 354.518182 164.571271 
L 361.472727 163.513689 
L 368.427273 162.542472 
L 375.381818 161.658078 
L 382.336364 160.860926 
L 389.290909 160.151394 
L 396.245455 159.529817 
L 403.2 158.996489 
L 410.154545 158.551663 
L 417.109091 158.19555 
L 424.063636 157.928317 
L 431.018182 157.750091 
L 437.972727 157.660958 
L 444.927273 157.660958 
L 451.881818 157.750091 
L 458.836364 157.928317 
L 465.790909 158.19555 
L 472.745455 158.551663 
L 479.7 158.996489 
L 486.654545 159.529817 
L 493.609091 160.151394 
L 500.563636 160.860926 
L 507.518182 161.658078 
L 514.472727 162.542472 
L 521.427273 163.513689 
L 528.381818 164.571271 
L 535.336364 165.714716 
L 542.290909 166.943483 
L 549.245455 168.256991 
L 556.2 169.654618 
L 563.154545 171.135702 
L 570.109091 172.699544 
L 577.063636 174.345402 
L 584.018182 176.072498 
L 590.972727 177.880014 
L 597.927273 179.767095 
L 604.881818 181.732848 
L 611.836364 183.776342 
L 618.790909 185.896611 
L 625.745455 188.092651 
L 632.7 190.363422 
L 639.654545 192.707851 
L 646.609091 195.124827 
L 653.563636 197.613206 
L 660.518182 200.171811 
L 667.472727 202.799432 
L 674.427273 205.494824 
L 681.381818 208.256712 
L 688.336364 211.083788 
L 695.290909 213.974715 
L 702.245455 216.928125 
L 709.2 219.94262 
L 716.154545 223.016773 
L 723.109091 226.14913 
L 730.063636 229.338207 
L 737.018182 232.582496 
L 743.972727 235.880462 
L 750.927273 239.230542 
L 757.881818 242.631153 
L 764.836364 246.080685 
L 771.790909 249.577504 
L 778.745455 253.119957 
L 785.7 256.706366 
" style="fill:none;stroke:#de8f05;stroke-linecap:square;stroke-width:4;"/>
   </g>
   <g id="line2d_3">
    <path clip-path="url(#p77d40e892b)" d="M 97.2 232.013222 
L 104.154545 229.727791 
L 111.109091 227.477482 
L 118.063636 225.262977 
L 125.018182 223.084942 
L 131.972727 220.944037 
L 138.927273 218.840908 
L 145.881818 216.776191 
L 152.836364 214.750508 
L 159.790909 212.764472 
L 166.745455 210.818684 
L 173.7 208.91373 
L 180.654545 207.050186 
L 187.609091 205.228615 
L 194.563636 203.449568 
L 201.518182 201.713581 
L 208.472727 200.021179 
L 215.427273 198.372874 
L 222.381818 196.769162 
L 229.336364 195.21053 
L 236.290909 193.697447 
L 243.245455 192.23037 
L 250.2 190.809743 
L 257.154545 189.435995 
L 264.109091 188.109541 
L 271.063636 186.830781 
L 278.018182 185.600103 
L 284.972727 184.417876 
L 291.927273 183.28446 
L 298.881818 182.200195 
L 305.836364 181.16541 
L 312.790909 180.180417 
L 319.745455 179.245513 
L 326.7 178.360982 
L 333.654545 177.52709 
L 340.609091 176.74409 
L 347.563636 176.012217 
L 354.518182 175.331692 
L 361.472727 174.702722 
L 368.427273 174.125497 
L 375.381818 173.60019 
L 382.336364 173.12696 
L 389.290909 172.705951 
L 396.245455 172.33729 
L 403.2 172.021087 
L 410.154545 171.757439 
L 417.109091 171.546424 
L 424.063636 171.388108 
L 431.018182 171.282537 
L 437.972727 171.229743 
L 444.927273 171.229743 
L 451.881818 171.282537 
L 458.836364 171.388108 
L 465.790909 171.546424 
L 472.745455 171.757439 
L 479.7 172.021087 
L 486.654545 172.33729 
L 493.609091 172.705951 
L 500.563636 173.12696 
L 507.518182 173.60019 
L 514.472727 174.125497 
L 521.427273 174.702722 
L 528.381818 175.331692 
L 535.336364 176.012217 
L 542.290909 176.74409 
L 549.245455 177.52709 
L 556.2 178.360982 
L 563.154545 179.245513 
L 570.109091 180.180417 
L 577.063636 181.16541 
L 584.018182 182.200195 
L 590.972727 183.28446 
L 597.927273 184.417876 
L 604.881818 185.600103 
L 611.836364 186.830781 
L 618.790909 188.109541 
L 625.745455 189.435995 
L 632.7 190.809743 
L 639.654545 192.23037 
L 646.609091 193.697447 
L 653.563636 195.21053 
L 660.518182 196.769162 
L 667.472727 198.372874 
L 674.427273 200.021179 
L 681.381818 201.713581 
L 688.336364 203.449568 
L 695.290909 205.228615 
L 702.245455 207.050186 
L 709.2 208.91373 
L 716.154545 210.818684 
L 723.109091 212.764472 
L 730.063636 214.750508 
L 737.018182 216.776191 
L 743.972727 218.840908 
L 750.927273 220.944037 
L 757.881818 223.084942 
L 764.836364 225.262977 
L 771.790909 227.477482 
L 778.745455 229.727791 
L 785.7 232.013222 
" style="fill:none;stroke:#029e73;stroke-linecap:square;stroke-width:4;"/>
   </g>
   <g id="line2d_4">
    <path clip-path="url(#p77d40e892b)" d="M 97.2 192 
L 104.154545 192 
L 111.109091 192 
L 118.063636 192 
L 125.018182 192 
L 131.972727 192 
L 138.927273 192 
L 145.881818 192 
L 152.836364 192 
L 159.790909 192 
L 166.745455 192 
L 173.7 192 
L 180.654545 192 
L 187.609091 192 
L 194.563636 192 
L 201.518182 192 
L 208.472727 192 
L 215.427273 192 
L 222.381818 192 
L 229.336364 192 
L 236.290909 192 
L 243.245455 192 
L 250.2 192 
L 257.154545 192 
L 264.109091 192 
L 271.063636 192 
L 278.018182 192 
L 284.972727 192 
L 291.927273 192 
L 298.881818 192 
L 305.836364 192 
L 312.790909 192 
L 319.745455 192 
L 326.7 192 
L 333.654545 192 
L 340.609091 192 
L 347.563636 192 
L 354.518182 192 
L 361.472727 192 
L 368.427273 192 
L 375.381818 192 
L 382.336364 192 
L 389.290909 192 
L 396.245455 192 
L 403.2 192 
L 410.154545 192 
L 417.109091 192 
L 424.063636 192 
L 431.018182 192 
L 437.972727 192 
L 444.927273 192 
L 451.881818 192 
L 458.836364 192 
L 465.790909 192 
L 472.745455 192 
L 479.7 192 
L 486.654545 192 
L 493.609091 192 
L 500.563636 192 
L 507.518182 192 
L 514.472727 192 
L 521.427273 192 
L 528.381818 192 
L 535.336364 192 
L 542.290909 192 
L 549.245455 192 
L 556.2 192 
L 563.154545 192 
L 570.109091 192 
L 577.063636 192 
L 584.018182 192 
L 590.972727 192 
L 597.927273 192 
L 604.881818 192 
L 611.836364 192 
L 618.790909 192 
L 625.745455 192 
L 632.7 192 
L 639.654545 192 
L 646.609091 192 
L 653.563636 192 
L 660.518182 192 
L 667.472727 192 
L 674.427273 192 
L 681.381818 192 
L 688.336364 192 
L 695.290909 192 
L 702.245455 192 
L 709.2 192 
L 716.154545 192 
L 723.109091 192 
L 730.063636 192 
L 737.018182 192 
L 743.972727 192 
L 750.927273 192 
L 757.881818 192 
L 764.836364 192 
L 771.790909 192 
L 778.745455 192 
L 785.7 192 
" style="fill:none;stroke:#d55e00;stroke-linecap:square;stroke-width:4;"/>
   </g>
   <g id="line2d_5">
    <path clip-path="url(#p77d40e892b)" d="M 97.2 124.358759 
L 104.154545 128.771701 
L 111.109091 133.057041 
L 118.063636 137.217297 
L 125.018182 141.254911 
L 131.972727 145.172257 
L 138.927273 148.971635 
L 145.881818 152.655276 
L 152.836364 156.225345 
L 159.790909 159.683938 
L 166.745455 163.033088 
L 173.7 166.274761 
L 180.654545 169.410862 
L 187.609091 172.443233 
L 194.563636 175.373655 
L 201.518182 178.20385 
L 208.472727 180.935479 
L 215.427273 183.570148 
L 222.381818 186.109405 
L 229.336364 188.55474 
L 236.290909 190.90759 
L 243.245455 193.169338 
L 250.2 195.341312 
L 257.154545 197.424787 
L 264.109091 199.420988 
L 271.063636 201.331087 
L 278.018182 203.156206 
L 284.972727 204.897417 
L 291.927273 206.555744 
L 298.881818 208.13216 
L 305.836364 209.62759 
L 312.790909 211.042915 
L 319.745455 212.378964 
L 326.7 213.636523 
L 333.654545 214.816331 
L 340.609091 215.91908 
L 347.563636 216.945418 
L 354.518182 217.895949 
L 361.472727 218.77123 
L 368.427273 219.571776 
L 375.381818 220.298056 
L 382.336364 220.950499 
L 389.290909 221.529485 
L 396.245455 222.035357 
L 403.2 222.468411 
L 410.154545 222.828901 
L 417.109091 223.11704 
L 424.063636 223.332996 
L 431.018182 223.476896 
L 437.972727 223.548825 
L 444.927273 223.548825 
L 451.881818 223.476896 
L 458.836364 223.332996 
L 465.790909 223.11704 
L 472.745455 222.828901 
L 479.7 222.468411 
L 486.654545 222.035357 
L 493.609091 221.529485 
L 500.563636 220.950499 
L 507.518182 220.298056 
L 514.472727 219.571776 
L 521.427273 218.77123 
L 528.381818 217.895949 
L 535.336364 216.945418 
L 542.290909 215.91908 
L 549.245455 214.816331 
L 556.2 213.636523 
L 563.154545 212.378964 
L 570.109091 211.042915 
L 577.063636 209.62759 
L 584.018182 208.13216 
L 590.972727 206.555744 
L 597.927273 204.897417 
L 604.881818 203.156206 
L 611.836364 201.331087 
L 618.790909 199.420988 
L 625.745455 197.424787 
L 632.7 195.341312 
L 639.654545 193.169338 
L 646.609091 190.90759 
L 653.563636 188.55474 
L 660.518182 186.109405 
L 667.472727 183.570148 
L 674.427273 180.935479 
L 681.381818 178.20385 
L 688.336364 175.373655 
L 695.290909 172.443233 
L 702.245455 169.410862 
L 709.2 166.274761 
L 716.154545 163.033088 
L 723.109091 159.683938 
L 730.063636 156.225345 
L 737.018182 152.655276 
L 743.972727 148.971635 
L 750.927273 145.172257 
L 757.881818 141.254911 
L 764.836364 137.217297 
L 771.790909 133.057041 
L 778.745455 128.771701 
L 785.7 124.358759 
" style="fill:none;stroke:#cc78bc;stroke-linecap:square;stroke-width:4;"/>
   </g>
   <g id="line2d_6">
    <path clip-path="url(#p77d40e892b)" d="M 97.2 17.547135 
L 104.154545 30.535866 
L 111.109091 42.975329 
L 118.063636 54.887182 
L 125.018182 66.292165 
L 131.972727 77.210137 
L 138.927273 87.660106 
L 145.881818 97.660268 
L 152.836364 107.228035 
L 159.790909 116.380065 
L 166.745455 125.132294 
L 173.7 133.499959 
L 180.654545 141.497632 
L 187.609091 149.139236 
L 194.563636 156.438077 
L 201.518182 163.406863 
L 208.472727 170.057728 
L 215.427273 176.402252 
L 222.381818 182.451482 
L 229.336364 188.21595 
L 236.290909 193.705693 
L 243.245455 198.93027 
L 250.2 203.898777 
L 257.154545 208.619865 
L 264.109091 213.101754 
L 271.063636 217.352249 
L 278.018182 221.378749 
L 284.972727 225.188265 
L 291.927273 228.78743 
L 298.881818 232.182512 
L 305.836364 235.379421 
L 312.790909 238.383723 
L 319.745455 241.20065 
L 326.7 243.835105 
L 333.654545 246.291677 
L 340.609091 248.574643 
L 347.563636 250.687976 
L 354.518182 252.635358 
L 361.472727 254.420178 
L 368.427273 256.045544 
L 375.381818 257.514287 
L 382.336364 258.828963 
L 389.290909 259.991862 
L 396.245455 261.005008 
L 403.2 261.870166 
L 410.154545 262.588841 
L 417.109091 263.162286 
L 424.063636 263.591497 
L 431.018182 263.877224 
L 437.972727 264.019963 
L 444.927273 264.019963 
L 451.881818 263.877224 
L 458.836364 263.591497 
L 465.790909 263.162286 
L 472.745455 262.588841 
L 479.7 261.870166 
L 486.654545 261.005008 
L 493.609091 259.991862 
L 500.563636 258.828963 
L 507.518182 257.514287 
L 514.472727 256.045544 
L 521.427273 254.420178 
L 528.381818 252.635358 
L 535.336364 250.687976 
L 542.290909 248.574643 
L 549.245455 246.291677 
L 556.2 243.835105 
L 563.154545 241.20065 
L 570.109091 238.383723 
L 577.063636 235.379421 
L 584.018182 232.182512 
L 590.972727 228.78743 
L 597.927273 225.188265 
L 604.881818 221.378749 
L 611.836364 217.352249 
L 618.790909 213.101754 
L 625.745455 208.619865 
L 632.7 203.898777 
L 639.654545 198.93027 
L 646.609091 193.705693 
L 653.563636 188.21595 
L 660.518182 182.451482 
L 667.472727 176.402252 
L 674.427273 170.057728 
L 681.381818 163.406863 
L 688.336364 156.438077 
L 695.290909 149.139236 
L 702.245455 141.497632 
L 709.2 133.499959 
L 716.154545 125.132294 
L 723.109091 116.380065 
L 730.063636 107.228035 
L 737.018182 97.660268 
L 743.972727 87.660106 
L 750.927273 77.210137 
L 757.881818 66.292165 
L 764.836364 54.887182 
L 771.790909 42.975329 
L 778.745455 30.535866 
L 785.7 17.547135 
" style="fill:none;stroke:#ca9161;stroke-linecap:square;stroke-width:4;"/>
   </g>
   <g id="patch_3">
    <path d="M 97.2 284.4 
L 97.2 7.2 
" style="fill:none;stroke:#000000;stroke-linecap:square;stroke-linejoin:miter;"/>
   </g>
   <g id="patch_4">
    <path d="M 785.7 284.4 
L 785.7 7.2 
" style="fill:none;stroke:#000000;stroke-linecap:square;stroke-linejoin:miter;"/>
   </g>
   <g id="patch_5">
    <path d="M 97.2 284.4 
L 785.7 284.4 
" style="fill:none;stroke:#000000;stroke-linecap:square;stroke-linejoin:miter;"/>
   </g>
   <g id="patch_6">
    <path d="M 97.2 7.2 
L 785.7 7.2 
" style="fill:none;stroke:#000000;stroke-linecap:square;stroke-linejoin:miter;"/>
   </g>
   <g id="matplotlib.axis_1">
    <g id="xtick_1">
     <g id="line2d_7">
      <defs>
       <path d="M 0 0 
L 0 -10 
" id="m46295ba4e2" style="stroke:#000000;stroke-width:0.5;"/>
      </defs>
      <g>
       <use style="stroke:#000000;stroke-width:0.5;" x="97.2" xlink:href="#m46295ba4e2" y="284.4"/>
      </g>
     </g>
     <g id="line2d_8">
      <defs>
       <path d="M 0 0 
L 0 10 
" id="m64e9d0a685" style="stroke:#000000;stroke-width:0.5;"/>
      </defs>
      <g>
       <use style="stroke:#000000;stroke-width:0.5;" x="97.2" xlink:href="#m64e9d0a685" y="7.2"/>
      </g>
     </g>
     <g id="text_1">
      <!-- $0.0$ -->
      <defs>
       <path d="M 42 31.640625 
C 42 37.75 41.90625 48.125 37.703125 56.109375 
C 34 63.109375 28.09375 65.59375 22.90625 65.59375 
C 18.09375 65.59375 12 63.40625 8.203125 56.203125 
C 4.203125 48.71875 3.796875 39.4375 3.796875 31.640625 
C 3.796875 25.953125 3.90625 17.28125 7 9.671875 
C 11.296875 -0.609375 19 -2 22.90625 -2 
C 27.5 -2 34.5 -0.109375 38.59375 9.375 
C 41.59375 16.28125 42 24.359375 42 31.640625 
z
M 22.90625 -0.40625 
C 16.5 -0.40625 12.703125 5.078125 11.296875 12.6875 
C 10.203125 18.5625 10.203125 27.15625 10.203125 32.75 
C 10.203125 40.4375 10.203125 46.828125 11.5 52.921875 
C 13.40625 61.390625 19 64 22.90625 64 
C 27 64 32.296875 61.296875 34.203125 53.125 
C 35.5 47.4375 35.59375 40.734375 35.59375 32.75 
C 35.59375 26.25 35.59375 18.265625 34.40625 12.375 
C 32.296875 1.484375 26.40625 -0.40625 22.90625 -0.40625 
z
" id="CMR17-48"/>
       <path d="M 18.40625 4.796875 
C 18.40625 7.6875 16 9.671875 13.59375 9.671875 
C 10.703125 9.671875 8.703125 7.28125 8.703125 4.890625 
C 8.703125 2 11.09375 0 13.5 0 
C 16.40625 0 18.40625 2.390625 18.40625 4.796875 
z
" id="CMMI12-58"/>
      </defs>
      <g transform="translate(76.466327 313.244121)scale(0.35 -0.35)">
       <use transform="scale(0.996264)" xlink:href="#CMR17-48"/>
       <use transform="translate(45.690477 0)scale(0.996264)" xlink:href="#CMMI12-58"/>
       <use transform="translate(72.787654 0)scale(0.996264)" xlink:href="#CMR17-48"/>
      </g>
     </g>
    </g>
    <g id="xtick_2">
     <g id="line2d_9">
      <g>
       <use style="stroke:#000000;stroke-width:0.5;" x="234.9" xlink:href="#m46295ba4e2" y="284.4"/>
      </g>
     </g>
     <g id="line2d_10">
      <g>
       <use style="stroke:#000000;stroke-width:0.5;" x="234.9" xlink:href="#m64e9d0a685" y="7.2"/>
      </g>
     </g>
     <g id="text_2">
      <!-- $0.2$ -->
      <defs>
       <path d="M 41.703125 15.453125 
L 39.90625 15.453125 
C 38.90625 8.375 38.09375 7.171875 37.703125 6.5625 
C 37.203125 5.765625 30 5.765625 28.59375 5.765625 
L 9.40625 5.765625 
C 13 9.671875 20 16.75 28.5 24.953125 
C 34.59375 30.734375 41.703125 37.53125 41.703125 47.421875 
C 41.703125 59.21875 32.296875 66 21.796875 66 
C 10.796875 66 4.09375 56.3125 4.09375 47.34375 
C 4.09375 43.4375 7 42.9375 8.203125 42.9375 
C 9.203125 42.9375 12.203125 43.546875 12.203125 47.03125 
C 12.203125 50.109375 9.59375 51 8.203125 51 
C 7.59375 51 7 50.90625 6.59375 50.703125 
C 8.5 59.21875 14.296875 63.40625 20.40625 63.40625 
C 29.09375 63.40625 34.796875 56.515625 34.796875 47.421875 
C 34.796875 38.734375 29.703125 31.25 24 24.75 
L 4.09375 2.28125 
L 4.09375 0 
L 39.296875 0 
z
" id="CMR17-50"/>
      </defs>
      <g transform="translate(214.166327 313.244121)scale(0.35 -0.35)">
       <use transform="scale(0.996264)" xlink:href="#CMR17-48"/>
       <use transform="translate(45.690477 0)scale(0.996264)" xlink:href="#CMMI12-58"/>
       <use transform="translate(72.787654 0)scale(0.996264)" xlink:href="#CMR17-50"/>
      </g>
     </g>
    </g>
    <g id="xtick_3">
     <g id="line2d_11">
      <g>
       <use style="stroke:#000000;stroke-width:0.5;" x="372.6" xlink:href="#m46295ba4e2" y="284.4"/>
      </g>
     </g>
     <g id="line2d_12">
      <g>
       <use style="stroke:#000000;stroke-width:0.5;" x="372.6" xlink:href="#m64e9d0a685" y="7.2"/>
      </g>
     </g>
     <g id="text_3">
      <!-- $0.4$ -->
      <defs>
       <path d="M 33.59375 64.40625 
C 33.59375 66.5 33.5 66.5 31.703125 66.5 
L 2 19.59375 
L 2 17 
L 27.796875 17 
L 27.796875 7.140625 
C 27.796875 3.5 27.59375 2.5 20.59375 2.5 
L 18.703125 2.5 
L 18.703125 0 
C 21.90625 0 27.296875 0 30.703125 0 
C 34.09375 0 39.5 0 42.703125 0 
L 42.703125 2.5 
L 40.796875 2.5 
C 33.796875 2.5 33.59375 3.5 33.59375 7.140625 
L 33.59375 17 
L 43.796875 17 
L 43.796875 19.59375 
L 33.59375 19.59375 
z
M 28.09375 57.859375 
L 28.09375 19.59375 
L 4 19.59375 
z
" id="CMR17-52"/>
      </defs>
      <g transform="translate(351.866327 313.244121)scale(0.35 -0.35)">
       <use transform="scale(0.996264)" xlink:href="#CMR17-48"/>
       <use transform="translate(45.690477 0)scale(0.996264)" xlink:href="#CMMI12-58"/>
       <use transform="translate(72.787654 0)scale(0.996264)" xlink:href="#CMR17-52"/>
      </g>
     </g>
    </g>
    <g id="xtick_4">
     <g id="line2d_13">
      <g>
       <use style="stroke:#000000;stroke-width:0.5;" x="510.3" xlink:href="#m46295ba4e2" y="284.4"/>
      </g>
     </g>
     <g id="line2d_14">
      <g>
       <use style="stroke:#000000;stroke-width:0.5;" x="510.3" xlink:href="#m64e9d0a685" y="7.2"/>
      </g>
     </g>
     <g id="text_4">
      <!-- $0.6$ -->
      <defs>
       <path d="M 10.59375 34 
C 10.59375 57.65625 21.796875 63 28.296875 63 
C 30.40625 63 35.5 62.640625 37.5 59 
C 35.90625 59 32.90625 59 32.90625 55.515625 
C 32.90625 52.828125 35.09375 51.921875 36.5 51.921875 
C 37.40625 51.921875 40.09375 52.3125 40.09375 55.625 
C 40.09375 61.78125 35.09375 65.296875 28.203125 65.296875 
C 16.296875 65.296875 3.796875 52.96875 3.796875 31 
C 3.796875 3.953125 15.09375 -2 23.09375 -2 
C 32.796875 -2 42 6.671875 42 20.046875 
C 42 32.515625 33.90625 41.59375 23.703125 41.59375 
C 17.59375 41.59375 13.09375 37.609375 10.59375 30.625 
z
M 23.09375 0.390625 
C 10.796875 0.390625 10.796875 18.75 10.796875 22.4375 
C 10.796875 29.625 14.203125 40 23.5 40 
C 25.203125 40 30.09375 40 33.40625 33.125 
C 35.203125 29.21875 35.203125 25.140625 35.203125 20.140625 
C 35.203125 14.75 35.203125 10.78125 33.09375 6.78125 
C 30.90625 2.671875 27.703125 0.390625 23.09375 0.390625 
z
" id="CMR17-54"/>
      </defs>
      <g transform="translate(489.566327 313.244121)scale(0.35 -0.35)">
       <use transform="scale(0.996264)" xlink:href="#CMR17-48"/>
       <use transform="translate(45.690477 0)scale(0.996264)" xlink:href="#CMMI12-58"/>
       <use transform="translate(72.787654 0)scale(0.996264)" xlink:href="#CMR17-54"/>
      </g>
     </g>
    </g>
    <g id="xtick_5">
     <g id="line2d_15">
      <g>
       <use style="stroke:#000000;stroke-width:0.5;" x="648" xlink:href="#m46295ba4e2" y="284.4"/>
      </g>
     </g>
     <g id="line2d_16">
      <g>
       <use style="stroke:#000000;stroke-width:0.5;" x="648" xlink:href="#m64e9d0a685" y="7.2"/>
      </g>
     </g>
     <g id="text_5">
      <!-- $0.8$ -->
      <defs>
       <path d="M 27.203125 35.375 
C 33.5 38.546875 39.90625 43.328125 39.90625 50.984375 
C 39.90625 60.015625 31.09375 65.296875 23 65.296875 
C 13.90625 65.296875 5.90625 58.734375 5.90625 49.6875 
C 5.90625 47.203125 6.5 42.921875 10.40625 39.140625 
C 11.40625 38.15625 15.59375 35.171875 18.296875 33.28125 
C 13.796875 30.984375 3.296875 25.53125 3.296875 14.59375 
C 3.296875 4.359375 13.09375 -2 22.796875 -2 
C 33.5 -2 42.5 5.65625 42.5 15.78125 
C 42.5 24.84375 36.40625 29.015625 32.40625 31.703125 
z
M 14.09375 44.09375 
C 13.296875 44.59375 9.296875 47.671875 9.296875 52.359375 
C 9.296875 58.421875 15.59375 63 22.796875 63 
C 30.703125 63 36.5 57.4375 36.5 50.96875 
C 36.5 41.703125 26.09375 36.421875 25.59375 36.421875 
C 25.5 36.421875 25.40625 36.421875 24.59375 37.03125 
z
M 32.5 23.734375 
C 34 22.640625 38.796875 19.375 38.796875 13.296875 
C 38.796875 5.953125 31.40625 0.390625 23 0.390625 
C 13.90625 0.390625 7 6.84375 7 14.6875 
C 7 22.546875 13.09375 29.09375 20 32.1875 
z
" id="CMR17-56"/>
      </defs>
      <g transform="translate(627.266327 313.244121)scale(0.35 -0.35)">
       <use transform="scale(0.996264)" xlink:href="#CMR17-48"/>
       <use transform="translate(45.690477 0)scale(0.996264)" xlink:href="#CMMI12-58"/>
       <use transform="translate(72.787654 0)scale(0.996264)" xlink:href="#CMR17-56"/>
      </g>
     </g>
    </g>
    <g id="xtick_6">
     <g id="line2d_17">
      <g>
       <use style="stroke:#000000;stroke-width:0.5;" x="785.7" xlink:href="#m46295ba4e2" y="284.4"/>
      </g>
     </g>
     <g id="line2d_18">
      <g>
       <use style="stroke:#000000;stroke-width:0.5;" x="785.7" xlink:href="#m64e9d0a685" y="7.2"/>
      </g>
     </g>
     <g id="text_6">
      <!-- $1.0$ -->
      <defs>
       <path d="M 26.59375 63.40625 
C 26.59375 65.5 26.5 65.5 25.09375 65.5 
C 21.203125 61.1875 15.296875 59.796875 9.703125 59.796875 
C 9.40625 59.796875 8.90625 59.796875 8.796875 59.5 
C 8.703125 59.296875 8.703125 59.09375 8.703125 57 
C 11.796875 57 17 57.59375 21 59.984375 
L 21 7.203125 
C 21 3.6875 20.796875 2.5 12.203125 2.5 
L 9.203125 2.5 
L 9.203125 0 
C 14 0 19 0 23.796875 0 
C 28.59375 0 33.59375 0 38.40625 0 
L 38.40625 2.5 
L 35.40625 2.5 
C 26.796875 2.5 26.59375 3.59375 26.59375 7.15625 
z
" id="CMR17-49"/>
      </defs>
      <g transform="translate(764.966327 313.244121)scale(0.35 -0.35)">
       <use transform="scale(0.996264)" xlink:href="#CMR17-49"/>
       <use transform="translate(45.690477 0)scale(0.996264)" xlink:href="#CMMI12-58"/>
       <use transform="translate(72.787654 0)scale(0.996264)" xlink:href="#CMR17-48"/>
      </g>
     </g>
    </g>
    <g id="text_7">
     <!-- $r/L$ -->
     <defs>
      <path d="M 38.90625 40.8125 
C 35.796875 40.21875 34.203125 38.015625 34.203125 35.828125 
C 34.203125 33.421875 36.09375 32.625 37.5 32.625 
C 40.296875 32.625 42.59375 35.03125 42.59375 38.015625 
C 42.59375 41.21875 39.5 44 34.5 44 
C 30.5 44 25.90625 42.203125 21.703125 36.125 
C 21 41.40625 17 44 13 44 
C 9.09375 44 7.09375 41.015625 5.90625 38.8125 
C 4.203125 35.21875 2.703125 29.234375 2.703125 28.734375 
C 2.703125 28.34375 3.09375 27.84375 3.796875 27.84375 
C 4.59375 27.84375 4.703125 27.9375 5.296875 30.234375 
C 6.796875 36.21875 8.703125 42.015625 12.703125 42.015625 
C 15.09375 42.015625 15.796875 40.3125 15.796875 37.421875 
C 15.796875 35.21875 14.796875 31.328125 14.09375 28.234375 
L 11.296875 17.46875 
C 10.90625 15.5625 9.796875 11.078125 9.296875 9.28125 
C 8.59375 6.6875 7.5 2 7.5 1.5 
C 7.5 0.09375 8.59375 -1 10.09375 -1 
C 11.203125 -1 13.09375 -0.296875 13.703125 1.703125 
C 14 2.5 17.703125 17.5625 18.296875 19.859375 
C 18.796875 22.046875 19.40625 24.15625 19.90625 26.34375 
C 20.296875 27.734375 20.703125 29.34375 21 30.640625 
C 21.296875 31.53125 24 36.421875 26.5 38.625 
C 27.703125 39.71875 30.296875 42.015625 34.40625 42.015625 
C 36 42.015625 37.59375 41.71875 38.90625 40.8125 
z
" id="CMMI12-114"/>
      <path d="M 42.90625 71.28125 
C 42.90625 71.390625 43.5 72.90625 43.5 73.09375 
C 43.5 74.296875 42.5 75 41.703125 75 
C 41.203125 75 40.296875 75 39.5 72.796875 
L 6 -21.296875 
C 6 -21.40625 5.40625 -22.890625 5.40625 -23.09375 
C 5.40625 -24.296875 6.40625 -25 7.203125 -25 
C 7.796875 -25 8.703125 -24.890625 9.40625 -22.796875 
z
" id="CMMI12-61"/>
      <path d="M 36.703125 60.328125 
C 37.59375 64.109375 37.90625 65.109375 46.703125 65.109375 
C 49.40625 65.109375 50.09375 65.109375 50.09375 67 
C 50.09375 68 49 68 48.59375 68 
C 46.59375 68 44.296875 68 42.296875 68 
L 28.90625 68 
C 27 68 24.796875 68 22.90625 68 
C 22.09375 68 21 68 21 66.109375 
C 21 65.109375 21.90625 65.109375 23.40625 65.109375 
C 29.5 65.109375 29.5 64.3125 29.5 63.21875 
C 29.5 63.03125 29.5 62.421875 29.09375 60.921875 
L 15.59375 7.375 
C 14.703125 3.890625 14.5 2.890625 7.5 2.890625 
C 5.59375 2.890625 4.59375 2.890625 4.59375 1.09375 
C 4.59375 0 5.203125 0 7.203125 0 
L 52 0 
C 54.203125 0 54.296875 0.09375 55 1.890625 
L 62.703125 23.09375 
C 62.90625 23.59375 63.09375 24.1875 63.09375 24.484375 
C 63.09375 25.078125 62.59375 25.484375 62.09375 25.484375 
C 62 25.484375 61.5 25.484375 61.296875 25.078125 
C 61.09375 24.984375 61.09375 24.78125 60.296875 22.890625 
C 57.09375 14.140625 52.59375 2.890625 35.703125 2.890625 
L 26.09375 2.890625 
C 24.703125 2.890625 24.5 2.890625 23.90625 3 
C 22.796875 3.09375 22.703125 3.296875 22.703125 4.09375 
C 22.703125 4.796875 22.90625 5.390625 23.09375 6.265625 
z
" id="CMMI12-76"/>
     </defs>
     <g transform="translate(413.132143 351.823004)scale(0.35 -0.35)">
      <use transform="scale(0.996264)" xlink:href="#CMMI12-114"/>
      <use transform="translate(46.670612 0)scale(0.996264)" xlink:href="#CMMI12-61"/>
      <use transform="translate(95.445531 0)scale(0.996264)" xlink:href="#CMMI12-76"/>
     </g>
    </g>
   </g>
   <g id="matplotlib.axis_2">
    <g id="ytick_1">
     <g id="line2d_19">
      <defs>
       <path d="M 0 0 
L 10 0 
" id="m711346a0fc" style="stroke:#000000;stroke-width:0.5;"/>
      </defs>
      <g>
       <use style="stroke:#000000;stroke-width:0.5;" x="97.2" xlink:href="#m711346a0fc" y="284.4"/>
      </g>
     </g>
     <g id="line2d_20">
      <defs>
       <path d="M 0 0 
L -10 0 
" id="m3df689b1e7" style="stroke:#000000;stroke-width:0.5;"/>
      </defs>
      <g>
       <use style="stroke:#000000;stroke-width:0.5;" x="785.7" xlink:href="#m3df689b1e7" y="284.4"/>
      </g>
     </g>
     <g id="text_8">
      <!-- $0.1$ -->
      <g transform="translate(51.732654 293.108584)scale(0.35 -0.35)">
       <use transform="scale(0.996264)" xlink:href="#CMR17-48"/>
       <use transform="translate(45.690477 0)scale(0.996264)" xlink:href="#CMMI12-58"/>
       <use transform="translate(72.787654 0)scale(0.996264)" xlink:href="#CMR17-49"/>
      </g>
     </g>
    </g>
    <g id="ytick_2">
     <g id="line2d_21">
      <g>
       <use style="stroke:#000000;stroke-width:0.5;" x="97.2" xlink:href="#m711346a0fc" y="222.8"/>
      </g>
     </g>
     <g id="line2d_22">
      <g>
       <use style="stroke:#000000;stroke-width:0.5;" x="785.7" xlink:href="#m3df689b1e7" y="222.8"/>
      </g>
     </g>
     <g id="text_9">
      <!-- $0.2$ -->
      <g transform="translate(51.732654 231.508584)scale(0.35 -0.35)">
       <use transform="scale(0.996264)" xlink:href="#CMR17-48"/>
       <use transform="translate(45.690477 0)scale(0.996264)" xlink:href="#CMMI12-58"/>
       <use transform="translate(72.787654 0)scale(0.996264)" xlink:href="#CMR17-50"/>
      </g>
     </g>
    </g>
    <g id="ytick_3">
     <g id="line2d_23">
      <g>
       <use style="stroke:#000000;stroke-width:0.5;" x="97.2" xlink:href="#m711346a0fc" y="161.2"/>
      </g>
     </g>
     <g id="line2d_24">
      <g>
       <use style="stroke:#000000;stroke-width:0.5;" x="785.7" xlink:href="#m3df689b1e7" y="161.2"/>
      </g>
     </g>
     <g id="text_10">
      <!-- $0.3$ -->
      <defs>
       <path d="M 22.09375 33.703125 
C 31 33.703125 34.90625 25.96875 34.90625 17.03125 
C 34.90625 5 28.5 0.390625 22.703125 0.390625 
C 17.40625 0.390625 8.796875 3.03125 6.09375 10.828125 
C 6.59375 10.625 7.09375 10.625 7.59375 10.625 
C 10 10.625 11.796875 12.21875 11.796875 14.8125 
C 11.796875 17.703125 9.59375 19 7.59375 19 
C 5.90625 19 3.296875 18.203125 3.296875 14.46875 
C 3.296875 5.234375 12.296875 -2 22.90625 -2 
C 34 -2 42.5 6.71875 42.5 16.953125 
C 42.5 26.671875 34.5 33.703125 25 34.796875 
C 32.59375 36.375 39.90625 43.0625 39.90625 52.015625 
C 39.90625 59.6875 32 65.296875 23 65.296875 
C 13.90625 65.296875 5.90625 59.828125 5.90625 52.015625 
C 5.90625 48.59375 8.5 48 9.796875 48 
C 11.90625 48 13.703125 49.296875 13.703125 51.890625 
C 13.703125 54.46875 11.90625 55.765625 9.796875 55.765625 
C 9.40625 55.765625 8.90625 55.765625 8.5 55.578125 
C 11.40625 61.859375 19.296875 63 22.796875 63 
C 26.296875 63 32.90625 61.328125 32.90625 51.875 
C 32.90625 49.109375 32.5 44.1875 29.09375 39.84375 
C 26.09375 36 22.703125 36 19.40625 35.6875 
C 18.90625 35.6875 16.59375 35.453125 16.203125 35.453125 
C 15.5 35.359375 15.09375 35.265625 15.09375 34.5 
C 15.09375 33.796875 15.203125 33.703125 17.203125 33.703125 
z
" id="CMR17-51"/>
      </defs>
      <g transform="translate(51.732654 169.908584)scale(0.35 -0.35)">
       <use transform="scale(0.996264)" xlink:href="#CMR17-48"/>
       <use transform="translate(45.690477 0)scale(0.996264)" xlink:href="#CMMI12-58"/>
       <use transform="translate(72.787654 0)scale(0.996264)" xlink:href="#CMR17-51"/>
      </g>
     </g>
    </g>
    <g id="ytick_4">
     <g id="line2d_25">
      <g>
       <use style="stroke:#000000;stroke-width:0.5;" x="97.2" xlink:href="#m711346a0fc" y="99.6"/>
      </g>
     </g>
     <g id="line2d_26">
      <g>
       <use style="stroke:#000000;stroke-width:0.5;" x="785.7" xlink:href="#m3df689b1e7" y="99.6"/>
      </g>
     </g>
     <g id="text_11">
      <!-- $0.4$ -->
      <g transform="translate(51.732654 108.308584)scale(0.35 -0.35)">
       <use transform="scale(0.996264)" xlink:href="#CMR17-48"/>
       <use transform="translate(45.690477 0)scale(0.996264)" xlink:href="#CMMI12-58"/>
       <use transform="translate(72.787654 0)scale(0.996264)" xlink:href="#CMR17-52"/>
      </g>
     </g>
    </g>
    <g id="ytick_5">
     <g id="line2d_27">
      <g>
       <use style="stroke:#000000;stroke-width:0.5;" x="97.2" xlink:href="#m711346a0fc" y="38"/>
      </g>
     </g>
     <g id="line2d_28">
      <g>
       <use style="stroke:#000000;stroke-width:0.5;" x="785.7" xlink:href="#m3df689b1e7" y="38"/>
      </g>
     </g>
     <g id="text_12">
      <!-- $0.5$ -->
      <defs>
       <path d="M 11.40625 57.6875 
C 12.40625 57.28125 16.5 56 20.703125 56 
C 30 56 35.09375 61.109375 38 64.0625 
C 38 64.953125 38 65.5 37.40625 65.5 
C 37.296875 65.5 37.09375 65.5 36.296875 65.046875 
C 32.796875 63.40625 28.703125 62.078125 23.703125 62.078125 
C 20.703125 62.078125 16.203125 62.484375 11.296875 64.671875 
C 10.203125 65.171875 10 65.171875 9.90625 65.171875 
C 9.40625 65.171875 9.296875 65.0625 9.296875 63.078125 
L 9.296875 34.421875 
C 9.296875 32.640625 9.296875 32.140625 10.296875 32.140625 
C 10.796875 32.140625 11 32.34375 11.5 33.03125 
C 14.703125 37.515625 19.09375 39.40625 24.09375 39.40625 
C 27.59375 39.40625 35.09375 37.21875 35.09375 20.140625 
C 35.09375 16.953125 35.09375 11.171875 32.09375 6.578125 
C 29.59375 2.484375 25.703125 0.390625 21.40625 0.390625 
C 14.796875 0.390625 8.09375 5 6.296875 12.71875 
C 6.703125 12.609375 7.5 12.421875 7.90625 12.421875 
C 9.203125 12.421875 11.703125 13.125 11.703125 16.21875 
C 11.703125 18.90625 9.796875 20 7.90625 20 
C 5.59375 20 4.09375 18.59375 4.09375 15.796875 
C 4.09375 7.09375 11 -2 21.59375 -2 
C 31.90625 -2 41.703125 6.875 41.703125 19.75 
C 41.703125 31.71875 33.90625 41 24.203125 41 
C 19.09375 41 14.796875 39.109375 11.40625 35.53125 
z
" id="CMR17-53"/>
      </defs>
      <g transform="translate(51.732654 46.708584)scale(0.35 -0.35)">
       <use transform="scale(0.996264)" xlink:href="#CMR17-48"/>
       <use transform="translate(45.690477 0)scale(0.996264)" xlink:href="#CMMI12-58"/>
       <use transform="translate(72.787654 0)scale(0.996264)" xlink:href="#CMR17-53"/>
      </g>
     </g>
    </g>
    <g id="text_13">
     <!-- $L \varepsilon_{\Lambda}(r)$ -->
     <defs>
      <path d="M 13.90625 22.296875 
C 17.09375 21.015625 20.5 21.015625 22.40625 21.015625 
C 25 21.015625 30.203125 21.015625 30.203125 24.21875 
C 30.203125 26.21875 28.296875 27 23.203125 27 
C 20.703125 27 17.703125 26.703125 14.203125 25.203125 
C 11.09375 26.6875 9.90625 28.9375 9.90625 31.09375 
C 9.90625 37.171875 19.703125 40.71875 28.59375 40.71875 
C 30.296875 40.71875 33.90625 40.71875 38.09375 37.671875 
C 38.703125 37.296875 39 36.984375 39.703125 36.984375 
C 40.90625 36.984375 42.203125 38.265625 42.203125 39.46875 
C 42.203125 41.234375 36.40625 45 29.5 45 
C 18.296875 45 7.703125 38.265625 7.703125 30.8125 
C 7.703125 27.09375 10.09375 24.78125 11.796875 23.578125 
C 6 20.328125 2.59375 15.015625 2.59375 10.1875 
C 2.59375 3.421875 8.796875 -2 18.40625 -2 
C 31.59375 -2 36.90625 6.625 36.90625 8 
C 36.90625 8.484375 36.5 8.875 36 8.875 
C 35.5 8.875 35.296875 8.578125 34.90625 8 
C 33.796875 6.171875 31.203125 2.28125 19.296875 2.28125 
C 13.09375 2.28125 4.90625 3.828125 4.90625 10.71875 
C 4.90625 14.03125 7.40625 18.96875 13.90625 22.296875 
z
M 17 23.71875 
C 19.703125 25 22.296875 25 23 25 
C 25.796875 25 26.296875 24.734375 27.90625 24.140625 
C 26.203125 23 26 23 22.40625 23 
C 20.59375 23 19 23 17 23.71875 
z
" id="CMMI12-34"/>
      <path d="M 33.59375 68.796875 
C 33.09375 70.390625 33 70.5 32 70.5 
C 31 70.5 30.90625 70.390625 30.40625 68.796875 
L 10.703125 9 
C 8.90625 3.703125 5.59375 2.5 2.296875 2.5 
L 2.296875 0 
C 4 0 7.5 0 9.296875 0 
C 11.796875 0 15.703125 0 18.09375 -0.09375 
L 18.09375 2.5 
C 12.796875 2.5 12.5 6.3125 12.5 7.015625 
C 12.5 7.71875 12.703125 8.3125 13 9.3125 
L 29.59375 59.921875 
L 47 7.203125 
C 47.5 5.8125 47.5 5.609375 47.5 5.3125 
C 47.5 2.5 43.296875 2.5 41.203125 2.5 
L 41.203125 0 
C 44.09375 0 49.203125 0 52.296875 0 
C 54.796875 0 59.40625 0 61.703125 -0.09375 
L 61.703125 2.5 
C 57.296875 2.5 55.5 2.5 54.296875 6 
z
" id="CMR17-3"/>
      <path d="M 30.59375 -24.390625 
C 30.59375 -24.296875 30.59375 -24.09375 30.296875 -23.796875 
C 25.703125 -19.125 13.40625 -6.359375 13.40625 24.703125 
C 13.40625 55.765625 25.5 68.421875 30.40625 73.390625 
C 30.40625 73.5 30.59375 73.703125 30.59375 74 
C 30.59375 74.296875 30.296875 74.5 29.90625 74.5 
C 28.796875 74.5 20.296875 67.125 15.40625 56.15625 
C 10.40625 45.109375 9 34.359375 9 24.8125 
C 9 17.625 9.703125 5.484375 15.703125 -7.359375 
C 20.5 -17.734375 28.703125 -25 29.90625 -25 
C 30.40625 -25 30.59375 -24.796875 30.59375 -24.390625 
z
" id="CMR17-40"/>
      <path d="M 26.296875 24.703125 
C 26.296875 31.875 25.59375 44.015625 19.59375 56.859375 
C 14.796875 67.234375 6.59375 74.5 5.40625 74.5 
C 5.09375 74.5 4.703125 74.390625 4.703125 73.890625 
C 4.703125 73.703125 4.796875 73.59375 4.90625 73.390625 
C 9.703125 68.40625 21.90625 55.75 21.90625 24.75 
C 21.90625 -6.359375 9.796875 -19.015625 4.90625 -24.015625 
C 4.796875 -24.203125 4.703125 -24.3125 4.703125 -24.5 
C 4.703125 -25 5.09375 -25 5.40625 -25 
C 6.5 -25 15 -17.625 19.90625 -6.65625 
C 24.90625 4.390625 26.296875 15.140625 26.296875 24.703125 
z
" id="CMR17-41"/>
     </defs>
     <g transform="translate(39.305702 193.992082)rotate(-90)scale(0.35 -0.35)">
      <use transform="translate(0 14.943915)scale(0.996264)" xlink:href="#CMMI12-76"/>
      <use transform="translate(66.370875 14.943915)scale(0.996264)" xlink:href="#CMMI12-34"/>
      <use transform="translate(112.021068 0)scale(0.697382)" xlink:href="#CMR17-3"/>
      <use transform="translate(157.226274 14.943915)scale(0.996264)" xlink:href="#CMR17-40"/>
      <use transform="translate(192.507041 14.943915)scale(0.996264)" xlink:href="#CMMI12-114"/>
      <use transform="translate(239.177654 14.943915)scale(0.996264)" xlink:href="#CMR17-41"/>
     </g>
    </g>
   </g>
   <g id="legend_1">
    <g id="line2d_29">
     <path d="M 204.595413 38.695801 
L 227.095413 38.695801 
" style="fill:none;stroke:#0173b2;stroke-linecap:square;stroke-width:4;"/>
    </g>
    <g id="line2d_30"/>
    <g id="text_14">
     <!-- $\Lambda=-3$ -->
     <defs>
      <path d="M 64.296875 31.515625 
C 65.796875 31.515625 67.296875 31.515625 67.296875 33.203125 
C 67.296875 35 65.59375 35 63.90625 35 
L 8 35 
C 6.296875 35 4.59375 35 4.59375 33.203125 
C 4.59375 31.515625 6.09375 31.515625 7.59375 31.515625 
z
M 63.90625 14 
C 65.59375 14 67.296875 14 67.296875 15.796875 
C 67.296875 17.484375 65.796875 17.484375 64.296875 17.484375 
L 7.59375 17.484375 
C 6.09375 17.484375 4.59375 17.484375 4.59375 15.796875 
C 4.59375 14 6.296875 14 8 14 
z
" id="CMR17-61"/>
      <path d="M 65.90625 23 
C 67.59375 23 69.40625 23 69.40625 25 
C 69.40625 27 67.59375 27 65.90625 27 
L 11.796875 27 
C 10.09375 27 8.296875 27 8.296875 25 
C 8.296875 23 10.09375 23 11.796875 23 
z
" id="CMSY10-0"/>
     </defs>
     <g transform="translate(254.595413 47.445801)scale(0.25 -0.25)">
      <use transform="scale(0.996264)" xlink:href="#CMR17-3"/>
      <use transform="translate(91.541531 0)scale(0.996264)" xlink:href="#CMR17-61"/>
      <use transform="translate(190.930328 0)scale(0.996264)" xlink:href="#CMSY10-0"/>
      <use transform="translate(268.417795 0)scale(0.996264)" xlink:href="#CMR17-51"/>
     </g>
    </g>
    <g id="line2d_31">
     <path d="M 204.595413 74.246567 
L 227.095413 74.246567 
" style="fill:none;stroke:#de8f05;stroke-linecap:square;stroke-width:4;"/>
    </g>
    <g id="line2d_32"/>
    <g id="text_15">
     <!-- $\Lambda=-2$ -->
     <g transform="translate(254.595413 82.996567)scale(0.25 -0.25)">
      <use transform="scale(0.996264)" xlink:href="#CMR17-3"/>
      <use transform="translate(91.541531 0)scale(0.996264)" xlink:href="#CMR17-61"/>
      <use transform="translate(190.930328 0)scale(0.996264)" xlink:href="#CMSY10-0"/>
      <use transform="translate(268.417795 0)scale(0.996264)" xlink:href="#CMR17-50"/>
     </g>
    </g>
    <g id="line2d_33">
     <path d="M 390.622424 38.695801 
L 413.122424 38.695801 
" style="fill:none;stroke:#029e73;stroke-linecap:square;stroke-width:4;"/>
    </g>
    <g id="line2d_34"/>
    <g id="text_16">
     <!-- $\Lambda=-1$ -->
     <g transform="translate(440.622424 47.445801)scale(0.25 -0.25)">
      <use transform="scale(0.996264)" xlink:href="#CMR17-3"/>
      <use transform="translate(91.541531 0)scale(0.996264)" xlink:href="#CMR17-61"/>
      <use transform="translate(190.930328 0)scale(0.996264)" xlink:href="#CMSY10-0"/>
      <use transform="translate(268.417795 0)scale(0.996264)" xlink:href="#CMR17-49"/>
     </g>
    </g>
    <g id="line2d_35">
     <path d="M 390.622424 74.246567 
L 413.122424 74.246567 
" style="fill:none;stroke:#d55e00;stroke-linecap:square;stroke-width:4;"/>
    </g>
    <g id="line2d_36"/>
    <g id="text_17">
     <!-- $\Lambda=0$ -->
     <g transform="translate(440.622424 82.996567)scale(0.25 -0.25)">
      <use transform="scale(0.996264)" xlink:href="#CMR17-3"/>
      <use transform="translate(91.541531 0)scale(0.996264)" xlink:href="#CMR17-61"/>
      <use transform="translate(190.930328 0)scale(0.996264)" xlink:href="#CMR17-48"/>
     </g>
    </g>
    <g id="line2d_37">
     <path d="M 576.649435 38.695801 
L 599.149435 38.695801 
" style="fill:none;stroke:#cc78bc;stroke-linecap:square;stroke-width:4;"/>
    </g>
    <g id="line2d_38"/>
    <g id="text_18">
     <!-- $\Lambda=1$ -->
     <g transform="translate(626.649435 47.445801)scale(0.25 -0.25)">
      <use transform="scale(0.996264)" xlink:href="#CMR17-3"/>
      <use transform="translate(91.541531 0)scale(0.996264)" xlink:href="#CMR17-61"/>
      <use transform="translate(190.930328 0)scale(0.996264)" xlink:href="#CMR17-49"/>
     </g>
    </g>
    <g id="line2d_39">
     <path d="M 576.649435 74.246567 
L 599.149435 74.246567 
" style="fill:none;stroke:#ca9161;stroke-linecap:square;stroke-width:4;"/>
    </g>
    <g id="line2d_40"/>
    <g id="text_19">
     <!-- $\Lambda=2$ -->
     <g transform="translate(626.649435 82.996567)scale(0.25 -0.25)">
      <use transform="scale(0.996264)" xlink:href="#CMR17-3"/>
      <use transform="translate(91.541531 0)scale(0.996264)" xlink:href="#CMR17-61"/>
      <use transform="translate(190.930328 0)scale(0.996264)" xlink:href="#CMR17-50"/>
     </g>
    </g>
   </g>
  </g>
 </g>
 <defs>
  <clipPath id="p77d40e892b">
   <rect height="277.2" width="688.5" x="97.2" y="7.2"/>
  </clipPath>
 </defs>
</svg>
