<?xml version="1.0" encoding="utf-8" standalone="no"?>
<!DOCTYPE svg PUBLIC "-//W3C//DTD SVG 1.1//EN"
  "http://www.w3.org/Graphics/SVG/1.1/DTD/svg11.dtd">
<!-- Created with matplotlib (http://matplotlib.org/) -->
<svg height="276.478125pt" version="1.1" viewBox="0 0 423.008611 276.478125" width="423.008611pt" xmlns="http://www.w3.org/2000/svg" xmlns:xlink="http://www.w3.org/1999/xlink">
 <defs>
  <style type="text/css">
*{stroke-linecap:butt;stroke-linejoin:round;}
  </style>
 </defs>
 <g id="figure_1">
  <g id="patch_1">
   <path d="M 0 276.478125 
L 423.008611 276.478125 
L 423.008611 0 
L 0 0 
z
" style="fill:#ffffff;"/>
  </g>
  <g id="axes_1">
   <g id="patch_2">
    <path d="M 29.6989 242.6 
L 381.568611 242.6 
L 381.568611 31.2 
L 29.6989 31.2 
z
" style="fill:#ffffff;"/>
   </g>
   <g id="matplotlib.axis_1">
    <g id="xtick_1">
     <g id="line2d_1">
      <defs>
       <path d="M 0 0 
L 0 3.5 
" id="mdd3fe18ef8" style="stroke:#000000;stroke-width:0.8;"/>
      </defs>
      <g>
       <use style="stroke:#000000;stroke-width:0.8;" x="36.465625" xlink:href="#mdd3fe18ef8" y="252.6"/>
      </g>
     </g>
     <g id="text_1">
      <!-- 0 -->
      <defs>
       <path d="M 31.78125 66.40625 
Q 24.171875 66.40625 20.328125 58.90625 
Q 16.5 51.421875 16.5 36.375 
Q 16.5 21.390625 20.328125 13.890625 
Q 24.171875 6.390625 31.78125 6.390625 
Q 39.453125 6.390625 43.28125 13.890625 
Q 47.125 21.390625 47.125 36.375 
Q 47.125 51.421875 43.28125 58.90625 
Q 39.453125 66.40625 31.78125 66.40625 
z
M 31.78125 74.21875 
Q 44.046875 74.21875 50.515625 64.515625 
Q 56.984375 54.828125 56.984375 36.375 
Q 56.984375 17.96875 50.515625 8.265625 
Q 44.046875 -1.421875 31.78125 -1.421875 
Q 19.53125 -1.421875 13.0625 8.265625 
Q 6.59375 17.96875 6.59375 36.375 
Q 6.59375 54.828125 13.0625 64.515625 
Q 19.53125 74.21875 31.78125 74.21875 
z
" id="DejaVuSans-30"/>
      </defs>
      <g transform="translate(33.284375 267.198438)scale(0.1 -0.1)">
       <use xlink:href="#DejaVuSans-30"/>
      </g>
     </g>
    </g>
    <g id="xtick_2">
     <g id="line2d_2">
      <g>
       <use style="stroke:#000000;stroke-width:0.8;" x="104.132877" xlink:href="#mdd3fe18ef8" y="252.6"/>
      </g>
     </g>
     <g id="text_2">
      <!-- 0.2 -->
      <defs>
       <path d="M 10.6875 12.40625 
L 21 12.40625 
L 21 0 
L 10.6875 0 
z
" id="DejaVuSans-2e"/>
       <path d="M 19.1875 8.296875 
L 53.609375 8.296875 
L 53.609375 0 
L 7.328125 0 
L 7.328125 8.296875 
Q 12.9375 14.109375 22.625 23.890625 
Q 32.328125 33.6875 34.8125 36.53125 
Q 39.546875 41.84375 41.421875 45.53125 
Q 43.3125 49.21875 43.3125 52.78125 
Q 43.3125 58.59375 39.234375 62.25 
Q 35.15625 65.921875 28.609375 65.921875 
Q 23.96875 65.921875 18.8125 64.3125 
Q 13.671875 62.703125 7.8125 59.421875 
L 7.8125 69.390625 
Q 13.765625 71.78125 18.9375 73 
Q 24.125 74.21875 28.421875 74.21875 
Q 39.75 74.21875 46.484375 68.546875 
Q 53.21875 62.890625 53.21875 53.421875 
Q 53.21875 48.921875 51.53125 44.890625 
Q 49.859375 40.875 45.40625 35.40625 
Q 44.1875 33.984375 37.640625 27.21875 
Q 31.109375 20.453125 19.1875 8.296875 
z
" id="DejaVuSans-32"/>
      </defs>
      <g transform="translate(96.181315 267.198438)scale(0.1 -0.1)">
       <use xlink:href="#DejaVuSans-30"/>
       <use x="63.623047" xlink:href="#DejaVuSans-2e"/>
       <use x="95.410156" xlink:href="#DejaVuSans-32"/>
      </g>
     </g>
    </g>
    <g id="xtick_3">
     <g id="line2d_3">
      <g>
       <use style="stroke:#000000;stroke-width:0.8;" x="171.800129" xlink:href="#mdd3fe18ef8" y="252.6"/>
      </g>
     </g>
     <g id="text_3">
      <!-- 0.4 -->
      <defs>
       <path d="M 37.796875 64.3125 
L 12.890625 25.390625 
L 37.796875 25.390625 
z
M 35.203125 72.90625 
L 47.609375 72.90625 
L 47.609375 25.390625 
L 58.015625 25.390625 
L 58.015625 17.1875 
L 47.609375 17.1875 
L 47.609375 0 
L 37.796875 0 
L 37.796875 17.1875 
L 4.890625 17.1875 
L 4.890625 26.703125 
z
" id="DejaVuSans-34"/>
      </defs>
      <g transform="translate(163.848567 267.198438)scale(0.1 -0.1)">
       <use xlink:href="#DejaVuSans-30"/>
       <use x="63.623047" xlink:href="#DejaVuSans-2e"/>
       <use x="95.410156" xlink:href="#DejaVuSans-34"/>
      </g>
     </g>
    </g>
    <g id="xtick_4">
     <g id="line2d_4">
      <g>
       <use style="stroke:#000000;stroke-width:0.8;" x="239.467382" xlink:href="#mdd3fe18ef8" y="252.6"/>
      </g>
     </g>
     <g id="text_4">
      <!-- 0.6 -->
      <defs>
       <path d="M 33.015625 40.375 
Q 26.375 40.375 22.484375 35.828125 
Q 18.609375 31.296875 18.609375 23.390625 
Q 18.609375 15.53125 22.484375 10.953125 
Q 26.375 6.390625 33.015625 6.390625 
Q 39.65625 6.390625 43.53125 10.953125 
Q 47.40625 15.53125 47.40625 23.390625 
Q 47.40625 31.296875 43.53125 35.828125 
Q 39.65625 40.375 33.015625 40.375 
z
M 52.59375 71.296875 
L 52.59375 62.3125 
Q 48.875 64.0625 45.09375 64.984375 
Q 41.3125 65.921875 37.59375 65.921875 
Q 27.828125 65.921875 22.671875 59.328125 
Q 17.53125 52.734375 16.796875 39.40625 
Q 19.671875 43.65625 24.015625 45.921875 
Q 28.375 48.1875 33.59375 48.1875 
Q 44.578125 48.1875 50.953125 41.515625 
Q 57.328125 34.859375 57.328125 23.390625 
Q 57.328125 12.15625 50.6875 5.359375 
Q 44.046875 -1.421875 33.015625 -1.421875 
Q 20.359375 -1.421875 13.671875 8.265625 
Q 6.984375 17.96875 6.984375 36.375 
Q 6.984375 53.65625 15.1875 63.9375 
Q 23.390625 74.21875 37.203125 74.21875 
Q 40.921875 74.21875 44.703125 73.484375 
Q 48.484375 72.75 52.59375 71.296875 
z
" id="DejaVuSans-36"/>
      </defs>
      <g transform="translate(231.515819 267.198438)scale(0.1 -0.1)">
       <use xlink:href="#DejaVuSans-30"/>
       <use x="63.623047" xlink:href="#DejaVuSans-2e"/>
       <use x="95.410156" xlink:href="#DejaVuSans-36"/>
      </g>
     </g>
    </g>
    <g id="xtick_5">
     <g id="line2d_5">
      <g>
       <use style="stroke:#000000;stroke-width:0.8;" x="307.134634" xlink:href="#mdd3fe18ef8" y="252.6"/>
      </g>
     </g>
     <g id="text_5">
      <!-- 0.8 -->
      <defs>
       <path d="M 31.78125 34.625 
Q 24.75 34.625 20.71875 30.859375 
Q 16.703125 27.09375 16.703125 20.515625 
Q 16.703125 13.921875 20.71875 10.15625 
Q 24.75 6.390625 31.78125 6.390625 
Q 38.8125 6.390625 42.859375 10.171875 
Q 46.921875 13.96875 46.921875 20.515625 
Q 46.921875 27.09375 42.890625 30.859375 
Q 38.875 34.625 31.78125 34.625 
z
M 21.921875 38.8125 
Q 15.578125 40.375 12.03125 44.71875 
Q 8.5 49.078125 8.5 55.328125 
Q 8.5 64.0625 14.71875 69.140625 
Q 20.953125 74.21875 31.78125 74.21875 
Q 42.671875 74.21875 48.875 69.140625 
Q 55.078125 64.0625 55.078125 55.328125 
Q 55.078125 49.078125 51.53125 44.71875 
Q 48 40.375 41.703125 38.8125 
Q 48.828125 37.15625 52.796875 32.3125 
Q 56.78125 27.484375 56.78125 20.515625 
Q 56.78125 9.90625 50.3125 4.234375 
Q 43.84375 -1.421875 31.78125 -1.421875 
Q 19.734375 -1.421875 13.25 4.234375 
Q 6.78125 9.90625 6.78125 20.515625 
Q 6.78125 27.484375 10.78125 32.3125 
Q 14.796875 37.15625 21.921875 38.8125 
z
M 18.3125 54.390625 
Q 18.3125 48.734375 21.84375 45.5625 
Q 25.390625 42.390625 31.78125 42.390625 
Q 38.140625 42.390625 41.71875 45.5625 
Q 45.3125 48.734375 45.3125 54.390625 
Q 45.3125 60.0625 41.71875 63.234375 
Q 38.140625 66.40625 31.78125 66.40625 
Q 25.390625 66.40625 21.84375 63.234375 
Q 18.3125 60.0625 18.3125 54.390625 
z
" id="DejaVuSans-38"/>
      </defs>
      <g transform="translate(299.183071 267.198438)scale(0.1 -0.1)">
       <use xlink:href="#DejaVuSans-30"/>
       <use x="63.623047" xlink:href="#DejaVuSans-2e"/>
       <use x="95.410156" xlink:href="#DejaVuSans-38"/>
      </g>
     </g>
    </g>
    <g id="xtick_6">
     <g id="line2d_6">
      <g>
       <use style="stroke:#000000;stroke-width:0.8;" x="374.801886" xlink:href="#mdd3fe18ef8" y="252.6"/>
      </g>
     </g>
     <g id="text_6">
      <!-- 1 -->
      <defs>
       <path d="M 12.40625 8.296875 
L 28.515625 8.296875 
L 28.515625 63.921875 
L 10.984375 60.40625 
L 10.984375 69.390625 
L 28.421875 72.90625 
L 38.28125 72.90625 
L 38.28125 8.296875 
L 54.390625 8.296875 
L 54.390625 0 
L 12.40625 0 
z
" id="DejaVuSans-31"/>
      </defs>
      <g transform="translate(371.620636 267.198438)scale(0.1 -0.1)">
       <use xlink:href="#DejaVuSans-31"/>
      </g>
     </g>
    </g>
    <g id="xtick_7">
     <g id="line2d_7">
      <defs>
       <path d="M 0 0 
L 0 2 
" id="m6406e35fab" style="stroke:#000000;stroke-width:0.6;"/>
      </defs>
      <g>
       <use style="stroke:#000000;stroke-width:0.6;" x="53.382438" xlink:href="#m6406e35fab" y="252.6"/>
      </g>
     </g>
    </g>
    <g id="xtick_8">
     <g id="line2d_8">
      <g>
       <use style="stroke:#000000;stroke-width:0.6;" x="70.299251" xlink:href="#m6406e35fab" y="252.6"/>
      </g>
     </g>
    </g>
    <g id="xtick_9">
     <g id="line2d_9">
      <g>
       <use style="stroke:#000000;stroke-width:0.6;" x="87.216064" xlink:href="#m6406e35fab" y="252.6"/>
      </g>
     </g>
    </g>
    <g id="xtick_10">
     <g id="line2d_10">
      <g>
       <use style="stroke:#000000;stroke-width:0.6;" x="121.04969" xlink:href="#m6406e35fab" y="252.6"/>
      </g>
     </g>
    </g>
    <g id="xtick_11">
     <g id="line2d_11">
      <g>
       <use style="stroke:#000000;stroke-width:0.6;" x="137.966503" xlink:href="#m6406e35fab" y="252.6"/>
      </g>
     </g>
    </g>
    <g id="xtick_12">
     <g id="line2d_12">
      <g>
       <use style="stroke:#000000;stroke-width:0.6;" x="154.883316" xlink:href="#m6406e35fab" y="252.6"/>
      </g>
     </g>
    </g>
    <g id="xtick_13">
     <g id="line2d_13">
      <g>
       <use style="stroke:#000000;stroke-width:0.6;" x="188.716942" xlink:href="#m6406e35fab" y="252.6"/>
      </g>
     </g>
    </g>
    <g id="xtick_14">
     <g id="line2d_14">
      <g>
       <use style="stroke:#000000;stroke-width:0.6;" x="205.633756" xlink:href="#m6406e35fab" y="252.6"/>
      </g>
     </g>
    </g>
    <g id="xtick_15">
     <g id="line2d_15">
      <g>
       <use style="stroke:#000000;stroke-width:0.6;" x="222.550569" xlink:href="#m6406e35fab" y="252.6"/>
      </g>
     </g>
    </g>
    <g id="xtick_16">
     <g id="line2d_16">
      <g>
       <use style="stroke:#000000;stroke-width:0.6;" x="256.384195" xlink:href="#m6406e35fab" y="252.6"/>
      </g>
     </g>
    </g>
    <g id="xtick_17">
     <g id="line2d_17">
      <g>
       <use style="stroke:#000000;stroke-width:0.6;" x="273.301008" xlink:href="#m6406e35fab" y="252.6"/>
      </g>
     </g>
    </g>
    <g id="xtick_18">
     <g id="line2d_18">
      <g>
       <use style="stroke:#000000;stroke-width:0.6;" x="290.217821" xlink:href="#m6406e35fab" y="252.6"/>
      </g>
     </g>
    </g>
    <g id="xtick_19">
     <g id="line2d_19">
      <g>
       <use style="stroke:#000000;stroke-width:0.6;" x="324.051447" xlink:href="#m6406e35fab" y="252.6"/>
      </g>
     </g>
    </g>
    <g id="xtick_20">
     <g id="line2d_20">
      <g>
       <use style="stroke:#000000;stroke-width:0.6;" x="340.96826" xlink:href="#m6406e35fab" y="252.6"/>
      </g>
     </g>
    </g>
    <g id="xtick_21">
     <g id="line2d_21">
      <g>
       <use style="stroke:#000000;stroke-width:0.6;" x="357.885073" xlink:href="#m6406e35fab" y="252.6"/>
      </g>
     </g>
    </g>
    <g id="text_7">
     <!-- $r/L$ -->
     <defs>
      <path d="M 7.71875 1.703125 
Q 7.71875 2.296875 7.8125 2.59375 
L 15.28125 32.421875 
Q 16.015625 35.203125 16.015625 37.3125 
Q 16.015625 41.609375 13.09375 41.609375 
Q 9.96875 41.609375 8.453125 37.859375 
Q 6.9375 34.125 5.515625 28.421875 
Q 5.515625 28.125 5.21875 27.953125 
Q 4.9375 27.78125 4.6875 27.78125 
L 3.515625 27.78125 
Q 3.171875 27.78125 2.921875 28.140625 
Q 2.6875 28.515625 2.6875 28.8125 
Q 3.765625 33.15625 4.765625 36.171875 
Q 5.765625 39.203125 7.890625 41.6875 
Q 10.015625 44.1875 13.1875 44.1875 
Q 16.65625 44.1875 19.265625 42.1875 
Q 21.875 40.1875 22.515625 36.921875 
Q 25.046875 40.234375 28.296875 42.203125 
Q 31.546875 44.1875 35.40625 44.1875 
Q 38.578125 44.1875 40.984375 42.328125 
Q 43.40625 40.484375 43.40625 37.3125 
Q 43.40625 34.765625 41.8125 32.875 
Q 40.234375 31 37.59375 31 
Q 35.984375 31 34.890625 32 
Q 33.796875 33.015625 33.796875 34.625 
Q 33.796875 36.8125 35.40625 38.546875 
Q 37.015625 40.28125 39.109375 40.28125 
Q 37.5 41.609375 35.203125 41.609375 
Q 30.90625 41.609375 27.734375 38.546875 
Q 24.5625 35.5 22.015625 30.8125 
L 14.890625 2.203125 
Q 14.546875 0.828125 13.34375 -0.140625 
Q 12.15625 -1.125 10.6875 -1.125 
Q 9.46875 -1.125 8.59375 -0.34375 
Q 7.71875 0.4375 7.71875 1.703125 
z
" id="Cmmi10-72"/>
      <path d="M 5.609375 -23 
Q 5.609375 -22.703125 5.71875 -22.609375 
L 40.484375 73.78125 
Q 40.671875 74.359375 41.15625 74.671875 
Q 41.65625 75 42.28125 75 
Q 43.171875 75 43.71875 74.453125 
Q 44.28125 73.921875 44.28125 73 
L 44.28125 72.609375 
L 9.515625 -23.78125 
Q 8.9375 -25 7.625 -25 
Q 6.78125 -25 6.1875 -24.40625 
Q 5.609375 -23.828125 5.609375 -23 
z
" id="Cmmi10-3d"/>
      <path d="M 4.6875 0 
Q 3.71875 0 3.71875 1.3125 
Q 3.765625 1.5625 3.90625 2.171875 
Q 4.046875 2.78125 4.3125 3.140625 
Q 4.59375 3.515625 4.984375 3.515625 
Q 11.078125 3.515625 13.484375 4.203125 
Q 14.796875 4.640625 15.375 6.890625 
L 29.109375 61.8125 
Q 29.296875 62.796875 29.296875 63.1875 
Q 29.296875 64.265625 28.078125 64.40625 
Q 26.21875 64.796875 20.90625 64.796875 
Q 19.921875 64.796875 19.921875 66.109375 
Q 20.265625 67.390625 20.453125 67.84375 
Q 20.65625 68.3125 21.578125 68.3125 
L 51.125 68.3125 
Q 52 68.3125 52 67 
Q 51.859375 65.96875 51.65625 65.375 
Q 51.46875 64.796875 50.6875 64.796875 
Q 43.3125 64.796875 40.828125 64.3125 
Q 38.375 63.875 37.796875 61.375 
L 24.125 6.5 
Q 23.6875 5.28125 23.6875 4.296875 
Q 23.6875 3.515625 27.09375 3.515625 
L 36.375 3.515625 
Q 44.234375 3.515625 49.109375 6.640625 
Q 54 9.765625 56.34375 13.6875 
Q 58.6875 17.625 60.265625 21.84375 
Q 61.859375 26.078125 62.59375 26.21875 
L 63.484375 26.21875 
Q 64.5 26.21875 64.5 24.90625 
L 55.609375 0.6875 
Q 55.46875 0 54.6875 0 
z
" id="Cmmi10-4c"/>
     </defs>
     <g transform="translate(389.568611 252.6)scale(0.16 -0.16)">
      <use xlink:href="#Cmmi10-72"/>
      <use transform="translate(45.117188 0)" xlink:href="#Cmmi10-3d"/>
      <use transform="translate(95.117188 0)" xlink:href="#Cmmi10-4c"/>
     </g>
    </g>
   </g>
   <g id="matplotlib.axis_2">
    <g id="ytick_1">
     <g id="line2d_22">
      <defs>
       <path d="M 0 0 
L -3.5 0 
" id="m2b1a3ab011" style="stroke:#000000;stroke-width:0.8;"/>
      </defs>
      <g>
       <use style="stroke:#000000;stroke-width:0.8;" x="36.465625" xlink:href="#m2b1a3ab011" y="229.93779"/>
      </g>
     </g>
     <g id="text_8">
      <!-- 0.15 -->
      <defs>
       <path d="M 10.796875 72.90625 
L 49.515625 72.90625 
L 49.515625 64.59375 
L 19.828125 64.59375 
L 19.828125 46.734375 
Q 21.96875 47.46875 24.109375 47.828125 
Q 26.265625 48.1875 28.421875 48.1875 
Q 40.625 48.1875 47.75 41.5 
Q 54.890625 34.8125 54.890625 23.390625 
Q 54.890625 11.625 47.5625 5.09375 
Q 40.234375 -1.421875 26.90625 -1.421875 
Q 22.3125 -1.421875 17.546875 -0.640625 
Q 12.796875 0.140625 7.71875 1.703125 
L 7.71875 11.625 
Q 12.109375 9.234375 16.796875 8.0625 
Q 21.484375 6.890625 26.703125 6.890625 
Q 35.15625 6.890625 40.078125 11.328125 
Q 45.015625 15.765625 45.015625 23.390625 
Q 45.015625 31 40.078125 35.4375 
Q 35.15625 39.890625 26.703125 39.890625 
Q 22.75 39.890625 18.8125 39.015625 
Q 14.890625 38.140625 10.796875 36.28125 
z
" id="DejaVuSans-35"/>
      </defs>
      <g transform="translate(7.2 233.737009)scale(0.1 -0.1)">
       <use xlink:href="#DejaVuSans-30"/>
       <use x="63.623047" xlink:href="#DejaVuSans-2e"/>
       <use x="95.410156" xlink:href="#DejaVuSans-31"/>
       <use x="159.033203" xlink:href="#DejaVuSans-35"/>
      </g>
     </g>
    </g>
    <g id="ytick_2">
     <g id="line2d_23">
      <g>
       <use style="stroke:#000000;stroke-width:0.8;" x="36.465625" xlink:href="#m2b1a3ab011" y="204.537081"/>
      </g>
     </g>
     <g id="text_9">
      <!-- 0.2 -->
      <g transform="translate(13.5625 208.3363)scale(0.1 -0.1)">
       <use xlink:href="#DejaVuSans-30"/>
       <use x="63.623047" xlink:href="#DejaVuSans-2e"/>
       <use x="95.410156" xlink:href="#DejaVuSans-32"/>
      </g>
     </g>
    </g>
    <g id="ytick_3">
     <g id="line2d_24">
      <g>
       <use style="stroke:#000000;stroke-width:0.8;" x="36.465625" xlink:href="#m2b1a3ab011" y="179.136373"/>
      </g>
     </g>
     <g id="text_10">
      <!-- 0.25 -->
      <g transform="translate(7.2 182.935591)scale(0.1 -0.1)">
       <use xlink:href="#DejaVuSans-30"/>
       <use x="63.623047" xlink:href="#DejaVuSans-2e"/>
       <use x="95.410156" xlink:href="#DejaVuSans-32"/>
       <use x="159.033203" xlink:href="#DejaVuSans-35"/>
      </g>
     </g>
    </g>
    <g id="ytick_4">
     <g id="line2d_25">
      <g>
       <use style="stroke:#000000;stroke-width:0.8;" x="36.465625" xlink:href="#m2b1a3ab011" y="153.735664"/>
      </g>
     </g>
     <g id="text_11">
      <!-- 0.3 -->
      <defs>
       <path d="M 40.578125 39.3125 
Q 47.65625 37.796875 51.625 33 
Q 55.609375 28.21875 55.609375 21.1875 
Q 55.609375 10.40625 48.1875 4.484375 
Q 40.765625 -1.421875 27.09375 -1.421875 
Q 22.515625 -1.421875 17.65625 -0.515625 
Q 12.796875 0.390625 7.625 2.203125 
L 7.625 11.71875 
Q 11.71875 9.328125 16.59375 8.109375 
Q 21.484375 6.890625 26.8125 6.890625 
Q 36.078125 6.890625 40.9375 10.546875 
Q 45.796875 14.203125 45.796875 21.1875 
Q 45.796875 27.640625 41.28125 31.265625 
Q 36.765625 34.90625 28.71875 34.90625 
L 20.21875 34.90625 
L 20.21875 43.015625 
L 29.109375 43.015625 
Q 36.375 43.015625 40.234375 45.921875 
Q 44.09375 48.828125 44.09375 54.296875 
Q 44.09375 59.90625 40.109375 62.90625 
Q 36.140625 65.921875 28.71875 65.921875 
Q 24.65625 65.921875 20.015625 65.03125 
Q 15.375 64.15625 9.8125 62.3125 
L 9.8125 71.09375 
Q 15.4375 72.65625 20.34375 73.4375 
Q 25.25 74.21875 29.59375 74.21875 
Q 40.828125 74.21875 47.359375 69.109375 
Q 53.90625 64.015625 53.90625 55.328125 
Q 53.90625 49.265625 50.4375 45.09375 
Q 46.96875 40.921875 40.578125 39.3125 
z
" id="DejaVuSans-33"/>
      </defs>
      <g transform="translate(13.5625 157.534883)scale(0.1 -0.1)">
       <use xlink:href="#DejaVuSans-30"/>
       <use x="63.623047" xlink:href="#DejaVuSans-2e"/>
       <use x="95.410156" xlink:href="#DejaVuSans-33"/>
      </g>
     </g>
    </g>
    <g id="ytick_5">
     <g id="line2d_26">
      <g>
       <use style="stroke:#000000;stroke-width:0.8;" x="36.465625" xlink:href="#m2b1a3ab011" y="128.334955"/>
      </g>
     </g>
     <g id="text_12">
      <!-- 0.35 -->
      <g transform="translate(7.2 132.134174)scale(0.1 -0.1)">
       <use xlink:href="#DejaVuSans-30"/>
       <use x="63.623047" xlink:href="#DejaVuSans-2e"/>
       <use x="95.410156" xlink:href="#DejaVuSans-33"/>
       <use x="159.033203" xlink:href="#DejaVuSans-35"/>
      </g>
     </g>
    </g>
    <g id="ytick_6">
     <g id="line2d_27">
      <g>
       <use style="stroke:#000000;stroke-width:0.8;" x="36.465625" xlink:href="#m2b1a3ab011" y="102.934246"/>
      </g>
     </g>
     <g id="text_13">
      <!-- 0.4 -->
      <g transform="translate(13.5625 106.733465)scale(0.1 -0.1)">
       <use xlink:href="#DejaVuSans-30"/>
       <use x="63.623047" xlink:href="#DejaVuSans-2e"/>
       <use x="95.410156" xlink:href="#DejaVuSans-34"/>
      </g>
     </g>
    </g>
    <g id="ytick_7">
     <g id="line2d_28">
      <g>
       <use style="stroke:#000000;stroke-width:0.8;" x="36.465625" xlink:href="#m2b1a3ab011" y="77.533537"/>
      </g>
     </g>
     <g id="text_14">
      <!-- 0.45 -->
      <g transform="translate(7.2 81.332756)scale(0.1 -0.1)">
       <use xlink:href="#DejaVuSans-30"/>
       <use x="63.623047" xlink:href="#DejaVuSans-2e"/>
       <use x="95.410156" xlink:href="#DejaVuSans-34"/>
       <use x="159.033203" xlink:href="#DejaVuSans-35"/>
      </g>
     </g>
    </g>
    <g id="ytick_8">
     <g id="line2d_29">
      <g>
       <use style="stroke:#000000;stroke-width:0.8;" x="36.465625" xlink:href="#m2b1a3ab011" y="52.132829"/>
      </g>
     </g>
     <g id="text_15">
      <!-- 0.5 -->
      <g transform="translate(13.5625 55.932047)scale(0.1 -0.1)">
       <use xlink:href="#DejaVuSans-30"/>
       <use x="63.623047" xlink:href="#DejaVuSans-2e"/>
       <use x="95.410156" xlink:href="#DejaVuSans-35"/>
      </g>
     </g>
    </g>
    <g id="ytick_9">
     <g id="line2d_30">
      <defs>
       <path d="M 0 0 
L -2 0 
" id="m7ea8b0ee12" style="stroke:#000000;stroke-width:0.6;"/>
      </defs>
      <g>
       <use style="stroke:#000000;stroke-width:0.6;" x="36.465625" xlink:href="#m7ea8b0ee12" y="240.098074"/>
      </g>
     </g>
    </g>
    <g id="ytick_10">
     <g id="line2d_31">
      <g>
       <use style="stroke:#000000;stroke-width:0.6;" x="36.465625" xlink:href="#m7ea8b0ee12" y="235.017932"/>
      </g>
     </g>
    </g>
    <g id="ytick_11">
     <g id="line2d_32">
      <g>
       <use style="stroke:#000000;stroke-width:0.6;" x="36.465625" xlink:href="#m7ea8b0ee12" y="224.857648"/>
      </g>
     </g>
    </g>
    <g id="ytick_12">
     <g id="line2d_33">
      <g>
       <use style="stroke:#000000;stroke-width:0.6;" x="36.465625" xlink:href="#m7ea8b0ee12" y="219.777507"/>
      </g>
     </g>
    </g>
    <g id="ytick_13">
     <g id="line2d_34">
      <g>
       <use style="stroke:#000000;stroke-width:0.6;" x="36.465625" xlink:href="#m7ea8b0ee12" y="214.697365"/>
      </g>
     </g>
    </g>
    <g id="ytick_14">
     <g id="line2d_35">
      <g>
       <use style="stroke:#000000;stroke-width:0.6;" x="36.465625" xlink:href="#m7ea8b0ee12" y="209.617223"/>
      </g>
     </g>
    </g>
    <g id="ytick_15">
     <g id="line2d_36">
      <g>
       <use style="stroke:#000000;stroke-width:0.6;" x="36.465625" xlink:href="#m7ea8b0ee12" y="199.45694"/>
      </g>
     </g>
    </g>
    <g id="ytick_16">
     <g id="line2d_37">
      <g>
       <use style="stroke:#000000;stroke-width:0.6;" x="36.465625" xlink:href="#m7ea8b0ee12" y="194.376798"/>
      </g>
     </g>
    </g>
    <g id="ytick_17">
     <g id="line2d_38">
      <g>
       <use style="stroke:#000000;stroke-width:0.6;" x="36.465625" xlink:href="#m7ea8b0ee12" y="189.296656"/>
      </g>
     </g>
    </g>
    <g id="ytick_18">
     <g id="line2d_39">
      <g>
       <use style="stroke:#000000;stroke-width:0.6;" x="36.465625" xlink:href="#m7ea8b0ee12" y="184.216514"/>
      </g>
     </g>
    </g>
    <g id="ytick_19">
     <g id="line2d_40">
      <g>
       <use style="stroke:#000000;stroke-width:0.6;" x="36.465625" xlink:href="#m7ea8b0ee12" y="174.056231"/>
      </g>
     </g>
    </g>
    <g id="ytick_20">
     <g id="line2d_41">
      <g>
       <use style="stroke:#000000;stroke-width:0.6;" x="36.465625" xlink:href="#m7ea8b0ee12" y="168.976089"/>
      </g>
     </g>
    </g>
    <g id="ytick_21">
     <g id="line2d_42">
      <g>
       <use style="stroke:#000000;stroke-width:0.6;" x="36.465625" xlink:href="#m7ea8b0ee12" y="163.895947"/>
      </g>
     </g>
    </g>
    <g id="ytick_22">
     <g id="line2d_43">
      <g>
       <use style="stroke:#000000;stroke-width:0.6;" x="36.465625" xlink:href="#m7ea8b0ee12" y="158.815806"/>
      </g>
     </g>
    </g>
    <g id="ytick_23">
     <g id="line2d_44">
      <g>
       <use style="stroke:#000000;stroke-width:0.6;" x="36.465625" xlink:href="#m7ea8b0ee12" y="148.655522"/>
      </g>
     </g>
    </g>
    <g id="ytick_24">
     <g id="line2d_45">
      <g>
       <use style="stroke:#000000;stroke-width:0.6;" x="36.465625" xlink:href="#m7ea8b0ee12" y="143.57538"/>
      </g>
     </g>
    </g>
    <g id="ytick_25">
     <g id="line2d_46">
      <g>
       <use style="stroke:#000000;stroke-width:0.6;" x="36.465625" xlink:href="#m7ea8b0ee12" y="138.495239"/>
      </g>
     </g>
    </g>
    <g id="ytick_26">
     <g id="line2d_47">
      <g>
       <use style="stroke:#000000;stroke-width:0.6;" x="36.465625" xlink:href="#m7ea8b0ee12" y="133.415097"/>
      </g>
     </g>
    </g>
    <g id="ytick_27">
     <g id="line2d_48">
      <g>
       <use style="stroke:#000000;stroke-width:0.6;" x="36.465625" xlink:href="#m7ea8b0ee12" y="123.254813"/>
      </g>
     </g>
    </g>
    <g id="ytick_28">
     <g id="line2d_49">
      <g>
       <use style="stroke:#000000;stroke-width:0.6;" x="36.465625" xlink:href="#m7ea8b0ee12" y="118.174671"/>
      </g>
     </g>
    </g>
    <g id="ytick_29">
     <g id="line2d_50">
      <g>
       <use style="stroke:#000000;stroke-width:0.6;" x="36.465625" xlink:href="#m7ea8b0ee12" y="113.09453"/>
      </g>
     </g>
    </g>
    <g id="ytick_30">
     <g id="line2d_51">
      <g>
       <use style="stroke:#000000;stroke-width:0.6;" x="36.465625" xlink:href="#m7ea8b0ee12" y="108.014388"/>
      </g>
     </g>
    </g>
    <g id="ytick_31">
     <g id="line2d_52">
      <g>
       <use style="stroke:#000000;stroke-width:0.6;" x="36.465625" xlink:href="#m7ea8b0ee12" y="97.854104"/>
      </g>
     </g>
    </g>
    <g id="ytick_32">
     <g id="line2d_53">
      <g>
       <use style="stroke:#000000;stroke-width:0.6;" x="36.465625" xlink:href="#m7ea8b0ee12" y="92.773963"/>
      </g>
     </g>
    </g>
    <g id="ytick_33">
     <g id="line2d_54">
      <g>
       <use style="stroke:#000000;stroke-width:0.6;" x="36.465625" xlink:href="#m7ea8b0ee12" y="87.693821"/>
      </g>
     </g>
    </g>
    <g id="ytick_34">
     <g id="line2d_55">
      <g>
       <use style="stroke:#000000;stroke-width:0.6;" x="36.465625" xlink:href="#m7ea8b0ee12" y="82.613679"/>
      </g>
     </g>
    </g>
    <g id="ytick_35">
     <g id="line2d_56">
      <g>
       <use style="stroke:#000000;stroke-width:0.6;" x="36.465625" xlink:href="#m7ea8b0ee12" y="72.453396"/>
      </g>
     </g>
    </g>
    <g id="ytick_36">
     <g id="line2d_57">
      <g>
       <use style="stroke:#000000;stroke-width:0.6;" x="36.465625" xlink:href="#m7ea8b0ee12" y="67.373254"/>
      </g>
     </g>
    </g>
    <g id="ytick_37">
     <g id="line2d_58">
      <g>
       <use style="stroke:#000000;stroke-width:0.6;" x="36.465625" xlink:href="#m7ea8b0ee12" y="62.293112"/>
      </g>
     </g>
    </g>
    <g id="ytick_38">
     <g id="line2d_59">
      <g>
       <use style="stroke:#000000;stroke-width:0.6;" x="36.465625" xlink:href="#m7ea8b0ee12" y="57.21297"/>
      </g>
     </g>
    </g>
    <g id="ytick_39">
     <g id="line2d_60">
      <g>
       <use style="stroke:#000000;stroke-width:0.6;" x="36.465625" xlink:href="#m7ea8b0ee12" y="47.052687"/>
      </g>
     </g>
    </g>
    <g id="ytick_40">
     <g id="line2d_61">
      <g>
       <use style="stroke:#000000;stroke-width:0.6;" x="36.465625" xlink:href="#m7ea8b0ee12" y="41.972545"/>
      </g>
     </g>
    </g>
    <g id="ytick_41">
     <g id="line2d_62">
      <g>
       <use style="stroke:#000000;stroke-width:0.6;" x="36.465625" xlink:href="#m7ea8b0ee12" y="36.892403"/>
      </g>
     </g>
    </g>
    <g id="ytick_42">
     <g id="line2d_63">
      <g>
       <use style="stroke:#000000;stroke-width:0.6;" x="36.465625" xlink:href="#m7ea8b0ee12" y="31.812262"/>
      </g>
     </g>
    </g>
    <g id="text_16">
     <!-- $L\varepsilon(r)$ -->
     <defs>
      <path d="M 2.6875 10.40625 
Q 2.6875 13.140625 3.875 15.71875 
Q 5.078125 18.3125 7 20.359375 
Q 8.9375 22.40625 11.53125 24.03125 
Q 7.71875 26.65625 7.71875 30.8125 
Q 7.71875 35.25 11.421875 38.59375 
Q 15.140625 41.9375 20.5 43.625 
Q 25.875 45.3125 30.171875 45.3125 
Q 31.984375 45.3125 35.03125 44.5 
Q 38.09375 43.703125 40.375 42.375 
Q 42.671875 41.0625 42.671875 39.5 
Q 42.671875 38.328125 41.765625 37.421875 
Q 40.875 36.53125 39.796875 36.53125 
Q 39.359375 36.53125 37.578125 37.578125 
Q 35.796875 38.625 33.78125 39.453125 
Q 31.78125 40.28125 29.390625 40.28125 
Q 25.78125 40.28125 21.453125 39.421875 
Q 17.140625 38.578125 13.859375 36.453125 
Q 10.59375 34.328125 10.59375 30.90625 
Q 10.59375 27.640625 14.3125 25.390625 
Q 18.5 27.296875 22.90625 27.296875 
Q 30.71875 27.296875 30.71875 24.515625 
Q 30.71875 22.3125 28.046875 21.703125 
Q 25.390625 21.09375 21.921875 21.09375 
Q 17.234375 21.09375 14.203125 22.515625 
Q 10.890625 20.75 8.296875 17.578125 
Q 5.71875 14.40625 5.71875 10.984375 
Q 5.71875 7.765625 7.890625 5.953125 
Q 10.0625 4.15625 13.234375 3.46875 
Q 16.40625 2.78125 19.578125 2.78125 
Q 25.09375 2.78125 29.34375 3.96875 
Q 33.59375 5.171875 35.5 8.984375 
Q 35.796875 9.625 36.625 9.625 
Q 37.703125 9.28125 37.703125 8.296875 
Q 37.703125 8.203125 37.40625 7.328125 
Q 35.796875 4.15625 32.84375 2 
Q 29.890625 -0.140625 26.25 -1.171875 
Q 22.609375 -2.203125 18.796875 -2.203125 
Q 12.59375 -2.203125 7.640625 1.109375 
Q 2.6875 4.4375 2.6875 10.40625 
z
M 18.109375 24.03125 
Q 19.875 23.6875 22.125 23.6875 
Q 26.515625 23.6875 27.59375 24.3125 
Q 26.21875 24.703125 22.796875 24.703125 
Q 20.3125 24.703125 18.109375 24.03125 
z
" id="Cmmi10-22"/>
      <path d="M 31 -24.8125 
Q 25.4375 -20.40625 21.40625 -14.71875 
Q 17.390625 -9.03125 14.8125 -2.578125 
Q 12.25 3.859375 10.984375 10.890625 
Q 9.71875 17.921875 9.71875 25 
Q 9.71875 32.171875 10.984375 39.203125 
Q 12.25 46.234375 14.859375 52.734375 
Q 17.484375 59.234375 21.53125 64.890625 
Q 25.59375 70.5625 31 74.8125 
Q 31 75 31.5 75 
L 32.421875 75 
Q 32.71875 75 32.953125 74.734375 
Q 33.203125 74.46875 33.203125 74.125 
Q 33.203125 73.6875 33.015625 73.484375 
Q 28.125 68.703125 24.875 63.234375 
Q 21.625 57.765625 19.640625 51.578125 
Q 17.671875 45.40625 16.796875 38.78125 
Q 15.921875 32.171875 15.921875 25 
Q 15.921875 -6.78125 32.90625 -23.296875 
Q 33.203125 -23.578125 33.203125 -24.125 
Q 33.203125 -24.359375 32.9375 -24.671875 
Q 32.671875 -25 32.421875 -25 
L 31.5 -25 
Q 31 -25 31 -24.8125 
z
" id="Cmr10-28"/>
      <path d="M 6.5 -25 
Q 5.609375 -25 5.609375 -24.125 
Q 5.609375 -23.6875 5.8125 -23.484375 
Q 22.90625 -6.78125 22.90625 25 
Q 22.90625 56.78125 6 73.296875 
Q 5.609375 73.53125 5.609375 74.125 
Q 5.609375 74.46875 5.875 74.734375 
Q 6.15625 75 6.5 75 
L 7.421875 75 
Q 7.71875 75 7.90625 74.8125 
Q 15.09375 69.140625 19.875 61.03125 
Q 24.65625 52.9375 26.875 43.75 
Q 29.109375 34.578125 29.109375 25 
Q 29.109375 17.921875 27.90625 11.0625 
Q 26.703125 4.203125 24.09375 -2.453125 
Q 21.484375 -9.125 17.484375 -14.765625 
Q 13.484375 -20.40625 7.90625 -24.8125 
Q 7.71875 -25 7.421875 -25 
z
" id="Cmr10-29"/>
     </defs>
     <g transform="translate(17.425625 19.2)scale(0.16 -0.16)">
      <use xlink:href="#Cmmi10-4c"/>
      <use transform="translate(68.017578 0)" xlink:href="#Cmmi10-22"/>
      <use transform="translate(114.599609 0)" xlink:href="#Cmr10-28"/>
      <use transform="translate(153.417969 0)" xlink:href="#Cmmi10-72"/>
      <use transform="translate(198.535156 0)" xlink:href="#Cmr10-29"/>
     </g>
    </g>
   </g>
   <g id="line2d_64">
    <path clip-path="url(#pf4fcb37b97)" d="M 36.465625 232.499605 
L 45.961074 224.372226 
L 55.012524 216.902494 
L 64.292924 209.551543 
L 73.093503 202.891572 
L 81.135501 197.088434 
L 88.554031 191.988219 
L 96.038516 187.100623 
L 102.222175 183.265849 
L 109.812796 178.819409 
L 116.98335 174.89186 
L 123.418636 171.599611 
L 129.390959 168.746067 
L 137.262922 165.288856 
L 143.288963 162.880866 
L 150.094518 160.414997 
L 156.684625 158.287754 
L 163.65371 156.321284 
L 170.00783 154.785184 
L 177.654913 153.265001 
L 182.032396 152.557601 
L 188.59698 151.720416 
L 194.673078 151.185772 
L 201.363205 150.865226 
L 206.578929 150.810643 
L 213.46029 151.000572 
L 219.669119 151.42739 
L 226.167095 152.132859 
L 231.201071 152.860578 
L 236.360871 153.769813 
L 243.917071 155.397618 
L 248.649589 156.594988 
L 255.068021 158.435525 
L 261.657207 160.581458 
L 267.534594 162.711758 
L 274.669155 165.567169 
L 279.018564 167.450538 
L 286.610636 170.991869 
L 293.314885 174.381758 
L 300.688577 178.386966 
L 307.794309 182.512995 
L 315.125838 187.035121 
L 321.946953 191.475554 
L 329.964387 196.970465 
L 338.763364 203.327682 
L 346.834387 209.443012 
L 355.552968 216.335215 
L 365.551761 224.578572 
L 374.801886 232.499605 
L 374.801886 232.499605 
" style="fill:none;stroke:#0028ff;stroke-linecap:square;"/>
   </g>
   <g id="line2d_65">
    <path clip-path="url(#pf4fcb37b97)" d="M 36.465625 212.13521 
L 47.479873 206.165363 
L 56.948904 201.283064 
L 66.84361 196.441217 
L 75.030611 192.644464 
L 83.687313 188.843997 
L 93.167706 184.942947 
L 101.833881 181.623154 
L 109.125521 179.016996 
L 116.68506 176.499673 
L 125.380753 173.841175 
L 134.063597 171.444726 
L 141.192067 169.673385 
L 150.025491 167.727425 
L 157.245778 166.344114 
L 165.957842 164.926058 
L 171.955005 164.110827 
L 181.41265 163.093889 
L 189.408792 162.492152 
L 197.808258 162.115867 
L 205.068226 162.00233 
L 212.156419 162.081031 
L 220.643909 162.421498 
L 228.891509 163.008839 
L 235.618375 163.674368 
L 243.764338 164.703397 
L 252.20702 166.02601 
L 260.675425 167.6121 
L 269.526286 169.544338 
L 278.03636 171.663168 
L 285.174685 173.634869 
L 293.649509 176.202213 
L 301.795535 178.897489 
L 308.622336 181.324651 
L 317.276586 184.61737 
L 326.884692 188.548425 
L 335.420918 192.276725 
L 345.718125 197.058997 
L 355.891076 202.077303 
L 366.149004 207.419464 
L 374.801886 212.13521 
L 374.801886 212.13521 
" style="fill:none;stroke:#00d4ff;stroke-linecap:square;"/>
   </g>
   <g id="line2d_66">
    <path clip-path="url(#pf4fcb37b97)" d="M 36.465625 179.136373 
L 374.801886 179.136373 
L 374.801886 179.136373 
" style="fill:none;stroke:#7dff7a;stroke-linecap:square;"/>
   </g>
   <g id="line2d_67">
    <path clip-path="url(#pf4fcb37b97)" d="M 36.465625 123.352753 
L 43.141755 130.364147 
L 49.654808 136.824401 
L 56.564196 143.28315 
L 61.166062 147.366981 
L 66.526672 151.9112 
L 73.915252 157.81048 
L 80.210016 162.514485 
L 84.982389 165.88956 
L 91.643036 170.332275 
L 98.012666 174.297262 
L 103.818778 177.676863 
L 110.650388 181.374862 
L 117.578858 184.826175 
L 124.896028 188.153228 
L 131.105654 190.7271 
L 137.182666 193.029246 
L 142.738443 194.949984 
L 148.109457 196.642708 
L 155.403972 198.687659 
L 161.580196 200.194064 
L 167.966814 201.538031 
L 174.898214 202.753867 
L 180.31289 203.529702 
L 186.997388 204.278882 
L 194.004824 204.81848 
L 201.604065 205.120815 
L 208.22154 205.145046 
L 213.577785 205.001768 
L 219.440284 204.677649 
L 226.603487 204.04345 
L 233.138527 203.235051 
L 240.100644 202.130573 
L 245.824026 201.032823 
L 252.533631 199.525256 
L 258.690181 197.92965 
L 265.426315 195.947362 
L 272.948323 193.436349 
L 279.311824 191.061911 
L 285.60987 188.481122 
L 292.963829 185.170173 
L 300.046945 181.670145 
L 306.712122 178.089941 
L 312.77571 174.584537 
L 319.385324 170.486098 
L 324.965608 166.794224 
L 332.289483 161.61665 
L 338.237796 157.125231 
L 344.812843 151.851654 
L 351.472029 146.168565 
L 357.642605 140.58424 
L 364.249882 134.252887 
L 371.239413 127.144101 
L 374.801886 123.352753 
L 374.801886 123.352753 
" style="fill:none;stroke:#ffe600;stroke-linecap:square;"/>
   </g>
   <g id="line2d_68">
    <path clip-path="url(#pf4fcb37b97)" d="M 36.465625 35.265385 
L 40.631941 48.26298 
L 43.511526 56.854404 
L 49.015816 72.428028 
L 52.145081 80.806785 
L 57.403894 94.152658 
L 60.563958 101.748478 
L 65.561478 113.144204 
L 70.440167 123.575401 
L 73.19543 129.177927 
L 78.942046 140.225739 
L 83.426084 148.276159 
L 88.901572 157.467121 
L 93.74762 165.045862 
L 99.400069 173.263311 
L 104.099389 179.6116 
L 108.021505 184.590177 
L 112.525457 189.964128 
L 116.077922 193.954166 
L 121.010691 199.146059 
L 126.085931 204.082943 
L 131.528123 208.941759 
L 136.583154 213.069958 
L 140.413168 215.960836 
L 144.752048 218.997869 
L 150.010878 222.351714 
L 154.858286 225.136859 
L 159.805877 227.686985 
L 164.792395 229.967474 
L 169.443635 231.839915 
L 174.204541 233.508349 
L 177.982335 234.657349 
L 183.462834 236.054438 
L 187.578193 236.89689 
L 193.036187 237.744788 
L 197.992666 238.251486 
L 203.351018 238.519574 
L 208.313534 238.509647 
L 213.425639 238.239745 
L 218.472061 237.713817 
L 224.277283 236.787278 
L 228.599919 235.871316 
L 231.413966 235.170007 
L 236.80615 233.591326 
L 242.17067 231.708645 
L 247.429477 229.553113 
L 252.94824 226.951243 
L 256.990443 224.818069 
L 262.450571 221.621064 
L 266.997402 218.672757 
L 272.335591 214.866521 
L 278.369319 210.096529 
L 282.840709 206.226825 
L 287.731106 201.653064 
L 291.584888 197.78717 
L 296.022634 193.037726 
L 299.173222 189.465131 
L 304.026194 183.622402 
L 308.166366 178.298611 
L 312.135368 172.888393 
L 316.885669 166.000614 
L 321.371283 159.064227 
L 325.477405 152.328418 
L 330.032209 144.403523 
L 335.350504 134.515327 
L 340.231142 124.805008 
L 345.587364 113.405903 
L 350.159018 103.02633 
L 353.607427 94.780061 
L 358.445194 82.576407 
L 362.274223 72.366486 
L 365.897569 62.23485 
L 371.061459 46.965513 
L 374.801886 35.265385 
L 374.801886 35.265385 
" style="fill:none;stroke:#ff4700;stroke-linecap:square;"/>
   </g>
   <g id="patch_3">
    <path d="M 36.465625 242.6 
L 36.465625 31.2 
" style="fill:none;stroke:#000000;stroke-linecap:square;stroke-linejoin:miter;stroke-width:0.8;"/>
   </g>
   <g id="patch_4">
    <path d="M 29.6989 252.6 
L 381.568611 252.6 
" style="fill:none;stroke:#000000;stroke-linecap:square;stroke-linejoin:miter;stroke-width:0.8;"/>
   </g>
   <g id="legend_1">
    <g id="patch_5">
     <path d="M 181.633756 99.390625 
L 233.633756 99.390625 
L 233.633756 38.2 
L 181.633756 38.2 
z
" style="fill:#4c4c4c;opacity:0.5;stroke:#4c4c4c;stroke-linejoin:miter;"/>
    </g>
    <g id="patch_6">
     <path d="M 179.633756 97.390625 
L 231.633756 97.390625 
L 231.633756 36.2 
L 179.633756 36.2 
z
" style="fill:#ffffff;stroke:#cccccc;stroke-linejoin:miter;"/>
    </g>
    <g id="line2d_69">
     <path d="M 188.633756 46.298438 
L 183.133756 46.298438 
" style="fill:none;stroke:#0028ff;stroke-linecap:square;"/>
    </g>
    <g id="line2d_70"/>
    <g id="text_17">
     <!-- $\Lambda=-2$ -->
     <defs>
      <path d="M 3.21875 0 
L 3.21875 3.515625 
Q 11.03125 3.515625 12.984375 9.421875 
L 32.515625 70.515625 
Q 32.859375 71.578125 33.984375 71.578125 
L 35.296875 71.578125 
Q 35.84375 71.578125 36.25 71.28125 
Q 36.671875 71 36.8125 70.515625 
L 57.171875 6.6875 
Q 58.0625 4.546875 60.296875 4.03125 
Q 62.546875 3.515625 66.109375 3.515625 
L 66.109375 0 
L 39.015625 0 
L 39.015625 3.515625 
Q 47.515625 3.515625 47.515625 6.203125 
Q 47.515625 6.5 47.40625 6.6875 
L 31.59375 56.296875 
L 16.703125 9.421875 
Q 16.5 8.734375 16.5 8.40625 
Q 16.5 5.90625 18.96875 4.703125 
Q 21.4375 3.515625 24.21875 3.515625 
L 24.21875 0 
z
" id="Cmr10-a4"/>
      <path d="M 7.515625 13.28125 
Q 6.6875 13.28125 6.140625 13.90625 
Q 5.609375 14.546875 5.609375 15.28125 
Q 5.609375 16.109375 6.140625 16.6875 
Q 6.6875 17.28125 7.515625 17.28125 
L 70.3125 17.28125 
Q 71.046875 17.28125 71.578125 16.6875 
Q 72.125 16.109375 72.125 15.28125 
Q 72.125 14.546875 71.578125 13.90625 
Q 71.046875 13.28125 70.3125 13.28125 
z
M 7.515625 32.71875 
Q 6.6875 32.71875 6.140625 33.296875 
Q 5.609375 33.890625 5.609375 34.71875 
Q 5.609375 35.453125 6.140625 36.078125 
Q 6.6875 36.71875 7.515625 36.71875 
L 70.3125 36.71875 
Q 71.046875 36.71875 71.578125 36.078125 
Q 72.125 35.453125 72.125 34.71875 
Q 72.125 33.890625 71.578125 33.296875 
Q 71.046875 32.71875 70.3125 32.71875 
z
" id="Cmr10-3d"/>
      <path d="M 10.203125 23 
Q 9.375 23 8.828125 23.625 
Q 8.296875 24.265625 8.296875 25 
Q 8.296875 25.734375 8.828125 26.359375 
Q 9.375 27 10.203125 27 
L 67.578125 27 
Q 68.359375 27 68.875 26.359375 
Q 69.390625 25.734375 69.390625 25 
Q 69.390625 24.265625 68.875 23.625 
Q 68.359375 23 67.578125 23 
z
" id="Cmsy10-a1"/>
      <path d="M 4.984375 0 
L 4.984375 2.6875 
Q 4.984375 2.9375 5.171875 3.21875 
L 20.703125 20.40625 
Q 24.21875 24.21875 26.40625 26.796875 
Q 28.609375 29.390625 30.75 32.765625 
Q 32.90625 36.140625 34.15625 39.625 
Q 35.40625 43.109375 35.40625 47.015625 
Q 35.40625 51.125 33.890625 54.859375 
Q 32.375 58.59375 29.375 60.84375 
Q 26.375 63.09375 22.125 63.09375 
Q 17.78125 63.09375 14.3125 60.46875 
Q 10.84375 57.859375 9.421875 53.71875 
Q 9.8125 53.8125 10.5 53.8125 
Q 12.75 53.8125 14.328125 52.296875 
Q 15.921875 50.78125 15.921875 48.390625 
Q 15.921875 46.09375 14.328125 44.5 
Q 12.75 42.921875 10.5 42.921875 
Q 8.15625 42.921875 6.5625 44.546875 
Q 4.984375 46.1875 4.984375 48.390625 
Q 4.984375 52.15625 6.390625 55.4375 
Q 7.8125 58.734375 10.46875 61.296875 
Q 13.140625 63.875 16.484375 65.234375 
Q 19.828125 66.609375 23.578125 66.609375 
Q 29.296875 66.609375 34.21875 64.1875 
Q 39.15625 61.765625 42.03125 57.34375 
Q 44.921875 52.9375 44.921875 47.015625 
Q 44.921875 42.671875 43.015625 38.765625 
Q 41.109375 34.859375 38.125 31.65625 
Q 35.15625 28.46875 30.515625 24.40625 
Q 25.875 20.359375 24.421875 19 
L 13.09375 8.109375 
L 22.703125 8.109375 
Q 29.78125 8.109375 34.546875 8.21875 
Q 39.3125 8.34375 39.59375 8.59375 
Q 40.765625 9.859375 42 17.828125 
L 44.921875 17.828125 
L 42.09375 0 
z
" id="Cmr10-32"/>
     </defs>
     <g transform="translate(191.133756 49.798438)scale(0.1 -0.1)">
      <use transform="translate(0 0.421875)" xlink:href="#Cmr10-a4"/>
      <use transform="translate(86.943359 0.421875)" xlink:href="#Cmr10-3d"/>
      <use transform="translate(199.746094 0.421875)" xlink:href="#Cmsy10-a1"/>
      <use transform="translate(294.990234 0.421875)" xlink:href="#Cmr10-32"/>
     </g>
    </g>
    <g id="line2d_71">
     <path d="M 188.633756 56.176562 
L 183.133756 56.176562 
" style="fill:none;stroke:#00d4ff;stroke-linecap:square;"/>
    </g>
    <g id="line2d_72"/>
    <g id="text_18">
     <!-- $\Lambda=-1$ -->
     <defs>
      <path d="M 9.28125 0 
L 9.28125 3.515625 
Q 21.78125 3.515625 21.78125 6.6875 
L 21.78125 59.1875 
Q 16.609375 56.6875 8.6875 56.6875 
L 8.6875 60.203125 
Q 20.953125 60.203125 27.203125 66.609375 
L 28.609375 66.609375 
Q 28.953125 66.609375 29.265625 66.328125 
Q 29.59375 66.0625 29.59375 65.71875 
L 29.59375 6.6875 
Q 29.59375 3.515625 42.09375 3.515625 
L 42.09375 0 
z
" id="Cmr10-31"/>
     </defs>
     <g transform="translate(191.133756 59.676562)scale(0.1 -0.1)">
      <use transform="translate(0 0.421875)" xlink:href="#Cmr10-a4"/>
      <use transform="translate(86.943359 0.421875)" xlink:href="#Cmr10-3d"/>
      <use transform="translate(199.746094 0.421875)" xlink:href="#Cmsy10-a1"/>
      <use transform="translate(294.990234 0.421875)" xlink:href="#Cmr10-31"/>
     </g>
    </g>
    <g id="line2d_73">
     <path d="M 188.633756 66.054688 
L 183.133756 66.054688 
" style="fill:none;stroke:#7dff7a;stroke-linecap:square;"/>
    </g>
    <g id="line2d_74"/>
    <g id="text_19">
     <!-- $\Lambda=0$ -->
     <defs>
      <path d="M 25 -2.203125 
Q 12.75 -2.203125 8.328125 7.875 
Q 3.90625 17.96875 3.90625 31.890625 
Q 3.90625 40.578125 5.484375 48.234375 
Q 7.078125 55.90625 11.78125 61.25 
Q 16.5 66.609375 25 66.609375 
Q 31.59375 66.609375 35.78125 63.375 
Q 39.984375 60.15625 42.1875 55.046875 
Q 44.390625 49.953125 45.1875 44.109375 
Q 46 38.28125 46 31.890625 
Q 46 23.296875 44.40625 15.796875 
Q 42.828125 8.296875 38.1875 3.046875 
Q 33.546875 -2.203125 25 -2.203125 
z
M 25 0.390625 
Q 30.5625 0.390625 33.296875 6.09375 
Q 36.03125 11.8125 36.671875 18.75 
Q 37.3125 25.6875 37.3125 33.5 
Q 37.3125 41.015625 36.671875 47.359375 
Q 36.03125 53.71875 33.3125 58.859375 
Q 30.609375 64.015625 25 64.015625 
Q 19.34375 64.015625 16.609375 58.828125 
Q 13.875 53.65625 13.234375 47.328125 
Q 12.59375 41.015625 12.59375 33.5 
Q 12.59375 27.9375 12.859375 23 
Q 13.140625 18.0625 14.3125 12.8125 
Q 15.484375 7.5625 18.09375 3.96875 
Q 20.703125 0.390625 25 0.390625 
z
" id="Cmr10-30"/>
     </defs>
     <g transform="translate(191.133756 69.554688)scale(0.1 -0.1)">
      <use transform="translate(0 0.421875)" xlink:href="#Cmr10-a4"/>
      <use transform="translate(86.943359 0.421875)" xlink:href="#Cmr10-3d"/>
      <use transform="translate(182.1875 0.421875)" xlink:href="#Cmr10-30"/>
     </g>
    </g>
    <g id="line2d_75">
     <path d="M 188.633756 75.932813 
L 183.133756 75.932813 
" style="fill:none;stroke:#ffe600;stroke-linecap:square;"/>
    </g>
    <g id="line2d_76"/>
    <g id="text_20">
     <!-- $\Lambda=1$ -->
     <g transform="translate(191.133756 79.432813)scale(0.1 -0.1)">
      <use transform="translate(0 0.421875)" xlink:href="#Cmr10-a4"/>
      <use transform="translate(86.943359 0.421875)" xlink:href="#Cmr10-3d"/>
      <use transform="translate(182.1875 0.421875)" xlink:href="#Cmr10-31"/>
     </g>
    </g>
    <g id="line2d_77">
     <path d="M 188.633756 85.810938 
L 183.133756 85.810938 
" style="fill:none;stroke:#ff4700;stroke-linecap:square;"/>
    </g>
    <g id="line2d_78"/>
    <g id="text_21">
     <!-- $\Lambda=2$ -->
     <g transform="translate(191.133756 89.310938)scale(0.1 -0.1)">
      <use transform="translate(0 0.421875)" xlink:href="#Cmr10-a4"/>
      <use transform="translate(86.943359 0.421875)" xlink:href="#Cmr10-3d"/>
      <use transform="translate(182.1875 0.421875)" xlink:href="#Cmr10-32"/>
     </g>
    </g>
   </g>
  </g>
 </g>
 <defs>
  <clipPath id="pf4fcb37b97">
   <rect height="211.4" width="351.869712" x="29.6989" y="31.2"/>
  </clipPath>
 </defs>
</svg>
