<?xml version="1.0" encoding="utf-8" standalone="no"?>
<!DOCTYPE svg PUBLIC "-//W3C//DTD SVG 1.1//EN"
  "http://www.w3.org/Graphics/SVG/1.1/DTD/svg11.dtd">
<!-- Created with matplotlib (https://matplotlib.org/) -->
<svg height="360pt" version="1.1" viewBox="0 0 810 360" width="810pt" xmlns="http://www.w3.org/2000/svg" xmlns:xlink="http://www.w3.org/1999/xlink">
 <defs>
  <style type="text/css">
*{stroke-linecap:butt;stroke-linejoin:round;}
  </style>
 </defs>
 <g id="figure_1">
  <g id="patch_1">
   <path d="M 0 360 
L 810 360 
L 810 0 
L 0 0 
z
" style="fill:#ffffff;"/>
  </g>
  <g id="axes_1">
   <g id="patch_2">
    <path d="M 89.1 295.2 
L 785.7 295.2 
L 785.7 25.2 
L 89.1 25.2 
z
" style="fill:#ffffff;"/>
   </g>
   <g id="line2d_1">
    <path clip-path="url(#pae4a8ac67b)" d="M 89.1 284.102097 
L 96.136364 279.814179 
L 103.172727 275.570008 
L 110.209091 271.372046 
L 117.245455 267.22273 
L 124.281818 263.124468 
L 131.318182 259.079637 
L 138.354545 255.090586 
L 145.390909 251.159628 
L 152.427273 247.289045 
L 159.463636 243.481084 
L 166.5 239.737953 
L 173.536364 236.061825 
L 180.572727 232.454834 
L 187.609091 228.919072 
L 194.645455 225.456592 
L 201.681818 222.069402 
L 208.718182 218.759468 
L 215.754545 215.528711 
L 222.790909 212.379006 
L 229.827273 209.312181 
L 236.863636 206.330015 
L 243.9 203.434238 
L 250.936364 200.626532 
L 257.972727 197.908526 
L 265.009091 195.281796 
L 272.045455 192.747867 
L 279.081818 190.30821 
L 286.118182 187.964241 
L 293.154545 185.717319 
L 300.190909 183.568748 
L 307.227273 181.519775 
L 314.263636 179.57159 
L 321.3 177.725323 
L 328.336364 175.982045 
L 335.372727 174.342767 
L 342.409091 172.808442 
L 349.445455 171.37996 
L 356.481818 170.058149 
L 363.518182 168.843776 
L 370.554545 167.737546 
L 377.590909 166.740102 
L 384.627273 165.852022 
L 391.663636 165.073821 
L 398.7 164.405951 
L 405.736364 163.8488 
L 412.772727 163.40269 
L 419.809091 163.067881 
L 426.845455 162.844567 
L 433.881818 162.732878 
L 440.918182 162.732878 
L 447.954545 162.844567 
L 454.990909 163.067881 
L 462.027273 163.40269 
L 469.063636 163.8488 
L 476.1 164.405951 
L 483.136364 165.073821 
L 490.172727 165.852022 
L 497.209091 166.740102 
L 504.245455 167.737546 
L 511.281818 168.843776 
L 518.318182 170.058149 
L 525.354545 171.37996 
L 532.390909 172.808442 
L 539.427273 174.342767 
L 546.463636 175.982045 
L 553.5 177.725323 
L 560.536364 179.57159 
L 567.572727 181.519775 
L 574.609091 183.568748 
L 581.645455 185.717319 
L 588.681818 187.964241 
L 595.718182 190.30821 
L 602.754545 192.747867 
L 609.790909 195.281796 
L 616.827273 197.908526 
L 623.863636 200.626532 
L 630.9 203.434238 
L 637.936364 206.330015 
L 644.972727 209.312181 
L 652.009091 212.379006 
L 659.045455 215.528711 
L 666.081818 218.759468 
L 673.118182 222.069402 
L 680.154545 225.456592 
L 687.190909 228.919072 
L 694.227273 232.454834 
L 701.263636 236.061825 
L 708.3 239.737953 
L 715.336364 243.481084 
L 722.372727 247.289045 
L 729.409091 251.159628 
L 736.445455 255.090586 
L 743.481818 259.079637 
L 750.518182 263.124468 
L 757.554545 267.22273 
L 764.590909 271.372046 
L 771.627273 275.570008 
L 778.663636 279.814179 
L 785.7 284.102097 
" style="fill:none;stroke:#0173b2;stroke-linecap:square;stroke-width:4;"/>
   </g>
   <g id="line2d_2">
    <path clip-path="url(#pae4a8ac67b)" d="M 89.1 268.225681 
L 96.136364 264.732425 
L 103.172727 261.281985 
L 110.209091 257.875992 
L 117.245455 254.516058 
L 124.281818 251.203775 
L 131.318182 247.940709 
L 138.354545 244.728405 
L 145.390909 241.568384 
L 152.427273 238.462139 
L 159.463636 235.411143 
L 166.5 232.416838 
L 173.536364 229.480642 
L 180.572727 226.603944 
L 187.609091 223.788105 
L 194.645455 221.034459 
L 201.681818 218.344309 
L 208.718182 215.718927 
L 215.754545 213.159557 
L 222.790909 210.667409 
L 229.827273 208.243662 
L 236.863636 205.889465 
L 243.9 203.605931 
L 250.936364 201.394141 
L 257.972727 199.255141 
L 265.009091 197.189944 
L 272.045455 195.199527 
L 279.081818 193.284833 
L 286.118182 191.446767 
L 293.154545 189.686199 
L 300.190909 188.003963 
L 307.227273 186.400854 
L 314.263636 184.877632 
L 321.3 183.435017 
L 328.336364 182.073692 
L 335.372727 180.794301 
L 342.409091 179.59745 
L 349.445455 178.483705 
L 356.481818 177.453593 
L 363.518182 176.507602 
L 370.554545 175.64618 
L 377.590909 174.869733 
L 384.627273 174.178631 
L 391.663636 173.573198 
L 398.7 173.053723 
L 405.736364 172.620451 
L 412.772727 172.273587 
L 419.809091 172.013296 
L 426.845455 171.839699 
L 433.881818 171.752881 
L 440.918182 171.752881 
L 447.954545 171.839699 
L 454.990909 172.013296 
L 462.027273 172.273587 
L 469.063636 172.620451 
L 476.1 173.053723 
L 483.136364 173.573198 
L 490.172727 174.178631 
L 497.209091 174.869733 
L 504.245455 175.64618 
L 511.281818 176.507602 
L 518.318182 177.453593 
L 525.354545 178.483705 
L 532.390909 179.59745 
L 539.427273 180.794301 
L 546.463636 182.073692 
L 553.5 183.435017 
L 560.536364 184.877632 
L 567.572727 186.400854 
L 574.609091 188.003963 
L 581.645455 189.686199 
L 588.681818 191.446767 
L 595.718182 193.284833 
L 602.754545 195.199527 
L 609.790909 197.189944 
L 616.827273 199.255141 
L 623.863636 201.394141 
L 630.9 203.605931 
L 637.936364 205.889465 
L 644.972727 208.243662 
L 652.009091 210.667409 
L 659.045455 213.159557 
L 666.081818 215.718927 
L 673.118182 218.344309 
L 680.154545 221.034459 
L 687.190909 223.788105 
L 694.227273 226.603944 
L 701.263636 229.480642 
L 708.3 232.416838 
L 715.336364 235.411143 
L 722.372727 238.462139 
L 729.409091 241.568384 
L 736.445455 244.728405 
L 743.481818 247.940709 
L 750.518182 251.203775 
L 757.554545 254.516058 
L 764.590909 257.875992 
L 771.627273 261.281985 
L 778.663636 264.732425 
L 785.7 268.225681 
" style="fill:none;stroke:#de8f05;stroke-linecap:square;stroke-width:4;"/>
   </g>
   <g id="line2d_3">
    <path clip-path="url(#pae4a8ac67b)" d="M 89.1 244.173917 
L 96.136364 241.947848 
L 103.172727 239.755989 
L 110.209091 237.599003 
L 117.245455 235.477541 
L 124.281818 233.392244 
L 131.318182 231.343742 
L 138.354545 229.332653 
L 145.390909 227.359586 
L 152.427273 225.425136 
L 159.463636 223.529887 
L 166.5 221.674412 
L 173.536364 219.859272 
L 180.572727 218.085015 
L 187.609091 216.352176 
L 194.645455 214.66128 
L 201.681818 213.012837 
L 208.718182 211.407344 
L 215.754545 209.845288 
L 222.790909 208.327139 
L 229.827273 206.853357 
L 236.863636 205.424387 
L 243.9 204.040659 
L 250.936364 202.702593 
L 257.972727 201.410592 
L 265.009091 200.165047 
L 272.045455 198.966334 
L 279.081818 197.814815 
L 286.118182 196.710837 
L 293.154545 195.654735 
L 300.190909 194.646828 
L 307.227273 193.687419 
L 314.263636 192.776799 
L 321.3 191.915242 
L 328.336364 191.10301 
L 335.372727 190.340347 
L 342.409091 189.627484 
L 349.445455 188.964635 
L 356.481818 188.352002 
L 363.518182 187.78977 
L 370.554545 187.278107 
L 377.590909 186.817169 
L 384.627273 186.407095 
L 391.663636 186.048009 
L 398.7 185.74002 
L 405.736364 185.483219 
L 412.772727 185.277686 
L 419.809091 185.123482 
L 426.845455 185.020653 
L 433.881818 184.969231 
L 440.918182 184.969231 
L 447.954545 185.020653 
L 454.990909 185.123482 
L 462.027273 185.277686 
L 469.063636 185.483219 
L 476.1 185.74002 
L 483.136364 186.048009 
L 490.172727 186.407095 
L 497.209091 186.817169 
L 504.245455 187.278107 
L 511.281818 187.78977 
L 518.318182 188.352002 
L 525.354545 188.964635 
L 532.390909 189.627484 
L 539.427273 190.340347 
L 546.463636 191.10301 
L 553.5 191.915242 
L 560.536364 192.776799 
L 567.572727 193.687419 
L 574.609091 194.646828 
L 581.645455 195.654735 
L 588.681818 196.710837 
L 595.718182 197.814815 
L 602.754545 198.966334 
L 609.790909 200.165047 
L 616.827273 201.410592 
L 623.863636 202.702593 
L 630.9 204.040659 
L 637.936364 205.424387 
L 644.972727 206.853357 
L 652.009091 208.327139 
L 659.045455 209.845288 
L 666.081818 211.407344 
L 673.118182 213.012837 
L 680.154545 214.66128 
L 687.190909 216.352176 
L 694.227273 218.085015 
L 701.263636 219.859272 
L 708.3 221.674412 
L 715.336364 223.529887 
L 722.372727 225.425136 
L 729.409091 227.359586 
L 736.445455 229.332653 
L 743.481818 231.343742 
L 750.518182 233.392244 
L 757.554545 235.477541 
L 764.590909 237.599003 
L 771.627273 239.755989 
L 778.663636 241.947848 
L 785.7 244.173917 
" style="fill:none;stroke:#029e73;stroke-linecap:square;stroke-width:4;"/>
   </g>
   <g id="line2d_4">
    <path clip-path="url(#pae4a8ac67b)" d="M 89.1 205.2 
L 96.136364 205.2 
L 103.172727 205.2 
L 110.209091 205.2 
L 117.245455 205.2 
L 124.281818 205.2 
L 131.318182 205.2 
L 138.354545 205.2 
L 145.390909 205.2 
L 152.427273 205.2 
L 159.463636 205.2 
L 166.5 205.2 
L 173.536364 205.2 
L 180.572727 205.2 
L 187.609091 205.2 
L 194.645455 205.2 
L 201.681818 205.2 
L 208.718182 205.2 
L 215.754545 205.2 
L 222.790909 205.2 
L 229.827273 205.2 
L 236.863636 205.2 
L 243.9 205.2 
L 250.936364 205.2 
L 257.972727 205.2 
L 265.009091 205.2 
L 272.045455 205.2 
L 279.081818 205.2 
L 286.118182 205.2 
L 293.154545 205.2 
L 300.190909 205.2 
L 307.227273 205.2 
L 314.263636 205.2 
L 321.3 205.2 
L 328.336364 205.2 
L 335.372727 205.2 
L 342.409091 205.2 
L 349.445455 205.2 
L 356.481818 205.2 
L 363.518182 205.2 
L 370.554545 205.2 
L 377.590909 205.2 
L 384.627273 205.2 
L 391.663636 205.2 
L 398.7 205.2 
L 405.736364 205.2 
L 412.772727 205.2 
L 419.809091 205.2 
L 426.845455 205.2 
L 433.881818 205.2 
L 440.918182 205.2 
L 447.954545 205.2 
L 454.990909 205.2 
L 462.027273 205.2 
L 469.063636 205.2 
L 476.1 205.2 
L 483.136364 205.2 
L 490.172727 205.2 
L 497.209091 205.2 
L 504.245455 205.2 
L 511.281818 205.2 
L 518.318182 205.2 
L 525.354545 205.2 
L 532.390909 205.2 
L 539.427273 205.2 
L 546.463636 205.2 
L 553.5 205.2 
L 560.536364 205.2 
L 567.572727 205.2 
L 574.609091 205.2 
L 581.645455 205.2 
L 588.681818 205.2 
L 595.718182 205.2 
L 602.754545 205.2 
L 609.790909 205.2 
L 616.827273 205.2 
L 623.863636 205.2 
L 630.9 205.2 
L 637.936364 205.2 
L 644.972727 205.2 
L 652.009091 205.2 
L 659.045455 205.2 
L 666.081818 205.2 
L 673.118182 205.2 
L 680.154545 205.2 
L 687.190909 205.2 
L 694.227273 205.2 
L 701.263636 205.2 
L 708.3 205.2 
L 715.336364 205.2 
L 722.372727 205.2 
L 729.409091 205.2 
L 736.445455 205.2 
L 743.481818 205.2 
L 750.518182 205.2 
L 757.554545 205.2 
L 764.590909 205.2 
L 771.627273 205.2 
L 778.663636 205.2 
L 785.7 205.2 
" style="fill:none;stroke:#d55e00;stroke-linecap:square;stroke-width:4;"/>
   </g>
   <g id="line2d_5">
    <path clip-path="url(#pae4a8ac67b)" d="M 89.1 139.315674 
L 96.136364 143.613994 
L 103.172727 147.788027 
L 110.209091 151.840224 
L 117.245455 155.772966 
L 124.281818 159.588562 
L 131.318182 163.289254 
L 138.354545 166.877217 
L 145.390909 170.354556 
L 152.427273 173.723316 
L 159.463636 176.985475 
L 166.5 180.142949 
L 173.536364 183.197593 
L 180.572727 186.151201 
L 187.609091 189.005508 
L 194.645455 191.762191 
L 201.681818 194.422869 
L 208.718182 196.989106 
L 215.754545 199.462407 
L 222.790909 201.844227 
L 229.827273 204.135965 
L 236.863636 206.338966 
L 243.9 208.454524 
L 250.936364 210.483883 
L 257.972727 212.428235 
L 265.009091 214.288721 
L 272.045455 216.066434 
L 279.081818 217.76242 
L 286.118182 219.377673 
L 293.154545 220.913142 
L 300.190909 222.369731 
L 307.227273 223.748294 
L 314.263636 225.04964 
L 321.3 226.274536 
L 328.336364 227.423699 
L 335.372727 228.497805 
L 342.409091 229.497485 
L 349.445455 230.423327 
L 356.481818 231.275873 
L 363.518182 232.055626 
L 370.554545 232.763042 
L 377.590909 233.398538 
L 384.627273 233.962486 
L 391.663636 234.455218 
L 398.7 234.877024 
L 405.736364 235.228151 
L 412.772727 235.508805 
L 419.809091 235.719152 
L 426.845455 235.859314 
L 433.881818 235.929375 
L 440.918182 235.929375 
L 447.954545 235.859314 
L 454.990909 235.719152 
L 462.027273 235.508805 
L 469.063636 235.228151 
L 476.1 234.877024 
L 483.136364 234.455218 
L 490.172727 233.962486 
L 497.209091 233.398538 
L 504.245455 232.763042 
L 511.281818 232.055626 
L 518.318182 231.275873 
L 525.354545 230.423327 
L 532.390909 229.497485 
L 539.427273 228.497805 
L 546.463636 227.423699 
L 553.5 226.274536 
L 560.536364 225.04964 
L 567.572727 223.748294 
L 574.609091 222.369731 
L 581.645455 220.913142 
L 588.681818 219.377673 
L 595.718182 217.76242 
L 602.754545 216.066434 
L 609.790909 214.288721 
L 616.827273 212.428235 
L 623.863636 210.483883 
L 630.9 208.454524 
L 637.936364 206.338966 
L 644.972727 204.135965 
L 652.009091 201.844227 
L 659.045455 199.462407 
L 666.081818 196.989106 
L 673.118182 194.422869 
L 680.154545 191.762191 
L 687.190909 189.005508 
L 694.227273 186.151201 
L 701.263636 183.197593 
L 708.3 180.142949 
L 715.336364 176.985475 
L 722.372727 173.723316 
L 729.409091 170.354556 
L 736.445455 166.877217 
L 743.481818 163.289254 
L 750.518182 159.588562 
L 757.554545 155.772966 
L 764.590909 151.840224 
L 771.627273 147.788027 
L 778.663636 143.613994 
L 785.7 139.315674 
" style="fill:none;stroke:#cc78bc;stroke-linecap:square;stroke-width:4;"/>
   </g>
   <g id="line2d_6">
    <path clip-path="url(#pae4a8ac67b)" d="M 89.1 35.278378 
L 96.136364 47.92974 
L 103.172727 60.0461 
L 110.209091 71.648554 
L 117.245455 82.757304 
L 124.281818 93.391692 
L 131.318182 103.570233 
L 138.354545 113.310651 
L 145.390909 122.629904 
L 152.427273 131.544219 
L 159.463636 140.069117 
L 166.5 148.219441 
L 173.536364 156.009382 
L 180.572727 163.452502 
L 187.609091 170.561763 
L 194.645455 177.349542 
L 201.681818 183.827657 
L 208.718182 190.007388 
L 215.754545 195.899495 
L 222.790909 201.514237 
L 229.827273 206.861389 
L 236.863636 211.950263 
L 243.9 216.789718 
L 250.936364 221.38818 
L 257.972727 225.753657 
L 265.009091 229.893749 
L 272.045455 233.815664 
L 279.081818 237.526232 
L 286.118182 241.031913 
L 293.154545 244.33881 
L 300.190909 247.452682 
L 307.227273 250.378951 
L 314.263636 253.122711 
L 321.3 255.688739 
L 328.336364 258.081504 
L 335.372727 260.305171 
L 342.409091 262.363613 
L 349.445455 264.260413 
L 356.481818 265.998875 
L 363.518182 267.582024 
L 370.554545 269.012617 
L 377.590909 270.293146 
L 384.627273 271.42584 
L 391.663636 272.41267 
L 398.7 273.255356 
L 405.736364 273.955365 
L 412.772727 274.513914 
L 419.809091 274.931978 
L 426.845455 275.210283 
L 433.881818 275.349315 
L 440.918182 275.349315 
L 447.954545 275.210283 
L 454.990909 274.931978 
L 462.027273 274.513914 
L 469.063636 273.955365 
L 476.1 273.255356 
L 483.136364 272.41267 
L 490.172727 271.42584 
L 497.209091 270.293146 
L 504.245455 269.012617 
L 511.281818 267.582024 
L 518.318182 265.998875 
L 525.354545 264.260413 
L 532.390909 262.363613 
L 539.427273 260.305171 
L 546.463636 258.081504 
L 553.5 255.688739 
L 560.536364 253.122711 
L 567.572727 250.378951 
L 574.609091 247.452682 
L 581.645455 244.33881 
L 588.681818 241.031913 
L 595.718182 237.526232 
L 602.754545 233.815664 
L 609.790909 229.893749 
L 616.827273 225.753657 
L 623.863636 221.38818 
L 630.9 216.789718 
L 637.936364 211.950263 
L 644.972727 206.861389 
L 652.009091 201.514237 
L 659.045455 195.899495 
L 666.081818 190.007388 
L 673.118182 183.827657 
L 680.154545 177.349542 
L 687.190909 170.561763 
L 694.227273 163.452502 
L 701.263636 156.009382 
L 708.3 148.219441 
L 715.336364 140.069117 
L 722.372727 131.544219 
L 729.409091 122.629904 
L 736.445455 113.310651 
L 743.481818 103.570233 
L 750.518182 93.391692 
L 757.554545 82.757304 
L 764.590909 71.648554 
L 771.627273 60.0461 
L 778.663636 47.92974 
L 785.7 35.278378 
" style="fill:none;stroke:#ca9161;stroke-linecap:square;stroke-width:4;"/>
   </g>
   <g id="patch_3">
    <path d="M 89.1 295.2 
L 89.1 25.2 
" style="fill:none;stroke:#000000;stroke-linecap:square;stroke-linejoin:miter;"/>
   </g>
   <g id="patch_4">
    <path d="M 785.7 295.2 
L 785.7 25.2 
" style="fill:none;stroke:#000000;stroke-linecap:square;stroke-linejoin:miter;"/>
   </g>
   <g id="patch_5">
    <path d="M 89.1 295.2 
L 785.7 295.2 
" style="fill:none;stroke:#000000;stroke-linecap:square;stroke-linejoin:miter;"/>
   </g>
   <g id="patch_6">
    <path d="M 89.1 25.2 
L 785.7 25.2 
" style="fill:none;stroke:#000000;stroke-linecap:square;stroke-linejoin:miter;"/>
   </g>
   <g id="matplotlib.axis_1">
    <g id="xtick_1">
     <g id="line2d_7">
      <defs>
       <path d="M 0 0 
L 0 -10 
" id="m74c314b6c2" style="stroke:#000000;stroke-width:0.5;"/>
      </defs>
      <g>
       <use style="stroke:#000000;stroke-width:0.5;" x="89.1" xlink:href="#m74c314b6c2" y="295.2"/>
      </g>
     </g>
     <g id="line2d_8">
      <defs>
       <path d="M 0 0 
L 0 10 
" id="m1d50a558d4" style="stroke:#000000;stroke-width:0.5;"/>
      </defs>
      <g>
       <use style="stroke:#000000;stroke-width:0.5;" x="89.1" xlink:href="#m1d50a558d4" y="25.2"/>
      </g>
     </g>
     <g id="text_1">
      <!-- $0.0$ -->
      <defs>
       <path d="M 42 31.640625 
C 42 37.75 41.90625 48.125 37.703125 56.109375 
C 34 63.109375 28.09375 65.59375 22.90625 65.59375 
C 18.09375 65.59375 12 63.40625 8.203125 56.203125 
C 4.203125 48.71875 3.796875 39.4375 3.796875 31.640625 
C 3.796875 25.953125 3.90625 17.28125 7 9.671875 
C 11.296875 -0.609375 19 -2 22.90625 -2 
C 27.5 -2 34.5 -0.109375 38.59375 9.375 
C 41.59375 16.28125 42 24.359375 42 31.640625 
z
M 22.90625 -0.40625 
C 16.5 -0.40625 12.703125 5.078125 11.296875 12.6875 
C 10.203125 18.5625 10.203125 27.15625 10.203125 32.75 
C 10.203125 40.4375 10.203125 46.828125 11.5 52.921875 
C 13.40625 61.390625 19 64 22.90625 64 
C 27 64 32.296875 61.296875 34.203125 53.125 
C 35.5 47.4375 35.59375 40.734375 35.59375 32.75 
C 35.59375 26.25 35.59375 18.265625 34.40625 12.375 
C 32.296875 1.484375 26.40625 -0.40625 22.90625 -0.40625 
z
" id="CMR17-48"/>
       <path d="M 18.40625 4.796875 
C 18.40625 7.6875 16 9.671875 13.59375 9.671875 
C 10.703125 9.671875 8.703125 7.28125 8.703125 4.890625 
C 8.703125 2 11.09375 0 13.5 0 
C 16.40625 0 18.40625 2.390625 18.40625 4.796875 
z
" id="CMMI12-58"/>
      </defs>
      <g transform="translate(71.32828 320.494961)scale(0.3 -0.3)">
       <use transform="scale(0.996264)" xlink:href="#CMR17-48"/>
       <use transform="translate(45.690477 0)scale(0.996264)" xlink:href="#CMMI12-58"/>
       <use transform="translate(72.787654 0)scale(0.996264)" xlink:href="#CMR17-48"/>
      </g>
     </g>
    </g>
    <g id="xtick_2">
     <g id="line2d_9">
      <g>
       <use style="stroke:#000000;stroke-width:0.5;" x="228.42" xlink:href="#m74c314b6c2" y="295.2"/>
      </g>
     </g>
     <g id="line2d_10">
      <g>
       <use style="stroke:#000000;stroke-width:0.5;" x="228.42" xlink:href="#m1d50a558d4" y="25.2"/>
      </g>
     </g>
     <g id="text_2">
      <!-- $0.2$ -->
      <defs>
       <path d="M 41.703125 15.453125 
L 39.90625 15.453125 
C 38.90625 8.375 38.09375 7.171875 37.703125 6.5625 
C 37.203125 5.765625 30 5.765625 28.59375 5.765625 
L 9.40625 5.765625 
C 13 9.671875 20 16.75 28.5 24.953125 
C 34.59375 30.734375 41.703125 37.53125 41.703125 47.421875 
C 41.703125 59.21875 32.296875 66 21.796875 66 
C 10.796875 66 4.09375 56.3125 4.09375 47.34375 
C 4.09375 43.4375 7 42.9375 8.203125 42.9375 
C 9.203125 42.9375 12.203125 43.546875 12.203125 47.03125 
C 12.203125 50.109375 9.59375 51 8.203125 51 
C 7.59375 51 7 50.90625 6.59375 50.703125 
C 8.5 59.21875 14.296875 63.40625 20.40625 63.40625 
C 29.09375 63.40625 34.796875 56.515625 34.796875 47.421875 
C 34.796875 38.734375 29.703125 31.25 24 24.75 
L 4.09375 2.28125 
L 4.09375 0 
L 39.296875 0 
z
" id="CMR17-50"/>
      </defs>
      <g transform="translate(210.64828 320.494961)scale(0.3 -0.3)">
       <use transform="scale(0.996264)" xlink:href="#CMR17-48"/>
       <use transform="translate(45.690477 0)scale(0.996264)" xlink:href="#CMMI12-58"/>
       <use transform="translate(72.787654 0)scale(0.996264)" xlink:href="#CMR17-50"/>
      </g>
     </g>
    </g>
    <g id="xtick_3">
     <g id="line2d_11">
      <g>
       <use style="stroke:#000000;stroke-width:0.5;" x="367.74" xlink:href="#m74c314b6c2" y="295.2"/>
      </g>
     </g>
     <g id="line2d_12">
      <g>
       <use style="stroke:#000000;stroke-width:0.5;" x="367.74" xlink:href="#m1d50a558d4" y="25.2"/>
      </g>
     </g>
     <g id="text_3">
      <!-- $0.4$ -->
      <defs>
       <path d="M 33.59375 64.40625 
C 33.59375 66.5 33.5 66.5 31.703125 66.5 
L 2 19.59375 
L 2 17 
L 27.796875 17 
L 27.796875 7.140625 
C 27.796875 3.5 27.59375 2.5 20.59375 2.5 
L 18.703125 2.5 
L 18.703125 0 
C 21.90625 0 27.296875 0 30.703125 0 
C 34.09375 0 39.5 0 42.703125 0 
L 42.703125 2.5 
L 40.796875 2.5 
C 33.796875 2.5 33.59375 3.5 33.59375 7.140625 
L 33.59375 17 
L 43.796875 17 
L 43.796875 19.59375 
L 33.59375 19.59375 
z
M 28.09375 57.859375 
L 28.09375 19.59375 
L 4 19.59375 
z
" id="CMR17-52"/>
      </defs>
      <g transform="translate(349.96828 320.494961)scale(0.3 -0.3)">
       <use transform="scale(0.996264)" xlink:href="#CMR17-48"/>
       <use transform="translate(45.690477 0)scale(0.996264)" xlink:href="#CMMI12-58"/>
       <use transform="translate(72.787654 0)scale(0.996264)" xlink:href="#CMR17-52"/>
      </g>
     </g>
    </g>
    <g id="xtick_4">
     <g id="line2d_13">
      <g>
       <use style="stroke:#000000;stroke-width:0.5;" x="507.06" xlink:href="#m74c314b6c2" y="295.2"/>
      </g>
     </g>
     <g id="line2d_14">
      <g>
       <use style="stroke:#000000;stroke-width:0.5;" x="507.06" xlink:href="#m1d50a558d4" y="25.2"/>
      </g>
     </g>
     <g id="text_4">
      <!-- $0.6$ -->
      <defs>
       <path d="M 10.59375 34 
C 10.59375 57.65625 21.796875 63 28.296875 63 
C 30.40625 63 35.5 62.640625 37.5 59 
C 35.90625 59 32.90625 59 32.90625 55.515625 
C 32.90625 52.828125 35.09375 51.921875 36.5 51.921875 
C 37.40625 51.921875 40.09375 52.3125 40.09375 55.625 
C 40.09375 61.78125 35.09375 65.296875 28.203125 65.296875 
C 16.296875 65.296875 3.796875 52.96875 3.796875 31 
C 3.796875 3.953125 15.09375 -2 23.09375 -2 
C 32.796875 -2 42 6.671875 42 20.046875 
C 42 32.515625 33.90625 41.59375 23.703125 41.59375 
C 17.59375 41.59375 13.09375 37.609375 10.59375 30.625 
z
M 23.09375 0.390625 
C 10.796875 0.390625 10.796875 18.75 10.796875 22.4375 
C 10.796875 29.625 14.203125 40 23.5 40 
C 25.203125 40 30.09375 40 33.40625 33.125 
C 35.203125 29.21875 35.203125 25.140625 35.203125 20.140625 
C 35.203125 14.75 35.203125 10.78125 33.09375 6.78125 
C 30.90625 2.671875 27.703125 0.390625 23.09375 0.390625 
z
" id="CMR17-54"/>
      </defs>
      <g transform="translate(489.28828 320.494961)scale(0.3 -0.3)">
       <use transform="scale(0.996264)" xlink:href="#CMR17-48"/>
       <use transform="translate(45.690477 0)scale(0.996264)" xlink:href="#CMMI12-58"/>
       <use transform="translate(72.787654 0)scale(0.996264)" xlink:href="#CMR17-54"/>
      </g>
     </g>
    </g>
    <g id="xtick_5">
     <g id="line2d_15">
      <g>
       <use style="stroke:#000000;stroke-width:0.5;" x="646.38" xlink:href="#m74c314b6c2" y="295.2"/>
      </g>
     </g>
     <g id="line2d_16">
      <g>
       <use style="stroke:#000000;stroke-width:0.5;" x="646.38" xlink:href="#m1d50a558d4" y="25.2"/>
      </g>
     </g>
     <g id="text_5">
      <!-- $0.8$ -->
      <defs>
       <path d="M 27.203125 35.375 
C 33.5 38.546875 39.90625 43.328125 39.90625 50.984375 
C 39.90625 60.015625 31.09375 65.296875 23 65.296875 
C 13.90625 65.296875 5.90625 58.734375 5.90625 49.6875 
C 5.90625 47.203125 6.5 42.921875 10.40625 39.140625 
C 11.40625 38.15625 15.59375 35.171875 18.296875 33.28125 
C 13.796875 30.984375 3.296875 25.53125 3.296875 14.59375 
C 3.296875 4.359375 13.09375 -2 22.796875 -2 
C 33.5 -2 42.5 5.65625 42.5 15.78125 
C 42.5 24.84375 36.40625 29.015625 32.40625 31.703125 
z
M 14.09375 44.09375 
C 13.296875 44.59375 9.296875 47.671875 9.296875 52.359375 
C 9.296875 58.421875 15.59375 63 22.796875 63 
C 30.703125 63 36.5 57.4375 36.5 50.96875 
C 36.5 41.703125 26.09375 36.421875 25.59375 36.421875 
C 25.5 36.421875 25.40625 36.421875 24.59375 37.03125 
z
M 32.5 23.734375 
C 34 22.640625 38.796875 19.375 38.796875 13.296875 
C 38.796875 5.953125 31.40625 0.390625 23 0.390625 
C 13.90625 0.390625 7 6.84375 7 14.6875 
C 7 22.546875 13.09375 29.09375 20 32.1875 
z
" id="CMR17-56"/>
      </defs>
      <g transform="translate(628.60828 320.494961)scale(0.3 -0.3)">
       <use transform="scale(0.996264)" xlink:href="#CMR17-48"/>
       <use transform="translate(45.690477 0)scale(0.996264)" xlink:href="#CMMI12-58"/>
       <use transform="translate(72.787654 0)scale(0.996264)" xlink:href="#CMR17-56"/>
      </g>
     </g>
    </g>
    <g id="xtick_6">
     <g id="line2d_17">
      <g>
       <use style="stroke:#000000;stroke-width:0.5;" x="785.7" xlink:href="#m74c314b6c2" y="295.2"/>
      </g>
     </g>
     <g id="line2d_18">
      <g>
       <use style="stroke:#000000;stroke-width:0.5;" x="785.7" xlink:href="#m1d50a558d4" y="25.2"/>
      </g>
     </g>
     <g id="text_6">
      <!-- $1.0$ -->
      <defs>
       <path d="M 26.59375 63.40625 
C 26.59375 65.5 26.5 65.5 25.09375 65.5 
C 21.203125 61.1875 15.296875 59.796875 9.703125 59.796875 
C 9.40625 59.796875 8.90625 59.796875 8.796875 59.5 
C 8.703125 59.296875 8.703125 59.09375 8.703125 57 
C 11.796875 57 17 57.59375 21 59.984375 
L 21 7.203125 
C 21 3.6875 20.796875 2.5 12.203125 2.5 
L 9.203125 2.5 
L 9.203125 0 
C 14 0 19 0 23.796875 0 
C 28.59375 0 33.59375 0 38.40625 0 
L 38.40625 2.5 
L 35.40625 2.5 
C 26.796875 2.5 26.59375 3.59375 26.59375 7.15625 
z
" id="CMR17-49"/>
      </defs>
      <g transform="translate(767.92828 320.494961)scale(0.3 -0.3)">
       <use transform="scale(0.996264)" xlink:href="#CMR17-49"/>
       <use transform="translate(45.690477 0)scale(0.996264)" xlink:href="#CMMI12-58"/>
       <use transform="translate(72.787654 0)scale(0.996264)" xlink:href="#CMR17-48"/>
      </g>
     </g>
    </g>
    <g id="text_7">
     <!-- $r/L$ -->
     <defs>
      <path d="M 38.90625 40.8125 
C 35.796875 40.21875 34.203125 38.015625 34.203125 35.828125 
C 34.203125 33.421875 36.09375 32.625 37.5 32.625 
C 40.296875 32.625 42.59375 35.03125 42.59375 38.015625 
C 42.59375 41.21875 39.5 44 34.5 44 
C 30.5 44 25.90625 42.203125 21.703125 36.125 
C 21 41.40625 17 44 13 44 
C 9.09375 44 7.09375 41.015625 5.90625 38.8125 
C 4.203125 35.21875 2.703125 29.234375 2.703125 28.734375 
C 2.703125 28.34375 3.09375 27.84375 3.796875 27.84375 
C 4.59375 27.84375 4.703125 27.9375 5.296875 30.234375 
C 6.796875 36.21875 8.703125 42.015625 12.703125 42.015625 
C 15.09375 42.015625 15.796875 40.3125 15.796875 37.421875 
C 15.796875 35.21875 14.796875 31.328125 14.09375 28.234375 
L 11.296875 17.46875 
C 10.90625 15.5625 9.796875 11.078125 9.296875 9.28125 
C 8.59375 6.6875 7.5 2 7.5 1.5 
C 7.5 0.09375 8.59375 -1 10.09375 -1 
C 11.203125 -1 13.09375 -0.296875 13.703125 1.703125 
C 14 2.5 17.703125 17.5625 18.296875 19.859375 
C 18.796875 22.046875 19.40625 24.15625 19.90625 26.34375 
C 20.296875 27.734375 20.703125 29.34375 21 30.640625 
C 21.296875 31.53125 24 36.421875 26.5 38.625 
C 27.703125 39.71875 30.296875 42.015625 34.40625 42.015625 
C 36 42.015625 37.59375 41.71875 38.90625 40.8125 
z
" id="CMMI12-114"/>
      <path d="M 42.90625 71.28125 
C 42.90625 71.390625 43.5 72.90625 43.5 73.09375 
C 43.5 74.296875 42.5 75 41.703125 75 
C 41.203125 75 40.296875 75 39.5 72.796875 
L 6 -21.296875 
C 6 -21.40625 5.40625 -22.890625 5.40625 -23.09375 
C 5.40625 -24.296875 6.40625 -25 7.203125 -25 
C 7.796875 -25 8.703125 -24.890625 9.40625 -22.796875 
z
" id="CMMI12-61"/>
      <path d="M 36.703125 60.328125 
C 37.59375 64.109375 37.90625 65.109375 46.703125 65.109375 
C 49.40625 65.109375 50.09375 65.109375 50.09375 67 
C 50.09375 68 49 68 48.59375 68 
C 46.59375 68 44.296875 68 42.296875 68 
L 28.90625 68 
C 27 68 24.796875 68 22.90625 68 
C 22.09375 68 21 68 21 66.109375 
C 21 65.109375 21.90625 65.109375 23.40625 65.109375 
C 29.5 65.109375 29.5 64.3125 29.5 63.21875 
C 29.5 63.03125 29.5 62.421875 29.09375 60.921875 
L 15.59375 7.375 
C 14.703125 3.890625 14.5 2.890625 7.5 2.890625 
C 5.59375 2.890625 4.59375 2.890625 4.59375 1.09375 
C 4.59375 0 5.203125 0 7.203125 0 
L 52 0 
C 54.203125 0 54.296875 0.09375 55 1.890625 
L 62.703125 23.09375 
C 62.90625 23.59375 63.09375 24.1875 63.09375 24.484375 
C 63.09375 25.078125 62.59375 25.484375 62.09375 25.484375 
C 62 25.484375 61.5 25.484375 61.296875 25.078125 
C 61.09375 24.984375 61.09375 24.78125 60.296875 22.890625 
C 57.09375 14.140625 52.59375 2.890625 35.703125 2.890625 
L 26.09375 2.890625 
C 24.703125 2.890625 24.5 2.890625 23.90625 3 
C 22.796875 3.09375 22.703125 3.296875 22.703125 4.09375 
C 22.703125 4.796875 22.90625 5.390625 23.09375 6.265625 
z
" id="CMMI12-76"/>
     </defs>
     <g transform="translate(413.127542 354.27686)scale(0.3 -0.3)">
      <use transform="scale(0.996264)" xlink:href="#CMMI12-114"/>
      <use transform="translate(46.670612 0)scale(0.996264)" xlink:href="#CMMI12-61"/>
      <use transform="translate(95.445531 0)scale(0.996264)" xlink:href="#CMMI12-76"/>
     </g>
    </g>
   </g>
   <g id="matplotlib.axis_2">
    <g id="ytick_1">
     <g id="line2d_19">
      <defs>
       <path d="M 0 0 
L 10 0 
" id="m29a87806ef" style="stroke:#000000;stroke-width:0.5;"/>
      </defs>
      <g>
       <use style="stroke:#000000;stroke-width:0.5;" x="89.1" xlink:href="#m29a87806ef" y="295.2"/>
      </g>
     </g>
     <g id="line2d_20">
      <defs>
       <path d="M 0 0 
L -10 0 
" id="m5675401661" style="stroke:#000000;stroke-width:0.5;"/>
      </defs>
      <g>
       <use style="stroke:#000000;stroke-width:0.5;" x="785.7" xlink:href="#m5675401661" y="295.2"/>
      </g>
     </g>
     <g id="text_8">
      <!-- $0.1$ -->
      <g transform="translate(49.556561 302.664501)scale(0.3 -0.3)">
       <use transform="scale(0.996264)" xlink:href="#CMR17-48"/>
       <use transform="translate(45.690477 0)scale(0.996264)" xlink:href="#CMMI12-58"/>
       <use transform="translate(72.787654 0)scale(0.996264)" xlink:href="#CMR17-49"/>
      </g>
     </g>
    </g>
    <g id="ytick_2">
     <g id="line2d_21">
      <g>
       <use style="stroke:#000000;stroke-width:0.5;" x="89.1" xlink:href="#m29a87806ef" y="235.2"/>
      </g>
     </g>
     <g id="line2d_22">
      <g>
       <use style="stroke:#000000;stroke-width:0.5;" x="785.7" xlink:href="#m5675401661" y="235.2"/>
      </g>
     </g>
     <g id="text_9">
      <!-- $0.2$ -->
      <g transform="translate(49.556561 242.664501)scale(0.3 -0.3)">
       <use transform="scale(0.996264)" xlink:href="#CMR17-48"/>
       <use transform="translate(45.690477 0)scale(0.996264)" xlink:href="#CMMI12-58"/>
       <use transform="translate(72.787654 0)scale(0.996264)" xlink:href="#CMR17-50"/>
      </g>
     </g>
    </g>
    <g id="ytick_3">
     <g id="line2d_23">
      <g>
       <use style="stroke:#000000;stroke-width:0.5;" x="89.1" xlink:href="#m29a87806ef" y="175.2"/>
      </g>
     </g>
     <g id="line2d_24">
      <g>
       <use style="stroke:#000000;stroke-width:0.5;" x="785.7" xlink:href="#m5675401661" y="175.2"/>
      </g>
     </g>
     <g id="text_10">
      <!-- $0.3$ -->
      <defs>
       <path d="M 22.09375 33.703125 
C 31 33.703125 34.90625 25.96875 34.90625 17.03125 
C 34.90625 5 28.5 0.390625 22.703125 0.390625 
C 17.40625 0.390625 8.796875 3.03125 6.09375 10.828125 
C 6.59375 10.625 7.09375 10.625 7.59375 10.625 
C 10 10.625 11.796875 12.21875 11.796875 14.8125 
C 11.796875 17.703125 9.59375 19 7.59375 19 
C 5.90625 19 3.296875 18.203125 3.296875 14.46875 
C 3.296875 5.234375 12.296875 -2 22.90625 -2 
C 34 -2 42.5 6.71875 42.5 16.953125 
C 42.5 26.671875 34.5 33.703125 25 34.796875 
C 32.59375 36.375 39.90625 43.0625 39.90625 52.015625 
C 39.90625 59.6875 32 65.296875 23 65.296875 
C 13.90625 65.296875 5.90625 59.828125 5.90625 52.015625 
C 5.90625 48.59375 8.5 48 9.796875 48 
C 11.90625 48 13.703125 49.296875 13.703125 51.890625 
C 13.703125 54.46875 11.90625 55.765625 9.796875 55.765625 
C 9.40625 55.765625 8.90625 55.765625 8.5 55.578125 
C 11.40625 61.859375 19.296875 63 22.796875 63 
C 26.296875 63 32.90625 61.328125 32.90625 51.875 
C 32.90625 49.109375 32.5 44.1875 29.09375 39.84375 
C 26.09375 36 22.703125 36 19.40625 35.6875 
C 18.90625 35.6875 16.59375 35.453125 16.203125 35.453125 
C 15.5 35.359375 15.09375 35.265625 15.09375 34.5 
C 15.09375 33.796875 15.203125 33.703125 17.203125 33.703125 
z
" id="CMR17-51"/>
      </defs>
      <g transform="translate(49.556561 182.664501)scale(0.3 -0.3)">
       <use transform="scale(0.996264)" xlink:href="#CMR17-48"/>
       <use transform="translate(45.690477 0)scale(0.996264)" xlink:href="#CMMI12-58"/>
       <use transform="translate(72.787654 0)scale(0.996264)" xlink:href="#CMR17-51"/>
      </g>
     </g>
    </g>
    <g id="ytick_4">
     <g id="line2d_25">
      <g>
       <use style="stroke:#000000;stroke-width:0.5;" x="89.1" xlink:href="#m29a87806ef" y="115.2"/>
      </g>
     </g>
     <g id="line2d_26">
      <g>
       <use style="stroke:#000000;stroke-width:0.5;" x="785.7" xlink:href="#m5675401661" y="115.2"/>
      </g>
     </g>
     <g id="text_11">
      <!-- $0.4$ -->
      <g transform="translate(49.556561 122.664501)scale(0.3 -0.3)">
       <use transform="scale(0.996264)" xlink:href="#CMR17-48"/>
       <use transform="translate(45.690477 0)scale(0.996264)" xlink:href="#CMMI12-58"/>
       <use transform="translate(72.787654 0)scale(0.996264)" xlink:href="#CMR17-52"/>
      </g>
     </g>
    </g>
    <g id="ytick_5">
     <g id="line2d_27">
      <g>
       <use style="stroke:#000000;stroke-width:0.5;" x="89.1" xlink:href="#m29a87806ef" y="55.2"/>
      </g>
     </g>
     <g id="line2d_28">
      <g>
       <use style="stroke:#000000;stroke-width:0.5;" x="785.7" xlink:href="#m5675401661" y="55.2"/>
      </g>
     </g>
     <g id="text_12">
      <!-- $0.5$ -->
      <defs>
       <path d="M 11.40625 57.6875 
C 12.40625 57.28125 16.5 56 20.703125 56 
C 30 56 35.09375 61.109375 38 64.0625 
C 38 64.953125 38 65.5 37.40625 65.5 
C 37.296875 65.5 37.09375 65.5 36.296875 65.046875 
C 32.796875 63.40625 28.703125 62.078125 23.703125 62.078125 
C 20.703125 62.078125 16.203125 62.484375 11.296875 64.671875 
C 10.203125 65.171875 10 65.171875 9.90625 65.171875 
C 9.40625 65.171875 9.296875 65.0625 9.296875 63.078125 
L 9.296875 34.421875 
C 9.296875 32.640625 9.296875 32.140625 10.296875 32.140625 
C 10.796875 32.140625 11 32.34375 11.5 33.03125 
C 14.703125 37.515625 19.09375 39.40625 24.09375 39.40625 
C 27.59375 39.40625 35.09375 37.21875 35.09375 20.140625 
C 35.09375 16.953125 35.09375 11.171875 32.09375 6.578125 
C 29.59375 2.484375 25.703125 0.390625 21.40625 0.390625 
C 14.796875 0.390625 8.09375 5 6.296875 12.71875 
C 6.703125 12.609375 7.5 12.421875 7.90625 12.421875 
C 9.203125 12.421875 11.703125 13.125 11.703125 16.21875 
C 11.703125 18.90625 9.796875 20 7.90625 20 
C 5.59375 20 4.09375 18.59375 4.09375 15.796875 
C 4.09375 7.09375 11 -2 21.59375 -2 
C 31.90625 -2 41.703125 6.875 41.703125 19.75 
C 41.703125 31.71875 33.90625 41 24.203125 41 
C 19.09375 41 14.796875 39.109375 11.40625 35.53125 
z
" id="CMR17-53"/>
      </defs>
      <g transform="translate(49.556561 62.664501)scale(0.3 -0.3)">
       <use transform="scale(0.996264)" xlink:href="#CMR17-48"/>
       <use transform="translate(45.690477 0)scale(0.996264)" xlink:href="#CMMI12-58"/>
       <use transform="translate(72.787654 0)scale(0.996264)" xlink:href="#CMR17-53"/>
      </g>
     </g>
    </g>
    <g id="text_13">
     <!-- $L \varepsilon_{\Lambda}(r)$ -->
     <defs>
      <path d="M 13.90625 22.296875 
C 17.09375 21.015625 20.5 21.015625 22.40625 21.015625 
C 25 21.015625 30.203125 21.015625 30.203125 24.21875 
C 30.203125 26.21875 28.296875 27 23.203125 27 
C 20.703125 27 17.703125 26.703125 14.203125 25.203125 
C 11.09375 26.6875 9.90625 28.9375 9.90625 31.09375 
C 9.90625 37.171875 19.703125 40.71875 28.59375 40.71875 
C 30.296875 40.71875 33.90625 40.71875 38.09375 37.671875 
C 38.703125 37.296875 39 36.984375 39.703125 36.984375 
C 40.90625 36.984375 42.203125 38.265625 42.203125 39.46875 
C 42.203125 41.234375 36.40625 45 29.5 45 
C 18.296875 45 7.703125 38.265625 7.703125 30.8125 
C 7.703125 27.09375 10.09375 24.78125 11.796875 23.578125 
C 6 20.328125 2.59375 15.015625 2.59375 10.1875 
C 2.59375 3.421875 8.796875 -2 18.40625 -2 
C 31.59375 -2 36.90625 6.625 36.90625 8 
C 36.90625 8.484375 36.5 8.875 36 8.875 
C 35.5 8.875 35.296875 8.578125 34.90625 8 
C 33.796875 6.171875 31.203125 2.28125 19.296875 2.28125 
C 13.09375 2.28125 4.90625 3.828125 4.90625 10.71875 
C 4.90625 14.03125 7.40625 18.96875 13.90625 22.296875 
z
M 17 23.71875 
C 19.703125 25 22.296875 25 23 25 
C 25.796875 25 26.296875 24.734375 27.90625 24.140625 
C 26.203125 23 26 23 22.40625 23 
C 20.59375 23 19 23 17 23.71875 
z
" id="CMMI12-34"/>
      <path d="M 33.59375 68.796875 
C 33.09375 70.390625 33 70.5 32 70.5 
C 31 70.5 30.90625 70.390625 30.40625 68.796875 
L 10.703125 9 
C 8.90625 3.703125 5.59375 2.5 2.296875 2.5 
L 2.296875 0 
C 4 0 7.5 0 9.296875 0 
C 11.796875 0 15.703125 0 18.09375 -0.09375 
L 18.09375 2.5 
C 12.796875 2.5 12.5 6.3125 12.5 7.015625 
C 12.5 7.71875 12.703125 8.3125 13 9.3125 
L 29.59375 59.921875 
L 47 7.203125 
C 47.5 5.8125 47.5 5.609375 47.5 5.3125 
C 47.5 2.5 43.296875 2.5 41.203125 2.5 
L 41.203125 0 
C 44.09375 0 49.203125 0 52.296875 0 
C 54.796875 0 59.40625 0 61.703125 -0.09375 
L 61.703125 2.5 
C 57.296875 2.5 55.5 2.5 54.296875 6 
z
" id="CMR17-3"/>
      <path d="M 30.59375 -24.390625 
C 30.59375 -24.296875 30.59375 -24.09375 30.296875 -23.796875 
C 25.703125 -19.125 13.40625 -6.359375 13.40625 24.703125 
C 13.40625 55.765625 25.5 68.421875 30.40625 73.390625 
C 30.40625 73.5 30.59375 73.703125 30.59375 74 
C 30.59375 74.296875 30.296875 74.5 29.90625 74.5 
C 28.796875 74.5 20.296875 67.125 15.40625 56.15625 
C 10.40625 45.109375 9 34.359375 9 24.8125 
C 9 17.625 9.703125 5.484375 15.703125 -7.359375 
C 20.5 -17.734375 28.703125 -25 29.90625 -25 
C 30.40625 -25 30.59375 -24.796875 30.59375 -24.390625 
z
" id="CMR17-40"/>
      <path d="M 26.296875 24.703125 
C 26.296875 31.875 25.59375 44.015625 19.59375 56.859375 
C 14.796875 67.234375 6.59375 74.5 5.40625 74.5 
C 5.09375 74.5 4.703125 74.390625 4.703125 73.890625 
C 4.703125 73.703125 4.796875 73.59375 4.90625 73.390625 
C 9.703125 68.40625 21.90625 55.75 21.90625 24.75 
C 21.90625 -6.359375 9.796875 -19.015625 4.90625 -24.015625 
C 4.796875 -24.203125 4.703125 -24.3125 4.703125 -24.5 
C 4.703125 -25 5.09375 -25 5.40625 -25 
C 6.5 -25 15 -17.625 19.90625 -6.65625 
C 24.90625 4.390625 26.296875 15.140625 26.296875 24.703125 
z
" id="CMR17-41"/>
     </defs>
     <g transform="translate(38.190601 201.543102)rotate(-90)scale(0.3 -0.3)">
      <use transform="translate(0 14.943915)scale(0.996264)" xlink:href="#CMMI12-76"/>
      <use transform="translate(66.370875 14.943915)scale(0.996264)" xlink:href="#CMMI12-34"/>
      <use transform="translate(112.021068 0)scale(0.697382)" xlink:href="#CMR17-3"/>
      <use transform="translate(157.226274 14.943915)scale(0.996264)" xlink:href="#CMR17-40"/>
      <use transform="translate(192.507041 14.943915)scale(0.996264)" xlink:href="#CMMI12-114"/>
      <use transform="translate(239.177654 14.943915)scale(0.996264)" xlink:href="#CMR17-41"/>
     </g>
    </g>
   </g>
   <g id="legend_1">
    <g id="line2d_29">
     <path d="M 247.916467 50.396641 
L 265.916467 50.396641 
" style="fill:none;stroke:#0173b2;stroke-linecap:square;stroke-width:4;"/>
    </g>
    <g id="line2d_30"/>
    <g id="text_14">
     <!-- $\Lambda=-3$ -->
     <defs>
      <path d="M 64.296875 31.515625 
C 65.796875 31.515625 67.296875 31.515625 67.296875 33.203125 
C 67.296875 35 65.59375 35 63.90625 35 
L 8 35 
C 6.296875 35 4.59375 35 4.59375 33.203125 
C 4.59375 31.515625 6.09375 31.515625 7.59375 31.515625 
z
M 63.90625 14 
C 65.59375 14 67.296875 14 67.296875 15.796875 
C 67.296875 17.484375 65.796875 17.484375 64.296875 17.484375 
L 7.59375 17.484375 
C 6.09375 17.484375 4.59375 17.484375 4.59375 15.796875 
C 4.59375 14 6.296875 14 8 14 
z
" id="CMR17-61"/>
      <path d="M 65.90625 23 
C 67.59375 23 69.40625 23 69.40625 25 
C 69.40625 27 67.59375 27 65.90625 27 
L 11.796875 27 
C 10.09375 27 8.296875 27 8.296875 25 
C 8.296875 23 10.09375 23 11.796875 23 
z
" id="CMSY10-0"/>
     </defs>
     <g transform="translate(287.916467 57.396641)scale(0.2 -0.2)">
      <use transform="scale(0.996264)" xlink:href="#CMR17-3"/>
      <use transform="translate(91.541531 0)scale(0.996264)" xlink:href="#CMR17-61"/>
      <use transform="translate(190.930328 0)scale(0.996264)" xlink:href="#CMSY10-0"/>
      <use transform="translate(268.417795 0)scale(0.996264)" xlink:href="#CMR17-51"/>
     </g>
    </g>
    <g id="line2d_31">
     <path d="M 247.916467 78.837254 
L 265.916467 78.837254 
" style="fill:none;stroke:#de8f05;stroke-linecap:square;stroke-width:4;"/>
    </g>
    <g id="line2d_32"/>
    <g id="text_15">
     <!-- $\Lambda=-2$ -->
     <g transform="translate(287.916467 85.837254)scale(0.2 -0.2)">
      <use transform="scale(0.996264)" xlink:href="#CMR17-3"/>
      <use transform="translate(91.541531 0)scale(0.996264)" xlink:href="#CMR17-61"/>
      <use transform="translate(190.930328 0)scale(0.996264)" xlink:href="#CMSY10-0"/>
      <use transform="translate(268.417795 0)scale(0.996264)" xlink:href="#CMR17-50"/>
     </g>
    </g>
    <g id="line2d_33">
     <path d="M 396.737985 50.396641 
L 414.737985 50.396641 
" style="fill:none;stroke:#029e73;stroke-linecap:square;stroke-width:4;"/>
    </g>
    <g id="line2d_34"/>
    <g id="text_16">
     <!-- $\Lambda=-1$ -->
     <g transform="translate(436.737985 57.396641)scale(0.2 -0.2)">
      <use transform="scale(0.996264)" xlink:href="#CMR17-3"/>
      <use transform="translate(91.541531 0)scale(0.996264)" xlink:href="#CMR17-61"/>
      <use transform="translate(190.930328 0)scale(0.996264)" xlink:href="#CMSY10-0"/>
      <use transform="translate(268.417795 0)scale(0.996264)" xlink:href="#CMR17-49"/>
     </g>
    </g>
    <g id="line2d_35">
     <path d="M 396.737985 78.837254 
L 414.737985 78.837254 
" style="fill:none;stroke:#d55e00;stroke-linecap:square;stroke-width:4;"/>
    </g>
    <g id="line2d_36"/>
    <g id="text_17">
     <!-- $\Lambda=0$ -->
     <g transform="translate(436.737985 85.837254)scale(0.2 -0.2)">
      <use transform="scale(0.996264)" xlink:href="#CMR17-3"/>
      <use transform="translate(91.541531 0)scale(0.996264)" xlink:href="#CMR17-61"/>
      <use transform="translate(190.930328 0)scale(0.996264)" xlink:href="#CMR17-48"/>
     </g>
    </g>
    <g id="line2d_37">
     <path d="M 545.559503 50.396641 
L 563.559503 50.396641 
" style="fill:none;stroke:#cc78bc;stroke-linecap:square;stroke-width:4;"/>
    </g>
    <g id="line2d_38"/>
    <g id="text_18">
     <!-- $\Lambda=1$ -->
     <g transform="translate(585.559503 57.396641)scale(0.2 -0.2)">
      <use transform="scale(0.996264)" xlink:href="#CMR17-3"/>
      <use transform="translate(91.541531 0)scale(0.996264)" xlink:href="#CMR17-61"/>
      <use transform="translate(190.930328 0)scale(0.996264)" xlink:href="#CMR17-49"/>
     </g>
    </g>
    <g id="line2d_39">
     <path d="M 545.559503 78.837254 
L 563.559503 78.837254 
" style="fill:none;stroke:#ca9161;stroke-linecap:square;stroke-width:4;"/>
    </g>
    <g id="line2d_40"/>
    <g id="text_19">
     <!-- $\Lambda=2$ -->
     <g transform="translate(585.559503 85.837254)scale(0.2 -0.2)">
      <use transform="scale(0.996264)" xlink:href="#CMR17-3"/>
      <use transform="translate(91.541531 0)scale(0.996264)" xlink:href="#CMR17-61"/>
      <use transform="translate(190.930328 0)scale(0.996264)" xlink:href="#CMR17-50"/>
     </g>
    </g>
   </g>
  </g>
 </g>
 <defs>
  <clipPath id="pae4a8ac67b">
   <rect height="270" width="696.6" x="89.1" y="25.2"/>
  </clipPath>
 </defs>
</svg>
