<?xml version="1.0" encoding="utf-8" standalone="no"?>
<!DOCTYPE svg PUBLIC "-//W3C//DTD SVG 1.1//EN"
  "http://www.w3.org/Graphics/SVG/1.1/DTD/svg11.dtd">
<!-- Created with matplotlib (https://matplotlib.org/) -->
<svg height="360pt" version="1.1" viewBox="0 0 405 360" width="405pt" xmlns="http://www.w3.org/2000/svg" xmlns:xlink="http://www.w3.org/1999/xlink">
 <defs>
  <style type="text/css">
*{stroke-linecap:butt;stroke-linejoin:round;}
  </style>
 </defs>
 <g id="figure_1">
  <g id="patch_1">
   <path d="M 0 360 
L 405 360 
L 405 0 
L 0 0 
z
" style="fill:#ffffff;"/>
  </g>
  <g id="axes_1">
   <g id="patch_2">
    <path d="M 129.6 288 
L 400.95 288 
L 400.95 18 
L 129.6 18 
z
" style="fill:#ffffff;"/>
   </g>
   <g id="line2d_1">
    <path clip-path="url(#p6ccbc031bf)" d="M 134.776626 100.239221 
L 161.61141 100.889813 
L 179.131661 101.535912 
L 193.531047 102.305365 
L 203.721908 103.068493 
L 212.410256 103.95092 
L 218.910994 104.824966 
L 224.600577 105.813765 
L 229.037053 106.791946 
L 232.998935 107.87992 
L 236.50639 109.073559 
L 239.599475 110.368421 
L 242.325667 111.759791 
L 244.732769 113.242718 
L 246.865292 114.812059 
L 248.877896 116.571429 
L 250.748052 118.508475 
L 252.470554 120.610043 
L 254.116138 122.963325 
L 255.718135 125.642814 
L 257.288381 128.707965 
L 258.864818 132.290657 
L 260.455998 136.484848 
L 262.082329 141.420195 
L 263.825391 147.448204 
L 265.811218 155.160798 
L 268.515913 166.663968 
L 273.518794 188.025945 
L 275.86427 196.967263 
L 277.997088 204.245925 
L 280.056878 210.502514 
L 282.09044 215.985583 
L 284.151227 220.911329 
L 286.248464 225.352224 
L 287.630025 228 
L 287.630025 228 
" style="fill:none;stroke:#0173b2;stroke-dasharray:6,6;stroke-dashoffset:0;stroke-width:4;"/>
   </g>
   <g id="line2d_2">
    <path clip-path="url(#p6ccbc031bf)" d="M 134.776626 51.577405 
L 157.186648 52.192876 
L 172.906303 52.813168 
L 187.006751 53.595207 
L 197.293705 54.384533 
L 205.138746 55.181005 
L 212.410256 56.146006 
L 218.083863 57.120845 
L 222.640822 58.10527 
L 226.947342 59.265539 
L 230.460748 60.438096 
L 233.765668 61.792674 
L 236.50639 63.16213 
L 239.085308 64.719765 
L 241.258312 66.294522 
L 243.309098 68.063224 
L 245.224949 70.030412 
L 247.002956 72.200355 
L 248.646646 74.57685 
L 250.163434 77.163008 
L 251.649114 80.148482 
L 253.078129 83.539281 
L 254.436399 87.338648 
L 255.772007 91.737796 
L 257.107796 96.925548 
L 258.450637 103.08038 
L 259.7986 110.35772 
L 261.173972 119.059072 
L 262.628453 129.761895 
L 264.215281 143.169426 
L 266.165711 161.67254 
L 271.459034 212.984424 
L 273.075414 225.904846 
L 274.538238 235.895243 
L 275.928097 243.917633 
L 277.284675 250.487639 
L 278.619262 255.888069 
L 279.959502 260.407748 
L 281.310328 264.196953 
L 282.675612 267.381538 
L 284.076999 270.098686 
L 285.534688 272.443909 
L 287.049725 274.462682 
L 287.630025 275.141173 
L 287.630025 275.141173 
" style="fill:none;stroke:#0173b2;stroke-linecap:square;stroke-width:4;"/>
   </g>
   <g id="line2d_3">
    <path clip-path="url(#p6ccbc031bf)" d="M 130.733196 139.872171 
L 163.997779 140.337982 
L 187.524658 140.881079 
L 204.164255 141.479853 
L 216.451081 142.132901 
L 226.064646 142.858218 
L 233.722612 143.653569 
L 239.93601 144.51654 
L 245.161742 145.463376 
L 249.603687 146.490566 
L 253.484371 147.612635 
L 256.948983 148.842675 
L 260.135762 150.209747 
L 263.09962 151.722397 
L 265.809399 153.336995 
L 268.699078 155.324152 
L 271.559236 157.569632 
L 274.5406 160.196162 
L 277.876084 163.442161 
L 281.824927 167.611694 
L 287.617707 174.09375 
L 297.940174 185.655094 
L 303.343135 191.339903 
L 308.258886 196.192648 
L 313.018397 200.581429 
L 317.739191 204.634214 
L 322.520339 208.445362 
L 327.37476 212.030418 
L 332.386748 215.452932 
L 337.561723 218.714102 
L 342.904283 221.81671 
L 348.490625 224.801781 
L 354.322622 227.664467 
L 355.03986 228 
L 355.03986 228 
" style="fill:none;stroke:#de8f05;stroke-dasharray:6,6;stroke-dashoffset:0;stroke-width:4;"/>
   </g>
   <g id="line2d_4">
    <path clip-path="url(#p6ccbc031bf)" d="M 130.733196 116.105355 
L 153.017356 116.822653 
L 170.270009 117.593018 
L 183.957565 118.416741 
L 195.038572 119.294099 
L 204.164255 120.225349 
L 212.14812 121.262648 
L 218.824534 122.354508 
L 224.485815 123.501059 
L 229.345371 124.702366 
L 233.722612 126.010808 
L 237.528232 127.374082 
L 240.985055 128.8445 
L 244.127352 130.42187 
L 246.989371 132.10573 
L 249.674989 133.947934 
L 252.124039 135.894625 
L 254.475872 138.049118 
L 256.718123 140.408375 
L 258.888394 143.020167 
L 261.010488 145.929431 
L 263.09962 149.176917 
L 265.193391 152.848081 
L 267.316022 157.020797 
L 269.563478 161.943332 
L 271.934059 167.6776 
L 274.703283 174.995376 
L 278.297319 185.20551 
L 287.085323 210.481663 
L 290.194374 218.581425 
L 292.941629 225.138588 
L 295.575303 230.859163 
L 298.119312 235.860808 
L 300.590888 240.24738 
L 303.088007 244.237666 
L 305.61539 247.862143 
L 308.177007 251.151683 
L 310.776227 254.136407 
L 313.495355 256.921801 
L 316.33375 259.50662 
L 319.291112 261.894351 
L 322.367412 264.091908 
L 325.638514 266.153328 
L 329.102585 268.072 
L 332.832591 269.880029 
L 336.825807 271.565914 
L 341.153266 273.149222 
L 345.884476 274.639845 
L 351.087754 276.041189 
L 355.03986 276.967247 
L 355.03986 276.967247 
" style="fill:none;stroke:#de8f05;stroke-linecap:square;stroke-width:4;"/>
   </g>
   <g id="line2d_5">
    <path clip-path="url(#p6ccbc031bf)" d="M 130.53272 151.60192 
L 199.580723 151.873554 
L 233.841574 152.212432 
L 254.086952 152.620939 
L 265.275 153 
L 265.275 153 
L 275.222132 153.504862 
L 284.230318 154.172166 
L 292.274973 154.997041 
L 299.653599 155.973568 
L 307.575248 157.253514 
L 316.664643 158.973451 
L 327.35047 161.24718 
L 341.182898 164.440678 
L 363.476939 169.852825 
L 401.338158 179.040194 
L 401.338158 179.040194 
" style="fill:none;stroke:#029e73;stroke-dasharray:6,6;stroke-dashoffset:0;stroke-width:4;"/>
   </g>
   <g id="line2d_6">
    <path clip-path="url(#p6ccbc031bf)" d="M 130.53272 148.051019 
L 172.683923 148.496367 
L 200.606615 149.004041 
L 220.259387 149.575302 
L 234.760589 150.211386 
L 245.882494 150.913392 
L 254.817946 151.694409 
L 262.163807 152.555145 
L 265.275 153 
L 265.275 153 
L 272.331308 154.242744 
L 277.804965 155.490665 
L 282.269344 156.739746 
L 286.049085 157.986406 
L 290.847269 159.845281 
L 294.934165 161.683726 
L 299.653599 164.093397 
L 304.782213 167.027241 
L 310.209645 170.42339 
L 316.664643 174.737099 
L 327.35047 182.199039 
L 342.369357 192.658269 
L 351.552558 198.779115 
L 359.756605 203.992489 
L 367.655943 208.759289 
L 375.307531 213.130112 
L 383.241785 217.404471 
L 390.976979 221.322457 
L 399.00869 225.138081 
L 401.338158 226.198053 
L 401.338158 226.198053 
" style="fill:none;stroke:#029e73;stroke-linecap:square;stroke-width:4;"/>
   </g>
   <g id="line2d_7">
    <path clip-path="url(#p6ccbc031bf)" d="M 265.275 288 
L 265.275 18 
" style="fill:none;stroke:#000000;stroke-linecap:square;stroke-width:2;"/>
   </g>
   <g id="line2d_8">
    <path clip-path="url(#p6ccbc031bf)" d="M 129.6 153 
L 400.95 153 
" style="fill:none;stroke:#000000;stroke-linecap:square;stroke-width:2;"/>
   </g>
   <g id="patch_3">
    <path d="M 129.6 288 
L 129.6 18 
" style="fill:none;stroke:#000000;stroke-linecap:square;stroke-linejoin:miter;"/>
   </g>
   <g id="patch_4">
    <path d="M 400.95 288 
L 400.95 18 
" style="fill:none;stroke:#000000;stroke-linecap:square;stroke-linejoin:miter;"/>
   </g>
   <g id="patch_5">
    <path d="M 129.6 288 
L 400.95 288 
" style="fill:none;stroke:#000000;stroke-linecap:square;stroke-linejoin:miter;"/>
   </g>
   <g id="patch_6">
    <path d="M 129.6 18 
L 400.95 18 
" style="fill:none;stroke:#000000;stroke-linecap:square;stroke-linejoin:miter;"/>
   </g>
   <g id="matplotlib.axis_1">
    <g id="xtick_1">
     <g id="line2d_9">
      <defs>
       <path d="M 0 0 
L 0 -10 
" id="m6657b1deb3" style="stroke:#000000;stroke-width:0.5;"/>
      </defs>
      <g>
       <use style="stroke:#000000;stroke-width:0.5;" x="129.6" xlink:href="#m6657b1deb3" y="288"/>
      </g>
     </g>
     <g id="line2d_10">
      <defs>
       <path d="M 0 0 
L 0 10 
" id="med108c6354" style="stroke:#000000;stroke-width:0.5;"/>
      </defs>
      <g>
       <use style="stroke:#000000;stroke-width:0.5;" x="129.6" xlink:href="#med108c6354" y="18"/>
      </g>
     </g>
    </g>
    <g id="xtick_2">
     <g id="line2d_11">
      <g>
       <use style="stroke:#000000;stroke-width:0.5;" x="156.735" xlink:href="#m6657b1deb3" y="288"/>
      </g>
     </g>
     <g id="line2d_12">
      <g>
       <use style="stroke:#000000;stroke-width:0.5;" x="156.735" xlink:href="#med108c6354" y="18"/>
      </g>
     </g>
     <g id="text_1">
      <!-- $-8$ -->
      <defs>
       <path d="M 65.90625 23 
C 67.59375 23 69.40625 23 69.40625 25 
C 69.40625 27 67.59375 27 65.90625 27 
L 11.796875 27 
C 10.09375 27 8.296875 27 8.296875 25 
C 8.296875 23 10.09375 23 11.796875 23 
z
" id="CMSY10-0"/>
       <path d="M 27.203125 35.375 
C 33.5 38.546875 39.90625 43.328125 39.90625 50.984375 
C 39.90625 60.015625 31.09375 65.296875 23 65.296875 
C 13.90625 65.296875 5.90625 58.734375 5.90625 49.6875 
C 5.90625 47.203125 6.5 42.921875 10.40625 39.140625 
C 11.40625 38.15625 15.59375 35.171875 18.296875 33.28125 
C 13.796875 30.984375 3.296875 25.53125 3.296875 14.59375 
C 3.296875 4.359375 13.09375 -2 22.796875 -2 
C 33.5 -2 42.5 5.65625 42.5 15.78125 
C 42.5 24.84375 36.40625 29.015625 32.40625 31.703125 
z
M 14.09375 44.09375 
C 13.296875 44.59375 9.296875 47.671875 9.296875 52.359375 
C 9.296875 58.421875 15.59375 63 22.796875 63 
C 30.703125 63 36.5 57.4375 36.5 50.96875 
C 36.5 41.703125 26.09375 36.421875 25.59375 36.421875 
C 25.5 36.421875 25.40625 36.421875 24.59375 37.03125 
z
M 32.5 23.734375 
C 34 22.640625 38.796875 19.375 38.796875 13.296875 
C 38.796875 5.953125 31.40625 0.390625 23 0.390625 
C 13.90625 0.390625 7 6.84375 7 14.6875 
C 7 22.546875 13.09375 29.09375 20 32.1875 
z
" id="CMR17-56"/>
      </defs>
      <g transform="translate(135.178865 316.844121)scale(0.35 -0.35)">
       <use transform="scale(0.996264)" xlink:href="#CMSY10-0"/>
       <use transform="translate(77.487468 0)scale(0.996264)" xlink:href="#CMR17-56"/>
      </g>
     </g>
    </g>
    <g id="xtick_3">
     <g id="line2d_13">
      <g>
       <use style="stroke:#000000;stroke-width:0.5;" x="183.87" xlink:href="#m6657b1deb3" y="288"/>
      </g>
     </g>
     <g id="line2d_14">
      <g>
       <use style="stroke:#000000;stroke-width:0.5;" x="183.87" xlink:href="#med108c6354" y="18"/>
      </g>
     </g>
    </g>
    <g id="xtick_4">
     <g id="line2d_15">
      <g>
       <use style="stroke:#000000;stroke-width:0.5;" x="211.005" xlink:href="#m6657b1deb3" y="288"/>
      </g>
     </g>
     <g id="line2d_16">
      <g>
       <use style="stroke:#000000;stroke-width:0.5;" x="211.005" xlink:href="#med108c6354" y="18"/>
      </g>
     </g>
     <g id="text_2">
      <!-- $-4$ -->
      <defs>
       <path d="M 33.59375 64.40625 
C 33.59375 66.5 33.5 66.5 31.703125 66.5 
L 2 19.59375 
L 2 17 
L 27.796875 17 
L 27.796875 7.140625 
C 27.796875 3.5 27.59375 2.5 20.59375 2.5 
L 18.703125 2.5 
L 18.703125 0 
C 21.90625 0 27.296875 0 30.703125 0 
C 34.09375 0 39.5 0 42.703125 0 
L 42.703125 2.5 
L 40.796875 2.5 
C 33.796875 2.5 33.59375 3.5 33.59375 7.140625 
L 33.59375 17 
L 43.796875 17 
L 43.796875 19.59375 
L 33.59375 19.59375 
z
M 28.09375 57.859375 
L 28.09375 19.59375 
L 4 19.59375 
z
" id="CMR17-52"/>
      </defs>
      <g transform="translate(189.448865 316.844121)scale(0.35 -0.35)">
       <use transform="scale(0.996264)" xlink:href="#CMSY10-0"/>
       <use transform="translate(77.487468 0)scale(0.996264)" xlink:href="#CMR17-52"/>
      </g>
     </g>
    </g>
    <g id="xtick_5">
     <g id="line2d_17">
      <g>
       <use style="stroke:#000000;stroke-width:0.5;" x="238.14" xlink:href="#m6657b1deb3" y="288"/>
      </g>
     </g>
     <g id="line2d_18">
      <g>
       <use style="stroke:#000000;stroke-width:0.5;" x="238.14" xlink:href="#med108c6354" y="18"/>
      </g>
     </g>
    </g>
    <g id="xtick_6">
     <g id="line2d_19">
      <g>
       <use style="stroke:#000000;stroke-width:0.5;" x="265.275" xlink:href="#m6657b1deb3" y="288"/>
      </g>
     </g>
     <g id="line2d_20">
      <g>
       <use style="stroke:#000000;stroke-width:0.5;" x="265.275" xlink:href="#med108c6354" y="18"/>
      </g>
     </g>
     <g id="text_3">
      <!-- $0$ -->
      <defs>
       <path d="M 42 31.640625 
C 42 37.75 41.90625 48.125 37.703125 56.109375 
C 34 63.109375 28.09375 65.59375 22.90625 65.59375 
C 18.09375 65.59375 12 63.40625 8.203125 56.203125 
C 4.203125 48.71875 3.796875 39.4375 3.796875 31.640625 
C 3.796875 25.953125 3.90625 17.28125 7 9.671875 
C 11.296875 -0.609375 19 -2 22.90625 -2 
C 27.5 -2 34.5 -0.109375 38.59375 9.375 
C 41.59375 16.28125 42 24.359375 42 31.640625 
z
M 22.90625 -0.40625 
C 16.5 -0.40625 12.703125 5.078125 11.296875 12.6875 
C 10.203125 18.5625 10.203125 27.15625 10.203125 32.75 
C 10.203125 40.4375 10.203125 46.828125 11.5 52.921875 
C 13.40625 61.390625 19 64 22.90625 64 
C 27 64 32.296875 61.296875 34.203125 53.125 
C 35.5 47.4375 35.59375 40.734375 35.59375 32.75 
C 35.59375 26.25 35.59375 18.265625 34.40625 12.375 
C 32.296875 1.484375 26.40625 -0.40625 22.90625 -0.40625 
z
" id="CMR17-48"/>
      </defs>
      <g transform="translate(257.279167 316.844121)scale(0.35 -0.35)">
       <use transform="scale(0.996264)" xlink:href="#CMR17-48"/>
      </g>
     </g>
    </g>
    <g id="xtick_7">
     <g id="line2d_21">
      <g>
       <use style="stroke:#000000;stroke-width:0.5;" x="292.41" xlink:href="#m6657b1deb3" y="288"/>
      </g>
     </g>
     <g id="line2d_22">
      <g>
       <use style="stroke:#000000;stroke-width:0.5;" x="292.41" xlink:href="#med108c6354" y="18"/>
      </g>
     </g>
    </g>
    <g id="xtick_8">
     <g id="line2d_23">
      <g>
       <use style="stroke:#000000;stroke-width:0.5;" x="319.545" xlink:href="#m6657b1deb3" y="288"/>
      </g>
     </g>
     <g id="line2d_24">
      <g>
       <use style="stroke:#000000;stroke-width:0.5;" x="319.545" xlink:href="#med108c6354" y="18"/>
      </g>
     </g>
     <g id="text_4">
      <!-- $4$ -->
      <g transform="translate(311.549167 316.844121)scale(0.35 -0.35)">
       <use transform="scale(0.996264)" xlink:href="#CMR17-52"/>
      </g>
     </g>
    </g>
    <g id="xtick_9">
     <g id="line2d_25">
      <g>
       <use style="stroke:#000000;stroke-width:0.5;" x="346.68" xlink:href="#m6657b1deb3" y="288"/>
      </g>
     </g>
     <g id="line2d_26">
      <g>
       <use style="stroke:#000000;stroke-width:0.5;" x="346.68" xlink:href="#med108c6354" y="18"/>
      </g>
     </g>
    </g>
    <g id="xtick_10">
     <g id="line2d_27">
      <g>
       <use style="stroke:#000000;stroke-width:0.5;" x="373.815" xlink:href="#m6657b1deb3" y="288"/>
      </g>
     </g>
     <g id="line2d_28">
      <g>
       <use style="stroke:#000000;stroke-width:0.5;" x="373.815" xlink:href="#med108c6354" y="18"/>
      </g>
     </g>
     <g id="text_5">
      <!-- $8$ -->
      <g transform="translate(365.819167 316.844121)scale(0.35 -0.35)">
       <use transform="scale(0.996264)" xlink:href="#CMR17-56"/>
      </g>
     </g>
    </g>
    <g id="xtick_11">
     <g id="line2d_29">
      <g>
       <use style="stroke:#000000;stroke-width:0.5;" x="400.95" xlink:href="#m6657b1deb3" y="288"/>
      </g>
     </g>
     <g id="line2d_30">
      <g>
       <use style="stroke:#000000;stroke-width:0.5;" x="400.95" xlink:href="#med108c6354" y="18"/>
      </g>
     </g>
    </g>
    <g id="text_6">
     <!-- $\lambda L v_0$ -->
     <defs>
      <path d="M 30.90625 61.953125 
C 28.40625 69 20.5 69 19.203125 69 
C 18.59375 69 17.5 69 17.5 68 
C 17.5 67.21875 18.09375 67.109375 18.59375 67.015625 
C 20.09375 66.8125 21.296875 66.609375 22.90625 63.75 
C 23.90625 61.859375 34.203125 32.171875 34.203125 31.96875 
C 34.203125 31.875 34.09375 31.765625 33.296875 30.96875 
L 7.296875 4.859375 
C 6.09375 3.65625 5.296875 2.859375 5.296875 1.59375 
C 5.296875 0.1875 6.5 -1 8.09375 -1 
C 8.5 -1 9.59375 -0.796875 10.203125 -0.203125 
C 11.796875 1.28125 26.09375 18.65625 35.203125 29.390625 
C 37.796875 21.609375 41 12.453125 44.09375 4.078125 
C 44.59375 2.59375 45.09375 1.1875 46.5 -0.09375 
C 47.5 -1 47.703125 -1 50.5 -1 
L 52.40625 -1 
C 52.796875 -1 53.5 -1 53.5 -0.203125 
C 53.5 0.203125 53.40625 0.296875 53 0.703125 
C 52.09375 1.796875 51.40625 3.578125 51 4.78125 
z
" id="CMMI12-21"/>
      <path d="M 36.703125 60.328125 
C 37.59375 64.109375 37.90625 65.109375 46.703125 65.109375 
C 49.40625 65.109375 50.09375 65.109375 50.09375 67 
C 50.09375 68 49 68 48.59375 68 
C 46.59375 68 44.296875 68 42.296875 68 
L 28.90625 68 
C 27 68 24.796875 68 22.90625 68 
C 22.09375 68 21 68 21 66.109375 
C 21 65.109375 21.90625 65.109375 23.40625 65.109375 
C 29.5 65.109375 29.5 64.3125 29.5 63.21875 
C 29.5 63.03125 29.5 62.421875 29.09375 60.921875 
L 15.59375 7.375 
C 14.703125 3.890625 14.5 2.890625 7.5 2.890625 
C 5.59375 2.890625 4.59375 2.890625 4.59375 1.09375 
C 4.59375 0 5.203125 0 7.203125 0 
L 52 0 
C 54.203125 0 54.296875 0.09375 55 1.890625 
L 62.703125 23.09375 
C 62.90625 23.59375 63.09375 24.1875 63.09375 24.484375 
C 63.09375 25.078125 62.59375 25.484375 62.09375 25.484375 
C 62 25.484375 61.5 25.484375 61.296875 25.078125 
C 61.09375 24.984375 61.09375 24.78125 60.296875 22.890625 
C 57.09375 14.140625 52.59375 2.890625 35.703125 2.890625 
L 26.09375 2.890625 
C 24.703125 2.890625 24.5 2.890625 23.90625 3 
C 22.796875 3.09375 22.703125 3.296875 22.703125 4.09375 
C 22.703125 4.796875 22.90625 5.390625 23.09375 6.265625 
z
" id="CMMI12-76"/>
      <path d="M 45.703125 37.328125 
C 45.703125 43.609375 42.5 44 41.703125 44 
C 39.296875 44 37.09375 41.609375 37.09375 39.609375 
C 37.09375 38.421875 37.796875 37.71875 38.203125 37.328125 
C 39.203125 36.421875 41.796875 33.734375 41.796875 28.546875 
C 41.796875 24.34375 35.796875 1 23.796875 1 
C 17.703125 1 16.5 6.09375 16.5 9.78125 
C 16.5 14.765625 18.796875 21.75 21.5 28.9375 
C 23.09375 33.03125 23.5 34.03125 23.5 36.015625 
C 23.5 40.21875 20.5 44 15.59375 44 
C 6.40625 44 2.703125 29.53125 2.703125 28.734375 
C 2.703125 28.34375 3.09375 27.84375 3.796875 27.84375 
C 4.703125 27.84375 4.796875 28.234375 5.203125 29.640625 
C 7.59375 38.21875 11.5 42.015625 15.296875 42.015625 
C 16.203125 42.015625 17.90625 42.015625 17.90625 38.71875 
C 17.90625 36.125 16.796875 33.234375 15.296875 29.4375 
C 10.5 16.671875 10.5 13.578125 10.5 11.171875 
C 10.5 8.984375 10.796875 4.890625 13.90625 2.09375 
C 17.5 -1 22.5 -1 23.40625 -1 
C 40 -1 45.703125 31.625 45.703125 37.328125 
z
" id="CMMI12-118"/>
     </defs>
     <g transform="translate(229.851738 354.115194)scale(0.35 -0.35)">
      <use transform="translate(0 14.943915)scale(0.996264)" xlink:href="#CMMI12-21"/>
      <use transform="translate(56.904072 14.943915)scale(0.996264)" xlink:href="#CMMI12-76"/>
      <use transform="translate(123.274947 14.943915)scale(0.996264)" xlink:href="#CMMI12-118"/>
      <use transform="translate(170.435528 0)scale(0.697382)" xlink:href="#CMR17-48"/>
     </g>
    </g>
   </g>
   <g id="matplotlib.axis_2">
    <g id="ytick_1">
     <g id="line2d_31">
      <defs>
       <path d="M 0 0 
L 10 0 
" id="m30244757bf" style="stroke:#000000;stroke-width:0.5;"/>
      </defs>
      <g>
       <use style="stroke:#000000;stroke-width:0.5;" x="129.6" xlink:href="#m30244757bf" y="288"/>
      </g>
     </g>
     <g id="line2d_32">
      <defs>
       <path d="M 0 0 
L -10 0 
" id="mbb68185ec6" style="stroke:#000000;stroke-width:0.5;"/>
      </defs>
      <g>
       <use style="stroke:#000000;stroke-width:0.5;" x="400.95" xlink:href="#mbb68185ec6" y="288"/>
      </g>
     </g>
     <g id="text_7">
      <!-- $0.0$ -->
      <defs>
       <path d="M 18.40625 4.796875 
C 18.40625 7.6875 16 9.671875 13.59375 9.671875 
C 10.703125 9.671875 8.703125 7.28125 8.703125 4.890625 
C 8.703125 2 11.09375 0 13.5 0 
C 16.40625 0 18.40625 2.390625 18.40625 4.796875 
z
" id="CMMI12-58"/>
      </defs>
      <g transform="translate(84.132654 296.708584)scale(0.35 -0.35)">
       <use transform="scale(0.996264)" xlink:href="#CMR17-48"/>
       <use transform="translate(45.690477 0)scale(0.996264)" xlink:href="#CMMI12-58"/>
       <use transform="translate(72.787654 0)scale(0.996264)" xlink:href="#CMR17-48"/>
      </g>
     </g>
    </g>
    <g id="ytick_2">
     <g id="line2d_33">
      <g>
       <use style="stroke:#000000;stroke-width:0.5;" x="129.6" xlink:href="#m30244757bf" y="234"/>
      </g>
     </g>
     <g id="line2d_34">
      <g>
       <use style="stroke:#000000;stroke-width:0.5;" x="400.95" xlink:href="#mbb68185ec6" y="234"/>
      </g>
     </g>
     <g id="text_8">
      <!-- $0.2$ -->
      <defs>
       <path d="M 41.703125 15.453125 
L 39.90625 15.453125 
C 38.90625 8.375 38.09375 7.171875 37.703125 6.5625 
C 37.203125 5.765625 30 5.765625 28.59375 5.765625 
L 9.40625 5.765625 
C 13 9.671875 20 16.75 28.5 24.953125 
C 34.59375 30.734375 41.703125 37.53125 41.703125 47.421875 
C 41.703125 59.21875 32.296875 66 21.796875 66 
C 10.796875 66 4.09375 56.3125 4.09375 47.34375 
C 4.09375 43.4375 7 42.9375 8.203125 42.9375 
C 9.203125 42.9375 12.203125 43.546875 12.203125 47.03125 
C 12.203125 50.109375 9.59375 51 8.203125 51 
C 7.59375 51 7 50.90625 6.59375 50.703125 
C 8.5 59.21875 14.296875 63.40625 20.40625 63.40625 
C 29.09375 63.40625 34.796875 56.515625 34.796875 47.421875 
C 34.796875 38.734375 29.703125 31.25 24 24.75 
L 4.09375 2.28125 
L 4.09375 0 
L 39.296875 0 
z
" id="CMR17-50"/>
      </defs>
      <g transform="translate(84.132654 242.708584)scale(0.35 -0.35)">
       <use transform="scale(0.996264)" xlink:href="#CMR17-48"/>
       <use transform="translate(45.690477 0)scale(0.996264)" xlink:href="#CMMI12-58"/>
       <use transform="translate(72.787654 0)scale(0.996264)" xlink:href="#CMR17-50"/>
      </g>
     </g>
    </g>
    <g id="ytick_3">
     <g id="line2d_35">
      <g>
       <use style="stroke:#000000;stroke-width:0.5;" x="129.6" xlink:href="#m30244757bf" y="180"/>
      </g>
     </g>
     <g id="line2d_36">
      <g>
       <use style="stroke:#000000;stroke-width:0.5;" x="400.95" xlink:href="#mbb68185ec6" y="180"/>
      </g>
     </g>
     <g id="text_9">
      <!-- $0.4$ -->
      <g transform="translate(84.132654 188.708584)scale(0.35 -0.35)">
       <use transform="scale(0.996264)" xlink:href="#CMR17-48"/>
       <use transform="translate(45.690477 0)scale(0.996264)" xlink:href="#CMMI12-58"/>
       <use transform="translate(72.787654 0)scale(0.996264)" xlink:href="#CMR17-52"/>
      </g>
     </g>
    </g>
    <g id="ytick_4">
     <g id="line2d_37">
      <g>
       <use style="stroke:#000000;stroke-width:0.5;" x="129.6" xlink:href="#m30244757bf" y="126"/>
      </g>
     </g>
     <g id="line2d_38">
      <g>
       <use style="stroke:#000000;stroke-width:0.5;" x="400.95" xlink:href="#mbb68185ec6" y="126"/>
      </g>
     </g>
     <g id="text_10">
      <!-- $0.6$ -->
      <defs>
       <path d="M 10.59375 34 
C 10.59375 57.65625 21.796875 63 28.296875 63 
C 30.40625 63 35.5 62.640625 37.5 59 
C 35.90625 59 32.90625 59 32.90625 55.515625 
C 32.90625 52.828125 35.09375 51.921875 36.5 51.921875 
C 37.40625 51.921875 40.09375 52.3125 40.09375 55.625 
C 40.09375 61.78125 35.09375 65.296875 28.203125 65.296875 
C 16.296875 65.296875 3.796875 52.96875 3.796875 31 
C 3.796875 3.953125 15.09375 -2 23.09375 -2 
C 32.796875 -2 42 6.671875 42 20.046875 
C 42 32.515625 33.90625 41.59375 23.703125 41.59375 
C 17.59375 41.59375 13.09375 37.609375 10.59375 30.625 
z
M 23.09375 0.390625 
C 10.796875 0.390625 10.796875 18.75 10.796875 22.4375 
C 10.796875 29.625 14.203125 40 23.5 40 
C 25.203125 40 30.09375 40 33.40625 33.125 
C 35.203125 29.21875 35.203125 25.140625 35.203125 20.140625 
C 35.203125 14.75 35.203125 10.78125 33.09375 6.78125 
C 30.90625 2.671875 27.703125 0.390625 23.09375 0.390625 
z
" id="CMR17-54"/>
      </defs>
      <g transform="translate(84.132654 134.708584)scale(0.35 -0.35)">
       <use transform="scale(0.996264)" xlink:href="#CMR17-48"/>
       <use transform="translate(45.690477 0)scale(0.996264)" xlink:href="#CMMI12-58"/>
       <use transform="translate(72.787654 0)scale(0.996264)" xlink:href="#CMR17-54"/>
      </g>
     </g>
    </g>
    <g id="ytick_5">
     <g id="line2d_39">
      <g>
       <use style="stroke:#000000;stroke-width:0.5;" x="129.6" xlink:href="#m30244757bf" y="72"/>
      </g>
     </g>
     <g id="line2d_40">
      <g>
       <use style="stroke:#000000;stroke-width:0.5;" x="400.95" xlink:href="#mbb68185ec6" y="72"/>
      </g>
     </g>
     <g id="text_11">
      <!-- $0.8$ -->
      <g transform="translate(84.132654 80.708584)scale(0.35 -0.35)">
       <use transform="scale(0.996264)" xlink:href="#CMR17-48"/>
       <use transform="translate(45.690477 0)scale(0.996264)" xlink:href="#CMMI12-58"/>
       <use transform="translate(72.787654 0)scale(0.996264)" xlink:href="#CMR17-56"/>
      </g>
     </g>
    </g>
    <g id="ytick_6">
     <g id="line2d_41">
      <g>
       <use style="stroke:#000000;stroke-width:0.5;" x="129.6" xlink:href="#m30244757bf" y="18"/>
      </g>
     </g>
     <g id="line2d_42">
      <g>
       <use style="stroke:#000000;stroke-width:0.5;" x="400.95" xlink:href="#mbb68185ec6" y="18"/>
      </g>
     </g>
     <g id="text_12">
      <!-- $1.0$ -->
      <defs>
       <path d="M 26.59375 63.40625 
C 26.59375 65.5 26.5 65.5 25.09375 65.5 
C 21.203125 61.1875 15.296875 59.796875 9.703125 59.796875 
C 9.40625 59.796875 8.90625 59.796875 8.796875 59.5 
C 8.703125 59.296875 8.703125 59.09375 8.703125 57 
C 11.796875 57 17 57.59375 21 59.984375 
L 21 7.203125 
C 21 3.6875 20.796875 2.5 12.203125 2.5 
L 9.203125 2.5 
L 9.203125 0 
C 14 0 19 0 23.796875 0 
C 28.59375 0 33.59375 0 38.40625 0 
L 38.40625 2.5 
L 35.40625 2.5 
C 26.796875 2.5 26.59375 3.59375 26.59375 7.15625 
z
" id="CMR17-49"/>
      </defs>
      <g transform="translate(84.132654 26.708584)scale(0.35 -0.35)">
       <use transform="scale(0.996264)" xlink:href="#CMR17-49"/>
       <use transform="translate(45.690477 0)scale(0.996264)" xlink:href="#CMMI12-58"/>
       <use transform="translate(72.787654 0)scale(0.996264)" xlink:href="#CMR17-48"/>
      </g>
     </g>
    </g>
    <g id="text_13">
     <!-- $\nu^{\rm RTP}(\lambda)$ -->
     <defs>
      <path d="M 22 43.015625 
C 22 43.40625 21.703125 44 20.90625 44 
C 20.203125 44 10.796875 42.984375 9.296875 42.984375 
C 8.203125 42.875 7.203125 42.78125 7.203125 40.984375 
C 7.203125 40 8 40 9.40625 40 
C 14.09375 40 14.40625 39.296875 14.40625 38.203125 
C 14.40625 37.796875 14.203125 36.609375 14.09375 36.21875 
L 5.296875 1 
C 5.296875 0.59375 5.59375 0 6.296875 0 
L 8.40625 0 
C 9.796875 0 25 3.59375 36.703125 15.5625 
C 49.59375 28.84375 51.40625 41.125 51.40625 41.515625 
C 51.40625 43.109375 50.09375 44 48.796875 44 
C 45.90625 44 45.203125 41.3125 45 40.609375 
C 39.09375 19.75 25.40625 7.390625 12.09375 3 
z
" id="CMMI12-23"/>
      <path d="M 39.203125 33.53125 
C 48.703125 35.4375 56.703125 41.8125 56.703125 49.78125 
C 56.703125 59.140625 46.09375 67.59375 32.09375 67.59375 
L 5.203125 67.59375 
L 5.203125 65 
C 12.09375 65 13.203125 65 13.203125 60.515625 
L 13.203125 6.484375 
C 13.203125 2 12.09375 2 5.203125 2 
L 5.203125 -0.40625 
C 8.09375 -0.40625 13.296875 -0.40625 16.40625 -0.40625 
C 19.5 -0.40625 24.703125 -0.40625 27.59375 -0.40625 
L 27.59375 2 
C 20.703125 2 19.59375 2 19.59375 6.515625 
L 19.59375 33 
L 31.296875 33 
C 37 33 40.203125 30.6875 41.59375 29.390625 
C 45.59375 25.5 45.59375 22.796875 45.59375 16 
C 45.59375 9.296875 45.59375 5.890625 48.59375 2.5 
C 52.40625 -1.59375 57.5 -2 59.703125 -2 
C 67.09375 -2 68.203125 6.1875 68.203125 7.859375 
C 68.203125 8.4375 68.203125 9.140625 67.296875 9.140625 
C 66.5 9.140625 66.40625 8.546875 66.40625 8.15625 
C 65.90625 1.75 63 -0.40625 59.90625 -0.40625 
C 54.40625 -0.40625 53.796875 5.859375 53.203125 11.9375 
C 52.90625 14.03125 52.703125 15.515625 52.5 17.703125 
C 51.90625 22.6875 51.09375 29.953125 39.203125 33.53125 
z
M 31 34.59375 
L 19.59375 34.59375 
L 19.59375 61.140625 
C 19.59375 64.515625 19.796875 65 23.796875 65 
L 31.09375 65 
C 39.40625 65 49.09375 62.140625 49.09375 49.84375 
C 49.09375 37.0625 38.5 34.59375 31 34.59375 
z
" id="CMR17-82"/>
      <path d="M 62.203125 67.59375 
L 4.5 67.59375 
L 2.796875 45.59375 
L 4.59375 45.59375 
C 5.90625 62.125 7.296875 65 22.703125 65 
C 24.5 65 27.40625 65 28.203125 64.90625 
C 30.09375 64.609375 30.09375 63.40625 30.09375 61.125 
L 30.09375 7.171875 
C 30.09375 3.59375 29.796875 2.5 21.5 2.5 
L 18.703125 2.5 
L 18.703125 0 
C 23.5 0 28.5 0 33.40625 0 
C 38.296875 0 43.296875 0 48.09375 0 
L 48.09375 2.5 
L 45.296875 2.5 
C 37 2.5 36.703125 3.59375 36.703125 7.171875 
L 36.703125 61.125 
C 36.703125 63.3125 36.703125 64.515625 38.5 64.90625 
C 39.296875 65 42.203125 65 44 65 
C 59.296875 65 60.796875 62.125 62.09375 45.59375 
L 63.90625 45.59375 
z
" id="CMR17-84"/>
      <path d="M 19.796875 31.90625 
L 35.796875 31.90625 
C 48.703125 31.90625 58.09375 40.28125 58.09375 49.75 
C 58.09375 59.234375 48.90625 68 35.796875 68 
L 5.203125 68 
L 5.203125 65.40625 
C 12.09375 65.40625 13.203125 65.40625 13.203125 60.921875 
L 13.203125 6.96875 
C 13.203125 2.5 12.09375 2.5 5.203125 2.5 
L 5.203125 0 
C 8.09375 0 13.40625 0 16.5 0 
C 19.59375 0 24.90625 0 27.796875 0 
L 27.796875 2.5 
C 20.90625 2.5 19.796875 2.5 19.796875 6.96875 
z
M 19.59375 34 
L 19.59375 61.53125 
C 19.59375 64.921875 19.796875 65.40625 23.796875 65.40625 
L 33.90625 65.40625 
C 46.796875 65.40625 50.5 58.03125 50.5 49.75 
C 50.5 40.6875 46.09375 34 33.90625 34 
z
" id="CMR17-80"/>
      <path d="M 30.59375 -24.390625 
C 30.59375 -24.296875 30.59375 -24.09375 30.296875 -23.796875 
C 25.703125 -19.125 13.40625 -6.359375 13.40625 24.703125 
C 13.40625 55.765625 25.5 68.421875 30.40625 73.390625 
C 30.40625 73.5 30.59375 73.703125 30.59375 74 
C 30.59375 74.296875 30.296875 74.5 29.90625 74.5 
C 28.796875 74.5 20.296875 67.125 15.40625 56.15625 
C 10.40625 45.109375 9 34.359375 9 24.8125 
C 9 17.625 9.703125 5.484375 15.703125 -7.359375 
C 20.5 -17.734375 28.703125 -25 29.90625 -25 
C 30.40625 -25 30.59375 -24.796875 30.59375 -24.390625 
z
" id="CMR17-40"/>
      <path d="M 26.296875 24.703125 
C 26.296875 31.875 25.59375 44.015625 19.59375 56.859375 
C 14.796875 67.234375 6.59375 74.5 5.40625 74.5 
C 5.09375 74.5 4.703125 74.390625 4.703125 73.890625 
C 4.703125 73.703125 4.796875 73.59375 4.90625 73.390625 
C 9.703125 68.40625 21.90625 55.75 21.90625 24.75 
C 21.90625 -6.359375 9.796875 -19.015625 4.90625 -24.015625 
C 4.796875 -24.203125 4.703125 -24.3125 4.703125 -24.5 
C 4.703125 -25 5.09375 -25 5.40625 -25 
C 6.5 -25 15 -17.625 19.90625 -6.65625 
C 24.90625 4.390625 26.296875 15.140625 26.296875 24.703125 
z
" id="CMR17-41"/>
     </defs>
     <g transform="translate(70.444516 208.252201)rotate(-90)scale(0.35 -0.35)">
      <use transform="scale(0.996264)" xlink:href="#CMMI12-23"/>
      <use transform="translate(54.482793 36.153639)scale(0.697382)" xlink:href="#CMR17-82"/>
      <use transform="translate(96.471301 36.153639)scale(0.697382)" xlink:href="#CMR17-84"/>
      <use transform="translate(143.028007 36.153639)scale(0.697382)" xlink:href="#CMR17-80"/>
      <use transform="translate(187.336353 0)scale(0.996264)" xlink:href="#CMR17-40"/>
      <use transform="translate(222.617121 0)scale(0.996264)" xlink:href="#CMMI12-21"/>
      <use transform="translate(279.521193 0)scale(0.996264)" xlink:href="#CMR17-41"/>
     </g>
    </g>
   </g>
   <g id="legend_1">
    <g id="line2d_43">
     <path d="M 291.379289 41.05495 
L 313.879289 41.05495 
" style="fill:none;"/>
    </g>
    <g id="line2d_44"/>
    <g id="text_14">
     <!-- $L/l=$ -->
     <defs>
      <path d="M 42.90625 71.28125 
C 42.90625 71.390625 43.5 72.90625 43.5 73.09375 
C 43.5 74.296875 42.5 75 41.703125 75 
C 41.203125 75 40.296875 75 39.5 72.796875 
L 6 -21.296875 
C 6 -21.40625 5.40625 -22.890625 5.40625 -23.09375 
C 5.40625 -24.296875 6.40625 -25 7.203125 -25 
C 7.796875 -25 8.703125 -24.890625 9.40625 -22.796875 
z
" id="CMMI12-61"/>
      <path d="M 25.40625 66.515625 
C 25.5 66.90625 25.703125 67.5 25.703125 68 
C 25.703125 69 24.703125 69 24.5 69 
C 24.40625 69 20.796875 68.640625 19 68.390625 
C 17.296875 68.390625 15.796875 68.09375 14 68.09375 
C 11.59375 67.890625 10.90625 67.796875 10.90625 66 
C 10.90625 65 11.90625 65 12.90625 65 
C 18 65 18 64.09375 18 63.109375 
C 18 62.71875 18 62.515625 17.5 60.734375 
L 5.09375 11.421875 
C 4.796875 10.328125 4.59375 9.53125 4.59375 7.953125 
C 4.59375 2.984375 8.296875 -1 13.40625 -1 
C 16.703125 -1 18.90625 1.1875 20.5 4.28125 
C 22.203125 7.546875 23.59375 13.8125 23.59375 14.203125 
C 23.59375 14.703125 23.203125 15.109375 22.59375 15.109375 
C 21.703125 15.109375 21.59375 14.609375 21.203125 13.125 
C 19.40625 6.265625 17.59375 1 13.59375 1 
C 10.59375 1 10.59375 4.171875 10.59375 5.578125 
C 10.59375 5.96875 10.59375 8.046875 11.296875 10.84375 
z
" id="CMMI12-108"/>
      <path d="M 64.296875 31.515625 
C 65.796875 31.515625 67.296875 31.515625 67.296875 33.203125 
C 67.296875 35 65.59375 35 63.90625 35 
L 8 35 
C 6.296875 35 4.59375 35 4.59375 33.203125 
C 4.59375 31.515625 6.09375 31.515625 7.59375 31.515625 
z
M 63.90625 14 
C 65.59375 14 67.296875 14 67.296875 15.796875 
C 67.296875 17.484375 65.796875 17.484375 64.296875 17.484375 
L 7.59375 17.484375 
C 6.09375 17.484375 4.59375 17.484375 4.59375 15.796875 
C 4.59375 14 6.296875 14 8 14 
z
" id="CMR17-61"/>
     </defs>
     <g transform="translate(326.379289 49.80495)scale(0.25 -0.25)">
      <use transform="scale(0.996264)" xlink:href="#CMMI12-76"/>
      <use transform="translate(66.370875 0)scale(0.996264)" xlink:href="#CMMI12-61"/>
      <use transform="translate(115.145794 0)scale(0.996264)" xlink:href="#CMMI12-108"/>
      <use transform="translate(174.068207 0)scale(0.996264)" xlink:href="#CMR17-61"/>
     </g>
    </g>
    <g id="line2d_45">
     <path d="M 291.379289 70.027401 
L 313.879289 70.027401 
" style="fill:none;stroke:#0173b2;stroke-linecap:square;stroke-width:4;"/>
    </g>
    <g id="line2d_46"/>
    <g id="text_15">
     <!-- $0.5$ -->
     <defs>
      <path d="M 11.40625 57.6875 
C 12.40625 57.28125 16.5 56 20.703125 56 
C 30 56 35.09375 61.109375 38 64.0625 
C 38 64.953125 38 65.5 37.40625 65.5 
C 37.296875 65.5 37.09375 65.5 36.296875 65.046875 
C 32.796875 63.40625 28.703125 62.078125 23.703125 62.078125 
C 20.703125 62.078125 16.203125 62.484375 11.296875 64.671875 
C 10.203125 65.171875 10 65.171875 9.90625 65.171875 
C 9.40625 65.171875 9.296875 65.0625 9.296875 63.078125 
L 9.296875 34.421875 
C 9.296875 32.640625 9.296875 32.140625 10.296875 32.140625 
C 10.796875 32.140625 11 32.34375 11.5 33.03125 
C 14.703125 37.515625 19.09375 39.40625 24.09375 39.40625 
C 27.59375 39.40625 35.09375 37.21875 35.09375 20.140625 
C 35.09375 16.953125 35.09375 11.171875 32.09375 6.578125 
C 29.59375 2.484375 25.703125 0.390625 21.40625 0.390625 
C 14.796875 0.390625 8.09375 5 6.296875 12.71875 
C 6.703125 12.609375 7.5 12.421875 7.90625 12.421875 
C 9.203125 12.421875 11.703125 13.125 11.703125 16.21875 
C 11.703125 18.90625 9.796875 20 7.90625 20 
C 5.59375 20 4.09375 18.59375 4.09375 15.796875 
C 4.09375 7.09375 11 -2 21.59375 -2 
C 31.90625 -2 41.703125 6.875 41.703125 19.75 
C 41.703125 31.71875 33.90625 41 24.203125 41 
C 19.09375 41 14.796875 39.109375 11.40625 35.53125 
z
" id="CMR17-53"/>
     </defs>
     <g transform="translate(326.379289 78.777401)scale(0.25 -0.25)">
      <use transform="scale(0.996264)" xlink:href="#CMR17-48"/>
      <use transform="translate(45.690477 0)scale(0.996264)" xlink:href="#CMMI12-58"/>
      <use transform="translate(72.787654 0)scale(0.996264)" xlink:href="#CMR17-53"/>
     </g>
    </g>
    <g id="line2d_47">
     <path d="M 291.379289 98.078168 
L 313.879289 98.078168 
" style="fill:none;stroke:#de8f05;stroke-linecap:square;stroke-width:4;"/>
    </g>
    <g id="line2d_48"/>
    <g id="text_16">
     <!-- $2$ -->
     <g transform="translate(326.379289 106.828168)scale(0.25 -0.25)">
      <use transform="scale(0.996264)" xlink:href="#CMR17-50"/>
     </g>
    </g>
    <g id="line2d_49">
     <path d="M 291.379289 126.128934 
L 313.879289 126.128934 
" style="fill:none;stroke:#029e73;stroke-linecap:square;stroke-width:4;"/>
    </g>
    <g id="line2d_50"/>
    <g id="text_17">
     <!-- $10$ -->
     <g transform="translate(326.379289 134.878934)scale(0.25 -0.25)">
      <use transform="scale(0.996264)" xlink:href="#CMR17-49"/>
      <use transform="translate(45.690477 0)scale(0.996264)" xlink:href="#CMR17-48"/>
     </g>
    </g>
   </g>
   <g id="legend_2">
    <g id="line2d_51">
     <path d="M 150.225 221.213158 
L 172.725 221.213158 
" style="fill:none;stroke:#000000;stroke-dasharray:6,6;stroke-dashoffset:0;stroke-width:4;"/>
    </g>
    <g id="line2d_52"/>
    <g id="text_18">
     <!-- $\nu^{\rm RTP}_{\rm end}$ -->
     <defs>
      <path d="M 38.09375 23 
C 38.5 23.40625 38.5 23.609375 38.5 24.625 
C 38.5 34.96875 33.09375 44 21.703125 44 
C 11.09375 44 2.703125 33.890625 2.703125 21.609375 
C 2.703125 8.609375 12.203125 -1 22.796875 -1 
C 34 -1 38.40625 9.484375 38.40625 11.5625 
C 38.40625 12.25 37.796875 12.25 37.59375 12.25 
C 36.90625 12.25 36.796875 12.046875 36.40625 10.875 
C 34.203125 4.140625 28.703125 0.796875 23.5 0.796875 
C 19.203125 0.796875 14.90625 3.171875 12.203125 7.5 
C 9.09375 12.546875 9.09375 18.375 9.09375 23 
z
M 9.203125 24.5 
C 9.90625 39.140625 17.59375 42.40625 21.59375 42.40625 
C 28.40625 42.40625 33 35.890625 33.09375 24.5 
z
" id="CMR17-101"/>
      <path d="M 41.5 30.203125 
C 41.5 35.296875 40.5 43.59375 28.703125 43.59375 
C 20.796875 43.59375 16.703125 37.5 15.203125 33.5 
L 15.09375 33.5 
L 15.09375 43.59375 
L 3.296875 42.5 
L 3.296875 39.90625 
C 9.203125 39.90625 10.09375 39.296875 10.09375 34.5 
L 10.09375 6.6875 
C 10.09375 2.875 9.703125 2.390625 3.296875 2.390625 
L 3.296875 -0.203125 
C 5.703125 0 10.09375 0 12.703125 0 
C 15.296875 0 19.796875 0 22.203125 -0.203125 
L 22.203125 2.390625 
C 15.796875 2.390625 15.40625 2.78125 15.40625 6.6875 
L 15.40625 25.90625 
C 15.40625 35.109375 21 42 28 42 
C 35.40625 42 36.203125 35.40625 36.203125 30.59375 
L 36.203125 6.6875 
C 36.203125 2.875 35.796875 2.390625 29.40625 2.390625 
L 29.40625 -0.203125 
C 31.796875 0 36.203125 0 38.796875 0 
C 41.40625 0 45.90625 0 48.296875 -0.203125 
L 48.296875 2.390625 
C 41.90625 2.390625 41.5 2.78125 41.5 6.6875 
z
" id="CMR17-110"/>
      <path d="M 29.203125 67.59375 
L 29.203125 65 
C 35.09375 65 36 64.40625 36 59.6875 
L 36 36.640625 
C 35.59375 37.140625 31.5 43.59375 23.40625 43.59375 
C 13.203125 43.59375 3.296875 34.5 3.296875 21.3125 
C 3.296875 8.203125 12.59375 -1 22.40625 -1 
C 30.90625 -1 35.296875 5.265625 35.796875 5.9375 
L 35.796875 -0.984375 
L 47.90625 -0.984375 
L 47.90625 2 
C 42 2 41.09375 2.59375 41.09375 7.390625 
L 41.09375 68.6875 
z
M 35.796875 11.796875 
C 35.796875 8.796875 34 6.09375 31.703125 4.09375 
C 28.296875 1.09375 24.90625 0.59375 23 0.59375 
C 20.09375 0.59375 9.703125 2.09375 9.703125 21.1875 
C 9.703125 40.8125 21.296875 42 23.90625 42 
C 28.5 42 32.203125 39.40625 34.5 35.796875 
C 35.796875 33.703125 35.796875 33.40625 35.796875 31.609375 
z
" id="CMR17-100"/>
     </defs>
     <g transform="translate(185.225 229.963158)scale(0.25 -0.25)">
      <use transform="translate(0 24.62935)scale(0.996264)" xlink:href="#CMMI12-23"/>
      <use transform="translate(54.482793 60.782989)scale(0.697382)" xlink:href="#CMR17-82"/>
      <use transform="translate(96.471301 60.782989)scale(0.697382)" xlink:href="#CMR17-84"/>
      <use transform="translate(143.028007 60.782989)scale(0.697382)" xlink:href="#CMR17-80"/>
      <use transform="translate(48.198482 0)scale(0.697382)" xlink:href="#CMR17-101"/>
      <use transform="translate(76.538314 0)scale(0.697382)" xlink:href="#CMR17-110"/>
      <use transform="translate(112.164922 0)scale(0.697382)" xlink:href="#CMR17-100"/>
     </g>
    </g>
    <g id="line2d_53">
     <path d="M 150.225 260.820034 
L 172.725 260.820034 
" style="fill:none;stroke:#000000;stroke-linecap:square;stroke-width:4;"/>
    </g>
    <g id="line2d_54"/>
    <g id="text_19">
     <!-- $\nu^{\rm RTP}_{\rm ave}$ -->
     <defs>
      <path d="M 36 25.828125 
C 36 32.375 36 35.84375 31.796875 39.734375 
C 28.09375 43 23.796875 44 20.40625 44 
C 12.5 44 6.796875 37.609375 6.796875 30.796875 
C 6.796875 27 9.796875 27 10.40625 27 
C 11.703125 27 14 27.78125 14 30.53125 
C 14 33 12.09375 34.078125 10.40625 34.078125 
C 10 34.078125 9.5 33.96875 9.203125 33.875 
C 11.296875 40.5 16.703125 42.40625 20.203125 42.40625 
C 25.203125 42.40625 30.703125 37.953125 30.703125 29.453125 
L 30.703125 25 
C 24.796875 25 17.703125 24.203125 12.09375 21.203125 
C 5.796875 17.703125 4 12.703125 4 8.90625 
C 4 1.203125 13 -1 18.296875 -1 
C 23.796875 -1 28.90625 2.171875 31.09375 7.984375 
C 31.296875 3.640625 34.09375 -0.28125 38.5 -0.28125 
C 40.59375 -0.28125 45.90625 1.09375 45.90625 8.859375 
L 45.90625 14.375 
L 44.09375 14.375 
L 44.09375 8.78125 
C 44.09375 2.78125 41.40625 2 40.09375 2 
C 36 2 36 7.15625 36 11.53125 
z
M 30.703125 13.59375 
C 30.703125 4.953125 24.5 0.59375 19 0.59375 
C 14 0.59375 10.09375 4.296875 10.09375 8.90625 
C 10.09375 11.890625 11.40625 17.1875 17.203125 20.390625 
C 22 23.09375 27.5 23.5 30.703125 23.5 
z
" id="CMR17-97"/>
      <path d="M 39.09375 33.796875 
C 40 36 41.59375 40 47.40625 40 
L 47.40625 42.59375 
C 45.5 42.59375 43 42.59375 41.09375 42.59375 
C 39 42.59375 35.703125 42.59375 33.703125 42.6875 
L 33.703125 40.09375 
C 36.203125 39.890625 37.59375 38.703125 37.59375 36.109375 
C 37.59375 35.203125 37.59375 35 37 33.609375 
L 26 5.890625 
L 14.09375 35.71875 
C 13.5 37.015625 13.5 37.203125 13.5 37.609375 
C 13.5 40 16.796875 40 18.296875 40 
L 18.296875 42.6875 
C 15.90625 42.59375 11.5 42.59375 9 42.59375 
C 6.296875 42.59375 3.203125 42.59375 1 42.6875 
L 1 40 
C 4.796875 40 6.90625 40 8.09375 36.90625 
L 22.59375 0.6875 
C 23.203125 -0.796875 23.296875 -1 24.203125 -1 
C 25.09375 -1 25.203125 -0.796875 25.796875 0.6875 
z
" id="CMR17-118"/>
     </defs>
     <g transform="translate(185.225 269.570034)scale(0.25 -0.25)">
      <use transform="translate(0 24.62935)scale(0.996264)" xlink:href="#CMMI12-23"/>
      <use transform="translate(54.482793 60.782989)scale(0.697382)" xlink:href="#CMR17-82"/>
      <use transform="translate(96.471301 60.782989)scale(0.697382)" xlink:href="#CMR17-84"/>
      <use transform="translate(143.028007 60.782989)scale(0.697382)" xlink:href="#CMR17-80"/>
      <use transform="translate(48.198482 0)scale(0.697382)" xlink:href="#CMR17-97"/>
      <use transform="translate(78.359944 0)scale(0.697382)" xlink:href="#CMR17-118"/>
      <use transform="translate(110.34311 0)scale(0.697382)" xlink:href="#CMR17-101"/>
     </g>
    </g>
   </g>
   <g id="legend_3">
    <g id="line2d_55">
     <path d="M 150.225 221.213158 
L 172.725 221.213158 
" style="fill:none;stroke:#000000;stroke-dasharray:6,6;stroke-dashoffset:0;stroke-width:4;"/>
    </g>
    <g id="line2d_56"/>
    <g id="text_20">
     <!-- $\nu^{\rm RTP}_{\rm end}$ -->
     <g transform="translate(185.225 229.963158)scale(0.25 -0.25)">
      <use transform="translate(0 24.62935)scale(0.996264)" xlink:href="#CMMI12-23"/>
      <use transform="translate(54.482793 60.782989)scale(0.697382)" xlink:href="#CMR17-82"/>
      <use transform="translate(96.471301 60.782989)scale(0.697382)" xlink:href="#CMR17-84"/>
      <use transform="translate(143.028007 60.782989)scale(0.697382)" xlink:href="#CMR17-80"/>
      <use transform="translate(48.198482 0)scale(0.697382)" xlink:href="#CMR17-101"/>
      <use transform="translate(76.538314 0)scale(0.697382)" xlink:href="#CMR17-110"/>
      <use transform="translate(112.164922 0)scale(0.697382)" xlink:href="#CMR17-100"/>
     </g>
    </g>
    <g id="line2d_57">
     <path d="M 150.225 260.820034 
L 172.725 260.820034 
" style="fill:none;stroke:#000000;stroke-linecap:square;stroke-width:4;"/>
    </g>
    <g id="line2d_58"/>
    <g id="text_21">
     <!-- $\nu^{\rm RTP}_{\rm ave}$ -->
     <g transform="translate(185.225 269.570034)scale(0.25 -0.25)">
      <use transform="translate(0 24.62935)scale(0.996264)" xlink:href="#CMMI12-23"/>
      <use transform="translate(54.482793 60.782989)scale(0.697382)" xlink:href="#CMR17-82"/>
      <use transform="translate(96.471301 60.782989)scale(0.697382)" xlink:href="#CMR17-84"/>
      <use transform="translate(143.028007 60.782989)scale(0.697382)" xlink:href="#CMR17-80"/>
      <use transform="translate(48.198482 0)scale(0.697382)" xlink:href="#CMR17-97"/>
      <use transform="translate(78.359944 0)scale(0.697382)" xlink:href="#CMR17-118"/>
      <use transform="translate(110.34311 0)scale(0.697382)" xlink:href="#CMR17-101"/>
     </g>
    </g>
   </g>
  </g>
 </g>
 <defs>
  <clipPath id="p6ccbc031bf">
   <rect height="270" width="271.35" x="129.6" y="18"/>
  </clipPath>
 </defs>
</svg>
