<?xml version="1.0" encoding="utf-8" standalone="no"?>
<!DOCTYPE svg PUBLIC "-//W3C//DTD SVG 1.1//EN"
  "http://www.w3.org/Graphics/SVG/1.1/DTD/svg11.dtd">
<!-- Created with matplotlib (https://matplotlib.org/) -->
<svg height="360pt" version="1.1" viewBox="0 0 405 360" width="405pt" xmlns="http://www.w3.org/2000/svg" xmlns:xlink="http://www.w3.org/1999/xlink">
 <defs>
  <style type="text/css">
*{stroke-linecap:butt;stroke-linejoin:round;}
  </style>
 </defs>
 <g id="figure_1">
  <g id="patch_1">
   <path d="M 0 360 
L 405 360 
L 405 0 
L 0 0 
z
" style="fill:#ffffff;"/>
  </g>
  <g id="axes_1">
   <g id="patch_2">
    <path d="M 113.4 295.2 
L 396.9 295.2 
L 396.9 14.4 
L 113.4 14.4 
z
" style="fill:#ffffff;"/>
   </g>
   <g id="line2d_1">
    <path clip-path="url(#p91979b84e2)" d="M 118.713934 19.275 
L 131.779909 19.949792 
L 151.495922 21.293776 
L 165.674533 22.630345 
L 176.369438 23.95956 
L 184.730353 25.281481 
L 191.451099 26.59617 
L 196.97519 27.903683 
L 201.599381 29.204082 
L 205.529731 30.497422 
L 208.913799 31.783762 
L 213.195233 33.70027 
L 216.745837 35.601342 
L 219.74209 37.487166 
L 222.307779 39.357923 
L 224.532302 41.213793 
L 227.079596 43.665435 
L 229.250612 46.091339 
L 231.12663 48.491906 
L 233.145701 51.457588 
L 234.879643 54.385052 
L 236.667643 57.848593 
L 238.441703 61.822814 
L 240.156486 66.279297 
L 241.785542 71.187097 
L 243.316472 76.513235 
L 244.865635 82.734783 
L 246.381559 89.769121 
L 247.918439 98.002561 
L 249.492378 107.734091 
L 251.099328 119.157616 
L 252.775146 132.745687 
L 254.601961 149.443947 
L 256.814809 171.864824 
L 260.981124 217.01352 
L 264.021151 248.606167 
L 266.349813 270.54278 
L 266.491142 271.8 
L 266.491142 271.8 
" style="fill:none;stroke:#0173b2;stroke-linecap:square;stroke-width:4;"/>
   </g>
   <g id="line2d_2">
    <path clip-path="url(#p91979b84e2)" d="M 118.580126 84.515574 
L 136.434352 85.27419 
L 154.099 86.281437 
L 167.235099 87.283871 
L 177.394845 88.281526 
L 185.493719 89.274435 
L 193.575101 90.508951 
L 200.035331 91.73617 
L 205.324418 92.956158 
L 210.537288 94.410687 
L 214.831323 95.855003 
L 218.435895 97.289213 
L 221.979015 98.949826 
L 224.974446 100.596992 
L 227.883659 102.463212 
L 230.367677 104.312321 
L 232.767916 106.372406 
L 235.053881 108.636735 
L 237.209836 111.098028 
L 239.230718 113.748517 
L 241.118673 116.58 
L 242.99715 119.796694 
L 244.828772 123.378603 
L 246.678065 127.508423 
L 248.499783 132.1488 
L 250.331706 137.452997 
L 252.191221 143.547673 
L 254.131205 150.708262 
L 256.13539 158.970297 
L 258.399602 169.298559 
L 261.017216 182.348476 
L 264.546582 201.193043 
L 272.784688 245.548886 
L 276.146121 262.199166 
L 278.21062 271.8 
L 278.21062 271.8 
" style="fill:none;stroke:#de8f05;stroke-linecap:square;stroke-width:4;"/>
   </g>
   <g id="line2d_3">
    <path clip-path="url(#p91979b84e2)" d="M 117.22926 124.211765 
L 140.990702 124.834258 
L 160.446741 125.557938 
L 176.241042 126.381641 
L 187.827735 127.201783 
L 197.673039 128.120216 
L 206.016109 129.135484 
L 212.523207 130.145308 
L 218.221872 131.24988 
L 223.211547 132.447482 
L 227.590035 133.736272 
L 231.447106 135.114286 
L 234.862028 136.579447 
L 237.903196 138.129572 
L 240.628819 139.762382 
L 243.214037 141.570211 
L 245.646923 143.547673 
L 247.928383 145.688975 
L 250.146562 148.079295 
L 252.283291 150.708262 
L 254.452689 153.741709 
L 256.457161 156.89761 
L 258.607094 160.678818 
L 260.838252 165.043191 
L 263.256388 170.265517 
L 265.924779 176.572556 
L 268.996097 184.425688 
L 272.866447 194.976575 
L 279.429076 213.641535 
L 286.898794 234.671517 
L 291.88533 248.038411 
L 296.379175 259.458228 
L 300.665787 269.750135 
L 301.550576 271.8 
L 301.550576 271.8 
" style="fill:none;stroke:#029e73;stroke-linecap:square;stroke-width:4;"/>
   </g>
   <g id="line2d_4">
    <path clip-path="url(#p91979b84e2)" d="M 113.930564 146.593683 
L 156.087113 147.03515 
L 181.969754 147.512182 
L 200.418464 148.061029 
L 213.994616 148.681028 
L 224.290852 149.371429 
L 232.321567 150.131404 
L 238.75033 150.960049 
L 244.022721 151.856381 
L 248.590302 152.854912 
L 252.583077 153.953877 
L 256.116772 155.151351 
L 259.522227 156.549751 
L 262.376754 157.937041 
L 265.418192 159.655731 
L 268.542094 161.695874 
L 271.700847 164.045854 
L 274.882001 166.692546 
L 278.429199 169.943816 
L 282.266598 173.763981 
L 286.916752 178.72437 
L 292.495948 185.014286 
L 300.512085 194.424 
L 327.014366 225.785612 
L 335.797994 235.716731 
L 344.10447 244.773174 
L 352.007297 253.05974 
L 359.732176 260.836364 
L 367.308141 268.148711 
L 371.216812 271.8 
L 371.216812 271.8 
" style="fill:none;stroke:#d55e00;stroke-linecap:square;stroke-width:4;"/>
   </g>
   <g id="line2d_5">
    <path clip-path="url(#p91979b84e2)" d="M 117.996821 152.195801 
L 177.8046 152.481124 
L 209.476612 152.83713 
L 228.464948 153.263393 
L 240.975652 153.759399 
L 249.87365 154.324557 
L 255.15 154.8 
L 255.15 154.8 
L 260.949662 155.502 
L 267.215716 156.549751 
L 271.943197 157.591252 
L 276.98146 158.970297 
L 282.155247 160.678818 
L 287.44248 162.706954 
L 292.870362 165.043191 
L 299.138046 168.000579 
L 306.113366 171.546183 
L 314.284183 175.952542 
L 324.534863 181.750046 
L 338.000615 189.64657 
L 363.81572 205.115021 
L 386.637158 218.670492 
L 403.533316 228.446081 
L 406 229.849107 
L 406 229.849107 
" style="fill:none;stroke:#cc78bc;stroke-linecap:square;stroke-width:4;"/>
   </g>
   <g id="patch_3">
    <path d="M 113.4 295.2 
L 113.4 14.4 
" style="fill:none;stroke:#000000;stroke-linecap:square;stroke-linejoin:miter;"/>
   </g>
   <g id="patch_4">
    <path d="M 396.9 295.2 
L 396.9 14.4 
" style="fill:none;stroke:#000000;stroke-linecap:square;stroke-linejoin:miter;"/>
   </g>
   <g id="patch_5">
    <path d="M 113.4 295.2 
L 396.9 295.2 
" style="fill:none;stroke:#000000;stroke-linecap:square;stroke-linejoin:miter;"/>
   </g>
   <g id="patch_6">
    <path d="M 113.4 14.4 
L 396.9 14.4 
" style="fill:none;stroke:#000000;stroke-linecap:square;stroke-linejoin:miter;"/>
   </g>
   <g id="matplotlib.axis_1">
    <g id="xtick_1">
     <g id="line2d_6">
      <defs>
       <path d="M 0 0 
L 0 -10 
" id="m764a97d437" style="stroke:#000000;stroke-width:0.5;"/>
      </defs>
      <g>
       <use style="stroke:#000000;stroke-width:0.5;" x="113.4" xlink:href="#m764a97d437" y="295.2"/>
      </g>
     </g>
     <g id="line2d_7">
      <defs>
       <path d="M 0 0 
L 0 10 
" id="mf6a9de6a82" style="stroke:#000000;stroke-width:0.5;"/>
      </defs>
      <g>
       <use style="stroke:#000000;stroke-width:0.5;" x="113.4" xlink:href="#mf6a9de6a82" y="14.4"/>
      </g>
     </g>
    </g>
    <g id="xtick_2">
     <g id="line2d_8">
      <g>
       <use style="stroke:#000000;stroke-width:0.5;" x="141.75" xlink:href="#m764a97d437" y="295.2"/>
      </g>
     </g>
     <g id="line2d_9">
      <g>
       <use style="stroke:#000000;stroke-width:0.5;" x="141.75" xlink:href="#mf6a9de6a82" y="14.4"/>
      </g>
     </g>
     <g id="text_1">
      <!-- $-8$ -->
      <defs>
       <path d="M 65.90625 23 
C 67.59375 23 69.40625 23 69.40625 25 
C 69.40625 27 67.59375 27 65.90625 27 
L 11.796875 27 
C 10.09375 27 8.296875 27 8.296875 25 
C 8.296875 23 10.09375 23 11.796875 23 
z
" id="CMSY10-0"/>
       <path d="M 27.203125 35.375 
C 33.5 38.546875 39.90625 43.328125 39.90625 50.984375 
C 39.90625 60.015625 31.09375 65.296875 23 65.296875 
C 13.90625 65.296875 5.90625 58.734375 5.90625 49.6875 
C 5.90625 47.203125 6.5 42.921875 10.40625 39.140625 
C 11.40625 38.15625 15.59375 35.171875 18.296875 33.28125 
C 13.796875 30.984375 3.296875 25.53125 3.296875 14.59375 
C 3.296875 4.359375 13.09375 -2 22.796875 -2 
C 33.5 -2 42.5 5.65625 42.5 15.78125 
C 42.5 24.84375 36.40625 29.015625 32.40625 31.703125 
z
M 14.09375 44.09375 
C 13.296875 44.59375 9.296875 47.671875 9.296875 52.359375 
C 9.296875 58.421875 15.59375 63 22.796875 63 
C 30.703125 63 36.5 57.4375 36.5 50.96875 
C 36.5 41.703125 26.09375 36.421875 25.59375 36.421875 
C 25.5 36.421875 25.40625 36.421875 24.59375 37.03125 
z
M 32.5 23.734375 
C 34 22.640625 38.796875 19.375 38.796875 13.296875 
C 38.796875 5.953125 31.40625 0.390625 23 0.390625 
C 13.90625 0.390625 7 6.84375 7 14.6875 
C 7 22.546875 13.09375 29.09375 20 32.1875 
z
" id="CMR17-56"/>
      </defs>
      <g transform="translate(123.273313 320.494961)scale(0.3 -0.3)">
       <use transform="scale(0.996264)" xlink:href="#CMSY10-0"/>
       <use transform="translate(77.487468 0)scale(0.996264)" xlink:href="#CMR17-56"/>
      </g>
     </g>
    </g>
    <g id="xtick_3">
     <g id="line2d_10">
      <g>
       <use style="stroke:#000000;stroke-width:0.5;" x="170.1" xlink:href="#m764a97d437" y="295.2"/>
      </g>
     </g>
     <g id="line2d_11">
      <g>
       <use style="stroke:#000000;stroke-width:0.5;" x="170.1" xlink:href="#mf6a9de6a82" y="14.4"/>
      </g>
     </g>
    </g>
    <g id="xtick_4">
     <g id="line2d_12">
      <g>
       <use style="stroke:#000000;stroke-width:0.5;" x="198.45" xlink:href="#m764a97d437" y="295.2"/>
      </g>
     </g>
     <g id="line2d_13">
      <g>
       <use style="stroke:#000000;stroke-width:0.5;" x="198.45" xlink:href="#mf6a9de6a82" y="14.4"/>
      </g>
     </g>
     <g id="text_2">
      <!-- $-4$ -->
      <defs>
       <path d="M 33.59375 64.40625 
C 33.59375 66.5 33.5 66.5 31.703125 66.5 
L 2 19.59375 
L 2 17 
L 27.796875 17 
L 27.796875 7.140625 
C 27.796875 3.5 27.59375 2.5 20.59375 2.5 
L 18.703125 2.5 
L 18.703125 0 
C 21.90625 0 27.296875 0 30.703125 0 
C 34.09375 0 39.5 0 42.703125 0 
L 42.703125 2.5 
L 40.796875 2.5 
C 33.796875 2.5 33.59375 3.5 33.59375 7.140625 
L 33.59375 17 
L 43.796875 17 
L 43.796875 19.59375 
L 33.59375 19.59375 
z
M 28.09375 57.859375 
L 28.09375 19.59375 
L 4 19.59375 
z
" id="CMR17-52"/>
      </defs>
      <g transform="translate(179.973313 320.494961)scale(0.3 -0.3)">
       <use transform="scale(0.996264)" xlink:href="#CMSY10-0"/>
       <use transform="translate(77.487468 0)scale(0.996264)" xlink:href="#CMR17-52"/>
      </g>
     </g>
    </g>
    <g id="xtick_5">
     <g id="line2d_14">
      <g>
       <use style="stroke:#000000;stroke-width:0.5;" x="226.8" xlink:href="#m764a97d437" y="295.2"/>
      </g>
     </g>
     <g id="line2d_15">
      <g>
       <use style="stroke:#000000;stroke-width:0.5;" x="226.8" xlink:href="#mf6a9de6a82" y="14.4"/>
      </g>
     </g>
    </g>
    <g id="xtick_6">
     <g id="line2d_16">
      <g>
       <use style="stroke:#000000;stroke-width:0.5;" x="255.15" xlink:href="#m764a97d437" y="295.2"/>
      </g>
     </g>
     <g id="line2d_17">
      <g>
       <use style="stroke:#000000;stroke-width:0.5;" x="255.15" xlink:href="#mf6a9de6a82" y="14.4"/>
      </g>
     </g>
     <g id="text_3">
      <!-- $0$ -->
      <defs>
       <path d="M 42 31.640625 
C 42 37.75 41.90625 48.125 37.703125 56.109375 
C 34 63.109375 28.09375 65.59375 22.90625 65.59375 
C 18.09375 65.59375 12 63.40625 8.203125 56.203125 
C 4.203125 48.71875 3.796875 39.4375 3.796875 31.640625 
C 3.796875 25.953125 3.90625 17.28125 7 9.671875 
C 11.296875 -0.609375 19 -2 22.90625 -2 
C 27.5 -2 34.5 -0.109375 38.59375 9.375 
C 41.59375 16.28125 42 24.359375 42 31.640625 
z
M 22.90625 -0.40625 
C 16.5 -0.40625 12.703125 5.078125 11.296875 12.6875 
C 10.203125 18.5625 10.203125 27.15625 10.203125 32.75 
C 10.203125 40.4375 10.203125 46.828125 11.5 52.921875 
C 13.40625 61.390625 19 64 22.90625 64 
C 27 64 32.296875 61.296875 34.203125 53.125 
C 35.5 47.4375 35.59375 40.734375 35.59375 32.75 
C 35.59375 26.25 35.59375 18.265625 34.40625 12.375 
C 32.296875 1.484375 26.40625 -0.40625 22.90625 -0.40625 
z
" id="CMR17-48"/>
      </defs>
      <g transform="translate(248.296428 320.494961)scale(0.3 -0.3)">
       <use transform="scale(0.996264)" xlink:href="#CMR17-48"/>
      </g>
     </g>
    </g>
    <g id="xtick_7">
     <g id="line2d_18">
      <g>
       <use style="stroke:#000000;stroke-width:0.5;" x="283.5" xlink:href="#m764a97d437" y="295.2"/>
      </g>
     </g>
     <g id="line2d_19">
      <g>
       <use style="stroke:#000000;stroke-width:0.5;" x="283.5" xlink:href="#mf6a9de6a82" y="14.4"/>
      </g>
     </g>
    </g>
    <g id="xtick_8">
     <g id="line2d_20">
      <g>
       <use style="stroke:#000000;stroke-width:0.5;" x="311.85" xlink:href="#m764a97d437" y="295.2"/>
      </g>
     </g>
     <g id="line2d_21">
      <g>
       <use style="stroke:#000000;stroke-width:0.5;" x="311.85" xlink:href="#mf6a9de6a82" y="14.4"/>
      </g>
     </g>
     <g id="text_4">
      <!-- $4$ -->
      <g transform="translate(304.996428 320.494961)scale(0.3 -0.3)">
       <use transform="scale(0.996264)" xlink:href="#CMR17-52"/>
      </g>
     </g>
    </g>
    <g id="xtick_9">
     <g id="line2d_22">
      <g>
       <use style="stroke:#000000;stroke-width:0.5;" x="340.2" xlink:href="#m764a97d437" y="295.2"/>
      </g>
     </g>
     <g id="line2d_23">
      <g>
       <use style="stroke:#000000;stroke-width:0.5;" x="340.2" xlink:href="#mf6a9de6a82" y="14.4"/>
      </g>
     </g>
    </g>
    <g id="xtick_10">
     <g id="line2d_24">
      <g>
       <use style="stroke:#000000;stroke-width:0.5;" x="368.55" xlink:href="#m764a97d437" y="295.2"/>
      </g>
     </g>
     <g id="line2d_25">
      <g>
       <use style="stroke:#000000;stroke-width:0.5;" x="368.55" xlink:href="#mf6a9de6a82" y="14.4"/>
      </g>
     </g>
     <g id="text_5">
      <!-- $8$ -->
      <g transform="translate(361.696428 320.494961)scale(0.3 -0.3)">
       <use transform="scale(0.996264)" xlink:href="#CMR17-56"/>
      </g>
     </g>
    </g>
    <g id="xtick_11">
     <g id="line2d_26">
      <g>
       <use style="stroke:#000000;stroke-width:0.5;" x="396.9" xlink:href="#m764a97d437" y="295.2"/>
      </g>
     </g>
     <g id="line2d_27">
      <g>
       <use style="stroke:#000000;stroke-width:0.5;" x="396.9" xlink:href="#mf6a9de6a82" y="14.4"/>
      </g>
     </g>
    </g>
    <g id="text_6">
     <!-- $\tilde{\lambda} \tilde{L}$ -->
     <defs>
      <path d="M 37.5 65.375 
C 34.09375 62.1875 32.203125 60.390625 29.09375 60.390625 
C 26.90625 60.390625 25.40625 61.4375 23.296875 62.875 
C 21.296875 64.234375 19.703125 65.375 17.5 65.375 
C 13.90625 65.375 11.40625 62.5625 7.203125 58.09375 
L 8.296875 57 
C 11.703125 60.15625 13.59375 62 16.703125 62 
C 18.90625 62 20.40625 60.9375 22.5 59.5 
C 24.5 58.15625 26.09375 57 28.296875 57 
C 31.90625 57 34.40625 59.8125 38.59375 64.28125 
z
" id="CMR17-126"/>
      <path d="M 30.90625 61.953125 
C 28.40625 69 20.5 69 19.203125 69 
C 18.59375 69 17.5 69 17.5 68 
C 17.5 67.21875 18.09375 67.109375 18.59375 67.015625 
C 20.09375 66.8125 21.296875 66.609375 22.90625 63.75 
C 23.90625 61.859375 34.203125 32.171875 34.203125 31.96875 
C 34.203125 31.875 34.09375 31.765625 33.296875 30.96875 
L 7.296875 4.859375 
C 6.09375 3.65625 5.296875 2.859375 5.296875 1.59375 
C 5.296875 0.1875 6.5 -1 8.09375 -1 
C 8.5 -1 9.59375 -0.796875 10.203125 -0.203125 
C 11.796875 1.28125 26.09375 18.65625 35.203125 29.390625 
C 37.796875 21.609375 41 12.453125 44.09375 4.078125 
C 44.59375 2.59375 45.09375 1.1875 46.5 -0.09375 
C 47.5 -1 47.703125 -1 50.5 -1 
L 52.40625 -1 
C 52.796875 -1 53.5 -1 53.5 -0.203125 
C 53.5 0.203125 53.40625 0.296875 53 0.703125 
C 52.09375 1.796875 51.40625 3.578125 51 4.78125 
z
" id="CMMI12-21"/>
      <path d="M 36.703125 60.328125 
C 37.59375 64.109375 37.90625 65.109375 46.703125 65.109375 
C 49.40625 65.109375 50.09375 65.109375 50.09375 67 
C 50.09375 68 49 68 48.59375 68 
C 46.59375 68 44.296875 68 42.296875 68 
L 28.90625 68 
C 27 68 24.796875 68 22.90625 68 
C 22.09375 68 21 68 21 66.109375 
C 21 65.109375 21.90625 65.109375 23.40625 65.109375 
C 29.5 65.109375 29.5 64.3125 29.5 63.21875 
C 29.5 63.03125 29.5 62.421875 29.09375 60.921875 
L 15.59375 7.375 
C 14.703125 3.890625 14.5 2.890625 7.5 2.890625 
C 5.59375 2.890625 4.59375 2.890625 4.59375 1.09375 
C 4.59375 0 5.203125 0 7.203125 0 
L 52 0 
C 54.203125 0 54.296875 0.09375 55 1.890625 
L 62.703125 23.09375 
C 62.90625 23.59375 63.09375 24.1875 63.09375 24.484375 
C 63.09375 25.078125 62.59375 25.484375 62.09375 25.484375 
C 62 25.484375 61.5 25.484375 61.296875 25.078125 
C 61.09375 24.984375 61.09375 24.78125 60.296875 22.890625 
C 57.09375 14.140625 52.59375 2.890625 35.703125 2.890625 
L 26.09375 2.890625 
C 24.703125 2.890625 24.5 2.890625 23.90625 3 
C 22.796875 3.09375 22.703125 3.296875 22.703125 4.09375 
C 22.703125 4.796875 22.90625 5.390625 23.09375 6.265625 
z
" id="CMMI12-76"/>
     </defs>
     <g transform="translate(236.658757 353.155881)scale(0.3 -0.3)">
      <use transform="translate(5.606797 26.296621)scale(0.996264)" xlink:href="#CMR17-126"/>
      <use transform="scale(0.996264)" xlink:href="#CMMI12-21"/>
      <use transform="translate(69.953996 25.189733)scale(0.996264)" xlink:href="#CMR17-126"/>
      <use transform="translate(56.904072 0)scale(0.996264)" xlink:href="#CMMI12-76"/>
     </g>
    </g>
   </g>
   <g id="matplotlib.axis_2">
    <g id="ytick_1">
     <g id="line2d_28">
      <defs>
       <path d="M 0 0 
L 10 0 
" id="m01f6e037f0" style="stroke:#000000;stroke-width:0.5;"/>
      </defs>
      <g>
       <use style="stroke:#000000;stroke-width:0.5;" x="113.4" xlink:href="#m01f6e037f0" y="295.2"/>
      </g>
     </g>
     <g id="line2d_29">
      <defs>
       <path d="M 0 0 
L -10 0 
" id="me9344acfa9" style="stroke:#000000;stroke-width:0.5;"/>
      </defs>
      <g>
       <use style="stroke:#000000;stroke-width:0.5;" x="396.9" xlink:href="#me9344acfa9" y="295.2"/>
      </g>
     </g>
     <g id="text_7">
      <!-- $-0.4$ -->
      <defs>
       <path d="M 18.40625 4.796875 
C 18.40625 7.6875 16 9.671875 13.59375 9.671875 
C 10.703125 9.671875 8.703125 7.28125 8.703125 4.890625 
C 8.703125 2 11.09375 0 13.5 0 
C 16.40625 0 18.40625 2.390625 18.40625 4.796875 
z
" id="CMMI12-58"/>
      </defs>
      <g transform="translate(50.610329 302.664501)scale(0.3 -0.3)">
       <use transform="scale(0.996264)" xlink:href="#CMSY10-0"/>
       <use transform="translate(77.487468 0)scale(0.996264)" xlink:href="#CMR17-48"/>
       <use transform="translate(123.177945 0)scale(0.996264)" xlink:href="#CMMI12-58"/>
       <use transform="translate(150.275122 0)scale(0.996264)" xlink:href="#CMR17-52"/>
      </g>
     </g>
    </g>
    <g id="ytick_2">
     <g id="line2d_30">
      <g>
       <use style="stroke:#000000;stroke-width:0.5;" x="113.4" xlink:href="#m01f6e037f0" y="260.1"/>
      </g>
     </g>
     <g id="line2d_31">
      <g>
       <use style="stroke:#000000;stroke-width:0.5;" x="396.9" xlink:href="#me9344acfa9" y="260.1"/>
      </g>
     </g>
     <g id="text_8">
      <!-- $-0.3$ -->
      <defs>
       <path d="M 22.09375 33.703125 
C 31 33.703125 34.90625 25.96875 34.90625 17.03125 
C 34.90625 5 28.5 0.390625 22.703125 0.390625 
C 17.40625 0.390625 8.796875 3.03125 6.09375 10.828125 
C 6.59375 10.625 7.09375 10.625 7.59375 10.625 
C 10 10.625 11.796875 12.21875 11.796875 14.8125 
C 11.796875 17.703125 9.59375 19 7.59375 19 
C 5.90625 19 3.296875 18.203125 3.296875 14.46875 
C 3.296875 5.234375 12.296875 -2 22.90625 -2 
C 34 -2 42.5 6.71875 42.5 16.953125 
C 42.5 26.671875 34.5 33.703125 25 34.796875 
C 32.59375 36.375 39.90625 43.0625 39.90625 52.015625 
C 39.90625 59.6875 32 65.296875 23 65.296875 
C 13.90625 65.296875 5.90625 59.828125 5.90625 52.015625 
C 5.90625 48.59375 8.5 48 9.796875 48 
C 11.90625 48 13.703125 49.296875 13.703125 51.890625 
C 13.703125 54.46875 11.90625 55.765625 9.796875 55.765625 
C 9.40625 55.765625 8.90625 55.765625 8.5 55.578125 
C 11.40625 61.859375 19.296875 63 22.796875 63 
C 26.296875 63 32.90625 61.328125 32.90625 51.875 
C 32.90625 49.109375 32.5 44.1875 29.09375 39.84375 
C 26.09375 36 22.703125 36 19.40625 35.6875 
C 18.90625 35.6875 16.59375 35.453125 16.203125 35.453125 
C 15.5 35.359375 15.09375 35.265625 15.09375 34.5 
C 15.09375 33.796875 15.203125 33.703125 17.203125 33.703125 
z
" id="CMR17-51"/>
      </defs>
      <g transform="translate(50.610329 267.564501)scale(0.3 -0.3)">
       <use transform="scale(0.996264)" xlink:href="#CMSY10-0"/>
       <use transform="translate(77.487468 0)scale(0.996264)" xlink:href="#CMR17-48"/>
       <use transform="translate(123.177945 0)scale(0.996264)" xlink:href="#CMMI12-58"/>
       <use transform="translate(150.275122 0)scale(0.996264)" xlink:href="#CMR17-51"/>
      </g>
     </g>
    </g>
    <g id="ytick_3">
     <g id="line2d_32">
      <g>
       <use style="stroke:#000000;stroke-width:0.5;" x="113.4" xlink:href="#m01f6e037f0" y="225"/>
      </g>
     </g>
     <g id="line2d_33">
      <g>
       <use style="stroke:#000000;stroke-width:0.5;" x="396.9" xlink:href="#me9344acfa9" y="225"/>
      </g>
     </g>
     <g id="text_9">
      <!-- $-0.2$ -->
      <defs>
       <path d="M 41.703125 15.453125 
L 39.90625 15.453125 
C 38.90625 8.375 38.09375 7.171875 37.703125 6.5625 
C 37.203125 5.765625 30 5.765625 28.59375 5.765625 
L 9.40625 5.765625 
C 13 9.671875 20 16.75 28.5 24.953125 
C 34.59375 30.734375 41.703125 37.53125 41.703125 47.421875 
C 41.703125 59.21875 32.296875 66 21.796875 66 
C 10.796875 66 4.09375 56.3125 4.09375 47.34375 
C 4.09375 43.4375 7 42.9375 8.203125 42.9375 
C 9.203125 42.9375 12.203125 43.546875 12.203125 47.03125 
C 12.203125 50.109375 9.59375 51 8.203125 51 
C 7.59375 51 7 50.90625 6.59375 50.703125 
C 8.5 59.21875 14.296875 63.40625 20.40625 63.40625 
C 29.09375 63.40625 34.796875 56.515625 34.796875 47.421875 
C 34.796875 38.734375 29.703125 31.25 24 24.75 
L 4.09375 2.28125 
L 4.09375 0 
L 39.296875 0 
z
" id="CMR17-50"/>
      </defs>
      <g transform="translate(50.610329 232.464501)scale(0.3 -0.3)">
       <use transform="scale(0.996264)" xlink:href="#CMSY10-0"/>
       <use transform="translate(77.487468 0)scale(0.996264)" xlink:href="#CMR17-48"/>
       <use transform="translate(123.177945 0)scale(0.996264)" xlink:href="#CMMI12-58"/>
       <use transform="translate(150.275122 0)scale(0.996264)" xlink:href="#CMR17-50"/>
      </g>
     </g>
    </g>
    <g id="ytick_4">
     <g id="line2d_34">
      <g>
       <use style="stroke:#000000;stroke-width:0.5;" x="113.4" xlink:href="#m01f6e037f0" y="189.9"/>
      </g>
     </g>
     <g id="line2d_35">
      <g>
       <use style="stroke:#000000;stroke-width:0.5;" x="396.9" xlink:href="#me9344acfa9" y="189.9"/>
      </g>
     </g>
     <g id="text_10">
      <!-- $-0.1$ -->
      <defs>
       <path d="M 26.59375 63.40625 
C 26.59375 65.5 26.5 65.5 25.09375 65.5 
C 21.203125 61.1875 15.296875 59.796875 9.703125 59.796875 
C 9.40625 59.796875 8.90625 59.796875 8.796875 59.5 
C 8.703125 59.296875 8.703125 59.09375 8.703125 57 
C 11.796875 57 17 57.59375 21 59.984375 
L 21 7.203125 
C 21 3.6875 20.796875 2.5 12.203125 2.5 
L 9.203125 2.5 
L 9.203125 0 
C 14 0 19 0 23.796875 0 
C 28.59375 0 33.59375 0 38.40625 0 
L 38.40625 2.5 
L 35.40625 2.5 
C 26.796875 2.5 26.59375 3.59375 26.59375 7.15625 
z
" id="CMR17-49"/>
      </defs>
      <g transform="translate(50.610329 197.364501)scale(0.3 -0.3)">
       <use transform="scale(0.996264)" xlink:href="#CMSY10-0"/>
       <use transform="translate(77.487468 0)scale(0.996264)" xlink:href="#CMR17-48"/>
       <use transform="translate(123.177945 0)scale(0.996264)" xlink:href="#CMMI12-58"/>
       <use transform="translate(150.275122 0)scale(0.996264)" xlink:href="#CMR17-49"/>
      </g>
     </g>
    </g>
    <g id="ytick_5">
     <g id="line2d_36">
      <g>
       <use style="stroke:#000000;stroke-width:0.5;" x="113.4" xlink:href="#m01f6e037f0" y="154.8"/>
      </g>
     </g>
     <g id="line2d_37">
      <g>
       <use style="stroke:#000000;stroke-width:0.5;" x="396.9" xlink:href="#me9344acfa9" y="154.8"/>
      </g>
     </g>
     <g id="text_11">
      <!-- $0.0$ -->
      <g transform="translate(73.856561 162.264501)scale(0.3 -0.3)">
       <use transform="scale(0.996264)" xlink:href="#CMR17-48"/>
       <use transform="translate(45.690477 0)scale(0.996264)" xlink:href="#CMMI12-58"/>
       <use transform="translate(72.787654 0)scale(0.996264)" xlink:href="#CMR17-48"/>
      </g>
     </g>
    </g>
    <g id="ytick_6">
     <g id="line2d_38">
      <g>
       <use style="stroke:#000000;stroke-width:0.5;" x="113.4" xlink:href="#m01f6e037f0" y="119.7"/>
      </g>
     </g>
     <g id="line2d_39">
      <g>
       <use style="stroke:#000000;stroke-width:0.5;" x="396.9" xlink:href="#me9344acfa9" y="119.7"/>
      </g>
     </g>
     <g id="text_12">
      <!-- $0.1$ -->
      <g transform="translate(73.856561 127.164501)scale(0.3 -0.3)">
       <use transform="scale(0.996264)" xlink:href="#CMR17-48"/>
       <use transform="translate(45.690477 0)scale(0.996264)" xlink:href="#CMMI12-58"/>
       <use transform="translate(72.787654 0)scale(0.996264)" xlink:href="#CMR17-49"/>
      </g>
     </g>
    </g>
    <g id="ytick_7">
     <g id="line2d_40">
      <g>
       <use style="stroke:#000000;stroke-width:0.5;" x="113.4" xlink:href="#m01f6e037f0" y="84.6"/>
      </g>
     </g>
     <g id="line2d_41">
      <g>
       <use style="stroke:#000000;stroke-width:0.5;" x="396.9" xlink:href="#me9344acfa9" y="84.6"/>
      </g>
     </g>
     <g id="text_13">
      <!-- $0.2$ -->
      <g transform="translate(73.856561 92.064501)scale(0.3 -0.3)">
       <use transform="scale(0.996264)" xlink:href="#CMR17-48"/>
       <use transform="translate(45.690477 0)scale(0.996264)" xlink:href="#CMMI12-58"/>
       <use transform="translate(72.787654 0)scale(0.996264)" xlink:href="#CMR17-50"/>
      </g>
     </g>
    </g>
    <g id="ytick_8">
     <g id="line2d_42">
      <g>
       <use style="stroke:#000000;stroke-width:0.5;" x="113.4" xlink:href="#m01f6e037f0" y="49.5"/>
      </g>
     </g>
     <g id="line2d_43">
      <g>
       <use style="stroke:#000000;stroke-width:0.5;" x="396.9" xlink:href="#me9344acfa9" y="49.5"/>
      </g>
     </g>
     <g id="text_14">
      <!-- $0.3$ -->
      <g transform="translate(73.856561 56.964501)scale(0.3 -0.3)">
       <use transform="scale(0.996264)" xlink:href="#CMR17-48"/>
       <use transform="translate(45.690477 0)scale(0.996264)" xlink:href="#CMMI12-58"/>
       <use transform="translate(72.787654 0)scale(0.996264)" xlink:href="#CMR17-51"/>
      </g>
     </g>
    </g>
    <g id="ytick_9">
     <g id="line2d_44">
      <g>
       <use style="stroke:#000000;stroke-width:0.5;" x="113.4" xlink:href="#m01f6e037f0" y="14.4"/>
      </g>
     </g>
     <g id="line2d_45">
      <g>
       <use style="stroke:#000000;stroke-width:0.5;" x="396.9" xlink:href="#me9344acfa9" y="14.4"/>
      </g>
     </g>
     <g id="text_15">
      <!-- $0.4$ -->
      <g transform="translate(73.856561 21.864501)scale(0.3 -0.3)">
       <use transform="scale(0.996264)" xlink:href="#CMR17-48"/>
       <use transform="translate(45.690477 0)scale(0.996264)" xlink:href="#CMMI12-58"/>
       <use transform="translate(72.787654 0)scale(0.996264)" xlink:href="#CMR17-52"/>
      </g>
     </g>
    </g>
    <g id="text_16">
     <!-- $\nu(\tilde{\lambda})$ -->
     <defs>
      <path d="M 22 43.015625 
C 22 43.40625 21.703125 44 20.90625 44 
C 20.203125 44 10.796875 42.984375 9.296875 42.984375 
C 8.203125 42.875 7.203125 42.78125 7.203125 40.984375 
C 7.203125 40 8 40 9.40625 40 
C 14.09375 40 14.40625 39.296875 14.40625 38.203125 
C 14.40625 37.796875 14.203125 36.609375 14.09375 36.21875 
L 5.296875 1 
C 5.296875 0.59375 5.59375 0 6.296875 0 
L 8.40625 0 
C 9.796875 0 25 3.59375 36.703125 15.5625 
C 49.59375 28.84375 51.40625 41.125 51.40625 41.515625 
C 51.40625 43.109375 50.09375 44 48.796875 44 
C 45.90625 44 45.203125 41.3125 45 40.609375 
C 39.09375 19.75 25.40625 7.390625 12.09375 3 
z
" id="CMMI12-23"/>
      <path d="M 30.59375 -24.390625 
C 30.59375 -24.296875 30.59375 -24.09375 30.296875 -23.796875 
C 25.703125 -19.125 13.40625 -6.359375 13.40625 24.703125 
C 13.40625 55.765625 25.5 68.421875 30.40625 73.390625 
C 30.40625 73.5 30.59375 73.703125 30.59375 74 
C 30.59375 74.296875 30.296875 74.5 29.90625 74.5 
C 28.796875 74.5 20.296875 67.125 15.40625 56.15625 
C 10.40625 45.109375 9 34.359375 9 24.8125 
C 9 17.625 9.703125 5.484375 15.703125 -7.359375 
C 20.5 -17.734375 28.703125 -25 29.90625 -25 
C 30.40625 -25 30.59375 -24.796875 30.59375 -24.390625 
z
" id="CMR17-40"/>
      <path d="M 26.296875 24.703125 
C 26.296875 31.875 25.59375 44.015625 19.59375 56.859375 
C 14.796875 67.234375 6.59375 74.5 5.40625 74.5 
C 5.09375 74.5 4.703125 74.390625 4.703125 73.890625 
C 4.703125 73.703125 4.796875 73.59375 4.90625 73.390625 
C 9.703125 68.40625 21.90625 55.75 21.90625 24.75 
C 21.90625 -6.359375 9.796875 -19.015625 4.90625 -24.015625 
C 4.796875 -24.203125 4.703125 -24.3125 4.703125 -24.5 
C 4.703125 -25 5.09375 -25 5.40625 -25 
C 6.5 -25 15 -17.625 19.90625 -6.65625 
C 24.90625 4.390625 26.296875 15.140625 26.296875 24.703125 
z
" id="CMR17-41"/>
     </defs>
     <g transform="translate(38.163356 182.092254)rotate(-90)scale(0.3 -0.3)">
      <use transform="scale(0.996264)" xlink:href="#CMMI12-23"/>
      <use transform="translate(54.482793 0)scale(0.996264)" xlink:href="#CMR17-40"/>
      <use transform="translate(95.370358 26.296621)scale(0.996264)" xlink:href="#CMR17-126"/>
      <use transform="translate(89.763561 0)scale(0.996264)" xlink:href="#CMMI12-21"/>
      <use transform="translate(146.667632 0)scale(0.996264)" xlink:href="#CMR17-41"/>
     </g>
    </g>
   </g>
   <g id="legend_1">
    <g id="line2d_46">
     <path d="M 280.517768 35.596641 
L 298.517768 35.596641 
" style="fill:none;stroke:#0173b2;stroke-linecap:square;stroke-width:4;"/>
    </g>
    <g id="line2d_47"/>
    <g id="text_17">
     <!-- $\tilde{L}=0.5$ -->
     <defs>
      <path d="M 64.296875 31.515625 
C 65.796875 31.515625 67.296875 31.515625 67.296875 33.203125 
C 67.296875 35 65.59375 35 63.90625 35 
L 8 35 
C 6.296875 35 4.59375 35 4.59375 33.203125 
C 4.59375 31.515625 6.09375 31.515625 7.59375 31.515625 
z
M 63.90625 14 
C 65.59375 14 67.296875 14 67.296875 15.796875 
C 67.296875 17.484375 65.796875 17.484375 64.296875 17.484375 
L 7.59375 17.484375 
C 6.09375 17.484375 4.59375 17.484375 4.59375 15.796875 
C 4.59375 14 6.296875 14 8 14 
z
" id="CMR17-61"/>
      <path d="M 11.40625 57.6875 
C 12.40625 57.28125 16.5 56 20.703125 56 
C 30 56 35.09375 61.109375 38 64.0625 
C 38 64.953125 38 65.5 37.40625 65.5 
C 37.296875 65.5 37.09375 65.5 36.296875 65.046875 
C 32.796875 63.40625 28.703125 62.078125 23.703125 62.078125 
C 20.703125 62.078125 16.203125 62.484375 11.296875 64.671875 
C 10.203125 65.171875 10 65.171875 9.90625 65.171875 
C 9.40625 65.171875 9.296875 65.0625 9.296875 63.078125 
L 9.296875 34.421875 
C 9.296875 32.640625 9.296875 32.140625 10.296875 32.140625 
C 10.796875 32.140625 11 32.34375 11.5 33.03125 
C 14.703125 37.515625 19.09375 39.40625 24.09375 39.40625 
C 27.59375 39.40625 35.09375 37.21875 35.09375 20.140625 
C 35.09375 16.953125 35.09375 11.171875 32.09375 6.578125 
C 29.59375 2.484375 25.703125 0.390625 21.40625 0.390625 
C 14.796875 0.390625 8.09375 5 6.296875 12.71875 
C 6.703125 12.609375 7.5 12.421875 7.90625 12.421875 
C 9.203125 12.421875 11.703125 13.125 11.703125 16.21875 
C 11.703125 18.90625 9.796875 20 7.90625 20 
C 5.59375 20 4.09375 18.59375 4.09375 15.796875 
C 4.09375 7.09375 11 -2 21.59375 -2 
C 31.90625 -2 41.703125 6.875 41.703125 19.75 
C 41.703125 31.71875 33.90625 41 24.203125 41 
C 19.09375 41 14.796875 39.109375 11.40625 35.53125 
z
" id="CMR17-53"/>
     </defs>
     <g transform="translate(320.517768 42.596641)scale(0.2 -0.2)">
      <use transform="translate(13.049924 25.189733)scale(0.996264)" xlink:href="#CMR17-126"/>
      <use transform="scale(0.996264)" xlink:href="#CMMI12-76"/>
      <use transform="translate(94.044884 0)scale(0.996264)" xlink:href="#CMR17-61"/>
      <use transform="translate(193.433681 0)scale(0.996264)" xlink:href="#CMR17-48"/>
      <use transform="translate(239.124158 0)scale(0.996264)" xlink:href="#CMMI12-58"/>
      <use transform="translate(266.221336 0)scale(0.996264)" xlink:href="#CMR17-53"/>
     </g>
    </g>
    <g id="line2d_48">
     <path d="M 280.517768 64.037254 
L 298.517768 64.037254 
" style="fill:none;stroke:#de8f05;stroke-linecap:square;stroke-width:4;"/>
    </g>
    <g id="line2d_49"/>
    <g id="text_18">
     <!-- $\tilde{L}=1$ -->
     <g transform="translate(320.517768 71.037254)scale(0.2 -0.2)">
      <use transform="translate(13.049924 25.189733)scale(0.996264)" xlink:href="#CMR17-126"/>
      <use transform="scale(0.996264)" xlink:href="#CMMI12-76"/>
      <use transform="translate(94.044884 0)scale(0.996264)" xlink:href="#CMR17-61"/>
      <use transform="translate(193.433681 0)scale(0.996264)" xlink:href="#CMR17-49"/>
     </g>
    </g>
    <g id="line2d_50">
     <path d="M 280.517768 92.477867 
L 298.517768 92.477867 
" style="fill:none;stroke:#029e73;stroke-linecap:square;stroke-width:4;"/>
    </g>
    <g id="line2d_51"/>
    <g id="text_19">
     <!-- $\tilde{L}=2$ -->
     <g transform="translate(320.517768 99.477867)scale(0.2 -0.2)">
      <use transform="translate(13.049924 25.189733)scale(0.996264)" xlink:href="#CMR17-126"/>
      <use transform="scale(0.996264)" xlink:href="#CMMI12-76"/>
      <use transform="translate(94.044884 0)scale(0.996264)" xlink:href="#CMR17-61"/>
      <use transform="translate(193.433681 0)scale(0.996264)" xlink:href="#CMR17-50"/>
     </g>
    </g>
    <g id="line2d_52">
     <path d="M 280.517768 120.918481 
L 298.517768 120.918481 
" style="fill:none;stroke:#d55e00;stroke-linecap:square;stroke-width:4;"/>
    </g>
    <g id="line2d_53"/>
    <g id="text_20">
     <!-- $\tilde{L}=5$ -->
     <g transform="translate(320.517768 127.918481)scale(0.2 -0.2)">
      <use transform="translate(13.049924 25.189733)scale(0.996264)" xlink:href="#CMR17-126"/>
      <use transform="scale(0.996264)" xlink:href="#CMMI12-76"/>
      <use transform="translate(94.044884 0)scale(0.996264)" xlink:href="#CMR17-61"/>
      <use transform="translate(193.433681 0)scale(0.996264)" xlink:href="#CMR17-53"/>
     </g>
    </g>
    <g id="line2d_54">
     <path d="M 280.517768 149.359094 
L 298.517768 149.359094 
" style="fill:none;stroke:#cc78bc;stroke-linecap:square;stroke-width:4;"/>
    </g>
    <g id="line2d_55"/>
    <g id="text_21">
     <!-- $\tilde{L}=10$ -->
     <g transform="translate(320.517768 156.359094)scale(0.2 -0.2)">
      <use transform="translate(13.049924 25.189733)scale(0.996264)" xlink:href="#CMR17-126"/>
      <use transform="scale(0.996264)" xlink:href="#CMMI12-76"/>
      <use transform="translate(94.044884 0)scale(0.996264)" xlink:href="#CMR17-61"/>
      <use transform="translate(193.433681 0)scale(0.996264)" xlink:href="#CMR17-49"/>
      <use transform="translate(239.124158 0)scale(0.996264)" xlink:href="#CMR17-48"/>
     </g>
    </g>
   </g>
   <g id="legend_2">
    <g id="line2d_56">
     <path d="M 280.517768 35.596641 
L 298.517768 35.596641 
" style="fill:none;stroke:#0173b2;stroke-linecap:square;stroke-width:4;"/>
    </g>
    <g id="line2d_57"/>
    <g id="text_22">
     <!-- $\tilde{L}=0.5$ -->
     <g transform="translate(320.517768 42.596641)scale(0.2 -0.2)">
      <use transform="translate(13.049924 25.189733)scale(0.996264)" xlink:href="#CMR17-126"/>
      <use transform="scale(0.996264)" xlink:href="#CMMI12-76"/>
      <use transform="translate(94.044884 0)scale(0.996264)" xlink:href="#CMR17-61"/>
      <use transform="translate(193.433681 0)scale(0.996264)" xlink:href="#CMR17-48"/>
      <use transform="translate(239.124158 0)scale(0.996264)" xlink:href="#CMMI12-58"/>
      <use transform="translate(266.221336 0)scale(0.996264)" xlink:href="#CMR17-53"/>
     </g>
    </g>
    <g id="line2d_58">
     <path d="M 280.517768 64.037254 
L 298.517768 64.037254 
" style="fill:none;stroke:#de8f05;stroke-linecap:square;stroke-width:4;"/>
    </g>
    <g id="line2d_59"/>
    <g id="text_23">
     <!-- $\tilde{L}=1$ -->
     <g transform="translate(320.517768 71.037254)scale(0.2 -0.2)">
      <use transform="translate(13.049924 25.189733)scale(0.996264)" xlink:href="#CMR17-126"/>
      <use transform="scale(0.996264)" xlink:href="#CMMI12-76"/>
      <use transform="translate(94.044884 0)scale(0.996264)" xlink:href="#CMR17-61"/>
      <use transform="translate(193.433681 0)scale(0.996264)" xlink:href="#CMR17-49"/>
     </g>
    </g>
    <g id="line2d_60">
     <path d="M 280.517768 92.477867 
L 298.517768 92.477867 
" style="fill:none;stroke:#029e73;stroke-linecap:square;stroke-width:4;"/>
    </g>
    <g id="line2d_61"/>
    <g id="text_24">
     <!-- $\tilde{L}=2$ -->
     <g transform="translate(320.517768 99.477867)scale(0.2 -0.2)">
      <use transform="translate(13.049924 25.189733)scale(0.996264)" xlink:href="#CMR17-126"/>
      <use transform="scale(0.996264)" xlink:href="#CMMI12-76"/>
      <use transform="translate(94.044884 0)scale(0.996264)" xlink:href="#CMR17-61"/>
      <use transform="translate(193.433681 0)scale(0.996264)" xlink:href="#CMR17-50"/>
     </g>
    </g>
    <g id="line2d_62">
     <path d="M 280.517768 120.918481 
L 298.517768 120.918481 
" style="fill:none;stroke:#d55e00;stroke-linecap:square;stroke-width:4;"/>
    </g>
    <g id="line2d_63"/>
    <g id="text_25">
     <!-- $\tilde{L}=5$ -->
     <g transform="translate(320.517768 127.918481)scale(0.2 -0.2)">
      <use transform="translate(13.049924 25.189733)scale(0.996264)" xlink:href="#CMR17-126"/>
      <use transform="scale(0.996264)" xlink:href="#CMMI12-76"/>
      <use transform="translate(94.044884 0)scale(0.996264)" xlink:href="#CMR17-61"/>
      <use transform="translate(193.433681 0)scale(0.996264)" xlink:href="#CMR17-53"/>
     </g>
    </g>
    <g id="line2d_64">
     <path d="M 280.517768 149.359094 
L 298.517768 149.359094 
" style="fill:none;stroke:#cc78bc;stroke-linecap:square;stroke-width:4;"/>
    </g>
    <g id="line2d_65"/>
    <g id="text_26">
     <!-- $\tilde{L}=10$ -->
     <g transform="translate(320.517768 156.359094)scale(0.2 -0.2)">
      <use transform="translate(13.049924 25.189733)scale(0.996264)" xlink:href="#CMR17-126"/>
      <use transform="scale(0.996264)" xlink:href="#CMMI12-76"/>
      <use transform="translate(94.044884 0)scale(0.996264)" xlink:href="#CMR17-61"/>
      <use transform="translate(193.433681 0)scale(0.996264)" xlink:href="#CMR17-49"/>
      <use transform="translate(239.124158 0)scale(0.996264)" xlink:href="#CMR17-48"/>
     </g>
    </g>
   </g>
  </g>
 </g>
 <defs>
  <clipPath id="p91979b84e2">
   <rect height="280.8" width="283.5" x="113.4" y="14.4"/>
  </clipPath>
 </defs>
</svg>
