<?xml version="1.0" encoding="utf-8" standalone="no"?>
<!DOCTYPE svg PUBLIC "-//W3C//DTD SVG 1.1//EN"
  "http://www.w3.org/Graphics/SVG/1.1/DTD/svg11.dtd">
<!-- Created with matplotlib (https://matplotlib.org/) -->
<svg height="360pt" version="1.1" viewBox="0 0 405 360" width="405pt" xmlns="http://www.w3.org/2000/svg" xmlns:xlink="http://www.w3.org/1999/xlink">
 <defs>
  <style type="text/css">
*{stroke-linecap:butt;stroke-linejoin:round;}
  </style>
 </defs>
 <g id="figure_1">
  <g id="patch_1">
   <path d="M 0 360 
L 405 360 
L 405 0 
L 0 0 
z
" style="fill:#ffffff;"/>
  </g>
  <g id="axes_1">
   <g id="patch_2">
    <path d="M 113.4 295.2 
L 396.9 295.2 
L 396.9 14.4 
L 113.4 14.4 
z
" style="fill:#ffffff;"/>
   </g>
   <g id="line2d_1">
    <path clip-path="url(#pe1c19a395d)" d="M 118.713934 74.46 
L 142.515879 75.538172 
L 159.119819 76.610387 
L 171.371385 77.676694 
L 180.790706 78.737143 
L 188.263691 79.791781 
L 194.341552 80.840656 
L 199.385227 81.883815 
L 205.529731 83.437938 
L 210.436027 84.979459 
L 214.449902 86.508533 
L 217.799201 88.025308 
L 220.640167 89.529933 
L 223.824229 91.51745 
L 226.481841 93.483963 
L 228.738247 95.429803 
L 231.12663 97.833525 
L 233.145701 100.20607 
L 235.197838 103.012819 
L 236.939687 105.776552 
L 238.672486 108.947848 
L 240.351602 112.50406 
L 241.950521 116.42052 
L 243.594119 121.090269 
L 245.099242 126.043373 
L 246.674063 132.036923 
L 248.242279 138.95416 
L 249.826654 147.026441 
L 251.42981 156.401053 
L 253.136396 167.757719 
L 255.042882 182.033367 
L 257.402431 201.529953 
L 264.829712 264.222064 
L 266.491142 276.48 
L 266.491142 276.48 
" style="fill:none;stroke:#0173b2;stroke-linecap:square;stroke-width:4;"/>
   </g>
   <g id="line2d_2">
    <path clip-path="url(#pe1c19a395d)" d="M 118.713934 39.384402 
L 131.779909 40.091286 
L 142.515879 40.796974 
L 159.119819 42.204733 
L 171.371385 43.607622 
L 180.790706 45.005586 
L 188.263691 46.398571 
L 194.341552 47.786526 
L 199.385227 49.1694 
L 203.640965 50.547148 
L 207.282525 51.919722 
L 210.436027 53.287078 
L 214.449902 55.328236 
L 217.799201 57.357424 
L 220.640167 59.374514 
L 223.083529 61.379387 
L 225.209952 63.371931 
L 227.65399 66.009301 
L 229.744645 68.624347 
L 231.556865 71.216865 
L 233.513089 74.42556 
L 235.197838 77.59847 
L 236.939687 81.358363 
L 238.672486 85.678827 
L 240.351602 90.528858 
L 241.950521 95.872942 
L 243.456365 101.671244 
L 244.983223 108.435561 
L 246.48019 116.061779 
L 248.000594 124.942231 
L 249.62772 135.828403 
L 251.321094 148.726827 
L 253.224423 165.001317 
L 255.15 182.88 
L 255.15 182.88 
L 261.309104 317.203227 
L 262.808435 342.790673 
L 264.062493 361 
L 264.062493 361 
" style="fill:none;stroke:#0173b2;stroke-dasharray:6,6;stroke-dashoffset:0;stroke-width:4;"/>
   </g>
   <g id="line2d_3">
    <path clip-path="url(#pe1c19a395d)" d="M 118.580126 126.652459 
L 141.39885 127.461164 
L 157.731788 128.265996 
L 170.010486 129.066985 
L 181.660135 130.062857 
L 190.569486 131.052819 
L 197.612688 132.036923 
L 204.344396 133.210189 
L 209.739844 134.375182 
L 214.831323 135.724002 
L 218.98154 137.061818 
L 222.437122 138.388764 
L 225.747924 139.892132 
L 228.859369 141.566897 
L 231.480187 143.224425 
L 233.955017 145.046231 
L 236.27061 147.026441 
L 238.425285 149.158788 
L 240.424804 151.436657 
L 242.401853 154.024309 
L 244.318126 156.905616 
L 246.15278 160.063099 
L 247.974502 163.638887 
L 249.817844 167.757719 
L 251.696577 172.523221 
L 253.613815 178.013945 
L 255.569401 184.279801 
L 257.777761 192.131163 
L 260.250025 201.774953 
L 263.452705 215.241702 
L 274.197779 261.195607 
L 277.412826 273.558969 
L 278.21062 276.48 
L 278.21062 276.48 
" style="fill:none;stroke:#de8f05;stroke-linecap:square;stroke-width:4;"/>
   </g>
   <g id="line2d_4">
    <path clip-path="url(#pe1c19a395d)" d="M 118.580126 130.676402 
L 136.434352 131.377409 
L 154.099 132.304147 
L 167.235099 133.221873 
L 177.394845 134.130656 
L 187.268847 135.254161 
L 194.979559 136.363928 
L 201.175607 137.460088 
L 207.182338 138.757697 
L 212.057573 140.036117 
L 216.708572 141.503642 
L 220.536397 142.945686 
L 224.166535 144.562967 
L 227.200531 146.147906 
L 230.07699 147.892914 
L 232.767916 149.785368 
L 235.264013 151.81167 
L 237.568336 153.957372 
L 239.841442 156.377209 
L 242.030482 159.035558 
L 244.213356 162.048418 
L 246.418329 165.494051 
L 248.645663 169.403769 
L 251.063162 174.116197 
L 254.08503 180.540539 
L 255.15 182.88 
L 255.15 182.88 
L 257.420698 209.137376 
L 261.189633 255.897715 
L 264.449296 295.17436 
L 266.684481 319.466946 
L 268.627787 338.237889 
L 270.423183 353.515447 
L 271.398947 361 
L 271.398947 361 
" style="fill:none;stroke:#de8f05;stroke-dasharray:6,6;stroke-dashoffset:0;stroke-width:4;"/>
   </g>
   <g id="line2d_5">
    <path clip-path="url(#pe1c19a395d)" d="M 117.22926 158.409412 
L 144.212949 158.990247 
L 164.911574 159.651359 
L 180.979325 160.391688 
L 193.630074 161.210059 
L 202.940668 162.024026 
L 210.725472 162.914344 
L 217.277273 163.879626 
L 222.834905 164.91838 
L 227.590035 166.029018 
L 231.695385 167.20986 
L 235.272423 168.459141 
L 238.586003 169.852058 
L 241.491531 171.308169 
L 244.186802 172.900856 
L 246.681686 174.625436 
L 249.078854 176.550492 
L 251.363202 178.667643 
L 253.596795 181.039153 
L 255.817219 183.721558 
L 258.04817 186.764585 
L 260.347905 190.276683 
L 262.825336 194.478847 
L 265.544464 199.553327 
L 268.659517 205.870984 
L 272.469308 214.135565 
L 278.656998 228.185546 
L 286.822337 246.609202 
L 291.88533 257.470728 
L 296.449284 266.745074 
L 300.802198 275.094266 
L 301.550576 276.48 
L 301.550576 276.48 
" style="fill:none;stroke:#029e73;stroke-linecap:square;stroke-width:4;"/>
   </g>
   <g id="line2d_6">
    <path clip-path="url(#pe1c19a395d)" d="M 117.22926 176.042822 
L 152.928199 176.493779 
L 177.879918 177.011656 
L 196.706279 177.62401 
L 210.098909 178.272095 
L 220.850957 179.007145 
L 229.885797 179.849229 
L 237.903196 180.822656 
L 253.596795 182.839944 
L 255.15 182.88 
L 255.15 182.88 
L 257.072295 192.920188 
L 259.324597 205.951409 
L 261.933923 222.511404 
L 265.544464 247.098022 
L 271.55883 288.146907 
L 274.508446 306.637689 
L 277.077402 321.38074 
L 279.514192 334.099621 
L 281.848279 345.131746 
L 284.179403 355.078042 
L 285.693491 361 
L 285.693491 361 
" style="fill:none;stroke:#029e73;stroke-dasharray:6,6;stroke-dashoffset:0;stroke-width:4;"/>
   </g>
   <g id="line2d_7">
    <path clip-path="url(#pe1c19a395d)" d="M 113.930564 176.314947 
L 158.598825 176.697512 
L 186.378204 177.137669 
L 205.010857 177.634884 
L 218.796117 178.217639 
L 228.825771 178.855933 
L 236.724938 179.57781 
L 243.075582 180.381981 
L 248.29919 181.26702 
L 252.697943 182.231371 
L 256.116772 183.161081 
L 259.522227 184.279801 
L 263.025497 185.665714 
L 266.512918 187.310769 
L 269.948622 189.205563 
L 273.338197 191.339475 
L 277.056533 193.960654 
L 281.027944 197.040228 
L 285.793392 201.038575 
L 291.46859 206.107941 
L 299.341938 213.467143 
L 329.531045 241.972405 
L 338.595031 250.083659 
L 347.181123 257.470728 
L 355.362996 264.222064 
L 363.537233 270.678347 
L 371.216812 276.48 
L 371.216812 276.48 
" style="fill:none;stroke:#d55e00;stroke-linecap:square;stroke-width:4;"/>
   </g>
   <g id="line2d_8">
    <path clip-path="url(#pe1c19a395d)" d="M 113.930564 180.768533 
L 153.460524 181.327379 
L 181.969754 181.953469 
L 204.13915 182.659055 
L 228.060464 183.667218 
L 239.461597 184.047016 
L 245.274168 184.023527 
L 249.298123 183.796951 
L 252.583077 183.394311 
L 255.15 182.88 
L 255.15 182.88 
L 257.032495 185.61719 
L 259.522227 189.72627 
L 261.7043 193.81954 
L 264.259183 199.220971 
L 266.512918 204.527483 
L 269.020801 210.991286 
L 272.120014 219.676078 
L 275.988313 231.29409 
L 291.209428 277.910203 
L 295.497503 289.897097 
L 299.341938 300.009725 
L 303.268141 309.707716 
L 307.062071 318.485274 
L 310.746199 326.470781 
L 314.545705 334.177583 
L 318.255598 341.212819 
L 322.087191 348.001452 
L 325.842744 354.214539 
L 329.723446 360.206926 
L 330.258071 361 
L 330.258071 361 
" style="fill:none;stroke:#d55e00;stroke-dasharray:6,6;stroke-dashoffset:0;stroke-width:4;"/>
   </g>
   <g id="line2d_9">
    <path clip-path="url(#pe1c19a395d)" d="M 117.996821 180.796641 
L 184.313725 181.067656 
L 215.423409 181.395034 
L 233.702679 181.792558 
L 245.625079 182.259634 
L 254.277674 182.809642 
L 260.949662 183.4416 
L 267.215716 184.279801 
L 271.943197 185.113002 
L 276.98146 186.216238 
L 282.155247 187.583054 
L 287.44248 189.205563 
L 293.60007 191.339475 
L 300.453412 193.960654 
L 308.515842 197.293688 
L 318.154856 201.529953 
L 330.651676 207.286221 
L 349.217625 216.119576 
L 387.839445 234.539853 
L 406 242.919285 
L 406 242.919285 
" style="fill:none;stroke:#cc78bc;stroke-linecap:square;stroke-width:4;"/>
   </g>
   <g id="line2d_10">
    <path clip-path="url(#pe1c19a395d)" d="M 117.996821 179.645206 
L 154.90151 180.225336 
L 182.241289 180.870402 
L 204.852732 181.630525 
L 226.664587 182.603471 
L 241.989786 183.231158 
L 248.232035 183.273878 
L 252.791499 183.090042 
L 255.15 182.88 
L 255.15 182.88 
L 258.278227 184.387078 
L 260.949662 185.903686 
L 263.28058 187.425095 
L 265.350513 188.947159 
L 268.917118 191.97964 
L 271.943197 194.979396 
L 274.596869 197.932267 
L 278.094783 202.256323 
L 281.190345 206.443878 
L 284.893359 211.813085 
L 289.845103 219.432147 
L 297.117377 231.110347 
L 311.438882 254.198485 
L 318.698136 265.45274 
L 325.053854 274.926112 
L 331.151181 283.643222 
L 337.037538 291.698047 
L 343.215516 299.765297 
L 349.217625 307.225539 
L 355.068173 314.145889 
L 360.786198 320.583067 
L 366.813328 327.030513 
L 372.719982 333.025685 
L 378.929322 338.997898 
L 385.028066 344.549702 
L 391.027164 349.722209 
L 397.326822 354.861746 
L 403.533316 359.648353 
L 405.350598 361 
L 405.350598 361 
" style="fill:none;stroke:#cc78bc;stroke-dasharray:6,6;stroke-dashoffset:0;stroke-width:4;"/>
   </g>
   <g id="patch_3">
    <path d="M 113.4 295.2 
L 113.4 14.4 
" style="fill:none;stroke:#000000;stroke-linecap:square;stroke-linejoin:miter;"/>
   </g>
   <g id="patch_4">
    <path d="M 396.9 295.2 
L 396.9 14.4 
" style="fill:none;stroke:#000000;stroke-linecap:square;stroke-linejoin:miter;"/>
   </g>
   <g id="patch_5">
    <path d="M 113.4 295.2 
L 396.9 295.2 
" style="fill:none;stroke:#000000;stroke-linecap:square;stroke-linejoin:miter;"/>
   </g>
   <g id="patch_6">
    <path d="M 113.4 14.4 
L 396.9 14.4 
" style="fill:none;stroke:#000000;stroke-linecap:square;stroke-linejoin:miter;"/>
   </g>
   <g id="matplotlib.axis_1">
    <g id="xtick_1">
     <g id="line2d_11">
      <defs>
       <path d="M 0 0 
L 0 -10 
" id="m2d6102d8f5" style="stroke:#000000;stroke-width:0.5;"/>
      </defs>
      <g>
       <use style="stroke:#000000;stroke-width:0.5;" x="113.4" xlink:href="#m2d6102d8f5" y="295.2"/>
      </g>
     </g>
     <g id="line2d_12">
      <defs>
       <path d="M 0 0 
L 0 10 
" id="mc8b17d486e" style="stroke:#000000;stroke-width:0.5;"/>
      </defs>
      <g>
       <use style="stroke:#000000;stroke-width:0.5;" x="113.4" xlink:href="#mc8b17d486e" y="14.4"/>
      </g>
     </g>
    </g>
    <g id="xtick_2">
     <g id="line2d_13">
      <g>
       <use style="stroke:#000000;stroke-width:0.5;" x="141.75" xlink:href="#m2d6102d8f5" y="295.2"/>
      </g>
     </g>
     <g id="line2d_14">
      <g>
       <use style="stroke:#000000;stroke-width:0.5;" x="141.75" xlink:href="#mc8b17d486e" y="14.4"/>
      </g>
     </g>
     <g id="text_1">
      <!-- $-8$ -->
      <defs>
       <path d="M 65.90625 23 
C 67.59375 23 69.40625 23 69.40625 25 
C 69.40625 27 67.59375 27 65.90625 27 
L 11.796875 27 
C 10.09375 27 8.296875 27 8.296875 25 
C 8.296875 23 10.09375 23 11.796875 23 
z
" id="CMSY10-0"/>
       <path d="M 27.203125 35.375 
C 33.5 38.546875 39.90625 43.328125 39.90625 50.984375 
C 39.90625 60.015625 31.09375 65.296875 23 65.296875 
C 13.90625 65.296875 5.90625 58.734375 5.90625 49.6875 
C 5.90625 47.203125 6.5 42.921875 10.40625 39.140625 
C 11.40625 38.15625 15.59375 35.171875 18.296875 33.28125 
C 13.796875 30.984375 3.296875 25.53125 3.296875 14.59375 
C 3.296875 4.359375 13.09375 -2 22.796875 -2 
C 33.5 -2 42.5 5.65625 42.5 15.78125 
C 42.5 24.84375 36.40625 29.015625 32.40625 31.703125 
z
M 14.09375 44.09375 
C 13.296875 44.59375 9.296875 47.671875 9.296875 52.359375 
C 9.296875 58.421875 15.59375 63 22.796875 63 
C 30.703125 63 36.5 57.4375 36.5 50.96875 
C 36.5 41.703125 26.09375 36.421875 25.59375 36.421875 
C 25.5 36.421875 25.40625 36.421875 24.59375 37.03125 
z
M 32.5 23.734375 
C 34 22.640625 38.796875 19.375 38.796875 13.296875 
C 38.796875 5.953125 31.40625 0.390625 23 0.390625 
C 13.90625 0.390625 7 6.84375 7 14.6875 
C 7 22.546875 13.09375 29.09375 20 32.1875 
z
" id="CMR17-56"/>
      </defs>
      <g transform="translate(123.273313 320.494961)scale(0.3 -0.3)">
       <use transform="scale(0.996264)" xlink:href="#CMSY10-0"/>
       <use transform="translate(77.487468 0)scale(0.996264)" xlink:href="#CMR17-56"/>
      </g>
     </g>
    </g>
    <g id="xtick_3">
     <g id="line2d_15">
      <g>
       <use style="stroke:#000000;stroke-width:0.5;" x="170.1" xlink:href="#m2d6102d8f5" y="295.2"/>
      </g>
     </g>
     <g id="line2d_16">
      <g>
       <use style="stroke:#000000;stroke-width:0.5;" x="170.1" xlink:href="#mc8b17d486e" y="14.4"/>
      </g>
     </g>
    </g>
    <g id="xtick_4">
     <g id="line2d_17">
      <g>
       <use style="stroke:#000000;stroke-width:0.5;" x="198.45" xlink:href="#m2d6102d8f5" y="295.2"/>
      </g>
     </g>
     <g id="line2d_18">
      <g>
       <use style="stroke:#000000;stroke-width:0.5;" x="198.45" xlink:href="#mc8b17d486e" y="14.4"/>
      </g>
     </g>
     <g id="text_2">
      <!-- $-4$ -->
      <defs>
       <path d="M 33.59375 64.40625 
C 33.59375 66.5 33.5 66.5 31.703125 66.5 
L 2 19.59375 
L 2 17 
L 27.796875 17 
L 27.796875 7.140625 
C 27.796875 3.5 27.59375 2.5 20.59375 2.5 
L 18.703125 2.5 
L 18.703125 0 
C 21.90625 0 27.296875 0 30.703125 0 
C 34.09375 0 39.5 0 42.703125 0 
L 42.703125 2.5 
L 40.796875 2.5 
C 33.796875 2.5 33.59375 3.5 33.59375 7.140625 
L 33.59375 17 
L 43.796875 17 
L 43.796875 19.59375 
L 33.59375 19.59375 
z
M 28.09375 57.859375 
L 28.09375 19.59375 
L 4 19.59375 
z
" id="CMR17-52"/>
      </defs>
      <g transform="translate(179.973313 320.494961)scale(0.3 -0.3)">
       <use transform="scale(0.996264)" xlink:href="#CMSY10-0"/>
       <use transform="translate(77.487468 0)scale(0.996264)" xlink:href="#CMR17-52"/>
      </g>
     </g>
    </g>
    <g id="xtick_5">
     <g id="line2d_19">
      <g>
       <use style="stroke:#000000;stroke-width:0.5;" x="226.8" xlink:href="#m2d6102d8f5" y="295.2"/>
      </g>
     </g>
     <g id="line2d_20">
      <g>
       <use style="stroke:#000000;stroke-width:0.5;" x="226.8" xlink:href="#mc8b17d486e" y="14.4"/>
      </g>
     </g>
    </g>
    <g id="xtick_6">
     <g id="line2d_21">
      <g>
       <use style="stroke:#000000;stroke-width:0.5;" x="255.15" xlink:href="#m2d6102d8f5" y="295.2"/>
      </g>
     </g>
     <g id="line2d_22">
      <g>
       <use style="stroke:#000000;stroke-width:0.5;" x="255.15" xlink:href="#mc8b17d486e" y="14.4"/>
      </g>
     </g>
     <g id="text_3">
      <!-- $0$ -->
      <defs>
       <path d="M 42 31.640625 
C 42 37.75 41.90625 48.125 37.703125 56.109375 
C 34 63.109375 28.09375 65.59375 22.90625 65.59375 
C 18.09375 65.59375 12 63.40625 8.203125 56.203125 
C 4.203125 48.71875 3.796875 39.4375 3.796875 31.640625 
C 3.796875 25.953125 3.90625 17.28125 7 9.671875 
C 11.296875 -0.609375 19 -2 22.90625 -2 
C 27.5 -2 34.5 -0.109375 38.59375 9.375 
C 41.59375 16.28125 42 24.359375 42 31.640625 
z
M 22.90625 -0.40625 
C 16.5 -0.40625 12.703125 5.078125 11.296875 12.6875 
C 10.203125 18.5625 10.203125 27.15625 10.203125 32.75 
C 10.203125 40.4375 10.203125 46.828125 11.5 52.921875 
C 13.40625 61.390625 19 64 22.90625 64 
C 27 64 32.296875 61.296875 34.203125 53.125 
C 35.5 47.4375 35.59375 40.734375 35.59375 32.75 
C 35.59375 26.25 35.59375 18.265625 34.40625 12.375 
C 32.296875 1.484375 26.40625 -0.40625 22.90625 -0.40625 
z
" id="CMR17-48"/>
      </defs>
      <g transform="translate(248.296428 320.494961)scale(0.3 -0.3)">
       <use transform="scale(0.996264)" xlink:href="#CMR17-48"/>
      </g>
     </g>
    </g>
    <g id="xtick_7">
     <g id="line2d_23">
      <g>
       <use style="stroke:#000000;stroke-width:0.5;" x="283.5" xlink:href="#m2d6102d8f5" y="295.2"/>
      </g>
     </g>
     <g id="line2d_24">
      <g>
       <use style="stroke:#000000;stroke-width:0.5;" x="283.5" xlink:href="#mc8b17d486e" y="14.4"/>
      </g>
     </g>
    </g>
    <g id="xtick_8">
     <g id="line2d_25">
      <g>
       <use style="stroke:#000000;stroke-width:0.5;" x="311.85" xlink:href="#m2d6102d8f5" y="295.2"/>
      </g>
     </g>
     <g id="line2d_26">
      <g>
       <use style="stroke:#000000;stroke-width:0.5;" x="311.85" xlink:href="#mc8b17d486e" y="14.4"/>
      </g>
     </g>
     <g id="text_4">
      <!-- $4$ -->
      <g transform="translate(304.996428 320.494961)scale(0.3 -0.3)">
       <use transform="scale(0.996264)" xlink:href="#CMR17-52"/>
      </g>
     </g>
    </g>
    <g id="xtick_9">
     <g id="line2d_27">
      <g>
       <use style="stroke:#000000;stroke-width:0.5;" x="340.2" xlink:href="#m2d6102d8f5" y="295.2"/>
      </g>
     </g>
     <g id="line2d_28">
      <g>
       <use style="stroke:#000000;stroke-width:0.5;" x="340.2" xlink:href="#mc8b17d486e" y="14.4"/>
      </g>
     </g>
    </g>
    <g id="xtick_10">
     <g id="line2d_29">
      <g>
       <use style="stroke:#000000;stroke-width:0.5;" x="368.55" xlink:href="#m2d6102d8f5" y="295.2"/>
      </g>
     </g>
     <g id="line2d_30">
      <g>
       <use style="stroke:#000000;stroke-width:0.5;" x="368.55" xlink:href="#mc8b17d486e" y="14.4"/>
      </g>
     </g>
     <g id="text_5">
      <!-- $8$ -->
      <g transform="translate(361.696428 320.494961)scale(0.3 -0.3)">
       <use transform="scale(0.996264)" xlink:href="#CMR17-56"/>
      </g>
     </g>
    </g>
    <g id="xtick_11">
     <g id="line2d_31">
      <g>
       <use style="stroke:#000000;stroke-width:0.5;" x="396.9" xlink:href="#m2d6102d8f5" y="295.2"/>
      </g>
     </g>
     <g id="line2d_32">
      <g>
       <use style="stroke:#000000;stroke-width:0.5;" x="396.9" xlink:href="#mc8b17d486e" y="14.4"/>
      </g>
     </g>
    </g>
    <g id="text_6">
     <!-- $\tilde{\lambda} \tilde{L}$ -->
     <defs>
      <path d="M 37.5 65.375 
C 34.09375 62.1875 32.203125 60.390625 29.09375 60.390625 
C 26.90625 60.390625 25.40625 61.4375 23.296875 62.875 
C 21.296875 64.234375 19.703125 65.375 17.5 65.375 
C 13.90625 65.375 11.40625 62.5625 7.203125 58.09375 
L 8.296875 57 
C 11.703125 60.15625 13.59375 62 16.703125 62 
C 18.90625 62 20.40625 60.9375 22.5 59.5 
C 24.5 58.15625 26.09375 57 28.296875 57 
C 31.90625 57 34.40625 59.8125 38.59375 64.28125 
z
" id="CMR17-126"/>
      <path d="M 30.90625 61.953125 
C 28.40625 69 20.5 69 19.203125 69 
C 18.59375 69 17.5 69 17.5 68 
C 17.5 67.21875 18.09375 67.109375 18.59375 67.015625 
C 20.09375 66.8125 21.296875 66.609375 22.90625 63.75 
C 23.90625 61.859375 34.203125 32.171875 34.203125 31.96875 
C 34.203125 31.875 34.09375 31.765625 33.296875 30.96875 
L 7.296875 4.859375 
C 6.09375 3.65625 5.296875 2.859375 5.296875 1.59375 
C 5.296875 0.1875 6.5 -1 8.09375 -1 
C 8.5 -1 9.59375 -0.796875 10.203125 -0.203125 
C 11.796875 1.28125 26.09375 18.65625 35.203125 29.390625 
C 37.796875 21.609375 41 12.453125 44.09375 4.078125 
C 44.59375 2.59375 45.09375 1.1875 46.5 -0.09375 
C 47.5 -1 47.703125 -1 50.5 -1 
L 52.40625 -1 
C 52.796875 -1 53.5 -1 53.5 -0.203125 
C 53.5 0.203125 53.40625 0.296875 53 0.703125 
C 52.09375 1.796875 51.40625 3.578125 51 4.78125 
z
" id="CMMI12-21"/>
      <path d="M 36.703125 60.328125 
C 37.59375 64.109375 37.90625 65.109375 46.703125 65.109375 
C 49.40625 65.109375 50.09375 65.109375 50.09375 67 
C 50.09375 68 49 68 48.59375 68 
C 46.59375 68 44.296875 68 42.296875 68 
L 28.90625 68 
C 27 68 24.796875 68 22.90625 68 
C 22.09375 68 21 68 21 66.109375 
C 21 65.109375 21.90625 65.109375 23.40625 65.109375 
C 29.5 65.109375 29.5 64.3125 29.5 63.21875 
C 29.5 63.03125 29.5 62.421875 29.09375 60.921875 
L 15.59375 7.375 
C 14.703125 3.890625 14.5 2.890625 7.5 2.890625 
C 5.59375 2.890625 4.59375 2.890625 4.59375 1.09375 
C 4.59375 0 5.203125 0 7.203125 0 
L 52 0 
C 54.203125 0 54.296875 0.09375 55 1.890625 
L 62.703125 23.09375 
C 62.90625 23.59375 63.09375 24.1875 63.09375 24.484375 
C 63.09375 25.078125 62.59375 25.484375 62.09375 25.484375 
C 62 25.484375 61.5 25.484375 61.296875 25.078125 
C 61.09375 24.984375 61.09375 24.78125 60.296875 22.890625 
C 57.09375 14.140625 52.59375 2.890625 35.703125 2.890625 
L 26.09375 2.890625 
C 24.703125 2.890625 24.5 2.890625 23.90625 3 
C 22.796875 3.09375 22.703125 3.296875 22.703125 4.09375 
C 22.703125 4.796875 22.90625 5.390625 23.09375 6.265625 
z
" id="CMMI12-76"/>
     </defs>
     <g transform="translate(236.658757 353.155881)scale(0.3 -0.3)">
      <use transform="translate(5.606797 26.296621)scale(0.996264)" xlink:href="#CMR17-126"/>
      <use transform="scale(0.996264)" xlink:href="#CMMI12-21"/>
      <use transform="translate(69.953996 25.189733)scale(0.996264)" xlink:href="#CMR17-126"/>
      <use transform="translate(56.904072 0)scale(0.996264)" xlink:href="#CMMI12-76"/>
     </g>
    </g>
   </g>
   <g id="matplotlib.axis_2">
    <g id="ytick_1">
     <g id="line2d_33">
      <defs>
       <path d="M 0 0 
L 10 0 
" id="ma2af8da291" style="stroke:#000000;stroke-width:0.5;"/>
      </defs>
      <g>
       <use style="stroke:#000000;stroke-width:0.5;" x="113.4" xlink:href="#ma2af8da291" y="295.2"/>
      </g>
     </g>
     <g id="line2d_34">
      <defs>
       <path d="M 0 0 
L -10 0 
" id="m6cedf128a2" style="stroke:#000000;stroke-width:0.5;"/>
      </defs>
      <g>
       <use style="stroke:#000000;stroke-width:0.5;" x="396.9" xlink:href="#m6cedf128a2" y="295.2"/>
      </g>
     </g>
     <g id="text_7">
      <!-- $-0.4$ -->
      <defs>
       <path d="M 18.40625 4.796875 
C 18.40625 7.6875 16 9.671875 13.59375 9.671875 
C 10.703125 9.671875 8.703125 7.28125 8.703125 4.890625 
C 8.703125 2 11.09375 0 13.5 0 
C 16.40625 0 18.40625 2.390625 18.40625 4.796875 
z
" id="CMMI12-58"/>
      </defs>
      <g transform="translate(50.610329 302.664501)scale(0.3 -0.3)">
       <use transform="scale(0.996264)" xlink:href="#CMSY10-0"/>
       <use transform="translate(77.487468 0)scale(0.996264)" xlink:href="#CMR17-48"/>
       <use transform="translate(123.177945 0)scale(0.996264)" xlink:href="#CMMI12-58"/>
       <use transform="translate(150.275122 0)scale(0.996264)" xlink:href="#CMR17-52"/>
      </g>
     </g>
    </g>
    <g id="ytick_2">
     <g id="line2d_35">
      <g>
       <use style="stroke:#000000;stroke-width:0.5;" x="113.4" xlink:href="#ma2af8da291" y="239.04"/>
      </g>
     </g>
     <g id="line2d_36">
      <g>
       <use style="stroke:#000000;stroke-width:0.5;" x="396.9" xlink:href="#m6cedf128a2" y="239.04"/>
      </g>
     </g>
     <g id="text_8">
      <!-- $-0.2$ -->
      <defs>
       <path d="M 41.703125 15.453125 
L 39.90625 15.453125 
C 38.90625 8.375 38.09375 7.171875 37.703125 6.5625 
C 37.203125 5.765625 30 5.765625 28.59375 5.765625 
L 9.40625 5.765625 
C 13 9.671875 20 16.75 28.5 24.953125 
C 34.59375 30.734375 41.703125 37.53125 41.703125 47.421875 
C 41.703125 59.21875 32.296875 66 21.796875 66 
C 10.796875 66 4.09375 56.3125 4.09375 47.34375 
C 4.09375 43.4375 7 42.9375 8.203125 42.9375 
C 9.203125 42.9375 12.203125 43.546875 12.203125 47.03125 
C 12.203125 50.109375 9.59375 51 8.203125 51 
C 7.59375 51 7 50.90625 6.59375 50.703125 
C 8.5 59.21875 14.296875 63.40625 20.40625 63.40625 
C 29.09375 63.40625 34.796875 56.515625 34.796875 47.421875 
C 34.796875 38.734375 29.703125 31.25 24 24.75 
L 4.09375 2.28125 
L 4.09375 0 
L 39.296875 0 
z
" id="CMR17-50"/>
      </defs>
      <g transform="translate(50.610329 246.504501)scale(0.3 -0.3)">
       <use transform="scale(0.996264)" xlink:href="#CMSY10-0"/>
       <use transform="translate(77.487468 0)scale(0.996264)" xlink:href="#CMR17-48"/>
       <use transform="translate(123.177945 0)scale(0.996264)" xlink:href="#CMMI12-58"/>
       <use transform="translate(150.275122 0)scale(0.996264)" xlink:href="#CMR17-50"/>
      </g>
     </g>
    </g>
    <g id="ytick_3">
     <g id="line2d_37">
      <g>
       <use style="stroke:#000000;stroke-width:0.5;" x="113.4" xlink:href="#ma2af8da291" y="182.88"/>
      </g>
     </g>
     <g id="line2d_38">
      <g>
       <use style="stroke:#000000;stroke-width:0.5;" x="396.9" xlink:href="#m6cedf128a2" y="182.88"/>
      </g>
     </g>
     <g id="text_9">
      <!-- $0.0$ -->
      <g transform="translate(73.856561 190.344501)scale(0.3 -0.3)">
       <use transform="scale(0.996264)" xlink:href="#CMR17-48"/>
       <use transform="translate(45.690477 0)scale(0.996264)" xlink:href="#CMMI12-58"/>
       <use transform="translate(72.787654 0)scale(0.996264)" xlink:href="#CMR17-48"/>
      </g>
     </g>
    </g>
    <g id="ytick_4">
     <g id="line2d_39">
      <g>
       <use style="stroke:#000000;stroke-width:0.5;" x="113.4" xlink:href="#ma2af8da291" y="126.72"/>
      </g>
     </g>
     <g id="line2d_40">
      <g>
       <use style="stroke:#000000;stroke-width:0.5;" x="396.9" xlink:href="#m6cedf128a2" y="126.72"/>
      </g>
     </g>
     <g id="text_10">
      <!-- $0.2$ -->
      <g transform="translate(73.856561 134.184501)scale(0.3 -0.3)">
       <use transform="scale(0.996264)" xlink:href="#CMR17-48"/>
       <use transform="translate(45.690477 0)scale(0.996264)" xlink:href="#CMMI12-58"/>
       <use transform="translate(72.787654 0)scale(0.996264)" xlink:href="#CMR17-50"/>
      </g>
     </g>
    </g>
    <g id="ytick_5">
     <g id="line2d_41">
      <g>
       <use style="stroke:#000000;stroke-width:0.5;" x="113.4" xlink:href="#ma2af8da291" y="70.56"/>
      </g>
     </g>
     <g id="line2d_42">
      <g>
       <use style="stroke:#000000;stroke-width:0.5;" x="396.9" xlink:href="#m6cedf128a2" y="70.56"/>
      </g>
     </g>
     <g id="text_11">
      <!-- $0.4$ -->
      <g transform="translate(73.856561 78.024501)scale(0.3 -0.3)">
       <use transform="scale(0.996264)" xlink:href="#CMR17-48"/>
       <use transform="translate(45.690477 0)scale(0.996264)" xlink:href="#CMMI12-58"/>
       <use transform="translate(72.787654 0)scale(0.996264)" xlink:href="#CMR17-52"/>
      </g>
     </g>
    </g>
    <g id="ytick_6">
     <g id="line2d_43">
      <g>
       <use style="stroke:#000000;stroke-width:0.5;" x="113.4" xlink:href="#ma2af8da291" y="14.4"/>
      </g>
     </g>
     <g id="line2d_44">
      <g>
       <use style="stroke:#000000;stroke-width:0.5;" x="396.9" xlink:href="#m6cedf128a2" y="14.4"/>
      </g>
     </g>
     <g id="text_12">
      <!-- $0.6$ -->
      <defs>
       <path d="M 10.59375 34 
C 10.59375 57.65625 21.796875 63 28.296875 63 
C 30.40625 63 35.5 62.640625 37.5 59 
C 35.90625 59 32.90625 59 32.90625 55.515625 
C 32.90625 52.828125 35.09375 51.921875 36.5 51.921875 
C 37.40625 51.921875 40.09375 52.3125 40.09375 55.625 
C 40.09375 61.78125 35.09375 65.296875 28.203125 65.296875 
C 16.296875 65.296875 3.796875 52.96875 3.796875 31 
C 3.796875 3.953125 15.09375 -2 23.09375 -2 
C 32.796875 -2 42 6.671875 42 20.046875 
C 42 32.515625 33.90625 41.59375 23.703125 41.59375 
C 17.59375 41.59375 13.09375 37.609375 10.59375 30.625 
z
M 23.09375 0.390625 
C 10.796875 0.390625 10.796875 18.75 10.796875 22.4375 
C 10.796875 29.625 14.203125 40 23.5 40 
C 25.203125 40 30.09375 40 33.40625 33.125 
C 35.203125 29.21875 35.203125 25.140625 35.203125 20.140625 
C 35.203125 14.75 35.203125 10.78125 33.09375 6.78125 
C 30.90625 2.671875 27.703125 0.390625 23.09375 0.390625 
z
" id="CMR17-54"/>
      </defs>
      <g transform="translate(73.856561 21.864501)scale(0.3 -0.3)">
       <use transform="scale(0.996264)" xlink:href="#CMR17-48"/>
       <use transform="translate(45.690477 0)scale(0.996264)" xlink:href="#CMMI12-58"/>
       <use transform="translate(72.787654 0)scale(0.996264)" xlink:href="#CMR17-54"/>
      </g>
     </g>
    </g>
    <g id="text_13">
     <!-- $\nu^{\rm RTP}(\tilde{\lambda})$ -->
     <defs>
      <path d="M 22 43.015625 
C 22 43.40625 21.703125 44 20.90625 44 
C 20.203125 44 10.796875 42.984375 9.296875 42.984375 
C 8.203125 42.875 7.203125 42.78125 7.203125 40.984375 
C 7.203125 40 8 40 9.40625 40 
C 14.09375 40 14.40625 39.296875 14.40625 38.203125 
C 14.40625 37.796875 14.203125 36.609375 14.09375 36.21875 
L 5.296875 1 
C 5.296875 0.59375 5.59375 0 6.296875 0 
L 8.40625 0 
C 9.796875 0 25 3.59375 36.703125 15.5625 
C 49.59375 28.84375 51.40625 41.125 51.40625 41.515625 
C 51.40625 43.109375 50.09375 44 48.796875 44 
C 45.90625 44 45.203125 41.3125 45 40.609375 
C 39.09375 19.75 25.40625 7.390625 12.09375 3 
z
" id="CMMI12-23"/>
      <path d="M 39.203125 33.53125 
C 48.703125 35.4375 56.703125 41.8125 56.703125 49.78125 
C 56.703125 59.140625 46.09375 67.59375 32.09375 67.59375 
L 5.203125 67.59375 
L 5.203125 65 
C 12.09375 65 13.203125 65 13.203125 60.515625 
L 13.203125 6.484375 
C 13.203125 2 12.09375 2 5.203125 2 
L 5.203125 -0.40625 
C 8.09375 -0.40625 13.296875 -0.40625 16.40625 -0.40625 
C 19.5 -0.40625 24.703125 -0.40625 27.59375 -0.40625 
L 27.59375 2 
C 20.703125 2 19.59375 2 19.59375 6.515625 
L 19.59375 33 
L 31.296875 33 
C 37 33 40.203125 30.6875 41.59375 29.390625 
C 45.59375 25.5 45.59375 22.796875 45.59375 16 
C 45.59375 9.296875 45.59375 5.890625 48.59375 2.5 
C 52.40625 -1.59375 57.5 -2 59.703125 -2 
C 67.09375 -2 68.203125 6.1875 68.203125 7.859375 
C 68.203125 8.4375 68.203125 9.140625 67.296875 9.140625 
C 66.5 9.140625 66.40625 8.546875 66.40625 8.15625 
C 65.90625 1.75 63 -0.40625 59.90625 -0.40625 
C 54.40625 -0.40625 53.796875 5.859375 53.203125 11.9375 
C 52.90625 14.03125 52.703125 15.515625 52.5 17.703125 
C 51.90625 22.6875 51.09375 29.953125 39.203125 33.53125 
z
M 31 34.59375 
L 19.59375 34.59375 
L 19.59375 61.140625 
C 19.59375 64.515625 19.796875 65 23.796875 65 
L 31.09375 65 
C 39.40625 65 49.09375 62.140625 49.09375 49.84375 
C 49.09375 37.0625 38.5 34.59375 31 34.59375 
z
" id="CMR17-82"/>
      <path d="M 62.203125 67.59375 
L 4.5 67.59375 
L 2.796875 45.59375 
L 4.59375 45.59375 
C 5.90625 62.125 7.296875 65 22.703125 65 
C 24.5 65 27.40625 65 28.203125 64.90625 
C 30.09375 64.609375 30.09375 63.40625 30.09375 61.125 
L 30.09375 7.171875 
C 30.09375 3.59375 29.796875 2.5 21.5 2.5 
L 18.703125 2.5 
L 18.703125 0 
C 23.5 0 28.5 0 33.40625 0 
C 38.296875 0 43.296875 0 48.09375 0 
L 48.09375 2.5 
L 45.296875 2.5 
C 37 2.5 36.703125 3.59375 36.703125 7.171875 
L 36.703125 61.125 
C 36.703125 63.3125 36.703125 64.515625 38.5 64.90625 
C 39.296875 65 42.203125 65 44 65 
C 59.296875 65 60.796875 62.125 62.09375 45.59375 
L 63.90625 45.59375 
z
" id="CMR17-84"/>
      <path d="M 19.796875 31.90625 
L 35.796875 31.90625 
C 48.703125 31.90625 58.09375 40.28125 58.09375 49.75 
C 58.09375 59.234375 48.90625 68 35.796875 68 
L 5.203125 68 
L 5.203125 65.40625 
C 12.09375 65.40625 13.203125 65.40625 13.203125 60.921875 
L 13.203125 6.96875 
C 13.203125 2.5 12.09375 2.5 5.203125 2.5 
L 5.203125 0 
C 8.09375 0 13.40625 0 16.5 0 
C 19.59375 0 24.90625 0 27.796875 0 
L 27.796875 2.5 
C 20.90625 2.5 19.796875 2.5 19.796875 6.96875 
z
M 19.59375 34 
L 19.59375 61.53125 
C 19.59375 64.921875 19.796875 65.40625 23.796875 65.40625 
L 33.90625 65.40625 
C 46.796875 65.40625 50.5 58.03125 50.5 49.75 
C 50.5 40.6875 46.09375 34 33.90625 34 
z
" id="CMR17-80"/>
      <path d="M 30.59375 -24.390625 
C 30.59375 -24.296875 30.59375 -24.09375 30.296875 -23.796875 
C 25.703125 -19.125 13.40625 -6.359375 13.40625 24.703125 
C 13.40625 55.765625 25.5 68.421875 30.40625 73.390625 
C 30.40625 73.5 30.59375 73.703125 30.59375 74 
C 30.59375 74.296875 30.296875 74.5 29.90625 74.5 
C 28.796875 74.5 20.296875 67.125 15.40625 56.15625 
C 10.40625 45.109375 9 34.359375 9 24.8125 
C 9 17.625 9.703125 5.484375 15.703125 -7.359375 
C 20.5 -17.734375 28.703125 -25 29.90625 -25 
C 30.40625 -25 30.59375 -24.796875 30.59375 -24.390625 
z
" id="CMR17-40"/>
      <path d="M 26.296875 24.703125 
C 26.296875 31.875 25.59375 44.015625 19.59375 56.859375 
C 14.796875 67.234375 6.59375 74.5 5.40625 74.5 
C 5.09375 74.5 4.703125 74.390625 4.703125 73.890625 
C 4.703125 73.703125 4.796875 73.59375 4.90625 73.390625 
C 9.703125 68.40625 21.90625 55.75 21.90625 24.75 
C 21.90625 -6.359375 9.796875 -19.015625 4.90625 -24.015625 
C 4.796875 -24.203125 4.703125 -24.3125 4.703125 -24.5 
C 4.703125 -25 5.09375 -25 5.40625 -25 
C 6.5 -25 15 -17.625 19.90625 -6.65625 
C 24.90625 4.390625 26.296875 15.140625 26.296875 24.703125 
z
" id="CMR17-41"/>
     </defs>
     <g transform="translate(38.163356 202.19462)rotate(-90)scale(0.3 -0.3)">
      <use transform="scale(0.996264)" xlink:href="#CMMI12-23"/>
      <use transform="translate(54.482793 36.153639)scale(0.697382)" xlink:href="#CMR17-82"/>
      <use transform="translate(96.471301 36.153639)scale(0.697382)" xlink:href="#CMR17-84"/>
      <use transform="translate(143.028007 36.153639)scale(0.697382)" xlink:href="#CMR17-80"/>
      <use transform="translate(187.336353 0)scale(0.996264)" xlink:href="#CMR17-40"/>
      <use transform="translate(228.223918 26.296621)scale(0.996264)" xlink:href="#CMR17-126"/>
      <use transform="translate(222.617121 0)scale(0.996264)" xlink:href="#CMMI12-21"/>
      <use transform="translate(279.521193 0)scale(0.996264)" xlink:href="#CMR17-41"/>
     </g>
    </g>
   </g>
   <g id="legend_1">
    <g id="line2d_45">
     <path d="M 280.517768 35.596641 
L 298.517768 35.596641 
" style="fill:none;stroke:#0173b2;stroke-linecap:square;stroke-width:4;"/>
    </g>
    <g id="line2d_46"/>
    <g id="text_14">
     <!-- $\tilde{L}=0.5$ -->
     <defs>
      <path d="M 64.296875 31.515625 
C 65.796875 31.515625 67.296875 31.515625 67.296875 33.203125 
C 67.296875 35 65.59375 35 63.90625 35 
L 8 35 
C 6.296875 35 4.59375 35 4.59375 33.203125 
C 4.59375 31.515625 6.09375 31.515625 7.59375 31.515625 
z
M 63.90625 14 
C 65.59375 14 67.296875 14 67.296875 15.796875 
C 67.296875 17.484375 65.796875 17.484375 64.296875 17.484375 
L 7.59375 17.484375 
C 6.09375 17.484375 4.59375 17.484375 4.59375 15.796875 
C 4.59375 14 6.296875 14 8 14 
z
" id="CMR17-61"/>
      <path d="M 11.40625 57.6875 
C 12.40625 57.28125 16.5 56 20.703125 56 
C 30 56 35.09375 61.109375 38 64.0625 
C 38 64.953125 38 65.5 37.40625 65.5 
C 37.296875 65.5 37.09375 65.5 36.296875 65.046875 
C 32.796875 63.40625 28.703125 62.078125 23.703125 62.078125 
C 20.703125 62.078125 16.203125 62.484375 11.296875 64.671875 
C 10.203125 65.171875 10 65.171875 9.90625 65.171875 
C 9.40625 65.171875 9.296875 65.0625 9.296875 63.078125 
L 9.296875 34.421875 
C 9.296875 32.640625 9.296875 32.140625 10.296875 32.140625 
C 10.796875 32.140625 11 32.34375 11.5 33.03125 
C 14.703125 37.515625 19.09375 39.40625 24.09375 39.40625 
C 27.59375 39.40625 35.09375 37.21875 35.09375 20.140625 
C 35.09375 16.953125 35.09375 11.171875 32.09375 6.578125 
C 29.59375 2.484375 25.703125 0.390625 21.40625 0.390625 
C 14.796875 0.390625 8.09375 5 6.296875 12.71875 
C 6.703125 12.609375 7.5 12.421875 7.90625 12.421875 
C 9.203125 12.421875 11.703125 13.125 11.703125 16.21875 
C 11.703125 18.90625 9.796875 20 7.90625 20 
C 5.59375 20 4.09375 18.59375 4.09375 15.796875 
C 4.09375 7.09375 11 -2 21.59375 -2 
C 31.90625 -2 41.703125 6.875 41.703125 19.75 
C 41.703125 31.71875 33.90625 41 24.203125 41 
C 19.09375 41 14.796875 39.109375 11.40625 35.53125 
z
" id="CMR17-53"/>
     </defs>
     <g transform="translate(320.517768 42.596641)scale(0.2 -0.2)">
      <use transform="translate(13.049924 25.189733)scale(0.996264)" xlink:href="#CMR17-126"/>
      <use transform="scale(0.996264)" xlink:href="#CMMI12-76"/>
      <use transform="translate(94.044884 0)scale(0.996264)" xlink:href="#CMR17-61"/>
      <use transform="translate(193.433681 0)scale(0.996264)" xlink:href="#CMR17-48"/>
      <use transform="translate(239.124158 0)scale(0.996264)" xlink:href="#CMMI12-58"/>
      <use transform="translate(266.221336 0)scale(0.996264)" xlink:href="#CMR17-53"/>
     </g>
    </g>
    <g id="line2d_47">
     <path d="M 280.517768 64.037254 
L 298.517768 64.037254 
" style="fill:none;stroke:#de8f05;stroke-linecap:square;stroke-width:4;"/>
    </g>
    <g id="line2d_48"/>
    <g id="text_15">
     <!-- $\tilde{L}=1$ -->
     <defs>
      <path d="M 26.59375 63.40625 
C 26.59375 65.5 26.5 65.5 25.09375 65.5 
C 21.203125 61.1875 15.296875 59.796875 9.703125 59.796875 
C 9.40625 59.796875 8.90625 59.796875 8.796875 59.5 
C 8.703125 59.296875 8.703125 59.09375 8.703125 57 
C 11.796875 57 17 57.59375 21 59.984375 
L 21 7.203125 
C 21 3.6875 20.796875 2.5 12.203125 2.5 
L 9.203125 2.5 
L 9.203125 0 
C 14 0 19 0 23.796875 0 
C 28.59375 0 33.59375 0 38.40625 0 
L 38.40625 2.5 
L 35.40625 2.5 
C 26.796875 2.5 26.59375 3.59375 26.59375 7.15625 
z
" id="CMR17-49"/>
     </defs>
     <g transform="translate(320.517768 71.037254)scale(0.2 -0.2)">
      <use transform="translate(13.049924 25.189733)scale(0.996264)" xlink:href="#CMR17-126"/>
      <use transform="scale(0.996264)" xlink:href="#CMMI12-76"/>
      <use transform="translate(94.044884 0)scale(0.996264)" xlink:href="#CMR17-61"/>
      <use transform="translate(193.433681 0)scale(0.996264)" xlink:href="#CMR17-49"/>
     </g>
    </g>
    <g id="line2d_49">
     <path d="M 280.517768 92.477867 
L 298.517768 92.477867 
" style="fill:none;stroke:#029e73;stroke-linecap:square;stroke-width:4;"/>
    </g>
    <g id="line2d_50"/>
    <g id="text_16">
     <!-- $\tilde{L}=2$ -->
     <g transform="translate(320.517768 99.477867)scale(0.2 -0.2)">
      <use transform="translate(13.049924 25.189733)scale(0.996264)" xlink:href="#CMR17-126"/>
      <use transform="scale(0.996264)" xlink:href="#CMMI12-76"/>
      <use transform="translate(94.044884 0)scale(0.996264)" xlink:href="#CMR17-61"/>
      <use transform="translate(193.433681 0)scale(0.996264)" xlink:href="#CMR17-50"/>
     </g>
    </g>
    <g id="line2d_51">
     <path d="M 280.517768 120.918481 
L 298.517768 120.918481 
" style="fill:none;stroke:#d55e00;stroke-linecap:square;stroke-width:4;"/>
    </g>
    <g id="line2d_52"/>
    <g id="text_17">
     <!-- $\tilde{L}=5$ -->
     <g transform="translate(320.517768 127.918481)scale(0.2 -0.2)">
      <use transform="translate(13.049924 25.189733)scale(0.996264)" xlink:href="#CMR17-126"/>
      <use transform="scale(0.996264)" xlink:href="#CMMI12-76"/>
      <use transform="translate(94.044884 0)scale(0.996264)" xlink:href="#CMR17-61"/>
      <use transform="translate(193.433681 0)scale(0.996264)" xlink:href="#CMR17-53"/>
     </g>
    </g>
    <g id="line2d_53">
     <path d="M 280.517768 149.359094 
L 298.517768 149.359094 
" style="fill:none;stroke:#cc78bc;stroke-linecap:square;stroke-width:4;"/>
    </g>
    <g id="line2d_54"/>
    <g id="text_18">
     <!-- $\tilde{L}=10$ -->
     <g transform="translate(320.517768 156.359094)scale(0.2 -0.2)">
      <use transform="translate(13.049924 25.189733)scale(0.996264)" xlink:href="#CMR17-126"/>
      <use transform="scale(0.996264)" xlink:href="#CMMI12-76"/>
      <use transform="translate(94.044884 0)scale(0.996264)" xlink:href="#CMR17-61"/>
      <use transform="translate(193.433681 0)scale(0.996264)" xlink:href="#CMR17-49"/>
      <use transform="translate(239.124158 0)scale(0.996264)" xlink:href="#CMR17-48"/>
     </g>
    </g>
   </g>
   <g id="legend_2">
    <g id="line2d_55">
     <path d="M 133.4 238.268556 
L 151.4 238.268556 
" style="fill:none;stroke:#000000;stroke-linecap:square;stroke-width:4;"/>
    </g>
    <g id="line2d_56"/>
    <g id="text_19">
     <!-- $\nu^{\rm RTP}_{\rm end}$ -->
     <defs>
      <path d="M 38.09375 23 
C 38.5 23.40625 38.5 23.609375 38.5 24.625 
C 38.5 34.96875 33.09375 44 21.703125 44 
C 11.09375 44 2.703125 33.890625 2.703125 21.609375 
C 2.703125 8.609375 12.203125 -1 22.796875 -1 
C 34 -1 38.40625 9.484375 38.40625 11.5625 
C 38.40625 12.25 37.796875 12.25 37.59375 12.25 
C 36.90625 12.25 36.796875 12.046875 36.40625 10.875 
C 34.203125 4.140625 28.703125 0.796875 23.5 0.796875 
C 19.203125 0.796875 14.90625 3.171875 12.203125 7.5 
C 9.09375 12.546875 9.09375 18.375 9.09375 23 
z
M 9.203125 24.5 
C 9.90625 39.140625 17.59375 42.40625 21.59375 42.40625 
C 28.40625 42.40625 33 35.890625 33.09375 24.5 
z
" id="CMR17-101"/>
      <path d="M 41.5 30.203125 
C 41.5 35.296875 40.5 43.59375 28.703125 43.59375 
C 20.796875 43.59375 16.703125 37.5 15.203125 33.5 
L 15.09375 33.5 
L 15.09375 43.59375 
L 3.296875 42.5 
L 3.296875 39.90625 
C 9.203125 39.90625 10.09375 39.296875 10.09375 34.5 
L 10.09375 6.6875 
C 10.09375 2.875 9.703125 2.390625 3.296875 2.390625 
L 3.296875 -0.203125 
C 5.703125 0 10.09375 0 12.703125 0 
C 15.296875 0 19.796875 0 22.203125 -0.203125 
L 22.203125 2.390625 
C 15.796875 2.390625 15.40625 2.78125 15.40625 6.6875 
L 15.40625 25.90625 
C 15.40625 35.109375 21 42 28 42 
C 35.40625 42 36.203125 35.40625 36.203125 30.59375 
L 36.203125 6.6875 
C 36.203125 2.875 35.796875 2.390625 29.40625 2.390625 
L 29.40625 -0.203125 
C 31.796875 0 36.203125 0 38.796875 0 
C 41.40625 0 45.90625 0 48.296875 -0.203125 
L 48.296875 2.390625 
C 41.90625 2.390625 41.5 2.78125 41.5 6.6875 
z
" id="CMR17-110"/>
      <path d="M 29.203125 67.59375 
L 29.203125 65 
C 35.09375 65 36 64.40625 36 59.6875 
L 36 36.640625 
C 35.59375 37.140625 31.5 43.59375 23.40625 43.59375 
C 13.203125 43.59375 3.296875 34.5 3.296875 21.3125 
C 3.296875 8.203125 12.59375 -1 22.40625 -1 
C 30.90625 -1 35.296875 5.265625 35.796875 5.9375 
L 35.796875 -0.984375 
L 47.90625 -0.984375 
L 47.90625 2 
C 42 2 41.09375 2.59375 41.09375 7.390625 
L 41.09375 68.6875 
z
M 35.796875 11.796875 
C 35.796875 8.796875 34 6.09375 31.703125 4.09375 
C 28.296875 1.09375 24.90625 0.59375 23 0.59375 
C 20.09375 0.59375 9.703125 2.09375 9.703125 21.1875 
C 9.703125 40.8125 21.296875 42 23.90625 42 
C 28.5 42 32.203125 39.40625 34.5 35.796875 
C 35.796875 33.703125 35.796875 33.40625 35.796875 31.609375 
z
" id="CMR17-100"/>
     </defs>
     <g transform="translate(173.4 245.268556)scale(0.2 -0.2)">
      <use transform="translate(0 24.62935)scale(0.996264)" xlink:href="#CMMI12-23"/>
      <use transform="translate(54.482793 60.782989)scale(0.697382)" xlink:href="#CMR17-82"/>
      <use transform="translate(96.471301 60.782989)scale(0.697382)" xlink:href="#CMR17-84"/>
      <use transform="translate(143.028007 60.782989)scale(0.697382)" xlink:href="#CMR17-80"/>
      <use transform="translate(48.198482 0)scale(0.697382)" xlink:href="#CMR17-101"/>
      <use transform="translate(76.538314 0)scale(0.697382)" xlink:href="#CMR17-110"/>
      <use transform="translate(112.164922 0)scale(0.697382)" xlink:href="#CMR17-100"/>
     </g>
    </g>
    <g id="line2d_57">
     <path d="M 133.4 269.956027 
L 151.4 269.956027 
" style="fill:none;stroke:#000000;stroke-dasharray:6,6;stroke-dashoffset:0;stroke-width:4;"/>
    </g>
    <g id="line2d_58"/>
    <g id="text_20">
     <!-- $\nu^{\rm RTP}_{\rm ave}$ -->
     <defs>
      <path d="M 36 25.828125 
C 36 32.375 36 35.84375 31.796875 39.734375 
C 28.09375 43 23.796875 44 20.40625 44 
C 12.5 44 6.796875 37.609375 6.796875 30.796875 
C 6.796875 27 9.796875 27 10.40625 27 
C 11.703125 27 14 27.78125 14 30.53125 
C 14 33 12.09375 34.078125 10.40625 34.078125 
C 10 34.078125 9.5 33.96875 9.203125 33.875 
C 11.296875 40.5 16.703125 42.40625 20.203125 42.40625 
C 25.203125 42.40625 30.703125 37.953125 30.703125 29.453125 
L 30.703125 25 
C 24.796875 25 17.703125 24.203125 12.09375 21.203125 
C 5.796875 17.703125 4 12.703125 4 8.90625 
C 4 1.203125 13 -1 18.296875 -1 
C 23.796875 -1 28.90625 2.171875 31.09375 7.984375 
C 31.296875 3.640625 34.09375 -0.28125 38.5 -0.28125 
C 40.59375 -0.28125 45.90625 1.09375 45.90625 8.859375 
L 45.90625 14.375 
L 44.09375 14.375 
L 44.09375 8.78125 
C 44.09375 2.78125 41.40625 2 40.09375 2 
C 36 2 36 7.15625 36 11.53125 
z
M 30.703125 13.59375 
C 30.703125 4.953125 24.5 0.59375 19 0.59375 
C 14 0.59375 10.09375 4.296875 10.09375 8.90625 
C 10.09375 11.890625 11.40625 17.1875 17.203125 20.390625 
C 22 23.09375 27.5 23.5 30.703125 23.5 
z
" id="CMR17-97"/>
      <path d="M 39.09375 33.796875 
C 40 36 41.59375 40 47.40625 40 
L 47.40625 42.59375 
C 45.5 42.59375 43 42.59375 41.09375 42.59375 
C 39 42.59375 35.703125 42.59375 33.703125 42.6875 
L 33.703125 40.09375 
C 36.203125 39.890625 37.59375 38.703125 37.59375 36.109375 
C 37.59375 35.203125 37.59375 35 37 33.609375 
L 26 5.890625 
L 14.09375 35.71875 
C 13.5 37.015625 13.5 37.203125 13.5 37.609375 
C 13.5 40 16.796875 40 18.296875 40 
L 18.296875 42.6875 
C 15.90625 42.59375 11.5 42.59375 9 42.59375 
C 6.296875 42.59375 3.203125 42.59375 1 42.6875 
L 1 40 
C 4.796875 40 6.90625 40 8.09375 36.90625 
L 22.59375 0.6875 
C 23.203125 -0.796875 23.296875 -1 24.203125 -1 
C 25.09375 -1 25.203125 -0.796875 25.796875 0.6875 
z
" id="CMR17-118"/>
     </defs>
     <g transform="translate(173.4 276.956027)scale(0.2 -0.2)">
      <use transform="translate(0 24.62935)scale(0.996264)" xlink:href="#CMMI12-23"/>
      <use transform="translate(54.482793 60.782989)scale(0.697382)" xlink:href="#CMR17-82"/>
      <use transform="translate(96.471301 60.782989)scale(0.697382)" xlink:href="#CMR17-84"/>
      <use transform="translate(143.028007 60.782989)scale(0.697382)" xlink:href="#CMR17-80"/>
      <use transform="translate(48.198482 0)scale(0.697382)" xlink:href="#CMR17-97"/>
      <use transform="translate(78.359944 0)scale(0.697382)" xlink:href="#CMR17-118"/>
      <use transform="translate(110.34311 0)scale(0.697382)" xlink:href="#CMR17-101"/>
     </g>
    </g>
   </g>
   <g id="legend_3">
    <g id="line2d_59">
     <path d="M 133.4 238.268556 
L 151.4 238.268556 
" style="fill:none;stroke:#000000;stroke-linecap:square;stroke-width:4;"/>
    </g>
    <g id="line2d_60"/>
    <g id="text_21">
     <!-- $\nu^{\rm RTP}_{\rm end}$ -->
     <g transform="translate(173.4 245.268556)scale(0.2 -0.2)">
      <use transform="translate(0 24.62935)scale(0.996264)" xlink:href="#CMMI12-23"/>
      <use transform="translate(54.482793 60.782989)scale(0.697382)" xlink:href="#CMR17-82"/>
      <use transform="translate(96.471301 60.782989)scale(0.697382)" xlink:href="#CMR17-84"/>
      <use transform="translate(143.028007 60.782989)scale(0.697382)" xlink:href="#CMR17-80"/>
      <use transform="translate(48.198482 0)scale(0.697382)" xlink:href="#CMR17-101"/>
      <use transform="translate(76.538314 0)scale(0.697382)" xlink:href="#CMR17-110"/>
      <use transform="translate(112.164922 0)scale(0.697382)" xlink:href="#CMR17-100"/>
     </g>
    </g>
    <g id="line2d_61">
     <path d="M 133.4 269.956027 
L 151.4 269.956027 
" style="fill:none;stroke:#000000;stroke-dasharray:6,6;stroke-dashoffset:0;stroke-width:4;"/>
    </g>
    <g id="line2d_62"/>
    <g id="text_22">
     <!-- $\nu^{\rm RTP}_{\rm ave}$ -->
     <g transform="translate(173.4 276.956027)scale(0.2 -0.2)">
      <use transform="translate(0 24.62935)scale(0.996264)" xlink:href="#CMMI12-23"/>
      <use transform="translate(54.482793 60.782989)scale(0.697382)" xlink:href="#CMR17-82"/>
      <use transform="translate(96.471301 60.782989)scale(0.697382)" xlink:href="#CMR17-84"/>
      <use transform="translate(143.028007 60.782989)scale(0.697382)" xlink:href="#CMR17-80"/>
      <use transform="translate(48.198482 0)scale(0.697382)" xlink:href="#CMR17-97"/>
      <use transform="translate(78.359944 0)scale(0.697382)" xlink:href="#CMR17-118"/>
      <use transform="translate(110.34311 0)scale(0.697382)" xlink:href="#CMR17-101"/>
     </g>
    </g>
   </g>
  </g>
 </g>
 <defs>
  <clipPath id="pe1c19a395d">
   <rect height="280.8" width="283.5" x="113.4" y="14.4"/>
  </clipPath>
 </defs>
</svg>
