<?xml version="1.0" encoding="utf-8" standalone="no"?>
<!DOCTYPE svg PUBLIC "-//W3C//DTD SVG 1.1//EN"
  "http://www.w3.org/Graphics/SVG/1.1/DTD/svg11.dtd">
<!-- Created with matplotlib (https://matplotlib.org/) -->
<svg height="360pt" version="1.1" viewBox="0 0 405 360" width="405pt" xmlns="http://www.w3.org/2000/svg" xmlns:xlink="http://www.w3.org/1999/xlink">
 <defs>
  <style type="text/css">
*{stroke-linecap:butt;stroke-linejoin:round;}
  </style>
 </defs>
 <g id="figure_1">
  <g id="patch_1">
   <path d="M 0 360 
L 405 360 
L 405 0 
L 0 0 
z
" style="fill:#ffffff;"/>
  </g>
  <g id="axes_1">
   <g id="patch_2">
    <path d="M 113.4 295.2 
L 396.9 295.2 
L 396.9 14.4 
L 113.4 14.4 
z
" style="fill:#ffffff;"/>
   </g>
   <g id="line2d_1">
    <path clip-path="url(#pe9ea7c204f)" d="M 118.713934 281.819639 
L 131.779909 281.194389 
L 151.495922 279.943888 
L 165.674533 278.693387 
L 176.369438 277.442886 
L 184.730353 276.192385 
L 191.451099 274.941884 
L 196.97519 273.691383 
L 201.599381 272.440882 
L 205.529731 271.190381 
L 208.913799 269.93988 
L 213.195233 268.064128 
L 216.745837 266.188377 
L 219.74209 264.312625 
L 222.307779 262.436874 
L 224.532302 260.561122 
L 227.079596 258.06012 
L 229.250612 255.559118 
L 231.12663 253.058116 
L 233.145701 249.931864 
L 234.879643 246.805611 
L 236.667643 243.054108 
L 238.205688 239.302605 
L 239.754327 234.925852 
L 241.27259 229.923848 
L 242.734277 224.296593 
L 244.124854 218.044088 
L 245.548348 210.541082 
L 246.863571 202.412826 
L 248.242279 192.408818 
L 249.560327 181.154309 
L 250.871502 168.024048 
L 252.20329 152.392786 
L 253.568006 133.635271 
L 254.9708 111.126253 
L 256.415235 84.240481 
L 257.934073 51.727455 
L 258.831258 30.468938 
L 258.831258 30.468938 
" style="fill:none;stroke:#0173b2;stroke-linecap:square;stroke-width:4;"/>
   </g>
   <g id="line2d_2">
    <path clip-path="url(#pe9ea7c204f)" d="M 118.580126 212.104208 
L 136.434352 211.166333 
L 150.189007 210.228457 
L 161.116038 209.290581 
L 170.010486 208.352705 
L 179.585948 207.102204 
L 187.268847 205.851703 
L 193.575101 204.601202 
L 198.848677 203.350701 
L 203.327719 202.1002 
L 208.063815 200.537074 
L 212.057573 198.973948 
L 215.474971 197.410822 
L 218.98154 195.53507 
L 221.979015 193.659319 
L 224.574946 191.783567 
L 227.200531 189.59519 
L 229.479484 187.406814 
L 231.746456 184.905812 
L 233.725021 182.40481 
L 235.675253 179.591182 
L 237.568336 176.46493 
L 239.386087 173.026052 
L 241.118673 169.274549 
L 242.880361 164.897796 
L 244.524984 160.208417 
L 246.15278 154.893788 
L 247.742016 148.953908 
L 249.349177 142.076152 
L 250.94432 134.260521 
L 252.562529 125.194389 
L 254.223055 114.56513 
L 255.895711 102.372745 
L 257.635978 87.991984 
L 259.446642 71.11022 
L 261.360426 51.102204 
L 263.144621 30.468938 
L 263.144621 30.468938 
" style="fill:none;stroke:#de8f05;stroke-linecap:square;stroke-width:4;"/>
   </g>
   <g id="line2d_3">
    <path clip-path="url(#pe9ea7c204f)" d="M 117.22926 158.02004 
L 137.587435 157.238477 
L 152.928199 156.456914 
L 167.001001 155.519038 
L 177.879918 154.581162 
L 187.827735 153.486974 
L 195.711082 152.392786 
L 202.120986 151.298597 
L 208.13022 150.048096 
L 213.096662 148.797595 
L 217.754141 147.390782 
L 221.665433 145.983968 
L 225.344777 144.420842 
L 228.482079 142.857715 
L 231.447106 141.138277 
L 234.228192 139.262525 
L 236.824414 137.230461 
L 239.241992 135.042084 
L 241.491531 132.697395 
L 243.586019 130.196393 
L 245.646923 127.382766 
L 247.649773 124.256513 
L 249.581209 120.817635 
L 251.508507 116.90982 
L 253.406932 112.533066 
L 255.15 108 
L 255.15 108 
L 257.072295 102.372745 
L 258.969629 96.12024 
L 260.998799 88.617234 
L 263.113728 79.863727 
L 265.287376 69.859719 
L 267.62401 57.97996 
L 270.090261 44.224449 
L 272.369324 30.468938 
L 272.369324 30.468938 
" style="fill:none;stroke:#029e73;stroke-linecap:square;stroke-width:4;"/>
   </g>
   <g id="line2d_4">
    <path clip-path="url(#pe9ea7c204f)" d="M 113.930564 122.255711 
L 147.829301 121.692986 
L 171.63317 121.067735 
L 189.085467 120.37996 
L 202.327467 119.629659 
L 212.662788 118.816834 
L 220.924982 117.941483 
L 227.668619 117.003607 
L 233.274993 116.003206 
L 238.013622 114.940281 
L 242.282893 113.752305 
L 245.95354 112.501804 
L 249.298123 111.126253 
L 252.351053 109.625651 
L 255.15 108 
L 255.15 108 
L 257.902391 106.124248 
L 260.279562 104.248497 
L 263.025497 101.747495 
L 265.418192 99.246493 
L 268.052684 96.12024 
L 270.398868 92.993988 
L 272.93836 89.242485 
L 275.62402 84.865731 
L 278.429199 79.863727 
L 281.34103 74.236473 
L 284.645801 67.358717 
L 288.290361 59.230461 
L 292.240466 49.851703 
L 296.474097 39.222445 
L 299.811636 30.468938 
L 299.811636 30.468938 
" style="fill:none;stroke:#d55e00;stroke-linecap:square;stroke-width:4;"/>
   </g>
   <g id="line2d_5">
    <path clip-path="url(#pe9ea7c204f)" d="M 117.996821 112.595591 
L 167.54792 112.220441 
L 196.622668 111.782766 
L 215.423409 111.282565 
L 228.464948 110.71984 
L 238.020755 110.094589 
L 245.625079 109.375551 
L 251.594865 108.593988 
L 255.15 108 
L 255.15 108 
L 260.949662 106.749499 
L 265.350513 105.498998 
L 268.917118 104.248497 
L 271.943197 102.997996 
L 275.817971 101.122244 
L 279.164091 99.246493 
L 283.092329 96.745491 
L 286.610821 94.244489 
L 290.618783 91.118236 
L 295.0318 87.366733 
L 299.798716 82.98998 
L 304.888182 77.987976 
L 310.279608 72.360721 
L 315.958117 66.108216 
L 321.911991 59.230461 
L 328.638609 51.102204 
L 335.583696 42.348697 
L 342.746883 32.96994 
L 344.61524 30.468938 
L 344.61524 30.468938 
" style="fill:none;stroke:#cc78bc;stroke-linecap:square;stroke-width:4;"/>
   </g>
   <g id="line2d_6">
    <path clip-path="url(#pe9ea7c204f)" d="M 255.15 295.2 
L 255.15 14.4 
" style="fill:none;stroke:#000000;stroke-linecap:square;stroke-width:2;"/>
   </g>
   <g id="line2d_7">
    <path clip-path="url(#pe9ea7c204f)" d="M 113.4 108 
L 396.9 108 
" style="fill:none;stroke:#000000;stroke-linecap:square;stroke-width:2;"/>
   </g>
   <g id="patch_3">
    <path d="M 113.4 295.2 
L 113.4 14.4 
" style="fill:none;stroke:#000000;stroke-linecap:square;stroke-linejoin:miter;"/>
   </g>
   <g id="patch_4">
    <path d="M 396.9 295.2 
L 396.9 14.4 
" style="fill:none;stroke:#000000;stroke-linecap:square;stroke-linejoin:miter;"/>
   </g>
   <g id="patch_5">
    <path d="M 113.4 295.2 
L 396.9 295.2 
" style="fill:none;stroke:#000000;stroke-linecap:square;stroke-linejoin:miter;"/>
   </g>
   <g id="patch_6">
    <path d="M 113.4 14.4 
L 396.9 14.4 
" style="fill:none;stroke:#000000;stroke-linecap:square;stroke-linejoin:miter;"/>
   </g>
   <g id="matplotlib.axis_1">
    <g id="xtick_1">
     <g id="line2d_8">
      <defs>
       <path d="M 0 0 
L 0 -10 
" id="m50a3a4a689" style="stroke:#000000;stroke-width:0.5;"/>
      </defs>
      <g>
       <use style="stroke:#000000;stroke-width:0.5;" x="113.4" xlink:href="#m50a3a4a689" y="295.2"/>
      </g>
     </g>
     <g id="line2d_9">
      <defs>
       <path d="M 0 0 
L 0 10 
" id="me643940744" style="stroke:#000000;stroke-width:0.5;"/>
      </defs>
      <g>
       <use style="stroke:#000000;stroke-width:0.5;" x="113.4" xlink:href="#me643940744" y="14.4"/>
      </g>
     </g>
    </g>
    <g id="xtick_2">
     <g id="line2d_10">
      <g>
       <use style="stroke:#000000;stroke-width:0.5;" x="141.75" xlink:href="#m50a3a4a689" y="295.2"/>
      </g>
     </g>
     <g id="line2d_11">
      <g>
       <use style="stroke:#000000;stroke-width:0.5;" x="141.75" xlink:href="#me643940744" y="14.4"/>
      </g>
     </g>
     <g id="text_1">
      <!-- $-8$ -->
      <defs>
       <path d="M 65.90625 23 
C 67.59375 23 69.40625 23 69.40625 25 
C 69.40625 27 67.59375 27 65.90625 27 
L 11.796875 27 
C 10.09375 27 8.296875 27 8.296875 25 
C 8.296875 23 10.09375 23 11.796875 23 
z
" id="CMSY10-0"/>
       <path d="M 27.203125 35.375 
C 33.5 38.546875 39.90625 43.328125 39.90625 50.984375 
C 39.90625 60.015625 31.09375 65.296875 23 65.296875 
C 13.90625 65.296875 5.90625 58.734375 5.90625 49.6875 
C 5.90625 47.203125 6.5 42.921875 10.40625 39.140625 
C 11.40625 38.15625 15.59375 35.171875 18.296875 33.28125 
C 13.796875 30.984375 3.296875 25.53125 3.296875 14.59375 
C 3.296875 4.359375 13.09375 -2 22.796875 -2 
C 33.5 -2 42.5 5.65625 42.5 15.78125 
C 42.5 24.84375 36.40625 29.015625 32.40625 31.703125 
z
M 14.09375 44.09375 
C 13.296875 44.59375 9.296875 47.671875 9.296875 52.359375 
C 9.296875 58.421875 15.59375 63 22.796875 63 
C 30.703125 63 36.5 57.4375 36.5 50.96875 
C 36.5 41.703125 26.09375 36.421875 25.59375 36.421875 
C 25.5 36.421875 25.40625 36.421875 24.59375 37.03125 
z
M 32.5 23.734375 
C 34 22.640625 38.796875 19.375 38.796875 13.296875 
C 38.796875 5.953125 31.40625 0.390625 23 0.390625 
C 13.90625 0.390625 7 6.84375 7 14.6875 
C 7 22.546875 13.09375 29.09375 20 32.1875 
z
" id="CMR17-56"/>
      </defs>
      <g transform="translate(123.273313 320.494961)scale(0.3 -0.3)">
       <use transform="scale(0.996264)" xlink:href="#CMSY10-0"/>
       <use transform="translate(77.487468 0)scale(0.996264)" xlink:href="#CMR17-56"/>
      </g>
     </g>
    </g>
    <g id="xtick_3">
     <g id="line2d_12">
      <g>
       <use style="stroke:#000000;stroke-width:0.5;" x="170.1" xlink:href="#m50a3a4a689" y="295.2"/>
      </g>
     </g>
     <g id="line2d_13">
      <g>
       <use style="stroke:#000000;stroke-width:0.5;" x="170.1" xlink:href="#me643940744" y="14.4"/>
      </g>
     </g>
    </g>
    <g id="xtick_4">
     <g id="line2d_14">
      <g>
       <use style="stroke:#000000;stroke-width:0.5;" x="198.45" xlink:href="#m50a3a4a689" y="295.2"/>
      </g>
     </g>
     <g id="line2d_15">
      <g>
       <use style="stroke:#000000;stroke-width:0.5;" x="198.45" xlink:href="#me643940744" y="14.4"/>
      </g>
     </g>
     <g id="text_2">
      <!-- $-4$ -->
      <defs>
       <path d="M 33.59375 64.40625 
C 33.59375 66.5 33.5 66.5 31.703125 66.5 
L 2 19.59375 
L 2 17 
L 27.796875 17 
L 27.796875 7.140625 
C 27.796875 3.5 27.59375 2.5 20.59375 2.5 
L 18.703125 2.5 
L 18.703125 0 
C 21.90625 0 27.296875 0 30.703125 0 
C 34.09375 0 39.5 0 42.703125 0 
L 42.703125 2.5 
L 40.796875 2.5 
C 33.796875 2.5 33.59375 3.5 33.59375 7.140625 
L 33.59375 17 
L 43.796875 17 
L 43.796875 19.59375 
L 33.59375 19.59375 
z
M 28.09375 57.859375 
L 28.09375 19.59375 
L 4 19.59375 
z
" id="CMR17-52"/>
      </defs>
      <g transform="translate(179.973313 320.494961)scale(0.3 -0.3)">
       <use transform="scale(0.996264)" xlink:href="#CMSY10-0"/>
       <use transform="translate(77.487468 0)scale(0.996264)" xlink:href="#CMR17-52"/>
      </g>
     </g>
    </g>
    <g id="xtick_5">
     <g id="line2d_16">
      <g>
       <use style="stroke:#000000;stroke-width:0.5;" x="226.8" xlink:href="#m50a3a4a689" y="295.2"/>
      </g>
     </g>
     <g id="line2d_17">
      <g>
       <use style="stroke:#000000;stroke-width:0.5;" x="226.8" xlink:href="#me643940744" y="14.4"/>
      </g>
     </g>
    </g>
    <g id="xtick_6">
     <g id="line2d_18">
      <g>
       <use style="stroke:#000000;stroke-width:0.5;" x="255.15" xlink:href="#m50a3a4a689" y="295.2"/>
      </g>
     </g>
     <g id="line2d_19">
      <g>
       <use style="stroke:#000000;stroke-width:0.5;" x="255.15" xlink:href="#me643940744" y="14.4"/>
      </g>
     </g>
     <g id="text_3">
      <!-- $0$ -->
      <defs>
       <path d="M 42 31.640625 
C 42 37.75 41.90625 48.125 37.703125 56.109375 
C 34 63.109375 28.09375 65.59375 22.90625 65.59375 
C 18.09375 65.59375 12 63.40625 8.203125 56.203125 
C 4.203125 48.71875 3.796875 39.4375 3.796875 31.640625 
C 3.796875 25.953125 3.90625 17.28125 7 9.671875 
C 11.296875 -0.609375 19 -2 22.90625 -2 
C 27.5 -2 34.5 -0.109375 38.59375 9.375 
C 41.59375 16.28125 42 24.359375 42 31.640625 
z
M 22.90625 -0.40625 
C 16.5 -0.40625 12.703125 5.078125 11.296875 12.6875 
C 10.203125 18.5625 10.203125 27.15625 10.203125 32.75 
C 10.203125 40.4375 10.203125 46.828125 11.5 52.921875 
C 13.40625 61.390625 19 64 22.90625 64 
C 27 64 32.296875 61.296875 34.203125 53.125 
C 35.5 47.4375 35.59375 40.734375 35.59375 32.75 
C 35.59375 26.25 35.59375 18.265625 34.40625 12.375 
C 32.296875 1.484375 26.40625 -0.40625 22.90625 -0.40625 
z
" id="CMR17-48"/>
      </defs>
      <g transform="translate(248.296428 320.494961)scale(0.3 -0.3)">
       <use transform="scale(0.996264)" xlink:href="#CMR17-48"/>
      </g>
     </g>
    </g>
    <g id="xtick_7">
     <g id="line2d_20">
      <g>
       <use style="stroke:#000000;stroke-width:0.5;" x="283.5" xlink:href="#m50a3a4a689" y="295.2"/>
      </g>
     </g>
     <g id="line2d_21">
      <g>
       <use style="stroke:#000000;stroke-width:0.5;" x="283.5" xlink:href="#me643940744" y="14.4"/>
      </g>
     </g>
    </g>
    <g id="xtick_8">
     <g id="line2d_22">
      <g>
       <use style="stroke:#000000;stroke-width:0.5;" x="311.85" xlink:href="#m50a3a4a689" y="295.2"/>
      </g>
     </g>
     <g id="line2d_23">
      <g>
       <use style="stroke:#000000;stroke-width:0.5;" x="311.85" xlink:href="#me643940744" y="14.4"/>
      </g>
     </g>
     <g id="text_4">
      <!-- $4$ -->
      <g transform="translate(304.996428 320.494961)scale(0.3 -0.3)">
       <use transform="scale(0.996264)" xlink:href="#CMR17-52"/>
      </g>
     </g>
    </g>
    <g id="xtick_9">
     <g id="line2d_24">
      <g>
       <use style="stroke:#000000;stroke-width:0.5;" x="340.2" xlink:href="#m50a3a4a689" y="295.2"/>
      </g>
     </g>
     <g id="line2d_25">
      <g>
       <use style="stroke:#000000;stroke-width:0.5;" x="340.2" xlink:href="#me643940744" y="14.4"/>
      </g>
     </g>
    </g>
    <g id="xtick_10">
     <g id="line2d_26">
      <g>
       <use style="stroke:#000000;stroke-width:0.5;" x="368.55" xlink:href="#m50a3a4a689" y="295.2"/>
      </g>
     </g>
     <g id="line2d_27">
      <g>
       <use style="stroke:#000000;stroke-width:0.5;" x="368.55" xlink:href="#me643940744" y="14.4"/>
      </g>
     </g>
     <g id="text_5">
      <!-- $8$ -->
      <g transform="translate(361.696428 320.494961)scale(0.3 -0.3)">
       <use transform="scale(0.996264)" xlink:href="#CMR17-56"/>
      </g>
     </g>
    </g>
    <g id="xtick_11">
     <g id="line2d_28">
      <g>
       <use style="stroke:#000000;stroke-width:0.5;" x="396.9" xlink:href="#m50a3a4a689" y="295.2"/>
      </g>
     </g>
     <g id="line2d_29">
      <g>
       <use style="stroke:#000000;stroke-width:0.5;" x="396.9" xlink:href="#me643940744" y="14.4"/>
      </g>
     </g>
    </g>
    <g id="text_6">
     <!-- $\tilde{\lambda} \tilde{L}$ -->
     <defs>
      <path d="M 37.5 65.375 
C 34.09375 62.1875 32.203125 60.390625 29.09375 60.390625 
C 26.90625 60.390625 25.40625 61.4375 23.296875 62.875 
C 21.296875 64.234375 19.703125 65.375 17.5 65.375 
C 13.90625 65.375 11.40625 62.5625 7.203125 58.09375 
L 8.296875 57 
C 11.703125 60.15625 13.59375 62 16.703125 62 
C 18.90625 62 20.40625 60.9375 22.5 59.5 
C 24.5 58.15625 26.09375 57 28.296875 57 
C 31.90625 57 34.40625 59.8125 38.59375 64.28125 
z
" id="CMR17-126"/>
      <path d="M 30.90625 61.953125 
C 28.40625 69 20.5 69 19.203125 69 
C 18.59375 69 17.5 69 17.5 68 
C 17.5 67.21875 18.09375 67.109375 18.59375 67.015625 
C 20.09375 66.8125 21.296875 66.609375 22.90625 63.75 
C 23.90625 61.859375 34.203125 32.171875 34.203125 31.96875 
C 34.203125 31.875 34.09375 31.765625 33.296875 30.96875 
L 7.296875 4.859375 
C 6.09375 3.65625 5.296875 2.859375 5.296875 1.59375 
C 5.296875 0.1875 6.5 -1 8.09375 -1 
C 8.5 -1 9.59375 -0.796875 10.203125 -0.203125 
C 11.796875 1.28125 26.09375 18.65625 35.203125 29.390625 
C 37.796875 21.609375 41 12.453125 44.09375 4.078125 
C 44.59375 2.59375 45.09375 1.1875 46.5 -0.09375 
C 47.5 -1 47.703125 -1 50.5 -1 
L 52.40625 -1 
C 52.796875 -1 53.5 -1 53.5 -0.203125 
C 53.5 0.203125 53.40625 0.296875 53 0.703125 
C 52.09375 1.796875 51.40625 3.578125 51 4.78125 
z
" id="CMMI12-21"/>
      <path d="M 36.703125 60.328125 
C 37.59375 64.109375 37.90625 65.109375 46.703125 65.109375 
C 49.40625 65.109375 50.09375 65.109375 50.09375 67 
C 50.09375 68 49 68 48.59375 68 
C 46.59375 68 44.296875 68 42.296875 68 
L 28.90625 68 
C 27 68 24.796875 68 22.90625 68 
C 22.09375 68 21 68 21 66.109375 
C 21 65.109375 21.90625 65.109375 23.40625 65.109375 
C 29.5 65.109375 29.5 64.3125 29.5 63.21875 
C 29.5 63.03125 29.5 62.421875 29.09375 60.921875 
L 15.59375 7.375 
C 14.703125 3.890625 14.5 2.890625 7.5 2.890625 
C 5.59375 2.890625 4.59375 2.890625 4.59375 1.09375 
C 4.59375 0 5.203125 0 7.203125 0 
L 52 0 
C 54.203125 0 54.296875 0.09375 55 1.890625 
L 62.703125 23.09375 
C 62.90625 23.59375 63.09375 24.1875 63.09375 24.484375 
C 63.09375 25.078125 62.59375 25.484375 62.09375 25.484375 
C 62 25.484375 61.5 25.484375 61.296875 25.078125 
C 61.09375 24.984375 61.09375 24.78125 60.296875 22.890625 
C 57.09375 14.140625 52.59375 2.890625 35.703125 2.890625 
L 26.09375 2.890625 
C 24.703125 2.890625 24.5 2.890625 23.90625 3 
C 22.796875 3.09375 22.703125 3.296875 22.703125 4.09375 
C 22.703125 4.796875 22.90625 5.390625 23.09375 6.265625 
z
" id="CMMI12-76"/>
     </defs>
     <g transform="translate(236.658757 353.155881)scale(0.3 -0.3)">
      <use transform="translate(5.606797 26.296621)scale(0.996264)" xlink:href="#CMR17-126"/>
      <use transform="scale(0.996264)" xlink:href="#CMMI12-21"/>
      <use transform="translate(69.953996 25.189733)scale(0.996264)" xlink:href="#CMR17-126"/>
      <use transform="translate(56.904072 0)scale(0.996264)" xlink:href="#CMMI12-76"/>
     </g>
    </g>
   </g>
   <g id="matplotlib.axis_2">
    <g id="ytick_1">
     <g id="line2d_30">
      <defs>
       <path d="M 0 0 
L 10 0 
" id="m0ee1df454e" style="stroke:#000000;stroke-width:0.5;"/>
      </defs>
      <g>
       <use style="stroke:#000000;stroke-width:0.5;" x="113.4" xlink:href="#m0ee1df454e" y="264"/>
      </g>
     </g>
     <g id="line2d_31">
      <defs>
       <path d="M 0 0 
L -10 0 
" id="mfd57e0461a" style="stroke:#000000;stroke-width:0.5;"/>
      </defs>
      <g>
       <use style="stroke:#000000;stroke-width:0.5;" x="396.9" xlink:href="#mfd57e0461a" y="264"/>
      </g>
     </g>
     <g id="text_7">
      <!-- $-1.0$ -->
      <defs>
       <path d="M 26.59375 63.40625 
C 26.59375 65.5 26.5 65.5 25.09375 65.5 
C 21.203125 61.1875 15.296875 59.796875 9.703125 59.796875 
C 9.40625 59.796875 8.90625 59.796875 8.796875 59.5 
C 8.703125 59.296875 8.703125 59.09375 8.703125 57 
C 11.796875 57 17 57.59375 21 59.984375 
L 21 7.203125 
C 21 3.6875 20.796875 2.5 12.203125 2.5 
L 9.203125 2.5 
L 9.203125 0 
C 14 0 19 0 23.796875 0 
C 28.59375 0 33.59375 0 38.40625 0 
L 38.40625 2.5 
L 35.40625 2.5 
C 26.796875 2.5 26.59375 3.59375 26.59375 7.15625 
z
" id="CMR17-49"/>
       <path d="M 18.40625 4.796875 
C 18.40625 7.6875 16 9.671875 13.59375 9.671875 
C 10.703125 9.671875 8.703125 7.28125 8.703125 4.890625 
C 8.703125 2 11.09375 0 13.5 0 
C 16.40625 0 18.40625 2.390625 18.40625 4.796875 
z
" id="CMMI12-58"/>
      </defs>
      <g transform="translate(50.610329 271.464501)scale(0.3 -0.3)">
       <use transform="scale(0.996264)" xlink:href="#CMSY10-0"/>
       <use transform="translate(77.487468 0)scale(0.996264)" xlink:href="#CMR17-49"/>
       <use transform="translate(123.177945 0)scale(0.996264)" xlink:href="#CMMI12-58"/>
       <use transform="translate(150.275122 0)scale(0.996264)" xlink:href="#CMR17-48"/>
      </g>
     </g>
    </g>
    <g id="ytick_2">
     <g id="line2d_32">
      <g>
       <use style="stroke:#000000;stroke-width:0.5;" x="113.4" xlink:href="#m0ee1df454e" y="186"/>
      </g>
     </g>
     <g id="line2d_33">
      <g>
       <use style="stroke:#000000;stroke-width:0.5;" x="396.9" xlink:href="#mfd57e0461a" y="186"/>
      </g>
     </g>
     <g id="text_8">
      <!-- $-0.5$ -->
      <defs>
       <path d="M 11.40625 57.6875 
C 12.40625 57.28125 16.5 56 20.703125 56 
C 30 56 35.09375 61.109375 38 64.0625 
C 38 64.953125 38 65.5 37.40625 65.5 
C 37.296875 65.5 37.09375 65.5 36.296875 65.046875 
C 32.796875 63.40625 28.703125 62.078125 23.703125 62.078125 
C 20.703125 62.078125 16.203125 62.484375 11.296875 64.671875 
C 10.203125 65.171875 10 65.171875 9.90625 65.171875 
C 9.40625 65.171875 9.296875 65.0625 9.296875 63.078125 
L 9.296875 34.421875 
C 9.296875 32.640625 9.296875 32.140625 10.296875 32.140625 
C 10.796875 32.140625 11 32.34375 11.5 33.03125 
C 14.703125 37.515625 19.09375 39.40625 24.09375 39.40625 
C 27.59375 39.40625 35.09375 37.21875 35.09375 20.140625 
C 35.09375 16.953125 35.09375 11.171875 32.09375 6.578125 
C 29.59375 2.484375 25.703125 0.390625 21.40625 0.390625 
C 14.796875 0.390625 8.09375 5 6.296875 12.71875 
C 6.703125 12.609375 7.5 12.421875 7.90625 12.421875 
C 9.203125 12.421875 11.703125 13.125 11.703125 16.21875 
C 11.703125 18.90625 9.796875 20 7.90625 20 
C 5.59375 20 4.09375 18.59375 4.09375 15.796875 
C 4.09375 7.09375 11 -2 21.59375 -2 
C 31.90625 -2 41.703125 6.875 41.703125 19.75 
C 41.703125 31.71875 33.90625 41 24.203125 41 
C 19.09375 41 14.796875 39.109375 11.40625 35.53125 
z
" id="CMR17-53"/>
      </defs>
      <g transform="translate(50.610329 193.464501)scale(0.3 -0.3)">
       <use transform="scale(0.996264)" xlink:href="#CMSY10-0"/>
       <use transform="translate(77.487468 0)scale(0.996264)" xlink:href="#CMR17-48"/>
       <use transform="translate(123.177945 0)scale(0.996264)" xlink:href="#CMMI12-58"/>
       <use transform="translate(150.275122 0)scale(0.996264)" xlink:href="#CMR17-53"/>
      </g>
     </g>
    </g>
    <g id="ytick_3">
     <g id="line2d_34">
      <g>
       <use style="stroke:#000000;stroke-width:0.5;" x="113.4" xlink:href="#m0ee1df454e" y="108"/>
      </g>
     </g>
     <g id="line2d_35">
      <g>
       <use style="stroke:#000000;stroke-width:0.5;" x="396.9" xlink:href="#mfd57e0461a" y="108"/>
      </g>
     </g>
     <g id="text_9">
      <!-- $0.0$ -->
      <g transform="translate(73.856561 115.464501)scale(0.3 -0.3)">
       <use transform="scale(0.996264)" xlink:href="#CMR17-48"/>
       <use transform="translate(45.690477 0)scale(0.996264)" xlink:href="#CMMI12-58"/>
       <use transform="translate(72.787654 0)scale(0.996264)" xlink:href="#CMR17-48"/>
      </g>
     </g>
    </g>
    <g id="ytick_4">
     <g id="line2d_36">
      <g>
       <use style="stroke:#000000;stroke-width:0.5;" x="113.4" xlink:href="#m0ee1df454e" y="30"/>
      </g>
     </g>
     <g id="line2d_37">
      <g>
       <use style="stroke:#000000;stroke-width:0.5;" x="396.9" xlink:href="#mfd57e0461a" y="30"/>
      </g>
     </g>
     <g id="text_10">
      <!-- $0.5$ -->
      <g transform="translate(73.856561 37.464501)scale(0.3 -0.3)">
       <use transform="scale(0.996264)" xlink:href="#CMR17-48"/>
       <use transform="translate(45.690477 0)scale(0.996264)" xlink:href="#CMMI12-58"/>
       <use transform="translate(72.787654 0)scale(0.996264)" xlink:href="#CMR17-53"/>
      </g>
     </g>
    </g>
    <g id="text_11">
     <!-- $\tilde{\psi}^{\rm RTP}(\tilde{\lambda})$ -->
     <defs>
      <path d="M 47 67.09375 
C 47 67.203125 47.40625 68.5 47.40625 68.609375 
C 47.40625 69.5 46.59375 69.5 46.296875 69.5 
C 45.40625 69.5 45.296875 69 44.90625 67.5 
L 28.40625 1.203125 
C 20.09375 2.203125 17 6.40625 17 12.40625 
C 17 14.59375 17 16.90625 21.703125 29.296875 
C 23 32.890625 23.5 34.1875 23.5 35.984375 
C 23.5 40.484375 20.296875 44.078125 15.59375 44.078125 
C 6.40625 44.078125 2.703125 29.59375 2.703125 28.796875 
C 2.703125 28.390625 3.09375 27.890625 3.796875 27.890625 
C 4.703125 27.890625 4.796875 28.296875 5.203125 29.6875 
C 7.59375 38.328125 11.59375 42 15.296875 42 
C 16.203125 42 17.90625 42 17.90625 38.796875 
C 17.90625 38.390625 17.90625 36.1875 16.203125 31.796875 
C 10.796875 17.59375 10.796875 15.390625 10.796875 13.09375 
C 10.796875 3.484375 18.796875 -0.21875 27.796875 -0.90625 
C 27 -3.953125 26.296875 -7.078125 25.5 -10.109375 
C 23.90625 -15.96875 23.203125 -18.71875 23.203125 -19.109375 
C 23.203125 -20 24 -20 24.296875 -20 
C 24.5 -20 24.90625 -20 25.09375 -19.59375 
C 25.5 -19.21875 29.59375 -2.75 30 -1 
C 33.703125 -1 41.59375 -1 50.59375 8.296875 
C 53.90625 11.890625 56.90625 16.5 58.59375 20.796875 
C 59.59375 23.40625 62 32.296875 62 37.390625 
C 62 43.390625 59 44.078125 58 44.078125 
C 55.59375 44.078125 53.40625 41.6875 53.40625 39.6875 
C 53.40625 38.484375 54.09375 37.78125 54.5 37.390625 
C 55.40625 36.484375 58.09375 33.78125 58.09375 28.59375 
C 58.09375 25 56.09375 17.59375 49.703125 10.40625 
C 41.296875 1 33.59375 1 30.59375 1 
z
" id="CMMI12-32"/>
      <path d="M 39.203125 33.53125 
C 48.703125 35.4375 56.703125 41.8125 56.703125 49.78125 
C 56.703125 59.140625 46.09375 67.59375 32.09375 67.59375 
L 5.203125 67.59375 
L 5.203125 65 
C 12.09375 65 13.203125 65 13.203125 60.515625 
L 13.203125 6.484375 
C 13.203125 2 12.09375 2 5.203125 2 
L 5.203125 -0.40625 
C 8.09375 -0.40625 13.296875 -0.40625 16.40625 -0.40625 
C 19.5 -0.40625 24.703125 -0.40625 27.59375 -0.40625 
L 27.59375 2 
C 20.703125 2 19.59375 2 19.59375 6.515625 
L 19.59375 33 
L 31.296875 33 
C 37 33 40.203125 30.6875 41.59375 29.390625 
C 45.59375 25.5 45.59375 22.796875 45.59375 16 
C 45.59375 9.296875 45.59375 5.890625 48.59375 2.5 
C 52.40625 -1.59375 57.5 -2 59.703125 -2 
C 67.09375 -2 68.203125 6.1875 68.203125 7.859375 
C 68.203125 8.4375 68.203125 9.140625 67.296875 9.140625 
C 66.5 9.140625 66.40625 8.546875 66.40625 8.15625 
C 65.90625 1.75 63 -0.40625 59.90625 -0.40625 
C 54.40625 -0.40625 53.796875 5.859375 53.203125 11.9375 
C 52.90625 14.03125 52.703125 15.515625 52.5 17.703125 
C 51.90625 22.6875 51.09375 29.953125 39.203125 33.53125 
z
M 31 34.59375 
L 19.59375 34.59375 
L 19.59375 61.140625 
C 19.59375 64.515625 19.796875 65 23.796875 65 
L 31.09375 65 
C 39.40625 65 49.09375 62.140625 49.09375 49.84375 
C 49.09375 37.0625 38.5 34.59375 31 34.59375 
z
" id="CMR17-82"/>
      <path d="M 62.203125 67.59375 
L 4.5 67.59375 
L 2.796875 45.59375 
L 4.59375 45.59375 
C 5.90625 62.125 7.296875 65 22.703125 65 
C 24.5 65 27.40625 65 28.203125 64.90625 
C 30.09375 64.609375 30.09375 63.40625 30.09375 61.125 
L 30.09375 7.171875 
C 30.09375 3.59375 29.796875 2.5 21.5 2.5 
L 18.703125 2.5 
L 18.703125 0 
C 23.5 0 28.5 0 33.40625 0 
C 38.296875 0 43.296875 0 48.09375 0 
L 48.09375 2.5 
L 45.296875 2.5 
C 37 2.5 36.703125 3.59375 36.703125 7.171875 
L 36.703125 61.125 
C 36.703125 63.3125 36.703125 64.515625 38.5 64.90625 
C 39.296875 65 42.203125 65 44 65 
C 59.296875 65 60.796875 62.125 62.09375 45.59375 
L 63.90625 45.59375 
z
" id="CMR17-84"/>
      <path d="M 19.796875 31.90625 
L 35.796875 31.90625 
C 48.703125 31.90625 58.09375 40.28125 58.09375 49.75 
C 58.09375 59.234375 48.90625 68 35.796875 68 
L 5.203125 68 
L 5.203125 65.40625 
C 12.09375 65.40625 13.203125 65.40625 13.203125 60.921875 
L 13.203125 6.96875 
C 13.203125 2.5 12.09375 2.5 5.203125 2.5 
L 5.203125 0 
C 8.09375 0 13.40625 0 16.5 0 
C 19.59375 0 24.90625 0 27.796875 0 
L 27.796875 2.5 
C 20.90625 2.5 19.796875 2.5 19.796875 6.96875 
z
M 19.59375 34 
L 19.59375 61.53125 
C 19.59375 64.921875 19.796875 65.40625 23.796875 65.40625 
L 33.90625 65.40625 
C 46.796875 65.40625 50.5 58.03125 50.5 49.75 
C 50.5 40.6875 46.09375 34 33.90625 34 
z
" id="CMR17-80"/>
      <path d="M 30.59375 -24.390625 
C 30.59375 -24.296875 30.59375 -24.09375 30.296875 -23.796875 
C 25.703125 -19.125 13.40625 -6.359375 13.40625 24.703125 
C 13.40625 55.765625 25.5 68.421875 30.40625 73.390625 
C 30.40625 73.5 30.59375 73.703125 30.59375 74 
C 30.59375 74.296875 30.296875 74.5 29.90625 74.5 
C 28.796875 74.5 20.296875 67.125 15.40625 56.15625 
C 10.40625 45.109375 9 34.359375 9 24.8125 
C 9 17.625 9.703125 5.484375 15.703125 -7.359375 
C 20.5 -17.734375 28.703125 -25 29.90625 -25 
C 30.40625 -25 30.59375 -24.796875 30.59375 -24.390625 
z
" id="CMR17-40"/>
      <path d="M 26.296875 24.703125 
C 26.296875 31.875 25.59375 44.015625 19.59375 56.859375 
C 14.796875 67.234375 6.59375 74.5 5.40625 74.5 
C 5.09375 74.5 4.703125 74.390625 4.703125 73.890625 
C 4.703125 73.703125 4.796875 73.59375 4.90625 73.390625 
C 9.703125 68.40625 21.90625 55.75 21.90625 24.75 
C 21.90625 -6.359375 9.796875 -19.015625 4.90625 -24.015625 
C 4.796875 -24.203125 4.703125 -24.3125 4.703125 -24.5 
C 4.703125 -25 5.09375 -25 5.40625 -25 
C 6.5 -25 15 -17.625 19.90625 -6.65625 
C 24.90625 4.390625 26.296875 15.140625 26.296875 24.703125 
z
" id="CMR17-41"/>
     </defs>
     <g transform="translate(38.163356 204.071219)rotate(-90)scale(0.3 -0.3)">
      <use transform="translate(21.49038 26.296621)scale(0.996264)" xlink:href="#CMR17-126"/>
      <use transform="scale(0.996264)" xlink:href="#CMMI12-32"/>
      <use transform="translate(66.99348 36.153639)scale(0.697382)" xlink:href="#CMR17-82"/>
      <use transform="translate(108.981988 36.153639)scale(0.697382)" xlink:href="#CMR17-84"/>
      <use transform="translate(155.538693 36.153639)scale(0.697382)" xlink:href="#CMR17-80"/>
      <use transform="translate(199.84704 0)scale(0.996264)" xlink:href="#CMR17-40"/>
      <use transform="translate(240.734605 26.296621)scale(0.996264)" xlink:href="#CMR17-126"/>
      <use transform="translate(235.127807 0)scale(0.996264)" xlink:href="#CMMI12-21"/>
      <use transform="translate(292.031879 0)scale(0.996264)" xlink:href="#CMR17-41"/>
     </g>
    </g>
   </g>
   <g id="legend_1">
    <g id="line2d_38">
     <path d="M 309.748135 127.752961 
L 327.748135 127.752961 
" style="fill:none;"/>
    </g>
    <g id="line2d_39"/>
    <g id="text_12">
     <!-- $\tilde{L}=$ -->
     <defs>
      <path d="M 64.296875 31.515625 
C 65.796875 31.515625 67.296875 31.515625 67.296875 33.203125 
C 67.296875 35 65.59375 35 63.90625 35 
L 8 35 
C 6.296875 35 4.59375 35 4.59375 33.203125 
C 4.59375 31.515625 6.09375 31.515625 7.59375 31.515625 
z
M 63.90625 14 
C 65.59375 14 67.296875 14 67.296875 15.796875 
C 67.296875 17.484375 65.796875 17.484375 64.296875 17.484375 
L 7.59375 17.484375 
C 6.09375 17.484375 4.59375 17.484375 4.59375 15.796875 
C 4.59375 14 6.296875 14 8 14 
z
" id="CMR17-61"/>
     </defs>
     <g transform="translate(349.748135 134.752961)scale(0.2 -0.2)">
      <use transform="translate(13.049924 25.189733)scale(0.996264)" xlink:href="#CMR17-126"/>
      <use transform="scale(0.996264)" xlink:href="#CMMI12-76"/>
      <use transform="translate(94.044884 0)scale(0.996264)" xlink:href="#CMR17-61"/>
     </g>
    </g>
    <g id="line2d_40">
     <path d="M 309.748135 156.193574 
L 327.748135 156.193574 
" style="fill:none;stroke:#0173b2;stroke-linecap:square;stroke-width:4;"/>
    </g>
    <g id="line2d_41"/>
    <g id="text_13">
     <!-- $0.5$ -->
     <g transform="translate(349.748135 163.193574)scale(0.2 -0.2)">
      <use transform="scale(0.996264)" xlink:href="#CMR17-48"/>
      <use transform="translate(45.690477 0)scale(0.996264)" xlink:href="#CMMI12-58"/>
      <use transform="translate(72.787654 0)scale(0.996264)" xlink:href="#CMR17-53"/>
     </g>
    </g>
    <g id="line2d_42">
     <path d="M 309.748135 184.634187 
L 327.748135 184.634187 
" style="fill:none;stroke:#de8f05;stroke-linecap:square;stroke-width:4;"/>
    </g>
    <g id="line2d_43"/>
    <g id="text_14">
     <!-- $1$ -->
     <g transform="translate(349.748135 191.634187)scale(0.2 -0.2)">
      <use transform="scale(0.996264)" xlink:href="#CMR17-49"/>
     </g>
    </g>
    <g id="line2d_44">
     <path d="M 309.748135 213.074801 
L 327.748135 213.074801 
" style="fill:none;stroke:#029e73;stroke-linecap:square;stroke-width:4;"/>
    </g>
    <g id="line2d_45"/>
    <g id="text_15">
     <!-- $2$ -->
     <defs>
      <path d="M 41.703125 15.453125 
L 39.90625 15.453125 
C 38.90625 8.375 38.09375 7.171875 37.703125 6.5625 
C 37.203125 5.765625 30 5.765625 28.59375 5.765625 
L 9.40625 5.765625 
C 13 9.671875 20 16.75 28.5 24.953125 
C 34.59375 30.734375 41.703125 37.53125 41.703125 47.421875 
C 41.703125 59.21875 32.296875 66 21.796875 66 
C 10.796875 66 4.09375 56.3125 4.09375 47.34375 
C 4.09375 43.4375 7 42.9375 8.203125 42.9375 
C 9.203125 42.9375 12.203125 43.546875 12.203125 47.03125 
C 12.203125 50.109375 9.59375 51 8.203125 51 
C 7.59375 51 7 50.90625 6.59375 50.703125 
C 8.5 59.21875 14.296875 63.40625 20.40625 63.40625 
C 29.09375 63.40625 34.796875 56.515625 34.796875 47.421875 
C 34.796875 38.734375 29.703125 31.25 24 24.75 
L 4.09375 2.28125 
L 4.09375 0 
L 39.296875 0 
z
" id="CMR17-50"/>
     </defs>
     <g transform="translate(349.748135 220.074801)scale(0.2 -0.2)">
      <use transform="scale(0.996264)" xlink:href="#CMR17-50"/>
     </g>
    </g>
    <g id="line2d_46">
     <path d="M 309.748135 241.515414 
L 327.748135 241.515414 
" style="fill:none;stroke:#d55e00;stroke-linecap:square;stroke-width:4;"/>
    </g>
    <g id="line2d_47"/>
    <g id="text_16">
     <!-- $5$ -->
     <g transform="translate(349.748135 248.515414)scale(0.2 -0.2)">
      <use transform="scale(0.996264)" xlink:href="#CMR17-53"/>
     </g>
    </g>
    <g id="line2d_48">
     <path d="M 309.748135 269.956027 
L 327.748135 269.956027 
" style="fill:none;stroke:#cc78bc;stroke-linecap:square;stroke-width:4;"/>
    </g>
    <g id="line2d_49"/>
    <g id="text_17">
     <!-- $10$ -->
     <g transform="translate(349.748135 276.956027)scale(0.2 -0.2)">
      <use transform="scale(0.996264)" xlink:href="#CMR17-49"/>
      <use transform="translate(45.690477 0)scale(0.996264)" xlink:href="#CMR17-48"/>
     </g>
    </g>
   </g>
   <g id="legend_2">
    <g id="line2d_50">
     <path d="M 309.748135 127.752961 
L 327.748135 127.752961 
" style="fill:none;"/>
    </g>
    <g id="line2d_51"/>
    <g id="text_18">
     <!-- $\tilde{L}=$ -->
     <g transform="translate(349.748135 134.752961)scale(0.2 -0.2)">
      <use transform="translate(13.049924 25.189733)scale(0.996264)" xlink:href="#CMR17-126"/>
      <use transform="scale(0.996264)" xlink:href="#CMMI12-76"/>
      <use transform="translate(94.044884 0)scale(0.996264)" xlink:href="#CMR17-61"/>
     </g>
    </g>
    <g id="line2d_52">
     <path d="M 309.748135 156.193574 
L 327.748135 156.193574 
" style="fill:none;stroke:#0173b2;stroke-linecap:square;stroke-width:4;"/>
    </g>
    <g id="line2d_53"/>
    <g id="text_19">
     <!-- $0.5$ -->
     <g transform="translate(349.748135 163.193574)scale(0.2 -0.2)">
      <use transform="scale(0.996264)" xlink:href="#CMR17-48"/>
      <use transform="translate(45.690477 0)scale(0.996264)" xlink:href="#CMMI12-58"/>
      <use transform="translate(72.787654 0)scale(0.996264)" xlink:href="#CMR17-53"/>
     </g>
    </g>
    <g id="line2d_54">
     <path d="M 309.748135 184.634187 
L 327.748135 184.634187 
" style="fill:none;stroke:#de8f05;stroke-linecap:square;stroke-width:4;"/>
    </g>
    <g id="line2d_55"/>
    <g id="text_20">
     <!-- $1$ -->
     <g transform="translate(349.748135 191.634187)scale(0.2 -0.2)">
      <use transform="scale(0.996264)" xlink:href="#CMR17-49"/>
     </g>
    </g>
    <g id="line2d_56">
     <path d="M 309.748135 213.074801 
L 327.748135 213.074801 
" style="fill:none;stroke:#029e73;stroke-linecap:square;stroke-width:4;"/>
    </g>
    <g id="line2d_57"/>
    <g id="text_21">
     <!-- $2$ -->
     <g transform="translate(349.748135 220.074801)scale(0.2 -0.2)">
      <use transform="scale(0.996264)" xlink:href="#CMR17-50"/>
     </g>
    </g>
    <g id="line2d_58">
     <path d="M 309.748135 241.515414 
L 327.748135 241.515414 
" style="fill:none;stroke:#d55e00;stroke-linecap:square;stroke-width:4;"/>
    </g>
    <g id="line2d_59"/>
    <g id="text_22">
     <!-- $5$ -->
     <g transform="translate(349.748135 248.515414)scale(0.2 -0.2)">
      <use transform="scale(0.996264)" xlink:href="#CMR17-53"/>
     </g>
    </g>
    <g id="line2d_60">
     <path d="M 309.748135 269.956027 
L 327.748135 269.956027 
" style="fill:none;stroke:#cc78bc;stroke-linecap:square;stroke-width:4;"/>
    </g>
    <g id="line2d_61"/>
    <g id="text_23">
     <!-- $10$ -->
     <g transform="translate(349.748135 276.956027)scale(0.2 -0.2)">
      <use transform="scale(0.996264)" xlink:href="#CMR17-49"/>
      <use transform="translate(45.690477 0)scale(0.996264)" xlink:href="#CMR17-48"/>
     </g>
    </g>
   </g>
  </g>
 </g>
 <defs>
  <clipPath id="pe9ea7c204f">
   <rect height="280.8" width="283.5" x="113.4" y="14.4"/>
  </clipPath>
 </defs>
</svg>
