<?xml version="1.0" encoding="utf-8" standalone="no"?>
<!DOCTYPE svg PUBLIC "-//W3C//DTD SVG 1.1//EN"
  "http://www.w3.org/Graphics/SVG/1.1/DTD/svg11.dtd">
<!-- Created with matplotlib (https://matplotlib.org/) -->
<svg height="360pt" version="1.1" viewBox="0 0 405 360" width="405pt" xmlns="http://www.w3.org/2000/svg" xmlns:xlink="http://www.w3.org/1999/xlink">
 <defs>
  <style type="text/css">
*{stroke-linecap:butt;stroke-linejoin:round;}
  </style>
 </defs>
 <g id="figure_1">
  <g id="patch_1">
   <path d="M 0 360 
L 405 360 
L 405 0 
L 0 0 
z
" style="fill:#ffffff;"/>
  </g>
  <g id="axes_1">
   <g id="patch_2">
    <path d="M 101.25 295.2 
L 400.95 295.2 
L 400.95 28.8 
L 101.25 28.8 
z
" style="fill:#ffffff;"/>
   </g>
   <g id="line2d_1">
    <path clip-path="url(#p7e80394de4)" d="M 101.25 288.305691 
L 103.873636 288.234709 
L 106.497273 288.162251 
L 109.120909 288.08827 
L 111.744545 288.012717 
L 114.368182 287.935543 
L 116.991818 287.856695 
L 119.615455 287.776116 
L 122.239091 287.693751 
L 124.862727 287.609538 
L 127.486364 287.523416 
L 130.11 287.435317 
L 132.733636 287.345174 
L 135.357273 287.252915 
L 137.980909 287.158463 
L 140.604545 287.061741 
L 143.228182 286.962665 
L 145.851818 286.861149 
L 148.475455 286.757101 
L 151.099091 286.650425 
L 153.722727 286.54102 
L 156.346364 286.428781 
L 158.97 286.313596 
L 161.593636 286.195348 
L 164.217273 286.073912 
L 166.840909 285.949159 
L 169.464545 285.82095 
L 172.088182 285.689141 
L 174.711818 285.553576 
L 177.335455 285.414095 
L 179.959091 285.270524 
L 182.582727 285.122681 
L 185.206364 284.970373 
L 187.83 284.813394 
L 190.453636 284.651528 
L 193.077273 284.484541 
L 195.700909 284.312187 
L 198.324545 284.134205 
L 200.948182 283.950312 
L 203.571818 283.760212 
L 206.195455 283.563584 
L 208.819091 283.360086 
L 211.442727 283.149353 
L 214.066364 282.930992 
L 216.69 282.704581 
L 219.313636 282.46967 
L 221.937273 282.225768 
L 224.560909 281.972353 
L 227.184545 281.708856 
L 229.808182 281.434665 
L 232.431818 281.149116 
L 235.055455 280.85149 
L 237.679091 280.541005 
L 240.302727 280.216813 
L 242.926364 279.877985 
L 245.55 279.52351 
L 248.173636 279.152281 
L 250.797273 278.763084 
L 253.420909 278.354585 
L 256.044545 277.925317 
L 258.668182 277.473656 
L 261.291818 276.99781 
L 263.915455 276.495789 
L 266.539091 275.965377 
L 269.162727 275.404105 
L 271.786364 274.809209 
L 274.41 274.177583 
L 277.033636 273.505734 
L 279.657273 272.789707 
L 282.280909 272.025017 
L 284.904545 271.206554 
L 287.528182 270.328468 
L 290.151818 269.384034 
L 292.775455 268.365483 
L 295.399091 267.263792 
L 298.022727 266.068421 
L 300.646364 264.766983 
L 303.27 263.344829 
L 305.893636 261.784503 
L 308.517273 260.06505 
L 311.140909 258.161101 
L 313.764545 256.041665 
L 316.388182 253.668493 
L 319.011818 250.993869 
L 321.635455 247.957538 
L 324.259091 244.482388 
L 326.882727 240.46827 
L 329.506364 235.782959 
L 332.13 230.248671 
L 334.753636 223.621477 
L 337.377273 215.559107 
L 340.000909 205.569388 
L 342.624545 192.925779 
L 345.248182 176.526756 
L 347.871818 154.66145 
L 350.495455 124.63223 
L 353.119091 82.216587 
L 355.742727 21.150673 
L 356.404398 -1 
" style="fill:none;stroke:#0000ff;stroke-linecap:square;stroke-width:4;"/>
   </g>
   <g id="line2d_2">
    <path clip-path="url(#p7e80394de4)" d="M 101.25 117.6 
L 400.95 117.6 
" style="fill:none;stroke:#000000;stroke-linecap:square;stroke-width:2;"/>
   </g>
   <g id="line2d_3">
    <path clip-path="url(#p7e80394de4)" d="M 351 295.2 
L 351 28.8 
" style="fill:none;stroke:#000000;stroke-linecap:square;stroke-width:2;"/>
   </g>
   <g id="patch_3">
    <path d="M 101.25 295.2 
L 101.25 28.8 
" style="fill:none;stroke:#000000;stroke-linecap:square;stroke-linejoin:miter;"/>
   </g>
   <g id="patch_4">
    <path d="M 400.95 295.2 
L 400.95 28.8 
" style="fill:none;stroke:#000000;stroke-linecap:square;stroke-linejoin:miter;"/>
   </g>
   <g id="patch_5">
    <path d="M 101.25 295.2 
L 400.95 295.2 
" style="fill:none;stroke:#000000;stroke-linecap:square;stroke-linejoin:miter;"/>
   </g>
   <g id="patch_6">
    <path d="M 101.25 28.8 
L 400.95 28.8 
" style="fill:none;stroke:#000000;stroke-linecap:square;stroke-linejoin:miter;"/>
   </g>
   <g id="matplotlib.axis_1">
    <g id="xtick_1">
     <g id="line2d_4">
      <defs>
       <path d="M 0 0 
L 0 -10 
" id="ma8fed13c04" style="stroke:#000000;stroke-width:0.5;"/>
      </defs>
      <g>
       <use style="stroke:#000000;stroke-width:0.5;" x="101.25" xlink:href="#ma8fed13c04" y="295.2"/>
      </g>
     </g>
     <g id="line2d_5">
      <defs>
       <path d="M 0 0 
L 0 10 
" id="md3f4a916d4" style="stroke:#000000;stroke-width:0.5;"/>
      </defs>
      <g>
       <use style="stroke:#000000;stroke-width:0.5;" x="101.25" xlink:href="#md3f4a916d4" y="28.8"/>
      </g>
     </g>
    </g>
    <g id="xtick_2">
     <g id="line2d_6">
      <g>
       <use style="stroke:#000000;stroke-width:0.5;" x="151.2" xlink:href="#ma8fed13c04" y="295.2"/>
      </g>
     </g>
     <g id="line2d_7">
      <g>
       <use style="stroke:#000000;stroke-width:0.5;" x="151.2" xlink:href="#md3f4a916d4" y="28.8"/>
      </g>
     </g>
     <g id="text_1">
      <!-- $-40$ -->
      <defs>
       <path d="M 65.90625 23 
C 67.59375 23 69.40625 23 69.40625 25 
C 69.40625 27 67.59375 27 65.90625 27 
L 11.796875 27 
C 10.09375 27 8.296875 27 8.296875 25 
C 8.296875 23 10.09375 23 11.796875 23 
z
" id="CMSY10-0"/>
       <path d="M 33.59375 64.40625 
C 33.59375 66.5 33.5 66.5 31.703125 66.5 
L 2 19.59375 
L 2 17 
L 27.796875 17 
L 27.796875 7.140625 
C 27.796875 3.5 27.59375 2.5 20.59375 2.5 
L 18.703125 2.5 
L 18.703125 0 
C 21.90625 0 27.296875 0 30.703125 0 
C 34.09375 0 39.5 0 42.703125 0 
L 42.703125 2.5 
L 40.796875 2.5 
C 33.796875 2.5 33.59375 3.5 33.59375 7.140625 
L 33.59375 17 
L 43.796875 17 
L 43.796875 19.59375 
L 33.59375 19.59375 
z
M 28.09375 57.859375 
L 28.09375 19.59375 
L 4 19.59375 
z
" id="CMR17-52"/>
       <path d="M 42 31.640625 
C 42 37.75 41.90625 48.125 37.703125 56.109375 
C 34 63.109375 28.09375 65.59375 22.90625 65.59375 
C 18.09375 65.59375 12 63.40625 8.203125 56.203125 
C 4.203125 48.71875 3.796875 39.4375 3.796875 31.640625 
C 3.796875 25.953125 3.90625 17.28125 7 9.671875 
C 11.296875 -0.609375 19 -2 22.90625 -2 
C 27.5 -2 34.5 -0.109375 38.59375 9.375 
C 41.59375 16.28125 42 24.359375 42 31.640625 
z
M 22.90625 -0.40625 
C 16.5 -0.40625 12.703125 5.078125 11.296875 12.6875 
C 10.203125 18.5625 10.203125 27.15625 10.203125 32.75 
C 10.203125 40.4375 10.203125 46.828125 11.5 52.921875 
C 13.40625 61.390625 19 64 22.90625 64 
C 27 64 32.296875 61.296875 34.203125 53.125 
C 35.5 47.4375 35.59375 40.734375 35.59375 32.75 
C 35.59375 26.25 35.59375 18.265625 34.40625 12.375 
C 32.296875 1.484375 26.40625 -0.40625 22.90625 -0.40625 
z
" id="CMR17-48"/>
      </defs>
      <g transform="translate(125.869741 320.494961)scale(0.3 -0.3)">
       <use transform="scale(0.996264)" xlink:href="#CMSY10-0"/>
       <use transform="translate(77.487468 0)scale(0.996264)" xlink:href="#CMR17-52"/>
       <use transform="translate(123.177945 0)scale(0.996264)" xlink:href="#CMR17-48"/>
      </g>
     </g>
    </g>
    <g id="xtick_3">
     <g id="line2d_8">
      <g>
       <use style="stroke:#000000;stroke-width:0.5;" x="201.15" xlink:href="#ma8fed13c04" y="295.2"/>
      </g>
     </g>
     <g id="line2d_9">
      <g>
       <use style="stroke:#000000;stroke-width:0.5;" x="201.15" xlink:href="#md3f4a916d4" y="28.8"/>
      </g>
     </g>
    </g>
    <g id="xtick_4">
     <g id="line2d_10">
      <g>
       <use style="stroke:#000000;stroke-width:0.5;" x="251.1" xlink:href="#ma8fed13c04" y="295.2"/>
      </g>
     </g>
     <g id="line2d_11">
      <g>
       <use style="stroke:#000000;stroke-width:0.5;" x="251.1" xlink:href="#md3f4a916d4" y="28.8"/>
      </g>
     </g>
     <g id="text_2">
      <!-- $-20$ -->
      <defs>
       <path d="M 41.703125 15.453125 
L 39.90625 15.453125 
C 38.90625 8.375 38.09375 7.171875 37.703125 6.5625 
C 37.203125 5.765625 30 5.765625 28.59375 5.765625 
L 9.40625 5.765625 
C 13 9.671875 20 16.75 28.5 24.953125 
C 34.59375 30.734375 41.703125 37.53125 41.703125 47.421875 
C 41.703125 59.21875 32.296875 66 21.796875 66 
C 10.796875 66 4.09375 56.3125 4.09375 47.34375 
C 4.09375 43.4375 7 42.9375 8.203125 42.9375 
C 9.203125 42.9375 12.203125 43.546875 12.203125 47.03125 
C 12.203125 50.109375 9.59375 51 8.203125 51 
C 7.59375 51 7 50.90625 6.59375 50.703125 
C 8.5 59.21875 14.296875 63.40625 20.40625 63.40625 
C 29.09375 63.40625 34.796875 56.515625 34.796875 47.421875 
C 34.796875 38.734375 29.703125 31.25 24 24.75 
L 4.09375 2.28125 
L 4.09375 0 
L 39.296875 0 
z
" id="CMR17-50"/>
      </defs>
      <g transform="translate(225.769741 320.494961)scale(0.3 -0.3)">
       <use transform="scale(0.996264)" xlink:href="#CMSY10-0"/>
       <use transform="translate(77.487468 0)scale(0.996264)" xlink:href="#CMR17-50"/>
       <use transform="translate(123.177945 0)scale(0.996264)" xlink:href="#CMR17-48"/>
      </g>
     </g>
    </g>
    <g id="xtick_5">
     <g id="line2d_12">
      <g>
       <use style="stroke:#000000;stroke-width:0.5;" x="301.05" xlink:href="#ma8fed13c04" y="295.2"/>
      </g>
     </g>
     <g id="line2d_13">
      <g>
       <use style="stroke:#000000;stroke-width:0.5;" x="301.05" xlink:href="#md3f4a916d4" y="28.8"/>
      </g>
     </g>
    </g>
    <g id="xtick_6">
     <g id="line2d_14">
      <g>
       <use style="stroke:#000000;stroke-width:0.5;" x="351" xlink:href="#ma8fed13c04" y="295.2"/>
      </g>
     </g>
     <g id="line2d_15">
      <g>
       <use style="stroke:#000000;stroke-width:0.5;" x="351" xlink:href="#md3f4a916d4" y="28.8"/>
      </g>
     </g>
     <g id="text_3">
      <!-- $0$ -->
      <g transform="translate(344.146428 320.494961)scale(0.3 -0.3)">
       <use transform="scale(0.996264)" xlink:href="#CMR17-48"/>
      </g>
     </g>
    </g>
    <g id="xtick_7">
     <g id="line2d_16">
      <g>
       <use style="stroke:#000000;stroke-width:0.5;" x="400.95" xlink:href="#ma8fed13c04" y="295.2"/>
      </g>
     </g>
     <g id="line2d_17">
      <g>
       <use style="stroke:#000000;stroke-width:0.5;" x="400.95" xlink:href="#md3f4a916d4" y="28.8"/>
      </g>
     </g>
    </g>
    <g id="text_4">
     <!-- $\Lambda$ -->
     <defs>
      <path d="M 33.59375 68.796875 
C 33.09375 70.390625 33 70.5 32 70.5 
C 31 70.5 30.90625 70.390625 30.40625 68.796875 
L 10.703125 9 
C 8.90625 3.703125 5.59375 2.5 2.296875 2.5 
L 2.296875 0 
C 4 0 7.5 0 9.296875 0 
C 11.796875 0 15.703125 0 18.09375 -0.09375 
L 18.09375 2.5 
C 12.796875 2.5 12.5 6.3125 12.5 7.015625 
C 12.5 7.71875 12.703125 8.3125 13 9.3125 
L 29.59375 59.921875 
L 47 7.203125 
C 47.5 5.8125 47.5 5.609375 47.5 5.3125 
C 47.5 2.5 43.296875 2.5 41.203125 2.5 
L 41.203125 0 
C 44.09375 0 49.203125 0 52.296875 0 
C 54.796875 0 59.40625 0 61.703125 -0.09375 
L 61.703125 2.5 
C 57.296875 2.5 55.5 2.5 54.296875 6 
z
" id="CMR17-3"/>
     </defs>
     <g transform="translate(241.519875 353.155881)scale(0.3 -0.3)">
      <use transform="scale(0.996264)" xlink:href="#CMR17-3"/>
     </g>
    </g>
   </g>
   <g id="matplotlib.axis_2">
    <g id="ytick_1">
     <g id="line2d_18">
      <defs>
       <path d="M 0 0 
L 10 0 
" id="m76ad28f41e" style="stroke:#000000;stroke-width:0.5;"/>
      </defs>
      <g>
       <use style="stroke:#000000;stroke-width:0.5;" x="101.25" xlink:href="#m76ad28f41e" y="295.2"/>
      </g>
     </g>
     <g id="line2d_19">
      <defs>
       <path d="M 0 0 
L -10 0 
" id="mcce8adacb5" style="stroke:#000000;stroke-width:0.5;"/>
      </defs>
      <g>
       <use style="stroke:#000000;stroke-width:0.5;" x="400.95" xlink:href="#mcce8adacb5" y="295.2"/>
      </g>
     </g>
     <g id="text_5">
      <!-- $-\frac{\pi^2}{4}$ -->
      <defs>
       <path d="M 25.90625 37.625 
L 37.203125 37.625 
C 34.5 26.4375 32.796875 19.15625 32.796875 11.1875 
C 32.796875 9.78125 32.796875 -1 36.90625 -1 
C 39 -1 40.796875 0.890625 40.796875 2.59375 
C 40.796875 3.078125 40.796875 3.28125 40.09375 4.78125 
C 37.40625 11.671875 37.40625 20.25 37.40625 20.953125 
C 37.40625 21.546875 37.40625 28.625 39.5 37.625 
L 50.703125 37.625 
C 52 37.625 55.296875 37.625 55.296875 40.8125 
C 55.296875 43 53.40625 43 51.59375 43 
L 18.703125 43 
C 16.40625 43 13 43 8.40625 38.125 
C 5.796875 35.21875 2.59375 29.9375 2.59375 29.34375 
C 2.59375 28.75 3.09375 28.546875 3.703125 28.546875 
C 4.40625 28.546875 4.5 28.84375 5 29.4375 
C 10.203125 37.625 15.40625 37.625 17.90625 37.625 
L 23.59375 37.625 
C 21.40625 30.140625 18.90625 21.453125 10.703125 4 
C 9.90625 2.40625 9.90625 2.1875 9.90625 1.59375 
C 9.90625 -0.5 11.703125 -1 12.59375 -1 
C 15.5 -1 16.296875 1.59375 17.5 5.78125 
C 19.09375 10.875 19.09375 11.078125 20.09375 15.0625 
z
" id="CMMI12-25"/>
      </defs>
      <g transform="translate(52.622736 308.482618)scale(0.3 -0.3)">
       <use transform="translate(0 34.355253)scale(0.996264)" xlink:href="#CMSY10-0"/>
       <use transform="translate(78.682981 73.581354)scale(0.697382)" xlink:href="#CMMI12-25"/>
       <use transform="translate(119.920203 98.88878)scale(0.498132)" xlink:href="#CMR17-50"/>
       <use transform="translate(94.981694 0)scale(0.697382)" xlink:href="#CMR17-52"/>
       <path d="M 78.682981 58.766138 
L 143.263573 58.766138 
L 143.263573 59.757583 
L 78.682981 59.757583 
L 78.682981 58.766138 
z
"/>
      </g>
     </g>
    </g>
    <g id="ytick_2">
     <g id="line2d_20">
      <g>
       <use style="stroke:#000000;stroke-width:0.5;" x="101.25" xlink:href="#m76ad28f41e" y="250.8"/>
      </g>
     </g>
     <g id="line2d_21">
      <g>
       <use style="stroke:#000000;stroke-width:0.5;" x="400.95" xlink:href="#mcce8adacb5" y="250.8"/>
      </g>
     </g>
     <g id="text_6">
      <!-- $-\frac{3 \pi^2}{16}$ -->
      <defs>
       <path d="M 22.09375 33.703125 
C 31 33.703125 34.90625 25.96875 34.90625 17.03125 
C 34.90625 5 28.5 0.390625 22.703125 0.390625 
C 17.40625 0.390625 8.796875 3.03125 6.09375 10.828125 
C 6.59375 10.625 7.09375 10.625 7.59375 10.625 
C 10 10.625 11.796875 12.21875 11.796875 14.8125 
C 11.796875 17.703125 9.59375 19 7.59375 19 
C 5.90625 19 3.296875 18.203125 3.296875 14.46875 
C 3.296875 5.234375 12.296875 -2 22.90625 -2 
C 34 -2 42.5 6.71875 42.5 16.953125 
C 42.5 26.671875 34.5 33.703125 25 34.796875 
C 32.59375 36.375 39.90625 43.0625 39.90625 52.015625 
C 39.90625 59.6875 32 65.296875 23 65.296875 
C 13.90625 65.296875 5.90625 59.828125 5.90625 52.015625 
C 5.90625 48.59375 8.5 48 9.796875 48 
C 11.90625 48 13.703125 49.296875 13.703125 51.890625 
C 13.703125 54.46875 11.90625 55.765625 9.796875 55.765625 
C 9.40625 55.765625 8.90625 55.765625 8.5 55.578125 
C 11.40625 61.859375 19.296875 63 22.796875 63 
C 26.296875 63 32.90625 61.328125 32.90625 51.875 
C 32.90625 49.109375 32.5 44.1875 29.09375 39.84375 
C 26.09375 36 22.703125 36 19.40625 35.6875 
C 18.90625 35.6875 16.59375 35.453125 16.203125 35.453125 
C 15.5 35.359375 15.09375 35.265625 15.09375 34.5 
C 15.09375 33.796875 15.203125 33.703125 17.203125 33.703125 
z
" id="CMR17-51"/>
       <path d="M 26.59375 63.40625 
C 26.59375 65.5 26.5 65.5 25.09375 65.5 
C 21.203125 61.1875 15.296875 59.796875 9.703125 59.796875 
C 9.40625 59.796875 8.90625 59.796875 8.796875 59.5 
C 8.703125 59.296875 8.703125 59.09375 8.703125 57 
C 11.796875 57 17 57.59375 21 59.984375 
L 21 7.203125 
C 21 3.6875 20.796875 2.5 12.203125 2.5 
L 9.203125 2.5 
L 9.203125 0 
C 14 0 19 0 23.796875 0 
C 28.59375 0 33.59375 0 38.40625 0 
L 38.40625 2.5 
L 35.40625 2.5 
C 26.796875 2.5 26.59375 3.59375 26.59375 7.15625 
z
" id="CMR17-49"/>
       <path d="M 10.59375 34 
C 10.59375 57.65625 21.796875 63 28.296875 63 
C 30.40625 63 35.5 62.640625 37.5 59 
C 35.90625 59 32.90625 59 32.90625 55.515625 
C 32.90625 52.828125 35.09375 51.921875 36.5 51.921875 
C 37.40625 51.921875 40.09375 52.3125 40.09375 55.625 
C 40.09375 61.78125 35.09375 65.296875 28.203125 65.296875 
C 16.296875 65.296875 3.796875 52.96875 3.796875 31 
C 3.796875 3.953125 15.09375 -2 23.09375 -2 
C 32.796875 -2 42 6.671875 42 20.046875 
C 42 32.515625 33.90625 41.59375 23.703125 41.59375 
C 17.59375 41.59375 13.09375 37.609375 10.59375 30.625 
z
M 23.09375 0.390625 
C 10.796875 0.390625 10.796875 18.75 10.796875 22.4375 
C 10.796875 29.625 14.203125 40 23.5 40 
C 25.203125 40 30.09375 40 33.40625 33.125 
C 35.203125 29.21875 35.203125 25.140625 35.203125 20.140625 
C 35.203125 14.75 35.203125 10.78125 33.09375 6.78125 
C 30.90625 2.671875 27.703125 0.390625 23.09375 0.390625 
z
" id="CMR17-54"/>
      </defs>
      <g transform="translate(43.027781 264.082618)scale(0.3 -0.3)">
       <use transform="translate(0 34.355253)scale(0.996264)" xlink:href="#CMSY10-0"/>
       <use transform="translate(78.682981 73.581354)scale(0.697382)" xlink:href="#CMR17-51"/>
       <use transform="translate(110.666163 73.581354)scale(0.697382)" xlink:href="#CMMI12-25"/>
       <use transform="translate(151.903385 98.88878)scale(0.498132)" xlink:href="#CMR17-50"/>
       <use transform="translate(94.981694 0)scale(0.697382)" xlink:href="#CMR17-49"/>
       <use transform="translate(126.964876 0)scale(0.697382)" xlink:href="#CMR17-54"/>
       <path d="M 78.682981 58.766138 
L 175.246755 58.766138 
L 175.246755 59.757583 
L 78.682981 59.757583 
L 78.682981 58.766138 
z
"/>
      </g>
     </g>
    </g>
    <g id="ytick_3">
     <g id="line2d_22">
      <g>
       <use style="stroke:#000000;stroke-width:0.5;" x="101.25" xlink:href="#m76ad28f41e" y="206.4"/>
      </g>
     </g>
     <g id="line2d_23">
      <g>
       <use style="stroke:#000000;stroke-width:0.5;" x="400.95" xlink:href="#mcce8adacb5" y="206.4"/>
      </g>
     </g>
     <g id="text_7">
      <!-- $-\frac{\pi^2}{8}$ -->
      <defs>
       <path d="M 27.203125 35.375 
C 33.5 38.546875 39.90625 43.328125 39.90625 50.984375 
C 39.90625 60.015625 31.09375 65.296875 23 65.296875 
C 13.90625 65.296875 5.90625 58.734375 5.90625 49.6875 
C 5.90625 47.203125 6.5 42.921875 10.40625 39.140625 
C 11.40625 38.15625 15.59375 35.171875 18.296875 33.28125 
C 13.796875 30.984375 3.296875 25.53125 3.296875 14.59375 
C 3.296875 4.359375 13.09375 -2 22.796875 -2 
C 33.5 -2 42.5 5.65625 42.5 15.78125 
C 42.5 24.84375 36.40625 29.015625 32.40625 31.703125 
z
M 14.09375 44.09375 
C 13.296875 44.59375 9.296875 47.671875 9.296875 52.359375 
C 9.296875 58.421875 15.59375 63 22.796875 63 
C 30.703125 63 36.5 57.4375 36.5 50.96875 
C 36.5 41.703125 26.09375 36.421875 25.59375 36.421875 
C 25.5 36.421875 25.40625 36.421875 24.59375 37.03125 
z
M 32.5 23.734375 
C 34 22.640625 38.796875 19.375 38.796875 13.296875 
C 38.796875 5.953125 31.40625 0.390625 23 0.390625 
C 13.90625 0.390625 7 6.84375 7 14.6875 
C 7 22.546875 13.09375 29.09375 20 32.1875 
z
" id="CMR17-56"/>
      </defs>
      <g transform="translate(52.622736 219.682618)scale(0.3 -0.3)">
       <use transform="translate(0 34.355253)scale(0.996264)" xlink:href="#CMSY10-0"/>
       <use transform="translate(78.682981 73.581354)scale(0.697382)" xlink:href="#CMMI12-25"/>
       <use transform="translate(119.920203 98.88878)scale(0.498132)" xlink:href="#CMR17-50"/>
       <use transform="translate(94.981694 0)scale(0.697382)" xlink:href="#CMR17-56"/>
       <path d="M 78.682981 58.766138 
L 143.263573 58.766138 
L 143.263573 59.757583 
L 78.682981 59.757583 
L 78.682981 58.766138 
z
"/>
      </g>
     </g>
    </g>
    <g id="ytick_4">
     <g id="line2d_24">
      <g>
       <use style="stroke:#000000;stroke-width:0.5;" x="101.25" xlink:href="#m76ad28f41e" y="162"/>
      </g>
     </g>
     <g id="line2d_25">
      <g>
       <use style="stroke:#000000;stroke-width:0.5;" x="400.95" xlink:href="#mcce8adacb5" y="162"/>
      </g>
     </g>
     <g id="text_8">
      <!-- $-\frac{\pi^2}{16}$ -->
      <g transform="translate(52.622736 175.282618)scale(0.3 -0.3)">
       <use transform="translate(0 34.355253)scale(0.996264)" xlink:href="#CMSY10-0"/>
       <use transform="translate(78.682981 73.581354)scale(0.697382)" xlink:href="#CMMI12-25"/>
       <use transform="translate(119.920203 98.88878)scale(0.498132)" xlink:href="#CMR17-50"/>
       <use transform="translate(78.990103 0)scale(0.697382)" xlink:href="#CMR17-49"/>
       <use transform="translate(110.973285 0)scale(0.697382)" xlink:href="#CMR17-54"/>
       <path d="M 78.682981 58.766138 
L 143.263573 58.766138 
L 143.263573 59.757583 
L 78.682981 59.757583 
L 78.682981 58.766138 
z
"/>
      </g>
     </g>
    </g>
    <g id="ytick_5">
     <g id="line2d_26">
      <g>
       <use style="stroke:#000000;stroke-width:0.5;" x="101.25" xlink:href="#m76ad28f41e" y="117.6"/>
      </g>
     </g>
     <g id="line2d_27">
      <g>
       <use style="stroke:#000000;stroke-width:0.5;" x="400.95" xlink:href="#mcce8adacb5" y="117.6"/>
      </g>
     </g>
     <g id="text_9">
      <!-- $0$ -->
      <g transform="translate(83.542857 125.064501)scale(0.3 -0.3)">
       <use transform="scale(0.996264)" xlink:href="#CMR17-48"/>
      </g>
     </g>
    </g>
    <g id="ytick_6">
     <g id="line2d_28">
      <g>
       <use style="stroke:#000000;stroke-width:0.5;" x="101.25" xlink:href="#m76ad28f41e" y="73.2"/>
      </g>
     </g>
     <g id="line2d_29">
      <g>
       <use style="stroke:#000000;stroke-width:0.5;" x="400.95" xlink:href="#mcce8adacb5" y="73.2"/>
      </g>
     </g>
     <g id="text_10">
      <!-- $\frac{\pi^2}{16}$ -->
      <g transform="translate(77.06448 86.482618)scale(0.3 -0.3)">
       <use transform="translate(0 73.581354)scale(0.697382)" xlink:href="#CMMI12-25"/>
       <use transform="translate(41.237221 98.88878)scale(0.498132)" xlink:href="#CMR17-50"/>
       <use transform="translate(0.307122 0)scale(0.697382)" xlink:href="#CMR17-49"/>
       <use transform="translate(32.290304 0)scale(0.697382)" xlink:href="#CMR17-54"/>
       <path d="M 0 58.766138 
L 64.580592 58.766138 
L 64.580592 59.757583 
L 0 59.757583 
L 0 58.766138 
z
"/>
      </g>
     </g>
    </g>
    <g id="ytick_7">
     <g id="line2d_30">
      <g>
       <use style="stroke:#000000;stroke-width:0.5;" x="101.25" xlink:href="#m76ad28f41e" y="28.8"/>
      </g>
     </g>
     <g id="line2d_31">
      <g>
       <use style="stroke:#000000;stroke-width:0.5;" x="400.95" xlink:href="#mcce8adacb5" y="28.8"/>
      </g>
     </g>
     <g id="text_11">
      <!-- $\frac{\pi^2}{8}$ -->
      <g transform="translate(77.06448 42.082618)scale(0.3 -0.3)">
       <use transform="translate(0 73.581354)scale(0.697382)" xlink:href="#CMMI12-25"/>
       <use transform="translate(41.237221 98.88878)scale(0.498132)" xlink:href="#CMR17-50"/>
       <use transform="translate(16.298713 0)scale(0.697382)" xlink:href="#CMR17-56"/>
       <path d="M 0 58.766138 
L 64.580592 58.766138 
L 64.580592 59.757583 
L 0 59.757583 
L 0 58.766138 
z
"/>
      </g>
     </g>
    </g>
    <g id="text_12">
     <!-- $\Psi(\Lambda)$ -->
     <defs>
      <path d="M 39 60.890625 
C 39 64.5 39.203125 65.5 46.796875 65.5 
L 49 65.5 
L 49 68 
C 44.90625 68 40.09375 68 35.90625 68 
C 31.703125 68 26.796875 68 22.703125 68 
L 22.703125 65.5 
L 24.90625 65.5 
C 32.5 65.5 32.703125 64.5 32.703125 60.890625 
L 32.703125 14.578125 
C 18.40625 17.46875 18.203125 35.84375 18.203125 41.03125 
C 18.09375 50.515625 15.59375 55.40625 9.40625 55.40625 
L 6.796875 55.40625 
C 5.203125 55.40625 4.703125 55.40625 4.703125 54.609375 
C 4.703125 54.515625 4.703125 53.90625 5.203125 53.90625 
C 8 53.40625 11.796875 52.8125 11.90625 39.421875 
C 12 30.140625 15.296875 14.875 32.703125 12.875 
L 32.703125 7.09375 
C 32.703125 3.5 32.5 2.5 24.90625 2.5 
L 22.703125 2.5 
L 22.703125 0 
C 26.796875 0 31.703125 0 35.90625 0 
C 40.09375 0 44.90625 0 49 0 
L 49 2.5 
L 46.796875 2.5 
C 39.203125 2.5 39 3.5 39 7.09375 
L 39 12.875 
C 59.796875 15.078125 60 36.046875 60 41.734375 
C 60 46.328125 61 52.8125 66.09375 53.8125 
C 67.09375 54.015625 67.296875 54.015625 67.296875 54.609375 
C 67.296875 55.40625 66.796875 55.40625 65.09375 55.40625 
L 62.5 55.40625 
C 55.90625 55.40625 53.796875 50.234375 53.703125 39.9375 
C 53.59375 29.359375 50.796875 17.078125 39 14.578125 
z
" id="CMR17-9"/>
      <path d="M 30.59375 -24.390625 
C 30.59375 -24.296875 30.59375 -24.09375 30.296875 -23.796875 
C 25.703125 -19.125 13.40625 -6.359375 13.40625 24.703125 
C 13.40625 55.765625 25.5 68.421875 30.40625 73.390625 
C 30.40625 73.5 30.59375 73.703125 30.59375 74 
C 30.59375 74.296875 30.296875 74.5 29.90625 74.5 
C 28.796875 74.5 20.296875 67.125 15.40625 56.15625 
C 10.40625 45.109375 9 34.359375 9 24.8125 
C 9 17.625 9.703125 5.484375 15.703125 -7.359375 
C 20.5 -17.734375 28.703125 -25 29.90625 -25 
C 30.40625 -25 30.59375 -24.796875 30.59375 -24.390625 
z
" id="CMR17-40"/>
      <path d="M 26.296875 24.703125 
C 26.296875 31.875 25.59375 44.015625 19.59375 56.859375 
C 14.796875 67.234375 6.59375 74.5 5.40625 74.5 
C 5.09375 74.5 4.703125 74.390625 4.703125 73.890625 
C 4.703125 73.703125 4.796875 73.59375 4.90625 73.390625 
C 9.703125 68.40625 21.90625 55.75 21.90625 24.75 
C 21.90625 -6.359375 9.796875 -19.015625 4.90625 -24.015625 
C 4.796875 -24.203125 4.703125 -24.3125 4.703125 -24.5 
C 4.703125 -25 5.09375 -25 5.40625 -25 
C 6.5 -25 15 -17.625 19.90625 -6.65625 
C 24.90625 4.390625 26.296875 15.140625 26.296875 24.703125 
z
" id="CMR17-41"/>
     </defs>
     <g transform="translate(30.580808 192.921565)rotate(-90)scale(0.3 -0.3)">
      <use transform="scale(0.996264)" xlink:href="#CMR17-9"/>
      <use transform="translate(71.714788 0)scale(0.996264)" xlink:href="#CMR17-40"/>
      <use transform="translate(106.995556 0)scale(0.996264)" xlink:href="#CMR17-3"/>
      <use transform="translate(170.863078 0)scale(0.996264)" xlink:href="#CMR17-41"/>
     </g>
    </g>
   </g>
  </g>
 </g>
 <defs>
  <clipPath id="p7e80394de4">
   <rect height="266.4" width="299.7" x="101.25" y="28.8"/>
  </clipPath>
 </defs>
</svg>
