<?xml version="1.0" encoding="UTF-8" standalone="no"?>
<!-- Created with Inkscape (http://www.inkscape.org/) -->

<svg
   xmlns:dc="http://purl.org/dc/elements/1.1/"
   xmlns:cc="http://creativecommons.org/ns#"
   xmlns:rdf="http://www.w3.org/1999/02/22-rdf-syntax-ns#"
   xmlns:svg="http://www.w3.org/2000/svg"
   xmlns="http://www.w3.org/2000/svg"
   xmlns:sodipodi="http://sodipodi.sourceforge.net/DTD/sodipodi-0.dtd"
   xmlns:inkscape="http://www.inkscape.org/namespaces/inkscape"
   version="1.1"
   id="svg2"
   xml:space="preserve"
   width="61.334209mm"
   height="20.449854mm"
   viewBox="0 0 231.81434 77.290791"
   sodipodi:docname="enslyon.svg"
   inkscape:version="0.92.4 (5da689c313, 2019-01-14)"><metadata
     id="metadata8"><rdf:RDF><cc:Work
         rdf:about=""><dc:format>image/svg+xml</dc:format><dc:type
           rdf:resource="http://purl.org/dc/dcmitype/StillImage" /><dc:title></dc:title></cc:Work></rdf:RDF></metadata><defs
     id="defs6"><clipPath
       clipPathUnits="userSpaceOnUse"
       id="clipPath24"><path
         d="M 0,841.89 H 1190.55 V 0 H 0 Z"
         id="path22"
         inkscape:connector-curvature="0" /></clipPath></defs><sodipodi:namedview
     pagecolor="#ffffff"
     bordercolor="#666666"
     borderopacity="1"
     objecttolerance="10"
     gridtolerance="10"
     guidetolerance="10"
     inkscape:pageopacity="0"
     inkscape:pageshadow="2"
     inkscape:window-width="1278"
     inkscape:window-height="761"
     id="namedview4"
     showgrid="false"
     fit-margin-top="0"
     fit-margin-left="0"
     fit-margin-right="0"
     fit-margin-bottom="0"
     inkscape:zoom="3.3638598"
     inkscape:cx="124.7117"
     inkscape:cy="44.837544"
     inkscape:window-x="0"
     inkscape:window-y="38"
     inkscape:window-maximized="0"
     inkscape:current-layer="g10"
     units="mm" /><g
     id="g10"
     inkscape:groupmode="layer"
     inkscape:label="logo_ens_de_lyon_blanc"
     transform="matrix(1.3333333,0,0,-1.3333333,-678.38736,678.38732)"><path
       d="M 508.79053,450.82241 H 682.65129 V 508.7905 H 508.79053 Z"
       style="fill:#ffffff;fill-opacity:0;fill-rule:nonzero;stroke:none;stroke-width:0.10027532"
       id="path12"
       inkscape:connector-curvature="0" /><g
       id="g14"
       transform="translate(509,508.9482)"><path
         d="M 0,0 V -7.846 H 19.925 39.693 53.186 V 0 Z M 39.693,-15.222 H 33.574 19.925 13.805 0 v -7.685 h 19.925 19.768 13.572 v 7.685 z m 0,-15.374 H 33.574 19.925 13.805 0 v -7.843 h 19.925 19.768 13.493 v 7.843 z"
         style="fill:#ffffff;fill-opacity:1;fill-rule:nonzero;stroke:none"
         id="path16"
         inkscape:connector-curvature="0" /></g><g
       id="g18"><g
         id="g20"
         clip-path="url(#clipPath24)"><g
           id="g26"
           transform="translate(569.3999,508.9473)"><path
             d="m 0,0 h 12.864 7.063 13.65 6.118 c 8.992,0 13.491,-2.616 13.491,-7.845 H 39.695 19.927 0 Z m 0,-15.22 h 13.805 v -7.687 H 0 Z m 13.805,-15.374 v -7.844 L 0,-38.516 v 7.922 z m 25.89,15.374 h 13.571 v -7.687 H 39.695 Z m 0,-15.374 h 13.492 v -7.845 H 39.695 Z"
             style="fill:#ffffff;fill-opacity:1;fill-rule:nonzero;stroke:none"
             id="path28"
             inkscape:connector-curvature="0" /></g><g
           id="g30"
           transform="translate(662.4688,478.3535)"><path
             d="m 0,0 h 7.061 13.65 c 0,-5.231 -4.551,-7.845 -13.65,-7.845 H -32.475 V 0 Z m -18.825,30.594 h 6.118 33.418 v -7.845 h -33.418 -19.768 c 0,5.229 4.547,7.845 13.65,7.845 M 20.711,7.688 h -53.186 v 7.687 h 53.186 z"
             style="fill:#ffffff;fill-opacity:1;fill-rule:nonzero;stroke:none"
             id="path32"
             inkscape:connector-curvature="0" /></g><g
           id="g34"
           transform="translate(595.812,461.9141)"><path
             d="M 0,0 H 5.271 V -0.925 H 1.063 V -4.762 H 5.056 V -5.688 H 1.063 v -4.146 h 4.393 v -0.925 H 0 Z"
             style="fill:#ffffff;fill-opacity:1;fill-rule:nonzero;stroke:none"
             id="path36"
             inkscape:connector-curvature="0" /></g><g
           id="g38"
           transform="translate(603.3789,461.9141)"><path
             d="M 0,0 H 1.342 L 6.813,-9.464 H 6.844 V 0 H 7.908 V -10.759 H 6.474 l -5.379,9.28 H 1.063 v -9.28 H 0 Z"
             style="fill:#ffffff;fill-opacity:1;fill-rule:nonzero;stroke:none"
             id="path40"
             inkscape:connector-curvature="0" /></g><g
           id="g42"
           transform="translate(613.5029,452.5264)"><path
             d="m 0,0 c 0.634,-0.399 1.372,-0.631 2.374,-0.631 1.325,0 2.42,0.678 2.42,2.204 0,2.112 -4.932,2.373 -4.932,5.195 0,1.726 1.51,2.805 3.407,2.805 0.523,0 1.371,-0.077 2.111,-0.354 L 5.21,8.247 C 4.731,8.51 3.978,8.648 3.253,8.648 c -1.109,0 -2.328,-0.462 -2.328,-1.85 0,-2.156 4.931,-2.173 4.931,-5.318 0,-2.172 -1.864,-3.036 -3.528,-3.036 -1.049,0 -1.866,0.216 -2.434,0.462 z"
             style="fill:#ffffff;fill-opacity:1;fill-rule:nonzero;stroke:none"
             id="path44"
             inkscape:connector-curvature="0" /></g><g
           id="g46"
           transform="translate(625.6934,461.9141)"><path
             d="m 0,0 h 2.667 c 3.853,0 5.379,-2.22 5.379,-5.363 0,-3.901 -2.605,-5.396 -6.166,-5.396 H 0 Z m 1.063,-9.834 h 0.878 c 3.053,0 5.041,1.233 5.041,4.532 0,3.284 -1.957,4.377 -4.363,4.377 H 1.063 Z"
             style="fill:#ffffff;fill-opacity:1;fill-rule:nonzero;stroke:none"
             id="path48"
             inkscape:connector-curvature="0" /></g><g
           id="g50"
           transform="translate(636.0645,461.9141)"><path
             d="M 0,0 H 5.271 V -0.925 H 1.064 V -4.762 H 5.055 V -5.688 H 1.064 v -4.146 h 4.393 v -0.925 H 0 Z"
             style="fill:#ffffff;fill-opacity:1;fill-rule:nonzero;stroke:none"
             id="path52"
             inkscape:connector-curvature="0" /></g><g
           id="g54"
           transform="translate(647.959,461.9141)"><path
             d="m 0,0 h 1.063 v -9.834 h 4.316 v -0.925 H 0 Z"
             style="fill:#ffffff;fill-opacity:1;fill-rule:nonzero;stroke:none"
             id="path56"
             inkscape:connector-curvature="0" /></g><g
           id="g58"
           transform="translate(656.0352,455.7178)"><path
             d="M 0,0 -3.992,6.196 H -2.76 L 0.524,0.94 3.901,6.196 H 5.057 L 1.063,0 V -4.563 H 0 Z"
             style="fill:#ffffff;fill-opacity:1;fill-rule:nonzero;stroke:none"
             id="path60"
             inkscape:connector-curvature="0" /></g><g
           id="g62"
           transform="translate(666.8379,462.1006)"><path
             d="M 0,0 C 3.238,0 4.764,-2.652 4.732,-5.565 4.701,-8.864 3.1,-11.131 0,-11.131 c -3.098,0 -4.701,2.267 -4.732,5.566 C -4.761,-2.652 -3.236,0 0,0 m -3.668,-5.565 c 0,-2.283 1.141,-4.64 3.668,-4.64 2.528,0 3.669,2.357 3.669,4.64 0,2.281 -1.141,4.638 -3.669,4.638 -2.527,0 -3.668,-2.357 -3.668,-4.638"
             style="fill:#ffffff;fill-opacity:1;fill-rule:nonzero;stroke:none"
             id="path64"
             inkscape:connector-curvature="0" /></g><g
           id="g66"
           transform="translate(673.5869,461.9141)"><path
             d="M 0,0 H 1.342 L 6.813,-9.464 H 6.844 V 0 H 7.909 V -10.759 H 6.474 l -5.38,9.28 H 1.065 v -9.28 H 0 Z"
             style="fill:#ffffff;fill-opacity:1;fill-rule:nonzero;stroke:none"
             id="path68"
             inkscape:connector-curvature="0" /></g></g></g></g></svg>