<?xml version="1.0" encoding="UTF-8" standalone="no"?>
<svg
   xmlns:dc="http://purl.org/dc/elements/1.1/"
   xmlns:cc="http://creativecommons.org/ns#"
   xmlns:rdf="http://www.w3.org/1999/02/22-rdf-syntax-ns#"
   xmlns:svg="http://www.w3.org/2000/svg"
   xmlns="http://www.w3.org/2000/svg"
   xmlns:sodipodi="http://sodipodi.sourceforge.net/DTD/sodipodi-0.dtd"
   xmlns:inkscape="http://www.inkscape.org/namespaces/inkscape"
   version="1.0"
   width="1601.000000pt"
   height="466.000000pt"
   viewBox="0 0 1601.000000 466.000000"
   preserveAspectRatio="xMidYMid meet"
   id="svg52"
   sodipodi:docname="uparis.svg"
   inkscape:version="0.92.4 (5da689c313, 2019-01-14)">
  <defs
     id="defs56" />
  <sodipodi:namedview
     pagecolor="#ffffff"
     bordercolor="#666666"
     borderopacity="1"
     objecttolerance="10"
     gridtolerance="10"
     guidetolerance="10"
     inkscape:pageopacity="0"
     inkscape:pageshadow="2"
     inkscape:window-width="1918"
     inkscape:window-height="1045"
     id="namedview54"
     showgrid="false"
     inkscape:pagecheckerboard="true"
     inkscape:zoom="0.51554448"
     inkscape:cx="1063.4539"
     inkscape:cy="465.84241"
     inkscape:window-x="0"
     inkscape:window-y="34"
     inkscape:window-maximized="0"
     inkscape:current-layer="svg52" />
  <metadata
     id="metadata2">
Created by potrace 1.16, written by Peter Selinger 2001-2019
<rdf:RDF>
  <cc:Work
     rdf:about="">
    <dc:format>image/svg+xml</dc:format>
    <dc:type
       rdf:resource="http://purl.org/dc/dcmitype/StillImage" />
    <dc:title></dc:title>
  </cc:Work>
</rdf:RDF>
</metadata>
  <g
     transform="translate(0.000000,466.000000) scale(0.100000,-0.100000)"
     fill="#000000"
     stroke="none"
     id="g50">
    <path
       d="M2531 4343 c-3 -1446 -258 -2239 -974 -3035 l-67 -75 15 -89 c15 -87 33 -162 41 -176 3 -4 44 34 92 84 231 239 559 371 886 355 148 -7 251 -33 371 -92 114 -55 216 -137 306 -245 66 -79 329 -463 329 -481 0 -15 -138 -133 -223 -190 -161 -107 -324 -173 -513 -205 -123 -21 -428 -15 -544 11 -215 48 -356 121 -499 259 -229 221 -342 482 -397 916 -15 118 -18 265 -21 1173 l-4 1037 110 0 111 0 0 40 0 40 -775 0 -775 0 0 -40 0 -40 109 0 109 0 5 -817 c5 -881 6 -915 62 -1189 85 -420 313 -830 598 -1075 331 -284 762 -450 1299 -500 190 -17 547 -7 670 20 260 57 507 178 697 341 40 34 76 58 80 54 9 -10 169 -292 173 -306 2 -5 88 -7 191 -6 l189 3 -215 317 c-424 625 -512 744 -633 859 -144 137 -327 241 -497 284 -137 34 -338 50 -458 35 -117 -14 -285 -69 -384 -126 -42 -23 -72 -38 -67 -31 185 232 323 468 442 759 97 235 209 615 260 883 18 94 50 333 50 372 0 7 4 13 8 13 5 0 17 -66 26 -147 68 -587 203 -1063 422 -1493 122 -241 191 -348 552 -862 99 -142 274 -395 388 -563 l209 -305 242 0 c134 0 243 2 243 5 0 3 -89 119 -197 258 -767 985 -1060 1439 -1266 1962 -215 547 -328 1193 -352 2006 -3 107 -8 222 -11 257 l-6 62 -203 0 -204 0 0 -317z"
       id="path4"
       style="fill:#960038;fill-opacity:1" />
    <path
       d="M15527 3753 c-13 -21 -147 -326 -147 -334 0 -5 36 -9 79 -9 l80 0 113 163 c63 89 118 168 122 175 6 9 -21 12 -118 12 -69 0 -127 -3 -129 -7z"
       id="path6"
       style="fill:#ffffff" />
    <path
       d="M6292 3113 c3 -598 3 -598 26 -663 34 -92 64 -139 132 -204 64 -61 145 -104 250 -133 93 -26 416 -26 509 0 211 58 340 185 386 379 12 52 15 164 15 641 l0 577 -120 0 -120 0 0 -542 c0 -602 -4 -640 -61 -730 -64 -99 -178 -149 -344 -150 -240 -2 -376 99 -405 299 -5 38 -10 305 -10 596 l0 527 -131 0 -130 0 3 -597z"
       id="path8"
       style="fill:#ffffff" />
    <path
       d="M3860 3630 l0 -40 115 0 116 0 -4 -977 c-3 -961 -3 -980 -25 -1073 -12 -52 -33 -129 -48 -171 l-26 -76 71 -97 c42 -57 76 -94 83 -90 14 9 90 172 117 253 53 155 92 355 111 561 6 67 10 437 10 893 l0 777 115 0 115 0 0 40 0 40 -375 0 -375 0 0 -40z"
       id="path10"
       style="fill:#960038;fill-opacity:1" />
    <path
       d="M9170 3515 l0 -115 120 0 120 0 0 115 0 115 -120 0 -120 0 0 -115z"
       id="path12"
       style="fill:#ffffff" />
    <path
       d="M13720 3515 l0 -115 120 0 120 0 0 115 0 115 -120 0 -120 0 0 -115z"
       id="path14"
       style="fill:#ffffff" />
    <path
       d="M14418 3492 l-108 -47 0 -101 0 -102 -32 -5 c-18 -3 -54 -9 -80 -13 l-48 -6 0 -69 0 -69 80 0 80 0 0 -407 c0 -460 0 -459 76 -521 54 -45 119 -62 234 -62 102 0 177 16 243 53 l37 21 0 88 0 88 -39 -26 c-108 -71 -250 -70 -298 2 -16 26 -18 60 -21 396 l-3 368 165 0 166 0 0 80 0 80 -165 0 -165 0 0 150 c0 83 -3 150 -7 149 -5 0 -56 -21 -115 -47z"
       id="path16"
       style="fill:#ffffff" />
    <path
       d="M8395 3244 c-67 -15 -205 -75 -252 -110 l-23 -16 0 67 0 68 -46 -7 c-26 -3 -78 -6 -115 -6 l-69 0 0 -565 0 -565 125 0 125 0 0 424 0 424 33 28 c44 37 139 81 206 95 70 14 176 7 218 -15 70 -35 68 -22 71 -513 l3 -443 119 0 120 0 0 461 c0 306 -4 475 -11 504 -15 61 -75 127 -141 155 -69 31 -256 38 -363 14z"
       id="path18"
       style="fill:#ffffff" />
    <path
       d="M11093 3246 c-266 -67 -422 -314 -399 -629 20 -270 162 -449 402 -511 79 -20 284 -21 379 -1 39 8 108 34 155 57 l85 43 3 98 c1 53 -1 97 -6 97 -4 0 -21 -13 -36 -29 -37 -38 -147 -88 -238 -107 -126 -27 -274 -4 -356 56 -86 62 -142 181 -142 301 l0 59 395 0 394 0 7 37 c9 50 -12 211 -36 275 -43 113 -130 194 -255 240 -75 27 -271 35 -352 14z m262 -154 c78 -40 130 -122 142 -222 l6 -50 -277 0 c-224 0 -276 3 -276 13 0 30 40 129 69 171 57 82 134 118 236 112 35 -2 78 -12 100 -24z"
       id="path20"
       style="fill:#ffffff" />
    <path
       d="M12363 3241 c-59 -20 -114 -58 -160 -110 l-33 -36 0 79 0 79 -52 -7 c-29 -3 -81 -6 -115 -6 l-63 0 0 -565 0 -565 120 0 120 0 0 393 0 394 30 42 c77 105 251 152 362 96 17 -8 33 -15 35 -15 1 0 3 47 3 104 l0 104 -40 16 c-53 21 -142 20 -207 -3z"
       id="path22"
       style="fill:#ffffff" />
    <path
       d="M12961 3244 c-170 -46 -255 -152 -254 -320 1 -85 24 -144 77 -197 52 -52 109 -83 258 -138 195 -73 234 -107 230 -203 -5 -141 -231 -187 -446 -92 -33 15 -75 38 -92 51 -18 14 -35 25 -39 25 -3 0 -4 -42 -3 -92 l3 -93 52 -28 c95 -51 198 -70 352 -65 110 4 147 9 194 27 86 34 137 77 174 150 29 55 33 72 33 140 0 187 -82 273 -347 365 -167 58 -206 83 -224 148 -16 59 14 118 75 148 96 46 249 34 384 -30 l62 -29 0 88 0 89 -51 22 c-115 49 -322 65 -438 34z"
       id="path24"
       style="fill:#ffffff" />
    <path
       d="M15360 3244 c-88 -23 -157 -62 -226 -126 -72 -68 -122 -157 -150 -268 -22 -86 -22 -263 -1 -353 49 -200 195 -346 393 -393 53 -12 103 -15 214 -12 124 4 156 9 225 32 44 15 101 41 128 58 l47 30 0 95 0 95 -39 -31 c-95 -75 -216 -115 -351 -115 -242 0 -368 115 -387 352 l-6 72 403 0 403 0 -6 113 c-3 61 -13 134 -21 160 -49 156 -155 254 -318 292 -79 19 -236 18 -308 -1z m236 -139 c91 -27 154 -110 172 -228 l9 -57 -279 0 -280 0 7 33 c18 85 79 185 133 219 80 49 151 59 238 33z"
       id="path26"
       style="fill:#ffffff" />
    <path
       d="M9170 2675 l0 -565 120 0 120 0 0 565 0 565 -120 0 -120 0 0 -565z"
       id="path28"
       style="fill:#ffffff" />
    <path
       d="M9552 3228 c3 -7 99 -262 214 -565 l209 -553 127 0 127 0 30 78 c16 42 113 293 215 557 102 263 186 483 186 487 0 5 -48 7 -106 6 l-106 -3 -149 -405 c-82 -223 -155 -420 -162 -438 -13 -32 -16 -24 -172 408 l-159 440 -129 0 c-99 0 -128 -3 -125 -12z"
       id="path30"
       style="fill:#ffffff" />
    <path
       d="M13720 2675 l0 -565 120 0 120 0 0 565 0 565 -120 0 -120 0 0 -565z"
       id="path32"
       style="fill:#ffffff" />
    <path
       d="M7205 1749 c-60 -4 -113 -7 -117 -8 -5 0 -8 -127 -8 -281 l0 -280 -48 24 c-88 44 -165 59 -287 53 -84 -4 -126 -11 -179 -30 -224 -83 -346 -278 -346 -557 0 -302 150 -515 400 -570 33 -7 102 -11 170 -8 100 3 123 7 175 31 32 15 74 39 92 53 l33 25 0 -52 0 -52 113 8 c61 4 113 8 115 9 1 2 1 371 0 822 l-3 819 -110 -6z m-198 -699 l68 -35 3 -322 2 -321 -46 -40 c-61 -54 -129 -77 -229 -77 -67 0 -89 5 -137 28 -112 55 -179 161 -198 314 -30 232 70 425 250 484 14 5 68 7 122 6 88 -2 102 -6 165 -37z"
       id="path34"
       style="fill:#ffffff" />
    <path
       d="M9180 911 l0 -801 130 0 130 0 0 314 0 313 213 6 c232 6 289 16 389 69 81 43 144 110 187 198 l36 75 0 145 c0 142 -1 146 -32 212 -56 120 -151 198 -293 244 -47 15 -104 18 -407 22 l-353 4 0 -801z m687 586 c94 -49 135 -129 135 -267 0 -132 -39 -215 -125 -264 -61 -35 -130 -46 -292 -46 l-145 0 0 306 0 306 188 -4 c180 -3 189 -4 239 -31z"
       id="path36"
       style="fill:#ffffff" />
    <path
       d="M12380 1515 l0 -115 120 0 120 0 0 115 0 115 -120 0 -120 0 0 -115z"
       id="path38"
       style="fill:#ffffff" />
    <path
       d="M7920 1244 c-188 -50 -323 -190 -375 -389 -21 -81 -22 -269 -1 -358 47 -199 194 -346 392 -393 53 -12 103 -15 214 -12 129 4 154 8 230 34 47 17 104 42 128 57 l42 27 0 95 0 95 -61 -45 c-114 -84 -295 -122 -439 -91 -170 36 -262 150 -277 344 l-6 72 402 0 401 0 0 73 c0 271 -116 439 -341 492 -80 19 -237 18 -309 -1z m237 -139 c91 -27 152 -109 171 -228 l9 -57 -280 0 -279 0 7 28 c13 53 52 140 76 170 72 88 182 121 296 87z"
       id="path40"
       style="fill:#ffffff" />
    <path
       d="M10640 1245 c-75 -16 -139 -37 -181 -62 -28 -17 -29 -19 -29 -100 l0 -83 60 30 c82 41 168 60 280 60 163 0 219 -29 227 -117 7 -66 -15 -110 -69 -145 -24 -14 -117 -52 -208 -83 -182 -62 -257 -101 -301 -157 -47 -59 -62 -116 -57 -218 4 -76 8 -95 34 -136 67 -109 161 -148 338 -142 124 4 189 26 257 86 l36 31 24 -37 c36 -56 96 -82 191 -82 80 0 135 15 170 47 13 12 18 31 18 75 0 32 -4 58 -9 58 -5 0 -22 -7 -37 -15 -39 -20 -97 -19 -123 2 -20 18 -20 27 -23 418 -3 299 -7 408 -16 430 -31 70 -101 117 -211 141 -82 17 -284 17 -371 -1z m360 -706 l0 -171 -30 -39 c-45 -56 -127 -93 -204 -92 -36 0 -75 7 -93 16 -106 55 -121 194 -29 283 34 32 68 50 158 83 63 23 131 53 149 66 19 13 37 24 42 25 4 0 7 -77 7 -171z"
       id="path42"
       style="fill:#ffffff" />
    <path
       d="M11991 1244 c-63 -23 -110 -54 -158 -107 l-43 -47 0 82 0 81 -46 -7 c-26 -3 -78 -6 -115 -6 l-69 0 0 -565 0 -565 125 0 125 0 0 396 c0 385 1 398 21 430 22 37 82 81 139 105 50 20 186 18 228 -4 l32 -18 0 105 c0 99 -1 106 -22 117 -37 20 -166 22 -217 3z"
       id="path44"
       style="fill:#ffffff" />
    <path
       d="M13133 1245 c-114 -31 -187 -86 -230 -172 -22 -47 -27 -70 -27 -137 -1 -69 3 -89 26 -137 15 -30 38 -65 50 -76 46 -43 139 -91 268 -138 110 -40 141 -55 178 -91 l44 -43 -4 -60 c-5 -69 -22 -95 -83 -122 -116 -51 -303 -23 -436 67 -28 19 -55 34 -60 34 -5 0 -9 -39 -9 -87 l0 -88 43 -27 c83 -52 160 -70 312 -75 110 -4 154 -1 205 12 115 30 180 75 226 157 27 49 29 61 29 153 0 86 -3 107 -24 147 -46 90 -127 143 -328 215 -105 36 -146 56 -174 83 -48 45 -59 94 -33 147 52 106 263 122 451 34 l63 -30 0 88 0 89 -51 22 c-114 49 -322 65 -436 35z"
       id="path46"
       style="fill:#ffffff" />
    <path
       d="M12380 675 l0 -565 120 0 120 0 0 565 0 565 -120 0 -120 0 0 -565z"
       id="path48"
       style="fill:#ffffff" />
  </g>
</svg>
