<?xml version="1.0" encoding="utf-8" standalone="no"?>
<!DOCTYPE svg PUBLIC "-//W3C//DTD SVG 1.1//EN"
  "http://www.w3.org/Graphics/SVG/1.1/DTD/svg11.dtd">
<!-- Created with matplotlib (https://matplotlib.org/) -->
<svg height="497.52pt" version="1.1" viewBox="0 0 920.16 497.52" width="920.16pt" xmlns="http://www.w3.org/2000/svg" xmlns:xlink="http://www.w3.org/1999/xlink">
 <defs>
  <style type="text/css">
*{stroke-linecap:butt;stroke-linejoin:round;}
  </style>
 </defs>
 <g id="figure_1">
  <g id="patch_1">
   <path d="M 0 497.52 
L 920.16 497.52 
L 920.16 0 
L 0 0 
z
" style="fill:#ffffff;"/>
  </g>
  <g id="axes_1">
   <g id="patch_2">
    <path d="M 87.4152 440.3052 
L 915.5592 440.3052 
L 915.5592 34.8264 
L 87.4152 34.8264 
z
" style="fill:#ffffff;"/>
   </g>
   <g id="matplotlib.axis_1">
    <g id="xtick_1">
     <g id="line2d_1">
      <defs>
       <path d="M 0 0 
L 0 3.5 
" id="m8b9ab186f0" style="stroke:#000000;stroke-width:0.8;"/>
      </defs>
      <g>
       <use style="stroke:#000000;stroke-width:0.8;" x="125.0556" xlink:href="#m8b9ab186f0" y="440.3052"/>
      </g>
     </g>
     <g id="text_1">
      <!-- 0.0 -->
      <defs>
       <path d="M 31.78125 66.40625 
Q 24.171875 66.40625 20.328125 58.90625 
Q 16.5 51.421875 16.5 36.375 
Q 16.5 21.390625 20.328125 13.890625 
Q 24.171875 6.390625 31.78125 6.390625 
Q 39.453125 6.390625 43.28125 13.890625 
Q 47.125 21.390625 47.125 36.375 
Q 47.125 51.421875 43.28125 58.90625 
Q 39.453125 66.40625 31.78125 66.40625 
z
M 31.78125 74.21875 
Q 44.046875 74.21875 50.515625 64.515625 
Q 56.984375 54.828125 56.984375 36.375 
Q 56.984375 17.96875 50.515625 8.265625 
Q 44.046875 -1.421875 31.78125 -1.421875 
Q 19.53125 -1.421875 13.0625 8.265625 
Q 6.59375 17.96875 6.59375 36.375 
Q 6.59375 54.828125 13.0625 64.515625 
Q 19.53125 74.21875 31.78125 74.21875 
z
" id="DejaVuSans-48"/>
       <path d="M 10.6875 12.40625 
L 21 12.40625 
L 21 0 
L 10.6875 0 
z
" id="DejaVuSans-46"/>
      </defs>
      <g transform="translate(109.152475 462.502075)scale(0.2 -0.2)">
       <use xlink:href="#DejaVuSans-48"/>
       <use x="63.623047" xlink:href="#DejaVuSans-46"/>
       <use x="95.410156" xlink:href="#DejaVuSans-48"/>
      </g>
     </g>
    </g>
    <g id="xtick_2">
     <g id="line2d_2">
      <g>
       <use style="stroke:#000000;stroke-width:0.8;" x="250.532381" xlink:href="#m8b9ab186f0" y="440.3052"/>
      </g>
     </g>
     <g id="text_2">
      <!-- 0.5 -->
      <defs>
       <path d="M 10.796875 72.90625 
L 49.515625 72.90625 
L 49.515625 64.59375 
L 19.828125 64.59375 
L 19.828125 46.734375 
Q 21.96875 47.46875 24.109375 47.828125 
Q 26.265625 48.1875 28.421875 48.1875 
Q 40.625 48.1875 47.75 41.5 
Q 54.890625 34.8125 54.890625 23.390625 
Q 54.890625 11.625 47.5625 5.09375 
Q 40.234375 -1.421875 26.90625 -1.421875 
Q 22.3125 -1.421875 17.546875 -0.640625 
Q 12.796875 0.140625 7.71875 1.703125 
L 7.71875 11.625 
Q 12.109375 9.234375 16.796875 8.0625 
Q 21.484375 6.890625 26.703125 6.890625 
Q 35.15625 6.890625 40.078125 11.328125 
Q 45.015625 15.765625 45.015625 23.390625 
Q 45.015625 31 40.078125 35.4375 
Q 35.15625 39.890625 26.703125 39.890625 
Q 22.75 39.890625 18.8125 39.015625 
Q 14.890625 38.140625 10.796875 36.28125 
z
" id="DejaVuSans-53"/>
      </defs>
      <g transform="translate(234.629256 462.502075)scale(0.2 -0.2)">
       <use xlink:href="#DejaVuSans-48"/>
       <use x="63.623047" xlink:href="#DejaVuSans-46"/>
       <use x="95.410156" xlink:href="#DejaVuSans-53"/>
      </g>
     </g>
    </g>
    <g id="xtick_3">
     <g id="line2d_3">
      <g>
       <use style="stroke:#000000;stroke-width:0.8;" x="376.009163" xlink:href="#m8b9ab186f0" y="440.3052"/>
      </g>
     </g>
     <g id="text_3">
      <!-- 1.0 -->
      <defs>
       <path d="M 12.40625 8.296875 
L 28.515625 8.296875 
L 28.515625 63.921875 
L 10.984375 60.40625 
L 10.984375 69.390625 
L 28.421875 72.90625 
L 38.28125 72.90625 
L 38.28125 8.296875 
L 54.390625 8.296875 
L 54.390625 0 
L 12.40625 0 
z
" id="DejaVuSans-49"/>
      </defs>
      <g transform="translate(360.106038 462.502075)scale(0.2 -0.2)">
       <use xlink:href="#DejaVuSans-49"/>
       <use x="63.623047" xlink:href="#DejaVuSans-46"/>
       <use x="95.410156" xlink:href="#DejaVuSans-48"/>
      </g>
     </g>
    </g>
    <g id="xtick_4">
     <g id="line2d_4">
      <g>
       <use style="stroke:#000000;stroke-width:0.8;" x="501.485945" xlink:href="#m8b9ab186f0" y="440.3052"/>
      </g>
     </g>
     <g id="text_4">
      <!-- 1.5 -->
      <g transform="translate(485.58282 462.502075)scale(0.2 -0.2)">
       <use xlink:href="#DejaVuSans-49"/>
       <use x="63.623047" xlink:href="#DejaVuSans-46"/>
       <use x="95.410156" xlink:href="#DejaVuSans-53"/>
      </g>
     </g>
    </g>
    <g id="xtick_5">
     <g id="line2d_5">
      <g>
       <use style="stroke:#000000;stroke-width:0.8;" x="626.962727" xlink:href="#m8b9ab186f0" y="440.3052"/>
      </g>
     </g>
     <g id="text_5">
      <!-- 2.0 -->
      <defs>
       <path d="M 19.1875 8.296875 
L 53.609375 8.296875 
L 53.609375 0 
L 7.328125 0 
L 7.328125 8.296875 
Q 12.9375 14.109375 22.625 23.890625 
Q 32.328125 33.6875 34.8125 36.53125 
Q 39.546875 41.84375 41.421875 45.53125 
Q 43.3125 49.21875 43.3125 52.78125 
Q 43.3125 58.59375 39.234375 62.25 
Q 35.15625 65.921875 28.609375 65.921875 
Q 23.96875 65.921875 18.8125 64.3125 
Q 13.671875 62.703125 7.8125 59.421875 
L 7.8125 69.390625 
Q 13.765625 71.78125 18.9375 73 
Q 24.125 74.21875 28.421875 74.21875 
Q 39.75 74.21875 46.484375 68.546875 
Q 53.21875 62.890625 53.21875 53.421875 
Q 53.21875 48.921875 51.53125 44.890625 
Q 49.859375 40.875 45.40625 35.40625 
Q 44.1875 33.984375 37.640625 27.21875 
Q 31.109375 20.453125 19.1875 8.296875 
z
" id="DejaVuSans-50"/>
      </defs>
      <g transform="translate(611.059602 462.502075)scale(0.2 -0.2)">
       <use xlink:href="#DejaVuSans-50"/>
       <use x="63.623047" xlink:href="#DejaVuSans-46"/>
       <use x="95.410156" xlink:href="#DejaVuSans-48"/>
      </g>
     </g>
    </g>
    <g id="xtick_6">
     <g id="line2d_6">
      <g>
       <use style="stroke:#000000;stroke-width:0.8;" x="752.439509" xlink:href="#m8b9ab186f0" y="440.3052"/>
      </g>
     </g>
     <g id="text_6">
      <!-- 2.5 -->
      <g transform="translate(736.536384 462.502075)scale(0.2 -0.2)">
       <use xlink:href="#DejaVuSans-50"/>
       <use x="63.623047" xlink:href="#DejaVuSans-46"/>
       <use x="95.410156" xlink:href="#DejaVuSans-53"/>
      </g>
     </g>
    </g>
    <g id="xtick_7">
     <g id="line2d_7">
      <g>
       <use style="stroke:#000000;stroke-width:0.8;" x="877.916291" xlink:href="#m8b9ab186f0" y="440.3052"/>
      </g>
     </g>
     <g id="text_7">
      <!-- 3.0 -->
      <defs>
       <path d="M 40.578125 39.3125 
Q 47.65625 37.796875 51.625 33 
Q 55.609375 28.21875 55.609375 21.1875 
Q 55.609375 10.40625 48.1875 4.484375 
Q 40.765625 -1.421875 27.09375 -1.421875 
Q 22.515625 -1.421875 17.65625 -0.515625 
Q 12.796875 0.390625 7.625 2.203125 
L 7.625 11.71875 
Q 11.71875 9.328125 16.59375 8.109375 
Q 21.484375 6.890625 26.8125 6.890625 
Q 36.078125 6.890625 40.9375 10.546875 
Q 45.796875 14.203125 45.796875 21.1875 
Q 45.796875 27.640625 41.28125 31.265625 
Q 36.765625 34.90625 28.71875 34.90625 
L 20.21875 34.90625 
L 20.21875 43.015625 
L 29.109375 43.015625 
Q 36.375 43.015625 40.234375 45.921875 
Q 44.09375 48.828125 44.09375 54.296875 
Q 44.09375 59.90625 40.109375 62.90625 
Q 36.140625 65.921875 28.71875 65.921875 
Q 24.65625 65.921875 20.015625 65.03125 
Q 15.375 64.15625 9.8125 62.3125 
L 9.8125 71.09375 
Q 15.4375 72.65625 20.34375 73.4375 
Q 25.25 74.21875 29.59375 74.21875 
Q 40.828125 74.21875 47.359375 69.109375 
Q 53.90625 64.015625 53.90625 55.328125 
Q 53.90625 49.265625 50.4375 45.09375 
Q 46.96875 40.921875 40.578125 39.3125 
z
" id="DejaVuSans-51"/>
      </defs>
      <g transform="translate(862.013166 462.502075)scale(0.2 -0.2)">
       <use xlink:href="#DejaVuSans-51"/>
       <use x="63.623047" xlink:href="#DejaVuSans-46"/>
       <use x="95.410156" xlink:href="#DejaVuSans-48"/>
      </g>
     </g>
    </g>
    <g id="text_8">
     <!-- $\tau/(l_p/\sigma)$ -->
     <defs>
      <path d="M 32.859375 9.96875 
Q 34.1875 7.625 39.453125 7.625 
L 43.75 7.625 
L 42.28125 0 
L 36.921875 0 
Q 28.125 0 25 4.6875 
Q 21.921875 9.46875 23.96875 19.828125 
L 29 45.703125 
L 8.453125 45.703125 
L 10.203125 54.6875 
L 60.640625 54.6875 
L 58.890625 45.703125 
L 38.1875 45.703125 
L 33.015625 19.28125 
Q 31.640625 12.203125 32.859375 9.96875 
z
" id="DejaVuSans-Oblique-964"/>
      <path d="M 25.390625 72.90625 
L 33.6875 72.90625 
L 8.296875 -9.28125 
L 0 -9.28125 
z
" id="DejaVuSans-47"/>
      <path d="M 31 75.875 
Q 24.46875 64.65625 21.28125 53.65625 
Q 18.109375 42.671875 18.109375 31.390625 
Q 18.109375 20.125 21.3125 9.0625 
Q 24.515625 -2 31 -13.1875 
L 23.1875 -13.1875 
Q 15.875 -1.703125 12.234375 9.375 
Q 8.59375 20.453125 8.59375 31.390625 
Q 8.59375 42.28125 12.203125 53.3125 
Q 15.828125 64.359375 23.1875 75.875 
z
" id="DejaVuSans-40"/>
      <path d="M 18.3125 75.984375 
L 27.296875 75.984375 
L 12.5 0 
L 3.515625 0 
z
" id="DejaVuSans-Oblique-108"/>
      <path d="M 49.609375 33.6875 
Q 49.609375 40.875 46.484375 44.671875 
Q 43.359375 48.484375 37.5 48.484375 
Q 33.5 48.484375 29.859375 46.4375 
Q 26.21875 44.390625 23.390625 40.484375 
Q 20.609375 36.625 18.9375 31.15625 
Q 17.28125 25.6875 17.28125 20.3125 
Q 17.28125 13.484375 20.40625 9.796875 
Q 23.53125 6.109375 29.296875 6.109375 
Q 33.546875 6.109375 37.1875 8.109375 
Q 40.828125 10.109375 43.40625 13.921875 
Q 46.1875 17.921875 47.890625 23.34375 
Q 49.609375 28.765625 49.609375 33.6875 
z
M 21.78125 46.390625 
Q 25.390625 51.125 30.296875 53.5625 
Q 35.203125 56 41.21875 56 
Q 49.609375 56 54.25 50.5 
Q 58.890625 45.015625 58.890625 35.109375 
Q 58.890625 27 56 19.65625 
Q 53.125 12.3125 47.703125 6.5 
Q 44.09375 2.640625 39.546875 0.609375 
Q 35.015625 -1.421875 29.984375 -1.421875 
Q 24.171875 -1.421875 20.21875 1 
Q 16.265625 3.421875 14.3125 8.203125 
L 8.6875 -20.796875 
L -0.296875 -20.796875 
L 14.40625 54.6875 
L 23.390625 54.6875 
z
" id="DejaVuSans-Oblique-112"/>
      <path d="M 34.671875 47.5625 
Q 27.25 47.5625 22.21875 42.1875 
Q 16.890625 36.578125 15.140625 27.296875 
Q 13.1875 17.484375 16.3125 11.8125 
Q 19.390625 6.203125 26.65625 6.203125 
Q 33.84375 6.203125 39.109375 11.859375 
Q 44.4375 17.53125 46.34375 27.296875 
Q 48.046875 36.234375 45.015625 42.1875 
Q 42.1875 47.5625 34.671875 47.5625 
z
M 36.078125 54.734375 
L 65.921875 54.6875 
L 64.15625 45.703125 
L 54.109375 45.703125 
Q 57.90625 38.09375 55.859375 27.296875 
Q 53.21875 13.875 45.0625 6.25 
Q 36.859375 -1.421875 25.140625 -1.421875 
Q 13.375 -1.421875 8.203125 6.25 
Q 3.03125 13.875 5.671875 27.296875 
Q 8.25 40.765625 16.40625 48.390625 
Q 23.1875 54.734375 36.078125 54.734375 
z
" id="DejaVuSans-Oblique-963"/>
      <path d="M 8.015625 75.875 
L 15.828125 75.875 
Q 23.140625 64.359375 26.78125 53.3125 
Q 30.421875 42.28125 30.421875 31.390625 
Q 30.421875 20.453125 26.78125 9.375 
Q 23.140625 -1.703125 15.828125 -13.1875 
L 8.015625 -13.1875 
Q 14.5 -2 17.703125 9.0625 
Q 20.90625 20.125 20.90625 31.390625 
Q 20.90625 42.671875 17.703125 53.65625 
Q 14.5 64.65625 8.015625 75.875 
z
" id="DejaVuSans-41"/>
     </defs>
     <g transform="translate(467.0872 485.86145)scale(0.2 -0.2)">
      <use transform="translate(0 0.015625)" xlink:href="#DejaVuSans-Oblique-964"/>
      <use transform="translate(60.205078 0.015625)" xlink:href="#DejaVuSans-47"/>
      <use transform="translate(93.896484 0.015625)" xlink:href="#DejaVuSans-40"/>
      <use transform="translate(132.910156 0.015625)" xlink:href="#DejaVuSans-Oblique-108"/>
      <use transform="translate(160.693359 -16.390625)scale(0.7)" xlink:href="#DejaVuSans-Oblique-112"/>
      <use transform="translate(207.861328 0.015625)" xlink:href="#DejaVuSans-47"/>
      <use transform="translate(241.552734 0.015625)" xlink:href="#DejaVuSans-Oblique-963"/>
      <use transform="translate(304.931641 0.015625)" xlink:href="#DejaVuSans-41"/>
     </g>
    </g>
   </g>
   <g id="matplotlib.axis_2">
    <g id="ytick_1">
     <g id="line2d_8">
      <defs>
       <path d="M 0 0 
L -3.5 0 
" id="m5192447844" style="stroke:#000000;stroke-width:0.8;"/>
      </defs>
      <g>
       <use style="stroke:#000000;stroke-width:0.8;" x="87.4152" xlink:href="#m5192447844" y="315.650153"/>
      </g>
     </g>
     <g id="text_9">
      <!-- $\mathdefault{10^{-3}}$ -->
      <defs>
       <path d="M 10.59375 35.5 
L 73.1875 35.5 
L 73.1875 27.203125 
L 10.59375 27.203125 
z
" id="DejaVuSans-8722"/>
      </defs>
      <g transform="translate(33.4152 323.248591)scale(0.2 -0.2)">
       <use transform="translate(0 0.765625)" xlink:href="#DejaVuSans-49"/>
       <use transform="translate(63.623047 0.765625)" xlink:href="#DejaVuSans-48"/>
       <use transform="translate(128.203125 39.046875)scale(0.7)" xlink:href="#DejaVuSans-8722"/>
       <use transform="translate(186.855469 39.046875)scale(0.7)" xlink:href="#DejaVuSans-51"/>
      </g>
     </g>
    </g>
    <g id="ytick_2">
     <g id="line2d_9">
      <g>
       <use style="stroke:#000000;stroke-width:0.8;" x="87.4152" xlink:href="#m5192447844" y="161.126344"/>
      </g>
     </g>
     <g id="text_10">
      <!-- $\mathdefault{10^{-2}}$ -->
      <g transform="translate(33.4152 168.724782)scale(0.2 -0.2)">
       <use transform="translate(0 0.765625)" xlink:href="#DejaVuSans-49"/>
       <use transform="translate(63.623047 0.765625)" xlink:href="#DejaVuSans-48"/>
       <use transform="translate(128.203125 39.046875)scale(0.7)" xlink:href="#DejaVuSans-8722"/>
       <use transform="translate(186.855469 39.046875)scale(0.7)" xlink:href="#DejaVuSans-50"/>
      </g>
     </g>
    </g>
    <g id="ytick_3">
     <g id="line2d_10">
      <defs>
       <path d="M 0 0 
L -2 0 
" id="m1b431aeba9" style="stroke:#000000;stroke-width:0.6;"/>
      </defs>
      <g>
       <use style="stroke:#000000;stroke-width:0.6;" x="87.4152" xlink:href="#m1b431aeba9" y="423.657661"/>
      </g>
     </g>
    </g>
    <g id="ytick_4">
     <g id="line2d_11">
      <g>
       <use style="stroke:#000000;stroke-width:0.6;" x="87.4152" xlink:href="#m1b431aeba9" y="396.447369"/>
      </g>
     </g>
    </g>
    <g id="ytick_5">
     <g id="line2d_12">
      <g>
       <use style="stroke:#000000;stroke-width:0.6;" x="87.4152" xlink:href="#m1b431aeba9" y="377.141359"/>
      </g>
     </g>
    </g>
    <g id="ytick_6">
     <g id="line2d_13">
      <g>
       <use style="stroke:#000000;stroke-width:0.6;" x="87.4152" xlink:href="#m1b431aeba9" y="362.166455"/>
      </g>
     </g>
    </g>
    <g id="ytick_7">
     <g id="line2d_14">
      <g>
       <use style="stroke:#000000;stroke-width:0.6;" x="87.4152" xlink:href="#m1b431aeba9" y="349.931067"/>
      </g>
     </g>
    </g>
    <g id="ytick_8">
     <g id="line2d_15">
      <g>
       <use style="stroke:#000000;stroke-width:0.6;" x="87.4152" xlink:href="#m1b431aeba9" y="339.586194"/>
      </g>
     </g>
    </g>
    <g id="ytick_9">
     <g id="line2d_16">
      <g>
       <use style="stroke:#000000;stroke-width:0.6;" x="87.4152" xlink:href="#m1b431aeba9" y="330.625057"/>
      </g>
     </g>
    </g>
    <g id="ytick_10">
     <g id="line2d_17">
      <g>
       <use style="stroke:#000000;stroke-width:0.6;" x="87.4152" xlink:href="#m1b431aeba9" y="322.720775"/>
      </g>
     </g>
    </g>
    <g id="ytick_11">
     <g id="line2d_18">
      <g>
       <use style="stroke:#000000;stroke-width:0.6;" x="87.4152" xlink:href="#m1b431aeba9" y="269.133852"/>
      </g>
     </g>
    </g>
    <g id="ytick_12">
     <g id="line2d_19">
      <g>
       <use style="stroke:#000000;stroke-width:0.6;" x="87.4152" xlink:href="#m1b431aeba9" y="241.923559"/>
      </g>
     </g>
    </g>
    <g id="ytick_13">
     <g id="line2d_20">
      <g>
       <use style="stroke:#000000;stroke-width:0.6;" x="87.4152" xlink:href="#m1b431aeba9" y="222.61755"/>
      </g>
     </g>
    </g>
    <g id="ytick_14">
     <g id="line2d_21">
      <g>
       <use style="stroke:#000000;stroke-width:0.6;" x="87.4152" xlink:href="#m1b431aeba9" y="207.642646"/>
      </g>
     </g>
    </g>
    <g id="ytick_15">
     <g id="line2d_22">
      <g>
       <use style="stroke:#000000;stroke-width:0.6;" x="87.4152" xlink:href="#m1b431aeba9" y="195.407258"/>
      </g>
     </g>
    </g>
    <g id="ytick_16">
     <g id="line2d_23">
      <g>
       <use style="stroke:#000000;stroke-width:0.6;" x="87.4152" xlink:href="#m1b431aeba9" y="185.062385"/>
      </g>
     </g>
    </g>
    <g id="ytick_17">
     <g id="line2d_24">
      <g>
       <use style="stroke:#000000;stroke-width:0.6;" x="87.4152" xlink:href="#m1b431aeba9" y="176.101248"/>
      </g>
     </g>
    </g>
    <g id="ytick_18">
     <g id="line2d_25">
      <g>
       <use style="stroke:#000000;stroke-width:0.6;" x="87.4152" xlink:href="#m1b431aeba9" y="168.196966"/>
      </g>
     </g>
    </g>
    <g id="ytick_19">
     <g id="line2d_26">
      <g>
       <use style="stroke:#000000;stroke-width:0.6;" x="87.4152" xlink:href="#m1b431aeba9" y="114.610042"/>
      </g>
     </g>
    </g>
    <g id="ytick_20">
     <g id="line2d_27">
      <g>
       <use style="stroke:#000000;stroke-width:0.6;" x="87.4152" xlink:href="#m1b431aeba9" y="87.39975"/>
      </g>
     </g>
    </g>
    <g id="ytick_21">
     <g id="line2d_28">
      <g>
       <use style="stroke:#000000;stroke-width:0.6;" x="87.4152" xlink:href="#m1b431aeba9" y="68.093741"/>
      </g>
     </g>
    </g>
    <g id="ytick_22">
     <g id="line2d_29">
      <g>
       <use style="stroke:#000000;stroke-width:0.6;" x="87.4152" xlink:href="#m1b431aeba9" y="53.118837"/>
      </g>
     </g>
    </g>
    <g id="ytick_23">
     <g id="line2d_30">
      <g>
       <use style="stroke:#000000;stroke-width:0.6;" x="87.4152" xlink:href="#m1b431aeba9" y="40.883449"/>
      </g>
     </g>
    </g>
    <g id="text_11">
     <!-- $&lt;\delta \vec{\nu}(t_0 + \tau) \cdot \delta \vec{\nu}(t_0)&gt;_{t_0}$ -->
     <defs>
      <path d="M 73.1875 49.21875 
L 22.796875 31.296875 
L 73.1875 13.484375 
L 73.1875 4.59375 
L 10.59375 27.296875 
L 10.59375 35.40625 
L 73.1875 58.109375 
z
" id="DejaVuSans-60"/>
      <path d="M 54.25 63.328125 
Q 49.953125 66.75 38.28125 66.75 
Q 25.921875 66.75 24.8125 61.03125 
Q 23.921875 56.546875 36.375 54.203125 
Q 46.140625 52.390625 50.828125 46.921875 
Q 56.5 40.328125 53.859375 26.8125 
Q 51.3125 13.875 43.171875 6.25 
Q 34.96875 -1.421875 23.25 -1.421875 
Q 11.578125 -1.421875 6.34375 6.25 
Q 1.125 13.875 3.765625 27.296875 
Q 5.671875 37.25 13.921875 45.3125 
Q 17.140625 48.4375 21.140625 50.203125 
Q 14.265625 54.046875 15.625 60.9375 
Q 18.21875 74.21875 39.75 74.21875 
Q 50.53125 74.21875 55.71875 70.796875 
z
M 27.390625 47.75 
Q 23.828125 46.34375 20.40625 42.78125 
Q 15.140625 37.25 13.234375 27.296875 
Q 11.28125 17.390625 14.359375 11.8125 
Q 17.484375 6.203125 24.75 6.203125 
Q 31.9375 6.203125 37.203125 11.859375 
Q 42.53125 17.53125 44.34375 26.8125 
Q 46.1875 36.53125 42.671875 41.21875 
Q 38.921875 46.234375 32.859375 46.78125 
Q 29.78125 47.078125 27.390625 47.75 
z
" id="DejaVuSans-Oblique-948"/>
      <path d="M -47.015625 63.53125 
L -47.015625 68.40625 
L -10.84375 68.40625 
L -17.28125 75.984375 
L -11.140625 75.984375 
L -2.59375 65.96875 
L -11.140625 55.953125 
L -17.28125 55.953125 
L -10.84375 63.53125 
z
" id="DejaVuSans-8407"/>
      <path d="M 14.984375 0 
L 8.9375 54.6875 
L 18.609375 54.6875 
L 23.78125 8.796875 
Q 30.8125 14.84375 37.359375 23.25 
Q 42.28125 29.546875 43.5625 35.015625 
Q 44.140625 37.59375 43.890625 42.484375 
Q 43.65625 48.296875 39.75 54.6875 
L 48.828125 54.6875 
L 48.828125 54.6875 
Q 51.375 50.34375 52.390625 44.28125 
Q 53.375 38.71875 52.640625 34.90625 
Q 50.78125 25.34375 42.484375 16.796875 
Q 31.640625 5.671875 24.5625 0 
z
" id="DejaVuSans-Oblique-957"/>
      <path d="M 42.28125 54.6875 
L 40.921875 47.703125 
L 23 47.703125 
L 17.1875 18.015625 
Q 16.890625 16.359375 16.75 15.234375 
Q 16.609375 14.109375 16.609375 13.484375 
Q 16.609375 10.359375 18.484375 8.9375 
Q 20.359375 7.515625 24.515625 7.515625 
L 33.59375 7.515625 
L 32.078125 0 
L 23.484375 0 
Q 15.484375 0 11.546875 3.125 
Q 7.625 6.25 7.625 12.59375 
Q 7.625 13.71875 7.765625 15.0625 
Q 7.90625 16.40625 8.203125 18.015625 
L 14.015625 47.703125 
L 6.390625 47.703125 
L 7.8125 54.6875 
L 15.28125 54.6875 
L 18.3125 70.21875 
L 27.296875 70.21875 
L 24.3125 54.6875 
z
" id="DejaVuSans-Oblique-116"/>
      <path d="M 46 62.703125 
L 46 35.5 
L 73.1875 35.5 
L 73.1875 27.203125 
L 46 27.203125 
L 46 0 
L 37.796875 0 
L 37.796875 27.203125 
L 10.59375 27.203125 
L 10.59375 35.5 
L 37.796875 35.5 
L 37.796875 62.703125 
z
" id="DejaVuSans-43"/>
      <path d="M 10.6875 40.921875 
L 21 40.921875 
L 21 28.515625 
L 10.6875 28.515625 
z
" id="DejaVuSans-8901"/>
      <path d="M 10.59375 49.21875 
L 10.59375 58.109375 
L 73.1875 35.40625 
L 73.1875 27.296875 
L 10.59375 4.59375 
L 10.59375 13.484375 
L 60.890625 31.296875 
z
" id="DejaVuSans-62"/>
     </defs>
     <g transform="translate(23.6152 350.2658)rotate(-90)scale(0.2 -0.2)">
      <use transform="translate(19.482422 0.78125)" xlink:href="#DejaVuSans-60"/>
      <use transform="translate(122.753906 0.78125)" xlink:href="#DejaVuSans-Oblique-948"/>
      <use transform="translate(243.916016 12.015625)" xlink:href="#DejaVuSans-8407"/>
      <use transform="translate(183.935547 0.78125)" xlink:href="#DejaVuSans-Oblique-957"/>
      <use transform="translate(239.794922 0.78125)" xlink:href="#DejaVuSans-40"/>
      <use transform="translate(278.808594 0.78125)" xlink:href="#DejaVuSans-Oblique-116"/>
      <use transform="translate(318.017578 -15.625)scale(0.7)" xlink:href="#DejaVuSans-48"/>
      <use transform="translate(384.770508 0.78125)" xlink:href="#DejaVuSans-43"/>
      <use transform="translate(488.041992 0.78125)" xlink:href="#DejaVuSans-Oblique-964"/>
      <use transform="translate(548.24707 0.78125)" xlink:href="#DejaVuSans-41"/>
      <use transform="translate(606.743164 0.78125)" xlink:href="#DejaVuSans-8901"/>
      <use transform="translate(658.012695 0.78125)" xlink:href="#DejaVuSans-Oblique-948"/>
      <use transform="translate(779.174805 12.015625)" xlink:href="#DejaVuSans-8407"/>
      <use transform="translate(719.194336 0.78125)" xlink:href="#DejaVuSans-Oblique-957"/>
      <use transform="translate(775.053711 0.78125)" xlink:href="#DejaVuSans-40"/>
      <use transform="translate(814.067383 0.78125)" xlink:href="#DejaVuSans-Oblique-116"/>
      <use transform="translate(853.276367 -15.625)scale(0.7)" xlink:href="#DejaVuSans-48"/>
      <use transform="translate(900.546875 0.78125)" xlink:href="#DejaVuSans-41"/>
      <use transform="translate(959.042969 0.78125)" xlink:href="#DejaVuSans-62"/>
      <use transform="translate(1063.271484 -15.625)scale(0.7)" xlink:href="#DejaVuSans-Oblique-116"/>
      <use transform="translate(1090.717773 -27.109375)scale(0.49)" xlink:href="#DejaVuSans-48"/>
     </g>
    </g>
   </g>
   <g id="LineCollection_1">
    <path clip-path="url(#p327b7c5c3a)" d="M 125.058109 57.915742 
L 125.058109 53.473733 
" style="fill:none;stroke:#1f77b4;stroke-width:1.5;"/>
    <path clip-path="url(#p327b7c5c3a)" d="M 132.662002 59.484291 
L 132.662002 55.033917 
" style="fill:none;stroke:#1f77b4;stroke-width:1.5;"/>
    <path clip-path="url(#p327b7c5c3a)" d="M 140.265895 61.637141 
L 140.265895 57.110379 
" style="fill:none;stroke:#1f77b4;stroke-width:1.5;"/>
    <path clip-path="url(#p327b7c5c3a)" d="M 147.869788 63.98899 
L 147.869788 59.396566 
" style="fill:none;stroke:#1f77b4;stroke-width:1.5;"/>
    <path clip-path="url(#p327b7c5c3a)" d="M 155.476191 66.349198 
L 155.476191 61.726834 
" style="fill:none;stroke:#1f77b4;stroke-width:1.5;"/>
    <path clip-path="url(#p327b7c5c3a)" d="M 163.080084 68.068602 
L 163.080084 63.395734 
" style="fill:none;stroke:#1f77b4;stroke-width:1.5;"/>
    <path clip-path="url(#p327b7c5c3a)" d="M 170.683977 70.194826 
L 170.683977 65.461968 
" style="fill:none;stroke:#1f77b4;stroke-width:1.5;"/>
    <path clip-path="url(#p327b7c5c3a)" d="M 178.290379 71.317957 
L 178.290379 66.510931 
" style="fill:none;stroke:#1f77b4;stroke-width:1.5;"/>
    <path clip-path="url(#p327b7c5c3a)" d="M 185.894272 73.904978 
L 185.894272 68.981028 
" style="fill:none;stroke:#1f77b4;stroke-width:1.5;"/>
    <path clip-path="url(#p327b7c5c3a)" d="M 193.498165 75.317324 
L 193.498165 70.343385 
" style="fill:none;stroke:#1f77b4;stroke-width:1.5;"/>
    <path clip-path="url(#p327b7c5c3a)" d="M 201.102058 78.037466 
L 201.102058 72.892144 
" style="fill:none;stroke:#1f77b4;stroke-width:1.5;"/>
    <path clip-path="url(#p327b7c5c3a)" d="M 208.708461 79.822524 
L 208.708461 74.526872 
" style="fill:none;stroke:#1f77b4;stroke-width:1.5;"/>
    <path clip-path="url(#p327b7c5c3a)" d="M 216.312353 82.000224 
L 216.312353 76.567537 
" style="fill:none;stroke:#1f77b4;stroke-width:1.5;"/>
    <path clip-path="url(#p327b7c5c3a)" d="M 223.916246 83.369704 
L 223.916246 77.776288 
" style="fill:none;stroke:#1f77b4;stroke-width:1.5;"/>
    <path clip-path="url(#p327b7c5c3a)" d="M 231.522649 85.52001 
L 231.522649 79.719927 
" style="fill:none;stroke:#1f77b4;stroke-width:1.5;"/>
    <path clip-path="url(#p327b7c5c3a)" d="M 239.126542 88.334852 
L 239.126542 82.411888 
" style="fill:none;stroke:#1f77b4;stroke-width:1.5;"/>
    <path clip-path="url(#p327b7c5c3a)" d="M 246.730435 90.285386 
L 246.730435 84.26504 
" style="fill:none;stroke:#1f77b4;stroke-width:1.5;"/>
    <path clip-path="url(#p327b7c5c3a)" d="M 254.334328 91.918467 
L 254.334328 85.875977 
" style="fill:none;stroke:#1f77b4;stroke-width:1.5;"/>
    <path clip-path="url(#p327b7c5c3a)" d="M 261.94073 94.390831 
L 261.94073 88.263667 
" style="fill:none;stroke:#1f77b4;stroke-width:1.5;"/>
    <path clip-path="url(#p327b7c5c3a)" d="M 269.544623 97.788606 
L 269.544623 91.473597 
" style="fill:none;stroke:#1f77b4;stroke-width:1.5;"/>
    <path clip-path="url(#p327b7c5c3a)" d="M 277.148516 100.876844 
L 277.148516 94.300722 
" style="fill:none;stroke:#1f77b4;stroke-width:1.5;"/>
    <path clip-path="url(#p327b7c5c3a)" d="M 284.754919 103.094789 
L 284.754919 96.21192 
" style="fill:none;stroke:#1f77b4;stroke-width:1.5;"/>
    <path clip-path="url(#p327b7c5c3a)" d="M 292.358812 105.061615 
L 292.358812 98.175319 
" style="fill:none;stroke:#1f77b4;stroke-width:1.5;"/>
    <path clip-path="url(#p327b7c5c3a)" d="M 299.962705 108.091528 
L 299.962705 100.990403 
" style="fill:none;stroke:#1f77b4;stroke-width:1.5;"/>
    <path clip-path="url(#p327b7c5c3a)" d="M 307.569107 109.943449 
L 307.569107 102.610572 
" style="fill:none;stroke:#1f77b4;stroke-width:1.5;"/>
    <path clip-path="url(#p327b7c5c3a)" d="M 315.173 112.483833 
L 315.173 105.072612 
" style="fill:none;stroke:#1f77b4;stroke-width:1.5;"/>
    <path clip-path="url(#p327b7c5c3a)" d="M 322.776893 115.13944 
L 322.776893 107.495218 
" style="fill:none;stroke:#1f77b4;stroke-width:1.5;"/>
    <path clip-path="url(#p327b7c5c3a)" d="M 330.380786 116.650811 
L 330.380786 108.675703 
" style="fill:none;stroke:#1f77b4;stroke-width:1.5;"/>
    <path clip-path="url(#p327b7c5c3a)" d="M 337.987189 119.27962 
L 337.987189 111.129131 
" style="fill:none;stroke:#1f77b4;stroke-width:1.5;"/>
    <path clip-path="url(#p327b7c5c3a)" d="M 345.591082 121.84996 
L 345.591082 113.654517 
" style="fill:none;stroke:#1f77b4;stroke-width:1.5;"/>
    <path clip-path="url(#p327b7c5c3a)" d="M 353.194975 124.708889 
L 353.194975 116.123204 
" style="fill:none;stroke:#1f77b4;stroke-width:1.5;"/>
    <path clip-path="url(#p327b7c5c3a)" d="M 360.801377 127.151025 
L 360.801377 118.314366 
" style="fill:none;stroke:#1f77b4;stroke-width:1.5;"/>
    <path clip-path="url(#p327b7c5c3a)" d="M 368.40527 129.144965 
L 368.40527 120.051628 
" style="fill:none;stroke:#1f77b4;stroke-width:1.5;"/>
    <path clip-path="url(#p327b7c5c3a)" d="M 376.009163 132.532322 
L 376.009163 123.025232 
" style="fill:none;stroke:#1f77b4;stroke-width:1.5;"/>
    <path clip-path="url(#p327b7c5c3a)" d="M 383.613056 134.135353 
L 383.613056 124.570154 
" style="fill:none;stroke:#1f77b4;stroke-width:1.5;"/>
    <path clip-path="url(#p327b7c5c3a)" d="M 391.219459 136.204116 
L 391.219459 126.092761 
" style="fill:none;stroke:#1f77b4;stroke-width:1.5;"/>
    <path clip-path="url(#p327b7c5c3a)" d="M 398.823352 138.098444 
L 398.823352 127.730367 
" style="fill:none;stroke:#1f77b4;stroke-width:1.5;"/>
    <path clip-path="url(#p327b7c5c3a)" d="M 406.427245 140.623383 
L 406.427245 129.907611 
" style="fill:none;stroke:#1f77b4;stroke-width:1.5;"/>
    <path clip-path="url(#p327b7c5c3a)" d="M 414.033647 145.962137 
L 414.033647 134.508169 
" style="fill:none;stroke:#1f77b4;stroke-width:1.5;"/>
    <path clip-path="url(#p327b7c5c3a)" d="M 421.63754 147.715656 
L 421.63754 135.996003 
" style="fill:none;stroke:#1f77b4;stroke-width:1.5;"/>
    <path clip-path="url(#p327b7c5c3a)" d="M 429.241433 152.312002 
L 429.241433 139.678222 
" style="fill:none;stroke:#1f77b4;stroke-width:1.5;"/>
    <path clip-path="url(#p327b7c5c3a)" d="M 436.847836 156.078442 
L 436.847836 143.004412 
" style="fill:none;stroke:#1f77b4;stroke-width:1.5;"/>
    <path clip-path="url(#p327b7c5c3a)" d="M 444.451729 159.605564 
L 444.451729 145.68374 
" style="fill:none;stroke:#1f77b4;stroke-width:1.5;"/>
    <path clip-path="url(#p327b7c5c3a)" d="M 452.055622 161.39962 
L 452.055622 146.786619 
" style="fill:none;stroke:#1f77b4;stroke-width:1.5;"/>
    <path clip-path="url(#p327b7c5c3a)" d="M 459.659515 161.036044 
L 459.659515 146.676267 
" style="fill:none;stroke:#1f77b4;stroke-width:1.5;"/>
    <path clip-path="url(#p327b7c5c3a)" d="M 467.265917 160.87257 
L 467.265917 146.363113 
" style="fill:none;stroke:#1f77b4;stroke-width:1.5;"/>
    <path clip-path="url(#p327b7c5c3a)" d="M 474.86981 162.084247 
L 474.86981 147.532642 
" style="fill:none;stroke:#1f77b4;stroke-width:1.5;"/>
    <path clip-path="url(#p327b7c5c3a)" d="M 482.473703 164.397986 
L 482.473703 149.6645 
" style="fill:none;stroke:#1f77b4;stroke-width:1.5;"/>
    <path clip-path="url(#p327b7c5c3a)" d="M 490.080106 167.541329 
L 490.080106 152.425451 
" style="fill:none;stroke:#1f77b4;stroke-width:1.5;"/>
    <path clip-path="url(#p327b7c5c3a)" d="M 497.683999 169.824496 
L 497.683999 154.174232 
" style="fill:none;stroke:#1f77b4;stroke-width:1.5;"/>
    <path clip-path="url(#p327b7c5c3a)" d="M 505.287892 172.006599 
L 505.287892 155.707934 
" style="fill:none;stroke:#1f77b4;stroke-width:1.5;"/>
    <path clip-path="url(#p327b7c5c3a)" d="M 512.891785 176.363668 
L 512.891785 159.050487 
" style="fill:none;stroke:#1f77b4;stroke-width:1.5;"/>
    <path clip-path="url(#p327b7c5c3a)" d="M 520.498187 178.649448 
L 520.498187 160.742472 
" style="fill:none;stroke:#1f77b4;stroke-width:1.5;"/>
    <path clip-path="url(#p327b7c5c3a)" d="M 528.10208 186.118864 
L 528.10208 166.540212 
" style="fill:none;stroke:#1f77b4;stroke-width:1.5;"/>
    <path clip-path="url(#p327b7c5c3a)" d="M 535.705973 190.068796 
L 535.705973 169.466751 
" style="fill:none;stroke:#1f77b4;stroke-width:1.5;"/>
    <path clip-path="url(#p327b7c5c3a)" d="M 543.312376 194.969737 
L 543.312376 173.057688 
" style="fill:none;stroke:#1f77b4;stroke-width:1.5;"/>
    <path clip-path="url(#p327b7c5c3a)" d="M 550.916269 201.335881 
L 550.916269 178.003972 
" style="fill:none;stroke:#1f77b4;stroke-width:1.5;"/>
    <path clip-path="url(#p327b7c5c3a)" d="M 558.520162 202.467716 
L 558.520162 178.894834 
" style="fill:none;stroke:#1f77b4;stroke-width:1.5;"/>
    <path clip-path="url(#p327b7c5c3a)" d="M 566.124055 196.36052 
L 566.124055 174.44473 
" style="fill:none;stroke:#1f77b4;stroke-width:1.5;"/>
    <path clip-path="url(#p327b7c5c3a)" d="M 573.730457 199.627345 
L 573.730457 176.706894 
" style="fill:none;stroke:#1f77b4;stroke-width:1.5;"/>
    <path clip-path="url(#p327b7c5c3a)" d="M 581.33435 200.593314 
L 581.33435 177.058631 
" style="fill:none;stroke:#1f77b4;stroke-width:1.5;"/>
    <path clip-path="url(#p327b7c5c3a)" d="M 588.938243 203.099433 
L 588.938243 179.200385 
" style="fill:none;stroke:#1f77b4;stroke-width:1.5;"/>
    <path clip-path="url(#p327b7c5c3a)" d="M 596.544646 210.585953 
L 596.544646 184.291048 
" style="fill:none;stroke:#1f77b4;stroke-width:1.5;"/>
    <path clip-path="url(#p327b7c5c3a)" d="M 604.148539 217.576069 
L 604.148539 189.361604 
" style="fill:none;stroke:#1f77b4;stroke-width:1.5;"/>
    <path clip-path="url(#p327b7c5c3a)" d="M 611.752432 220.821143 
L 611.752432 191.314687 
" style="fill:none;stroke:#1f77b4;stroke-width:1.5;"/>
    <path clip-path="url(#p327b7c5c3a)" d="M 619.358834 223.34712 
L 619.358834 192.960222 
" style="fill:none;stroke:#1f77b4;stroke-width:1.5;"/>
    <path clip-path="url(#p327b7c5c3a)" d="M 626.962727 233.767077 
L 626.962727 199.59249 
" style="fill:none;stroke:#1f77b4;stroke-width:1.5;"/>
    <path clip-path="url(#p327b7c5c3a)" d="M 634.56662 239.196139 
L 634.56662 202.70204 
" style="fill:none;stroke:#1f77b4;stroke-width:1.5;"/>
    <path clip-path="url(#p327b7c5c3a)" d="M 642.170513 245.658863 
L 642.170513 206.72664 
" style="fill:none;stroke:#1f77b4;stroke-width:1.5;"/>
    <path clip-path="url(#p327b7c5c3a)" d="M 649.776916 254.605939 
L 649.776916 211.171735 
" style="fill:none;stroke:#1f77b4;stroke-width:1.5;"/>
    <path clip-path="url(#p327b7c5c3a)" d="M 657.380809 256.448333 
L 657.380809 213.119295 
" style="fill:none;stroke:#1f77b4;stroke-width:1.5;"/>
    <path clip-path="url(#p327b7c5c3a)" d="M 664.984702 271.964124 
L 664.984702 220.719971 
" style="fill:none;stroke:#1f77b4;stroke-width:1.5;"/>
    <path clip-path="url(#p327b7c5c3a)" d="M 672.591104 288.093504 
L 672.591104 227.025954 
" style="fill:none;stroke:#1f77b4;stroke-width:1.5;"/>
    <path clip-path="url(#p327b7c5c3a)" d="M 680.194997 290.204089 
L 680.194997 228.426086 
" style="fill:none;stroke:#1f77b4;stroke-width:1.5;"/>
    <path clip-path="url(#p327b7c5c3a)" d="M 687.79889 289.22655 
L 687.79889 227.492794 
" style="fill:none;stroke:#1f77b4;stroke-width:1.5;"/>
    <path clip-path="url(#p327b7c5c3a)" d="M 695.402783 289.20277 
L 695.402783 226.885597 
" style="fill:none;stroke:#1f77b4;stroke-width:1.5;"/>
    <path clip-path="url(#p327b7c5c3a)" d="M 703.009186 310.693402 
L 703.009186 234.522775 
" style="fill:none;stroke:#1f77b4;stroke-width:1.5;"/>
    <path clip-path="url(#p327b7c5c3a)" d="M 710.613079 319.270899 
L 710.613079 237.714211 
" style="fill:none;stroke:#1f77b4;stroke-width:1.5;"/>
    <path clip-path="url(#p327b7c5c3a)" d="M 718.216972 320.09294 
L 718.216972 237.266182 
" style="fill:none;stroke:#1f77b4;stroke-width:1.5;"/>
    <path clip-path="url(#p327b7c5c3a)" d="M 725.823374 309.695529 
L 725.823374 233.602251 
" style="fill:none;stroke:#1f77b4;stroke-width:1.5;"/>
    <path clip-path="url(#p327b7c5c3a)" d="M 733.427267 302.858814 
L 733.427267 231.344429 
" style="fill:none;stroke:#1f77b4;stroke-width:1.5;"/>
    <path clip-path="url(#p327b7c5c3a)" d="M 741.03116 287.680122 
L 741.03116 225.769132 
" style="fill:none;stroke:#1f77b4;stroke-width:1.5;"/>
    <path clip-path="url(#p327b7c5c3a)" d="M 748.637563 277.361767 
L 748.637563 220.883894 
" style="fill:none;stroke:#1f77b4;stroke-width:1.5;"/>
    <path clip-path="url(#p327b7c5c3a)" d="M 756.241456 278.793151 
L 756.241456 220.861524 
" style="fill:none;stroke:#1f77b4;stroke-width:1.5;"/>
    <path clip-path="url(#p327b7c5c3a)" d="M 763.845348 270.641391 
L 763.845348 217.73217 
" style="fill:none;stroke:#1f77b4;stroke-width:1.5;"/>
    <path clip-path="url(#p327b7c5c3a)" d="M 771.449241 280.579858 
L 771.449241 221.76224 
" style="fill:none;stroke:#1f77b4;stroke-width:1.5;"/>
    <path clip-path="url(#p327b7c5c3a)" d="M 779.055644 274.496439 
L 779.055644 219.295831 
" style="fill:none;stroke:#1f77b4;stroke-width:1.5;"/>
    <path clip-path="url(#p327b7c5c3a)" d="M 786.659537 279.500235 
L 786.659537 221.576061 
" style="fill:none;stroke:#1f77b4;stroke-width:1.5;"/>
    <path clip-path="url(#p327b7c5c3a)" d="M 794.26343 283.078215 
L 794.26343 223.371115 
" style="fill:none;stroke:#1f77b4;stroke-width:1.5;"/>
    <path clip-path="url(#p327b7c5c3a)" d="M 801.869832 286.251074 
L 801.869832 224.214112 
" style="fill:none;stroke:#1f77b4;stroke-width:1.5;"/>
    <path clip-path="url(#p327b7c5c3a)" d="M 809.473725 288.062429 
L 809.473725 225.215617 
" style="fill:none;stroke:#1f77b4;stroke-width:1.5;"/>
    <path clip-path="url(#p327b7c5c3a)" d="M 817.077618 301.452397 
L 817.077618 230.39651 
" style="fill:none;stroke:#1f77b4;stroke-width:1.5;"/>
    <path clip-path="url(#p327b7c5c3a)" d="M 824.681511 322.726779 
L 824.681511 237.650464 
" style="fill:none;stroke:#1f77b4;stroke-width:1.5;"/>
    <path clip-path="url(#p327b7c5c3a)" d="M 832.287914 299.678444 
L 832.287914 230.022864 
" style="fill:none;stroke:#1f77b4;stroke-width:1.5;"/>
    <path clip-path="url(#p327b7c5c3a)" d="M 839.891807 311.361887 
L 839.891807 234.701604 
" style="fill:none;stroke:#1f77b4;stroke-width:1.5;"/>
    <path clip-path="url(#p327b7c5c3a)" d="M 847.4957 378.076815 
L 847.4957 248.740686 
" style="fill:none;stroke:#1f77b4;stroke-width:1.5;"/>
    <path clip-path="url(#p327b7c5c3a)" d="M 855.102102 498.52 
L 855.102102 268.74281 
" style="fill:none;stroke:#1f77b4;stroke-width:1.5;"/>
    <path clip-path="url(#p327b7c5c3a)" d="M 862.705995 498.52 
L 862.705995 277.830148 
" style="fill:none;stroke:#1f77b4;stroke-width:1.5;"/>
    <path clip-path="url(#p327b7c5c3a)" d="M 870.309888 498.52 
L 870.309888 278.803614 
" style="fill:none;stroke:#1f77b4;stroke-width:1.5;"/>
    <path clip-path="url(#p327b7c5c3a)" d="M 877.916291 498.52 
L 877.916291 293.51035 
" style="fill:none;stroke:#1f77b4;stroke-width:1.5;"/>
   </g>
   <g id="line2d_31">
    <path clip-path="url(#p327b7c5c3a)" d="M 125.058109 53.257255 
L 132.662002 55.313022 
L 140.265895 57.357997 
L 147.869788 59.414547 
L 155.476191 61.430449 
L 163.080084 63.46657 
L 170.683977 65.480633 
L 178.290379 67.503896 
L 185.894272 69.522752 
L 193.498165 71.551118 
L 201.102058 73.543765 
L 208.708461 75.601117 
L 216.312353 77.634076 
L 223.916246 79.65783 
L 231.522649 81.685777 
L 239.126542 83.728573 
L 246.730435 85.757461 
L 254.334328 87.79631 
L 261.94073 89.832147 
L 269.544623 91.847019 
L 277.148516 93.889523 
L 284.754919 95.927018 
L 292.358812 97.963755 
L 299.962705 99.986073 
L 307.569107 102.064587 
L 315.173 104.07331 
L 322.776893 106.109868 
L 330.380786 108.1442 
L 337.987189 110.218876 
L 345.591082 112.259126 
L 353.194975 114.250234 
L 360.801377 116.290199 
L 368.40527 118.360189 
L 376.009163 120.447256 
L 383.613056 122.529971 
L 391.219459 124.602645 
L 398.823352 126.664052 
L 406.427245 128.720095 
L 414.033647 130.707563 
L 421.63754 132.747751 
L 429.241433 134.744046 
L 436.847836 136.773981 
L 444.451729 138.815628 
L 452.055622 140.880863 
L 459.659515 142.923388 
L 467.265917 144.932674 
L 474.86981 146.945594 
L 482.473703 149.010188 
L 490.080106 151.042435 
L 497.683999 153.023692 
L 505.287892 155.172654 
L 512.891785 157.207615 
L 520.498187 159.400154 
L 528.10208 161.412727 
L 535.705973 163.50476 
L 543.312376 165.357125 
L 550.916269 167.361754 
L 558.520162 169.420729 
L 566.124055 171.476222 
L 573.730457 173.474942 
L 581.33435 175.576697 
L 588.938243 177.65861 
L 596.544646 179.702421 
L 604.148539 181.681277 
L 611.752432 183.813751 
L 619.358834 185.951317 
L 626.962727 188.035304 
L 634.56662 190.233102 
L 642.170513 192.145059 
L 649.776916 194.339276 
L 657.380809 196.36021 
L 664.984702 198.390205 
L 672.591104 200.791226 
L 680.194997 203.141574 
L 687.79889 204.955236 
L 695.402783 206.932844 
L 703.009186 208.826724 
L 710.613079 210.802608 
L 718.216972 212.749773 
L 725.823374 214.736697 
L 733.427267 216.607594 
L 741.03116 218.859418 
L 748.637563 220.704364 
L 756.241456 222.887315 
L 763.845348 224.7304 
L 771.449241 226.777998 
L 779.055644 228.736255 
L 786.659537 230.625474 
L 794.26343 232.678652 
L 801.869832 234.740411 
L 809.473725 236.671906 
L 817.077618 238.880937 
L 824.681511 240.944006 
L 832.287914 243.226887 
L 839.891807 245.317617 
L 847.4957 247.495823 
L 855.102102 249.434087 
L 862.705995 251.571291 
L 870.309888 253.546863 
L 877.916291 255.277555 
" style="fill:none;stroke:#000000;stroke-linecap:square;stroke-width:4;"/>
   </g>
   <g id="line2d_32">
    <path clip-path="url(#p327b7c5c3a)" d="M 125.058109 55.657991 
L 132.662002 57.222219 
L 140.265895 59.335599 
L 147.869788 61.653502 
L 155.476191 63.998226 
L 163.080084 65.691504 
L 170.683977 67.786682 
L 178.290379 68.871412 
L 185.894272 71.397853 
L 193.498165 72.784283 
L 201.102058 75.415505 
L 208.708461 77.122476 
L 216.312353 79.228921 
L 223.916246 80.514737 
L 231.522649 82.557327 
L 239.126542 85.308047 
L 246.730435 87.207725 
L 254.334328 88.829236 
L 261.94073 91.257346 
L 269.544623 94.556847 
L 277.148516 97.508265 
L 284.754919 99.565152 
L 292.358812 101.530177 
L 299.962705 104.447084 
L 307.569107 106.176904 
L 315.173 108.675966 
L 322.776893 111.208546 
L 330.380786 112.544858 
L 337.987189 115.080715 
L 345.591082 117.627211 
L 353.194975 120.278837 
L 360.801377 122.587353 
L 368.40527 124.444394 
L 376.009163 127.610563 
L 383.613056 129.182479 
L 391.219459 130.958183 
L 398.823352 132.714375 
L 406.427245 135.05184 
L 414.033647 139.991082 
L 421.63754 141.600319 
L 429.241433 145.698248 
L 436.847836 149.223547 
L 444.451729 152.284285 
L 452.055622 153.696154 
L 459.659515 153.472802 
L 467.265917 153.226471 
L 474.86981 154.414801 
L 482.473703 156.627717 
L 490.080106 159.558691 
L 497.683999 161.544175 
L 505.287892 163.363672 
L 512.891785 167.150298 
L 520.498187 169.100448 
L 528.10208 175.61806 
L 535.705973 178.980269 
L 543.312376 183.123331 
L 550.916269 188.661009 
L 558.520162 189.651517 
L 566.124055 184.511941 
L 573.730457 187.193303 
L 581.33435 187.799532 
L 588.938243 190.091607 
L 596.544646 196.158781 
L 604.148539 201.99686 
L 611.752432 204.459134 
L 619.358834 206.448266 
L 626.962727 214.527502 
L 634.56662 218.498359 
L 642.170513 223.408231 
L 649.776916 229.434571 
L 657.380809 231.345976 
L 664.984702 241.565217 
L 672.591104 250.840677 
L 680.194997 252.443944 
L 687.79889 251.498046 
L 695.402783 251.056593 
L 703.009186 262.335781 
L 710.613079 266.798053 
L 718.216972 266.63846 
L 725.823374 261.396436 
L 733.427267 257.994795 
L 741.03116 249.824844 
L 748.637563 243.348934 
L 756.241456 243.761131 
L 763.845348 239.102218 
L 771.449241 244.923468 
L 779.055644 241.373593 
L 786.659537 244.473457 
L 794.26343 246.792553 
L 801.869832 248.305631 
L 809.473725 249.536187 
L 817.077618 256.929095 
L 824.681511 267.52335 
L 832.287914 256.192017 
L 839.891807 262.633383 
L 847.4957 286.138114 
L 855.102102 327.305168 
L 862.705995 352.5727 
L 870.309888 356.580472 
L 877.916291 421.874345 
" style="fill:none;stroke:#1f77b4;stroke-linecap:square;stroke-width:1.5;"/>
   </g>
   <g id="patch_3">
    <path d="M 87.4152 440.3052 
L 87.4152 34.8264 
" style="fill:none;stroke:#000000;stroke-linecap:square;stroke-linejoin:miter;stroke-width:0.8;"/>
   </g>
   <g id="patch_4">
    <path d="M 915.5592 440.3052 
L 915.5592 34.8264 
" style="fill:none;stroke:#000000;stroke-linecap:square;stroke-linejoin:miter;stroke-width:0.8;"/>
   </g>
   <g id="patch_5">
    <path d="M 87.4152 440.3052 
L 915.5592 440.3052 
" style="fill:none;stroke:#000000;stroke-linecap:square;stroke-linejoin:miter;stroke-width:0.8;"/>
   </g>
   <g id="patch_6">
    <path d="M 87.4152 34.8264 
L 915.5592 34.8264 
" style="fill:none;stroke:#000000;stroke-linecap:square;stroke-linejoin:miter;stroke-width:0.8;"/>
   </g>
   <g id="text_12">
    <!-- $N=20, \phi=0.65, l_p/\sigma=100$ $(N_{iter} = 10^8, dt = 10^{-3}, N_{samples} = 9 \cdot 10^2)$ -->
    <defs>
     <path d="M 16.890625 72.90625 
L 30.171875 72.90625 
L 50.296875 10.40625 
L 62.5 72.90625 
L 72.125 72.90625 
L 57.90625 0 
L 44.578125 0 
L 24.515625 62.890625 
L 12.3125 0 
L 2.6875 0 
z
" id="DejaVuSans-Oblique-78"/>
     <path d="M 10.59375 45.40625 
L 73.1875 45.40625 
L 73.1875 37.203125 
L 10.59375 37.203125 
z
M 10.59375 25.484375 
L 73.1875 25.484375 
L 73.1875 17.1875 
L 10.59375 17.1875 
z
" id="DejaVuSans-61"/>
     <path d="M 11.71875 12.40625 
L 22.015625 12.40625 
L 22.015625 4 
L 14.015625 -11.625 
L 7.71875 -11.625 
L 11.71875 4 
z
" id="DejaVuSans-44"/>
     <path d="M 46.734375 75.984375 
L 42.78125 55.8125 
Q 52.546875 55.8125 57.5625 48.34375 
Q 62.75 40.71875 60.15625 27.296875 
Q 57.515625 13.875 49.359375 6.25 
Q 41.453125 -1.21875 31.6875 -1.21875 
L 27.875 -20.796875 
L 18.953125 -20.796875 
L 22.75 -1.21875 
Q 13.03125 -1.21875 7.953125 6.25 
Q 2.78125 13.875 5.421875 27.296875 
Q 8.015625 40.71875 16.15625 48.34375 
Q 24.125 55.8125 33.84375 55.8125 
L 37.796875 75.984375 
z
M 33.25 6.78125 
Q 38.765625 6.78125 43.5 11.8125 
Q 48.6875 17.4375 50.6875 27.296875 
Q 52.640625 37.0625 49.515625 42.78125 
Q 46.734375 47.796875 41.21875 47.796875 
z
M 24.3125 6.78125 
L 32.28125 47.796875 
Q 26.8125 47.796875 22.078125 42.78125 
Q 16.75 37.0625 14.890625 27.296875 
Q 13.03125 17.4375 16.0625 11.8125 
Q 18.796875 6.78125 24.3125 6.78125 
z
" id="DejaVuSans-Oblique-981"/>
     <path d="M 33.015625 40.375 
Q 26.375 40.375 22.484375 35.828125 
Q 18.609375 31.296875 18.609375 23.390625 
Q 18.609375 15.53125 22.484375 10.953125 
Q 26.375 6.390625 33.015625 6.390625 
Q 39.65625 6.390625 43.53125 10.953125 
Q 47.40625 15.53125 47.40625 23.390625 
Q 47.40625 31.296875 43.53125 35.828125 
Q 39.65625 40.375 33.015625 40.375 
z
M 52.59375 71.296875 
L 52.59375 62.3125 
Q 48.875 64.0625 45.09375 64.984375 
Q 41.3125 65.921875 37.59375 65.921875 
Q 27.828125 65.921875 22.671875 59.328125 
Q 17.53125 52.734375 16.796875 39.40625 
Q 19.671875 43.65625 24.015625 45.921875 
Q 28.375 48.1875 33.59375 48.1875 
Q 44.578125 48.1875 50.953125 41.515625 
Q 57.328125 34.859375 57.328125 23.390625 
Q 57.328125 12.15625 50.6875 5.359375 
Q 44.046875 -1.421875 33.015625 -1.421875 
Q 20.359375 -1.421875 13.671875 8.265625 
Q 6.984375 17.96875 6.984375 36.375 
Q 6.984375 53.65625 15.1875 63.9375 
Q 23.390625 74.21875 37.203125 74.21875 
Q 40.921875 74.21875 44.703125 73.484375 
Q 48.484375 72.75 52.59375 71.296875 
z
" id="DejaVuSans-54"/>
     <path id="DejaVuSans-32"/>
     <path d="M 18.3125 75.984375 
L 27.296875 75.984375 
L 25.09375 64.59375 
L 16.109375 64.59375 
z
M 14.203125 54.6875 
L 23.1875 54.6875 
L 12.5 0 
L 3.515625 0 
z
" id="DejaVuSans-Oblique-105"/>
     <path d="M 48.09375 32.234375 
Q 48.25 33.015625 48.3125 33.84375 
Q 48.390625 34.671875 48.390625 35.5 
Q 48.390625 41.453125 44.890625 44.921875 
Q 41.40625 48.390625 35.40625 48.390625 
Q 28.71875 48.390625 23.578125 44.15625 
Q 18.453125 39.9375 15.828125 32.171875 
z
M 55.90625 25.203125 
L 14.109375 25.203125 
Q 13.8125 23.34375 13.71875 22.265625 
Q 13.625 21.1875 13.625 20.40625 
Q 13.625 13.625 17.796875 9.90625 
Q 21.96875 6.203125 29.59375 6.203125 
Q 35.453125 6.203125 40.671875 7.515625 
Q 45.90625 8.84375 50.390625 11.375 
L 48.6875 2.484375 
Q 43.84375 0.53125 38.6875 -0.4375 
Q 33.546875 -1.421875 28.21875 -1.421875 
Q 16.84375 -1.421875 10.71875 4.015625 
Q 4.59375 9.46875 4.59375 19.484375 
Q 4.59375 28.03125 7.640625 35.375 
Q 10.6875 42.71875 16.609375 48.484375 
Q 20.40625 52.09375 25.65625 54.046875 
Q 30.90625 56 36.8125 56 
Q 46.09375 56 51.578125 50.4375 
Q 57.078125 44.875 57.078125 35.5 
Q 57.078125 33.25 56.78125 30.6875 
Q 56.5 28.125 55.90625 25.203125 
z
" id="DejaVuSans-Oblique-101"/>
     <path d="M 44.578125 46.390625 
Q 43.21875 47.125 41.453125 47.515625 
Q 39.703125 47.90625 37.703125 47.90625 
Q 30.515625 47.90625 25.140625 42.453125 
Q 19.78125 37.015625 18.015625 27.875 
L 12.5 0 
L 3.515625 0 
L 14.203125 54.6875 
L 23.1875 54.6875 
L 21.484375 46.1875 
Q 25.046875 50.921875 30 53.453125 
Q 34.96875 56 40.578125 56 
Q 42.046875 56 43.453125 55.828125 
Q 44.875 55.671875 46.296875 55.28125 
z
" id="DejaVuSans-Oblique-114"/>
     <path d="M 31.78125 34.625 
Q 24.75 34.625 20.71875 30.859375 
Q 16.703125 27.09375 16.703125 20.515625 
Q 16.703125 13.921875 20.71875 10.15625 
Q 24.75 6.390625 31.78125 6.390625 
Q 38.8125 6.390625 42.859375 10.171875 
Q 46.921875 13.96875 46.921875 20.515625 
Q 46.921875 27.09375 42.890625 30.859375 
Q 38.875 34.625 31.78125 34.625 
z
M 21.921875 38.8125 
Q 15.578125 40.375 12.03125 44.71875 
Q 8.5 49.078125 8.5 55.328125 
Q 8.5 64.0625 14.71875 69.140625 
Q 20.953125 74.21875 31.78125 74.21875 
Q 42.671875 74.21875 48.875 69.140625 
Q 55.078125 64.0625 55.078125 55.328125 
Q 55.078125 49.078125 51.53125 44.71875 
Q 48 40.375 41.703125 38.8125 
Q 48.828125 37.15625 52.796875 32.3125 
Q 56.78125 27.484375 56.78125 20.515625 
Q 56.78125 9.90625 50.3125 4.234375 
Q 43.84375 -1.421875 31.78125 -1.421875 
Q 19.734375 -1.421875 13.25 4.234375 
Q 6.78125 9.90625 6.78125 20.515625 
Q 6.78125 27.484375 10.78125 32.3125 
Q 14.796875 37.15625 21.921875 38.8125 
z
M 18.3125 54.390625 
Q 18.3125 48.734375 21.84375 45.5625 
Q 25.390625 42.390625 31.78125 42.390625 
Q 38.140625 42.390625 41.71875 45.5625 
Q 45.3125 48.734375 45.3125 54.390625 
Q 45.3125 60.0625 41.71875 63.234375 
Q 38.140625 66.40625 31.78125 66.40625 
Q 25.390625 66.40625 21.84375 63.234375 
Q 18.3125 60.0625 18.3125 54.390625 
z
" id="DejaVuSans-56"/>
     <path d="M 41.796875 8.203125 
Q 38.1875 3.46875 33.25 1.015625 
Q 28.328125 -1.421875 22.3125 -1.421875 
Q 14.109375 -1.421875 9.34375 4.171875 
Q 4.59375 9.765625 4.59375 19.484375 
Q 4.59375 27.59375 7.46875 34.9375 
Q 10.359375 42.28125 15.828125 48.09375 
Q 19.4375 51.953125 23.96875 53.96875 
Q 28.515625 56 33.5 56 
Q 38.765625 56 42.796875 53.453125 
Q 46.828125 50.921875 49.03125 46.1875 
L 54.890625 75.984375 
L 63.921875 75.984375 
L 49.125 0 
L 40.09375 0 
z
M 13.921875 21.09375 
Q 13.921875 14.015625 17.109375 10.0625 
Q 20.3125 6.109375 25.984375 6.109375 
Q 30.171875 6.109375 33.765625 8.125 
Q 37.359375 10.15625 40.09375 14.109375 
Q 42.96875 18.21875 44.625 23.578125 
Q 46.296875 28.953125 46.296875 34.1875 
Q 46.296875 40.96875 43.09375 44.765625 
Q 39.890625 48.578125 34.28125 48.578125 
Q 30.03125 48.578125 26.359375 46.578125 
Q 22.703125 44.578125 20.125 40.828125 
Q 17.28125 36.765625 15.59375 31.390625 
Q 13.921875 26.03125 13.921875 21.09375 
z
" id="DejaVuSans-Oblique-100"/>
     <path d="M 50 53.078125 
L 48.296875 44.578125 
Q 44.734375 46.53125 40.765625 47.5 
Q 36.8125 48.484375 32.625 48.484375 
Q 25.53125 48.484375 21.453125 46.0625 
Q 17.390625 43.65625 17.390625 39.5 
Q 17.390625 34.671875 26.859375 32.078125 
Q 27.59375 31.890625 27.9375 31.78125 
L 30.8125 30.90625 
Q 39.796875 28.421875 42.796875 25.6875 
Q 45.796875 22.953125 45.796875 18.21875 
Q 45.796875 9.515625 38.890625 4.046875 
Q 31.984375 -1.421875 20.796875 -1.421875 
Q 16.453125 -1.421875 11.671875 -0.578125 
Q 6.890625 0.25 1.125 2 
L 2.875 11.28125 
Q 7.8125 8.734375 12.59375 7.421875 
Q 17.390625 6.109375 21.78125 6.109375 
Q 28.375 6.109375 32.5 8.9375 
Q 36.625 11.765625 36.625 16.109375 
Q 36.625 20.796875 25.78125 23.6875 
L 24.859375 23.921875 
L 21.78125 24.703125 
Q 14.9375 26.515625 11.765625 29.46875 
Q 8.59375 32.421875 8.59375 37.015625 
Q 8.59375 45.75 15.15625 50.875 
Q 21.734375 56 33.015625 56 
Q 37.453125 56 41.671875 55.265625 
Q 45.90625 54.546875 50 53.078125 
z
" id="DejaVuSans-Oblique-115"/>
     <path d="M 53.71875 31.203125 
L 47.609375 0 
L 38.625 0 
L 40.28125 8.296875 
Q 36.328125 3.421875 31.265625 1 
Q 26.21875 -1.421875 20.015625 -1.421875 
Q 13.03125 -1.421875 8.5625 2.84375 
Q 4.109375 7.125 4.109375 13.8125 
Q 4.109375 23.390625 11.75 28.953125 
Q 19.390625 34.515625 32.8125 34.515625 
L 45.3125 34.515625 
L 45.796875 36.921875 
Q 45.90625 37.3125 45.953125 37.765625 
Q 46 38.234375 46 39.203125 
Q 46 43.5625 42.453125 45.96875 
Q 38.921875 48.390625 32.515625 48.390625 
Q 28.125 48.390625 23.5 47.265625 
Q 18.890625 46.140625 14.015625 43.890625 
L 15.578125 52.203125 
Q 20.65625 54.109375 25.515625 55.046875 
Q 30.375 56 34.90625 56 
Q 44.578125 56 49.625 51.796875 
Q 54.6875 47.609375 54.6875 39.59375 
Q 54.6875 37.984375 54.4375 35.8125 
Q 54.203125 33.640625 53.71875 31.203125 
z
M 44 27.484375 
L 35.015625 27.484375 
Q 23.96875 27.484375 18.671875 24.53125 
Q 13.375 21.578125 13.375 15.375 
Q 13.375 11.078125 16.078125 8.640625 
Q 18.796875 6.203125 23.578125 6.203125 
Q 30.90625 6.203125 36.375 11.453125 
Q 41.84375 16.703125 43.609375 25.484375 
z
" id="DejaVuSans-Oblique-97"/>
     <path d="M 89.796875 33.015625 
L 83.40625 0 
L 74.421875 0 
L 80.71875 32.71875 
Q 81.109375 34.8125 81.296875 36.328125 
Q 81.5 37.84375 81.5 38.921875 
Q 81.5 43.3125 79.046875 45.75 
Q 76.609375 48.1875 72.21875 48.1875 
Q 65.671875 48.1875 60.546875 43.28125 
Q 55.421875 38.375 53.90625 30.515625 
L 47.90625 0 
L 38.921875 0 
L 45.3125 32.71875 
Q 45.703125 34.515625 45.890625 36.046875 
Q 46.09375 37.59375 46.09375 38.8125 
Q 46.09375 43.265625 43.65625 45.71875 
Q 41.21875 48.1875 36.921875 48.1875 
Q 30.28125 48.1875 25.140625 43.28125 
Q 20.015625 38.375 18.5 30.515625 
L 12.5 0 
L 3.515625 0 
L 14.203125 54.6875 
L 23.1875 54.6875 
L 21.484375 46.1875 
Q 25.140625 50.984375 30.046875 53.484375 
Q 34.96875 56 40.578125 56 
Q 46.53125 56 50.359375 52.875 
Q 54.203125 49.75 54.984375 44.1875 
Q 59.078125 49.953125 64.46875 52.96875 
Q 69.875 56 75.875 56 
Q 82.90625 56 86.734375 51.953125 
Q 90.578125 47.90625 90.578125 40.484375 
Q 90.578125 38.875 90.375 36.9375 
Q 90.1875 35.015625 89.796875 33.015625 
z
" id="DejaVuSans-Oblique-109"/>
     <path d="M 10.984375 1.515625 
L 10.984375 10.5 
Q 14.703125 8.734375 18.5 7.8125 
Q 22.3125 6.890625 25.984375 6.890625 
Q 35.75 6.890625 40.890625 13.453125 
Q 46.046875 20.015625 46.78125 33.40625 
Q 43.953125 29.203125 39.59375 26.953125 
Q 35.25 24.703125 29.984375 24.703125 
Q 19.046875 24.703125 12.671875 31.3125 
Q 6.296875 37.9375 6.296875 49.421875 
Q 6.296875 60.640625 12.9375 67.421875 
Q 19.578125 74.21875 30.609375 74.21875 
Q 43.265625 74.21875 49.921875 64.515625 
Q 56.59375 54.828125 56.59375 36.375 
Q 56.59375 19.140625 48.40625 8.859375 
Q 40.234375 -1.421875 26.421875 -1.421875 
Q 22.703125 -1.421875 18.890625 -0.6875 
Q 15.09375 0.046875 10.984375 1.515625 
z
M 30.609375 32.421875 
Q 37.25 32.421875 41.125 36.953125 
Q 45.015625 41.5 45.015625 49.421875 
Q 45.015625 57.28125 41.125 61.84375 
Q 37.25 66.40625 30.609375 66.40625 
Q 23.96875 66.40625 20.09375 61.84375 
Q 16.21875 57.28125 16.21875 49.421875 
Q 16.21875 41.5 20.09375 36.953125 
Q 23.96875 32.421875 30.609375 32.421875 
z
" id="DejaVuSans-57"/>
    </defs>
    <g transform="translate(106.4472 27.3864)scale(0.24 -0.24)">
     <use transform="translate(0 0.765625)" xlink:href="#DejaVuSans-Oblique-78"/>
     <use transform="translate(94.287109 0.765625)" xlink:href="#DejaVuSans-61"/>
     <use transform="translate(197.558594 0.765625)" xlink:href="#DejaVuSans-50"/>
     <use transform="translate(261.181641 0.765625)" xlink:href="#DejaVuSans-48"/>
     <use transform="translate(324.804688 0.765625)" xlink:href="#DejaVuSans-44"/>
     <use transform="translate(376.074219 0.765625)" xlink:href="#DejaVuSans-Oblique-981"/>
     <use transform="translate(461.523438 0.765625)" xlink:href="#DejaVuSans-61"/>
     <use transform="translate(564.794922 0.765625)" xlink:href="#DejaVuSans-48"/>
     <use transform="translate(628.417969 0.765625)" xlink:href="#DejaVuSans-46"/>
     <use transform="translate(660.205078 0.765625)" xlink:href="#DejaVuSans-54"/>
     <use transform="translate(723.828125 0.765625)" xlink:href="#DejaVuSans-53"/>
     <use transform="translate(787.451172 0.765625)" xlink:href="#DejaVuSans-44"/>
     <use transform="translate(838.720703 0.765625)" xlink:href="#DejaVuSans-Oblique-108"/>
     <use transform="translate(866.503906 -15.640625)scale(0.7)" xlink:href="#DejaVuSans-Oblique-112"/>
     <use transform="translate(913.671875 0.765625)" xlink:href="#DejaVuSans-47"/>
     <use transform="translate(947.363281 0.765625)" xlink:href="#DejaVuSans-Oblique-963"/>
     <use transform="translate(1030.224609 0.765625)" xlink:href="#DejaVuSans-61"/>
     <use transform="translate(1133.496094 0.765625)" xlink:href="#DejaVuSans-49"/>
     <use transform="translate(1197.119141 0.765625)" xlink:href="#DejaVuSans-48"/>
     <use transform="translate(1260.742188 0.765625)" xlink:href="#DejaVuSans-48"/>
     <use transform="translate(1324.365234 0.765625)" xlink:href="#DejaVuSans-32"/>
     <use transform="translate(1356.152344 0.765625)" xlink:href="#DejaVuSans-40"/>
     <use transform="translate(1395.166016 0.765625)" xlink:href="#DejaVuSans-Oblique-78"/>
     <use transform="translate(1469.970703 -15.640625)scale(0.7)" xlink:href="#DejaVuSans-Oblique-105"/>
     <use transform="translate(1489.418945 -15.640625)scale(0.7)" xlink:href="#DejaVuSans-Oblique-116"/>
     <use transform="translate(1516.865234 -15.640625)scale(0.7)" xlink:href="#DejaVuSans-Oblique-101"/>
     <use transform="translate(1559.931641 -15.640625)scale(0.7)" xlink:href="#DejaVuSans-Oblique-114"/>
     <use transform="translate(1610.927734 0.765625)" xlink:href="#DejaVuSans-61"/>
     <use transform="translate(1714.199219 0.765625)" xlink:href="#DejaVuSans-49"/>
     <use transform="translate(1777.822266 0.765625)" xlink:href="#DejaVuSans-48"/>
     <use transform="translate(1842.402344 39.046875)scale(0.7)" xlink:href="#DejaVuSans-56"/>
     <use transform="translate(1889.672852 0.765625)" xlink:href="#DejaVuSans-44"/>
     <use transform="translate(1940.942383 0.765625)" xlink:href="#DejaVuSans-Oblique-100"/>
     <use transform="translate(2004.418945 0.765625)" xlink:href="#DejaVuSans-Oblique-116"/>
     <use transform="translate(2063.110352 0.765625)" xlink:href="#DejaVuSans-61"/>
     <use transform="translate(2166.381836 0.765625)" xlink:href="#DejaVuSans-49"/>
     <use transform="translate(2230.004883 0.765625)" xlink:href="#DejaVuSans-48"/>
     <use transform="translate(2294.584961 39.046875)scale(0.7)" xlink:href="#DejaVuSans-8722"/>
     <use transform="translate(2353.237305 39.046875)scale(0.7)" xlink:href="#DejaVuSans-51"/>
     <use transform="translate(2400.507812 0.765625)" xlink:href="#DejaVuSans-44"/>
     <use transform="translate(2451.777344 0.765625)" xlink:href="#DejaVuSans-Oblique-78"/>
     <use transform="translate(2526.582031 -15.640625)scale(0.7)" xlink:href="#DejaVuSans-Oblique-115"/>
     <use transform="translate(2563.051758 -15.640625)scale(0.7)" xlink:href="#DejaVuSans-Oblique-97"/>
     <use transform="translate(2605.947266 -15.640625)scale(0.7)" xlink:href="#DejaVuSans-Oblique-109"/>
     <use transform="translate(2674.135742 -15.640625)scale(0.7)" xlink:href="#DejaVuSans-Oblique-112"/>
     <use transform="translate(2718.569336 -15.640625)scale(0.7)" xlink:href="#DejaVuSans-Oblique-108"/>
     <use transform="translate(2738.017578 -15.640625)scale(0.7)" xlink:href="#DejaVuSans-Oblique-101"/>
     <use transform="translate(2781.083984 -15.640625)scale(0.7)" xlink:href="#DejaVuSans-Oblique-115"/>
     <use transform="translate(2839.770508 0.765625)" xlink:href="#DejaVuSans-61"/>
     <use transform="translate(2943.041992 0.765625)" xlink:href="#DejaVuSans-57"/>
     <use transform="translate(3026.147461 0.765625)" xlink:href="#DejaVuSans-8901"/>
     <use transform="translate(3077.416992 0.765625)" xlink:href="#DejaVuSans-49"/>
     <use transform="translate(3141.040039 0.765625)" xlink:href="#DejaVuSans-48"/>
     <use transform="translate(3205.620117 39.046875)scale(0.7)" xlink:href="#DejaVuSans-50"/>
     <use transform="translate(3252.890625 0.765625)" xlink:href="#DejaVuSans-41"/>
    </g>
   </g>
   <g id="legend_1">
    <g id="patch_7">
     <path d="M 644.3592 66.5064 
L 907.1592 66.5064 
Q 909.5592 66.5064 909.5592 64.1064 
L 909.5592 43.2264 
Q 909.5592 40.8264 907.1592 40.8264 
L 644.3592 40.8264 
Q 641.9592 40.8264 641.9592 43.2264 
L 641.9592 64.1064 
Q 641.9592 66.5064 644.3592 66.5064 
z
" style="fill:#ffffff;opacity:0.8;stroke:#cccccc;stroke-linejoin:miter;"/>
    </g>
    <g id="line2d_33">
     <path d="M 646.7592 52.8264 
L 670.7592 52.8264 
" style="fill:none;stroke:#000000;stroke-linecap:square;stroke-width:4;"/>
    </g>
    <g id="line2d_34"/>
    <g id="text_13">
     <!-- $\frac{1}{N} e^{-\tau/(l_p/\sigma)} - &lt;\vec{\nu}(t_0 + \tau)&gt;_{t_0} \cdot &lt;\vec{\nu}(t_0)&gt;_{t_0}$ -->
     <g transform="translate(680.3592 57.0264)scale(0.12 -0.12)">
      <use transform="translate(4 43.965625)scale(0.7)" xlink:href="#DejaVuSans-49"/>
      <use transform="translate(0 -38.31875)scale(0.7)" xlink:href="#DejaVuSans-Oblique-78"/>
      <use transform="translate(64.863281 0.16875)" xlink:href="#DejaVuSans-Oblique-101"/>
      <use transform="translate(131.036615 38.45)scale(0.7)" xlink:href="#DejaVuSans-8722"/>
      <use transform="translate(189.688958 38.45)scale(0.7)" xlink:href="#DejaVuSans-Oblique-964"/>
      <use transform="translate(231.832513 38.45)scale(0.7)" xlink:href="#DejaVuSans-47"/>
      <use transform="translate(255.416497 38.45)scale(0.7)" xlink:href="#DejaVuSans-40"/>
      <use transform="translate(282.726068 38.45)scale(0.7)" xlink:href="#DejaVuSans-Oblique-108"/>
      <use transform="translate(302.17431 26.965625)scale(0.49)" xlink:href="#DejaVuSans-Oblique-112"/>
      <use transform="translate(335.191888 38.45)scale(0.7)" xlink:href="#DejaVuSans-47"/>
      <use transform="translate(358.775872 38.45)scale(0.7)" xlink:href="#DejaVuSans-Oblique-963"/>
      <use transform="translate(403.141107 38.45)scale(0.7)" xlink:href="#DejaVuSans-41"/>
      <use transform="translate(452.667474 0.16875)" xlink:href="#DejaVuSans-8722"/>
      <use transform="translate(575.42138 0.16875)" xlink:href="#DejaVuSans-60"/>
      <use transform="translate(738.673333 11.403125)" xlink:href="#DejaVuSans-8407"/>
      <use transform="translate(678.692865 0.16875)" xlink:href="#DejaVuSans-Oblique-957"/>
      <use transform="translate(734.55224 0.16875)" xlink:href="#DejaVuSans-40"/>
      <use transform="translate(773.565911 0.16875)" xlink:href="#DejaVuSans-Oblique-116"/>
      <use transform="translate(812.774896 -16.2375)scale(0.7)" xlink:href="#DejaVuSans-48"/>
      <use transform="translate(879.527826 0.16875)" xlink:href="#DejaVuSans-43"/>
      <use transform="translate(982.79931 0.16875)" xlink:href="#DejaVuSans-Oblique-964"/>
      <use transform="translate(1043.004388 0.16875)" xlink:href="#DejaVuSans-41"/>
      <use transform="translate(1101.500482 0.16875)" xlink:href="#DejaVuSans-62"/>
      <use transform="translate(1205.728997 -16.2375)scale(0.7)" xlink:href="#DejaVuSans-Oblique-116"/>
      <use transform="translate(1233.175286 -27.721875)scale(0.49)" xlink:href="#DejaVuSans-48"/>
      <use transform="translate(1288.481439 0.16875)" xlink:href="#DejaVuSans-8901"/>
      <use transform="translate(1359.233392 0.16875)" xlink:href="#DejaVuSans-60"/>
      <use transform="translate(1522.485345 11.403125)" xlink:href="#DejaVuSans-8407"/>
      <use transform="translate(1462.504876 0.16875)" xlink:href="#DejaVuSans-Oblique-957"/>
      <use transform="translate(1518.364251 0.16875)" xlink:href="#DejaVuSans-40"/>
      <use transform="translate(1557.377923 0.16875)" xlink:href="#DejaVuSans-Oblique-116"/>
      <use transform="translate(1596.586908 -16.2375)scale(0.7)" xlink:href="#DejaVuSans-48"/>
      <use transform="translate(1643.857415 0.16875)" xlink:href="#DejaVuSans-41"/>
      <use transform="translate(1702.353509 0.16875)" xlink:href="#DejaVuSans-62"/>
      <use transform="translate(1806.582025 -16.2375)scale(0.7)" xlink:href="#DejaVuSans-Oblique-116"/>
      <use transform="translate(1834.028314 -27.721875)scale(0.49)" xlink:href="#DejaVuSans-48"/>
      <path d="M 0 18.965625 
L 0 25.215625 
L 52.363281 25.215625 
L 52.363281 18.965625 
L 0 18.965625 
z
"/>
     </g>
    </g>
   </g>
  </g>
 </g>
 <defs>
  <clipPath id="p327b7c5c3a">
   <rect height="405.4788" width="828.144" x="87.4152" y="34.8264"/>
  </clipPath>
 </defs>
</svg>
