<?xml version="1.0" encoding="utf-8" standalone="no"?>
<!DOCTYPE svg PUBLIC "-//W3C//DTD SVG 1.1//EN"
  "http://www.w3.org/Graphics/SVG/1.1/DTD/svg11.dtd">
<!-- Created with matplotlib (https://matplotlib.org/) -->
<svg height="497.52pt" version="1.1" viewBox="0 0 920.16 497.52" width="920.16pt" xmlns="http://www.w3.org/2000/svg" xmlns:xlink="http://www.w3.org/1999/xlink">
 <defs>
  <style type="text/css">
*{stroke-linecap:butt;stroke-linejoin:round;}
  </style>
 </defs>
 <g id="figure_1">
  <g id="patch_1">
   <path d="M 0 497.52 
L 920.16 497.52 
L 920.16 0 
L 0 0 
z
" style="fill:#ffffff;"/>
  </g>
  <g id="axes_1">
   <g id="patch_2">
    <path d="M 87.4152 440.3052 
L 915.5592 440.3052 
L 915.5592 32.3388 
L 87.4152 32.3388 
z
" style="fill:#ffffff;"/>
   </g>
   <g id="matplotlib.axis_1">
    <g id="xtick_1">
     <g id="line2d_1">
      <defs>
       <path d="M 0 0 
L 0 3.5 
" id="m59c6e0d8d9" style="stroke:#000000;stroke-width:0.8;"/>
      </defs>
      <g>
       <use style="stroke:#000000;stroke-width:0.8;" x="125.0556" xlink:href="#m59c6e0d8d9" y="440.3052"/>
      </g>
     </g>
     <g id="text_1">
      <!-- 0.0 -->
      <defs>
       <path d="M 31.78125 66.40625 
Q 24.171875 66.40625 20.328125 58.90625 
Q 16.5 51.421875 16.5 36.375 
Q 16.5 21.390625 20.328125 13.890625 
Q 24.171875 6.390625 31.78125 6.390625 
Q 39.453125 6.390625 43.28125 13.890625 
Q 47.125 21.390625 47.125 36.375 
Q 47.125 51.421875 43.28125 58.90625 
Q 39.453125 66.40625 31.78125 66.40625 
z
M 31.78125 74.21875 
Q 44.046875 74.21875 50.515625 64.515625 
Q 56.984375 54.828125 56.984375 36.375 
Q 56.984375 17.96875 50.515625 8.265625 
Q 44.046875 -1.421875 31.78125 -1.421875 
Q 19.53125 -1.421875 13.0625 8.265625 
Q 6.59375 17.96875 6.59375 36.375 
Q 6.59375 54.828125 13.0625 64.515625 
Q 19.53125 74.21875 31.78125 74.21875 
z
" id="DejaVuSans-48"/>
       <path d="M 10.6875 12.40625 
L 21 12.40625 
L 21 0 
L 10.6875 0 
z
" id="DejaVuSans-46"/>
      </defs>
      <g transform="translate(109.152475 462.502075)scale(0.2 -0.2)">
       <use xlink:href="#DejaVuSans-48"/>
       <use x="63.623047" xlink:href="#DejaVuSans-46"/>
       <use x="95.410156" xlink:href="#DejaVuSans-48"/>
      </g>
     </g>
    </g>
    <g id="xtick_2">
     <g id="line2d_2">
      <g>
       <use style="stroke:#000000;stroke-width:0.8;" x="250.532381" xlink:href="#m59c6e0d8d9" y="440.3052"/>
      </g>
     </g>
     <g id="text_2">
      <!-- 0.5 -->
      <defs>
       <path d="M 10.796875 72.90625 
L 49.515625 72.90625 
L 49.515625 64.59375 
L 19.828125 64.59375 
L 19.828125 46.734375 
Q 21.96875 47.46875 24.109375 47.828125 
Q 26.265625 48.1875 28.421875 48.1875 
Q 40.625 48.1875 47.75 41.5 
Q 54.890625 34.8125 54.890625 23.390625 
Q 54.890625 11.625 47.5625 5.09375 
Q 40.234375 -1.421875 26.90625 -1.421875 
Q 22.3125 -1.421875 17.546875 -0.640625 
Q 12.796875 0.140625 7.71875 1.703125 
L 7.71875 11.625 
Q 12.109375 9.234375 16.796875 8.0625 
Q 21.484375 6.890625 26.703125 6.890625 
Q 35.15625 6.890625 40.078125 11.328125 
Q 45.015625 15.765625 45.015625 23.390625 
Q 45.015625 31 40.078125 35.4375 
Q 35.15625 39.890625 26.703125 39.890625 
Q 22.75 39.890625 18.8125 39.015625 
Q 14.890625 38.140625 10.796875 36.28125 
z
" id="DejaVuSans-53"/>
      </defs>
      <g transform="translate(234.629256 462.502075)scale(0.2 -0.2)">
       <use xlink:href="#DejaVuSans-48"/>
       <use x="63.623047" xlink:href="#DejaVuSans-46"/>
       <use x="95.410156" xlink:href="#DejaVuSans-53"/>
      </g>
     </g>
    </g>
    <g id="xtick_3">
     <g id="line2d_3">
      <g>
       <use style="stroke:#000000;stroke-width:0.8;" x="376.009163" xlink:href="#m59c6e0d8d9" y="440.3052"/>
      </g>
     </g>
     <g id="text_3">
      <!-- 1.0 -->
      <defs>
       <path d="M 12.40625 8.296875 
L 28.515625 8.296875 
L 28.515625 63.921875 
L 10.984375 60.40625 
L 10.984375 69.390625 
L 28.421875 72.90625 
L 38.28125 72.90625 
L 38.28125 8.296875 
L 54.390625 8.296875 
L 54.390625 0 
L 12.40625 0 
z
" id="DejaVuSans-49"/>
      </defs>
      <g transform="translate(360.106038 462.502075)scale(0.2 -0.2)">
       <use xlink:href="#DejaVuSans-49"/>
       <use x="63.623047" xlink:href="#DejaVuSans-46"/>
       <use x="95.410156" xlink:href="#DejaVuSans-48"/>
      </g>
     </g>
    </g>
    <g id="xtick_4">
     <g id="line2d_4">
      <g>
       <use style="stroke:#000000;stroke-width:0.8;" x="501.485945" xlink:href="#m59c6e0d8d9" y="440.3052"/>
      </g>
     </g>
     <g id="text_4">
      <!-- 1.5 -->
      <g transform="translate(485.58282 462.502075)scale(0.2 -0.2)">
       <use xlink:href="#DejaVuSans-49"/>
       <use x="63.623047" xlink:href="#DejaVuSans-46"/>
       <use x="95.410156" xlink:href="#DejaVuSans-53"/>
      </g>
     </g>
    </g>
    <g id="xtick_5">
     <g id="line2d_5">
      <g>
       <use style="stroke:#000000;stroke-width:0.8;" x="626.962727" xlink:href="#m59c6e0d8d9" y="440.3052"/>
      </g>
     </g>
     <g id="text_5">
      <!-- 2.0 -->
      <defs>
       <path d="M 19.1875 8.296875 
L 53.609375 8.296875 
L 53.609375 0 
L 7.328125 0 
L 7.328125 8.296875 
Q 12.9375 14.109375 22.625 23.890625 
Q 32.328125 33.6875 34.8125 36.53125 
Q 39.546875 41.84375 41.421875 45.53125 
Q 43.3125 49.21875 43.3125 52.78125 
Q 43.3125 58.59375 39.234375 62.25 
Q 35.15625 65.921875 28.609375 65.921875 
Q 23.96875 65.921875 18.8125 64.3125 
Q 13.671875 62.703125 7.8125 59.421875 
L 7.8125 69.390625 
Q 13.765625 71.78125 18.9375 73 
Q 24.125 74.21875 28.421875 74.21875 
Q 39.75 74.21875 46.484375 68.546875 
Q 53.21875 62.890625 53.21875 53.421875 
Q 53.21875 48.921875 51.53125 44.890625 
Q 49.859375 40.875 45.40625 35.40625 
Q 44.1875 33.984375 37.640625 27.21875 
Q 31.109375 20.453125 19.1875 8.296875 
z
" id="DejaVuSans-50"/>
      </defs>
      <g transform="translate(611.059602 462.502075)scale(0.2 -0.2)">
       <use xlink:href="#DejaVuSans-50"/>
       <use x="63.623047" xlink:href="#DejaVuSans-46"/>
       <use x="95.410156" xlink:href="#DejaVuSans-48"/>
      </g>
     </g>
    </g>
    <g id="xtick_6">
     <g id="line2d_6">
      <g>
       <use style="stroke:#000000;stroke-width:0.8;" x="752.439509" xlink:href="#m59c6e0d8d9" y="440.3052"/>
      </g>
     </g>
     <g id="text_6">
      <!-- 2.5 -->
      <g transform="translate(736.536384 462.502075)scale(0.2 -0.2)">
       <use xlink:href="#DejaVuSans-50"/>
       <use x="63.623047" xlink:href="#DejaVuSans-46"/>
       <use x="95.410156" xlink:href="#DejaVuSans-53"/>
      </g>
     </g>
    </g>
    <g id="xtick_7">
     <g id="line2d_7">
      <g>
       <use style="stroke:#000000;stroke-width:0.8;" x="877.916291" xlink:href="#m59c6e0d8d9" y="440.3052"/>
      </g>
     </g>
     <g id="text_7">
      <!-- 3.0 -->
      <defs>
       <path d="M 40.578125 39.3125 
Q 47.65625 37.796875 51.625 33 
Q 55.609375 28.21875 55.609375 21.1875 
Q 55.609375 10.40625 48.1875 4.484375 
Q 40.765625 -1.421875 27.09375 -1.421875 
Q 22.515625 -1.421875 17.65625 -0.515625 
Q 12.796875 0.390625 7.625 2.203125 
L 7.625 11.71875 
Q 11.71875 9.328125 16.59375 8.109375 
Q 21.484375 6.890625 26.8125 6.890625 
Q 36.078125 6.890625 40.9375 10.546875 
Q 45.796875 14.203125 45.796875 21.1875 
Q 45.796875 27.640625 41.28125 31.265625 
Q 36.765625 34.90625 28.71875 34.90625 
L 20.21875 34.90625 
L 20.21875 43.015625 
L 29.109375 43.015625 
Q 36.375 43.015625 40.234375 45.921875 
Q 44.09375 48.828125 44.09375 54.296875 
Q 44.09375 59.90625 40.109375 62.90625 
Q 36.140625 65.921875 28.71875 65.921875 
Q 24.65625 65.921875 20.015625 65.03125 
Q 15.375 64.15625 9.8125 62.3125 
L 9.8125 71.09375 
Q 15.4375 72.65625 20.34375 73.4375 
Q 25.25 74.21875 29.59375 74.21875 
Q 40.828125 74.21875 47.359375 69.109375 
Q 53.90625 64.015625 53.90625 55.328125 
Q 53.90625 49.265625 50.4375 45.09375 
Q 46.96875 40.921875 40.578125 39.3125 
z
" id="DejaVuSans-51"/>
      </defs>
      <g transform="translate(862.013166 462.502075)scale(0.2 -0.2)">
       <use xlink:href="#DejaVuSans-51"/>
       <use x="63.623047" xlink:href="#DejaVuSans-46"/>
       <use x="95.410156" xlink:href="#DejaVuSans-48"/>
      </g>
     </g>
    </g>
    <g id="text_8">
     <!-- $\tau/(l_p/\sigma)$ -->
     <defs>
      <path d="M 32.859375 9.96875 
Q 34.1875 7.625 39.453125 7.625 
L 43.75 7.625 
L 42.28125 0 
L 36.921875 0 
Q 28.125 0 25 4.6875 
Q 21.921875 9.46875 23.96875 19.828125 
L 29 45.703125 
L 8.453125 45.703125 
L 10.203125 54.6875 
L 60.640625 54.6875 
L 58.890625 45.703125 
L 38.1875 45.703125 
L 33.015625 19.28125 
Q 31.640625 12.203125 32.859375 9.96875 
z
" id="DejaVuSans-Oblique-964"/>
      <path d="M 25.390625 72.90625 
L 33.6875 72.90625 
L 8.296875 -9.28125 
L 0 -9.28125 
z
" id="DejaVuSans-47"/>
      <path d="M 31 75.875 
Q 24.46875 64.65625 21.28125 53.65625 
Q 18.109375 42.671875 18.109375 31.390625 
Q 18.109375 20.125 21.3125 9.0625 
Q 24.515625 -2 31 -13.1875 
L 23.1875 -13.1875 
Q 15.875 -1.703125 12.234375 9.375 
Q 8.59375 20.453125 8.59375 31.390625 
Q 8.59375 42.28125 12.203125 53.3125 
Q 15.828125 64.359375 23.1875 75.875 
z
" id="DejaVuSans-40"/>
      <path d="M 18.3125 75.984375 
L 27.296875 75.984375 
L 12.5 0 
L 3.515625 0 
z
" id="DejaVuSans-Oblique-108"/>
      <path d="M 49.609375 33.6875 
Q 49.609375 40.875 46.484375 44.671875 
Q 43.359375 48.484375 37.5 48.484375 
Q 33.5 48.484375 29.859375 46.4375 
Q 26.21875 44.390625 23.390625 40.484375 
Q 20.609375 36.625 18.9375 31.15625 
Q 17.28125 25.6875 17.28125 20.3125 
Q 17.28125 13.484375 20.40625 9.796875 
Q 23.53125 6.109375 29.296875 6.109375 
Q 33.546875 6.109375 37.1875 8.109375 
Q 40.828125 10.109375 43.40625 13.921875 
Q 46.1875 17.921875 47.890625 23.34375 
Q 49.609375 28.765625 49.609375 33.6875 
z
M 21.78125 46.390625 
Q 25.390625 51.125 30.296875 53.5625 
Q 35.203125 56 41.21875 56 
Q 49.609375 56 54.25 50.5 
Q 58.890625 45.015625 58.890625 35.109375 
Q 58.890625 27 56 19.65625 
Q 53.125 12.3125 47.703125 6.5 
Q 44.09375 2.640625 39.546875 0.609375 
Q 35.015625 -1.421875 29.984375 -1.421875 
Q 24.171875 -1.421875 20.21875 1 
Q 16.265625 3.421875 14.3125 8.203125 
L 8.6875 -20.796875 
L -0.296875 -20.796875 
L 14.40625 54.6875 
L 23.390625 54.6875 
z
" id="DejaVuSans-Oblique-112"/>
      <path d="M 34.671875 47.5625 
Q 27.25 47.5625 22.21875 42.1875 
Q 16.890625 36.578125 15.140625 27.296875 
Q 13.1875 17.484375 16.3125 11.8125 
Q 19.390625 6.203125 26.65625 6.203125 
Q 33.84375 6.203125 39.109375 11.859375 
Q 44.4375 17.53125 46.34375 27.296875 
Q 48.046875 36.234375 45.015625 42.1875 
Q 42.1875 47.5625 34.671875 47.5625 
z
M 36.078125 54.734375 
L 65.921875 54.6875 
L 64.15625 45.703125 
L 54.109375 45.703125 
Q 57.90625 38.09375 55.859375 27.296875 
Q 53.21875 13.875 45.0625 6.25 
Q 36.859375 -1.421875 25.140625 -1.421875 
Q 13.375 -1.421875 8.203125 6.25 
Q 3.03125 13.875 5.671875 27.296875 
Q 8.25 40.765625 16.40625 48.390625 
Q 23.1875 54.734375 36.078125 54.734375 
z
" id="DejaVuSans-Oblique-963"/>
      <path d="M 8.015625 75.875 
L 15.828125 75.875 
Q 23.140625 64.359375 26.78125 53.3125 
Q 30.421875 42.28125 30.421875 31.390625 
Q 30.421875 20.453125 26.78125 9.375 
Q 23.140625 -1.703125 15.828125 -13.1875 
L 8.015625 -13.1875 
Q 14.5 -2 17.703125 9.0625 
Q 20.90625 20.125 20.90625 31.390625 
Q 20.90625 42.671875 17.703125 53.65625 
Q 14.5 64.65625 8.015625 75.875 
z
" id="DejaVuSans-41"/>
     </defs>
     <g transform="translate(467.0872 485.86145)scale(0.2 -0.2)">
      <use transform="translate(0 0.015625)" xlink:href="#DejaVuSans-Oblique-964"/>
      <use transform="translate(60.205078 0.015625)" xlink:href="#DejaVuSans-47"/>
      <use transform="translate(93.896484 0.015625)" xlink:href="#DejaVuSans-40"/>
      <use transform="translate(132.910156 0.015625)" xlink:href="#DejaVuSans-Oblique-108"/>
      <use transform="translate(160.693359 -16.390625)scale(0.7)" xlink:href="#DejaVuSans-Oblique-112"/>
      <use transform="translate(207.861328 0.015625)" xlink:href="#DejaVuSans-47"/>
      <use transform="translate(241.552734 0.015625)" xlink:href="#DejaVuSans-Oblique-963"/>
      <use transform="translate(304.931641 0.015625)" xlink:href="#DejaVuSans-41"/>
     </g>
    </g>
   </g>
   <g id="matplotlib.axis_2">
    <g id="ytick_1">
     <g id="line2d_8">
      <defs>
       <path d="M 0 0 
L -3.5 0 
" id="mf85e7d35db" style="stroke:#000000;stroke-width:0.8;"/>
      </defs>
      <g>
       <use style="stroke:#000000;stroke-width:0.8;" x="87.4152" xlink:href="#mf85e7d35db" y="340.48836"/>
      </g>
     </g>
     <g id="text_9">
      <!-- $\mathdefault{10^{-1}}$ -->
      <defs>
       <path d="M 10.59375 35.5 
L 73.1875 35.5 
L 73.1875 27.203125 
L 10.59375 27.203125 
z
" id="DejaVuSans-8722"/>
      </defs>
      <g transform="translate(33.4152 348.086797)scale(0.2 -0.2)">
       <use transform="translate(0 0.684375)" xlink:href="#DejaVuSans-49"/>
       <use transform="translate(63.623047 0.684375)" xlink:href="#DejaVuSans-48"/>
       <use transform="translate(128.203125 38.965625)scale(0.7)" xlink:href="#DejaVuSans-8722"/>
       <use transform="translate(186.855469 38.965625)scale(0.7)" xlink:href="#DejaVuSans-49"/>
      </g>
     </g>
    </g>
    <g id="ytick_2">
     <g id="line2d_9">
      <g>
       <use style="stroke:#000000;stroke-width:0.8;" x="87.4152" xlink:href="#mf85e7d35db" y="115.8812"/>
      </g>
     </g>
     <g id="text_10">
      <!-- $\mathdefault{10^{0}}$ -->
      <g transform="translate(45.2152 123.479637)scale(0.2 -0.2)">
       <use transform="translate(0 0.765625)" xlink:href="#DejaVuSans-49"/>
       <use transform="translate(63.623047 0.765625)" xlink:href="#DejaVuSans-48"/>
       <use transform="translate(128.203125 39.046875)scale(0.7)" xlink:href="#DejaVuSans-48"/>
      </g>
     </g>
    </g>
    <g id="ytick_3">
     <g id="line2d_10">
      <defs>
       <path d="M 0 0 
L -2 0 
" id="md5315eb808" style="stroke:#000000;stroke-width:0.6;"/>
      </defs>
      <g>
       <use style="stroke:#000000;stroke-width:0.6;" x="87.4152" xlink:href="#md5315eb808" y="429.868535"/>
      </g>
     </g>
    </g>
    <g id="ytick_4">
     <g id="line2d_11">
      <g>
       <use style="stroke:#000000;stroke-width:0.6;" x="87.4152" xlink:href="#md5315eb808" y="408.101852"/>
      </g>
     </g>
    </g>
    <g id="ytick_5">
     <g id="line2d_12">
      <g>
       <use style="stroke:#000000;stroke-width:0.6;" x="87.4152" xlink:href="#md5315eb808" y="390.317177"/>
      </g>
     </g>
    </g>
    <g id="ytick_6">
     <g id="line2d_13">
      <g>
       <use style="stroke:#000000;stroke-width:0.6;" x="87.4152" xlink:href="#md5315eb808" y="375.280449"/>
      </g>
     </g>
    </g>
    <g id="ytick_7">
     <g id="line2d_14">
      <g>
       <use style="stroke:#000000;stroke-width:0.6;" x="87.4152" xlink:href="#md5315eb808" y="362.255043"/>
      </g>
     </g>
    </g>
    <g id="ytick_8">
     <g id="line2d_15">
      <g>
       <use style="stroke:#000000;stroke-width:0.6;" x="87.4152" xlink:href="#md5315eb808" y="350.76582"/>
      </g>
     </g>
    </g>
    <g id="ytick_9">
     <g id="line2d_16">
      <g>
       <use style="stroke:#000000;stroke-width:0.6;" x="87.4152" xlink:href="#md5315eb808" y="272.874867"/>
      </g>
     </g>
    </g>
    <g id="ytick_10">
     <g id="line2d_17">
      <g>
       <use style="stroke:#000000;stroke-width:0.6;" x="87.4152" xlink:href="#md5315eb808" y="233.32351"/>
      </g>
     </g>
    </g>
    <g id="ytick_11">
     <g id="line2d_18">
      <g>
       <use style="stroke:#000000;stroke-width:0.6;" x="87.4152" xlink:href="#md5315eb808" y="205.261375"/>
      </g>
     </g>
    </g>
    <g id="ytick_12">
     <g id="line2d_19">
      <g>
       <use style="stroke:#000000;stroke-width:0.6;" x="87.4152" xlink:href="#md5315eb808" y="183.494692"/>
      </g>
     </g>
    </g>
    <g id="ytick_13">
     <g id="line2d_20">
      <g>
       <use style="stroke:#000000;stroke-width:0.6;" x="87.4152" xlink:href="#md5315eb808" y="165.710017"/>
      </g>
     </g>
    </g>
    <g id="ytick_14">
     <g id="line2d_21">
      <g>
       <use style="stroke:#000000;stroke-width:0.6;" x="87.4152" xlink:href="#md5315eb808" y="150.673289"/>
      </g>
     </g>
    </g>
    <g id="ytick_15">
     <g id="line2d_22">
      <g>
       <use style="stroke:#000000;stroke-width:0.6;" x="87.4152" xlink:href="#md5315eb808" y="137.647882"/>
      </g>
     </g>
    </g>
    <g id="ytick_16">
     <g id="line2d_23">
      <g>
       <use style="stroke:#000000;stroke-width:0.6;" x="87.4152" xlink:href="#md5315eb808" y="126.15866"/>
      </g>
     </g>
    </g>
    <g id="ytick_17">
     <g id="line2d_24">
      <g>
       <use style="stroke:#000000;stroke-width:0.6;" x="87.4152" xlink:href="#md5315eb808" y="48.267707"/>
      </g>
     </g>
    </g>
    <g id="text_11">
     <!-- $\propto  &lt;\delta w(t_0, t_0 + \tau) \delta |\vec{\nu}(t_0)|&gt;_{t_0}$ -->
     <defs>
      <path d="M 25.734375 17.71875 
Q 33.796875 17.71875 38.625 29.4375 
Q 32.421875 42.234375 25.734375 42.234375 
Q 20.84375 42.234375 18.359375 38.71875 
Q 15.71875 34.96875 15.71875 29.984375 
Q 15.71875 24.515625 18.359375 21.140625 
Q 21.09375 17.71875 25.734375 17.71875 
z
M 60.6875 17.625 
L 60.6875 11.1875 
L 56.9375 11.1875 
Q 53.375 11.1875 50.734375 12.640625 
Q 48.09375 13.96875 45.5625 17.046875 
Q 44.046875 18.796875 41.65625 22.90625 
Q 38.375 17.046875 35.5 14.453125 
Q 31.9375 11.328125 26.265625 11.328125 
Q 19.671875 11.328125 15.328125 16.265625 
Q 10.75 21.4375 10.75 29.984375 
Q 10.75 38.1875 15.328125 43.75 
Q 19.390625 48.6875 26.375 48.6875 
Q 29.9375 48.6875 32.5625 47.21875 
Q 35.640625 45.609375 37.75 42.828125 
Q 39.703125 40.328125 41.65625 36.96875 
Q 44.921875 42.828125 47.796875 45.40625 
Q 51.375 48.53125 57.03125 48.53125 
L 60.6875 48.53125 
L 60.6875 42.140625 
L 57.5625 42.140625 
Q 50.34375 42.140625 44.671875 30.421875 
Q 50.875 17.625 57.5625 17.625 
z
" id="DejaVuSans-8733"/>
      <path d="M 73.1875 49.21875 
L 22.796875 31.296875 
L 73.1875 13.484375 
L 73.1875 4.59375 
L 10.59375 27.296875 
L 10.59375 35.40625 
L 73.1875 58.109375 
z
" id="DejaVuSans-60"/>
      <path d="M 54.25 63.328125 
Q 49.953125 66.75 38.28125 66.75 
Q 25.921875 66.75 24.8125 61.03125 
Q 23.921875 56.546875 36.375 54.203125 
Q 46.140625 52.390625 50.828125 46.921875 
Q 56.5 40.328125 53.859375 26.8125 
Q 51.3125 13.875 43.171875 6.25 
Q 34.96875 -1.421875 23.25 -1.421875 
Q 11.578125 -1.421875 6.34375 6.25 
Q 1.125 13.875 3.765625 27.296875 
Q 5.671875 37.25 13.921875 45.3125 
Q 17.140625 48.4375 21.140625 50.203125 
Q 14.265625 54.046875 15.625 60.9375 
Q 18.21875 74.21875 39.75 74.21875 
Q 50.53125 74.21875 55.71875 70.796875 
z
M 27.390625 47.75 
Q 23.828125 46.34375 20.40625 42.78125 
Q 15.140625 37.25 13.234375 27.296875 
Q 11.28125 17.390625 14.359375 11.8125 
Q 17.484375 6.203125 24.75 6.203125 
Q 31.9375 6.203125 37.203125 11.859375 
Q 42.53125 17.53125 44.34375 26.8125 
Q 46.1875 36.53125 42.671875 41.21875 
Q 38.921875 46.234375 32.859375 46.78125 
Q 29.78125 47.078125 27.390625 47.75 
z
" id="DejaVuSans-Oblique-948"/>
      <path d="M 8.5 54.6875 
L 17.390625 54.6875 
L 19.671875 10.6875 
L 40.09375 54.6875 
L 50.484375 54.6875 
L 53.515625 10.6875 
L 72.90625 54.6875 
L 81.890625 54.6875 
L 56.890625 0 
L 46.390625 0 
L 43.703125 45.3125 
L 22.796875 0 
L 12.203125 0 
z
" id="DejaVuSans-Oblique-119"/>
      <path d="M 42.28125 54.6875 
L 40.921875 47.703125 
L 23 47.703125 
L 17.1875 18.015625 
Q 16.890625 16.359375 16.75 15.234375 
Q 16.609375 14.109375 16.609375 13.484375 
Q 16.609375 10.359375 18.484375 8.9375 
Q 20.359375 7.515625 24.515625 7.515625 
L 33.59375 7.515625 
L 32.078125 0 
L 23.484375 0 
Q 15.484375 0 11.546875 3.125 
Q 7.625 6.25 7.625 12.59375 
Q 7.625 13.71875 7.765625 15.0625 
Q 7.90625 16.40625 8.203125 18.015625 
L 14.015625 47.703125 
L 6.390625 47.703125 
L 7.8125 54.6875 
L 15.28125 54.6875 
L 18.3125 70.21875 
L 27.296875 70.21875 
L 24.3125 54.6875 
z
" id="DejaVuSans-Oblique-116"/>
      <path d="M 11.71875 12.40625 
L 22.015625 12.40625 
L 22.015625 4 
L 14.015625 -11.625 
L 7.71875 -11.625 
L 11.71875 4 
z
" id="DejaVuSans-44"/>
      <path d="M 46 62.703125 
L 46 35.5 
L 73.1875 35.5 
L 73.1875 27.203125 
L 46 27.203125 
L 46 0 
L 37.796875 0 
L 37.796875 27.203125 
L 10.59375 27.203125 
L 10.59375 35.5 
L 37.796875 35.5 
L 37.796875 62.703125 
z
" id="DejaVuSans-43"/>
      <path d="M 21 76.421875 
L 21 -23.578125 
L 12.703125 -23.578125 
L 12.703125 76.421875 
z
" id="DejaVuSans-124"/>
      <path d="M -47.015625 63.53125 
L -47.015625 68.40625 
L -10.84375 68.40625 
L -17.28125 75.984375 
L -11.140625 75.984375 
L -2.59375 65.96875 
L -11.140625 55.953125 
L -17.28125 55.953125 
L -10.84375 63.53125 
z
" id="DejaVuSans-8407"/>
      <path d="M 14.984375 0 
L 8.9375 54.6875 
L 18.609375 54.6875 
L 23.78125 8.796875 
Q 30.8125 14.84375 37.359375 23.25 
Q 42.28125 29.546875 43.5625 35.015625 
Q 44.140625 37.59375 43.890625 42.484375 
Q 43.65625 48.296875 39.75 54.6875 
L 48.828125 54.6875 
L 48.828125 54.6875 
Q 51.375 50.34375 52.390625 44.28125 
Q 53.375 38.71875 52.640625 34.90625 
Q 50.78125 25.34375 42.484375 16.796875 
Q 31.640625 5.671875 24.5625 0 
z
" id="DejaVuSans-Oblique-957"/>
      <path d="M 10.59375 49.21875 
L 10.59375 58.109375 
L 73.1875 35.40625 
L 73.1875 27.296875 
L 10.59375 4.59375 
L 10.59375 13.484375 
L 60.890625 31.296875 
z
" id="DejaVuSans-62"/>
     </defs>
     <g transform="translate(23.6152 376.122)rotate(-90)scale(0.2 -0.2)">
      <use transform="translate(19.482422 0.78125)" xlink:href="#DejaVuSans-8733"/>
      <use transform="translate(129.882812 0.78125)" xlink:href="#DejaVuSans-60"/>
      <use transform="translate(233.154297 0.78125)" xlink:href="#DejaVuSans-Oblique-948"/>
      <use transform="translate(294.335938 0.78125)" xlink:href="#DejaVuSans-Oblique-119"/>
      <use transform="translate(376.123047 0.78125)" xlink:href="#DejaVuSans-40"/>
      <use transform="translate(415.136719 0.78125)" xlink:href="#DejaVuSans-Oblique-116"/>
      <use transform="translate(454.345703 -15.625)scale(0.7)" xlink:href="#DejaVuSans-48"/>
      <use transform="translate(501.616211 0.78125)" xlink:href="#DejaVuSans-44"/>
      <use transform="translate(552.885742 0.78125)" xlink:href="#DejaVuSans-Oblique-116"/>
      <use transform="translate(592.094727 -15.625)scale(0.7)" xlink:href="#DejaVuSans-48"/>
      <use transform="translate(658.847656 0.78125)" xlink:href="#DejaVuSans-43"/>
      <use transform="translate(762.119141 0.78125)" xlink:href="#DejaVuSans-Oblique-964"/>
      <use transform="translate(822.324219 0.78125)" xlink:href="#DejaVuSans-41"/>
      <use transform="translate(861.337891 0.78125)" xlink:href="#DejaVuSans-Oblique-948"/>
      <use transform="translate(922.519531 0.78125)" xlink:href="#DejaVuSans-124"/>
      <use transform="translate(1016.191406 12.015625)" xlink:href="#DejaVuSans-8407"/>
      <use transform="translate(956.210938 0.78125)" xlink:href="#DejaVuSans-Oblique-957"/>
      <use transform="translate(1012.070312 0.78125)" xlink:href="#DejaVuSans-40"/>
      <use transform="translate(1051.083984 0.78125)" xlink:href="#DejaVuSans-Oblique-116"/>
      <use transform="translate(1090.292969 -15.625)scale(0.7)" xlink:href="#DejaVuSans-48"/>
      <use transform="translate(1137.563477 0.78125)" xlink:href="#DejaVuSans-41"/>
      <use transform="translate(1176.577148 0.78125)" xlink:href="#DejaVuSans-124"/>
      <use transform="translate(1229.750977 0.78125)" xlink:href="#DejaVuSans-62"/>
      <use transform="translate(1333.979492 -15.625)scale(0.7)" xlink:href="#DejaVuSans-Oblique-116"/>
      <use transform="translate(1361.425781 -27.109375)scale(0.49)" xlink:href="#DejaVuSans-48"/>
     </g>
    </g>
   </g>
   <g id="LineCollection_1">
    <path clip-path="url(#p48a635f6d0)" d="M 125.058109 402.594749 
L 125.058109 50.882727 
" style="fill:none;stroke:#1f77b4;stroke-width:1.5;"/>
    <path clip-path="url(#p48a635f6d0)" d="M 132.662002 149.279467 
L 132.662002 117.517498 
" style="fill:none;stroke:#1f77b4;stroke-width:1.5;"/>
    <path clip-path="url(#p48a635f6d0)" d="M 140.265895 139.286804 
L 140.265895 115.260629 
" style="fill:none;stroke:#1f77b4;stroke-width:1.5;"/>
    <path clip-path="url(#p48a635f6d0)" d="M 147.869788 148.254124 
L 147.869788 123.736859 
" style="fill:none;stroke:#1f77b4;stroke-width:1.5;"/>
    <path clip-path="url(#p48a635f6d0)" d="M 155.476191 140.834488 
L 155.476191 120.481276 
" style="fill:none;stroke:#1f77b4;stroke-width:1.5;"/>
    <path clip-path="url(#p48a635f6d0)" d="M 163.080084 158.359486 
L 163.080084 136.869702 
" style="fill:none;stroke:#1f77b4;stroke-width:1.5;"/>
    <path clip-path="url(#p48a635f6d0)" d="M 170.683977 141.290222 
L 170.683977 123.890979 
" style="fill:none;stroke:#1f77b4;stroke-width:1.5;"/>
    <path clip-path="url(#p48a635f6d0)" d="M 178.290379 166.035413 
L 178.290379 146.445608 
" style="fill:none;stroke:#1f77b4;stroke-width:1.5;"/>
    <path clip-path="url(#p48a635f6d0)" d="M 185.894272 149.684854 
L 185.894272 132.014824 
" style="fill:none;stroke:#1f77b4;stroke-width:1.5;"/>
    <path clip-path="url(#p48a635f6d0)" d="M 193.498165 166.376941 
L 193.498165 146.930575 
" style="fill:none;stroke:#1f77b4;stroke-width:1.5;"/>
    <path clip-path="url(#p48a635f6d0)" d="M 201.102058 174.167206 
L 201.102058 154.076473 
" style="fill:none;stroke:#1f77b4;stroke-width:1.5;"/>
    <path clip-path="url(#p48a635f6d0)" d="M 208.708461 163.645599 
L 208.708461 146.203659 
" style="fill:none;stroke:#1f77b4;stroke-width:1.5;"/>
    <path clip-path="url(#p48a635f6d0)" d="M 216.312353 181.100676 
L 216.312353 161.884727 
" style="fill:none;stroke:#1f77b4;stroke-width:1.5;"/>
    <path clip-path="url(#p48a635f6d0)" d="M 223.916246 182.946156 
L 223.916246 163.278421 
" style="fill:none;stroke:#1f77b4;stroke-width:1.5;"/>
    <path clip-path="url(#p48a635f6d0)" d="M 231.522649 189.178243 
L 231.522649 168.965735 
" style="fill:none;stroke:#1f77b4;stroke-width:1.5;"/>
    <path clip-path="url(#p48a635f6d0)" d="M 239.126542 191.595689 
L 239.126542 170.775138 
" style="fill:none;stroke:#1f77b4;stroke-width:1.5;"/>
    <path clip-path="url(#p48a635f6d0)" d="M 246.730435 183.460702 
L 246.730435 165.499222 
" style="fill:none;stroke:#1f77b4;stroke-width:1.5;"/>
    <path clip-path="url(#p48a635f6d0)" d="M 254.334328 183.604139 
L 254.334328 165.331972 
" style="fill:none;stroke:#1f77b4;stroke-width:1.5;"/>
    <path clip-path="url(#p48a635f6d0)" d="M 261.94073 191.203558 
L 261.94073 172.058474 
" style="fill:none;stroke:#1f77b4;stroke-width:1.5;"/>
    <path clip-path="url(#p48a635f6d0)" d="M 269.544623 193.344433 
L 269.544623 174.542732 
" style="fill:none;stroke:#1f77b4;stroke-width:1.5;"/>
    <path clip-path="url(#p48a635f6d0)" d="M 277.148516 201.89954 
L 277.148516 181.588683 
" style="fill:none;stroke:#1f77b4;stroke-width:1.5;"/>
    <path clip-path="url(#p48a635f6d0)" d="M 284.754919 198.19045 
L 284.754919 178.754546 
" style="fill:none;stroke:#1f77b4;stroke-width:1.5;"/>
    <path clip-path="url(#p48a635f6d0)" d="M 292.358812 188.758274 
L 292.358812 170.475536 
" style="fill:none;stroke:#1f77b4;stroke-width:1.5;"/>
    <path clip-path="url(#p48a635f6d0)" d="M 299.962705 198.656453 
L 299.962705 180.177961 
" style="fill:none;stroke:#1f77b4;stroke-width:1.5;"/>
    <path clip-path="url(#p48a635f6d0)" d="M 307.569107 206.952952 
L 307.569107 185.484709 
" style="fill:none;stroke:#1f77b4;stroke-width:1.5;"/>
    <path clip-path="url(#p48a635f6d0)" d="M 315.173 206.241883 
L 315.173 187.106174 
" style="fill:none;stroke:#1f77b4;stroke-width:1.5;"/>
    <path clip-path="url(#p48a635f6d0)" d="M 322.776893 224.40163 
L 322.776893 202.878466 
" style="fill:none;stroke:#1f77b4;stroke-width:1.5;"/>
    <path clip-path="url(#p48a635f6d0)" d="M 330.380786 212.6675 
L 330.380786 193.210752 
" style="fill:none;stroke:#1f77b4;stroke-width:1.5;"/>
    <path clip-path="url(#p48a635f6d0)" d="M 337.987189 218.063876 
L 337.987189 197.112795 
" style="fill:none;stroke:#1f77b4;stroke-width:1.5;"/>
    <path clip-path="url(#p48a635f6d0)" d="M 345.591082 222.57704 
L 345.591082 201.484766 
" style="fill:none;stroke:#1f77b4;stroke-width:1.5;"/>
    <path clip-path="url(#p48a635f6d0)" d="M 353.194975 212.398858 
L 353.194975 192.487565 
" style="fill:none;stroke:#1f77b4;stroke-width:1.5;"/>
    <path clip-path="url(#p48a635f6d0)" d="M 360.801377 238.096887 
L 360.801377 215.57853 
" style="fill:none;stroke:#1f77b4;stroke-width:1.5;"/>
    <path clip-path="url(#p48a635f6d0)" d="M 368.40527 237.869526 
L 368.40527 214.251949 
" style="fill:none;stroke:#1f77b4;stroke-width:1.5;"/>
    <path clip-path="url(#p48a635f6d0)" d="M 376.009163 219.982257 
L 376.009163 199.19838 
" style="fill:none;stroke:#1f77b4;stroke-width:1.5;"/>
    <path clip-path="url(#p48a635f6d0)" d="M 383.613056 220.423055 
L 383.613056 200.383921 
" style="fill:none;stroke:#1f77b4;stroke-width:1.5;"/>
    <path clip-path="url(#p48a635f6d0)" d="M 391.219459 232.702253 
L 391.219459 211.545162 
" style="fill:none;stroke:#1f77b4;stroke-width:1.5;"/>
    <path clip-path="url(#p48a635f6d0)" d="M 398.823352 235.447075 
L 398.823352 212.919017 
" style="fill:none;stroke:#1f77b4;stroke-width:1.5;"/>
    <path clip-path="url(#p48a635f6d0)" d="M 406.427245 242.212634 
L 406.427245 218.30727 
" style="fill:none;stroke:#1f77b4;stroke-width:1.5;"/>
    <path clip-path="url(#p48a635f6d0)" d="M 414.033647 237.519052 
L 414.033647 215.512952 
" style="fill:none;stroke:#1f77b4;stroke-width:1.5;"/>
    <path clip-path="url(#p48a635f6d0)" d="M 421.63754 238.029769 
L 421.63754 215.436582 
" style="fill:none;stroke:#1f77b4;stroke-width:1.5;"/>
    <path clip-path="url(#p48a635f6d0)" d="M 429.241433 249.474797 
L 429.241433 224.29095 
" style="fill:none;stroke:#1f77b4;stroke-width:1.5;"/>
    <path clip-path="url(#p48a635f6d0)" d="M 436.847836 247.34894 
L 436.847836 222.947123 
" style="fill:none;stroke:#1f77b4;stroke-width:1.5;"/>
    <path clip-path="url(#p48a635f6d0)" d="M 444.451729 237.078964 
L 444.451729 212.713308 
" style="fill:none;stroke:#1f77b4;stroke-width:1.5;"/>
    <path clip-path="url(#p48a635f6d0)" d="M 452.055622 269.258408 
L 452.055622 240.3755 
" style="fill:none;stroke:#1f77b4;stroke-width:1.5;"/>
    <path clip-path="url(#p48a635f6d0)" d="M 459.659515 248.295132 
L 459.659515 222.363279 
" style="fill:none;stroke:#1f77b4;stroke-width:1.5;"/>
    <path clip-path="url(#p48a635f6d0)" d="M 467.265917 256.509324 
L 467.265917 228.649151 
" style="fill:none;stroke:#1f77b4;stroke-width:1.5;"/>
    <path clip-path="url(#p48a635f6d0)" d="M 474.86981 253.207171 
L 474.86981 226.54524 
" style="fill:none;stroke:#1f77b4;stroke-width:1.5;"/>
    <path clip-path="url(#p48a635f6d0)" d="M 482.473703 254.536156 
L 482.473703 226.098495 
" style="fill:none;stroke:#1f77b4;stroke-width:1.5;"/>
    <path clip-path="url(#p48a635f6d0)" d="M 490.080106 284.88198 
L 490.080106 249.533687 
" style="fill:none;stroke:#1f77b4;stroke-width:1.5;"/>
    <path clip-path="url(#p48a635f6d0)" d="M 497.683999 259.20125 
L 497.683999 229.438397 
" style="fill:none;stroke:#1f77b4;stroke-width:1.5;"/>
    <path clip-path="url(#p48a635f6d0)" d="M 505.287892 259.092478 
L 505.287892 230.673272 
" style="fill:none;stroke:#1f77b4;stroke-width:1.5;"/>
    <path clip-path="url(#p48a635f6d0)" d="M 512.891785 271.288895 
L 512.891785 239.254972 
" style="fill:none;stroke:#1f77b4;stroke-width:1.5;"/>
    <path clip-path="url(#p48a635f6d0)" d="M 520.498187 268.457246 
L 520.498187 238.084559 
" style="fill:none;stroke:#1f77b4;stroke-width:1.5;"/>
    <path clip-path="url(#p48a635f6d0)" d="M 528.10208 295.858375 
L 528.10208 258.347014 
" style="fill:none;stroke:#1f77b4;stroke-width:1.5;"/>
    <path clip-path="url(#p48a635f6d0)" d="M 535.705973 301.571009 
L 535.705973 261.509001 
" style="fill:none;stroke:#1f77b4;stroke-width:1.5;"/>
    <path clip-path="url(#p48a635f6d0)" d="M 543.312376 290.83955 
L 543.312376 256.690858 
" style="fill:none;stroke:#1f77b4;stroke-width:1.5;"/>
    <path clip-path="url(#p48a635f6d0)" d="M 550.916269 277.957457 
L 550.916269 245.492767 
" style="fill:none;stroke:#1f77b4;stroke-width:1.5;"/>
    <path clip-path="url(#p48a635f6d0)" d="M 558.520162 271.409192 
L 558.520162 241.154898 
" style="fill:none;stroke:#1f77b4;stroke-width:1.5;"/>
    <path clip-path="url(#p48a635f6d0)" d="M 566.124055 301.577397 
L 566.124055 261.725015 
" style="fill:none;stroke:#1f77b4;stroke-width:1.5;"/>
    <path clip-path="url(#p48a635f6d0)" d="M 573.730457 266.516424 
L 573.730457 236.414779 
" style="fill:none;stroke:#1f77b4;stroke-width:1.5;"/>
    <path clip-path="url(#p48a635f6d0)" d="M 581.33435 278.018032 
L 581.33435 244.416447 
" style="fill:none;stroke:#1f77b4;stroke-width:1.5;"/>
    <path clip-path="url(#p48a635f6d0)" d="M 588.938243 297.57464 
L 588.938243 255.209282 
" style="fill:none;stroke:#1f77b4;stroke-width:1.5;"/>
    <path clip-path="url(#p48a635f6d0)" d="M 596.544646 274.901842 
L 596.544646 244.38341 
" style="fill:none;stroke:#1f77b4;stroke-width:1.5;"/>
    <path clip-path="url(#p48a635f6d0)" d="M 604.148539 305.583644 
L 604.148539 266.96749 
" style="fill:none;stroke:#1f77b4;stroke-width:1.5;"/>
    <path clip-path="url(#p48a635f6d0)" d="M 611.752432 330.507342 
L 611.752432 282.280072 
" style="fill:none;stroke:#1f77b4;stroke-width:1.5;"/>
    <path clip-path="url(#p48a635f6d0)" d="M 619.358834 282.533533 
L 619.358834 244.640595 
" style="fill:none;stroke:#1f77b4;stroke-width:1.5;"/>
    <path clip-path="url(#p48a635f6d0)" d="M 626.962727 289.261982 
L 626.962727 252.423903 
" style="fill:none;stroke:#1f77b4;stroke-width:1.5;"/>
    <path clip-path="url(#p48a635f6d0)" d="M 634.56662 302.204301 
L 634.56662 263.781158 
" style="fill:none;stroke:#1f77b4;stroke-width:1.5;"/>
    <path clip-path="url(#p48a635f6d0)" d="M 642.170513 315.261964 
L 642.170513 269.254666 
" style="fill:none;stroke:#1f77b4;stroke-width:1.5;"/>
    <path clip-path="url(#p48a635f6d0)" d="M 649.776916 314.742632 
L 649.776916 273.867872 
" style="fill:none;stroke:#1f77b4;stroke-width:1.5;"/>
    <path clip-path="url(#p48a635f6d0)" d="M 657.380809 366.826084 
L 657.380809 300.122311 
" style="fill:none;stroke:#1f77b4;stroke-width:1.5;"/>
    <path clip-path="url(#p48a635f6d0)" d="M 664.984702 297.819666 
L 664.984702 258.44844 
" style="fill:none;stroke:#1f77b4;stroke-width:1.5;"/>
    <path clip-path="url(#p48a635f6d0)" d="M 672.591104 336.277972 
L 672.591104 281.842609 
" style="fill:none;stroke:#1f77b4;stroke-width:1.5;"/>
    <path clip-path="url(#p48a635f6d0)" d="M 680.194997 293.361976 
L 680.194997 253.036531 
" style="fill:none;stroke:#1f77b4;stroke-width:1.5;"/>
    <path clip-path="url(#p48a635f6d0)" d="M 687.79889 300.206252 
L 687.79889 260.139352 
" style="fill:none;stroke:#1f77b4;stroke-width:1.5;"/>
    <path clip-path="url(#p48a635f6d0)" d="M 695.402783 319.13589 
L 695.402783 271.861828 
" style="fill:none;stroke:#1f77b4;stroke-width:1.5;"/>
    <path clip-path="url(#p48a635f6d0)" d="M 703.009186 310.880433 
L 703.009186 265.720226 
" style="fill:none;stroke:#1f77b4;stroke-width:1.5;"/>
    <path clip-path="url(#p48a635f6d0)" d="M 710.613079 313.855233 
L 710.613079 273.346015 
" style="fill:none;stroke:#1f77b4;stroke-width:1.5;"/>
    <path clip-path="url(#p48a635f6d0)" d="M 718.216972 321.961092 
L 718.216972 270.763371 
" style="fill:none;stroke:#1f77b4;stroke-width:1.5;"/>
    <path clip-path="url(#p48a635f6d0)" d="M 725.823374 342.160794 
L 725.823374 288.838557 
" style="fill:none;stroke:#1f77b4;stroke-width:1.5;"/>
    <path clip-path="url(#p48a635f6d0)" d="M 733.427267 315.880982 
L 733.427267 268.62475 
" style="fill:none;stroke:#1f77b4;stroke-width:1.5;"/>
    <path clip-path="url(#p48a635f6d0)" d="M 741.03116 338.656769 
L 741.03116 281.4415 
" style="fill:none;stroke:#1f77b4;stroke-width:1.5;"/>
    <path clip-path="url(#p48a635f6d0)" d="M 748.637563 321.290043 
L 748.637563 274.590671 
" style="fill:none;stroke:#1f77b4;stroke-width:1.5;"/>
    <path clip-path="url(#p48a635f6d0)" d="M 756.241456 359.205451 
L 756.241456 293.816969 
" style="fill:none;stroke:#1f77b4;stroke-width:1.5;"/>
    <path clip-path="url(#p48a635f6d0)" d="M 763.845348 321.498986 
L 763.845348 272.023593 
" style="fill:none;stroke:#1f77b4;stroke-width:1.5;"/>
    <path clip-path="url(#p48a635f6d0)" d="M 771.449241 325.954995 
L 771.449241 277.213622 
" style="fill:none;stroke:#1f77b4;stroke-width:1.5;"/>
    <path clip-path="url(#p48a635f6d0)" d="M 779.055644 320.457337 
L 779.055644 270.839794 
" style="fill:none;stroke:#1f77b4;stroke-width:1.5;"/>
    <path clip-path="url(#p48a635f6d0)" d="M 786.659537 345.65958 
L 786.659537 287.377991 
" style="fill:none;stroke:#1f77b4;stroke-width:1.5;"/>
    <path clip-path="url(#p48a635f6d0)" d="M 794.26343 318.9603 
L 794.26343 264.949022 
" style="fill:none;stroke:#1f77b4;stroke-width:1.5;"/>
    <path clip-path="url(#p48a635f6d0)" d="M 801.869832 322.490471 
L 801.869832 275.38775 
" style="fill:none;stroke:#1f77b4;stroke-width:1.5;"/>
    <path clip-path="url(#p48a635f6d0)" d="M 809.473725 346.92321 
L 809.473725 296.593979 
" style="fill:none;stroke:#1f77b4;stroke-width:1.5;"/>
    <path clip-path="url(#p48a635f6d0)" d="M 817.077618 337.719712 
L 817.077618 279.648053 
" style="fill:none;stroke:#1f77b4;stroke-width:1.5;"/>
    <path clip-path="url(#p48a635f6d0)" d="M 824.681511 348.949964 
L 824.681511 294.860721 
" style="fill:none;stroke:#1f77b4;stroke-width:1.5;"/>
    <path clip-path="url(#p48a635f6d0)" d="M 832.287914 371.121402 
L 832.287914 301.201683 
" style="fill:none;stroke:#1f77b4;stroke-width:1.5;"/>
    <path clip-path="url(#p48a635f6d0)" d="M 839.891807 349.323259 
L 839.891807 281.914676 
" style="fill:none;stroke:#1f77b4;stroke-width:1.5;"/>
    <path clip-path="url(#p48a635f6d0)" d="M 847.4957 343.58979 
L 847.4957 289.59773 
" style="fill:none;stroke:#1f77b4;stroke-width:1.5;"/>
    <path clip-path="url(#p48a635f6d0)" d="M 855.102102 329.701463 
L 855.102102 277.56829 
" style="fill:none;stroke:#1f77b4;stroke-width:1.5;"/>
    <path clip-path="url(#p48a635f6d0)" d="M 862.705995 421.761273 
L 862.705995 328.761846 
" style="fill:none;stroke:#1f77b4;stroke-width:1.5;"/>
    <path clip-path="url(#p48a635f6d0)" d="M 870.309888 363.564161 
L 870.309888 299.898105 
" style="fill:none;stroke:#1f77b4;stroke-width:1.5;"/>
    <path clip-path="url(#p48a635f6d0)" d="M 877.916291 330.747903 
L 877.916291 272.71372 
" style="fill:none;stroke:#1f77b4;stroke-width:1.5;"/>
   </g>
   <g id="line2d_25">
    <path clip-path="url(#p48a635f6d0)" d="M 125.058109 115.8812 
L 132.662002 132.111396 
L 140.265895 126.535852 
L 147.869788 135.227235 
L 155.476191 130.127997 
L 163.080084 147.023999 
L 170.683977 132.203175 
L 178.290379 155.749564 
L 185.894272 140.450277 
L 193.498165 156.169963 
L 201.102058 163.605509 
L 208.708461 154.535303 
L 216.312353 171.020286 
L 223.916246 172.617435 
L 231.522649 178.549392 
L 239.126542 180.630962 
L 246.730435 174.06713 
L 254.334328 174.040839 
L 261.94073 181.162072 
L 269.544623 183.491284 
L 277.148516 191.216425 
L 284.754919 187.989223 
L 292.358812 179.189194 
L 299.962705 188.980302 
L 307.569107 195.629417 
L 315.173 196.205543 
L 322.776893 213.04762 
L 330.380786 202.454815 
L 337.987189 207.026923 
L 345.591082 211.461913 
L 353.194975 201.936048 
L 360.801377 226.189353 
L 368.40527 225.347696 
L 376.009163 209.037814 
L 383.613056 209.889802 
L 391.219459 221.551222 
L 398.823352 223.534133 
L 406.427245 229.529471 
L 414.033647 225.896747 
L 421.63754 226.080513 
L 429.241433 236.072391 
L 436.847836 234.386974 
L 444.451729 224.137327 
L 452.055622 253.751821 
L 459.659515 234.470005 
L 467.265917 241.587951 
L 474.86981 238.968097 
L 482.473703 239.284664 
L 490.080106 265.615343 
L 497.683999 243.189055 
L 505.287892 243.851549 
L 512.891785 253.96281 
L 520.498187 252.093508 
L 528.10208 275.310564 
L 535.705973 279.497615 
L 543.312376 272.27843 
L 550.916269 260.380706 
L 558.520162 255.113776 
L 566.124055 279.629988 
L 573.730457 250.309045 
L 581.33435 259.777493 
L 588.938243 274.109835 
L 596.544646 258.453951 
L 604.148539 284.377007 
L 611.752432 303.443089 
L 619.358834 261.758515 
L 626.962727 269.114193 
L 634.56662 281.11298 
L 642.170513 289.570678 
L 649.776916 292.179755 
L 657.380809 327.880262 
L 664.984702 276.161022 
L 672.591104 305.311355 
L 680.194997 271.130104 
L 687.79889 278.129917 
L 695.402783 292.66262 
L 703.009186 285.709893 
L 710.613079 291.512706 
L 718.216972 293.041144 
L 725.823374 311.900655 
L 733.427267 289.418745 
L 741.03116 305.912982 
L 748.637563 295.172015 
L 756.241456 321.13178 
L 763.845348 293.657592 
L 771.449241 298.571091 
L 779.055644 292.527195 
L 786.659537 312.229268 
L 794.26343 288.263188 
L 801.869832 296.123198 
L 809.473725 318.548016 
L 817.077618 304.42477 
L 824.681511 318.203338 
L 832.287914 330.026518 
L 839.891807 309.90846 
L 847.4957 312.904881 
L 855.102102 300.192739 
L 862.705995 364.574377 
L 870.309888 326.626599 
L 877.916291 297.477116 
" style="fill:none;stroke:#1f77b4;stroke-linecap:square;stroke-width:1.5;"/>
   </g>
   <g id="patch_3">
    <path d="M 87.4152 440.3052 
L 87.4152 32.3388 
" style="fill:none;stroke:#000000;stroke-linecap:square;stroke-linejoin:miter;stroke-width:0.8;"/>
   </g>
   <g id="patch_4">
    <path d="M 915.5592 440.3052 
L 915.5592 32.3388 
" style="fill:none;stroke:#000000;stroke-linecap:square;stroke-linejoin:miter;stroke-width:0.8;"/>
   </g>
   <g id="patch_5">
    <path d="M 87.4152 440.3052 
L 915.5592 440.3052 
" style="fill:none;stroke:#000000;stroke-linecap:square;stroke-linejoin:miter;stroke-width:0.8;"/>
   </g>
   <g id="patch_6">
    <path d="M 87.4152 32.3388 
L 915.5592 32.3388 
" style="fill:none;stroke:#000000;stroke-linecap:square;stroke-linejoin:miter;stroke-width:0.8;"/>
   </g>
   <g id="text_12">
    <!-- $N=20, \phi=0.65, l_p/\sigma=100$ $(N_{iter} = 10^8, dt = 10^{-3}, N_{samples} = 9 \cdot 10^2)$ -->
    <defs>
     <path d="M 16.890625 72.90625 
L 30.171875 72.90625 
L 50.296875 10.40625 
L 62.5 72.90625 
L 72.125 72.90625 
L 57.90625 0 
L 44.578125 0 
L 24.515625 62.890625 
L 12.3125 0 
L 2.6875 0 
z
" id="DejaVuSans-Oblique-78"/>
     <path d="M 10.59375 45.40625 
L 73.1875 45.40625 
L 73.1875 37.203125 
L 10.59375 37.203125 
z
M 10.59375 25.484375 
L 73.1875 25.484375 
L 73.1875 17.1875 
L 10.59375 17.1875 
z
" id="DejaVuSans-61"/>
     <path d="M 46.734375 75.984375 
L 42.78125 55.8125 
Q 52.546875 55.8125 57.5625 48.34375 
Q 62.75 40.71875 60.15625 27.296875 
Q 57.515625 13.875 49.359375 6.25 
Q 41.453125 -1.21875 31.6875 -1.21875 
L 27.875 -20.796875 
L 18.953125 -20.796875 
L 22.75 -1.21875 
Q 13.03125 -1.21875 7.953125 6.25 
Q 2.78125 13.875 5.421875 27.296875 
Q 8.015625 40.71875 16.15625 48.34375 
Q 24.125 55.8125 33.84375 55.8125 
L 37.796875 75.984375 
z
M 33.25 6.78125 
Q 38.765625 6.78125 43.5 11.8125 
Q 48.6875 17.4375 50.6875 27.296875 
Q 52.640625 37.0625 49.515625 42.78125 
Q 46.734375 47.796875 41.21875 47.796875 
z
M 24.3125 6.78125 
L 32.28125 47.796875 
Q 26.8125 47.796875 22.078125 42.78125 
Q 16.75 37.0625 14.890625 27.296875 
Q 13.03125 17.4375 16.0625 11.8125 
Q 18.796875 6.78125 24.3125 6.78125 
z
" id="DejaVuSans-Oblique-981"/>
     <path d="M 33.015625 40.375 
Q 26.375 40.375 22.484375 35.828125 
Q 18.609375 31.296875 18.609375 23.390625 
Q 18.609375 15.53125 22.484375 10.953125 
Q 26.375 6.390625 33.015625 6.390625 
Q 39.65625 6.390625 43.53125 10.953125 
Q 47.40625 15.53125 47.40625 23.390625 
Q 47.40625 31.296875 43.53125 35.828125 
Q 39.65625 40.375 33.015625 40.375 
z
M 52.59375 71.296875 
L 52.59375 62.3125 
Q 48.875 64.0625 45.09375 64.984375 
Q 41.3125 65.921875 37.59375 65.921875 
Q 27.828125 65.921875 22.671875 59.328125 
Q 17.53125 52.734375 16.796875 39.40625 
Q 19.671875 43.65625 24.015625 45.921875 
Q 28.375 48.1875 33.59375 48.1875 
Q 44.578125 48.1875 50.953125 41.515625 
Q 57.328125 34.859375 57.328125 23.390625 
Q 57.328125 12.15625 50.6875 5.359375 
Q 44.046875 -1.421875 33.015625 -1.421875 
Q 20.359375 -1.421875 13.671875 8.265625 
Q 6.984375 17.96875 6.984375 36.375 
Q 6.984375 53.65625 15.1875 63.9375 
Q 23.390625 74.21875 37.203125 74.21875 
Q 40.921875 74.21875 44.703125 73.484375 
Q 48.484375 72.75 52.59375 71.296875 
z
" id="DejaVuSans-54"/>
     <path id="DejaVuSans-32"/>
     <path d="M 18.3125 75.984375 
L 27.296875 75.984375 
L 25.09375 64.59375 
L 16.109375 64.59375 
z
M 14.203125 54.6875 
L 23.1875 54.6875 
L 12.5 0 
L 3.515625 0 
z
" id="DejaVuSans-Oblique-105"/>
     <path d="M 48.09375 32.234375 
Q 48.25 33.015625 48.3125 33.84375 
Q 48.390625 34.671875 48.390625 35.5 
Q 48.390625 41.453125 44.890625 44.921875 
Q 41.40625 48.390625 35.40625 48.390625 
Q 28.71875 48.390625 23.578125 44.15625 
Q 18.453125 39.9375 15.828125 32.171875 
z
M 55.90625 25.203125 
L 14.109375 25.203125 
Q 13.8125 23.34375 13.71875 22.265625 
Q 13.625 21.1875 13.625 20.40625 
Q 13.625 13.625 17.796875 9.90625 
Q 21.96875 6.203125 29.59375 6.203125 
Q 35.453125 6.203125 40.671875 7.515625 
Q 45.90625 8.84375 50.390625 11.375 
L 48.6875 2.484375 
Q 43.84375 0.53125 38.6875 -0.4375 
Q 33.546875 -1.421875 28.21875 -1.421875 
Q 16.84375 -1.421875 10.71875 4.015625 
Q 4.59375 9.46875 4.59375 19.484375 
Q 4.59375 28.03125 7.640625 35.375 
Q 10.6875 42.71875 16.609375 48.484375 
Q 20.40625 52.09375 25.65625 54.046875 
Q 30.90625 56 36.8125 56 
Q 46.09375 56 51.578125 50.4375 
Q 57.078125 44.875 57.078125 35.5 
Q 57.078125 33.25 56.78125 30.6875 
Q 56.5 28.125 55.90625 25.203125 
z
" id="DejaVuSans-Oblique-101"/>
     <path d="M 44.578125 46.390625 
Q 43.21875 47.125 41.453125 47.515625 
Q 39.703125 47.90625 37.703125 47.90625 
Q 30.515625 47.90625 25.140625 42.453125 
Q 19.78125 37.015625 18.015625 27.875 
L 12.5 0 
L 3.515625 0 
L 14.203125 54.6875 
L 23.1875 54.6875 
L 21.484375 46.1875 
Q 25.046875 50.921875 30 53.453125 
Q 34.96875 56 40.578125 56 
Q 42.046875 56 43.453125 55.828125 
Q 44.875 55.671875 46.296875 55.28125 
z
" id="DejaVuSans-Oblique-114"/>
     <path d="M 31.78125 34.625 
Q 24.75 34.625 20.71875 30.859375 
Q 16.703125 27.09375 16.703125 20.515625 
Q 16.703125 13.921875 20.71875 10.15625 
Q 24.75 6.390625 31.78125 6.390625 
Q 38.8125 6.390625 42.859375 10.171875 
Q 46.921875 13.96875 46.921875 20.515625 
Q 46.921875 27.09375 42.890625 30.859375 
Q 38.875 34.625 31.78125 34.625 
z
M 21.921875 38.8125 
Q 15.578125 40.375 12.03125 44.71875 
Q 8.5 49.078125 8.5 55.328125 
Q 8.5 64.0625 14.71875 69.140625 
Q 20.953125 74.21875 31.78125 74.21875 
Q 42.671875 74.21875 48.875 69.140625 
Q 55.078125 64.0625 55.078125 55.328125 
Q 55.078125 49.078125 51.53125 44.71875 
Q 48 40.375 41.703125 38.8125 
Q 48.828125 37.15625 52.796875 32.3125 
Q 56.78125 27.484375 56.78125 20.515625 
Q 56.78125 9.90625 50.3125 4.234375 
Q 43.84375 -1.421875 31.78125 -1.421875 
Q 19.734375 -1.421875 13.25 4.234375 
Q 6.78125 9.90625 6.78125 20.515625 
Q 6.78125 27.484375 10.78125 32.3125 
Q 14.796875 37.15625 21.921875 38.8125 
z
M 18.3125 54.390625 
Q 18.3125 48.734375 21.84375 45.5625 
Q 25.390625 42.390625 31.78125 42.390625 
Q 38.140625 42.390625 41.71875 45.5625 
Q 45.3125 48.734375 45.3125 54.390625 
Q 45.3125 60.0625 41.71875 63.234375 
Q 38.140625 66.40625 31.78125 66.40625 
Q 25.390625 66.40625 21.84375 63.234375 
Q 18.3125 60.0625 18.3125 54.390625 
z
" id="DejaVuSans-56"/>
     <path d="M 41.796875 8.203125 
Q 38.1875 3.46875 33.25 1.015625 
Q 28.328125 -1.421875 22.3125 -1.421875 
Q 14.109375 -1.421875 9.34375 4.171875 
Q 4.59375 9.765625 4.59375 19.484375 
Q 4.59375 27.59375 7.46875 34.9375 
Q 10.359375 42.28125 15.828125 48.09375 
Q 19.4375 51.953125 23.96875 53.96875 
Q 28.515625 56 33.5 56 
Q 38.765625 56 42.796875 53.453125 
Q 46.828125 50.921875 49.03125 46.1875 
L 54.890625 75.984375 
L 63.921875 75.984375 
L 49.125 0 
L 40.09375 0 
z
M 13.921875 21.09375 
Q 13.921875 14.015625 17.109375 10.0625 
Q 20.3125 6.109375 25.984375 6.109375 
Q 30.171875 6.109375 33.765625 8.125 
Q 37.359375 10.15625 40.09375 14.109375 
Q 42.96875 18.21875 44.625 23.578125 
Q 46.296875 28.953125 46.296875 34.1875 
Q 46.296875 40.96875 43.09375 44.765625 
Q 39.890625 48.578125 34.28125 48.578125 
Q 30.03125 48.578125 26.359375 46.578125 
Q 22.703125 44.578125 20.125 40.828125 
Q 17.28125 36.765625 15.59375 31.390625 
Q 13.921875 26.03125 13.921875 21.09375 
z
" id="DejaVuSans-Oblique-100"/>
     <path d="M 50 53.078125 
L 48.296875 44.578125 
Q 44.734375 46.53125 40.765625 47.5 
Q 36.8125 48.484375 32.625 48.484375 
Q 25.53125 48.484375 21.453125 46.0625 
Q 17.390625 43.65625 17.390625 39.5 
Q 17.390625 34.671875 26.859375 32.078125 
Q 27.59375 31.890625 27.9375 31.78125 
L 30.8125 30.90625 
Q 39.796875 28.421875 42.796875 25.6875 
Q 45.796875 22.953125 45.796875 18.21875 
Q 45.796875 9.515625 38.890625 4.046875 
Q 31.984375 -1.421875 20.796875 -1.421875 
Q 16.453125 -1.421875 11.671875 -0.578125 
Q 6.890625 0.25 1.125 2 
L 2.875 11.28125 
Q 7.8125 8.734375 12.59375 7.421875 
Q 17.390625 6.109375 21.78125 6.109375 
Q 28.375 6.109375 32.5 8.9375 
Q 36.625 11.765625 36.625 16.109375 
Q 36.625 20.796875 25.78125 23.6875 
L 24.859375 23.921875 
L 21.78125 24.703125 
Q 14.9375 26.515625 11.765625 29.46875 
Q 8.59375 32.421875 8.59375 37.015625 
Q 8.59375 45.75 15.15625 50.875 
Q 21.734375 56 33.015625 56 
Q 37.453125 56 41.671875 55.265625 
Q 45.90625 54.546875 50 53.078125 
z
" id="DejaVuSans-Oblique-115"/>
     <path d="M 53.71875 31.203125 
L 47.609375 0 
L 38.625 0 
L 40.28125 8.296875 
Q 36.328125 3.421875 31.265625 1 
Q 26.21875 -1.421875 20.015625 -1.421875 
Q 13.03125 -1.421875 8.5625 2.84375 
Q 4.109375 7.125 4.109375 13.8125 
Q 4.109375 23.390625 11.75 28.953125 
Q 19.390625 34.515625 32.8125 34.515625 
L 45.3125 34.515625 
L 45.796875 36.921875 
Q 45.90625 37.3125 45.953125 37.765625 
Q 46 38.234375 46 39.203125 
Q 46 43.5625 42.453125 45.96875 
Q 38.921875 48.390625 32.515625 48.390625 
Q 28.125 48.390625 23.5 47.265625 
Q 18.890625 46.140625 14.015625 43.890625 
L 15.578125 52.203125 
Q 20.65625 54.109375 25.515625 55.046875 
Q 30.375 56 34.90625 56 
Q 44.578125 56 49.625 51.796875 
Q 54.6875 47.609375 54.6875 39.59375 
Q 54.6875 37.984375 54.4375 35.8125 
Q 54.203125 33.640625 53.71875 31.203125 
z
M 44 27.484375 
L 35.015625 27.484375 
Q 23.96875 27.484375 18.671875 24.53125 
Q 13.375 21.578125 13.375 15.375 
Q 13.375 11.078125 16.078125 8.640625 
Q 18.796875 6.203125 23.578125 6.203125 
Q 30.90625 6.203125 36.375 11.453125 
Q 41.84375 16.703125 43.609375 25.484375 
z
" id="DejaVuSans-Oblique-97"/>
     <path d="M 89.796875 33.015625 
L 83.40625 0 
L 74.421875 0 
L 80.71875 32.71875 
Q 81.109375 34.8125 81.296875 36.328125 
Q 81.5 37.84375 81.5 38.921875 
Q 81.5 43.3125 79.046875 45.75 
Q 76.609375 48.1875 72.21875 48.1875 
Q 65.671875 48.1875 60.546875 43.28125 
Q 55.421875 38.375 53.90625 30.515625 
L 47.90625 0 
L 38.921875 0 
L 45.3125 32.71875 
Q 45.703125 34.515625 45.890625 36.046875 
Q 46.09375 37.59375 46.09375 38.8125 
Q 46.09375 43.265625 43.65625 45.71875 
Q 41.21875 48.1875 36.921875 48.1875 
Q 30.28125 48.1875 25.140625 43.28125 
Q 20.015625 38.375 18.5 30.515625 
L 12.5 0 
L 3.515625 0 
L 14.203125 54.6875 
L 23.1875 54.6875 
L 21.484375 46.1875 
Q 25.140625 50.984375 30.046875 53.484375 
Q 34.96875 56 40.578125 56 
Q 46.53125 56 50.359375 52.875 
Q 54.203125 49.75 54.984375 44.1875 
Q 59.078125 49.953125 64.46875 52.96875 
Q 69.875 56 75.875 56 
Q 82.90625 56 86.734375 51.953125 
Q 90.578125 47.90625 90.578125 40.484375 
Q 90.578125 38.875 90.375 36.9375 
Q 90.1875 35.015625 89.796875 33.015625 
z
" id="DejaVuSans-Oblique-109"/>
     <path d="M 10.984375 1.515625 
L 10.984375 10.5 
Q 14.703125 8.734375 18.5 7.8125 
Q 22.3125 6.890625 25.984375 6.890625 
Q 35.75 6.890625 40.890625 13.453125 
Q 46.046875 20.015625 46.78125 33.40625 
Q 43.953125 29.203125 39.59375 26.953125 
Q 35.25 24.703125 29.984375 24.703125 
Q 19.046875 24.703125 12.671875 31.3125 
Q 6.296875 37.9375 6.296875 49.421875 
Q 6.296875 60.640625 12.9375 67.421875 
Q 19.578125 74.21875 30.609375 74.21875 
Q 43.265625 74.21875 49.921875 64.515625 
Q 56.59375 54.828125 56.59375 36.375 
Q 56.59375 19.140625 48.40625 8.859375 
Q 40.234375 -1.421875 26.421875 -1.421875 
Q 22.703125 -1.421875 18.890625 -0.6875 
Q 15.09375 0.046875 10.984375 1.515625 
z
M 30.609375 32.421875 
Q 37.25 32.421875 41.125 36.953125 
Q 45.015625 41.5 45.015625 49.421875 
Q 45.015625 57.28125 41.125 61.84375 
Q 37.25 66.40625 30.609375 66.40625 
Q 23.96875 66.40625 20.09375 61.84375 
Q 16.21875 57.28125 16.21875 49.421875 
Q 16.21875 41.5 20.09375 36.953125 
Q 23.96875 32.421875 30.609375 32.421875 
z
" id="DejaVuSans-57"/>
     <path d="M 10.6875 40.921875 
L 21 40.921875 
L 21 28.515625 
L 10.6875 28.515625 
z
" id="DejaVuSans-8901"/>
    </defs>
    <g transform="translate(106.4472 24.8988)scale(0.24 -0.24)">
     <use transform="translate(0 0.765625)" xlink:href="#DejaVuSans-Oblique-78"/>
     <use transform="translate(94.287109 0.765625)" xlink:href="#DejaVuSans-61"/>
     <use transform="translate(197.558594 0.765625)" xlink:href="#DejaVuSans-50"/>
     <use transform="translate(261.181641 0.765625)" xlink:href="#DejaVuSans-48"/>
     <use transform="translate(324.804688 0.765625)" xlink:href="#DejaVuSans-44"/>
     <use transform="translate(376.074219 0.765625)" xlink:href="#DejaVuSans-Oblique-981"/>
     <use transform="translate(461.523438 0.765625)" xlink:href="#DejaVuSans-61"/>
     <use transform="translate(564.794922 0.765625)" xlink:href="#DejaVuSans-48"/>
     <use transform="translate(628.417969 0.765625)" xlink:href="#DejaVuSans-46"/>
     <use transform="translate(660.205078 0.765625)" xlink:href="#DejaVuSans-54"/>
     <use transform="translate(723.828125 0.765625)" xlink:href="#DejaVuSans-53"/>
     <use transform="translate(787.451172 0.765625)" xlink:href="#DejaVuSans-44"/>
     <use transform="translate(838.720703 0.765625)" xlink:href="#DejaVuSans-Oblique-108"/>
     <use transform="translate(866.503906 -15.640625)scale(0.7)" xlink:href="#DejaVuSans-Oblique-112"/>
     <use transform="translate(913.671875 0.765625)" xlink:href="#DejaVuSans-47"/>
     <use transform="translate(947.363281 0.765625)" xlink:href="#DejaVuSans-Oblique-963"/>
     <use transform="translate(1030.224609 0.765625)" xlink:href="#DejaVuSans-61"/>
     <use transform="translate(1133.496094 0.765625)" xlink:href="#DejaVuSans-49"/>
     <use transform="translate(1197.119141 0.765625)" xlink:href="#DejaVuSans-48"/>
     <use transform="translate(1260.742188 0.765625)" xlink:href="#DejaVuSans-48"/>
     <use transform="translate(1324.365234 0.765625)" xlink:href="#DejaVuSans-32"/>
     <use transform="translate(1356.152344 0.765625)" xlink:href="#DejaVuSans-40"/>
     <use transform="translate(1395.166016 0.765625)" xlink:href="#DejaVuSans-Oblique-78"/>
     <use transform="translate(1469.970703 -15.640625)scale(0.7)" xlink:href="#DejaVuSans-Oblique-105"/>
     <use transform="translate(1489.418945 -15.640625)scale(0.7)" xlink:href="#DejaVuSans-Oblique-116"/>
     <use transform="translate(1516.865234 -15.640625)scale(0.7)" xlink:href="#DejaVuSans-Oblique-101"/>
     <use transform="translate(1559.931641 -15.640625)scale(0.7)" xlink:href="#DejaVuSans-Oblique-114"/>
     <use transform="translate(1610.927734 0.765625)" xlink:href="#DejaVuSans-61"/>
     <use transform="translate(1714.199219 0.765625)" xlink:href="#DejaVuSans-49"/>
     <use transform="translate(1777.822266 0.765625)" xlink:href="#DejaVuSans-48"/>
     <use transform="translate(1842.402344 39.046875)scale(0.7)" xlink:href="#DejaVuSans-56"/>
     <use transform="translate(1889.672852 0.765625)" xlink:href="#DejaVuSans-44"/>
     <use transform="translate(1940.942383 0.765625)" xlink:href="#DejaVuSans-Oblique-100"/>
     <use transform="translate(2004.418945 0.765625)" xlink:href="#DejaVuSans-Oblique-116"/>
     <use transform="translate(2063.110352 0.765625)" xlink:href="#DejaVuSans-61"/>
     <use transform="translate(2166.381836 0.765625)" xlink:href="#DejaVuSans-49"/>
     <use transform="translate(2230.004883 0.765625)" xlink:href="#DejaVuSans-48"/>
     <use transform="translate(2294.584961 39.046875)scale(0.7)" xlink:href="#DejaVuSans-8722"/>
     <use transform="translate(2353.237305 39.046875)scale(0.7)" xlink:href="#DejaVuSans-51"/>
     <use transform="translate(2400.507812 0.765625)" xlink:href="#DejaVuSans-44"/>
     <use transform="translate(2451.777344 0.765625)" xlink:href="#DejaVuSans-Oblique-78"/>
     <use transform="translate(2526.582031 -15.640625)scale(0.7)" xlink:href="#DejaVuSans-Oblique-115"/>
     <use transform="translate(2563.051758 -15.640625)scale(0.7)" xlink:href="#DejaVuSans-Oblique-97"/>
     <use transform="translate(2605.947266 -15.640625)scale(0.7)" xlink:href="#DejaVuSans-Oblique-109"/>
     <use transform="translate(2674.135742 -15.640625)scale(0.7)" xlink:href="#DejaVuSans-Oblique-112"/>
     <use transform="translate(2718.569336 -15.640625)scale(0.7)" xlink:href="#DejaVuSans-Oblique-108"/>
     <use transform="translate(2738.017578 -15.640625)scale(0.7)" xlink:href="#DejaVuSans-Oblique-101"/>
     <use transform="translate(2781.083984 -15.640625)scale(0.7)" xlink:href="#DejaVuSans-Oblique-115"/>
     <use transform="translate(2839.770508 0.765625)" xlink:href="#DejaVuSans-61"/>
     <use transform="translate(2943.041992 0.765625)" xlink:href="#DejaVuSans-57"/>
     <use transform="translate(3026.147461 0.765625)" xlink:href="#DejaVuSans-8901"/>
     <use transform="translate(3077.416992 0.765625)" xlink:href="#DejaVuSans-49"/>
     <use transform="translate(3141.040039 0.765625)" xlink:href="#DejaVuSans-48"/>
     <use transform="translate(3205.620117 39.046875)scale(0.7)" xlink:href="#DejaVuSans-50"/>
     <use transform="translate(3252.890625 0.765625)" xlink:href="#DejaVuSans-41"/>
    </g>
   </g>
   <g id="legend_1">
    <g id="patch_7">
     <path d="M 441.720361 195.864576 
L 616.480361 195.864576 
Q 620.480361 195.864576 620.480361 191.864576 
L 620.480361 167.368951 
Q 620.480361 163.368951 616.480361 163.368951 
L 441.720361 163.368951 
Q 437.720361 163.368951 437.720361 167.368951 
L 437.720361 191.864576 
Q 437.720361 195.864576 441.720361 195.864576 
z
" style="fill:#ffffff;opacity:0.8;stroke:#cccccc;stroke-linejoin:miter;"/>
    </g>
    <g id="line2d_26">
     <path d="M 445.720361 178.368951 
L 485.720361 178.368951 
" style="fill:none;stroke:#000000;stroke-dasharray:5.55,2.4;stroke-dashoffset:0;stroke-width:1.5;"/>
    </g>
    <g id="line2d_27"/>
    <g id="text_13">
     <!-- $&lt;...&gt; \propto e^{-1\tau/(l_p/\sigma)}$ -->
     <g transform="translate(501.720361 185.368951)scale(0.12 -0.12)">
      <use transform="translate(19.482422 0.529687)" xlink:href="#DejaVuSans-60"/>
      <use transform="translate(122.753906 0.529687)" xlink:href="#DejaVuSans-46"/>
      <use transform="translate(174.023438 0.529687)" xlink:href="#DejaVuSans-46"/>
      <use transform="translate(225.292969 0.529687)" xlink:href="#DejaVuSans-46"/>
      <use transform="translate(296.044922 0.529687)" xlink:href="#DejaVuSans-62"/>
      <use transform="translate(418.798828 0.529687)" xlink:href="#DejaVuSans-8733"/>
      <use transform="translate(509.716797 0.529687)" xlink:href="#DejaVuSans-Oblique-101"/>
      <use transform="translate(575.89013 38.810937)scale(0.7)" xlink:href="#DejaVuSans-8722"/>
      <use transform="translate(634.542474 38.810937)scale(0.7)" xlink:href="#DejaVuSans-49"/>
      <use transform="translate(679.078607 38.810937)scale(0.7)" xlink:href="#DejaVuSans-Oblique-964"/>
      <use transform="translate(721.222161 38.810937)scale(0.7)" xlink:href="#DejaVuSans-47"/>
      <use transform="translate(744.806146 38.810937)scale(0.7)" xlink:href="#DejaVuSans-40"/>
      <use transform="translate(772.115716 38.810937)scale(0.7)" xlink:href="#DejaVuSans-Oblique-108"/>
      <use transform="translate(791.563958 27.326562)scale(0.49)" xlink:href="#DejaVuSans-Oblique-112"/>
      <use transform="translate(824.581536 38.810937)scale(0.7)" xlink:href="#DejaVuSans-47"/>
      <use transform="translate(848.165521 38.810937)scale(0.7)" xlink:href="#DejaVuSans-Oblique-963"/>
      <use transform="translate(892.530755 38.810937)scale(0.7)" xlink:href="#DejaVuSans-41"/>
     </g>
    </g>
   </g>
   <g id="legend_2">
    <g id="patch_8">
     <path d="M 441.720361 195.864576 
L 616.480361 195.864576 
Q 620.480361 195.864576 620.480361 191.864576 
L 620.480361 167.368951 
Q 620.480361 163.368951 616.480361 163.368951 
L 441.720361 163.368951 
Q 437.720361 163.368951 437.720361 167.368951 
L 437.720361 191.864576 
Q 437.720361 195.864576 441.720361 195.864576 
z
" style="fill:#ffffff;opacity:0.8;stroke:#cccccc;stroke-linejoin:miter;"/>
    </g>
    <g id="line2d_28">
     <path d="M 445.720361 178.368951 
L 485.720361 178.368951 
" style="fill:none;stroke:#000000;stroke-dasharray:5.55,2.4;stroke-dashoffset:0;stroke-width:1.5;"/>
    </g>
    <g id="line2d_29"/>
    <g id="text_14">
     <!-- $&lt;...&gt; \propto e^{-1\tau/(l_p/\sigma)}$ -->
     <g transform="translate(501.720361 185.368951)scale(0.12 -0.12)">
      <use transform="translate(19.482422 0.529687)" xlink:href="#DejaVuSans-60"/>
      <use transform="translate(122.753906 0.529687)" xlink:href="#DejaVuSans-46"/>
      <use transform="translate(174.023438 0.529687)" xlink:href="#DejaVuSans-46"/>
      <use transform="translate(225.292969 0.529687)" xlink:href="#DejaVuSans-46"/>
      <use transform="translate(296.044922 0.529687)" xlink:href="#DejaVuSans-62"/>
      <use transform="translate(418.798828 0.529687)" xlink:href="#DejaVuSans-8733"/>
      <use transform="translate(509.716797 0.529687)" xlink:href="#DejaVuSans-Oblique-101"/>
      <use transform="translate(575.89013 38.810937)scale(0.7)" xlink:href="#DejaVuSans-8722"/>
      <use transform="translate(634.542474 38.810937)scale(0.7)" xlink:href="#DejaVuSans-49"/>
      <use transform="translate(679.078607 38.810937)scale(0.7)" xlink:href="#DejaVuSans-Oblique-964"/>
      <use transform="translate(721.222161 38.810937)scale(0.7)" xlink:href="#DejaVuSans-47"/>
      <use transform="translate(744.806146 38.810937)scale(0.7)" xlink:href="#DejaVuSans-40"/>
      <use transform="translate(772.115716 38.810937)scale(0.7)" xlink:href="#DejaVuSans-Oblique-108"/>
      <use transform="translate(791.563958 27.326562)scale(0.49)" xlink:href="#DejaVuSans-Oblique-112"/>
      <use transform="translate(824.581536 38.810937)scale(0.7)" xlink:href="#DejaVuSans-47"/>
      <use transform="translate(848.165521 38.810937)scale(0.7)" xlink:href="#DejaVuSans-Oblique-963"/>
      <use transform="translate(892.530755 38.810937)scale(0.7)" xlink:href="#DejaVuSans-41"/>
     </g>
    </g>
   </g>
   <g id="line2d_30">
    <path clip-path="url(#p48a635f6d0)" d="M 87.4152 108.602706 
L 915.5592 430.502279 
" style="fill:none;stroke:#000000;stroke-dasharray:5.55,2.4;stroke-dashoffset:0;stroke-width:1.5;"/>
   </g>
  </g>
 </g>
 <defs>
  <clipPath id="p48a635f6d0">
   <rect height="407.9664" width="828.144" x="87.4152" y="32.3388"/>
  </clipPath>
 </defs>
</svg>
