<?xml version="1.0" encoding="utf-8" standalone="no"?>
<!DOCTYPE svg PUBLIC "-//W3C//DTD SVG 1.1//EN"
  "http://www.w3.org/Graphics/SVG/1.1/DTD/svg11.dtd">
<!-- Created with matplotlib (https://matplotlib.org/) -->
<svg height="497.52pt" version="1.1" viewBox="0 0 920.16 497.52" width="920.16pt" xmlns="http://www.w3.org/2000/svg" xmlns:xlink="http://www.w3.org/1999/xlink">
 <defs>
  <style type="text/css">
*{stroke-linecap:butt;stroke-linejoin:round;}
  </style>
 </defs>
 <g id="figure_1">
  <g id="patch_1">
   <path d="M 0 497.52 
L 920.16 497.52 
L 920.16 0 
L 0 0 
z
" style="fill:#ffffff;"/>
  </g>
  <g id="axes_1">
   <g id="patch_2">
    <path d="M 82.8144 445.2804 
L 910.9584 445.2804 
L 910.9584 32.3388 
L 82.8144 32.3388 
z
" style="fill:#ffffff;"/>
   </g>
   <g id="PathCollection_1">
    <defs>
     <path d="M 0 3 
C 0.795609 3 1.55874 2.683901 2.12132 2.12132 
C 2.683901 1.55874 3 0.795609 3 0 
C 3 -0.795609 2.683901 -1.55874 2.12132 -2.12132 
C 1.55874 -2.683901 0.795609 -3 0 -3 
C -0.795609 -3 -1.55874 -2.683901 -2.12132 -2.12132 
C -2.683901 -1.55874 -3 -0.795609 -3 0 
C -3 0.795609 -2.683901 1.55874 -2.12132 2.12132 
C -1.55874 2.683901 -0.795609 3 0 3 
z
" id="md3a1f4c978" style="stroke:#0000ff;"/>
    </defs>
    <g clip-path="url(#pb7be36079b)">
     <use style="fill:#0000ff;stroke:#0000ff;" x="293.834723" xlink:href="#md3a1f4c978" y="286.636147"/>
     <use style="fill:#0000ff;stroke:#0000ff;" x="303.555851" xlink:href="#md3a1f4c978" y="263.992455"/>
     <use style="fill:#0000ff;stroke:#0000ff;" x="313.276979" xlink:href="#md3a1f4c978" y="277.238165"/>
     <use style="fill:#0000ff;stroke:#0000ff;" x="322.998107" xlink:href="#md3a1f4c978" y="258.95667"/>
     <use style="fill:#0000ff;stroke:#0000ff;" x="332.719235" xlink:href="#md3a1f4c978" y="216.090242"/>
     <use style="fill:#0000ff;stroke:#0000ff;" x="342.440362" xlink:href="#md3a1f4c978" y="211.415432"/>
     <use style="fill:#0000ff;stroke:#0000ff;" x="352.16149" xlink:href="#md3a1f4c978" y="194.72781"/>
     <use style="fill:#0000ff;stroke:#0000ff;" x="361.882618" xlink:href="#md3a1f4c978" y="168.970531"/>
     <use style="fill:#0000ff;stroke:#0000ff;" x="371.603746" xlink:href="#md3a1f4c978" y="161.7999"/>
     <use style="fill:#0000ff;stroke:#0000ff;" x="381.324874" xlink:href="#md3a1f4c978" y="144.311438"/>
     <use style="fill:#0000ff;stroke:#0000ff;" x="391.046002" xlink:href="#md3a1f4c978" y="134.497299"/>
     <use style="fill:#0000ff;stroke:#0000ff;" x="400.76713" xlink:href="#md3a1f4c978" y="117.665266"/>
     <use style="fill:#0000ff;stroke:#0000ff;" x="410.488257" xlink:href="#md3a1f4c978" y="110.885975"/>
     <use style="fill:#0000ff;stroke:#0000ff;" x="420.209385" xlink:href="#md3a1f4c978" y="101.113787"/>
     <use style="fill:#0000ff;stroke:#0000ff;" x="429.930513" xlink:href="#md3a1f4c978" y="89.994612"/>
     <use style="fill:#0000ff;stroke:#0000ff;" x="439.651641" xlink:href="#md3a1f4c978" y="81.570663"/>
     <use style="fill:#0000ff;stroke:#0000ff;" x="449.372769" xlink:href="#md3a1f4c978" y="74.138145"/>
     <use style="fill:#0000ff;stroke:#0000ff;" x="459.093897" xlink:href="#md3a1f4c978" y="68.236431"/>
     <use style="fill:#0000ff;stroke:#0000ff;" x="468.815025" xlink:href="#md3a1f4c978" y="64.53713"/>
     <use style="fill:#0000ff;stroke:#0000ff;" x="478.536153" xlink:href="#md3a1f4c978" y="59.411255"/>
     <use style="fill:#0000ff;stroke:#0000ff;" x="488.25728" xlink:href="#md3a1f4c978" y="56.238269"/>
     <use style="fill:#0000ff;stroke:#0000ff;" x="497.978408" xlink:href="#md3a1f4c978" y="54.818902"/>
     <use style="fill:#0000ff;stroke:#0000ff;" x="507.699536" xlink:href="#md3a1f4c978" y="54.558384"/>
     <use style="fill:#0000ff;stroke:#0000ff;" x="517.420664" xlink:href="#md3a1f4c978" y="54.433356"/>
     <use style="fill:#0000ff;stroke:#0000ff;" x="527.141792" xlink:href="#md3a1f4c978" y="55.891582"/>
     <use style="fill:#0000ff;stroke:#0000ff;" x="536.86292" xlink:href="#md3a1f4c978" y="59.111594"/>
     <use style="fill:#0000ff;stroke:#0000ff;" x="546.584048" xlink:href="#md3a1f4c978" y="64.452231"/>
     <use style="fill:#0000ff;stroke:#0000ff;" x="556.305175" xlink:href="#md3a1f4c978" y="69.441618"/>
     <use style="fill:#0000ff;stroke:#0000ff;" x="566.026303" xlink:href="#md3a1f4c978" y="74.946431"/>
     <use style="fill:#0000ff;stroke:#0000ff;" x="575.747431" xlink:href="#md3a1f4c978" y="83.530695"/>
     <use style="fill:#0000ff;stroke:#0000ff;" x="585.468559" xlink:href="#md3a1f4c978" y="91.016409"/>
     <use style="fill:#0000ff;stroke:#0000ff;" x="595.189687" xlink:href="#md3a1f4c978" y="99.234139"/>
     <use style="fill:#0000ff;stroke:#0000ff;" x="604.910815" xlink:href="#md3a1f4c978" y="109.751729"/>
     <use style="fill:#0000ff;stroke:#0000ff;" x="614.631943" xlink:href="#md3a1f4c978" y="118.668583"/>
     <use style="fill:#0000ff;stroke:#0000ff;" x="624.353071" xlink:href="#md3a1f4c978" y="132.009954"/>
     <use style="fill:#0000ff;stroke:#0000ff;" x="634.074198" xlink:href="#md3a1f4c978" y="142.944379"/>
     <use style="fill:#0000ff;stroke:#0000ff;" x="643.795326" xlink:href="#md3a1f4c978" y="155.331227"/>
     <use style="fill:#0000ff;stroke:#0000ff;" x="653.516454" xlink:href="#md3a1f4c978" y="174.808024"/>
     <use style="fill:#0000ff;stroke:#0000ff;" x="663.237582" xlink:href="#md3a1f4c978" y="178.171122"/>
     <use style="fill:#0000ff;stroke:#0000ff;" x="672.95871" xlink:href="#md3a1f4c978" y="188.77174"/>
     <use style="fill:#0000ff;stroke:#0000ff;" x="682.679838" xlink:href="#md3a1f4c978" y="208.301844"/>
     <use style="fill:#0000ff;stroke:#0000ff;" x="692.400966" xlink:href="#md3a1f4c978" y="229.970301"/>
     <use style="fill:#0000ff;stroke:#0000ff;" x="702.122093" xlink:href="#md3a1f4c978" y="254.594474"/>
     <use style="fill:#0000ff;stroke:#0000ff;" x="711.843221" xlink:href="#md3a1f4c978" y="244.191246"/>
     <use style="fill:#0000ff;stroke:#0000ff;" x="721.564349" xlink:href="#md3a1f4c978" y="269.948525"/>
     <use style="fill:#0000ff;stroke:#0000ff;" x="731.285477" xlink:href="#md3a1f4c978" y="269.948525"/>
     <use style="fill:#0000ff;stroke:#0000ff;" x="741.006605" xlink:href="#md3a1f4c978" y="299.881857"/>
     <use style="fill:#0000ff;stroke:#0000ff;" x="750.727733" xlink:href="#md3a1f4c978" y="322.525548"/>
     <use style="fill:#0000ff;stroke:#0000ff;" x="770.169989" xlink:href="#md3a1f4c978" y="322.525548"/>
    </g>
   </g>
   <g id="PathCollection_2">
    <defs>
     <path d="M 0 3 
C 0.795609 3 1.55874 2.683901 2.12132 2.12132 
C 2.683901 1.55874 3 0.795609 3 0 
C 3 -0.795609 2.683901 -1.55874 2.12132 -2.12132 
C 1.55874 -2.683901 0.795609 -3 0 -3 
C -0.795609 -3 -1.55874 -2.683901 -2.12132 -2.12132 
C -2.683901 -1.55874 -3 -0.795609 -3 0 
C -3 0.795609 -2.683901 1.55874 -2.12132 2.12132 
C -1.55874 2.683901 -0.795609 3 0 3 
z
" id="m8093c3a2d2" style="stroke:#ff0000;"/>
    </defs>
    <g clip-path="url(#pb7be36079b)">
     <use style="fill:#ff0000;stroke:#ff0000;" x="123.736548" xlink:href="#m8093c3a2d2" y="204.765711"/>
     <use style="fill:#ff0000;stroke:#ff0000;" x="140.320986" xlink:href="#m8093c3a2d2" y="204.765711"/>
     <use style="fill:#ff0000;stroke:#ff0000;" x="156.905424" xlink:href="#m8093c3a2d2" y="177.086234"/>
     <use style="fill:#ff0000;stroke:#ff0000;" x="173.489862" xlink:href="#m8093c3a2d2" y="195.36773"/>
     <use style="fill:#ff0000;stroke:#ff0000;" x="190.074299" xlink:href="#m8093c3a2d2" y="188.078089"/>
     <use style="fill:#ff0000;stroke:#ff0000;" x="206.658737" xlink:href="#m8093c3a2d2" y="152.188687"/>
     <use style="fill:#ff0000;stroke:#ff0000;" x="223.243175" xlink:href="#m8093c3a2d2" y="156.863497"/>
     <use style="fill:#ff0000;stroke:#ff0000;" x="239.827613" xlink:href="#m8093c3a2d2" y="134.219806"/>
     <use style="fill:#ff0000;stroke:#ff0000;" x="256.412051" xlink:href="#m8093c3a2d2" y="119.340358"/>
     <use style="fill:#ff0000;stroke:#ff0000;" x="272.996489" xlink:href="#m8093c3a2d2" y="128.47382"/>
     <use style="fill:#ff0000;stroke:#ff0000;" x="289.580927" xlink:href="#m8093c3a2d2" y="109.155159"/>
     <use style="fill:#ff0000;stroke:#ff0000;" x="306.165364" xlink:href="#m8093c3a2d2" y="105.830128"/>
     <use style="fill:#ff0000;stroke:#ff0000;" x="322.749802" xlink:href="#m8093c3a2d2" y="92.235025"/>
     <use style="fill:#ff0000;stroke:#ff0000;" x="339.33424" xlink:href="#m8093c3a2d2" y="81.642782"/>
     <use style="fill:#ff0000;stroke:#ff0000;" x="355.918678" xlink:href="#m8093c3a2d2" y="82.405493"/>
     <use style="fill:#ff0000;stroke:#ff0000;" x="372.503116" xlink:href="#m8093c3a2d2" y="74.859632"/>
     <use style="fill:#ff0000;stroke:#ff0000;" x="389.087554" xlink:href="#m8093c3a2d2" y="74.453814"/>
     <use style="fill:#ff0000;stroke:#ff0000;" x="405.671992" xlink:href="#m8093c3a2d2" y="67.244935"/>
     <use style="fill:#ff0000;stroke:#ff0000;" x="422.25643" xlink:href="#m8093c3a2d2" y="63.867777"/>
     <use style="fill:#ff0000;stroke:#ff0000;" x="438.840867" xlink:href="#m8093c3a2d2" y="63.146601"/>
     <use style="fill:#ff0000;stroke:#ff0000;" x="455.425305" xlink:href="#m8093c3a2d2" y="60.020047"/>
     <use style="fill:#ff0000;stroke:#ff0000;" x="472.009743" xlink:href="#m8093c3a2d2" y="59.37822"/>
     <use style="fill:#ff0000;stroke:#ff0000;" x="488.594181" xlink:href="#m8093c3a2d2" y="54.433356"/>
     <use style="fill:#ff0000;stroke:#ff0000;" x="505.178619" xlink:href="#m8093c3a2d2" y="56.578136"/>
     <use style="fill:#ff0000;stroke:#ff0000;" x="521.763057" xlink:href="#m8093c3a2d2" y="55.431775"/>
     <use style="fill:#ff0000;stroke:#ff0000;" x="538.347495" xlink:href="#m8093c3a2d2" y="58.999091"/>
     <use style="fill:#ff0000;stroke:#ff0000;" x="554.931933" xlink:href="#m8093c3a2d2" y="65.512734"/>
     <use style="fill:#ff0000;stroke:#ff0000;" x="571.51637" xlink:href="#m8093c3a2d2" y="61.073943"/>
     <use style="fill:#ff0000;stroke:#ff0000;" x="588.100808" xlink:href="#m8093c3a2d2" y="65.820925"/>
     <use style="fill:#ff0000;stroke:#ff0000;" x="604.685246" xlink:href="#m8093c3a2d2" y="66.446168"/>
     <use style="fill:#ff0000;stroke:#ff0000;" x="621.269684" xlink:href="#m8093c3a2d2" y="72.687549"/>
     <use style="fill:#ff0000;stroke:#ff0000;" x="637.854122" xlink:href="#m8093c3a2d2" y="77.627953"/>
     <use style="fill:#ff0000;stroke:#ff0000;" x="654.43856" xlink:href="#m8093c3a2d2" y="75.477971"/>
     <use style="fill:#ff0000;stroke:#ff0000;" x="671.022998" xlink:href="#m8093c3a2d2" y="85.647948"/>
     <use style="fill:#ff0000;stroke:#ff0000;" x="687.607436" xlink:href="#m8093c3a2d2" y="102.812482"/>
     <use style="fill:#ff0000;stroke:#ff0000;" x="704.191873" xlink:href="#m8093c3a2d2" y="103.296461"/>
     <use style="fill:#ff0000;stroke:#ff0000;" x="720.776311" xlink:href="#m8093c3a2d2" y="120.147015"/>
     <use style="fill:#ff0000;stroke:#ff0000;" x="737.360749" xlink:href="#m8093c3a2d2" y="124.50921"/>
     <use style="fill:#ff0000;stroke:#ff0000;" x="753.945187" xlink:href="#m8093c3a2d2" y="129.544996"/>
     <use style="fill:#ff0000;stroke:#ff0000;" x="770.529625" xlink:href="#m8093c3a2d2" y="138.224971"/>
     <use style="fill:#ff0000;stroke:#ff0000;" x="787.114063" xlink:href="#m8093c3a2d2" y="156.863497"/>
     <use style="fill:#ff0000;stroke:#ff0000;" x="803.698501" xlink:href="#m8093c3a2d2" y="159.478328"/>
     <use style="fill:#ff0000;stroke:#ff0000;" x="820.282938" xlink:href="#m8093c3a2d2" y="218.011421"/>
     <use style="fill:#ff0000;stroke:#ff0000;" x="836.867376" xlink:href="#m8093c3a2d2" y="182.122019"/>
     <use style="fill:#ff0000;stroke:#ff0000;" x="853.451814" xlink:href="#m8093c3a2d2" y="204.765711"/>
     <use style="fill:#ff0000;stroke:#ff0000;" x="870.036252" xlink:href="#m8093c3a2d2" y="218.011421"/>
    </g>
   </g>
   <g id="matplotlib.axis_1">
    <g id="xtick_1">
     <g id="line2d_1">
      <defs>
       <path d="M 0 0 
L 0 3.5 
" id="m2404b1c157" style="stroke:#000000;stroke-width:0.8;"/>
      </defs>
      <g>
       <use style="stroke:#000000;stroke-width:0.8;" x="189.252733" xlink:href="#m2404b1c157" y="445.2804"/>
      </g>
     </g>
     <g id="text_1">
      <!-- 0.2 -->
      <defs>
       <path d="M 31.78125 66.40625 
Q 24.171875 66.40625 20.328125 58.90625 
Q 16.5 51.421875 16.5 36.375 
Q 16.5 21.390625 20.328125 13.890625 
Q 24.171875 6.390625 31.78125 6.390625 
Q 39.453125 6.390625 43.28125 13.890625 
Q 47.125 21.390625 47.125 36.375 
Q 47.125 51.421875 43.28125 58.90625 
Q 39.453125 66.40625 31.78125 66.40625 
z
M 31.78125 74.21875 
Q 44.046875 74.21875 50.515625 64.515625 
Q 56.984375 54.828125 56.984375 36.375 
Q 56.984375 17.96875 50.515625 8.265625 
Q 44.046875 -1.421875 31.78125 -1.421875 
Q 19.53125 -1.421875 13.0625 8.265625 
Q 6.59375 17.96875 6.59375 36.375 
Q 6.59375 54.828125 13.0625 64.515625 
Q 19.53125 74.21875 31.78125 74.21875 
z
" id="DejaVuSans-48"/>
       <path d="M 10.6875 12.40625 
L 21 12.40625 
L 21 0 
L 10.6875 0 
z
" id="DejaVuSans-46"/>
       <path d="M 19.1875 8.296875 
L 53.609375 8.296875 
L 53.609375 0 
L 7.328125 0 
L 7.328125 8.296875 
Q 12.9375 14.109375 22.625 23.890625 
Q 32.328125 33.6875 34.8125 36.53125 
Q 39.546875 41.84375 41.421875 45.53125 
Q 43.3125 49.21875 43.3125 52.78125 
Q 43.3125 58.59375 39.234375 62.25 
Q 35.15625 65.921875 28.609375 65.921875 
Q 23.96875 65.921875 18.8125 64.3125 
Q 13.671875 62.703125 7.8125 59.421875 
L 7.8125 69.390625 
Q 13.765625 71.78125 18.9375 73 
Q 24.125 74.21875 28.421875 74.21875 
Q 39.75 74.21875 46.484375 68.546875 
Q 53.21875 62.890625 53.21875 53.421875 
Q 53.21875 48.921875 51.53125 44.890625 
Q 49.859375 40.875 45.40625 35.40625 
Q 44.1875 33.984375 37.640625 27.21875 
Q 31.109375 20.453125 19.1875 8.296875 
z
" id="DejaVuSans-50"/>
      </defs>
      <g transform="translate(173.349608 467.477275)scale(0.2 -0.2)">
       <use xlink:href="#DejaVuSans-48"/>
       <use x="63.623047" xlink:href="#DejaVuSans-46"/>
       <use x="95.410156" xlink:href="#DejaVuSans-50"/>
      </g>
     </g>
    </g>
    <g id="xtick_2">
     <g id="line2d_2">
      <g>
       <use style="stroke:#000000;stroke-width:0.8;" x="326.018681" xlink:href="#m2404b1c157" y="445.2804"/>
      </g>
     </g>
     <g id="text_2">
      <!-- 0.3 -->
      <defs>
       <path d="M 40.578125 39.3125 
Q 47.65625 37.796875 51.625 33 
Q 55.609375 28.21875 55.609375 21.1875 
Q 55.609375 10.40625 48.1875 4.484375 
Q 40.765625 -1.421875 27.09375 -1.421875 
Q 22.515625 -1.421875 17.65625 -0.515625 
Q 12.796875 0.390625 7.625 2.203125 
L 7.625 11.71875 
Q 11.71875 9.328125 16.59375 8.109375 
Q 21.484375 6.890625 26.8125 6.890625 
Q 36.078125 6.890625 40.9375 10.546875 
Q 45.796875 14.203125 45.796875 21.1875 
Q 45.796875 27.640625 41.28125 31.265625 
Q 36.765625 34.90625 28.71875 34.90625 
L 20.21875 34.90625 
L 20.21875 43.015625 
L 29.109375 43.015625 
Q 36.375 43.015625 40.234375 45.921875 
Q 44.09375 48.828125 44.09375 54.296875 
Q 44.09375 59.90625 40.109375 62.90625 
Q 36.140625 65.921875 28.71875 65.921875 
Q 24.65625 65.921875 20.015625 65.03125 
Q 15.375 64.15625 9.8125 62.3125 
L 9.8125 71.09375 
Q 15.4375 72.65625 20.34375 73.4375 
Q 25.25 74.21875 29.59375 74.21875 
Q 40.828125 74.21875 47.359375 69.109375 
Q 53.90625 64.015625 53.90625 55.328125 
Q 53.90625 49.265625 50.4375 45.09375 
Q 46.96875 40.921875 40.578125 39.3125 
z
" id="DejaVuSans-51"/>
      </defs>
      <g transform="translate(310.115556 467.477275)scale(0.2 -0.2)">
       <use xlink:href="#DejaVuSans-48"/>
       <use x="63.623047" xlink:href="#DejaVuSans-46"/>
       <use x="95.410156" xlink:href="#DejaVuSans-51"/>
      </g>
     </g>
    </g>
    <g id="xtick_3">
     <g id="line2d_3">
      <g>
       <use style="stroke:#000000;stroke-width:0.8;" x="462.784628" xlink:href="#m2404b1c157" y="445.2804"/>
      </g>
     </g>
     <g id="text_3">
      <!-- 0.4 -->
      <defs>
       <path d="M 37.796875 64.3125 
L 12.890625 25.390625 
L 37.796875 25.390625 
z
M 35.203125 72.90625 
L 47.609375 72.90625 
L 47.609375 25.390625 
L 58.015625 25.390625 
L 58.015625 17.1875 
L 47.609375 17.1875 
L 47.609375 0 
L 37.796875 0 
L 37.796875 17.1875 
L 4.890625 17.1875 
L 4.890625 26.703125 
z
" id="DejaVuSans-52"/>
      </defs>
      <g transform="translate(446.881503 467.477275)scale(0.2 -0.2)">
       <use xlink:href="#DejaVuSans-48"/>
       <use x="63.623047" xlink:href="#DejaVuSans-46"/>
       <use x="95.410156" xlink:href="#DejaVuSans-52"/>
      </g>
     </g>
    </g>
    <g id="xtick_4">
     <g id="line2d_4">
      <g>
       <use style="stroke:#000000;stroke-width:0.8;" x="599.550576" xlink:href="#m2404b1c157" y="445.2804"/>
      </g>
     </g>
     <g id="text_4">
      <!-- 0.5 -->
      <defs>
       <path d="M 10.796875 72.90625 
L 49.515625 72.90625 
L 49.515625 64.59375 
L 19.828125 64.59375 
L 19.828125 46.734375 
Q 21.96875 47.46875 24.109375 47.828125 
Q 26.265625 48.1875 28.421875 48.1875 
Q 40.625 48.1875 47.75 41.5 
Q 54.890625 34.8125 54.890625 23.390625 
Q 54.890625 11.625 47.5625 5.09375 
Q 40.234375 -1.421875 26.90625 -1.421875 
Q 22.3125 -1.421875 17.546875 -0.640625 
Q 12.796875 0.140625 7.71875 1.703125 
L 7.71875 11.625 
Q 12.109375 9.234375 16.796875 8.0625 
Q 21.484375 6.890625 26.703125 6.890625 
Q 35.15625 6.890625 40.078125 11.328125 
Q 45.015625 15.765625 45.015625 23.390625 
Q 45.015625 31 40.078125 35.4375 
Q 35.15625 39.890625 26.703125 39.890625 
Q 22.75 39.890625 18.8125 39.015625 
Q 14.890625 38.140625 10.796875 36.28125 
z
" id="DejaVuSans-53"/>
      </defs>
      <g transform="translate(583.647451 467.477275)scale(0.2 -0.2)">
       <use xlink:href="#DejaVuSans-48"/>
       <use x="63.623047" xlink:href="#DejaVuSans-46"/>
       <use x="95.410156" xlink:href="#DejaVuSans-53"/>
      </g>
     </g>
    </g>
    <g id="xtick_5">
     <g id="line2d_5">
      <g>
       <use style="stroke:#000000;stroke-width:0.8;" x="736.316524" xlink:href="#m2404b1c157" y="445.2804"/>
      </g>
     </g>
     <g id="text_5">
      <!-- 0.6 -->
      <defs>
       <path d="M 33.015625 40.375 
Q 26.375 40.375 22.484375 35.828125 
Q 18.609375 31.296875 18.609375 23.390625 
Q 18.609375 15.53125 22.484375 10.953125 
Q 26.375 6.390625 33.015625 6.390625 
Q 39.65625 6.390625 43.53125 10.953125 
Q 47.40625 15.53125 47.40625 23.390625 
Q 47.40625 31.296875 43.53125 35.828125 
Q 39.65625 40.375 33.015625 40.375 
z
M 52.59375 71.296875 
L 52.59375 62.3125 
Q 48.875 64.0625 45.09375 64.984375 
Q 41.3125 65.921875 37.59375 65.921875 
Q 27.828125 65.921875 22.671875 59.328125 
Q 17.53125 52.734375 16.796875 39.40625 
Q 19.671875 43.65625 24.015625 45.921875 
Q 28.375 48.1875 33.59375 48.1875 
Q 44.578125 48.1875 50.953125 41.515625 
Q 57.328125 34.859375 57.328125 23.390625 
Q 57.328125 12.15625 50.6875 5.359375 
Q 44.046875 -1.421875 33.015625 -1.421875 
Q 20.359375 -1.421875 13.671875 8.265625 
Q 6.984375 17.96875 6.984375 36.375 
Q 6.984375 53.65625 15.1875 63.9375 
Q 23.390625 74.21875 37.203125 74.21875 
Q 40.921875 74.21875 44.703125 73.484375 
Q 48.484375 72.75 52.59375 71.296875 
z
" id="DejaVuSans-54"/>
      </defs>
      <g transform="translate(720.413399 467.477275)scale(0.2 -0.2)">
       <use xlink:href="#DejaVuSans-48"/>
       <use x="63.623047" xlink:href="#DejaVuSans-46"/>
       <use x="95.410156" xlink:href="#DejaVuSans-54"/>
      </g>
     </g>
    </g>
    <g id="xtick_6">
     <g id="line2d_6">
      <g>
       <use style="stroke:#000000;stroke-width:0.8;" x="873.082472" xlink:href="#m2404b1c157" y="445.2804"/>
      </g>
     </g>
     <g id="text_6">
      <!-- 0.7 -->
      <defs>
       <path d="M 8.203125 72.90625 
L 55.078125 72.90625 
L 55.078125 68.703125 
L 28.609375 0 
L 18.3125 0 
L 43.21875 64.59375 
L 8.203125 64.59375 
z
" id="DejaVuSans-55"/>
      </defs>
      <g transform="translate(857.179347 467.477275)scale(0.2 -0.2)">
       <use xlink:href="#DejaVuSans-48"/>
       <use x="63.623047" xlink:href="#DejaVuSans-46"/>
       <use x="95.410156" xlink:href="#DejaVuSans-55"/>
      </g>
     </g>
    </g>
    <g id="text_7">
     <!-- $w$ -->
     <defs>
      <path d="M 8.5 54.6875 
L 17.390625 54.6875 
L 19.671875 10.6875 
L 40.09375 54.6875 
L 50.484375 54.6875 
L 53.515625 10.6875 
L 72.90625 54.6875 
L 81.890625 54.6875 
L 56.890625 0 
L 46.390625 0 
L 43.703125 45.3125 
L 22.796875 0 
L 12.203125 0 
z
" id="DejaVuSans-Oblique-119"/>
     </defs>
     <g transform="translate(488.6864 490.833525)scale(0.2 -0.2)">
      <use transform="translate(0 0.3125)" xlink:href="#DejaVuSans-Oblique-119"/>
     </g>
    </g>
   </g>
   <g id="matplotlib.axis_2">
    <g id="ytick_1">
     <g id="line2d_7">
      <defs>
       <path d="M 0 0 
L -3.5 0 
" id="m750aac536f" style="stroke:#000000;stroke-width:0.8;"/>
      </defs>
      <g>
       <use style="stroke:#000000;stroke-width:0.8;" x="82.8144" xlink:href="#m750aac536f" y="381.11277"/>
      </g>
     </g>
     <g id="text_8">
      <!-- −10 -->
      <defs>
       <path d="M 10.59375 35.5 
L 73.1875 35.5 
L 73.1875 27.203125 
L 10.59375 27.203125 
z
" id="DejaVuSans-8722"/>
       <path d="M 12.40625 8.296875 
L 28.515625 8.296875 
L 28.515625 63.921875 
L 10.984375 60.40625 
L 10.984375 69.390625 
L 28.421875 72.90625 
L 38.28125 72.90625 
L 38.28125 8.296875 
L 54.390625 8.296875 
L 54.390625 0 
L 12.40625 0 
z
" id="DejaVuSans-49"/>
      </defs>
      <g transform="translate(33.605025 388.711207)scale(0.2 -0.2)">
       <use xlink:href="#DejaVuSans-8722"/>
       <use x="83.789062" xlink:href="#DejaVuSans-49"/>
       <use x="147.412109" xlink:href="#DejaVuSans-48"/>
      </g>
     </g>
    </g>
    <g id="ytick_2">
     <g id="line2d_8">
      <g>
       <use style="stroke:#000000;stroke-width:0.8;" x="82.8144" xlink:href="#m750aac536f" y="315.776887"/>
      </g>
     </g>
     <g id="text_9">
      <!-- −8 -->
      <defs>
       <path d="M 31.78125 34.625 
Q 24.75 34.625 20.71875 30.859375 
Q 16.703125 27.09375 16.703125 20.515625 
Q 16.703125 13.921875 20.71875 10.15625 
Q 24.75 6.390625 31.78125 6.390625 
Q 38.8125 6.390625 42.859375 10.171875 
Q 46.921875 13.96875 46.921875 20.515625 
Q 46.921875 27.09375 42.890625 30.859375 
Q 38.875 34.625 31.78125 34.625 
z
M 21.921875 38.8125 
Q 15.578125 40.375 12.03125 44.71875 
Q 8.5 49.078125 8.5 55.328125 
Q 8.5 64.0625 14.71875 69.140625 
Q 20.953125 74.21875 31.78125 74.21875 
Q 42.671875 74.21875 48.875 69.140625 
Q 55.078125 64.0625 55.078125 55.328125 
Q 55.078125 49.078125 51.53125 44.71875 
Q 48 40.375 41.703125 38.8125 
Q 48.828125 37.15625 52.796875 32.3125 
Q 56.78125 27.484375 56.78125 20.515625 
Q 56.78125 9.90625 50.3125 4.234375 
Q 43.84375 -1.421875 31.78125 -1.421875 
Q 19.734375 -1.421875 13.25 4.234375 
Q 6.78125 9.90625 6.78125 20.515625 
Q 6.78125 27.484375 10.78125 32.3125 
Q 14.796875 37.15625 21.921875 38.8125 
z
M 18.3125 54.390625 
Q 18.3125 48.734375 21.84375 45.5625 
Q 25.390625 42.390625 31.78125 42.390625 
Q 38.140625 42.390625 41.71875 45.5625 
Q 45.3125 48.734375 45.3125 54.390625 
Q 45.3125 60.0625 41.71875 63.234375 
Q 38.140625 66.40625 31.78125 66.40625 
Q 25.390625 66.40625 21.84375 63.234375 
Q 18.3125 60.0625 18.3125 54.390625 
z
" id="DejaVuSans-56"/>
      </defs>
      <g transform="translate(46.330025 323.375324)scale(0.2 -0.2)">
       <use xlink:href="#DejaVuSans-8722"/>
       <use x="83.789062" xlink:href="#DejaVuSans-56"/>
      </g>
     </g>
    </g>
    <g id="ytick_3">
     <g id="line2d_9">
      <g>
       <use style="stroke:#000000;stroke-width:0.8;" x="82.8144" xlink:href="#m750aac536f" y="250.441004"/>
      </g>
     </g>
     <g id="text_10">
      <!-- −6 -->
      <g transform="translate(46.330025 258.039442)scale(0.2 -0.2)">
       <use xlink:href="#DejaVuSans-8722"/>
       <use x="83.789062" xlink:href="#DejaVuSans-54"/>
      </g>
     </g>
    </g>
    <g id="ytick_4">
     <g id="line2d_10">
      <g>
       <use style="stroke:#000000;stroke-width:0.8;" x="82.8144" xlink:href="#m750aac536f" y="185.105121"/>
      </g>
     </g>
     <g id="text_11">
      <!-- −4 -->
      <g transform="translate(46.330025 192.703559)scale(0.2 -0.2)">
       <use xlink:href="#DejaVuSans-8722"/>
       <use x="83.789062" xlink:href="#DejaVuSans-52"/>
      </g>
     </g>
    </g>
    <g id="ytick_5">
     <g id="line2d_11">
      <g>
       <use style="stroke:#000000;stroke-width:0.8;" x="82.8144" xlink:href="#m750aac536f" y="119.769239"/>
      </g>
     </g>
     <g id="text_12">
      <!-- −2 -->
      <g transform="translate(46.330025 127.367676)scale(0.2 -0.2)">
       <use xlink:href="#DejaVuSans-8722"/>
       <use x="83.789062" xlink:href="#DejaVuSans-50"/>
      </g>
     </g>
    </g>
    <g id="ytick_6">
     <g id="line2d_12">
      <g>
       <use style="stroke:#000000;stroke-width:0.8;" x="82.8144" xlink:href="#m750aac536f" y="54.433356"/>
      </g>
     </g>
     <g id="text_13">
      <!-- 0 -->
      <g transform="translate(63.0894 62.031794)scale(0.2 -0.2)">
       <use xlink:href="#DejaVuSans-48"/>
      </g>
     </g>
    </g>
    <g id="text_14">
     <!-- $\log P(w(\tau) = w)$ -->
     <defs>
      <path d="M 9.421875 75.984375 
L 18.40625 75.984375 
L 18.40625 0 
L 9.421875 0 
z
" id="DejaVuSans-108"/>
      <path d="M 30.609375 48.390625 
Q 23.390625 48.390625 19.1875 42.75 
Q 14.984375 37.109375 14.984375 27.296875 
Q 14.984375 17.484375 19.15625 11.84375 
Q 23.34375 6.203125 30.609375 6.203125 
Q 37.796875 6.203125 41.984375 11.859375 
Q 46.1875 17.53125 46.1875 27.296875 
Q 46.1875 37.015625 41.984375 42.703125 
Q 37.796875 48.390625 30.609375 48.390625 
z
M 30.609375 56 
Q 42.328125 56 49.015625 48.375 
Q 55.71875 40.765625 55.71875 27.296875 
Q 55.71875 13.875 49.015625 6.21875 
Q 42.328125 -1.421875 30.609375 -1.421875 
Q 18.84375 -1.421875 12.171875 6.21875 
Q 5.515625 13.875 5.515625 27.296875 
Q 5.515625 40.765625 12.171875 48.375 
Q 18.84375 56 30.609375 56 
z
" id="DejaVuSans-111"/>
      <path d="M 45.40625 27.984375 
Q 45.40625 37.75 41.375 43.109375 
Q 37.359375 48.484375 30.078125 48.484375 
Q 22.859375 48.484375 18.828125 43.109375 
Q 14.796875 37.75 14.796875 27.984375 
Q 14.796875 18.265625 18.828125 12.890625 
Q 22.859375 7.515625 30.078125 7.515625 
Q 37.359375 7.515625 41.375 12.890625 
Q 45.40625 18.265625 45.40625 27.984375 
z
M 54.390625 6.78125 
Q 54.390625 -7.171875 48.1875 -13.984375 
Q 42 -20.796875 29.203125 -20.796875 
Q 24.46875 -20.796875 20.265625 -20.09375 
Q 16.0625 -19.390625 12.109375 -17.921875 
L 12.109375 -9.1875 
Q 16.0625 -11.328125 19.921875 -12.34375 
Q 23.78125 -13.375 27.78125 -13.375 
Q 36.625 -13.375 41.015625 -8.765625 
Q 45.40625 -4.15625 45.40625 5.171875 
L 45.40625 9.625 
Q 42.625 4.78125 38.28125 2.390625 
Q 33.9375 0 27.875 0 
Q 17.828125 0 11.671875 7.65625 
Q 5.515625 15.328125 5.515625 27.984375 
Q 5.515625 40.671875 11.671875 48.328125 
Q 17.828125 56 27.875 56 
Q 33.9375 56 38.28125 53.609375 
Q 42.625 51.21875 45.40625 46.390625 
L 45.40625 54.6875 
L 54.390625 54.6875 
z
" id="DejaVuSans-103"/>
      <path d="M 16.890625 72.90625 
L 39.703125 72.90625 
Q 49.65625 72.90625 54.875 68.265625 
Q 60.109375 63.625 60.109375 54.6875 
Q 60.109375 42.671875 52.390625 35.984375 
Q 44.671875 29.296875 30.71875 29.296875 
L 18.3125 29.296875 
L 12.59375 0 
L 2.6875 0 
z
M 25.203125 64.796875 
L 19.921875 37.40625 
L 32.328125 37.40625 
Q 40.71875 37.40625 45.203125 41.703125 
Q 49.703125 46 49.703125 54 
Q 49.703125 59.125 46.65625 61.953125 
Q 43.609375 64.796875 38.09375 64.796875 
z
" id="DejaVuSans-Oblique-80"/>
      <path d="M 31 75.875 
Q 24.46875 64.65625 21.28125 53.65625 
Q 18.109375 42.671875 18.109375 31.390625 
Q 18.109375 20.125 21.3125 9.0625 
Q 24.515625 -2 31 -13.1875 
L 23.1875 -13.1875 
Q 15.875 -1.703125 12.234375 9.375 
Q 8.59375 20.453125 8.59375 31.390625 
Q 8.59375 42.28125 12.203125 53.3125 
Q 15.828125 64.359375 23.1875 75.875 
z
" id="DejaVuSans-40"/>
      <path d="M 32.859375 9.96875 
Q 34.1875 7.625 39.453125 7.625 
L 43.75 7.625 
L 42.28125 0 
L 36.921875 0 
Q 28.125 0 25 4.6875 
Q 21.921875 9.46875 23.96875 19.828125 
L 29 45.703125 
L 8.453125 45.703125 
L 10.203125 54.6875 
L 60.640625 54.6875 
L 58.890625 45.703125 
L 38.1875 45.703125 
L 33.015625 19.28125 
Q 31.640625 12.203125 32.859375 9.96875 
z
" id="DejaVuSans-Oblique-964"/>
      <path d="M 8.015625 75.875 
L 15.828125 75.875 
Q 23.140625 64.359375 26.78125 53.3125 
Q 30.421875 42.28125 30.421875 31.390625 
Q 30.421875 20.453125 26.78125 9.375 
Q 23.140625 -1.703125 15.828125 -13.1875 
L 8.015625 -13.1875 
Q 14.5 -2 17.703125 9.0625 
Q 20.90625 20.125 20.90625 31.390625 
Q 20.90625 42.671875 17.703125 53.65625 
Q 14.5 64.65625 8.015625 75.875 
z
" id="DejaVuSans-41"/>
      <path d="M 10.59375 45.40625 
L 73.1875 45.40625 
L 73.1875 37.203125 
L 10.59375 37.203125 
z
M 10.59375 25.484375 
L 73.1875 25.484375 
L 73.1875 17.1875 
L 10.59375 17.1875 
z
" id="DejaVuSans-61"/>
     </defs>
     <g transform="translate(25.405025 310.4096)rotate(-90)scale(0.2 -0.2)">
      <use transform="translate(0 0.015625)" xlink:href="#DejaVuSans-108"/>
      <use transform="translate(27.783203 0.015625)" xlink:href="#DejaVuSans-111"/>
      <use transform="translate(88.964844 0.015625)" xlink:href="#DejaVuSans-103"/>
      <use transform="translate(152.441406 0.015625)" xlink:href="#DejaVuSans-Oblique-80"/>
      <use transform="translate(212.744141 0.015625)" xlink:href="#DejaVuSans-40"/>
      <use transform="translate(251.757812 0.015625)" xlink:href="#DejaVuSans-Oblique-119"/>
      <use transform="translate(333.544922 0.015625)" xlink:href="#DejaVuSans-40"/>
      <use transform="translate(372.558594 0.015625)" xlink:href="#DejaVuSans-Oblique-964"/>
      <use transform="translate(432.763672 0.015625)" xlink:href="#DejaVuSans-41"/>
      <use transform="translate(491.259766 0.015625)" xlink:href="#DejaVuSans-61"/>
      <use transform="translate(594.53125 0.015625)" xlink:href="#DejaVuSans-Oblique-119"/>
      <use transform="translate(676.318359 0.015625)" xlink:href="#DejaVuSans-41"/>
     </g>
    </g>
   </g>
   <g id="line2d_13">
    <path clip-path="url(#pb7be36079b)" d="M 293.834723 324.004891 
L 303.555851 300.606334 
L 313.276979 278.269881 
L 322.998107 256.995532 
L 332.719235 236.783288 
L 342.440362 217.633148 
L 352.16149 199.545112 
L 361.882618 182.519181 
L 371.603746 166.555354 
L 381.324874 151.653632 
L 391.046002 137.814014 
L 400.76713 125.0365 
L 410.488257 113.321091 
L 420.209385 102.667786 
L 429.930513 93.076586 
L 439.651641 84.54749 
L 449.372769 77.080498 
L 459.093897 70.675611 
L 468.815025 65.332828 
L 478.536153 61.052149 
L 488.25728 57.833575 
L 497.978408 55.677105 
L 507.699536 54.58274 
L 517.420664 54.550479 
L 527.141792 55.580322 
L 536.86292 57.67227 
L 546.584048 60.826322 
L 556.305175 65.042478 
L 566.026303 70.320739 
L 575.747431 76.661104 
L 585.468559 84.063574 
L 595.189687 92.528148 
L 604.910815 102.054826 
L 614.631943 112.643609 
L 624.353071 124.294496 
L 634.074198 137.007487 
L 643.795326 150.782583 
L 653.516454 165.619783 
L 663.237582 181.519088 
L 672.95871 198.480497 
L 682.679838 216.50401 
L 692.400966 235.589628 
L 702.122093 255.73735 
L 711.843221 276.947176 
L 721.564349 299.219107 
L 731.285477 322.553143 
L 741.006605 346.949282 
L 750.727733 372.407526 
L 770.169989 426.510327 
" style="fill:none;stroke:#0000ff;stroke-linecap:square;stroke-width:1.5;"/>
   </g>
   <g id="line2d_14">
    <path clip-path="url(#pb7be36079b)" d="M 123.736548 231.729529 
L 140.320986 216.858901 
L 156.905424 202.639516 
L 173.489862 189.071375 
L 190.074299 176.154478 
L 206.658737 163.888824 
L 223.243175 152.274414 
L 239.827613 141.311248 
L 256.412051 130.999325 
L 272.996489 121.338646 
L 289.580927 112.329211 
L 306.165364 103.971019 
L 322.749802 96.264071 
L 339.33424 89.208367 
L 355.918678 82.803906 
L 372.503116 77.050689 
L 389.087554 71.948716 
L 405.671992 67.497986 
L 422.25643 63.6985 
L 438.840867 60.550258 
L 455.425305 58.053259 
L 472.009743 56.207504 
L 488.594181 55.012992 
L 505.178619 54.469725 
L 521.763057 54.577701 
L 538.347495 55.33692 
L 554.931933 56.747384 
L 571.51637 58.809091 
L 588.100808 61.522041 
L 604.685246 64.886235 
L 621.269684 68.901673 
L 637.854122 73.568355 
L 654.43856 78.88628 
L 671.022998 84.855449 
L 687.607436 91.475862 
L 704.191873 98.747518 
L 720.776311 106.670418 
L 737.360749 115.244561 
L 753.945187 124.469949 
L 770.529625 134.34658 
L 787.114063 144.874454 
L 803.698501 156.053572 
L 820.282938 167.883934 
L 836.867376 180.36554 
L 853.451814 193.498389 
L 870.036252 207.282482 
" style="fill:none;stroke:#ff0000;stroke-linecap:square;stroke-width:1.5;"/>
   </g>
   <g id="patch_3">
    <path d="M 82.8144 445.2804 
L 82.8144 32.3388 
" style="fill:none;stroke:#000000;stroke-linecap:square;stroke-linejoin:miter;stroke-width:0.8;"/>
   </g>
   <g id="patch_4">
    <path d="M 910.9584 445.2804 
L 910.9584 32.3388 
" style="fill:none;stroke:#000000;stroke-linecap:square;stroke-linejoin:miter;stroke-width:0.8;"/>
   </g>
   <g id="patch_5">
    <path d="M 82.8144 445.2804 
L 910.9584 445.2804 
" style="fill:none;stroke:#000000;stroke-linecap:square;stroke-linejoin:miter;stroke-width:0.8;"/>
   </g>
   <g id="patch_6">
    <path d="M 82.8144 32.3388 
L 910.9584 32.3388 
" style="fill:none;stroke:#000000;stroke-linecap:square;stroke-linejoin:miter;stroke-width:0.8;"/>
   </g>
   <g id="text_15">
    <!-- $N=20, \phi=0.65, l_p/\sigma=20, N_{bins} = 50$ -->
    <defs>
     <path d="M 16.890625 72.90625 
L 30.171875 72.90625 
L 50.296875 10.40625 
L 62.5 72.90625 
L 72.125 72.90625 
L 57.90625 0 
L 44.578125 0 
L 24.515625 62.890625 
L 12.3125 0 
L 2.6875 0 
z
" id="DejaVuSans-Oblique-78"/>
     <path d="M 11.71875 12.40625 
L 22.015625 12.40625 
L 22.015625 4 
L 14.015625 -11.625 
L 7.71875 -11.625 
L 11.71875 4 
z
" id="DejaVuSans-44"/>
     <path d="M 46.734375 75.984375 
L 42.78125 55.8125 
Q 52.546875 55.8125 57.5625 48.34375 
Q 62.75 40.71875 60.15625 27.296875 
Q 57.515625 13.875 49.359375 6.25 
Q 41.453125 -1.21875 31.6875 -1.21875 
L 27.875 -20.796875 
L 18.953125 -20.796875 
L 22.75 -1.21875 
Q 13.03125 -1.21875 7.953125 6.25 
Q 2.78125 13.875 5.421875 27.296875 
Q 8.015625 40.71875 16.15625 48.34375 
Q 24.125 55.8125 33.84375 55.8125 
L 37.796875 75.984375 
z
M 33.25 6.78125 
Q 38.765625 6.78125 43.5 11.8125 
Q 48.6875 17.4375 50.6875 27.296875 
Q 52.640625 37.0625 49.515625 42.78125 
Q 46.734375 47.796875 41.21875 47.796875 
z
M 24.3125 6.78125 
L 32.28125 47.796875 
Q 26.8125 47.796875 22.078125 42.78125 
Q 16.75 37.0625 14.890625 27.296875 
Q 13.03125 17.4375 16.0625 11.8125 
Q 18.796875 6.78125 24.3125 6.78125 
z
" id="DejaVuSans-Oblique-981"/>
     <path d="M 18.3125 75.984375 
L 27.296875 75.984375 
L 12.5 0 
L 3.515625 0 
z
" id="DejaVuSans-Oblique-108"/>
     <path d="M 49.609375 33.6875 
Q 49.609375 40.875 46.484375 44.671875 
Q 43.359375 48.484375 37.5 48.484375 
Q 33.5 48.484375 29.859375 46.4375 
Q 26.21875 44.390625 23.390625 40.484375 
Q 20.609375 36.625 18.9375 31.15625 
Q 17.28125 25.6875 17.28125 20.3125 
Q 17.28125 13.484375 20.40625 9.796875 
Q 23.53125 6.109375 29.296875 6.109375 
Q 33.546875 6.109375 37.1875 8.109375 
Q 40.828125 10.109375 43.40625 13.921875 
Q 46.1875 17.921875 47.890625 23.34375 
Q 49.609375 28.765625 49.609375 33.6875 
z
M 21.78125 46.390625 
Q 25.390625 51.125 30.296875 53.5625 
Q 35.203125 56 41.21875 56 
Q 49.609375 56 54.25 50.5 
Q 58.890625 45.015625 58.890625 35.109375 
Q 58.890625 27 56 19.65625 
Q 53.125 12.3125 47.703125 6.5 
Q 44.09375 2.640625 39.546875 0.609375 
Q 35.015625 -1.421875 29.984375 -1.421875 
Q 24.171875 -1.421875 20.21875 1 
Q 16.265625 3.421875 14.3125 8.203125 
L 8.6875 -20.796875 
L -0.296875 -20.796875 
L 14.40625 54.6875 
L 23.390625 54.6875 
z
" id="DejaVuSans-Oblique-112"/>
     <path d="M 25.390625 72.90625 
L 33.6875 72.90625 
L 8.296875 -9.28125 
L 0 -9.28125 
z
" id="DejaVuSans-47"/>
     <path d="M 34.671875 47.5625 
Q 27.25 47.5625 22.21875 42.1875 
Q 16.890625 36.578125 15.140625 27.296875 
Q 13.1875 17.484375 16.3125 11.8125 
Q 19.390625 6.203125 26.65625 6.203125 
Q 33.84375 6.203125 39.109375 11.859375 
Q 44.4375 17.53125 46.34375 27.296875 
Q 48.046875 36.234375 45.015625 42.1875 
Q 42.1875 47.5625 34.671875 47.5625 
z
M 36.078125 54.734375 
L 65.921875 54.6875 
L 64.15625 45.703125 
L 54.109375 45.703125 
Q 57.90625 38.09375 55.859375 27.296875 
Q 53.21875 13.875 45.0625 6.25 
Q 36.859375 -1.421875 25.140625 -1.421875 
Q 13.375 -1.421875 8.203125 6.25 
Q 3.03125 13.875 5.671875 27.296875 
Q 8.25 40.765625 16.40625 48.390625 
Q 23.1875 54.734375 36.078125 54.734375 
z
" id="DejaVuSans-Oblique-963"/>
     <path d="M 49.515625 33.40625 
Q 49.515625 40.484375 46.265625 44.484375 
Q 43.015625 48.484375 37.3125 48.484375 
Q 33.15625 48.484375 29.515625 46.453125 
Q 25.875 44.4375 23.1875 40.578125 
Q 20.359375 36.53125 18.71875 31.171875 
Q 17.09375 25.828125 17.09375 20.515625 
Q 17.09375 13.765625 20.28125 9.9375 
Q 23.484375 6.109375 29.109375 6.109375 
Q 33.34375 6.109375 36.953125 8.078125 
Q 40.578125 10.0625 43.3125 13.921875 
Q 46.09375 17.921875 47.796875 23.234375 
Q 49.515625 28.5625 49.515625 33.40625 
z
M 21.578125 46.390625 
Q 24.90625 50.875 29.90625 53.4375 
Q 34.90625 56 40.375 56 
Q 48.78125 56 53.734375 50.328125 
Q 58.6875 44.671875 58.6875 35.015625 
Q 58.6875 27.09375 55.78125 19.671875 
Q 52.875 12.25 47.515625 6.5 
Q 44 2.6875 39.40625 0.625 
Q 34.8125 -1.421875 29.78125 -1.421875 
Q 24.46875 -1.421875 20.5625 1.015625 
Q 16.65625 3.46875 14.203125 8.296875 
L 12.59375 0 
L 3.609375 0 
L 18.40625 75.984375 
L 27.390625 75.984375 
z
" id="DejaVuSans-Oblique-98"/>
     <path d="M 18.3125 75.984375 
L 27.296875 75.984375 
L 25.09375 64.59375 
L 16.109375 64.59375 
z
M 14.203125 54.6875 
L 23.1875 54.6875 
L 12.5 0 
L 3.515625 0 
z
" id="DejaVuSans-Oblique-105"/>
     <path d="M 55.71875 33.015625 
L 49.3125 0 
L 40.28125 0 
L 46.6875 32.671875 
Q 47.125 34.96875 47.359375 36.71875 
Q 47.609375 38.484375 47.609375 39.5 
Q 47.609375 43.609375 45.015625 45.890625 
Q 42.4375 48.1875 37.796875 48.1875 
Q 30.5625 48.1875 25.34375 43.375 
Q 20.125 38.578125 18.5 30.328125 
L 12.5 0 
L 3.515625 0 
L 14.109375 54.6875 
L 23.09375 54.6875 
L 21.296875 46.09375 
Q 25.046875 50.828125 30.3125 53.40625 
Q 35.59375 56 41.40625 56 
Q 48.640625 56 52.609375 52.09375 
Q 56.59375 48.1875 56.59375 41.109375 
Q 56.59375 39.359375 56.375 37.359375 
Q 56.15625 35.359375 55.71875 33.015625 
z
" id="DejaVuSans-Oblique-110"/>
     <path d="M 50 53.078125 
L 48.296875 44.578125 
Q 44.734375 46.53125 40.765625 47.5 
Q 36.8125 48.484375 32.625 48.484375 
Q 25.53125 48.484375 21.453125 46.0625 
Q 17.390625 43.65625 17.390625 39.5 
Q 17.390625 34.671875 26.859375 32.078125 
Q 27.59375 31.890625 27.9375 31.78125 
L 30.8125 30.90625 
Q 39.796875 28.421875 42.796875 25.6875 
Q 45.796875 22.953125 45.796875 18.21875 
Q 45.796875 9.515625 38.890625 4.046875 
Q 31.984375 -1.421875 20.796875 -1.421875 
Q 16.453125 -1.421875 11.671875 -0.578125 
Q 6.890625 0.25 1.125 2 
L 2.875 11.28125 
Q 7.8125 8.734375 12.59375 7.421875 
Q 17.390625 6.109375 21.78125 6.109375 
Q 28.375 6.109375 32.5 8.9375 
Q 36.625 11.765625 36.625 16.109375 
Q 36.625 20.796875 25.78125 23.6875 
L 24.859375 23.921875 
L 21.78125 24.703125 
Q 14.9375 26.515625 11.765625 29.46875 
Q 8.59375 32.421875 8.59375 37.015625 
Q 8.59375 45.75 15.15625 50.875 
Q 21.734375 56 33.015625 56 
Q 37.453125 56 41.671875 55.265625 
Q 45.90625 54.546875 50 53.078125 
z
" id="DejaVuSans-Oblique-115"/>
    </defs>
    <g transform="translate(282.6864 24.8988)scale(0.24 -0.24)">
     <use transform="translate(0 0.015625)" xlink:href="#DejaVuSans-Oblique-78"/>
     <use transform="translate(94.287109 0.015625)" xlink:href="#DejaVuSans-61"/>
     <use transform="translate(197.558594 0.015625)" xlink:href="#DejaVuSans-50"/>
     <use transform="translate(261.181641 0.015625)" xlink:href="#DejaVuSans-48"/>
     <use transform="translate(324.804688 0.015625)" xlink:href="#DejaVuSans-44"/>
     <use transform="translate(376.074219 0.015625)" xlink:href="#DejaVuSans-Oblique-981"/>
     <use transform="translate(461.523438 0.015625)" xlink:href="#DejaVuSans-61"/>
     <use transform="translate(564.794922 0.015625)" xlink:href="#DejaVuSans-48"/>
     <use transform="translate(628.417969 0.015625)" xlink:href="#DejaVuSans-46"/>
     <use transform="translate(660.205078 0.015625)" xlink:href="#DejaVuSans-54"/>
     <use transform="translate(723.828125 0.015625)" xlink:href="#DejaVuSans-53"/>
     <use transform="translate(787.451172 0.015625)" xlink:href="#DejaVuSans-44"/>
     <use transform="translate(838.720703 0.015625)" xlink:href="#DejaVuSans-Oblique-108"/>
     <use transform="translate(866.503906 -16.390625)scale(0.7)" xlink:href="#DejaVuSans-Oblique-112"/>
     <use transform="translate(913.671875 0.015625)" xlink:href="#DejaVuSans-47"/>
     <use transform="translate(947.363281 0.015625)" xlink:href="#DejaVuSans-Oblique-963"/>
     <use transform="translate(1030.224609 0.015625)" xlink:href="#DejaVuSans-61"/>
     <use transform="translate(1133.496094 0.015625)" xlink:href="#DejaVuSans-50"/>
     <use transform="translate(1197.119141 0.015625)" xlink:href="#DejaVuSans-48"/>
     <use transform="translate(1260.742188 0.015625)" xlink:href="#DejaVuSans-44"/>
     <use transform="translate(1312.011719 0.015625)" xlink:href="#DejaVuSans-Oblique-78"/>
     <use transform="translate(1386.816406 -16.390625)scale(0.7)" xlink:href="#DejaVuSans-Oblique-98"/>
     <use transform="translate(1431.25 -16.390625)scale(0.7)" xlink:href="#DejaVuSans-Oblique-105"/>
     <use transform="translate(1450.698242 -16.390625)scale(0.7)" xlink:href="#DejaVuSans-Oblique-110"/>
     <use transform="translate(1495.063477 -16.390625)scale(0.7)" xlink:href="#DejaVuSans-Oblique-115"/>
     <use transform="translate(1553.75 0.015625)" xlink:href="#DejaVuSans-61"/>
     <use transform="translate(1657.021484 0.015625)" xlink:href="#DejaVuSans-53"/>
     <use transform="translate(1720.644531 0.015625)" xlink:href="#DejaVuSans-48"/>
    </g>
   </g>
   <g id="legend_1">
    <g id="patch_7">
     <path d="M 96.8144 435.2804 
L 361.0144 435.2804 
Q 365.0144 435.2804 365.0144 431.2804 
L 365.0144 370.4804 
Q 365.0144 366.4804 361.0144 366.4804 
L 96.8144 366.4804 
Q 92.8144 366.4804 92.8144 370.4804 
L 92.8144 431.2804 
Q 92.8144 435.2804 96.8144 435.2804 
z
" style="fill:#ffffff;opacity:0.8;stroke:#cccccc;stroke-linejoin:miter;"/>
    </g>
    <g id="PathCollection_3">
     <g>
      <use style="fill:#0000ff;stroke:#0000ff;" x="120.8144" xlink:href="#md3a1f4c978" y="384.4304"/>
     </g>
    </g>
    <g id="text_16">
     <!-- $\tau/(l_p/\sigma) = 1.00e+00$ -->
     <defs>
      <path d="M 48.09375 32.234375 
Q 48.25 33.015625 48.3125 33.84375 
Q 48.390625 34.671875 48.390625 35.5 
Q 48.390625 41.453125 44.890625 44.921875 
Q 41.40625 48.390625 35.40625 48.390625 
Q 28.71875 48.390625 23.578125 44.15625 
Q 18.453125 39.9375 15.828125 32.171875 
z
M 55.90625 25.203125 
L 14.109375 25.203125 
Q 13.8125 23.34375 13.71875 22.265625 
Q 13.625 21.1875 13.625 20.40625 
Q 13.625 13.625 17.796875 9.90625 
Q 21.96875 6.203125 29.59375 6.203125 
Q 35.453125 6.203125 40.671875 7.515625 
Q 45.90625 8.84375 50.390625 11.375 
L 48.6875 2.484375 
Q 43.84375 0.53125 38.6875 -0.4375 
Q 33.546875 -1.421875 28.21875 -1.421875 
Q 16.84375 -1.421875 10.71875 4.015625 
Q 4.59375 9.46875 4.59375 19.484375 
Q 4.59375 28.03125 7.640625 35.375 
Q 10.6875 42.71875 16.609375 48.484375 
Q 20.40625 52.09375 25.65625 54.046875 
Q 30.90625 56 36.8125 56 
Q 46.09375 56 51.578125 50.4375 
Q 57.078125 44.875 57.078125 35.5 
Q 57.078125 33.25 56.78125 30.6875 
Q 56.5 28.125 55.90625 25.203125 
z
" id="DejaVuSans-Oblique-101"/>
      <path d="M 46 62.703125 
L 46 35.5 
L 73.1875 35.5 
L 73.1875 27.203125 
L 46 27.203125 
L 46 0 
L 37.796875 0 
L 37.796875 27.203125 
L 10.59375 27.203125 
L 10.59375 35.5 
L 37.796875 35.5 
L 37.796875 62.703125 
z
" id="DejaVuSans-43"/>
     </defs>
     <g transform="translate(156.8144 389.6804)scale(0.2 -0.2)">
      <use transform="translate(0 0.015625)" xlink:href="#DejaVuSans-Oblique-964"/>
      <use transform="translate(60.205078 0.015625)" xlink:href="#DejaVuSans-47"/>
      <use transform="translate(93.896484 0.015625)" xlink:href="#DejaVuSans-40"/>
      <use transform="translate(132.910156 0.015625)" xlink:href="#DejaVuSans-Oblique-108"/>
      <use transform="translate(160.693359 -16.390625)scale(0.7)" xlink:href="#DejaVuSans-Oblique-112"/>
      <use transform="translate(207.861328 0.015625)" xlink:href="#DejaVuSans-47"/>
      <use transform="translate(241.552734 0.015625)" xlink:href="#DejaVuSans-Oblique-963"/>
      <use transform="translate(304.931641 0.015625)" xlink:href="#DejaVuSans-41"/>
      <use transform="translate(363.427734 0.015625)" xlink:href="#DejaVuSans-61"/>
      <use transform="translate(466.699219 0.015625)" xlink:href="#DejaVuSans-49"/>
      <use transform="translate(530.322266 0.015625)" xlink:href="#DejaVuSans-46"/>
      <use transform="translate(562.109375 0.015625)" xlink:href="#DejaVuSans-48"/>
      <use transform="translate(625.732422 0.015625)" xlink:href="#DejaVuSans-48"/>
      <use transform="translate(689.355469 0.015625)" xlink:href="#DejaVuSans-Oblique-101"/>
      <use transform="translate(770.361328 0.015625)" xlink:href="#DejaVuSans-43"/>
      <use transform="translate(873.632812 0.015625)" xlink:href="#DejaVuSans-48"/>
      <use transform="translate(937.255859 0.015625)" xlink:href="#DejaVuSans-48"/>
     </g>
    </g>
    <g id="PathCollection_4">
     <g>
      <use style="fill:#ff0000;stroke:#ff0000;" x="120.8144" xlink:href="#m8093c3a2d2" y="415.8304"/>
     </g>
    </g>
    <g id="text_17">
     <!-- $\tau/(l_p/\sigma) = 1.00e-01$ -->
     <g transform="translate(156.8144 421.0804)scale(0.2 -0.2)">
      <use transform="translate(0 0.015625)" xlink:href="#DejaVuSans-Oblique-964"/>
      <use transform="translate(60.205078 0.015625)" xlink:href="#DejaVuSans-47"/>
      <use transform="translate(93.896484 0.015625)" xlink:href="#DejaVuSans-40"/>
      <use transform="translate(132.910156 0.015625)" xlink:href="#DejaVuSans-Oblique-108"/>
      <use transform="translate(160.693359 -16.390625)scale(0.7)" xlink:href="#DejaVuSans-Oblique-112"/>
      <use transform="translate(207.861328 0.015625)" xlink:href="#DejaVuSans-47"/>
      <use transform="translate(241.552734 0.015625)" xlink:href="#DejaVuSans-Oblique-963"/>
      <use transform="translate(304.931641 0.015625)" xlink:href="#DejaVuSans-41"/>
      <use transform="translate(363.427734 0.015625)" xlink:href="#DejaVuSans-61"/>
      <use transform="translate(466.699219 0.015625)" xlink:href="#DejaVuSans-49"/>
      <use transform="translate(530.322266 0.015625)" xlink:href="#DejaVuSans-46"/>
      <use transform="translate(562.109375 0.015625)" xlink:href="#DejaVuSans-48"/>
      <use transform="translate(625.732422 0.015625)" xlink:href="#DejaVuSans-48"/>
      <use transform="translate(689.355469 0.015625)" xlink:href="#DejaVuSans-Oblique-101"/>
      <use transform="translate(770.361328 0.015625)" xlink:href="#DejaVuSans-8722"/>
      <use transform="translate(873.632812 0.015625)" xlink:href="#DejaVuSans-48"/>
      <use transform="translate(937.255859 0.015625)" xlink:href="#DejaVuSans-49"/>
     </g>
    </g>
   </g>
  </g>
 </g>
 <defs>
  <clipPath id="pb7be36079b">
   <rect height="412.9416" width="828.144" x="82.8144" y="32.3388"/>
  </clipPath>
 </defs>
</svg>
