<?xml version="1.0" encoding="utf-8" standalone="no"?>
<!DOCTYPE svg PUBLIC "-//W3C//DTD SVG 1.1//EN"
  "http://www.w3.org/Graphics/SVG/1.1/DTD/svg11.dtd">
<!-- Created with matplotlib (https://matplotlib.org/) -->
<svg height="497.52pt" version="1.1" viewBox="0 0 920.16 497.52" width="920.16pt" xmlns="http://www.w3.org/2000/svg" xmlns:xlink="http://www.w3.org/1999/xlink">
 <defs>
  <style type="text/css">
*{stroke-linecap:butt;stroke-linejoin:round;}
  </style>
 </defs>
 <g id="figure_1">
  <g id="patch_1">
   <path d="M 0 497.52 
L 920.16 497.52 
L 920.16 0 
L 0 0 
z
" style="fill:#ffffff;"/>
  </g>
  <g id="axes_1">
   <g id="patch_2">
    <path d="M 78.2136 442.7928 
L 897.156 442.7928 
L 897.156 24.876 
L 78.2136 24.876 
z
" style="fill:#ffffff;"/>
   </g>
   <g id="PathCollection_1">
    <defs>
     <path d="M 0 3 
C 0.795609 3 1.55874 2.683901 2.12132 2.12132 
C 2.683901 1.55874 3 0.795609 3 0 
C 3 -0.795609 2.683901 -1.55874 2.12132 -2.12132 
C 1.55874 -2.683901 0.795609 -3 0 -3 
C -0.795609 -3 -1.55874 -2.683901 -2.12132 -2.12132 
C -2.683901 -1.55874 -3 -0.795609 -3 0 
C -3 0.795609 -2.683901 1.55874 -2.12132 2.12132 
C -1.55874 2.683901 -0.795609 3 0 3 
z
" id="me7c68afaa8" style="stroke:#0080ff;"/>
    </defs>
    <g clip-path="url(#p37e72f8c83)">
     <use style="fill:#0080ff;stroke:#0080ff;" x="115.66509" xlink:href="#me7c68afaa8" y="208.742894"/>
     <use style="fill:#0080ff;stroke:#0080ff;" x="131.495716" xlink:href="#me7c68afaa8" y="197.46133"/>
     <use style="fill:#0080ff;stroke:#0080ff;" x="147.326342" xlink:href="#me7c68afaa8" y="173.886318"/>
     <use style="fill:#0080ff;stroke:#0080ff;" x="163.156968" xlink:href="#me7c68afaa8" y="156.66232"/>
     <use style="fill:#0080ff;stroke:#0080ff;" x="178.987594" xlink:href="#me7c68afaa8" y="139.603449"/>
     <use style="fill:#0080ff;stroke:#0080ff;" x="194.81822" xlink:href="#me7c68afaa8" y="131.599052"/>
     <use style="fill:#0080ff;stroke:#0080ff;" x="210.648846" xlink:href="#me7c68afaa8" y="116.028437"/>
     <use style="fill:#0080ff;stroke:#0080ff;" x="226.479472" xlink:href="#me7c68afaa8" y="105.080096"/>
     <use style="fill:#0080ff;stroke:#0080ff;" x="242.310098" xlink:href="#me7c68afaa8" y="96.992019"/>
     <use style="fill:#0080ff;stroke:#0080ff;" x="258.140724" xlink:href="#me7c68afaa8" y="88.06316"/>
     <use style="fill:#0080ff;stroke:#0080ff;" x="273.97135" xlink:href="#me7c68afaa8" y="81.457236"/>
     <use style="fill:#0080ff;stroke:#0080ff;" x="289.801976" xlink:href="#me7c68afaa8" y="72.362951"/>
     <use style="fill:#0080ff;stroke:#0080ff;" x="305.632602" xlink:href="#me7c68afaa8" y="66.257885"/>
     <use style="fill:#0080ff;stroke:#0080ff;" x="321.463227" xlink:href="#me7c68afaa8" y="61.885901"/>
     <use style="fill:#0080ff;stroke:#0080ff;" x="337.293853" xlink:href="#me7c68afaa8" y="57.194184"/>
     <use style="fill:#0080ff;stroke:#0080ff;" x="353.124479" xlink:href="#me7c68afaa8" y="54.509607"/>
     <use style="fill:#0080ff;stroke:#0080ff;" x="368.955105" xlink:href="#me7c68afaa8" y="50.794262"/>
     <use style="fill:#0080ff;stroke:#0080ff;" x="384.785731" xlink:href="#me7c68afaa8" y="51.813205"/>
     <use style="fill:#0080ff;stroke:#0080ff;" x="400.616357" xlink:href="#me7c68afaa8" y="48.290027"/>
     <use style="fill:#0080ff;stroke:#0080ff;" x="416.446983" xlink:href="#me7c68afaa8" y="47.26415"/>
     <use style="fill:#0080ff;stroke:#0080ff;" x="432.277609" xlink:href="#me7c68afaa8" y="49.719491"/>
     <use style="fill:#0080ff;stroke:#0080ff;" x="448.108235" xlink:href="#me7c68afaa8" y="50.462741"/>
     <use style="fill:#0080ff;stroke:#0080ff;" x="463.938861" xlink:href="#me7c68afaa8" y="53.232576"/>
     <use style="fill:#0080ff;stroke:#0080ff;" x="479.769487" xlink:href="#me7c68afaa8" y="56.777563"/>
     <use style="fill:#0080ff;stroke:#0080ff;" x="495.600113" xlink:href="#me7c68afaa8" y="57.861743"/>
     <use style="fill:#0080ff;stroke:#0080ff;" x="511.430739" xlink:href="#me7c68afaa8" y="62.459607"/>
     <use style="fill:#0080ff;stroke:#0080ff;" x="527.261365" xlink:href="#me7c68afaa8" y="69.79582"/>
     <use style="fill:#0080ff;stroke:#0080ff;" x="543.091991" xlink:href="#me7c68afaa8" y="73.959398"/>
     <use style="fill:#0080ff;stroke:#0080ff;" x="558.922617" xlink:href="#me7c68afaa8" y="83.387123"/>
     <use style="fill:#0080ff;stroke:#0080ff;" x="574.753243" xlink:href="#me7c68afaa8" y="86.645082"/>
     <use style="fill:#0080ff;stroke:#0080ff;" x="590.583869" xlink:href="#me7c68afaa8" y="94.362928"/>
     <use style="fill:#0080ff;stroke:#0080ff;" x="606.414495" xlink:href="#me7c68afaa8" y="101.031528"/>
     <use style="fill:#0080ff;stroke:#0080ff;" x="622.245121" xlink:href="#me7c68afaa8" y="110.626287"/>
     <use style="fill:#0080ff;stroke:#0080ff;" x="638.075747" xlink:href="#me7c68afaa8" y="111.038498"/>
     <use style="fill:#0080ff;stroke:#0080ff;" x="653.906373" xlink:href="#me7c68afaa8" y="127.559543"/>
     <use style="fill:#0080ff;stroke:#0080ff;" x="669.736998" xlink:href="#me7c68afaa8" y="140.787617"/>
     <use style="fill:#0080ff;stroke:#0080ff;" x="685.567624" xlink:href="#me7c68afaa8" y="158.889409"/>
     <use style="fill:#0080ff;stroke:#0080ff;" x="701.39825" xlink:href="#me7c68afaa8" y="149.198208"/>
     <use style="fill:#0080ff;stroke:#0080ff;" x="717.228876" xlink:href="#me7c68afaa8" y="163.96228"/>
     <use style="fill:#0080ff;stroke:#0080ff;" x="733.059502" xlink:href="#me7c68afaa8" y="208.742894"/>
     <use style="fill:#0080ff;stroke:#0080ff;" x="748.890128" xlink:href="#me7c68afaa8" y="170.170973"/>
     <use style="fill:#0080ff;stroke:#0080ff;" x="764.720754" xlink:href="#me7c68afaa8" y="208.742894"/>
     <use style="fill:#0080ff;stroke:#0080ff;" x="796.382006" xlink:href="#me7c68afaa8" y="228.028854"/>
     <use style="fill:#0080ff;stroke:#0080ff;" x="812.212632" xlink:href="#me7c68afaa8" y="197.46133"/>
     <use style="fill:#0080ff;stroke:#0080ff;" x="859.70451" xlink:href="#me7c68afaa8" y="228.028854"/>
    </g>
   </g>
   <g id="PathCollection_2">
    <defs>
     <path d="M 0 3 
C 0.795609 3 1.55874 2.683901 2.12132 2.12132 
C 2.683901 1.55874 3 0.795609 3 0 
C 3 -0.795609 2.683901 -1.55874 2.12132 -2.12132 
C 1.55874 -2.683901 0.795609 -3 0 -3 
C -0.795609 -3 -1.55874 -2.683901 -2.12132 -2.12132 
C -2.683901 -1.55874 -3 -0.795609 -3 0 
C -3 0.795609 -2.683901 1.55874 -2.12132 2.12132 
C -1.55874 2.683901 -0.795609 3 0 3 
z
" id="m8f5ba35e2d" style="stroke:#7dff7a;"/>
    </defs>
    <g clip-path="url(#p37e72f8c83)">
     <use style="fill:#7dff7a;stroke:#7dff7a;" x="153.946443" xlink:href="#m8f5ba35e2d" y="183.540466"/>
     <use style="fill:#7dff7a;stroke:#7dff7a;" x="168.169318" xlink:href="#m8f5ba35e2d" y="164.254506"/>
     <use style="fill:#7dff7a;stroke:#7dff7a;" x="182.392193" xlink:href="#m8f5ba35e2d" y="152.972942"/>
     <use style="fill:#7dff7a;stroke:#7dff7a;" x="196.615069" xlink:href="#m8f5ba35e2d" y="152.972942"/>
     <use style="fill:#7dff7a;stroke:#7dff7a;" x="210.837944" xlink:href="#m8f5ba35e2d" y="152.972942"/>
     <use style="fill:#7dff7a;stroke:#7dff7a;" x="225.060819" xlink:href="#m8f5ba35e2d" y="103.119458"/>
     <use style="fill:#7dff7a;stroke:#7dff7a;" x="239.283694" xlink:href="#m8f5ba35e2d" y="98.830406"/>
     <use style="fill:#7dff7a;stroke:#7dff7a;" x="253.50657" xlink:href="#m8f5ba35e2d" y="98.830406"/>
     <use style="fill:#7dff7a;stroke:#7dff7a;" x="267.729445" xlink:href="#m8f5ba35e2d" y="85.423859"/>
     <use style="fill:#7dff7a;stroke:#7dff7a;" x="281.95232" xlink:href="#m8f5ba35e2d" y="80.901972"/>
     <use style="fill:#7dff7a;stroke:#7dff7a;" x="296.175195" xlink:href="#m8f5ba35e2d" y="71.04758"/>
     <use style="fill:#7dff7a;stroke:#7dff7a;" x="310.39807" xlink:href="#m8f5ba35e2d" y="70.563677"/>
     <use style="fill:#7dff7a;stroke:#7dff7a;" x="324.620946" xlink:href="#m8f5ba35e2d" y="58.649728"/>
     <use style="fill:#7dff7a;stroke:#7dff7a;" x="338.843821" xlink:href="#m8f5ba35e2d" y="55.407319"/>
     <use style="fill:#7dff7a;stroke:#7dff7a;" x="353.066696" xlink:href="#m8f5ba35e2d" y="56.254808"/>
     <use style="fill:#7dff7a;stroke:#7dff7a;" x="367.289571" xlink:href="#m8f5ba35e2d" y="50.802085"/>
     <use style="fill:#7dff7a;stroke:#7dff7a;" x="381.512447" xlink:href="#m8f5ba35e2d" y="50.103544"/>
     <use style="fill:#7dff7a;stroke:#7dff7a;" x="395.735322" xlink:href="#m8f5ba35e2d" y="52.755431"/>
     <use style="fill:#7dff7a;stroke:#7dff7a;" x="409.958197" xlink:href="#m8f5ba35e2d" y="48.107359"/>
     <use style="fill:#7dff7a;stroke:#7dff7a;" x="424.181072" xlink:href="#m8f5ba35e2d" y="47.26415"/>
     <use style="fill:#7dff7a;stroke:#7dff7a;" x="438.403948" xlink:href="#m8f5ba35e2d" y="54.584882"/>
     <use style="fill:#7dff7a;stroke:#7dff7a;" x="452.626823" xlink:href="#m8f5ba35e2d" y="58.338844"/>
     <use style="fill:#7dff7a;stroke:#7dff7a;" x="466.849698" xlink:href="#m8f5ba35e2d" y="58.964124"/>
     <use style="fill:#7dff7a;stroke:#7dff7a;" x="481.072573" xlink:href="#m8f5ba35e2d" y="59.929206"/>
     <use style="fill:#7dff7a;stroke:#7dff7a;" x="495.295448" xlink:href="#m8f5ba35e2d" y="62.320448"/>
     <use style="fill:#7dff7a;stroke:#7dff7a;" x="509.518324" xlink:href="#m8f5ba35e2d" y="62.679469"/>
     <use style="fill:#7dff7a;stroke:#7dff7a;" x="523.741199" xlink:href="#m8f5ba35e2d" y="69.620408"/>
     <use style="fill:#7dff7a;stroke:#7dff7a;" x="537.964074" xlink:href="#m8f5ba35e2d" y="74.142296"/>
     <use style="fill:#7dff7a;stroke:#7dff7a;" x="552.186949" xlink:href="#m8f5ba35e2d" y="80.901972"/>
     <use style="fill:#7dff7a;stroke:#7dff7a;" x="566.409825" xlink:href="#m8f5ba35e2d" y="90.826009"/>
     <use style="fill:#7dff7a;stroke:#7dff7a;" x="580.6327" xlink:href="#m8f5ba35e2d" y="92.887972"/>
     <use style="fill:#7dff7a;stroke:#7dff7a;" x="594.855575" xlink:href="#m8f5ba35e2d" y="91.837894"/>
     <use style="fill:#7dff7a;stroke:#7dff7a;" x="609.07845" xlink:href="#m8f5ba35e2d" y="101.615104"/>
     <use style="fill:#7dff7a;stroke:#7dff7a;" x="623.301325" xlink:href="#m8f5ba35e2d" y="96.299229"/>
     <use style="fill:#7dff7a;stroke:#7dff7a;" x="637.524201" xlink:href="#m8f5ba35e2d" y="122.405418"/>
     <use style="fill:#7dff7a;stroke:#7dff7a;" x="651.747076" xlink:href="#m8f5ba35e2d" y="133.686982"/>
     <use style="fill:#7dff7a;stroke:#7dff7a;" x="665.969951" xlink:href="#m8f5ba35e2d" y="129.39793"/>
     <use style="fill:#7dff7a;stroke:#7dff7a;" x="680.192826" xlink:href="#m8f5ba35e2d" y="144.968545"/>
     <use style="fill:#7dff7a;stroke:#7dff7a;" x="694.415702" xlink:href="#m8f5ba35e2d" y="144.968545"/>
     <use style="fill:#7dff7a;stroke:#7dff7a;" x="708.638577" xlink:href="#m8f5ba35e2d" y="152.972942"/>
     <use style="fill:#7dff7a;stroke:#7dff7a;" x="722.861452" xlink:href="#m8f5ba35e2d" y="164.254506"/>
     <use style="fill:#7dff7a;stroke:#7dff7a;" x="737.084327" xlink:href="#m8f5ba35e2d" y="183.540466"/>
     <use style="fill:#7dff7a;stroke:#7dff7a;" x="765.530078" xlink:href="#m8f5ba35e2d" y="152.972942"/>
     <use style="fill:#7dff7a;stroke:#7dff7a;" x="779.752953" xlink:href="#m8f5ba35e2d" y="183.540466"/>
     <use style="fill:#7dff7a;stroke:#7dff7a;" x="793.975828" xlink:href="#m8f5ba35e2d" y="164.254506"/>
     <use style="fill:#7dff7a;stroke:#7dff7a;" x="808.198703" xlink:href="#m8f5ba35e2d" y="183.540466"/>
     <use style="fill:#7dff7a;stroke:#7dff7a;" x="822.421579" xlink:href="#m8f5ba35e2d" y="183.540466"/>
    </g>
   </g>
   <g id="PathCollection_3">
    <defs>
     <path d="M 0 3 
C 0.795609 3 1.55874 2.683901 2.12132 2.12132 
C 2.683901 1.55874 3 0.795609 3 0 
C 3 -0.795609 2.683901 -1.55874 2.12132 -2.12132 
C 1.55874 -2.683901 0.795609 -3 0 -3 
C -0.795609 -3 -1.55874 -2.683901 -2.12132 -2.12132 
C -2.683901 -1.55874 -3 -0.795609 -3 0 
C -3 0.795609 -2.683901 1.55874 -2.12132 2.12132 
C -1.55874 2.683901 -0.795609 3 0 3 
z
" id="m1cd5e3f783" style="stroke:#ff9400;"/>
    </defs>
    <g clip-path="url(#p37e72f8c83)">
     <use style="fill:#ff9400;stroke:#ff9400;" x="201.891111" xlink:href="#m1cd5e3f783" y="117.165937"/>
     <use style="fill:#ff9400;stroke:#ff9400;" x="217.428773" xlink:href="#m1cd5e3f783" y="109.16154"/>
     <use style="fill:#ff9400;stroke:#ff9400;" x="232.966435" xlink:href="#m1cd5e3f783" y="117.165937"/>
     <use style="fill:#ff9400;stroke:#ff9400;" x="248.504097" xlink:href="#m1cd5e3f783" y="89.87558"/>
     <use style="fill:#ff9400;stroke:#ff9400;" x="264.041759" xlink:href="#m1cd5e3f783" y="102.952848"/>
     <use style="fill:#ff9400;stroke:#ff9400;" x="279.579422" xlink:href="#m1cd5e3f783" y="83.666887"/>
     <use style="fill:#ff9400;stroke:#ff9400;" x="295.117084" xlink:href="#m1cd5e3f783" y="64.380927"/>
     <use style="fill:#ff9400;stroke:#ff9400;" x="310.654746" xlink:href="#m1cd5e3f783" y="67.312453"/>
     <use style="fill:#ff9400;stroke:#ff9400;" x="326.192408" xlink:href="#m1cd5e3f783" y="63.023401"/>
     <use style="fill:#ff9400;stroke:#ff9400;" x="341.73007" xlink:href="#m1cd5e3f783" y="55.019004"/>
     <use style="fill:#ff9400;stroke:#ff9400;" x="357.267732" xlink:href="#m1cd5e3f783" y="53.099363"/>
     <use style="fill:#ff9400;stroke:#ff9400;" x="372.805394" xlink:href="#m1cd5e3f783" y="48.810312"/>
     <use style="fill:#ff9400;stroke:#ff9400;" x="388.343056" xlink:href="#m1cd5e3f783" y="47.26415"/>
     <use style="fill:#ff9400;stroke:#ff9400;" x="403.880718" xlink:href="#m1cd5e3f783" y="51.303659"/>
     <use style="fill:#ff9400;stroke:#ff9400;" x="419.41838" xlink:href="#m1cd5e3f783" y="49.616854"/>
     <use style="fill:#ff9400;stroke:#ff9400;" x="434.956042" xlink:href="#m1cd5e3f783" y="65.808099"/>
     <use style="fill:#ff9400;stroke:#ff9400;" x="450.493704" xlink:href="#m1cd5e3f783" y="58.172235"/>
     <use style="fill:#ff9400;stroke:#ff9400;" x="466.031366" xlink:href="#m1cd5e3f783" y="52.187027"/>
     <use style="fill:#ff9400;stroke:#ff9400;" x="481.569028" xlink:href="#m1cd5e3f783" y="64.380927"/>
     <use style="fill:#ff9400;stroke:#ff9400;" x="497.10669" xlink:href="#m1cd5e3f783" y="61.72904"/>
     <use style="fill:#ff9400;stroke:#ff9400;" x="512.644352" xlink:href="#m1cd5e3f783" y="70.58962"/>
     <use style="fill:#ff9400;stroke:#ff9400;" x="528.182014" xlink:href="#m1cd5e3f783" y="70.58962"/>
     <use style="fill:#ff9400;stroke:#ff9400;" x="543.719676" xlink:href="#m1cd5e3f783" y="76.366927"/>
     <use style="fill:#ff9400;stroke:#ff9400;" x="559.257338" xlink:href="#m1cd5e3f783" y="72.385324"/>
     <use style="fill:#ff9400;stroke:#ff9400;" x="574.795" xlink:href="#m1cd5e3f783" y="89.87558"/>
     <use style="fill:#ff9400;stroke:#ff9400;" x="590.332662" xlink:href="#m1cd5e3f783" y="109.16154"/>
     <use style="fill:#ff9400;stroke:#ff9400;" x="605.870324" xlink:href="#m1cd5e3f783" y="128.447501"/>
     <use style="fill:#ff9400;stroke:#ff9400;" x="621.407987" xlink:href="#m1cd5e3f783" y="102.952848"/>
     <use style="fill:#ff9400;stroke:#ff9400;" x="636.945649" xlink:href="#m1cd5e3f783" y="128.447501"/>
     <use style="fill:#ff9400;stroke:#ff9400;" x="652.483311" xlink:href="#m1cd5e3f783" y="97.879977"/>
     <use style="fill:#ff9400;stroke:#ff9400;" x="668.020973" xlink:href="#m1cd5e3f783" y="128.447501"/>
     <use style="fill:#ff9400;stroke:#ff9400;" x="683.558635" xlink:href="#m1cd5e3f783" y="117.165937"/>
     <use style="fill:#ff9400;stroke:#ff9400;" x="714.633959" xlink:href="#m1cd5e3f783" y="147.733461"/>
     <use style="fill:#ff9400;stroke:#ff9400;" x="854.472917" xlink:href="#m1cd5e3f783" y="147.733461"/>
    </g>
   </g>
   <g id="matplotlib.axis_1">
    <g id="xtick_1">
     <g id="line2d_1">
      <defs>
       <path d="M 0 0 
L 0 3.5 
" id="m8bc57f41b4" style="stroke:#000000;stroke-width:0.8;"/>
      </defs>
      <g>
       <use style="stroke:#000000;stroke-width:0.8;" x="145.177379" xlink:href="#m8bc57f41b4" y="442.7928"/>
      </g>
     </g>
     <g id="text_1">
      <!-- −7.5 -->
      <defs>
       <path d="M 10.59375 35.5 
L 73.1875 35.5 
L 73.1875 27.203125 
L 10.59375 27.203125 
z
" id="DejaVuSans-8722"/>
       <path d="M 8.203125 72.90625 
L 55.078125 72.90625 
L 55.078125 68.703125 
L 28.609375 0 
L 18.3125 0 
L 43.21875 64.59375 
L 8.203125 64.59375 
z
" id="DejaVuSans-55"/>
       <path d="M 10.6875 12.40625 
L 21 12.40625 
L 21 0 
L 10.6875 0 
z
" id="DejaVuSans-46"/>
       <path d="M 10.796875 72.90625 
L 49.515625 72.90625 
L 49.515625 64.59375 
L 19.828125 64.59375 
L 19.828125 46.734375 
Q 21.96875 47.46875 24.109375 47.828125 
Q 26.265625 48.1875 28.421875 48.1875 
Q 40.625 48.1875 47.75 41.5 
Q 54.890625 34.8125 54.890625 23.390625 
Q 54.890625 11.625 47.5625 5.09375 
Q 40.234375 -1.421875 26.90625 -1.421875 
Q 22.3125 -1.421875 17.546875 -0.640625 
Q 12.796875 0.140625 7.71875 1.703125 
L 7.71875 11.625 
Q 12.109375 9.234375 16.796875 8.0625 
Q 21.484375 6.890625 26.703125 6.890625 
Q 35.15625 6.890625 40.078125 11.328125 
Q 45.015625 15.765625 45.015625 23.390625 
Q 45.015625 31 40.078125 35.4375 
Q 35.15625 39.890625 26.703125 39.890625 
Q 22.75 39.890625 18.8125 39.015625 
Q 14.890625 38.140625 10.796875 36.28125 
z
" id="DejaVuSans-53"/>
      </defs>
      <g transform="translate(120.894566 464.989675)scale(0.2 -0.2)">
       <use xlink:href="#DejaVuSans-8722"/>
       <use x="83.789062" xlink:href="#DejaVuSans-55"/>
       <use x="147.412109" xlink:href="#DejaVuSans-46"/>
       <use x="179.199219" xlink:href="#DejaVuSans-53"/>
      </g>
     </g>
    </g>
    <g id="xtick_2">
     <g id="line2d_2">
      <g>
       <use style="stroke:#000000;stroke-width:0.8;" x="238.936074" xlink:href="#m8bc57f41b4" y="442.7928"/>
      </g>
     </g>
     <g id="text_2">
      <!-- −5.0 -->
      <defs>
       <path d="M 31.78125 66.40625 
Q 24.171875 66.40625 20.328125 58.90625 
Q 16.5 51.421875 16.5 36.375 
Q 16.5 21.390625 20.328125 13.890625 
Q 24.171875 6.390625 31.78125 6.390625 
Q 39.453125 6.390625 43.28125 13.890625 
Q 47.125 21.390625 47.125 36.375 
Q 47.125 51.421875 43.28125 58.90625 
Q 39.453125 66.40625 31.78125 66.40625 
z
M 31.78125 74.21875 
Q 44.046875 74.21875 50.515625 64.515625 
Q 56.984375 54.828125 56.984375 36.375 
Q 56.984375 17.96875 50.515625 8.265625 
Q 44.046875 -1.421875 31.78125 -1.421875 
Q 19.53125 -1.421875 13.0625 8.265625 
Q 6.59375 17.96875 6.59375 36.375 
Q 6.59375 54.828125 13.0625 64.515625 
Q 19.53125 74.21875 31.78125 74.21875 
z
" id="DejaVuSans-48"/>
      </defs>
      <g transform="translate(214.653261 464.989675)scale(0.2 -0.2)">
       <use xlink:href="#DejaVuSans-8722"/>
       <use x="83.789062" xlink:href="#DejaVuSans-53"/>
       <use x="147.412109" xlink:href="#DejaVuSans-46"/>
       <use x="179.199219" xlink:href="#DejaVuSans-48"/>
      </g>
     </g>
    </g>
    <g id="xtick_3">
     <g id="line2d_3">
      <g>
       <use style="stroke:#000000;stroke-width:0.8;" x="332.694769" xlink:href="#m8bc57f41b4" y="442.7928"/>
      </g>
     </g>
     <g id="text_3">
      <!-- −2.5 -->
      <defs>
       <path d="M 19.1875 8.296875 
L 53.609375 8.296875 
L 53.609375 0 
L 7.328125 0 
L 7.328125 8.296875 
Q 12.9375 14.109375 22.625 23.890625 
Q 32.328125 33.6875 34.8125 36.53125 
Q 39.546875 41.84375 41.421875 45.53125 
Q 43.3125 49.21875 43.3125 52.78125 
Q 43.3125 58.59375 39.234375 62.25 
Q 35.15625 65.921875 28.609375 65.921875 
Q 23.96875 65.921875 18.8125 64.3125 
Q 13.671875 62.703125 7.8125 59.421875 
L 7.8125 69.390625 
Q 13.765625 71.78125 18.9375 73 
Q 24.125 74.21875 28.421875 74.21875 
Q 39.75 74.21875 46.484375 68.546875 
Q 53.21875 62.890625 53.21875 53.421875 
Q 53.21875 48.921875 51.53125 44.890625 
Q 49.859375 40.875 45.40625 35.40625 
Q 44.1875 33.984375 37.640625 27.21875 
Q 31.109375 20.453125 19.1875 8.296875 
z
" id="DejaVuSans-50"/>
      </defs>
      <g transform="translate(308.411956 464.989675)scale(0.2 -0.2)">
       <use xlink:href="#DejaVuSans-8722"/>
       <use x="83.789062" xlink:href="#DejaVuSans-50"/>
       <use x="147.412109" xlink:href="#DejaVuSans-46"/>
       <use x="179.199219" xlink:href="#DejaVuSans-53"/>
      </g>
     </g>
    </g>
    <g id="xtick_4">
     <g id="line2d_4">
      <g>
       <use style="stroke:#000000;stroke-width:0.8;" x="426.453464" xlink:href="#m8bc57f41b4" y="442.7928"/>
      </g>
     </g>
     <g id="text_4">
      <!-- 0.0 -->
      <g transform="translate(410.550339 464.989675)scale(0.2 -0.2)">
       <use xlink:href="#DejaVuSans-48"/>
       <use x="63.623047" xlink:href="#DejaVuSans-46"/>
       <use x="95.410156" xlink:href="#DejaVuSans-48"/>
      </g>
     </g>
    </g>
    <g id="xtick_5">
     <g id="line2d_5">
      <g>
       <use style="stroke:#000000;stroke-width:0.8;" x="520.212159" xlink:href="#m8bc57f41b4" y="442.7928"/>
      </g>
     </g>
     <g id="text_5">
      <!-- 2.5 -->
      <g transform="translate(504.309034 464.989675)scale(0.2 -0.2)">
       <use xlink:href="#DejaVuSans-50"/>
       <use x="63.623047" xlink:href="#DejaVuSans-46"/>
       <use x="95.410156" xlink:href="#DejaVuSans-53"/>
      </g>
     </g>
    </g>
    <g id="xtick_6">
     <g id="line2d_6">
      <g>
       <use style="stroke:#000000;stroke-width:0.8;" x="613.970854" xlink:href="#m8bc57f41b4" y="442.7928"/>
      </g>
     </g>
     <g id="text_6">
      <!-- 5.0 -->
      <g transform="translate(598.067729 464.989675)scale(0.2 -0.2)">
       <use xlink:href="#DejaVuSans-53"/>
       <use x="63.623047" xlink:href="#DejaVuSans-46"/>
       <use x="95.410156" xlink:href="#DejaVuSans-48"/>
      </g>
     </g>
    </g>
    <g id="xtick_7">
     <g id="line2d_7">
      <g>
       <use style="stroke:#000000;stroke-width:0.8;" x="707.729549" xlink:href="#m8bc57f41b4" y="442.7928"/>
      </g>
     </g>
     <g id="text_7">
      <!-- 7.5 -->
      <g transform="translate(691.826424 464.989675)scale(0.2 -0.2)">
       <use xlink:href="#DejaVuSans-55"/>
       <use x="63.623047" xlink:href="#DejaVuSans-46"/>
       <use x="95.410156" xlink:href="#DejaVuSans-53"/>
      </g>
     </g>
    </g>
    <g id="xtick_8">
     <g id="line2d_8">
      <g>
       <use style="stroke:#000000;stroke-width:0.8;" x="801.488244" xlink:href="#m8bc57f41b4" y="442.7928"/>
      </g>
     </g>
     <g id="text_8">
      <!-- 10.0 -->
      <defs>
       <path d="M 12.40625 8.296875 
L 28.515625 8.296875 
L 28.515625 63.921875 
L 10.984375 60.40625 
L 10.984375 69.390625 
L 28.421875 72.90625 
L 38.28125 72.90625 
L 38.28125 8.296875 
L 54.390625 8.296875 
L 54.390625 0 
L 12.40625 0 
z
" id="DejaVuSans-49"/>
      </defs>
      <g transform="translate(779.222619 464.989675)scale(0.2 -0.2)">
       <use xlink:href="#DejaVuSans-49"/>
       <use x="63.623047" xlink:href="#DejaVuSans-48"/>
       <use x="127.246094" xlink:href="#DejaVuSans-46"/>
       <use x="159.033203" xlink:href="#DejaVuSans-48"/>
      </g>
     </g>
    </g>
    <g id="xtick_9">
     <g id="line2d_9">
      <g>
       <use style="stroke:#000000;stroke-width:0.8;" x="895.246939" xlink:href="#m8bc57f41b4" y="442.7928"/>
      </g>
     </g>
     <g id="text_9">
      <!-- 12.5 -->
      <g transform="translate(872.981314 464.989675)scale(0.2 -0.2)">
       <use xlink:href="#DejaVuSans-49"/>
       <use x="63.623047" xlink:href="#DejaVuSans-50"/>
       <use x="127.246094" xlink:href="#DejaVuSans-46"/>
       <use x="159.033203" xlink:href="#DejaVuSans-53"/>
      </g>
     </g>
    </g>
    <g id="text_10">
     <!-- $(w - &lt;w&gt;_{\epsilon})/\sigma_{\epsilon}(w)$ -->
     <defs>
      <path d="M 31 75.875 
Q 24.46875 64.65625 21.28125 53.65625 
Q 18.109375 42.671875 18.109375 31.390625 
Q 18.109375 20.125 21.3125 9.0625 
Q 24.515625 -2 31 -13.1875 
L 23.1875 -13.1875 
Q 15.875 -1.703125 12.234375 9.375 
Q 8.59375 20.453125 8.59375 31.390625 
Q 8.59375 42.28125 12.203125 53.3125 
Q 15.828125 64.359375 23.1875 75.875 
z
" id="DejaVuSans-40"/>
      <path d="M 8.5 54.6875 
L 17.390625 54.6875 
L 19.671875 10.6875 
L 40.09375 54.6875 
L 50.484375 54.6875 
L 53.515625 10.6875 
L 72.90625 54.6875 
L 81.890625 54.6875 
L 56.890625 0 
L 46.390625 0 
L 43.703125 45.3125 
L 22.796875 0 
L 12.203125 0 
z
" id="DejaVuSans-Oblique-119"/>
      <path d="M 73.1875 49.21875 
L 22.796875 31.296875 
L 73.1875 13.484375 
L 73.1875 4.59375 
L 10.59375 27.296875 
L 10.59375 35.40625 
L 73.1875 58.109375 
z
" id="DejaVuSans-60"/>
      <path d="M 10.59375 49.21875 
L 10.59375 58.109375 
L 73.1875 35.40625 
L 73.1875 27.296875 
L 10.59375 4.59375 
L 10.59375 13.484375 
L 60.890625 31.296875 
z
" id="DejaVuSans-62"/>
      <path d="M 19.734375 29.5 
Q 14.453125 30.671875 12.15625 33.84375 
Q 10.453125 36.078125 10.453125 39.109375 
Q 10.453125 47.40625 18.359375 52.25 
Q 24.609375 56.0625 34.1875 56.0625 
Q 37.890625 56.0625 41.9375 55.46875 
Q 46 54.890625 50.53125 53.71875 
L 48.96875 45.5625 
Q 44.484375 46.96875 40.71875 47.609375 
Q 36.859375 48.25 33.40625 48.25 
Q 27.59375 48.25 23.78125 46 
Q 19.1875 43.3125 19.1875 39.40625 
Q 19.1875 36.8125 21.578125 35.015625 
Q 24.421875 32.859375 30.078125 32.859375 
L 37.640625 32.859375 
L 36.234375 25.4375 
L 29 25.4375 
Q 22.265625 25.4375 18.3125 22.953125 
Q 12.9375 19.578125 12.9375 14.3125 
Q 12.9375 10.984375 15.828125 8.796875 
Q 19.4375 6.0625 26.8125 6.0625 
Q 31.34375 6.0625 35.6875 6.9375 
Q 40.046875 7.859375 43.84375 9.671875 
L 42.1875 1.3125 
Q 37.546875 -0.046875 33.296875 -0.734375 
Q 29.046875 -1.421875 25.140625 -1.421875 
Q 13.53125 -1.421875 8.0625 3.03125 
Q 3.90625 6.453125 3.90625 12.203125 
Q 3.90625 19.96875 9.375 24.75 
Q 13.421875 28.328125 19.734375 29.5 
z
" id="DejaVuSans-Oblique-949"/>
      <path d="M 8.015625 75.875 
L 15.828125 75.875 
Q 23.140625 64.359375 26.78125 53.3125 
Q 30.421875 42.28125 30.421875 31.390625 
Q 30.421875 20.453125 26.78125 9.375 
Q 23.140625 -1.703125 15.828125 -13.1875 
L 8.015625 -13.1875 
Q 14.5 -2 17.703125 9.0625 
Q 20.90625 20.125 20.90625 31.390625 
Q 20.90625 42.671875 17.703125 53.65625 
Q 14.5 64.65625 8.015625 75.875 
z
" id="DejaVuSans-41"/>
      <path d="M 25.390625 72.90625 
L 33.6875 72.90625 
L 8.296875 -9.28125 
L 0 -9.28125 
z
" id="DejaVuSans-47"/>
      <path d="M 34.671875 47.5625 
Q 27.25 47.5625 22.21875 42.1875 
Q 16.890625 36.578125 15.140625 27.296875 
Q 13.1875 17.484375 16.3125 11.8125 
Q 19.390625 6.203125 26.65625 6.203125 
Q 33.84375 6.203125 39.109375 11.859375 
Q 44.4375 17.53125 46.34375 27.296875 
Q 48.046875 36.234375 45.015625 42.1875 
Q 42.1875 47.5625 34.671875 47.5625 
z
M 36.078125 54.734375 
L 65.921875 54.6875 
L 64.15625 45.703125 
L 54.109375 45.703125 
Q 57.90625 38.09375 55.859375 27.296875 
Q 53.21875 13.875 45.0625 6.25 
Q 36.859375 -1.421875 25.140625 -1.421875 
Q 13.375 -1.421875 8.203125 6.25 
Q 3.03125 13.875 5.671875 27.296875 
Q 8.25 40.765625 16.40625 48.390625 
Q 23.1875 54.734375 36.078125 54.734375 
z
" id="DejaVuSans-Oblique-963"/>
     </defs>
     <g transform="translate(392.7848 488.345925)scale(0.2 -0.2)">
      <use transform="translate(0 0.125)" xlink:href="#DejaVuSans-40"/>
      <use transform="translate(39.013672 0.125)" xlink:href="#DejaVuSans-Oblique-119"/>
      <use transform="translate(140.283203 0.125)" xlink:href="#DejaVuSans-8722"/>
      <use transform="translate(263.037109 0.125)" xlink:href="#DejaVuSans-60"/>
      <use transform="translate(366.308594 0.125)" xlink:href="#DejaVuSans-Oblique-119"/>
      <use transform="translate(467.578125 0.125)" xlink:href="#DejaVuSans-62"/>
      <use transform="translate(571.806641 -16.28125)scale(0.7)" xlink:href="#DejaVuSans-Oblique-949"/>
      <use transform="translate(612.37793 0.125)" xlink:href="#DejaVuSans-41"/>
      <use transform="translate(651.391602 0.125)" xlink:href="#DejaVuSans-47"/>
      <use transform="translate(685.083008 0.125)" xlink:href="#DejaVuSans-Oblique-963"/>
      <use transform="translate(748.461914 -16.28125)scale(0.7)" xlink:href="#DejaVuSans-Oblique-949"/>
      <use transform="translate(789.033203 0.125)" xlink:href="#DejaVuSans-40"/>
      <use transform="translate(828.046875 0.125)" xlink:href="#DejaVuSans-Oblique-119"/>
      <use transform="translate(909.833984 0.125)" xlink:href="#DejaVuSans-41"/>
     </g>
    </g>
   </g>
   <g id="matplotlib.axis_2">
    <g id="ytick_1">
     <g id="line2d_10">
      <defs>
       <path d="M 0 0 
L -3.5 0 
" id="ma6ba02ad6c" style="stroke:#000000;stroke-width:0.8;"/>
      </defs>
      <g>
       <use style="stroke:#000000;stroke-width:0.8;" x="78.2136" xlink:href="#ma6ba02ad6c" y="436.796781"/>
      </g>
     </g>
     <g id="text_11">
      <!-- −14 -->
      <defs>
       <path d="M 37.796875 64.3125 
L 12.890625 25.390625 
L 37.796875 25.390625 
z
M 35.203125 72.90625 
L 47.609375 72.90625 
L 47.609375 25.390625 
L 58.015625 25.390625 
L 58.015625 17.1875 
L 47.609375 17.1875 
L 47.609375 0 
L 37.796875 0 
L 37.796875 17.1875 
L 4.890625 17.1875 
L 4.890625 26.703125 
z
" id="DejaVuSans-52"/>
      </defs>
      <g transform="translate(29.004225 444.395219)scale(0.2 -0.2)">
       <use xlink:href="#DejaVuSans-8722"/>
       <use x="83.789062" xlink:href="#DejaVuSans-49"/>
       <use x="147.412109" xlink:href="#DejaVuSans-52"/>
      </g>
     </g>
    </g>
    <g id="ytick_2">
     <g id="line2d_11">
      <g>
       <use style="stroke:#000000;stroke-width:0.8;" x="78.2136" xlink:href="#ma6ba02ad6c" y="381.149263"/>
      </g>
     </g>
     <g id="text_12">
      <!-- −12 -->
      <g transform="translate(29.004225 388.7477)scale(0.2 -0.2)">
       <use xlink:href="#DejaVuSans-8722"/>
       <use x="83.789062" xlink:href="#DejaVuSans-49"/>
       <use x="147.412109" xlink:href="#DejaVuSans-50"/>
      </g>
     </g>
    </g>
    <g id="ytick_3">
     <g id="line2d_12">
      <g>
       <use style="stroke:#000000;stroke-width:0.8;" x="78.2136" xlink:href="#ma6ba02ad6c" y="325.501744"/>
      </g>
     </g>
     <g id="text_13">
      <!-- −10 -->
      <g transform="translate(29.004225 333.100181)scale(0.2 -0.2)">
       <use xlink:href="#DejaVuSans-8722"/>
       <use x="83.789062" xlink:href="#DejaVuSans-49"/>
       <use x="147.412109" xlink:href="#DejaVuSans-48"/>
      </g>
     </g>
    </g>
    <g id="ytick_4">
     <g id="line2d_13">
      <g>
       <use style="stroke:#000000;stroke-width:0.8;" x="78.2136" xlink:href="#ma6ba02ad6c" y="269.854225"/>
      </g>
     </g>
     <g id="text_14">
      <!-- −8 -->
      <defs>
       <path d="M 31.78125 34.625 
Q 24.75 34.625 20.71875 30.859375 
Q 16.703125 27.09375 16.703125 20.515625 
Q 16.703125 13.921875 20.71875 10.15625 
Q 24.75 6.390625 31.78125 6.390625 
Q 38.8125 6.390625 42.859375 10.171875 
Q 46.921875 13.96875 46.921875 20.515625 
Q 46.921875 27.09375 42.890625 30.859375 
Q 38.875 34.625 31.78125 34.625 
z
M 21.921875 38.8125 
Q 15.578125 40.375 12.03125 44.71875 
Q 8.5 49.078125 8.5 55.328125 
Q 8.5 64.0625 14.71875 69.140625 
Q 20.953125 74.21875 31.78125 74.21875 
Q 42.671875 74.21875 48.875 69.140625 
Q 55.078125 64.0625 55.078125 55.328125 
Q 55.078125 49.078125 51.53125 44.71875 
Q 48 40.375 41.703125 38.8125 
Q 48.828125 37.15625 52.796875 32.3125 
Q 56.78125 27.484375 56.78125 20.515625 
Q 56.78125 9.90625 50.3125 4.234375 
Q 43.84375 -1.421875 31.78125 -1.421875 
Q 19.734375 -1.421875 13.25 4.234375 
Q 6.78125 9.90625 6.78125 20.515625 
Q 6.78125 27.484375 10.78125 32.3125 
Q 14.796875 37.15625 21.921875 38.8125 
z
M 18.3125 54.390625 
Q 18.3125 48.734375 21.84375 45.5625 
Q 25.390625 42.390625 31.78125 42.390625 
Q 38.140625 42.390625 41.71875 45.5625 
Q 45.3125 48.734375 45.3125 54.390625 
Q 45.3125 60.0625 41.71875 63.234375 
Q 38.140625 66.40625 31.78125 66.40625 
Q 25.390625 66.40625 21.84375 63.234375 
Q 18.3125 60.0625 18.3125 54.390625 
z
" id="DejaVuSans-56"/>
      </defs>
      <g transform="translate(41.729225 277.452663)scale(0.2 -0.2)">
       <use xlink:href="#DejaVuSans-8722"/>
       <use x="83.789062" xlink:href="#DejaVuSans-56"/>
      </g>
     </g>
    </g>
    <g id="ytick_5">
     <g id="line2d_14">
      <g>
       <use style="stroke:#000000;stroke-width:0.8;" x="78.2136" xlink:href="#ma6ba02ad6c" y="214.206706"/>
      </g>
     </g>
     <g id="text_15">
      <!-- −6 -->
      <defs>
       <path d="M 33.015625 40.375 
Q 26.375 40.375 22.484375 35.828125 
Q 18.609375 31.296875 18.609375 23.390625 
Q 18.609375 15.53125 22.484375 10.953125 
Q 26.375 6.390625 33.015625 6.390625 
Q 39.65625 6.390625 43.53125 10.953125 
Q 47.40625 15.53125 47.40625 23.390625 
Q 47.40625 31.296875 43.53125 35.828125 
Q 39.65625 40.375 33.015625 40.375 
z
M 52.59375 71.296875 
L 52.59375 62.3125 
Q 48.875 64.0625 45.09375 64.984375 
Q 41.3125 65.921875 37.59375 65.921875 
Q 27.828125 65.921875 22.671875 59.328125 
Q 17.53125 52.734375 16.796875 39.40625 
Q 19.671875 43.65625 24.015625 45.921875 
Q 28.375 48.1875 33.59375 48.1875 
Q 44.578125 48.1875 50.953125 41.515625 
Q 57.328125 34.859375 57.328125 23.390625 
Q 57.328125 12.15625 50.6875 5.359375 
Q 44.046875 -1.421875 33.015625 -1.421875 
Q 20.359375 -1.421875 13.671875 8.265625 
Q 6.984375 17.96875 6.984375 36.375 
Q 6.984375 53.65625 15.1875 63.9375 
Q 23.390625 74.21875 37.203125 74.21875 
Q 40.921875 74.21875 44.703125 73.484375 
Q 48.484375 72.75 52.59375 71.296875 
z
" id="DejaVuSans-54"/>
      </defs>
      <g transform="translate(41.729225 221.805144)scale(0.2 -0.2)">
       <use xlink:href="#DejaVuSans-8722"/>
       <use x="83.789062" xlink:href="#DejaVuSans-54"/>
      </g>
     </g>
    </g>
    <g id="ytick_6">
     <g id="line2d_15">
      <g>
       <use style="stroke:#000000;stroke-width:0.8;" x="78.2136" xlink:href="#ma6ba02ad6c" y="158.559187"/>
      </g>
     </g>
     <g id="text_16">
      <!-- −4 -->
      <g transform="translate(41.729225 166.157625)scale(0.2 -0.2)">
       <use xlink:href="#DejaVuSans-8722"/>
       <use x="83.789062" xlink:href="#DejaVuSans-52"/>
      </g>
     </g>
    </g>
    <g id="ytick_7">
     <g id="line2d_16">
      <g>
       <use style="stroke:#000000;stroke-width:0.8;" x="78.2136" xlink:href="#ma6ba02ad6c" y="102.911669"/>
      </g>
     </g>
     <g id="text_17">
      <!-- −2 -->
      <g transform="translate(41.729225 110.510106)scale(0.2 -0.2)">
       <use xlink:href="#DejaVuSans-8722"/>
       <use x="83.789062" xlink:href="#DejaVuSans-50"/>
      </g>
     </g>
    </g>
    <g id="ytick_8">
     <g id="line2d_17">
      <g>
       <use style="stroke:#000000;stroke-width:0.8;" x="78.2136" xlink:href="#ma6ba02ad6c" y="47.26415"/>
      </g>
     </g>
     <g id="text_18">
      <!-- 0 -->
      <g transform="translate(58.4886 54.862587)scale(0.2 -0.2)">
       <use xlink:href="#DejaVuSans-48"/>
      </g>
     </g>
    </g>
    <g id="text_19">
     <!-- $\log P(w(\tau) = w)$ -->
     <defs>
      <path d="M 9.421875 75.984375 
L 18.40625 75.984375 
L 18.40625 0 
L 9.421875 0 
z
" id="DejaVuSans-108"/>
      <path d="M 30.609375 48.390625 
Q 23.390625 48.390625 19.1875 42.75 
Q 14.984375 37.109375 14.984375 27.296875 
Q 14.984375 17.484375 19.15625 11.84375 
Q 23.34375 6.203125 30.609375 6.203125 
Q 37.796875 6.203125 41.984375 11.859375 
Q 46.1875 17.53125 46.1875 27.296875 
Q 46.1875 37.015625 41.984375 42.703125 
Q 37.796875 48.390625 30.609375 48.390625 
z
M 30.609375 56 
Q 42.328125 56 49.015625 48.375 
Q 55.71875 40.765625 55.71875 27.296875 
Q 55.71875 13.875 49.015625 6.21875 
Q 42.328125 -1.421875 30.609375 -1.421875 
Q 18.84375 -1.421875 12.171875 6.21875 
Q 5.515625 13.875 5.515625 27.296875 
Q 5.515625 40.765625 12.171875 48.375 
Q 18.84375 56 30.609375 56 
z
" id="DejaVuSans-111"/>
      <path d="M 45.40625 27.984375 
Q 45.40625 37.75 41.375 43.109375 
Q 37.359375 48.484375 30.078125 48.484375 
Q 22.859375 48.484375 18.828125 43.109375 
Q 14.796875 37.75 14.796875 27.984375 
Q 14.796875 18.265625 18.828125 12.890625 
Q 22.859375 7.515625 30.078125 7.515625 
Q 37.359375 7.515625 41.375 12.890625 
Q 45.40625 18.265625 45.40625 27.984375 
z
M 54.390625 6.78125 
Q 54.390625 -7.171875 48.1875 -13.984375 
Q 42 -20.796875 29.203125 -20.796875 
Q 24.46875 -20.796875 20.265625 -20.09375 
Q 16.0625 -19.390625 12.109375 -17.921875 
L 12.109375 -9.1875 
Q 16.0625 -11.328125 19.921875 -12.34375 
Q 23.78125 -13.375 27.78125 -13.375 
Q 36.625 -13.375 41.015625 -8.765625 
Q 45.40625 -4.15625 45.40625 5.171875 
L 45.40625 9.625 
Q 42.625 4.78125 38.28125 2.390625 
Q 33.9375 0 27.875 0 
Q 17.828125 0 11.671875 7.65625 
Q 5.515625 15.328125 5.515625 27.984375 
Q 5.515625 40.671875 11.671875 48.328125 
Q 17.828125 56 27.875 56 
Q 33.9375 56 38.28125 53.609375 
Q 42.625 51.21875 45.40625 46.390625 
L 45.40625 54.6875 
L 54.390625 54.6875 
z
" id="DejaVuSans-103"/>
      <path d="M 16.890625 72.90625 
L 39.703125 72.90625 
Q 49.65625 72.90625 54.875 68.265625 
Q 60.109375 63.625 60.109375 54.6875 
Q 60.109375 42.671875 52.390625 35.984375 
Q 44.671875 29.296875 30.71875 29.296875 
L 18.3125 29.296875 
L 12.59375 0 
L 2.6875 0 
z
M 25.203125 64.796875 
L 19.921875 37.40625 
L 32.328125 37.40625 
Q 40.71875 37.40625 45.203125 41.703125 
Q 49.703125 46 49.703125 54 
Q 49.703125 59.125 46.65625 61.953125 
Q 43.609375 64.796875 38.09375 64.796875 
z
" id="DejaVuSans-Oblique-80"/>
      <path d="M 32.859375 9.96875 
Q 34.1875 7.625 39.453125 7.625 
L 43.75 7.625 
L 42.28125 0 
L 36.921875 0 
Q 28.125 0 25 4.6875 
Q 21.921875 9.46875 23.96875 19.828125 
L 29 45.703125 
L 8.453125 45.703125 
L 10.203125 54.6875 
L 60.640625 54.6875 
L 58.890625 45.703125 
L 38.1875 45.703125 
L 33.015625 19.28125 
Q 31.640625 12.203125 32.859375 9.96875 
z
" id="DejaVuSans-Oblique-964"/>
      <path d="M 10.59375 45.40625 
L 73.1875 45.40625 
L 73.1875 37.203125 
L 10.59375 37.203125 
z
M 10.59375 25.484375 
L 73.1875 25.484375 
L 73.1875 17.1875 
L 10.59375 17.1875 
z
" id="DejaVuSans-61"/>
     </defs>
     <g transform="translate(20.804225 305.4344)rotate(-90)scale(0.2 -0.2)">
      <use transform="translate(0 0.015625)" xlink:href="#DejaVuSans-108"/>
      <use transform="translate(27.783203 0.015625)" xlink:href="#DejaVuSans-111"/>
      <use transform="translate(88.964844 0.015625)" xlink:href="#DejaVuSans-103"/>
      <use transform="translate(152.441406 0.015625)" xlink:href="#DejaVuSans-Oblique-80"/>
      <use transform="translate(212.744141 0.015625)" xlink:href="#DejaVuSans-40"/>
      <use transform="translate(251.757812 0.015625)" xlink:href="#DejaVuSans-Oblique-119"/>
      <use transform="translate(333.544922 0.015625)" xlink:href="#DejaVuSans-40"/>
      <use transform="translate(372.558594 0.015625)" xlink:href="#DejaVuSans-Oblique-964"/>
      <use transform="translate(432.763672 0.015625)" xlink:href="#DejaVuSans-41"/>
      <use transform="translate(491.259766 0.015625)" xlink:href="#DejaVuSans-61"/>
      <use transform="translate(594.53125 0.015625)" xlink:href="#DejaVuSans-Oblique-119"/>
      <use transform="translate(676.318359 0.015625)" xlink:href="#DejaVuSans-41"/>
     </g>
    </g>
   </g>
   <g id="line2d_18">
    <path clip-path="url(#p37e72f8c83)" d="M 115.66509 235.658416 
L 131.495716 216.804936 
L 147.326342 198.945213 
L 163.156968 182.079248 
L 178.987594 166.20704 
L 194.81822 151.328589 
L 210.648846 137.443896 
L 226.479472 124.55296 
L 242.310098 112.655782 
L 258.140724 101.752361 
L 273.97135 91.842697 
L 289.801976 82.926791 
L 305.632602 75.004642 
L 321.463227 68.07625 
L 337.293853 62.141616 
L 353.124479 57.20074 
L 368.955105 53.25362 
L 384.785731 50.300258 
L 400.616357 48.340654 
L 416.446983 47.374806 
L 432.277609 47.402717 
L 448.108235 48.424384 
L 463.938861 50.439809 
L 479.769487 53.448991 
L 495.600113 57.451931 
L 511.430739 62.448628 
L 527.261365 68.439083 
L 543.091991 75.423294 
L 558.922617 83.401264 
L 574.753243 92.37299 
L 590.583869 102.338474 
L 606.414495 113.297716 
L 622.245121 125.250714 
L 638.075747 138.197471 
L 653.906373 152.137984 
L 669.736998 167.072255 
L 685.567624 183.000283 
L 701.39825 199.922069 
L 717.228876 217.837612 
L 733.059502 236.746912 
L 748.890128 256.64997 
L 764.720754 277.546785 
L 796.382006 322.321688 
L 812.212632 346.199775 
L 859.70451 423.796582 
" style="fill:none;stroke:#0080ff;stroke-linecap:square;stroke-width:1.5;"/>
   </g>
   <g id="line2d_19">
    <path clip-path="url(#p37e72f8c83)" d="M 153.946443 185.35552 
L 168.169318 171.102009 
L 182.392193 157.624713 
L 196.615069 144.923631 
L 210.837944 132.998763 
L 225.060819 121.85011 
L 239.283694 111.47767 
L 253.50657 101.881445 
L 267.729445 93.061434 
L 281.95232 85.017637 
L 296.175195 77.750055 
L 310.39807 71.258686 
L 324.620946 65.543532 
L 338.843821 60.604592 
L 353.066696 56.441866 
L 367.289571 53.055354 
L 381.512447 50.445057 
L 395.735322 48.610973 
L 409.958197 47.553104 
L 424.181072 47.271449 
L 438.403948 47.766009 
L 452.626823 49.036782 
L 466.849698 51.08377 
L 481.072573 53.906972 
L 495.295448 57.506388 
L 509.518324 61.882018 
L 523.741199 67.033862 
L 537.964074 72.961921 
L 552.186949 79.666194 
L 566.409825 87.146681 
L 580.6327 95.403382 
L 594.855575 104.436297 
L 609.07845 114.245427 
L 623.301325 124.830771 
L 637.524201 136.192329 
L 651.747076 148.330101 
L 665.969951 161.244087 
L 680.192826 174.934288 
L 694.415702 189.400702 
L 708.638577 204.643331 
L 722.861452 220.662175 
L 737.084327 237.457232 
L 765.530078 273.375989 
L 779.752953 292.499689 
L 793.975828 312.399603 
L 808.198703 333.075731 
L 822.421579 354.528074 
" style="fill:none;stroke:#7dff7a;stroke-linecap:square;stroke-width:1.5;"/>
   </g>
   <g id="line2d_20">
    <path clip-path="url(#p37e72f8c83)" d="M 201.891111 140.881739 
L 217.428773 128.09142 
L 232.966435 116.240152 
L 248.504097 105.327936 
L 264.041759 95.354771 
L 279.579422 86.320659 
L 295.117084 78.225597 
L 310.654746 71.069588 
L 326.192408 64.852629 
L 341.73007 59.574723 
L 357.267732 55.235868 
L 372.805394 51.836064 
L 388.343056 49.375313 
L 403.880718 47.853612 
L 419.41838 47.270964 
L 434.956042 47.627366 
L 450.493704 48.922821 
L 466.031366 51.157327 
L 481.569028 54.330884 
L 497.10669 58.443494 
L 512.644352 63.495154 
L 528.182014 69.485867 
L 543.719676 76.41563 
L 559.257338 84.284446 
L 574.795 93.092313 
L 590.332662 102.839231 
L 605.870324 113.525202 
L 621.407987 125.150223 
L 636.945649 137.714297 
L 652.483311 151.217422 
L 668.020973 165.659598 
L 683.558635 181.040826 
L 714.633959 214.620437 
L 854.472917 412.211738 
" style="fill:none;stroke:#ff9400;stroke-linecap:square;stroke-width:1.5;"/>
   </g>
   <g id="patch_3">
    <path d="M 78.2136 442.7928 
L 78.2136 24.876 
" style="fill:none;stroke:#000000;stroke-linecap:square;stroke-linejoin:miter;stroke-width:0.8;"/>
   </g>
   <g id="patch_4">
    <path d="M 897.156 442.7928 
L 897.156 24.876 
" style="fill:none;stroke:#000000;stroke-linecap:square;stroke-linejoin:miter;stroke-width:0.8;"/>
   </g>
   <g id="patch_5">
    <path d="M 78.2136 442.7928 
L 897.156 442.7928 
" style="fill:none;stroke:#000000;stroke-linecap:square;stroke-linejoin:miter;stroke-width:0.8;"/>
   </g>
   <g id="patch_6">
    <path d="M 78.2136 24.876 
L 897.156 24.876 
" style="fill:none;stroke:#000000;stroke-linecap:square;stroke-linejoin:miter;stroke-width:0.8;"/>
   </g>
   <g id="text_20">
    <!-- $N=10, \phi=0.65, N_{bins} = 50$$, \epsilon_{cut} = 2.00$ -->
    <defs>
     <path d="M 16.890625 72.90625 
L 30.171875 72.90625 
L 50.296875 10.40625 
L 62.5 72.90625 
L 72.125 72.90625 
L 57.90625 0 
L 44.578125 0 
L 24.515625 62.890625 
L 12.3125 0 
L 2.6875 0 
z
" id="DejaVuSans-Oblique-78"/>
     <path d="M 11.71875 12.40625 
L 22.015625 12.40625 
L 22.015625 4 
L 14.015625 -11.625 
L 7.71875 -11.625 
L 11.71875 4 
z
" id="DejaVuSans-44"/>
     <path d="M 46.734375 75.984375 
L 42.78125 55.8125 
Q 52.546875 55.8125 57.5625 48.34375 
Q 62.75 40.71875 60.15625 27.296875 
Q 57.515625 13.875 49.359375 6.25 
Q 41.453125 -1.21875 31.6875 -1.21875 
L 27.875 -20.796875 
L 18.953125 -20.796875 
L 22.75 -1.21875 
Q 13.03125 -1.21875 7.953125 6.25 
Q 2.78125 13.875 5.421875 27.296875 
Q 8.015625 40.71875 16.15625 48.34375 
Q 24.125 55.8125 33.84375 55.8125 
L 37.796875 75.984375 
z
M 33.25 6.78125 
Q 38.765625 6.78125 43.5 11.8125 
Q 48.6875 17.4375 50.6875 27.296875 
Q 52.640625 37.0625 49.515625 42.78125 
Q 46.734375 47.796875 41.21875 47.796875 
z
M 24.3125 6.78125 
L 32.28125 47.796875 
Q 26.8125 47.796875 22.078125 42.78125 
Q 16.75 37.0625 14.890625 27.296875 
Q 13.03125 17.4375 16.0625 11.8125 
Q 18.796875 6.78125 24.3125 6.78125 
z
" id="DejaVuSans-Oblique-981"/>
     <path d="M 49.515625 33.40625 
Q 49.515625 40.484375 46.265625 44.484375 
Q 43.015625 48.484375 37.3125 48.484375 
Q 33.15625 48.484375 29.515625 46.453125 
Q 25.875 44.4375 23.1875 40.578125 
Q 20.359375 36.53125 18.71875 31.171875 
Q 17.09375 25.828125 17.09375 20.515625 
Q 17.09375 13.765625 20.28125 9.9375 
Q 23.484375 6.109375 29.109375 6.109375 
Q 33.34375 6.109375 36.953125 8.078125 
Q 40.578125 10.0625 43.3125 13.921875 
Q 46.09375 17.921875 47.796875 23.234375 
Q 49.515625 28.5625 49.515625 33.40625 
z
M 21.578125 46.390625 
Q 24.90625 50.875 29.90625 53.4375 
Q 34.90625 56 40.375 56 
Q 48.78125 56 53.734375 50.328125 
Q 58.6875 44.671875 58.6875 35.015625 
Q 58.6875 27.09375 55.78125 19.671875 
Q 52.875 12.25 47.515625 6.5 
Q 44 2.6875 39.40625 0.625 
Q 34.8125 -1.421875 29.78125 -1.421875 
Q 24.46875 -1.421875 20.5625 1.015625 
Q 16.65625 3.46875 14.203125 8.296875 
L 12.59375 0 
L 3.609375 0 
L 18.40625 75.984375 
L 27.390625 75.984375 
z
" id="DejaVuSans-Oblique-98"/>
     <path d="M 18.3125 75.984375 
L 27.296875 75.984375 
L 25.09375 64.59375 
L 16.109375 64.59375 
z
M 14.203125 54.6875 
L 23.1875 54.6875 
L 12.5 0 
L 3.515625 0 
z
" id="DejaVuSans-Oblique-105"/>
     <path d="M 55.71875 33.015625 
L 49.3125 0 
L 40.28125 0 
L 46.6875 32.671875 
Q 47.125 34.96875 47.359375 36.71875 
Q 47.609375 38.484375 47.609375 39.5 
Q 47.609375 43.609375 45.015625 45.890625 
Q 42.4375 48.1875 37.796875 48.1875 
Q 30.5625 48.1875 25.34375 43.375 
Q 20.125 38.578125 18.5 30.328125 
L 12.5 0 
L 3.515625 0 
L 14.109375 54.6875 
L 23.09375 54.6875 
L 21.296875 46.09375 
Q 25.046875 50.828125 30.3125 53.40625 
Q 35.59375 56 41.40625 56 
Q 48.640625 56 52.609375 52.09375 
Q 56.59375 48.1875 56.59375 41.109375 
Q 56.59375 39.359375 56.375 37.359375 
Q 56.15625 35.359375 55.71875 33.015625 
z
" id="DejaVuSans-Oblique-110"/>
     <path d="M 50 53.078125 
L 48.296875 44.578125 
Q 44.734375 46.53125 40.765625 47.5 
Q 36.8125 48.484375 32.625 48.484375 
Q 25.53125 48.484375 21.453125 46.0625 
Q 17.390625 43.65625 17.390625 39.5 
Q 17.390625 34.671875 26.859375 32.078125 
Q 27.59375 31.890625 27.9375 31.78125 
L 30.8125 30.90625 
Q 39.796875 28.421875 42.796875 25.6875 
Q 45.796875 22.953125 45.796875 18.21875 
Q 45.796875 9.515625 38.890625 4.046875 
Q 31.984375 -1.421875 20.796875 -1.421875 
Q 16.453125 -1.421875 11.671875 -0.578125 
Q 6.890625 0.25 1.125 2 
L 2.875 11.28125 
Q 7.8125 8.734375 12.59375 7.421875 
Q 17.390625 6.109375 21.78125 6.109375 
Q 28.375 6.109375 32.5 8.9375 
Q 36.625 11.765625 36.625 16.109375 
Q 36.625 20.796875 25.78125 23.6875 
L 24.859375 23.921875 
L 21.78125 24.703125 
Q 14.9375 26.515625 11.765625 29.46875 
Q 8.59375 32.421875 8.59375 37.015625 
Q 8.59375 45.75 15.15625 50.875 
Q 21.734375 56 33.015625 56 
Q 37.453125 56 41.671875 55.265625 
Q 45.90625 54.546875 50 53.078125 
z
" id="DejaVuSans-Oblique-115"/>
     <path d="M 53.609375 52.59375 
L 51.8125 43.703125 
Q 48.578125 46.046875 44.9375 47.21875 
Q 41.3125 48.390625 37.40625 48.390625 
Q 33.109375 48.390625 29.21875 46.875 
Q 25.34375 45.359375 22.703125 42.578125 
Q 18.5 38.328125 16.203125 32.609375 
Q 13.921875 26.90625 13.921875 20.796875 
Q 13.921875 13.421875 17.609375 9.8125 
Q 21.296875 6.203125 28.8125 6.203125 
Q 32.515625 6.203125 36.6875 7.328125 
Q 40.875 8.453125 45.40625 10.6875 
L 43.703125 1.8125 
Q 39.796875 0.203125 35.671875 -0.609375 
Q 31.546875 -1.421875 27.203125 -1.421875 
Q 16.3125 -1.421875 10.453125 4.015625 
Q 4.59375 9.46875 4.59375 19.578125 
Q 4.59375 28.078125 7.640625 35.234375 
Q 10.6875 42.390625 16.703125 48.09375 
Q 20.796875 52 26.3125 54 
Q 31.84375 56 38.375 56 
Q 42.1875 56 45.9375 55.140625 
Q 49.703125 54.296875 53.609375 52.59375 
z
" id="DejaVuSans-Oblique-99"/>
     <path d="M 6.6875 21.6875 
L 13.09375 54.6875 
L 22.125 54.6875 
L 15.71875 22.015625 
Q 15.234375 19.625 15.015625 17.921875 
Q 14.796875 16.21875 14.796875 15.09375 
Q 14.796875 10.9375 17.328125 8.65625 
Q 19.875 6.390625 24.515625 6.390625 
Q 31.734375 6.390625 37 11.265625 
Q 42.28125 16.15625 43.890625 24.421875 
L 49.90625 54.6875 
L 58.890625 54.6875 
L 48.296875 0 
L 39.3125 0 
L 41.109375 8.59375 
Q 37.3125 3.8125 32.0625 1.1875 
Q 26.8125 -1.421875 20.90625 -1.421875 
Q 13.71875 -1.421875 9.71875 2.515625 
Q 5.71875 6.453125 5.71875 13.484375 
Q 5.71875 14.9375 5.953125 17.140625 
Q 6.203125 19.34375 6.6875 21.6875 
z
" id="DejaVuSans-Oblique-117"/>
     <path d="M 42.28125 54.6875 
L 40.921875 47.703125 
L 23 47.703125 
L 17.1875 18.015625 
Q 16.890625 16.359375 16.75 15.234375 
Q 16.609375 14.109375 16.609375 13.484375 
Q 16.609375 10.359375 18.484375 8.9375 
Q 20.359375 7.515625 24.515625 7.515625 
L 33.59375 7.515625 
L 32.078125 0 
L 23.484375 0 
Q 15.484375 0 11.546875 3.125 
Q 7.625 6.25 7.625 12.59375 
Q 7.625 13.71875 7.765625 15.0625 
Q 7.90625 16.40625 8.203125 18.015625 
L 14.015625 47.703125 
L 6.390625 47.703125 
L 7.8125 54.6875 
L 15.28125 54.6875 
L 18.3125 70.21875 
L 27.296875 70.21875 
L 24.3125 54.6875 
z
" id="DejaVuSans-Oblique-116"/>
    </defs>
    <g transform="translate(262.6848 18.876)scale(0.24 -0.24)">
     <use transform="translate(0 0.015625)" xlink:href="#DejaVuSans-Oblique-78"/>
     <use transform="translate(94.287109 0.015625)" xlink:href="#DejaVuSans-61"/>
     <use transform="translate(197.558594 0.015625)" xlink:href="#DejaVuSans-49"/>
     <use transform="translate(261.181641 0.015625)" xlink:href="#DejaVuSans-48"/>
     <use transform="translate(324.804688 0.015625)" xlink:href="#DejaVuSans-44"/>
     <use transform="translate(376.074219 0.015625)" xlink:href="#DejaVuSans-Oblique-981"/>
     <use transform="translate(461.523438 0.015625)" xlink:href="#DejaVuSans-61"/>
     <use transform="translate(564.794922 0.015625)" xlink:href="#DejaVuSans-48"/>
     <use transform="translate(628.417969 0.015625)" xlink:href="#DejaVuSans-46"/>
     <use transform="translate(660.205078 0.015625)" xlink:href="#DejaVuSans-54"/>
     <use transform="translate(723.828125 0.015625)" xlink:href="#DejaVuSans-53"/>
     <use transform="translate(787.451172 0.015625)" xlink:href="#DejaVuSans-44"/>
     <use transform="translate(838.720703 0.015625)" xlink:href="#DejaVuSans-Oblique-78"/>
     <use transform="translate(913.525391 -16.390625)scale(0.7)" xlink:href="#DejaVuSans-Oblique-98"/>
     <use transform="translate(957.958984 -16.390625)scale(0.7)" xlink:href="#DejaVuSans-Oblique-105"/>
     <use transform="translate(977.407227 -16.390625)scale(0.7)" xlink:href="#DejaVuSans-Oblique-110"/>
     <use transform="translate(1021.772461 -16.390625)scale(0.7)" xlink:href="#DejaVuSans-Oblique-115"/>
     <use transform="translate(1080.458984 0.015625)" xlink:href="#DejaVuSans-61"/>
     <use transform="translate(1183.730469 0.015625)" xlink:href="#DejaVuSans-53"/>
     <use transform="translate(1247.353516 0.015625)" xlink:href="#DejaVuSans-48"/>
     <use transform="translate(1310.976562 0.015625)" xlink:href="#DejaVuSans-44"/>
     <use transform="translate(1362.246094 0.015625)" xlink:href="#DejaVuSans-Oblique-949"/>
     <use transform="translate(1416.298828 -16.390625)scale(0.7)" xlink:href="#DejaVuSans-Oblique-99"/>
     <use transform="translate(1454.785156 -16.390625)scale(0.7)" xlink:href="#DejaVuSans-Oblique-117"/>
     <use transform="translate(1499.150391 -16.390625)scale(0.7)" xlink:href="#DejaVuSans-Oblique-116"/>
     <use transform="translate(1548.813477 0.015625)" xlink:href="#DejaVuSans-61"/>
     <use transform="translate(1652.084961 0.015625)" xlink:href="#DejaVuSans-50"/>
     <use transform="translate(1715.708008 0.015625)" xlink:href="#DejaVuSans-46"/>
     <use transform="translate(1747.495117 0.015625)" xlink:href="#DejaVuSans-48"/>
     <use transform="translate(1811.118164 0.015625)" xlink:href="#DejaVuSans-48"/>
    </g>
   </g>
   <g id="legend_1">
    <g id="patch_7">
     <path d="M 703.116 90.996 
L 888.756 90.996 
Q 891.156 90.996 891.156 88.596 
L 891.156 33.276 
Q 891.156 30.876 888.756 30.876 
L 703.116 30.876 
Q 700.716 30.876 700.716 33.276 
L 700.716 88.596 
Q 700.716 90.996 703.116 90.996 
z
" style="fill:#ffffff;opacity:0.8;stroke:#cccccc;stroke-linejoin:miter;"/>
    </g>
    <g id="PathCollection_4">
     <g>
      <use style="fill:#0080ff;stroke:#0080ff;" x="717.516" xlink:href="#me7c68afaa8" y="41.646"/>
     </g>
    </g>
    <g id="text_21">
     <!-- $\tau/(l_p/\sigma) = 0.10, l_p/\sigma=10$ -->
     <defs>
      <path d="M 18.3125 75.984375 
L 27.296875 75.984375 
L 12.5 0 
L 3.515625 0 
z
" id="DejaVuSans-Oblique-108"/>
      <path d="M 49.609375 33.6875 
Q 49.609375 40.875 46.484375 44.671875 
Q 43.359375 48.484375 37.5 48.484375 
Q 33.5 48.484375 29.859375 46.4375 
Q 26.21875 44.390625 23.390625 40.484375 
Q 20.609375 36.625 18.9375 31.15625 
Q 17.28125 25.6875 17.28125 20.3125 
Q 17.28125 13.484375 20.40625 9.796875 
Q 23.53125 6.109375 29.296875 6.109375 
Q 33.546875 6.109375 37.1875 8.109375 
Q 40.828125 10.109375 43.40625 13.921875 
Q 46.1875 17.921875 47.890625 23.34375 
Q 49.609375 28.765625 49.609375 33.6875 
z
M 21.78125 46.390625 
Q 25.390625 51.125 30.296875 53.5625 
Q 35.203125 56 41.21875 56 
Q 49.609375 56 54.25 50.5 
Q 58.890625 45.015625 58.890625 35.109375 
Q 58.890625 27 56 19.65625 
Q 53.125 12.3125 47.703125 6.5 
Q 44.09375 2.640625 39.546875 0.609375 
Q 35.015625 -1.421875 29.984375 -1.421875 
Q 24.171875 -1.421875 20.21875 1 
Q 16.265625 3.421875 14.3125 8.203125 
L 8.6875 -20.796875 
L -0.296875 -20.796875 
L 14.40625 54.6875 
L 23.390625 54.6875 
z
" id="DejaVuSans-Oblique-112"/>
     </defs>
     <g transform="translate(739.116 44.796)scale(0.12 -0.12)">
      <use transform="translate(0 0.015625)" xlink:href="#DejaVuSans-Oblique-964"/>
      <use transform="translate(60.205078 0.015625)" xlink:href="#DejaVuSans-47"/>
      <use transform="translate(93.896484 0.015625)" xlink:href="#DejaVuSans-40"/>
      <use transform="translate(132.910156 0.015625)" xlink:href="#DejaVuSans-Oblique-108"/>
      <use transform="translate(160.693359 -16.390625)scale(0.7)" xlink:href="#DejaVuSans-Oblique-112"/>
      <use transform="translate(207.861328 0.015625)" xlink:href="#DejaVuSans-47"/>
      <use transform="translate(241.552734 0.015625)" xlink:href="#DejaVuSans-Oblique-963"/>
      <use transform="translate(304.931641 0.015625)" xlink:href="#DejaVuSans-41"/>
      <use transform="translate(363.427734 0.015625)" xlink:href="#DejaVuSans-61"/>
      <use transform="translate(466.699219 0.015625)" xlink:href="#DejaVuSans-48"/>
      <use transform="translate(530.322266 0.015625)" xlink:href="#DejaVuSans-46"/>
      <use transform="translate(562.109375 0.015625)" xlink:href="#DejaVuSans-49"/>
      <use transform="translate(625.732422 0.015625)" xlink:href="#DejaVuSans-48"/>
      <use transform="translate(689.355469 0.015625)" xlink:href="#DejaVuSans-44"/>
      <use transform="translate(740.625 0.015625)" xlink:href="#DejaVuSans-Oblique-108"/>
      <use transform="translate(768.408203 -16.390625)scale(0.7)" xlink:href="#DejaVuSans-Oblique-112"/>
      <use transform="translate(815.576172 0.015625)" xlink:href="#DejaVuSans-47"/>
      <use transform="translate(849.267578 0.015625)" xlink:href="#DejaVuSans-Oblique-963"/>
      <use transform="translate(932.128906 0.015625)" xlink:href="#DejaVuSans-61"/>
      <use transform="translate(1035.400391 0.015625)" xlink:href="#DejaVuSans-49"/>
      <use transform="translate(1099.023438 0.015625)" xlink:href="#DejaVuSans-48"/>
     </g>
    </g>
    <g id="PathCollection_5">
     <g>
      <use style="fill:#7dff7a;stroke:#7dff7a;" x="717.516" xlink:href="#m8f5ba35e2d" y="60.486"/>
     </g>
    </g>
    <g id="text_22">
     <!-- $\tau/(l_p/\sigma) = 0.10, l_p/\sigma=40$ -->
     <g transform="translate(739.116 63.636)scale(0.12 -0.12)">
      <use transform="translate(0 0.015625)" xlink:href="#DejaVuSans-Oblique-964"/>
      <use transform="translate(60.205078 0.015625)" xlink:href="#DejaVuSans-47"/>
      <use transform="translate(93.896484 0.015625)" xlink:href="#DejaVuSans-40"/>
      <use transform="translate(132.910156 0.015625)" xlink:href="#DejaVuSans-Oblique-108"/>
      <use transform="translate(160.693359 -16.390625)scale(0.7)" xlink:href="#DejaVuSans-Oblique-112"/>
      <use transform="translate(207.861328 0.015625)" xlink:href="#DejaVuSans-47"/>
      <use transform="translate(241.552734 0.015625)" xlink:href="#DejaVuSans-Oblique-963"/>
      <use transform="translate(304.931641 0.015625)" xlink:href="#DejaVuSans-41"/>
      <use transform="translate(363.427734 0.015625)" xlink:href="#DejaVuSans-61"/>
      <use transform="translate(466.699219 0.015625)" xlink:href="#DejaVuSans-48"/>
      <use transform="translate(530.322266 0.015625)" xlink:href="#DejaVuSans-46"/>
      <use transform="translate(562.109375 0.015625)" xlink:href="#DejaVuSans-49"/>
      <use transform="translate(625.732422 0.015625)" xlink:href="#DejaVuSans-48"/>
      <use transform="translate(689.355469 0.015625)" xlink:href="#DejaVuSans-44"/>
      <use transform="translate(740.625 0.015625)" xlink:href="#DejaVuSans-Oblique-108"/>
      <use transform="translate(768.408203 -16.390625)scale(0.7)" xlink:href="#DejaVuSans-Oblique-112"/>
      <use transform="translate(815.576172 0.015625)" xlink:href="#DejaVuSans-47"/>
      <use transform="translate(849.267578 0.015625)" xlink:href="#DejaVuSans-Oblique-963"/>
      <use transform="translate(932.128906 0.015625)" xlink:href="#DejaVuSans-61"/>
      <use transform="translate(1035.400391 0.015625)" xlink:href="#DejaVuSans-52"/>
      <use transform="translate(1099.023438 0.015625)" xlink:href="#DejaVuSans-48"/>
     </g>
    </g>
    <g id="PathCollection_6">
     <g>
      <use style="fill:#ff9400;stroke:#ff9400;" x="717.516" xlink:href="#m1cd5e3f783" y="79.326"/>
     </g>
    </g>
    <g id="text_23">
     <!-- $\tau/(l_p/\sigma) = 0.10, l_p/\sigma=100$ -->
     <g transform="translate(739.116 82.476)scale(0.12 -0.12)">
      <use transform="translate(0 0.015625)" xlink:href="#DejaVuSans-Oblique-964"/>
      <use transform="translate(60.205078 0.015625)" xlink:href="#DejaVuSans-47"/>
      <use transform="translate(93.896484 0.015625)" xlink:href="#DejaVuSans-40"/>
      <use transform="translate(132.910156 0.015625)" xlink:href="#DejaVuSans-Oblique-108"/>
      <use transform="translate(160.693359 -16.390625)scale(0.7)" xlink:href="#DejaVuSans-Oblique-112"/>
      <use transform="translate(207.861328 0.015625)" xlink:href="#DejaVuSans-47"/>
      <use transform="translate(241.552734 0.015625)" xlink:href="#DejaVuSans-Oblique-963"/>
      <use transform="translate(304.931641 0.015625)" xlink:href="#DejaVuSans-41"/>
      <use transform="translate(363.427734 0.015625)" xlink:href="#DejaVuSans-61"/>
      <use transform="translate(466.699219 0.015625)" xlink:href="#DejaVuSans-48"/>
      <use transform="translate(530.322266 0.015625)" xlink:href="#DejaVuSans-46"/>
      <use transform="translate(562.109375 0.015625)" xlink:href="#DejaVuSans-49"/>
      <use transform="translate(625.732422 0.015625)" xlink:href="#DejaVuSans-48"/>
      <use transform="translate(689.355469 0.015625)" xlink:href="#DejaVuSans-44"/>
      <use transform="translate(740.625 0.015625)" xlink:href="#DejaVuSans-Oblique-108"/>
      <use transform="translate(768.408203 -16.390625)scale(0.7)" xlink:href="#DejaVuSans-Oblique-112"/>
      <use transform="translate(815.576172 0.015625)" xlink:href="#DejaVuSans-47"/>
      <use transform="translate(849.267578 0.015625)" xlink:href="#DejaVuSans-Oblique-963"/>
      <use transform="translate(932.128906 0.015625)" xlink:href="#DejaVuSans-61"/>
      <use transform="translate(1035.400391 0.015625)" xlink:href="#DejaVuSans-49"/>
      <use transform="translate(1099.023438 0.015625)" xlink:href="#DejaVuSans-48"/>
      <use transform="translate(1162.646484 0.015625)" xlink:href="#DejaVuSans-48"/>
     </g>
    </g>
   </g>
  </g>
 </g>
 <defs>
  <clipPath id="p37e72f8c83">
   <rect height="417.9168" width="818.9424" x="78.2136" y="24.876"/>
  </clipPath>
 </defs>
</svg>
