<?xml version="1.0" encoding="utf-8" standalone="no"?>
<!DOCTYPE svg PUBLIC "-//W3C//DTD SVG 1.1//EN"
  "http://www.w3.org/Graphics/SVG/1.1/DTD/svg11.dtd">
<!-- Created with matplotlib (https://matplotlib.org/) -->
<svg height="497.52pt" version="1.1" viewBox="0 0 920.16 497.52" width="920.16pt" xmlns="http://www.w3.org/2000/svg" xmlns:xlink="http://www.w3.org/1999/xlink">
 <defs>
  <style type="text/css">
*{stroke-linecap:butt;stroke-linejoin:round;}
  </style>
 </defs>
 <g id="figure_1">
  <g id="patch_1">
   <path d="M 0 497.52 
L 920.16 497.52 
L 920.16 0 
L 0 0 
z
" style="fill:#ffffff;"/>
  </g>
  <g id="axes_1">
   <g id="patch_2">
    <path d="M 96.6168 445.2804 
L 915.5592 445.2804 
L 915.5592 29.8512 
L 96.6168 29.8512 
z
" style="fill:#ffffff;"/>
   </g>
   <g id="PathCollection_1">
    <defs>
     <path d="M 0 3 
C 0.795609 3 1.55874 2.683901 2.12132 2.12132 
C 2.683901 1.55874 3 0.795609 3 0 
C 3 -0.795609 2.683901 -1.55874 2.12132 -2.12132 
C 1.55874 -2.683901 0.795609 -3 0 -3 
C -0.795609 -3 -1.55874 -2.683901 -2.12132 -2.12132 
C -2.683901 -1.55874 -3 -0.795609 -3 0 
C -3 0.795609 -2.683901 1.55874 -2.12132 2.12132 
C -1.55874 2.683901 -0.795609 3 0 3 
z
" id="m29f511c476" style="stroke:#0080ff;"/>
    </defs>
    <g clip-path="url(#p8882dd1eee)">
     <use style="fill:#0080ff;stroke:#0080ff;" x="143.379731" xlink:href="#m29f511c476" y="193.895951"/>
     <use style="fill:#0080ff;stroke:#0080ff;" x="188.718265" xlink:href="#m29f511c476" y="173.257057"/>
     <use style="fill:#0080ff;stroke:#0080ff;" x="203.831109" xlink:href="#m29f511c476" y="160.235364"/>
     <use style="fill:#0080ff;stroke:#0080ff;" x="218.943954" xlink:href="#m29f511c476" y="150.638824"/>
     <use style="fill:#0080ff;stroke:#0080ff;" x="234.056799" xlink:href="#m29f511c476" y="137.617131"/>
     <use style="fill:#0080ff;stroke:#0080ff;" x="249.169643" xlink:href="#m29f511c476" y="124.595438"/>
     <use style="fill:#0080ff;stroke:#0080ff;" x="264.282488" xlink:href="#m29f511c476" y="111.109862"/>
     <use style="fill:#0080ff;stroke:#0080ff;" x="279.395332" xlink:href="#m29f511c476" y="102.166015"/>
     <use style="fill:#0080ff;stroke:#0080ff;" x="294.508177" xlink:href="#m29f511c476" y="91.17116"/>
     <use style="fill:#0080ff;stroke:#0080ff;" x="309.621021" xlink:href="#m29f511c476" y="81.47974"/>
     <use style="fill:#0080ff;stroke:#0080ff;" x="324.733866" xlink:href="#m29f511c476" y="73.196231"/>
     <use style="fill:#0080ff;stroke:#0080ff;" x="339.84671" xlink:href="#m29f511c476" y="65.875688"/>
     <use style="fill:#0080ff;stroke:#0080ff;" x="354.959555" xlink:href="#m29f511c476" y="59.738152"/>
     <use style="fill:#0080ff;stroke:#0080ff;" x="370.072399" xlink:href="#m29f511c476" y="55.794655"/>
     <use style="fill:#0080ff;stroke:#0080ff;" x="385.185244" xlink:href="#m29f511c476" y="53.936285"/>
     <use style="fill:#0080ff;stroke:#0080ff;" x="400.298088" xlink:href="#m29f511c476" y="52.255298"/>
     <use style="fill:#0080ff;stroke:#0080ff;" x="415.410933" xlink:href="#m29f511c476" y="52.106081"/>
     <use style="fill:#0080ff;stroke:#0080ff;" x="430.523777" xlink:href="#m29f511c476" y="53.082214"/>
     <use style="fill:#0080ff;stroke:#0080ff;" x="445.636622" xlink:href="#m29f511c476" y="55.23631"/>
     <use style="fill:#0080ff;stroke:#0080ff;" x="460.749466" xlink:href="#m29f511c476" y="59.326219"/>
     <use style="fill:#0080ff;stroke:#0080ff;" x="475.862311" xlink:href="#m29f511c476" y="61.548027"/>
     <use style="fill:#0080ff;stroke:#0080ff;" x="490.975155" xlink:href="#m29f511c476" y="67.001718"/>
     <use style="fill:#0080ff;stroke:#0080ff;" x="506.088" xlink:href="#m29f511c476" y="71.760567"/>
     <use style="fill:#0080ff;stroke:#0080ff;" x="521.200845" xlink:href="#m29f511c476" y="77.87406"/>
     <use style="fill:#0080ff;stroke:#0080ff;" x="536.313689" xlink:href="#m29f511c476" y="82.154193"/>
     <use style="fill:#0080ff;stroke:#0080ff;" x="551.426534" xlink:href="#m29f511c476" y="87.640613"/>
     <use style="fill:#0080ff;stroke:#0080ff;" x="566.539378" xlink:href="#m29f511c476" y="96.444001"/>
     <use style="fill:#0080ff;stroke:#0080ff;" x="581.652223" xlink:href="#m29f511c476" y="100.401381"/>
     <use style="fill:#0080ff;stroke:#0080ff;" x="596.765067" xlink:href="#m29f511c476" y="107.009678"/>
     <use style="fill:#0080ff;stroke:#0080ff;" x="611.877912" xlink:href="#m29f511c476" y="112.291782"/>
     <use style="fill:#0080ff;stroke:#0080ff;" x="626.990756" xlink:href="#m29f511c476" y="117.293981"/>
     <use style="fill:#0080ff;stroke:#0080ff;" x="642.103601" xlink:href="#m29f511c476" y="127.104003"/>
     <use style="fill:#0080ff;stroke:#0080ff;" x="657.216445" xlink:href="#m29f511c476" y="128.209401"/>
     <use style="fill:#0080ff;stroke:#0080ff;" x="672.32929" xlink:href="#m29f511c476" y="133.425083"/>
     <use style="fill:#0080ff;stroke:#0080ff;" x="687.442134" xlink:href="#m29f511c476" y="140.670266"/>
     <use style="fill:#0080ff;stroke:#0080ff;" x="702.554979" xlink:href="#m29f511c476" y="154.830873"/>
     <use style="fill:#0080ff;stroke:#0080ff;" x="717.667823" xlink:href="#m29f511c476" y="150.638824"/>
     <use style="fill:#0080ff;stroke:#0080ff;" x="732.780668" xlink:href="#m29f511c476" y="167.852566"/>
     <use style="fill:#0080ff;stroke:#0080ff;" x="747.893512" xlink:href="#m29f511c476" y="163.660517"/>
     <use style="fill:#0080ff;stroke:#0080ff;" x="763.006357" xlink:href="#m29f511c476" y="173.257057"/>
     <use style="fill:#0080ff;stroke:#0080ff;" x="778.119201" xlink:href="#m29f511c476" y="180.874259"/>
     <use style="fill:#0080ff;stroke:#0080ff;" x="793.232046" xlink:href="#m29f511c476" y="180.874259"/>
     <use style="fill:#0080ff;stroke:#0080ff;" x="853.683424" xlink:href="#m29f511c476" y="193.895951"/>
     <use style="fill:#0080ff;stroke:#0080ff;" x="868.796269" xlink:href="#m29f511c476" y="193.895951"/>
    </g>
   </g>
   <g id="PathCollection_2">
    <defs>
     <path d="M 0 3 
C 0.795609 3 1.55874 2.683901 2.12132 2.12132 
C 2.683901 1.55874 3 0.795609 3 0 
C 3 -0.795609 2.683901 -1.55874 2.12132 -2.12132 
C 1.55874 -2.683901 0.795609 -3 0 -3 
C -0.795609 -3 -1.55874 -2.683901 -2.12132 -2.12132 
C -2.683901 -1.55874 -3 -0.795609 -3 0 
C -3 0.795609 -2.683901 1.55874 -2.12132 2.12132 
C -1.55874 2.683901 -0.795609 3 0 3 
z
" id="m6abddb915f" style="stroke:#7dff7a;"/>
    </defs>
    <g clip-path="url(#p8882dd1eee)">
     <use style="fill:#7dff7a;stroke:#7dff7a;" x="358.517823" xlink:href="#m6abddb915f" y="144.118524"/>
     <use style="fill:#7dff7a;stroke:#7dff7a;" x="362.196712" xlink:href="#m6abddb915f" y="131.096832"/>
     <use style="fill:#7dff7a;stroke:#7dff7a;" x="365.875601" xlink:href="#m6abddb915f" y="123.47963"/>
     <use style="fill:#7dff7a;stroke:#7dff7a;" x="369.55449" xlink:href="#m6abddb915f" y="123.47963"/>
     <use style="fill:#7dff7a;stroke:#7dff7a;" x="373.233379" xlink:href="#m6abddb915f" y="123.47963"/>
     <use style="fill:#7dff7a;stroke:#7dff7a;" x="376.912268" xlink:href="#m6abddb915f" y="89.819042"/>
     <use style="fill:#7dff7a;stroke:#7dff7a;" x="380.591156" xlink:href="#m6abddb915f" y="86.923116"/>
     <use style="fill:#7dff7a;stroke:#7dff7a;" x="384.270045" xlink:href="#m6abddb915f" y="86.923116"/>
     <use style="fill:#7dff7a;stroke:#7dff7a;" x="387.948934" xlink:href="#m6abddb915f" y="77.871146"/>
     <use style="fill:#7dff7a;stroke:#7dff7a;" x="391.627823" xlink:href="#m6abddb915f" y="74.818011"/>
     <use style="fill:#7dff7a;stroke:#7dff7a;" x="395.306712" xlink:href="#m6abddb915f" y="68.164422"/>
     <use style="fill:#7dff7a;stroke:#7dff7a;" x="398.985601" xlink:href="#m6abddb915f" y="67.837695"/>
     <use style="fill:#7dff7a;stroke:#7dff7a;" x="402.664489" xlink:href="#m6abddb915f" y="59.793513"/>
     <use style="fill:#7dff7a;stroke:#7dff7a;" x="406.343378" xlink:href="#m6abddb915f" y="57.60427"/>
     <use style="fill:#7dff7a;stroke:#7dff7a;" x="410.022267" xlink:href="#m6abddb915f" y="58.176487"/>
     <use style="fill:#7dff7a;stroke:#7dff7a;" x="413.701156" xlink:href="#m6abddb915f" y="54.494861"/>
     <use style="fill:#7dff7a;stroke:#7dff7a;" x="417.380045" xlink:href="#m6abddb915f" y="54.023212"/>
     <use style="fill:#7dff7a;stroke:#7dff7a;" x="421.058934" xlink:href="#m6abddb915f" y="55.813741"/>
     <use style="fill:#7dff7a;stroke:#7dff7a;" x="424.737822" xlink:href="#m6abddb915f" y="52.675408"/>
     <use style="fill:#7dff7a;stroke:#7dff7a;" x="428.416711" xlink:href="#m6abddb915f" y="52.106081"/>
     <use style="fill:#7dff7a;stroke:#7dff7a;" x="432.0956" xlink:href="#m6abddb915f" y="57.048968"/>
     <use style="fill:#7dff7a;stroke:#7dff7a;" x="435.774489" xlink:href="#m6abddb915f" y="59.583607"/>
     <use style="fill:#7dff7a;stroke:#7dff7a;" x="439.453378" xlink:href="#m6abddb915f" y="60.00579"/>
     <use style="fill:#7dff7a;stroke:#7dff7a;" x="443.132267" xlink:href="#m6abddb915f" y="60.657404"/>
     <use style="fill:#7dff7a;stroke:#7dff7a;" x="446.811155" xlink:href="#m6abddb915f" y="62.271947"/>
     <use style="fill:#7dff7a;stroke:#7dff7a;" x="450.490044" xlink:href="#m6abddb915f" y="62.514355"/>
     <use style="fill:#7dff7a;stroke:#7dff7a;" x="454.168933" xlink:href="#m6abddb915f" y="67.200809"/>
     <use style="fill:#7dff7a;stroke:#7dff7a;" x="457.847822" xlink:href="#m6abddb915f" y="70.253944"/>
     <use style="fill:#7dff7a;stroke:#7dff7a;" x="461.526711" xlink:href="#m6abddb915f" y="74.818011"/>
     <use style="fill:#7dff7a;stroke:#7dff7a;" x="465.2056" xlink:href="#m6abddb915f" y="81.518625"/>
     <use style="fill:#7dff7a;stroke:#7dff7a;" x="468.884488" xlink:href="#m6abddb915f" y="82.910842"/>
     <use style="fill:#7dff7a;stroke:#7dff7a;" x="472.563377" xlink:href="#m6abddb915f" y="82.20184"/>
     <use style="fill:#7dff7a;stroke:#7dff7a;" x="476.242266" xlink:href="#m6abddb915f" y="88.803317"/>
     <use style="fill:#7dff7a;stroke:#7dff7a;" x="479.921155" xlink:href="#m6abddb915f" y="85.21409"/>
     <use style="fill:#7dff7a;stroke:#7dff7a;" x="483.600044" xlink:href="#m6abddb915f" y="102.840735"/>
     <use style="fill:#7dff7a;stroke:#7dff7a;" x="487.278933" xlink:href="#m6abddb915f" y="110.457937"/>
     <use style="fill:#7dff7a;stroke:#7dff7a;" x="490.957821" xlink:href="#m6abddb915f" y="107.562011"/>
     <use style="fill:#7dff7a;stroke:#7dff7a;" x="494.63671" xlink:href="#m6abddb915f" y="118.075139"/>
     <use style="fill:#7dff7a;stroke:#7dff7a;" x="498.315599" xlink:href="#m6abddb915f" y="118.075139"/>
     <use style="fill:#7dff7a;stroke:#7dff7a;" x="501.994488" xlink:href="#m6abddb915f" y="123.47963"/>
     <use style="fill:#7dff7a;stroke:#7dff7a;" x="505.673377" xlink:href="#m6abddb915f" y="131.096832"/>
     <use style="fill:#7dff7a;stroke:#7dff7a;" x="509.352266" xlink:href="#m6abddb915f" y="144.118524"/>
     <use style="fill:#7dff7a;stroke:#7dff7a;" x="516.710043" xlink:href="#m6abddb915f" y="123.47963"/>
     <use style="fill:#7dff7a;stroke:#7dff7a;" x="520.388932" xlink:href="#m6abddb915f" y="144.118524"/>
     <use style="fill:#7dff7a;stroke:#7dff7a;" x="524.067821" xlink:href="#m6abddb915f" y="131.096832"/>
     <use style="fill:#7dff7a;stroke:#7dff7a;" x="527.74671" xlink:href="#m6abddb915f" y="144.118524"/>
     <use style="fill:#7dff7a;stroke:#7dff7a;" x="531.425599" xlink:href="#m6abddb915f" y="144.118524"/>
    </g>
   </g>
   <g id="PathCollection_3">
    <defs>
     <path d="M 0 3 
C 0.795609 3 1.55874 2.683901 2.12132 2.12132 
C 2.683901 1.55874 3 0.795609 3 0 
C 3 -0.795609 2.683901 -1.55874 2.12132 -2.12132 
C 1.55874 -2.683901 0.795609 -3 0 -3 
C -0.795609 -3 -1.55874 -2.683901 -2.12132 -2.12132 
C -2.683901 -1.55874 -3 -0.795609 -3 0 
C -3 0.795609 -2.683901 1.55874 -2.12132 2.12132 
C -1.55874 2.683901 -0.795609 3 0 3 
z
" id="m651054978a" style="stroke:#ff9400;"/>
    </defs>
    <g clip-path="url(#p8882dd1eee)">
     <use style="fill:#ff9400;stroke:#ff9400;" x="411.044969" xlink:href="#m651054978a" y="85.766669"/>
     <use style="fill:#ff9400;stroke:#ff9400;" x="412.566829" xlink:href="#m651054978a" y="98.788362"/>
     <use style="fill:#ff9400;stroke:#ff9400;" x="414.088689" xlink:href="#m651054978a" y="98.788362"/>
     <use style="fill:#ff9400;stroke:#ff9400;" x="415.610549" xlink:href="#m651054978a" y="68.552927"/>
     <use style="fill:#ff9400;stroke:#ff9400;" x="416.371479" xlink:href="#m651054978a" y="98.788362"/>
     <use style="fill:#ff9400;stroke:#ff9400;" x="417.13241" xlink:href="#m651054978a" y="78.149467"/>
     <use style="fill:#ff9400;stroke:#ff9400;" x="417.89334" xlink:href="#m651054978a" y="68.552927"/>
     <use style="fill:#ff9400;stroke:#ff9400;" x="418.65427" xlink:href="#m651054978a" y="78.149467"/>
     <use style="fill:#ff9400;stroke:#ff9400;" x="419.4152" xlink:href="#m651054978a" y="78.149467"/>
     <use style="fill:#ff9400;stroke:#ff9400;" x="420.17613" xlink:href="#m651054978a" y="72.744976"/>
     <use style="fill:#ff9400;stroke:#ff9400;" x="420.93706" xlink:href="#m651054978a" y="78.149467"/>
     <use style="fill:#ff9400;stroke:#ff9400;" x="421.69799" xlink:href="#m651054978a" y="72.744976"/>
     <use style="fill:#ff9400;stroke:#ff9400;" x="422.45892" xlink:href="#m651054978a" y="72.744976"/>
     <use style="fill:#ff9400;stroke:#ff9400;" x="423.21985" xlink:href="#m651054978a" y="68.552927"/>
     <use style="fill:#ff9400;stroke:#ff9400;" x="423.98078" xlink:href="#m651054978a" y="68.552927"/>
     <use style="fill:#ff9400;stroke:#ff9400;" x="424.74171" xlink:href="#m651054978a" y="59.723283"/>
     <use style="fill:#ff9400;stroke:#ff9400;" x="425.50264" xlink:href="#m651054978a" y="65.127774"/>
     <use style="fill:#ff9400;stroke:#ff9400;" x="426.26357" xlink:href="#m651054978a" y="55.531235"/>
     <use style="fill:#ff9400;stroke:#ff9400;" x="427.0245" xlink:href="#m651054978a" y="55.531235"/>
     <use style="fill:#ff9400;stroke:#ff9400;" x="427.78543" xlink:href="#m651054978a" y="62.231848"/>
     <use style="fill:#ff9400;stroke:#ff9400;" x="428.54636" xlink:href="#m651054978a" y="78.149467"/>
     <use style="fill:#ff9400;stroke:#ff9400;" x="429.30729" xlink:href="#m651054978a" y="52.106081"/>
     <use style="fill:#ff9400;stroke:#ff9400;" x="430.06822" xlink:href="#m651054978a" y="57.510572"/>
     <use style="fill:#ff9400;stroke:#ff9400;" x="430.82915" xlink:href="#m651054978a" y="62.231848"/>
     <use style="fill:#ff9400;stroke:#ff9400;" x="431.59008" xlink:href="#m651054978a" y="59.723283"/>
     <use style="fill:#ff9400;stroke:#ff9400;" x="432.35101" xlink:href="#m651054978a" y="59.723283"/>
     <use style="fill:#ff9400;stroke:#ff9400;" x="433.11194" xlink:href="#m651054978a" y="57.510572"/>
     <use style="fill:#ff9400;stroke:#ff9400;" x="433.87287" xlink:href="#m651054978a" y="62.231848"/>
     <use style="fill:#ff9400;stroke:#ff9400;" x="434.6338" xlink:href="#m651054978a" y="68.552927"/>
     <use style="fill:#ff9400;stroke:#ff9400;" x="435.39473" xlink:href="#m651054978a" y="62.231848"/>
     <use style="fill:#ff9400;stroke:#ff9400;" x="436.15566" xlink:href="#m651054978a" y="72.744976"/>
     <use style="fill:#ff9400;stroke:#ff9400;" x="436.91659" xlink:href="#m651054978a" y="68.552927"/>
     <use style="fill:#ff9400;stroke:#ff9400;" x="437.67752" xlink:href="#m651054978a" y="85.766669"/>
     <use style="fill:#ff9400;stroke:#ff9400;" x="438.43845" xlink:href="#m651054978a" y="78.149467"/>
     <use style="fill:#ff9400;stroke:#ff9400;" x="439.19938" xlink:href="#m651054978a" y="72.744976"/>
     <use style="fill:#ff9400;stroke:#ff9400;" x="439.96031" xlink:href="#m651054978a" y="85.766669"/>
     <use style="fill:#ff9400;stroke:#ff9400;" x="440.72124" xlink:href="#m651054978a" y="85.766669"/>
     <use style="fill:#ff9400;stroke:#ff9400;" x="441.482171" xlink:href="#m651054978a" y="78.149467"/>
     <use style="fill:#ff9400;stroke:#ff9400;" x="443.004031" xlink:href="#m651054978a" y="98.788362"/>
     <use style="fill:#ff9400;stroke:#ff9400;" x="443.764961" xlink:href="#m651054978a" y="98.788362"/>
     <use style="fill:#ff9400;stroke:#ff9400;" x="444.525891" xlink:href="#m651054978a" y="85.766669"/>
     <use style="fill:#ff9400;stroke:#ff9400;" x="445.286821" xlink:href="#m651054978a" y="85.766669"/>
     <use style="fill:#ff9400;stroke:#ff9400;" x="447.569611" xlink:href="#m651054978a" y="85.766669"/>
     <use style="fill:#ff9400;stroke:#ff9400;" x="448.330541" xlink:href="#m651054978a" y="98.788362"/>
    </g>
   </g>
   <g id="matplotlib.axis_1">
    <g id="xtick_1">
     <g id="line2d_1">
      <defs>
       <path d="M 0 0 
L 0 3.5 
" id="m67a83559a9" style="stroke:#000000;stroke-width:0.8;"/>
      </defs>
      <g>
       <use style="stroke:#000000;stroke-width:0.8;" x="242.373883" xlink:href="#m67a83559a9" y="445.2804"/>
      </g>
     </g>
     <g id="text_1">
      <!-- 0.4 -->
      <defs>
       <path d="M 31.78125 66.40625 
Q 24.171875 66.40625 20.328125 58.90625 
Q 16.5 51.421875 16.5 36.375 
Q 16.5 21.390625 20.328125 13.890625 
Q 24.171875 6.390625 31.78125 6.390625 
Q 39.453125 6.390625 43.28125 13.890625 
Q 47.125 21.390625 47.125 36.375 
Q 47.125 51.421875 43.28125 58.90625 
Q 39.453125 66.40625 31.78125 66.40625 
z
M 31.78125 74.21875 
Q 44.046875 74.21875 50.515625 64.515625 
Q 56.984375 54.828125 56.984375 36.375 
Q 56.984375 17.96875 50.515625 8.265625 
Q 44.046875 -1.421875 31.78125 -1.421875 
Q 19.53125 -1.421875 13.0625 8.265625 
Q 6.59375 17.96875 6.59375 36.375 
Q 6.59375 54.828125 13.0625 64.515625 
Q 19.53125 74.21875 31.78125 74.21875 
z
" id="DejaVuSans-48"/>
       <path d="M 10.6875 12.40625 
L 21 12.40625 
L 21 0 
L 10.6875 0 
z
" id="DejaVuSans-46"/>
       <path d="M 37.796875 64.3125 
L 12.890625 25.390625 
L 37.796875 25.390625 
z
M 35.203125 72.90625 
L 47.609375 72.90625 
L 47.609375 25.390625 
L 58.015625 25.390625 
L 58.015625 17.1875 
L 47.609375 17.1875 
L 47.609375 0 
L 37.796875 0 
L 37.796875 17.1875 
L 4.890625 17.1875 
L 4.890625 26.703125 
z
" id="DejaVuSans-52"/>
      </defs>
      <g transform="translate(226.470758 467.477275)scale(0.2 -0.2)">
       <use xlink:href="#DejaVuSans-48"/>
       <use x="63.623047" xlink:href="#DejaVuSans-46"/>
       <use x="95.410156" xlink:href="#DejaVuSans-52"/>
      </g>
     </g>
    </g>
    <g id="xtick_2">
     <g id="line2d_2">
      <g>
       <use style="stroke:#000000;stroke-width:0.8;" x="400.073394" xlink:href="#m67a83559a9" y="445.2804"/>
      </g>
     </g>
     <g id="text_2">
      <!-- 0.5 -->
      <defs>
       <path d="M 10.796875 72.90625 
L 49.515625 72.90625 
L 49.515625 64.59375 
L 19.828125 64.59375 
L 19.828125 46.734375 
Q 21.96875 47.46875 24.109375 47.828125 
Q 26.265625 48.1875 28.421875 48.1875 
Q 40.625 48.1875 47.75 41.5 
Q 54.890625 34.8125 54.890625 23.390625 
Q 54.890625 11.625 47.5625 5.09375 
Q 40.234375 -1.421875 26.90625 -1.421875 
Q 22.3125 -1.421875 17.546875 -0.640625 
Q 12.796875 0.140625 7.71875 1.703125 
L 7.71875 11.625 
Q 12.109375 9.234375 16.796875 8.0625 
Q 21.484375 6.890625 26.703125 6.890625 
Q 35.15625 6.890625 40.078125 11.328125 
Q 45.015625 15.765625 45.015625 23.390625 
Q 45.015625 31 40.078125 35.4375 
Q 35.15625 39.890625 26.703125 39.890625 
Q 22.75 39.890625 18.8125 39.015625 
Q 14.890625 38.140625 10.796875 36.28125 
z
" id="DejaVuSans-53"/>
      </defs>
      <g transform="translate(384.170269 467.477275)scale(0.2 -0.2)">
       <use xlink:href="#DejaVuSans-48"/>
       <use x="63.623047" xlink:href="#DejaVuSans-46"/>
       <use x="95.410156" xlink:href="#DejaVuSans-53"/>
      </g>
     </g>
    </g>
    <g id="xtick_3">
     <g id="line2d_3">
      <g>
       <use style="stroke:#000000;stroke-width:0.8;" x="557.772904" xlink:href="#m67a83559a9" y="445.2804"/>
      </g>
     </g>
     <g id="text_3">
      <!-- 0.6 -->
      <defs>
       <path d="M 33.015625 40.375 
Q 26.375 40.375 22.484375 35.828125 
Q 18.609375 31.296875 18.609375 23.390625 
Q 18.609375 15.53125 22.484375 10.953125 
Q 26.375 6.390625 33.015625 6.390625 
Q 39.65625 6.390625 43.53125 10.953125 
Q 47.40625 15.53125 47.40625 23.390625 
Q 47.40625 31.296875 43.53125 35.828125 
Q 39.65625 40.375 33.015625 40.375 
z
M 52.59375 71.296875 
L 52.59375 62.3125 
Q 48.875 64.0625 45.09375 64.984375 
Q 41.3125 65.921875 37.59375 65.921875 
Q 27.828125 65.921875 22.671875 59.328125 
Q 17.53125 52.734375 16.796875 39.40625 
Q 19.671875 43.65625 24.015625 45.921875 
Q 28.375 48.1875 33.59375 48.1875 
Q 44.578125 48.1875 50.953125 41.515625 
Q 57.328125 34.859375 57.328125 23.390625 
Q 57.328125 12.15625 50.6875 5.359375 
Q 44.046875 -1.421875 33.015625 -1.421875 
Q 20.359375 -1.421875 13.671875 8.265625 
Q 6.984375 17.96875 6.984375 36.375 
Q 6.984375 53.65625 15.1875 63.9375 
Q 23.390625 74.21875 37.203125 74.21875 
Q 40.921875 74.21875 44.703125 73.484375 
Q 48.484375 72.75 52.59375 71.296875 
z
" id="DejaVuSans-54"/>
      </defs>
      <g transform="translate(541.869779 467.477275)scale(0.2 -0.2)">
       <use xlink:href="#DejaVuSans-48"/>
       <use x="63.623047" xlink:href="#DejaVuSans-46"/>
       <use x="95.410156" xlink:href="#DejaVuSans-54"/>
      </g>
     </g>
    </g>
    <g id="xtick_4">
     <g id="line2d_4">
      <g>
       <use style="stroke:#000000;stroke-width:0.8;" x="715.472415" xlink:href="#m67a83559a9" y="445.2804"/>
      </g>
     </g>
     <g id="text_4">
      <!-- 0.7 -->
      <defs>
       <path d="M 8.203125 72.90625 
L 55.078125 72.90625 
L 55.078125 68.703125 
L 28.609375 0 
L 18.3125 0 
L 43.21875 64.59375 
L 8.203125 64.59375 
z
" id="DejaVuSans-55"/>
      </defs>
      <g transform="translate(699.56929 467.477275)scale(0.2 -0.2)">
       <use xlink:href="#DejaVuSans-48"/>
       <use x="63.623047" xlink:href="#DejaVuSans-46"/>
       <use x="95.410156" xlink:href="#DejaVuSans-55"/>
      </g>
     </g>
    </g>
    <g id="xtick_5">
     <g id="line2d_5">
      <g>
       <use style="stroke:#000000;stroke-width:0.8;" x="873.171925" xlink:href="#m67a83559a9" y="445.2804"/>
      </g>
     </g>
     <g id="text_5">
      <!-- 0.8 -->
      <defs>
       <path d="M 31.78125 34.625 
Q 24.75 34.625 20.71875 30.859375 
Q 16.703125 27.09375 16.703125 20.515625 
Q 16.703125 13.921875 20.71875 10.15625 
Q 24.75 6.390625 31.78125 6.390625 
Q 38.8125 6.390625 42.859375 10.171875 
Q 46.921875 13.96875 46.921875 20.515625 
Q 46.921875 27.09375 42.890625 30.859375 
Q 38.875 34.625 31.78125 34.625 
z
M 21.921875 38.8125 
Q 15.578125 40.375 12.03125 44.71875 
Q 8.5 49.078125 8.5 55.328125 
Q 8.5 64.0625 14.71875 69.140625 
Q 20.953125 74.21875 31.78125 74.21875 
Q 42.671875 74.21875 48.875 69.140625 
Q 55.078125 64.0625 55.078125 55.328125 
Q 55.078125 49.078125 51.53125 44.71875 
Q 48 40.375 41.703125 38.8125 
Q 48.828125 37.15625 52.796875 32.3125 
Q 56.78125 27.484375 56.78125 20.515625 
Q 56.78125 9.90625 50.3125 4.234375 
Q 43.84375 -1.421875 31.78125 -1.421875 
Q 19.734375 -1.421875 13.25 4.234375 
Q 6.78125 9.90625 6.78125 20.515625 
Q 6.78125 27.484375 10.78125 32.3125 
Q 14.796875 37.15625 21.921875 38.8125 
z
M 18.3125 54.390625 
Q 18.3125 48.734375 21.84375 45.5625 
Q 25.390625 42.390625 31.78125 42.390625 
Q 38.140625 42.390625 41.71875 45.5625 
Q 45.3125 48.734375 45.3125 54.390625 
Q 45.3125 60.0625 41.71875 63.234375 
Q 38.140625 66.40625 31.78125 66.40625 
Q 25.390625 66.40625 21.84375 63.234375 
Q 18.3125 60.0625 18.3125 54.390625 
z
" id="DejaVuSans-56"/>
      </defs>
      <g transform="translate(857.2688 467.477275)scale(0.2 -0.2)">
       <use xlink:href="#DejaVuSans-48"/>
       <use x="63.623047" xlink:href="#DejaVuSans-46"/>
       <use x="95.410156" xlink:href="#DejaVuSans-56"/>
      </g>
     </g>
    </g>
    <g id="text_6">
     <!-- $w$ -->
     <defs>
      <path d="M 8.5 54.6875 
L 17.390625 54.6875 
L 19.671875 10.6875 
L 40.09375 54.6875 
L 50.484375 54.6875 
L 53.515625 10.6875 
L 72.90625 54.6875 
L 81.890625 54.6875 
L 56.890625 0 
L 46.390625 0 
L 43.703125 45.3125 
L 22.796875 0 
L 12.203125 0 
z
" id="DejaVuSans-Oblique-119"/>
     </defs>
     <g transform="translate(497.888 490.833525)scale(0.2 -0.2)">
      <use transform="translate(0 0.3125)" xlink:href="#DejaVuSans-Oblique-119"/>
     </g>
    </g>
   </g>
   <g id="matplotlib.axis_2">
    <g id="ytick_1">
     <g id="line2d_6">
      <defs>
       <path d="M 0 0 
L -3.5 0 
" id="m145a9e7a11" style="stroke:#000000;stroke-width:0.8;"/>
      </defs>
      <g>
       <use style="stroke:#000000;stroke-width:0.8;" x="96.6168" xlink:href="#m145a9e7a11" y="427.832715"/>
      </g>
     </g>
     <g id="text_7">
      <!-- −20.0 -->
      <defs>
       <path d="M 10.59375 35.5 
L 73.1875 35.5 
L 73.1875 27.203125 
L 10.59375 27.203125 
z
" id="DejaVuSans-8722"/>
       <path d="M 19.1875 8.296875 
L 53.609375 8.296875 
L 53.609375 0 
L 7.328125 0 
L 7.328125 8.296875 
Q 12.9375 14.109375 22.625 23.890625 
Q 32.328125 33.6875 34.8125 36.53125 
Q 39.546875 41.84375 41.421875 45.53125 
Q 43.3125 49.21875 43.3125 52.78125 
Q 43.3125 58.59375 39.234375 62.25 
Q 35.15625 65.921875 28.609375 65.921875 
Q 23.96875 65.921875 18.8125 64.3125 
Q 13.671875 62.703125 7.8125 59.421875 
L 7.8125 69.390625 
Q 13.765625 71.78125 18.9375 73 
Q 24.125 74.21875 28.421875 74.21875 
Q 39.75 74.21875 46.484375 68.546875 
Q 53.21875 62.890625 53.21875 53.421875 
Q 53.21875 48.921875 51.53125 44.890625 
Q 49.859375 40.875 45.40625 35.40625 
Q 44.1875 33.984375 37.640625 27.21875 
Q 31.109375 20.453125 19.1875 8.296875 
z
" id="DejaVuSans-50"/>
      </defs>
      <g transform="translate(28.326175 435.431153)scale(0.2 -0.2)">
       <use xlink:href="#DejaVuSans-8722"/>
       <use x="83.789062" xlink:href="#DejaVuSans-50"/>
       <use x="147.412109" xlink:href="#DejaVuSans-48"/>
       <use x="211.035156" xlink:href="#DejaVuSans-46"/>
       <use x="242.822266" xlink:href="#DejaVuSans-48"/>
      </g>
     </g>
    </g>
    <g id="ytick_2">
     <g id="line2d_7">
      <g>
       <use style="stroke:#000000;stroke-width:0.8;" x="96.6168" xlink:href="#m145a9e7a11" y="380.866886"/>
      </g>
     </g>
     <g id="text_8">
      <!-- −17.5 -->
      <defs>
       <path d="M 12.40625 8.296875 
L 28.515625 8.296875 
L 28.515625 63.921875 
L 10.984375 60.40625 
L 10.984375 69.390625 
L 28.421875 72.90625 
L 38.28125 72.90625 
L 38.28125 8.296875 
L 54.390625 8.296875 
L 54.390625 0 
L 12.40625 0 
z
" id="DejaVuSans-49"/>
      </defs>
      <g transform="translate(28.326175 388.465324)scale(0.2 -0.2)">
       <use xlink:href="#DejaVuSans-8722"/>
       <use x="83.789062" xlink:href="#DejaVuSans-49"/>
       <use x="147.412109" xlink:href="#DejaVuSans-55"/>
       <use x="211.035156" xlink:href="#DejaVuSans-46"/>
       <use x="242.822266" xlink:href="#DejaVuSans-53"/>
      </g>
     </g>
    </g>
    <g id="ytick_3">
     <g id="line2d_8">
      <g>
       <use style="stroke:#000000;stroke-width:0.8;" x="96.6168" xlink:href="#m145a9e7a11" y="333.901057"/>
      </g>
     </g>
     <g id="text_9">
      <!-- −15.0 -->
      <g transform="translate(28.326175 341.499494)scale(0.2 -0.2)">
       <use xlink:href="#DejaVuSans-8722"/>
       <use x="83.789062" xlink:href="#DejaVuSans-49"/>
       <use x="147.412109" xlink:href="#DejaVuSans-53"/>
       <use x="211.035156" xlink:href="#DejaVuSans-46"/>
       <use x="242.822266" xlink:href="#DejaVuSans-48"/>
      </g>
     </g>
    </g>
    <g id="ytick_4">
     <g id="line2d_9">
      <g>
       <use style="stroke:#000000;stroke-width:0.8;" x="96.6168" xlink:href="#m145a9e7a11" y="286.935228"/>
      </g>
     </g>
     <g id="text_10">
      <!-- −12.5 -->
      <g transform="translate(28.326175 294.533665)scale(0.2 -0.2)">
       <use xlink:href="#DejaVuSans-8722"/>
       <use x="83.789062" xlink:href="#DejaVuSans-49"/>
       <use x="147.412109" xlink:href="#DejaVuSans-50"/>
       <use x="211.035156" xlink:href="#DejaVuSans-46"/>
       <use x="242.822266" xlink:href="#DejaVuSans-53"/>
      </g>
     </g>
    </g>
    <g id="ytick_5">
     <g id="line2d_10">
      <g>
       <use style="stroke:#000000;stroke-width:0.8;" x="96.6168" xlink:href="#m145a9e7a11" y="239.969398"/>
      </g>
     </g>
     <g id="text_11">
      <!-- −10.0 -->
      <g transform="translate(28.326175 247.567836)scale(0.2 -0.2)">
       <use xlink:href="#DejaVuSans-8722"/>
       <use x="83.789062" xlink:href="#DejaVuSans-49"/>
       <use x="147.412109" xlink:href="#DejaVuSans-48"/>
       <use x="211.035156" xlink:href="#DejaVuSans-46"/>
       <use x="242.822266" xlink:href="#DejaVuSans-48"/>
      </g>
     </g>
    </g>
    <g id="ytick_6">
     <g id="line2d_11">
      <g>
       <use style="stroke:#000000;stroke-width:0.8;" x="96.6168" xlink:href="#m145a9e7a11" y="193.003569"/>
      </g>
     </g>
     <g id="text_12">
      <!-- −7.5 -->
      <g transform="translate(41.051175 200.602007)scale(0.2 -0.2)">
       <use xlink:href="#DejaVuSans-8722"/>
       <use x="83.789062" xlink:href="#DejaVuSans-55"/>
       <use x="147.412109" xlink:href="#DejaVuSans-46"/>
       <use x="179.199219" xlink:href="#DejaVuSans-53"/>
      </g>
     </g>
    </g>
    <g id="ytick_7">
     <g id="line2d_12">
      <g>
       <use style="stroke:#000000;stroke-width:0.8;" x="96.6168" xlink:href="#m145a9e7a11" y="146.03774"/>
      </g>
     </g>
     <g id="text_13">
      <!-- −5.0 -->
      <g transform="translate(41.051175 153.636177)scale(0.2 -0.2)">
       <use xlink:href="#DejaVuSans-8722"/>
       <use x="83.789062" xlink:href="#DejaVuSans-53"/>
       <use x="147.412109" xlink:href="#DejaVuSans-46"/>
       <use x="179.199219" xlink:href="#DejaVuSans-48"/>
      </g>
     </g>
    </g>
    <g id="ytick_8">
     <g id="line2d_13">
      <g>
       <use style="stroke:#000000;stroke-width:0.8;" x="96.6168" xlink:href="#m145a9e7a11" y="99.071911"/>
      </g>
     </g>
     <g id="text_14">
      <!-- −2.5 -->
      <g transform="translate(41.051175 106.670348)scale(0.2 -0.2)">
       <use xlink:href="#DejaVuSans-8722"/>
       <use x="83.789062" xlink:href="#DejaVuSans-50"/>
       <use x="147.412109" xlink:href="#DejaVuSans-46"/>
       <use x="179.199219" xlink:href="#DejaVuSans-53"/>
      </g>
     </g>
    </g>
    <g id="ytick_9">
     <g id="line2d_14">
      <g>
       <use style="stroke:#000000;stroke-width:0.8;" x="96.6168" xlink:href="#m145a9e7a11" y="52.106081"/>
      </g>
     </g>
     <g id="text_15">
      <!-- 0.0 -->
      <g transform="translate(57.81055 59.704519)scale(0.2 -0.2)">
       <use xlink:href="#DejaVuSans-48"/>
       <use x="63.623047" xlink:href="#DejaVuSans-46"/>
       <use x="95.410156" xlink:href="#DejaVuSans-48"/>
      </g>
     </g>
    </g>
    <g id="text_16">
     <!-- $\log P(w(\tau) = w)$ -->
     <defs>
      <path d="M 9.421875 75.984375 
L 18.40625 75.984375 
L 18.40625 0 
L 9.421875 0 
z
" id="DejaVuSans-108"/>
      <path d="M 30.609375 48.390625 
Q 23.390625 48.390625 19.1875 42.75 
Q 14.984375 37.109375 14.984375 27.296875 
Q 14.984375 17.484375 19.15625 11.84375 
Q 23.34375 6.203125 30.609375 6.203125 
Q 37.796875 6.203125 41.984375 11.859375 
Q 46.1875 17.53125 46.1875 27.296875 
Q 46.1875 37.015625 41.984375 42.703125 
Q 37.796875 48.390625 30.609375 48.390625 
z
M 30.609375 56 
Q 42.328125 56 49.015625 48.375 
Q 55.71875 40.765625 55.71875 27.296875 
Q 55.71875 13.875 49.015625 6.21875 
Q 42.328125 -1.421875 30.609375 -1.421875 
Q 18.84375 -1.421875 12.171875 6.21875 
Q 5.515625 13.875 5.515625 27.296875 
Q 5.515625 40.765625 12.171875 48.375 
Q 18.84375 56 30.609375 56 
z
" id="DejaVuSans-111"/>
      <path d="M 45.40625 27.984375 
Q 45.40625 37.75 41.375 43.109375 
Q 37.359375 48.484375 30.078125 48.484375 
Q 22.859375 48.484375 18.828125 43.109375 
Q 14.796875 37.75 14.796875 27.984375 
Q 14.796875 18.265625 18.828125 12.890625 
Q 22.859375 7.515625 30.078125 7.515625 
Q 37.359375 7.515625 41.375 12.890625 
Q 45.40625 18.265625 45.40625 27.984375 
z
M 54.390625 6.78125 
Q 54.390625 -7.171875 48.1875 -13.984375 
Q 42 -20.796875 29.203125 -20.796875 
Q 24.46875 -20.796875 20.265625 -20.09375 
Q 16.0625 -19.390625 12.109375 -17.921875 
L 12.109375 -9.1875 
Q 16.0625 -11.328125 19.921875 -12.34375 
Q 23.78125 -13.375 27.78125 -13.375 
Q 36.625 -13.375 41.015625 -8.765625 
Q 45.40625 -4.15625 45.40625 5.171875 
L 45.40625 9.625 
Q 42.625 4.78125 38.28125 2.390625 
Q 33.9375 0 27.875 0 
Q 17.828125 0 11.671875 7.65625 
Q 5.515625 15.328125 5.515625 27.984375 
Q 5.515625 40.671875 11.671875 48.328125 
Q 17.828125 56 27.875 56 
Q 33.9375 56 38.28125 53.609375 
Q 42.625 51.21875 45.40625 46.390625 
L 45.40625 54.6875 
L 54.390625 54.6875 
z
" id="DejaVuSans-103"/>
      <path d="M 16.890625 72.90625 
L 39.703125 72.90625 
Q 49.65625 72.90625 54.875 68.265625 
Q 60.109375 63.625 60.109375 54.6875 
Q 60.109375 42.671875 52.390625 35.984375 
Q 44.671875 29.296875 30.71875 29.296875 
L 18.3125 29.296875 
L 12.59375 0 
L 2.6875 0 
z
M 25.203125 64.796875 
L 19.921875 37.40625 
L 32.328125 37.40625 
Q 40.71875 37.40625 45.203125 41.703125 
Q 49.703125 46 49.703125 54 
Q 49.703125 59.125 46.65625 61.953125 
Q 43.609375 64.796875 38.09375 64.796875 
z
" id="DejaVuSans-Oblique-80"/>
      <path d="M 31 75.875 
Q 24.46875 64.65625 21.28125 53.65625 
Q 18.109375 42.671875 18.109375 31.390625 
Q 18.109375 20.125 21.3125 9.0625 
Q 24.515625 -2 31 -13.1875 
L 23.1875 -13.1875 
Q 15.875 -1.703125 12.234375 9.375 
Q 8.59375 20.453125 8.59375 31.390625 
Q 8.59375 42.28125 12.203125 53.3125 
Q 15.828125 64.359375 23.1875 75.875 
z
" id="DejaVuSans-40"/>
      <path d="M 32.859375 9.96875 
Q 34.1875 7.625 39.453125 7.625 
L 43.75 7.625 
L 42.28125 0 
L 36.921875 0 
Q 28.125 0 25 4.6875 
Q 21.921875 9.46875 23.96875 19.828125 
L 29 45.703125 
L 8.453125 45.703125 
L 10.203125 54.6875 
L 60.640625 54.6875 
L 58.890625 45.703125 
L 38.1875 45.703125 
L 33.015625 19.28125 
Q 31.640625 12.203125 32.859375 9.96875 
z
" id="DejaVuSans-Oblique-964"/>
      <path d="M 8.015625 75.875 
L 15.828125 75.875 
Q 23.140625 64.359375 26.78125 53.3125 
Q 30.421875 42.28125 30.421875 31.390625 
Q 30.421875 20.453125 26.78125 9.375 
Q 23.140625 -1.703125 15.828125 -13.1875 
L 8.015625 -13.1875 
Q 14.5 -2 17.703125 9.0625 
Q 20.90625 20.125 20.90625 31.390625 
Q 20.90625 42.671875 17.703125 53.65625 
Q 14.5 64.65625 8.015625 75.875 
z
" id="DejaVuSans-41"/>
      <path d="M 10.59375 45.40625 
L 73.1875 45.40625 
L 73.1875 37.203125 
L 10.59375 37.203125 
z
M 10.59375 25.484375 
L 73.1875 25.484375 
L 73.1875 17.1875 
L 10.59375 17.1875 
z
" id="DejaVuSans-61"/>
     </defs>
     <g transform="translate(20.126175 309.1658)rotate(-90)scale(0.2 -0.2)">
      <use transform="translate(0 0.015625)" xlink:href="#DejaVuSans-108"/>
      <use transform="translate(27.783203 0.015625)" xlink:href="#DejaVuSans-111"/>
      <use transform="translate(88.964844 0.015625)" xlink:href="#DejaVuSans-103"/>
      <use transform="translate(152.441406 0.015625)" xlink:href="#DejaVuSans-Oblique-80"/>
      <use transform="translate(212.744141 0.015625)" xlink:href="#DejaVuSans-40"/>
      <use transform="translate(251.757812 0.015625)" xlink:href="#DejaVuSans-Oblique-119"/>
      <use transform="translate(333.544922 0.015625)" xlink:href="#DejaVuSans-40"/>
      <use transform="translate(372.558594 0.015625)" xlink:href="#DejaVuSans-Oblique-964"/>
      <use transform="translate(432.763672 0.015625)" xlink:href="#DejaVuSans-41"/>
      <use transform="translate(491.259766 0.015625)" xlink:href="#DejaVuSans-61"/>
      <use transform="translate(594.53125 0.015625)" xlink:href="#DejaVuSans-Oblique-119"/>
      <use transform="translate(676.318359 0.015625)" xlink:href="#DejaVuSans-41"/>
     </g>
    </g>
   </g>
   <g id="line2d_15">
    <path clip-path="url(#p8882dd1eee)" d="M 143.379731 211.087435 
L 188.718265 164.711481 
L 203.831109 151.025654 
L 218.943954 138.226238 
L 234.056799 126.313235 
L 249.169643 115.286645 
L 264.282488 105.146466 
L 279.395332 95.892699 
L 294.508177 87.525345 
L 309.621021 80.044402 
L 324.733866 73.449872 
L 339.84671 67.741754 
L 354.959555 62.920048 
L 370.072399 58.984754 
L 385.185244 55.935872 
L 400.298088 53.773402 
L 415.410933 52.497345 
L 430.523777 52.1077 
L 445.636622 52.604466 
L 460.749466 53.987645 
L 475.862311 56.257236 
L 490.975155 59.413239 
L 506.088 63.455654 
L 521.200845 68.384481 
L 536.313689 74.199721 
L 551.426534 80.901372 
L 566.539378 88.489436 
L 581.652223 96.963912 
L 596.765067 106.3248 
L 611.877912 116.5721 
L 626.990756 127.705812 
L 642.103601 139.725936 
L 657.216445 152.632473 
L 672.32929 166.425421 
L 687.442134 181.104782 
L 702.554979 196.670554 
L 717.667823 213.122739 
L 732.780668 230.461336 
L 747.893512 248.686345 
L 763.006357 267.797767 
L 778.119201 287.7956 
L 793.232046 308.679845 
L 853.683424 401.080948 
L 868.796269 426.397255 
" style="fill:none;stroke:#0080ff;stroke-linecap:square;stroke-width:1.5;"/>
   </g>
   <g id="line2d_16">
    <path clip-path="url(#p8882dd1eee)" d="M 358.517823 125.778695 
L 362.196712 118.351198 
L 365.875601 111.318266 
L 369.55449 104.679899 
L 373.233379 98.436097 
L 376.912268 92.58686 
L 380.591156 87.132188 
L 384.270045 82.072081 
L 387.948934 77.406539 
L 391.627823 73.135561 
L 395.306712 69.259149 
L 398.985601 65.777301 
L 402.664489 62.690019 
L 406.343378 59.997301 
L 410.022267 57.699148 
L 413.701156 55.79556 
L 417.380045 54.286537 
L 421.058934 53.172079 
L 424.737822 52.452186 
L 428.416711 52.126858 
L 432.0956 52.196095 
L 435.774489 52.659897 
L 439.453378 53.518263 
L 443.132267 54.771195 
L 446.811155 56.418692 
L 450.490044 58.460753 
L 454.168933 60.897379 
L 457.847822 63.728571 
L 461.526711 66.954327 
L 465.2056 70.574648 
L 468.884488 74.589534 
L 472.563377 78.998985 
L 476.242266 83.803001 
L 479.921155 89.001582 
L 483.600044 94.594728 
L 487.278933 100.582438 
L 490.957821 106.964714 
L 494.63671 113.741554 
L 498.315599 120.91296 
L 501.994488 128.47893 
L 505.673377 136.439466 
L 509.352266 144.794566 
L 516.710043 162.688461 
L 520.388932 172.227256 
L 524.067821 182.160616 
L 527.74671 192.488541 
L 531.425599 203.211031 
" style="fill:none;stroke:#7dff7a;stroke-linecap:square;stroke-width:1.5;"/>
   </g>
   <g id="line2d_17">
    <path clip-path="url(#p8882dd1eee)" d="M 411.044969 108.471435 
L 412.566829 99.609424 
L 414.088689 91.504896 
L 415.610549 84.157849 
L 416.371479 80.768382 
L 417.13241 77.568285 
L 417.89334 74.557559 
L 418.65427 71.736203 
L 419.4152 69.104217 
L 420.17613 66.661603 
L 420.93706 64.408358 
L 421.69799 62.344485 
L 422.45892 60.469981 
L 423.21985 58.784849 
L 423.98078 57.289086 
L 424.74171 55.982695 
L 425.50264 54.865673 
L 426.26357 53.938023 
L 427.0245 53.199743 
L 427.78543 52.650833 
L 428.54636 52.291294 
L 429.30729 52.121125 
L 430.06822 52.140327 
L 430.82915 52.3489 
L 431.59008 52.746843 
L 432.35101 53.334156 
L 433.11194 54.11084 
L 433.87287 55.076895 
L 434.6338 56.23232 
L 435.39473 57.577115 
L 436.15566 59.111281 
L 436.91659 60.834818 
L 437.67752 62.747725 
L 438.43845 64.850003 
L 439.19938 67.141651 
L 439.96031 69.622669 
L 440.72124 72.293059 
L 441.482171 75.152818 
L 443.004031 81.440449 
L 443.764961 84.868321 
L 444.525891 88.485562 
L 445.286821 92.292175 
L 447.569611 104.848235 
L 448.330541 109.412329 
" style="fill:none;stroke:#ff9400;stroke-linecap:square;stroke-width:1.5;"/>
   </g>
   <g id="patch_3">
    <path d="M 96.6168 445.2804 
L 96.6168 29.8512 
" style="fill:none;stroke:#000000;stroke-linecap:square;stroke-linejoin:miter;stroke-width:0.8;"/>
   </g>
   <g id="patch_4">
    <path d="M 915.5592 445.2804 
L 915.5592 29.8512 
" style="fill:none;stroke:#000000;stroke-linecap:square;stroke-linejoin:miter;stroke-width:0.8;"/>
   </g>
   <g id="patch_5">
    <path d="M 96.6168 445.2804 
L 915.5592 445.2804 
" style="fill:none;stroke:#000000;stroke-linecap:square;stroke-linejoin:miter;stroke-width:0.8;"/>
   </g>
   <g id="patch_6">
    <path d="M 96.6168 29.8512 
L 915.5592 29.8512 
" style="fill:none;stroke:#000000;stroke-linecap:square;stroke-linejoin:miter;stroke-width:0.8;"/>
   </g>
   <g id="text_17">
    <!-- $N=10, \phi=0.65, l_p/\sigma = 40, N_{bins} = 50$ -->
    <defs>
     <path d="M 16.890625 72.90625 
L 30.171875 72.90625 
L 50.296875 10.40625 
L 62.5 72.90625 
L 72.125 72.90625 
L 57.90625 0 
L 44.578125 0 
L 24.515625 62.890625 
L 12.3125 0 
L 2.6875 0 
z
" id="DejaVuSans-Oblique-78"/>
     <path d="M 11.71875 12.40625 
L 22.015625 12.40625 
L 22.015625 4 
L 14.015625 -11.625 
L 7.71875 -11.625 
L 11.71875 4 
z
" id="DejaVuSans-44"/>
     <path d="M 46.734375 75.984375 
L 42.78125 55.8125 
Q 52.546875 55.8125 57.5625 48.34375 
Q 62.75 40.71875 60.15625 27.296875 
Q 57.515625 13.875 49.359375 6.25 
Q 41.453125 -1.21875 31.6875 -1.21875 
L 27.875 -20.796875 
L 18.953125 -20.796875 
L 22.75 -1.21875 
Q 13.03125 -1.21875 7.953125 6.25 
Q 2.78125 13.875 5.421875 27.296875 
Q 8.015625 40.71875 16.15625 48.34375 
Q 24.125 55.8125 33.84375 55.8125 
L 37.796875 75.984375 
z
M 33.25 6.78125 
Q 38.765625 6.78125 43.5 11.8125 
Q 48.6875 17.4375 50.6875 27.296875 
Q 52.640625 37.0625 49.515625 42.78125 
Q 46.734375 47.796875 41.21875 47.796875 
z
M 24.3125 6.78125 
L 32.28125 47.796875 
Q 26.8125 47.796875 22.078125 42.78125 
Q 16.75 37.0625 14.890625 27.296875 
Q 13.03125 17.4375 16.0625 11.8125 
Q 18.796875 6.78125 24.3125 6.78125 
z
" id="DejaVuSans-Oblique-981"/>
     <path d="M 18.3125 75.984375 
L 27.296875 75.984375 
L 12.5 0 
L 3.515625 0 
z
" id="DejaVuSans-Oblique-108"/>
     <path d="M 49.609375 33.6875 
Q 49.609375 40.875 46.484375 44.671875 
Q 43.359375 48.484375 37.5 48.484375 
Q 33.5 48.484375 29.859375 46.4375 
Q 26.21875 44.390625 23.390625 40.484375 
Q 20.609375 36.625 18.9375 31.15625 
Q 17.28125 25.6875 17.28125 20.3125 
Q 17.28125 13.484375 20.40625 9.796875 
Q 23.53125 6.109375 29.296875 6.109375 
Q 33.546875 6.109375 37.1875 8.109375 
Q 40.828125 10.109375 43.40625 13.921875 
Q 46.1875 17.921875 47.890625 23.34375 
Q 49.609375 28.765625 49.609375 33.6875 
z
M 21.78125 46.390625 
Q 25.390625 51.125 30.296875 53.5625 
Q 35.203125 56 41.21875 56 
Q 49.609375 56 54.25 50.5 
Q 58.890625 45.015625 58.890625 35.109375 
Q 58.890625 27 56 19.65625 
Q 53.125 12.3125 47.703125 6.5 
Q 44.09375 2.640625 39.546875 0.609375 
Q 35.015625 -1.421875 29.984375 -1.421875 
Q 24.171875 -1.421875 20.21875 1 
Q 16.265625 3.421875 14.3125 8.203125 
L 8.6875 -20.796875 
L -0.296875 -20.796875 
L 14.40625 54.6875 
L 23.390625 54.6875 
z
" id="DejaVuSans-Oblique-112"/>
     <path d="M 25.390625 72.90625 
L 33.6875 72.90625 
L 8.296875 -9.28125 
L 0 -9.28125 
z
" id="DejaVuSans-47"/>
     <path d="M 34.671875 47.5625 
Q 27.25 47.5625 22.21875 42.1875 
Q 16.890625 36.578125 15.140625 27.296875 
Q 13.1875 17.484375 16.3125 11.8125 
Q 19.390625 6.203125 26.65625 6.203125 
Q 33.84375 6.203125 39.109375 11.859375 
Q 44.4375 17.53125 46.34375 27.296875 
Q 48.046875 36.234375 45.015625 42.1875 
Q 42.1875 47.5625 34.671875 47.5625 
z
M 36.078125 54.734375 
L 65.921875 54.6875 
L 64.15625 45.703125 
L 54.109375 45.703125 
Q 57.90625 38.09375 55.859375 27.296875 
Q 53.21875 13.875 45.0625 6.25 
Q 36.859375 -1.421875 25.140625 -1.421875 
Q 13.375 -1.421875 8.203125 6.25 
Q 3.03125 13.875 5.671875 27.296875 
Q 8.25 40.765625 16.40625 48.390625 
Q 23.1875 54.734375 36.078125 54.734375 
z
" id="DejaVuSans-Oblique-963"/>
     <path d="M 49.515625 33.40625 
Q 49.515625 40.484375 46.265625 44.484375 
Q 43.015625 48.484375 37.3125 48.484375 
Q 33.15625 48.484375 29.515625 46.453125 
Q 25.875 44.4375 23.1875 40.578125 
Q 20.359375 36.53125 18.71875 31.171875 
Q 17.09375 25.828125 17.09375 20.515625 
Q 17.09375 13.765625 20.28125 9.9375 
Q 23.484375 6.109375 29.109375 6.109375 
Q 33.34375 6.109375 36.953125 8.078125 
Q 40.578125 10.0625 43.3125 13.921875 
Q 46.09375 17.921875 47.796875 23.234375 
Q 49.515625 28.5625 49.515625 33.40625 
z
M 21.578125 46.390625 
Q 24.90625 50.875 29.90625 53.4375 
Q 34.90625 56 40.375 56 
Q 48.78125 56 53.734375 50.328125 
Q 58.6875 44.671875 58.6875 35.015625 
Q 58.6875 27.09375 55.78125 19.671875 
Q 52.875 12.25 47.515625 6.5 
Q 44 2.6875 39.40625 0.625 
Q 34.8125 -1.421875 29.78125 -1.421875 
Q 24.46875 -1.421875 20.5625 1.015625 
Q 16.65625 3.46875 14.203125 8.296875 
L 12.59375 0 
L 3.609375 0 
L 18.40625 75.984375 
L 27.390625 75.984375 
z
" id="DejaVuSans-Oblique-98"/>
     <path d="M 18.3125 75.984375 
L 27.296875 75.984375 
L 25.09375 64.59375 
L 16.109375 64.59375 
z
M 14.203125 54.6875 
L 23.1875 54.6875 
L 12.5 0 
L 3.515625 0 
z
" id="DejaVuSans-Oblique-105"/>
     <path d="M 55.71875 33.015625 
L 49.3125 0 
L 40.28125 0 
L 46.6875 32.671875 
Q 47.125 34.96875 47.359375 36.71875 
Q 47.609375 38.484375 47.609375 39.5 
Q 47.609375 43.609375 45.015625 45.890625 
Q 42.4375 48.1875 37.796875 48.1875 
Q 30.5625 48.1875 25.34375 43.375 
Q 20.125 38.578125 18.5 30.328125 
L 12.5 0 
L 3.515625 0 
L 14.109375 54.6875 
L 23.09375 54.6875 
L 21.296875 46.09375 
Q 25.046875 50.828125 30.3125 53.40625 
Q 35.59375 56 41.40625 56 
Q 48.640625 56 52.609375 52.09375 
Q 56.59375 48.1875 56.59375 41.109375 
Q 56.59375 39.359375 56.375 37.359375 
Q 56.15625 35.359375 55.71875 33.015625 
z
" id="DejaVuSans-Oblique-110"/>
     <path d="M 50 53.078125 
L 48.296875 44.578125 
Q 44.734375 46.53125 40.765625 47.5 
Q 36.8125 48.484375 32.625 48.484375 
Q 25.53125 48.484375 21.453125 46.0625 
Q 17.390625 43.65625 17.390625 39.5 
Q 17.390625 34.671875 26.859375 32.078125 
Q 27.59375 31.890625 27.9375 31.78125 
L 30.8125 30.90625 
Q 39.796875 28.421875 42.796875 25.6875 
Q 45.796875 22.953125 45.796875 18.21875 
Q 45.796875 9.515625 38.890625 4.046875 
Q 31.984375 -1.421875 20.796875 -1.421875 
Q 16.453125 -1.421875 11.671875 -0.578125 
Q 6.890625 0.25 1.125 2 
L 2.875 11.28125 
Q 7.8125 8.734375 12.59375 7.421875 
Q 17.390625 6.109375 21.78125 6.109375 
Q 28.375 6.109375 32.5 8.9375 
Q 36.625 11.765625 36.625 16.109375 
Q 36.625 20.796875 25.78125 23.6875 
L 24.859375 23.921875 
L 21.78125 24.703125 
Q 14.9375 26.515625 11.765625 29.46875 
Q 8.59375 32.421875 8.59375 37.015625 
Q 8.59375 45.75 15.15625 50.875 
Q 21.734375 56 33.015625 56 
Q 37.453125 56 41.671875 55.265625 
Q 45.90625 54.546875 50 53.078125 
z
" id="DejaVuSans-Oblique-115"/>
    </defs>
    <g transform="translate(291.888 22.4112)scale(0.24 -0.24)">
     <use transform="translate(0 0.015625)" xlink:href="#DejaVuSans-Oblique-78"/>
     <use transform="translate(94.287109 0.015625)" xlink:href="#DejaVuSans-61"/>
     <use transform="translate(197.558594 0.015625)" xlink:href="#DejaVuSans-49"/>
     <use transform="translate(261.181641 0.015625)" xlink:href="#DejaVuSans-48"/>
     <use transform="translate(324.804688 0.015625)" xlink:href="#DejaVuSans-44"/>
     <use transform="translate(376.074219 0.015625)" xlink:href="#DejaVuSans-Oblique-981"/>
     <use transform="translate(461.523438 0.015625)" xlink:href="#DejaVuSans-61"/>
     <use transform="translate(564.794922 0.015625)" xlink:href="#DejaVuSans-48"/>
     <use transform="translate(628.417969 0.015625)" xlink:href="#DejaVuSans-46"/>
     <use transform="translate(660.205078 0.015625)" xlink:href="#DejaVuSans-54"/>
     <use transform="translate(723.828125 0.015625)" xlink:href="#DejaVuSans-53"/>
     <use transform="translate(787.451172 0.015625)" xlink:href="#DejaVuSans-44"/>
     <use transform="translate(838.720703 0.015625)" xlink:href="#DejaVuSans-Oblique-108"/>
     <use transform="translate(866.503906 -16.390625)scale(0.7)" xlink:href="#DejaVuSans-Oblique-112"/>
     <use transform="translate(913.671875 0.015625)" xlink:href="#DejaVuSans-47"/>
     <use transform="translate(947.363281 0.015625)" xlink:href="#DejaVuSans-Oblique-963"/>
     <use transform="translate(1030.224609 0.015625)" xlink:href="#DejaVuSans-61"/>
     <use transform="translate(1133.496094 0.015625)" xlink:href="#DejaVuSans-52"/>
     <use transform="translate(1197.119141 0.015625)" xlink:href="#DejaVuSans-48"/>
     <use transform="translate(1260.742188 0.015625)" xlink:href="#DejaVuSans-44"/>
     <use transform="translate(1312.011719 0.015625)" xlink:href="#DejaVuSans-Oblique-78"/>
     <use transform="translate(1386.816406 -16.390625)scale(0.7)" xlink:href="#DejaVuSans-Oblique-98"/>
     <use transform="translate(1431.25 -16.390625)scale(0.7)" xlink:href="#DejaVuSans-Oblique-105"/>
     <use transform="translate(1450.698242 -16.390625)scale(0.7)" xlink:href="#DejaVuSans-Oblique-110"/>
     <use transform="translate(1495.063477 -16.390625)scale(0.7)" xlink:href="#DejaVuSans-Oblique-115"/>
     <use transform="translate(1553.75 0.015625)" xlink:href="#DejaVuSans-61"/>
     <use transform="translate(1657.021484 0.015625)" xlink:href="#DejaVuSans-53"/>
     <use transform="translate(1720.644531 0.015625)" xlink:href="#DejaVuSans-48"/>
    </g>
   </g>
   <g id="legend_1">
    <g id="patch_7">
     <path d="M 785.9592 95.9712 
L 907.1592 95.9712 
Q 909.5592 95.9712 909.5592 93.5712 
L 909.5592 38.2512 
Q 909.5592 35.8512 907.1592 35.8512 
L 785.9592 35.8512 
Q 783.5592 35.8512 783.5592 38.2512 
L 783.5592 93.5712 
Q 783.5592 95.9712 785.9592 95.9712 
z
" style="fill:#ffffff;opacity:0.8;stroke:#cccccc;stroke-linejoin:miter;"/>
    </g>
    <g id="PathCollection_4">
     <g>
      <use style="fill:#0080ff;stroke:#0080ff;" x="800.3592" xlink:href="#m29f511c476" y="46.6212"/>
     </g>
    </g>
    <g id="text_18">
     <!-- $\tau/(l_p/\sigma) = 0.01$ -->
     <g transform="translate(821.9592 49.7712)scale(0.12 -0.12)">
      <use transform="translate(0 0.015625)" xlink:href="#DejaVuSans-Oblique-964"/>
      <use transform="translate(60.205078 0.015625)" xlink:href="#DejaVuSans-47"/>
      <use transform="translate(93.896484 0.015625)" xlink:href="#DejaVuSans-40"/>
      <use transform="translate(132.910156 0.015625)" xlink:href="#DejaVuSans-Oblique-108"/>
      <use transform="translate(160.693359 -16.390625)scale(0.7)" xlink:href="#DejaVuSans-Oblique-112"/>
      <use transform="translate(207.861328 0.015625)" xlink:href="#DejaVuSans-47"/>
      <use transform="translate(241.552734 0.015625)" xlink:href="#DejaVuSans-Oblique-963"/>
      <use transform="translate(304.931641 0.015625)" xlink:href="#DejaVuSans-41"/>
      <use transform="translate(363.427734 0.015625)" xlink:href="#DejaVuSans-61"/>
      <use transform="translate(466.699219 0.015625)" xlink:href="#DejaVuSans-48"/>
      <use transform="translate(530.322266 0.015625)" xlink:href="#DejaVuSans-46"/>
      <use transform="translate(562.109375 0.015625)" xlink:href="#DejaVuSans-48"/>
      <use transform="translate(625.732422 0.015625)" xlink:href="#DejaVuSans-49"/>
     </g>
    </g>
    <g id="PathCollection_5">
     <g>
      <use style="fill:#7dff7a;stroke:#7dff7a;" x="800.3592" xlink:href="#m6abddb915f" y="65.4612"/>
     </g>
    </g>
    <g id="text_19">
     <!-- $\tau/(l_p/\sigma) = 0.10$ -->
     <g transform="translate(821.9592 68.6112)scale(0.12 -0.12)">
      <use transform="translate(0 0.015625)" xlink:href="#DejaVuSans-Oblique-964"/>
      <use transform="translate(60.205078 0.015625)" xlink:href="#DejaVuSans-47"/>
      <use transform="translate(93.896484 0.015625)" xlink:href="#DejaVuSans-40"/>
      <use transform="translate(132.910156 0.015625)" xlink:href="#DejaVuSans-Oblique-108"/>
      <use transform="translate(160.693359 -16.390625)scale(0.7)" xlink:href="#DejaVuSans-Oblique-112"/>
      <use transform="translate(207.861328 0.015625)" xlink:href="#DejaVuSans-47"/>
      <use transform="translate(241.552734 0.015625)" xlink:href="#DejaVuSans-Oblique-963"/>
      <use transform="translate(304.931641 0.015625)" xlink:href="#DejaVuSans-41"/>
      <use transform="translate(363.427734 0.015625)" xlink:href="#DejaVuSans-61"/>
      <use transform="translate(466.699219 0.015625)" xlink:href="#DejaVuSans-48"/>
      <use transform="translate(530.322266 0.015625)" xlink:href="#DejaVuSans-46"/>
      <use transform="translate(562.109375 0.015625)" xlink:href="#DejaVuSans-49"/>
      <use transform="translate(625.732422 0.015625)" xlink:href="#DejaVuSans-48"/>
     </g>
    </g>
    <g id="PathCollection_6">
     <g>
      <use style="fill:#ff9400;stroke:#ff9400;" x="800.3592" xlink:href="#m651054978a" y="84.3012"/>
     </g>
    </g>
    <g id="text_20">
     <!-- $\tau/(l_p/\sigma) = 1.00$ -->
     <g transform="translate(821.9592 87.4512)scale(0.12 -0.12)">
      <use transform="translate(0 0.015625)" xlink:href="#DejaVuSans-Oblique-964"/>
      <use transform="translate(60.205078 0.015625)" xlink:href="#DejaVuSans-47"/>
      <use transform="translate(93.896484 0.015625)" xlink:href="#DejaVuSans-40"/>
      <use transform="translate(132.910156 0.015625)" xlink:href="#DejaVuSans-Oblique-108"/>
      <use transform="translate(160.693359 -16.390625)scale(0.7)" xlink:href="#DejaVuSans-Oblique-112"/>
      <use transform="translate(207.861328 0.015625)" xlink:href="#DejaVuSans-47"/>
      <use transform="translate(241.552734 0.015625)" xlink:href="#DejaVuSans-Oblique-963"/>
      <use transform="translate(304.931641 0.015625)" xlink:href="#DejaVuSans-41"/>
      <use transform="translate(363.427734 0.015625)" xlink:href="#DejaVuSans-61"/>
      <use transform="translate(466.699219 0.015625)" xlink:href="#DejaVuSans-49"/>
      <use transform="translate(530.322266 0.015625)" xlink:href="#DejaVuSans-46"/>
      <use transform="translate(562.109375 0.015625)" xlink:href="#DejaVuSans-48"/>
      <use transform="translate(625.732422 0.015625)" xlink:href="#DejaVuSans-48"/>
     </g>
    </g>
   </g>
  </g>
 </g>
 <defs>
  <clipPath id="p8882dd1eee">
   <rect height="415.4292" width="818.9424" x="96.6168" y="29.8512"/>
  </clipPath>
 </defs>
</svg>
