<?xml version="1.0" encoding="utf-8" standalone="no"?>
<!DOCTYPE svg PUBLIC "-//W3C//DTD SVG 1.1//EN"
  "http://www.w3.org/Graphics/SVG/1.1/DTD/svg11.dtd">
<!-- Created with matplotlib (https://matplotlib.org/) -->
<svg height="497.52pt" version="1.1" viewBox="0 0 920.16 497.52" width="920.16pt" xmlns="http://www.w3.org/2000/svg" xmlns:xlink="http://www.w3.org/1999/xlink">
 <defs>
  <style type="text/css">
*{stroke-linecap:butt;stroke-linejoin:round;}
  </style>
 </defs>
 <g id="figure_1">
  <g id="patch_1">
   <path d="M 0 497.52 
L 920.16 497.52 
L 920.16 0 
L 0 0 
z
" style="fill:#ffffff;"/>
  </g>
  <g id="axes_1">
   <g id="patch_2">
    <path d="M 82.8144 442.7928 
L 910.9584 442.7928 
L 910.9584 34.8264 
L 82.8144 34.8264 
z
" style="fill:#ffffff;"/>
   </g>
   <g id="PathCollection_1">
    <defs>
     <path d="M 0 3 
C 0.795609 3 1.55874 2.683901 2.12132 2.12132 
C 2.683901 1.55874 3 0.795609 3 0 
C 3 -0.795609 2.683901 -1.55874 2.12132 -2.12132 
C 1.55874 -2.683901 0.795609 -3 0 -3 
C -0.795609 -3 -1.55874 -2.683901 -2.12132 -2.12132 
C -2.683901 -1.55874 -3 -0.795609 -3 0 
C -3 0.795609 -2.683901 1.55874 -2.12132 2.12132 
C -1.55874 2.683901 -0.795609 3 0 3 
z
" id="mda3c944cea" style="stroke:#0080ff;"/>
    </defs>
    <g clip-path="url(#p82dde814e2)">
     <use style="fill:#0080ff;stroke:#0080ff;" x="120.513085" xlink:href="#mda3c944cea" y="182.736939"/>
     <use style="fill:#0080ff;stroke:#0080ff;" x="161.789903" xlink:href="#mda3c944cea" y="172.33527"/>
     <use style="fill:#0080ff;stroke:#0080ff;" x="175.548842" xlink:href="#mda3c944cea" y="172.33527"/>
     <use style="fill:#0080ff;stroke:#0080ff;" x="203.066721" xlink:href="#mda3c944cea" y="172.33527"/>
     <use style="fill:#0080ff;stroke:#0080ff;" x="216.82566" xlink:href="#mda3c944cea" y="145.447345"/>
     <use style="fill:#0080ff;stroke:#0080ff;" x="230.584599" xlink:href="#mda3c944cea" y="158.585011"/>
     <use style="fill:#0080ff;stroke:#0080ff;" x="244.343538" xlink:href="#mda3c944cea" y="144.246189"/>
     <use style="fill:#0080ff;stroke:#0080ff;" x="258.102477" xlink:href="#mda3c944cea" y="140.220502"/>
     <use style="fill:#0080ff;stroke:#0080ff;" x="271.861417" xlink:href="#mda3c944cea" y="133.278172"/>
     <use style="fill:#0080ff;stroke:#0080ff;" x="285.620356" xlink:href="#mda3c944cea" y="121.04737"/>
     <use style="fill:#0080ff;stroke:#0080ff;" x="299.379295" xlink:href="#mda3c944cea" y="114.086828"/>
     <use style="fill:#0080ff;stroke:#0080ff;" x="313.138234" xlink:href="#mda3c944cea" y="108.580495"/>
     <use style="fill:#0080ff;stroke:#0080ff;" x="326.897173" xlink:href="#mda3c944cea" y="101.065642"/>
     <use style="fill:#0080ff;stroke:#0080ff;" x="340.656113" xlink:href="#mda3c944cea" y="93.167906"/>
     <use style="fill:#0080ff;stroke:#0080ff;" x="354.415052" xlink:href="#mda3c944cea" y="87.354411"/>
     <use style="fill:#0080ff;stroke:#0080ff;" x="368.173991" xlink:href="#mda3c944cea" y="81.479708"/>
     <use style="fill:#0080ff;stroke:#0080ff;" x="381.93293" xlink:href="#mda3c944cea" y="75.536693"/>
     <use style="fill:#0080ff;stroke:#0080ff;" x="395.691869" xlink:href="#mda3c944cea" y="70.155852"/>
     <use style="fill:#0080ff;stroke:#0080ff;" x="409.450809" xlink:href="#mda3c944cea" y="65.647444"/>
     <use style="fill:#0080ff;stroke:#0080ff;" x="423.209748" xlink:href="#mda3c944cea" y="62.670139"/>
     <use style="fill:#0080ff;stroke:#0080ff;" x="436.968687" xlink:href="#mda3c944cea" y="59.992087"/>
     <use style="fill:#0080ff;stroke:#0080ff;" x="450.727626" xlink:href="#mda3c944cea" y="57.774699"/>
     <use style="fill:#0080ff;stroke:#0080ff;" x="464.486565" xlink:href="#mda3c944cea" y="56.379115"/>
     <use style="fill:#0080ff;stroke:#0080ff;" x="478.245505" xlink:href="#mda3c944cea" y="56.639291"/>
     <use style="fill:#0080ff;stroke:#0080ff;" x="492.004444" xlink:href="#mda3c944cea" y="56.602325"/>
     <use style="fill:#0080ff;stroke:#0080ff;" x="505.763383" xlink:href="#mda3c944cea" y="58.537745"/>
     <use style="fill:#0080ff;stroke:#0080ff;" x="519.522322" xlink:href="#mda3c944cea" y="60.392851"/>
     <use style="fill:#0080ff;stroke:#0080ff;" x="533.281261" xlink:href="#mda3c944cea" y="64.104429"/>
     <use style="fill:#0080ff;stroke:#0080ff;" x="547.040201" xlink:href="#mda3c944cea" y="67.484869"/>
     <use style="fill:#0080ff;stroke:#0080ff;" x="560.79914" xlink:href="#mda3c944cea" y="71.515888"/>
     <use style="fill:#0080ff;stroke:#0080ff;" x="574.558079" xlink:href="#mda3c944cea" y="77.031105"/>
     <use style="fill:#0080ff;stroke:#0080ff;" x="588.317018" xlink:href="#mda3c944cea" y="80.943398"/>
     <use style="fill:#0080ff;stroke:#0080ff;" x="602.075958" xlink:href="#mda3c944cea" y="86.5925"/>
     <use style="fill:#0080ff;stroke:#0080ff;" x="615.834897" xlink:href="#mda3c944cea" y="91.498806"/>
     <use style="fill:#0080ff;stroke:#0080ff;" x="629.593836" xlink:href="#mda3c944cea" y="97.65223"/>
     <use style="fill:#0080ff;stroke:#0080ff;" x="643.352775" xlink:href="#mda3c944cea" y="102.567538"/>
     <use style="fill:#0080ff;stroke:#0080ff;" x="657.111714" xlink:href="#mda3c944cea" y="109.237816"/>
     <use style="fill:#0080ff;stroke:#0080ff;" x="670.870654" xlink:href="#mda3c944cea" y="116.607785"/>
     <use style="fill:#0080ff;stroke:#0080ff;" x="684.629593" xlink:href="#mda3c944cea" y="120.326923"/>
     <use style="fill:#0080ff;stroke:#0080ff;" x="698.388532" xlink:href="#mda3c944cea" y="126.647836"/>
     <use style="fill:#0080ff;stroke:#0080ff;" x="712.147471" xlink:href="#mda3c944cea" y="137.781672"/>
     <use style="fill:#0080ff;stroke:#0080ff;" x="725.90641" xlink:href="#mda3c944cea" y="139.362758"/>
     <use style="fill:#0080ff;stroke:#0080ff;" x="739.66535" xlink:href="#mda3c944cea" y="145.447345"/>
     <use style="fill:#0080ff;stroke:#0080ff;" x="753.424289" xlink:href="#mda3c944cea" y="153.535762"/>
     <use style="fill:#0080ff;stroke:#0080ff;" x="767.183228" xlink:href="#mda3c944cea" y="172.33527"/>
     <use style="fill:#0080ff;stroke:#0080ff;" x="780.942167" xlink:href="#mda3c944cea" y="172.33527"/>
    </g>
   </g>
   <g id="PathCollection_2">
    <defs>
     <path d="M 0 3 
C 0.795609 3 1.55874 2.683901 2.12132 2.12132 
C 2.683901 1.55874 3 0.795609 3 0 
C 3 -0.795609 2.683901 -1.55874 2.12132 -2.12132 
C 1.55874 -2.683901 0.795609 -3 0 -3 
C -0.795609 -3 -1.55874 -2.683901 -2.12132 -2.12132 
C -2.683901 -1.55874 -3 -0.795609 -3 0 
C -3 0.795609 -2.683901 1.55874 -2.12132 2.12132 
C -1.55874 2.683901 -0.795609 3 0 3 
z
" id="me4957f3ab0" style="stroke:#7dff7a;"/>
    </defs>
    <g clip-path="url(#p82dde814e2)">
     <use style="fill:#7dff7a;stroke:#7dff7a;" x="257.762992" xlink:href="#me4957f3ab0" y="172.388086"/>
     <use style="fill:#7dff7a;stroke:#7dff7a;" x="270.49633" xlink:href="#me4957f3ab0" y="151.584748"/>
     <use style="fill:#7dff7a;stroke:#7dff7a;" x="283.229668" xlink:href="#me4957f3ab0" y="143.186909"/>
     <use style="fill:#7dff7a;stroke:#7dff7a;" x="295.963006" xlink:href="#me4957f3ab0" y="137.834489"/>
     <use style="fill:#7dff7a;stroke:#7dff7a;" x="308.696344" xlink:href="#me4957f3ab0" y="126.002553"/>
     <use style="fill:#7dff7a;stroke:#7dff7a;" x="321.429682" xlink:href="#me4957f3ab0" y="114.933821"/>
     <use style="fill:#7dff7a;stroke:#7dff7a;" x="334.16302" xlink:href="#me4957f3ab0" y="105.897314"/>
     <use style="fill:#7dff7a;stroke:#7dff7a;" x="346.896357" xlink:href="#me4957f3ab0" y="96.704246"/>
     <use style="fill:#7dff7a;stroke:#7dff7a;" x="359.629695" xlink:href="#me4957f3ab0" y="88.769909"/>
     <use style="fill:#7dff7a;stroke:#7dff7a;" x="372.363033" xlink:href="#me4957f3ab0" y="83.326472"/>
     <use style="fill:#7dff7a;stroke:#7dff7a;" x="385.096371" xlink:href="#me4957f3ab0" y="75.708514"/>
     <use style="fill:#7dff7a;stroke:#7dff7a;" x="397.829709" xlink:href="#me4957f3ab0" y="70.765463"/>
     <use style="fill:#7dff7a;stroke:#7dff7a;" x="410.563047" xlink:href="#me4957f3ab0" y="64.975981"/>
     <use style="fill:#7dff7a;stroke:#7dff7a;" x="423.296385" xlink:href="#me4957f3ab0" y="62.753159"/>
     <use style="fill:#7dff7a;stroke:#7dff7a;" x="436.029722" xlink:href="#me4957f3ab0" y="59.511781"/>
     <use style="fill:#7dff7a;stroke:#7dff7a;" x="448.76306" xlink:href="#me4957f3ab0" y="57.918519"/>
     <use style="fill:#7dff7a;stroke:#7dff7a;" x="461.496398" xlink:href="#me4957f3ab0" y="56.379115"/>
     <use style="fill:#7dff7a;stroke:#7dff7a;" x="474.229736" xlink:href="#me4957f3ab0" y="56.746039"/>
     <use style="fill:#7dff7a;stroke:#7dff7a;" x="486.963074" xlink:href="#me4957f3ab0" y="57.911219"/>
     <use style="fill:#7dff7a;stroke:#7dff7a;" x="499.696412" xlink:href="#me4957f3ab0" y="59.965182"/>
     <use style="fill:#7dff7a;stroke:#7dff7a;" x="512.42975" xlink:href="#me4957f3ab0" y="61.040626"/>
     <use style="fill:#7dff7a;stroke:#7dff7a;" x="525.163088" xlink:href="#me4957f3ab0" y="64.709553"/>
     <use style="fill:#7dff7a;stroke:#7dff7a;" x="537.896425" xlink:href="#me4957f3ab0" y="67.796363"/>
     <use style="fill:#7dff7a;stroke:#7dff7a;" x="550.629763" xlink:href="#me4957f3ab0" y="72.151103"/>
     <use style="fill:#7dff7a;stroke:#7dff7a;" x="563.363101" xlink:href="#me4957f3ab0" y="74.781897"/>
     <use style="fill:#7dff7a;stroke:#7dff7a;" x="576.096439" xlink:href="#me4957f3ab0" y="78.029734"/>
     <use style="fill:#7dff7a;stroke:#7dff7a;" x="588.829777" xlink:href="#me4957f3ab0" y="83.406082"/>
     <use style="fill:#7dff7a;stroke:#7dff7a;" x="601.563115" xlink:href="#me4957f3ab0" y="87.459424"/>
     <use style="fill:#7dff7a;stroke:#7dff7a;" x="614.296453" xlink:href="#me4957f3ab0" y="92.004813"/>
     <use style="fill:#7dff7a;stroke:#7dff7a;" x="627.029791" xlink:href="#me4957f3ab0" y="97.096594"/>
     <use style="fill:#7dff7a;stroke:#7dff7a;" x="639.763128" xlink:href="#me4957f3ab0" y="103.131572"/>
     <use style="fill:#7dff7a;stroke:#7dff7a;" x="652.496466" xlink:href="#me4957f3ab0" y="104.861977"/>
     <use style="fill:#7dff7a;stroke:#7dff7a;" x="665.229804" xlink:href="#me4957f3ab0" y="110.946563"/>
     <use style="fill:#7dff7a;stroke:#7dff7a;" x="677.963142" xlink:href="#me4957f3ab0" y="111.716293"/>
     <use style="fill:#7dff7a;stroke:#7dff7a;" x="690.69648" xlink:href="#me4957f3ab0" y="120.37974"/>
     <use style="fill:#7dff7a;stroke:#7dff7a;" x="703.429818" xlink:href="#me4957f3ab0" y="121.856974"/>
     <use style="fill:#7dff7a;stroke:#7dff7a;" x="716.163156" xlink:href="#me4957f3ab0" y="129.871649"/>
     <use style="fill:#7dff7a;stroke:#7dff7a;" x="728.896494" xlink:href="#me4957f3ab0" y="131.749902"/>
     <use style="fill:#7dff7a;stroke:#7dff7a;" x="741.629831" xlink:href="#me4957f3ab0" y="139.415575"/>
     <use style="fill:#7dff7a;stroke:#7dff7a;" x="754.363169" xlink:href="#me4957f3ab0" y="145.500161"/>
     <use style="fill:#7dff7a;stroke:#7dff7a;" x="767.096507" xlink:href="#me4957f3ab0" y="137.834489"/>
     <use style="fill:#7dff7a;stroke:#7dff7a;" x="779.829845" xlink:href="#me4957f3ab0" y="161.986417"/>
     <use style="fill:#7dff7a;stroke:#7dff7a;" x="792.563183" xlink:href="#me4957f3ab0" y="148.236158"/>
     <use style="fill:#7dff7a;stroke:#7dff7a;" x="805.296521" xlink:href="#me4957f3ab0" y="161.986417"/>
    </g>
   </g>
   <g id="PathCollection_3">
    <defs>
     <path d="M 0 3 
C 0.795609 3 1.55874 2.683901 2.12132 2.12132 
C 2.683901 1.55874 3 0.795609 3 0 
C 3 -0.795609 2.683901 -1.55874 2.12132 -2.12132 
C 1.55874 -2.683901 0.795609 -3 0 -3 
C -0.795609 -3 -1.55874 -2.683901 -2.12132 -2.12132 
C -2.683901 -1.55874 -3 -0.795609 -3 0 
C -3 0.795609 -2.683901 1.55874 -2.12132 2.12132 
C -1.55874 2.683901 -0.795609 3 0 3 
z
" id="ma7e06fe6d2" style="stroke:#ff9400;"/>
    </defs>
    <g clip-path="url(#p82dde814e2)">
     <use style="fill:#ff9400;stroke:#ff9400;" x="267.582914" xlink:href="#ma7e06fe6d2" y="158.036078"/>
     <use style="fill:#ff9400;stroke:#ff9400;" x="279.851219" xlink:href="#ma7e06fe6d2" y="158.036078"/>
     <use style="fill:#ff9400;stroke:#ff9400;" x="292.119524" xlink:href="#ma7e06fe6d2" y="147.634408"/>
     <use style="fill:#ff9400;stroke:#ff9400;" x="304.38783" xlink:href="#ma7e06fe6d2" y="131.148152"/>
     <use style="fill:#ff9400;stroke:#ff9400;" x="316.656135" xlink:href="#ma7e06fe6d2" y="128.8349"/>
     <use style="fill:#ff9400;stroke:#ff9400;" x="328.92444" xlink:href="#ma7e06fe6d2" y="114.661896"/>
     <use style="fill:#ff9400;stroke:#ff9400;" x="341.192745" xlink:href="#ma7e06fe6d2" y="103.448871"/>
     <use style="fill:#ff9400;stroke:#ff9400;" x="353.46105" xlink:href="#ma7e06fe6d2" y="91.192196"/>
     <use style="fill:#ff9400;stroke:#ff9400;" x="365.729355" xlink:href="#ma7e06fe6d2" y="86.4451"/>
     <use style="fill:#ff9400;stroke:#ff9400;" x="377.99766" xlink:href="#ma7e06fe6d2" y="78.01097"/>
     <use style="fill:#ff9400;stroke:#ff9400;" x="390.265965" xlink:href="#ma7e06fe6d2" y="71.474133"/>
     <use style="fill:#ff9400;stroke:#ff9400;" x="402.53427" xlink:href="#ma7e06fe6d2" y="66.797944"/>
     <use style="fill:#ff9400;stroke:#ff9400;" x="414.802575" xlink:href="#ma7e06fe6d2" y="62.498041"/>
     <use style="fill:#ff9400;stroke:#ff9400;" x="427.07088" xlink:href="#ma7e06fe6d2" y="60.009016"/>
     <use style="fill:#ff9400;stroke:#ff9400;" x="439.339185" xlink:href="#ma7e06fe6d2" y="57.353326"/>
     <use style="fill:#ff9400;stroke:#ff9400;" x="451.60749" xlink:href="#ma7e06fe6d2" y="56.379115"/>
     <use style="fill:#ff9400;stroke:#ff9400;" x="463.875795" xlink:href="#ma7e06fe6d2" y="56.621159"/>
     <use style="fill:#ff9400;stroke:#ff9400;" x="476.1441" xlink:href="#ma7e06fe6d2" y="58.3952"/>
     <use style="fill:#ff9400;stroke:#ff9400;" x="488.412405" xlink:href="#ma7e06fe6d2" y="60.747737"/>
     <use style="fill:#ff9400;stroke:#ff9400;" x="500.68071" xlink:href="#ma7e06fe6d2" y="61.991019"/>
     <use style="fill:#ff9400;stroke:#ff9400;" x="512.949015" xlink:href="#ma7e06fe6d2" y="62.784382"/>
     <use style="fill:#ff9400;stroke:#ff9400;" x="525.21732" xlink:href="#ma7e06fe6d2" y="65.898288"/>
     <use style="fill:#ff9400;stroke:#ff9400;" x="537.485626" xlink:href="#ma7e06fe6d2" y="69.790231"/>
     <use style="fill:#ff9400;stroke:#ff9400;" x="549.753931" xlink:href="#ma7e06fe6d2" y="73.371156"/>
     <use style="fill:#ff9400;stroke:#ff9400;" x="562.022236" xlink:href="#ma7e06fe6d2" y="75.791216"/>
     <use style="fill:#ff9400;stroke:#ff9400;" x="574.290541" xlink:href="#ma7e06fe6d2" y="78.303788"/>
     <use style="fill:#ff9400;stroke:#ff9400;" x="586.558846" xlink:href="#ma7e06fe6d2" y="80.27597"/>
     <use style="fill:#ff9400;stroke:#ff9400;" x="598.827151" xlink:href="#ma7e06fe6d2" y="86.318463"/>
     <use style="fill:#ff9400;stroke:#ff9400;" x="611.095456" xlink:href="#ma7e06fe6d2" y="89.857411"/>
     <use style="fill:#ff9400;stroke:#ff9400;" x="623.363761" xlink:href="#ma7e06fe6d2" y="92.277472"/>
     <use style="fill:#ff9400;stroke:#ff9400;" x="635.632066" xlink:href="#ma7e06fe6d2" y="96.102496"/>
     <use style="fill:#ff9400;stroke:#ff9400;" x="647.900371" xlink:href="#ma7e06fe6d2" y="98.456143"/>
     <use style="fill:#ff9400;stroke:#ff9400;" x="660.168676" xlink:href="#ma7e06fe6d2" y="103.448871"/>
     <use style="fill:#ff9400;stroke:#ff9400;" x="672.436981" xlink:href="#ma7e06fe6d2" y="101.248875"/>
     <use style="fill:#ff9400;stroke:#ff9400;" x="684.705286" xlink:href="#ma7e06fe6d2" y="112.348644"/>
     <use style="fill:#ff9400;stroke:#ff9400;" x="696.973591" xlink:href="#ma7e06fe6d2" y="108.57731"/>
     <use style="fill:#ff9400;stroke:#ff9400;" x="709.241896" xlink:href="#ma7e06fe6d2" y="114.661896"/>
     <use style="fill:#ff9400;stroke:#ff9400;" x="721.510201" xlink:href="#ma7e06fe6d2" y="126.831069"/>
     <use style="fill:#ff9400;stroke:#ff9400;" x="733.778506" xlink:href="#ma7e06fe6d2" y="126.831069"/>
     <use style="fill:#ff9400;stroke:#ff9400;" x="746.046811" xlink:href="#ma7e06fe6d2" y="125.063566"/>
     <use style="fill:#ff9400;stroke:#ff9400;" x="758.315116" xlink:href="#ma7e06fe6d2" y="125.063566"/>
     <use style="fill:#ff9400;stroke:#ff9400;" x="770.583421" xlink:href="#ma7e06fe6d2" y="141.549822"/>
     <use style="fill:#ff9400;stroke:#ff9400;" x="782.851727" xlink:href="#ma7e06fe6d2" y="133.884149"/>
     <use style="fill:#ff9400;stroke:#ff9400;" x="795.120032" xlink:href="#ma7e06fe6d2" y="147.634408"/>
     <use style="fill:#ff9400;stroke:#ff9400;" x="807.388337" xlink:href="#ma7e06fe6d2" y="147.634408"/>
     <use style="fill:#ff9400;stroke:#ff9400;" x="819.656642" xlink:href="#ma7e06fe6d2" y="141.549822"/>
     <use style="fill:#ff9400;stroke:#ff9400;" x="831.924947" xlink:href="#ma7e06fe6d2" y="141.549822"/>
     <use style="fill:#ff9400;stroke:#ff9400;" x="844.193252" xlink:href="#ma7e06fe6d2" y="147.634408"/>
     <use style="fill:#ff9400;stroke:#ff9400;" x="856.461557" xlink:href="#ma7e06fe6d2" y="141.549822"/>
     <use style="fill:#ff9400;stroke:#ff9400;" x="868.729862" xlink:href="#ma7e06fe6d2" y="147.634408"/>
    </g>
   </g>
   <g id="matplotlib.axis_1">
    <g id="xtick_1">
     <g id="line2d_1">
      <defs>
       <path d="M 0 0 
L 0 3.5 
" id="ma18b24b4dd" style="stroke:#000000;stroke-width:0.8;"/>
      </defs>
      <g>
       <use style="stroke:#000000;stroke-width:0.8;" x="115.880713" xlink:href="#ma18b24b4dd" y="442.7928"/>
      </g>
     </g>
     <g id="text_1">
      <!-- −40 -->
      <defs>
       <path d="M 10.59375 35.5 
L 73.1875 35.5 
L 73.1875 27.203125 
L 10.59375 27.203125 
z
" id="DejaVuSans-8722"/>
       <path d="M 37.796875 64.3125 
L 12.890625 25.390625 
L 37.796875 25.390625 
z
M 35.203125 72.90625 
L 47.609375 72.90625 
L 47.609375 25.390625 
L 58.015625 25.390625 
L 58.015625 17.1875 
L 47.609375 17.1875 
L 47.609375 0 
L 37.796875 0 
L 37.796875 17.1875 
L 4.890625 17.1875 
L 4.890625 26.703125 
z
" id="DejaVuSans-52"/>
       <path d="M 31.78125 66.40625 
Q 24.171875 66.40625 20.328125 58.90625 
Q 16.5 51.421875 16.5 36.375 
Q 16.5 21.390625 20.328125 13.890625 
Q 24.171875 6.390625 31.78125 6.390625 
Q 39.453125 6.390625 43.28125 13.890625 
Q 47.125 21.390625 47.125 36.375 
Q 47.125 51.421875 43.28125 58.90625 
Q 39.453125 66.40625 31.78125 66.40625 
z
M 31.78125 74.21875 
Q 44.046875 74.21875 50.515625 64.515625 
Q 56.984375 54.828125 56.984375 36.375 
Q 56.984375 17.96875 50.515625 8.265625 
Q 44.046875 -1.421875 31.78125 -1.421875 
Q 19.53125 -1.421875 13.0625 8.265625 
Q 6.59375 17.96875 6.59375 36.375 
Q 6.59375 54.828125 13.0625 64.515625 
Q 19.53125 74.21875 31.78125 74.21875 
z
" id="DejaVuSans-48"/>
      </defs>
      <g transform="translate(94.776026 464.989675)scale(0.2 -0.2)">
       <use xlink:href="#DejaVuSans-8722"/>
       <use x="83.789062" xlink:href="#DejaVuSans-52"/>
       <use x="147.412109" xlink:href="#DejaVuSans-48"/>
      </g>
     </g>
    </g>
    <g id="xtick_2">
     <g id="line2d_2">
      <g>
       <use style="stroke:#000000;stroke-width:0.8;" x="208.097329" xlink:href="#ma18b24b4dd" y="442.7928"/>
      </g>
     </g>
     <g id="text_2">
      <!-- −30 -->
      <defs>
       <path d="M 40.578125 39.3125 
Q 47.65625 37.796875 51.625 33 
Q 55.609375 28.21875 55.609375 21.1875 
Q 55.609375 10.40625 48.1875 4.484375 
Q 40.765625 -1.421875 27.09375 -1.421875 
Q 22.515625 -1.421875 17.65625 -0.515625 
Q 12.796875 0.390625 7.625 2.203125 
L 7.625 11.71875 
Q 11.71875 9.328125 16.59375 8.109375 
Q 21.484375 6.890625 26.8125 6.890625 
Q 36.078125 6.890625 40.9375 10.546875 
Q 45.796875 14.203125 45.796875 21.1875 
Q 45.796875 27.640625 41.28125 31.265625 
Q 36.765625 34.90625 28.71875 34.90625 
L 20.21875 34.90625 
L 20.21875 43.015625 
L 29.109375 43.015625 
Q 36.375 43.015625 40.234375 45.921875 
Q 44.09375 48.828125 44.09375 54.296875 
Q 44.09375 59.90625 40.109375 62.90625 
Q 36.140625 65.921875 28.71875 65.921875 
Q 24.65625 65.921875 20.015625 65.03125 
Q 15.375 64.15625 9.8125 62.3125 
L 9.8125 71.09375 
Q 15.4375 72.65625 20.34375 73.4375 
Q 25.25 74.21875 29.59375 74.21875 
Q 40.828125 74.21875 47.359375 69.109375 
Q 53.90625 64.015625 53.90625 55.328125 
Q 53.90625 49.265625 50.4375 45.09375 
Q 46.96875 40.921875 40.578125 39.3125 
z
" id="DejaVuSans-51"/>
      </defs>
      <g transform="translate(186.992642 464.989675)scale(0.2 -0.2)">
       <use xlink:href="#DejaVuSans-8722"/>
       <use x="83.789062" xlink:href="#DejaVuSans-51"/>
       <use x="147.412109" xlink:href="#DejaVuSans-48"/>
      </g>
     </g>
    </g>
    <g id="xtick_3">
     <g id="line2d_3">
      <g>
       <use style="stroke:#000000;stroke-width:0.8;" x="300.313945" xlink:href="#ma18b24b4dd" y="442.7928"/>
      </g>
     </g>
     <g id="text_3">
      <!-- −20 -->
      <defs>
       <path d="M 19.1875 8.296875 
L 53.609375 8.296875 
L 53.609375 0 
L 7.328125 0 
L 7.328125 8.296875 
Q 12.9375 14.109375 22.625 23.890625 
Q 32.328125 33.6875 34.8125 36.53125 
Q 39.546875 41.84375 41.421875 45.53125 
Q 43.3125 49.21875 43.3125 52.78125 
Q 43.3125 58.59375 39.234375 62.25 
Q 35.15625 65.921875 28.609375 65.921875 
Q 23.96875 65.921875 18.8125 64.3125 
Q 13.671875 62.703125 7.8125 59.421875 
L 7.8125 69.390625 
Q 13.765625 71.78125 18.9375 73 
Q 24.125 74.21875 28.421875 74.21875 
Q 39.75 74.21875 46.484375 68.546875 
Q 53.21875 62.890625 53.21875 53.421875 
Q 53.21875 48.921875 51.53125 44.890625 
Q 49.859375 40.875 45.40625 35.40625 
Q 44.1875 33.984375 37.640625 27.21875 
Q 31.109375 20.453125 19.1875 8.296875 
z
" id="DejaVuSans-50"/>
      </defs>
      <g transform="translate(279.209257 464.989675)scale(0.2 -0.2)">
       <use xlink:href="#DejaVuSans-8722"/>
       <use x="83.789062" xlink:href="#DejaVuSans-50"/>
       <use x="147.412109" xlink:href="#DejaVuSans-48"/>
      </g>
     </g>
    </g>
    <g id="xtick_4">
     <g id="line2d_4">
      <g>
       <use style="stroke:#000000;stroke-width:0.8;" x="392.530561" xlink:href="#ma18b24b4dd" y="442.7928"/>
      </g>
     </g>
     <g id="text_4">
      <!-- −10 -->
      <defs>
       <path d="M 12.40625 8.296875 
L 28.515625 8.296875 
L 28.515625 63.921875 
L 10.984375 60.40625 
L 10.984375 69.390625 
L 28.421875 72.90625 
L 38.28125 72.90625 
L 38.28125 8.296875 
L 54.390625 8.296875 
L 54.390625 0 
L 12.40625 0 
z
" id="DejaVuSans-49"/>
      </defs>
      <g transform="translate(371.425873 464.989675)scale(0.2 -0.2)">
       <use xlink:href="#DejaVuSans-8722"/>
       <use x="83.789062" xlink:href="#DejaVuSans-49"/>
       <use x="147.412109" xlink:href="#DejaVuSans-48"/>
      </g>
     </g>
    </g>
    <g id="xtick_5">
     <g id="line2d_5">
      <g>
       <use style="stroke:#000000;stroke-width:0.8;" x="484.747176" xlink:href="#ma18b24b4dd" y="442.7928"/>
      </g>
     </g>
     <g id="text_5">
      <!-- 0 -->
      <g transform="translate(478.384676 464.989675)scale(0.2 -0.2)">
       <use xlink:href="#DejaVuSans-48"/>
      </g>
     </g>
    </g>
    <g id="xtick_6">
     <g id="line2d_6">
      <g>
       <use style="stroke:#000000;stroke-width:0.8;" x="576.963792" xlink:href="#ma18b24b4dd" y="442.7928"/>
      </g>
     </g>
     <g id="text_6">
      <!-- 10 -->
      <g transform="translate(564.238792 464.989675)scale(0.2 -0.2)">
       <use xlink:href="#DejaVuSans-49"/>
       <use x="63.623047" xlink:href="#DejaVuSans-48"/>
      </g>
     </g>
    </g>
    <g id="xtick_7">
     <g id="line2d_7">
      <g>
       <use style="stroke:#000000;stroke-width:0.8;" x="669.180408" xlink:href="#ma18b24b4dd" y="442.7928"/>
      </g>
     </g>
     <g id="text_7">
      <!-- 20 -->
      <g transform="translate(656.455408 464.989675)scale(0.2 -0.2)">
       <use xlink:href="#DejaVuSans-50"/>
       <use x="63.623047" xlink:href="#DejaVuSans-48"/>
      </g>
     </g>
    </g>
    <g id="xtick_8">
     <g id="line2d_8">
      <g>
       <use style="stroke:#000000;stroke-width:0.8;" x="761.397024" xlink:href="#ma18b24b4dd" y="442.7928"/>
      </g>
     </g>
     <g id="text_8">
      <!-- 30 -->
      <g transform="translate(748.672024 464.989675)scale(0.2 -0.2)">
       <use xlink:href="#DejaVuSans-51"/>
       <use x="63.623047" xlink:href="#DejaVuSans-48"/>
      </g>
     </g>
    </g>
    <g id="xtick_9">
     <g id="line2d_9">
      <g>
       <use style="stroke:#000000;stroke-width:0.8;" x="853.613639" xlink:href="#ma18b24b4dd" y="442.7928"/>
      </g>
     </g>
     <g id="text_9">
      <!-- 40 -->
      <g transform="translate(840.888639 464.989675)scale(0.2 -0.2)">
       <use xlink:href="#DejaVuSans-52"/>
       <use x="63.623047" xlink:href="#DejaVuSans-48"/>
      </g>
     </g>
    </g>
    <g id="text_10">
     <!-- $(w - &lt;w&gt;_{\epsilon})/\sigma_{\epsilon}(w)$ -->
     <defs>
      <path d="M 31 75.875 
Q 24.46875 64.65625 21.28125 53.65625 
Q 18.109375 42.671875 18.109375 31.390625 
Q 18.109375 20.125 21.3125 9.0625 
Q 24.515625 -2 31 -13.1875 
L 23.1875 -13.1875 
Q 15.875 -1.703125 12.234375 9.375 
Q 8.59375 20.453125 8.59375 31.390625 
Q 8.59375 42.28125 12.203125 53.3125 
Q 15.828125 64.359375 23.1875 75.875 
z
" id="DejaVuSans-40"/>
      <path d="M 8.5 54.6875 
L 17.390625 54.6875 
L 19.671875 10.6875 
L 40.09375 54.6875 
L 50.484375 54.6875 
L 53.515625 10.6875 
L 72.90625 54.6875 
L 81.890625 54.6875 
L 56.890625 0 
L 46.390625 0 
L 43.703125 45.3125 
L 22.796875 0 
L 12.203125 0 
z
" id="DejaVuSans-Oblique-119"/>
      <path d="M 73.1875 49.21875 
L 22.796875 31.296875 
L 73.1875 13.484375 
L 73.1875 4.59375 
L 10.59375 27.296875 
L 10.59375 35.40625 
L 73.1875 58.109375 
z
" id="DejaVuSans-60"/>
      <path d="M 10.59375 49.21875 
L 10.59375 58.109375 
L 73.1875 35.40625 
L 73.1875 27.296875 
L 10.59375 4.59375 
L 10.59375 13.484375 
L 60.890625 31.296875 
z
" id="DejaVuSans-62"/>
      <path d="M 19.734375 29.5 
Q 14.453125 30.671875 12.15625 33.84375 
Q 10.453125 36.078125 10.453125 39.109375 
Q 10.453125 47.40625 18.359375 52.25 
Q 24.609375 56.0625 34.1875 56.0625 
Q 37.890625 56.0625 41.9375 55.46875 
Q 46 54.890625 50.53125 53.71875 
L 48.96875 45.5625 
Q 44.484375 46.96875 40.71875 47.609375 
Q 36.859375 48.25 33.40625 48.25 
Q 27.59375 48.25 23.78125 46 
Q 19.1875 43.3125 19.1875 39.40625 
Q 19.1875 36.8125 21.578125 35.015625 
Q 24.421875 32.859375 30.078125 32.859375 
L 37.640625 32.859375 
L 36.234375 25.4375 
L 29 25.4375 
Q 22.265625 25.4375 18.3125 22.953125 
Q 12.9375 19.578125 12.9375 14.3125 
Q 12.9375 10.984375 15.828125 8.796875 
Q 19.4375 6.0625 26.8125 6.0625 
Q 31.34375 6.0625 35.6875 6.9375 
Q 40.046875 7.859375 43.84375 9.671875 
L 42.1875 1.3125 
Q 37.546875 -0.046875 33.296875 -0.734375 
Q 29.046875 -1.421875 25.140625 -1.421875 
Q 13.53125 -1.421875 8.0625 3.03125 
Q 3.90625 6.453125 3.90625 12.203125 
Q 3.90625 19.96875 9.375 24.75 
Q 13.421875 28.328125 19.734375 29.5 
z
" id="DejaVuSans-Oblique-949"/>
      <path d="M 8.015625 75.875 
L 15.828125 75.875 
Q 23.140625 64.359375 26.78125 53.3125 
Q 30.421875 42.28125 30.421875 31.390625 
Q 30.421875 20.453125 26.78125 9.375 
Q 23.140625 -1.703125 15.828125 -13.1875 
L 8.015625 -13.1875 
Q 14.5 -2 17.703125 9.0625 
Q 20.90625 20.125 20.90625 31.390625 
Q 20.90625 42.671875 17.703125 53.65625 
Q 14.5 64.65625 8.015625 75.875 
z
" id="DejaVuSans-41"/>
      <path d="M 25.390625 72.90625 
L 33.6875 72.90625 
L 8.296875 -9.28125 
L 0 -9.28125 
z
" id="DejaVuSans-47"/>
      <path d="M 34.671875 47.5625 
Q 27.25 47.5625 22.21875 42.1875 
Q 16.890625 36.578125 15.140625 27.296875 
Q 13.1875 17.484375 16.3125 11.8125 
Q 19.390625 6.203125 26.65625 6.203125 
Q 33.84375 6.203125 39.109375 11.859375 
Q 44.4375 17.53125 46.34375 27.296875 
Q 48.046875 36.234375 45.015625 42.1875 
Q 42.1875 47.5625 34.671875 47.5625 
z
M 36.078125 54.734375 
L 65.921875 54.6875 
L 64.15625 45.703125 
L 54.109375 45.703125 
Q 57.90625 38.09375 55.859375 27.296875 
Q 53.21875 13.875 45.0625 6.25 
Q 36.859375 -1.421875 25.140625 -1.421875 
Q 13.375 -1.421875 8.203125 6.25 
Q 3.03125 13.875 5.671875 27.296875 
Q 8.25 40.765625 16.40625 48.390625 
Q 23.1875 54.734375 36.078125 54.734375 
z
" id="DejaVuSans-Oblique-963"/>
     </defs>
     <g transform="translate(401.9864 488.345925)scale(0.2 -0.2)">
      <use transform="translate(0 0.125)" xlink:href="#DejaVuSans-40"/>
      <use transform="translate(39.013672 0.125)" xlink:href="#DejaVuSans-Oblique-119"/>
      <use transform="translate(140.283203 0.125)" xlink:href="#DejaVuSans-8722"/>
      <use transform="translate(263.037109 0.125)" xlink:href="#DejaVuSans-60"/>
      <use transform="translate(366.308594 0.125)" xlink:href="#DejaVuSans-Oblique-119"/>
      <use transform="translate(467.578125 0.125)" xlink:href="#DejaVuSans-62"/>
      <use transform="translate(571.806641 -16.28125)scale(0.7)" xlink:href="#DejaVuSans-Oblique-949"/>
      <use transform="translate(612.37793 0.125)" xlink:href="#DejaVuSans-41"/>
      <use transform="translate(651.391602 0.125)" xlink:href="#DejaVuSans-47"/>
      <use transform="translate(685.083008 0.125)" xlink:href="#DejaVuSans-Oblique-963"/>
      <use transform="translate(748.461914 -16.28125)scale(0.7)" xlink:href="#DejaVuSans-Oblique-949"/>
      <use transform="translate(789.033203 0.125)" xlink:href="#DejaVuSans-40"/>
      <use transform="translate(828.046875 0.125)" xlink:href="#DejaVuSans-Oblique-119"/>
      <use transform="translate(909.833984 0.125)" xlink:href="#DejaVuSans-41"/>
     </g>
    </g>
   </g>
   <g id="matplotlib.axis_2">
    <g id="ytick_1">
     <g id="line2d_10">
      <defs>
       <path d="M 0 0 
L -3.5 0 
" id="m2b1f16cfca" style="stroke:#000000;stroke-width:0.8;"/>
      </defs>
      <g>
       <use style="stroke:#000000;stroke-width:0.8;" x="82.8144" xlink:href="#m2b1f16cfca" y="431.540035"/>
      </g>
     </g>
     <g id="text_11">
      <!-- −25 -->
      <defs>
       <path d="M 10.796875 72.90625 
L 49.515625 72.90625 
L 49.515625 64.59375 
L 19.828125 64.59375 
L 19.828125 46.734375 
Q 21.96875 47.46875 24.109375 47.828125 
Q 26.265625 48.1875 28.421875 48.1875 
Q 40.625 48.1875 47.75 41.5 
Q 54.890625 34.8125 54.890625 23.390625 
Q 54.890625 11.625 47.5625 5.09375 
Q 40.234375 -1.421875 26.90625 -1.421875 
Q 22.3125 -1.421875 17.546875 -0.640625 
Q 12.796875 0.140625 7.71875 1.703125 
L 7.71875 11.625 
Q 12.109375 9.234375 16.796875 8.0625 
Q 21.484375 6.890625 26.703125 6.890625 
Q 35.15625 6.890625 40.078125 11.328125 
Q 45.015625 15.765625 45.015625 23.390625 
Q 45.015625 31 40.078125 35.4375 
Q 35.15625 39.890625 26.703125 39.890625 
Q 22.75 39.890625 18.8125 39.015625 
Q 14.890625 38.140625 10.796875 36.28125 
z
" id="DejaVuSans-53"/>
      </defs>
      <g transform="translate(33.605025 439.138472)scale(0.2 -0.2)">
       <use xlink:href="#DejaVuSans-8722"/>
       <use x="83.789062" xlink:href="#DejaVuSans-50"/>
       <use x="147.412109" xlink:href="#DejaVuSans-53"/>
      </g>
     </g>
    </g>
    <g id="ytick_2">
     <g id="line2d_11">
      <g>
       <use style="stroke:#000000;stroke-width:0.8;" x="82.8144" xlink:href="#m2b1f16cfca" y="356.507851"/>
      </g>
     </g>
     <g id="text_12">
      <!-- −20 -->
      <g transform="translate(33.605025 364.106288)scale(0.2 -0.2)">
       <use xlink:href="#DejaVuSans-8722"/>
       <use x="83.789062" xlink:href="#DejaVuSans-50"/>
       <use x="147.412109" xlink:href="#DejaVuSans-48"/>
      </g>
     </g>
    </g>
    <g id="ytick_3">
     <g id="line2d_12">
      <g>
       <use style="stroke:#000000;stroke-width:0.8;" x="82.8144" xlink:href="#m2b1f16cfca" y="281.475667"/>
      </g>
     </g>
     <g id="text_13">
      <!-- −15 -->
      <g transform="translate(33.605025 289.074104)scale(0.2 -0.2)">
       <use xlink:href="#DejaVuSans-8722"/>
       <use x="83.789062" xlink:href="#DejaVuSans-49"/>
       <use x="147.412109" xlink:href="#DejaVuSans-53"/>
      </g>
     </g>
    </g>
    <g id="ytick_4">
     <g id="line2d_13">
      <g>
       <use style="stroke:#000000;stroke-width:0.8;" x="82.8144" xlink:href="#m2b1f16cfca" y="206.443483"/>
      </g>
     </g>
     <g id="text_14">
      <!-- −10 -->
      <g transform="translate(33.605025 214.04192)scale(0.2 -0.2)">
       <use xlink:href="#DejaVuSans-8722"/>
       <use x="83.789062" xlink:href="#DejaVuSans-49"/>
       <use x="147.412109" xlink:href="#DejaVuSans-48"/>
      </g>
     </g>
    </g>
    <g id="ytick_5">
     <g id="line2d_14">
      <g>
       <use style="stroke:#000000;stroke-width:0.8;" x="82.8144" xlink:href="#m2b1f16cfca" y="131.411299"/>
      </g>
     </g>
     <g id="text_15">
      <!-- −5 -->
      <g transform="translate(46.330025 139.009736)scale(0.2 -0.2)">
       <use xlink:href="#DejaVuSans-8722"/>
       <use x="83.789062" xlink:href="#DejaVuSans-53"/>
      </g>
     </g>
    </g>
    <g id="ytick_6">
     <g id="line2d_15">
      <g>
       <use style="stroke:#000000;stroke-width:0.8;" x="82.8144" xlink:href="#m2b1f16cfca" y="56.379115"/>
      </g>
     </g>
     <g id="text_16">
      <!-- 0 -->
      <g transform="translate(63.0894 63.977552)scale(0.2 -0.2)">
       <use xlink:href="#DejaVuSans-48"/>
      </g>
     </g>
    </g>
    <g id="text_17">
     <!-- $\log P(w(\tau) = w)$ -->
     <defs>
      <path d="M 9.421875 75.984375 
L 18.40625 75.984375 
L 18.40625 0 
L 9.421875 0 
z
" id="DejaVuSans-108"/>
      <path d="M 30.609375 48.390625 
Q 23.390625 48.390625 19.1875 42.75 
Q 14.984375 37.109375 14.984375 27.296875 
Q 14.984375 17.484375 19.15625 11.84375 
Q 23.34375 6.203125 30.609375 6.203125 
Q 37.796875 6.203125 41.984375 11.859375 
Q 46.1875 17.53125 46.1875 27.296875 
Q 46.1875 37.015625 41.984375 42.703125 
Q 37.796875 48.390625 30.609375 48.390625 
z
M 30.609375 56 
Q 42.328125 56 49.015625 48.375 
Q 55.71875 40.765625 55.71875 27.296875 
Q 55.71875 13.875 49.015625 6.21875 
Q 42.328125 -1.421875 30.609375 -1.421875 
Q 18.84375 -1.421875 12.171875 6.21875 
Q 5.515625 13.875 5.515625 27.296875 
Q 5.515625 40.765625 12.171875 48.375 
Q 18.84375 56 30.609375 56 
z
" id="DejaVuSans-111"/>
      <path d="M 45.40625 27.984375 
Q 45.40625 37.75 41.375 43.109375 
Q 37.359375 48.484375 30.078125 48.484375 
Q 22.859375 48.484375 18.828125 43.109375 
Q 14.796875 37.75 14.796875 27.984375 
Q 14.796875 18.265625 18.828125 12.890625 
Q 22.859375 7.515625 30.078125 7.515625 
Q 37.359375 7.515625 41.375 12.890625 
Q 45.40625 18.265625 45.40625 27.984375 
z
M 54.390625 6.78125 
Q 54.390625 -7.171875 48.1875 -13.984375 
Q 42 -20.796875 29.203125 -20.796875 
Q 24.46875 -20.796875 20.265625 -20.09375 
Q 16.0625 -19.390625 12.109375 -17.921875 
L 12.109375 -9.1875 
Q 16.0625 -11.328125 19.921875 -12.34375 
Q 23.78125 -13.375 27.78125 -13.375 
Q 36.625 -13.375 41.015625 -8.765625 
Q 45.40625 -4.15625 45.40625 5.171875 
L 45.40625 9.625 
Q 42.625 4.78125 38.28125 2.390625 
Q 33.9375 0 27.875 0 
Q 17.828125 0 11.671875 7.65625 
Q 5.515625 15.328125 5.515625 27.984375 
Q 5.515625 40.671875 11.671875 48.328125 
Q 17.828125 56 27.875 56 
Q 33.9375 56 38.28125 53.609375 
Q 42.625 51.21875 45.40625 46.390625 
L 45.40625 54.6875 
L 54.390625 54.6875 
z
" id="DejaVuSans-103"/>
      <path d="M 16.890625 72.90625 
L 39.703125 72.90625 
Q 49.65625 72.90625 54.875 68.265625 
Q 60.109375 63.625 60.109375 54.6875 
Q 60.109375 42.671875 52.390625 35.984375 
Q 44.671875 29.296875 30.71875 29.296875 
L 18.3125 29.296875 
L 12.59375 0 
L 2.6875 0 
z
M 25.203125 64.796875 
L 19.921875 37.40625 
L 32.328125 37.40625 
Q 40.71875 37.40625 45.203125 41.703125 
Q 49.703125 46 49.703125 54 
Q 49.703125 59.125 46.65625 61.953125 
Q 43.609375 64.796875 38.09375 64.796875 
z
" id="DejaVuSans-Oblique-80"/>
      <path d="M 32.859375 9.96875 
Q 34.1875 7.625 39.453125 7.625 
L 43.75 7.625 
L 42.28125 0 
L 36.921875 0 
Q 28.125 0 25 4.6875 
Q 21.921875 9.46875 23.96875 19.828125 
L 29 45.703125 
L 8.453125 45.703125 
L 10.203125 54.6875 
L 60.640625 54.6875 
L 58.890625 45.703125 
L 38.1875 45.703125 
L 33.015625 19.28125 
Q 31.640625 12.203125 32.859375 9.96875 
z
" id="DejaVuSans-Oblique-964"/>
      <path d="M 10.59375 45.40625 
L 73.1875 45.40625 
L 73.1875 37.203125 
L 10.59375 37.203125 
z
M 10.59375 25.484375 
L 73.1875 25.484375 
L 73.1875 17.1875 
L 10.59375 17.1875 
z
" id="DejaVuSans-61"/>
     </defs>
     <g transform="translate(25.405025 310.4096)rotate(-90)scale(0.2 -0.2)">
      <use transform="translate(0 0.015625)" xlink:href="#DejaVuSans-108"/>
      <use transform="translate(27.783203 0.015625)" xlink:href="#DejaVuSans-111"/>
      <use transform="translate(88.964844 0.015625)" xlink:href="#DejaVuSans-103"/>
      <use transform="translate(152.441406 0.015625)" xlink:href="#DejaVuSans-Oblique-80"/>
      <use transform="translate(212.744141 0.015625)" xlink:href="#DejaVuSans-40"/>
      <use transform="translate(251.757812 0.015625)" xlink:href="#DejaVuSans-Oblique-119"/>
      <use transform="translate(333.544922 0.015625)" xlink:href="#DejaVuSans-40"/>
      <use transform="translate(372.558594 0.015625)" xlink:href="#DejaVuSans-Oblique-964"/>
      <use transform="translate(432.763672 0.015625)" xlink:href="#DejaVuSans-41"/>
      <use transform="translate(491.259766 0.015625)" xlink:href="#DejaVuSans-61"/>
      <use transform="translate(594.53125 0.015625)" xlink:href="#DejaVuSans-Oblique-119"/>
      <use transform="translate(676.318359 0.015625)" xlink:href="#DejaVuSans-41"/>
     </g>
    </g>
   </g>
   <g id="line2d_16">
    <path clip-path="url(#p82dde814e2)" d="M 120.513085 390.380086 
L 161.789903 318.794606 
L 175.548842 296.849065 
L 203.066721 255.832414 
L 216.82566 236.761303 
L 230.584599 218.648335 
L 244.343538 201.493511 
L 258.102477 185.296829 
L 271.861417 170.058291 
L 285.620356 155.777896 
L 299.379295 142.455644 
L 313.138234 130.091536 
L 326.897173 118.68557 
L 340.656113 108.237748 
L 354.415052 98.748069 
L 368.173991 90.216533 
L 381.93293 82.64314 
L 395.691869 76.02789 
L 409.450809 70.370784 
L 423.209748 65.671821 
L 436.968687 61.931001 
L 450.727626 59.148324 
L 464.486565 57.32379 
L 478.245505 56.4574 
L 492.004444 56.549152 
L 505.763383 57.599048 
L 519.522322 59.607087 
L 533.281261 62.573269 
L 547.040201 66.497595 
L 560.79914 71.380063 
L 574.558079 77.220675 
L 588.317018 84.01943 
L 602.075958 91.776328 
L 615.834897 100.491369 
L 629.593836 110.164554 
L 643.352775 120.795882 
L 657.111714 132.385352 
L 670.870654 144.932967 
L 684.629593 158.438724 
L 698.388532 172.902624 
L 712.147471 188.324668 
L 725.90641 204.704854 
L 739.66535 222.043184 
L 753.424289 240.339657 
L 767.183228 259.594274 
L 780.942167 279.807033 
" style="fill:none;stroke:#0080ff;stroke-linecap:square;stroke-width:1.5;"/>
   </g>
   <g id="line2d_17">
    <path clip-path="url(#p82dde814e2)" d="M 257.762992 190.428174 
L 270.49633 175.588058 
L 283.229668 161.618273 
L 295.963006 148.51882 
L 308.696344 136.289698 
L 321.429682 124.930908 
L 334.16302 114.442449 
L 346.896357 104.824322 
L 359.629695 96.076527 
L 372.363033 88.199062 
L 385.096371 81.19193 
L 397.829709 75.055129 
L 410.563047 69.788659 
L 423.296385 65.392521 
L 436.029722 61.866714 
L 448.76306 59.211239 
L 461.496398 57.426095 
L 474.229736 56.511283 
L 486.963074 56.466803 
L 499.696412 57.292653 
L 512.42975 58.988836 
L 525.163088 61.55535 
L 537.896425 64.992195 
L 550.629763 69.299372 
L 563.363101 74.47688 
L 576.096439 80.52472 
L 588.829777 87.442891 
L 601.563115 95.231394 
L 614.296453 103.890229 
L 627.029791 113.419395 
L 639.763128 123.818892 
L 652.496466 135.088721 
L 665.229804 147.228881 
L 677.963142 160.239373 
L 690.69648 174.120196 
L 703.429818 188.871351 
L 716.163156 204.492838 
L 728.896494 220.984656 
L 741.629831 238.346805 
L 754.363169 256.579286 
L 767.096507 275.682098 
L 779.829845 295.655242 
L 792.563183 316.498717 
L 805.296521 338.212524 
" style="fill:none;stroke:#7dff7a;stroke-linecap:square;stroke-width:1.5;"/>
   </g>
   <g id="line2d_18">
    <path clip-path="url(#p82dde814e2)" d="M 267.582914 162.854161 
L 279.851219 150.79264 
L 292.119524 139.455957 
L 304.38783 128.844113 
L 316.656135 118.957105 
L 328.92444 109.794936 
L 341.192745 101.357604 
L 353.46105 93.64511 
L 365.729355 86.657454 
L 377.99766 80.394636 
L 390.265965 74.856656 
L 402.53427 70.043513 
L 414.802575 65.955208 
L 427.07088 62.59174 
L 439.339185 59.953111 
L 451.60749 58.039319 
L 463.875795 56.850365 
L 476.1441 56.386249 
L 488.412405 56.646971 
L 500.68071 57.63253 
L 512.949015 59.342927 
L 525.21732 61.778162 
L 537.485626 64.938235 
L 549.753931 68.823145 
L 562.022236 73.432893 
L 574.290541 78.767479 
L 586.558846 84.826903 
L 598.827151 91.611165 
L 611.095456 99.120264 
L 623.363761 107.354201 
L 635.632066 116.312976 
L 647.900371 125.996588 
L 660.168676 136.405039 
L 672.436981 147.538327 
L 684.705286 159.396452 
L 696.973591 171.979416 
L 709.241896 185.287218 
L 721.510201 199.319857 
L 733.778506 214.077334 
L 746.046811 229.559648 
L 758.315116 245.766801 
L 770.583421 262.698791 
L 782.851727 280.355619 
L 795.120032 298.737285 
L 807.388337 317.843788 
L 819.656642 337.67513 
L 831.924947 358.231309 
L 844.193252 379.512326 
L 856.461557 401.51818 
L 868.729862 424.248873 
" style="fill:none;stroke:#ff9400;stroke-linecap:square;stroke-width:1.5;"/>
   </g>
   <g id="patch_3">
    <path d="M 82.8144 442.7928 
L 82.8144 34.8264 
" style="fill:none;stroke:#000000;stroke-linecap:square;stroke-linejoin:miter;stroke-width:0.8;"/>
   </g>
   <g id="patch_4">
    <path d="M 910.9584 442.7928 
L 910.9584 34.8264 
" style="fill:none;stroke:#000000;stroke-linecap:square;stroke-linejoin:miter;stroke-width:0.8;"/>
   </g>
   <g id="patch_5">
    <path d="M 82.8144 442.7928 
L 910.9584 442.7928 
" style="fill:none;stroke:#000000;stroke-linecap:square;stroke-linejoin:miter;stroke-width:0.8;"/>
   </g>
   <g id="patch_6">
    <path d="M 82.8144 34.8264 
L 910.9584 34.8264 
" style="fill:none;stroke:#000000;stroke-linecap:square;stroke-linejoin:miter;stroke-width:0.8;"/>
   </g>
   <g id="text_18">
    <!-- $N=10, \phi=0.65, N_{bins} = 50$$, \epsilon_{cut} = 2.00$ -->
    <defs>
     <path d="M 16.890625 72.90625 
L 30.171875 72.90625 
L 50.296875 10.40625 
L 62.5 72.90625 
L 72.125 72.90625 
L 57.90625 0 
L 44.578125 0 
L 24.515625 62.890625 
L 12.3125 0 
L 2.6875 0 
z
" id="DejaVuSans-Oblique-78"/>
     <path d="M 11.71875 12.40625 
L 22.015625 12.40625 
L 22.015625 4 
L 14.015625 -11.625 
L 7.71875 -11.625 
L 11.71875 4 
z
" id="DejaVuSans-44"/>
     <path d="M 46.734375 75.984375 
L 42.78125 55.8125 
Q 52.546875 55.8125 57.5625 48.34375 
Q 62.75 40.71875 60.15625 27.296875 
Q 57.515625 13.875 49.359375 6.25 
Q 41.453125 -1.21875 31.6875 -1.21875 
L 27.875 -20.796875 
L 18.953125 -20.796875 
L 22.75 -1.21875 
Q 13.03125 -1.21875 7.953125 6.25 
Q 2.78125 13.875 5.421875 27.296875 
Q 8.015625 40.71875 16.15625 48.34375 
Q 24.125 55.8125 33.84375 55.8125 
L 37.796875 75.984375 
z
M 33.25 6.78125 
Q 38.765625 6.78125 43.5 11.8125 
Q 48.6875 17.4375 50.6875 27.296875 
Q 52.640625 37.0625 49.515625 42.78125 
Q 46.734375 47.796875 41.21875 47.796875 
z
M 24.3125 6.78125 
L 32.28125 47.796875 
Q 26.8125 47.796875 22.078125 42.78125 
Q 16.75 37.0625 14.890625 27.296875 
Q 13.03125 17.4375 16.0625 11.8125 
Q 18.796875 6.78125 24.3125 6.78125 
z
" id="DejaVuSans-Oblique-981"/>
     <path d="M 10.6875 12.40625 
L 21 12.40625 
L 21 0 
L 10.6875 0 
z
" id="DejaVuSans-46"/>
     <path d="M 33.015625 40.375 
Q 26.375 40.375 22.484375 35.828125 
Q 18.609375 31.296875 18.609375 23.390625 
Q 18.609375 15.53125 22.484375 10.953125 
Q 26.375 6.390625 33.015625 6.390625 
Q 39.65625 6.390625 43.53125 10.953125 
Q 47.40625 15.53125 47.40625 23.390625 
Q 47.40625 31.296875 43.53125 35.828125 
Q 39.65625 40.375 33.015625 40.375 
z
M 52.59375 71.296875 
L 52.59375 62.3125 
Q 48.875 64.0625 45.09375 64.984375 
Q 41.3125 65.921875 37.59375 65.921875 
Q 27.828125 65.921875 22.671875 59.328125 
Q 17.53125 52.734375 16.796875 39.40625 
Q 19.671875 43.65625 24.015625 45.921875 
Q 28.375 48.1875 33.59375 48.1875 
Q 44.578125 48.1875 50.953125 41.515625 
Q 57.328125 34.859375 57.328125 23.390625 
Q 57.328125 12.15625 50.6875 5.359375 
Q 44.046875 -1.421875 33.015625 -1.421875 
Q 20.359375 -1.421875 13.671875 8.265625 
Q 6.984375 17.96875 6.984375 36.375 
Q 6.984375 53.65625 15.1875 63.9375 
Q 23.390625 74.21875 37.203125 74.21875 
Q 40.921875 74.21875 44.703125 73.484375 
Q 48.484375 72.75 52.59375 71.296875 
z
" id="DejaVuSans-54"/>
     <path d="M 49.515625 33.40625 
Q 49.515625 40.484375 46.265625 44.484375 
Q 43.015625 48.484375 37.3125 48.484375 
Q 33.15625 48.484375 29.515625 46.453125 
Q 25.875 44.4375 23.1875 40.578125 
Q 20.359375 36.53125 18.71875 31.171875 
Q 17.09375 25.828125 17.09375 20.515625 
Q 17.09375 13.765625 20.28125 9.9375 
Q 23.484375 6.109375 29.109375 6.109375 
Q 33.34375 6.109375 36.953125 8.078125 
Q 40.578125 10.0625 43.3125 13.921875 
Q 46.09375 17.921875 47.796875 23.234375 
Q 49.515625 28.5625 49.515625 33.40625 
z
M 21.578125 46.390625 
Q 24.90625 50.875 29.90625 53.4375 
Q 34.90625 56 40.375 56 
Q 48.78125 56 53.734375 50.328125 
Q 58.6875 44.671875 58.6875 35.015625 
Q 58.6875 27.09375 55.78125 19.671875 
Q 52.875 12.25 47.515625 6.5 
Q 44 2.6875 39.40625 0.625 
Q 34.8125 -1.421875 29.78125 -1.421875 
Q 24.46875 -1.421875 20.5625 1.015625 
Q 16.65625 3.46875 14.203125 8.296875 
L 12.59375 0 
L 3.609375 0 
L 18.40625 75.984375 
L 27.390625 75.984375 
z
" id="DejaVuSans-Oblique-98"/>
     <path d="M 18.3125 75.984375 
L 27.296875 75.984375 
L 25.09375 64.59375 
L 16.109375 64.59375 
z
M 14.203125 54.6875 
L 23.1875 54.6875 
L 12.5 0 
L 3.515625 0 
z
" id="DejaVuSans-Oblique-105"/>
     <path d="M 55.71875 33.015625 
L 49.3125 0 
L 40.28125 0 
L 46.6875 32.671875 
Q 47.125 34.96875 47.359375 36.71875 
Q 47.609375 38.484375 47.609375 39.5 
Q 47.609375 43.609375 45.015625 45.890625 
Q 42.4375 48.1875 37.796875 48.1875 
Q 30.5625 48.1875 25.34375 43.375 
Q 20.125 38.578125 18.5 30.328125 
L 12.5 0 
L 3.515625 0 
L 14.109375 54.6875 
L 23.09375 54.6875 
L 21.296875 46.09375 
Q 25.046875 50.828125 30.3125 53.40625 
Q 35.59375 56 41.40625 56 
Q 48.640625 56 52.609375 52.09375 
Q 56.59375 48.1875 56.59375 41.109375 
Q 56.59375 39.359375 56.375 37.359375 
Q 56.15625 35.359375 55.71875 33.015625 
z
" id="DejaVuSans-Oblique-110"/>
     <path d="M 50 53.078125 
L 48.296875 44.578125 
Q 44.734375 46.53125 40.765625 47.5 
Q 36.8125 48.484375 32.625 48.484375 
Q 25.53125 48.484375 21.453125 46.0625 
Q 17.390625 43.65625 17.390625 39.5 
Q 17.390625 34.671875 26.859375 32.078125 
Q 27.59375 31.890625 27.9375 31.78125 
L 30.8125 30.90625 
Q 39.796875 28.421875 42.796875 25.6875 
Q 45.796875 22.953125 45.796875 18.21875 
Q 45.796875 9.515625 38.890625 4.046875 
Q 31.984375 -1.421875 20.796875 -1.421875 
Q 16.453125 -1.421875 11.671875 -0.578125 
Q 6.890625 0.25 1.125 2 
L 2.875 11.28125 
Q 7.8125 8.734375 12.59375 7.421875 
Q 17.390625 6.109375 21.78125 6.109375 
Q 28.375 6.109375 32.5 8.9375 
Q 36.625 11.765625 36.625 16.109375 
Q 36.625 20.796875 25.78125 23.6875 
L 24.859375 23.921875 
L 21.78125 24.703125 
Q 14.9375 26.515625 11.765625 29.46875 
Q 8.59375 32.421875 8.59375 37.015625 
Q 8.59375 45.75 15.15625 50.875 
Q 21.734375 56 33.015625 56 
Q 37.453125 56 41.671875 55.265625 
Q 45.90625 54.546875 50 53.078125 
z
" id="DejaVuSans-Oblique-115"/>
     <path d="M 53.609375 52.59375 
L 51.8125 43.703125 
Q 48.578125 46.046875 44.9375 47.21875 
Q 41.3125 48.390625 37.40625 48.390625 
Q 33.109375 48.390625 29.21875 46.875 
Q 25.34375 45.359375 22.703125 42.578125 
Q 18.5 38.328125 16.203125 32.609375 
Q 13.921875 26.90625 13.921875 20.796875 
Q 13.921875 13.421875 17.609375 9.8125 
Q 21.296875 6.203125 28.8125 6.203125 
Q 32.515625 6.203125 36.6875 7.328125 
Q 40.875 8.453125 45.40625 10.6875 
L 43.703125 1.8125 
Q 39.796875 0.203125 35.671875 -0.609375 
Q 31.546875 -1.421875 27.203125 -1.421875 
Q 16.3125 -1.421875 10.453125 4.015625 
Q 4.59375 9.46875 4.59375 19.578125 
Q 4.59375 28.078125 7.640625 35.234375 
Q 10.6875 42.390625 16.703125 48.09375 
Q 20.796875 52 26.3125 54 
Q 31.84375 56 38.375 56 
Q 42.1875 56 45.9375 55.140625 
Q 49.703125 54.296875 53.609375 52.59375 
z
" id="DejaVuSans-Oblique-99"/>
     <path d="M 6.6875 21.6875 
L 13.09375 54.6875 
L 22.125 54.6875 
L 15.71875 22.015625 
Q 15.234375 19.625 15.015625 17.921875 
Q 14.796875 16.21875 14.796875 15.09375 
Q 14.796875 10.9375 17.328125 8.65625 
Q 19.875 6.390625 24.515625 6.390625 
Q 31.734375 6.390625 37 11.265625 
Q 42.28125 16.15625 43.890625 24.421875 
L 49.90625 54.6875 
L 58.890625 54.6875 
L 48.296875 0 
L 39.3125 0 
L 41.109375 8.59375 
Q 37.3125 3.8125 32.0625 1.1875 
Q 26.8125 -1.421875 20.90625 -1.421875 
Q 13.71875 -1.421875 9.71875 2.515625 
Q 5.71875 6.453125 5.71875 13.484375 
Q 5.71875 14.9375 5.953125 17.140625 
Q 6.203125 19.34375 6.6875 21.6875 
z
" id="DejaVuSans-Oblique-117"/>
     <path d="M 42.28125 54.6875 
L 40.921875 47.703125 
L 23 47.703125 
L 17.1875 18.015625 
Q 16.890625 16.359375 16.75 15.234375 
Q 16.609375 14.109375 16.609375 13.484375 
Q 16.609375 10.359375 18.484375 8.9375 
Q 20.359375 7.515625 24.515625 7.515625 
L 33.59375 7.515625 
L 32.078125 0 
L 23.484375 0 
Q 15.484375 0 11.546875 3.125 
Q 7.625 6.25 7.625 12.59375 
Q 7.625 13.71875 7.765625 15.0625 
Q 7.90625 16.40625 8.203125 18.015625 
L 14.015625 47.703125 
L 6.390625 47.703125 
L 7.8125 54.6875 
L 15.28125 54.6875 
L 18.3125 70.21875 
L 27.296875 70.21875 
L 24.3125 54.6875 
z
" id="DejaVuSans-Oblique-116"/>
    </defs>
    <g transform="translate(271.8864 28.8264)scale(0.24 -0.24)">
     <use transform="translate(0 0.015625)" xlink:href="#DejaVuSans-Oblique-78"/>
     <use transform="translate(94.287109 0.015625)" xlink:href="#DejaVuSans-61"/>
     <use transform="translate(197.558594 0.015625)" xlink:href="#DejaVuSans-49"/>
     <use transform="translate(261.181641 0.015625)" xlink:href="#DejaVuSans-48"/>
     <use transform="translate(324.804688 0.015625)" xlink:href="#DejaVuSans-44"/>
     <use transform="translate(376.074219 0.015625)" xlink:href="#DejaVuSans-Oblique-981"/>
     <use transform="translate(461.523438 0.015625)" xlink:href="#DejaVuSans-61"/>
     <use transform="translate(564.794922 0.015625)" xlink:href="#DejaVuSans-48"/>
     <use transform="translate(628.417969 0.015625)" xlink:href="#DejaVuSans-46"/>
     <use transform="translate(660.205078 0.015625)" xlink:href="#DejaVuSans-54"/>
     <use transform="translate(723.828125 0.015625)" xlink:href="#DejaVuSans-53"/>
     <use transform="translate(787.451172 0.015625)" xlink:href="#DejaVuSans-44"/>
     <use transform="translate(838.720703 0.015625)" xlink:href="#DejaVuSans-Oblique-78"/>
     <use transform="translate(913.525391 -16.390625)scale(0.7)" xlink:href="#DejaVuSans-Oblique-98"/>
     <use transform="translate(957.958984 -16.390625)scale(0.7)" xlink:href="#DejaVuSans-Oblique-105"/>
     <use transform="translate(977.407227 -16.390625)scale(0.7)" xlink:href="#DejaVuSans-Oblique-110"/>
     <use transform="translate(1021.772461 -16.390625)scale(0.7)" xlink:href="#DejaVuSans-Oblique-115"/>
     <use transform="translate(1080.458984 0.015625)" xlink:href="#DejaVuSans-61"/>
     <use transform="translate(1183.730469 0.015625)" xlink:href="#DejaVuSans-53"/>
     <use transform="translate(1247.353516 0.015625)" xlink:href="#DejaVuSans-48"/>
     <use transform="translate(1310.976562 0.015625)" xlink:href="#DejaVuSans-44"/>
     <use transform="translate(1362.246094 0.015625)" xlink:href="#DejaVuSans-Oblique-949"/>
     <use transform="translate(1416.298828 -16.390625)scale(0.7)" xlink:href="#DejaVuSans-Oblique-99"/>
     <use transform="translate(1454.785156 -16.390625)scale(0.7)" xlink:href="#DejaVuSans-Oblique-117"/>
     <use transform="translate(1499.150391 -16.390625)scale(0.7)" xlink:href="#DejaVuSans-Oblique-116"/>
     <use transform="translate(1548.813477 0.015625)" xlink:href="#DejaVuSans-61"/>
     <use transform="translate(1652.084961 0.015625)" xlink:href="#DejaVuSans-50"/>
     <use transform="translate(1715.708008 0.015625)" xlink:href="#DejaVuSans-46"/>
     <use transform="translate(1747.495117 0.015625)" xlink:href="#DejaVuSans-48"/>
     <use transform="translate(1811.118164 0.015625)" xlink:href="#DejaVuSans-48"/>
    </g>
   </g>
   <g id="legend_1">
    <g id="patch_7">
     <path d="M 342.1864 432.7928 
L 651.5864 432.7928 
Q 655.5864 432.7928 655.5864 428.7928 
L 655.5864 336.5928 
Q 655.5864 332.5928 651.5864 332.5928 
L 342.1864 332.5928 
Q 338.1864 332.5928 338.1864 336.5928 
L 338.1864 428.7928 
Q 338.1864 432.7928 342.1864 432.7928 
z
" style="fill:#ffffff;opacity:0.8;stroke:#cccccc;stroke-linejoin:miter;"/>
    </g>
    <g id="PathCollection_4">
     <g>
      <use style="fill:#0080ff;stroke:#0080ff;" x="366.1864" xlink:href="#mda3c944cea" y="350.5428"/>
     </g>
    </g>
    <g id="text_19">
     <!-- $\tau/(l_p/\sigma) = 1.00, l_p/\sigma=20$ -->
     <defs>
      <path d="M 18.3125 75.984375 
L 27.296875 75.984375 
L 12.5 0 
L 3.515625 0 
z
" id="DejaVuSans-Oblique-108"/>
      <path d="M 49.609375 33.6875 
Q 49.609375 40.875 46.484375 44.671875 
Q 43.359375 48.484375 37.5 48.484375 
Q 33.5 48.484375 29.859375 46.4375 
Q 26.21875 44.390625 23.390625 40.484375 
Q 20.609375 36.625 18.9375 31.15625 
Q 17.28125 25.6875 17.28125 20.3125 
Q 17.28125 13.484375 20.40625 9.796875 
Q 23.53125 6.109375 29.296875 6.109375 
Q 33.546875 6.109375 37.1875 8.109375 
Q 40.828125 10.109375 43.40625 13.921875 
Q 46.1875 17.921875 47.890625 23.34375 
Q 49.609375 28.765625 49.609375 33.6875 
z
M 21.78125 46.390625 
Q 25.390625 51.125 30.296875 53.5625 
Q 35.203125 56 41.21875 56 
Q 49.609375 56 54.25 50.5 
Q 58.890625 45.015625 58.890625 35.109375 
Q 58.890625 27 56 19.65625 
Q 53.125 12.3125 47.703125 6.5 
Q 44.09375 2.640625 39.546875 0.609375 
Q 35.015625 -1.421875 29.984375 -1.421875 
Q 24.171875 -1.421875 20.21875 1 
Q 16.265625 3.421875 14.3125 8.203125 
L 8.6875 -20.796875 
L -0.296875 -20.796875 
L 14.40625 54.6875 
L 23.390625 54.6875 
z
" id="DejaVuSans-Oblique-112"/>
     </defs>
     <g transform="translate(402.1864 355.7928)scale(0.2 -0.2)">
      <use transform="translate(0 0.015625)" xlink:href="#DejaVuSans-Oblique-964"/>
      <use transform="translate(60.205078 0.015625)" xlink:href="#DejaVuSans-47"/>
      <use transform="translate(93.896484 0.015625)" xlink:href="#DejaVuSans-40"/>
      <use transform="translate(132.910156 0.015625)" xlink:href="#DejaVuSans-Oblique-108"/>
      <use transform="translate(160.693359 -16.390625)scale(0.7)" xlink:href="#DejaVuSans-Oblique-112"/>
      <use transform="translate(207.861328 0.015625)" xlink:href="#DejaVuSans-47"/>
      <use transform="translate(241.552734 0.015625)" xlink:href="#DejaVuSans-Oblique-963"/>
      <use transform="translate(304.931641 0.015625)" xlink:href="#DejaVuSans-41"/>
      <use transform="translate(363.427734 0.015625)" xlink:href="#DejaVuSans-61"/>
      <use transform="translate(466.699219 0.015625)" xlink:href="#DejaVuSans-49"/>
      <use transform="translate(530.322266 0.015625)" xlink:href="#DejaVuSans-46"/>
      <use transform="translate(562.109375 0.015625)" xlink:href="#DejaVuSans-48"/>
      <use transform="translate(625.732422 0.015625)" xlink:href="#DejaVuSans-48"/>
      <use transform="translate(689.355469 0.015625)" xlink:href="#DejaVuSans-44"/>
      <use transform="translate(740.625 0.015625)" xlink:href="#DejaVuSans-Oblique-108"/>
      <use transform="translate(768.408203 -16.390625)scale(0.7)" xlink:href="#DejaVuSans-Oblique-112"/>
      <use transform="translate(815.576172 0.015625)" xlink:href="#DejaVuSans-47"/>
      <use transform="translate(849.267578 0.015625)" xlink:href="#DejaVuSans-Oblique-963"/>
      <use transform="translate(932.128906 0.015625)" xlink:href="#DejaVuSans-61"/>
      <use transform="translate(1035.400391 0.015625)" xlink:href="#DejaVuSans-50"/>
      <use transform="translate(1099.023438 0.015625)" xlink:href="#DejaVuSans-48"/>
     </g>
    </g>
    <g id="PathCollection_5">
     <g>
      <use style="fill:#7dff7a;stroke:#7dff7a;" x="366.1864" xlink:href="#me4957f3ab0" y="381.9428"/>
     </g>
    </g>
    <g id="text_20">
     <!-- $\tau/(l_p/\sigma) = 1.00, l_p/\sigma=40$ -->
     <g transform="translate(402.1864 387.1928)scale(0.2 -0.2)">
      <use transform="translate(0 0.015625)" xlink:href="#DejaVuSans-Oblique-964"/>
      <use transform="translate(60.205078 0.015625)" xlink:href="#DejaVuSans-47"/>
      <use transform="translate(93.896484 0.015625)" xlink:href="#DejaVuSans-40"/>
      <use transform="translate(132.910156 0.015625)" xlink:href="#DejaVuSans-Oblique-108"/>
      <use transform="translate(160.693359 -16.390625)scale(0.7)" xlink:href="#DejaVuSans-Oblique-112"/>
      <use transform="translate(207.861328 0.015625)" xlink:href="#DejaVuSans-47"/>
      <use transform="translate(241.552734 0.015625)" xlink:href="#DejaVuSans-Oblique-963"/>
      <use transform="translate(304.931641 0.015625)" xlink:href="#DejaVuSans-41"/>
      <use transform="translate(363.427734 0.015625)" xlink:href="#DejaVuSans-61"/>
      <use transform="translate(466.699219 0.015625)" xlink:href="#DejaVuSans-49"/>
      <use transform="translate(530.322266 0.015625)" xlink:href="#DejaVuSans-46"/>
      <use transform="translate(562.109375 0.015625)" xlink:href="#DejaVuSans-48"/>
      <use transform="translate(625.732422 0.015625)" xlink:href="#DejaVuSans-48"/>
      <use transform="translate(689.355469 0.015625)" xlink:href="#DejaVuSans-44"/>
      <use transform="translate(740.625 0.015625)" xlink:href="#DejaVuSans-Oblique-108"/>
      <use transform="translate(768.408203 -16.390625)scale(0.7)" xlink:href="#DejaVuSans-Oblique-112"/>
      <use transform="translate(815.576172 0.015625)" xlink:href="#DejaVuSans-47"/>
      <use transform="translate(849.267578 0.015625)" xlink:href="#DejaVuSans-Oblique-963"/>
      <use transform="translate(932.128906 0.015625)" xlink:href="#DejaVuSans-61"/>
      <use transform="translate(1035.400391 0.015625)" xlink:href="#DejaVuSans-52"/>
      <use transform="translate(1099.023438 0.015625)" xlink:href="#DejaVuSans-48"/>
     </g>
    </g>
    <g id="PathCollection_6">
     <g>
      <use style="fill:#ff9400;stroke:#ff9400;" x="366.1864" xlink:href="#ma7e06fe6d2" y="413.3428"/>
     </g>
    </g>
    <g id="text_21">
     <!-- $\tau/(l_p/\sigma) = 1.00, l_p/\sigma=100$ -->
     <g transform="translate(402.1864 418.5928)scale(0.2 -0.2)">
      <use transform="translate(0 0.015625)" xlink:href="#DejaVuSans-Oblique-964"/>
      <use transform="translate(60.205078 0.015625)" xlink:href="#DejaVuSans-47"/>
      <use transform="translate(93.896484 0.015625)" xlink:href="#DejaVuSans-40"/>
      <use transform="translate(132.910156 0.015625)" xlink:href="#DejaVuSans-Oblique-108"/>
      <use transform="translate(160.693359 -16.390625)scale(0.7)" xlink:href="#DejaVuSans-Oblique-112"/>
      <use transform="translate(207.861328 0.015625)" xlink:href="#DejaVuSans-47"/>
      <use transform="translate(241.552734 0.015625)" xlink:href="#DejaVuSans-Oblique-963"/>
      <use transform="translate(304.931641 0.015625)" xlink:href="#DejaVuSans-41"/>
      <use transform="translate(363.427734 0.015625)" xlink:href="#DejaVuSans-61"/>
      <use transform="translate(466.699219 0.015625)" xlink:href="#DejaVuSans-49"/>
      <use transform="translate(530.322266 0.015625)" xlink:href="#DejaVuSans-46"/>
      <use transform="translate(562.109375 0.015625)" xlink:href="#DejaVuSans-48"/>
      <use transform="translate(625.732422 0.015625)" xlink:href="#DejaVuSans-48"/>
      <use transform="translate(689.355469 0.015625)" xlink:href="#DejaVuSans-44"/>
      <use transform="translate(740.625 0.015625)" xlink:href="#DejaVuSans-Oblique-108"/>
      <use transform="translate(768.408203 -16.390625)scale(0.7)" xlink:href="#DejaVuSans-Oblique-112"/>
      <use transform="translate(815.576172 0.015625)" xlink:href="#DejaVuSans-47"/>
      <use transform="translate(849.267578 0.015625)" xlink:href="#DejaVuSans-Oblique-963"/>
      <use transform="translate(932.128906 0.015625)" xlink:href="#DejaVuSans-61"/>
      <use transform="translate(1035.400391 0.015625)" xlink:href="#DejaVuSans-49"/>
      <use transform="translate(1099.023438 0.015625)" xlink:href="#DejaVuSans-48"/>
      <use transform="translate(1162.646484 0.015625)" xlink:href="#DejaVuSans-48"/>
     </g>
    </g>
   </g>
  </g>
 </g>
 <defs>
  <clipPath id="p82dde814e2">
   <rect height="407.9664" width="828.144" x="82.8144" y="34.8264"/>
  </clipPath>
 </defs>
</svg>
