<?xml version="1.0" encoding="utf-8" standalone="no"?>
<!DOCTYPE svg PUBLIC "-//W3C//DTD SVG 1.1//EN"
  "http://www.w3.org/Graphics/SVG/1.1/DTD/svg11.dtd">
<!-- Created with matplotlib (https://matplotlib.org/) -->
<svg height="576pt" version="1.1" viewBox="0 0 864 576" width="864pt" xmlns="http://www.w3.org/2000/svg" xmlns:xlink="http://www.w3.org/1999/xlink">
 <defs>
  <style type="text/css">
*{stroke-linecap:butt;stroke-linejoin:round;}
  </style>
 </defs>
 <g id="figure_1">
  <g id="patch_1">
   <path d="M 0 576 
L 864 576 
L 864 0 
L 0 0 
z
" style="fill:#ffffff;"/>
  </g>
  <g id="axes_1">
   <g id="patch_2">
    <path d="M 108 518.4 
L 777.6 518.4 
L 777.6 57.6 
L 108 57.6 
z
" style="fill:#ffffff;"/>
   </g>
   <g id="LineCollection_1">
    <path clip-path="url(#p9f4c677560)" d="M 447.004408 350.01389 
L 449.399154 350.01389 
" style="fill:none;stroke:#0080ff;"/>
    <path clip-path="url(#p9f4c677560)" d="M 394.292207 345.529922 
L 396.577589 345.529922 
" style="fill:none;stroke:#0080ff;"/>
    <path clip-path="url(#p9f4c677560)" d="M 342.833688 337.448217 
L 344.729505 337.448217 
" style="fill:none;stroke:#0080ff;"/>
    <path clip-path="url(#p9f4c677560)" d="M 299.313235 324.827651 
L 300.592109 324.827651 
" style="fill:none;stroke:#0080ff;"/>
    <path clip-path="url(#p9f4c677560)" d="M 266.938951 307.539382 
L 268.312828 307.539382 
" style="fill:none;stroke:#0080ff;"/>
    <path clip-path="url(#p9f4c677560)" d="M 240.76285 283.210771 
L 241.368291 283.210771 
" style="fill:none;stroke:#0080ff;"/>
    <path clip-path="url(#p9f4c677560)" d="M 218.413724 241.862059 
L 219.074762 241.862059 
" style="fill:none;stroke:#0080ff;"/>
    <path clip-path="url(#p9f4c677560)" d="M 199.514158 113.74673 
L 200.058325 113.74673 
" style="fill:none;stroke:#0080ff;"/>
    <path clip-path="url(#p9f4c677560)" d="M 182.891109 433.954194 
L 182.997529 433.954194 
" style="fill:none;stroke:#0080ff;"/>
   </g>
   <g id="LineCollection_2">
    <path clip-path="url(#p9f4c677560)" d="M 519.452849 359.1103 
L 522.220827 359.1103 
" style="fill:none;stroke:#7dff7a;"/>
    <path clip-path="url(#p9f4c677560)" d="M 474.496934 356.429022 
L 477.029725 356.429022 
" style="fill:none;stroke:#7dff7a;"/>
    <path clip-path="url(#p9f4c677560)" d="M 424.306763 352.973987 
L 425.350401 352.973987 
" style="fill:none;stroke:#7dff7a;"/>
    <path clip-path="url(#p9f4c677560)" d="M 383.54445 347.891251 
L 385.442132 347.891251 
" style="fill:none;stroke:#7dff7a;"/>
    <path clip-path="url(#p9f4c677560)" d="M 353.754131 340.510362 
L 355.004572 340.510362 
" style="fill:none;stroke:#7dff7a;"/>
    <path clip-path="url(#p9f4c677560)" d="M 333.003317 331.89389 
L 334.524598 331.89389 
" style="fill:none;stroke:#7dff7a;"/>
    <path clip-path="url(#p9f4c677560)" d="M 317.856989 324.510067 
L 318.480415 324.510067 
" style="fill:none;stroke:#7dff7a;"/>
    <path clip-path="url(#p9f4c677560)" d="M 305.846727 330.205822 
L 306.345486 330.205822 
" style="fill:none;stroke:#7dff7a;"/>
    <path clip-path="url(#p9f4c677560)" d="M 295.305598 437.007114 
L 295.50097 437.007114 
" style="fill:none;stroke:#7dff7a;"/>
   </g>
   <g id="LineCollection_3">
    <path clip-path="url(#p9f4c677560)" d="M 666.567596 363.940586 
L 668.64045 363.940586 
" style="fill:none;stroke:#ff9400;"/>
    <path clip-path="url(#p9f4c677560)" d="M 647.256505 363.928008 
L 649.814307 363.928008 
" style="fill:none;stroke:#ff9400;"/>
    <path clip-path="url(#p9f4c677560)" d="M 620.400766 363.468656 
L 622.576814 363.468656 
" style="fill:none;stroke:#ff9400;"/>
    <path clip-path="url(#p9f4c677560)" d="M 582.813743 362.343377 
L 587.677166 362.343377 
" style="fill:none;stroke:#ff9400;"/>
    <path clip-path="url(#p9f4c677560)" d="M 516.759755 360.374964 
L 519.385643 360.374964 
" style="fill:none;stroke:#ff9400;"/>
    <path clip-path="url(#p9f4c677560)" d="M 439.194508 352.72648 
L 440.499477 352.72648 
" style="fill:none;stroke:#ff9400;"/>
    <path clip-path="url(#p9f4c677560)" d="M 390.611829 343.500986 
L 391.910968 343.500986 
" style="fill:none;stroke:#ff9400;"/>
    <path clip-path="url(#p9f4c677560)" d="M 367.242597 360.380458 
L 367.90978 360.380458 
" style="fill:none;stroke:#ff9400;"/>
    <path clip-path="url(#p9f4c677560)" d="M 351.923819 471.890113 
L 352.272156 471.890113 
" style="fill:none;stroke:#ff9400;"/>
   </g>
   <g id="line2d_1">
    <path clip-path="url(#p9f4c677560)" d="M 108 364.8 
L 777.6 364.8 
" style="fill:none;stroke:#000000;stroke-dasharray:6,6;stroke-dashoffset:0;stroke-width:4;"/>
   </g>
   <g id="line2d_2">
    <defs>
     <path d="M 0 3 
L 0 -3 
" id="mea01b17894" style="stroke:#0080ff;stroke-width:0.5;"/>
    </defs>
    <g clip-path="url(#p9f4c677560)">
     <use style="fill:#0080ff;stroke:#0080ff;stroke-width:0.5;" x="447.004408" xlink:href="#mea01b17894" y="350.01389"/>
     <use style="fill:#0080ff;stroke:#0080ff;stroke-width:0.5;" x="394.292207" xlink:href="#mea01b17894" y="345.529922"/>
     <use style="fill:#0080ff;stroke:#0080ff;stroke-width:0.5;" x="342.833688" xlink:href="#mea01b17894" y="337.448217"/>
     <use style="fill:#0080ff;stroke:#0080ff;stroke-width:0.5;" x="299.313235" xlink:href="#mea01b17894" y="324.827651"/>
     <use style="fill:#0080ff;stroke:#0080ff;stroke-width:0.5;" x="266.938951" xlink:href="#mea01b17894" y="307.539382"/>
     <use style="fill:#0080ff;stroke:#0080ff;stroke-width:0.5;" x="240.76285" xlink:href="#mea01b17894" y="283.210771"/>
     <use style="fill:#0080ff;stroke:#0080ff;stroke-width:0.5;" x="218.413724" xlink:href="#mea01b17894" y="241.862059"/>
     <use style="fill:#0080ff;stroke:#0080ff;stroke-width:0.5;" x="199.514158" xlink:href="#mea01b17894" y="113.74673"/>
     <use style="fill:#0080ff;stroke:#0080ff;stroke-width:0.5;" x="182.891109" xlink:href="#mea01b17894" y="433.954194"/>
    </g>
   </g>
   <g id="line2d_3">
    <g clip-path="url(#p9f4c677560)">
     <use style="fill:#0080ff;stroke:#0080ff;stroke-width:0.5;" x="449.399154" xlink:href="#mea01b17894" y="350.01389"/>
     <use style="fill:#0080ff;stroke:#0080ff;stroke-width:0.5;" x="396.577589" xlink:href="#mea01b17894" y="345.529922"/>
     <use style="fill:#0080ff;stroke:#0080ff;stroke-width:0.5;" x="344.729505" xlink:href="#mea01b17894" y="337.448217"/>
     <use style="fill:#0080ff;stroke:#0080ff;stroke-width:0.5;" x="300.592109" xlink:href="#mea01b17894" y="324.827651"/>
     <use style="fill:#0080ff;stroke:#0080ff;stroke-width:0.5;" x="268.312828" xlink:href="#mea01b17894" y="307.539382"/>
     <use style="fill:#0080ff;stroke:#0080ff;stroke-width:0.5;" x="241.368291" xlink:href="#mea01b17894" y="283.210771"/>
     <use style="fill:#0080ff;stroke:#0080ff;stroke-width:0.5;" x="219.074762" xlink:href="#mea01b17894" y="241.862059"/>
     <use style="fill:#0080ff;stroke:#0080ff;stroke-width:0.5;" x="200.058325" xlink:href="#mea01b17894" y="113.74673"/>
     <use style="fill:#0080ff;stroke:#0080ff;stroke-width:0.5;" x="182.997529" xlink:href="#mea01b17894" y="433.954194"/>
    </g>
   </g>
   <g id="line2d_4">
    <defs>
     <path d="M 0 3 
L 0 -3 
" id="mf794c2975a" style="stroke:#7dff7a;stroke-width:0.5;"/>
    </defs>
    <g clip-path="url(#p9f4c677560)">
     <use style="fill:#7dff7a;stroke:#7dff7a;stroke-width:0.5;" x="519.452849" xlink:href="#mf794c2975a" y="359.1103"/>
     <use style="fill:#7dff7a;stroke:#7dff7a;stroke-width:0.5;" x="474.496934" xlink:href="#mf794c2975a" y="356.429022"/>
     <use style="fill:#7dff7a;stroke:#7dff7a;stroke-width:0.5;" x="424.306763" xlink:href="#mf794c2975a" y="352.973987"/>
     <use style="fill:#7dff7a;stroke:#7dff7a;stroke-width:0.5;" x="383.54445" xlink:href="#mf794c2975a" y="347.891251"/>
     <use style="fill:#7dff7a;stroke:#7dff7a;stroke-width:0.5;" x="353.754131" xlink:href="#mf794c2975a" y="340.510362"/>
     <use style="fill:#7dff7a;stroke:#7dff7a;stroke-width:0.5;" x="333.003317" xlink:href="#mf794c2975a" y="331.89389"/>
     <use style="fill:#7dff7a;stroke:#7dff7a;stroke-width:0.5;" x="317.856989" xlink:href="#mf794c2975a" y="324.510067"/>
     <use style="fill:#7dff7a;stroke:#7dff7a;stroke-width:0.5;" x="305.846727" xlink:href="#mf794c2975a" y="330.205822"/>
     <use style="fill:#7dff7a;stroke:#7dff7a;stroke-width:0.5;" x="295.305598" xlink:href="#mf794c2975a" y="437.007114"/>
    </g>
   </g>
   <g id="line2d_5">
    <g clip-path="url(#p9f4c677560)">
     <use style="fill:#7dff7a;stroke:#7dff7a;stroke-width:0.5;" x="522.220827" xlink:href="#mf794c2975a" y="359.1103"/>
     <use style="fill:#7dff7a;stroke:#7dff7a;stroke-width:0.5;" x="477.029725" xlink:href="#mf794c2975a" y="356.429022"/>
     <use style="fill:#7dff7a;stroke:#7dff7a;stroke-width:0.5;" x="425.350401" xlink:href="#mf794c2975a" y="352.973987"/>
     <use style="fill:#7dff7a;stroke:#7dff7a;stroke-width:0.5;" x="385.442132" xlink:href="#mf794c2975a" y="347.891251"/>
     <use style="fill:#7dff7a;stroke:#7dff7a;stroke-width:0.5;" x="355.004572" xlink:href="#mf794c2975a" y="340.510362"/>
     <use style="fill:#7dff7a;stroke:#7dff7a;stroke-width:0.5;" x="334.524598" xlink:href="#mf794c2975a" y="331.89389"/>
     <use style="fill:#7dff7a;stroke:#7dff7a;stroke-width:0.5;" x="318.480415" xlink:href="#mf794c2975a" y="324.510067"/>
     <use style="fill:#7dff7a;stroke:#7dff7a;stroke-width:0.5;" x="306.345486" xlink:href="#mf794c2975a" y="330.205822"/>
     <use style="fill:#7dff7a;stroke:#7dff7a;stroke-width:0.5;" x="295.50097" xlink:href="#mf794c2975a" y="437.007114"/>
    </g>
   </g>
   <g id="line2d_6">
    <defs>
     <path d="M 0 3 
L 0 -3 
" id="m33c3849746" style="stroke:#ff9400;stroke-width:0.5;"/>
    </defs>
    <g clip-path="url(#p9f4c677560)">
     <use style="fill:#ff9400;stroke:#ff9400;stroke-width:0.5;" x="666.567596" xlink:href="#m33c3849746" y="363.940586"/>
     <use style="fill:#ff9400;stroke:#ff9400;stroke-width:0.5;" x="647.256505" xlink:href="#m33c3849746" y="363.928008"/>
     <use style="fill:#ff9400;stroke:#ff9400;stroke-width:0.5;" x="620.400766" xlink:href="#m33c3849746" y="363.468656"/>
     <use style="fill:#ff9400;stroke:#ff9400;stroke-width:0.5;" x="582.813743" xlink:href="#m33c3849746" y="362.343377"/>
     <use style="fill:#ff9400;stroke:#ff9400;stroke-width:0.5;" x="516.759755" xlink:href="#m33c3849746" y="360.374964"/>
     <use style="fill:#ff9400;stroke:#ff9400;stroke-width:0.5;" x="439.194508" xlink:href="#m33c3849746" y="352.72648"/>
     <use style="fill:#ff9400;stroke:#ff9400;stroke-width:0.5;" x="390.611829" xlink:href="#m33c3849746" y="343.500986"/>
     <use style="fill:#ff9400;stroke:#ff9400;stroke-width:0.5;" x="367.242597" xlink:href="#m33c3849746" y="360.380458"/>
     <use style="fill:#ff9400;stroke:#ff9400;stroke-width:0.5;" x="351.923819" xlink:href="#m33c3849746" y="471.890113"/>
    </g>
   </g>
   <g id="line2d_7">
    <g clip-path="url(#p9f4c677560)">
     <use style="fill:#ff9400;stroke:#ff9400;stroke-width:0.5;" x="668.64045" xlink:href="#m33c3849746" y="363.940586"/>
     <use style="fill:#ff9400;stroke:#ff9400;stroke-width:0.5;" x="649.814307" xlink:href="#m33c3849746" y="363.928008"/>
     <use style="fill:#ff9400;stroke:#ff9400;stroke-width:0.5;" x="622.576814" xlink:href="#m33c3849746" y="363.468656"/>
     <use style="fill:#ff9400;stroke:#ff9400;stroke-width:0.5;" x="587.677166" xlink:href="#m33c3849746" y="362.343377"/>
     <use style="fill:#ff9400;stroke:#ff9400;stroke-width:0.5;" x="519.385643" xlink:href="#m33c3849746" y="360.374964"/>
     <use style="fill:#ff9400;stroke:#ff9400;stroke-width:0.5;" x="440.499477" xlink:href="#m33c3849746" y="352.72648"/>
     <use style="fill:#ff9400;stroke:#ff9400;stroke-width:0.5;" x="391.910968" xlink:href="#m33c3849746" y="343.500986"/>
     <use style="fill:#ff9400;stroke:#ff9400;stroke-width:0.5;" x="367.90978" xlink:href="#m33c3849746" y="360.380458"/>
     <use style="fill:#ff9400;stroke:#ff9400;stroke-width:0.5;" x="352.272156" xlink:href="#m33c3849746" y="471.890113"/>
    </g>
   </g>
   <g id="line2d_8">
    <path clip-path="url(#p9f4c677560)" d="M 448.201781 350.01389 
L 395.434898 345.529922 
L 343.781597 337.448217 
L 299.952672 324.827651 
L 267.625889 307.539382 
L 241.06557 283.210771 
L 218.744243 241.862059 
L 199.786242 113.74673 
L 182.944319 433.954194 
" style="fill:none;stroke:#0080ff;stroke-linecap:square;"/>
   </g>
   <g id="line2d_9">
    <path clip-path="url(#p9f4c677560)" d="M 520.836838 359.1103 
L 475.763329 356.429022 
L 424.828582 352.973987 
L 384.493291 347.891251 
L 354.379352 340.510362 
L 333.763958 331.89389 
L 318.168702 324.510067 
L 306.096106 330.205822 
L 295.403284 437.007114 
" style="fill:none;stroke:#7dff7a;stroke-linecap:square;"/>
   </g>
   <g id="line2d_10">
    <path clip-path="url(#p9f4c677560)" d="M 667.604023 363.940586 
L 648.535406 363.928008 
L 621.48879 363.468656 
L 585.245455 362.343377 
L 518.072699 360.374964 
L 439.846992 352.72648 
L 391.261398 343.500986 
L 367.576188 360.380458 
L 352.097988 471.890113 
" style="fill:none;stroke:#ff9400;stroke-linecap:square;"/>
   </g>
   <g id="patch_3">
    <path d="M 108 518.4 
L 108 57.6 
" style="fill:none;stroke:#000000;stroke-linecap:square;stroke-linejoin:miter;"/>
   </g>
   <g id="patch_4">
    <path d="M 777.6 518.4 
L 777.6 57.6 
" style="fill:none;stroke:#000000;stroke-linecap:square;stroke-linejoin:miter;"/>
   </g>
   <g id="patch_5">
    <path d="M 108 518.4 
L 777.6 518.4 
" style="fill:none;stroke:#000000;stroke-linecap:square;stroke-linejoin:miter;"/>
   </g>
   <g id="patch_6">
    <path d="M 108 57.6 
L 777.6 57.6 
" style="fill:none;stroke:#000000;stroke-linecap:square;stroke-linejoin:miter;"/>
   </g>
   <g id="matplotlib.axis_1">
    <g id="xtick_1">
     <g id="line2d_11">
      <defs>
       <path d="M 0 0 
L 0 -4 
" id="m3eb2345b3c" style="stroke:#000000;stroke-width:0.5;"/>
      </defs>
      <g>
       <use style="stroke:#000000;stroke-width:0.5;" x="108" xlink:href="#m3eb2345b3c" y="518.4"/>
      </g>
     </g>
     <g id="line2d_12">
      <defs>
       <path d="M 0 0 
L 0 4 
" id="m158adb6555" style="stroke:#000000;stroke-width:0.5;"/>
      </defs>
      <g>
       <use style="stroke:#000000;stroke-width:0.5;" x="108" xlink:href="#m158adb6555" y="57.6"/>
      </g>
     </g>
     <g id="text_1">
      <!-- 0.3 -->
      <defs>
       <path d="M 31.78125 66.40625 
Q 24.171875 66.40625 20.328125 58.90625 
Q 16.5 51.421875 16.5 36.375 
Q 16.5 21.390625 20.328125 13.890625 
Q 24.171875 6.390625 31.78125 6.390625 
Q 39.453125 6.390625 43.28125 13.890625 
Q 47.125 21.390625 47.125 36.375 
Q 47.125 51.421875 43.28125 58.90625 
Q 39.453125 66.40625 31.78125 66.40625 
z
M 31.78125 74.21875 
Q 44.046875 74.21875 50.515625 64.515625 
Q 56.984375 54.828125 56.984375 36.375 
Q 56.984375 17.96875 50.515625 8.265625 
Q 44.046875 -1.421875 31.78125 -1.421875 
Q 19.53125 -1.421875 13.0625 8.265625 
Q 6.59375 17.96875 6.59375 36.375 
Q 6.59375 54.828125 13.0625 64.515625 
Q 19.53125 74.21875 31.78125 74.21875 
z
" id="DejaVuSans-48"/>
       <path d="M 10.6875 12.40625 
L 21 12.40625 
L 21 0 
L 10.6875 0 
z
" id="DejaVuSans-46"/>
       <path d="M 40.578125 39.3125 
Q 47.65625 37.796875 51.625 33 
Q 55.609375 28.21875 55.609375 21.1875 
Q 55.609375 10.40625 48.1875 4.484375 
Q 40.765625 -1.421875 27.09375 -1.421875 
Q 22.515625 -1.421875 17.65625 -0.515625 
Q 12.796875 0.390625 7.625 2.203125 
L 7.625 11.71875 
Q 11.71875 9.328125 16.59375 8.109375 
Q 21.484375 6.890625 26.8125 6.890625 
Q 36.078125 6.890625 40.9375 10.546875 
Q 45.796875 14.203125 45.796875 21.1875 
Q 45.796875 27.640625 41.28125 31.265625 
Q 36.765625 34.90625 28.71875 34.90625 
L 20.21875 34.90625 
L 20.21875 43.015625 
L 29.109375 43.015625 
Q 36.375 43.015625 40.234375 45.921875 
Q 44.09375 48.828125 44.09375 54.296875 
Q 44.09375 59.90625 40.109375 62.90625 
Q 36.140625 65.921875 28.71875 65.921875 
Q 24.65625 65.921875 20.015625 65.03125 
Q 15.375 64.15625 9.8125 62.3125 
L 9.8125 71.09375 
Q 15.4375 72.65625 20.34375 73.4375 
Q 25.25 74.21875 29.59375 74.21875 
Q 40.828125 74.21875 47.359375 69.109375 
Q 53.90625 64.015625 53.90625 55.328125 
Q 53.90625 49.265625 50.4375 45.09375 
Q 46.96875 40.921875 40.578125 39.3125 
z
" id="DejaVuSans-51"/>
      </defs>
      <g transform="translate(92.096875 537.596875)scale(0.2 -0.2)">
       <use xlink:href="#DejaVuSans-48"/>
       <use x="63.623047" xlink:href="#DejaVuSans-46"/>
       <use x="95.410156" xlink:href="#DejaVuSans-51"/>
      </g>
     </g>
    </g>
    <g id="xtick_2">
     <g id="line2d_13">
      <g>
       <use style="stroke:#000000;stroke-width:0.5;" x="219.6" xlink:href="#m3eb2345b3c" y="518.4"/>
      </g>
     </g>
     <g id="line2d_14">
      <g>
       <use style="stroke:#000000;stroke-width:0.5;" x="219.6" xlink:href="#m158adb6555" y="57.6"/>
      </g>
     </g>
     <g id="text_2">
      <!-- 0.4 -->
      <defs>
       <path d="M 37.796875 64.3125 
L 12.890625 25.390625 
L 37.796875 25.390625 
z
M 35.203125 72.90625 
L 47.609375 72.90625 
L 47.609375 25.390625 
L 58.015625 25.390625 
L 58.015625 17.1875 
L 47.609375 17.1875 
L 47.609375 0 
L 37.796875 0 
L 37.796875 17.1875 
L 4.890625 17.1875 
L 4.890625 26.703125 
z
" id="DejaVuSans-52"/>
      </defs>
      <g transform="translate(203.696875 537.596875)scale(0.2 -0.2)">
       <use xlink:href="#DejaVuSans-48"/>
       <use x="63.623047" xlink:href="#DejaVuSans-46"/>
       <use x="95.410156" xlink:href="#DejaVuSans-52"/>
      </g>
     </g>
    </g>
    <g id="xtick_3">
     <g id="line2d_15">
      <g>
       <use style="stroke:#000000;stroke-width:0.5;" x="331.2" xlink:href="#m3eb2345b3c" y="518.4"/>
      </g>
     </g>
     <g id="line2d_16">
      <g>
       <use style="stroke:#000000;stroke-width:0.5;" x="331.2" xlink:href="#m158adb6555" y="57.6"/>
      </g>
     </g>
     <g id="text_3">
      <!-- 0.5 -->
      <defs>
       <path d="M 10.796875 72.90625 
L 49.515625 72.90625 
L 49.515625 64.59375 
L 19.828125 64.59375 
L 19.828125 46.734375 
Q 21.96875 47.46875 24.109375 47.828125 
Q 26.265625 48.1875 28.421875 48.1875 
Q 40.625 48.1875 47.75 41.5 
Q 54.890625 34.8125 54.890625 23.390625 
Q 54.890625 11.625 47.5625 5.09375 
Q 40.234375 -1.421875 26.90625 -1.421875 
Q 22.3125 -1.421875 17.546875 -0.640625 
Q 12.796875 0.140625 7.71875 1.703125 
L 7.71875 11.625 
Q 12.109375 9.234375 16.796875 8.0625 
Q 21.484375 6.890625 26.703125 6.890625 
Q 35.15625 6.890625 40.078125 11.328125 
Q 45.015625 15.765625 45.015625 23.390625 
Q 45.015625 31 40.078125 35.4375 
Q 35.15625 39.890625 26.703125 39.890625 
Q 22.75 39.890625 18.8125 39.015625 
Q 14.890625 38.140625 10.796875 36.28125 
z
" id="DejaVuSans-53"/>
      </defs>
      <g transform="translate(315.296875 537.596875)scale(0.2 -0.2)">
       <use xlink:href="#DejaVuSans-48"/>
       <use x="63.623047" xlink:href="#DejaVuSans-46"/>
       <use x="95.410156" xlink:href="#DejaVuSans-53"/>
      </g>
     </g>
    </g>
    <g id="xtick_4">
     <g id="line2d_17">
      <g>
       <use style="stroke:#000000;stroke-width:0.5;" x="442.8" xlink:href="#m3eb2345b3c" y="518.4"/>
      </g>
     </g>
     <g id="line2d_18">
      <g>
       <use style="stroke:#000000;stroke-width:0.5;" x="442.8" xlink:href="#m158adb6555" y="57.6"/>
      </g>
     </g>
     <g id="text_4">
      <!-- 0.6 -->
      <defs>
       <path d="M 33.015625 40.375 
Q 26.375 40.375 22.484375 35.828125 
Q 18.609375 31.296875 18.609375 23.390625 
Q 18.609375 15.53125 22.484375 10.953125 
Q 26.375 6.390625 33.015625 6.390625 
Q 39.65625 6.390625 43.53125 10.953125 
Q 47.40625 15.53125 47.40625 23.390625 
Q 47.40625 31.296875 43.53125 35.828125 
Q 39.65625 40.375 33.015625 40.375 
z
M 52.59375 71.296875 
L 52.59375 62.3125 
Q 48.875 64.0625 45.09375 64.984375 
Q 41.3125 65.921875 37.59375 65.921875 
Q 27.828125 65.921875 22.671875 59.328125 
Q 17.53125 52.734375 16.796875 39.40625 
Q 19.671875 43.65625 24.015625 45.921875 
Q 28.375 48.1875 33.59375 48.1875 
Q 44.578125 48.1875 50.953125 41.515625 
Q 57.328125 34.859375 57.328125 23.390625 
Q 57.328125 12.15625 50.6875 5.359375 
Q 44.046875 -1.421875 33.015625 -1.421875 
Q 20.359375 -1.421875 13.671875 8.265625 
Q 6.984375 17.96875 6.984375 36.375 
Q 6.984375 53.65625 15.1875 63.9375 
Q 23.390625 74.21875 37.203125 74.21875 
Q 40.921875 74.21875 44.703125 73.484375 
Q 48.484375 72.75 52.59375 71.296875 
z
" id="DejaVuSans-54"/>
      </defs>
      <g transform="translate(426.896875 537.596875)scale(0.2 -0.2)">
       <use xlink:href="#DejaVuSans-48"/>
       <use x="63.623047" xlink:href="#DejaVuSans-46"/>
       <use x="95.410156" xlink:href="#DejaVuSans-54"/>
      </g>
     </g>
    </g>
    <g id="xtick_5">
     <g id="line2d_19">
      <g>
       <use style="stroke:#000000;stroke-width:0.5;" x="554.4" xlink:href="#m3eb2345b3c" y="518.4"/>
      </g>
     </g>
     <g id="line2d_20">
      <g>
       <use style="stroke:#000000;stroke-width:0.5;" x="554.4" xlink:href="#m158adb6555" y="57.6"/>
      </g>
     </g>
     <g id="text_5">
      <!-- 0.7 -->
      <defs>
       <path d="M 8.203125 72.90625 
L 55.078125 72.90625 
L 55.078125 68.703125 
L 28.609375 0 
L 18.3125 0 
L 43.21875 64.59375 
L 8.203125 64.59375 
z
" id="DejaVuSans-55"/>
      </defs>
      <g transform="translate(538.496875 537.596875)scale(0.2 -0.2)">
       <use xlink:href="#DejaVuSans-48"/>
       <use x="63.623047" xlink:href="#DejaVuSans-46"/>
       <use x="95.410156" xlink:href="#DejaVuSans-55"/>
      </g>
     </g>
    </g>
    <g id="xtick_6">
     <g id="line2d_21">
      <g>
       <use style="stroke:#000000;stroke-width:0.5;" x="666" xlink:href="#m3eb2345b3c" y="518.4"/>
      </g>
     </g>
     <g id="line2d_22">
      <g>
       <use style="stroke:#000000;stroke-width:0.5;" x="666" xlink:href="#m158adb6555" y="57.6"/>
      </g>
     </g>
     <g id="text_6">
      <!-- 0.8 -->
      <defs>
       <path d="M 31.78125 34.625 
Q 24.75 34.625 20.71875 30.859375 
Q 16.703125 27.09375 16.703125 20.515625 
Q 16.703125 13.921875 20.71875 10.15625 
Q 24.75 6.390625 31.78125 6.390625 
Q 38.8125 6.390625 42.859375 10.171875 
Q 46.921875 13.96875 46.921875 20.515625 
Q 46.921875 27.09375 42.890625 30.859375 
Q 38.875 34.625 31.78125 34.625 
z
M 21.921875 38.8125 
Q 15.578125 40.375 12.03125 44.71875 
Q 8.5 49.078125 8.5 55.328125 
Q 8.5 64.0625 14.71875 69.140625 
Q 20.953125 74.21875 31.78125 74.21875 
Q 42.671875 74.21875 48.875 69.140625 
Q 55.078125 64.0625 55.078125 55.328125 
Q 55.078125 49.078125 51.53125 44.71875 
Q 48 40.375 41.703125 38.8125 
Q 48.828125 37.15625 52.796875 32.3125 
Q 56.78125 27.484375 56.78125 20.515625 
Q 56.78125 9.90625 50.3125 4.234375 
Q 43.84375 -1.421875 31.78125 -1.421875 
Q 19.734375 -1.421875 13.25 4.234375 
Q 6.78125 9.90625 6.78125 20.515625 
Q 6.78125 27.484375 10.78125 32.3125 
Q 14.796875 37.15625 21.921875 38.8125 
z
M 18.3125 54.390625 
Q 18.3125 48.734375 21.84375 45.5625 
Q 25.390625 42.390625 31.78125 42.390625 
Q 38.140625 42.390625 41.71875 45.5625 
Q 45.3125 48.734375 45.3125 54.390625 
Q 45.3125 60.0625 41.71875 63.234375 
Q 38.140625 66.40625 31.78125 66.40625 
Q 25.390625 66.40625 21.84375 63.234375 
Q 18.3125 60.0625 18.3125 54.390625 
z
" id="DejaVuSans-56"/>
      </defs>
      <g transform="translate(650.096875 537.596875)scale(0.2 -0.2)">
       <use xlink:href="#DejaVuSans-48"/>
       <use x="63.623047" xlink:href="#DejaVuSans-46"/>
       <use x="95.410156" xlink:href="#DejaVuSans-56"/>
      </g>
     </g>
    </g>
    <g id="xtick_7">
     <g id="line2d_23">
      <g>
       <use style="stroke:#000000;stroke-width:0.5;" x="777.6" xlink:href="#m3eb2345b3c" y="518.4"/>
      </g>
     </g>
     <g id="line2d_24">
      <g>
       <use style="stroke:#000000;stroke-width:0.5;" x="777.6" xlink:href="#m158adb6555" y="57.6"/>
      </g>
     </g>
     <g id="text_7">
      <!-- 0.9 -->
      <defs>
       <path d="M 10.984375 1.515625 
L 10.984375 10.5 
Q 14.703125 8.734375 18.5 7.8125 
Q 22.3125 6.890625 25.984375 6.890625 
Q 35.75 6.890625 40.890625 13.453125 
Q 46.046875 20.015625 46.78125 33.40625 
Q 43.953125 29.203125 39.59375 26.953125 
Q 35.25 24.703125 29.984375 24.703125 
Q 19.046875 24.703125 12.671875 31.3125 
Q 6.296875 37.9375 6.296875 49.421875 
Q 6.296875 60.640625 12.9375 67.421875 
Q 19.578125 74.21875 30.609375 74.21875 
Q 43.265625 74.21875 49.921875 64.515625 
Q 56.59375 54.828125 56.59375 36.375 
Q 56.59375 19.140625 48.40625 8.859375 
Q 40.234375 -1.421875 26.421875 -1.421875 
Q 22.703125 -1.421875 18.890625 -0.6875 
Q 15.09375 0.046875 10.984375 1.515625 
z
M 30.609375 32.421875 
Q 37.25 32.421875 41.125 36.953125 
Q 45.015625 41.5 45.015625 49.421875 
Q 45.015625 57.28125 41.125 61.84375 
Q 37.25 66.40625 30.609375 66.40625 
Q 23.96875 66.40625 20.09375 61.84375 
Q 16.21875 57.28125 16.21875 49.421875 
Q 16.21875 41.5 20.09375 36.953125 
Q 23.96875 32.421875 30.609375 32.421875 
z
" id="DejaVuSans-57"/>
      </defs>
      <g transform="translate(761.696875 537.596875)scale(0.2 -0.2)">
       <use xlink:href="#DejaVuSans-48"/>
       <use x="63.623047" xlink:href="#DejaVuSans-46"/>
       <use x="95.410156" xlink:href="#DejaVuSans-57"/>
      </g>
     </g>
    </g>
    <g id="text_8">
     <!-- $w$ -->
     <defs>
      <path d="M 10.796875 11.625 
Q 10.796875 13.71875 11.359375 16.453125 
Q 11.921875 19.1875 12.59375 21.3125 
Q 13.28125 23.4375 14.90625 27.828125 
Q 16.546875 32.234375 16.703125 32.625 
Q 18.015625 36.28125 18.015625 38.625 
Q 18.015625 41.609375 15.828125 41.609375 
Q 11.859375 41.609375 9.296875 37.53125 
Q 6.734375 33.453125 5.515625 28.421875 
Q 5.328125 27.78125 4.6875 27.78125 
L 3.515625 27.78125 
Q 2.6875 27.78125 2.6875 28.71875 
L 2.6875 29 
Q 4.296875 34.96875 7.609375 39.578125 
Q 10.9375 44.1875 16.015625 44.1875 
Q 19.578125 44.1875 22.046875 41.84375 
Q 24.515625 39.5 24.515625 35.890625 
Q 24.515625 34.03125 23.6875 31.984375 
Q 22.515625 28.953125 20.921875 24.703125 
Q 19.34375 20.453125 18.453125 16.984375 
Q 17.578125 13.53125 17.578125 10.296875 
Q 17.578125 6.390625 19.625 3.953125 
Q 21.6875 1.515625 25.59375 1.515625 
Q 30.90625 1.515625 34.421875 9.625 
Q 34.28125 10.203125 34.28125 11.28125 
Q 34.28125 13.96875 35.109375 17.390625 
L 40.71875 39.890625 
Q 41.0625 41.21875 42.28125 42.15625 
Q 43.5 43.109375 44.921875 43.109375 
Q 46.09375 43.109375 47 42.328125 
Q 47.90625 41.546875 47.90625 40.28125 
Q 47.90625 39.703125 47.796875 39.5 
L 42.1875 17.1875 
Q 41.21875 13.1875 41.21875 10.015625 
Q 41.21875 6.25 42.9375 3.875 
Q 44.671875 1.515625 48.390625 1.515625 
Q 54.828125 1.515625 58.984375 10.015625 
Q 60.546875 13.03125 62.46875 18.9375 
Q 64.40625 24.859375 64.40625 27.984375 
Q 64.40625 30.859375 63.46875 32.546875 
Q 62.546875 34.234375 60.90625 36.1875 
Q 59.28125 38.140625 59.28125 39.109375 
Q 59.28125 41.015625 60.90625 42.640625 
Q 62.546875 44.28125 64.5 44.28125 
Q 66.890625 44.28125 67.9375 42.078125 
Q 69 39.890625 69 37.109375 
Q 69 33.734375 67.875 28.53125 
Q 66.75 23.34375 65.03125 18.09375 
Q 63.328125 12.84375 61.8125 9.71875 
Q 56.34375 -1.125 48.1875 -1.125 
Q 44 -1.125 40.53125 0.484375 
Q 37.0625 2.09375 35.40625 5.609375 
Q 33.796875 2.734375 31.171875 0.796875 
Q 28.5625 -1.125 25.390625 -1.125 
Q 18.796875 -1.125 14.796875 2.015625 
Q 10.796875 5.171875 10.796875 11.625 
z
" id="Cmmi10-119"/>
     </defs>
     <g transform="translate(435.6 561.953125)scale(0.2 -0.2)">
      <use transform="translate(0 0.71875)" xlink:href="#Cmmi10-119"/>
     </g>
    </g>
   </g>
   <g id="matplotlib.axis_2">
    <g id="ytick_1">
     <g id="line2d_25">
      <defs>
       <path d="M 0 0 
L 4 0 
" id="m5a4860900b" style="stroke:#000000;stroke-width:0.5;"/>
      </defs>
      <g>
       <use style="stroke:#000000;stroke-width:0.5;" x="108" xlink:href="#m5a4860900b" y="518.4"/>
      </g>
     </g>
     <g id="line2d_26">
      <defs>
       <path d="M 0 0 
L -4 0 
" id="m1681fa1705" style="stroke:#000000;stroke-width:0.5;"/>
      </defs>
      <g>
       <use style="stroke:#000000;stroke-width:0.5;" x="777.6" xlink:href="#m1681fa1705" y="518.4"/>
      </g>
     </g>
     <g id="text_9">
      <!-- −2 -->
      <defs>
       <path d="M 10.59375 35.5 
L 73.1875 35.5 
L 73.1875 27.203125 
L 10.59375 27.203125 
z
" id="DejaVuSans-8722"/>
       <path d="M 19.1875 8.296875 
L 53.609375 8.296875 
L 53.609375 0 
L 7.328125 0 
L 7.328125 8.296875 
Q 12.9375 14.109375 22.625 23.890625 
Q 32.328125 33.6875 34.8125 36.53125 
Q 39.546875 41.84375 41.421875 45.53125 
Q 43.3125 49.21875 43.3125 52.78125 
Q 43.3125 58.59375 39.234375 62.25 
Q 35.15625 65.921875 28.609375 65.921875 
Q 23.96875 65.921875 18.8125 64.3125 
Q 13.671875 62.703125 7.8125 59.421875 
L 7.8125 69.390625 
Q 13.765625 71.78125 18.9375 73 
Q 24.125 74.21875 28.421875 74.21875 
Q 39.75 74.21875 46.484375 68.546875 
Q 53.21875 62.890625 53.21875 53.421875 
Q 53.21875 48.921875 51.53125 44.890625 
Q 49.859375 40.875 45.40625 35.40625 
Q 44.1875 33.984375 37.640625 27.21875 
Q 31.109375 20.453125 19.1875 8.296875 
z
" id="DejaVuSans-50"/>
      </defs>
      <g transform="translate(74.515625 523.91875)scale(0.2 -0.2)">
       <use xlink:href="#DejaVuSans-8722"/>
       <use x="83.789062" xlink:href="#DejaVuSans-50"/>
      </g>
     </g>
    </g>
    <g id="ytick_2">
     <g id="line2d_27">
      <g>
       <use style="stroke:#000000;stroke-width:0.5;" x="108" xlink:href="#m5a4860900b" y="441.6"/>
      </g>
     </g>
     <g id="line2d_28">
      <g>
       <use style="stroke:#000000;stroke-width:0.5;" x="777.6" xlink:href="#m1681fa1705" y="441.6"/>
      </g>
     </g>
     <g id="text_10">
      <!-- −1 -->
      <defs>
       <path d="M 12.40625 8.296875 
L 28.515625 8.296875 
L 28.515625 63.921875 
L 10.984375 60.40625 
L 10.984375 69.390625 
L 28.421875 72.90625 
L 38.28125 72.90625 
L 38.28125 8.296875 
L 54.390625 8.296875 
L 54.390625 0 
L 12.40625 0 
z
" id="DejaVuSans-49"/>
      </defs>
      <g transform="translate(74.515625 447.11875)scale(0.2 -0.2)">
       <use xlink:href="#DejaVuSans-8722"/>
       <use x="83.789062" xlink:href="#DejaVuSans-49"/>
      </g>
     </g>
    </g>
    <g id="ytick_3">
     <g id="line2d_29">
      <g>
       <use style="stroke:#000000;stroke-width:0.5;" x="108" xlink:href="#m5a4860900b" y="364.8"/>
      </g>
     </g>
     <g id="line2d_30">
      <g>
       <use style="stroke:#000000;stroke-width:0.5;" x="777.6" xlink:href="#m1681fa1705" y="364.8"/>
      </g>
     </g>
     <g id="text_11">
      <!-- 0 -->
      <g transform="translate(91.275 370.31875)scale(0.2 -0.2)">
       <use xlink:href="#DejaVuSans-48"/>
      </g>
     </g>
    </g>
    <g id="ytick_4">
     <g id="line2d_31">
      <g>
       <use style="stroke:#000000;stroke-width:0.5;" x="108" xlink:href="#m5a4860900b" y="288"/>
      </g>
     </g>
     <g id="line2d_32">
      <g>
       <use style="stroke:#000000;stroke-width:0.5;" x="777.6" xlink:href="#m1681fa1705" y="288"/>
      </g>
     </g>
     <g id="text_12">
      <!-- 1 -->
      <g transform="translate(91.275 293.51875)scale(0.2 -0.2)">
       <use xlink:href="#DejaVuSans-49"/>
      </g>
     </g>
    </g>
    <g id="ytick_5">
     <g id="line2d_33">
      <g>
       <use style="stroke:#000000;stroke-width:0.5;" x="108" xlink:href="#m5a4860900b" y="211.2"/>
      </g>
     </g>
     <g id="line2d_34">
      <g>
       <use style="stroke:#000000;stroke-width:0.5;" x="777.6" xlink:href="#m1681fa1705" y="211.2"/>
      </g>
     </g>
     <g id="text_13">
      <!-- 2 -->
      <g transform="translate(91.275 216.71875)scale(0.2 -0.2)">
       <use xlink:href="#DejaVuSans-50"/>
      </g>
     </g>
    </g>
    <g id="ytick_6">
     <g id="line2d_35">
      <g>
       <use style="stroke:#000000;stroke-width:0.5;" x="108" xlink:href="#m5a4860900b" y="134.4"/>
      </g>
     </g>
     <g id="line2d_36">
      <g>
       <use style="stroke:#000000;stroke-width:0.5;" x="777.6" xlink:href="#m1681fa1705" y="134.4"/>
      </g>
     </g>
     <g id="text_14">
      <!-- 3 -->
      <g transform="translate(91.275 139.91875)scale(0.2 -0.2)">
       <use xlink:href="#DejaVuSans-51"/>
      </g>
     </g>
    </g>
    <g id="ytick_7">
     <g id="line2d_37">
      <g>
       <use style="stroke:#000000;stroke-width:0.5;" x="108" xlink:href="#m5a4860900b" y="57.6"/>
      </g>
     </g>
     <g id="line2d_38">
      <g>
       <use style="stroke:#000000;stroke-width:0.5;" x="777.6" xlink:href="#m1681fa1705" y="57.6"/>
      </g>
     </g>
     <g id="text_15">
      <!-- 4 -->
      <g transform="translate(91.275 63.11875)scale(0.2 -0.2)">
       <use xlink:href="#DejaVuSans-52"/>
      </g>
     </g>
    </g>
    <g id="text_16">
     <!-- $I_N(w)/J_N(\nu(s(w))) - 1$ -->
     <defs>
      <path d="M 4.203125 0 
Q 3.21875 0 3.21875 1.3125 
Q 3.609375 3.515625 4.5 3.515625 
Q 10.40625 3.515625 12.5 3.90625 
Q 14.796875 4.4375 15.375 6.890625 
L 29.109375 61.8125 
Q 29.296875 62.796875 29.296875 63.09375 
Q 29.296875 63.71875 28.96875 63.984375 
Q 28.65625 64.265625 27.984375 64.40625 
Q 25.984375 64.796875 20.40625 64.796875 
Q 19.390625 64.796875 19.390625 66.109375 
Q 19.734375 67.390625 19.921875 67.84375 
Q 20.125 68.3125 21.09375 68.3125 
L 49.03125 68.3125 
Q 50 68.3125 50 67 
Q 49.953125 66.75 49.796875 66.15625 
Q 49.65625 65.578125 49.40625 65.1875 
Q 49.171875 64.796875 48.6875 64.796875 
Q 42.828125 64.796875 40.578125 64.40625 
Q 38.375 63.875 37.796875 61.375 
L 24.125 6.5 
Q 23.875 5.28125 23.875 5.171875 
Q 23.875 4.9375 23.953125 4.71875 
Q 24.03125 4.5 24.25 4.328125 
Q 24.46875 4.15625 24.6875 4.078125 
Q 24.90625 4 25.203125 3.90625 
Q 27.09375 3.515625 32.8125 3.515625 
Q 33.796875 3.515625 33.796875 2.203125 
Q 33.453125 0.78125 33.25 0.390625 
Q 33.0625 0 32.078125 0 
z
" id="Cmmi10-73"/>
      <path d="M 4.6875 0 
Q 3.71875 0 3.71875 1.3125 
Q 3.765625 1.5625 3.90625 2.171875 
Q 4.046875 2.78125 4.3125 3.140625 
Q 4.59375 3.515625 4.984375 3.515625 
Q 14.546875 3.515625 16.109375 9.625 
L 29.6875 64.3125 
Q 26.90625 64.796875 20.90625 64.796875 
Q 19.921875 64.796875 19.921875 66.109375 
Q 19.96875 66.359375 20.109375 66.96875 
Q 20.265625 67.578125 20.53125 67.9375 
Q 20.796875 68.3125 21.1875 68.3125 
L 38.484375 68.3125 
Q 39.203125 68.3125 39.40625 67.671875 
L 61.625 14.796875 
L 72.703125 59.078125 
Q 72.90625 60.15625 72.90625 60.59375 
Q 72.90625 64.796875 65.1875 64.796875 
Q 64.203125 64.796875 64.203125 66.109375 
Q 64.546875 67.390625 64.734375 67.84375 
Q 64.9375 68.3125 65.921875 68.3125 
L 87.3125 68.3125 
Q 88.28125 68.3125 88.28125 67 
Q 88.234375 66.75 88.078125 66.140625 
Q 87.9375 65.53125 87.671875 65.15625 
Q 87.40625 64.796875 87.015625 64.796875 
Q 77.4375 64.796875 75.875 58.6875 
L 61.53125 0.875 
Q 61.1875 0 60.5 0 
L 59.28125 0 
Q 58.59375 0 58.40625 0.6875 
L 32.90625 61.1875 
L 32.71875 61.8125 
Q 32.515625 62.015625 32.515625 62.109375 
L 19.28125 9.1875 
Q 19.1875 8.9375 19.140625 8.5625 
Q 19.09375 8.203125 19 7.71875 
Q 19 5.125 21.234375 4.3125 
Q 23.484375 3.515625 26.8125 3.515625 
Q 27.78125 3.515625 27.78125 2.203125 
Q 27.4375 0.828125 27.1875 0.40625 
Q 26.953125 0 26.125 0 
z
" id="Cmmi10-78"/>
      <path d="M 31 -24.8125 
Q 25.4375 -20.40625 21.40625 -14.71875 
Q 17.390625 -9.03125 14.8125 -2.578125 
Q 12.25 3.859375 10.984375 10.890625 
Q 9.71875 17.921875 9.71875 25 
Q 9.71875 32.171875 10.984375 39.203125 
Q 12.25 46.234375 14.859375 52.734375 
Q 17.484375 59.234375 21.53125 64.890625 
Q 25.59375 70.5625 31 74.8125 
Q 31 75 31.5 75 
L 32.421875 75 
Q 32.71875 75 32.953125 74.734375 
Q 33.203125 74.46875 33.203125 74.125 
Q 33.203125 73.6875 33.015625 73.484375 
Q 28.125 68.703125 24.875 63.234375 
Q 21.625 57.765625 19.640625 51.578125 
Q 17.671875 45.40625 16.796875 38.78125 
Q 15.921875 32.171875 15.921875 25 
Q 15.921875 -6.78125 32.90625 -23.296875 
Q 33.203125 -23.578125 33.203125 -24.125 
Q 33.203125 -24.359375 32.9375 -24.671875 
Q 32.671875 -25 32.421875 -25 
L 31.5 -25 
Q 31 -25 31 -24.8125 
z
" id="Cmr10-40"/>
      <path d="M 6.5 -25 
Q 5.609375 -25 5.609375 -24.125 
Q 5.609375 -23.6875 5.8125 -23.484375 
Q 22.90625 -6.78125 22.90625 25 
Q 22.90625 56.78125 6 73.296875 
Q 5.609375 73.53125 5.609375 74.125 
Q 5.609375 74.46875 5.875 74.734375 
Q 6.15625 75 6.5 75 
L 7.421875 75 
Q 7.71875 75 7.90625 74.8125 
Q 15.09375 69.140625 19.875 61.03125 
Q 24.65625 52.9375 26.875 43.75 
Q 29.109375 34.578125 29.109375 25 
Q 29.109375 17.921875 27.90625 11.0625 
Q 26.703125 4.203125 24.09375 -2.453125 
Q 21.484375 -9.125 17.484375 -14.765625 
Q 13.484375 -20.40625 7.90625 -24.8125 
Q 7.71875 -25 7.421875 -25 
z
" id="Cmr10-41"/>
      <path d="M 5.609375 -23 
Q 5.609375 -22.703125 5.71875 -22.609375 
L 40.484375 73.78125 
Q 40.671875 74.359375 41.15625 74.671875 
Q 41.65625 75 42.28125 75 
Q 43.171875 75 43.71875 74.453125 
Q 44.28125 73.921875 44.28125 73 
L 44.28125 72.609375 
L 9.515625 -23.78125 
Q 8.9375 -25 7.625 -25 
Q 6.78125 -25 6.1875 -24.40625 
Q 5.609375 -23.828125 5.609375 -23 
z
" id="Cmmi10-61"/>
      <path d="M 10.890625 6 
Q 11.859375 3.21875 14.5 1.796875 
Q 17.140625 0.390625 20.21875 0.390625 
Q 23.34375 0.390625 26.25 2.5625 
Q 29.15625 4.734375 31.171875 8 
Q 33.203125 11.28125 33.984375 14.5 
L 45.796875 61.8125 
Q 45.90625 62.203125 45.921875 62.390625 
Q 45.953125 62.59375 46 62.796875 
Q 46 63.875 45.21875 64.109375 
Q 42.578125 64.796875 34.515625 64.796875 
Q 33.5 64.796875 33.5 66.109375 
Q 33.6875 66.890625 33.8125 67.328125 
Q 33.9375 67.78125 34.25 68.046875 
Q 34.578125 68.3125 35.203125 68.3125 
L 62.3125 68.3125 
Q 63.28125 68.3125 63.28125 67 
Q 62.890625 64.796875 62.015625 64.796875 
Q 58.5 64.796875 56.6875 64.25 
Q 54.890625 63.71875 54.203125 61.375 
L 42.390625 14.109375 
Q 41.265625 9.46875 37.8125 5.734375 
Q 34.375 2 29.640625 -0.09375 
Q 24.90625 -2.203125 20.125 -2.203125 
Q 14.84375 -2.203125 10.859375 0.71875 
Q 6.890625 3.65625 6.890625 8.6875 
Q 6.890625 12.015625 8.6875 14.40625 
Q 10.5 16.796875 13.8125 16.796875 
Q 15.71875 16.796875 17.015625 15.625 
Q 18.3125 14.453125 18.3125 12.59375 
Q 18.3125 9.90625 16.3125 7.90625 
Q 14.3125 5.90625 11.625 5.90625 
Q 11.078125 5.90625 10.890625 6 
z
" id="Cmmi10-74"/>
      <path d="M 6.296875 0 
Q 5.078125 0 5.078125 1.3125 
L 13.625 35.296875 
Q 14.015625 37.015625 14.109375 37.984375 
Q 14.109375 39.59375 7.625 39.59375 
Q 6.59375 39.59375 6.59375 40.921875 
Q 6.640625 41.15625 6.8125 41.796875 
Q 6.984375 42.4375 7.25 42.765625 
Q 7.515625 43.109375 8.015625 43.109375 
L 21.484375 44.1875 
Q 22.703125 44.1875 22.703125 42.921875 
L 12.890625 3.71875 
Q 20.796875 6.34375 27.453125 11.953125 
Q 34.125 17.578125 38.734375 25.1875 
Q 43.359375 32.8125 45.40625 41.015625 
Q 45.796875 42.4375 46.96875 43.3125 
Q 48.140625 44.1875 49.609375 44.1875 
Q 50.921875 44.1875 51.75 43.40625 
Q 52.59375 42.625 52.59375 41.3125 
Q 52.59375 39.703125 51.265625 36.40625 
Q 49.953125 33.109375 48.6875 30.515625 
Q 44.734375 22.65625 38.1875 16.109375 
Q 34.078125 12.015625 29.359375 8.84375 
Q 24.65625 5.671875 19.53125 3.4375 
Q 14.40625 1.21875 8.6875 0 
z
" id="Cmmi10-186"/>
      <path d="M 8.6875 6.109375 
Q 11.375 1.515625 19.484375 1.515625 
Q 23 1.515625 26.171875 2.703125 
Q 29.34375 3.90625 31.421875 6.296875 
Q 33.5 8.6875 33.5 12.109375 
Q 33.5 14.703125 31.640625 16.359375 
Q 29.78125 18.015625 27.09375 18.609375 
L 21.6875 19.671875 
Q 17.96875 20.609375 15.578125 23.140625 
Q 13.1875 25.6875 13.1875 29.296875 
Q 13.1875 33.734375 15.59375 37.15625 
Q 18.015625 40.578125 21.96875 42.375 
Q 25.921875 44.1875 30.171875 44.1875 
Q 34.71875 44.1875 38.296875 42.015625 
Q 41.890625 39.84375 41.890625 35.59375 
Q 41.890625 33.296875 40.59375 31.53125 
Q 39.3125 29.78125 37.015625 29.78125 
Q 35.6875 29.78125 34.734375 30.640625 
Q 33.796875 31.5 33.796875 32.8125 
Q 33.796875 33.984375 34.453125 35.078125 
Q 35.109375 36.1875 36.203125 36.84375 
Q 37.3125 37.5 38.484375 37.5 
Q 37.59375 39.65625 35.171875 40.625 
Q 32.765625 41.609375 29.984375 41.609375 
Q 27.4375 41.609375 24.890625 40.578125 
Q 22.359375 39.546875 20.8125 37.5625 
Q 19.28125 35.59375 19.28125 32.90625 
Q 19.28125 31.109375 20.546875 29.734375 
Q 21.828125 28.375 23.6875 27.78125 
L 29.5 26.609375 
Q 32.28125 26.03125 34.59375 24.53125 
Q 36.921875 23.046875 38.25 20.765625 
Q 39.59375 18.5 39.59375 15.578125 
Q 39.59375 11.859375 37.515625 8.25 
Q 35.453125 4.640625 32.421875 2.484375 
Q 27.09375 -1.125 19.390625 -1.125 
Q 14.0625 -1.125 9.609375 1.3125 
Q 5.171875 3.765625 5.171875 8.59375 
Q 5.171875 11.328125 6.75 13.34375 
Q 8.34375 15.375 11.078125 15.375 
Q 12.703125 15.375 13.796875 14.390625 
Q 14.890625 13.421875 14.890625 11.8125 
Q 14.890625 9.515625 13.171875 7.8125 
Q 11.46875 6.109375 9.1875 6.109375 
z
" id="Cmmi10-115"/>
      <path d="M 10.203125 23 
Q 9.375 23 8.828125 23.625 
Q 8.296875 24.265625 8.296875 25 
Q 8.296875 25.734375 8.828125 26.359375 
Q 9.375 27 10.203125 27 
L 67.578125 27 
Q 68.359375 27 68.875 26.359375 
Q 69.390625 25.734375 69.390625 25 
Q 69.390625 24.265625 68.875 23.625 
Q 68.359375 23 67.578125 23 
z
" id="Cmsy10-161"/>
      <path d="M 9.28125 0 
L 9.28125 3.515625 
Q 21.78125 3.515625 21.78125 6.6875 
L 21.78125 59.1875 
Q 16.609375 56.6875 8.6875 56.6875 
L 8.6875 60.203125 
Q 20.953125 60.203125 27.203125 66.609375 
L 28.609375 66.609375 
Q 28.953125 66.609375 29.265625 66.328125 
Q 29.59375 66.0625 29.59375 65.71875 
L 29.59375 6.6875 
Q 29.59375 3.515625 42.09375 3.515625 
L 42.09375 0 
z
" id="Cmr10-49"/>
     </defs>
     <g transform="translate(64.515625 386.8)rotate(-90)scale(0.2 -0.2)">
      <use xlink:href="#Cmmi10-73"/>
      <use transform="translate(43.896484 -17.00625)scale(0.7)" xlink:href="#Cmmi10-78"/>
      <use transform="translate(106.499414 0)" xlink:href="#Cmr10-40"/>
      <use transform="translate(145.317773 0)" xlink:href="#Cmmi10-119"/>
      <use transform="translate(216.802148 0)" xlink:href="#Cmr10-41"/>
      <use transform="translate(255.620508 0)" xlink:href="#Cmmi10-61"/>
      <use transform="translate(305.620508 0)" xlink:href="#Cmmi10-74"/>
      <use transform="translate(361.04043 -17.00625)scale(0.7)" xlink:href="#Cmmi10-78"/>
      <use transform="translate(423.643359 0)" xlink:href="#Cmr10-40"/>
      <use transform="translate(462.461719 0)" xlink:href="#Cmmi10-186"/>
      <use transform="translate(511.875781 0)" xlink:href="#Cmr10-40"/>
      <use transform="translate(550.694141 0)" xlink:href="#Cmmi10-115"/>
      <use transform="translate(597.471484 0)" xlink:href="#Cmr10-40"/>
      <use transform="translate(636.289844 0)" xlink:href="#Cmmi10-119"/>
      <use transform="translate(707.774219 0)" xlink:href="#Cmr10-41"/>
      <use transform="translate(746.592578 0)" xlink:href="#Cmr10-41"/>
      <use transform="translate(785.410938 0)" xlink:href="#Cmr10-41"/>
      <use transform="translate(841.787891 0)" xlink:href="#Cmsy10-161"/>
      <use transform="translate(937.032031 0)" xlink:href="#Cmr10-49"/>
     </g>
    </g>
   </g>
   <g id="text_17">
    <!-- $N=10, \phi=0.65$ -->
    <defs>
     <path d="M 7.515625 13.28125 
Q 6.6875 13.28125 6.140625 13.90625 
Q 5.609375 14.546875 5.609375 15.28125 
Q 5.609375 16.109375 6.140625 16.6875 
Q 6.6875 17.28125 7.515625 17.28125 
L 70.3125 17.28125 
Q 71.046875 17.28125 71.578125 16.6875 
Q 72.125 16.109375 72.125 15.28125 
Q 72.125 14.546875 71.578125 13.90625 
Q 71.046875 13.28125 70.3125 13.28125 
z
M 7.515625 32.71875 
Q 6.6875 32.71875 6.140625 33.296875 
Q 5.609375 33.890625 5.609375 34.71875 
Q 5.609375 35.453125 6.140625 36.078125 
Q 6.6875 36.71875 7.515625 36.71875 
L 70.3125 36.71875 
Q 71.046875 36.71875 71.578125 36.078125 
Q 72.125 35.453125 72.125 34.71875 
Q 72.125 33.890625 71.578125 33.296875 
Q 71.046875 32.71875 70.3125 32.71875 
z
" id="Cmr10-61"/>
     <path d="M 25 -2.203125 
Q 12.75 -2.203125 8.328125 7.875 
Q 3.90625 17.96875 3.90625 31.890625 
Q 3.90625 40.578125 5.484375 48.234375 
Q 7.078125 55.90625 11.78125 61.25 
Q 16.5 66.609375 25 66.609375 
Q 31.59375 66.609375 35.78125 63.375 
Q 39.984375 60.15625 42.1875 55.046875 
Q 44.390625 49.953125 45.1875 44.109375 
Q 46 38.28125 46 31.890625 
Q 46 23.296875 44.40625 15.796875 
Q 42.828125 8.296875 38.1875 3.046875 
Q 33.546875 -2.203125 25 -2.203125 
z
M 25 0.390625 
Q 30.5625 0.390625 33.296875 6.09375 
Q 36.03125 11.8125 36.671875 18.75 
Q 37.3125 25.6875 37.3125 33.5 
Q 37.3125 41.015625 36.671875 47.359375 
Q 36.03125 53.71875 33.3125 58.859375 
Q 30.609375 64.015625 25 64.015625 
Q 19.34375 64.015625 16.609375 58.828125 
Q 13.875 53.65625 13.234375 47.328125 
Q 12.59375 41.015625 12.59375 33.5 
Q 12.59375 27.9375 12.859375 23 
Q 13.140625 18.0625 14.3125 12.8125 
Q 15.484375 7.5625 18.09375 3.96875 
Q 20.703125 0.390625 25 0.390625 
z
" id="Cmr10-48"/>
     <path d="M 9.90625 -18.015625 
Q 9.90625 -17.578125 10.296875 -17.1875 
Q 13.921875 -13.71875 15.921875 -9.171875 
Q 17.921875 -4.640625 17.921875 0.390625 
L 17.921875 1.609375 
Q 16.3125 0 13.921875 0 
Q 11.625 0 10.015625 1.609375 
Q 8.40625 3.21875 8.40625 5.515625 
Q 8.40625 7.859375 10.015625 9.421875 
Q 11.625 10.984375 13.921875 10.984375 
Q 17.484375 10.984375 19 7.6875 
Q 20.515625 4.390625 20.515625 0.390625 
Q 20.515625 -5.171875 18.28125 -10.171875 
Q 16.0625 -15.1875 12.015625 -19.1875 
Q 11.625 -19.390625 11.375 -19.390625 
Q 10.890625 -19.390625 10.390625 -18.9375 
Q 9.90625 -18.5 9.90625 -18.015625 
z
" id="Cmmi10-59"/>
     <path d="M 19.390625 -19.484375 
L 23.875 -1.421875 
Q 18.796875 -1.421875 14.40625 0.953125 
Q 10.015625 3.328125 7.34375 7.5625 
Q 4.6875 11.8125 4.6875 16.796875 
Q 4.6875 22.21875 7.375 27.140625 
Q 10.0625 32.078125 14.71875 36.109375 
Q 19.390625 40.140625 24.75 42.3125 
Q 30.125 44.484375 35.40625 44.484375 
L 41.40625 68.796875 
Q 41.609375 69.390625 42.1875 69.390625 
L 43.40625 69.390625 
Q 43.796875 69.390625 44.03125 69.046875 
Q 44.28125 68.703125 44.28125 68.40625 
L 38.28125 44.484375 
Q 42.046875 44.484375 45.5625 43.109375 
Q 49.078125 41.75 51.78125 39.28125 
Q 54.5 36.8125 56 33.46875 
Q 57.515625 30.125 57.515625 26.3125 
Q 57.515625 20.90625 54.828125 15.96875 
Q 52.15625 11.03125 47.609375 7.078125 
Q 43.0625 3.125 37.46875 0.84375 
Q 31.890625 -1.421875 26.8125 -1.421875 
L 22.21875 -19.921875 
Q 22.015625 -20.515625 21.390625 -20.515625 
L 20.21875 -20.515625 
Q 19.828125 -20.515625 19.609375 -20.140625 
Q 19.390625 -19.78125 19.390625 -19.484375 
z
M 24.515625 1.21875 
L 34.71875 41.890625 
Q 32.171875 41.890625 29.390625 40.859375 
Q 26.609375 39.84375 24.140625 38.28125 
Q 21.6875 36.71875 19.671875 34.71875 
Q 17.234375 32.28125 15.375 28.953125 
Q 13.53125 25.640625 12.578125 21.953125 
Q 11.625 18.265625 11.625 14.703125 
Q 11.625 10.9375 13.234375 7.859375 
Q 14.84375 4.78125 17.765625 3 
Q 20.703125 1.21875 24.515625 1.21875 
z
M 27.484375 1.21875 
Q 31.25 1.21875 35.5 3.359375 
Q 39.75 5.515625 42.484375 8.40625 
Q 46.234375 12.109375 48.40625 17.5 
Q 50.59375 22.90625 50.59375 28.421875 
Q 50.59375 32.125 48.96875 35.21875 
Q 47.359375 38.328125 44.421875 40.109375 
Q 41.5 41.890625 37.703125 41.890625 
z
" id="Cmmi10-193"/>
     <path d="M 8.40625 5.515625 
Q 8.40625 7.765625 10.0625 9.375 
Q 11.71875 10.984375 13.921875 10.984375 
Q 15.28125 10.984375 16.59375 10.25 
Q 17.921875 9.515625 18.65625 8.203125 
Q 19.390625 6.890625 19.390625 5.515625 
Q 19.390625 3.328125 17.765625 1.65625 
Q 16.15625 0 13.921875 0 
Q 11.71875 0 10.0625 1.65625 
Q 8.40625 3.328125 8.40625 5.515625 
z
" id="Cmmi10-58"/>
     <path d="M 25 -2.203125 
Q 18.796875 -2.203125 14.640625 1.09375 
Q 10.5 4.390625 8.21875 9.640625 
Q 5.953125 14.890625 5.078125 20.65625 
Q 4.203125 26.421875 4.203125 32.328125 
Q 4.203125 40.234375 7.28125 48.1875 
Q 10.359375 56.15625 16.328125 61.375 
Q 22.3125 66.609375 30.515625 66.609375 
Q 33.9375 66.609375 36.890625 65.3125 
Q 39.84375 64.015625 41.53125 61.5 
Q 43.21875 58.984375 43.21875 55.421875 
Q 43.21875 53.375 41.828125 51.984375 
Q 40.4375 50.59375 38.375 50.59375 
Q 36.421875 50.59375 35 52 
Q 33.59375 53.421875 33.59375 55.421875 
Q 33.59375 57.375 35 58.78125 
Q 36.421875 60.203125 38.375 60.203125 
L 38.921875 60.203125 
Q 37.640625 62.015625 35.328125 62.859375 
Q 33.015625 63.71875 30.515625 63.71875 
Q 27.484375 63.71875 24.921875 62.390625 
Q 22.359375 61.078125 20.3125 58.828125 
Q 18.265625 56.59375 16.890625 53.875 
Q 15.53125 51.171875 14.765625 47.703125 
Q 14.015625 44.234375 13.8125 41.203125 
Q 13.625 38.1875 13.625 33.59375 
Q 15.375 37.703125 18.59375 40.3125 
Q 21.828125 42.921875 25.875 42.921875 
Q 30.328125 42.921875 33.984375 41.109375 
Q 37.640625 39.3125 40.28125 36.109375 
Q 42.921875 32.90625 44.3125 28.796875 
Q 45.703125 24.703125 45.703125 20.515625 
Q 45.703125 14.65625 43.09375 9.34375 
Q 40.484375 4.046875 35.734375 0.921875 
Q 31 -2.203125 25 -2.203125 
z
M 25 0.984375 
Q 28.859375 0.984375 31.203125 2.734375 
Q 33.546875 4.5 34.640625 7.390625 
Q 35.75 10.296875 36.015625 13.25 
Q 36.28125 16.21875 36.28125 20.515625 
Q 36.28125 26.171875 35.734375 30.171875 
Q 35.203125 34.1875 32.8125 37.234375 
Q 30.421875 40.28125 25.484375 40.28125 
Q 21.4375 40.28125 18.828125 37.546875 
Q 16.21875 34.8125 15.015625 30.640625 
Q 13.8125 26.46875 13.8125 22.609375 
Q 13.8125 21.296875 13.921875 20.609375 
Q 13.921875 20.453125 13.890625 20.359375 
Q 13.875 20.265625 13.8125 20.125 
Q 13.8125 15.828125 14.6875 11.421875 
Q 15.578125 7.03125 18.0625 4 
Q 20.5625 0.984375 25 0.984375 
z
" id="Cmr10-54"/>
     <path d="M 8.6875 11.375 
Q 9.71875 8.453125 11.84375 6.046875 
Q 13.96875 3.65625 16.875 2.3125 
Q 19.78125 0.984375 22.90625 0.984375 
Q 30.125 0.984375 32.859375 6.59375 
Q 35.59375 12.203125 35.59375 20.21875 
Q 35.59375 23.6875 35.46875 26.046875 
Q 35.359375 28.421875 34.8125 30.609375 
Q 33.890625 34.125 31.5625 36.765625 
Q 29.25 39.40625 25.875 39.40625 
Q 22.515625 39.40625 20.09375 38.375 
Q 17.671875 37.359375 16.15625 35.984375 
Q 14.65625 34.625 13.484375 33.109375 
Q 12.3125 31.59375 12.015625 31.5 
L 10.890625 31.5 
Q 10.640625 31.5 10.265625 31.8125 
Q 9.90625 32.125 9.90625 32.421875 
L 9.90625 65.828125 
Q 9.90625 66.0625 10.21875 66.328125 
Q 10.546875 66.609375 10.890625 66.609375 
L 11.1875 66.609375 
Q 17.921875 63.375 25.484375 63.375 
Q 32.90625 63.375 39.796875 66.609375 
L 40.09375 66.609375 
Q 40.4375 66.609375 40.71875 66.359375 
Q 41.015625 66.109375 41.015625 65.828125 
L 41.015625 64.890625 
Q 41.015625 64.40625 40.828125 64.40625 
Q 37.40625 59.859375 32.25 57.3125 
Q 27.09375 54.78125 21.578125 54.78125 
Q 17.578125 54.78125 13.375 55.90625 
L 13.375 37.015625 
Q 16.703125 39.703125 19.3125 40.84375 
Q 21.921875 42 25.984375 42 
Q 31.5 42 35.859375 38.8125 
Q 40.234375 35.640625 42.578125 30.53125 
Q 44.921875 25.4375 44.921875 20.125 
Q 44.921875 14.109375 41.96875 8.984375 
Q 39.015625 3.859375 33.9375 0.828125 
Q 28.859375 -2.203125 22.90625 -2.203125 
Q 17.96875 -2.203125 13.84375 0.328125 
Q 9.71875 2.875 7.34375 7.171875 
Q 4.984375 11.46875 4.984375 16.3125 
Q 4.984375 18.5625 6.4375 19.96875 
Q 7.90625 21.390625 10.109375 21.390625 
Q 12.3125 21.390625 13.796875 19.9375 
Q 15.28125 18.5 15.28125 16.3125 
Q 15.28125 14.15625 13.796875 12.671875 
Q 12.3125 11.1875 10.109375 11.1875 
Q 9.765625 11.1875 9.328125 11.25 
Q 8.890625 11.328125 8.6875 11.375 
z
" id="Cmr10-53"/>
    </defs>
    <g transform="translate(360.12 52.56)scale(0.24 -0.24)">
     <use transform="translate(0 0.609375)" xlink:href="#Cmmi10-78"/>
     <use transform="translate(97.880859 0.609375)" xlink:href="#Cmr10-61"/>
     <use transform="translate(193.125 0.609375)" xlink:href="#Cmr10-49"/>
     <use transform="translate(243.125 0.609375)" xlink:href="#Cmr10-48"/>
     <use transform="translate(293.125 0.609375)" xlink:href="#Cmmi10-59"/>
     <use transform="translate(338.369141 0.609375)" xlink:href="#Cmmi10-193"/>
     <use transform="translate(415.449219 0.609375)" xlink:href="#Cmr10-61"/>
     <use transform="translate(510.693359 0.609375)" xlink:href="#Cmr10-48"/>
     <use transform="translate(560.693359 0.609375)" xlink:href="#Cmmi10-58"/>
     <use transform="translate(588.378906 0.609375)" xlink:href="#Cmr10-54"/>
     <use transform="translate(638.378906 0.609375)" xlink:href="#Cmr10-53"/>
    </g>
   </g>
   <g id="legend_1">
    <g id="patch_7">
     <path d="M 681.36 512.4 
L 771.6 512.4 
L 771.6 452.285625 
L 681.36 452.285625 
z
" style="fill:#ffffff;stroke:#000000;stroke-linejoin:miter;"/>
    </g>
    <g id="LineCollection_4">
     <path d="M 683.76 462.00375 
L 695.76 462.00375 
" style="fill:none;stroke:#0080ff;"/>
     <path d="M 700.56 462.00375 
L 712.56 462.00375 
" style="fill:none;stroke:#0080ff;"/>
    </g>
    <g id="line2d_39">
     <g>
      <use style="fill:#0080ff;stroke:#0080ff;stroke-width:0.5;" x="683.76" xlink:href="#mea01b17894" y="462.00375"/>
      <use style="fill:#0080ff;stroke:#0080ff;stroke-width:0.5;" x="700.56" xlink:href="#mea01b17894" y="462.00375"/>
     </g>
    </g>
    <g id="line2d_40">
     <g>
      <use style="fill:#0080ff;stroke:#0080ff;stroke-width:0.5;" x="695.76" xlink:href="#mea01b17894" y="462.00375"/>
      <use style="fill:#0080ff;stroke:#0080ff;stroke-width:0.5;" x="712.56" xlink:href="#mea01b17894" y="462.00375"/>
     </g>
    </g>
    <g id="line2d_41">
     <path d="M 689.76 462.00375 
L 706.56 462.00375 
" style="fill:none;stroke:#0080ff;stroke-linecap:square;"/>
    </g>
    <g id="line2d_42"/>
    <g id="text_18">
     <!-- $l_p/\sigma=5$ -->
     <defs>
      <path d="M 4.390625 8.109375 
Q 4.390625 8.40625 4.46875 8.984375 
Q 4.546875 9.578125 4.609375 10.125 
Q 4.6875 10.6875 4.6875 10.984375 
L 17.09375 60.5 
Q 17.484375 62.203125 17.578125 63.1875 
Q 17.578125 64.796875 11.078125 64.796875 
Q 10.109375 64.796875 10.109375 66.109375 
Q 10.15625 66.359375 10.328125 66.984375 
Q 10.5 67.625 10.765625 67.96875 
Q 11.03125 68.3125 11.53125 68.3125 
L 25 69.390625 
Q 26.21875 69.390625 26.21875 68.109375 
L 11.8125 10.59375 
Q 11.078125 8.984375 11.078125 5.8125 
Q 11.078125 1.515625 14.015625 1.515625 
Q 17.09375 1.515625 18.625 5.34375 
Q 20.171875 9.1875 21.390625 14.703125 
Q 21.578125 15.28125 22.21875 15.28125 
L 23.390625 15.28125 
Q 23.78125 15.28125 24.046875 14.96875 
Q 24.3125 14.65625 24.3125 14.3125 
Q 23.140625 9.46875 22.1875 6.65625 
Q 21.234375 3.859375 19.140625 1.359375 
Q 17.046875 -1.125 13.8125 -1.125 
Q 9.8125 -1.125 7.09375 1.453125 
Q 4.390625 4.046875 4.390625 8.109375 
z
" id="Cmmi10-108"/>
      <path d="M -2.484375 -19.390625 
Q -3.421875 -19.390625 -3.421875 -18.109375 
Q -3.078125 -15.921875 -2.09375 -15.921875 
Q 1.03125 -15.921875 2.265625 -15.359375 
Q 3.515625 -14.796875 4.203125 -12.5 
L 15.484375 32.515625 
Q 16.21875 34.375 16.21875 37.3125 
Q 16.21875 41.609375 13.28125 41.609375 
Q 10.15625 41.609375 8.640625 37.859375 
Q 7.125 34.125 5.71875 28.421875 
Q 5.71875 27.78125 4.890625 27.78125 
L 3.71875 27.78125 
Q 3.46875 27.78125 3.171875 28.140625 
Q 2.875 28.515625 2.875 28.8125 
Q 3.953125 33.15625 4.953125 36.171875 
Q 5.953125 39.203125 8.078125 41.6875 
Q 10.203125 44.1875 13.375 44.1875 
Q 16.796875 44.1875 19.375 42.25 
Q 21.96875 40.328125 22.703125 37.015625 
Q 25.4375 40.1875 28.75 42.1875 
Q 32.078125 44.1875 35.59375 44.1875 
Q 39.796875 44.1875 42.890625 41.9375 
Q 46 39.703125 47.5625 36.0625 
Q 49.125 32.421875 49.125 28.21875 
Q 49.125 21.78125 45.828125 14.890625 
Q 42.53125 8.015625 36.890625 3.4375 
Q 31.25 -1.125 24.8125 -1.125 
Q 21.875 -1.125 19.5 0.53125 
Q 17.140625 2.203125 15.828125 4.890625 
L 11.28125 -12.890625 
Q 11.03125 -14.359375 10.984375 -14.59375 
Q 10.984375 -15.921875 17.578125 -15.921875 
Q 18.609375 -15.921875 18.609375 -17.1875 
Q 18.265625 -18.5 18.046875 -18.9375 
Q 17.828125 -19.390625 16.890625 -19.390625 
z
M 24.90625 1.515625 
Q 28.375 1.515625 31.34375 4.375 
Q 34.328125 7.234375 36.1875 10.796875 
Q 37.546875 13.484375 38.734375 17.359375 
Q 39.9375 21.234375 40.8125 25.625 
Q 41.703125 30.03125 41.703125 32.625 
Q 41.703125 34.90625 41.09375 36.90625 
Q 40.484375 38.921875 39.09375 40.265625 
Q 37.703125 41.609375 35.40625 41.609375 
Q 31.734375 41.609375 28.484375 38.984375 
Q 25.25 36.375 22.609375 32.515625 
L 22.609375 32.171875 
L 17.09375 10.109375 
Q 17.78125 6.546875 19.734375 4.03125 
Q 21.6875 1.515625 24.90625 1.515625 
z
" id="Cmmi10-112"/>
      <path d="M 18.703125 -1.125 
Q 14.265625 -1.125 10.8125 1 
Q 7.375 3.125 5.484375 6.734375 
Q 3.609375 10.359375 3.609375 14.703125 
Q 3.609375 19.34375 5.703125 24.46875 
Q 7.8125 29.59375 11.453125 33.84375 
Q 15.09375 38.09375 19.671875 40.59375 
Q 24.265625 43.109375 29.109375 43.109375 
L 54.296875 43.109375 
Q 55.328125 43.109375 56.046875 42.421875 
Q 56.78125 41.75 56.78125 40.578125 
Q 56.78125 39.109375 55.734375 38.015625 
Q 54.6875 36.921875 53.21875 36.921875 
L 41.015625 36.921875 
Q 43.890625 32.625 43.890625 26.515625 
Q 43.890625 21.484375 41.9375 16.59375 
Q 39.984375 11.71875 36.515625 7.6875 
Q 33.0625 3.65625 28.4375 1.265625 
Q 23.828125 -1.125 18.703125 -1.125 
z
M 18.796875 1.515625 
Q 24.265625 1.515625 28.484375 5.78125 
Q 32.71875 10.0625 34.953125 16.234375 
Q 37.203125 22.40625 37.203125 27.6875 
Q 37.203125 31.984375 34.828125 34.453125 
Q 32.46875 36.921875 28.21875 36.921875 
Q 22.40625 36.921875 18.328125 33.015625 
Q 14.265625 29.109375 12.234375 23.1875 
Q 10.203125 17.28125 10.203125 11.8125 
Q 10.203125 7.515625 12.46875 4.515625 
Q 14.75 1.515625 18.796875 1.515625 
z
" id="Cmmi10-190"/>
     </defs>
     <g transform="translate(719.76 466.20375)scale(0.12 -0.12)">
      <use xlink:href="#Cmmi10-108"/>
      <use transform="translate(29.785156 -17.00625)scale(0.7)" xlink:href="#Cmmi10-112"/>
      <use transform="translate(71.367578 0)" xlink:href="#Cmmi10-61"/>
      <use transform="translate(121.367578 0)" xlink:href="#Cmmi10-190"/>
      <use transform="translate(196.00625 0)" xlink:href="#Cmr10-61"/>
      <use transform="translate(291.250391 0)" xlink:href="#Cmr10-53"/>
     </g>
    </g>
    <g id="LineCollection_5">
     <path d="M 683.76 480.841875 
L 695.76 480.841875 
" style="fill:none;stroke:#7dff7a;"/>
     <path d="M 700.56 480.841875 
L 712.56 480.841875 
" style="fill:none;stroke:#7dff7a;"/>
    </g>
    <g id="line2d_43">
     <g>
      <use style="fill:#7dff7a;stroke:#7dff7a;stroke-width:0.5;" x="683.76" xlink:href="#mf794c2975a" y="480.841875"/>
      <use style="fill:#7dff7a;stroke:#7dff7a;stroke-width:0.5;" x="700.56" xlink:href="#mf794c2975a" y="480.841875"/>
     </g>
    </g>
    <g id="line2d_44">
     <g>
      <use style="fill:#7dff7a;stroke:#7dff7a;stroke-width:0.5;" x="695.76" xlink:href="#mf794c2975a" y="480.841875"/>
      <use style="fill:#7dff7a;stroke:#7dff7a;stroke-width:0.5;" x="712.56" xlink:href="#mf794c2975a" y="480.841875"/>
     </g>
    </g>
    <g id="line2d_45">
     <path d="M 689.76 480.841875 
L 706.56 480.841875 
" style="fill:none;stroke:#7dff7a;stroke-linecap:square;"/>
    </g>
    <g id="line2d_46"/>
    <g id="text_19">
     <!-- $l_p/\sigma=20$ -->
     <defs>
      <path d="M 4.984375 0 
L 4.984375 2.6875 
Q 4.984375 2.9375 5.171875 3.21875 
L 20.703125 20.40625 
Q 24.21875 24.21875 26.40625 26.796875 
Q 28.609375 29.390625 30.75 32.765625 
Q 32.90625 36.140625 34.15625 39.625 
Q 35.40625 43.109375 35.40625 47.015625 
Q 35.40625 51.125 33.890625 54.859375 
Q 32.375 58.59375 29.375 60.84375 
Q 26.375 63.09375 22.125 63.09375 
Q 17.78125 63.09375 14.3125 60.46875 
Q 10.84375 57.859375 9.421875 53.71875 
Q 9.8125 53.8125 10.5 53.8125 
Q 12.75 53.8125 14.328125 52.296875 
Q 15.921875 50.78125 15.921875 48.390625 
Q 15.921875 46.09375 14.328125 44.5 
Q 12.75 42.921875 10.5 42.921875 
Q 8.15625 42.921875 6.5625 44.546875 
Q 4.984375 46.1875 4.984375 48.390625 
Q 4.984375 52.15625 6.390625 55.4375 
Q 7.8125 58.734375 10.46875 61.296875 
Q 13.140625 63.875 16.484375 65.234375 
Q 19.828125 66.609375 23.578125 66.609375 
Q 29.296875 66.609375 34.21875 64.1875 
Q 39.15625 61.765625 42.03125 57.34375 
Q 44.921875 52.9375 44.921875 47.015625 
Q 44.921875 42.671875 43.015625 38.765625 
Q 41.109375 34.859375 38.125 31.65625 
Q 35.15625 28.46875 30.515625 24.40625 
Q 25.875 20.359375 24.421875 19 
L 13.09375 8.109375 
L 22.703125 8.109375 
Q 29.78125 8.109375 34.546875 8.21875 
Q 39.3125 8.34375 39.59375 8.59375 
Q 40.765625 9.859375 42 17.828125 
L 44.921875 17.828125 
L 42.09375 0 
z
" id="Cmr10-50"/>
     </defs>
     <g transform="translate(719.76 485.041875)scale(0.12 -0.12)">
      <use xlink:href="#Cmmi10-108"/>
      <use transform="translate(29.785156 -17.00625)scale(0.7)" xlink:href="#Cmmi10-112"/>
      <use transform="translate(71.367578 0)" xlink:href="#Cmmi10-61"/>
      <use transform="translate(121.367578 0)" xlink:href="#Cmmi10-190"/>
      <use transform="translate(196.00625 0)" xlink:href="#Cmr10-61"/>
      <use transform="translate(291.250391 0)" xlink:href="#Cmr10-50"/>
      <use transform="translate(341.250391 0)" xlink:href="#Cmr10-48"/>
     </g>
    </g>
    <g id="LineCollection_6">
     <path d="M 683.76 499.68 
L 695.76 499.68 
" style="fill:none;stroke:#ff9400;"/>
     <path d="M 700.56 499.68 
L 712.56 499.68 
" style="fill:none;stroke:#ff9400;"/>
    </g>
    <g id="line2d_47">
     <g>
      <use style="fill:#ff9400;stroke:#ff9400;stroke-width:0.5;" x="683.76" xlink:href="#m33c3849746" y="499.68"/>
      <use style="fill:#ff9400;stroke:#ff9400;stroke-width:0.5;" x="700.56" xlink:href="#m33c3849746" y="499.68"/>
     </g>
    </g>
    <g id="line2d_48">
     <g>
      <use style="fill:#ff9400;stroke:#ff9400;stroke-width:0.5;" x="695.76" xlink:href="#m33c3849746" y="499.68"/>
      <use style="fill:#ff9400;stroke:#ff9400;stroke-width:0.5;" x="712.56" xlink:href="#m33c3849746" y="499.68"/>
     </g>
    </g>
    <g id="line2d_49">
     <path d="M 689.76 499.68 
L 706.56 499.68 
" style="fill:none;stroke:#ff9400;stroke-linecap:square;"/>
    </g>
    <g id="line2d_50"/>
    <g id="text_20">
     <!-- $l_p/\sigma=40$ -->
     <defs>
      <path d="M 2.78125 16.5 
L 2.78125 20.015625 
L 33.6875 66.109375 
Q 34.03125 66.609375 34.71875 66.609375 
L 36.1875 66.609375 
Q 37.3125 66.609375 37.3125 65.484375 
L 37.3125 20.015625 
L 47.125 20.015625 
L 47.125 16.5 
L 37.3125 16.5 
L 37.3125 6.6875 
Q 37.3125 4.640625 40.234375 4.078125 
Q 43.171875 3.515625 47.015625 3.515625 
L 47.015625 0 
L 19.484375 0 
L 19.484375 3.515625 
Q 23.34375 3.515625 26.265625 4.078125 
Q 29.203125 4.640625 29.203125 6.6875 
L 29.203125 16.5 
z
M 6.109375 20.015625 
L 29.78125 20.015625 
L 29.78125 55.421875 
z
" id="Cmr10-52"/>
     </defs>
     <g transform="translate(719.76 503.88)scale(0.12 -0.12)">
      <use xlink:href="#Cmmi10-108"/>
      <use transform="translate(29.785156 -17.00625)scale(0.7)" xlink:href="#Cmmi10-112"/>
      <use transform="translate(71.367578 0)" xlink:href="#Cmmi10-61"/>
      <use transform="translate(121.367578 0)" xlink:href="#Cmmi10-190"/>
      <use transform="translate(196.00625 0)" xlink:href="#Cmr10-61"/>
      <use transform="translate(291.250391 0)" xlink:href="#Cmr10-52"/>
      <use transform="translate(341.250391 0)" xlink:href="#Cmr10-48"/>
     </g>
    </g>
   </g>
  </g>
 </g>
 <defs>
  <clipPath id="p9f4c677560">
   <rect height="460.8" width="669.6" x="108" y="57.6"/>
  </clipPath>
 </defs>
</svg>
