<?xml version="1.0" encoding="utf-8" standalone="no"?>
<!DOCTYPE svg PUBLIC "-//W3C//DTD SVG 1.1//EN"
  "http://www.w3.org/Graphics/SVG/1.1/DTD/svg11.dtd">
<!-- Created with matplotlib (http://matplotlib.org/) -->
<svg height="277.2806pt" version="1.1" viewBox="0 0 423.927377 277.2806" width="423.927377pt" xmlns="http://www.w3.org/2000/svg" xmlns:xlink="http://www.w3.org/1999/xlink">
 <defs>
  <style type="text/css">
*{stroke-linecap:butt;stroke-linejoin:round;}
  </style>
 </defs>
 <g id="figure_1">
  <g id="patch_1">
   <path d="M 0 277.2806 
L 423.927377 277.2806 
L 423.927377 0 
L 0 0 
z
" style="fill:#ffffff;"/>
  </g>
  <g id="axes_1">
   <g id="patch_2">
    <path d="M 10.7 257.734288 
L 380.967913 257.734288 
L 380.967913 32.48 
L 10.7 32.48 
z
" style="fill:#ffffff;"/>
   </g>
   <g id="matplotlib.axis_1">
    <g id="xtick_1">
     <g id="line2d_1">
      <defs>
       <path d="M 0 0 
L 0 3.5 
" id="m8a0a17b9c9" style="stroke:#000000;stroke-width:0.8;"/>
      </defs>
      <g>
       <use style="stroke:#000000;stroke-width:0.8;" x="17.820537" xlink:href="#m8a0a17b9c9" y="253.402475"/>
      </g>
     </g>
     <g id="text_1">
      <!-- -1 -->
      <defs>
       <path d="M 4.890625 31.390625 
L 31.203125 31.390625 
L 31.203125 23.390625 
L 4.890625 23.390625 
z
" id="DejaVuSans-2d"/>
       <path d="M 12.40625 8.296875 
L 28.515625 8.296875 
L 28.515625 63.921875 
L 10.984375 60.40625 
L 10.984375 69.390625 
L 28.421875 72.90625 
L 38.28125 72.90625 
L 38.28125 8.296875 
L 54.390625 8.296875 
L 54.390625 0 
L 12.40625 0 
z
" id="DejaVuSans-31"/>
      </defs>
      <g transform="translate(12.835381 268.000913)scale(0.1 -0.1)">
       <use xlink:href="#DejaVuSans-2d"/>
       <use x="36.083984" xlink:href="#DejaVuSans-31"/>
      </g>
     </g>
    </g>
    <g id="xtick_2">
     <g id="line2d_2">
      <g>
       <use style="stroke:#000000;stroke-width:0.8;" x="89.025905" xlink:href="#m8a0a17b9c9" y="253.402475"/>
      </g>
     </g>
     <g id="text_2">
      <!-- -0.8 -->
      <defs>
       <path d="M 31.78125 66.40625 
Q 24.171875 66.40625 20.328125 58.90625 
Q 16.5 51.421875 16.5 36.375 
Q 16.5 21.390625 20.328125 13.890625 
Q 24.171875 6.390625 31.78125 6.390625 
Q 39.453125 6.390625 43.28125 13.890625 
Q 47.125 21.390625 47.125 36.375 
Q 47.125 51.421875 43.28125 58.90625 
Q 39.453125 66.40625 31.78125 66.40625 
z
M 31.78125 74.21875 
Q 44.046875 74.21875 50.515625 64.515625 
Q 56.984375 54.828125 56.984375 36.375 
Q 56.984375 17.96875 50.515625 8.265625 
Q 44.046875 -1.421875 31.78125 -1.421875 
Q 19.53125 -1.421875 13.0625 8.265625 
Q 6.59375 17.96875 6.59375 36.375 
Q 6.59375 54.828125 13.0625 64.515625 
Q 19.53125 74.21875 31.78125 74.21875 
z
" id="DejaVuSans-30"/>
       <path d="M 10.6875 12.40625 
L 21 12.40625 
L 21 0 
L 10.6875 0 
z
" id="DejaVuSans-2e"/>
       <path d="M 31.78125 34.625 
Q 24.75 34.625 20.71875 30.859375 
Q 16.703125 27.09375 16.703125 20.515625 
Q 16.703125 13.921875 20.71875 10.15625 
Q 24.75 6.390625 31.78125 6.390625 
Q 38.8125 6.390625 42.859375 10.171875 
Q 46.921875 13.96875 46.921875 20.515625 
Q 46.921875 27.09375 42.890625 30.859375 
Q 38.875 34.625 31.78125 34.625 
z
M 21.921875 38.8125 
Q 15.578125 40.375 12.03125 44.71875 
Q 8.5 49.078125 8.5 55.328125 
Q 8.5 64.0625 14.71875 69.140625 
Q 20.953125 74.21875 31.78125 74.21875 
Q 42.671875 74.21875 48.875 69.140625 
Q 55.078125 64.0625 55.078125 55.328125 
Q 55.078125 49.078125 51.53125 44.71875 
Q 48 40.375 41.703125 38.8125 
Q 48.828125 37.15625 52.796875 32.3125 
Q 56.78125 27.484375 56.78125 20.515625 
Q 56.78125 9.90625 50.3125 4.234375 
Q 43.84375 -1.421875 31.78125 -1.421875 
Q 19.734375 -1.421875 13.25 4.234375 
Q 6.78125 9.90625 6.78125 20.515625 
Q 6.78125 27.484375 10.78125 32.3125 
Q 14.796875 37.15625 21.921875 38.8125 
z
M 18.3125 54.390625 
Q 18.3125 48.734375 21.84375 45.5625 
Q 25.390625 42.390625 31.78125 42.390625 
Q 38.140625 42.390625 41.71875 45.5625 
Q 45.3125 48.734375 45.3125 54.390625 
Q 45.3125 60.0625 41.71875 63.234375 
Q 38.140625 66.40625 31.78125 66.40625 
Q 25.390625 66.40625 21.84375 63.234375 
Q 18.3125 60.0625 18.3125 54.390625 
z
" id="DejaVuSans-38"/>
      </defs>
      <g transform="translate(79.270436 268.000913)scale(0.1 -0.1)">
       <use xlink:href="#DejaVuSans-2d"/>
       <use x="36.083984" xlink:href="#DejaVuSans-30"/>
       <use x="99.707031" xlink:href="#DejaVuSans-2e"/>
       <use x="131.494141" xlink:href="#DejaVuSans-38"/>
      </g>
     </g>
    </g>
    <g id="xtick_3">
     <g id="line2d_3">
      <g>
       <use style="stroke:#000000;stroke-width:0.8;" x="160.231273" xlink:href="#m8a0a17b9c9" y="253.402475"/>
      </g>
     </g>
     <g id="text_3">
      <!-- -0.6 -->
      <defs>
       <path d="M 33.015625 40.375 
Q 26.375 40.375 22.484375 35.828125 
Q 18.609375 31.296875 18.609375 23.390625 
Q 18.609375 15.53125 22.484375 10.953125 
Q 26.375 6.390625 33.015625 6.390625 
Q 39.65625 6.390625 43.53125 10.953125 
Q 47.40625 15.53125 47.40625 23.390625 
Q 47.40625 31.296875 43.53125 35.828125 
Q 39.65625 40.375 33.015625 40.375 
z
M 52.59375 71.296875 
L 52.59375 62.3125 
Q 48.875 64.0625 45.09375 64.984375 
Q 41.3125 65.921875 37.59375 65.921875 
Q 27.828125 65.921875 22.671875 59.328125 
Q 17.53125 52.734375 16.796875 39.40625 
Q 19.671875 43.65625 24.015625 45.921875 
Q 28.375 48.1875 33.59375 48.1875 
Q 44.578125 48.1875 50.953125 41.515625 
Q 57.328125 34.859375 57.328125 23.390625 
Q 57.328125 12.15625 50.6875 5.359375 
Q 44.046875 -1.421875 33.015625 -1.421875 
Q 20.359375 -1.421875 13.671875 8.265625 
Q 6.984375 17.96875 6.984375 36.375 
Q 6.984375 53.65625 15.1875 63.9375 
Q 23.390625 74.21875 37.203125 74.21875 
Q 40.921875 74.21875 44.703125 73.484375 
Q 48.484375 72.75 52.59375 71.296875 
z
" id="DejaVuSans-36"/>
      </defs>
      <g transform="translate(150.475804 268.000913)scale(0.1 -0.1)">
       <use xlink:href="#DejaVuSans-2d"/>
       <use x="36.083984" xlink:href="#DejaVuSans-30"/>
       <use x="99.707031" xlink:href="#DejaVuSans-2e"/>
       <use x="131.494141" xlink:href="#DejaVuSans-36"/>
      </g>
     </g>
    </g>
    <g id="xtick_4">
     <g id="line2d_4">
      <g>
       <use style="stroke:#000000;stroke-width:0.8;" x="231.436641" xlink:href="#m8a0a17b9c9" y="253.402475"/>
      </g>
     </g>
     <g id="text_4">
      <!-- -0.4 -->
      <defs>
       <path d="M 37.796875 64.3125 
L 12.890625 25.390625 
L 37.796875 25.390625 
z
M 35.203125 72.90625 
L 47.609375 72.90625 
L 47.609375 25.390625 
L 58.015625 25.390625 
L 58.015625 17.1875 
L 47.609375 17.1875 
L 47.609375 0 
L 37.796875 0 
L 37.796875 17.1875 
L 4.890625 17.1875 
L 4.890625 26.703125 
z
" id="DejaVuSans-34"/>
      </defs>
      <g transform="translate(221.681172 268.000913)scale(0.1 -0.1)">
       <use xlink:href="#DejaVuSans-2d"/>
       <use x="36.083984" xlink:href="#DejaVuSans-30"/>
       <use x="99.707031" xlink:href="#DejaVuSans-2e"/>
       <use x="131.494141" xlink:href="#DejaVuSans-34"/>
      </g>
     </g>
    </g>
    <g id="xtick_5">
     <g id="line2d_5">
      <g>
       <use style="stroke:#000000;stroke-width:0.8;" x="302.642009" xlink:href="#m8a0a17b9c9" y="253.402475"/>
      </g>
     </g>
     <g id="text_5">
      <!-- -0.2 -->
      <defs>
       <path d="M 19.1875 8.296875 
L 53.609375 8.296875 
L 53.609375 0 
L 7.328125 0 
L 7.328125 8.296875 
Q 12.9375 14.109375 22.625 23.890625 
Q 32.328125 33.6875 34.8125 36.53125 
Q 39.546875 41.84375 41.421875 45.53125 
Q 43.3125 49.21875 43.3125 52.78125 
Q 43.3125 58.59375 39.234375 62.25 
Q 35.15625 65.921875 28.609375 65.921875 
Q 23.96875 65.921875 18.8125 64.3125 
Q 13.671875 62.703125 7.8125 59.421875 
L 7.8125 69.390625 
Q 13.765625 71.78125 18.9375 73 
Q 24.125 74.21875 28.421875 74.21875 
Q 39.75 74.21875 46.484375 68.546875 
Q 53.21875 62.890625 53.21875 53.421875 
Q 53.21875 48.921875 51.53125 44.890625 
Q 49.859375 40.875 45.40625 35.40625 
Q 44.1875 33.984375 37.640625 27.21875 
Q 31.109375 20.453125 19.1875 8.296875 
z
" id="DejaVuSans-32"/>
      </defs>
      <g transform="translate(292.88654 268.000913)scale(0.1 -0.1)">
       <use xlink:href="#DejaVuSans-2d"/>
       <use x="36.083984" xlink:href="#DejaVuSans-30"/>
       <use x="99.707031" xlink:href="#DejaVuSans-2e"/>
       <use x="131.494141" xlink:href="#DejaVuSans-32"/>
      </g>
     </g>
    </g>
    <g id="xtick_6">
     <g id="line2d_6">
      <g>
       <use style="stroke:#000000;stroke-width:0.8;" x="373.847377" xlink:href="#m8a0a17b9c9" y="253.402475"/>
      </g>
     </g>
    </g>
    <g id="xtick_7">
     <g id="line2d_7">
      <defs>
       <path d="M 0 0 
L 0 2 
" id="m543648aa2a" style="stroke:#000000;stroke-width:0.6;"/>
      </defs>
      <g>
       <use style="stroke:#000000;stroke-width:0.6;" x="35.621879" xlink:href="#m543648aa2a" y="253.402475"/>
      </g>
     </g>
    </g>
    <g id="xtick_8">
     <g id="line2d_8">
      <g>
       <use style="stroke:#000000;stroke-width:0.6;" x="53.423221" xlink:href="#m543648aa2a" y="253.402475"/>
      </g>
     </g>
    </g>
    <g id="xtick_9">
     <g id="line2d_9">
      <g>
       <use style="stroke:#000000;stroke-width:0.6;" x="71.224563" xlink:href="#m543648aa2a" y="253.402475"/>
      </g>
     </g>
    </g>
    <g id="xtick_10">
     <g id="line2d_10">
      <g>
       <use style="stroke:#000000;stroke-width:0.6;" x="106.827247" xlink:href="#m543648aa2a" y="253.402475"/>
      </g>
     </g>
    </g>
    <g id="xtick_11">
     <g id="line2d_11">
      <g>
       <use style="stroke:#000000;stroke-width:0.6;" x="124.628589" xlink:href="#m543648aa2a" y="253.402475"/>
      </g>
     </g>
    </g>
    <g id="xtick_12">
     <g id="line2d_12">
      <g>
       <use style="stroke:#000000;stroke-width:0.6;" x="142.429931" xlink:href="#m543648aa2a" y="253.402475"/>
      </g>
     </g>
    </g>
    <g id="xtick_13">
     <g id="line2d_13">
      <g>
       <use style="stroke:#000000;stroke-width:0.6;" x="178.032615" xlink:href="#m543648aa2a" y="253.402475"/>
      </g>
     </g>
    </g>
    <g id="xtick_14">
     <g id="line2d_14">
      <g>
       <use style="stroke:#000000;stroke-width:0.6;" x="195.833957" xlink:href="#m543648aa2a" y="253.402475"/>
      </g>
     </g>
    </g>
    <g id="xtick_15">
     <g id="line2d_15">
      <g>
       <use style="stroke:#000000;stroke-width:0.6;" x="213.635299" xlink:href="#m543648aa2a" y="253.402475"/>
      </g>
     </g>
    </g>
    <g id="xtick_16">
     <g id="line2d_16">
      <g>
       <use style="stroke:#000000;stroke-width:0.6;" x="249.237983" xlink:href="#m543648aa2a" y="253.402475"/>
      </g>
     </g>
    </g>
    <g id="xtick_17">
     <g id="line2d_17">
      <g>
       <use style="stroke:#000000;stroke-width:0.6;" x="267.039325" xlink:href="#m543648aa2a" y="253.402475"/>
      </g>
     </g>
    </g>
    <g id="xtick_18">
     <g id="line2d_18">
      <g>
       <use style="stroke:#000000;stroke-width:0.6;" x="284.840667" xlink:href="#m543648aa2a" y="253.402475"/>
      </g>
     </g>
    </g>
    <g id="xtick_19">
     <g id="line2d_19">
      <g>
       <use style="stroke:#000000;stroke-width:0.6;" x="320.443351" xlink:href="#m543648aa2a" y="253.402475"/>
      </g>
     </g>
    </g>
    <g id="xtick_20">
     <g id="line2d_20">
      <g>
       <use style="stroke:#000000;stroke-width:0.6;" x="338.244693" xlink:href="#m543648aa2a" y="253.402475"/>
      </g>
     </g>
    </g>
    <g id="xtick_21">
     <g id="line2d_21">
      <g>
       <use style="stroke:#000000;stroke-width:0.6;" x="356.046035" xlink:href="#m543648aa2a" y="253.402475"/>
      </g>
     </g>
    </g>
    <g id="text_6">
     <!-- $s$ -->
     <defs>
      <path d="M 8.6875 6.109375 
Q 11.375 1.515625 19.484375 1.515625 
Q 23 1.515625 26.171875 2.703125 
Q 29.34375 3.90625 31.421875 6.296875 
Q 33.5 8.6875 33.5 12.109375 
Q 33.5 14.703125 31.640625 16.359375 
Q 29.78125 18.015625 27.09375 18.609375 
L 21.6875 19.671875 
Q 17.96875 20.609375 15.578125 23.140625 
Q 13.1875 25.6875 13.1875 29.296875 
Q 13.1875 33.734375 15.59375 37.15625 
Q 18.015625 40.578125 21.96875 42.375 
Q 25.921875 44.1875 30.171875 44.1875 
Q 34.71875 44.1875 38.296875 42.015625 
Q 41.890625 39.84375 41.890625 35.59375 
Q 41.890625 33.296875 40.59375 31.53125 
Q 39.3125 29.78125 37.015625 29.78125 
Q 35.6875 29.78125 34.734375 30.640625 
Q 33.796875 31.5 33.796875 32.8125 
Q 33.796875 33.984375 34.453125 35.078125 
Q 35.109375 36.1875 36.203125 36.84375 
Q 37.3125 37.5 38.484375 37.5 
Q 37.59375 39.65625 35.171875 40.625 
Q 32.765625 41.609375 29.984375 41.609375 
Q 27.4375 41.609375 24.890625 40.578125 
Q 22.359375 39.546875 20.8125 37.5625 
Q 19.28125 35.59375 19.28125 32.90625 
Q 19.28125 31.109375 20.546875 29.734375 
Q 21.828125 28.375 23.6875 27.78125 
L 29.5 26.609375 
Q 32.28125 26.03125 34.59375 24.53125 
Q 36.921875 23.046875 38.25 20.765625 
Q 39.59375 18.5 39.59375 15.578125 
Q 39.59375 11.859375 37.515625 8.25 
Q 35.453125 4.640625 32.421875 2.484375 
Q 27.09375 -1.125 19.390625 -1.125 
Q 14.0625 -1.125 9.609375 1.3125 
Q 5.171875 3.765625 5.171875 8.59375 
Q 5.171875 11.328125 6.75 13.34375 
Q 8.34375 15.375 11.078125 15.375 
Q 12.703125 15.375 13.796875 14.390625 
Q 14.890625 13.421875 14.890625 11.8125 
Q 14.890625 9.515625 13.171875 7.8125 
Q 11.46875 6.109375 9.1875 6.109375 
z
" id="Cmmi10-73"/>
     </defs>
     <g transform="translate(388.967913 253.402475)scale(0.16 -0.16)">
      <use transform="translate(0 0.8125)" xlink:href="#Cmmi10-73"/>
     </g>
    </g>
   </g>
   <g id="matplotlib.axis_2">
    <g id="ytick_1">
     <g id="line2d_22">
      <defs>
       <path d="M 0 0 
L -3.5 0 
" id="mb92bc87ad9" style="stroke:#000000;stroke-width:0.8;"/>
      </defs>
      <g>
       <use style="stroke:#000000;stroke-width:0.8;" x="373.847377" xlink:href="#mb92bc87ad9" y="253.402475"/>
      </g>
     </g>
    </g>
    <g id="ytick_2">
     <g id="line2d_23">
      <g>
       <use style="stroke:#000000;stroke-width:0.8;" x="373.847377" xlink:href="#mb92bc87ad9" y="222.555186"/>
      </g>
     </g>
     <g id="text_7">
      <!-- 0.02 -->
      <g transform="translate(344.581752 226.354405)scale(0.1 -0.1)">
       <use xlink:href="#DejaVuSans-30"/>
       <use x="63.623047" xlink:href="#DejaVuSans-2e"/>
       <use x="95.410156" xlink:href="#DejaVuSans-30"/>
       <use x="159.033203" xlink:href="#DejaVuSans-32"/>
      </g>
     </g>
    </g>
    <g id="ytick_3">
     <g id="line2d_24">
      <g>
       <use style="stroke:#000000;stroke-width:0.8;" x="373.847377" xlink:href="#mb92bc87ad9" y="191.707897"/>
      </g>
     </g>
     <g id="text_8">
      <!-- 0.04 -->
      <g transform="translate(344.581752 195.507116)scale(0.1 -0.1)">
       <use xlink:href="#DejaVuSans-30"/>
       <use x="63.623047" xlink:href="#DejaVuSans-2e"/>
       <use x="95.410156" xlink:href="#DejaVuSans-30"/>
       <use x="159.033203" xlink:href="#DejaVuSans-34"/>
      </g>
     </g>
    </g>
    <g id="ytick_4">
     <g id="line2d_25">
      <g>
       <use style="stroke:#000000;stroke-width:0.8;" x="373.847377" xlink:href="#mb92bc87ad9" y="160.860608"/>
      </g>
     </g>
     <g id="text_9">
      <!-- 0.06 -->
      <g transform="translate(344.581752 164.659827)scale(0.1 -0.1)">
       <use xlink:href="#DejaVuSans-30"/>
       <use x="63.623047" xlink:href="#DejaVuSans-2e"/>
       <use x="95.410156" xlink:href="#DejaVuSans-30"/>
       <use x="159.033203" xlink:href="#DejaVuSans-36"/>
      </g>
     </g>
    </g>
    <g id="ytick_5">
     <g id="line2d_26">
      <g>
       <use style="stroke:#000000;stroke-width:0.8;" x="373.847377" xlink:href="#mb92bc87ad9" y="130.013319"/>
      </g>
     </g>
     <g id="text_10">
      <!-- 0.08 -->
      <g transform="translate(344.581752 133.812537)scale(0.1 -0.1)">
       <use xlink:href="#DejaVuSans-30"/>
       <use x="63.623047" xlink:href="#DejaVuSans-2e"/>
       <use x="95.410156" xlink:href="#DejaVuSans-30"/>
       <use x="159.033203" xlink:href="#DejaVuSans-38"/>
      </g>
     </g>
    </g>
    <g id="ytick_6">
     <g id="line2d_27">
      <g>
       <use style="stroke:#000000;stroke-width:0.8;" x="373.847377" xlink:href="#mb92bc87ad9" y="99.166029"/>
      </g>
     </g>
     <g id="text_11">
      <!-- 0.1 -->
      <g transform="translate(350.944252 102.965248)scale(0.1 -0.1)">
       <use xlink:href="#DejaVuSans-30"/>
       <use x="63.623047" xlink:href="#DejaVuSans-2e"/>
       <use x="95.410156" xlink:href="#DejaVuSans-31"/>
      </g>
     </g>
    </g>
    <g id="ytick_7">
     <g id="line2d_28">
      <g>
       <use style="stroke:#000000;stroke-width:0.8;" x="373.847377" xlink:href="#mb92bc87ad9" y="68.31874"/>
      </g>
     </g>
     <g id="text_12">
      <!-- 0.12 -->
      <g transform="translate(344.581752 72.117959)scale(0.1 -0.1)">
       <use xlink:href="#DejaVuSans-30"/>
       <use x="63.623047" xlink:href="#DejaVuSans-2e"/>
       <use x="95.410156" xlink:href="#DejaVuSans-31"/>
       <use x="159.033203" xlink:href="#DejaVuSans-32"/>
      </g>
     </g>
    </g>
    <g id="ytick_8">
     <g id="line2d_29">
      <g>
       <use style="stroke:#000000;stroke-width:0.8;" x="373.847377" xlink:href="#mb92bc87ad9" y="37.471451"/>
      </g>
     </g>
     <g id="text_13">
      <!-- 0.14 -->
      <g transform="translate(344.581752 41.27067)scale(0.1 -0.1)">
       <use xlink:href="#DejaVuSans-30"/>
       <use x="63.623047" xlink:href="#DejaVuSans-2e"/>
       <use x="95.410156" xlink:href="#DejaVuSans-31"/>
       <use x="159.033203" xlink:href="#DejaVuSans-34"/>
      </g>
     </g>
    </g>
    <g id="ytick_9">
     <g id="line2d_30">
      <defs>
       <path d="M 0 0 
L -2 0 
" id="m4c425e0b31" style="stroke:#000000;stroke-width:0.6;"/>
      </defs>
      <g>
       <use style="stroke:#000000;stroke-width:0.6;" x="373.847377" xlink:href="#m4c425e0b31" y="245.690653"/>
      </g>
     </g>
    </g>
    <g id="ytick_10">
     <g id="line2d_31">
      <g>
       <use style="stroke:#000000;stroke-width:0.6;" x="373.847377" xlink:href="#m4c425e0b31" y="237.978831"/>
      </g>
     </g>
    </g>
    <g id="ytick_11">
     <g id="line2d_32">
      <g>
       <use style="stroke:#000000;stroke-width:0.6;" x="373.847377" xlink:href="#m4c425e0b31" y="230.267008"/>
      </g>
     </g>
    </g>
    <g id="ytick_12">
     <g id="line2d_33">
      <g>
       <use style="stroke:#000000;stroke-width:0.6;" x="373.847377" xlink:href="#m4c425e0b31" y="214.843364"/>
      </g>
     </g>
    </g>
    <g id="ytick_13">
     <g id="line2d_34">
      <g>
       <use style="stroke:#000000;stroke-width:0.6;" x="373.847377" xlink:href="#m4c425e0b31" y="207.131542"/>
      </g>
     </g>
    </g>
    <g id="ytick_14">
     <g id="line2d_35">
      <g>
       <use style="stroke:#000000;stroke-width:0.6;" x="373.847377" xlink:href="#m4c425e0b31" y="199.419719"/>
      </g>
     </g>
    </g>
    <g id="ytick_15">
     <g id="line2d_36">
      <g>
       <use style="stroke:#000000;stroke-width:0.6;" x="373.847377" xlink:href="#m4c425e0b31" y="183.996075"/>
      </g>
     </g>
    </g>
    <g id="ytick_16">
     <g id="line2d_37">
      <g>
       <use style="stroke:#000000;stroke-width:0.6;" x="373.847377" xlink:href="#m4c425e0b31" y="176.284252"/>
      </g>
     </g>
    </g>
    <g id="ytick_17">
     <g id="line2d_38">
      <g>
       <use style="stroke:#000000;stroke-width:0.6;" x="373.847377" xlink:href="#m4c425e0b31" y="168.57243"/>
      </g>
     </g>
    </g>
    <g id="ytick_18">
     <g id="line2d_39">
      <g>
       <use style="stroke:#000000;stroke-width:0.6;" x="373.847377" xlink:href="#m4c425e0b31" y="153.148785"/>
      </g>
     </g>
    </g>
    <g id="ytick_19">
     <g id="line2d_40">
      <g>
       <use style="stroke:#000000;stroke-width:0.6;" x="373.847377" xlink:href="#m4c425e0b31" y="145.436963"/>
      </g>
     </g>
    </g>
    <g id="ytick_20">
     <g id="line2d_41">
      <g>
       <use style="stroke:#000000;stroke-width:0.6;" x="373.847377" xlink:href="#m4c425e0b31" y="137.725141"/>
      </g>
     </g>
    </g>
    <g id="ytick_21">
     <g id="line2d_42">
      <g>
       <use style="stroke:#000000;stroke-width:0.6;" x="373.847377" xlink:href="#m4c425e0b31" y="122.301496"/>
      </g>
     </g>
    </g>
    <g id="ytick_22">
     <g id="line2d_43">
      <g>
       <use style="stroke:#000000;stroke-width:0.6;" x="373.847377" xlink:href="#m4c425e0b31" y="114.589674"/>
      </g>
     </g>
    </g>
    <g id="ytick_23">
     <g id="line2d_44">
      <g>
       <use style="stroke:#000000;stroke-width:0.6;" x="373.847377" xlink:href="#m4c425e0b31" y="106.877852"/>
      </g>
     </g>
    </g>
    <g id="ytick_24">
     <g id="line2d_45">
      <g>
       <use style="stroke:#000000;stroke-width:0.6;" x="373.847377" xlink:href="#m4c425e0b31" y="91.454207"/>
      </g>
     </g>
    </g>
    <g id="ytick_25">
     <g id="line2d_46">
      <g>
       <use style="stroke:#000000;stroke-width:0.6;" x="373.847377" xlink:href="#m4c425e0b31" y="83.742385"/>
      </g>
     </g>
    </g>
    <g id="ytick_26">
     <g id="line2d_47">
      <g>
       <use style="stroke:#000000;stroke-width:0.6;" x="373.847377" xlink:href="#m4c425e0b31" y="76.030563"/>
      </g>
     </g>
    </g>
    <g id="ytick_27">
     <g id="line2d_48">
      <g>
       <use style="stroke:#000000;stroke-width:0.6;" x="373.847377" xlink:href="#m4c425e0b31" y="60.606918"/>
      </g>
     </g>
    </g>
    <g id="ytick_28">
     <g id="line2d_49">
      <g>
       <use style="stroke:#000000;stroke-width:0.6;" x="373.847377" xlink:href="#m4c425e0b31" y="52.895096"/>
      </g>
     </g>
    </g>
    <g id="ytick_29">
     <g id="line2d_50">
      <g>
       <use style="stroke:#000000;stroke-width:0.6;" x="373.847377" xlink:href="#m4c425e0b31" y="45.183273"/>
      </g>
     </g>
    </g>
    <g id="text_14">
     <!-- $\max_x B_{s, p^2}(x)$ -->
     <defs>
      <path d="M 2.984375 0 
L 2.984375 3.515625 
Q 6.390625 3.515625 8.59375 4.046875 
Q 10.796875 4.59375 10.796875 6.6875 
L 10.796875 33.984375 
Q 10.796875 36.671875 9.984375 37.859375 
Q 9.1875 39.0625 7.671875 39.328125 
Q 6.15625 39.59375 2.984375 39.59375 
L 2.984375 43.109375 
L 17.484375 44.1875 
L 17.484375 34.421875 
Q 19.484375 38.71875 23.40625 41.453125 
Q 27.34375 44.1875 31.984375 44.1875 
Q 43.5 44.1875 45.515625 34.8125 
Q 47.515625 39.015625 51.359375 41.59375 
Q 55.21875 44.1875 59.8125 44.1875 
Q 64.359375 44.1875 67.453125 42.71875 
Q 70.5625 41.265625 72.125 38.25 
Q 73.6875 35.25 73.6875 30.71875 
L 73.6875 6.6875 
Q 73.6875 4.59375 75.90625 4.046875 
Q 78.125 3.515625 81.5 3.515625 
L 81.5 0 
L 58.59375 0 
L 58.59375 3.515625 
Q 62.015625 3.515625 64.203125 4.046875 
Q 66.40625 4.59375 66.40625 6.6875 
L 66.40625 30.421875 
Q 66.40625 35.453125 64.984375 38.53125 
Q 63.578125 41.609375 59.1875 41.609375 
Q 53.421875 41.609375 49.65625 36.96875 
Q 45.90625 32.328125 45.90625 26.421875 
L 45.90625 6.6875 
Q 45.90625 4.59375 48.09375 4.046875 
Q 50.296875 3.515625 53.71875 3.515625 
L 53.71875 0 
L 30.8125 0 
L 30.8125 3.515625 
Q 34.234375 3.515625 36.421875 4.046875 
Q 38.625 4.59375 38.625 6.6875 
L 38.625 30.421875 
Q 38.625 35.296875 37.203125 38.453125 
Q 35.796875 41.609375 31.390625 41.609375 
Q 25.59375 41.609375 21.84375 36.96875 
Q 18.109375 32.328125 18.109375 26.421875 
L 18.109375 6.6875 
Q 18.109375 4.59375 20.3125 4.046875 
Q 22.515625 3.515625 25.875 3.515625 
L 25.875 0 
z
" id="Cmr10-6d"/>
      <path d="M 4 9.8125 
Q 4 15.765625 8.6875 19.5 
Q 13.375 23.25 19.9375 24.78125 
Q 26.515625 26.3125 32.421875 26.3125 
L 32.421875 30.421875 
Q 32.421875 33.296875 31.15625 36 
Q 29.890625 38.71875 27.484375 40.453125 
Q 25.09375 42.1875 22.21875 42.1875 
Q 15.578125 42.1875 12.109375 39.203125 
Q 14.015625 39.203125 15.25 37.765625 
Q 16.5 36.328125 16.5 34.421875 
Q 16.5 32.421875 15.078125 31 
Q 13.671875 29.59375 11.71875 29.59375 
Q 9.71875 29.59375 8.296875 31 
Q 6.890625 32.421875 6.890625 34.421875 
Q 6.890625 39.703125 11.671875 42.265625 
Q 16.453125 44.828125 22.21875 44.828125 
Q 26.265625 44.828125 30.359375 43.09375 
Q 34.46875 41.359375 37.078125 38.125 
Q 39.703125 34.90625 39.703125 30.609375 
L 39.703125 8.109375 
Q 39.703125 6.15625 40.53125 4.515625 
Q 41.359375 2.875 43.109375 2.875 
Q 44.78125 2.875 45.578125 4.53125 
Q 46.390625 6.203125 46.390625 8.109375 
L 46.390625 14.5 
L 49.3125 14.5 
L 49.3125 8.109375 
Q 49.3125 5.859375 48.140625 3.828125 
Q 46.96875 1.8125 44.984375 0.609375 
Q 43.015625 -0.59375 40.71875 -0.59375 
Q 37.796875 -0.59375 35.671875 1.671875 
Q 33.546875 3.953125 33.296875 7.078125 
Q 31.453125 3.328125 27.828125 1.09375 
Q 24.21875 -1.125 20.125 -1.125 
Q 16.3125 -1.125 12.625 0 
Q 8.9375 1.125 6.46875 3.53125 
Q 4 5.953125 4 9.8125 
z
M 12.109375 9.8125 
Q 12.109375 6.296875 14.6875 3.90625 
Q 17.28125 1.515625 20.796875 1.515625 
Q 24.03125 1.515625 26.65625 3.125 
Q 29.296875 4.734375 30.859375 7.515625 
Q 32.421875 10.296875 32.421875 13.375 
L 32.421875 23.78125 
Q 27.875 23.78125 23.109375 22.28125 
Q 18.359375 20.796875 15.234375 17.625 
Q 12.109375 14.453125 12.109375 9.8125 
z
" id="Cmr10-61"/>
      <path d="M 1.21875 0 
L 1.21875 3.515625 
Q 5.03125 3.515625 8.390625 5 
Q 11.765625 6.5 14.109375 9.421875 
L 23.1875 21 
L 11.375 36.375 
Q 9.625 38.578125 7.546875 39.078125 
Q 5.46875 39.59375 1.703125 39.59375 
L 1.703125 43.109375 
L 22.515625 43.109375 
L 22.515625 39.59375 
Q 21.1875 39.59375 20.03125 39 
Q 18.890625 38.421875 18.890625 37.3125 
Q 18.890625 36.921875 19.1875 36.375 
L 27.203125 25.984375 
L 33.203125 33.6875 
Q 34.421875 35.15625 34.421875 36.625 
Q 34.421875 37.84375 33.609375 38.71875 
Q 32.8125 39.59375 31.5 39.59375 
L 31.5 43.109375 
L 49.90625 43.109375 
L 49.90625 39.59375 
Q 46.046875 39.59375 42.65625 38.109375 
Q 39.265625 36.625 36.921875 33.6875 
L 29 23.578125 
L 41.796875 6.6875 
Q 43.703125 4.5 45.75 4 
Q 47.796875 3.515625 51.609375 3.515625 
L 51.609375 0 
L 30.8125 0 
L 30.8125 3.515625 
Q 32.03125 3.515625 33.15625 4.09375 
Q 34.28125 4.6875 34.28125 5.8125 
Q 34.28125 6.25 33.984375 6.6875 
L 25 18.609375 
L 17.828125 9.421875 
Q 16.703125 8.15625 16.703125 6.5 
Q 16.703125 5.28125 17.53125 4.390625 
Q 18.359375 3.515625 19.484375 3.515625 
L 19.484375 0 
z
" id="Cmr10-78"/>
      <path d="M 7.8125 2.875 
Q 9.578125 1.515625 12.796875 1.515625 
Q 15.921875 1.515625 18.3125 4.515625 
Q 20.703125 7.515625 21.578125 11.078125 
L 26.125 28.8125 
Q 27.203125 33.640625 27.203125 35.40625 
Q 27.203125 37.890625 25.8125 39.75 
Q 24.421875 41.609375 21.921875 41.609375 
Q 18.75 41.609375 15.96875 39.625 
Q 13.1875 37.640625 11.28125 34.59375 
Q 9.375 31.546875 8.59375 28.421875 
Q 8.40625 27.78125 7.8125 27.78125 
L 6.59375 27.78125 
Q 5.8125 27.78125 5.8125 28.71875 
L 5.8125 29 
Q 6.78125 32.71875 9.125 36.25 
Q 11.46875 39.796875 14.859375 41.984375 
Q 18.265625 44.1875 22.125 44.1875 
Q 25.78125 44.1875 28.734375 42.234375 
Q 31.6875 40.28125 32.90625 36.921875 
Q 34.625 39.984375 37.28125 42.078125 
Q 39.9375 44.1875 43.109375 44.1875 
Q 45.265625 44.1875 47.5 43.421875 
Q 49.75 42.671875 51.171875 41.109375 
Q 52.59375 39.546875 52.59375 37.203125 
Q 52.59375 34.671875 50.953125 32.828125 
Q 49.3125 31 46.78125 31 
Q 45.171875 31 44.09375 32.03125 
Q 43.015625 33.0625 43.015625 34.625 
Q 43.015625 36.71875 44.453125 38.296875 
Q 45.90625 39.890625 47.90625 40.1875 
Q 46.09375 41.609375 42.921875 41.609375 
Q 39.703125 41.609375 37.328125 38.625 
Q 34.96875 35.640625 33.984375 31.984375 
L 29.59375 14.3125 
Q 28.515625 10.296875 28.515625 7.71875 
Q 28.515625 5.171875 29.953125 3.34375 
Q 31.390625 1.515625 33.796875 1.515625 
Q 38.484375 1.515625 42.15625 5.640625 
Q 45.84375 9.765625 47.015625 14.703125 
Q 47.21875 15.28125 47.796875 15.28125 
L 49.03125 15.28125 
Q 49.421875 15.28125 49.65625 15.015625 
Q 49.90625 14.75 49.90625 14.40625 
Q 49.90625 14.3125 49.8125 14.109375 
Q 48.390625 8.15625 43.84375 3.515625 
Q 39.3125 -1.125 33.59375 -1.125 
Q 29.9375 -1.125 26.984375 0.84375 
Q 24.03125 2.828125 22.796875 6.203125 
Q 21.234375 3.265625 18.46875 1.0625 
Q 15.71875 -1.125 12.59375 -1.125 
Q 10.453125 -1.125 8.171875 -0.359375 
Q 5.90625 0.390625 4.484375 1.953125 
Q 3.078125 3.515625 3.078125 5.90625 
Q 3.078125 8.25 4.703125 10.171875 
Q 6.34375 12.109375 8.796875 12.109375 
Q 10.453125 12.109375 11.578125 11.109375 
Q 12.703125 10.109375 12.703125 8.5 
Q 12.703125 6.390625 11.296875 4.828125 
Q 9.90625 3.265625 7.8125 2.875 
z
" id="Cmmi10-78"/>
      <path d="M 4.984375 0 
Q 4 0 4 1.3125 
Q 4.046875 1.5625 4.1875 2.140625 
Q 4.34375 2.734375 4.578125 3.125 
Q 4.828125 3.515625 5.328125 3.515625 
Q 8.15625 3.515625 10.25 3.65625 
Q 12.359375 3.8125 13.8125 4.203125 
Q 14.984375 4.640625 15.71875 6.890625 
L 29.390625 61.8125 
Q 29.59375 62.796875 29.59375 63.1875 
Q 29.59375 64.265625 28.421875 64.40625 
Q 26.515625 64.796875 21.1875 64.796875 
Q 20.21875 64.796875 20.21875 66.109375 
Q 20.265625 66.359375 20.40625 66.96875 
Q 20.5625 67.578125 20.828125 67.9375 
Q 21.09375 68.3125 21.484375 68.3125 
L 57.328125 68.3125 
Q 60.59375 68.3125 63.796875 67.5 
Q 67 66.703125 69.703125 64.9375 
Q 72.40625 63.1875 74 60.5625 
Q 75.59375 57.953125 75.59375 54.5 
Q 75.59375 50.734375 73.65625 47.5 
Q 71.734375 44.28125 68.671875 41.890625 
Q 65.625 39.5 62.078125 37.953125 
Q 58.546875 36.421875 54.6875 35.6875 
Q 57.421875 35.6875 60.21875 34.609375 
Q 63.03125 33.546875 65.234375 31.6875 
Q 67.4375 29.828125 68.78125 27.234375 
Q 70.125 24.65625 70.125 21.6875 
Q 70.125 15.671875 65.921875 10.6875 
Q 61.71875 5.71875 55.34375 2.859375 
Q 48.96875 0 43.015625 0 
z
M 23.390625 4.296875 
Q 23.390625 3.515625 26.8125 3.515625 
L 41.109375 3.515625 
Q 46 3.515625 50.484375 6.21875 
Q 54.984375 8.9375 57.6875 13.421875 
Q 60.40625 17.921875 60.40625 22.796875 
Q 60.40625 25.78125 59.15625 28.4375 
Q 57.90625 31.109375 55.5625 32.640625 
Q 53.21875 34.1875 50.203125 34.1875 
L 30.71875 34.1875 
L 23.78125 6.5 
Q 23.390625 5.125 23.390625 4.296875 
z
M 31.390625 36.8125 
L 46.578125 36.8125 
Q 51.375 36.8125 55.890625 39.25 
Q 60.40625 41.703125 63.25 45.890625 
Q 66.109375 50.09375 66.109375 54.78125 
Q 66.109375 59.125 63.390625 61.953125 
Q 60.6875 64.796875 56.390625 64.796875 
L 42.671875 64.796875 
Q 39.984375 64.796875 39.0625 64.296875 
Q 38.140625 63.8125 37.5 61.375 
z
" id="Cmmi10-42"/>
      <path d="M 9.90625 -18.015625 
Q 9.90625 -17.578125 10.296875 -17.1875 
Q 13.921875 -13.71875 15.921875 -9.171875 
Q 17.921875 -4.640625 17.921875 0.390625 
L 17.921875 1.609375 
Q 16.3125 0 13.921875 0 
Q 11.625 0 10.015625 1.609375 
Q 8.40625 3.21875 8.40625 5.515625 
Q 8.40625 7.859375 10.015625 9.421875 
Q 11.625 10.984375 13.921875 10.984375 
Q 17.484375 10.984375 19 7.6875 
Q 20.515625 4.390625 20.515625 0.390625 
Q 20.515625 -5.171875 18.28125 -10.171875 
Q 16.0625 -15.1875 12.015625 -19.1875 
Q 11.625 -19.390625 11.375 -19.390625 
Q 10.890625 -19.390625 10.390625 -18.9375 
Q 9.90625 -18.5 9.90625 -18.015625 
z
" id="Cmmi10-3b"/>
      <path d="M -2.484375 -19.390625 
Q -3.421875 -19.390625 -3.421875 -18.109375 
Q -3.078125 -15.921875 -2.09375 -15.921875 
Q 1.03125 -15.921875 2.265625 -15.359375 
Q 3.515625 -14.796875 4.203125 -12.5 
L 15.484375 32.515625 
Q 16.21875 34.375 16.21875 37.3125 
Q 16.21875 41.609375 13.28125 41.609375 
Q 10.15625 41.609375 8.640625 37.859375 
Q 7.125 34.125 5.71875 28.421875 
Q 5.71875 27.78125 4.890625 27.78125 
L 3.71875 27.78125 
Q 3.46875 27.78125 3.171875 28.140625 
Q 2.875 28.515625 2.875 28.8125 
Q 3.953125 33.15625 4.953125 36.171875 
Q 5.953125 39.203125 8.078125 41.6875 
Q 10.203125 44.1875 13.375 44.1875 
Q 16.796875 44.1875 19.375 42.25 
Q 21.96875 40.328125 22.703125 37.015625 
Q 25.4375 40.1875 28.75 42.1875 
Q 32.078125 44.1875 35.59375 44.1875 
Q 39.796875 44.1875 42.890625 41.9375 
Q 46 39.703125 47.5625 36.0625 
Q 49.125 32.421875 49.125 28.21875 
Q 49.125 21.78125 45.828125 14.890625 
Q 42.53125 8.015625 36.890625 3.4375 
Q 31.25 -1.125 24.8125 -1.125 
Q 21.875 -1.125 19.5 0.53125 
Q 17.140625 2.203125 15.828125 4.890625 
L 11.28125 -12.890625 
Q 11.03125 -14.359375 10.984375 -14.59375 
Q 10.984375 -15.921875 17.578125 -15.921875 
Q 18.609375 -15.921875 18.609375 -17.1875 
Q 18.265625 -18.5 18.046875 -18.9375 
Q 17.828125 -19.390625 16.890625 -19.390625 
z
M 24.90625 1.515625 
Q 28.375 1.515625 31.34375 4.375 
Q 34.328125 7.234375 36.1875 10.796875 
Q 37.546875 13.484375 38.734375 17.359375 
Q 39.9375 21.234375 40.8125 25.625 
Q 41.703125 30.03125 41.703125 32.625 
Q 41.703125 34.90625 41.09375 36.90625 
Q 40.484375 38.921875 39.09375 40.265625 
Q 37.703125 41.609375 35.40625 41.609375 
Q 31.734375 41.609375 28.484375 38.984375 
Q 25.25 36.375 22.609375 32.515625 
L 22.609375 32.171875 
L 17.09375 10.109375 
Q 17.78125 6.546875 19.734375 4.03125 
Q 21.6875 1.515625 24.90625 1.515625 
z
" id="Cmmi10-70"/>
      <path d="M 4.984375 0 
L 4.984375 2.6875 
Q 4.984375 2.9375 5.171875 3.21875 
L 20.703125 20.40625 
Q 24.21875 24.21875 26.40625 26.796875 
Q 28.609375 29.390625 30.75 32.765625 
Q 32.90625 36.140625 34.15625 39.625 
Q 35.40625 43.109375 35.40625 47.015625 
Q 35.40625 51.125 33.890625 54.859375 
Q 32.375 58.59375 29.375 60.84375 
Q 26.375 63.09375 22.125 63.09375 
Q 17.78125 63.09375 14.3125 60.46875 
Q 10.84375 57.859375 9.421875 53.71875 
Q 9.8125 53.8125 10.5 53.8125 
Q 12.75 53.8125 14.328125 52.296875 
Q 15.921875 50.78125 15.921875 48.390625 
Q 15.921875 46.09375 14.328125 44.5 
Q 12.75 42.921875 10.5 42.921875 
Q 8.15625 42.921875 6.5625 44.546875 
Q 4.984375 46.1875 4.984375 48.390625 
Q 4.984375 52.15625 6.390625 55.4375 
Q 7.8125 58.734375 10.46875 61.296875 
Q 13.140625 63.875 16.484375 65.234375 
Q 19.828125 66.609375 23.578125 66.609375 
Q 29.296875 66.609375 34.21875 64.1875 
Q 39.15625 61.765625 42.03125 57.34375 
Q 44.921875 52.9375 44.921875 47.015625 
Q 44.921875 42.671875 43.015625 38.765625 
Q 41.109375 34.859375 38.125 31.65625 
Q 35.15625 28.46875 30.515625 24.40625 
Q 25.875 20.359375 24.421875 19 
L 13.09375 8.109375 
L 22.703125 8.109375 
Q 29.78125 8.109375 34.546875 8.21875 
Q 39.3125 8.34375 39.59375 8.59375 
Q 40.765625 9.859375 42 17.828125 
L 44.921875 17.828125 
L 42.09375 0 
z
" id="Cmr10-32"/>
      <path d="M 31 -24.8125 
Q 25.4375 -20.40625 21.40625 -14.71875 
Q 17.390625 -9.03125 14.8125 -2.578125 
Q 12.25 3.859375 10.984375 10.890625 
Q 9.71875 17.921875 9.71875 25 
Q 9.71875 32.171875 10.984375 39.203125 
Q 12.25 46.234375 14.859375 52.734375 
Q 17.484375 59.234375 21.53125 64.890625 
Q 25.59375 70.5625 31 74.8125 
Q 31 75 31.5 75 
L 32.421875 75 
Q 32.71875 75 32.953125 74.734375 
Q 33.203125 74.46875 33.203125 74.125 
Q 33.203125 73.6875 33.015625 73.484375 
Q 28.125 68.703125 24.875 63.234375 
Q 21.625 57.765625 19.640625 51.578125 
Q 17.671875 45.40625 16.796875 38.78125 
Q 15.921875 32.171875 15.921875 25 
Q 15.921875 -6.78125 32.90625 -23.296875 
Q 33.203125 -23.578125 33.203125 -24.125 
Q 33.203125 -24.359375 32.9375 -24.671875 
Q 32.671875 -25 32.421875 -25 
L 31.5 -25 
Q 31 -25 31 -24.8125 
z
" id="Cmr10-28"/>
      <path d="M 6.5 -25 
Q 5.609375 -25 5.609375 -24.125 
Q 5.609375 -23.6875 5.8125 -23.484375 
Q 22.90625 -6.78125 22.90625 25 
Q 22.90625 56.78125 6 73.296875 
Q 5.609375 73.53125 5.609375 74.125 
Q 5.609375 74.46875 5.875 74.734375 
Q 6.15625 75 6.5 75 
L 7.421875 75 
Q 7.71875 75 7.90625 74.8125 
Q 15.09375 69.140625 19.875 61.03125 
Q 24.65625 52.9375 26.875 43.75 
Q 29.109375 34.578125 29.109375 25 
Q 29.109375 17.921875 27.90625 11.0625 
Q 26.703125 4.203125 24.09375 -2.453125 
Q 21.484375 -9.125 17.484375 -14.765625 
Q 13.484375 -20.40625 7.90625 -24.8125 
Q 7.71875 -25 7.421875 -25 
z
" id="Cmr10-29"/>
     </defs>
     <g transform="translate(330.967377 19.2)scale(0.16 -0.16)">
      <use transform="translate(0 18.75)" xlink:href="#Cmr10-6d"/>
      <use transform="translate(83.300781 18.75)" xlink:href="#Cmr10-61"/>
      <use transform="translate(133.300781 18.75)" xlink:href="#Cmr10-78"/>
      <use transform="translate(76 -32.05625)scale(0.7)" xlink:href="#Cmmi10-78"/>
      <use transform="translate(185.986328 0)" xlink:href="#Cmmi10-42"/>
      <use transform="translate(261.767578 -17.00625)scale(0.7)" xlink:href="#Cmmi10-73"/>
      <use transform="translate(294.511719 -17.00625)scale(0.7)" xlink:href="#Cmmi10-3b"/>
      <use transform="translate(326.182617 -17.00625)scale(0.7)" xlink:href="#Cmmi10-70"/>
      <use transform="translate(365.799992 9.778594)scale(0.49)" xlink:href="#Cmr10-32"/>
      <use transform="translate(401.141477 0)" xlink:href="#Cmr10-28"/>
      <use transform="translate(439.959836 0)" xlink:href="#Cmmi10-78"/>
      <use transform="translate(497.039914 0)" xlink:href="#Cmr10-29"/>
     </g>
    </g>
   </g>
   <g id="line2d_51">
    <path clip-path="url(#p1a91110fe0)" d="M 17.820537 36.811813 
L 26.612422 53.553998 
L 35.600293 70.259298 
L 44.78205 86.871759 
L 53.708246 102.556016 
L 60.121282 113.524838 
L 67.500112 125.818906 
L 76.068816 139.632724 
L 84.322704 152.439904 
L 92.112617 164.048829 
L 99.876932 175.127458 
L 107.208643 185.108733 
L 113.813785 193.676399 
L 118.921096 200.009694 
L 124.692483 206.844098 
L 131.907673 214.879481 
L 135.028768 218.171073 
L 138.8936 222.085542 
L 143.86073 226.843423 
L 148.834804 231.285404 
L 154.191513 235.688341 
L 157.998148 238.564776 
L 161.086464 240.737276 
L 164.000516 242.649879 
L 167.490268 244.758439 
L 171.248913 246.798782 
L 176.174884 249.092593 
L 180.089331 250.591654 
L 183.95229 251.774665 
L 187.45001 252.579345 
L 190.473326 253.061347 
L 194.577081 253.383365 
L 212.058594 253.402475 
L 291.26881 253.402475 
L 291.26881 253.402475 
" style="fill:none;stroke:#0000ff;stroke-linecap:square;"/>
   </g>
   <g id="line2d_52">
    <path clip-path="url(#p1a91110fe0)" d="M 296.354918 253.402475 
L 298.689922 253.402475 
L 300.802198 253.402475 
L 301.484822 253.402475 
L 303.998746 253.402475 
L 306.311107 253.402475 
L 307.141803 253.402475 
L 308.569054 253.402475 
L 311.662895 253.402475 
L 313.882299 253.402475 
L 315.336424 253.402475 
L 315.843277 253.402475 
L 318.634962 253.402475 
L 320.165055 253.402475 
L 321.953981 253.402475 
L 324.614145 253.402475 
L 325.605136 253.402475 
L 327.164233 253.402475 
L 329.469491 253.402475 
L 330.197997 253.402475 
L 332.128263 253.402475 
L 334.008218 253.402475 
L 335.552182 253.402475 
L 337.785453 253.402475 
L 339.557511 253.402475 
L 341.337597 253.402475 
L 342.781324 253.402475 
L 344.864305 253.402475 
L 347.049024 253.402475 
L 348.28117 253.402475 
L 350.555595 253.402475 
L 351.624374 253.402475 
L 353.920301 253.402475 
L 355.837885 253.402475 
L 357.499233 253.402475 
L 359.886137 253.402475 
L 360.72518 253.402475 
L 363.391171 253.402475 
L 365.666742 253.402475 
L 366.899137 253.402475 
L 368.756052 253.402475 
L 370.589318 253.402475 
L 371.169124 253.402475 
L 373.847377 253.402475 
" style="fill:none;stroke:#0000ff;stroke-linecap:square;"/>
   </g>
   <g id="patch_3">
    <path d="M 373.847377 257.734288 
L 373.847377 32.48 
" style="fill:none;stroke:#000000;stroke-linecap:square;stroke-linejoin:miter;stroke-width:0.8;"/>
   </g>
   <g id="patch_4">
    <path d="M 10.7 253.402475 
L 380.967913 253.402475 
" style="fill:none;stroke:#000000;stroke-linecap:square;stroke-linejoin:miter;stroke-width:0.8;"/>
   </g>
   <g id="text_15">
    <!-- $D_r=1e+00$ -->
    <defs>
     <path d="M 4.890625 0 
Q 3.90625 0 3.90625 1.3125 
Q 3.953125 1.5625 4.09375 2.171875 
Q 4.25 2.78125 4.515625 3.140625 
Q 4.78125 3.515625 5.171875 3.515625 
Q 11.28125 3.515625 13.71875 4.203125 
Q 14.984375 4.640625 15.578125 6.890625 
L 29.296875 61.8125 
Q 29.5 62.796875 29.5 63.1875 
Q 29.5 64.265625 28.328125 64.40625 
Q 26.421875 64.796875 21.09375 64.796875 
Q 20.125 64.796875 20.125 66.109375 
Q 20.171875 66.359375 20.3125 66.96875 
Q 20.453125 67.578125 20.71875 67.9375 
Q 21 68.3125 21.390625 68.3125 
L 57.328125 68.3125 
Q 64.3125 68.3125 69.53125 64.921875 
Q 74.75 61.53125 77.53125 55.78125 
Q 80.328125 50.046875 80.328125 43.109375 
Q 80.328125 35.453125 77.140625 27.78125 
Q 73.96875 20.125 68.25 13.765625 
Q 62.546875 7.421875 55.21875 3.703125 
Q 47.90625 0 40.1875 0 
z
M 23.578125 4.296875 
Q 23.578125 3.515625 27 3.515625 
L 38.625 3.515625 
Q 44.1875 3.515625 49.359375 5.8125 
Q 54.546875 8.109375 58.59375 12.109375 
Q 62.359375 15.875 65.234375 21.96875 
Q 68.109375 28.078125 69.703125 34.71875 
Q 71.296875 41.359375 71.296875 46.921875 
Q 71.296875 50.984375 70.09375 54.25 
Q 68.890625 57.515625 66.71875 59.859375 
Q 64.546875 62.203125 61.28125 63.5 
Q 58.015625 64.796875 53.90625 64.796875 
L 42.921875 64.796875 
Q 40.1875 64.796875 39.296875 64.328125 
Q 38.421875 63.875 37.703125 61.375 
L 24.03125 6.5 
Q 23.578125 5.28125 23.578125 4.296875 
z
" id="Cmmi10-44"/>
     <path d="M 7.71875 1.703125 
Q 7.71875 2.296875 7.8125 2.59375 
L 15.28125 32.421875 
Q 16.015625 35.203125 16.015625 37.3125 
Q 16.015625 41.609375 13.09375 41.609375 
Q 9.96875 41.609375 8.453125 37.859375 
Q 6.9375 34.125 5.515625 28.421875 
Q 5.515625 28.125 5.21875 27.953125 
Q 4.9375 27.78125 4.6875 27.78125 
L 3.515625 27.78125 
Q 3.171875 27.78125 2.921875 28.140625 
Q 2.6875 28.515625 2.6875 28.8125 
Q 3.765625 33.15625 4.765625 36.171875 
Q 5.765625 39.203125 7.890625 41.6875 
Q 10.015625 44.1875 13.1875 44.1875 
Q 16.65625 44.1875 19.265625 42.1875 
Q 21.875 40.1875 22.515625 36.921875 
Q 25.046875 40.234375 28.296875 42.203125 
Q 31.546875 44.1875 35.40625 44.1875 
Q 38.578125 44.1875 40.984375 42.328125 
Q 43.40625 40.484375 43.40625 37.3125 
Q 43.40625 34.765625 41.8125 32.875 
Q 40.234375 31 37.59375 31 
Q 35.984375 31 34.890625 32 
Q 33.796875 33.015625 33.796875 34.625 
Q 33.796875 36.8125 35.40625 38.546875 
Q 37.015625 40.28125 39.109375 40.28125 
Q 37.5 41.609375 35.203125 41.609375 
Q 30.90625 41.609375 27.734375 38.546875 
Q 24.5625 35.5 22.015625 30.8125 
L 14.890625 2.203125 
Q 14.546875 0.828125 13.34375 -0.140625 
Q 12.15625 -1.125 10.6875 -1.125 
Q 9.46875 -1.125 8.59375 -0.34375 
Q 7.71875 0.4375 7.71875 1.703125 
z
" id="Cmmi10-72"/>
     <path d="M 7.515625 13.28125 
Q 6.6875 13.28125 6.140625 13.90625 
Q 5.609375 14.546875 5.609375 15.28125 
Q 5.609375 16.109375 6.140625 16.6875 
Q 6.6875 17.28125 7.515625 17.28125 
L 70.3125 17.28125 
Q 71.046875 17.28125 71.578125 16.6875 
Q 72.125 16.109375 72.125 15.28125 
Q 72.125 14.546875 71.578125 13.90625 
Q 71.046875 13.28125 70.3125 13.28125 
z
M 7.515625 32.71875 
Q 6.6875 32.71875 6.140625 33.296875 
Q 5.609375 33.890625 5.609375 34.71875 
Q 5.609375 35.453125 6.140625 36.078125 
Q 6.6875 36.71875 7.515625 36.71875 
L 70.3125 36.71875 
Q 71.046875 36.71875 71.578125 36.078125 
Q 72.125 35.453125 72.125 34.71875 
Q 72.125 33.890625 71.578125 33.296875 
Q 71.046875 32.71875 70.3125 32.71875 
z
" id="Cmr10-3d"/>
     <path d="M 9.28125 0 
L 9.28125 3.515625 
Q 21.78125 3.515625 21.78125 6.6875 
L 21.78125 59.1875 
Q 16.609375 56.6875 8.6875 56.6875 
L 8.6875 60.203125 
Q 20.953125 60.203125 27.203125 66.609375 
L 28.609375 66.609375 
Q 28.953125 66.609375 29.265625 66.328125 
Q 29.59375 66.0625 29.59375 65.71875 
L 29.59375 6.6875 
Q 29.59375 3.515625 42.09375 3.515625 
L 42.09375 0 
z
" id="Cmr10-31"/>
     <path d="M 20.125 -1.125 
Q 15.328125 -1.125 11.734375 1.359375 
Q 8.15625 3.859375 6.265625 8.078125 
Q 4.390625 12.3125 4.390625 17 
Q 4.390625 24.125 7.984375 30.390625 
Q 11.578125 36.671875 17.71875 40.421875 
Q 23.875 44.1875 30.90625 44.1875 
Q 35.203125 44.1875 38.40625 41.96875 
Q 41.609375 39.75 41.609375 35.59375 
Q 41.609375 29.828125 37.015625 27.015625 
Q 32.421875 24.21875 26.65625 23.5625 
Q 20.90625 22.90625 13.921875 22.90625 
L 13.625 22.90625 
Q 12.015625 16.9375 12.015625 12.703125 
Q 12.015625 8.25 14.0625 4.875 
Q 16.109375 1.515625 20.3125 1.515625 
Q 26.265625 1.515625 31.75 4.25 
Q 37.25 6.984375 40.71875 11.8125 
Q 41.015625 12.109375 41.5 12.109375 
Q 42 12.109375 42.5 11.546875 
Q 43.015625 10.984375 43.015625 10.5 
Q 43.015625 10.109375 42.828125 9.90625 
Q 39.15625 4.78125 32.953125 1.828125 
Q 26.765625 -1.125 20.125 -1.125 
z
M 14.203125 25.484375 
Q 20.015625 25.484375 24.953125 26.015625 
Q 29.890625 26.5625 33.890625 28.734375 
Q 37.890625 30.90625 37.890625 35.5 
Q 37.890625 37.359375 36.859375 38.75 
Q 35.84375 40.140625 34.203125 40.875 
Q 32.5625 41.609375 30.8125 41.609375 
Q 26.5625 41.609375 23.171875 39.3125 
Q 19.78125 37.015625 17.578125 33.328125 
Q 15.375 29.640625 14.203125 25.484375 
z
" id="Cmmi10-65"/>
     <path d="M 7.515625 23 
Q 6.6875 23 6.140625 23.625 
Q 5.609375 24.265625 5.609375 25 
Q 5.609375 25.734375 6.140625 26.359375 
Q 6.6875 27 7.515625 27 
L 36.921875 27 
L 36.921875 56.5 
Q 36.921875 57.28125 37.5 57.78125 
Q 38.09375 58.296875 38.921875 58.296875 
Q 39.65625 58.296875 40.28125 57.78125 
Q 40.921875 57.28125 40.921875 56.5 
L 40.921875 27 
L 70.3125 27 
Q 71.046875 27 71.578125 26.359375 
Q 72.125 25.734375 72.125 25 
Q 72.125 24.265625 71.578125 23.625 
Q 71.046875 23 70.3125 23 
L 40.921875 23 
L 40.921875 -6.5 
Q 40.921875 -7.28125 40.28125 -7.78125 
Q 39.65625 -8.296875 38.921875 -8.296875 
Q 38.09375 -8.296875 37.5 -7.78125 
Q 36.921875 -7.28125 36.921875 -6.5 
L 36.921875 23 
z
" id="Cmr10-2b"/>
     <path d="M 25 -2.203125 
Q 12.75 -2.203125 8.328125 7.875 
Q 3.90625 17.96875 3.90625 31.890625 
Q 3.90625 40.578125 5.484375 48.234375 
Q 7.078125 55.90625 11.78125 61.25 
Q 16.5 66.609375 25 66.609375 
Q 31.59375 66.609375 35.78125 63.375 
Q 39.984375 60.15625 42.1875 55.046875 
Q 44.390625 49.953125 45.1875 44.109375 
Q 46 38.28125 46 31.890625 
Q 46 23.296875 44.40625 15.796875 
Q 42.828125 8.296875 38.1875 3.046875 
Q 33.546875 -2.203125 25 -2.203125 
z
M 25 0.390625 
Q 30.5625 0.390625 33.296875 6.09375 
Q 36.03125 11.8125 36.671875 18.75 
Q 37.3125 25.6875 37.3125 33.5 
Q 37.3125 41.015625 36.671875 47.359375 
Q 36.03125 53.71875 33.3125 58.859375 
Q 30.609375 64.015625 25 64.015625 
Q 19.34375 64.015625 16.609375 58.828125 
Q 13.875 53.65625 13.234375 47.328125 
Q 12.59375 41.015625 12.59375 33.5 
Q 12.59375 27.9375 12.859375 23 
Q 13.140625 18.0625 14.3125 12.8125 
Q 15.484375 7.5625 18.09375 3.96875 
Q 20.703125 0.390625 25 0.390625 
z
" id="Cmr10-30"/>
    </defs>
    <g transform="translate(168.683957 15.217286)scale(0.1 -0.1)">
     <use transform="translate(0 0.6875)" xlink:href="#Cmmi10-44"/>
     <use transform="translate(82.714844 -16.31875)scale(0.7)" xlink:href="#Cmmi10-72"/>
     <use transform="translate(138.232812 0.6875)" xlink:href="#Cmr10-3d"/>
     <use transform="translate(233.476953 0.6875)" xlink:href="#Cmr10-31"/>
     <use transform="translate(283.476953 0.6875)" xlink:href="#Cmmi10-65"/>
     <use transform="translate(347.519922 0.6875)" xlink:href="#Cmr10-2b"/>
     <use transform="translate(442.764063 0.6875)" xlink:href="#Cmr10-30"/>
     <use transform="translate(492.764063 0.6875)" xlink:href="#Cmr10-30"/>
    </g>
   </g>
  </g>
 </g>
 <defs>
  <clipPath id="p1a91110fe0">
   <rect height="225.254288" width="370.267913" x="10.7" y="32.48"/>
  </clipPath>
 </defs>
</svg>
