<?xml version="1.0" encoding="utf-8" standalone="no"?>
<!DOCTYPE svg PUBLIC "-//W3C//DTD SVG 1.1//EN"
  "http://www.w3.org/Graphics/SVG/1.1/DTD/svg11.dtd">
<!-- Created with matplotlib (http://matplotlib.org/) -->
<svg height="576pt" version="1.1" viewBox="0 0 864 576" width="864pt" xmlns="http://www.w3.org/2000/svg" xmlns:xlink="http://www.w3.org/1999/xlink">
 <defs>
  <style type="text/css">
*{stroke-linecap:butt;stroke-linejoin:round;stroke-miterlimit:100000;}
  </style>
 </defs>
 <g id="figure_1">
  <g id="patch_1">
   <path d="M 0 576 
L 864 576 
L 864 0 
L 0 0 
z
" style="fill:#ffffff;"/>
  </g>
  <g id="axes_1">
   <g id="patch_2">
    <path d="M 108 518.4 
L 777.6 518.4 
L 777.6 57.6 
L 108 57.6 
z
" style="fill:#ffffff;"/>
   </g>
   <g id="line2d_1">
    <path clip-path="url(#p0db1e986b5)" d="M 108 511.803977 
L 114.696 498.414446 
L 121.392 486.749623 
L 128.088 473.926217 
L 134.784 460.549851 
L 141.48 447.831771 
L 148.176 437.246537 
L 154.872 424.76544 
L 161.568 413.732571 
L 168.264 405.793646 
L 174.96 395.326903 
L 181.656 389.349669 
L 188.352 382.148023 
L 195.048 372.431726 
L 201.744 364.255817 
L 208.44 361.017051 
L 215.136 352.946469 
L 221.832 348.54912 
L 228.528 346.508434 
L 235.224 345.349851 
L 241.92 342.585051 
L 248.616 340.281051 
L 255.312 338.766994 
L 262.008 339.464777 
L 268.704 341.413303 
L 275.4 340.597029 
L 282.096 342.427063 
L 288.792 349.56288 
L 295.488 347.746011 
L 302.184 353.196617 
L 308.88 358.59456 
L 315.576 360.701074 
L 322.272 367.876389 
L 328.968 371.707611 
L 335.664 373.958949 
L 342.36 384.95232 
L 349.056 388.072594 
L 355.752 396.959451 
L 362.448 401.251474 
L 369.144 407.057554 
L 375.84 412.863634 
L 382.536 417.76128 
L 389.232 424.12032 
L 395.928 429.531429 
L 402.624 436.93056 
L 409.32 440.748617 
L 416.016 446.120229 
L 422.712 452.294949 
L 429.408 457.5744 
L 436.104 459.891566 
L 442.8 466.908891 
L 449.496 470.10816 
L 456.192 475.032137 
L 462.888 477.507291 
L 469.584 481.707154 
L 476.28 485.182903 
L 482.976 487.750217 
L 489.672 490.804663 
L 496.368 494.583223 
L 503.064 497.361189 
L 509.76 499.059566 
L 516.456 500.349806 
L 523.152 502.377326 
L 529.848 504.839314 
L 536.544 507.15648 
L 543.24 506.853669 
L 549.936 508.828526 
L 556.632 510.737554 
L 563.328 511.382674 
L 570.024 512.356937 
L 576.72 513.541851 
L 583.416 513.963154 
L 590.112 514.555611 
L 596.808 514.950583 
L 603.504 516.056503 
L 610.2 516.543634 
L 616.896 516.609463 
L 623.592 516.991269 
L 630.288 517.20192 
L 636.984 517.412571 
L 643.68 517.610057 
L 650.376 517.75488 
L 657.072 517.768046 
L 663.768 518.189349 
L 670.464 518.12352 
L 677.16 518.21568 
L 683.856 518.268343 
L 690.552 518.294674 
L 697.248 518.228846 
L 703.944 518.347337 
L 710.64 518.360503 
L 717.336 518.4 
L 724.032 518.4 
L 730.728 518.360503 
L 737.424 518.4 
L 744.12 518.4 
L 750.816 518.4 
L 757.512 518.4 
L 764.208 518.4 
L 770.904 518.4 
" style="fill:none;stroke:#d60000;stroke-linecap:square;"/>
   </g>
   <g id="line2d_2">
    <path clip-path="url(#p0db1e986b5)" d="M 108 515.54304 
L 114.696 508.802194 
L 121.392 502.035017 
L 128.088 495.807634 
L 134.784 490.449189 
L 141.48 484.169143 
L 148.176 477.322971 
L 154.872 471.556389 
L 161.568 465.947794 
L 168.264 457.719223 
L 174.96 452.755749 
L 181.656 446.475703 
L 188.352 441.736046 
L 195.048 437.220206 
L 201.744 433.178331 
L 208.44 426.806126 
L 215.136 421.013211 
L 221.832 419.630811 
L 228.528 412.824137 
L 235.224 410.269989 
L 241.92 404.595566 
L 248.616 402.976183 
L 255.312 399.934903 
L 262.008 397.420251 
L 268.704 392.088137 
L 275.4 390.455589 
L 282.096 386.716526 
L 288.792 388.17792 
L 295.488 386.716526 
L 302.184 386.782354 
L 308.88 385.557943 
L 315.576 386.295223 
L 322.272 387.9936 
L 328.968 384.083383 
L 335.664 384.373029 
L 342.36 383.793737 
L 349.056 382.503497 
L 355.752 387.677623 
L 362.448 386.927177 
L 369.144 390.679406 
L 375.84 390.85056 
L 382.536 393.101897 
L 389.232 395.010926 
L 395.928 395.208411 
L 402.624 398.1312 
L 409.32 401.988754 
L 416.016 407.334034 
L 422.712 408.676937 
L 429.408 411.705051 
L 436.104 415.812754 
L 442.8 419.525486 
L 449.496 418.511726 
L 456.192 423.738514 
L 462.888 429.412937 
L 469.584 432.032914 
L 476.28 435.469166 
L 482.976 437.85216 
L 489.672 439.23456 
L 496.368 443.19744 
L 503.064 447.120823 
L 509.76 453.888 
L 516.456 457.653394 
L 523.152 458.574994 
L 529.848 464.144091 
L 536.544 465.947794 
L 543.24 468.989074 
L 549.936 472.635977 
L 556.632 476.506697 
L 563.328 477.770606 
L 570.024 480.206263 
L 576.72 485.13024 
L 583.416 487.0656 
L 590.112 489.606583 
L 596.808 492.397714 
L 603.504 496.795063 
L 610.2 497.84832 
L 616.896 500.139154 
L 623.592 502.166674 
L 630.288 504.194194 
L 636.984 506.195383 
L 643.68 507.70944 
L 650.376 509.131337 
L 657.072 510.408411 
L 663.768 511.488 
L 670.464 512.646583 
L 677.16 513.778834 
L 683.856 514.753097 
L 690.552 515.701029 
L 697.248 515.938011 
L 703.944 516.83328 
L 710.64 516.754286 
L 717.336 517.623223 
L 724.032 517.610057 
L 730.728 518.018194 
L 737.424 518.163017 
L 744.12 518.255177 
L 750.816 518.347337 
L 757.512 518.4 
L 764.208 518.4 
L 770.904 518.4 
" style="fill:none;stroke:#ff3b00;stroke-linecap:square;"/>
   </g>
   <g id="line2d_3">
    <path clip-path="url(#p0db1e986b5)" d="M 108 515.885349 
L 114.696 511.566994 
L 121.392 505.77408 
L 128.088 501.3504 
L 134.784 496.149943 
L 141.48 492.437211 
L 148.176 486.565303 
L 154.872 482.576091 
L 161.568 478.902857 
L 168.264 473.597074 
L 174.96 469.054903 
L 181.656 464.552229 
L 188.352 459.470263 
L 195.048 456.205166 
L 201.744 452.755749 
L 208.44 447.858103 
L 215.136 445.185463 
L 221.832 442.565486 
L 228.528 437.457189 
L 235.224 435.943131 
L 241.92 432.177737 
L 248.616 429.083794 
L 255.312 426.371657 
L 262.008 422.895909 
L 268.704 421.579337 
L 275.4 419.170011 
L 282.096 415.773257 
L 288.792 411.560229 
L 295.488 409.085074 
L 302.184 408.887589 
L 308.88 406.05696 
L 315.576 402.778697 
L 322.272 403.2 
L 328.968 399.88224 
L 335.664 400.606354 
L 342.36 401.751771 
L 349.056 397.512411 
L 355.752 396.393326 
L 362.448 396.459154 
L 369.144 397.644069 
L 375.84 394.760777 
L 382.536 398.526171 
L 389.232 397.973211 
L 395.928 398.631497 
L 402.624 399.355611 
L 409.32 399.803246 
L 416.016 400.738011 
L 422.712 400.98816 
L 429.408 403.397486 
L 436.104 406.925897 
L 442.8 406.346606 
L 449.496 410.717623 
L 456.192 408.848091 
L 462.888 412.8768 
L 469.584 414.061714 
L 476.28 418.248411 
L 482.976 420.631406 
L 489.672 421.90848 
L 496.368 425.831863 
L 503.064 428.122697 
L 509.76 430.189714 
L 516.456 433.783954 
L 523.152 437.615177 
L 529.848 440.5248 
L 536.544 442.934126 
L 543.24 444.829989 
L 549.936 450.214766 
L 556.632 452.768914 
L 563.328 457.653394 
L 570.024 458.245851 
L 576.72 462.73536 
L 583.416 467.172206 
L 590.112 469.515703 
L 596.808 473.373257 
L 603.504 476.151223 
L 610.2 480.140434 
L 616.896 483.510857 
L 623.592 486.341486 
L 630.288 489.09312 
L 636.984 491.778926 
L 643.68 494.398903 
L 650.376 496.294766 
L 657.072 499.059566 
L 663.768 501.53472 
L 670.464 502.82496 
L 677.16 504.94464 
L 683.856 506.366537 
L 690.552 508.565211 
L 697.248 509.947611 
L 703.944 511.896137 
L 710.64 513.344366 
L 717.336 514.937417 
L 724.032 515.582537 
L 730.728 516.964937 
L 737.424 517.399406 
L 744.12 517.75488 
L 750.816 518.21568 
L 757.512 518.334171 
L 764.208 518.386834 
L 770.904 518.4 
" style="fill:none;stroke:#ff8600;stroke-linecap:square;"/>
   </g>
   <g id="line2d_4">
    <path clip-path="url(#p0db1e986b5)" d="M 108 516.951771 
L 114.696 513.910491 
L 121.392 510.461074 
L 128.088 506.932663 
L 134.784 504.786651 
L 141.48 501.71904 
L 148.176 497.729829 
L 154.872 495.096686 
L 161.568 493.490469 
L 168.264 490.10688 
L 174.96 486.69696 
L 181.656 482.325943 
L 188.352 480.838217 
L 195.048 477.638949 
L 201.744 475.17696 
L 208.44 472.714971 
L 215.136 468.580937 
L 221.832 464.736549 
L 228.528 464.104594 
L 235.224 459.588754 
L 241.92 457.429577 
L 248.616 455.165074 
L 255.312 452.716251 
L 262.008 449.674971 
L 268.704 447.107657 
L 275.4 443.882057 
L 282.096 442.697143 
L 288.792 440.906606 
L 295.488 438.668434 
L 302.184 436.153783 
L 308.88 433.968274 
L 315.576 431.67744 
L 322.272 428.333349 
L 328.968 426.88512 
L 335.664 425.423726 
L 342.36 425.700206 
L 349.056 420.52608 
L 355.752 419.354331 
L 362.448 415.904914 
L 369.144 414.706834 
L 375.84 414.2592 
L 382.536 412.50816 
L 389.232 413.508754 
L 395.928 408.900754 
L 402.624 407.952823 
L 409.32 406.97856 
L 416.016 405.9648 
L 422.712 405.464503 
L 429.408 406.491429 
L 436.104 403.963611 
L 442.8 404.832549 
L 449.496 402.884023 
L 456.192 402.515383 
L 462.888 402.146743 
L 469.584 403.594971 
L 476.28 404.569234 
L 482.976 404.635063 
L 489.672 406.05696 
L 496.368 407.71584 
L 503.064 406.636251 
L 509.76 406.675749 
L 516.456 408.755931 
L 523.152 410.520137 
L 529.848 412.810971 
L 536.544 414.562011 
L 543.24 417.432137 
L 549.936 418.946194 
L 556.632 423.067063 
L 563.328 424.567954 
L 570.024 427.359086 
L 576.72 431.7696 
L 583.416 435.758811 
L 590.112 439.379383 
L 596.808 443.684571 
L 603.504 447.199817 
L 610.2 451.412846 
L 616.896 454.019657 
L 623.592 458.21952 
L 630.288 461.44512 
L 636.984 466.013623 
L 643.68 467.843657 
L 650.376 474.110537 
L 657.072 477.520457 
L 663.768 480.087771 
L 670.464 484.129646 
L 677.16 488.35584 
L 683.856 491.963246 
L 690.552 494.872869 
L 697.248 499.32288 
L 703.944 501.613714 
L 710.64 505.550263 
L 717.336 508.433554 
L 724.032 510.645394 
L 730.728 513.199543 
L 737.424 515.042743 
L 744.12 516.675291 
L 750.816 517.438903 
L 757.512 517.991863 
L 764.208 518.294674 
L 770.904 518.4 
" style="fill:none;stroke:#ffcc00;stroke-linecap:square;"/>
   </g>
   <g id="line2d_5">
    <path clip-path="url(#p0db1e986b5)" d="M 108 517.136091 
L 114.696 515.213897 
L 121.392 512.59392 
L 128.088 510.184594 
L 134.784 508.025417 
L 141.48 505.418606 
L 148.176 503.891383 
L 154.872 501.192411 
L 161.568 498.927909 
L 168.264 495.91296 
L 174.96 493.582629 
L 181.656 491.686766 
L 188.352 489.237943 
L 195.048 486.78912 
L 201.744 484.94592 
L 208.44 480.456411 
L 215.136 480.98304 
L 221.832 477.559954 
L 228.528 476.19072 
L 235.224 472.886126 
L 241.92 470.75328 
L 248.616 468.54144 
L 255.312 464.907703 
L 262.008 463.867611 
L 268.704 459.549257 
L 275.4 456.771291 
L 282.096 453.782674 
L 288.792 452.452937 
L 295.488 447.765943 
L 302.184 447.133989 
L 308.88 445.053806 
L 315.576 442.868297 
L 322.272 442.18368 
L 328.968 437.996983 
L 335.664 434.152594 
L 342.36 432.612206 
L 349.056 430.558354 
L 355.752 428.017371 
L 362.448 426.950949 
L 369.144 425.673874 
L 375.84 423.251383 
L 382.536 419.69664 
L 389.232 419.222674 
L 395.928 415.325623 
L 402.624 414.522514 
L 409.32 414.193371 
L 416.016 412.96896 
L 422.712 411.547063 
L 429.408 409.954011 
L 436.104 409.440549 
L 442.8 406.912731 
L 449.496 404.595566 
L 456.192 403.805623 
L 462.888 404.30592 
L 469.584 404.095269 
L 476.28 403.252663 
L 482.976 402.976183 
L 489.672 401.146149 
L 496.368 404.02944 
L 503.064 402.357394 
L 509.76 402.265234 
L 516.456 403.647634 
L 523.152 402.383726 
L 529.848 405.556663 
L 536.544 405.609326 
L 543.24 406.636251 
L 549.936 409.071909 
L 556.632 411.942034 
L 563.328 410.743954 
L 570.024 413.719406 
L 576.72 415.154469 
L 583.416 419.42016 
L 590.112 423.396206 
L 596.808 424.739109 
L 603.504 429.044297 
L 610.2 432.743863 
L 616.896 435.653486 
L 623.592 440.511634 
L 630.288 444.685166 
L 636.984 449.411657 
L 643.68 454.217143 
L 650.376 458.390674 
L 657.072 462.432549 
L 663.768 467.211703 
L 670.464 469.884343 
L 677.16 474.966309 
L 683.856 478.099749 
L 690.552 482.799909 
L 697.248 489.567086 
L 703.944 493.780114 
L 710.64 498.835749 
L 717.336 502.153509 
L 724.032 507.037989 
L 730.728 509.894949 
L 737.424 512.936229 
L 744.12 515.069074 
L 750.816 516.951771 
L 757.512 517.873371 
L 764.208 518.294674 
L 770.904 518.4 
" style="fill:none;stroke:#dbff1c;stroke-linecap:square;"/>
   </g>
   <g id="line2d_6">
    <path clip-path="url(#p0db1e986b5)" d="M 108 517.280914 
L 114.696 515.398217 
L 121.392 512.633417 
L 128.088 511.527497 
L 134.784 509.078674 
L 141.48 506.590354 
L 148.176 504.931474 
L 154.872 502.324663 
L 161.568 501.152914 
L 168.264 498.598766 
L 174.96 495.978789 
L 181.656 494.701714 
L 188.352 492.924343 
L 195.048 490.304366 
L 201.744 488.763977 
L 208.44 486.552137 
L 215.136 485.40672 
L 221.832 482.615589 
L 228.528 480.206263 
L 235.224 477.257143 
L 241.92 475.716754 
L 248.616 473.597074 
L 255.312 471.635383 
L 262.008 467.448686 
L 268.704 466.158446 
L 275.4 464.460069 
L 282.096 460.681509 
L 288.792 459.193783 
L 295.488 457.534903 
L 302.184 457.29792 
L 308.88 452.729417 
L 315.576 450.346423 
L 322.272 447.739611 
L 328.968 446.976 
L 335.664 443.223771 
L 342.36 442.038857 
L 349.056 439.906011 
L 355.752 436.206446 
L 362.448 435.377006 
L 369.144 433.415314 
L 375.84 431.269303 
L 382.536 427.043109 
L 389.232 426.582309 
L 395.928 424.528457 
L 402.624 421.250194 
L 409.32 417.774446 
L 416.016 417.9456 
L 422.712 415.062309 
L 429.408 412.218514 
L 436.104 409.401051 
L 442.8 409.55904 
L 449.496 408.308297 
L 456.192 405.490834 
L 462.888 404.516571 
L 469.584 402.568046 
L 476.28 399.671589 
L 482.976 402.963017 
L 489.672 398.262857 
L 496.368 399.895406 
L 503.064 398.842149 
L 509.76 397.091109 
L 516.456 398.183863 
L 523.152 398.1312 
L 529.848 398.289189 
L 536.544 398.881646 
L 543.24 401.014491 
L 549.936 401.72544 
L 556.632 403.134171 
L 563.328 403.410651 
L 570.024 406.372937 
L 576.72 406.728411 
L 583.416 408.769097 
L 590.112 415.404617 
L 596.808 418.380069 
L 603.504 420.420754 
L 610.2 424.278309 
L 616.896 430.400366 
L 623.592 433.24416 
L 630.288 434.876709 
L 636.984 439.576869 
L 643.68 443.684571 
L 650.376 447.976594 
L 657.072 452.558263 
L 663.768 455.428389 
L 670.464 461.023817 
L 677.16 466.540251 
L 683.856 472.04352 
L 690.552 477.29664 
L 697.248 483.155383 
L 703.944 488.619154 
L 710.64 493.845943 
L 717.336 499.099063 
L 724.032 503.6544 
L 730.728 508.025417 
L 737.424 511.790811 
L 744.12 514.516114 
L 750.816 516.398811 
L 757.512 517.544229 
L 764.208 518.202514 
L 770.904 518.360503 
" style="fill:none;stroke:#9aff5d;stroke-linecap:square;"/>
   </g>
   <g id="line2d_7">
    <path clip-path="url(#p0db1e986b5)" d="M 108 517.702217 
L 114.696 515.648366 
L 121.392 514.16064 
L 128.088 512.883566 
L 134.784 510.553234 
L 141.48 508.868023 
L 148.176 507.288137 
L 154.872 505.352777 
L 161.568 503.772891 
L 168.264 501.337234 
L 174.96 500.297143 
L 181.656 498.322286 
L 188.352 496.7424 
L 195.048 495.123017 
L 201.744 492.661029 
L 208.44 491.660434 
L 215.136 488.619154 
L 221.832 486.499474 
L 228.528 484.037486 
L 235.224 484.39296 
L 241.92 481.891474 
L 248.616 479.403154 
L 255.312 475.585097 
L 262.008 474.466011 
L 268.704 473.649737 
L 275.4 471.424731 
L 282.096 469.384046 
L 288.792 467.172206 
L 295.488 464.433737 
L 302.184 462.221897 
L 308.88 458.574994 
L 315.576 456.771291 
L 322.272 453.901166 
L 328.968 453.914331 
L 335.664 451.67616 
L 342.36 447.581623 
L 349.056 447.8976 
L 355.752 443.868891 
L 362.448 440.959269 
L 369.144 436.496091 
L 375.84 437.378194 
L 382.536 436.048457 
L 389.232 431.361463 
L 395.928 428.45184 
L 402.624 427.6224 
L 409.32 423.159223 
L 416.016 423.0144 
L 422.712 417.234651 
L 429.408 417.260983 
L 436.104 413.574583 
L 442.8 412.8768 
L 449.496 411.797211 
L 456.192 405.451337 
L 462.888 403.463314 
L 469.584 403.56864 
L 476.28 401.975589 
L 482.976 402.159909 
L 489.672 398.828983 
L 496.368 399.026469 
L 503.064 398.091703 
L 509.76 399.276617 
L 516.456 397.051611 
L 523.152 394.760777 
L 529.848 394.866103 
L 536.544 395.471726 
L 543.24 395.669211 
L 549.936 394.866103 
L 556.632 398.894811 
L 563.328 400.645851 
L 570.024 402.291566 
L 576.72 400.461531 
L 583.416 403.331657 
L 590.112 404.503406 
L 596.808 408.979749 
L 603.504 413.140114 
L 610.2 412.165851 
L 616.896 417.550629 
L 623.592 422.698423 
L 630.288 426.634971 
L 636.984 427.661897 
L 643.68 433.283657 
L 650.376 437.470354 
L 657.072 443.223771 
L 663.768 446.844343 
L 670.464 451.610331 
L 677.16 456.56064 
L 683.856 461.99808 
L 690.552 469.133897 
L 697.248 475.032137 
L 703.944 480.272091 
L 710.64 487.61856 
L 717.336 491.739429 
L 724.032 498.611931 
L 730.728 503.641234 
L 737.424 508.670537 
L 744.12 511.882971 
L 750.816 515.503543 
L 757.512 517.096594 
L 764.208 518.136686 
L 770.904 518.347337 
" style="fill:none;stroke:#5dff9a;stroke-linecap:square;"/>
   </g>
   <g id="line2d_8">
    <path clip-path="url(#p0db1e986b5)" d="M 108 517.636389 
L 114.696 516.201326 
L 121.392 514.976914 
L 128.088 513.3312 
L 134.784 512.356937 
L 141.48 509.697463 
L 148.176 509.105006 
L 154.872 507.854263 
L 161.568 505.576594 
L 168.264 504.220526 
L 174.96 503.614903 
L 181.656 501.705874 
L 188.352 499.78368 
L 195.048 498.480274 
L 201.744 497.282194 
L 208.44 494.109257 
L 215.136 494.096091 
L 221.832 491.239131 
L 228.528 489.698743 
L 235.224 487.500069 
L 241.92 486.367817 
L 248.616 483.366034 
L 255.312 481.667657 
L 262.008 478.942354 
L 268.704 475.558766 
L 275.4 475.716754 
L 282.096 473.504914 
L 288.792 471.240411 
L 295.488 470.305646 
L 302.184 465.96096 
L 308.88 463.880777 
L 315.576 462.524709 
L 322.272 462.669531 
L 328.968 460.681509 
L 335.664 458.153691 
L 342.36 454.019657 
L 349.056 452.057966 
L 355.752 450.083109 
L 362.448 446.778514 
L 369.144 444.593006 
L 375.84 441.433234 
L 382.536 439.445211 
L 389.232 438.352457 
L 395.928 435.785143 
L 402.624 435.140023 
L 409.32 428.622994 
L 416.016 427.464411 
L 422.712 425.04192 
L 429.408 424.541623 
L 436.104 421.368686 
L 442.8 417.590126 
L 449.496 416.062903 
L 456.192 415.720594 
L 462.888 411.67872 
L 469.584 407.307703 
L 476.28 405.925303 
L 482.976 405.41184 
L 489.672 401.514789 
L 496.368 401.606949 
L 503.064 400.553691 
L 509.76 401.119817 
L 516.456 398.68416 
L 523.152 399.539931 
L 529.848 396.47232 
L 536.544 395.063589 
L 543.24 396.248503 
L 549.936 395.590217 
L 556.632 396.130011 
L 563.328 396.130011 
L 570.024 394.234149 
L 576.72 394.892434 
L 583.416 394.655451 
L 590.112 395.656046 
L 596.808 398.513006 
L 603.504 400.382537 
L 610.2 403.29216 
L 616.896 404.793051 
L 623.592 407.768503 
L 630.288 410.783451 
L 636.984 414.180206 
L 643.68 417.221486 
L 650.376 422.013806 
L 657.072 427.122103 
L 663.768 433.941943 
L 670.464 438.115474 
L 677.16 443.684571 
L 683.856 451.070537 
L 690.552 456.586971 
L 697.248 465.50016 
L 703.944 471.056091 
L 710.64 478.692206 
L 717.336 486.631131 
L 724.032 495.425829 
L 730.728 500.70528 
L 737.424 507.748937 
L 744.12 511.606491 
L 750.816 515.134903 
L 757.512 517.149257 
L 764.208 518.136686 
L 770.904 518.360503 
" style="fill:none;stroke:#1cffdb;stroke-linecap:square;"/>
   </g>
   <g id="line2d_9">
    <path clip-path="url(#p0db1e986b5)" d="M 108 517.623223 
L 114.696 516.425143 
L 121.392 515.306057 
L 128.088 513.673509 
L 134.784 512.159451 
L 141.48 510.790217 
L 148.176 509.947611 
L 154.872 508.920686 
L 161.568 507.406629 
L 168.264 506.116389 
L 174.96 504.233691 
L 181.656 503.772891 
L 188.352 501.561051 
L 195.048 500.402469 
L 201.744 499.652023 
L 208.44 496.386926 
L 215.136 495.978789 
L 221.832 494.359406 
L 228.528 493.595794 
L 235.224 491.462949 
L 241.92 489.079954 
L 248.616 487.473737 
L 255.312 486.683794 
L 262.008 486.446811 
L 268.704 483.366034 
L 275.4 481.575497 
L 282.096 479.758629 
L 288.792 478.692206 
L 295.488 476.967497 
L 302.184 475.005806 
L 308.88 473.97888 
L 315.576 470.318811 
L 322.272 469.884343 
L 328.968 468.304457 
L 335.664 465.118354 
L 342.36 462.406217 
L 349.056 461.142309 
L 355.752 459.759909 
L 362.448 457.39008 
L 369.144 452.624091 
L 375.84 450.886217 
L 382.536 447.871269 
L 389.232 445.027474 
L 395.928 441.604389 
L 402.624 439.247726 
L 409.32 438.260297 
L 416.016 435.811474 
L 422.712 434.297417 
L 429.408 432.006583 
L 436.104 427.398583 
L 442.8 424.172983 
L 449.496 422.211291 
L 456.192 421.131703 
L 462.888 417.234651 
L 469.584 416.918674 
L 476.28 412.481829 
L 482.976 409.295726 
L 489.672 408.834926 
L 496.368 404.687726 
L 503.064 404.753554 
L 509.76 401.369966 
L 516.456 399.816411 
L 523.152 398.855314 
L 529.848 394.392137 
L 536.544 389.718309 
L 543.24 390.126446 
L 549.936 389.060023 
L 556.632 387.927771 
L 563.328 386.110903 
L 570.024 388.019931 
L 576.72 385.531611 
L 583.416 383.793737 
L 590.112 387.322149 
L 596.808 383.991223 
L 603.504 389.863131 
L 610.2 392.588434 
L 616.896 393.720686 
L 623.592 396.327497 
L 630.288 400.580023 
L 636.984 402.159909 
L 643.68 404.648229 
L 650.376 409.09824 
L 657.072 412.718811 
L 663.768 420.420754 
L 670.464 423.501531 
L 677.16 429.663086 
L 683.856 436.456594 
L 690.552 446.0544 
L 697.248 454.151314 
L 703.944 462.709029 
L 710.64 470.555794 
L 717.336 480.52224 
L 724.032 488.118857 
L 730.728 496.860891 
L 737.424 503.601737 
L 744.12 509.710629 
L 750.816 514.134309 
L 757.512 516.635794 
L 764.208 518.018194 
L 770.904 518.4 
" style="fill:none;stroke:#00b8ff;stroke-linecap:square;"/>
   </g>
   <g id="line2d_10">
    <path clip-path="url(#p0db1e986b5)" d="M 108 518.044526 
L 114.696 517.20192 
L 121.392 516.5568 
L 128.088 515.832686 
L 134.784 514.792594 
L 141.48 513.963154 
L 148.176 512.751909 
L 154.872 512.343771 
L 161.568 511.356343 
L 168.264 510.276754 
L 174.96 509.55264 
L 181.656 508.644206 
L 188.352 507.209143 
L 195.048 506.51136 
L 201.744 505.853074 
L 208.44 504.220526 
L 215.136 503.588571 
L 221.832 502.324663 
L 228.528 501.087086 
L 235.224 500.218149 
L 241.92 498.967406 
L 248.616 498.256457 
L 255.312 496.729234 
L 262.008 495.662811 
L 268.704 494.583223 
L 275.4 492.476709 
L 282.096 492.305554 
L 288.792 491.186469 
L 295.488 489.027291 
L 302.184 487.61856 
L 308.88 485.722697 
L 315.576 486.222994 
L 322.272 481.220023 
L 328.968 481.680823 
L 335.664 480.048274 
L 342.36 476.506697 
L 349.056 474.229029 
L 355.752 473.834057 
L 362.448 472.7808 
L 369.144 468.646766 
L 375.84 466.566583 
L 382.536 465.289509 
L 389.232 462.129737 
L 395.928 460.115383 
L 402.624 457.495406 
L 409.32 455.889189 
L 416.016 452.242286 
L 422.712 447.449966 
L 429.408 445.843749 
L 436.104 443.223771 
L 442.8 441.196251 
L 449.496 436.219611 
L 456.192 435.429669 
L 462.888 430.268709 
L 469.584 425.937189 
L 476.28 425.515886 
L 482.976 420.354926 
L 489.672 416.444709 
L 496.368 411.994697 
L 503.064 410.269989 
L 509.76 406.846903 
L 516.456 402.620709 
L 523.152 401.225143 
L 529.848 396.590811 
L 536.544 391.916983 
L 543.24 390.903223 
L 549.936 387.295817 
L 556.632 385.215634 
L 563.328 381.200091 
L 570.024 378.632777 
L 576.72 374.643566 
L 583.416 372.734537 
L 590.112 370.20672 
L 596.808 369.311451 
L 603.504 369.587931 
L 610.2 370.351543 
L 616.896 369.403611 
L 623.592 368.508343 
L 630.288 369.416777 
L 636.984 374.235429 
L 643.68 373.024183 
L 650.376 377.434697 
L 657.072 382.608823 
L 663.768 385.518446 
L 670.464 392.404114 
L 677.16 398.894811 
L 683.856 405.332846 
L 690.552 413.416594 
L 697.248 422.974903 
L 703.944 434.178926 
L 710.64 445.96224 
L 717.336 458.496 
L 724.032 471.464229 
L 730.728 484.050651 
L 737.424 494.80704 
L 744.12 504.02304 
L 750.816 510.619063 
L 757.512 515.213897 
L 764.208 517.610057 
L 770.904 518.347337 
" style="fill:none;stroke:#006cff;stroke-linecap:square;"/>
   </g>
   <g id="line2d_11">
    <path clip-path="url(#p0db1e986b5)" d="M 108 518.347337 
L 114.696 518.21568 
L 121.392 518.057691 
L 128.088 517.873371 
L 134.784 517.899703 
L 141.48 517.4784 
L 148.176 517.425737 
L 154.872 517.346743 
L 161.568 517.175589 
L 168.264 516.991269 
L 174.96 516.806949 
L 181.656 516.912274 
L 188.352 516.688457 
L 195.048 516.306651 
L 201.744 516.267154 
L 208.44 515.780023 
L 215.136 515.398217 
L 221.832 515.411383 
L 228.528 515.385051 
L 235.224 514.674103 
L 241.92 514.358126 
L 248.616 514.2528 
L 255.312 513.831497 
L 262.008 513.410194 
L 268.704 512.896731 
L 275.4 512.751909 
L 282.096 512.198949 
L 288.792 511.527497 
L 295.488 511.698651 
L 302.184 510.961371 
L 308.88 510.540069 
L 315.576 510.210926 
L 322.272 508.90752 
L 328.968 508.802194 
L 335.664 507.722606 
L 342.36 507.459291 
L 349.056 505.721417 
L 355.752 505.458103 
L 362.448 503.74656 
L 369.144 502.903954 
L 375.84 502.285166 
L 382.536 499.678354 
L 389.232 497.861486 
L 395.928 497.47968 
L 402.624 494.886034 
L 409.32 493.766949 
L 416.016 491.160137 
L 422.712 488.737646 
L 429.408 487.052434 
L 436.104 486.341486 
L 442.8 483.866331 
L 449.496 481.16736 
L 456.192 478.349897 
L 462.888 473.202103 
L 469.584 472.148846 
L 476.28 469.226057 
L 482.976 465.579154 
L 489.672 462.314057 
L 496.368 459.615086 
L 503.064 455.810194 
L 509.76 449.674971 
L 516.456 444.237531 
L 523.152 437.509851 
L 529.848 434.113097 
L 536.544 427.174766 
L 543.24 420.591909 
L 549.936 415.852251 
L 556.632 408.755931 
L 563.328 399.750583 
L 570.024 392.799086 
L 576.72 383.780571 
L 583.416 377.711177 
L 590.112 369.614263 
L 596.808 359.397669 
L 603.504 348.851931 
L 610.2 344.151771 
L 616.896 336.226011 
L 623.592 325.917257 
L 630.288 317.978331 
L 636.984 311.77728 
L 643.68 299.664823 
L 650.376 296.465554 
L 657.072 290.080183 
L 663.768 285.709166 
L 670.464 284.076617 
L 677.16 282.83904 
L 683.856 288.55296 
L 690.552 292.33152 
L 697.248 304.628297 
L 703.944 316.872411 
L 710.64 337.463589 
L 717.336 359.094857 
L 724.032 385.307794 
L 730.728 410.994103 
L 737.424 441.380571 
L 744.12 468.304457 
L 750.816 489.751406 
L 757.512 507.24864 
L 764.208 515.898514 
L 770.904 518.281509 
" style="fill:none;stroke:#001cff;stroke-linecap:square;"/>
   </g>
   <g id="line2d_12">
    <path clip-path="url(#p0db1e986b5)" d="M 108 518.4 
L 114.696 518.4 
L 121.392 518.4 
L 128.088 518.4 
L 134.784 518.347337 
L 141.48 518.386834 
L 148.176 518.386834 
L 154.872 518.386834 
L 161.568 518.373669 
L 168.264 518.360503 
L 174.96 518.30784 
L 181.656 518.347337 
L 188.352 518.334171 
L 195.048 518.21568 
L 201.744 518.321006 
L 208.44 518.255177 
L 215.136 518.294674 
L 221.832 518.228846 
L 228.528 518.189349 
L 235.224 518.12352 
L 241.92 518.242011 
L 248.616 518.044526 
L 255.312 518.228846 
L 262.008 518.136686 
L 268.704 518.149851 
L 275.4 518.057691 
L 282.096 518.070857 
L 288.792 518.12352 
L 295.488 517.965531 
L 302.184 518.12352 
L 308.88 518.097189 
L 315.576 517.860206 
L 322.272 517.886537 
L 328.968 517.952366 
L 335.664 517.741714 
L 342.36 517.491566 
L 349.056 517.636389 
L 355.752 517.583726 
L 362.448 517.517897 
L 369.144 517.320411 
L 375.84 517.399406 
L 382.536 517.030766 
L 389.232 516.780617 
L 395.928 516.385646 
L 402.624 516.46464 
L 409.32 516.00384 
L 416.016 515.674697 
L 422.712 515.398217 
L 429.408 514.89792 
L 436.104 514.384457 
L 442.8 514.450286 
L 449.496 513.528686 
L 456.192 512.396434 
L 462.888 512.672914 
L 469.584 511.606491 
L 476.28 510.961371 
L 482.976 510.28992 
L 489.672 509.026011 
L 496.368 507.999086 
L 503.064 505.655589 
L 509.76 504.918309 
L 516.456 502.772297 
L 523.152 500.297143 
L 529.848 497.361189 
L 536.544 494.201417 
L 543.24 491.410286 
L 549.936 486.670629 
L 556.632 481.141029 
L 563.328 475.980069 
L 570.024 470.555794 
L 576.72 463.630629 
L 583.416 455.718034 
L 590.112 447.910766 
L 596.808 436.693577 
L 603.504 426.33216 
L 610.2 417.20832 
L 616.896 400.98816 
L 623.592 386.440046 
L 630.288 368.08704 
L 636.984 349.457554 
L 643.68 326.759863 
L 650.376 300.415269 
L 657.072 278.059886 
L 663.768 249.253303 
L 670.464 222.869211 
L 677.16 193.667657 
L 683.856 163.531337 
L 690.552 137.186743 
L 697.248 121.796023 
L 703.944 110.31552 
L 710.64 111.60576 
L 717.336 125.495589 
L 724.032 158.923337 
L 730.728 202.896823 
L 737.424 266.052754 
L 744.12 337.555749 
L 750.816 407.360366 
L 757.512 468.81792 
L 764.208 505.431771 
L 770.904 517.675886 
" style="fill:none;stroke:#0000d6;stroke-linecap:square;"/>
   </g>
   <g id="line2d_13">
    <path clip-path="url(#p0db1e986b5)" d="M 257.727112 518.4 
L 257.727112 57.6 
" style="fill:none;stroke:#000000;stroke-dasharray:6.000000,6.000000;stroke-dashoffset:0.0;stroke-width:4.0;"/>
   </g>
   <g id="patch_3">
    <path d="M 108 518.4 
L 777.6 518.4 
" style="fill:none;stroke:#000000;stroke-linecap:square;stroke-linejoin:miter;"/>
   </g>
   <g id="patch_4">
    <path d="M 108 57.6 
L 777.6 57.6 
" style="fill:none;stroke:#000000;stroke-linecap:square;stroke-linejoin:miter;"/>
   </g>
   <g id="patch_5">
    <path d="M 777.6 518.4 
L 777.6 57.6 
" style="fill:none;stroke:#000000;stroke-linecap:square;stroke-linejoin:miter;"/>
   </g>
   <g id="patch_6">
    <path d="M 108 518.4 
L 108 57.6 
" style="fill:none;stroke:#000000;stroke-linecap:square;stroke-linejoin:miter;"/>
   </g>
   <g id="matplotlib.axis_1">
    <g id="xtick_1">
     <g id="line2d_14">
      <defs>
       <path d="M 0 0 
L 0 -4 
" id="m76e788ccd5" style="stroke:#000000;stroke-width:0.5;"/>
      </defs>
      <g>
       <use style="stroke:#000000;stroke-width:0.5;" x="108.0" xlink:href="#m76e788ccd5" y="518.4"/>
      </g>
     </g>
     <g id="line2d_15">
      <defs>
       <path d="M 0 0 
L 0 4 
" id="m3b229f06c5" style="stroke:#000000;stroke-width:0.5;"/>
      </defs>
      <g>
       <use style="stroke:#000000;stroke-width:0.5;" x="108.0" xlink:href="#m3b229f06c5" y="57.6"/>
      </g>
     </g>
     <g id="text_1">
      <!-- 0.0 -->
      <defs>
       <path d="M 31.78125 66.40625 
Q 24.171875 66.40625 20.328125 58.90625 
Q 16.5 51.421875 16.5 36.375 
Q 16.5 21.390625 20.328125 13.890625 
Q 24.171875 6.390625 31.78125 6.390625 
Q 39.453125 6.390625 43.28125 13.890625 
Q 47.125 21.390625 47.125 36.375 
Q 47.125 51.421875 43.28125 58.90625 
Q 39.453125 66.40625 31.78125 66.40625 
M 31.78125 74.21875 
Q 44.046875 74.21875 50.515625 64.515625 
Q 56.984375 54.828125 56.984375 36.375 
Q 56.984375 17.96875 50.515625 8.265625 
Q 44.046875 -1.421875 31.78125 -1.421875 
Q 19.53125 -1.421875 13.0625 8.265625 
Q 6.59375 17.96875 6.59375 36.375 
Q 6.59375 54.828125 13.0625 64.515625 
Q 19.53125 74.21875 31.78125 74.21875 
" id="BitstreamVeraSans-Roman-30"/>
       <path d="M 10.6875 12.40625 
L 21 12.40625 
L 21 0 
L 10.6875 0 
z
" id="BitstreamVeraSans-Roman-2e"/>
      </defs>
      <g transform="translate(92.096875 537.596875)scale(0.2 -0.2)">
       <use xlink:href="#BitstreamVeraSans-Roman-30"/>
       <use x="63.623046875" xlink:href="#BitstreamVeraSans-Roman-2e"/>
       <use x="95.41015625" xlink:href="#BitstreamVeraSans-Roman-30"/>
      </g>
     </g>
    </g>
    <g id="xtick_2">
     <g id="line2d_16">
      <g>
       <use style="stroke:#000000;stroke-width:0.5;" x="241.92" xlink:href="#m76e788ccd5" y="518.4"/>
      </g>
     </g>
     <g id="line2d_17">
      <g>
       <use style="stroke:#000000;stroke-width:0.5;" x="241.92" xlink:href="#m3b229f06c5" y="57.6"/>
      </g>
     </g>
     <g id="text_2">
      <!-- 0.2 -->
      <defs>
       <path d="M 19.1875 8.296875 
L 53.609375 8.296875 
L 53.609375 0 
L 7.328125 0 
L 7.328125 8.296875 
Q 12.9375 14.109375 22.625 23.890625 
Q 32.328125 33.6875 34.8125 36.53125 
Q 39.546875 41.84375 41.421875 45.53125 
Q 43.3125 49.21875 43.3125 52.78125 
Q 43.3125 58.59375 39.234375 62.25 
Q 35.15625 65.921875 28.609375 65.921875 
Q 23.96875 65.921875 18.8125 64.3125 
Q 13.671875 62.703125 7.8125 59.421875 
L 7.8125 69.390625 
Q 13.765625 71.78125 18.9375 73 
Q 24.125 74.21875 28.421875 74.21875 
Q 39.75 74.21875 46.484375 68.546875 
Q 53.21875 62.890625 53.21875 53.421875 
Q 53.21875 48.921875 51.53125 44.890625 
Q 49.859375 40.875 45.40625 35.40625 
Q 44.1875 33.984375 37.640625 27.21875 
Q 31.109375 20.453125 19.1875 8.296875 
" id="BitstreamVeraSans-Roman-32"/>
      </defs>
      <g transform="translate(226.016875 537.596875)scale(0.2 -0.2)">
       <use xlink:href="#BitstreamVeraSans-Roman-30"/>
       <use x="63.623046875" xlink:href="#BitstreamVeraSans-Roman-2e"/>
       <use x="95.41015625" xlink:href="#BitstreamVeraSans-Roman-32"/>
      </g>
     </g>
    </g>
    <g id="xtick_3">
     <g id="line2d_18">
      <g>
       <use style="stroke:#000000;stroke-width:0.5;" x="375.84" xlink:href="#m76e788ccd5" y="518.4"/>
      </g>
     </g>
     <g id="line2d_19">
      <g>
       <use style="stroke:#000000;stroke-width:0.5;" x="375.84" xlink:href="#m3b229f06c5" y="57.6"/>
      </g>
     </g>
     <g id="text_3">
      <!-- 0.4 -->
      <defs>
       <path d="M 37.796875 64.3125 
L 12.890625 25.390625 
L 37.796875 25.390625 
z
M 35.203125 72.90625 
L 47.609375 72.90625 
L 47.609375 25.390625 
L 58.015625 25.390625 
L 58.015625 17.1875 
L 47.609375 17.1875 
L 47.609375 0 
L 37.796875 0 
L 37.796875 17.1875 
L 4.890625 17.1875 
L 4.890625 26.703125 
z
" id="BitstreamVeraSans-Roman-34"/>
      </defs>
      <g transform="translate(359.936875 537.596875)scale(0.2 -0.2)">
       <use xlink:href="#BitstreamVeraSans-Roman-30"/>
       <use x="63.623046875" xlink:href="#BitstreamVeraSans-Roman-2e"/>
       <use x="95.41015625" xlink:href="#BitstreamVeraSans-Roman-34"/>
      </g>
     </g>
    </g>
    <g id="xtick_4">
     <g id="line2d_20">
      <g>
       <use style="stroke:#000000;stroke-width:0.5;" x="509.76" xlink:href="#m76e788ccd5" y="518.4"/>
      </g>
     </g>
     <g id="line2d_21">
      <g>
       <use style="stroke:#000000;stroke-width:0.5;" x="509.76" xlink:href="#m3b229f06c5" y="57.6"/>
      </g>
     </g>
     <g id="text_4">
      <!-- 0.6 -->
      <defs>
       <path d="M 33.015625 40.375 
Q 26.375 40.375 22.484375 35.828125 
Q 18.609375 31.296875 18.609375 23.390625 
Q 18.609375 15.53125 22.484375 10.953125 
Q 26.375 6.390625 33.015625 6.390625 
Q 39.65625 6.390625 43.53125 10.953125 
Q 47.40625 15.53125 47.40625 23.390625 
Q 47.40625 31.296875 43.53125 35.828125 
Q 39.65625 40.375 33.015625 40.375 
M 52.59375 71.296875 
L 52.59375 62.3125 
Q 48.875 64.0625 45.09375 64.984375 
Q 41.3125 65.921875 37.59375 65.921875 
Q 27.828125 65.921875 22.671875 59.328125 
Q 17.53125 52.734375 16.796875 39.40625 
Q 19.671875 43.65625 24.015625 45.921875 
Q 28.375 48.1875 33.59375 48.1875 
Q 44.578125 48.1875 50.953125 41.515625 
Q 57.328125 34.859375 57.328125 23.390625 
Q 57.328125 12.15625 50.6875 5.359375 
Q 44.046875 -1.421875 33.015625 -1.421875 
Q 20.359375 -1.421875 13.671875 8.265625 
Q 6.984375 17.96875 6.984375 36.375 
Q 6.984375 53.65625 15.1875 63.9375 
Q 23.390625 74.21875 37.203125 74.21875 
Q 40.921875 74.21875 44.703125 73.484375 
Q 48.484375 72.75 52.59375 71.296875 
" id="BitstreamVeraSans-Roman-36"/>
      </defs>
      <g transform="translate(493.856875 537.596875)scale(0.2 -0.2)">
       <use xlink:href="#BitstreamVeraSans-Roman-30"/>
       <use x="63.623046875" xlink:href="#BitstreamVeraSans-Roman-2e"/>
       <use x="95.41015625" xlink:href="#BitstreamVeraSans-Roman-36"/>
      </g>
     </g>
    </g>
    <g id="xtick_5">
     <g id="line2d_22">
      <g>
       <use style="stroke:#000000;stroke-width:0.5;" x="643.68" xlink:href="#m76e788ccd5" y="518.4"/>
      </g>
     </g>
     <g id="line2d_23">
      <g>
       <use style="stroke:#000000;stroke-width:0.5;" x="643.68" xlink:href="#m3b229f06c5" y="57.6"/>
      </g>
     </g>
     <g id="text_5">
      <!-- 0.8 -->
      <defs>
       <path d="M 31.78125 34.625 
Q 24.75 34.625 20.71875 30.859375 
Q 16.703125 27.09375 16.703125 20.515625 
Q 16.703125 13.921875 20.71875 10.15625 
Q 24.75 6.390625 31.78125 6.390625 
Q 38.8125 6.390625 42.859375 10.171875 
Q 46.921875 13.96875 46.921875 20.515625 
Q 46.921875 27.09375 42.890625 30.859375 
Q 38.875 34.625 31.78125 34.625 
M 21.921875 38.8125 
Q 15.578125 40.375 12.03125 44.71875 
Q 8.5 49.078125 8.5 55.328125 
Q 8.5 64.0625 14.71875 69.140625 
Q 20.953125 74.21875 31.78125 74.21875 
Q 42.671875 74.21875 48.875 69.140625 
Q 55.078125 64.0625 55.078125 55.328125 
Q 55.078125 49.078125 51.53125 44.71875 
Q 48 40.375 41.703125 38.8125 
Q 48.828125 37.15625 52.796875 32.3125 
Q 56.78125 27.484375 56.78125 20.515625 
Q 56.78125 9.90625 50.3125 4.234375 
Q 43.84375 -1.421875 31.78125 -1.421875 
Q 19.734375 -1.421875 13.25 4.234375 
Q 6.78125 9.90625 6.78125 20.515625 
Q 6.78125 27.484375 10.78125 32.3125 
Q 14.796875 37.15625 21.921875 38.8125 
M 18.3125 54.390625 
Q 18.3125 48.734375 21.84375 45.5625 
Q 25.390625 42.390625 31.78125 42.390625 
Q 38.140625 42.390625 41.71875 45.5625 
Q 45.3125 48.734375 45.3125 54.390625 
Q 45.3125 60.0625 41.71875 63.234375 
Q 38.140625 66.40625 31.78125 66.40625 
Q 25.390625 66.40625 21.84375 63.234375 
Q 18.3125 60.0625 18.3125 54.390625 
" id="BitstreamVeraSans-Roman-38"/>
      </defs>
      <g transform="translate(627.776875 537.596875)scale(0.2 -0.2)">
       <use xlink:href="#BitstreamVeraSans-Roman-30"/>
       <use x="63.623046875" xlink:href="#BitstreamVeraSans-Roman-2e"/>
       <use x="95.41015625" xlink:href="#BitstreamVeraSans-Roman-38"/>
      </g>
     </g>
    </g>
    <g id="xtick_6">
     <g id="line2d_24">
      <g>
       <use style="stroke:#000000;stroke-width:0.5;" x="777.6" xlink:href="#m76e788ccd5" y="518.4"/>
      </g>
     </g>
     <g id="line2d_25">
      <g>
       <use style="stroke:#000000;stroke-width:0.5;" x="777.6" xlink:href="#m3b229f06c5" y="57.6"/>
      </g>
     </g>
     <g id="text_6">
      <!-- 1.0 -->
      <defs>
       <path d="M 12.40625 8.296875 
L 28.515625 8.296875 
L 28.515625 63.921875 
L 10.984375 60.40625 
L 10.984375 69.390625 
L 28.421875 72.90625 
L 38.28125 72.90625 
L 38.28125 8.296875 
L 54.390625 8.296875 
L 54.390625 0 
L 12.40625 0 
z
" id="BitstreamVeraSans-Roman-31"/>
      </defs>
      <g transform="translate(761.696875 537.596875)scale(0.2 -0.2)">
       <use xlink:href="#BitstreamVeraSans-Roman-31"/>
       <use x="63.623046875" xlink:href="#BitstreamVeraSans-Roman-2e"/>
       <use x="95.41015625" xlink:href="#BitstreamVeraSans-Roman-30"/>
      </g>
     </g>
    </g>
    <g id="text_7">
     <!-- $|\vec{\nu}|$ -->
     <defs>
      <path d="M 20.015625 59.515625 
Q 19.234375 59.515625 18.71875 60.09375 
Q 18.21875 60.6875 18.21875 61.53125 
Q 18.21875 62.25 18.71875 62.859375 
Q 19.234375 63.484375 20.015625 63.484375 
L 55.421875 63.484375 
Q 52.78125 67.046875 52.78125 69.390625 
Q 52.78125 70.265625 53.390625 70.828125 
Q 54 71.390625 54.78125 71.390625 
Q 56.453125 71.390625 56.78125 69.828125 
Q 57.765625 65.53125 61.53125 63.1875 
Q 62.5 62.546875 62.5 61.53125 
Q 62.5 60.296875 61.53125 59.8125 
Q 55.859375 56.984375 52.390625 52.296875 
Q 52 51.609375 50.875 51.609375 
Q 50.140625 51.609375 49.5 52.1875 
Q 48.875 52.78125 48.875 53.609375 
Q 48.875 55.421875 53.71875 59.515625 
z
" id="Cmmi10-7e"/>
      <path d="M 11.921875 -23.1875 
L 11.921875 73.1875 
Q 11.921875 73.96875 12.5 74.484375 
Q 13.09375 75 13.921875 75 
Q 14.65625 75 15.28125 74.484375 
Q 15.921875 73.96875 15.921875 73.1875 
L 15.921875 -23.1875 
Q 15.921875 -23.96875 15.28125 -24.484375 
Q 14.65625 -25 13.921875 -25 
Q 13.09375 -25 12.5 -24.484375 
Q 11.921875 -23.96875 11.921875 -23.1875 
" id="Cmsy10-6a"/>
      <path d="M 6.296875 0 
Q 5.078125 0 5.078125 1.3125 
L 13.625 35.296875 
Q 14.015625 37.015625 14.109375 37.984375 
Q 14.109375 39.59375 7.625 39.59375 
Q 6.59375 39.59375 6.59375 40.921875 
Q 6.640625 41.15625 6.8125 41.796875 
Q 6.984375 42.4375 7.25 42.765625 
Q 7.515625 43.109375 8.015625 43.109375 
L 21.484375 44.1875 
Q 22.703125 44.1875 22.703125 42.921875 
L 12.890625 3.71875 
Q 20.796875 6.34375 27.453125 11.953125 
Q 34.125 17.578125 38.734375 25.1875 
Q 43.359375 32.8125 45.40625 41.015625 
Q 45.796875 42.4375 46.96875 43.3125 
Q 48.140625 44.1875 49.609375 44.1875 
Q 50.921875 44.1875 51.75 43.40625 
Q 52.59375 42.625 52.59375 41.3125 
Q 52.59375 39.703125 51.265625 36.40625 
Q 49.953125 33.109375 48.6875 30.515625 
Q 44.734375 22.65625 38.1875 16.109375 
Q 34.078125 12.015625 29.359375 8.84375 
Q 24.65625 5.671875 19.53125 3.4375 
Q 14.40625 1.21875 8.6875 0 
z
" id="Cmmi10-ba"/>
     </defs>
     <g transform="translate(432.3 562.15625)scale(0.2 -0.2)">
      <use transform="translate(0.0 0.53125)" xlink:href="#Cmsy10-6a"/>
      <use transform="translate(17.8203125 5.609375)" xlink:href="#Cmmi10-7e"/>
      <use transform="translate(27.685546875 0.53125)" xlink:href="#Cmmi10-ba"/>
      <use transform="translate(77.099609375 0.53125)" xlink:href="#Cmsy10-6a"/>
     </g>
    </g>
   </g>
   <g id="matplotlib.axis_2">
    <g id="ytick_1">
     <g id="line2d_26">
      <defs>
       <path d="M 0 0 
L 4 0 
" id="m1ebe9362e3" style="stroke:#000000;stroke-width:0.5;"/>
      </defs>
      <g>
       <use style="stroke:#000000;stroke-width:0.5;" x="108.0" xlink:href="#m1ebe9362e3" y="518.4"/>
      </g>
     </g>
     <g id="line2d_27">
      <defs>
       <path d="M 0 0 
L -4 0 
" id="m764bba405c" style="stroke:#000000;stroke-width:0.5;"/>
      </defs>
      <g>
       <use style="stroke:#000000;stroke-width:0.5;" x="777.6" xlink:href="#m764bba405c" y="518.4"/>
      </g>
     </g>
     <g id="text_8">
      <!-- 0.00 -->
      <g transform="translate(59.46875 523.91875)scale(0.2 -0.2)">
       <use xlink:href="#BitstreamVeraSans-Roman-30"/>
       <use x="63.623046875" xlink:href="#BitstreamVeraSans-Roman-2e"/>
       <use x="95.41015625" xlink:href="#BitstreamVeraSans-Roman-30"/>
       <use x="159.033203125" xlink:href="#BitstreamVeraSans-Roman-30"/>
      </g>
     </g>
    </g>
    <g id="ytick_2">
     <g id="line2d_28">
      <g>
       <use style="stroke:#000000;stroke-width:0.5;" x="108.0" xlink:href="#m1ebe9362e3" y="452.571428571"/>
      </g>
     </g>
     <g id="line2d_29">
      <g>
       <use style="stroke:#000000;stroke-width:0.5;" x="777.6" xlink:href="#m764bba405c" y="452.571428571"/>
      </g>
     </g>
     <g id="text_9">
      <!-- 0.01 -->
      <g transform="translate(59.46875 458.090178571)scale(0.2 -0.2)">
       <use xlink:href="#BitstreamVeraSans-Roman-30"/>
       <use x="63.623046875" xlink:href="#BitstreamVeraSans-Roman-2e"/>
       <use x="95.41015625" xlink:href="#BitstreamVeraSans-Roman-30"/>
       <use x="159.033203125" xlink:href="#BitstreamVeraSans-Roman-31"/>
      </g>
     </g>
    </g>
    <g id="ytick_3">
     <g id="line2d_30">
      <g>
       <use style="stroke:#000000;stroke-width:0.5;" x="108.0" xlink:href="#m1ebe9362e3" y="386.742857143"/>
      </g>
     </g>
     <g id="line2d_31">
      <g>
       <use style="stroke:#000000;stroke-width:0.5;" x="777.6" xlink:href="#m764bba405c" y="386.742857143"/>
      </g>
     </g>
     <g id="text_10">
      <!-- 0.02 -->
      <g transform="translate(59.46875 392.261607143)scale(0.2 -0.2)">
       <use xlink:href="#BitstreamVeraSans-Roman-30"/>
       <use x="63.623046875" xlink:href="#BitstreamVeraSans-Roman-2e"/>
       <use x="95.41015625" xlink:href="#BitstreamVeraSans-Roman-30"/>
       <use x="159.033203125" xlink:href="#BitstreamVeraSans-Roman-32"/>
      </g>
     </g>
    </g>
    <g id="ytick_4">
     <g id="line2d_32">
      <g>
       <use style="stroke:#000000;stroke-width:0.5;" x="108.0" xlink:href="#m1ebe9362e3" y="320.914285714"/>
      </g>
     </g>
     <g id="line2d_33">
      <g>
       <use style="stroke:#000000;stroke-width:0.5;" x="777.6" xlink:href="#m764bba405c" y="320.914285714"/>
      </g>
     </g>
     <g id="text_11">
      <!-- 0.03 -->
      <defs>
       <path d="M 40.578125 39.3125 
Q 47.65625 37.796875 51.625 33 
Q 55.609375 28.21875 55.609375 21.1875 
Q 55.609375 10.40625 48.1875 4.484375 
Q 40.765625 -1.421875 27.09375 -1.421875 
Q 22.515625 -1.421875 17.65625 -0.515625 
Q 12.796875 0.390625 7.625 2.203125 
L 7.625 11.71875 
Q 11.71875 9.328125 16.59375 8.109375 
Q 21.484375 6.890625 26.8125 6.890625 
Q 36.078125 6.890625 40.9375 10.546875 
Q 45.796875 14.203125 45.796875 21.1875 
Q 45.796875 27.640625 41.28125 31.265625 
Q 36.765625 34.90625 28.71875 34.90625 
L 20.21875 34.90625 
L 20.21875 43.015625 
L 29.109375 43.015625 
Q 36.375 43.015625 40.234375 45.921875 
Q 44.09375 48.828125 44.09375 54.296875 
Q 44.09375 59.90625 40.109375 62.90625 
Q 36.140625 65.921875 28.71875 65.921875 
Q 24.65625 65.921875 20.015625 65.03125 
Q 15.375 64.15625 9.8125 62.3125 
L 9.8125 71.09375 
Q 15.4375 72.65625 20.34375 73.4375 
Q 25.25 74.21875 29.59375 74.21875 
Q 40.828125 74.21875 47.359375 69.109375 
Q 53.90625 64.015625 53.90625 55.328125 
Q 53.90625 49.265625 50.4375 45.09375 
Q 46.96875 40.921875 40.578125 39.3125 
" id="BitstreamVeraSans-Roman-33"/>
      </defs>
      <g transform="translate(59.46875 326.433035714)scale(0.2 -0.2)">
       <use xlink:href="#BitstreamVeraSans-Roman-30"/>
       <use x="63.623046875" xlink:href="#BitstreamVeraSans-Roman-2e"/>
       <use x="95.41015625" xlink:href="#BitstreamVeraSans-Roman-30"/>
       <use x="159.033203125" xlink:href="#BitstreamVeraSans-Roman-33"/>
      </g>
     </g>
    </g>
    <g id="ytick_5">
     <g id="line2d_34">
      <g>
       <use style="stroke:#000000;stroke-width:0.5;" x="108.0" xlink:href="#m1ebe9362e3" y="255.085714286"/>
      </g>
     </g>
     <g id="line2d_35">
      <g>
       <use style="stroke:#000000;stroke-width:0.5;" x="777.6" xlink:href="#m764bba405c" y="255.085714286"/>
      </g>
     </g>
     <g id="text_12">
      <!-- 0.04 -->
      <g transform="translate(59.46875 260.604464286)scale(0.2 -0.2)">
       <use xlink:href="#BitstreamVeraSans-Roman-30"/>
       <use x="63.623046875" xlink:href="#BitstreamVeraSans-Roman-2e"/>
       <use x="95.41015625" xlink:href="#BitstreamVeraSans-Roman-30"/>
       <use x="159.033203125" xlink:href="#BitstreamVeraSans-Roman-34"/>
      </g>
     </g>
    </g>
    <g id="ytick_6">
     <g id="line2d_36">
      <g>
       <use style="stroke:#000000;stroke-width:0.5;" x="108.0" xlink:href="#m1ebe9362e3" y="189.257142857"/>
      </g>
     </g>
     <g id="line2d_37">
      <g>
       <use style="stroke:#000000;stroke-width:0.5;" x="777.6" xlink:href="#m764bba405c" y="189.257142857"/>
      </g>
     </g>
     <g id="text_13">
      <!-- 0.05 -->
      <defs>
       <path d="M 10.796875 72.90625 
L 49.515625 72.90625 
L 49.515625 64.59375 
L 19.828125 64.59375 
L 19.828125 46.734375 
Q 21.96875 47.46875 24.109375 47.828125 
Q 26.265625 48.1875 28.421875 48.1875 
Q 40.625 48.1875 47.75 41.5 
Q 54.890625 34.8125 54.890625 23.390625 
Q 54.890625 11.625 47.5625 5.09375 
Q 40.234375 -1.421875 26.90625 -1.421875 
Q 22.3125 -1.421875 17.546875 -0.640625 
Q 12.796875 0.140625 7.71875 1.703125 
L 7.71875 11.625 
Q 12.109375 9.234375 16.796875 8.0625 
Q 21.484375 6.890625 26.703125 6.890625 
Q 35.15625 6.890625 40.078125 11.328125 
Q 45.015625 15.765625 45.015625 23.390625 
Q 45.015625 31 40.078125 35.4375 
Q 35.15625 39.890625 26.703125 39.890625 
Q 22.75 39.890625 18.8125 39.015625 
Q 14.890625 38.140625 10.796875 36.28125 
z
" id="BitstreamVeraSans-Roman-35"/>
      </defs>
      <g transform="translate(59.46875 194.775892857)scale(0.2 -0.2)">
       <use xlink:href="#BitstreamVeraSans-Roman-30"/>
       <use x="63.623046875" xlink:href="#BitstreamVeraSans-Roman-2e"/>
       <use x="95.41015625" xlink:href="#BitstreamVeraSans-Roman-30"/>
       <use x="159.033203125" xlink:href="#BitstreamVeraSans-Roman-35"/>
      </g>
     </g>
    </g>
    <g id="ytick_7">
     <g id="line2d_38">
      <g>
       <use style="stroke:#000000;stroke-width:0.5;" x="108.0" xlink:href="#m1ebe9362e3" y="123.428571429"/>
      </g>
     </g>
     <g id="line2d_39">
      <g>
       <use style="stroke:#000000;stroke-width:0.5;" x="777.6" xlink:href="#m764bba405c" y="123.428571429"/>
      </g>
     </g>
     <g id="text_14">
      <!-- 0.06 -->
      <g transform="translate(59.46875 128.947321429)scale(0.2 -0.2)">
       <use xlink:href="#BitstreamVeraSans-Roman-30"/>
       <use x="63.623046875" xlink:href="#BitstreamVeraSans-Roman-2e"/>
       <use x="95.41015625" xlink:href="#BitstreamVeraSans-Roman-30"/>
       <use x="159.033203125" xlink:href="#BitstreamVeraSans-Roman-36"/>
      </g>
     </g>
    </g>
    <g id="ytick_8">
     <g id="line2d_40">
      <g>
       <use style="stroke:#000000;stroke-width:0.5;" x="108.0" xlink:href="#m1ebe9362e3" y="57.6"/>
      </g>
     </g>
     <g id="line2d_41">
      <g>
       <use style="stroke:#000000;stroke-width:0.5;" x="777.6" xlink:href="#m764bba405c" y="57.6"/>
      </g>
     </g>
     <g id="text_15">
      <!-- 0.07 -->
      <defs>
       <path d="M 8.203125 72.90625 
L 55.078125 72.90625 
L 55.078125 68.703125 
L 28.609375 0 
L 18.3125 0 
L 43.21875 64.59375 
L 8.203125 64.59375 
z
" id="BitstreamVeraSans-Roman-37"/>
      </defs>
      <g transform="translate(59.46875 63.11875)scale(0.2 -0.2)">
       <use xlink:href="#BitstreamVeraSans-Roman-30"/>
       <use x="63.623046875" xlink:href="#BitstreamVeraSans-Roman-2e"/>
       <use x="95.41015625" xlink:href="#BitstreamVeraSans-Roman-30"/>
       <use x="159.033203125" xlink:href="#BitstreamVeraSans-Roman-37"/>
      </g>
     </g>
    </g>
    <g id="text_16">
     <!-- $P(|\vec{\nu}|)$ -->
     <defs>
      <path d="M 6.5 -25 
Q 5.609375 -25 5.609375 -24.125 
Q 5.609375 -23.6875 5.8125 -23.484375 
Q 22.90625 -6.78125 22.90625 25 
Q 22.90625 56.78125 6 73.296875 
Q 5.609375 73.53125 5.609375 74.125 
Q 5.609375 74.46875 5.875 74.734375 
Q 6.15625 75 6.5 75 
L 7.421875 75 
Q 7.71875 75 7.90625 74.8125 
Q 15.09375 69.140625 19.875 61.03125 
Q 24.65625 52.9375 26.875 43.75 
Q 29.109375 34.578125 29.109375 25 
Q 29.109375 17.921875 27.90625 11.0625 
Q 26.703125 4.203125 24.09375 -2.453125 
Q 21.484375 -9.125 17.484375 -14.765625 
Q 13.484375 -20.40625 7.90625 -24.8125 
Q 7.71875 -25 7.421875 -25 
z
" id="Cmr10-29"/>
      <path d="M 4.890625 0 
Q 3.90625 0 3.90625 1.3125 
Q 3.953125 1.5625 4.09375 2.171875 
Q 4.25 2.78125 4.515625 3.140625 
Q 4.78125 3.515625 5.171875 3.515625 
Q 11.28125 3.515625 13.71875 4.203125 
Q 14.984375 4.640625 15.578125 6.890625 
L 29.296875 61.8125 
Q 29.5 62.796875 29.5 63.1875 
Q 29.5 64.265625 28.328125 64.40625 
Q 26.421875 64.796875 21.09375 64.796875 
Q 20.125 64.796875 20.125 66.109375 
Q 20.171875 66.359375 20.3125 66.96875 
Q 20.453125 67.578125 20.71875 67.9375 
Q 21 68.3125 21.390625 68.3125 
L 55.90625 68.3125 
Q 60.640625 68.3125 65.078125 66.625 
Q 69.53125 64.9375 72.359375 61.46875 
Q 75.203125 58.015625 75.203125 53.078125 
Q 75.203125 46.734375 70.734375 41.75 
Q 66.265625 36.765625 59.59375 33.984375 
Q 52.9375 31.203125 46.6875 31.203125 
L 30.421875 31.203125 
L 24.3125 6.5 
Q 24.125 5.515625 24.125 5.078125 
Q 24.125 4.6875 24.234375 4.421875 
Q 24.359375 4.15625 24.578125 4.078125 
Q 24.8125 4 25.296875 3.90625 
Q 27.203125 3.515625 32.515625 3.515625 
Q 33.5 3.515625 33.5 2.203125 
Q 33.15625 0.78125 32.953125 0.390625 
Q 32.765625 0 31.78125 0 
z
M 30.90625 34.1875 
L 44.921875 34.1875 
Q 54.640625 34.1875 59.71875 39.40625 
Q 62.3125 42 63.9375 46.875 
Q 65.578125 51.765625 65.578125 55.71875 
Q 65.578125 60.640625 61.8125 62.71875 
Q 58.0625 64.796875 52.484375 64.796875 
L 42.921875 64.796875 
Q 40.1875 64.796875 39.296875 64.328125 
Q 38.421875 63.875 37.703125 61.375 
z
" id="Cmmi10-50"/>
      <path d="M 31 -24.8125 
Q 25.4375 -20.40625 21.40625 -14.71875 
Q 17.390625 -9.03125 14.8125 -2.578125 
Q 12.25 3.859375 10.984375 10.890625 
Q 9.71875 17.921875 9.71875 25 
Q 9.71875 32.171875 10.984375 39.203125 
Q 12.25 46.234375 14.859375 52.734375 
Q 17.484375 59.234375 21.53125 64.890625 
Q 25.59375 70.5625 31 74.8125 
Q 31 75 31.5 75 
L 32.421875 75 
Q 32.71875 75 32.953125 74.734375 
Q 33.203125 74.46875 33.203125 74.125 
Q 33.203125 73.6875 33.015625 73.484375 
Q 28.125 68.703125 24.875 63.234375 
Q 21.625 57.765625 19.640625 51.578125 
Q 17.671875 45.40625 16.796875 38.78125 
Q 15.921875 32.171875 15.921875 25 
Q 15.921875 -6.78125 32.90625 -23.296875 
Q 33.203125 -23.578125 33.203125 -24.125 
Q 33.203125 -24.359375 32.9375 -24.671875 
Q 32.671875 -25 32.421875 -25 
L 31.5 -25 
Q 31 -25 31 -24.8125 
" id="Cmr10-28"/>
     </defs>
     <g transform="translate(49.46875 312.7)rotate(-90.0)scale(0.2 -0.2)">
      <use transform="translate(0.0 0.53125)" xlink:href="#Cmmi10-50"/>
      <use transform="translate(64.208984375 0.53125)" xlink:href="#Cmr10-28"/>
      <use transform="translate(103.02734375 0.53125)" xlink:href="#Cmsy10-6a"/>
      <use transform="translate(120.84765625 5.609375)" xlink:href="#Cmmi10-7e"/>
      <use transform="translate(130.712890625 0.53125)" xlink:href="#Cmmi10-ba"/>
      <use transform="translate(180.126953125 0.53125)" xlink:href="#Cmsy10-6a"/>
      <use transform="translate(207.8125 0.53125)" xlink:href="#Cmr10-29"/>
     </g>
    </g>
   </g>
   <g id="text_17">
    <!-- $N = 10, D_r = 2e-01$ -->
    <defs>
     <path d="M 4.984375 0 
L 4.984375 2.6875 
Q 4.984375 2.9375 5.171875 3.21875 
L 20.703125 20.40625 
Q 24.21875 24.21875 26.40625 26.796875 
Q 28.609375 29.390625 30.75 32.765625 
Q 32.90625 36.140625 34.15625 39.625 
Q 35.40625 43.109375 35.40625 47.015625 
Q 35.40625 51.125 33.890625 54.859375 
Q 32.375 58.59375 29.375 60.84375 
Q 26.375 63.09375 22.125 63.09375 
Q 17.78125 63.09375 14.3125 60.46875 
Q 10.84375 57.859375 9.421875 53.71875 
Q 9.8125 53.8125 10.5 53.8125 
Q 12.75 53.8125 14.328125 52.296875 
Q 15.921875 50.78125 15.921875 48.390625 
Q 15.921875 46.09375 14.328125 44.5 
Q 12.75 42.921875 10.5 42.921875 
Q 8.15625 42.921875 6.5625 44.546875 
Q 4.984375 46.1875 4.984375 48.390625 
Q 4.984375 52.15625 6.390625 55.4375 
Q 7.8125 58.734375 10.46875 61.296875 
Q 13.140625 63.875 16.484375 65.234375 
Q 19.828125 66.609375 23.578125 66.609375 
Q 29.296875 66.609375 34.21875 64.1875 
Q 39.15625 61.765625 42.03125 57.34375 
Q 44.921875 52.9375 44.921875 47.015625 
Q 44.921875 42.671875 43.015625 38.765625 
Q 41.109375 34.859375 38.125 31.65625 
Q 35.15625 28.46875 30.515625 24.40625 
Q 25.875 20.359375 24.421875 19 
L 13.09375 8.109375 
L 22.703125 8.109375 
Q 29.78125 8.109375 34.546875 8.21875 
Q 39.3125 8.34375 39.59375 8.59375 
Q 40.765625 9.859375 42 17.828125 
L 44.921875 17.828125 
L 42.09375 0 
z
" id="Cmr10-32"/>
     <path d="M 20.125 -1.125 
Q 15.328125 -1.125 11.734375 1.359375 
Q 8.15625 3.859375 6.265625 8.078125 
Q 4.390625 12.3125 4.390625 17 
Q 4.390625 24.125 7.984375 30.390625 
Q 11.578125 36.671875 17.71875 40.421875 
Q 23.875 44.1875 30.90625 44.1875 
Q 35.203125 44.1875 38.40625 41.96875 
Q 41.609375 39.75 41.609375 35.59375 
Q 41.609375 29.828125 37.015625 27.015625 
Q 32.421875 24.21875 26.65625 23.5625 
Q 20.90625 22.90625 13.921875 22.90625 
L 13.625 22.90625 
Q 12.015625 16.9375 12.015625 12.703125 
Q 12.015625 8.25 14.0625 4.875 
Q 16.109375 1.515625 20.3125 1.515625 
Q 26.265625 1.515625 31.75 4.25 
Q 37.25 6.984375 40.71875 11.8125 
Q 41.015625 12.109375 41.5 12.109375 
Q 42 12.109375 42.5 11.546875 
Q 43.015625 10.984375 43.015625 10.5 
Q 43.015625 10.109375 42.828125 9.90625 
Q 39.15625 4.78125 32.953125 1.828125 
Q 26.765625 -1.125 20.125 -1.125 
M 14.203125 25.484375 
Q 20.015625 25.484375 24.953125 26.015625 
Q 29.890625 26.5625 33.890625 28.734375 
Q 37.890625 30.90625 37.890625 35.5 
Q 37.890625 37.359375 36.859375 38.75 
Q 35.84375 40.140625 34.203125 40.875 
Q 32.5625 41.609375 30.8125 41.609375 
Q 26.5625 41.609375 23.171875 39.3125 
Q 19.78125 37.015625 17.578125 33.328125 
Q 15.375 29.640625 14.203125 25.484375 
" id="Cmmi10-65"/>
     <path d="M 9.28125 0 
L 9.28125 3.515625 
Q 21.78125 3.515625 21.78125 6.6875 
L 21.78125 59.1875 
Q 16.609375 56.6875 8.6875 56.6875 
L 8.6875 60.203125 
Q 20.953125 60.203125 27.203125 66.609375 
L 28.609375 66.609375 
Q 28.953125 66.609375 29.265625 66.328125 
Q 29.59375 66.0625 29.59375 65.71875 
L 29.59375 6.6875 
Q 29.59375 3.515625 42.09375 3.515625 
L 42.09375 0 
z
" id="Cmr10-31"/>
     <path d="M 10.203125 23 
Q 9.375 23 8.828125 23.625 
Q 8.296875 24.265625 8.296875 25 
Q 8.296875 25.734375 8.828125 26.359375 
Q 9.375 27 10.203125 27 
L 67.578125 27 
Q 68.359375 27 68.875 26.359375 
Q 69.390625 25.734375 69.390625 25 
Q 69.390625 24.265625 68.875 23.625 
Q 68.359375 23 67.578125 23 
z
" id="Cmsy10-a1"/>
     <path d="M 7.515625 13.28125 
Q 6.6875 13.28125 6.140625 13.90625 
Q 5.609375 14.546875 5.609375 15.28125 
Q 5.609375 16.109375 6.140625 16.6875 
Q 6.6875 17.28125 7.515625 17.28125 
L 70.3125 17.28125 
Q 71.046875 17.28125 71.578125 16.6875 
Q 72.125 16.109375 72.125 15.28125 
Q 72.125 14.546875 71.578125 13.90625 
Q 71.046875 13.28125 70.3125 13.28125 
z
M 7.515625 32.71875 
Q 6.6875 32.71875 6.140625 33.296875 
Q 5.609375 33.890625 5.609375 34.71875 
Q 5.609375 35.453125 6.140625 36.078125 
Q 6.6875 36.71875 7.515625 36.71875 
L 70.3125 36.71875 
Q 71.046875 36.71875 71.578125 36.078125 
Q 72.125 35.453125 72.125 34.71875 
Q 72.125 33.890625 71.578125 33.296875 
Q 71.046875 32.71875 70.3125 32.71875 
z
" id="Cmr10-3d"/>
     <path d="M 4.6875 0 
Q 3.71875 0 3.71875 1.3125 
Q 3.765625 1.5625 3.90625 2.171875 
Q 4.046875 2.78125 4.3125 3.140625 
Q 4.59375 3.515625 4.984375 3.515625 
Q 14.546875 3.515625 16.109375 9.625 
L 29.6875 64.3125 
Q 26.90625 64.796875 20.90625 64.796875 
Q 19.921875 64.796875 19.921875 66.109375 
Q 19.96875 66.359375 20.109375 66.96875 
Q 20.265625 67.578125 20.53125 67.9375 
Q 20.796875 68.3125 21.1875 68.3125 
L 38.484375 68.3125 
Q 39.203125 68.3125 39.40625 67.671875 
L 61.625 14.796875 
L 72.703125 59.078125 
Q 72.90625 60.15625 72.90625 60.59375 
Q 72.90625 64.796875 65.1875 64.796875 
Q 64.203125 64.796875 64.203125 66.109375 
Q 64.546875 67.390625 64.734375 67.84375 
Q 64.9375 68.3125 65.921875 68.3125 
L 87.3125 68.3125 
Q 88.28125 68.3125 88.28125 67 
Q 88.234375 66.75 88.078125 66.140625 
Q 87.9375 65.53125 87.671875 65.15625 
Q 87.40625 64.796875 87.015625 64.796875 
Q 77.4375 64.796875 75.875 58.6875 
L 61.53125 0.875 
Q 61.1875 0 60.5 0 
L 59.28125 0 
Q 58.59375 0 58.40625 0.6875 
L 32.90625 61.1875 
L 32.71875 61.8125 
Q 32.515625 62.015625 32.515625 62.109375 
L 19.28125 9.1875 
Q 19.1875 8.9375 19.140625 8.5625 
Q 19.09375 8.203125 19 7.71875 
Q 19 5.125 21.234375 4.3125 
Q 23.484375 3.515625 26.8125 3.515625 
Q 27.78125 3.515625 27.78125 2.203125 
Q 27.4375 0.828125 27.1875 0.40625 
Q 26.953125 0 26.125 0 
z
" id="Cmmi10-4e"/>
     <path d="M 25 -2.203125 
Q 12.75 -2.203125 8.328125 7.875 
Q 3.90625 17.96875 3.90625 31.890625 
Q 3.90625 40.578125 5.484375 48.234375 
Q 7.078125 55.90625 11.78125 61.25 
Q 16.5 66.609375 25 66.609375 
Q 31.59375 66.609375 35.78125 63.375 
Q 39.984375 60.15625 42.1875 55.046875 
Q 44.390625 49.953125 45.1875 44.109375 
Q 46 38.28125 46 31.890625 
Q 46 23.296875 44.40625 15.796875 
Q 42.828125 8.296875 38.1875 3.046875 
Q 33.546875 -2.203125 25 -2.203125 
M 25 0.390625 
Q 30.5625 0.390625 33.296875 6.09375 
Q 36.03125 11.8125 36.671875 18.75 
Q 37.3125 25.6875 37.3125 33.5 
Q 37.3125 41.015625 36.671875 47.359375 
Q 36.03125 53.71875 33.3125 58.859375 
Q 30.609375 64.015625 25 64.015625 
Q 19.34375 64.015625 16.609375 58.828125 
Q 13.875 53.65625 13.234375 47.328125 
Q 12.59375 41.015625 12.59375 33.5 
Q 12.59375 27.9375 12.859375 23 
Q 13.140625 18.0625 14.3125 12.8125 
Q 15.484375 7.5625 18.09375 3.96875 
Q 20.703125 0.390625 25 0.390625 
" id="Cmr10-30"/>
     <path d="M 4.890625 0 
Q 3.90625 0 3.90625 1.3125 
Q 3.953125 1.5625 4.09375 2.171875 
Q 4.25 2.78125 4.515625 3.140625 
Q 4.78125 3.515625 5.171875 3.515625 
Q 11.28125 3.515625 13.71875 4.203125 
Q 14.984375 4.640625 15.578125 6.890625 
L 29.296875 61.8125 
Q 29.5 62.796875 29.5 63.1875 
Q 29.5 64.265625 28.328125 64.40625 
Q 26.421875 64.796875 21.09375 64.796875 
Q 20.125 64.796875 20.125 66.109375 
Q 20.171875 66.359375 20.3125 66.96875 
Q 20.453125 67.578125 20.71875 67.9375 
Q 21 68.3125 21.390625 68.3125 
L 57.328125 68.3125 
Q 64.3125 68.3125 69.53125 64.921875 
Q 74.75 61.53125 77.53125 55.78125 
Q 80.328125 50.046875 80.328125 43.109375 
Q 80.328125 35.453125 77.140625 27.78125 
Q 73.96875 20.125 68.25 13.765625 
Q 62.546875 7.421875 55.21875 3.703125 
Q 47.90625 0 40.1875 0 
z
M 23.578125 4.296875 
Q 23.578125 3.515625 27 3.515625 
L 38.625 3.515625 
Q 44.1875 3.515625 49.359375 5.8125 
Q 54.546875 8.109375 58.59375 12.109375 
Q 62.359375 15.875 65.234375 21.96875 
Q 68.109375 28.078125 69.703125 34.71875 
Q 71.296875 41.359375 71.296875 46.921875 
Q 71.296875 50.984375 70.09375 54.25 
Q 68.890625 57.515625 66.71875 59.859375 
Q 64.546875 62.203125 61.28125 63.5 
Q 58.015625 64.796875 53.90625 64.796875 
L 42.921875 64.796875 
Q 40.1875 64.796875 39.296875 64.328125 
Q 38.421875 63.875 37.703125 61.375 
L 24.03125 6.5 
Q 23.578125 5.28125 23.578125 4.296875 
" id="Cmmi10-44"/>
     <path d="M 7.71875 1.703125 
Q 7.71875 2.296875 7.8125 2.59375 
L 15.28125 32.421875 
Q 16.015625 35.203125 16.015625 37.3125 
Q 16.015625 41.609375 13.09375 41.609375 
Q 9.96875 41.609375 8.453125 37.859375 
Q 6.9375 34.125 5.515625 28.421875 
Q 5.515625 28.125 5.21875 27.953125 
Q 4.9375 27.78125 4.6875 27.78125 
L 3.515625 27.78125 
Q 3.171875 27.78125 2.921875 28.140625 
Q 2.6875 28.515625 2.6875 28.8125 
Q 3.765625 33.15625 4.765625 36.171875 
Q 5.765625 39.203125 7.890625 41.6875 
Q 10.015625 44.1875 13.1875 44.1875 
Q 16.65625 44.1875 19.265625 42.1875 
Q 21.875 40.1875 22.515625 36.921875 
Q 25.046875 40.234375 28.296875 42.203125 
Q 31.546875 44.1875 35.40625 44.1875 
Q 38.578125 44.1875 40.984375 42.328125 
Q 43.40625 40.484375 43.40625 37.3125 
Q 43.40625 34.765625 41.8125 32.875 
Q 40.234375 31 37.59375 31 
Q 35.984375 31 34.890625 32 
Q 33.796875 33.015625 33.796875 34.625 
Q 33.796875 36.8125 35.40625 38.546875 
Q 37.015625 40.28125 39.109375 40.28125 
Q 37.5 41.609375 35.203125 41.609375 
Q 30.90625 41.609375 27.734375 38.546875 
Q 24.5625 35.5 22.015625 30.8125 
L 14.890625 2.203125 
Q 14.546875 0.828125 13.34375 -0.140625 
Q 12.15625 -1.125 10.6875 -1.125 
Q 9.46875 -1.125 8.59375 -0.34375 
Q 7.71875 0.4375 7.71875 1.703125 
" id="Cmmi10-72"/>
     <path d="M 9.90625 -18.015625 
Q 9.90625 -17.578125 10.296875 -17.1875 
Q 13.921875 -13.71875 15.921875 -9.171875 
Q 17.921875 -4.640625 17.921875 0.390625 
L 17.921875 1.609375 
Q 16.3125 0 13.921875 0 
Q 11.625 0 10.015625 1.609375 
Q 8.40625 3.21875 8.40625 5.515625 
Q 8.40625 7.859375 10.015625 9.421875 
Q 11.625 10.984375 13.921875 10.984375 
Q 17.484375 10.984375 19 7.6875 
Q 20.515625 4.390625 20.515625 0.390625 
Q 20.515625 -5.171875 18.28125 -10.171875 
Q 16.0625 -15.1875 12.015625 -19.1875 
Q 11.625 -19.390625 11.375 -19.390625 
Q 10.890625 -19.390625 10.390625 -18.9375 
Q 9.90625 -18.5 9.90625 -18.015625 
" id="Cmmi10-3b"/>
    </defs>
    <g transform="translate(336.96 52.6)scale(0.24 -0.24)">
     <use transform="translate(0.0 0.6875)" xlink:href="#Cmmi10-4e"/>
     <use transform="translate(97.880859375 0.6875)" xlink:href="#Cmr10-3d"/>
     <use transform="translate(193.125 0.6875)" xlink:href="#Cmr10-31"/>
     <use transform="translate(243.125 0.6875)" xlink:href="#Cmr10-30"/>
     <use transform="translate(293.125 0.6875)" xlink:href="#Cmmi10-3b"/>
     <use transform="translate(338.369140625 0.6875)" xlink:href="#Cmmi10-44"/>
     <use transform="translate(421.083984375 -16.318749999999994)scale(0.7)" xlink:href="#Cmmi10-72"/>
     <use transform="translate(476.601953125 0.6875)" xlink:href="#Cmr10-3d"/>
     <use transform="translate(571.84609375 0.6875)" xlink:href="#Cmr10-32"/>
     <use transform="translate(621.84609375 0.6875)" xlink:href="#Cmmi10-65"/>
     <use transform="translate(685.8890625 0.6875)" xlink:href="#Cmsy10-a1"/>
     <use transform="translate(781.133203125 0.6875)" xlink:href="#Cmr10-30"/>
     <use transform="translate(831.133203125 0.6875)" xlink:href="#Cmr10-31"/>
    </g>
   </g>
   <g id="legend_1">
    <g id="patch_7">
     <path d="M 114 306.6175 
L 245.2 306.6175 
L 245.2 63.6 
L 114 63.6 
z
" style="fill:#ffffff;stroke:#000000;stroke-linejoin:miter;"/>
    </g>
    <g id="line2d_42">
     <path d="M 122.4 73.318125 
L 139.2 73.318125 
" style="fill:none;stroke:#d60000;stroke-linecap:square;"/>
    </g>
    <g id="line2d_43"/>
    <g id="text_18">
     <!-- $g = 0.00e+00$ -->
     <defs>
      <path d="M 8.40625 5.515625 
Q 8.40625 7.765625 10.0625 9.375 
Q 11.71875 10.984375 13.921875 10.984375 
Q 15.28125 10.984375 16.59375 10.25 
Q 17.921875 9.515625 18.65625 8.203125 
Q 19.390625 6.890625 19.390625 5.515625 
Q 19.390625 3.328125 17.765625 1.65625 
Q 16.15625 0 13.921875 0 
Q 11.71875 0 10.0625 1.65625 
Q 8.40625 3.328125 8.40625 5.515625 
" id="Cmmi10-3a"/>
      <path d="M 1.421875 -14.3125 
Q 1.421875 -11.859375 3.09375 -10.03125 
Q 4.78125 -8.203125 7.171875 -8.203125 
Q 8.796875 -8.203125 9.890625 -9.203125 
Q 10.984375 -10.203125 10.984375 -11.8125 
Q 10.984375 -13.625 9.953125 -15.0625 
Q 8.9375 -16.5 7.328125 -17.09375 
Q 10.015625 -17.921875 15.71875 -17.921875 
Q 20.3125 -17.921875 24.125 -14.375 
Q 27.9375 -10.84375 29.109375 -6.203125 
L 31.984375 5.515625 
Q 26.5625 0 20.703125 0 
Q 16.40625 0 13.34375 2.1875 
Q 10.296875 4.390625 8.6875 8.046875 
Q 7.078125 11.71875 7.078125 15.828125 
Q 7.078125 20.40625 8.953125 25.4375 
Q 10.84375 30.46875 14.234375 34.765625 
Q 17.625 39.0625 22.015625 41.625 
Q 26.421875 44.1875 31.296875 44.1875 
Q 34.234375 44.1875 36.578125 42.578125 
Q 38.921875 40.96875 40.28125 38.28125 
Q 41.265625 42.1875 44.578125 42.1875 
Q 45.84375 42.1875 46.71875 41.421875 
Q 47.609375 40.671875 47.609375 39.40625 
Q 47.609375 39.109375 47.578125 38.953125 
Q 47.5625 38.8125 47.515625 38.625 
L 36.078125 -6.78125 
Q 35.296875 -9.90625 33.203125 -12.5 
Q 31.109375 -15.09375 28.265625 -16.828125 
Q 25.4375 -18.5625 22.0625 -19.53125 
Q 18.703125 -20.515625 15.578125 -20.515625 
Q 9.859375 -20.515625 5.640625 -19.40625 
Q 1.421875 -18.3125 1.421875 -14.3125 
M 20.90625 2.59375 
Q 27.296875 2.59375 33.5 11.375 
L 39.015625 33.203125 
Q 38.328125 36.671875 36.28125 39.140625 
Q 34.234375 41.609375 31.109375 41.609375 
Q 27.78125 41.609375 24.828125 38.890625 
Q 21.875 36.1875 19.921875 32.421875 
Q 18.0625 28.8125 16.328125 22.046875 
Q 14.59375 15.28125 14.59375 11.375 
Q 14.59375 7.953125 16.15625 5.265625 
Q 17.71875 2.59375 20.90625 2.59375 
" id="Cmmi10-67"/>
      <path d="M 7.515625 23 
Q 6.6875 23 6.140625 23.625 
Q 5.609375 24.265625 5.609375 25 
Q 5.609375 25.734375 6.140625 26.359375 
Q 6.6875 27 7.515625 27 
L 36.921875 27 
L 36.921875 56.5 
Q 36.921875 57.28125 37.5 57.78125 
Q 38.09375 58.296875 38.921875 58.296875 
Q 39.65625 58.296875 40.28125 57.78125 
Q 40.921875 57.28125 40.921875 56.5 
L 40.921875 27 
L 70.3125 27 
Q 71.046875 27 71.578125 26.359375 
Q 72.125 25.734375 72.125 25 
Q 72.125 24.265625 71.578125 23.625 
Q 71.046875 23 70.3125 23 
L 40.921875 23 
L 40.921875 -6.5 
Q 40.921875 -7.28125 40.28125 -7.78125 
Q 39.65625 -8.296875 38.921875 -8.296875 
Q 38.09375 -8.296875 37.5 -7.78125 
Q 36.921875 -7.28125 36.921875 -6.5 
L 36.921875 23 
z
" id="Cmr10-2b"/>
     </defs>
     <g transform="translate(152.4 77.518125)scale(0.12 -0.12)">
      <use transform="translate(0.0 0.390625)" xlink:href="#Cmmi10-67"/>
      <use transform="translate(65.263671875 0.390625)" xlink:href="#Cmr10-3d"/>
      <use transform="translate(160.5078125 0.390625)" xlink:href="#Cmr10-30"/>
      <use transform="translate(210.5078125 0.390625)" xlink:href="#Cmmi10-3a"/>
      <use transform="translate(255.751953125 0.390625)" xlink:href="#Cmr10-30"/>
      <use transform="translate(305.751953125 0.390625)" xlink:href="#Cmr10-30"/>
      <use transform="translate(355.751953125 0.390625)" xlink:href="#Cmmi10-65"/>
      <use transform="translate(419.794921875 0.390625)" xlink:href="#Cmr10-2b"/>
      <use transform="translate(515.0390625 0.390625)" xlink:href="#Cmr10-30"/>
      <use transform="translate(565.0390625 0.390625)" xlink:href="#Cmr10-30"/>
     </g>
    </g>
    <g id="line2d_44">
     <path d="M 122.4 91.43625 
L 139.2 91.43625 
" style="fill:none;stroke:#ff3b00;stroke-linecap:square;"/>
    </g>
    <g id="line2d_45"/>
    <g id="text_19">
     <!-- $g = -1.00e-01$ -->
     <g transform="translate(152.4 95.63625)scale(0.12 -0.12)">
      <use transform="translate(0.0 0.390625)" xlink:href="#Cmmi10-67"/>
      <use transform="translate(65.263671875 0.390625)" xlink:href="#Cmr10-3d"/>
      <use transform="translate(178.06640625 0.390625)" xlink:href="#Cmsy10-a1"/>
      <use transform="translate(273.310546875 0.390625)" xlink:href="#Cmr10-31"/>
      <use transform="translate(323.310546875 0.390625)" xlink:href="#Cmmi10-3a"/>
      <use transform="translate(368.5546875 0.390625)" xlink:href="#Cmr10-30"/>
      <use transform="translate(418.5546875 0.390625)" xlink:href="#Cmr10-30"/>
      <use transform="translate(468.5546875 0.390625)" xlink:href="#Cmmi10-65"/>
      <use transform="translate(532.59765625 0.390625)" xlink:href="#Cmsy10-a1"/>
      <use transform="translate(627.841796875 0.390625)" xlink:href="#Cmr10-30"/>
      <use transform="translate(677.841796875 0.390625)" xlink:href="#Cmr10-31"/>
     </g>
    </g>
    <g id="line2d_46">
     <path d="M 122.4 109.554375 
L 139.2 109.554375 
" style="fill:none;stroke:#ff8600;stroke-linecap:square;"/>
    </g>
    <g id="line2d_47"/>
    <g id="text_20">
     <!-- $g = -1.33e-01$ -->
     <defs>
      <path d="M 9.515625 7.71875 
Q 11.859375 4.296875 15.8125 2.640625 
Q 19.78125 0.984375 24.3125 0.984375 
Q 30.125 0.984375 32.5625 5.9375 
Q 35.015625 10.890625 35.015625 17.1875 
Q 35.015625 20.015625 34.5 22.84375 
Q 33.984375 25.6875 32.765625 28.125 
Q 31.546875 30.5625 29.421875 32.03125 
Q 27.296875 33.5 24.21875 33.5 
L 17.578125 33.5 
Q 16.703125 33.5 16.703125 34.421875 
L 16.703125 35.296875 
Q 16.703125 36.078125 17.578125 36.078125 
L 23.09375 36.53125 
Q 26.609375 36.53125 28.921875 39.15625 
Q 31.25 41.796875 32.328125 45.578125 
Q 33.40625 49.359375 33.40625 52.78125 
Q 33.40625 57.5625 31.15625 60.640625 
Q 28.90625 63.71875 24.3125 63.71875 
Q 20.515625 63.71875 17.046875 62.28125 
Q 13.578125 60.84375 11.53125 57.90625 
Q 11.71875 57.953125 11.859375 57.984375 
Q 12.015625 58.015625 12.203125 58.015625 
Q 14.453125 58.015625 15.96875 56.453125 
Q 17.484375 54.890625 17.484375 52.6875 
Q 17.484375 50.53125 15.96875 48.96875 
Q 14.453125 47.40625 12.203125 47.40625 
Q 10.015625 47.40625 8.453125 48.96875 
Q 6.890625 50.53125 6.890625 52.6875 
Q 6.890625 56.984375 9.46875 60.15625 
Q 12.0625 63.328125 16.140625 64.96875 
Q 20.21875 66.609375 24.3125 66.609375 
Q 27.34375 66.609375 30.703125 65.703125 
Q 34.078125 64.796875 36.8125 63.109375 
Q 39.546875 61.421875 41.28125 58.78125 
Q 43.015625 56.15625 43.015625 52.78125 
Q 43.015625 48.578125 41.140625 45.015625 
Q 39.265625 41.453125 35.984375 38.859375 
Q 32.71875 36.28125 28.8125 35.015625 
Q 33.15625 34.1875 37.0625 31.734375 
Q 40.96875 29.296875 43.328125 25.484375 
Q 45.703125 21.6875 45.703125 17.28125 
Q 45.703125 11.765625 42.671875 7.296875 
Q 39.65625 2.828125 34.71875 0.3125 
Q 29.78125 -2.203125 24.3125 -2.203125 
Q 19.625 -2.203125 14.90625 -0.40625 
Q 10.203125 1.375 7.203125 4.9375 
Q 4.203125 8.5 4.203125 13.484375 
Q 4.203125 15.96875 5.859375 17.625 
Q 7.515625 19.28125 10.015625 19.28125 
Q 11.625 19.28125 12.96875 18.53125 
Q 14.3125 17.78125 15.0625 16.40625 
Q 15.828125 15.046875 15.828125 13.484375 
Q 15.828125 11.03125 14.109375 9.375 
Q 12.40625 7.71875 10.015625 7.71875 
z
" id="Cmr10-33"/>
     </defs>
     <g transform="translate(152.4 113.754375)scale(0.12 -0.12)">
      <use transform="translate(0.0 0.390625)" xlink:href="#Cmmi10-67"/>
      <use transform="translate(65.263671875 0.390625)" xlink:href="#Cmr10-3d"/>
      <use transform="translate(178.06640625 0.390625)" xlink:href="#Cmsy10-a1"/>
      <use transform="translate(273.310546875 0.390625)" xlink:href="#Cmr10-31"/>
      <use transform="translate(323.310546875 0.390625)" xlink:href="#Cmmi10-3a"/>
      <use transform="translate(368.5546875 0.390625)" xlink:href="#Cmr10-33"/>
      <use transform="translate(418.5546875 0.390625)" xlink:href="#Cmr10-33"/>
      <use transform="translate(468.5546875 0.390625)" xlink:href="#Cmmi10-65"/>
      <use transform="translate(532.59765625 0.390625)" xlink:href="#Cmsy10-a1"/>
      <use transform="translate(627.841796875 0.390625)" xlink:href="#Cmr10-30"/>
      <use transform="translate(677.841796875 0.390625)" xlink:href="#Cmr10-31"/>
     </g>
    </g>
    <g id="line2d_48">
     <path d="M 122.4 127.6725 
L 139.2 127.6725 
" style="fill:none;stroke:#ffcc00;stroke-linecap:square;"/>
    </g>
    <g id="line2d_49"/>
    <g id="text_21">
     <!-- $g = -1.67e-01$ -->
     <defs>
      <path d="M 25 -2.203125 
Q 18.796875 -2.203125 14.640625 1.09375 
Q 10.5 4.390625 8.21875 9.640625 
Q 5.953125 14.890625 5.078125 20.65625 
Q 4.203125 26.421875 4.203125 32.328125 
Q 4.203125 40.234375 7.28125 48.1875 
Q 10.359375 56.15625 16.328125 61.375 
Q 22.3125 66.609375 30.515625 66.609375 
Q 33.9375 66.609375 36.890625 65.3125 
Q 39.84375 64.015625 41.53125 61.5 
Q 43.21875 58.984375 43.21875 55.421875 
Q 43.21875 53.375 41.828125 51.984375 
Q 40.4375 50.59375 38.375 50.59375 
Q 36.421875 50.59375 35 52 
Q 33.59375 53.421875 33.59375 55.421875 
Q 33.59375 57.375 35 58.78125 
Q 36.421875 60.203125 38.375 60.203125 
L 38.921875 60.203125 
Q 37.640625 62.015625 35.328125 62.859375 
Q 33.015625 63.71875 30.515625 63.71875 
Q 27.484375 63.71875 24.921875 62.390625 
Q 22.359375 61.078125 20.3125 58.828125 
Q 18.265625 56.59375 16.890625 53.875 
Q 15.53125 51.171875 14.765625 47.703125 
Q 14.015625 44.234375 13.8125 41.203125 
Q 13.625 38.1875 13.625 33.59375 
Q 15.375 37.703125 18.59375 40.3125 
Q 21.828125 42.921875 25.875 42.921875 
Q 30.328125 42.921875 33.984375 41.109375 
Q 37.640625 39.3125 40.28125 36.109375 
Q 42.921875 32.90625 44.3125 28.796875 
Q 45.703125 24.703125 45.703125 20.515625 
Q 45.703125 14.65625 43.09375 9.34375 
Q 40.484375 4.046875 35.734375 0.921875 
Q 31 -2.203125 25 -2.203125 
M 25 0.984375 
Q 28.859375 0.984375 31.203125 2.734375 
Q 33.546875 4.5 34.640625 7.390625 
Q 35.75 10.296875 36.015625 13.25 
Q 36.28125 16.21875 36.28125 20.515625 
Q 36.28125 26.171875 35.734375 30.171875 
Q 35.203125 34.1875 32.8125 37.234375 
Q 30.421875 40.28125 25.484375 40.28125 
Q 21.4375 40.28125 18.828125 37.546875 
Q 16.21875 34.8125 15.015625 30.640625 
Q 13.8125 26.46875 13.8125 22.609375 
Q 13.8125 21.296875 13.921875 20.609375 
Q 13.921875 20.453125 13.890625 20.359375 
Q 13.875 20.265625 13.8125 20.125 
Q 13.8125 15.828125 14.6875 11.421875 
Q 15.578125 7.03125 18.0625 4 
Q 20.5625 0.984375 25 0.984375 
" id="Cmr10-36"/>
      <path d="M 17.390625 2.59375 
Q 17.390625 8.15625 18.359375 13.46875 
Q 19.34375 18.796875 21.21875 24 
Q 23.09375 29.203125 25.75 34.203125 
Q 28.421875 39.203125 31.59375 43.609375 
L 40.71875 56.296875 
L 29.296875 56.296875 
Q 11.53125 56.296875 10.984375 55.8125 
Q 9.671875 54.203125 8.5 46.578125 
L 5.609375 46.578125 
L 8.890625 67.578125 
L 11.8125 67.578125 
L 11.8125 67.28125 
Q 11.8125 65.484375 17.921875 64.9375 
Q 24.03125 64.40625 29.890625 64.40625 
L 48.484375 64.40625 
L 48.484375 61.8125 
Q 48.484375 61.71875 48.453125 61.671875 
Q 48.4375 61.625 48.390625 61.53125 
L 34.625 42.1875 
Q 29.546875 34.671875 28.265625 25.484375 
Q 27 16.3125 27 2.59375 
Q 27 0.640625 25.578125 -0.78125 
Q 24.171875 -2.203125 22.21875 -2.203125 
Q 20.21875 -2.203125 18.796875 -0.78125 
Q 17.390625 0.640625 17.390625 2.59375 
" id="Cmr10-37"/>
     </defs>
     <g transform="translate(152.4 131.8725)scale(0.12 -0.12)">
      <use transform="translate(0.0 0.421875)" xlink:href="#Cmmi10-67"/>
      <use transform="translate(65.263671875 0.421875)" xlink:href="#Cmr10-3d"/>
      <use transform="translate(178.06640625 0.421875)" xlink:href="#Cmsy10-a1"/>
      <use transform="translate(273.310546875 0.421875)" xlink:href="#Cmr10-31"/>
      <use transform="translate(323.310546875 0.421875)" xlink:href="#Cmmi10-3a"/>
      <use transform="translate(368.5546875 0.421875)" xlink:href="#Cmr10-36"/>
      <use transform="translate(418.5546875 0.421875)" xlink:href="#Cmr10-37"/>
      <use transform="translate(468.5546875 0.421875)" xlink:href="#Cmmi10-65"/>
      <use transform="translate(532.59765625 0.421875)" xlink:href="#Cmsy10-a1"/>
      <use transform="translate(627.841796875 0.421875)" xlink:href="#Cmr10-30"/>
      <use transform="translate(677.841796875 0.421875)" xlink:href="#Cmr10-31"/>
     </g>
    </g>
    <g id="line2d_50">
     <path d="M 122.4 145.790625 
L 139.2 145.790625 
" style="fill:none;stroke:#dbff1c;stroke-linecap:square;"/>
    </g>
    <g id="line2d_51"/>
    <g id="text_22">
     <!-- $g = -1.82e-01$ -->
     <defs>
      <path d="M 4.203125 15.1875 
Q 4.203125 21.1875 8.15625 25.796875 
Q 12.109375 30.421875 18.3125 33.5 
L 14.59375 35.890625 
Q 11.1875 38.140625 9.03125 41.875 
Q 6.890625 45.609375 6.890625 49.703125 
Q 6.890625 54.5 9.40625 58.34375 
Q 11.921875 62.203125 16.09375 64.40625 
Q 20.265625 66.609375 25 66.609375 
Q 29.4375 66.609375 33.5625 64.796875 
Q 37.703125 62.984375 40.359375 59.609375 
Q 43.015625 56.25 43.015625 51.609375 
Q 43.015625 48.25 41.421875 45.359375 
Q 39.84375 42.484375 37.078125 40.1875 
Q 34.328125 37.890625 31.203125 36.28125 
L 36.921875 32.625 
Q 40.875 30.03125 43.28125 25.828125 
Q 45.703125 21.625 45.703125 17 
Q 45.703125 11.578125 42.796875 7.125 
Q 39.890625 2.6875 35.109375 0.234375 
Q 30.328125 -2.203125 25 -2.203125 
Q 19.828125 -2.203125 15.015625 -0.09375 
Q 10.203125 2 7.203125 5.984375 
Q 4.203125 9.96875 4.203125 15.1875 
M 9.625 15.1875 
Q 9.625 11.234375 11.796875 7.953125 
Q 13.96875 4.6875 17.53125 2.828125 
Q 21.09375 0.984375 25 0.984375 
Q 30.8125 0.984375 35.546875 4.375 
Q 40.28125 7.765625 40.28125 13.375 
Q 40.28125 15.28125 39.515625 17.15625 
Q 38.765625 19.046875 37.421875 20.578125 
Q 36.078125 22.125 34.421875 23.09375 
L 21 31.78125 
Q 17.875 30.125 15.25 27.578125 
Q 12.640625 25.046875 11.125 21.875 
Q 9.625 18.703125 9.625 15.1875 
M 16.5 45.703125 
L 28.609375 37.890625 
Q 32.8125 40.328125 35.5 43.796875 
Q 38.1875 47.265625 38.1875 51.609375 
Q 38.1875 54.984375 36.296875 57.78125 
Q 34.421875 60.59375 31.390625 62.15625 
Q 28.375 63.71875 24.90625 63.71875 
Q 21.875 63.71875 18.796875 62.546875 
Q 15.71875 61.375 13.71875 59.046875 
Q 11.71875 56.734375 11.71875 53.609375 
Q 11.71875 48.921875 16.5 45.703125 
" id="Cmr10-38"/>
     </defs>
     <g transform="translate(152.4 149.990625)scale(0.12 -0.12)">
      <use transform="translate(0.0 0.390625)" xlink:href="#Cmmi10-67"/>
      <use transform="translate(65.263671875 0.390625)" xlink:href="#Cmr10-3d"/>
      <use transform="translate(178.06640625 0.390625)" xlink:href="#Cmsy10-a1"/>
      <use transform="translate(273.310546875 0.390625)" xlink:href="#Cmr10-31"/>
      <use transform="translate(323.310546875 0.390625)" xlink:href="#Cmmi10-3a"/>
      <use transform="translate(368.5546875 0.390625)" xlink:href="#Cmr10-38"/>
      <use transform="translate(418.5546875 0.390625)" xlink:href="#Cmr10-32"/>
      <use transform="translate(468.5546875 0.390625)" xlink:href="#Cmmi10-65"/>
      <use transform="translate(532.59765625 0.390625)" xlink:href="#Cmsy10-a1"/>
      <use transform="translate(627.841796875 0.390625)" xlink:href="#Cmr10-30"/>
      <use transform="translate(677.841796875 0.390625)" xlink:href="#Cmr10-31"/>
     </g>
    </g>
    <g id="line2d_52">
     <path d="M 122.4 163.90875 
L 139.2 163.90875 
" style="fill:none;stroke:#9aff5d;stroke-linecap:square;"/>
    </g>
    <g id="line2d_53"/>
    <g id="text_23">
     <!-- $g = -1.90e-01$ -->
     <defs>
      <path d="M 11.28125 4.203125 
Q 14.015625 0.984375 20.796875 0.984375 
Q 24.609375 0.984375 27.90625 3.5625 
Q 31.203125 6.15625 33.015625 9.90625 
Q 35.109375 14.15625 35.6875 18.96875 
Q 36.28125 23.78125 36.28125 30.90625 
Q 34.578125 26.859375 31.375 24.265625 
Q 28.171875 21.6875 24.03125 21.6875 
Q 18.21875 21.6875 13.640625 24.828125 
Q 9.078125 27.984375 6.640625 33.125 
Q 4.203125 38.28125 4.203125 44.09375 
Q 4.203125 50.09375 6.9375 55.296875 
Q 9.671875 60.5 14.5 63.546875 
Q 19.34375 66.609375 25.484375 66.609375 
Q 31.546875 66.609375 35.625 63.3125 
Q 39.703125 60.015625 41.84375 54.8125 
Q 44 49.609375 44.84375 43.796875 
Q 45.703125 37.984375 45.703125 32.328125 
Q 45.703125 24.609375 42.875 16.578125 
Q 40.046875 8.546875 34.40625 3.171875 
Q 28.765625 -2.203125 20.796875 -2.203125 
Q 14.890625 -2.203125 10.78125 0.578125 
Q 6.6875 3.375 6.6875 8.984375 
Q 6.6875 11.03125 8.078125 12.421875 
Q 9.46875 13.8125 11.53125 13.8125 
Q 13.53125 13.8125 14.921875 12.421875 
Q 16.3125 11.03125 16.3125 8.984375 
Q 16.3125 7.03125 14.890625 5.609375 
Q 13.484375 4.203125 11.53125 4.203125 
z
M 24.421875 24.3125 
Q 28.515625 24.3125 31.125 27.0625 
Q 33.734375 29.828125 34.90625 33.921875 
Q 36.078125 38.03125 36.078125 42.09375 
L 36.078125 44 
L 36.078125 44.390625 
Q 36.078125 51.90625 33.875 57.8125 
Q 31.6875 63.71875 25.484375 63.71875 
Q 21.53125 63.71875 19.0625 61.984375 
Q 16.609375 60.25 15.4375 57.375 
Q 14.265625 54.5 13.9375 51.21875 
Q 13.625 47.953125 13.625 44.09375 
Q 13.625 38.421875 14.15625 34.421875 
Q 14.703125 30.421875 17.09375 27.359375 
Q 19.484375 24.3125 24.421875 24.3125 
" id="Cmr10-39"/>
     </defs>
     <g transform="translate(152.4 168.10875)scale(0.12 -0.12)">
      <use transform="translate(0.0 0.390625)" xlink:href="#Cmmi10-67"/>
      <use transform="translate(65.263671875 0.390625)" xlink:href="#Cmr10-3d"/>
      <use transform="translate(178.06640625 0.390625)" xlink:href="#Cmsy10-a1"/>
      <use transform="translate(273.310546875 0.390625)" xlink:href="#Cmr10-31"/>
      <use transform="translate(323.310546875 0.390625)" xlink:href="#Cmmi10-3a"/>
      <use transform="translate(368.5546875 0.390625)" xlink:href="#Cmr10-39"/>
      <use transform="translate(418.5546875 0.390625)" xlink:href="#Cmr10-30"/>
      <use transform="translate(468.5546875 0.390625)" xlink:href="#Cmmi10-65"/>
      <use transform="translate(532.59765625 0.390625)" xlink:href="#Cmsy10-a1"/>
      <use transform="translate(627.841796875 0.390625)" xlink:href="#Cmr10-30"/>
      <use transform="translate(677.841796875 0.390625)" xlink:href="#Cmr10-31"/>
     </g>
    </g>
    <g id="line2d_54">
     <path d="M 122.4 182.026875 
L 139.2 182.026875 
" style="fill:none;stroke:#5dff9a;stroke-linecap:square;"/>
    </g>
    <g id="line2d_55"/>
    <g id="text_24">
     <!-- $g = -2.00e-01$ -->
     <g transform="translate(152.4 186.226875)scale(0.12 -0.12)">
      <use transform="translate(0.0 0.390625)" xlink:href="#Cmmi10-67"/>
      <use transform="translate(65.263671875 0.390625)" xlink:href="#Cmr10-3d"/>
      <use transform="translate(178.06640625 0.390625)" xlink:href="#Cmsy10-a1"/>
      <use transform="translate(273.310546875 0.390625)" xlink:href="#Cmr10-32"/>
      <use transform="translate(323.310546875 0.390625)" xlink:href="#Cmmi10-3a"/>
      <use transform="translate(368.5546875 0.390625)" xlink:href="#Cmr10-30"/>
      <use transform="translate(418.5546875 0.390625)" xlink:href="#Cmr10-30"/>
      <use transform="translate(468.5546875 0.390625)" xlink:href="#Cmmi10-65"/>
      <use transform="translate(532.59765625 0.390625)" xlink:href="#Cmsy10-a1"/>
      <use transform="translate(627.841796875 0.390625)" xlink:href="#Cmr10-30"/>
      <use transform="translate(677.841796875 0.390625)" xlink:href="#Cmr10-31"/>
     </g>
    </g>
    <g id="line2d_56">
     <path d="M 122.4 200.145 
L 139.2 200.145 
" style="fill:none;stroke:#1cffdb;stroke-linecap:square;"/>
    </g>
    <g id="line2d_57"/>
    <g id="text_25">
     <!-- $g = -2.10e-01$ -->
     <g transform="translate(152.4 204.345)scale(0.12 -0.12)">
      <use transform="translate(0.0 0.390625)" xlink:href="#Cmmi10-67"/>
      <use transform="translate(65.263671875 0.390625)" xlink:href="#Cmr10-3d"/>
      <use transform="translate(178.06640625 0.390625)" xlink:href="#Cmsy10-a1"/>
      <use transform="translate(273.310546875 0.390625)" xlink:href="#Cmr10-32"/>
      <use transform="translate(323.310546875 0.390625)" xlink:href="#Cmmi10-3a"/>
      <use transform="translate(368.5546875 0.390625)" xlink:href="#Cmr10-31"/>
      <use transform="translate(418.5546875 0.390625)" xlink:href="#Cmr10-30"/>
      <use transform="translate(468.5546875 0.390625)" xlink:href="#Cmmi10-65"/>
      <use transform="translate(532.59765625 0.390625)" xlink:href="#Cmsy10-a1"/>
      <use transform="translate(627.841796875 0.390625)" xlink:href="#Cmr10-30"/>
      <use transform="translate(677.841796875 0.390625)" xlink:href="#Cmr10-31"/>
     </g>
    </g>
    <g id="line2d_58">
     <path d="M 122.4 218.263125 
L 139.2 218.263125 
" style="fill:none;stroke:#00b8ff;stroke-linecap:square;"/>
    </g>
    <g id="line2d_59"/>
    <g id="text_26">
     <!-- $g = -2.20e-01$ -->
     <g transform="translate(152.4 222.463125)scale(0.12 -0.12)">
      <use transform="translate(0.0 0.390625)" xlink:href="#Cmmi10-67"/>
      <use transform="translate(65.263671875 0.390625)" xlink:href="#Cmr10-3d"/>
      <use transform="translate(178.06640625 0.390625)" xlink:href="#Cmsy10-a1"/>
      <use transform="translate(273.310546875 0.390625)" xlink:href="#Cmr10-32"/>
      <use transform="translate(323.310546875 0.390625)" xlink:href="#Cmmi10-3a"/>
      <use transform="translate(368.5546875 0.390625)" xlink:href="#Cmr10-32"/>
      <use transform="translate(418.5546875 0.390625)" xlink:href="#Cmr10-30"/>
      <use transform="translate(468.5546875 0.390625)" xlink:href="#Cmmi10-65"/>
      <use transform="translate(532.59765625 0.390625)" xlink:href="#Cmsy10-a1"/>
      <use transform="translate(627.841796875 0.390625)" xlink:href="#Cmr10-30"/>
      <use transform="translate(677.841796875 0.390625)" xlink:href="#Cmr10-31"/>
     </g>
    </g>
    <g id="line2d_60">
     <path d="M 122.4 236.38125 
L 139.2 236.38125 
" style="fill:none;stroke:#006cff;stroke-linecap:square;"/>
    </g>
    <g id="line2d_61"/>
    <g id="text_27">
     <!-- $g = -2.40e-01$ -->
     <defs>
      <path d="M 2.78125 16.5 
L 2.78125 20.015625 
L 33.6875 66.109375 
Q 34.03125 66.609375 34.71875 66.609375 
L 36.1875 66.609375 
Q 37.3125 66.609375 37.3125 65.484375 
L 37.3125 20.015625 
L 47.125 20.015625 
L 47.125 16.5 
L 37.3125 16.5 
L 37.3125 6.6875 
Q 37.3125 4.640625 40.234375 4.078125 
Q 43.171875 3.515625 47.015625 3.515625 
L 47.015625 0 
L 19.484375 0 
L 19.484375 3.515625 
Q 23.34375 3.515625 26.265625 4.078125 
Q 29.203125 4.640625 29.203125 6.6875 
L 29.203125 16.5 
z
M 6.109375 20.015625 
L 29.78125 20.015625 
L 29.78125 55.421875 
z
" id="Cmr10-34"/>
     </defs>
     <g transform="translate(152.4 240.58125)scale(0.12 -0.12)">
      <use transform="translate(0.0 0.390625)" xlink:href="#Cmmi10-67"/>
      <use transform="translate(65.263671875 0.390625)" xlink:href="#Cmr10-3d"/>
      <use transform="translate(178.06640625 0.390625)" xlink:href="#Cmsy10-a1"/>
      <use transform="translate(273.310546875 0.390625)" xlink:href="#Cmr10-32"/>
      <use transform="translate(323.310546875 0.390625)" xlink:href="#Cmmi10-3a"/>
      <use transform="translate(368.5546875 0.390625)" xlink:href="#Cmr10-34"/>
      <use transform="translate(418.5546875 0.390625)" xlink:href="#Cmr10-30"/>
      <use transform="translate(468.5546875 0.390625)" xlink:href="#Cmmi10-65"/>
      <use transform="translate(532.59765625 0.390625)" xlink:href="#Cmsy10-a1"/>
      <use transform="translate(627.841796875 0.390625)" xlink:href="#Cmr10-30"/>
      <use transform="translate(677.841796875 0.390625)" xlink:href="#Cmr10-31"/>
     </g>
    </g>
    <g id="line2d_62">
     <path d="M 122.4 254.499375 
L 139.2 254.499375 
" style="fill:none;stroke:#001cff;stroke-linecap:square;"/>
    </g>
    <g id="line2d_63"/>
    <g id="text_28">
     <!-- $g = -3.00e-01$ -->
     <g transform="translate(152.4 258.699375)scale(0.12 -0.12)">
      <use transform="translate(0.0 0.390625)" xlink:href="#Cmmi10-67"/>
      <use transform="translate(65.263671875 0.390625)" xlink:href="#Cmr10-3d"/>
      <use transform="translate(178.06640625 0.390625)" xlink:href="#Cmsy10-a1"/>
      <use transform="translate(273.310546875 0.390625)" xlink:href="#Cmr10-33"/>
      <use transform="translate(323.310546875 0.390625)" xlink:href="#Cmmi10-3a"/>
      <use transform="translate(368.5546875 0.390625)" xlink:href="#Cmr10-30"/>
      <use transform="translate(418.5546875 0.390625)" xlink:href="#Cmr10-30"/>
      <use transform="translate(468.5546875 0.390625)" xlink:href="#Cmmi10-65"/>
      <use transform="translate(532.59765625 0.390625)" xlink:href="#Cmsy10-a1"/>
      <use transform="translate(627.841796875 0.390625)" xlink:href="#Cmr10-30"/>
      <use transform="translate(677.841796875 0.390625)" xlink:href="#Cmr10-31"/>
     </g>
    </g>
    <g id="line2d_64">
     <path d="M 122.4 272.6175 
L 139.2 272.6175 
" style="fill:none;stroke:#0000d6;stroke-linecap:square;"/>
    </g>
    <g id="line2d_65"/>
    <g id="text_29">
     <!-- $g = -4.00e-01$ -->
     <g transform="translate(152.4 276.8175)scale(0.12 -0.12)">
      <use transform="translate(0.0 0.390625)" xlink:href="#Cmmi10-67"/>
      <use transform="translate(65.263671875 0.390625)" xlink:href="#Cmr10-3d"/>
      <use transform="translate(178.06640625 0.390625)" xlink:href="#Cmsy10-a1"/>
      <use transform="translate(273.310546875 0.390625)" xlink:href="#Cmr10-34"/>
      <use transform="translate(323.310546875 0.390625)" xlink:href="#Cmmi10-3a"/>
      <use transform="translate(368.5546875 0.390625)" xlink:href="#Cmr10-30"/>
      <use transform="translate(418.5546875 0.390625)" xlink:href="#Cmr10-30"/>
      <use transform="translate(468.5546875 0.390625)" xlink:href="#Cmmi10-65"/>
      <use transform="translate(532.59765625 0.390625)" xlink:href="#Cmsy10-a1"/>
      <use transform="translate(627.841796875 0.390625)" xlink:href="#Cmr10-30"/>
      <use transform="translate(677.841796875 0.390625)" xlink:href="#Cmr10-31"/>
     </g>
    </g>
    <g id="line2d_66">
     <path d="M 122.4 294.6175 
L 139.2 294.6175 
" style="fill:none;stroke:#000000;stroke-dasharray:6.000000,6.000000;stroke-dashoffset:0.0;stroke-width:4.0;"/>
    </g>
    <g id="line2d_67"/>
    <g id="text_30">
     <!-- $1/\sqrt{2N}$ -->
     <defs>
      <path d="M 5.609375 -23 
Q 5.609375 -22.703125 5.71875 -22.609375 
L 40.484375 73.78125 
Q 40.671875 74.359375 41.15625 74.671875 
Q 41.65625 75 42.28125 75 
Q 43.171875 75 43.71875 74.453125 
Q 44.28125 73.921875 44.28125 73 
L 44.28125 72.609375 
L 9.515625 -23.78125 
Q 8.9375 -25 7.625 -25 
Q 6.78125 -25 6.1875 -24.40625 
Q 5.609375 -23.828125 5.609375 -23 
" id="Cmmi10-3d"/>
      <path d="M 42.390625 -116.015625 
L 19.828125 -63.484375 
L 12.796875 -68.890625 
L 10.984375 -67.09375 
L 25.296875 -56 
L 46.390625 -105.078125 
L 98.296875 3.078125 
Q 98.78125 4 100 4 
Q 100.828125 4 101.40625 3.40625 
Q 102 2.828125 102 2 
Q 102 1.515625 101.90625 1.3125 
L 46.09375 -115.09375 
Q 45.703125 -116.015625 44.578125 -116.015625 
z
" id="Cmex10-70"/>
     </defs>
     <g transform="translate(152.4 298.8175)scale(0.12 -0.12)">
      <use transform="translate(0.0 0.4375)" xlink:href="#Cmr10-31"/>
      <use transform="translate(50.0 0.4375)" xlink:href="#Cmmi10-3d"/>
      <use transform="translate(100.0 96.671875)scale(0.8295794818383022)" xlink:href="#Cmex10-70"/>
      <use transform="translate(195.453125 0.4375)" xlink:href="#Cmr10-32"/>
      <use transform="translate(245.453125 0.4375)" xlink:href="#Cmmi10-4e"/>
      <path d="M 182.953125 93.5 
L 182.953125 99.75 
L 338.275391 99.75 
L 338.275391 93.5 
L 182.953125 93.5 
z
"/>
     </g>
    </g>
   </g>
  </g>
 </g>
 <defs>
  <clipPath id="p0db1e986b5">
   <rect height="460.8" width="669.6" x="108.0" y="57.6"/>
  </clipPath>
 </defs>
</svg>
