<?xml version="1.0" encoding="utf-8" standalone="no"?>
<!DOCTYPE svg PUBLIC "-//W3C//DTD SVG 1.1//EN"
  "http://www.w3.org/Graphics/SVG/1.1/DTD/svg11.dtd">
<!-- Created with matplotlib (https://matplotlib.org/) -->
<svg height="576pt" version="1.1" viewBox="0 0 864 576" width="864pt" xmlns="http://www.w3.org/2000/svg" xmlns:xlink="http://www.w3.org/1999/xlink">
 <defs>
  <style type="text/css">
*{stroke-linecap:butt;stroke-linejoin:round;}
  </style>
 </defs>
 <g id="figure_1">
  <g id="patch_1">
   <path d="M 0 576 
L 864 576 
L 864 0 
L 0 0 
z
" style="fill:#ffffff;"/>
  </g>
  <g id="axes_1">
   <g id="patch_2">
    <path d="M 108 512.64 
L 777.6 512.64 
L 777.6 69.12 
L 108 69.12 
z
" style="fill:#ffffff;"/>
   </g>
   <g id="matplotlib.axis_1">
    <g id="xtick_1">
     <g id="line2d_1">
      <defs>
       <path d="M 0 0 
L 0 3.5 
" id="m628ffb8768" style="stroke:#000000;stroke-width:0.8;"/>
      </defs>
      <g>
       <use style="stroke:#000000;stroke-width:0.8;" x="138.436364" xlink:href="#m628ffb8768" y="512.64"/>
      </g>
     </g>
     <g id="text_1">
      <!-- −0.5 -->
      <defs>
       <path d="M 10.59375 35.5 
L 73.1875 35.5 
L 73.1875 27.203125 
L 10.59375 27.203125 
z
" id="DejaVuSans-8722"/>
       <path d="M 31.78125 66.40625 
Q 24.171875 66.40625 20.328125 58.90625 
Q 16.5 51.421875 16.5 36.375 
Q 16.5 21.390625 20.328125 13.890625 
Q 24.171875 6.390625 31.78125 6.390625 
Q 39.453125 6.390625 43.28125 13.890625 
Q 47.125 21.390625 47.125 36.375 
Q 47.125 51.421875 43.28125 58.90625 
Q 39.453125 66.40625 31.78125 66.40625 
z
M 31.78125 74.21875 
Q 44.046875 74.21875 50.515625 64.515625 
Q 56.984375 54.828125 56.984375 36.375 
Q 56.984375 17.96875 50.515625 8.265625 
Q 44.046875 -1.421875 31.78125 -1.421875 
Q 19.53125 -1.421875 13.0625 8.265625 
Q 6.59375 17.96875 6.59375 36.375 
Q 6.59375 54.828125 13.0625 64.515625 
Q 19.53125 74.21875 31.78125 74.21875 
z
" id="DejaVuSans-48"/>
       <path d="M 10.6875 12.40625 
L 21 12.40625 
L 21 0 
L 10.6875 0 
z
" id="DejaVuSans-46"/>
       <path d="M 10.796875 72.90625 
L 49.515625 72.90625 
L 49.515625 64.59375 
L 19.828125 64.59375 
L 19.828125 46.734375 
Q 21.96875 47.46875 24.109375 47.828125 
Q 26.265625 48.1875 28.421875 48.1875 
Q 40.625 48.1875 47.75 41.5 
Q 54.890625 34.8125 54.890625 23.390625 
Q 54.890625 11.625 47.5625 5.09375 
Q 40.234375 -1.421875 26.90625 -1.421875 
Q 22.3125 -1.421875 17.546875 -0.640625 
Q 12.796875 0.140625 7.71875 1.703125 
L 7.71875 11.625 
Q 12.109375 9.234375 16.796875 8.0625 
Q 21.484375 6.890625 26.703125 6.890625 
Q 35.15625 6.890625 40.078125 11.328125 
Q 45.015625 15.765625 45.015625 23.390625 
Q 45.015625 31 40.078125 35.4375 
Q 35.15625 39.890625 26.703125 39.890625 
Q 22.75 39.890625 18.8125 39.015625 
Q 14.890625 38.140625 10.796875 36.28125 
z
" id="DejaVuSans-53"/>
      </defs>
      <g transform="translate(114.153551 534.836875)scale(0.2 -0.2)">
       <use xlink:href="#DejaVuSans-8722"/>
       <use x="83.789062" xlink:href="#DejaVuSans-48"/>
       <use x="147.412109" xlink:href="#DejaVuSans-46"/>
       <use x="179.199219" xlink:href="#DejaVuSans-53"/>
      </g>
     </g>
    </g>
    <g id="xtick_2">
     <g id="line2d_2">
      <g>
       <use style="stroke:#000000;stroke-width:0.8;" x="260.181818" xlink:href="#m628ffb8768" y="512.64"/>
      </g>
     </g>
     <g id="text_2">
      <!-- −0.4 -->
      <defs>
       <path d="M 37.796875 64.3125 
L 12.890625 25.390625 
L 37.796875 25.390625 
z
M 35.203125 72.90625 
L 47.609375 72.90625 
L 47.609375 25.390625 
L 58.015625 25.390625 
L 58.015625 17.1875 
L 47.609375 17.1875 
L 47.609375 0 
L 37.796875 0 
L 37.796875 17.1875 
L 4.890625 17.1875 
L 4.890625 26.703125 
z
" id="DejaVuSans-52"/>
      </defs>
      <g transform="translate(235.899006 534.836875)scale(0.2 -0.2)">
       <use xlink:href="#DejaVuSans-8722"/>
       <use x="83.789062" xlink:href="#DejaVuSans-48"/>
       <use x="147.412109" xlink:href="#DejaVuSans-46"/>
       <use x="179.199219" xlink:href="#DejaVuSans-52"/>
      </g>
     </g>
    </g>
    <g id="xtick_3">
     <g id="line2d_3">
      <g>
       <use style="stroke:#000000;stroke-width:0.8;" x="381.927273" xlink:href="#m628ffb8768" y="512.64"/>
      </g>
     </g>
     <g id="text_3">
      <!-- −0.3 -->
      <defs>
       <path d="M 40.578125 39.3125 
Q 47.65625 37.796875 51.625 33 
Q 55.609375 28.21875 55.609375 21.1875 
Q 55.609375 10.40625 48.1875 4.484375 
Q 40.765625 -1.421875 27.09375 -1.421875 
Q 22.515625 -1.421875 17.65625 -0.515625 
Q 12.796875 0.390625 7.625 2.203125 
L 7.625 11.71875 
Q 11.71875 9.328125 16.59375 8.109375 
Q 21.484375 6.890625 26.8125 6.890625 
Q 36.078125 6.890625 40.9375 10.546875 
Q 45.796875 14.203125 45.796875 21.1875 
Q 45.796875 27.640625 41.28125 31.265625 
Q 36.765625 34.90625 28.71875 34.90625 
L 20.21875 34.90625 
L 20.21875 43.015625 
L 29.109375 43.015625 
Q 36.375 43.015625 40.234375 45.921875 
Q 44.09375 48.828125 44.09375 54.296875 
Q 44.09375 59.90625 40.109375 62.90625 
Q 36.140625 65.921875 28.71875 65.921875 
Q 24.65625 65.921875 20.015625 65.03125 
Q 15.375 64.15625 9.8125 62.3125 
L 9.8125 71.09375 
Q 15.4375 72.65625 20.34375 73.4375 
Q 25.25 74.21875 29.59375 74.21875 
Q 40.828125 74.21875 47.359375 69.109375 
Q 53.90625 64.015625 53.90625 55.328125 
Q 53.90625 49.265625 50.4375 45.09375 
Q 46.96875 40.921875 40.578125 39.3125 
z
" id="DejaVuSans-51"/>
      </defs>
      <g transform="translate(357.64446 534.836875)scale(0.2 -0.2)">
       <use xlink:href="#DejaVuSans-8722"/>
       <use x="83.789062" xlink:href="#DejaVuSans-48"/>
       <use x="147.412109" xlink:href="#DejaVuSans-46"/>
       <use x="179.199219" xlink:href="#DejaVuSans-51"/>
      </g>
     </g>
    </g>
    <g id="xtick_4">
     <g id="line2d_4">
      <g>
       <use style="stroke:#000000;stroke-width:0.8;" x="503.672727" xlink:href="#m628ffb8768" y="512.64"/>
      </g>
     </g>
     <g id="text_4">
      <!-- −0.2 -->
      <defs>
       <path d="M 19.1875 8.296875 
L 53.609375 8.296875 
L 53.609375 0 
L 7.328125 0 
L 7.328125 8.296875 
Q 12.9375 14.109375 22.625 23.890625 
Q 32.328125 33.6875 34.8125 36.53125 
Q 39.546875 41.84375 41.421875 45.53125 
Q 43.3125 49.21875 43.3125 52.78125 
Q 43.3125 58.59375 39.234375 62.25 
Q 35.15625 65.921875 28.609375 65.921875 
Q 23.96875 65.921875 18.8125 64.3125 
Q 13.671875 62.703125 7.8125 59.421875 
L 7.8125 69.390625 
Q 13.765625 71.78125 18.9375 73 
Q 24.125 74.21875 28.421875 74.21875 
Q 39.75 74.21875 46.484375 68.546875 
Q 53.21875 62.890625 53.21875 53.421875 
Q 53.21875 48.921875 51.53125 44.890625 
Q 49.859375 40.875 45.40625 35.40625 
Q 44.1875 33.984375 37.640625 27.21875 
Q 31.109375 20.453125 19.1875 8.296875 
z
" id="DejaVuSans-50"/>
      </defs>
      <g transform="translate(479.389915 534.836875)scale(0.2 -0.2)">
       <use xlink:href="#DejaVuSans-8722"/>
       <use x="83.789062" xlink:href="#DejaVuSans-48"/>
       <use x="147.412109" xlink:href="#DejaVuSans-46"/>
       <use x="179.199219" xlink:href="#DejaVuSans-50"/>
      </g>
     </g>
    </g>
    <g id="xtick_5">
     <g id="line2d_5">
      <g>
       <use style="stroke:#000000;stroke-width:0.8;" x="625.418182" xlink:href="#m628ffb8768" y="512.64"/>
      </g>
     </g>
     <g id="text_5">
      <!-- −0.1 -->
      <defs>
       <path d="M 12.40625 8.296875 
L 28.515625 8.296875 
L 28.515625 63.921875 
L 10.984375 60.40625 
L 10.984375 69.390625 
L 28.421875 72.90625 
L 38.28125 72.90625 
L 38.28125 8.296875 
L 54.390625 8.296875 
L 54.390625 0 
L 12.40625 0 
z
" id="DejaVuSans-49"/>
      </defs>
      <g transform="translate(601.135369 534.836875)scale(0.2 -0.2)">
       <use xlink:href="#DejaVuSans-8722"/>
       <use x="83.789062" xlink:href="#DejaVuSans-48"/>
       <use x="147.412109" xlink:href="#DejaVuSans-46"/>
       <use x="179.199219" xlink:href="#DejaVuSans-49"/>
      </g>
     </g>
    </g>
    <g id="xtick_6">
     <g id="line2d_6">
      <g>
       <use style="stroke:#000000;stroke-width:0.8;" x="747.163636" xlink:href="#m628ffb8768" y="512.64"/>
      </g>
     </g>
     <g id="text_6">
      <!-- 0.0 -->
      <g transform="translate(731.260511 534.836875)scale(0.2 -0.2)">
       <use xlink:href="#DejaVuSans-48"/>
       <use x="63.623047" xlink:href="#DejaVuSans-46"/>
       <use x="95.410156" xlink:href="#DejaVuSans-48"/>
      </g>
     </g>
    </g>
    <g id="text_7">
     <!-- $s$ -->
     <defs>
      <path d="M 50 53.078125 
L 48.296875 44.578125 
Q 44.734375 46.53125 40.765625 47.5 
Q 36.8125 48.484375 32.625 48.484375 
Q 25.53125 48.484375 21.453125 46.0625 
Q 17.390625 43.65625 17.390625 39.5 
Q 17.390625 34.671875 26.859375 32.078125 
Q 27.59375 31.890625 27.9375 31.78125 
L 30.8125 30.90625 
Q 39.796875 28.421875 42.796875 25.6875 
Q 45.796875 22.953125 45.796875 18.21875 
Q 45.796875 9.515625 38.890625 4.046875 
Q 31.984375 -1.421875 20.796875 -1.421875 
Q 16.453125 -1.421875 11.671875 -0.578125 
Q 6.890625 0.25 1.125 2 
L 2.875 11.28125 
Q 7.8125 8.734375 12.59375 7.421875 
Q 17.390625 6.109375 21.78125 6.109375 
Q 28.375 6.109375 32.5 8.9375 
Q 36.625 11.765625 36.625 16.109375 
Q 36.625 20.796875 25.78125 23.6875 
L 24.859375 23.921875 
L 21.78125 24.703125 
Q 14.9375 26.515625 11.765625 29.46875 
Q 8.59375 32.421875 8.59375 37.015625 
Q 8.59375 45.75 15.15625 50.875 
Q 21.734375 56 33.015625 56 
Q 37.453125 56 41.671875 55.265625 
Q 45.90625 54.546875 50 53.078125 
z
" id="DejaVuSans-Oblique-115"/>
     </defs>
     <g transform="translate(437.5 558.193125)scale(0.2 -0.2)">
      <use xlink:href="#DejaVuSans-Oblique-115"/>
     </g>
    </g>
   </g>
   <g id="matplotlib.axis_2">
    <g id="ytick_1">
     <g id="line2d_7">
      <defs>
       <path d="M 0 0 
L -3.5 0 
" id="m312fb458d6" style="stroke:#000000;stroke-width:0.8;"/>
      </defs>
      <g>
       <use style="stroke:#000000;stroke-width:0.8;" x="108" xlink:href="#m312fb458d6" y="492.48"/>
      </g>
     </g>
     <g id="text_8">
      <!-- 0.00 -->
      <g transform="translate(56.46875 500.078438)scale(0.2 -0.2)">
       <use xlink:href="#DejaVuSans-48"/>
       <use x="63.623047" xlink:href="#DejaVuSans-46"/>
       <use x="95.410156" xlink:href="#DejaVuSans-48"/>
       <use x="159.033203" xlink:href="#DejaVuSans-48"/>
      </g>
     </g>
    </g>
    <g id="ytick_2">
     <g id="line2d_8">
      <g>
       <use style="stroke:#000000;stroke-width:0.8;" x="108" xlink:href="#m312fb458d6" y="427.449767"/>
      </g>
     </g>
     <g id="text_9">
      <!-- 0.02 -->
      <g transform="translate(56.46875 435.048205)scale(0.2 -0.2)">
       <use xlink:href="#DejaVuSans-48"/>
       <use x="63.623047" xlink:href="#DejaVuSans-46"/>
       <use x="95.410156" xlink:href="#DejaVuSans-48"/>
       <use x="159.033203" xlink:href="#DejaVuSans-50"/>
      </g>
     </g>
    </g>
    <g id="ytick_3">
     <g id="line2d_9">
      <g>
       <use style="stroke:#000000;stroke-width:0.8;" x="108" xlink:href="#m312fb458d6" y="362.419535"/>
      </g>
     </g>
     <g id="text_10">
      <!-- 0.04 -->
      <g transform="translate(56.46875 370.017972)scale(0.2 -0.2)">
       <use xlink:href="#DejaVuSans-48"/>
       <use x="63.623047" xlink:href="#DejaVuSans-46"/>
       <use x="95.410156" xlink:href="#DejaVuSans-48"/>
       <use x="159.033203" xlink:href="#DejaVuSans-52"/>
      </g>
     </g>
    </g>
    <g id="ytick_4">
     <g id="line2d_10">
      <g>
       <use style="stroke:#000000;stroke-width:0.8;" x="108" xlink:href="#m312fb458d6" y="297.389302"/>
      </g>
     </g>
     <g id="text_11">
      <!-- 0.06 -->
      <defs>
       <path d="M 33.015625 40.375 
Q 26.375 40.375 22.484375 35.828125 
Q 18.609375 31.296875 18.609375 23.390625 
Q 18.609375 15.53125 22.484375 10.953125 
Q 26.375 6.390625 33.015625 6.390625 
Q 39.65625 6.390625 43.53125 10.953125 
Q 47.40625 15.53125 47.40625 23.390625 
Q 47.40625 31.296875 43.53125 35.828125 
Q 39.65625 40.375 33.015625 40.375 
z
M 52.59375 71.296875 
L 52.59375 62.3125 
Q 48.875 64.0625 45.09375 64.984375 
Q 41.3125 65.921875 37.59375 65.921875 
Q 27.828125 65.921875 22.671875 59.328125 
Q 17.53125 52.734375 16.796875 39.40625 
Q 19.671875 43.65625 24.015625 45.921875 
Q 28.375 48.1875 33.59375 48.1875 
Q 44.578125 48.1875 50.953125 41.515625 
Q 57.328125 34.859375 57.328125 23.390625 
Q 57.328125 12.15625 50.6875 5.359375 
Q 44.046875 -1.421875 33.015625 -1.421875 
Q 20.359375 -1.421875 13.671875 8.265625 
Q 6.984375 17.96875 6.984375 36.375 
Q 6.984375 53.65625 15.1875 63.9375 
Q 23.390625 74.21875 37.203125 74.21875 
Q 40.921875 74.21875 44.703125 73.484375 
Q 48.484375 72.75 52.59375 71.296875 
z
" id="DejaVuSans-54"/>
      </defs>
      <g transform="translate(56.46875 304.98774)scale(0.2 -0.2)">
       <use xlink:href="#DejaVuSans-48"/>
       <use x="63.623047" xlink:href="#DejaVuSans-46"/>
       <use x="95.410156" xlink:href="#DejaVuSans-48"/>
       <use x="159.033203" xlink:href="#DejaVuSans-54"/>
      </g>
     </g>
    </g>
    <g id="ytick_5">
     <g id="line2d_11">
      <g>
       <use style="stroke:#000000;stroke-width:0.8;" x="108" xlink:href="#m312fb458d6" y="232.35907"/>
      </g>
     </g>
     <g id="text_12">
      <!-- 0.08 -->
      <defs>
       <path d="M 31.78125 34.625 
Q 24.75 34.625 20.71875 30.859375 
Q 16.703125 27.09375 16.703125 20.515625 
Q 16.703125 13.921875 20.71875 10.15625 
Q 24.75 6.390625 31.78125 6.390625 
Q 38.8125 6.390625 42.859375 10.171875 
Q 46.921875 13.96875 46.921875 20.515625 
Q 46.921875 27.09375 42.890625 30.859375 
Q 38.875 34.625 31.78125 34.625 
z
M 21.921875 38.8125 
Q 15.578125 40.375 12.03125 44.71875 
Q 8.5 49.078125 8.5 55.328125 
Q 8.5 64.0625 14.71875 69.140625 
Q 20.953125 74.21875 31.78125 74.21875 
Q 42.671875 74.21875 48.875 69.140625 
Q 55.078125 64.0625 55.078125 55.328125 
Q 55.078125 49.078125 51.53125 44.71875 
Q 48 40.375 41.703125 38.8125 
Q 48.828125 37.15625 52.796875 32.3125 
Q 56.78125 27.484375 56.78125 20.515625 
Q 56.78125 9.90625 50.3125 4.234375 
Q 43.84375 -1.421875 31.78125 -1.421875 
Q 19.734375 -1.421875 13.25 4.234375 
Q 6.78125 9.90625 6.78125 20.515625 
Q 6.78125 27.484375 10.78125 32.3125 
Q 14.796875 37.15625 21.921875 38.8125 
z
M 18.3125 54.390625 
Q 18.3125 48.734375 21.84375 45.5625 
Q 25.390625 42.390625 31.78125 42.390625 
Q 38.140625 42.390625 41.71875 45.5625 
Q 45.3125 48.734375 45.3125 54.390625 
Q 45.3125 60.0625 41.71875 63.234375 
Q 38.140625 66.40625 31.78125 66.40625 
Q 25.390625 66.40625 21.84375 63.234375 
Q 18.3125 60.0625 18.3125 54.390625 
z
" id="DejaVuSans-56"/>
      </defs>
      <g transform="translate(56.46875 239.957507)scale(0.2 -0.2)">
       <use xlink:href="#DejaVuSans-48"/>
       <use x="63.623047" xlink:href="#DejaVuSans-46"/>
       <use x="95.410156" xlink:href="#DejaVuSans-48"/>
       <use x="159.033203" xlink:href="#DejaVuSans-56"/>
      </g>
     </g>
    </g>
    <g id="ytick_6">
     <g id="line2d_12">
      <g>
       <use style="stroke:#000000;stroke-width:0.8;" x="108" xlink:href="#m312fb458d6" y="167.328837"/>
      </g>
     </g>
     <g id="text_13">
      <!-- 0.10 -->
      <g transform="translate(56.46875 174.927275)scale(0.2 -0.2)">
       <use xlink:href="#DejaVuSans-48"/>
       <use x="63.623047" xlink:href="#DejaVuSans-46"/>
       <use x="95.410156" xlink:href="#DejaVuSans-49"/>
       <use x="159.033203" xlink:href="#DejaVuSans-48"/>
      </g>
     </g>
    </g>
    <g id="ytick_7">
     <g id="line2d_13">
      <g>
       <use style="stroke:#000000;stroke-width:0.8;" x="108" xlink:href="#m312fb458d6" y="102.298605"/>
      </g>
     </g>
     <g id="text_14">
      <!-- 0.12 -->
      <g transform="translate(56.46875 109.897042)scale(0.2 -0.2)">
       <use xlink:href="#DejaVuSans-48"/>
       <use x="63.623047" xlink:href="#DejaVuSans-46"/>
       <use x="95.410156" xlink:href="#DejaVuSans-49"/>
       <use x="159.033203" xlink:href="#DejaVuSans-50"/>
      </g>
     </g>
    </g>
    <g id="text_15">
     <!-- $\psi_{p^2, N}(s, \tau)$ -->
     <defs>
      <path d="M 24.859375 -1.21875 
Q 13.921875 0.59375 9.625 5.328125 
Q 4.34375 11.140625 6.640625 23 
L 12.796875 54.6875 
L 21.875 54.6875 
L 15.765625 23.34375 
Q 14.0625 14.40625 17.484375 10.6875 
Q 20.515625 7.46875 26.421875 6.78125 
L 35.6875 54.6875 
L 44.625 54.6875 
L 35.359375 6.84375 
Q 41.890625 7.515625 45.75 10.75 
Q 50.734375 14.84375 52.390625 23.390625 
L 58.453125 54.6875 
L 67.53125 54.6875 
L 61.375 23.046875 
Q 58.984375 10.75 51.5625 5.375 
Q 44.875 0.53125 33.796875 -1.171875 
L 29.984375 -20.796875 
L 21.046875 -20.796875 
z
" id="DejaVuSans-Oblique-968"/>
      <path d="M 49.609375 33.6875 
Q 49.609375 40.875 46.484375 44.671875 
Q 43.359375 48.484375 37.5 48.484375 
Q 33.5 48.484375 29.859375 46.4375 
Q 26.21875 44.390625 23.390625 40.484375 
Q 20.609375 36.625 18.9375 31.15625 
Q 17.28125 25.6875 17.28125 20.3125 
Q 17.28125 13.484375 20.40625 9.796875 
Q 23.53125 6.109375 29.296875 6.109375 
Q 33.546875 6.109375 37.1875 8.109375 
Q 40.828125 10.109375 43.40625 13.921875 
Q 46.1875 17.921875 47.890625 23.34375 
Q 49.609375 28.765625 49.609375 33.6875 
z
M 21.78125 46.390625 
Q 25.390625 51.125 30.296875 53.5625 
Q 35.203125 56 41.21875 56 
Q 49.609375 56 54.25 50.5 
Q 58.890625 45.015625 58.890625 35.109375 
Q 58.890625 27 56 19.65625 
Q 53.125 12.3125 47.703125 6.5 
Q 44.09375 2.640625 39.546875 0.609375 
Q 35.015625 -1.421875 29.984375 -1.421875 
Q 24.171875 -1.421875 20.21875 1 
Q 16.265625 3.421875 14.3125 8.203125 
L 8.6875 -20.796875 
L -0.296875 -20.796875 
L 14.40625 54.6875 
L 23.390625 54.6875 
z
" id="DejaVuSans-Oblique-112"/>
      <path d="M 11.71875 12.40625 
L 22.015625 12.40625 
L 22.015625 4 
L 14.015625 -11.625 
L 7.71875 -11.625 
L 11.71875 4 
z
" id="DejaVuSans-44"/>
      <path d="M 16.890625 72.90625 
L 30.171875 72.90625 
L 50.296875 10.40625 
L 62.5 72.90625 
L 72.125 72.90625 
L 57.90625 0 
L 44.578125 0 
L 24.515625 62.890625 
L 12.3125 0 
L 2.6875 0 
z
" id="DejaVuSans-Oblique-78"/>
      <path d="M 31 75.875 
Q 24.46875 64.65625 21.28125 53.65625 
Q 18.109375 42.671875 18.109375 31.390625 
Q 18.109375 20.125 21.3125 9.0625 
Q 24.515625 -2 31 -13.1875 
L 23.1875 -13.1875 
Q 15.875 -1.703125 12.234375 9.375 
Q 8.59375 20.453125 8.59375 31.390625 
Q 8.59375 42.28125 12.203125 53.3125 
Q 15.828125 64.359375 23.1875 75.875 
z
" id="DejaVuSans-40"/>
      <path d="M 32.859375 9.96875 
Q 34.1875 7.625 39.453125 7.625 
L 43.75 7.625 
L 42.28125 0 
L 36.921875 0 
Q 28.125 0 25 4.6875 
Q 21.921875 9.46875 23.96875 19.828125 
L 29 45.703125 
L 8.453125 45.703125 
L 10.203125 54.6875 
L 60.640625 54.6875 
L 58.890625 45.703125 
L 38.1875 45.703125 
L 33.015625 19.28125 
Q 31.640625 12.203125 32.859375 9.96875 
z
" id="DejaVuSans-Oblique-964"/>
      <path d="M 8.015625 75.875 
L 15.828125 75.875 
Q 23.140625 64.359375 26.78125 53.3125 
Q 30.421875 42.28125 30.421875 31.390625 
Q 30.421875 20.453125 26.78125 9.375 
Q 23.140625 -1.703125 15.828125 -13.1875 
L 8.015625 -13.1875 
Q 14.5 -2 17.703125 9.0625 
Q 20.90625 20.125 20.90625 31.390625 
Q 20.90625 42.671875 17.703125 53.65625 
Q 14.5 64.65625 8.015625 75.875 
z
" id="DejaVuSans-41"/>
     </defs>
     <g transform="translate(46.26875 338.88)rotate(-90)scale(0.2 -0.2)">
      <use transform="translate(0 0.125)" xlink:href="#DejaVuSans-Oblique-968"/>
      <use transform="translate(65.966797 -16.28125)scale(0.7)" xlink:href="#DejaVuSans-Oblique-112"/>
      <use transform="translate(113.655318 10.515625)scale(0.49)" xlink:href="#DejaVuSans-50"/>
      <use transform="translate(146.744673 -16.28125)scale(0.7)" xlink:href="#DejaVuSans-44"/>
      <use transform="translate(182.633345 -16.28125)scale(0.7)" xlink:href="#DejaVuSans-Oblique-78"/>
      <use transform="translate(237.731001 0.125)" xlink:href="#DejaVuSans-40"/>
      <use transform="translate(276.744673 0.125)" xlink:href="#DejaVuSans-Oblique-115"/>
      <use transform="translate(328.844283 0.125)" xlink:href="#DejaVuSans-44"/>
      <use transform="translate(380.113814 0.125)" xlink:href="#DejaVuSans-Oblique-964"/>
      <use transform="translate(440.318892 0.125)" xlink:href="#DejaVuSans-41"/>
     </g>
    </g>
   </g>
   <g id="LineCollection_1">
    <path clip-path="url(#p0ec1678614)" d="M 138.436364 126.365271 
L 138.436364 116.95185 
" style="fill:none;stroke:#5cff00;stroke-width:1.5;"/>
    <path clip-path="url(#p0ec1678614)" d="M 199.309091 184.590141 
L 199.309091 176.714369 
" style="fill:none;stroke:#5cff00;stroke-width:1.5;"/>
    <path clip-path="url(#p0ec1678614)" d="M 260.181818 252.720739 
L 260.181818 248.865595 
" style="fill:none;stroke:#5cff00;stroke-width:1.5;"/>
    <path clip-path="url(#p0ec1678614)" d="M 321.054545 301.209399 
L 321.054545 298.717013 
" style="fill:none;stroke:#5cff00;stroke-width:1.5;"/>
    <path clip-path="url(#p0ec1678614)" d="M 381.927273 347.059627 
L 381.927273 344.772299 
" style="fill:none;stroke:#5cff00;stroke-width:1.5;"/>
    <path clip-path="url(#p0ec1678614)" d="M 442.8 382.287638 
L 442.8 380.044747 
" style="fill:none;stroke:#5cff00;stroke-width:1.5;"/>
    <path clip-path="url(#p0ec1678614)" d="M 503.672727 411.335367 
L 503.672727 410.414871 
" style="fill:none;stroke:#5cff00;stroke-width:1.5;"/>
    <path clip-path="url(#p0ec1678614)" d="M 564.545455 434.846321 
L 564.545455 434.470666 
" style="fill:none;stroke:#5cff00;stroke-width:1.5;"/>
    <path clip-path="url(#p0ec1678614)" d="M 625.418182 456.388394 
L 625.418182 456.076097 
" style="fill:none;stroke:#5cff00;stroke-width:1.5;"/>
    <path clip-path="url(#p0ec1678614)" d="M 686.290909 475.490716 
L 686.290909 475.327131 
" style="fill:none;stroke:#5cff00;stroke-width:1.5;"/>
    <path clip-path="url(#p0ec1678614)" d="M 747.163636 492.48 
L 747.163636 492.48 
" style="fill:none;stroke:#5cff00;stroke-width:1.5;"/>
   </g>
   <g id="LineCollection_2">
    <path clip-path="url(#p0ec1678614)" d="M 138.436364 95.427514 
L 138.436364 94.833201 
" style="fill:none;stroke:#008fff;stroke-width:1.5;"/>
    <path clip-path="url(#p0ec1678614)" d="M 199.309091 171.725237 
L 199.309091 171.015055 
" style="fill:none;stroke:#008fff;stroke-width:1.5;"/>
    <path clip-path="url(#p0ec1678614)" d="M 260.181818 239.201358 
L 260.181818 238.284511 
" style="fill:none;stroke:#008fff;stroke-width:1.5;"/>
    <path clip-path="url(#p0ec1678614)" d="M 321.054545 296.323426 
L 321.054545 295.857314 
" style="fill:none;stroke:#008fff;stroke-width:1.5;"/>
    <path clip-path="url(#p0ec1678614)" d="M 381.927273 342.390413 
L 381.927273 341.837019 
" style="fill:none;stroke:#008fff;stroke-width:1.5;"/>
    <path clip-path="url(#p0ec1678614)" d="M 442.8 379.950305 
L 442.8 379.764736 
" style="fill:none;stroke:#008fff;stroke-width:1.5;"/>
    <path clip-path="url(#p0ec1678614)" d="M 503.672727 409.862913 
L 503.672727 409.676594 
" style="fill:none;stroke:#008fff;stroke-width:1.5;"/>
    <path clip-path="url(#p0ec1678614)" d="M 564.545455 434.971937 
L 564.545455 434.889718 
" style="fill:none;stroke:#008fff;stroke-width:1.5;"/>
    <path clip-path="url(#p0ec1678614)" d="M 625.418182 456.459763 
L 625.418182 456.441104 
" style="fill:none;stroke:#008fff;stroke-width:1.5;"/>
    <path clip-path="url(#p0ec1678614)" d="M 686.290909 475.428409 
L 686.290909 475.423458 
" style="fill:none;stroke:#008fff;stroke-width:1.5;"/>
    <path clip-path="url(#p0ec1678614)" d="M 747.163636 492.48 
L 747.163636 492.48 
" style="fill:none;stroke:#008fff;stroke-width:1.5;"/>
   </g>
   <g id="LineCollection_3">
    <path clip-path="url(#p0ec1678614)" d="M 138.436364 97.544467 
L 138.436364 94.036331 
" style="fill:none;stroke:#5cff00;stroke-width:1.5;"/>
    <path clip-path="url(#p0ec1678614)" d="M 199.309091 172.386727 
L 199.309091 169.409123 
" style="fill:none;stroke:#5cff00;stroke-width:1.5;"/>
    <path clip-path="url(#p0ec1678614)" d="M 260.181818 239.762869 
L 260.181818 235.984323 
" style="fill:none;stroke:#5cff00;stroke-width:1.5;"/>
    <path clip-path="url(#p0ec1678614)" d="M 321.054545 296.793025 
L 321.054545 295.122235 
" style="fill:none;stroke:#5cff00;stroke-width:1.5;"/>
    <path clip-path="url(#p0ec1678614)" d="M 381.927273 343.557086 
L 381.927273 342.451281 
" style="fill:none;stroke:#5cff00;stroke-width:1.5;"/>
    <path clip-path="url(#p0ec1678614)" d="M 442.8 379.828349 
L 442.8 378.919488 
" style="fill:none;stroke:#5cff00;stroke-width:1.5;"/>
    <path clip-path="url(#p0ec1678614)" d="M 503.672727 409.229273 
L 503.672727 408.754903 
" style="fill:none;stroke:#5cff00;stroke-width:1.5;"/>
    <path clip-path="url(#p0ec1678614)" d="M 564.545455 435.236134 
L 564.545455 434.866732 
" style="fill:none;stroke:#5cff00;stroke-width:1.5;"/>
    <path clip-path="url(#p0ec1678614)" d="M 625.418182 456.44169 
L 625.418182 456.308625 
" style="fill:none;stroke:#5cff00;stroke-width:1.5;"/>
    <path clip-path="url(#p0ec1678614)" d="M 686.290909 475.457081 
L 686.290909 475.418583 
" style="fill:none;stroke:#5cff00;stroke-width:1.5;"/>
    <path clip-path="url(#p0ec1678614)" d="M 747.163636 492.48 
L 747.163636 492.48 
" style="fill:none;stroke:#5cff00;stroke-width:1.5;"/>
   </g>
   <g id="LineCollection_4">
    <path clip-path="url(#p0ec1678614)" d="M 138.436364 95.700169 
L 138.436364 95.289537 
" style="fill:none;stroke:#008fff;stroke-width:1.5;"/>
    <path clip-path="url(#p0ec1678614)" d="M 199.309091 170.937439 
L 199.309091 170.539551 
" style="fill:none;stroke:#008fff;stroke-width:1.5;"/>
    <path clip-path="url(#p0ec1678614)" d="M 260.181818 238.237996 
L 260.181818 238.005725 
" style="fill:none;stroke:#008fff;stroke-width:1.5;"/>
    <path clip-path="url(#p0ec1678614)" d="M 321.054545 296.021199 
L 321.054545 295.698753 
" style="fill:none;stroke:#008fff;stroke-width:1.5;"/>
    <path clip-path="url(#p0ec1678614)" d="M 381.927273 342.37873 
L 381.927273 342.16349 
" style="fill:none;stroke:#008fff;stroke-width:1.5;"/>
    <path clip-path="url(#p0ec1678614)" d="M 442.8 379.782499 
L 442.8 379.649688 
" style="fill:none;stroke:#008fff;stroke-width:1.5;"/>
    <path clip-path="url(#p0ec1678614)" d="M 503.672727 409.841709 
L 503.672727 409.782002 
" style="fill:none;stroke:#008fff;stroke-width:1.5;"/>
    <path clip-path="url(#p0ec1678614)" d="M 564.545455 434.936008 
L 564.545455 434.903625 
" style="fill:none;stroke:#008fff;stroke-width:1.5;"/>
    <path clip-path="url(#p0ec1678614)" d="M 625.418182 456.471575 
L 625.418182 456.45819 
" style="fill:none;stroke:#008fff;stroke-width:1.5;"/>
    <path clip-path="url(#p0ec1678614)" d="M 686.290909 475.427264 
L 686.290909 475.424257 
" style="fill:none;stroke:#008fff;stroke-width:1.5;"/>
    <path clip-path="url(#p0ec1678614)" d="M 747.163636 492.48 
L 747.163636 492.48 
" style="fill:none;stroke:#008fff;stroke-width:1.5;"/>
   </g>
   <g id="LineCollection_5">
    <path clip-path="url(#p0ec1678614)" d="M 138.436364 93.232062 
L 138.436364 90.441866 
" style="fill:none;stroke:#5cff00;stroke-width:1.5;"/>
    <path clip-path="url(#p0ec1678614)" d="M 199.309091 171.295165 
L 199.309091 168.441373 
" style="fill:none;stroke:#5cff00;stroke-width:1.5;"/>
    <path clip-path="url(#p0ec1678614)" d="M 260.181818 237.128418 
L 260.181818 234.767074 
" style="fill:none;stroke:#5cff00;stroke-width:1.5;"/>
    <path clip-path="url(#p0ec1678614)" d="M 321.054545 295.305764 
L 321.054545 294.093522 
" style="fill:none;stroke:#5cff00;stroke-width:1.5;"/>
    <path clip-path="url(#p0ec1678614)" d="M 381.927273 342.088609 
L 381.927273 340.910675 
" style="fill:none;stroke:#5cff00;stroke-width:1.5;"/>
    <path clip-path="url(#p0ec1678614)" d="M 442.8 379.558997 
L 442.8 378.903054 
" style="fill:none;stroke:#5cff00;stroke-width:1.5;"/>
    <path clip-path="url(#p0ec1678614)" d="M 503.672727 409.634504 
L 503.672727 409.062758 
" style="fill:none;stroke:#5cff00;stroke-width:1.5;"/>
    <path clip-path="url(#p0ec1678614)" d="M 564.545455 434.848449 
L 564.545455 434.696825 
" style="fill:none;stroke:#5cff00;stroke-width:1.5;"/>
    <path clip-path="url(#p0ec1678614)" d="M 625.418182 456.478093 
L 625.418182 456.363748 
" style="fill:none;stroke:#5cff00;stroke-width:1.5;"/>
    <path clip-path="url(#p0ec1678614)" d="M 686.290909 475.424647 
L 686.290909 475.373925 
" style="fill:none;stroke:#5cff00;stroke-width:1.5;"/>
    <path clip-path="url(#p0ec1678614)" d="M 747.163636 492.48 
L 747.163636 492.48 
" style="fill:none;stroke:#5cff00;stroke-width:1.5;"/>
   </g>
   <g id="LineCollection_6">
    <path clip-path="url(#p0ec1678614)" d="M 138.436364 95.174763 
L 138.436364 94.927935 
" style="fill:none;stroke:#008fff;stroke-width:1.5;"/>
    <path clip-path="url(#p0ec1678614)" d="M 199.309091 170.779966 
L 199.309091 170.489318 
" style="fill:none;stroke:#008fff;stroke-width:1.5;"/>
    <path clip-path="url(#p0ec1678614)" d="M 260.181818 238.418507 
L 260.181818 238.215594 
" style="fill:none;stroke:#008fff;stroke-width:1.5;"/>
    <path clip-path="url(#p0ec1678614)" d="M 321.054545 295.647069 
L 321.054545 295.469845 
" style="fill:none;stroke:#008fff;stroke-width:1.5;"/>
    <path clip-path="url(#p0ec1678614)" d="M 381.927273 342.397698 
L 381.927273 342.296129 
" style="fill:none;stroke:#008fff;stroke-width:1.5;"/>
    <path clip-path="url(#p0ec1678614)" d="M 442.8 379.682168 
L 442.8 379.619723 
" style="fill:none;stroke:#008fff;stroke-width:1.5;"/>
    <path clip-path="url(#p0ec1678614)" d="M 503.672727 409.85615 
L 503.672727 409.820399 
" style="fill:none;stroke:#008fff;stroke-width:1.5;"/>
    <path clip-path="url(#p0ec1678614)" d="M 564.545455 434.936064 
L 564.545455 434.921939 
" style="fill:none;stroke:#008fff;stroke-width:1.5;"/>
    <path clip-path="url(#p0ec1678614)" d="M 625.418182 456.464466 
L 625.418182 456.455025 
" style="fill:none;stroke:#008fff;stroke-width:1.5;"/>
    <path clip-path="url(#p0ec1678614)" d="M 686.290909 475.426224 
L 686.290909 475.424331 
" style="fill:none;stroke:#008fff;stroke-width:1.5;"/>
    <path clip-path="url(#p0ec1678614)" d="M 747.163636 492.48 
L 747.163636 492.48 
" style="fill:none;stroke:#008fff;stroke-width:1.5;"/>
   </g>
   <g id="LineCollection_7">
    <path clip-path="url(#p0ec1678614)" d="M 138.436364 91.786953 
L 138.436364 89.28 
" style="fill:none;stroke:#5cff00;stroke-width:1.5;"/>
    <path clip-path="url(#p0ec1678614)" d="M 199.309091 168.617317 
L 199.309091 166.957161 
" style="fill:none;stroke:#5cff00;stroke-width:1.5;"/>
    <path clip-path="url(#p0ec1678614)" d="M 260.181818 236.812173 
L 260.181818 234.796086 
" style="fill:none;stroke:#5cff00;stroke-width:1.5;"/>
    <path clip-path="url(#p0ec1678614)" d="M 321.054545 294.649259 
L 321.054545 293.936873 
" style="fill:none;stroke:#5cff00;stroke-width:1.5;"/>
    <path clip-path="url(#p0ec1678614)" d="M 381.927273 341.539698 
L 381.927273 340.762204 
" style="fill:none;stroke:#5cff00;stroke-width:1.5;"/>
    <path clip-path="url(#p0ec1678614)" d="M 442.8 379.148762 
L 442.8 378.765181 
" style="fill:none;stroke:#5cff00;stroke-width:1.5;"/>
    <path clip-path="url(#p0ec1678614)" d="M 503.672727 409.816809 
L 503.672727 409.614912 
" style="fill:none;stroke:#5cff00;stroke-width:1.5;"/>
    <path clip-path="url(#p0ec1678614)" d="M 564.545455 434.93211 
L 564.545455 434.818706 
" style="fill:none;stroke:#5cff00;stroke-width:1.5;"/>
    <path clip-path="url(#p0ec1678614)" d="M 625.418182 456.43002 
L 625.418182 456.372073 
" style="fill:none;stroke:#5cff00;stroke-width:1.5;"/>
    <path clip-path="url(#p0ec1678614)" d="M 686.290909 475.416386 
L 686.290909 475.373691 
" style="fill:none;stroke:#5cff00;stroke-width:1.5;"/>
    <path clip-path="url(#p0ec1678614)" d="M 747.163636 492.48 
L 747.163636 492.48 
" style="fill:none;stroke:#5cff00;stroke-width:1.5;"/>
   </g>
   <g id="LineCollection_8">
    <path clip-path="url(#p0ec1678614)" d="M 138.436364 94.905561 
L 138.436364 94.761715 
" style="fill:none;stroke:#008fff;stroke-width:1.5;"/>
    <path clip-path="url(#p0ec1678614)" d="M 199.309091 170.702302 
L 199.309091 170.55362 
" style="fill:none;stroke:#008fff;stroke-width:1.5;"/>
    <path clip-path="url(#p0ec1678614)" d="M 260.181818 238.158959 
L 260.181818 238.064233 
" style="fill:none;stroke:#008fff;stroke-width:1.5;"/>
    <path clip-path="url(#p0ec1678614)" d="M 321.054545 295.558545 
L 321.054545 295.424154 
" style="fill:none;stroke:#008fff;stroke-width:1.5;"/>
    <path clip-path="url(#p0ec1678614)" d="M 381.927273 342.263876 
L 381.927273 342.188329 
" style="fill:none;stroke:#008fff;stroke-width:1.5;"/>
    <path clip-path="url(#p0ec1678614)" d="M 442.8 379.710396 
L 442.8 379.636374 
" style="fill:none;stroke:#008fff;stroke-width:1.5;"/>
    <path clip-path="url(#p0ec1678614)" d="M 503.672727 409.818632 
L 503.672727 409.778767 
" style="fill:none;stroke:#008fff;stroke-width:1.5;"/>
    <path clip-path="url(#p0ec1678614)" d="M 564.545455 434.940848 
L 564.545455 434.925164 
" style="fill:none;stroke:#008fff;stroke-width:1.5;"/>
    <path clip-path="url(#p0ec1678614)" d="M 625.418182 456.466096 
L 625.418182 456.45805 
" style="fill:none;stroke:#008fff;stroke-width:1.5;"/>
    <path clip-path="url(#p0ec1678614)" d="M 686.290909 475.426124 
L 686.290909 475.424977 
" style="fill:none;stroke:#008fff;stroke-width:1.5;"/>
    <path clip-path="url(#p0ec1678614)" d="M 747.163636 492.48 
L 747.163636 492.48 
" style="fill:none;stroke:#008fff;stroke-width:1.5;"/>
   </g>
   <g id="line2d_14">
    <path clip-path="url(#p0ec1678614)" d="M 138.436364 121.65856 
L 199.309091 180.652255 
L 260.181818 250.793167 
L 321.054545 299.963206 
L 381.927273 345.915963 
L 442.8 381.166193 
L 503.672727 410.875119 
L 564.545455 434.658493 
L 625.418182 456.232246 
L 686.290909 475.408923 
L 747.163636 492.48 
" style="fill:none;stroke:#5cff00;stroke-dasharray:4.5,1.5,1.5,1.5;stroke-dashoffset:0;stroke-width:1.5;"/>
   </g>
   <g id="line2d_15">
    <path clip-path="url(#p0ec1678614)" d="M 138.436364 95.130357 
L 199.309091 171.370146 
L 260.181818 238.742934 
L 321.054545 296.09037 
L 381.927273 342.113716 
L 442.8 379.85752 
L 503.672727 409.769753 
L 564.545455 434.930828 
L 625.418182 456.450433 
L 686.290909 475.425933 
L 747.163636 492.48 
" style="fill:none;stroke:#008fff;stroke-dasharray:4.5,1.5,1.5,1.5;stroke-dashoffset:0;stroke-width:1.5;"/>
   </g>
   <g id="line2d_16">
    <path clip-path="url(#p0ec1678614)" d="M 138.436364 95.790399 
L 199.309091 170.897925 
L 260.181818 237.873596 
L 321.054545 295.95763 
L 381.927273 343.004184 
L 442.8 379.373918 
L 503.672727 408.992088 
L 564.545455 435.051433 
L 625.418182 456.375158 
L 686.290909 475.437832 
L 747.163636 492.48 
" style="fill:none;stroke:#5cff00;stroke-dasharray:1.5,1.5;stroke-dashoffset:0;stroke-width:1.5;"/>
   </g>
   <g id="line2d_17">
    <path clip-path="url(#p0ec1678614)" d="M 138.436364 95.494853 
L 199.309091 170.738495 
L 260.181818 238.121861 
L 321.054545 295.859976 
L 381.927273 342.27111 
L 442.8 379.716094 
L 503.672727 409.811855 
L 564.545455 434.919817 
L 625.418182 456.464882 
L 686.290909 475.425761 
L 747.163636 492.48 
" style="fill:none;stroke:#008fff;stroke-dasharray:1.5,1.5;stroke-dashoffset:0;stroke-width:1.5;"/>
   </g>
   <g id="line2d_18">
    <path clip-path="url(#p0ec1678614)" d="M 138.436364 91.836964 
L 199.309091 169.868269 
L 260.181818 235.947746 
L 321.054545 294.699643 
L 381.927273 341.499642 
L 442.8 379.231026 
L 503.672727 409.348631 
L 564.545455 434.772637 
L 625.418182 456.42092 
L 686.290909 475.399286 
L 747.163636 492.48 
" style="fill:none;stroke:#5cff00;stroke-dasharray:7.5,1.5;stroke-dashoffset:0;stroke-width:1.5;"/>
   </g>
   <g id="line2d_19">
    <path clip-path="url(#p0ec1678614)" d="M 138.436364 95.051349 
L 199.309091 170.634642 
L 260.181818 238.317051 
L 321.054545 295.558457 
L 381.927273 342.346914 
L 442.8 379.650946 
L 503.672727 409.838275 
L 564.545455 434.929002 
L 625.418182 456.459746 
L 686.290909 475.425277 
L 747.163636 492.48 
" style="fill:none;stroke:#008fff;stroke-dasharray:7.5,1.5;stroke-dashoffset:0;stroke-width:1.5;"/>
   </g>
   <g id="line2d_20">
    <path clip-path="url(#p0ec1678614)" d="M 138.436364 90.533476 
L 199.309091 167.787239 
L 260.181818 235.80413 
L 321.054545 294.293066 
L 381.927273 341.150951 
L 442.8 378.956971 
L 503.672727 409.71586 
L 564.545455 434.875408 
L 625.418182 456.401046 
L 686.290909 475.395039 
L 747.163636 492.48 
" style="fill:none;stroke:#5cff00;stroke-dasharray:;stroke-dashoffset:0;stroke-width:1.5;"/>
   </g>
   <g id="line2d_21">
    <path clip-path="url(#p0ec1678614)" d="M 138.436364 94.833638 
L 199.309091 170.627961 
L 260.181818 238.111596 
L 321.054545 295.49135 
L 381.927273 342.226103 
L 442.8 379.673385 
L 503.672727 409.7987 
L 564.545455 434.933006 
L 625.418182 456.462073 
L 686.290909 475.42555 
L 747.163636 492.48 
" style="fill:none;stroke:#008fff;stroke-dasharray:;stroke-dashoffset:0;stroke-width:1.5;"/>
   </g>
   <g id="patch_3">
    <path d="M 108 512.64 
L 108 69.12 
" style="fill:none;stroke:#000000;stroke-linecap:square;stroke-linejoin:miter;stroke-width:0.8;"/>
   </g>
   <g id="patch_4">
    <path d="M 777.6 512.64 
L 777.6 69.12 
" style="fill:none;stroke:#000000;stroke-linecap:square;stroke-linejoin:miter;stroke-width:0.8;"/>
   </g>
   <g id="patch_5">
    <path d="M 108 512.64 
L 777.6 512.64 
" style="fill:none;stroke:#000000;stroke-linecap:square;stroke-linejoin:miter;stroke-width:0.8;"/>
   </g>
   <g id="patch_6">
    <path d="M 108 69.12 
L 777.6 69.12 
" style="fill:none;stroke:#000000;stroke-linecap:square;stroke-linejoin:miter;stroke-width:0.8;"/>
   </g>
   <g id="text_16">
    <!-- $N=10, D_r=0.5, \tau=10^2, N_{runs}=10$ -->
    <defs>
     <path d="M 10.59375 45.40625 
L 73.1875 45.40625 
L 73.1875 37.203125 
L 10.59375 37.203125 
z
M 10.59375 25.484375 
L 73.1875 25.484375 
L 73.1875 17.1875 
L 10.59375 17.1875 
z
" id="DejaVuSans-61"/>
     <path d="M 16.890625 72.90625 
L 38.09375 72.90625 
Q 54.984375 72.90625 63.59375 65.75 
Q 72.21875 58.59375 72.21875 44.484375 
Q 72.21875 35.15625 68.9375 26.53125 
Q 65.671875 17.921875 59.90625 12.015625 
Q 54.109375 5.953125 45.171875 2.96875 
Q 36.234375 0 24.03125 0 
L 2.6875 0 
z
M 25.203125 64.796875 
L 14.203125 8.109375 
L 27.09375 8.109375 
Q 43.65625 8.109375 52.734375 17.625 
Q 61.8125 27.15625 61.8125 44.484375 
Q 61.8125 54.984375 55.953125 59.890625 
Q 50.09375 64.796875 37.59375 64.796875 
z
" id="DejaVuSans-Oblique-68"/>
     <path d="M 44.578125 46.390625 
Q 43.21875 47.125 41.453125 47.515625 
Q 39.703125 47.90625 37.703125 47.90625 
Q 30.515625 47.90625 25.140625 42.453125 
Q 19.78125 37.015625 18.015625 27.875 
L 12.5 0 
L 3.515625 0 
L 14.203125 54.6875 
L 23.1875 54.6875 
L 21.484375 46.1875 
Q 25.046875 50.921875 30 53.453125 
Q 34.96875 56 40.578125 56 
Q 42.046875 56 43.453125 55.828125 
Q 44.875 55.671875 46.296875 55.28125 
z
" id="DejaVuSans-Oblique-114"/>
     <path d="M 6.6875 21.6875 
L 13.09375 54.6875 
L 22.125 54.6875 
L 15.71875 22.015625 
Q 15.234375 19.625 15.015625 17.921875 
Q 14.796875 16.21875 14.796875 15.09375 
Q 14.796875 10.9375 17.328125 8.65625 
Q 19.875 6.390625 24.515625 6.390625 
Q 31.734375 6.390625 37 11.265625 
Q 42.28125 16.15625 43.890625 24.421875 
L 49.90625 54.6875 
L 58.890625 54.6875 
L 48.296875 0 
L 39.3125 0 
L 41.109375 8.59375 
Q 37.3125 3.8125 32.0625 1.1875 
Q 26.8125 -1.421875 20.90625 -1.421875 
Q 13.71875 -1.421875 9.71875 2.515625 
Q 5.71875 6.453125 5.71875 13.484375 
Q 5.71875 14.9375 5.953125 17.140625 
Q 6.203125 19.34375 6.6875 21.6875 
z
" id="DejaVuSans-Oblique-117"/>
     <path d="M 55.71875 33.015625 
L 49.3125 0 
L 40.28125 0 
L 46.6875 32.671875 
Q 47.125 34.96875 47.359375 36.71875 
Q 47.609375 38.484375 47.609375 39.5 
Q 47.609375 43.609375 45.015625 45.890625 
Q 42.4375 48.1875 37.796875 48.1875 
Q 30.5625 48.1875 25.34375 43.375 
Q 20.125 38.578125 18.5 30.328125 
L 12.5 0 
L 3.515625 0 
L 14.109375 54.6875 
L 23.09375 54.6875 
L 21.296875 46.09375 
Q 25.046875 50.828125 30.3125 53.40625 
Q 35.59375 56 41.40625 56 
Q 48.640625 56 52.609375 52.09375 
Q 56.59375 48.1875 56.59375 41.109375 
Q 56.59375 39.359375 56.375 37.359375 
Q 56.15625 35.359375 55.71875 33.015625 
z
" id="DejaVuSans-Oblique-110"/>
    </defs>
    <g transform="translate(237.72 63.12)scale(0.24 -0.24)">
     <use transform="translate(0 0.765625)" xlink:href="#DejaVuSans-Oblique-78"/>
     <use transform="translate(94.287109 0.765625)" xlink:href="#DejaVuSans-61"/>
     <use transform="translate(197.558594 0.765625)" xlink:href="#DejaVuSans-49"/>
     <use transform="translate(261.181641 0.765625)" xlink:href="#DejaVuSans-48"/>
     <use transform="translate(324.804688 0.765625)" xlink:href="#DejaVuSans-44"/>
     <use transform="translate(376.074219 0.765625)" xlink:href="#DejaVuSans-Oblique-68"/>
     <use transform="translate(453.076172 -15.640625)scale(0.7)" xlink:href="#DejaVuSans-Oblique-114"/>
     <use transform="translate(504.072266 0.765625)" xlink:href="#DejaVuSans-61"/>
     <use transform="translate(607.34375 0.765625)" xlink:href="#DejaVuSans-48"/>
     <use transform="translate(670.966797 0.765625)" xlink:href="#DejaVuSans-46"/>
     <use transform="translate(702.753906 0.765625)" xlink:href="#DejaVuSans-53"/>
     <use transform="translate(766.376953 0.765625)" xlink:href="#DejaVuSans-44"/>
     <use transform="translate(817.646484 0.765625)" xlink:href="#DejaVuSans-Oblique-964"/>
     <use transform="translate(897.333984 0.765625)" xlink:href="#DejaVuSans-61"/>
     <use transform="translate(1000.605469 0.765625)" xlink:href="#DejaVuSans-49"/>
     <use transform="translate(1064.228516 0.765625)" xlink:href="#DejaVuSans-48"/>
     <use transform="translate(1128.808594 39.046875)scale(0.7)" xlink:href="#DejaVuSans-50"/>
     <use transform="translate(1176.079102 0.765625)" xlink:href="#DejaVuSans-44"/>
     <use transform="translate(1227.348633 0.765625)" xlink:href="#DejaVuSans-Oblique-78"/>
     <use transform="translate(1302.15332 -15.640625)scale(0.7)" xlink:href="#DejaVuSans-Oblique-114"/>
     <use transform="translate(1330.932617 -15.640625)scale(0.7)" xlink:href="#DejaVuSans-Oblique-117"/>
     <use transform="translate(1375.297852 -15.640625)scale(0.7)" xlink:href="#DejaVuSans-Oblique-110"/>
     <use transform="translate(1419.663086 -15.640625)scale(0.7)" xlink:href="#DejaVuSans-Oblique-115"/>
     <use transform="translate(1478.349609 0.765625)" xlink:href="#DejaVuSans-61"/>
     <use transform="translate(1581.621094 0.765625)" xlink:href="#DejaVuSans-49"/>
     <use transform="translate(1645.244141 0.765625)" xlink:href="#DejaVuSans-48"/>
    </g>
   </g>
   <g id="legend_1">
    <g id="patch_7">
     <path d="M 594.03375 184.4025 
L 769.2 184.4025 
Q 771.6 184.4025 771.6 182.0025 
L 771.6 77.52 
Q 771.6 75.12 769.2 75.12 
L 594.03375 75.12 
Q 591.63375 75.12 591.63375 77.52 
L 591.63375 182.0025 
Q 591.63375 184.4025 594.03375 184.4025 
z
" style="fill:#ffffff;opacity:0.8;stroke:#cccccc;stroke-linejoin:miter;"/>
    </g>
    <g id="line2d_22">
     <path d="M 596.43375 84.838125 
L 620.43375 84.838125 
" style="fill:none;stroke:#000000;stroke-dasharray:4.5,1.5,1.5,1.5;stroke-dashoffset:0;stroke-width:1.5;"/>
    </g>
    <g id="line2d_23"/>
    <g id="text_17">
     <!-- $N_{clones}=100$ -->
     <defs>
      <path d="M 53.609375 52.59375 
L 51.8125 43.703125 
Q 48.578125 46.046875 44.9375 47.21875 
Q 41.3125 48.390625 37.40625 48.390625 
Q 33.109375 48.390625 29.21875 46.875 
Q 25.34375 45.359375 22.703125 42.578125 
Q 18.5 38.328125 16.203125 32.609375 
Q 13.921875 26.90625 13.921875 20.796875 
Q 13.921875 13.421875 17.609375 9.8125 
Q 21.296875 6.203125 28.8125 6.203125 
Q 32.515625 6.203125 36.6875 7.328125 
Q 40.875 8.453125 45.40625 10.6875 
L 43.703125 1.8125 
Q 39.796875 0.203125 35.671875 -0.609375 
Q 31.546875 -1.421875 27.203125 -1.421875 
Q 16.3125 -1.421875 10.453125 4.015625 
Q 4.59375 9.46875 4.59375 19.578125 
Q 4.59375 28.078125 7.640625 35.234375 
Q 10.6875 42.390625 16.703125 48.09375 
Q 20.796875 52 26.3125 54 
Q 31.84375 56 38.375 56 
Q 42.1875 56 45.9375 55.140625 
Q 49.703125 54.296875 53.609375 52.59375 
z
" id="DejaVuSans-Oblique-99"/>
      <path d="M 18.3125 75.984375 
L 27.296875 75.984375 
L 12.5 0 
L 3.515625 0 
z
" id="DejaVuSans-Oblique-108"/>
      <path d="M 25.390625 -1.421875 
Q 15.765625 -1.421875 10.171875 4.515625 
Q 4.59375 10.453125 4.59375 20.703125 
Q 4.59375 26.65625 6.515625 32.828125 
Q 8.453125 39.015625 11.53125 43.21875 
Q 16.359375 49.75 22.3125 52.875 
Q 28.265625 56 35.796875 56 
Q 45.125 56 50.859375 50.1875 
Q 56.59375 44.390625 56.59375 35.015625 
Q 56.59375 28.515625 54.6875 22.0625 
Q 52.78125 15.625 49.703125 11.375 
Q 44.921875 4.828125 38.96875 1.703125 
Q 33.015625 -1.421875 25.390625 -1.421875 
z
M 13.921875 21 
Q 13.921875 13.578125 17.015625 9.890625 
Q 20.125 6.203125 26.421875 6.203125 
Q 35.453125 6.203125 41.375 14.078125 
Q 47.3125 21.96875 47.3125 34.078125 
Q 47.3125 41.15625 44.140625 44.765625 
Q 40.96875 48.390625 34.8125 48.390625 
Q 29.734375 48.390625 25.78125 46.015625 
Q 21.828125 43.65625 18.703125 38.8125 
Q 16.40625 35.203125 15.15625 30.5625 
Q 13.921875 25.921875 13.921875 21 
z
" id="DejaVuSans-Oblique-111"/>
      <path d="M 48.09375 32.234375 
Q 48.25 33.015625 48.3125 33.84375 
Q 48.390625 34.671875 48.390625 35.5 
Q 48.390625 41.453125 44.890625 44.921875 
Q 41.40625 48.390625 35.40625 48.390625 
Q 28.71875 48.390625 23.578125 44.15625 
Q 18.453125 39.9375 15.828125 32.171875 
z
M 55.90625 25.203125 
L 14.109375 25.203125 
Q 13.8125 23.34375 13.71875 22.265625 
Q 13.625 21.1875 13.625 20.40625 
Q 13.625 13.625 17.796875 9.90625 
Q 21.96875 6.203125 29.59375 6.203125 
Q 35.453125 6.203125 40.671875 7.515625 
Q 45.90625 8.84375 50.390625 11.375 
L 48.6875 2.484375 
Q 43.84375 0.53125 38.6875 -0.4375 
Q 33.546875 -1.421875 28.21875 -1.421875 
Q 16.84375 -1.421875 10.71875 4.015625 
Q 4.59375 9.46875 4.59375 19.484375 
Q 4.59375 28.03125 7.640625 35.375 
Q 10.6875 42.71875 16.609375 48.484375 
Q 20.40625 52.09375 25.65625 54.046875 
Q 30.90625 56 36.8125 56 
Q 46.09375 56 51.578125 50.4375 
Q 57.078125 44.875 57.078125 35.5 
Q 57.078125 33.25 56.78125 30.6875 
Q 56.5 28.125 55.90625 25.203125 
z
" id="DejaVuSans-Oblique-101"/>
     </defs>
     <g transform="translate(630.03375 89.038125)scale(0.12 -0.12)">
      <use transform="translate(0 0.78125)" xlink:href="#DejaVuSans-Oblique-78"/>
      <use transform="translate(74.804688 -15.625)scale(0.7)" xlink:href="#DejaVuSans-Oblique-99"/>
      <use transform="translate(113.291016 -15.625)scale(0.7)" xlink:href="#DejaVuSans-Oblique-108"/>
      <use transform="translate(132.739258 -15.625)scale(0.7)" xlink:href="#DejaVuSans-Oblique-111"/>
      <use transform="translate(175.566406 -15.625)scale(0.7)" xlink:href="#DejaVuSans-Oblique-110"/>
      <use transform="translate(219.931641 -15.625)scale(0.7)" xlink:href="#DejaVuSans-Oblique-101"/>
      <use transform="translate(262.998047 -15.625)scale(0.7)" xlink:href="#DejaVuSans-Oblique-115"/>
      <use transform="translate(321.68457 0.78125)" xlink:href="#DejaVuSans-61"/>
      <use transform="translate(424.956055 0.78125)" xlink:href="#DejaVuSans-49"/>
      <use transform="translate(488.579102 0.78125)" xlink:href="#DejaVuSans-48"/>
      <use transform="translate(552.202148 0.78125)" xlink:href="#DejaVuSans-48"/>
     </g>
    </g>
    <g id="line2d_24">
     <path d="M 596.43375 102.451875 
L 620.43375 102.451875 
" style="fill:none;stroke:#000000;stroke-dasharray:1.5,1.5;stroke-dashoffset:0;stroke-width:1.5;"/>
    </g>
    <g id="line2d_25"/>
    <g id="text_18">
     <!-- $N_{clones}=500$ -->
     <g transform="translate(630.03375 106.651875)scale(0.12 -0.12)">
      <use transform="translate(0 0.78125)" xlink:href="#DejaVuSans-Oblique-78"/>
      <use transform="translate(74.804688 -15.625)scale(0.7)" xlink:href="#DejaVuSans-Oblique-99"/>
      <use transform="translate(113.291016 -15.625)scale(0.7)" xlink:href="#DejaVuSans-Oblique-108"/>
      <use transform="translate(132.739258 -15.625)scale(0.7)" xlink:href="#DejaVuSans-Oblique-111"/>
      <use transform="translate(175.566406 -15.625)scale(0.7)" xlink:href="#DejaVuSans-Oblique-110"/>
      <use transform="translate(219.931641 -15.625)scale(0.7)" xlink:href="#DejaVuSans-Oblique-101"/>
      <use transform="translate(262.998047 -15.625)scale(0.7)" xlink:href="#DejaVuSans-Oblique-115"/>
      <use transform="translate(321.68457 0.78125)" xlink:href="#DejaVuSans-61"/>
      <use transform="translate(424.956055 0.78125)" xlink:href="#DejaVuSans-53"/>
      <use transform="translate(488.579102 0.78125)" xlink:href="#DejaVuSans-48"/>
      <use transform="translate(552.202148 0.78125)" xlink:href="#DejaVuSans-48"/>
     </g>
    </g>
    <g id="line2d_26">
     <path d="M 596.43375 120.065625 
L 620.43375 120.065625 
" style="fill:none;stroke:#000000;stroke-dasharray:7.5,1.5;stroke-dashoffset:0;stroke-width:1.5;"/>
    </g>
    <g id="line2d_27"/>
    <g id="text_19">
     <!-- $N_{clones}=1000$ -->
     <g transform="translate(630.03375 124.265625)scale(0.12 -0.12)">
      <use transform="translate(0 0.78125)" xlink:href="#DejaVuSans-Oblique-78"/>
      <use transform="translate(74.804688 -15.625)scale(0.7)" xlink:href="#DejaVuSans-Oblique-99"/>
      <use transform="translate(113.291016 -15.625)scale(0.7)" xlink:href="#DejaVuSans-Oblique-108"/>
      <use transform="translate(132.739258 -15.625)scale(0.7)" xlink:href="#DejaVuSans-Oblique-111"/>
      <use transform="translate(175.566406 -15.625)scale(0.7)" xlink:href="#DejaVuSans-Oblique-110"/>
      <use transform="translate(219.931641 -15.625)scale(0.7)" xlink:href="#DejaVuSans-Oblique-101"/>
      <use transform="translate(262.998047 -15.625)scale(0.7)" xlink:href="#DejaVuSans-Oblique-115"/>
      <use transform="translate(321.68457 0.78125)" xlink:href="#DejaVuSans-61"/>
      <use transform="translate(424.956055 0.78125)" xlink:href="#DejaVuSans-49"/>
      <use transform="translate(488.579102 0.78125)" xlink:href="#DejaVuSans-48"/>
      <use transform="translate(552.202148 0.78125)" xlink:href="#DejaVuSans-48"/>
      <use transform="translate(615.825195 0.78125)" xlink:href="#DejaVuSans-48"/>
     </g>
    </g>
    <g id="line2d_28">
     <path d="M 596.43375 137.679375 
L 620.43375 137.679375 
" style="fill:none;stroke:#000000;stroke-dasharray:;stroke-dashoffset:0;stroke-width:1.5;"/>
    </g>
    <g id="line2d_29"/>
    <g id="text_20">
     <!-- $N_{clones}=2000$ -->
     <g transform="translate(630.03375 141.879375)scale(0.12 -0.12)">
      <use transform="translate(0 0.78125)" xlink:href="#DejaVuSans-Oblique-78"/>
      <use transform="translate(74.804688 -15.625)scale(0.7)" xlink:href="#DejaVuSans-Oblique-99"/>
      <use transform="translate(113.291016 -15.625)scale(0.7)" xlink:href="#DejaVuSans-Oblique-108"/>
      <use transform="translate(132.739258 -15.625)scale(0.7)" xlink:href="#DejaVuSans-Oblique-111"/>
      <use transform="translate(175.566406 -15.625)scale(0.7)" xlink:href="#DejaVuSans-Oblique-110"/>
      <use transform="translate(219.931641 -15.625)scale(0.7)" xlink:href="#DejaVuSans-Oblique-101"/>
      <use transform="translate(262.998047 -15.625)scale(0.7)" xlink:href="#DejaVuSans-Oblique-115"/>
      <use transform="translate(321.68457 0.78125)" xlink:href="#DejaVuSans-61"/>
      <use transform="translate(424.956055 0.78125)" xlink:href="#DejaVuSans-50"/>
      <use transform="translate(488.579102 0.78125)" xlink:href="#DejaVuSans-48"/>
      <use transform="translate(552.202148 0.78125)" xlink:href="#DejaVuSans-48"/>
      <use transform="translate(615.825195 0.78125)" xlink:href="#DejaVuSans-48"/>
     </g>
    </g>
    <g id="line2d_30">
     <path d="M 596.43375 155.293125 
L 620.43375 155.293125 
" style="fill:none;stroke:#5cff00;stroke-linecap:square;stroke-width:1.5;"/>
    </g>
    <g id="line2d_31"/>
    <g id="text_21">
     <!-- uncontrolled dynamics -->
     <defs>
      <path d="M 8.5 21.578125 
L 8.5 54.6875 
L 17.484375 54.6875 
L 17.484375 21.921875 
Q 17.484375 14.15625 20.5 10.265625 
Q 23.53125 6.390625 29.59375 6.390625 
Q 36.859375 6.390625 41.078125 11.03125 
Q 45.3125 15.671875 45.3125 23.6875 
L 45.3125 54.6875 
L 54.296875 54.6875 
L 54.296875 0 
L 45.3125 0 
L 45.3125 8.40625 
Q 42.046875 3.421875 37.71875 1 
Q 33.40625 -1.421875 27.6875 -1.421875 
Q 18.265625 -1.421875 13.375 4.4375 
Q 8.5 10.296875 8.5 21.578125 
z
M 31.109375 56 
z
" id="DejaVuSans-117"/>
      <path d="M 54.890625 33.015625 
L 54.890625 0 
L 45.90625 0 
L 45.90625 32.71875 
Q 45.90625 40.484375 42.875 44.328125 
Q 39.84375 48.1875 33.796875 48.1875 
Q 26.515625 48.1875 22.3125 43.546875 
Q 18.109375 38.921875 18.109375 30.90625 
L 18.109375 0 
L 9.078125 0 
L 9.078125 54.6875 
L 18.109375 54.6875 
L 18.109375 46.1875 
Q 21.34375 51.125 25.703125 53.5625 
Q 30.078125 56 35.796875 56 
Q 45.21875 56 50.046875 50.171875 
Q 54.890625 44.34375 54.890625 33.015625 
z
" id="DejaVuSans-110"/>
      <path d="M 48.78125 52.59375 
L 48.78125 44.1875 
Q 44.96875 46.296875 41.140625 47.34375 
Q 37.3125 48.390625 33.40625 48.390625 
Q 24.65625 48.390625 19.8125 42.84375 
Q 14.984375 37.3125 14.984375 27.296875 
Q 14.984375 17.28125 19.8125 11.734375 
Q 24.65625 6.203125 33.40625 6.203125 
Q 37.3125 6.203125 41.140625 7.25 
Q 44.96875 8.296875 48.78125 10.40625 
L 48.78125 2.09375 
Q 45.015625 0.34375 40.984375 -0.53125 
Q 36.96875 -1.421875 32.421875 -1.421875 
Q 20.0625 -1.421875 12.78125 6.34375 
Q 5.515625 14.109375 5.515625 27.296875 
Q 5.515625 40.671875 12.859375 48.328125 
Q 20.21875 56 33.015625 56 
Q 37.15625 56 41.109375 55.140625 
Q 45.0625 54.296875 48.78125 52.59375 
z
" id="DejaVuSans-99"/>
      <path d="M 30.609375 48.390625 
Q 23.390625 48.390625 19.1875 42.75 
Q 14.984375 37.109375 14.984375 27.296875 
Q 14.984375 17.484375 19.15625 11.84375 
Q 23.34375 6.203125 30.609375 6.203125 
Q 37.796875 6.203125 41.984375 11.859375 
Q 46.1875 17.53125 46.1875 27.296875 
Q 46.1875 37.015625 41.984375 42.703125 
Q 37.796875 48.390625 30.609375 48.390625 
z
M 30.609375 56 
Q 42.328125 56 49.015625 48.375 
Q 55.71875 40.765625 55.71875 27.296875 
Q 55.71875 13.875 49.015625 6.21875 
Q 42.328125 -1.421875 30.609375 -1.421875 
Q 18.84375 -1.421875 12.171875 6.21875 
Q 5.515625 13.875 5.515625 27.296875 
Q 5.515625 40.765625 12.171875 48.375 
Q 18.84375 56 30.609375 56 
z
" id="DejaVuSans-111"/>
      <path d="M 18.3125 70.21875 
L 18.3125 54.6875 
L 36.8125 54.6875 
L 36.8125 47.703125 
L 18.3125 47.703125 
L 18.3125 18.015625 
Q 18.3125 11.328125 20.140625 9.421875 
Q 21.96875 7.515625 27.59375 7.515625 
L 36.8125 7.515625 
L 36.8125 0 
L 27.59375 0 
Q 17.1875 0 13.234375 3.875 
Q 9.28125 7.765625 9.28125 18.015625 
L 9.28125 47.703125 
L 2.6875 47.703125 
L 2.6875 54.6875 
L 9.28125 54.6875 
L 9.28125 70.21875 
z
" id="DejaVuSans-116"/>
      <path d="M 41.109375 46.296875 
Q 39.59375 47.171875 37.8125 47.578125 
Q 36.03125 48 33.890625 48 
Q 26.265625 48 22.1875 43.046875 
Q 18.109375 38.09375 18.109375 28.8125 
L 18.109375 0 
L 9.078125 0 
L 9.078125 54.6875 
L 18.109375 54.6875 
L 18.109375 46.1875 
Q 20.953125 51.171875 25.484375 53.578125 
Q 30.03125 56 36.53125 56 
Q 37.453125 56 38.578125 55.875 
Q 39.703125 55.765625 41.0625 55.515625 
z
" id="DejaVuSans-114"/>
      <path d="M 9.421875 75.984375 
L 18.40625 75.984375 
L 18.40625 0 
L 9.421875 0 
z
" id="DejaVuSans-108"/>
      <path d="M 56.203125 29.59375 
L 56.203125 25.203125 
L 14.890625 25.203125 
Q 15.484375 15.921875 20.484375 11.0625 
Q 25.484375 6.203125 34.421875 6.203125 
Q 39.59375 6.203125 44.453125 7.46875 
Q 49.3125 8.734375 54.109375 11.28125 
L 54.109375 2.78125 
Q 49.265625 0.734375 44.1875 -0.34375 
Q 39.109375 -1.421875 33.890625 -1.421875 
Q 20.796875 -1.421875 13.15625 6.1875 
Q 5.515625 13.8125 5.515625 26.8125 
Q 5.515625 40.234375 12.765625 48.109375 
Q 20.015625 56 32.328125 56 
Q 43.359375 56 49.78125 48.890625 
Q 56.203125 41.796875 56.203125 29.59375 
z
M 47.21875 32.234375 
Q 47.125 39.59375 43.09375 43.984375 
Q 39.0625 48.390625 32.421875 48.390625 
Q 24.90625 48.390625 20.390625 44.140625 
Q 15.875 39.890625 15.1875 32.171875 
z
" id="DejaVuSans-101"/>
      <path d="M 45.40625 46.390625 
L 45.40625 75.984375 
L 54.390625 75.984375 
L 54.390625 0 
L 45.40625 0 
L 45.40625 8.203125 
Q 42.578125 3.328125 38.25 0.953125 
Q 33.9375 -1.421875 27.875 -1.421875 
Q 17.96875 -1.421875 11.734375 6.484375 
Q 5.515625 14.40625 5.515625 27.296875 
Q 5.515625 40.1875 11.734375 48.09375 
Q 17.96875 56 27.875 56 
Q 33.9375 56 38.25 53.625 
Q 42.578125 51.265625 45.40625 46.390625 
z
M 14.796875 27.296875 
Q 14.796875 17.390625 18.875 11.75 
Q 22.953125 6.109375 30.078125 6.109375 
Q 37.203125 6.109375 41.296875 11.75 
Q 45.40625 17.390625 45.40625 27.296875 
Q 45.40625 37.203125 41.296875 42.84375 
Q 37.203125 48.484375 30.078125 48.484375 
Q 22.953125 48.484375 18.875 42.84375 
Q 14.796875 37.203125 14.796875 27.296875 
z
" id="DejaVuSans-100"/>
      <path id="DejaVuSans-32"/>
      <path d="M 32.171875 -5.078125 
Q 28.375 -14.84375 24.75 -17.8125 
Q 21.140625 -20.796875 15.09375 -20.796875 
L 7.90625 -20.796875 
L 7.90625 -13.28125 
L 13.1875 -13.28125 
Q 16.890625 -13.28125 18.9375 -11.515625 
Q 21 -9.765625 23.484375 -3.21875 
L 25.09375 0.875 
L 2.984375 54.6875 
L 12.5 54.6875 
L 29.59375 11.921875 
L 46.6875 54.6875 
L 56.203125 54.6875 
z
" id="DejaVuSans-121"/>
      <path d="M 34.28125 27.484375 
Q 23.390625 27.484375 19.1875 25 
Q 14.984375 22.515625 14.984375 16.5 
Q 14.984375 11.71875 18.140625 8.90625 
Q 21.296875 6.109375 26.703125 6.109375 
Q 34.1875 6.109375 38.703125 11.40625 
Q 43.21875 16.703125 43.21875 25.484375 
L 43.21875 27.484375 
z
M 52.203125 31.203125 
L 52.203125 0 
L 43.21875 0 
L 43.21875 8.296875 
Q 40.140625 3.328125 35.546875 0.953125 
Q 30.953125 -1.421875 24.3125 -1.421875 
Q 15.921875 -1.421875 10.953125 3.296875 
Q 6 8.015625 6 15.921875 
Q 6 25.140625 12.171875 29.828125 
Q 18.359375 34.515625 30.609375 34.515625 
L 43.21875 34.515625 
L 43.21875 35.40625 
Q 43.21875 41.609375 39.140625 45 
Q 35.0625 48.390625 27.6875 48.390625 
Q 23 48.390625 18.546875 47.265625 
Q 14.109375 46.140625 10.015625 43.890625 
L 10.015625 52.203125 
Q 14.9375 54.109375 19.578125 55.046875 
Q 24.21875 56 28.609375 56 
Q 40.484375 56 46.34375 49.84375 
Q 52.203125 43.703125 52.203125 31.203125 
z
" id="DejaVuSans-97"/>
      <path d="M 52 44.1875 
Q 55.375 50.25 60.0625 53.125 
Q 64.75 56 71.09375 56 
Q 79.640625 56 84.28125 50.015625 
Q 88.921875 44.046875 88.921875 33.015625 
L 88.921875 0 
L 79.890625 0 
L 79.890625 32.71875 
Q 79.890625 40.578125 77.09375 44.375 
Q 74.3125 48.1875 68.609375 48.1875 
Q 61.625 48.1875 57.5625 43.546875 
Q 53.515625 38.921875 53.515625 30.90625 
L 53.515625 0 
L 44.484375 0 
L 44.484375 32.71875 
Q 44.484375 40.625 41.703125 44.40625 
Q 38.921875 48.1875 33.109375 48.1875 
Q 26.21875 48.1875 22.15625 43.53125 
Q 18.109375 38.875 18.109375 30.90625 
L 18.109375 0 
L 9.078125 0 
L 9.078125 54.6875 
L 18.109375 54.6875 
L 18.109375 46.1875 
Q 21.1875 51.21875 25.484375 53.609375 
Q 29.78125 56 35.6875 56 
Q 41.65625 56 45.828125 52.96875 
Q 50 49.953125 52 44.1875 
z
" id="DejaVuSans-109"/>
      <path d="M 9.421875 54.6875 
L 18.40625 54.6875 
L 18.40625 0 
L 9.421875 0 
z
M 9.421875 75.984375 
L 18.40625 75.984375 
L 18.40625 64.59375 
L 9.421875 64.59375 
z
" id="DejaVuSans-105"/>
      <path d="M 44.28125 53.078125 
L 44.28125 44.578125 
Q 40.484375 46.53125 36.375 47.5 
Q 32.28125 48.484375 27.875 48.484375 
Q 21.1875 48.484375 17.84375 46.4375 
Q 14.5 44.390625 14.5 40.28125 
Q 14.5 37.15625 16.890625 35.375 
Q 19.28125 33.59375 26.515625 31.984375 
L 29.59375 31.296875 
Q 39.15625 29.25 43.1875 25.515625 
Q 47.21875 21.78125 47.21875 15.09375 
Q 47.21875 7.46875 41.1875 3.015625 
Q 35.15625 -1.421875 24.609375 -1.421875 
Q 20.21875 -1.421875 15.453125 -0.5625 
Q 10.6875 0.296875 5.421875 2 
L 5.421875 11.28125 
Q 10.40625 8.6875 15.234375 7.390625 
Q 20.0625 6.109375 24.8125 6.109375 
Q 31.15625 6.109375 34.5625 8.28125 
Q 37.984375 10.453125 37.984375 14.40625 
Q 37.984375 18.0625 35.515625 20.015625 
Q 33.0625 21.96875 24.703125 23.78125 
L 21.578125 24.515625 
Q 13.234375 26.265625 9.515625 29.90625 
Q 5.8125 33.546875 5.8125 39.890625 
Q 5.8125 47.609375 11.28125 51.796875 
Q 16.75 56 26.8125 56 
Q 31.78125 56 36.171875 55.265625 
Q 40.578125 54.546875 44.28125 53.078125 
z
" id="DejaVuSans-115"/>
     </defs>
     <g transform="translate(630.03375 159.493125)scale(0.12 -0.12)">
      <use xlink:href="#DejaVuSans-117"/>
      <use x="63.378906" xlink:href="#DejaVuSans-110"/>
      <use x="126.757812" xlink:href="#DejaVuSans-99"/>
      <use x="181.738281" xlink:href="#DejaVuSans-111"/>
      <use x="242.919922" xlink:href="#DejaVuSans-110"/>
      <use x="306.298828" xlink:href="#DejaVuSans-116"/>
      <use x="345.507812" xlink:href="#DejaVuSans-114"/>
      <use x="386.589844" xlink:href="#DejaVuSans-111"/>
      <use x="447.771484" xlink:href="#DejaVuSans-108"/>
      <use x="475.554688" xlink:href="#DejaVuSans-108"/>
      <use x="503.337891" xlink:href="#DejaVuSans-101"/>
      <use x="564.861328" xlink:href="#DejaVuSans-100"/>
      <use x="628.337891" xlink:href="#DejaVuSans-32"/>
      <use x="660.125" xlink:href="#DejaVuSans-100"/>
      <use x="723.601562" xlink:href="#DejaVuSans-121"/>
      <use x="782.78125" xlink:href="#DejaVuSans-110"/>
      <use x="846.160156" xlink:href="#DejaVuSans-97"/>
      <use x="907.439453" xlink:href="#DejaVuSans-109"/>
      <use x="1004.851562" xlink:href="#DejaVuSans-105"/>
      <use x="1032.634766" xlink:href="#DejaVuSans-99"/>
      <use x="1087.615234" xlink:href="#DejaVuSans-115"/>
     </g>
    </g>
    <g id="line2d_32">
     <path d="M 596.43375 172.906875 
L 620.43375 172.906875 
" style="fill:none;stroke:#008fff;stroke-linecap:square;stroke-width:1.5;"/>
    </g>
    <g id="line2d_33"/>
    <g id="text_22">
     <!-- controlled dynamics -->
     <g transform="translate(630.03375 177.106875)scale(0.12 -0.12)">
      <use xlink:href="#DejaVuSans-99"/>
      <use x="54.980469" xlink:href="#DejaVuSans-111"/>
      <use x="116.162109" xlink:href="#DejaVuSans-110"/>
      <use x="179.541016" xlink:href="#DejaVuSans-116"/>
      <use x="218.75" xlink:href="#DejaVuSans-114"/>
      <use x="259.832031" xlink:href="#DejaVuSans-111"/>
      <use x="321.013672" xlink:href="#DejaVuSans-108"/>
      <use x="348.796875" xlink:href="#DejaVuSans-108"/>
      <use x="376.580078" xlink:href="#DejaVuSans-101"/>
      <use x="438.103516" xlink:href="#DejaVuSans-100"/>
      <use x="501.580078" xlink:href="#DejaVuSans-32"/>
      <use x="533.367188" xlink:href="#DejaVuSans-100"/>
      <use x="596.84375" xlink:href="#DejaVuSans-121"/>
      <use x="656.023438" xlink:href="#DejaVuSans-110"/>
      <use x="719.402344" xlink:href="#DejaVuSans-97"/>
      <use x="780.681641" xlink:href="#DejaVuSans-109"/>
      <use x="878.09375" xlink:href="#DejaVuSans-105"/>
      <use x="905.876953" xlink:href="#DejaVuSans-99"/>
      <use x="960.857422" xlink:href="#DejaVuSans-115"/>
     </g>
    </g>
   </g>
  </g>
 </g>
 <defs>
  <clipPath id="p0ec1678614">
   <rect height="443.52" width="669.6" x="108" y="69.12"/>
  </clipPath>
 </defs>
</svg>
