<?xml version="1.0" encoding="utf-8" standalone="no"?>
<!DOCTYPE svg PUBLIC "-//W3C//DTD SVG 1.1//EN"
  "http://www.w3.org/Graphics/SVG/1.1/DTD/svg11.dtd">
<!-- Created with matplotlib (http://matplotlib.org/) -->
<svg height="576pt" version="1.1" viewBox="0 0 864 576" width="864pt" xmlns="http://www.w3.org/2000/svg" xmlns:xlink="http://www.w3.org/1999/xlink">
 <defs>
  <style type="text/css">
*{stroke-linecap:butt;stroke-linejoin:round;stroke-miterlimit:100000;}
  </style>
 </defs>
 <g id="figure_1">
  <g id="patch_1">
   <path d="M 0 576 
L 864 576 
L 864 0 
L 0 0 
z
" style="fill:#ffffff;"/>
  </g>
  <g id="axes_1">
   <g id="patch_2">
    <path d="M 108 518.4 
L 777.6 518.4 
L 777.6 57.6 
L 108 57.6 
z
" style="fill:#ffffff;"/>
   </g>
   <g id="line2d_1">
    <path clip-path="url(#p08ce9c65f2)" d="M 161.813127 73.597548 
L 206.816988 142.884416 
L 218.307336 159.940171 
L 227.882625 173.778808 
L 237.457915 187.224187 
L 246.075676 198.957512 
L 254.693436 210.321945 
L 263.311197 221.304396 
L 271.928958 231.897804 
L 280.546718 242.100368 
L 288.20695 250.843251 
L 295.867181 259.283653 
L 303.527413 267.427695 
L 311.187645 275.282918 
L 319.805405 283.785546 
L 328.423166 291.946839 
L 337.040927 299.780763 
L 345.658687 307.301536 
L 354.276448 314.523297 
L 362.894208 321.45986 
L 371.511969 328.124536 
L 380.12973 334.530011 
L 389.705019 341.357769 
L 399.280309 347.895727 
L 408.855598 354.15821 
L 418.430888 360.158515 
L 428.006178 365.908991 
L 438.538996 371.959682 
L 449.071815 377.736324 
L 459.604633 383.252375 
L 470.137452 388.520616 
L 480.67027 393.55331 
L 492.160618 398.78885 
L 503.650965 403.773326 
L 515.141313 408.521626 
L 527.589189 413.416228 
L 540.037066 418.069671 
L 553.442471 422.83272 
L 566.847876 427.360774 
L 581.210811 431.977442 
L 596.531274 436.664506 
L 612.809266 441.41149 
L 631.002317 446.477335 
L 651.110425 451.83748 
L 674.09112 457.726478 
L 701.859459 464.598547 
L 708.562162 466.226726 
L 708.562162 466.226726 
" style="fill:none;stroke:#0010ff;stroke-linecap:square;"/>
   </g>
   <g id="line2d_2">
    <path clip-path="url(#p08ce9c65f2)" d="M 235.542857 114.157338 
L 242.24556 124.924257 
L 249.905792 137.660653 
L 258.523552 152.418347 
L 270.971429 174.212935 
L 289.164479 206.07292 
L 298.739768 222.374748 
L 306.4 235.011752 
L 314.060232 247.208429 
L 320.762934 257.476938 
L 327.465637 267.343944 
L 334.16834 276.796825 
L 340.871042 285.832326 
L 347.573745 294.454995 
L 354.276448 302.675534 
L 360.979151 310.509184 
L 367.681853 317.974247 
L 374.384556 325.090807 
L 381.087259 331.879676 
L 387.789961 338.361577 
L 394.492664 344.556542 
L 402.152896 351.309383 
L 409.813127 357.738257 
L 417.473359 363.866817 
L 425.133591 369.71627 
L 432.793822 375.305531 
L 441.411583 381.303382 
L 450.029344 387.014621 
L 458.647104 392.458311 
L 467.264865 397.651632 
L 476.840154 403.14735 
L 486.415444 408.372933 
L 495.990734 413.346362 
L 505.566023 418.084046 
L 516.098842 423.040878 
L 526.63166 427.747864 
L 537.164479 432.220033 
L 548.654826 436.845644 
L 560.145174 441.219811 
L 571.635521 445.352677 
L 583.125869 449.251979 
L 594.616216 452.923729 
L 599.403861 454.387672 
L 599.403861 454.387672 
" style="fill:none;stroke:#00a4ff;stroke-linecap:square;"/>
   </g>
   <g id="line2d_3">
    <path clip-path="url(#p08ce9c65f2)" d="M 296.82471 188.456172 
L 303.527413 200.768284 
L 312.145174 217.101618 
L 328.423166 248.074006 
L 335.125869 260.369778 
L 341.828571 272.186232 
L 347.573745 281.865014 
L 353.318919 291.094464 
L 359.064093 299.862169 
L 364.809266 308.17088 
L 370.55444 316.034134 
L 376.299614 323.472106 
L 382.044788 330.50806 
L 387.789961 337.165589 
L 393.535135 343.466673 
L 399.280309 349.430475 
L 405.025483 355.072772 
L 410.770656 360.405888 
L 416.51583 365.438993 
L 422.261004 370.178667 
L 428.006178 374.629615 
L 433.751351 378.795448 
L 439.496525 382.679456 
L 445.241699 386.285309 
L 450.986873 389.617627 
L 456.732046 392.682405 
L 462.47722 395.487264 
L 468.222394 398.041533 
L 473.967568 400.356183 
L 479.712741 402.443644 
L 485.457915 404.317519 
L 492.160618 406.253072 
L 498.86332 407.941375 
L 505.566023 409.4064 
L 513.226255 410.837474 
L 520.886486 412.041208 
L 529.504247 413.162431 
L 530.461776 413.273477 
L 530.461776 413.273477 
" style="fill:none;stroke:#40ffb7;stroke-linecap:square;"/>
   </g>
   <g id="line2d_4">
    <path clip-path="url(#p08ce9c65f2)" d="M 320.762934 245.482625 
L 326.508108 253.355007 
L 334.16834 264.269667 
L 354.276448 293.140199 
L 361.93668 303.680844 
L 369.596911 313.862199 
L 377.257143 323.686473 
L 384.917375 333.153874 
L 391.620077 341.1247 
L 398.32278 348.763217 
L 404.067954 355.006533 
L 409.813127 360.932687 
L 415.558301 366.511872 
L 420.345946 370.881372 
L 425.133591 374.991044 
L 429.921236 378.842662 
L 434.70888 382.444093 
L 439.496525 385.808235 
L 445.241699 389.555412 
L 450.986873 393.017088 
L 456.732046 396.226502 
L 463.434749 399.693752 
L 470.137452 402.903826 
L 477.797683 406.30194 
L 485.457915 409.447506 
L 491.203089 411.656399 
L 491.203089 411.656399 
" style="fill:none;stroke:#b7ff40;stroke-linecap:square;"/>
   </g>
   <g id="line2d_5">
    <path clip-path="url(#p08ce9c65f2)" d="M 338.955985 287.152733 
L 342.7861 289.497322 
L 346.616216 292.160158 
L 350.446332 295.146181 
L 354.276448 298.450352 
L 358.106564 302.057349 
L 361.93668 305.942183 
L 366.724324 311.137635 
L 372.469498 317.765022 
L 380.12973 327.017069 
L 393.535135 343.303702 
L 399.280309 349.918661 
L 404.067954 355.10235 
L 407.898069 358.974678 
L 411.728185 362.562885 
L 415.558301 365.837777 
L 419.388417 368.779621 
L 423.218533 371.37928 
L 427.048649 373.63818 
L 430.878764 375.567197 
L 434.70888 377.184787 
L 438.538996 378.514774 
L 442.369112 379.584183 
L 446.199228 380.421364 
L 450.029344 381.054541 
L 454.816988 381.600201 
L 459.604633 381.91807 
L 465.349807 382.059629 
L 469.179923 382.038675 
L 469.179923 382.038675 
" style="fill:none;stroke:#ffb900;stroke-linecap:square;"/>
   </g>
   <g id="line2d_6">
    <path clip-path="url(#p08ce9c65f2)" d="M 360.979151 303.792847 
L 361.93668 304.531014 
L 362.894208 305.307611 
L 363.851737 306.12323 
L 364.809266 306.978248 
L 365.766795 307.872797 
L 366.724324 308.806747 
L 367.681853 309.779681 
L 368.639382 310.790885 
L 369.596911 311.839332 
L 370.55444 312.923681 
L 371.511969 314.042279 
L 372.469498 315.193171 
L 373.427027 316.374113 
L 374.384556 317.582603 
L 375.342085 318.815905 
L 376.299614 320.071096 
L 377.257143 321.345103 
L 378.214672 322.634754 
L 379.172201 323.936834 
L 380.12973 325.248135 
L 381.087259 326.565512 
L 382.044788 327.885938 
L 383.002317 329.206552 
L 383.959846 330.524707 
L 384.917375 331.83801 
L 385.874903 333.144354 
L 386.832432 334.441945 
L 387.789961 335.729316 
L 388.74749 337.005338 
L 389.705019 338.269214 
L 390.662548 339.520474 
L 391.620077 340.758947 
L 392.577606 341.984743 
L 393.535135 343.198213 
L 394.492664 344.399908 
L 395.450193 345.590536 
L 396.407722 346.770911 
L 397.365251 347.941905 
L 398.32278 349.104387 
L 399.280309 350.25918 
L 400.237838 351.407004 
L 401.195367 352.548428 
L 402.152896 353.68383 
L 403.110425 354.813354 
L 404.067954 355.936882 
L 405.025483 357.054005 
L 405.983012 358.164014 
L 406.940541 359.265887 
L 407.898069 360.358294 
L 408.855598 361.439613 
L 409.813127 362.507952 
L 410.770656 363.56118 
L 411.728185 364.596972 
L 412.685714 365.612854 
L 413.643243 366.606263 
L 414.600772 367.574603 
L 415.558301 368.515309 
L 416.51583 369.425907 
L 417.473359 370.304078 
L 418.430888 371.147707 
L 419.388417 371.954938 
L 420.345946 372.724213 
L 421.303475 373.454306 
L 422.261004 374.144343 
L 423.218533 374.793816 
L 424.176062 375.402583 
L 425.133591 375.97086 
L 426.09112 376.499207 
L 427.048649 376.988498 
L 428.006178 377.439895 
" style="fill:none;stroke:#ff3000;stroke-linecap:square;"/>
   </g>
   <g id="patch_3">
    <path d="M 777.6 518.4 
L 777.6 57.6 
" style="fill:none;stroke:#000000;stroke-linecap:square;stroke-linejoin:miter;"/>
   </g>
   <g id="patch_4">
    <path d="M 108 518.4 
L 777.6 518.4 
" style="fill:none;stroke:#000000;stroke-linecap:square;stroke-linejoin:miter;"/>
   </g>
   <g id="patch_5">
    <path d="M 108 57.6 
L 777.6 57.6 
" style="fill:none;stroke:#000000;stroke-linecap:square;stroke-linejoin:miter;"/>
   </g>
   <g id="patch_6">
    <path d="M 108 518.4 
L 108 57.6 
" style="fill:none;stroke:#000000;stroke-linecap:square;stroke-linejoin:miter;"/>
   </g>
   <g id="matplotlib.axis_1">
    <g id="xtick_1">
     <g id="line2d_7">
      <defs>
       <path d="M 0 0 
L 0 -4 
" id="mccb59c85a6" style="stroke:#000000;stroke-width:0.5;"/>
      </defs>
      <g>
       <use style="stroke:#000000;stroke-width:0.5;" x="108.0" xlink:href="#mccb59c85a6" y="518.4"/>
      </g>
     </g>
     <g id="line2d_8">
      <defs>
       <path d="M 0 0 
L 0 4 
" id="m0aa946bb98" style="stroke:#000000;stroke-width:0.5;"/>
      </defs>
      <g>
       <use style="stroke:#000000;stroke-width:0.5;" x="108.0" xlink:href="#m0aa946bb98" y="57.6"/>
      </g>
     </g>
     <g id="text_1">
      <!-- −0.6 -->
      <defs>
       <path d="M 31.78125 66.40625 
Q 24.171875 66.40625 20.328125 58.90625 
Q 16.5 51.421875 16.5 36.375 
Q 16.5 21.390625 20.328125 13.890625 
Q 24.171875 6.390625 31.78125 6.390625 
Q 39.453125 6.390625 43.28125 13.890625 
Q 47.125 21.390625 47.125 36.375 
Q 47.125 51.421875 43.28125 58.90625 
Q 39.453125 66.40625 31.78125 66.40625 
M 31.78125 74.21875 
Q 44.046875 74.21875 50.515625 64.515625 
Q 56.984375 54.828125 56.984375 36.375 
Q 56.984375 17.96875 50.515625 8.265625 
Q 44.046875 -1.421875 31.78125 -1.421875 
Q 19.53125 -1.421875 13.0625 8.265625 
Q 6.59375 17.96875 6.59375 36.375 
Q 6.59375 54.828125 13.0625 64.515625 
Q 19.53125 74.21875 31.78125 74.21875 
" id="BitstreamVeraSans-Roman-30"/>
       <path d="M 10.6875 12.40625 
L 21 12.40625 
L 21 0 
L 10.6875 0 
z
" id="BitstreamVeraSans-Roman-2e"/>
       <path d="M 33.015625 40.375 
Q 26.375 40.375 22.484375 35.828125 
Q 18.609375 31.296875 18.609375 23.390625 
Q 18.609375 15.53125 22.484375 10.953125 
Q 26.375 6.390625 33.015625 6.390625 
Q 39.65625 6.390625 43.53125 10.953125 
Q 47.40625 15.53125 47.40625 23.390625 
Q 47.40625 31.296875 43.53125 35.828125 
Q 39.65625 40.375 33.015625 40.375 
M 52.59375 71.296875 
L 52.59375 62.3125 
Q 48.875 64.0625 45.09375 64.984375 
Q 41.3125 65.921875 37.59375 65.921875 
Q 27.828125 65.921875 22.671875 59.328125 
Q 17.53125 52.734375 16.796875 39.40625 
Q 19.671875 43.65625 24.015625 45.921875 
Q 28.375 48.1875 33.59375 48.1875 
Q 44.578125 48.1875 50.953125 41.515625 
Q 57.328125 34.859375 57.328125 23.390625 
Q 57.328125 12.15625 50.6875 5.359375 
Q 44.046875 -1.421875 33.015625 -1.421875 
Q 20.359375 -1.421875 13.671875 8.265625 
Q 6.984375 17.96875 6.984375 36.375 
Q 6.984375 53.65625 15.1875 63.9375 
Q 23.390625 74.21875 37.203125 74.21875 
Q 40.921875 74.21875 44.703125 73.484375 
Q 48.484375 72.75 52.59375 71.296875 
" id="BitstreamVeraSans-Roman-36"/>
       <path d="M 10.59375 35.5 
L 73.1875 35.5 
L 73.1875 27.203125 
L 10.59375 27.203125 
z
" id="BitstreamVeraSans-Roman-2212"/>
      </defs>
      <g transform="translate(83.7171875 537.596875)scale(0.2 -0.2)">
       <use xlink:href="#BitstreamVeraSans-Roman-2212"/>
       <use x="83.7890625" xlink:href="#BitstreamVeraSans-Roman-30"/>
       <use x="147.412109375" xlink:href="#BitstreamVeraSans-Roman-2e"/>
       <use x="179.19921875" xlink:href="#BitstreamVeraSans-Roman-36"/>
      </g>
     </g>
    </g>
    <g id="xtick_2">
     <g id="line2d_9">
      <g>
       <use style="stroke:#000000;stroke-width:0.5;" x="203.657142857" xlink:href="#mccb59c85a6" y="518.4"/>
      </g>
     </g>
     <g id="line2d_10">
      <g>
       <use style="stroke:#000000;stroke-width:0.5;" x="203.657142857" xlink:href="#m0aa946bb98" y="57.6"/>
      </g>
     </g>
     <g id="text_2">
      <!-- −0.4 -->
      <defs>
       <path d="M 37.796875 64.3125 
L 12.890625 25.390625 
L 37.796875 25.390625 
z
M 35.203125 72.90625 
L 47.609375 72.90625 
L 47.609375 25.390625 
L 58.015625 25.390625 
L 58.015625 17.1875 
L 47.609375 17.1875 
L 47.609375 0 
L 37.796875 0 
L 37.796875 17.1875 
L 4.890625 17.1875 
L 4.890625 26.703125 
z
" id="BitstreamVeraSans-Roman-34"/>
      </defs>
      <g transform="translate(179.374330357 537.596875)scale(0.2 -0.2)">
       <use xlink:href="#BitstreamVeraSans-Roman-2212"/>
       <use x="83.7890625" xlink:href="#BitstreamVeraSans-Roman-30"/>
       <use x="147.412109375" xlink:href="#BitstreamVeraSans-Roman-2e"/>
       <use x="179.19921875" xlink:href="#BitstreamVeraSans-Roman-34"/>
      </g>
     </g>
    </g>
    <g id="xtick_3">
     <g id="line2d_11">
      <g>
       <use style="stroke:#000000;stroke-width:0.5;" x="299.314285714" xlink:href="#mccb59c85a6" y="518.4"/>
      </g>
     </g>
     <g id="line2d_12">
      <g>
       <use style="stroke:#000000;stroke-width:0.5;" x="299.314285714" xlink:href="#m0aa946bb98" y="57.6"/>
      </g>
     </g>
     <g id="text_3">
      <!-- −0.2 -->
      <defs>
       <path d="M 19.1875 8.296875 
L 53.609375 8.296875 
L 53.609375 0 
L 7.328125 0 
L 7.328125 8.296875 
Q 12.9375 14.109375 22.625 23.890625 
Q 32.328125 33.6875 34.8125 36.53125 
Q 39.546875 41.84375 41.421875 45.53125 
Q 43.3125 49.21875 43.3125 52.78125 
Q 43.3125 58.59375 39.234375 62.25 
Q 35.15625 65.921875 28.609375 65.921875 
Q 23.96875 65.921875 18.8125 64.3125 
Q 13.671875 62.703125 7.8125 59.421875 
L 7.8125 69.390625 
Q 13.765625 71.78125 18.9375 73 
Q 24.125 74.21875 28.421875 74.21875 
Q 39.75 74.21875 46.484375 68.546875 
Q 53.21875 62.890625 53.21875 53.421875 
Q 53.21875 48.921875 51.53125 44.890625 
Q 49.859375 40.875 45.40625 35.40625 
Q 44.1875 33.984375 37.640625 27.21875 
Q 31.109375 20.453125 19.1875 8.296875 
" id="BitstreamVeraSans-Roman-32"/>
      </defs>
      <g transform="translate(275.031473214 537.596875)scale(0.2 -0.2)">
       <use xlink:href="#BitstreamVeraSans-Roman-2212"/>
       <use x="83.7890625" xlink:href="#BitstreamVeraSans-Roman-30"/>
       <use x="147.412109375" xlink:href="#BitstreamVeraSans-Roman-2e"/>
       <use x="179.19921875" xlink:href="#BitstreamVeraSans-Roman-32"/>
      </g>
     </g>
    </g>
    <g id="xtick_4">
     <g id="line2d_13">
      <g>
       <use style="stroke:#000000;stroke-width:0.5;" x="394.971428571" xlink:href="#mccb59c85a6" y="518.4"/>
      </g>
     </g>
     <g id="line2d_14">
      <g>
       <use style="stroke:#000000;stroke-width:0.5;" x="394.971428571" xlink:href="#m0aa946bb98" y="57.6"/>
      </g>
     </g>
     <g id="text_4">
      <!-- 0.0 -->
      <g transform="translate(379.068303571 537.596875)scale(0.2 -0.2)">
       <use xlink:href="#BitstreamVeraSans-Roman-30"/>
       <use x="63.623046875" xlink:href="#BitstreamVeraSans-Roman-2e"/>
       <use x="95.41015625" xlink:href="#BitstreamVeraSans-Roman-30"/>
      </g>
     </g>
    </g>
    <g id="xtick_5">
     <g id="line2d_15">
      <g>
       <use style="stroke:#000000;stroke-width:0.5;" x="490.628571429" xlink:href="#mccb59c85a6" y="518.4"/>
      </g>
     </g>
     <g id="line2d_16">
      <g>
       <use style="stroke:#000000;stroke-width:0.5;" x="490.628571429" xlink:href="#m0aa946bb98" y="57.6"/>
      </g>
     </g>
     <g id="text_5">
      <!-- 0.2 -->
      <g transform="translate(474.725446429 537.596875)scale(0.2 -0.2)">
       <use xlink:href="#BitstreamVeraSans-Roman-30"/>
       <use x="63.623046875" xlink:href="#BitstreamVeraSans-Roman-2e"/>
       <use x="95.41015625" xlink:href="#BitstreamVeraSans-Roman-32"/>
      </g>
     </g>
    </g>
    <g id="xtick_6">
     <g id="line2d_17">
      <g>
       <use style="stroke:#000000;stroke-width:0.5;" x="586.285714286" xlink:href="#mccb59c85a6" y="518.4"/>
      </g>
     </g>
     <g id="line2d_18">
      <g>
       <use style="stroke:#000000;stroke-width:0.5;" x="586.285714286" xlink:href="#m0aa946bb98" y="57.6"/>
      </g>
     </g>
     <g id="text_6">
      <!-- 0.4 -->
      <g transform="translate(570.382589286 537.596875)scale(0.2 -0.2)">
       <use xlink:href="#BitstreamVeraSans-Roman-30"/>
       <use x="63.623046875" xlink:href="#BitstreamVeraSans-Roman-2e"/>
       <use x="95.41015625" xlink:href="#BitstreamVeraSans-Roman-34"/>
      </g>
     </g>
    </g>
    <g id="xtick_7">
     <g id="line2d_19">
      <g>
       <use style="stroke:#000000;stroke-width:0.5;" x="681.942857143" xlink:href="#mccb59c85a6" y="518.4"/>
      </g>
     </g>
     <g id="line2d_20">
      <g>
       <use style="stroke:#000000;stroke-width:0.5;" x="681.942857143" xlink:href="#m0aa946bb98" y="57.6"/>
      </g>
     </g>
     <g id="text_7">
      <!-- 0.6 -->
      <g transform="translate(666.039732143 537.596875)scale(0.2 -0.2)">
       <use xlink:href="#BitstreamVeraSans-Roman-30"/>
       <use x="63.623046875" xlink:href="#BitstreamVeraSans-Roman-2e"/>
       <use x="95.41015625" xlink:href="#BitstreamVeraSans-Roman-36"/>
      </g>
     </g>
    </g>
    <g id="xtick_8">
     <g id="line2d_21">
      <g>
       <use style="stroke:#000000;stroke-width:0.5;" x="777.6" xlink:href="#mccb59c85a6" y="518.4"/>
      </g>
     </g>
     <g id="line2d_22">
      <g>
       <use style="stroke:#000000;stroke-width:0.5;" x="777.6" xlink:href="#m0aa946bb98" y="57.6"/>
      </g>
     </g>
     <g id="text_8">
      <!-- 0.8 -->
      <defs>
       <path d="M 31.78125 34.625 
Q 24.75 34.625 20.71875 30.859375 
Q 16.703125 27.09375 16.703125 20.515625 
Q 16.703125 13.921875 20.71875 10.15625 
Q 24.75 6.390625 31.78125 6.390625 
Q 38.8125 6.390625 42.859375 10.171875 
Q 46.921875 13.96875 46.921875 20.515625 
Q 46.921875 27.09375 42.890625 30.859375 
Q 38.875 34.625 31.78125 34.625 
M 21.921875 38.8125 
Q 15.578125 40.375 12.03125 44.71875 
Q 8.5 49.078125 8.5 55.328125 
Q 8.5 64.0625 14.71875 69.140625 
Q 20.953125 74.21875 31.78125 74.21875 
Q 42.671875 74.21875 48.875 69.140625 
Q 55.078125 64.0625 55.078125 55.328125 
Q 55.078125 49.078125 51.53125 44.71875 
Q 48 40.375 41.703125 38.8125 
Q 48.828125 37.15625 52.796875 32.3125 
Q 56.78125 27.484375 56.78125 20.515625 
Q 56.78125 9.90625 50.3125 4.234375 
Q 43.84375 -1.421875 31.78125 -1.421875 
Q 19.734375 -1.421875 13.25 4.234375 
Q 6.78125 9.90625 6.78125 20.515625 
Q 6.78125 27.484375 10.78125 32.3125 
Q 14.796875 37.15625 21.921875 38.8125 
M 18.3125 54.390625 
Q 18.3125 48.734375 21.84375 45.5625 
Q 25.390625 42.390625 31.78125 42.390625 
Q 38.140625 42.390625 41.71875 45.5625 
Q 45.3125 48.734375 45.3125 54.390625 
Q 45.3125 60.0625 41.71875 63.234375 
Q 38.140625 66.40625 31.78125 66.40625 
Q 25.390625 66.40625 21.84375 63.234375 
Q 18.3125 60.0625 18.3125 54.390625 
" id="BitstreamVeraSans-Roman-38"/>
      </defs>
      <g transform="translate(761.696875 537.596875)scale(0.2 -0.2)">
       <use xlink:href="#BitstreamVeraSans-Roman-30"/>
       <use x="63.623046875" xlink:href="#BitstreamVeraSans-Roman-2e"/>
       <use x="95.41015625" xlink:href="#BitstreamVeraSans-Roman-38"/>
      </g>
     </g>
    </g>
    <g id="text_9">
     <!-- $s$ -->
     <defs>
      <path d="M 8.6875 6.109375 
Q 11.375 1.515625 19.484375 1.515625 
Q 23 1.515625 26.171875 2.703125 
Q 29.34375 3.90625 31.421875 6.296875 
Q 33.5 8.6875 33.5 12.109375 
Q 33.5 14.703125 31.640625 16.359375 
Q 29.78125 18.015625 27.09375 18.609375 
L 21.6875 19.671875 
Q 17.96875 20.609375 15.578125 23.140625 
Q 13.1875 25.6875 13.1875 29.296875 
Q 13.1875 33.734375 15.59375 37.15625 
Q 18.015625 40.578125 21.96875 42.375 
Q 25.921875 44.1875 30.171875 44.1875 
Q 34.71875 44.1875 38.296875 42.015625 
Q 41.890625 39.84375 41.890625 35.59375 
Q 41.890625 33.296875 40.59375 31.53125 
Q 39.3125 29.78125 37.015625 29.78125 
Q 35.6875 29.78125 34.734375 30.640625 
Q 33.796875 31.5 33.796875 32.8125 
Q 33.796875 33.984375 34.453125 35.078125 
Q 35.109375 36.1875 36.203125 36.84375 
Q 37.3125 37.5 38.484375 37.5 
Q 37.59375 39.65625 35.171875 40.625 
Q 32.765625 41.609375 29.984375 41.609375 
Q 27.4375 41.609375 24.890625 40.578125 
Q 22.359375 39.546875 20.8125 37.5625 
Q 19.28125 35.59375 19.28125 32.90625 
Q 19.28125 31.109375 20.546875 29.734375 
Q 21.828125 28.375 23.6875 27.78125 
L 29.5 26.609375 
Q 32.28125 26.03125 34.59375 24.53125 
Q 36.921875 23.046875 38.25 20.765625 
Q 39.59375 18.5 39.59375 15.578125 
Q 39.59375 11.859375 37.515625 8.25 
Q 35.453125 4.640625 32.421875 2.484375 
Q 27.09375 -1.125 19.390625 -1.125 
Q 14.0625 -1.125 9.609375 1.3125 
Q 5.171875 3.765625 5.171875 8.59375 
Q 5.171875 11.328125 6.75 13.34375 
Q 8.34375 15.375 11.078125 15.375 
Q 12.703125 15.375 13.796875 14.390625 
Q 14.890625 13.421875 14.890625 11.8125 
Q 14.890625 9.515625 13.171875 7.8125 
Q 11.46875 6.109375 9.1875 6.109375 
z
" id="Cmmi10-73"/>
     </defs>
     <g transform="translate(438.1 561.953125)scale(0.2 -0.2)">
      <use transform="translate(0.0 0.8125)" xlink:href="#Cmmi10-73"/>
     </g>
    </g>
   </g>
   <g id="matplotlib.axis_2">
    <g id="ytick_1">
     <g id="line2d_23">
      <defs>
       <path d="M 0 0 
L 4 0 
" id="m8eaf6ae148" style="stroke:#000000;stroke-width:0.5;"/>
      </defs>
      <g>
       <use style="stroke:#000000;stroke-width:0.5;" x="108.0" xlink:href="#m8eaf6ae148" y="518.4"/>
      </g>
     </g>
     <g id="line2d_24">
      <defs>
       <path d="M 0 0 
L -4 0 
" id="m7acb27b17b" style="stroke:#000000;stroke-width:0.5;"/>
      </defs>
      <g>
       <use style="stroke:#000000;stroke-width:0.5;" x="777.6" xlink:href="#m7acb27b17b" y="518.4"/>
      </g>
     </g>
     <g id="text_10">
      <!-- 0.15 -->
      <defs>
       <path d="M 12.40625 8.296875 
L 28.515625 8.296875 
L 28.515625 63.921875 
L 10.984375 60.40625 
L 10.984375 69.390625 
L 28.421875 72.90625 
L 38.28125 72.90625 
L 38.28125 8.296875 
L 54.390625 8.296875 
L 54.390625 0 
L 12.40625 0 
z
" id="BitstreamVeraSans-Roman-31"/>
       <path d="M 10.796875 72.90625 
L 49.515625 72.90625 
L 49.515625 64.59375 
L 19.828125 64.59375 
L 19.828125 46.734375 
Q 21.96875 47.46875 24.109375 47.828125 
Q 26.265625 48.1875 28.421875 48.1875 
Q 40.625 48.1875 47.75 41.5 
Q 54.890625 34.8125 54.890625 23.390625 
Q 54.890625 11.625 47.5625 5.09375 
Q 40.234375 -1.421875 26.90625 -1.421875 
Q 22.3125 -1.421875 17.546875 -0.640625 
Q 12.796875 0.140625 7.71875 1.703125 
L 7.71875 11.625 
Q 12.109375 9.234375 16.796875 8.0625 
Q 21.484375 6.890625 26.703125 6.890625 
Q 35.15625 6.890625 40.078125 11.328125 
Q 45.015625 15.765625 45.015625 23.390625 
Q 45.015625 31 40.078125 35.4375 
Q 35.15625 39.890625 26.703125 39.890625 
Q 22.75 39.890625 18.8125 39.015625 
Q 14.890625 38.140625 10.796875 36.28125 
z
" id="BitstreamVeraSans-Roman-35"/>
      </defs>
      <g transform="translate(59.46875 523.91875)scale(0.2 -0.2)">
       <use xlink:href="#BitstreamVeraSans-Roman-30"/>
       <use x="63.623046875" xlink:href="#BitstreamVeraSans-Roman-2e"/>
       <use x="95.41015625" xlink:href="#BitstreamVeraSans-Roman-31"/>
       <use x="159.033203125" xlink:href="#BitstreamVeraSans-Roman-35"/>
      </g>
     </g>
    </g>
    <g id="ytick_2">
     <g id="line2d_25">
      <g>
       <use style="stroke:#000000;stroke-width:0.5;" x="108.0" xlink:href="#m8eaf6ae148" y="452.571428571"/>
      </g>
     </g>
     <g id="line2d_26">
      <g>
       <use style="stroke:#000000;stroke-width:0.5;" x="777.6" xlink:href="#m7acb27b17b" y="452.571428571"/>
      </g>
     </g>
     <g id="text_11">
      <!-- 0.20 -->
      <g transform="translate(59.46875 458.090178571)scale(0.2 -0.2)">
       <use xlink:href="#BitstreamVeraSans-Roman-30"/>
       <use x="63.623046875" xlink:href="#BitstreamVeraSans-Roman-2e"/>
       <use x="95.41015625" xlink:href="#BitstreamVeraSans-Roman-32"/>
       <use x="159.033203125" xlink:href="#BitstreamVeraSans-Roman-30"/>
      </g>
     </g>
    </g>
    <g id="ytick_3">
     <g id="line2d_27">
      <g>
       <use style="stroke:#000000;stroke-width:0.5;" x="108.0" xlink:href="#m8eaf6ae148" y="386.742857143"/>
      </g>
     </g>
     <g id="line2d_28">
      <g>
       <use style="stroke:#000000;stroke-width:0.5;" x="777.6" xlink:href="#m7acb27b17b" y="386.742857143"/>
      </g>
     </g>
     <g id="text_12">
      <!-- 0.25 -->
      <g transform="translate(59.46875 392.261607143)scale(0.2 -0.2)">
       <use xlink:href="#BitstreamVeraSans-Roman-30"/>
       <use x="63.623046875" xlink:href="#BitstreamVeraSans-Roman-2e"/>
       <use x="95.41015625" xlink:href="#BitstreamVeraSans-Roman-32"/>
       <use x="159.033203125" xlink:href="#BitstreamVeraSans-Roman-35"/>
      </g>
     </g>
    </g>
    <g id="ytick_4">
     <g id="line2d_29">
      <g>
       <use style="stroke:#000000;stroke-width:0.5;" x="108.0" xlink:href="#m8eaf6ae148" y="320.914285714"/>
      </g>
     </g>
     <g id="line2d_30">
      <g>
       <use style="stroke:#000000;stroke-width:0.5;" x="777.6" xlink:href="#m7acb27b17b" y="320.914285714"/>
      </g>
     </g>
     <g id="text_13">
      <!-- 0.30 -->
      <defs>
       <path d="M 40.578125 39.3125 
Q 47.65625 37.796875 51.625 33 
Q 55.609375 28.21875 55.609375 21.1875 
Q 55.609375 10.40625 48.1875 4.484375 
Q 40.765625 -1.421875 27.09375 -1.421875 
Q 22.515625 -1.421875 17.65625 -0.515625 
Q 12.796875 0.390625 7.625 2.203125 
L 7.625 11.71875 
Q 11.71875 9.328125 16.59375 8.109375 
Q 21.484375 6.890625 26.8125 6.890625 
Q 36.078125 6.890625 40.9375 10.546875 
Q 45.796875 14.203125 45.796875 21.1875 
Q 45.796875 27.640625 41.28125 31.265625 
Q 36.765625 34.90625 28.71875 34.90625 
L 20.21875 34.90625 
L 20.21875 43.015625 
L 29.109375 43.015625 
Q 36.375 43.015625 40.234375 45.921875 
Q 44.09375 48.828125 44.09375 54.296875 
Q 44.09375 59.90625 40.109375 62.90625 
Q 36.140625 65.921875 28.71875 65.921875 
Q 24.65625 65.921875 20.015625 65.03125 
Q 15.375 64.15625 9.8125 62.3125 
L 9.8125 71.09375 
Q 15.4375 72.65625 20.34375 73.4375 
Q 25.25 74.21875 29.59375 74.21875 
Q 40.828125 74.21875 47.359375 69.109375 
Q 53.90625 64.015625 53.90625 55.328125 
Q 53.90625 49.265625 50.4375 45.09375 
Q 46.96875 40.921875 40.578125 39.3125 
" id="BitstreamVeraSans-Roman-33"/>
      </defs>
      <g transform="translate(59.46875 326.433035714)scale(0.2 -0.2)">
       <use xlink:href="#BitstreamVeraSans-Roman-30"/>
       <use x="63.623046875" xlink:href="#BitstreamVeraSans-Roman-2e"/>
       <use x="95.41015625" xlink:href="#BitstreamVeraSans-Roman-33"/>
       <use x="159.033203125" xlink:href="#BitstreamVeraSans-Roman-30"/>
      </g>
     </g>
    </g>
    <g id="ytick_5">
     <g id="line2d_31">
      <g>
       <use style="stroke:#000000;stroke-width:0.5;" x="108.0" xlink:href="#m8eaf6ae148" y="255.085714286"/>
      </g>
     </g>
     <g id="line2d_32">
      <g>
       <use style="stroke:#000000;stroke-width:0.5;" x="777.6" xlink:href="#m7acb27b17b" y="255.085714286"/>
      </g>
     </g>
     <g id="text_14">
      <!-- 0.35 -->
      <g transform="translate(59.46875 260.604464286)scale(0.2 -0.2)">
       <use xlink:href="#BitstreamVeraSans-Roman-30"/>
       <use x="63.623046875" xlink:href="#BitstreamVeraSans-Roman-2e"/>
       <use x="95.41015625" xlink:href="#BitstreamVeraSans-Roman-33"/>
       <use x="159.033203125" xlink:href="#BitstreamVeraSans-Roman-35"/>
      </g>
     </g>
    </g>
    <g id="ytick_6">
     <g id="line2d_33">
      <g>
       <use style="stroke:#000000;stroke-width:0.5;" x="108.0" xlink:href="#m8eaf6ae148" y="189.257142857"/>
      </g>
     </g>
     <g id="line2d_34">
      <g>
       <use style="stroke:#000000;stroke-width:0.5;" x="777.6" xlink:href="#m7acb27b17b" y="189.257142857"/>
      </g>
     </g>
     <g id="text_15">
      <!-- 0.40 -->
      <g transform="translate(59.46875 194.775892857)scale(0.2 -0.2)">
       <use xlink:href="#BitstreamVeraSans-Roman-30"/>
       <use x="63.623046875" xlink:href="#BitstreamVeraSans-Roman-2e"/>
       <use x="95.41015625" xlink:href="#BitstreamVeraSans-Roman-34"/>
       <use x="159.033203125" xlink:href="#BitstreamVeraSans-Roman-30"/>
      </g>
     </g>
    </g>
    <g id="ytick_7">
     <g id="line2d_35">
      <g>
       <use style="stroke:#000000;stroke-width:0.5;" x="108.0" xlink:href="#m8eaf6ae148" y="123.428571429"/>
      </g>
     </g>
     <g id="line2d_36">
      <g>
       <use style="stroke:#000000;stroke-width:0.5;" x="777.6" xlink:href="#m7acb27b17b" y="123.428571429"/>
      </g>
     </g>
     <g id="text_16">
      <!-- 0.45 -->
      <g transform="translate(59.46875 128.947321429)scale(0.2 -0.2)">
       <use xlink:href="#BitstreamVeraSans-Roman-30"/>
       <use x="63.623046875" xlink:href="#BitstreamVeraSans-Roman-2e"/>
       <use x="95.41015625" xlink:href="#BitstreamVeraSans-Roman-34"/>
       <use x="159.033203125" xlink:href="#BitstreamVeraSans-Roman-35"/>
      </g>
     </g>
    </g>
    <g id="ytick_8">
     <g id="line2d_37">
      <g>
       <use style="stroke:#000000;stroke-width:0.5;" x="108.0" xlink:href="#m8eaf6ae148" y="57.6"/>
      </g>
     </g>
     <g id="line2d_38">
      <g>
       <use style="stroke:#000000;stroke-width:0.5;" x="777.6" xlink:href="#m7acb27b17b" y="57.6"/>
      </g>
     </g>
     <g id="text_17">
      <!-- 0.50 -->
      <g transform="translate(59.46875 63.11875)scale(0.2 -0.2)">
       <use xlink:href="#BitstreamVeraSans-Roman-30"/>
       <use x="63.623046875" xlink:href="#BitstreamVeraSans-Roman-2e"/>
       <use x="95.41015625" xlink:href="#BitstreamVeraSans-Roman-35"/>
       <use x="159.033203125" xlink:href="#BitstreamVeraSans-Roman-30"/>
      </g>
     </g>
    </g>
    <g id="text_18">
     <!-- $&lt;\overline{\nu}_{\tau}&gt;_s$ -->
     <defs>
      <path d="M 8.296875 -2 
Q 8.296875 -0.734375 9.625 -0.09375 
L 62.703125 25 
L 9.28125 50.296875 
Q 8.296875 50.59375 8.296875 52 
Q 8.296875 52.6875 8.859375 53.34375 
Q 9.421875 54 10.296875 54 
Q 10.5 54 11.078125 53.8125 
L 68.5 26.703125 
Q 69.390625 26.265625 69.390625 25 
Q 69.390625 23.6875 68.21875 23.1875 
L 11.078125 -3.8125 
Q 10.5 -4 10.296875 -4 
Q 9.421875 -4 8.859375 -3.34375 
Q 8.296875 -2.6875 8.296875 -2 
" id="Cmmi10-3e"/>
      <path d="M 15.578125 1.515625 
Q 15.578125 2.203125 15.71875 2.59375 
L 26.21875 36.921875 
L 17.1875 36.921875 
Q 13.53125 36.921875 10.34375 34.625 
Q 7.171875 32.328125 5.078125 28.8125 
Q 4.890625 28.421875 4.5 28.421875 
L 3.328125 28.421875 
Q 2.390625 28.421875 2.390625 29.390625 
Q 2.390625 29.59375 2.59375 29.984375 
Q 5.859375 35.546875 9.59375 39.328125 
Q 13.328125 43.109375 18.015625 43.109375 
L 48.6875 43.109375 
Q 49.75 43.109375 50.484375 42.375 
Q 51.21875 41.65625 51.21875 40.578125 
Q 51.21875 39.109375 50.171875 38.015625 
Q 49.125 36.921875 47.609375 36.921875 
L 29.5 36.921875 
L 22.796875 2.390625 
Q 22.40625 0.78125 21.328125 -0.265625 
Q 20.265625 -1.3125 18.609375 -1.3125 
Q 17.328125 -1.3125 16.453125 -0.5 
Q 15.578125 0.296875 15.578125 1.515625 
" id="Cmmi10-bf"/>
      <path d="M 9.28125 23.296875 
Q 8.296875 23.734375 8.296875 25 
Q 8.296875 26.265625 9.625 26.90625 
L 66.703125 53.8125 
Q 67.09375 54 67.390625 54 
Q 68.265625 54 68.828125 53.390625 
Q 69.390625 52.78125 69.390625 52 
Q 69.390625 50.78125 68.21875 50.09375 
L 14.984375 25 
L 68.5 -0.296875 
Q 69.390625 -0.59375 69.390625 -2 
Q 69.390625 -2.78125 68.828125 -3.390625 
Q 68.265625 -4 67.390625 -4 
Q 67.09375 -4 66.703125 -3.8125 
z
" id="Cmmi10-3c"/>
      <path d="M 6.296875 0 
Q 5.078125 0 5.078125 1.3125 
L 13.625 35.296875 
Q 14.015625 37.015625 14.109375 37.984375 
Q 14.109375 39.59375 7.625 39.59375 
Q 6.59375 39.59375 6.59375 40.921875 
Q 6.640625 41.15625 6.8125 41.796875 
Q 6.984375 42.4375 7.25 42.765625 
Q 7.515625 43.109375 8.015625 43.109375 
L 21.484375 44.1875 
Q 22.703125 44.1875 22.703125 42.921875 
L 12.890625 3.71875 
Q 20.796875 6.34375 27.453125 11.953125 
Q 34.125 17.578125 38.734375 25.1875 
Q 43.359375 32.8125 45.40625 41.015625 
Q 45.796875 42.4375 46.96875 43.3125 
Q 48.140625 44.1875 49.609375 44.1875 
Q 50.921875 44.1875 51.75 43.40625 
Q 52.59375 42.625 52.59375 41.3125 
Q 52.59375 39.703125 51.265625 36.40625 
Q 49.953125 33.109375 48.6875 30.515625 
Q 44.734375 22.65625 38.1875 16.109375 
Q 34.078125 12.015625 29.359375 8.84375 
Q 24.65625 5.671875 19.53125 3.4375 
Q 14.40625 1.21875 8.6875 0 
z
" id="Cmmi10-ba"/>
     </defs>
     <g transform="translate(50.309375 324.1)rotate(-90.0)scale(0.2 -0.2)">
      <use transform="translate(17.55859375 0.0625)" xlink:href="#Cmmi10-3c"/>
      <use transform="translate(112.802734375 0.5625)" xlink:href="#Cmmi10-ba"/>
      <use transform="translate(166.6809375 -16.943749999999994)scale(0.7)" xlink:href="#Cmmi10-bf"/>
      <use transform="translate(221.2076953125 0.0625)" xlink:href="#Cmmi10-3e"/>
      <use transform="translate(320.9159765625 -16.943749999999994)scale(0.7)" xlink:href="#Cmmi10-73"/>
      <path d="M 112.802734 56.5 
L 112.802734 62.75 
L 162.216797 62.75 
L 162.216797 56.5 
L 112.802734 56.5 
z
"/>
     </g>
    </g>
   </g>
   <g id="text_19">
    <!-- $N=10, \phi=0.65, l_p/\sigma=5$ $(N_{iter}=1e+08, dt=1e-03)$ — $p=1.0e+00$% -->
    <defs>
     <path d="M 25 -2.203125 
Q 12.75 -2.203125 8.328125 7.875 
Q 3.90625 17.96875 3.90625 31.890625 
Q 3.90625 40.578125 5.484375 48.234375 
Q 7.078125 55.90625 11.78125 61.25 
Q 16.5 66.609375 25 66.609375 
Q 31.59375 66.609375 35.78125 63.375 
Q 39.984375 60.15625 42.1875 55.046875 
Q 44.390625 49.953125 45.1875 44.109375 
Q 46 38.28125 46 31.890625 
Q 46 23.296875 44.40625 15.796875 
Q 42.828125 8.296875 38.1875 3.046875 
Q 33.546875 -2.203125 25 -2.203125 
M 25 0.390625 
Q 30.5625 0.390625 33.296875 6.09375 
Q 36.03125 11.8125 36.671875 18.75 
Q 37.3125 25.6875 37.3125 33.5 
Q 37.3125 41.015625 36.671875 47.359375 
Q 36.03125 53.71875 33.3125 58.859375 
Q 30.609375 64.015625 25 64.015625 
Q 19.34375 64.015625 16.609375 58.828125 
Q 13.875 53.65625 13.234375 47.328125 
Q 12.59375 41.015625 12.59375 33.5 
Q 12.59375 27.9375 12.859375 23 
Q 13.140625 18.0625 14.3125 12.8125 
Q 15.484375 7.5625 18.09375 3.96875 
Q 20.703125 0.390625 25 0.390625 
" id="Cmr10-30"/>
     <path d="M 4.6875 0 
Q 3.71875 0 3.71875 1.3125 
Q 3.765625 1.5625 3.90625 2.171875 
Q 4.046875 2.78125 4.3125 3.140625 
Q 4.59375 3.515625 4.984375 3.515625 
Q 14.546875 3.515625 16.109375 9.625 
L 29.6875 64.3125 
Q 26.90625 64.796875 20.90625 64.796875 
Q 19.921875 64.796875 19.921875 66.109375 
Q 19.96875 66.359375 20.109375 66.96875 
Q 20.265625 67.578125 20.53125 67.9375 
Q 20.796875 68.3125 21.1875 68.3125 
L 38.484375 68.3125 
Q 39.203125 68.3125 39.40625 67.671875 
L 61.625 14.796875 
L 72.703125 59.078125 
Q 72.90625 60.15625 72.90625 60.59375 
Q 72.90625 64.796875 65.1875 64.796875 
Q 64.203125 64.796875 64.203125 66.109375 
Q 64.546875 67.390625 64.734375 67.84375 
Q 64.9375 68.3125 65.921875 68.3125 
L 87.3125 68.3125 
Q 88.28125 68.3125 88.28125 67 
Q 88.234375 66.75 88.078125 66.140625 
Q 87.9375 65.53125 87.671875 65.15625 
Q 87.40625 64.796875 87.015625 64.796875 
Q 77.4375 64.796875 75.875 58.6875 
L 61.53125 0.875 
Q 61.1875 0 60.5 0 
L 59.28125 0 
Q 58.59375 0 58.40625 0.6875 
L 32.90625 61.1875 
L 32.71875 61.8125 
Q 32.515625 62.015625 32.515625 62.109375 
L 19.28125 9.1875 
Q 19.1875 8.9375 19.140625 8.5625 
Q 19.09375 8.203125 19 7.71875 
Q 19 5.125 21.234375 4.3125 
Q 23.484375 3.515625 26.8125 3.515625 
Q 27.78125 3.515625 27.78125 2.203125 
Q 27.4375 0.828125 27.1875 0.40625 
Q 26.953125 0 26.125 0 
z
" id="Cmmi10-4e"/>
     <path d="M 31 -24.8125 
Q 25.4375 -20.40625 21.40625 -14.71875 
Q 17.390625 -9.03125 14.8125 -2.578125 
Q 12.25 3.859375 10.984375 10.890625 
Q 9.71875 17.921875 9.71875 25 
Q 9.71875 32.171875 10.984375 39.203125 
Q 12.25 46.234375 14.859375 52.734375 
Q 17.484375 59.234375 21.53125 64.890625 
Q 25.59375 70.5625 31 74.8125 
Q 31 75 31.5 75 
L 32.421875 75 
Q 32.71875 75 32.953125 74.734375 
Q 33.203125 74.46875 33.203125 74.125 
Q 33.203125 73.6875 33.015625 73.484375 
Q 28.125 68.703125 24.875 63.234375 
Q 21.625 57.765625 19.640625 51.578125 
Q 17.671875 45.40625 16.796875 38.78125 
Q 15.921875 32.171875 15.921875 25 
Q 15.921875 -6.78125 32.90625 -23.296875 
Q 33.203125 -23.578125 33.203125 -24.125 
Q 33.203125 -24.359375 32.9375 -24.671875 
Q 32.671875 -25 32.421875 -25 
L 31.5 -25 
Q 31 -25 31 -24.8125 
" id="Cmr10-28"/>
     <path d="M 72.703125 32.078125 
Q 68.453125 32.078125 66.03125 28.46875 
Q 63.625 24.859375 63.625 18.40625 
Q 63.625 12.0625 66.03125 8.421875 
Q 68.453125 4.78125 72.703125 4.78125 
Q 76.859375 4.78125 79.265625 8.421875 
Q 81.6875 12.0625 81.6875 18.40625 
Q 81.6875 24.8125 79.265625 28.4375 
Q 76.859375 32.078125 72.703125 32.078125 
M 72.703125 38.28125 
Q 80.421875 38.28125 84.953125 32.90625 
Q 89.5 27.546875 89.5 18.40625 
Q 89.5 9.28125 84.9375 3.921875 
Q 80.375 -1.421875 72.703125 -1.421875 
Q 64.890625 -1.421875 60.34375 3.921875 
Q 55.8125 9.28125 55.8125 18.40625 
Q 55.8125 27.59375 60.375 32.9375 
Q 64.9375 38.28125 72.703125 38.28125 
M 22.3125 68.015625 
Q 18.109375 68.015625 15.6875 64.375 
Q 13.28125 60.75 13.28125 54.390625 
Q 13.28125 47.953125 15.671875 44.328125 
Q 18.0625 40.71875 22.3125 40.71875 
Q 26.5625 40.71875 28.96875 44.328125 
Q 31.390625 47.953125 31.390625 54.390625 
Q 31.390625 60.6875 28.953125 64.34375 
Q 26.515625 68.015625 22.3125 68.015625 
M 66.40625 74.21875 
L 74.21875 74.21875 
L 28.609375 -1.421875 
L 20.796875 -1.421875 
z
M 22.3125 74.21875 
Q 30.03125 74.21875 34.609375 68.875 
Q 39.203125 63.53125 39.203125 54.390625 
Q 39.203125 45.171875 34.640625 39.84375 
Q 30.078125 34.515625 22.3125 34.515625 
Q 14.546875 34.515625 10.03125 39.859375 
Q 5.515625 45.21875 5.515625 54.390625 
Q 5.515625 63.484375 10.046875 68.84375 
Q 14.59375 74.21875 22.3125 74.21875 
" id="BitstreamVeraSans-Roman-25"/>
     <path d="M 7.515625 13.28125 
Q 6.6875 13.28125 6.140625 13.90625 
Q 5.609375 14.546875 5.609375 15.28125 
Q 5.609375 16.109375 6.140625 16.6875 
Q 6.6875 17.28125 7.515625 17.28125 
L 70.3125 17.28125 
Q 71.046875 17.28125 71.578125 16.6875 
Q 72.125 16.109375 72.125 15.28125 
Q 72.125 14.546875 71.578125 13.90625 
Q 71.046875 13.28125 70.3125 13.28125 
z
M 7.515625 32.71875 
Q 6.6875 32.71875 6.140625 33.296875 
Q 5.609375 33.890625 5.609375 34.71875 
Q 5.609375 35.453125 6.140625 36.078125 
Q 6.6875 36.71875 7.515625 36.71875 
L 70.3125 36.71875 
Q 71.046875 36.71875 71.578125 36.078125 
Q 72.125 35.453125 72.125 34.71875 
Q 72.125 33.890625 71.578125 33.296875 
Q 71.046875 32.71875 70.3125 32.71875 
z
" id="Cmr10-3d"/>
     <path d="M 10.203125 23 
Q 9.375 23 8.828125 23.625 
Q 8.296875 24.265625 8.296875 25 
Q 8.296875 25.734375 8.828125 26.359375 
Q 9.375 27 10.203125 27 
L 67.578125 27 
Q 68.359375 27 68.875 26.359375 
Q 69.390625 25.734375 69.390625 25 
Q 69.390625 24.265625 68.875 23.625 
Q 68.359375 23 67.578125 23 
z
" id="Cmsy10-a1"/>
     <path d="M 19.390625 -19.484375 
L 23.875 -1.421875 
Q 18.796875 -1.421875 14.40625 0.953125 
Q 10.015625 3.328125 7.34375 7.5625 
Q 4.6875 11.8125 4.6875 16.796875 
Q 4.6875 22.21875 7.375 27.140625 
Q 10.0625 32.078125 14.71875 36.109375 
Q 19.390625 40.140625 24.75 42.3125 
Q 30.125 44.484375 35.40625 44.484375 
L 41.40625 68.796875 
Q 41.609375 69.390625 42.1875 69.390625 
L 43.40625 69.390625 
Q 43.796875 69.390625 44.03125 69.046875 
Q 44.28125 68.703125 44.28125 68.40625 
L 38.28125 44.484375 
Q 42.046875 44.484375 45.5625 43.109375 
Q 49.078125 41.75 51.78125 39.28125 
Q 54.5 36.8125 56 33.46875 
Q 57.515625 30.125 57.515625 26.3125 
Q 57.515625 20.90625 54.828125 15.96875 
Q 52.15625 11.03125 47.609375 7.078125 
Q 43.0625 3.125 37.46875 0.84375 
Q 31.890625 -1.421875 26.8125 -1.421875 
L 22.21875 -19.921875 
Q 22.015625 -20.515625 21.390625 -20.515625 
L 20.21875 -20.515625 
Q 19.828125 -20.515625 19.609375 -20.140625 
Q 19.390625 -19.78125 19.390625 -19.484375 
M 24.515625 1.21875 
L 34.71875 41.890625 
Q 32.171875 41.890625 29.390625 40.859375 
Q 26.609375 39.84375 24.140625 38.28125 
Q 21.6875 36.71875 19.671875 34.71875 
Q 17.234375 32.28125 15.375 28.953125 
Q 13.53125 25.640625 12.578125 21.953125 
Q 11.625 18.265625 11.625 14.703125 
Q 11.625 10.9375 13.234375 7.859375 
Q 14.84375 4.78125 17.765625 3 
Q 20.703125 1.21875 24.515625 1.21875 
M 27.484375 1.21875 
Q 31.25 1.21875 35.5 3.359375 
Q 39.75 5.515625 42.484375 8.40625 
Q 46.234375 12.109375 48.40625 17.5 
Q 50.59375 22.90625 50.59375 28.421875 
Q 50.59375 32.125 48.96875 35.21875 
Q 47.359375 38.328125 44.421875 40.109375 
Q 41.5 41.890625 37.703125 41.890625 
z
" id="Cmmi10-c1"/>
     <path d="M 9.90625 -18.015625 
Q 9.90625 -17.578125 10.296875 -17.1875 
Q 13.921875 -13.71875 15.921875 -9.171875 
Q 17.921875 -4.640625 17.921875 0.390625 
L 17.921875 1.609375 
Q 16.3125 0 13.921875 0 
Q 11.625 0 10.015625 1.609375 
Q 8.40625 3.21875 8.40625 5.515625 
Q 8.40625 7.859375 10.015625 9.421875 
Q 11.625 10.984375 13.921875 10.984375 
Q 17.484375 10.984375 19 7.6875 
Q 20.515625 4.390625 20.515625 0.390625 
Q 20.515625 -5.171875 18.28125 -10.171875 
Q 16.0625 -15.1875 12.015625 -19.1875 
Q 11.625 -19.390625 11.375 -19.390625 
Q 10.890625 -19.390625 10.390625 -18.9375 
Q 9.90625 -18.5 9.90625 -18.015625 
" id="Cmmi10-3b"/>
     <path d="M 7.71875 1.703125 
Q 7.71875 2.296875 7.8125 2.59375 
L 15.28125 32.421875 
Q 16.015625 35.203125 16.015625 37.3125 
Q 16.015625 41.609375 13.09375 41.609375 
Q 9.96875 41.609375 8.453125 37.859375 
Q 6.9375 34.125 5.515625 28.421875 
Q 5.515625 28.125 5.21875 27.953125 
Q 4.9375 27.78125 4.6875 27.78125 
L 3.515625 27.78125 
Q 3.171875 27.78125 2.921875 28.140625 
Q 2.6875 28.515625 2.6875 28.8125 
Q 3.765625 33.15625 4.765625 36.171875 
Q 5.765625 39.203125 7.890625 41.6875 
Q 10.015625 44.1875 13.1875 44.1875 
Q 16.65625 44.1875 19.265625 42.1875 
Q 21.875 40.1875 22.515625 36.921875 
Q 25.046875 40.234375 28.296875 42.203125 
Q 31.546875 44.1875 35.40625 44.1875 
Q 38.578125 44.1875 40.984375 42.328125 
Q 43.40625 40.484375 43.40625 37.3125 
Q 43.40625 34.765625 41.8125 32.875 
Q 40.234375 31 37.59375 31 
Q 35.984375 31 34.890625 32 
Q 33.796875 33.015625 33.796875 34.625 
Q 33.796875 36.8125 35.40625 38.546875 
Q 37.015625 40.28125 39.109375 40.28125 
Q 37.5 41.609375 35.203125 41.609375 
Q 30.90625 41.609375 27.734375 38.546875 
Q 24.5625 35.5 22.015625 30.8125 
L 14.890625 2.203125 
Q 14.546875 0.828125 13.34375 -0.140625 
Q 12.15625 -1.125 10.6875 -1.125 
Q 9.46875 -1.125 8.59375 -0.34375 
Q 7.71875 0.4375 7.71875 1.703125 
" id="Cmmi10-72"/>
     <path d="M 0 30.90625 
L 100 30.90625 
L 100 23.875 
L 0 23.875 
z
" id="BitstreamVeraSans-Roman-2014"/>
     <path d="M 6.203125 8.109375 
Q 6.203125 9.578125 6.5 10.890625 
L 13.71875 39.59375 
L 3.21875 39.59375 
Q 2.203125 39.59375 2.203125 40.921875 
Q 2.59375 43.109375 3.515625 43.109375 
L 14.59375 43.109375 
L 18.609375 59.421875 
Q 19 60.75 20.171875 61.671875 
Q 21.34375 62.59375 22.796875 62.59375 
Q 24.078125 62.59375 24.921875 61.828125 
Q 25.78125 61.078125 25.78125 59.8125 
Q 25.78125 59.515625 25.75 59.34375 
Q 25.734375 59.1875 25.6875 58.984375 
L 21.6875 43.109375 
L 31.984375 43.109375 
Q 33.015625 43.109375 33.015625 41.796875 
Q 32.953125 41.546875 32.8125 40.953125 
Q 32.671875 40.375 32.421875 39.984375 
Q 32.171875 39.59375 31.6875 39.59375 
L 20.796875 39.59375 
L 13.625 10.6875 
Q 12.890625 7.859375 12.890625 5.8125 
Q 12.890625 1.515625 15.828125 1.515625 
Q 20.21875 1.515625 23.609375 5.640625 
Q 27 9.765625 28.8125 14.703125 
Q 29.203125 15.28125 29.59375 15.28125 
L 30.8125 15.28125 
Q 31.203125 15.28125 31.4375 15.015625 
Q 31.6875 14.75 31.6875 14.40625 
Q 31.6875 14.203125 31.59375 14.109375 
Q 29.390625 8.0625 25.1875 3.46875 
Q 21 -1.125 15.578125 -1.125 
Q 11.625 -1.125 8.90625 1.453125 
Q 6.203125 4.046875 6.203125 8.109375 
" id="Cmmi10-74"/>
     <path d="M 7.8125 7.171875 
Q 7.8125 9.03125 8.59375 11.078125 
L 16.703125 32.625 
Q 18.015625 36.28125 18.015625 38.625 
Q 18.015625 41.609375 15.828125 41.609375 
Q 11.859375 41.609375 9.296875 37.53125 
Q 6.734375 33.453125 5.515625 28.421875 
Q 5.328125 27.78125 4.6875 27.78125 
L 3.515625 27.78125 
Q 2.6875 27.78125 2.6875 28.71875 
L 2.6875 29 
Q 4.296875 34.96875 7.609375 39.578125 
Q 10.9375 44.1875 16.015625 44.1875 
Q 19.578125 44.1875 22.046875 41.84375 
Q 24.515625 39.5 24.515625 35.890625 
Q 24.515625 34.03125 23.6875 31.984375 
L 15.578125 10.5 
Q 14.203125 7.171875 14.203125 4.5 
Q 14.203125 1.515625 16.5 1.515625 
Q 20.40625 1.515625 23.015625 5.6875 
Q 25.640625 9.859375 26.703125 14.703125 
Q 26.90625 15.28125 27.484375 15.28125 
L 28.71875 15.28125 
Q 29.109375 15.28125 29.34375 15.015625 
Q 29.59375 14.75 29.59375 14.40625 
Q 29.59375 14.3125 29.5 14.109375 
Q 28.125 8.453125 24.734375 3.65625 
Q 21.34375 -1.125 16.3125 -1.125 
Q 12.796875 -1.125 10.296875 1.296875 
Q 7.8125 3.71875 7.8125 7.171875 
M 19.09375 60.59375 
Q 19.09375 62.703125 20.84375 64.40625 
Q 22.609375 66.109375 24.703125 66.109375 
Q 26.421875 66.109375 27.515625 65.0625 
Q 28.609375 64.015625 28.609375 62.40625 
Q 28.609375 60.15625 26.828125 58.46875 
Q 25.046875 56.78125 22.90625 56.78125 
Q 21.296875 56.78125 20.1875 57.875 
Q 19.09375 58.984375 19.09375 60.59375 
" id="Cmmi10-69"/>
     <path d="M -2.484375 -19.390625 
Q -3.421875 -19.390625 -3.421875 -18.109375 
Q -3.078125 -15.921875 -2.09375 -15.921875 
Q 1.03125 -15.921875 2.265625 -15.359375 
Q 3.515625 -14.796875 4.203125 -12.5 
L 15.484375 32.515625 
Q 16.21875 34.375 16.21875 37.3125 
Q 16.21875 41.609375 13.28125 41.609375 
Q 10.15625 41.609375 8.640625 37.859375 
Q 7.125 34.125 5.71875 28.421875 
Q 5.71875 27.78125 4.890625 27.78125 
L 3.71875 27.78125 
Q 3.46875 27.78125 3.171875 28.140625 
Q 2.875 28.515625 2.875 28.8125 
Q 3.953125 33.15625 4.953125 36.171875 
Q 5.953125 39.203125 8.078125 41.6875 
Q 10.203125 44.1875 13.375 44.1875 
Q 16.796875 44.1875 19.375 42.25 
Q 21.96875 40.328125 22.703125 37.015625 
Q 25.4375 40.1875 28.75 42.1875 
Q 32.078125 44.1875 35.59375 44.1875 
Q 39.796875 44.1875 42.890625 41.9375 
Q 46 39.703125 47.5625 36.0625 
Q 49.125 32.421875 49.125 28.21875 
Q 49.125 21.78125 45.828125 14.890625 
Q 42.53125 8.015625 36.890625 3.4375 
Q 31.25 -1.125 24.8125 -1.125 
Q 21.875 -1.125 19.5 0.53125 
Q 17.140625 2.203125 15.828125 4.890625 
L 11.28125 -12.890625 
Q 11.03125 -14.359375 10.984375 -14.59375 
Q 10.984375 -15.921875 17.578125 -15.921875 
Q 18.609375 -15.921875 18.609375 -17.1875 
Q 18.265625 -18.5 18.046875 -18.9375 
Q 17.828125 -19.390625 16.890625 -19.390625 
z
M 24.90625 1.515625 
Q 28.375 1.515625 31.34375 4.375 
Q 34.328125 7.234375 36.1875 10.796875 
Q 37.546875 13.484375 38.734375 17.359375 
Q 39.9375 21.234375 40.8125 25.625 
Q 41.703125 30.03125 41.703125 32.625 
Q 41.703125 34.90625 41.09375 36.90625 
Q 40.484375 38.921875 39.09375 40.265625 
Q 37.703125 41.609375 35.40625 41.609375 
Q 31.734375 41.609375 28.484375 38.984375 
Q 25.25 36.375 22.609375 32.515625 
L 22.609375 32.171875 
L 17.09375 10.109375 
Q 17.78125 6.546875 19.734375 4.03125 
Q 21.6875 1.515625 24.90625 1.515625 
" id="Cmmi10-70"/>
     <path id="BitstreamVeraSans-Roman-20"/>
     <path d="M 8.40625 5.515625 
Q 8.40625 7.765625 10.0625 9.375 
Q 11.71875 10.984375 13.921875 10.984375 
Q 15.28125 10.984375 16.59375 10.25 
Q 17.921875 9.515625 18.65625 8.203125 
Q 19.390625 6.890625 19.390625 5.515625 
Q 19.390625 3.328125 17.765625 1.65625 
Q 16.15625 0 13.921875 0 
Q 11.71875 0 10.0625 1.65625 
Q 8.40625 3.328125 8.40625 5.515625 
" id="Cmmi10-3a"/>
     <path d="M 25 -2.203125 
Q 18.796875 -2.203125 14.640625 1.09375 
Q 10.5 4.390625 8.21875 9.640625 
Q 5.953125 14.890625 5.078125 20.65625 
Q 4.203125 26.421875 4.203125 32.328125 
Q 4.203125 40.234375 7.28125 48.1875 
Q 10.359375 56.15625 16.328125 61.375 
Q 22.3125 66.609375 30.515625 66.609375 
Q 33.9375 66.609375 36.890625 65.3125 
Q 39.84375 64.015625 41.53125 61.5 
Q 43.21875 58.984375 43.21875 55.421875 
Q 43.21875 53.375 41.828125 51.984375 
Q 40.4375 50.59375 38.375 50.59375 
Q 36.421875 50.59375 35 52 
Q 33.59375 53.421875 33.59375 55.421875 
Q 33.59375 57.375 35 58.78125 
Q 36.421875 60.203125 38.375 60.203125 
L 38.921875 60.203125 
Q 37.640625 62.015625 35.328125 62.859375 
Q 33.015625 63.71875 30.515625 63.71875 
Q 27.484375 63.71875 24.921875 62.390625 
Q 22.359375 61.078125 20.3125 58.828125 
Q 18.265625 56.59375 16.890625 53.875 
Q 15.53125 51.171875 14.765625 47.703125 
Q 14.015625 44.234375 13.8125 41.203125 
Q 13.625 38.1875 13.625 33.59375 
Q 15.375 37.703125 18.59375 40.3125 
Q 21.828125 42.921875 25.875 42.921875 
Q 30.328125 42.921875 33.984375 41.109375 
Q 37.640625 39.3125 40.28125 36.109375 
Q 42.921875 32.90625 44.3125 28.796875 
Q 45.703125 24.703125 45.703125 20.515625 
Q 45.703125 14.65625 43.09375 9.34375 
Q 40.484375 4.046875 35.734375 0.921875 
Q 31 -2.203125 25 -2.203125 
M 25 0.984375 
Q 28.859375 0.984375 31.203125 2.734375 
Q 33.546875 4.5 34.640625 7.390625 
Q 35.75 10.296875 36.015625 13.25 
Q 36.28125 16.21875 36.28125 20.515625 
Q 36.28125 26.171875 35.734375 30.171875 
Q 35.203125 34.1875 32.8125 37.234375 
Q 30.421875 40.28125 25.484375 40.28125 
Q 21.4375 40.28125 18.828125 37.546875 
Q 16.21875 34.8125 15.015625 30.640625 
Q 13.8125 26.46875 13.8125 22.609375 
Q 13.8125 21.296875 13.921875 20.609375 
Q 13.921875 20.453125 13.890625 20.359375 
Q 13.875 20.265625 13.8125 20.125 
Q 13.8125 15.828125 14.6875 11.421875 
Q 15.578125 7.03125 18.0625 4 
Q 20.5625 0.984375 25 0.984375 
" id="Cmr10-36"/>
     <path d="M 17.390625 -1.125 
Q 11.078125 -1.125 7.4375 3.640625 
Q 3.8125 8.40625 3.8125 14.890625 
Q 3.8125 21.296875 7.125 28.171875 
Q 10.453125 35.0625 16.09375 39.625 
Q 21.734375 44.1875 28.21875 44.1875 
Q 31.15625 44.1875 33.515625 42.546875 
Q 35.890625 40.921875 37.203125 38.1875 
L 42.828125 60.5 
Q 43.21875 62.203125 43.3125 63.1875 
Q 43.3125 64.796875 36.8125 64.796875 
Q 35.796875 64.796875 35.796875 66.109375 
Q 35.84375 66.359375 36.015625 66.984375 
Q 36.1875 67.625 36.453125 67.96875 
Q 36.71875 68.3125 37.203125 68.3125 
L 50.6875 69.390625 
Q 51.90625 69.390625 51.90625 68.109375 
L 37.5 10.59375 
Q 36.8125 8.9375 36.8125 5.8125 
Q 36.8125 1.515625 39.703125 1.515625 
Q 42.828125 1.515625 44.453125 5.484375 
Q 46.09375 9.46875 47.21875 14.703125 
Q 47.40625 15.28125 48 15.28125 
L 49.21875 15.28125 
Q 49.609375 15.28125 49.84375 14.9375 
Q 50.09375 14.59375 50.09375 14.3125 
Q 48.34375 7.328125 46.265625 3.09375 
Q 44.1875 -1.125 39.5 -1.125 
Q 36.140625 -1.125 33.546875 0.84375 
Q 30.953125 2.828125 30.328125 6.109375 
Q 23.875 -1.125 17.390625 -1.125 
M 17.484375 1.515625 
Q 21.09375 1.515625 24.484375 4.21875 
Q 27.875 6.9375 30.328125 10.59375 
Q 30.421875 10.6875 30.421875 10.984375 
L 35.890625 33.015625 
Q 35.296875 36.53125 33.296875 39.0625 
Q 31.296875 41.609375 27.984375 41.609375 
Q 24.609375 41.609375 21.703125 38.84375 
Q 18.796875 36.078125 16.796875 32.328125 
Q 14.84375 28.328125 13.0625 21.34375 
Q 11.28125 14.359375 11.28125 10.5 
Q 11.28125 7.03125 12.765625 4.265625 
Q 14.265625 1.515625 17.484375 1.515625 
" id="Cmmi10-64"/>
     <path d="M 9.28125 0 
L 9.28125 3.515625 
Q 21.78125 3.515625 21.78125 6.6875 
L 21.78125 59.1875 
Q 16.609375 56.6875 8.6875 56.6875 
L 8.6875 60.203125 
Q 20.953125 60.203125 27.203125 66.609375 
L 28.609375 66.609375 
Q 28.953125 66.609375 29.265625 66.328125 
Q 29.59375 66.0625 29.59375 65.71875 
L 29.59375 6.6875 
Q 29.59375 3.515625 42.09375 3.515625 
L 42.09375 0 
z
" id="Cmr10-31"/>
     <path d="M 4.390625 8.109375 
Q 4.390625 8.40625 4.46875 8.984375 
Q 4.546875 9.578125 4.609375 10.125 
Q 4.6875 10.6875 4.6875 10.984375 
L 17.09375 60.5 
Q 17.484375 62.203125 17.578125 63.1875 
Q 17.578125 64.796875 11.078125 64.796875 
Q 10.109375 64.796875 10.109375 66.109375 
Q 10.15625 66.359375 10.328125 66.984375 
Q 10.5 67.625 10.765625 67.96875 
Q 11.03125 68.3125 11.53125 68.3125 
L 25 69.390625 
Q 26.21875 69.390625 26.21875 68.109375 
L 11.8125 10.59375 
Q 11.078125 8.984375 11.078125 5.8125 
Q 11.078125 1.515625 14.015625 1.515625 
Q 17.09375 1.515625 18.625 5.34375 
Q 20.171875 9.1875 21.390625 14.703125 
Q 21.578125 15.28125 22.21875 15.28125 
L 23.390625 15.28125 
Q 23.78125 15.28125 24.046875 14.96875 
Q 24.3125 14.65625 24.3125 14.3125 
Q 23.140625 9.46875 22.1875 6.65625 
Q 21.234375 3.859375 19.140625 1.359375 
Q 17.046875 -1.125 13.8125 -1.125 
Q 9.8125 -1.125 7.09375 1.453125 
Q 4.390625 4.046875 4.390625 8.109375 
" id="Cmmi10-6c"/>
     <path d="M 4.203125 15.1875 
Q 4.203125 21.1875 8.15625 25.796875 
Q 12.109375 30.421875 18.3125 33.5 
L 14.59375 35.890625 
Q 11.1875 38.140625 9.03125 41.875 
Q 6.890625 45.609375 6.890625 49.703125 
Q 6.890625 54.5 9.40625 58.34375 
Q 11.921875 62.203125 16.09375 64.40625 
Q 20.265625 66.609375 25 66.609375 
Q 29.4375 66.609375 33.5625 64.796875 
Q 37.703125 62.984375 40.359375 59.609375 
Q 43.015625 56.25 43.015625 51.609375 
Q 43.015625 48.25 41.421875 45.359375 
Q 39.84375 42.484375 37.078125 40.1875 
Q 34.328125 37.890625 31.203125 36.28125 
L 36.921875 32.625 
Q 40.875 30.03125 43.28125 25.828125 
Q 45.703125 21.625 45.703125 17 
Q 45.703125 11.578125 42.796875 7.125 
Q 39.890625 2.6875 35.109375 0.234375 
Q 30.328125 -2.203125 25 -2.203125 
Q 19.828125 -2.203125 15.015625 -0.09375 
Q 10.203125 2 7.203125 5.984375 
Q 4.203125 9.96875 4.203125 15.1875 
M 9.625 15.1875 
Q 9.625 11.234375 11.796875 7.953125 
Q 13.96875 4.6875 17.53125 2.828125 
Q 21.09375 0.984375 25 0.984375 
Q 30.8125 0.984375 35.546875 4.375 
Q 40.28125 7.765625 40.28125 13.375 
Q 40.28125 15.28125 39.515625 17.15625 
Q 38.765625 19.046875 37.421875 20.578125 
Q 36.078125 22.125 34.421875 23.09375 
L 21 31.78125 
Q 17.875 30.125 15.25 27.578125 
Q 12.640625 25.046875 11.125 21.875 
Q 9.625 18.703125 9.625 15.1875 
M 16.5 45.703125 
L 28.609375 37.890625 
Q 32.8125 40.328125 35.5 43.796875 
Q 38.1875 47.265625 38.1875 51.609375 
Q 38.1875 54.984375 36.296875 57.78125 
Q 34.421875 60.59375 31.390625 62.15625 
Q 28.375 63.71875 24.90625 63.71875 
Q 21.875 63.71875 18.796875 62.546875 
Q 15.71875 61.375 13.71875 59.046875 
Q 11.71875 56.734375 11.71875 53.609375 
Q 11.71875 48.921875 16.5 45.703125 
" id="Cmr10-38"/>
     <path d="M 20.125 -1.125 
Q 15.328125 -1.125 11.734375 1.359375 
Q 8.15625 3.859375 6.265625 8.078125 
Q 4.390625 12.3125 4.390625 17 
Q 4.390625 24.125 7.984375 30.390625 
Q 11.578125 36.671875 17.71875 40.421875 
Q 23.875 44.1875 30.90625 44.1875 
Q 35.203125 44.1875 38.40625 41.96875 
Q 41.609375 39.75 41.609375 35.59375 
Q 41.609375 29.828125 37.015625 27.015625 
Q 32.421875 24.21875 26.65625 23.5625 
Q 20.90625 22.90625 13.921875 22.90625 
L 13.625 22.90625 
Q 12.015625 16.9375 12.015625 12.703125 
Q 12.015625 8.25 14.0625 4.875 
Q 16.109375 1.515625 20.3125 1.515625 
Q 26.265625 1.515625 31.75 4.25 
Q 37.25 6.984375 40.71875 11.8125 
Q 41.015625 12.109375 41.5 12.109375 
Q 42 12.109375 42.5 11.546875 
Q 43.015625 10.984375 43.015625 10.5 
Q 43.015625 10.109375 42.828125 9.90625 
Q 39.15625 4.78125 32.953125 1.828125 
Q 26.765625 -1.125 20.125 -1.125 
M 14.203125 25.484375 
Q 20.015625 25.484375 24.953125 26.015625 
Q 29.890625 26.5625 33.890625 28.734375 
Q 37.890625 30.90625 37.890625 35.5 
Q 37.890625 37.359375 36.859375 38.75 
Q 35.84375 40.140625 34.203125 40.875 
Q 32.5625 41.609375 30.8125 41.609375 
Q 26.5625 41.609375 23.171875 39.3125 
Q 19.78125 37.015625 17.578125 33.328125 
Q 15.375 29.640625 14.203125 25.484375 
" id="Cmmi10-65"/>
     <path d="M 6.5 -25 
Q 5.609375 -25 5.609375 -24.125 
Q 5.609375 -23.6875 5.8125 -23.484375 
Q 22.90625 -6.78125 22.90625 25 
Q 22.90625 56.78125 6 73.296875 
Q 5.609375 73.53125 5.609375 74.125 
Q 5.609375 74.46875 5.875 74.734375 
Q 6.15625 75 6.5 75 
L 7.421875 75 
Q 7.71875 75 7.90625 74.8125 
Q 15.09375 69.140625 19.875 61.03125 
Q 24.65625 52.9375 26.875 43.75 
Q 29.109375 34.578125 29.109375 25 
Q 29.109375 17.921875 27.90625 11.0625 
Q 26.703125 4.203125 24.09375 -2.453125 
Q 21.484375 -9.125 17.484375 -14.765625 
Q 13.484375 -20.40625 7.90625 -24.8125 
Q 7.71875 -25 7.421875 -25 
z
" id="Cmr10-29"/>
     <path d="M 7.515625 23 
Q 6.6875 23 6.140625 23.625 
Q 5.609375 24.265625 5.609375 25 
Q 5.609375 25.734375 6.140625 26.359375 
Q 6.6875 27 7.515625 27 
L 36.921875 27 
L 36.921875 56.5 
Q 36.921875 57.28125 37.5 57.78125 
Q 38.09375 58.296875 38.921875 58.296875 
Q 39.65625 58.296875 40.28125 57.78125 
Q 40.921875 57.28125 40.921875 56.5 
L 40.921875 27 
L 70.3125 27 
Q 71.046875 27 71.578125 26.359375 
Q 72.125 25.734375 72.125 25 
Q 72.125 24.265625 71.578125 23.625 
Q 71.046875 23 70.3125 23 
L 40.921875 23 
L 40.921875 -6.5 
Q 40.921875 -7.28125 40.28125 -7.78125 
Q 39.65625 -8.296875 38.921875 -8.296875 
Q 38.09375 -8.296875 37.5 -7.78125 
Q 36.921875 -7.28125 36.921875 -6.5 
L 36.921875 23 
z
" id="Cmr10-2b"/>
     <path d="M 18.703125 -1.125 
Q 14.265625 -1.125 10.8125 1 
Q 7.375 3.125 5.484375 6.734375 
Q 3.609375 10.359375 3.609375 14.703125 
Q 3.609375 19.34375 5.703125 24.46875 
Q 7.8125 29.59375 11.453125 33.84375 
Q 15.09375 38.09375 19.671875 40.59375 
Q 24.265625 43.109375 29.109375 43.109375 
L 54.296875 43.109375 
Q 55.328125 43.109375 56.046875 42.421875 
Q 56.78125 41.75 56.78125 40.578125 
Q 56.78125 39.109375 55.734375 38.015625 
Q 54.6875 36.921875 53.21875 36.921875 
L 41.015625 36.921875 
Q 43.890625 32.625 43.890625 26.515625 
Q 43.890625 21.484375 41.9375 16.59375 
Q 39.984375 11.71875 36.515625 7.6875 
Q 33.0625 3.65625 28.4375 1.265625 
Q 23.828125 -1.125 18.703125 -1.125 
M 18.796875 1.515625 
Q 24.265625 1.515625 28.484375 5.78125 
Q 32.71875 10.0625 34.953125 16.234375 
Q 37.203125 22.40625 37.203125 27.6875 
Q 37.203125 31.984375 34.828125 34.453125 
Q 32.46875 36.921875 28.21875 36.921875 
Q 22.40625 36.921875 18.328125 33.015625 
Q 14.265625 29.109375 12.234375 23.1875 
Q 10.203125 17.28125 10.203125 11.8125 
Q 10.203125 7.515625 12.46875 4.515625 
Q 14.75 1.515625 18.796875 1.515625 
" id="Cmmi10-be"/>
     <path d="M 5.609375 -23 
Q 5.609375 -22.703125 5.71875 -22.609375 
L 40.484375 73.78125 
Q 40.671875 74.359375 41.15625 74.671875 
Q 41.65625 75 42.28125 75 
Q 43.171875 75 43.71875 74.453125 
Q 44.28125 73.921875 44.28125 73 
L 44.28125 72.609375 
L 9.515625 -23.78125 
Q 8.9375 -25 7.625 -25 
Q 6.78125 -25 6.1875 -24.40625 
Q 5.609375 -23.828125 5.609375 -23 
" id="Cmmi10-3d"/>
     <path d="M 9.515625 7.71875 
Q 11.859375 4.296875 15.8125 2.640625 
Q 19.78125 0.984375 24.3125 0.984375 
Q 30.125 0.984375 32.5625 5.9375 
Q 35.015625 10.890625 35.015625 17.1875 
Q 35.015625 20.015625 34.5 22.84375 
Q 33.984375 25.6875 32.765625 28.125 
Q 31.546875 30.5625 29.421875 32.03125 
Q 27.296875 33.5 24.21875 33.5 
L 17.578125 33.5 
Q 16.703125 33.5 16.703125 34.421875 
L 16.703125 35.296875 
Q 16.703125 36.078125 17.578125 36.078125 
L 23.09375 36.53125 
Q 26.609375 36.53125 28.921875 39.15625 
Q 31.25 41.796875 32.328125 45.578125 
Q 33.40625 49.359375 33.40625 52.78125 
Q 33.40625 57.5625 31.15625 60.640625 
Q 28.90625 63.71875 24.3125 63.71875 
Q 20.515625 63.71875 17.046875 62.28125 
Q 13.578125 60.84375 11.53125 57.90625 
Q 11.71875 57.953125 11.859375 57.984375 
Q 12.015625 58.015625 12.203125 58.015625 
Q 14.453125 58.015625 15.96875 56.453125 
Q 17.484375 54.890625 17.484375 52.6875 
Q 17.484375 50.53125 15.96875 48.96875 
Q 14.453125 47.40625 12.203125 47.40625 
Q 10.015625 47.40625 8.453125 48.96875 
Q 6.890625 50.53125 6.890625 52.6875 
Q 6.890625 56.984375 9.46875 60.15625 
Q 12.0625 63.328125 16.140625 64.96875 
Q 20.21875 66.609375 24.3125 66.609375 
Q 27.34375 66.609375 30.703125 65.703125 
Q 34.078125 64.796875 36.8125 63.109375 
Q 39.546875 61.421875 41.28125 58.78125 
Q 43.015625 56.15625 43.015625 52.78125 
Q 43.015625 48.578125 41.140625 45.015625 
Q 39.265625 41.453125 35.984375 38.859375 
Q 32.71875 36.28125 28.8125 35.015625 
Q 33.15625 34.1875 37.0625 31.734375 
Q 40.96875 29.296875 43.328125 25.484375 
Q 45.703125 21.6875 45.703125 17.28125 
Q 45.703125 11.765625 42.671875 7.296875 
Q 39.65625 2.828125 34.71875 0.3125 
Q 29.78125 -2.203125 24.3125 -2.203125 
Q 19.625 -2.203125 14.90625 -0.40625 
Q 10.203125 1.375 7.203125 4.9375 
Q 4.203125 8.5 4.203125 13.484375 
Q 4.203125 15.96875 5.859375 17.625 
Q 7.515625 19.28125 10.015625 19.28125 
Q 11.625 19.28125 12.96875 18.53125 
Q 14.3125 17.78125 15.0625 16.40625 
Q 15.828125 15.046875 15.828125 13.484375 
Q 15.828125 11.03125 14.109375 9.375 
Q 12.40625 7.71875 10.015625 7.71875 
z
" id="Cmr10-33"/>
     <path d="M 8.6875 11.375 
Q 9.71875 8.453125 11.84375 6.046875 
Q 13.96875 3.65625 16.875 2.3125 
Q 19.78125 0.984375 22.90625 0.984375 
Q 30.125 0.984375 32.859375 6.59375 
Q 35.59375 12.203125 35.59375 20.21875 
Q 35.59375 23.6875 35.46875 26.046875 
Q 35.359375 28.421875 34.8125 30.609375 
Q 33.890625 34.125 31.5625 36.765625 
Q 29.25 39.40625 25.875 39.40625 
Q 22.515625 39.40625 20.09375 38.375 
Q 17.671875 37.359375 16.15625 35.984375 
Q 14.65625 34.625 13.484375 33.109375 
Q 12.3125 31.59375 12.015625 31.5 
L 10.890625 31.5 
Q 10.640625 31.5 10.265625 31.8125 
Q 9.90625 32.125 9.90625 32.421875 
L 9.90625 65.828125 
Q 9.90625 66.0625 10.21875 66.328125 
Q 10.546875 66.609375 10.890625 66.609375 
L 11.1875 66.609375 
Q 17.921875 63.375 25.484375 63.375 
Q 32.90625 63.375 39.796875 66.609375 
L 40.09375 66.609375 
Q 40.4375 66.609375 40.71875 66.359375 
Q 41.015625 66.109375 41.015625 65.828125 
L 41.015625 64.890625 
Q 41.015625 64.40625 40.828125 64.40625 
Q 37.40625 59.859375 32.25 57.3125 
Q 27.09375 54.78125 21.578125 54.78125 
Q 17.578125 54.78125 13.375 55.90625 
L 13.375 37.015625 
Q 16.703125 39.703125 19.3125 40.84375 
Q 21.921875 42 25.984375 42 
Q 31.5 42 35.859375 38.8125 
Q 40.234375 35.640625 42.578125 30.53125 
Q 44.921875 25.4375 44.921875 20.125 
Q 44.921875 14.109375 41.96875 8.984375 
Q 39.015625 3.859375 33.9375 0.828125 
Q 28.859375 -2.203125 22.90625 -2.203125 
Q 17.96875 -2.203125 13.84375 0.328125 
Q 9.71875 2.875 7.34375 7.171875 
Q 4.984375 11.46875 4.984375 16.3125 
Q 4.984375 18.5625 6.4375 19.96875 
Q 7.90625 21.390625 10.109375 21.390625 
Q 12.3125 21.390625 13.796875 19.9375 
Q 15.28125 18.5 15.28125 16.3125 
Q 15.28125 14.15625 13.796875 12.671875 
Q 12.3125 11.1875 10.109375 11.1875 
Q 9.765625 11.1875 9.328125 11.25 
Q 8.890625 11.328125 8.6875 11.375 
" id="Cmr10-35"/>
    </defs>
    <g transform="translate(58.08 52.6)scale(0.24 -0.24)">
     <use xlink:href="#Cmmi10-4e"/>
     <use transform="translate(97.880859375 0.0)" xlink:href="#Cmr10-3d"/>
     <use transform="translate(193.125 0.0)" xlink:href="#Cmr10-31"/>
     <use transform="translate(243.125 0.0)" xlink:href="#Cmr10-30"/>
     <use transform="translate(293.125 0.0)" xlink:href="#Cmmi10-3b"/>
     <use transform="translate(338.369140625 0.0)" xlink:href="#Cmmi10-c1"/>
     <use transform="translate(415.44921875 0.0)" xlink:href="#Cmr10-3d"/>
     <use transform="translate(510.693359375 0.0)" xlink:href="#Cmr10-30"/>
     <use transform="translate(560.693359375 0.0)" xlink:href="#Cmmi10-3a"/>
     <use transform="translate(605.9375 0.0)" xlink:href="#Cmr10-36"/>
     <use transform="translate(655.9375 0.0)" xlink:href="#Cmr10-35"/>
     <use transform="translate(705.9375 0.0)" xlink:href="#Cmmi10-3b"/>
     <use transform="translate(751.181640625 0.0)" xlink:href="#Cmmi10-6c"/>
     <use transform="translate(780.966796875 -17.006249999999994)scale(0.7)" xlink:href="#Cmmi10-70"/>
     <use transform="translate(822.54921875 0.0)" xlink:href="#Cmmi10-3d"/>
     <use transform="translate(872.54921875 0.0)" xlink:href="#Cmmi10-be"/>
     <use transform="translate(947.187890625 0.0)" xlink:href="#Cmr10-3d"/>
     <use transform="translate(1042.43203125 0.0)" xlink:href="#Cmr10-35"/>
     <use transform="translate(1092.43203125 0.0)" xlink:href="#BitstreamVeraSans-Roman-20"/>
     <use transform="translate(1124.219140625 0.0)" xlink:href="#Cmr10-28"/>
     <use transform="translate(1163.0375 0.0)" xlink:href="#Cmmi10-4e"/>
     <use transform="translate(1243.359765625 -17.006249999999994)scale(0.7)" xlink:href="#Cmmi10-69"/>
     <use transform="translate(1267.4564453125 -17.006249999999994)scale(0.7)" xlink:href="#Cmmi10-74"/>
     <use transform="translate(1292.715234375 -17.006249999999994)scale(0.7)" xlink:href="#Cmmi10-65"/>
     <use transform="translate(1325.254296875 -17.006249999999994)scale(0.7)" xlink:href="#Cmmi10-72"/>
     <use transform="translate(1380.7722656249998 0.0)" xlink:href="#Cmr10-3d"/>
     <use transform="translate(1476.0164062499998 0.0)" xlink:href="#Cmr10-31"/>
     <use transform="translate(1526.0164062499998 0.0)" xlink:href="#Cmmi10-65"/>
     <use transform="translate(1590.0593749999998 0.0)" xlink:href="#Cmr10-2b"/>
     <use transform="translate(1685.3035156249998 0.0)" xlink:href="#Cmr10-30"/>
     <use transform="translate(1735.3035156249998 0.0)" xlink:href="#Cmr10-38"/>
     <use transform="translate(1785.3035156249998 0.0)" xlink:href="#Cmmi10-3b"/>
     <use transform="translate(1830.5476562499998 0.0)" xlink:href="#Cmmi10-64"/>
     <use transform="translate(1882.5496093749998 0.0)" xlink:href="#Cmmi10-74"/>
     <use transform="translate(1936.1921874999998 0.0)" xlink:href="#Cmr10-3d"/>
     <use transform="translate(2031.4363281249998 0.0)" xlink:href="#Cmr10-31"/>
     <use transform="translate(2081.436328125 0.0)" xlink:href="#Cmmi10-65"/>
     <use transform="translate(2145.479296875 0.0)" xlink:href="#Cmsy10-a1"/>
     <use transform="translate(2240.7234375 0.0)" xlink:href="#Cmr10-30"/>
     <use transform="translate(2290.7234375 0.0)" xlink:href="#Cmr10-33"/>
     <use transform="translate(2340.7234375 0.0)" xlink:href="#Cmr10-29"/>
     <use transform="translate(2379.541796875 0.0)" xlink:href="#BitstreamVeraSans-Roman-20"/>
     <use transform="translate(2411.32890625 0.0)" xlink:href="#BitstreamVeraSans-Roman-2014"/>
     <use transform="translate(2511.32890625 0.0)" xlink:href="#BitstreamVeraSans-Roman-20"/>
     <use transform="translate(2543.116015625 0.0)" xlink:href="#Cmmi10-70"/>
     <use transform="translate(2610.967578125 0.0)" xlink:href="#Cmr10-3d"/>
     <use transform="translate(2706.21171875 0.0)" xlink:href="#Cmr10-31"/>
     <use transform="translate(2756.21171875 0.0)" xlink:href="#Cmmi10-3a"/>
     <use transform="translate(2801.455859375 0.0)" xlink:href="#Cmr10-30"/>
     <use transform="translate(2851.455859375 0.0)" xlink:href="#Cmmi10-65"/>
     <use transform="translate(2915.498828125 0.0)" xlink:href="#Cmr10-2b"/>
     <use transform="translate(3010.74296875 0.0)" xlink:href="#Cmr10-30"/>
     <use transform="translate(3060.74296875 0.0)" xlink:href="#Cmr10-30"/>
     <use transform="translate(3110.74296875 0.0)" xlink:href="#BitstreamVeraSans-Roman-25"/>
    </g>
   </g>
   <g id="legend_1">
    <g id="patch_7">
     <path d="M 624.24 180.22875 
L 771.6 180.22875 
L 771.6 63.6 
L 624.24 63.6 
z
" style="fill:#ffffff;stroke:#000000;stroke-linejoin:miter;"/>
    </g>
    <g id="line2d_39">
     <path d="M 632.64 73.318125 
L 649.44 73.318125 
" style="fill:none;stroke:#0010ff;stroke-linecap:square;"/>
    </g>
    <g id="line2d_40"/>
    <g id="text_20">
     <!-- $\tau/(l_p/\sigma) = 1.0e+00$ -->
     <g transform="translate(662.64 77.518125)scale(0.12 -0.12)">
      <use xlink:href="#Cmmi10-bf"/>
      <use transform="translate(43.701171875 0.0)" xlink:href="#Cmmi10-3d"/>
      <use transform="translate(93.701171875 0.0)" xlink:href="#Cmr10-28"/>
      <use transform="translate(132.51953125 0.0)" xlink:href="#Cmmi10-6c"/>
      <use transform="translate(162.3046875 -17.006249999999994)scale(0.7)" xlink:href="#Cmmi10-70"/>
      <use transform="translate(203.887109375 0.0)" xlink:href="#Cmmi10-3d"/>
      <use transform="translate(253.887109375 0.0)" xlink:href="#Cmmi10-be"/>
      <use transform="translate(310.9671875 0.0)" xlink:href="#Cmr10-29"/>
      <use transform="translate(367.344140625 0.0)" xlink:href="#Cmr10-3d"/>
      <use transform="translate(462.58828125 0.0)" xlink:href="#Cmr10-31"/>
      <use transform="translate(512.58828125 0.0)" xlink:href="#Cmmi10-3a"/>
      <use transform="translate(557.832421875 0.0)" xlink:href="#Cmr10-30"/>
      <use transform="translate(607.832421875 0.0)" xlink:href="#Cmmi10-65"/>
      <use transform="translate(671.875390625 0.0)" xlink:href="#Cmr10-2b"/>
      <use transform="translate(767.11953125 0.0)" xlink:href="#Cmr10-30"/>
      <use transform="translate(817.11953125 0.0)" xlink:href="#Cmr10-30"/>
     </g>
    </g>
    <g id="line2d_41">
     <path d="M 632.64 92.15625 
L 649.44 92.15625 
" style="fill:none;stroke:#00a4ff;stroke-linecap:square;"/>
    </g>
    <g id="line2d_42"/>
    <g id="text_21">
     <!-- $\tau/(l_p/\sigma) = 2.0e+00$ -->
     <defs>
      <path d="M 4.984375 0 
L 4.984375 2.6875 
Q 4.984375 2.9375 5.171875 3.21875 
L 20.703125 20.40625 
Q 24.21875 24.21875 26.40625 26.796875 
Q 28.609375 29.390625 30.75 32.765625 
Q 32.90625 36.140625 34.15625 39.625 
Q 35.40625 43.109375 35.40625 47.015625 
Q 35.40625 51.125 33.890625 54.859375 
Q 32.375 58.59375 29.375 60.84375 
Q 26.375 63.09375 22.125 63.09375 
Q 17.78125 63.09375 14.3125 60.46875 
Q 10.84375 57.859375 9.421875 53.71875 
Q 9.8125 53.8125 10.5 53.8125 
Q 12.75 53.8125 14.328125 52.296875 
Q 15.921875 50.78125 15.921875 48.390625 
Q 15.921875 46.09375 14.328125 44.5 
Q 12.75 42.921875 10.5 42.921875 
Q 8.15625 42.921875 6.5625 44.546875 
Q 4.984375 46.1875 4.984375 48.390625 
Q 4.984375 52.15625 6.390625 55.4375 
Q 7.8125 58.734375 10.46875 61.296875 
Q 13.140625 63.875 16.484375 65.234375 
Q 19.828125 66.609375 23.578125 66.609375 
Q 29.296875 66.609375 34.21875 64.1875 
Q 39.15625 61.765625 42.03125 57.34375 
Q 44.921875 52.9375 44.921875 47.015625 
Q 44.921875 42.671875 43.015625 38.765625 
Q 41.109375 34.859375 38.125 31.65625 
Q 35.15625 28.46875 30.515625 24.40625 
Q 25.875 20.359375 24.421875 19 
L 13.09375 8.109375 
L 22.703125 8.109375 
Q 29.78125 8.109375 34.546875 8.21875 
Q 39.3125 8.34375 39.59375 8.59375 
Q 40.765625 9.859375 42 17.828125 
L 44.921875 17.828125 
L 42.09375 0 
z
" id="Cmr10-32"/>
     </defs>
     <g transform="translate(662.64 96.35625)scale(0.12 -0.12)">
      <use xlink:href="#Cmmi10-bf"/>
      <use transform="translate(43.701171875 0.0)" xlink:href="#Cmmi10-3d"/>
      <use transform="translate(93.701171875 0.0)" xlink:href="#Cmr10-28"/>
      <use transform="translate(132.51953125 0.0)" xlink:href="#Cmmi10-6c"/>
      <use transform="translate(162.3046875 -17.006249999999994)scale(0.7)" xlink:href="#Cmmi10-70"/>
      <use transform="translate(203.887109375 0.0)" xlink:href="#Cmmi10-3d"/>
      <use transform="translate(253.887109375 0.0)" xlink:href="#Cmmi10-be"/>
      <use transform="translate(310.9671875 0.0)" xlink:href="#Cmr10-29"/>
      <use transform="translate(367.344140625 0.0)" xlink:href="#Cmr10-3d"/>
      <use transform="translate(462.58828125 0.0)" xlink:href="#Cmr10-32"/>
      <use transform="translate(512.58828125 0.0)" xlink:href="#Cmmi10-3a"/>
      <use transform="translate(557.832421875 0.0)" xlink:href="#Cmr10-30"/>
      <use transform="translate(607.832421875 0.0)" xlink:href="#Cmmi10-65"/>
      <use transform="translate(671.875390625 0.0)" xlink:href="#Cmr10-2b"/>
      <use transform="translate(767.11953125 0.0)" xlink:href="#Cmr10-30"/>
      <use transform="translate(817.11953125 0.0)" xlink:href="#Cmr10-30"/>
     </g>
    </g>
    <g id="line2d_43">
     <path d="M 632.64 110.994375 
L 649.44 110.994375 
" style="fill:none;stroke:#40ffb7;stroke-linecap:square;"/>
    </g>
    <g id="line2d_44"/>
    <g id="text_22">
     <!-- $\tau/(l_p/\sigma) = 5.0e+00$ -->
     <g transform="translate(662.64 115.194375)scale(0.12 -0.12)">
      <use xlink:href="#Cmmi10-bf"/>
      <use transform="translate(43.701171875 0.0)" xlink:href="#Cmmi10-3d"/>
      <use transform="translate(93.701171875 0.0)" xlink:href="#Cmr10-28"/>
      <use transform="translate(132.51953125 0.0)" xlink:href="#Cmmi10-6c"/>
      <use transform="translate(162.3046875 -17.006249999999994)scale(0.7)" xlink:href="#Cmmi10-70"/>
      <use transform="translate(203.887109375 0.0)" xlink:href="#Cmmi10-3d"/>
      <use transform="translate(253.887109375 0.0)" xlink:href="#Cmmi10-be"/>
      <use transform="translate(310.9671875 0.0)" xlink:href="#Cmr10-29"/>
      <use transform="translate(367.344140625 0.0)" xlink:href="#Cmr10-3d"/>
      <use transform="translate(462.58828125 0.0)" xlink:href="#Cmr10-35"/>
      <use transform="translate(512.58828125 0.0)" xlink:href="#Cmmi10-3a"/>
      <use transform="translate(557.832421875 0.0)" xlink:href="#Cmr10-30"/>
      <use transform="translate(607.832421875 0.0)" xlink:href="#Cmmi10-65"/>
      <use transform="translate(671.875390625 0.0)" xlink:href="#Cmr10-2b"/>
      <use transform="translate(767.11953125 0.0)" xlink:href="#Cmr10-30"/>
      <use transform="translate(817.11953125 0.0)" xlink:href="#Cmr10-30"/>
     </g>
    </g>
    <g id="line2d_45">
     <path d="M 632.64 129.8325 
L 649.44 129.8325 
" style="fill:none;stroke:#b7ff40;stroke-linecap:square;"/>
    </g>
    <g id="line2d_46"/>
    <g id="text_23">
     <!-- $\tau/(l_p/\sigma) = 1.0e+01$ -->
     <g transform="translate(662.64 134.0325)scale(0.12 -0.12)">
      <use xlink:href="#Cmmi10-bf"/>
      <use transform="translate(43.701171875 0.0)" xlink:href="#Cmmi10-3d"/>
      <use transform="translate(93.701171875 0.0)" xlink:href="#Cmr10-28"/>
      <use transform="translate(132.51953125 0.0)" xlink:href="#Cmmi10-6c"/>
      <use transform="translate(162.3046875 -17.006249999999994)scale(0.7)" xlink:href="#Cmmi10-70"/>
      <use transform="translate(203.887109375 0.0)" xlink:href="#Cmmi10-3d"/>
      <use transform="translate(253.887109375 0.0)" xlink:href="#Cmmi10-be"/>
      <use transform="translate(310.9671875 0.0)" xlink:href="#Cmr10-29"/>
      <use transform="translate(367.344140625 0.0)" xlink:href="#Cmr10-3d"/>
      <use transform="translate(462.58828125 0.0)" xlink:href="#Cmr10-31"/>
      <use transform="translate(512.58828125 0.0)" xlink:href="#Cmmi10-3a"/>
      <use transform="translate(557.832421875 0.0)" xlink:href="#Cmr10-30"/>
      <use transform="translate(607.832421875 0.0)" xlink:href="#Cmmi10-65"/>
      <use transform="translate(671.875390625 0.0)" xlink:href="#Cmr10-2b"/>
      <use transform="translate(767.11953125 0.0)" xlink:href="#Cmr10-30"/>
      <use transform="translate(817.11953125 0.0)" xlink:href="#Cmr10-31"/>
     </g>
    </g>
    <g id="line2d_47">
     <path d="M 632.64 148.670625 
L 649.44 148.670625 
" style="fill:none;stroke:#ffb900;stroke-linecap:square;"/>
    </g>
    <g id="line2d_48"/>
    <g id="text_24">
     <!-- $\tau/(l_p/\sigma) = 2.0e+01$ -->
     <g transform="translate(662.64 152.870625)scale(0.12 -0.12)">
      <use xlink:href="#Cmmi10-bf"/>
      <use transform="translate(43.701171875 0.0)" xlink:href="#Cmmi10-3d"/>
      <use transform="translate(93.701171875 0.0)" xlink:href="#Cmr10-28"/>
      <use transform="translate(132.51953125 0.0)" xlink:href="#Cmmi10-6c"/>
      <use transform="translate(162.3046875 -17.006249999999994)scale(0.7)" xlink:href="#Cmmi10-70"/>
      <use transform="translate(203.887109375 0.0)" xlink:href="#Cmmi10-3d"/>
      <use transform="translate(253.887109375 0.0)" xlink:href="#Cmmi10-be"/>
      <use transform="translate(310.9671875 0.0)" xlink:href="#Cmr10-29"/>
      <use transform="translate(367.344140625 0.0)" xlink:href="#Cmr10-3d"/>
      <use transform="translate(462.58828125 0.0)" xlink:href="#Cmr10-32"/>
      <use transform="translate(512.58828125 0.0)" xlink:href="#Cmmi10-3a"/>
      <use transform="translate(557.832421875 0.0)" xlink:href="#Cmr10-30"/>
      <use transform="translate(607.832421875 0.0)" xlink:href="#Cmmi10-65"/>
      <use transform="translate(671.875390625 0.0)" xlink:href="#Cmr10-2b"/>
      <use transform="translate(767.11953125 0.0)" xlink:href="#Cmr10-30"/>
      <use transform="translate(817.11953125 0.0)" xlink:href="#Cmr10-31"/>
     </g>
    </g>
    <g id="line2d_49">
     <path d="M 632.64 167.50875 
L 649.44 167.50875 
" style="fill:none;stroke:#ff3000;stroke-linecap:square;"/>
    </g>
    <g id="line2d_50"/>
    <g id="text_25">
     <!-- $\tau/(l_p/\sigma) = 5.0e+01$ -->
     <g transform="translate(662.64 171.70875)scale(0.12 -0.12)">
      <use xlink:href="#Cmmi10-bf"/>
      <use transform="translate(43.701171875 0.0)" xlink:href="#Cmmi10-3d"/>
      <use transform="translate(93.701171875 0.0)" xlink:href="#Cmr10-28"/>
      <use transform="translate(132.51953125 0.0)" xlink:href="#Cmmi10-6c"/>
      <use transform="translate(162.3046875 -17.006249999999994)scale(0.7)" xlink:href="#Cmmi10-70"/>
      <use transform="translate(203.887109375 0.0)" xlink:href="#Cmmi10-3d"/>
      <use transform="translate(253.887109375 0.0)" xlink:href="#Cmmi10-be"/>
      <use transform="translate(310.9671875 0.0)" xlink:href="#Cmr10-29"/>
      <use transform="translate(367.344140625 0.0)" xlink:href="#Cmr10-3d"/>
      <use transform="translate(462.58828125 0.0)" xlink:href="#Cmr10-35"/>
      <use transform="translate(512.58828125 0.0)" xlink:href="#Cmmi10-3a"/>
      <use transform="translate(557.832421875 0.0)" xlink:href="#Cmr10-30"/>
      <use transform="translate(607.832421875 0.0)" xlink:href="#Cmmi10-65"/>
      <use transform="translate(671.875390625 0.0)" xlink:href="#Cmr10-2b"/>
      <use transform="translate(767.11953125 0.0)" xlink:href="#Cmr10-30"/>
      <use transform="translate(817.11953125 0.0)" xlink:href="#Cmr10-31"/>
     </g>
    </g>
   </g>
  </g>
 </g>
 <defs>
  <clipPath id="p08ce9c65f2">
   <rect height="460.8" width="669.6" x="108.0" y="57.6"/>
  </clipPath>
 </defs>
</svg>
