<?xml version="1.0" encoding="utf-8" standalone="no"?>
<!DOCTYPE svg PUBLIC "-//W3C//DTD SVG 1.1//EN"
  "http://www.w3.org/Graphics/SVG/1.1/DTD/svg11.dtd">
<!-- Created with matplotlib (http://matplotlib.org/) -->
<svg height="576pt" version="1.1" viewBox="0 0 864 576" width="864pt" xmlns="http://www.w3.org/2000/svg" xmlns:xlink="http://www.w3.org/1999/xlink">
 <defs>
  <style type="text/css">
*{stroke-linecap:butt;stroke-linejoin:round;}
  </style>
 </defs>
 <g id="figure_1">
  <g id="patch_1">
   <path d="M 0 576 
L 864 576 
L 864 0 
L 0 0 
z
" style="fill:#ffffff;"/>
  </g>
  <g id="axes_1">
   <g id="patch_2">
    <path d="M 108 504 
L 777.6 504 
L 777.6 69.12 
L 108 69.12 
z
" style="fill:#ffffff;"/>
   </g>
   <g id="matplotlib.axis_1">
    <g id="xtick_1">
     <g id="line2d_1">
      <defs>
       <path d="M 0 0 
L 0 3.5 
" id="m9519ccb2d1" style="stroke:#000000;stroke-width:0.8;"/>
      </defs>
      <g>
       <use style="stroke:#000000;stroke-width:0.8;" x="138.436364" xlink:href="#m9519ccb2d1" y="504"/>
      </g>
     </g>
     <g id="text_1">
      <!-- −0.5 -->
      <defs>
       <path d="M 10.59375 35.5 
L 73.1875 35.5 
L 73.1875 27.203125 
L 10.59375 27.203125 
z
" id="DejaVuSans-2212"/>
       <path d="M 31.78125 66.40625 
Q 24.171875 66.40625 20.328125 58.90625 
Q 16.5 51.421875 16.5 36.375 
Q 16.5 21.390625 20.328125 13.890625 
Q 24.171875 6.390625 31.78125 6.390625 
Q 39.453125 6.390625 43.28125 13.890625 
Q 47.125 21.390625 47.125 36.375 
Q 47.125 51.421875 43.28125 58.90625 
Q 39.453125 66.40625 31.78125 66.40625 
z
M 31.78125 74.21875 
Q 44.046875 74.21875 50.515625 64.515625 
Q 56.984375 54.828125 56.984375 36.375 
Q 56.984375 17.96875 50.515625 8.265625 
Q 44.046875 -1.421875 31.78125 -1.421875 
Q 19.53125 -1.421875 13.0625 8.265625 
Q 6.59375 17.96875 6.59375 36.375 
Q 6.59375 54.828125 13.0625 64.515625 
Q 19.53125 74.21875 31.78125 74.21875 
z
" id="DejaVuSans-30"/>
       <path d="M 10.6875 12.40625 
L 21 12.40625 
L 21 0 
L 10.6875 0 
z
" id="DejaVuSans-2e"/>
       <path d="M 10.796875 72.90625 
L 49.515625 72.90625 
L 49.515625 64.59375 
L 19.828125 64.59375 
L 19.828125 46.734375 
Q 21.96875 47.46875 24.109375 47.828125 
Q 26.265625 48.1875 28.421875 48.1875 
Q 40.625 48.1875 47.75 41.5 
Q 54.890625 34.8125 54.890625 23.390625 
Q 54.890625 11.625 47.5625 5.09375 
Q 40.234375 -1.421875 26.90625 -1.421875 
Q 22.3125 -1.421875 17.546875 -0.640625 
Q 12.796875 0.140625 7.71875 1.703125 
L 7.71875 11.625 
Q 12.109375 9.234375 16.796875 8.0625 
Q 21.484375 6.890625 26.703125 6.890625 
Q 35.15625 6.890625 40.078125 11.328125 
Q 45.015625 15.765625 45.015625 23.390625 
Q 45.015625 31 40.078125 35.4375 
Q 35.15625 39.890625 26.703125 39.890625 
Q 22.75 39.890625 18.8125 39.015625 
Q 14.890625 38.140625 10.796875 36.28125 
z
" id="DejaVuSans-35"/>
      </defs>
      <g transform="translate(126.294957 518.598438)scale(0.1 -0.1)">
       <use xlink:href="#DejaVuSans-2212"/>
       <use x="83.789062" xlink:href="#DejaVuSans-30"/>
       <use x="147.412109" xlink:href="#DejaVuSans-2e"/>
       <use x="179.199219" xlink:href="#DejaVuSans-35"/>
      </g>
     </g>
    </g>
    <g id="xtick_2">
     <g id="line2d_2">
      <g>
       <use style="stroke:#000000;stroke-width:0.8;" x="260.181818" xlink:href="#m9519ccb2d1" y="504"/>
      </g>
     </g>
     <g id="text_2">
      <!-- −0.4 -->
      <defs>
       <path d="M 37.796875 64.3125 
L 12.890625 25.390625 
L 37.796875 25.390625 
z
M 35.203125 72.90625 
L 47.609375 72.90625 
L 47.609375 25.390625 
L 58.015625 25.390625 
L 58.015625 17.1875 
L 47.609375 17.1875 
L 47.609375 0 
L 37.796875 0 
L 37.796875 17.1875 
L 4.890625 17.1875 
L 4.890625 26.703125 
z
" id="DejaVuSans-34"/>
      </defs>
      <g transform="translate(248.040412 518.598438)scale(0.1 -0.1)">
       <use xlink:href="#DejaVuSans-2212"/>
       <use x="83.789062" xlink:href="#DejaVuSans-30"/>
       <use x="147.412109" xlink:href="#DejaVuSans-2e"/>
       <use x="179.199219" xlink:href="#DejaVuSans-34"/>
      </g>
     </g>
    </g>
    <g id="xtick_3">
     <g id="line2d_3">
      <g>
       <use style="stroke:#000000;stroke-width:0.8;" x="381.927273" xlink:href="#m9519ccb2d1" y="504"/>
      </g>
     </g>
     <g id="text_3">
      <!-- −0.3 -->
      <defs>
       <path d="M 40.578125 39.3125 
Q 47.65625 37.796875 51.625 33 
Q 55.609375 28.21875 55.609375 21.1875 
Q 55.609375 10.40625 48.1875 4.484375 
Q 40.765625 -1.421875 27.09375 -1.421875 
Q 22.515625 -1.421875 17.65625 -0.515625 
Q 12.796875 0.390625 7.625 2.203125 
L 7.625 11.71875 
Q 11.71875 9.328125 16.59375 8.109375 
Q 21.484375 6.890625 26.8125 6.890625 
Q 36.078125 6.890625 40.9375 10.546875 
Q 45.796875 14.203125 45.796875 21.1875 
Q 45.796875 27.640625 41.28125 31.265625 
Q 36.765625 34.90625 28.71875 34.90625 
L 20.21875 34.90625 
L 20.21875 43.015625 
L 29.109375 43.015625 
Q 36.375 43.015625 40.234375 45.921875 
Q 44.09375 48.828125 44.09375 54.296875 
Q 44.09375 59.90625 40.109375 62.90625 
Q 36.140625 65.921875 28.71875 65.921875 
Q 24.65625 65.921875 20.015625 65.03125 
Q 15.375 64.15625 9.8125 62.3125 
L 9.8125 71.09375 
Q 15.4375 72.65625 20.34375 73.4375 
Q 25.25 74.21875 29.59375 74.21875 
Q 40.828125 74.21875 47.359375 69.109375 
Q 53.90625 64.015625 53.90625 55.328125 
Q 53.90625 49.265625 50.4375 45.09375 
Q 46.96875 40.921875 40.578125 39.3125 
z
" id="DejaVuSans-33"/>
      </defs>
      <g transform="translate(369.785866 518.598438)scale(0.1 -0.1)">
       <use xlink:href="#DejaVuSans-2212"/>
       <use x="83.789062" xlink:href="#DejaVuSans-30"/>
       <use x="147.412109" xlink:href="#DejaVuSans-2e"/>
       <use x="179.199219" xlink:href="#DejaVuSans-33"/>
      </g>
     </g>
    </g>
    <g id="xtick_4">
     <g id="line2d_4">
      <g>
       <use style="stroke:#000000;stroke-width:0.8;" x="503.672727" xlink:href="#m9519ccb2d1" y="504"/>
      </g>
     </g>
     <g id="text_4">
      <!-- −0.2 -->
      <defs>
       <path d="M 19.1875 8.296875 
L 53.609375 8.296875 
L 53.609375 0 
L 7.328125 0 
L 7.328125 8.296875 
Q 12.9375 14.109375 22.625 23.890625 
Q 32.328125 33.6875 34.8125 36.53125 
Q 39.546875 41.84375 41.421875 45.53125 
Q 43.3125 49.21875 43.3125 52.78125 
Q 43.3125 58.59375 39.234375 62.25 
Q 35.15625 65.921875 28.609375 65.921875 
Q 23.96875 65.921875 18.8125 64.3125 
Q 13.671875 62.703125 7.8125 59.421875 
L 7.8125 69.390625 
Q 13.765625 71.78125 18.9375 73 
Q 24.125 74.21875 28.421875 74.21875 
Q 39.75 74.21875 46.484375 68.546875 
Q 53.21875 62.890625 53.21875 53.421875 
Q 53.21875 48.921875 51.53125 44.890625 
Q 49.859375 40.875 45.40625 35.40625 
Q 44.1875 33.984375 37.640625 27.21875 
Q 31.109375 20.453125 19.1875 8.296875 
z
" id="DejaVuSans-32"/>
      </defs>
      <g transform="translate(491.531321 518.598438)scale(0.1 -0.1)">
       <use xlink:href="#DejaVuSans-2212"/>
       <use x="83.789062" xlink:href="#DejaVuSans-30"/>
       <use x="147.412109" xlink:href="#DejaVuSans-2e"/>
       <use x="179.199219" xlink:href="#DejaVuSans-32"/>
      </g>
     </g>
    </g>
    <g id="xtick_5">
     <g id="line2d_5">
      <g>
       <use style="stroke:#000000;stroke-width:0.8;" x="625.418182" xlink:href="#m9519ccb2d1" y="504"/>
      </g>
     </g>
     <g id="text_5">
      <!-- −0.1 -->
      <defs>
       <path d="M 12.40625 8.296875 
L 28.515625 8.296875 
L 28.515625 63.921875 
L 10.984375 60.40625 
L 10.984375 69.390625 
L 28.421875 72.90625 
L 38.28125 72.90625 
L 38.28125 8.296875 
L 54.390625 8.296875 
L 54.390625 0 
L 12.40625 0 
z
" id="DejaVuSans-31"/>
      </defs>
      <g transform="translate(613.276776 518.598438)scale(0.1 -0.1)">
       <use xlink:href="#DejaVuSans-2212"/>
       <use x="83.789062" xlink:href="#DejaVuSans-30"/>
       <use x="147.412109" xlink:href="#DejaVuSans-2e"/>
       <use x="179.199219" xlink:href="#DejaVuSans-31"/>
      </g>
     </g>
    </g>
    <g id="xtick_6">
     <g id="line2d_6">
      <g>
       <use style="stroke:#000000;stroke-width:0.8;" x="747.163636" xlink:href="#m9519ccb2d1" y="504"/>
      </g>
     </g>
     <g id="text_6">
      <!-- 0.0 -->
      <g transform="translate(739.212074 518.598438)scale(0.1 -0.1)">
       <use xlink:href="#DejaVuSans-30"/>
       <use x="63.623047" xlink:href="#DejaVuSans-2e"/>
       <use x="95.410156" xlink:href="#DejaVuSans-30"/>
      </g>
     </g>
    </g>
    <g id="text_7">
     <!-- $s$ -->
     <defs>
      <path d="M 8.6875 6.109375 
Q 11.375 1.515625 19.484375 1.515625 
Q 23 1.515625 26.171875 2.703125 
Q 29.34375 3.90625 31.421875 6.296875 
Q 33.5 8.6875 33.5 12.109375 
Q 33.5 14.703125 31.640625 16.359375 
Q 29.78125 18.015625 27.09375 18.609375 
L 21.6875 19.671875 
Q 17.96875 20.609375 15.578125 23.140625 
Q 13.1875 25.6875 13.1875 29.296875 
Q 13.1875 33.734375 15.59375 37.15625 
Q 18.015625 40.578125 21.96875 42.375 
Q 25.921875 44.1875 30.171875 44.1875 
Q 34.71875 44.1875 38.296875 42.015625 
Q 41.890625 39.84375 41.890625 35.59375 
Q 41.890625 33.296875 40.59375 31.53125 
Q 39.3125 29.78125 37.015625 29.78125 
Q 35.6875 29.78125 34.734375 30.640625 
Q 33.796875 31.5 33.796875 32.8125 
Q 33.796875 33.984375 34.453125 35.078125 
Q 35.109375 36.1875 36.203125 36.84375 
Q 37.3125 37.5 38.484375 37.5 
Q 37.59375 39.65625 35.171875 40.625 
Q 32.765625 41.609375 29.984375 41.609375 
Q 27.4375 41.609375 24.890625 40.578125 
Q 22.359375 39.546875 20.8125 37.5625 
Q 19.28125 35.59375 19.28125 32.90625 
Q 19.28125 31.109375 20.546875 29.734375 
Q 21.828125 28.375 23.6875 27.78125 
L 29.5 26.609375 
Q 32.28125 26.03125 34.59375 24.53125 
Q 36.921875 23.046875 38.25 20.765625 
Q 39.59375 18.5 39.59375 15.578125 
Q 39.59375 11.859375 37.515625 8.25 
Q 35.453125 4.640625 32.421875 2.484375 
Q 27.09375 -1.125 19.390625 -1.125 
Q 14.0625 -1.125 9.609375 1.3125 
Q 5.171875 3.765625 5.171875 8.59375 
Q 5.171875 11.328125 6.75 13.34375 
Q 8.34375 15.375 11.078125 15.375 
Q 12.703125 15.375 13.796875 14.390625 
Q 14.890625 13.421875 14.890625 11.8125 
Q 14.890625 9.515625 13.171875 7.8125 
Q 11.46875 6.109375 9.1875 6.109375 
z
" id="Cmmi10-73"/>
     </defs>
     <g transform="translate(438.1 539.875)scale(0.2 -0.2)">
      <use transform="translate(0 0.8125)" xlink:href="#Cmmi10-73"/>
     </g>
    </g>
   </g>
   <g id="matplotlib.axis_2">
    <g id="ytick_1">
     <g id="line2d_7">
      <defs>
       <path d="M 0 0 
L -3.5 0 
" id="mc422f96988" style="stroke:#000000;stroke-width:0.8;"/>
      </defs>
      <g>
       <use style="stroke:#000000;stroke-width:0.8;" x="108" xlink:href="#mc422f96988" y="484.232727"/>
      </g>
     </g>
     <g id="text_8">
      <!-- 0.0 -->
      <g transform="translate(85.096875 488.031946)scale(0.1 -0.1)">
       <use xlink:href="#DejaVuSans-30"/>
       <use x="63.623047" xlink:href="#DejaVuSans-2e"/>
       <use x="95.410156" xlink:href="#DejaVuSans-30"/>
      </g>
     </g>
    </g>
    <g id="ytick_2">
     <g id="line2d_8">
      <g>
       <use style="stroke:#000000;stroke-width:0.8;" x="108" xlink:href="#mc422f96988" y="404.932068"/>
      </g>
     </g>
     <g id="text_9">
      <!-- 0.1 -->
      <g transform="translate(85.096875 408.731287)scale(0.1 -0.1)">
       <use xlink:href="#DejaVuSans-30"/>
       <use x="63.623047" xlink:href="#DejaVuSans-2e"/>
       <use x="95.410156" xlink:href="#DejaVuSans-31"/>
      </g>
     </g>
    </g>
    <g id="ytick_3">
     <g id="line2d_9">
      <g>
       <use style="stroke:#000000;stroke-width:0.8;" x="108" xlink:href="#mc422f96988" y="325.631409"/>
      </g>
     </g>
     <g id="text_10">
      <!-- 0.2 -->
      <g transform="translate(85.096875 329.430628)scale(0.1 -0.1)">
       <use xlink:href="#DejaVuSans-30"/>
       <use x="63.623047" xlink:href="#DejaVuSans-2e"/>
       <use x="95.410156" xlink:href="#DejaVuSans-32"/>
      </g>
     </g>
    </g>
    <g id="ytick_4">
     <g id="line2d_10">
      <g>
       <use style="stroke:#000000;stroke-width:0.8;" x="108" xlink:href="#mc422f96988" y="246.330751"/>
      </g>
     </g>
     <g id="text_11">
      <!-- 0.3 -->
      <g transform="translate(85.096875 250.129969)scale(0.1 -0.1)">
       <use xlink:href="#DejaVuSans-30"/>
       <use x="63.623047" xlink:href="#DejaVuSans-2e"/>
       <use x="95.410156" xlink:href="#DejaVuSans-33"/>
      </g>
     </g>
    </g>
    <g id="ytick_5">
     <g id="line2d_11">
      <g>
       <use style="stroke:#000000;stroke-width:0.8;" x="108" xlink:href="#mc422f96988" y="167.030092"/>
      </g>
     </g>
     <g id="text_12">
      <!-- 0.4 -->
      <g transform="translate(85.096875 170.82931)scale(0.1 -0.1)">
       <use xlink:href="#DejaVuSans-30"/>
       <use x="63.623047" xlink:href="#DejaVuSans-2e"/>
       <use x="95.410156" xlink:href="#DejaVuSans-34"/>
      </g>
     </g>
    </g>
    <g id="ytick_6">
     <g id="line2d_12">
      <g>
       <use style="stroke:#000000;stroke-width:0.8;" x="108" xlink:href="#mc422f96988" y="87.729433"/>
      </g>
     </g>
     <g id="text_13">
      <!-- 0.5 -->
      <g transform="translate(85.096875 91.528651)scale(0.1 -0.1)">
       <use xlink:href="#DejaVuSans-30"/>
       <use x="63.623047" xlink:href="#DejaVuSans-2e"/>
       <use x="95.410156" xlink:href="#DejaVuSans-35"/>
      </g>
     </g>
    </g>
    <g id="text_14">
     <!-- $&lt;p^2&gt;_{p^2, N}(s)$ -->
     <defs>
      <path d="M 9.28125 23.296875 
Q 8.296875 23.734375 8.296875 25 
Q 8.296875 26.265625 9.625 26.90625 
L 66.703125 53.8125 
Q 67.09375 54 67.390625 54 
Q 68.265625 54 68.828125 53.390625 
Q 69.390625 52.78125 69.390625 52 
Q 69.390625 50.78125 68.21875 50.09375 
L 14.984375 25 
L 68.5 -0.296875 
Q 69.390625 -0.59375 69.390625 -2 
Q 69.390625 -2.78125 68.828125 -3.390625 
Q 68.265625 -4 67.390625 -4 
Q 67.09375 -4 66.703125 -3.8125 
z
" id="Cmmi10-3c"/>
      <path d="M -2.484375 -19.390625 
Q -3.421875 -19.390625 -3.421875 -18.109375 
Q -3.078125 -15.921875 -2.09375 -15.921875 
Q 1.03125 -15.921875 2.265625 -15.359375 
Q 3.515625 -14.796875 4.203125 -12.5 
L 15.484375 32.515625 
Q 16.21875 34.375 16.21875 37.3125 
Q 16.21875 41.609375 13.28125 41.609375 
Q 10.15625 41.609375 8.640625 37.859375 
Q 7.125 34.125 5.71875 28.421875 
Q 5.71875 27.78125 4.890625 27.78125 
L 3.71875 27.78125 
Q 3.46875 27.78125 3.171875 28.140625 
Q 2.875 28.515625 2.875 28.8125 
Q 3.953125 33.15625 4.953125 36.171875 
Q 5.953125 39.203125 8.078125 41.6875 
Q 10.203125 44.1875 13.375 44.1875 
Q 16.796875 44.1875 19.375 42.25 
Q 21.96875 40.328125 22.703125 37.015625 
Q 25.4375 40.1875 28.75 42.1875 
Q 32.078125 44.1875 35.59375 44.1875 
Q 39.796875 44.1875 42.890625 41.9375 
Q 46 39.703125 47.5625 36.0625 
Q 49.125 32.421875 49.125 28.21875 
Q 49.125 21.78125 45.828125 14.890625 
Q 42.53125 8.015625 36.890625 3.4375 
Q 31.25 -1.125 24.8125 -1.125 
Q 21.875 -1.125 19.5 0.53125 
Q 17.140625 2.203125 15.828125 4.890625 
L 11.28125 -12.890625 
Q 11.03125 -14.359375 10.984375 -14.59375 
Q 10.984375 -15.921875 17.578125 -15.921875 
Q 18.609375 -15.921875 18.609375 -17.1875 
Q 18.265625 -18.5 18.046875 -18.9375 
Q 17.828125 -19.390625 16.890625 -19.390625 
z
M 24.90625 1.515625 
Q 28.375 1.515625 31.34375 4.375 
Q 34.328125 7.234375 36.1875 10.796875 
Q 37.546875 13.484375 38.734375 17.359375 
Q 39.9375 21.234375 40.8125 25.625 
Q 41.703125 30.03125 41.703125 32.625 
Q 41.703125 34.90625 41.09375 36.90625 
Q 40.484375 38.921875 39.09375 40.265625 
Q 37.703125 41.609375 35.40625 41.609375 
Q 31.734375 41.609375 28.484375 38.984375 
Q 25.25 36.375 22.609375 32.515625 
L 22.609375 32.171875 
L 17.09375 10.109375 
Q 17.78125 6.546875 19.734375 4.03125 
Q 21.6875 1.515625 24.90625 1.515625 
z
" id="Cmmi10-70"/>
      <path d="M 4.984375 0 
L 4.984375 2.6875 
Q 4.984375 2.9375 5.171875 3.21875 
L 20.703125 20.40625 
Q 24.21875 24.21875 26.40625 26.796875 
Q 28.609375 29.390625 30.75 32.765625 
Q 32.90625 36.140625 34.15625 39.625 
Q 35.40625 43.109375 35.40625 47.015625 
Q 35.40625 51.125 33.890625 54.859375 
Q 32.375 58.59375 29.375 60.84375 
Q 26.375 63.09375 22.125 63.09375 
Q 17.78125 63.09375 14.3125 60.46875 
Q 10.84375 57.859375 9.421875 53.71875 
Q 9.8125 53.8125 10.5 53.8125 
Q 12.75 53.8125 14.328125 52.296875 
Q 15.921875 50.78125 15.921875 48.390625 
Q 15.921875 46.09375 14.328125 44.5 
Q 12.75 42.921875 10.5 42.921875 
Q 8.15625 42.921875 6.5625 44.546875 
Q 4.984375 46.1875 4.984375 48.390625 
Q 4.984375 52.15625 6.390625 55.4375 
Q 7.8125 58.734375 10.46875 61.296875 
Q 13.140625 63.875 16.484375 65.234375 
Q 19.828125 66.609375 23.578125 66.609375 
Q 29.296875 66.609375 34.21875 64.1875 
Q 39.15625 61.765625 42.03125 57.34375 
Q 44.921875 52.9375 44.921875 47.015625 
Q 44.921875 42.671875 43.015625 38.765625 
Q 41.109375 34.859375 38.125 31.65625 
Q 35.15625 28.46875 30.515625 24.40625 
Q 25.875 20.359375 24.421875 19 
L 13.09375 8.109375 
L 22.703125 8.109375 
Q 29.78125 8.109375 34.546875 8.21875 
Q 39.3125 8.34375 39.59375 8.59375 
Q 40.765625 9.859375 42 17.828125 
L 44.921875 17.828125 
L 42.09375 0 
z
" id="Cmr10-32"/>
      <path d="M 8.296875 -2 
Q 8.296875 -0.734375 9.625 -0.09375 
L 62.703125 25 
L 9.28125 50.296875 
Q 8.296875 50.59375 8.296875 52 
Q 8.296875 52.6875 8.859375 53.34375 
Q 9.421875 54 10.296875 54 
Q 10.5 54 11.078125 53.8125 
L 68.5 26.703125 
Q 69.390625 26.265625 69.390625 25 
Q 69.390625 23.6875 68.21875 23.1875 
L 11.078125 -3.8125 
Q 10.5 -4 10.296875 -4 
Q 9.421875 -4 8.859375 -3.34375 
Q 8.296875 -2.6875 8.296875 -2 
z
" id="Cmmi10-3e"/>
      <path d="M 9.90625 -18.015625 
Q 9.90625 -17.578125 10.296875 -17.1875 
Q 13.921875 -13.71875 15.921875 -9.171875 
Q 17.921875 -4.640625 17.921875 0.390625 
L 17.921875 1.609375 
Q 16.3125 0 13.921875 0 
Q 11.625 0 10.015625 1.609375 
Q 8.40625 3.21875 8.40625 5.515625 
Q 8.40625 7.859375 10.015625 9.421875 
Q 11.625 10.984375 13.921875 10.984375 
Q 17.484375 10.984375 19 7.6875 
Q 20.515625 4.390625 20.515625 0.390625 
Q 20.515625 -5.171875 18.28125 -10.171875 
Q 16.0625 -15.1875 12.015625 -19.1875 
Q 11.625 -19.390625 11.375 -19.390625 
Q 10.890625 -19.390625 10.390625 -18.9375 
Q 9.90625 -18.5 9.90625 -18.015625 
z
" id="Cmmi10-3b"/>
      <path d="M 4.6875 0 
Q 3.71875 0 3.71875 1.3125 
Q 3.765625 1.5625 3.90625 2.171875 
Q 4.046875 2.78125 4.3125 3.140625 
Q 4.59375 3.515625 4.984375 3.515625 
Q 14.546875 3.515625 16.109375 9.625 
L 29.6875 64.3125 
Q 26.90625 64.796875 20.90625 64.796875 
Q 19.921875 64.796875 19.921875 66.109375 
Q 19.96875 66.359375 20.109375 66.96875 
Q 20.265625 67.578125 20.53125 67.9375 
Q 20.796875 68.3125 21.1875 68.3125 
L 38.484375 68.3125 
Q 39.203125 68.3125 39.40625 67.671875 
L 61.625 14.796875 
L 72.703125 59.078125 
Q 72.90625 60.15625 72.90625 60.59375 
Q 72.90625 64.796875 65.1875 64.796875 
Q 64.203125 64.796875 64.203125 66.109375 
Q 64.546875 67.390625 64.734375 67.84375 
Q 64.9375 68.3125 65.921875 68.3125 
L 87.3125 68.3125 
Q 88.28125 68.3125 88.28125 67 
Q 88.234375 66.75 88.078125 66.140625 
Q 87.9375 65.53125 87.671875 65.15625 
Q 87.40625 64.796875 87.015625 64.796875 
Q 77.4375 64.796875 75.875 58.6875 
L 61.53125 0.875 
Q 61.1875 0 60.5 0 
L 59.28125 0 
Q 58.59375 0 58.40625 0.6875 
L 32.90625 61.1875 
L 32.71875 61.8125 
Q 32.515625 62.015625 32.515625 62.109375 
L 19.28125 9.1875 
Q 19.1875 8.9375 19.140625 8.5625 
Q 19.09375 8.203125 19 7.71875 
Q 19 5.125 21.234375 4.3125 
Q 23.484375 3.515625 26.8125 3.515625 
Q 27.78125 3.515625 27.78125 2.203125 
Q 27.4375 0.828125 27.1875 0.40625 
Q 26.953125 0 26.125 0 
z
" id="Cmmi10-4e"/>
      <path d="M 31 -24.8125 
Q 25.4375 -20.40625 21.40625 -14.71875 
Q 17.390625 -9.03125 14.8125 -2.578125 
Q 12.25 3.859375 10.984375 10.890625 
Q 9.71875 17.921875 9.71875 25 
Q 9.71875 32.171875 10.984375 39.203125 
Q 12.25 46.234375 14.859375 52.734375 
Q 17.484375 59.234375 21.53125 64.890625 
Q 25.59375 70.5625 31 74.8125 
Q 31 75 31.5 75 
L 32.421875 75 
Q 32.71875 75 32.953125 74.734375 
Q 33.203125 74.46875 33.203125 74.125 
Q 33.203125 73.6875 33.015625 73.484375 
Q 28.125 68.703125 24.875 63.234375 
Q 21.625 57.765625 19.640625 51.578125 
Q 17.671875 45.40625 16.796875 38.78125 
Q 15.921875 32.171875 15.921875 25 
Q 15.921875 -6.78125 32.90625 -23.296875 
Q 33.203125 -23.578125 33.203125 -24.125 
Q 33.203125 -24.359375 32.9375 -24.671875 
Q 32.671875 -25 32.421875 -25 
L 31.5 -25 
Q 31 -25 31 -24.8125 
z
" id="Cmr10-28"/>
      <path d="M 6.5 -25 
Q 5.609375 -25 5.609375 -24.125 
Q 5.609375 -23.6875 5.8125 -23.484375 
Q 22.90625 -6.78125 22.90625 25 
Q 22.90625 56.78125 6 73.296875 
Q 5.609375 73.53125 5.609375 74.125 
Q 5.609375 74.46875 5.875 74.734375 
Q 6.15625 75 6.5 75 
L 7.421875 75 
Q 7.71875 75 7.90625 74.8125 
Q 15.09375 69.140625 19.875 61.03125 
Q 24.65625 52.9375 26.875 43.75 
Q 29.109375 34.578125 29.109375 25 
Q 29.109375 17.921875 27.90625 11.0625 
Q 26.703125 4.203125 24.09375 -2.453125 
Q 21.484375 -9.125 17.484375 -14.765625 
Q 13.484375 -20.40625 7.90625 -24.8125 
Q 7.71875 -25 7.421875 -25 
z
" id="Cmr10-29"/>
     </defs>
     <g transform="translate(74.896875 348.16)rotate(-90)scale(0.2 -0.2)">
      <use transform="translate(17.558594 0.109375)" xlink:href="#Cmmi10-3c"/>
      <use transform="translate(112.802734 0.109375)" xlink:href="#Cmmi10-70"/>
      <use transform="translate(169.398984 38.373438)scale(0.7)" xlink:href="#Cmr10-32"/>
      <use transform="translate(228.334922 0.109375)" xlink:href="#Cmmi10-3e"/>
      <use transform="translate(328.043203 -16.896875)scale(0.7)" xlink:href="#Cmmi10-70"/>
      <use transform="translate(367.660578 9.887969)scale(0.49)" xlink:href="#Cmr10-32"/>
      <use transform="translate(396.624719 -16.896875)scale(0.7)" xlink:href="#Cmmi10-3b"/>
      <use transform="translate(428.295617 -16.896875)scale(0.7)" xlink:href="#Cmmi10-4e"/>
      <use transform="translate(490.898547 0.109375)" xlink:href="#Cmr10-28"/>
      <use transform="translate(529.716906 0.109375)" xlink:href="#Cmmi10-73"/>
      <use transform="translate(576.49425 0.109375)" xlink:href="#Cmr10-29"/>
     </g>
    </g>
   </g>
   <g id="LineCollection_1">
    <path clip-path="url(#p970735c2b2)" d="M 138.436364 91.429645 
L 138.436364 88.887273 
" style="fill:none;stroke:#004cff;stroke-width:1.5;"/>
    <path clip-path="url(#p970735c2b2)" d="M 199.309091 127.597188 
L 199.309091 124.448992 
" style="fill:none;stroke:#004cff;stroke-width:1.5;"/>
    <path clip-path="url(#p970735c2b2)" d="M 260.181818 172.950807 
L 260.181818 170.601717 
" style="fill:none;stroke:#004cff;stroke-width:1.5;"/>
    <path clip-path="url(#p970735c2b2)" d="M 321.054545 225.89136 
L 321.054545 223.698203 
" style="fill:none;stroke:#004cff;stroke-width:1.5;"/>
    <path clip-path="url(#p970735c2b2)" d="M 381.927273 281.526971 
L 381.927273 277.611693 
" style="fill:none;stroke:#004cff;stroke-width:1.5;"/>
    <path clip-path="url(#p970735c2b2)" d="M 442.8 319.816527 
L 442.8 318.955407 
" style="fill:none;stroke:#004cff;stroke-width:1.5;"/>
    <path clip-path="url(#p970735c2b2)" d="M 503.672727 349.980177 
L 503.672727 349.016635 
" style="fill:none;stroke:#004cff;stroke-width:1.5;"/>
    <path clip-path="url(#p970735c2b2)" d="M 564.545455 372.172416 
L 564.545455 371.350435 
" style="fill:none;stroke:#004cff;stroke-width:1.5;"/>
    <path clip-path="url(#p970735c2b2)" d="M 625.418182 385.660572 
L 625.418182 385.353947 
" style="fill:none;stroke:#004cff;stroke-width:1.5;"/>
    <path clip-path="url(#p970735c2b2)" d="M 686.290909 397.072368 
L 686.290909 396.758903 
" style="fill:none;stroke:#004cff;stroke-width:1.5;"/>
    <path clip-path="url(#p970735c2b2)" d="M 747.163636 405.28772 
L 747.163636 405.103701 
" style="fill:none;stroke:#004cff;stroke-width:1.5;"/>
   </g>
   <g id="LineCollection_2">
    <path clip-path="url(#p970735c2b2)" d="M 138.436364 101.795476 
L 138.436364 98.745308 
" style="fill:none;stroke:#29ffce;stroke-width:1.5;"/>
    <path clip-path="url(#p970735c2b2)" d="M 199.309091 141.269267 
L 199.309091 138.022217 
" style="fill:none;stroke:#29ffce;stroke-width:1.5;"/>
    <path clip-path="url(#p970735c2b2)" d="M 260.181818 187.959405 
L 260.181818 183.498164 
" style="fill:none;stroke:#29ffce;stroke-width:1.5;"/>
    <path clip-path="url(#p970735c2b2)" d="M 321.054545 250.440548 
L 321.054545 247.861367 
" style="fill:none;stroke:#29ffce;stroke-width:1.5;"/>
    <path clip-path="url(#p970735c2b2)" d="M 381.927273 330.18572 
L 381.927273 326.549826 
" style="fill:none;stroke:#29ffce;stroke-width:1.5;"/>
    <path clip-path="url(#p970735c2b2)" d="M 442.8 380.91819 
L 442.8 379.23883 
" style="fill:none;stroke:#29ffce;stroke-width:1.5;"/>
    <path clip-path="url(#p970735c2b2)" d="M 503.672727 410.555771 
L 503.672727 409.486181 
" style="fill:none;stroke:#29ffce;stroke-width:1.5;"/>
    <path clip-path="url(#p970735c2b2)" d="M 564.545455 425.303516 
L 564.545455 424.841322 
" style="fill:none;stroke:#29ffce;stroke-width:1.5;"/>
    <path clip-path="url(#p970735c2b2)" d="M 625.418182 434.184192 
L 625.418182 433.970552 
" style="fill:none;stroke:#29ffce;stroke-width:1.5;"/>
    <path clip-path="url(#p970735c2b2)" d="M 686.290909 440.224208 
L 686.290909 440.044888 
" style="fill:none;stroke:#29ffce;stroke-width:1.5;"/>
    <path clip-path="url(#p970735c2b2)" d="M 747.163636 444.588733 
L 747.163636 444.44947 
" style="fill:none;stroke:#29ffce;stroke-width:1.5;"/>
   </g>
   <g id="LineCollection_3">
    <path clip-path="url(#p970735c2b2)" d="M 138.436364 112.346506 
L 138.436364 110.253834 
" style="fill:none;stroke:#ceff29;stroke-width:1.5;"/>
    <path clip-path="url(#p970735c2b2)" d="M 199.309091 147.220208 
L 199.309091 145.834653 
" style="fill:none;stroke:#ceff29;stroke-width:1.5;"/>
    <path clip-path="url(#p970735c2b2)" d="M 260.181818 199.309142 
L 260.181818 196.801718 
" style="fill:none;stroke:#ceff29;stroke-width:1.5;"/>
    <path clip-path="url(#p970735c2b2)" d="M 321.054545 264.863217 
L 321.054545 262.566597 
" style="fill:none;stroke:#ceff29;stroke-width:1.5;"/>
    <path clip-path="url(#p970735c2b2)" d="M 381.927273 355.012114 
L 381.927273 352.127523 
" style="fill:none;stroke:#ceff29;stroke-width:1.5;"/>
    <path clip-path="url(#p970735c2b2)" d="M 442.8 428.634325 
L 442.8 426.462612 
" style="fill:none;stroke:#ceff29;stroke-width:1.5;"/>
    <path clip-path="url(#p970735c2b2)" d="M 503.672727 451.607307 
L 503.672727 451.236969 
" style="fill:none;stroke:#ceff29;stroke-width:1.5;"/>
    <path clip-path="url(#p970735c2b2)" d="M 564.545455 459.69423 
L 564.545455 459.413055 
" style="fill:none;stroke:#ceff29;stroke-width:1.5;"/>
    <path clip-path="url(#p970735c2b2)" d="M 625.418182 463.95916 
L 625.418182 463.836659 
" style="fill:none;stroke:#ceff29;stroke-width:1.5;"/>
    <path clip-path="url(#p970735c2b2)" d="M 686.290909 466.583707 
L 686.290909 466.487561 
" style="fill:none;stroke:#ceff29;stroke-width:1.5;"/>
    <path clip-path="url(#p970735c2b2)" d="M 747.163636 468.382679 
L 747.163636 468.324229 
" style="fill:none;stroke:#ceff29;stroke-width:1.5;"/>
   </g>
   <g id="LineCollection_4">
    <path clip-path="url(#p970735c2b2)" d="M 138.436364 124.982113 
L 138.436364 123.510448 
" style="fill:none;stroke:#ff6800;stroke-width:1.5;"/>
    <path clip-path="url(#p970735c2b2)" d="M 199.309091 169.189367 
L 199.309091 168.244733 
" style="fill:none;stroke:#ff6800;stroke-width:1.5;"/>
    <path clip-path="url(#p970735c2b2)" d="M 260.181818 229.212564 
L 260.181818 227.226904 
" style="fill:none;stroke:#ff6800;stroke-width:1.5;"/>
    <path clip-path="url(#p970735c2b2)" d="M 321.054545 298.583976 
L 321.054545 296.593062 
" style="fill:none;stroke:#ff6800;stroke-width:1.5;"/>
    <path clip-path="url(#p970735c2b2)" d="M 381.927273 377.410829 
L 381.927273 373.98149 
" style="fill:none;stroke:#ff6800;stroke-width:1.5;"/>
    <path clip-path="url(#p970735c2b2)" d="M 442.8 449.30975 
L 442.8 447.988868 
" style="fill:none;stroke:#ff6800;stroke-width:1.5;"/>
    <path clip-path="url(#p970735c2b2)" d="M 503.672727 467.172783 
L 503.672727 466.852174 
" style="fill:none;stroke:#ff6800;stroke-width:1.5;"/>
    <path clip-path="url(#p970735c2b2)" d="M 564.545455 471.809721 
L 564.545455 471.657781 
" style="fill:none;stroke:#ff6800;stroke-width:1.5;"/>
    <path clip-path="url(#p970735c2b2)" d="M 625.418182 474.032082 
L 625.418182 473.966547 
" style="fill:none;stroke:#ff6800;stroke-width:1.5;"/>
    <path clip-path="url(#p970735c2b2)" d="M 686.290909 475.378338 
L 686.290909 475.351677 
" style="fill:none;stroke:#ff6800;stroke-width:1.5;"/>
    <path clip-path="url(#p970735c2b2)" d="M 747.163636 476.300175 
L 747.163636 476.272029 
" style="fill:none;stroke:#ff6800;stroke-width:1.5;"/>
   </g>
   <g id="line2d_13">
    <path clip-path="url(#p970735c2b2)" d="M 138.436364 348.008598 
L 199.309091 368.472554 
L 260.181818 391.472604 
L 321.054545 417.691553 
L 381.927273 448.115655 
L 442.8 484.232727 
L 503.672727 484.232727 
L 564.545455 484.232727 
L 625.418182 484.232727 
L 686.290909 484.232727 
L 747.163636 484.232727 
" style="fill:none;stroke:#000000;stroke-dasharray:5.55,2.4;stroke-dashoffset:0;stroke-width:1.5;"/>
   </g>
   <g id="line2d_14">
    <path clip-path="url(#p970735c2b2)" d="M 138.436364 90.158459 
L 199.309091 126.02309 
L 260.181818 171.776262 
L 321.054545 224.794782 
L 381.927273 279.569332 
L 442.8 319.385967 
L 503.672727 349.498406 
L 564.545455 371.761426 
L 625.418182 385.507259 
L 686.290909 396.915636 
L 747.163636 405.195711 
" style="fill:none;stroke:#004cff;stroke-linecap:square;stroke-width:1.5;"/>
   </g>
   <g id="line2d_15">
    <path clip-path="url(#p970735c2b2)" d="M 138.436364 100.270392 
L 199.309091 139.645742 
L 260.181818 185.728784 
L 321.054545 249.150957 
L 381.927273 328.367773 
L 442.8 380.07851 
L 503.672727 410.020976 
L 564.545455 425.072419 
L 625.418182 434.077372 
L 686.290909 440.134548 
L 747.163636 444.519101 
" style="fill:none;stroke:#29ffce;stroke-linecap:square;stroke-width:1.5;"/>
   </g>
   <g id="line2d_16">
    <path clip-path="url(#p970735c2b2)" d="M 138.436364 111.30017 
L 199.309091 146.527431 
L 260.181818 198.05543 
L 321.054545 263.714907 
L 381.927273 353.569818 
L 442.8 427.548469 
L 503.672727 451.422138 
L 564.545455 459.553643 
L 625.418182 463.89791 
L 686.290909 466.535634 
L 747.163636 468.353454 
" style="fill:none;stroke:#ceff29;stroke-linecap:square;stroke-width:1.5;"/>
   </g>
   <g id="line2d_17">
    <path clip-path="url(#p970735c2b2)" d="M 138.436364 124.246281 
L 199.309091 168.71705 
L 260.181818 228.219734 
L 321.054545 297.588519 
L 381.927273 375.69616 
L 442.8 448.649309 
L 503.672727 467.012478 
L 564.545455 471.733751 
L 625.418182 473.999315 
L 686.290909 475.365008 
L 747.163636 476.286102 
" style="fill:none;stroke:#ff6800;stroke-linecap:square;stroke-width:1.5;"/>
   </g>
   <g id="patch_3">
    <path d="M 108 504 
L 108 69.12 
" style="fill:none;stroke:#000000;stroke-linecap:square;stroke-linejoin:miter;stroke-width:0.8;"/>
   </g>
   <g id="patch_4">
    <path d="M 777.6 504 
L 777.6 69.12 
" style="fill:none;stroke:#000000;stroke-linecap:square;stroke-linejoin:miter;stroke-width:0.8;"/>
   </g>
   <g id="patch_5">
    <path d="M 108 504 
L 777.6 504 
" style="fill:none;stroke:#000000;stroke-linecap:square;stroke-linejoin:miter;stroke-width:0.8;"/>
   </g>
   <g id="patch_6">
    <path d="M 108 69.12 
L 777.6 69.12 
" style="fill:none;stroke:#000000;stroke-linecap:square;stroke-linejoin:miter;stroke-width:0.8;"/>
   </g>
   <g id="text_15">
    <!-- $D_r=5e-01, \tau=1e+03, N_c=1e+02$ — controlled dynamics -->
    <defs>
     <path d="M 4.890625 0 
Q 3.90625 0 3.90625 1.3125 
Q 3.953125 1.5625 4.09375 2.171875 
Q 4.25 2.78125 4.515625 3.140625 
Q 4.78125 3.515625 5.171875 3.515625 
Q 11.28125 3.515625 13.71875 4.203125 
Q 14.984375 4.640625 15.578125 6.890625 
L 29.296875 61.8125 
Q 29.5 62.796875 29.5 63.1875 
Q 29.5 64.265625 28.328125 64.40625 
Q 26.421875 64.796875 21.09375 64.796875 
Q 20.125 64.796875 20.125 66.109375 
Q 20.171875 66.359375 20.3125 66.96875 
Q 20.453125 67.578125 20.71875 67.9375 
Q 21 68.3125 21.390625 68.3125 
L 57.328125 68.3125 
Q 64.3125 68.3125 69.53125 64.921875 
Q 74.75 61.53125 77.53125 55.78125 
Q 80.328125 50.046875 80.328125 43.109375 
Q 80.328125 35.453125 77.140625 27.78125 
Q 73.96875 20.125 68.25 13.765625 
Q 62.546875 7.421875 55.21875 3.703125 
Q 47.90625 0 40.1875 0 
z
M 23.578125 4.296875 
Q 23.578125 3.515625 27 3.515625 
L 38.625 3.515625 
Q 44.1875 3.515625 49.359375 5.8125 
Q 54.546875 8.109375 58.59375 12.109375 
Q 62.359375 15.875 65.234375 21.96875 
Q 68.109375 28.078125 69.703125 34.71875 
Q 71.296875 41.359375 71.296875 46.921875 
Q 71.296875 50.984375 70.09375 54.25 
Q 68.890625 57.515625 66.71875 59.859375 
Q 64.546875 62.203125 61.28125 63.5 
Q 58.015625 64.796875 53.90625 64.796875 
L 42.921875 64.796875 
Q 40.1875 64.796875 39.296875 64.328125 
Q 38.421875 63.875 37.703125 61.375 
L 24.03125 6.5 
Q 23.578125 5.28125 23.578125 4.296875 
z
" id="Cmmi10-44"/>
     <path d="M 7.71875 1.703125 
Q 7.71875 2.296875 7.8125 2.59375 
L 15.28125 32.421875 
Q 16.015625 35.203125 16.015625 37.3125 
Q 16.015625 41.609375 13.09375 41.609375 
Q 9.96875 41.609375 8.453125 37.859375 
Q 6.9375 34.125 5.515625 28.421875 
Q 5.515625 28.125 5.21875 27.953125 
Q 4.9375 27.78125 4.6875 27.78125 
L 3.515625 27.78125 
Q 3.171875 27.78125 2.921875 28.140625 
Q 2.6875 28.515625 2.6875 28.8125 
Q 3.765625 33.15625 4.765625 36.171875 
Q 5.765625 39.203125 7.890625 41.6875 
Q 10.015625 44.1875 13.1875 44.1875 
Q 16.65625 44.1875 19.265625 42.1875 
Q 21.875 40.1875 22.515625 36.921875 
Q 25.046875 40.234375 28.296875 42.203125 
Q 31.546875 44.1875 35.40625 44.1875 
Q 38.578125 44.1875 40.984375 42.328125 
Q 43.40625 40.484375 43.40625 37.3125 
Q 43.40625 34.765625 41.8125 32.875 
Q 40.234375 31 37.59375 31 
Q 35.984375 31 34.890625 32 
Q 33.796875 33.015625 33.796875 34.625 
Q 33.796875 36.8125 35.40625 38.546875 
Q 37.015625 40.28125 39.109375 40.28125 
Q 37.5 41.609375 35.203125 41.609375 
Q 30.90625 41.609375 27.734375 38.546875 
Q 24.5625 35.5 22.015625 30.8125 
L 14.890625 2.203125 
Q 14.546875 0.828125 13.34375 -0.140625 
Q 12.15625 -1.125 10.6875 -1.125 
Q 9.46875 -1.125 8.59375 -0.34375 
Q 7.71875 0.4375 7.71875 1.703125 
z
" id="Cmmi10-72"/>
     <path d="M 7.515625 13.28125 
Q 6.6875 13.28125 6.140625 13.90625 
Q 5.609375 14.546875 5.609375 15.28125 
Q 5.609375 16.109375 6.140625 16.6875 
Q 6.6875 17.28125 7.515625 17.28125 
L 70.3125 17.28125 
Q 71.046875 17.28125 71.578125 16.6875 
Q 72.125 16.109375 72.125 15.28125 
Q 72.125 14.546875 71.578125 13.90625 
Q 71.046875 13.28125 70.3125 13.28125 
z
M 7.515625 32.71875 
Q 6.6875 32.71875 6.140625 33.296875 
Q 5.609375 33.890625 5.609375 34.71875 
Q 5.609375 35.453125 6.140625 36.078125 
Q 6.6875 36.71875 7.515625 36.71875 
L 70.3125 36.71875 
Q 71.046875 36.71875 71.578125 36.078125 
Q 72.125 35.453125 72.125 34.71875 
Q 72.125 33.890625 71.578125 33.296875 
Q 71.046875 32.71875 70.3125 32.71875 
z
" id="Cmr10-3d"/>
     <path d="M 8.6875 11.375 
Q 9.71875 8.453125 11.84375 6.046875 
Q 13.96875 3.65625 16.875 2.3125 
Q 19.78125 0.984375 22.90625 0.984375 
Q 30.125 0.984375 32.859375 6.59375 
Q 35.59375 12.203125 35.59375 20.21875 
Q 35.59375 23.6875 35.46875 26.046875 
Q 35.359375 28.421875 34.8125 30.609375 
Q 33.890625 34.125 31.5625 36.765625 
Q 29.25 39.40625 25.875 39.40625 
Q 22.515625 39.40625 20.09375 38.375 
Q 17.671875 37.359375 16.15625 35.984375 
Q 14.65625 34.625 13.484375 33.109375 
Q 12.3125 31.59375 12.015625 31.5 
L 10.890625 31.5 
Q 10.640625 31.5 10.265625 31.8125 
Q 9.90625 32.125 9.90625 32.421875 
L 9.90625 65.828125 
Q 9.90625 66.0625 10.21875 66.328125 
Q 10.546875 66.609375 10.890625 66.609375 
L 11.1875 66.609375 
Q 17.921875 63.375 25.484375 63.375 
Q 32.90625 63.375 39.796875 66.609375 
L 40.09375 66.609375 
Q 40.4375 66.609375 40.71875 66.359375 
Q 41.015625 66.109375 41.015625 65.828125 
L 41.015625 64.890625 
Q 41.015625 64.40625 40.828125 64.40625 
Q 37.40625 59.859375 32.25 57.3125 
Q 27.09375 54.78125 21.578125 54.78125 
Q 17.578125 54.78125 13.375 55.90625 
L 13.375 37.015625 
Q 16.703125 39.703125 19.3125 40.84375 
Q 21.921875 42 25.984375 42 
Q 31.5 42 35.859375 38.8125 
Q 40.234375 35.640625 42.578125 30.53125 
Q 44.921875 25.4375 44.921875 20.125 
Q 44.921875 14.109375 41.96875 8.984375 
Q 39.015625 3.859375 33.9375 0.828125 
Q 28.859375 -2.203125 22.90625 -2.203125 
Q 17.96875 -2.203125 13.84375 0.328125 
Q 9.71875 2.875 7.34375 7.171875 
Q 4.984375 11.46875 4.984375 16.3125 
Q 4.984375 18.5625 6.4375 19.96875 
Q 7.90625 21.390625 10.109375 21.390625 
Q 12.3125 21.390625 13.796875 19.9375 
Q 15.28125 18.5 15.28125 16.3125 
Q 15.28125 14.15625 13.796875 12.671875 
Q 12.3125 11.1875 10.109375 11.1875 
Q 9.765625 11.1875 9.328125 11.25 
Q 8.890625 11.328125 8.6875 11.375 
z
" id="Cmr10-35"/>
     <path d="M 20.125 -1.125 
Q 15.328125 -1.125 11.734375 1.359375 
Q 8.15625 3.859375 6.265625 8.078125 
Q 4.390625 12.3125 4.390625 17 
Q 4.390625 24.125 7.984375 30.390625 
Q 11.578125 36.671875 17.71875 40.421875 
Q 23.875 44.1875 30.90625 44.1875 
Q 35.203125 44.1875 38.40625 41.96875 
Q 41.609375 39.75 41.609375 35.59375 
Q 41.609375 29.828125 37.015625 27.015625 
Q 32.421875 24.21875 26.65625 23.5625 
Q 20.90625 22.90625 13.921875 22.90625 
L 13.625 22.90625 
Q 12.015625 16.9375 12.015625 12.703125 
Q 12.015625 8.25 14.0625 4.875 
Q 16.109375 1.515625 20.3125 1.515625 
Q 26.265625 1.515625 31.75 4.25 
Q 37.25 6.984375 40.71875 11.8125 
Q 41.015625 12.109375 41.5 12.109375 
Q 42 12.109375 42.5 11.546875 
Q 43.015625 10.984375 43.015625 10.5 
Q 43.015625 10.109375 42.828125 9.90625 
Q 39.15625 4.78125 32.953125 1.828125 
Q 26.765625 -1.125 20.125 -1.125 
z
M 14.203125 25.484375 
Q 20.015625 25.484375 24.953125 26.015625 
Q 29.890625 26.5625 33.890625 28.734375 
Q 37.890625 30.90625 37.890625 35.5 
Q 37.890625 37.359375 36.859375 38.75 
Q 35.84375 40.140625 34.203125 40.875 
Q 32.5625 41.609375 30.8125 41.609375 
Q 26.5625 41.609375 23.171875 39.3125 
Q 19.78125 37.015625 17.578125 33.328125 
Q 15.375 29.640625 14.203125 25.484375 
z
" id="Cmmi10-65"/>
     <path d="M 10.203125 23 
Q 9.375 23 8.828125 23.625 
Q 8.296875 24.265625 8.296875 25 
Q 8.296875 25.734375 8.828125 26.359375 
Q 9.375 27 10.203125 27 
L 67.578125 27 
Q 68.359375 27 68.875 26.359375 
Q 69.390625 25.734375 69.390625 25 
Q 69.390625 24.265625 68.875 23.625 
Q 68.359375 23 67.578125 23 
z
" id="Cmsy10-a1"/>
     <path d="M 25 -2.203125 
Q 12.75 -2.203125 8.328125 7.875 
Q 3.90625 17.96875 3.90625 31.890625 
Q 3.90625 40.578125 5.484375 48.234375 
Q 7.078125 55.90625 11.78125 61.25 
Q 16.5 66.609375 25 66.609375 
Q 31.59375 66.609375 35.78125 63.375 
Q 39.984375 60.15625 42.1875 55.046875 
Q 44.390625 49.953125 45.1875 44.109375 
Q 46 38.28125 46 31.890625 
Q 46 23.296875 44.40625 15.796875 
Q 42.828125 8.296875 38.1875 3.046875 
Q 33.546875 -2.203125 25 -2.203125 
z
M 25 0.390625 
Q 30.5625 0.390625 33.296875 6.09375 
Q 36.03125 11.8125 36.671875 18.75 
Q 37.3125 25.6875 37.3125 33.5 
Q 37.3125 41.015625 36.671875 47.359375 
Q 36.03125 53.71875 33.3125 58.859375 
Q 30.609375 64.015625 25 64.015625 
Q 19.34375 64.015625 16.609375 58.828125 
Q 13.875 53.65625 13.234375 47.328125 
Q 12.59375 41.015625 12.59375 33.5 
Q 12.59375 27.9375 12.859375 23 
Q 13.140625 18.0625 14.3125 12.8125 
Q 15.484375 7.5625 18.09375 3.96875 
Q 20.703125 0.390625 25 0.390625 
z
" id="Cmr10-30"/>
     <path d="M 9.28125 0 
L 9.28125 3.515625 
Q 21.78125 3.515625 21.78125 6.6875 
L 21.78125 59.1875 
Q 16.609375 56.6875 8.6875 56.6875 
L 8.6875 60.203125 
Q 20.953125 60.203125 27.203125 66.609375 
L 28.609375 66.609375 
Q 28.953125 66.609375 29.265625 66.328125 
Q 29.59375 66.0625 29.59375 65.71875 
L 29.59375 6.6875 
Q 29.59375 3.515625 42.09375 3.515625 
L 42.09375 0 
z
" id="Cmr10-31"/>
     <path d="M 15.578125 1.515625 
Q 15.578125 2.203125 15.71875 2.59375 
L 26.21875 36.921875 
L 17.1875 36.921875 
Q 13.53125 36.921875 10.34375 34.625 
Q 7.171875 32.328125 5.078125 28.8125 
Q 4.890625 28.421875 4.5 28.421875 
L 3.328125 28.421875 
Q 2.390625 28.421875 2.390625 29.390625 
Q 2.390625 29.59375 2.59375 29.984375 
Q 5.859375 35.546875 9.59375 39.328125 
Q 13.328125 43.109375 18.015625 43.109375 
L 48.6875 43.109375 
Q 49.75 43.109375 50.484375 42.375 
Q 51.21875 41.65625 51.21875 40.578125 
Q 51.21875 39.109375 50.171875 38.015625 
Q 49.125 36.921875 47.609375 36.921875 
L 29.5 36.921875 
L 22.796875 2.390625 
Q 22.40625 0.78125 21.328125 -0.265625 
Q 20.265625 -1.3125 18.609375 -1.3125 
Q 17.328125 -1.3125 16.453125 -0.5 
Q 15.578125 0.296875 15.578125 1.515625 
z
" id="Cmmi10-bf"/>
     <path d="M 7.515625 23 
Q 6.6875 23 6.140625 23.625 
Q 5.609375 24.265625 5.609375 25 
Q 5.609375 25.734375 6.140625 26.359375 
Q 6.6875 27 7.515625 27 
L 36.921875 27 
L 36.921875 56.5 
Q 36.921875 57.28125 37.5 57.78125 
Q 38.09375 58.296875 38.921875 58.296875 
Q 39.65625 58.296875 40.28125 57.78125 
Q 40.921875 57.28125 40.921875 56.5 
L 40.921875 27 
L 70.3125 27 
Q 71.046875 27 71.578125 26.359375 
Q 72.125 25.734375 72.125 25 
Q 72.125 24.265625 71.578125 23.625 
Q 71.046875 23 70.3125 23 
L 40.921875 23 
L 40.921875 -6.5 
Q 40.921875 -7.28125 40.28125 -7.78125 
Q 39.65625 -8.296875 38.921875 -8.296875 
Q 38.09375 -8.296875 37.5 -7.78125 
Q 36.921875 -7.28125 36.921875 -6.5 
L 36.921875 23 
z
" id="Cmr10-2b"/>
     <path d="M 9.515625 7.71875 
Q 11.859375 4.296875 15.8125 2.640625 
Q 19.78125 0.984375 24.3125 0.984375 
Q 30.125 0.984375 32.5625 5.9375 
Q 35.015625 10.890625 35.015625 17.1875 
Q 35.015625 20.015625 34.5 22.84375 
Q 33.984375 25.6875 32.765625 28.125 
Q 31.546875 30.5625 29.421875 32.03125 
Q 27.296875 33.5 24.21875 33.5 
L 17.578125 33.5 
Q 16.703125 33.5 16.703125 34.421875 
L 16.703125 35.296875 
Q 16.703125 36.078125 17.578125 36.078125 
L 23.09375 36.53125 
Q 26.609375 36.53125 28.921875 39.15625 
Q 31.25 41.796875 32.328125 45.578125 
Q 33.40625 49.359375 33.40625 52.78125 
Q 33.40625 57.5625 31.15625 60.640625 
Q 28.90625 63.71875 24.3125 63.71875 
Q 20.515625 63.71875 17.046875 62.28125 
Q 13.578125 60.84375 11.53125 57.90625 
Q 11.71875 57.953125 11.859375 57.984375 
Q 12.015625 58.015625 12.203125 58.015625 
Q 14.453125 58.015625 15.96875 56.453125 
Q 17.484375 54.890625 17.484375 52.6875 
Q 17.484375 50.53125 15.96875 48.96875 
Q 14.453125 47.40625 12.203125 47.40625 
Q 10.015625 47.40625 8.453125 48.96875 
Q 6.890625 50.53125 6.890625 52.6875 
Q 6.890625 56.984375 9.46875 60.15625 
Q 12.0625 63.328125 16.140625 64.96875 
Q 20.21875 66.609375 24.3125 66.609375 
Q 27.34375 66.609375 30.703125 65.703125 
Q 34.078125 64.796875 36.8125 63.109375 
Q 39.546875 61.421875 41.28125 58.78125 
Q 43.015625 56.15625 43.015625 52.78125 
Q 43.015625 48.578125 41.140625 45.015625 
Q 39.265625 41.453125 35.984375 38.859375 
Q 32.71875 36.28125 28.8125 35.015625 
Q 33.15625 34.1875 37.0625 31.734375 
Q 40.96875 29.296875 43.328125 25.484375 
Q 45.703125 21.6875 45.703125 17.28125 
Q 45.703125 11.765625 42.671875 7.296875 
Q 39.65625 2.828125 34.71875 0.3125 
Q 29.78125 -2.203125 24.3125 -2.203125 
Q 19.625 -2.203125 14.90625 -0.40625 
Q 10.203125 1.375 7.203125 4.9375 
Q 4.203125 8.5 4.203125 13.484375 
Q 4.203125 15.96875 5.859375 17.625 
Q 7.515625 19.28125 10.015625 19.28125 
Q 11.625 19.28125 12.96875 18.53125 
Q 14.3125 17.78125 15.0625 16.40625 
Q 15.828125 15.046875 15.828125 13.484375 
Q 15.828125 11.03125 14.109375 9.375 
Q 12.40625 7.71875 10.015625 7.71875 
z
" id="Cmr10-33"/>
     <path d="M 11.71875 11.921875 
Q 11.71875 7.5625 13.9375 4.53125 
Q 16.15625 1.515625 20.3125 1.515625 
Q 26.265625 1.515625 31.75 4.25 
Q 37.25 6.984375 40.71875 11.8125 
Q 41.015625 12.109375 41.5 12.109375 
Q 42 12.109375 42.5 11.546875 
Q 43.015625 10.984375 43.015625 10.5 
Q 43.015625 10.109375 42.828125 9.90625 
Q 39.15625 4.78125 32.953125 1.828125 
Q 26.765625 -1.125 20.125 -1.125 
Q 15.328125 -1.125 11.671875 1.140625 
Q 8.015625 3.421875 6 7.21875 
Q 4 11.03125 4 15.828125 
Q 4 22.5625 7.765625 29.203125 
Q 11.53125 35.84375 17.78125 40.015625 
Q 24.03125 44.1875 30.90625 44.1875 
Q 35.40625 44.1875 38.984375 42.015625 
Q 42.578125 39.84375 42.578125 35.59375 
Q 42.578125 32.859375 40.984375 30.921875 
Q 39.40625 29 36.71875 29 
Q 35.109375 29 34 30 
Q 32.90625 31 32.90625 32.625 
Q 32.90625 34.96875 34.609375 36.625 
Q 36.328125 38.28125 38.625 38.28125 
L 38.8125 38.28125 
Q 37.640625 39.984375 35.421875 40.796875 
Q 33.203125 41.609375 30.8125 41.609375 
Q 24.953125 41.609375 20.546875 36.59375 
Q 16.15625 31.59375 13.9375 24.625 
Q 11.71875 17.671875 11.71875 11.921875 
z
" id="Cmmi10-63"/>
     <path id="DejaVuSans-20"/>
     <path d="M 4.890625 30.90625 
L 95.125 30.90625 
L 95.125 23.875 
L 4.890625 23.875 
z
" id="DejaVuSans-2014"/>
     <path d="M 48.78125 52.59375 
L 48.78125 44.1875 
Q 44.96875 46.296875 41.140625 47.34375 
Q 37.3125 48.390625 33.40625 48.390625 
Q 24.65625 48.390625 19.8125 42.84375 
Q 14.984375 37.3125 14.984375 27.296875 
Q 14.984375 17.28125 19.8125 11.734375 
Q 24.65625 6.203125 33.40625 6.203125 
Q 37.3125 6.203125 41.140625 7.25 
Q 44.96875 8.296875 48.78125 10.40625 
L 48.78125 2.09375 
Q 45.015625 0.34375 40.984375 -0.53125 
Q 36.96875 -1.421875 32.421875 -1.421875 
Q 20.0625 -1.421875 12.78125 6.34375 
Q 5.515625 14.109375 5.515625 27.296875 
Q 5.515625 40.671875 12.859375 48.328125 
Q 20.21875 56 33.015625 56 
Q 37.15625 56 41.109375 55.140625 
Q 45.0625 54.296875 48.78125 52.59375 
z
" id="DejaVuSans-63"/>
     <path d="M 30.609375 48.390625 
Q 23.390625 48.390625 19.1875 42.75 
Q 14.984375 37.109375 14.984375 27.296875 
Q 14.984375 17.484375 19.15625 11.84375 
Q 23.34375 6.203125 30.609375 6.203125 
Q 37.796875 6.203125 41.984375 11.859375 
Q 46.1875 17.53125 46.1875 27.296875 
Q 46.1875 37.015625 41.984375 42.703125 
Q 37.796875 48.390625 30.609375 48.390625 
z
M 30.609375 56 
Q 42.328125 56 49.015625 48.375 
Q 55.71875 40.765625 55.71875 27.296875 
Q 55.71875 13.875 49.015625 6.21875 
Q 42.328125 -1.421875 30.609375 -1.421875 
Q 18.84375 -1.421875 12.171875 6.21875 
Q 5.515625 13.875 5.515625 27.296875 
Q 5.515625 40.765625 12.171875 48.375 
Q 18.84375 56 30.609375 56 
z
" id="DejaVuSans-6f"/>
     <path d="M 54.890625 33.015625 
L 54.890625 0 
L 45.90625 0 
L 45.90625 32.71875 
Q 45.90625 40.484375 42.875 44.328125 
Q 39.84375 48.1875 33.796875 48.1875 
Q 26.515625 48.1875 22.3125 43.546875 
Q 18.109375 38.921875 18.109375 30.90625 
L 18.109375 0 
L 9.078125 0 
L 9.078125 54.6875 
L 18.109375 54.6875 
L 18.109375 46.1875 
Q 21.34375 51.125 25.703125 53.5625 
Q 30.078125 56 35.796875 56 
Q 45.21875 56 50.046875 50.171875 
Q 54.890625 44.34375 54.890625 33.015625 
z
" id="DejaVuSans-6e"/>
     <path d="M 18.3125 70.21875 
L 18.3125 54.6875 
L 36.8125 54.6875 
L 36.8125 47.703125 
L 18.3125 47.703125 
L 18.3125 18.015625 
Q 18.3125 11.328125 20.140625 9.421875 
Q 21.96875 7.515625 27.59375 7.515625 
L 36.8125 7.515625 
L 36.8125 0 
L 27.59375 0 
Q 17.1875 0 13.234375 3.875 
Q 9.28125 7.765625 9.28125 18.015625 
L 9.28125 47.703125 
L 2.6875 47.703125 
L 2.6875 54.6875 
L 9.28125 54.6875 
L 9.28125 70.21875 
z
" id="DejaVuSans-74"/>
     <path d="M 41.109375 46.296875 
Q 39.59375 47.171875 37.8125 47.578125 
Q 36.03125 48 33.890625 48 
Q 26.265625 48 22.1875 43.046875 
Q 18.109375 38.09375 18.109375 28.8125 
L 18.109375 0 
L 9.078125 0 
L 9.078125 54.6875 
L 18.109375 54.6875 
L 18.109375 46.1875 
Q 20.953125 51.171875 25.484375 53.578125 
Q 30.03125 56 36.53125 56 
Q 37.453125 56 38.578125 55.875 
Q 39.703125 55.765625 41.0625 55.515625 
z
" id="DejaVuSans-72"/>
     <path d="M 9.421875 75.984375 
L 18.40625 75.984375 
L 18.40625 0 
L 9.421875 0 
z
" id="DejaVuSans-6c"/>
     <path d="M 56.203125 29.59375 
L 56.203125 25.203125 
L 14.890625 25.203125 
Q 15.484375 15.921875 20.484375 11.0625 
Q 25.484375 6.203125 34.421875 6.203125 
Q 39.59375 6.203125 44.453125 7.46875 
Q 49.3125 8.734375 54.109375 11.28125 
L 54.109375 2.78125 
Q 49.265625 0.734375 44.1875 -0.34375 
Q 39.109375 -1.421875 33.890625 -1.421875 
Q 20.796875 -1.421875 13.15625 6.1875 
Q 5.515625 13.8125 5.515625 26.8125 
Q 5.515625 40.234375 12.765625 48.109375 
Q 20.015625 56 32.328125 56 
Q 43.359375 56 49.78125 48.890625 
Q 56.203125 41.796875 56.203125 29.59375 
z
M 47.21875 32.234375 
Q 47.125 39.59375 43.09375 43.984375 
Q 39.0625 48.390625 32.421875 48.390625 
Q 24.90625 48.390625 20.390625 44.140625 
Q 15.875 39.890625 15.1875 32.171875 
z
" id="DejaVuSans-65"/>
     <path d="M 45.40625 46.390625 
L 45.40625 75.984375 
L 54.390625 75.984375 
L 54.390625 0 
L 45.40625 0 
L 45.40625 8.203125 
Q 42.578125 3.328125 38.25 0.953125 
Q 33.9375 -1.421875 27.875 -1.421875 
Q 17.96875 -1.421875 11.734375 6.484375 
Q 5.515625 14.40625 5.515625 27.296875 
Q 5.515625 40.1875 11.734375 48.09375 
Q 17.96875 56 27.875 56 
Q 33.9375 56 38.25 53.625 
Q 42.578125 51.265625 45.40625 46.390625 
z
M 14.796875 27.296875 
Q 14.796875 17.390625 18.875 11.75 
Q 22.953125 6.109375 30.078125 6.109375 
Q 37.203125 6.109375 41.296875 11.75 
Q 45.40625 17.390625 45.40625 27.296875 
Q 45.40625 37.203125 41.296875 42.84375 
Q 37.203125 48.484375 30.078125 48.484375 
Q 22.953125 48.484375 18.875 42.84375 
Q 14.796875 37.203125 14.796875 27.296875 
z
" id="DejaVuSans-64"/>
     <path d="M 32.171875 -5.078125 
Q 28.375 -14.84375 24.75 -17.8125 
Q 21.140625 -20.796875 15.09375 -20.796875 
L 7.90625 -20.796875 
L 7.90625 -13.28125 
L 13.1875 -13.28125 
Q 16.890625 -13.28125 18.9375 -11.515625 
Q 21 -9.765625 23.484375 -3.21875 
L 25.09375 0.875 
L 2.984375 54.6875 
L 12.5 54.6875 
L 29.59375 11.921875 
L 46.6875 54.6875 
L 56.203125 54.6875 
z
" id="DejaVuSans-79"/>
     <path d="M 34.28125 27.484375 
Q 23.390625 27.484375 19.1875 25 
Q 14.984375 22.515625 14.984375 16.5 
Q 14.984375 11.71875 18.140625 8.90625 
Q 21.296875 6.109375 26.703125 6.109375 
Q 34.1875 6.109375 38.703125 11.40625 
Q 43.21875 16.703125 43.21875 25.484375 
L 43.21875 27.484375 
z
M 52.203125 31.203125 
L 52.203125 0 
L 43.21875 0 
L 43.21875 8.296875 
Q 40.140625 3.328125 35.546875 0.953125 
Q 30.953125 -1.421875 24.3125 -1.421875 
Q 15.921875 -1.421875 10.953125 3.296875 
Q 6 8.015625 6 15.921875 
Q 6 25.140625 12.171875 29.828125 
Q 18.359375 34.515625 30.609375 34.515625 
L 43.21875 34.515625 
L 43.21875 35.40625 
Q 43.21875 41.609375 39.140625 45 
Q 35.0625 48.390625 27.6875 48.390625 
Q 23 48.390625 18.546875 47.265625 
Q 14.109375 46.140625 10.015625 43.890625 
L 10.015625 52.203125 
Q 14.9375 54.109375 19.578125 55.046875 
Q 24.21875 56 28.609375 56 
Q 40.484375 56 46.34375 49.84375 
Q 52.203125 43.703125 52.203125 31.203125 
z
" id="DejaVuSans-61"/>
     <path d="M 52 44.1875 
Q 55.375 50.25 60.0625 53.125 
Q 64.75 56 71.09375 56 
Q 79.640625 56 84.28125 50.015625 
Q 88.921875 44.046875 88.921875 33.015625 
L 88.921875 0 
L 79.890625 0 
L 79.890625 32.71875 
Q 79.890625 40.578125 77.09375 44.375 
Q 74.3125 48.1875 68.609375 48.1875 
Q 61.625 48.1875 57.5625 43.546875 
Q 53.515625 38.921875 53.515625 30.90625 
L 53.515625 0 
L 44.484375 0 
L 44.484375 32.71875 
Q 44.484375 40.625 41.703125 44.40625 
Q 38.921875 48.1875 33.109375 48.1875 
Q 26.21875 48.1875 22.15625 43.53125 
Q 18.109375 38.875 18.109375 30.90625 
L 18.109375 0 
L 9.078125 0 
L 9.078125 54.6875 
L 18.109375 54.6875 
L 18.109375 46.1875 
Q 21.1875 51.21875 25.484375 53.609375 
Q 29.78125 56 35.6875 56 
Q 41.65625 56 45.828125 52.96875 
Q 50 49.953125 52 44.1875 
z
" id="DejaVuSans-6d"/>
     <path d="M 9.421875 54.6875 
L 18.40625 54.6875 
L 18.40625 0 
L 9.421875 0 
z
M 9.421875 75.984375 
L 18.40625 75.984375 
L 18.40625 64.59375 
L 9.421875 64.59375 
z
" id="DejaVuSans-69"/>
     <path d="M 44.28125 53.078125 
L 44.28125 44.578125 
Q 40.484375 46.53125 36.375 47.5 
Q 32.28125 48.484375 27.875 48.484375 
Q 21.1875 48.484375 17.84375 46.4375 
Q 14.5 44.390625 14.5 40.28125 
Q 14.5 37.15625 16.890625 35.375 
Q 19.28125 33.59375 26.515625 31.984375 
L 29.59375 31.296875 
Q 39.15625 29.25 43.1875 25.515625 
Q 47.21875 21.78125 47.21875 15.09375 
Q 47.21875 7.46875 41.1875 3.015625 
Q 35.15625 -1.421875 24.609375 -1.421875 
Q 20.21875 -1.421875 15.453125 -0.5625 
Q 10.6875 0.296875 5.421875 2 
L 5.421875 11.28125 
Q 10.40625 8.6875 15.234375 7.390625 
Q 20.0625 6.109375 24.8125 6.109375 
Q 31.15625 6.109375 34.5625 8.28125 
Q 37.984375 10.453125 37.984375 14.40625 
Q 37.984375 18.0625 35.515625 20.015625 
Q 33.0625 21.96875 24.703125 23.78125 
L 21.578125 24.515625 
Q 13.234375 26.265625 9.515625 29.90625 
Q 5.8125 33.546875 5.8125 39.890625 
Q 5.8125 47.609375 11.28125 51.796875 
Q 16.75 56 26.8125 56 
Q 31.78125 56 36.171875 55.265625 
Q 40.578125 54.546875 44.28125 53.078125 
z
" id="DejaVuSans-73"/>
    </defs>
    <g transform="translate(161.3 63.12)scale(0.2 -0.2)">
     <use transform="translate(0 0.015625)" xlink:href="#Cmmi10-44"/>
     <use transform="translate(82.714844 -16.990625)scale(0.7)" xlink:href="#Cmmi10-72"/>
     <use transform="translate(138.232812 0.015625)" xlink:href="#Cmr10-3d"/>
     <use transform="translate(233.476953 0.015625)" xlink:href="#Cmr10-35"/>
     <use transform="translate(283.476953 0.015625)" xlink:href="#Cmmi10-65"/>
     <use transform="translate(347.519922 0.015625)" xlink:href="#Cmsy10-a1"/>
     <use transform="translate(442.764063 0.015625)" xlink:href="#Cmr10-30"/>
     <use transform="translate(492.764063 0.015625)" xlink:href="#Cmr10-31"/>
     <use transform="translate(542.764063 0.015625)" xlink:href="#Cmmi10-3b"/>
     <use transform="translate(588.008203 0.015625)" xlink:href="#Cmmi10-bf"/>
     <use transform="translate(649.267969 0.015625)" xlink:href="#Cmr10-3d"/>
     <use transform="translate(744.512109 0.015625)" xlink:href="#Cmr10-31"/>
     <use transform="translate(794.512109 0.015625)" xlink:href="#Cmmi10-65"/>
     <use transform="translate(858.555078 0.015625)" xlink:href="#Cmr10-2b"/>
     <use transform="translate(953.799219 0.015625)" xlink:href="#Cmr10-30"/>
     <use transform="translate(1003.799219 0.015625)" xlink:href="#Cmr10-33"/>
     <use transform="translate(1053.799219 0.015625)" xlink:href="#Cmmi10-3b"/>
     <use transform="translate(1099.043359 0.015625)" xlink:href="#Cmmi10-4e"/>
     <use transform="translate(1179.365625 -16.990625)scale(0.7)" xlink:href="#Cmmi10-63"/>
     <use transform="translate(1233.550586 0.015625)" xlink:href="#Cmr10-3d"/>
     <use transform="translate(1328.794727 0.015625)" xlink:href="#Cmr10-31"/>
     <use transform="translate(1378.794727 0.015625)" xlink:href="#Cmmi10-65"/>
     <use transform="translate(1442.837695 0.015625)" xlink:href="#Cmr10-2b"/>
     <use transform="translate(1538.081836 0.015625)" xlink:href="#Cmr10-30"/>
     <use transform="translate(1588.081836 0.015625)" xlink:href="#Cmr10-32"/>
     <use transform="translate(1638.081836 0.015625)" xlink:href="#DejaVuSans-20"/>
     <use transform="translate(1669.868945 0.015625)" xlink:href="#DejaVuSans-2014"/>
     <use transform="translate(1769.868945 0.015625)" xlink:href="#DejaVuSans-20"/>
     <use transform="translate(1801.656055 0.015625)" xlink:href="#DejaVuSans-63"/>
     <use transform="translate(1856.636523 0.015625)" xlink:href="#DejaVuSans-6f"/>
     <use transform="translate(1917.818164 0.015625)" xlink:href="#DejaVuSans-6e"/>
     <use transform="translate(1981.19707 0.015625)" xlink:href="#DejaVuSans-74"/>
     <use transform="translate(2020.406055 0.015625)" xlink:href="#DejaVuSans-72"/>
     <use transform="translate(2061.519336 0.015625)" xlink:href="#DejaVuSans-6f"/>
     <use transform="translate(2122.700977 0.015625)" xlink:href="#DejaVuSans-6c"/>
     <use transform="translate(2150.48418 0.015625)" xlink:href="#DejaVuSans-6c"/>
     <use transform="translate(2178.267383 0.015625)" xlink:href="#DejaVuSans-65"/>
     <use transform="translate(2239.79082 0.015625)" xlink:href="#DejaVuSans-64"/>
     <use transform="translate(2303.267383 0.015625)" xlink:href="#DejaVuSans-20"/>
     <use transform="translate(2335.054492 0.015625)" xlink:href="#DejaVuSans-64"/>
     <use transform="translate(2398.531055 0.015625)" xlink:href="#DejaVuSans-79"/>
     <use transform="translate(2457.710742 0.015625)" xlink:href="#DejaVuSans-6e"/>
     <use transform="translate(2521.089648 0.015625)" xlink:href="#DejaVuSans-61"/>
     <use transform="translate(2582.368945 0.015625)" xlink:href="#DejaVuSans-6d"/>
     <use transform="translate(2679.781055 0.015625)" xlink:href="#DejaVuSans-69"/>
     <use transform="translate(2707.564258 0.015625)" xlink:href="#DejaVuSans-63"/>
     <use transform="translate(2762.544727 0.015625)" xlink:href="#DejaVuSans-73"/>
    </g>
   </g>
   <g id="legend_1">
    <g id="patch_7">
     <path d="M 688.8 177.735 
L 769.2 177.735 
Q 771.6 177.735 771.6 175.335 
L 771.6 77.52 
Q 771.6 75.12 769.2 75.12 
L 688.8 75.12 
Q 686.4 75.12 686.4 77.52 
L 686.4 175.335 
Q 686.4 177.735 688.8 177.735 
z
" style="fill:#ffffff;opacity:0.8;stroke:#cccccc;stroke-linejoin:miter;"/>
    </g>
    <g id="line2d_18">
     <path d="M 691.2 89.52 
L 715.2 89.52 
" style="fill:none;stroke:#000000;stroke-dasharray:5.55,2.4;stroke-dashoffset:0;stroke-width:1.5;"/>
    </g>
    <g id="line2d_19"/>
    <g id="text_16">
     <!-- $\frac{I_1^2(h(s) | p^2)}{I_0^2(h(s) | p^2)}$ -->
     <defs>
      <path d="M 4.203125 0 
Q 3.21875 0 3.21875 1.3125 
Q 3.609375 3.515625 4.5 3.515625 
Q 10.40625 3.515625 12.5 3.90625 
Q 14.796875 4.4375 15.375 6.890625 
L 29.109375 61.8125 
Q 29.296875 62.796875 29.296875 63.09375 
Q 29.296875 63.71875 28.96875 63.984375 
Q 28.65625 64.265625 27.984375 64.40625 
Q 25.984375 64.796875 20.40625 64.796875 
Q 19.390625 64.796875 19.390625 66.109375 
Q 19.734375 67.390625 19.921875 67.84375 
Q 20.125 68.3125 21.09375 68.3125 
L 49.03125 68.3125 
Q 50 68.3125 50 67 
Q 49.953125 66.75 49.796875 66.15625 
Q 49.65625 65.578125 49.40625 65.1875 
Q 49.171875 64.796875 48.6875 64.796875 
Q 42.828125 64.796875 40.578125 64.40625 
Q 38.375 63.875 37.796875 61.375 
L 24.125 6.5 
Q 23.875 5.28125 23.875 5.171875 
Q 23.875 4.9375 23.953125 4.71875 
Q 24.03125 4.5 24.25 4.328125 
Q 24.46875 4.15625 24.6875 4.078125 
Q 24.90625 4 25.203125 3.90625 
Q 27.09375 3.515625 32.8125 3.515625 
Q 33.796875 3.515625 33.796875 2.203125 
Q 33.453125 0.78125 33.25 0.390625 
Q 33.0625 0 32.078125 0 
z
" id="Cmmi10-49"/>
      <path d="M 5.328125 1.8125 
Q 5.328125 2.390625 5.421875 2.6875 
L 19.921875 60.5 
Q 20.3125 62.203125 20.40625 63.1875 
Q 20.40625 64.796875 13.921875 64.796875 
Q 12.890625 64.796875 12.890625 66.109375 
Q 12.9375 66.359375 13.109375 66.984375 
Q 13.28125 67.625 13.546875 67.96875 
Q 13.8125 68.3125 14.3125 68.3125 
L 27.78125 69.390625 
L 28.078125 69.390625 
Q 28.078125 69.28125 28.421875 69.109375 
Q 28.765625 68.953125 28.8125 68.890625 
Q 29 68.40625 29 68.109375 
L 21.1875 36.921875 
Q 27.34375 44.1875 35.796875 44.1875 
Q 39.3125 44.1875 41.875 42.96875 
Q 44.4375 41.75 45.875 39.28125 
Q 47.3125 36.8125 47.3125 33.40625 
Q 47.3125 29.296875 45.484375 23.484375 
Q 43.65625 17.671875 40.921875 10.5 
Q 39.5 7.234375 39.5 4.5 
Q 39.5 1.515625 41.796875 1.515625 
Q 45.703125 1.515625 48.3125 5.6875 
Q 50.921875 9.859375 52 14.703125 
Q 52.203125 15.28125 52.78125 15.28125 
L 54 15.28125 
Q 54.390625 15.28125 54.640625 15.015625 
Q 54.890625 14.75 54.890625 14.40625 
Q 54.890625 14.3125 54.78125 14.109375 
Q 53.90625 10.5 52.171875 7 
Q 50.4375 3.515625 47.796875 1.1875 
Q 45.171875 -1.125 41.609375 -1.125 
Q 38.09375 -1.125 35.59375 1.296875 
Q 33.109375 3.71875 33.109375 7.171875 
Q 33.109375 9.03125 33.890625 11.078125 
Q 36.71875 18.609375 38.59375 24.515625 
Q 40.484375 30.421875 40.484375 34.90625 
Q 40.484375 37.796875 39.359375 39.703125 
Q 38.234375 41.609375 35.59375 41.609375 
Q 30.21875 41.609375 26.21875 38.3125 
Q 22.21875 35.015625 19.28125 29.59375 
L 12.5 2.296875 
Q 12.109375 0.78125 10.984375 -0.171875 
Q 9.859375 -1.125 8.40625 -1.125 
Q 7.125 -1.125 6.21875 -0.265625 
Q 5.328125 0.59375 5.328125 1.8125 
z
" id="Cmmi10-68"/>
      <path d="M 11.921875 -23.1875 
L 11.921875 73.1875 
Q 11.921875 73.96875 12.5 74.484375 
Q 13.09375 75 13.921875 75 
Q 14.65625 75 15.28125 74.484375 
Q 15.921875 73.96875 15.921875 73.1875 
L 15.921875 -23.1875 
Q 15.921875 -23.96875 15.28125 -24.484375 
Q 14.65625 -25 13.921875 -25 
Q 13.09375 -25 12.5 -24.484375 
Q 11.921875 -23.96875 11.921875 -23.1875 
z
" id="Cmsy10-6a"/>
     </defs>
     <g transform="translate(724.8 93.72)scale(0.12 -0.12)">
      <use transform="translate(0 55.576563)scale(0.7)" xlink:href="#Cmmi10-49"/>
      <use transform="translate(38.686211 82.361406)scale(0.49)" xlink:href="#Cmr10-32"/>
      <use transform="translate(30.727539 37.72)scale(0.49)" xlink:href="#Cmr10-31"/>
      <use transform="translate(67.650352 55.576563)scale(0.7)" xlink:href="#Cmr10-28"/>
      <use transform="translate(94.823203 55.576563)scale(0.7)" xlink:href="#Cmmi10-68"/>
      <use transform="translate(135.155234 55.576563)scale(0.7)" xlink:href="#Cmr10-28"/>
      <use transform="translate(162.328086 55.576563)scale(0.7)" xlink:href="#Cmmi10-73"/>
      <use transform="translate(195.072227 55.576563)scale(0.7)" xlink:href="#Cmr10-29"/>
      <use transform="translate(222.245078 55.576563)scale(0.7)" xlink:href="#Cmsy10-6a"/>
      <use transform="translate(241.624961 55.576563)scale(0.7)" xlink:href="#Cmmi10-70"/>
      <use transform="translate(281.242336 82.361406)scale(0.49)" xlink:href="#Cmr10-32"/>
      <use transform="translate(310.206477 55.576563)scale(0.7)" xlink:href="#Cmr10-29"/>
      <use transform="translate(0 -52.953438)scale(0.7)" xlink:href="#Cmmi10-49"/>
      <use transform="translate(38.686211 -26.168594)scale(0.49)" xlink:href="#Cmr10-32"/>
      <use transform="translate(30.727539 -70.81)scale(0.49)" xlink:href="#Cmr10-30"/>
      <use transform="translate(67.650352 -52.953438)scale(0.7)" xlink:href="#Cmr10-28"/>
      <use transform="translate(94.823203 -52.953438)scale(0.7)" xlink:href="#Cmmi10-68"/>
      <use transform="translate(135.155234 -52.953438)scale(0.7)" xlink:href="#Cmr10-28"/>
      <use transform="translate(162.328086 -52.953438)scale(0.7)" xlink:href="#Cmmi10-73"/>
      <use transform="translate(195.072227 -52.953438)scale(0.7)" xlink:href="#Cmr10-29"/>
      <use transform="translate(222.245078 -52.953438)scale(0.7)" xlink:href="#Cmsy10-6a"/>
      <use transform="translate(241.624961 -52.953438)scale(0.7)" xlink:href="#Cmmi10-70"/>
      <use transform="translate(281.242336 -26.168594)scale(0.49)" xlink:href="#Cmr10-32"/>
      <use transform="translate(310.206477 -52.953438)scale(0.7)" xlink:href="#Cmr10-29"/>
      <path d="M 0 12.72 
L 0 18.97 
L 337.379328 18.97 
L 337.379328 12.72 
L 0 12.72 
z
"/>
     </g>
    </g>
    <g id="LineCollection_5">
     <path d="M 703.2 119.398125 
L 703.2 107.398125 
" style="fill:none;stroke:#004cff;stroke-width:1.5;"/>
    </g>
    <g id="line2d_20">
     <path d="M 691.2 113.398125 
L 715.2 113.398125 
" style="fill:none;stroke:#004cff;stroke-linecap:square;stroke-width:1.5;"/>
    </g>
    <g id="line2d_21"/>
    <g id="text_17">
     <!-- $N=10$ -->
     <g transform="translate(724.8 117.598125)scale(0.12 -0.12)">
      <use transform="translate(0 0.6875)" xlink:href="#Cmmi10-4e"/>
      <use transform="translate(97.880859 0.6875)" xlink:href="#Cmr10-3d"/>
      <use transform="translate(193.125 0.6875)" xlink:href="#Cmr10-31"/>
      <use transform="translate(243.125 0.6875)" xlink:href="#Cmr10-30"/>
     </g>
    </g>
    <g id="LineCollection_6">
     <path d="M 703.2 137.011875 
L 703.2 125.011875 
" style="fill:none;stroke:#29ffce;stroke-width:1.5;"/>
    </g>
    <g id="line2d_22">
     <path d="M 691.2 131.011875 
L 715.2 131.011875 
" style="fill:none;stroke:#29ffce;stroke-linecap:square;stroke-width:1.5;"/>
    </g>
    <g id="line2d_23"/>
    <g id="text_18">
     <!-- $N=20$ -->
     <g transform="translate(724.8 135.211875)scale(0.12 -0.12)">
      <use transform="translate(0 0.6875)" xlink:href="#Cmmi10-4e"/>
      <use transform="translate(97.880859 0.6875)" xlink:href="#Cmr10-3d"/>
      <use transform="translate(193.125 0.6875)" xlink:href="#Cmr10-32"/>
      <use transform="translate(243.125 0.6875)" xlink:href="#Cmr10-30"/>
     </g>
    </g>
    <g id="LineCollection_7">
     <path d="M 703.2 154.625625 
L 703.2 142.625625 
" style="fill:none;stroke:#ceff29;stroke-width:1.5;"/>
    </g>
    <g id="line2d_24">
     <path d="M 691.2 148.625625 
L 715.2 148.625625 
" style="fill:none;stroke:#ceff29;stroke-linecap:square;stroke-width:1.5;"/>
    </g>
    <g id="line2d_25"/>
    <g id="text_19">
     <!-- $N=50$ -->
     <g transform="translate(724.8 152.825625)scale(0.12 -0.12)">
      <use transform="translate(0 0.6875)" xlink:href="#Cmmi10-4e"/>
      <use transform="translate(97.880859 0.6875)" xlink:href="#Cmr10-3d"/>
      <use transform="translate(193.125 0.6875)" xlink:href="#Cmr10-35"/>
      <use transform="translate(243.125 0.6875)" xlink:href="#Cmr10-30"/>
     </g>
    </g>
    <g id="LineCollection_8">
     <path d="M 703.2 172.239375 
L 703.2 160.239375 
" style="fill:none;stroke:#ff6800;stroke-width:1.5;"/>
    </g>
    <g id="line2d_26">
     <path d="M 691.2 166.239375 
L 715.2 166.239375 
" style="fill:none;stroke:#ff6800;stroke-linecap:square;stroke-width:1.5;"/>
    </g>
    <g id="line2d_27"/>
    <g id="text_20">
     <!-- $N=100$ -->
     <g transform="translate(724.8 170.439375)scale(0.12 -0.12)">
      <use transform="translate(0 0.6875)" xlink:href="#Cmmi10-4e"/>
      <use transform="translate(97.880859 0.6875)" xlink:href="#Cmr10-3d"/>
      <use transform="translate(193.125 0.6875)" xlink:href="#Cmr10-31"/>
      <use transform="translate(243.125 0.6875)" xlink:href="#Cmr10-30"/>
      <use transform="translate(293.125 0.6875)" xlink:href="#Cmr10-30"/>
     </g>
    </g>
   </g>
  </g>
 </g>
 <defs>
  <clipPath id="p970735c2b2">
   <rect height="434.88" width="669.6" x="108" y="69.12"/>
  </clipPath>
 </defs>
</svg>
