<?xml version="1.0" encoding="utf-8" standalone="no"?>
<!DOCTYPE svg PUBLIC "-//W3C//DTD SVG 1.1//EN"
  "http://www.w3.org/Graphics/SVG/1.1/DTD/svg11.dtd">
<!-- Created with matplotlib (http://matplotlib.org/) -->
<svg height="576pt" version="1.1" viewBox="0 0 864 576" width="864pt" xmlns="http://www.w3.org/2000/svg" xmlns:xlink="http://www.w3.org/1999/xlink">
 <defs>
  <style type="text/css">
*{stroke-linecap:butt;stroke-linejoin:round;stroke-miterlimit:100000;}
  </style>
 </defs>
 <g id="figure_1">
  <g id="patch_1">
   <path d="M 0 576 
L 864 576 
L 864 0 
L 0 0 
z
" style="fill:#ffffff;"/>
  </g>
  <g id="axes_1">
   <g id="patch_2">
    <path d="M 108 518.4 
L 777.6 518.4 
L 777.6 57.6 
L 108 57.6 
z
" style="fill:#ffffff;"/>
   </g>
   <g id="LineCollection_1">
    <path clip-path="url(#pd0e97e8ae3)" d="M 108 125.126535 
L 108 119.678698 
" style="fill:none;stroke:#0028ff;"/>
    <path clip-path="url(#pd0e97e8ae3)" d="M 174.96 150.105349 
L 174.96 143.790869 
" style="fill:none;stroke:#0028ff;"/>
    <path clip-path="url(#pd0e97e8ae3)" d="M 241.92 166.246805 
L 241.92 159.945994 
" style="fill:none;stroke:#0028ff;"/>
    <path clip-path="url(#pd0e97e8ae3)" d="M 308.88 202.404948 
L 308.88 195.029378 
" style="fill:none;stroke:#0028ff;"/>
    <path clip-path="url(#pd0e97e8ae3)" d="M 375.84 233.443893 
L 375.84 224.672365 
" style="fill:none;stroke:#0028ff;"/>
    <path clip-path="url(#pd0e97e8ae3)" d="M 442.8 283.780554 
L 442.8 275.269153 
" style="fill:none;stroke:#0028ff;"/>
    <path clip-path="url(#pd0e97e8ae3)" d="M 509.76 342.145497 
L 509.76 334.052745 
" style="fill:none;stroke:#0028ff;"/>
    <path clip-path="url(#pd0e97e8ae3)" d="M 576.72 386.733937 
L 576.72 381.767214 
" style="fill:none;stroke:#0028ff;"/>
    <path clip-path="url(#pd0e97e8ae3)" d="M 643.68 425.404102 
L 643.68 421.652526 
" style="fill:none;stroke:#0028ff;"/>
    <path clip-path="url(#pd0e97e8ae3)" d="M 710.64 449.808079 
L 710.64 446.545464 
" style="fill:none;stroke:#0028ff;"/>
    <path clip-path="url(#pd0e97e8ae3)" d="M 777.6 467.777442 
L 777.6 466.58326 
" style="fill:none;stroke:#0028ff;"/>
   </g>
   <g id="LineCollection_2">
    <path clip-path="url(#pd0e97e8ae3)" d="M 108 139.528467 
L 108 132.560763 
" style="fill:none;stroke:#00d4ff;"/>
    <path clip-path="url(#pd0e97e8ae3)" d="M 174.96 159.950286 
L 174.96 153.457028 
" style="fill:none;stroke:#00d4ff;"/>
    <path clip-path="url(#pd0e97e8ae3)" d="M 241.92 180.480769 
L 241.92 171.584852 
" style="fill:none;stroke:#00d4ff;"/>
    <path clip-path="url(#pd0e97e8ae3)" d="M 308.88 203.432872 
L 308.88 198.616051 
" style="fill:none;stroke:#00d4ff;"/>
    <path clip-path="url(#pd0e97e8ae3)" d="M 375.84 243.789126 
L 375.84 229.825774 
" style="fill:none;stroke:#00d4ff;"/>
    <path clip-path="url(#pd0e97e8ae3)" d="M 442.8 291.933184 
L 442.8 286.138856 
" style="fill:none;stroke:#00d4ff;"/>
    <path clip-path="url(#pd0e97e8ae3)" d="M 509.76 372.33597 
L 509.76 364.946564 
" style="fill:none;stroke:#00d4ff;"/>
    <path clip-path="url(#pd0e97e8ae3)" d="M 576.72 422.111743 
L 576.72 419.152573 
" style="fill:none;stroke:#00d4ff;"/>
    <path clip-path="url(#pd0e97e8ae3)" d="M 643.68 452.619291 
L 643.68 449.635219 
" style="fill:none;stroke:#00d4ff;"/>
    <path clip-path="url(#pd0e97e8ae3)" d="M 710.64 472.838427 
L 710.64 471.301854 
" style="fill:none;stroke:#00d4ff;"/>
    <path clip-path="url(#pd0e97e8ae3)" d="M 777.6 491.567747 
L 777.6 490.77564 
" style="fill:none;stroke:#00d4ff;"/>
   </g>
   <g id="LineCollection_3">
    <path clip-path="url(#pd0e97e8ae3)" d="M 108 146.947296 
L 108 139.013884 
" style="fill:none;stroke:#7dff7a;"/>
    <path clip-path="url(#pd0e97e8ae3)" d="M 174.96 161.419547 
L 174.96 154.754995 
" style="fill:none;stroke:#7dff7a;"/>
    <path clip-path="url(#pd0e97e8ae3)" d="M 241.92 182.283771 
L 241.92 172.726291 
" style="fill:none;stroke:#7dff7a;"/>
    <path clip-path="url(#pd0e97e8ae3)" d="M 308.88 206.529923 
L 308.88 199.202193 
" style="fill:none;stroke:#7dff7a;"/>
    <path clip-path="url(#pd0e97e8ae3)" d="M 375.84 246.281711 
L 375.84 240.642816 
" style="fill:none;stroke:#7dff7a;"/>
    <path clip-path="url(#pd0e97e8ae3)" d="M 442.8 291.565775 
L 442.8 279.191154 
" style="fill:none;stroke:#7dff7a;"/>
    <path clip-path="url(#pd0e97e8ae3)" d="M 509.76 376.701249 
L 509.76 367.864461 
" style="fill:none;stroke:#7dff7a;"/>
    <path clip-path="url(#pd0e97e8ae3)" d="M 576.72 438.256358 
L 576.72 435.633502 
" style="fill:none;stroke:#7dff7a;"/>
    <path clip-path="url(#pd0e97e8ae3)" d="M 643.68 461.540548 
L 643.68 459.993542 
" style="fill:none;stroke:#7dff7a;"/>
    <path clip-path="url(#pd0e97e8ae3)" d="M 710.64 483.016662 
L 710.64 481.655866 
" style="fill:none;stroke:#7dff7a;"/>
    <path clip-path="url(#pd0e97e8ae3)" d="M 777.6 499.899107 
L 777.6 498.973428 
" style="fill:none;stroke:#7dff7a;"/>
   </g>
   <g id="LineCollection_4">
    <path clip-path="url(#pd0e97e8ae3)" d="M 108 154.445229 
L 108 145.658344 
" style="fill:none;stroke:#ffe600;"/>
    <path clip-path="url(#pd0e97e8ae3)" d="M 174.96 174.170224 
L 174.96 159.965296 
" style="fill:none;stroke:#ffe600;"/>
    <path clip-path="url(#pd0e97e8ae3)" d="M 241.92 191.935214 
L 241.92 182.664309 
" style="fill:none;stroke:#ffe600;"/>
    <path clip-path="url(#pd0e97e8ae3)" d="M 308.88 210.960917 
L 308.88 202.719468 
" style="fill:none;stroke:#ffe600;"/>
    <path clip-path="url(#pd0e97e8ae3)" d="M 375.84 250.980993 
L 375.84 238.139626 
" style="fill:none;stroke:#ffe600;"/>
    <path clip-path="url(#pd0e97e8ae3)" d="M 442.8 297.08162 
L 442.8 279.912381 
" style="fill:none;stroke:#ffe600;"/>
    <path clip-path="url(#pd0e97e8ae3)" d="M 509.76 371.653223 
L 509.76 361.678433 
" style="fill:none;stroke:#ffe600;"/>
    <path clip-path="url(#pd0e97e8ae3)" d="M 576.72 443.473564 
L 576.72 440.938415 
" style="fill:none;stroke:#ffe600;"/>
    <path clip-path="url(#pd0e97e8ae3)" d="M 643.68 467.731753 
L 643.68 464.964152 
" style="fill:none;stroke:#ffe600;"/>
    <path clip-path="url(#pd0e97e8ae3)" d="M 710.64 487.576345 
L 710.64 486.217413 
" style="fill:none;stroke:#ffe600;"/>
    <path clip-path="url(#pd0e97e8ae3)" d="M 777.6 503.408296 
L 777.6 502.713665 
" style="fill:none;stroke:#ffe600;"/>
   </g>
   <g id="LineCollection_5">
    <path clip-path="url(#pd0e97e8ae3)" d="M 108 158.209988 
L 108 150.047292 
" style="fill:none;stroke:#ff4700;"/>
    <path clip-path="url(#pd0e97e8ae3)" d="M 174.96 171.416412 
L 174.96 164.25973 
" style="fill:none;stroke:#ff4700;"/>
    <path clip-path="url(#pd0e97e8ae3)" d="M 241.92 197.895901 
L 241.92 185.446878 
" style="fill:none;stroke:#ff4700;"/>
    <path clip-path="url(#pd0e97e8ae3)" d="M 308.88 223.051861 
L 308.88 209.200592 
" style="fill:none;stroke:#ff4700;"/>
    <path clip-path="url(#pd0e97e8ae3)" d="M 375.84 252.551199 
L 375.84 240.91073 
" style="fill:none;stroke:#ff4700;"/>
    <path clip-path="url(#pd0e97e8ae3)" d="M 442.8 288.849315 
L 442.8 279.832915 
" style="fill:none;stroke:#ff4700;"/>
    <path clip-path="url(#pd0e97e8ae3)" d="M 509.76 376.996611 
L 509.76 367.83927 
" style="fill:none;stroke:#ff4700;"/>
    <path clip-path="url(#pd0e97e8ae3)" d="M 576.72 446.329714 
L 576.72 443.396719 
" style="fill:none;stroke:#ff4700;"/>
    <path clip-path="url(#pd0e97e8ae3)" d="M 643.68 468.969804 
L 643.68 465.931006 
" style="fill:none;stroke:#ff4700;"/>
    <path clip-path="url(#pd0e97e8ae3)" d="M 710.64 488.292254 
L 710.64 486.665758 
" style="fill:none;stroke:#ff4700;"/>
    <path clip-path="url(#pd0e97e8ae3)" d="M 777.6 506.40888 
L 777.6 505.996935 
" style="fill:none;stroke:#ff4700;"/>
   </g>
   <g id="line2d_1">
    <defs>
     <path d="M 3 0 
L -3 -0 
" id="maa8a30b8da" style="stroke:#0028ff;stroke-width:0.5;"/>
    </defs>
    <g clip-path="url(#pd0e97e8ae3)">
     <use style="fill:#0028ff;stroke:#0028ff;stroke-width:0.5;" x="108.0" xlink:href="#maa8a30b8da" y="125.126534816"/>
     <use style="fill:#0028ff;stroke:#0028ff;stroke-width:0.5;" x="174.96" xlink:href="#maa8a30b8da" y="150.105349033"/>
     <use style="fill:#0028ff;stroke:#0028ff;stroke-width:0.5;" x="241.92" xlink:href="#maa8a30b8da" y="166.246804708"/>
     <use style="fill:#0028ff;stroke:#0028ff;stroke-width:0.5;" x="308.88" xlink:href="#maa8a30b8da" y="202.404948102"/>
     <use style="fill:#0028ff;stroke:#0028ff;stroke-width:0.5;" x="375.84" xlink:href="#maa8a30b8da" y="233.443893001"/>
     <use style="fill:#0028ff;stroke:#0028ff;stroke-width:0.5;" x="442.8" xlink:href="#maa8a30b8da" y="283.780554254"/>
     <use style="fill:#0028ff;stroke:#0028ff;stroke-width:0.5;" x="509.76" xlink:href="#maa8a30b8da" y="342.145497493"/>
     <use style="fill:#0028ff;stroke:#0028ff;stroke-width:0.5;" x="576.72" xlink:href="#maa8a30b8da" y="386.733937218"/>
     <use style="fill:#0028ff;stroke:#0028ff;stroke-width:0.5;" x="643.68" xlink:href="#maa8a30b8da" y="425.404102122"/>
     <use style="fill:#0028ff;stroke:#0028ff;stroke-width:0.5;" x="710.64" xlink:href="#maa8a30b8da" y="449.808079431"/>
     <use style="fill:#0028ff;stroke:#0028ff;stroke-width:0.5;" x="777.6" xlink:href="#maa8a30b8da" y="467.777441848"/>
    </g>
   </g>
   <g id="line2d_2">
    <g clip-path="url(#pd0e97e8ae3)">
     <use style="fill:#0028ff;stroke:#0028ff;stroke-width:0.5;" x="108.0" xlink:href="#maa8a30b8da" y="119.678698461"/>
     <use style="fill:#0028ff;stroke:#0028ff;stroke-width:0.5;" x="174.96" xlink:href="#maa8a30b8da" y="143.790869159"/>
     <use style="fill:#0028ff;stroke:#0028ff;stroke-width:0.5;" x="241.92" xlink:href="#maa8a30b8da" y="159.945994168"/>
     <use style="fill:#0028ff;stroke:#0028ff;stroke-width:0.5;" x="308.88" xlink:href="#maa8a30b8da" y="195.029378231"/>
     <use style="fill:#0028ff;stroke:#0028ff;stroke-width:0.5;" x="375.84" xlink:href="#maa8a30b8da" y="224.672364863"/>
     <use style="fill:#0028ff;stroke:#0028ff;stroke-width:0.5;" x="442.8" xlink:href="#maa8a30b8da" y="275.269152607"/>
     <use style="fill:#0028ff;stroke:#0028ff;stroke-width:0.5;" x="509.76" xlink:href="#maa8a30b8da" y="334.052744536"/>
     <use style="fill:#0028ff;stroke:#0028ff;stroke-width:0.5;" x="576.72" xlink:href="#maa8a30b8da" y="381.767213635"/>
     <use style="fill:#0028ff;stroke:#0028ff;stroke-width:0.5;" x="643.68" xlink:href="#maa8a30b8da" y="421.652526036"/>
     <use style="fill:#0028ff;stroke:#0028ff;stroke-width:0.5;" x="710.64" xlink:href="#maa8a30b8da" y="446.545463503"/>
     <use style="fill:#0028ff;stroke:#0028ff;stroke-width:0.5;" x="777.6" xlink:href="#maa8a30b8da" y="466.583259958"/>
    </g>
   </g>
   <g id="line2d_3">
    <path clip-path="url(#pd0e97e8ae3)" d="M 108 122.402617 
L 174.96 146.948109 
L 241.92 163.096399 
L 308.88 198.717163 
L 375.84 229.058129 
L 442.8 279.524853 
L 509.76 338.099121 
L 576.72 384.250575 
L 643.68 423.528314 
L 710.64 448.176771 
L 777.6 467.180351 
" style="fill:none;stroke:#0028ff;stroke-linecap:square;"/>
   </g>
   <g id="line2d_4">
    <defs>
     <path d="M 3 0 
L -3 -0 
" id="m8ace41f083" style="stroke:#00d4ff;stroke-width:0.5;"/>
    </defs>
    <g clip-path="url(#pd0e97e8ae3)">
     <use style="fill:#00d4ff;stroke:#00d4ff;stroke-width:0.5;" x="108.0" xlink:href="#m8ace41f083" y="139.528466527"/>
     <use style="fill:#00d4ff;stroke:#00d4ff;stroke-width:0.5;" x="174.96" xlink:href="#m8ace41f083" y="159.950286156"/>
     <use style="fill:#00d4ff;stroke:#00d4ff;stroke-width:0.5;" x="241.92" xlink:href="#m8ace41f083" y="180.480769458"/>
     <use style="fill:#00d4ff;stroke:#00d4ff;stroke-width:0.5;" x="308.88" xlink:href="#m8ace41f083" y="203.432871815"/>
     <use style="fill:#00d4ff;stroke:#00d4ff;stroke-width:0.5;" x="375.84" xlink:href="#m8ace41f083" y="243.789126045"/>
     <use style="fill:#00d4ff;stroke:#00d4ff;stroke-width:0.5;" x="442.8" xlink:href="#m8ace41f083" y="291.933184397"/>
     <use style="fill:#00d4ff;stroke:#00d4ff;stroke-width:0.5;" x="509.76" xlink:href="#m8ace41f083" y="372.3359701"/>
     <use style="fill:#00d4ff;stroke:#00d4ff;stroke-width:0.5;" x="576.72" xlink:href="#m8ace41f083" y="422.111742776"/>
     <use style="fill:#00d4ff;stroke:#00d4ff;stroke-width:0.5;" x="643.68" xlink:href="#m8ace41f083" y="452.619290927"/>
     <use style="fill:#00d4ff;stroke:#00d4ff;stroke-width:0.5;" x="710.64" xlink:href="#m8ace41f083" y="472.83842674"/>
     <use style="fill:#00d4ff;stroke:#00d4ff;stroke-width:0.5;" x="777.6" xlink:href="#m8ace41f083" y="491.56774689"/>
    </g>
   </g>
   <g id="line2d_5">
    <g clip-path="url(#pd0e97e8ae3)">
     <use style="fill:#00d4ff;stroke:#00d4ff;stroke-width:0.5;" x="108.0" xlink:href="#m8ace41f083" y="132.560762601"/>
     <use style="fill:#00d4ff;stroke:#00d4ff;stroke-width:0.5;" x="174.96" xlink:href="#m8ace41f083" y="153.457027612"/>
     <use style="fill:#00d4ff;stroke:#00d4ff;stroke-width:0.5;" x="241.92" xlink:href="#m8ace41f083" y="171.584851813"/>
     <use style="fill:#00d4ff;stroke:#00d4ff;stroke-width:0.5;" x="308.88" xlink:href="#m8ace41f083" y="198.616051268"/>
     <use style="fill:#00d4ff;stroke:#00d4ff;stroke-width:0.5;" x="375.84" xlink:href="#m8ace41f083" y="229.825774322"/>
     <use style="fill:#00d4ff;stroke:#00d4ff;stroke-width:0.5;" x="442.8" xlink:href="#m8ace41f083" y="286.138856346"/>
     <use style="fill:#00d4ff;stroke:#00d4ff;stroke-width:0.5;" x="509.76" xlink:href="#m8ace41f083" y="364.946563928"/>
     <use style="fill:#00d4ff;stroke:#00d4ff;stroke-width:0.5;" x="576.72" xlink:href="#m8ace41f083" y="419.152572833"/>
     <use style="fill:#00d4ff;stroke:#00d4ff;stroke-width:0.5;" x="643.68" xlink:href="#m8ace41f083" y="449.635218849"/>
     <use style="fill:#00d4ff;stroke:#00d4ff;stroke-width:0.5;" x="710.64" xlink:href="#m8ace41f083" y="471.301853942"/>
     <use style="fill:#00d4ff;stroke:#00d4ff;stroke-width:0.5;" x="777.6" xlink:href="#m8ace41f083" y="490.775639829"/>
    </g>
   </g>
   <g id="line2d_6">
    <path clip-path="url(#pd0e97e8ae3)" d="M 108 136.044615 
L 174.96 156.703657 
L 241.92 176.032811 
L 308.88 201.024462 
L 375.84 236.80745 
L 442.8 289.03602 
L 509.76 368.641267 
L 576.72 420.632158 
L 643.68 451.127255 
L 710.64 472.07014 
L 777.6 491.171693 
" style="fill:none;stroke:#00d4ff;stroke-linecap:square;"/>
   </g>
   <g id="line2d_7">
    <defs>
     <path d="M 3 0 
L -3 -0 
" id="m4a946e8509" style="stroke:#7dff7a;stroke-width:0.5;"/>
    </defs>
    <g clip-path="url(#pd0e97e8ae3)">
     <use style="fill:#7dff7a;stroke:#7dff7a;stroke-width:0.5;" x="108.0" xlink:href="#m4a946e8509" y="146.947295905"/>
     <use style="fill:#7dff7a;stroke:#7dff7a;stroke-width:0.5;" x="174.96" xlink:href="#m4a946e8509" y="161.419547057"/>
     <use style="fill:#7dff7a;stroke:#7dff7a;stroke-width:0.5;" x="241.92" xlink:href="#m4a946e8509" y="182.283771266"/>
     <use style="fill:#7dff7a;stroke:#7dff7a;stroke-width:0.5;" x="308.88" xlink:href="#m4a946e8509" y="206.529922941"/>
     <use style="fill:#7dff7a;stroke:#7dff7a;stroke-width:0.5;" x="375.84" xlink:href="#m4a946e8509" y="246.281710556"/>
     <use style="fill:#7dff7a;stroke:#7dff7a;stroke-width:0.5;" x="442.8" xlink:href="#m4a946e8509" y="291.565775416"/>
     <use style="fill:#7dff7a;stroke:#7dff7a;stroke-width:0.5;" x="509.76" xlink:href="#m4a946e8509" y="376.701248942"/>
     <use style="fill:#7dff7a;stroke:#7dff7a;stroke-width:0.5;" x="576.72" xlink:href="#m4a946e8509" y="438.256357738"/>
     <use style="fill:#7dff7a;stroke:#7dff7a;stroke-width:0.5;" x="643.68" xlink:href="#m4a946e8509" y="461.540547527"/>
     <use style="fill:#7dff7a;stroke:#7dff7a;stroke-width:0.5;" x="710.64" xlink:href="#m4a946e8509" y="483.016662193"/>
     <use style="fill:#7dff7a;stroke:#7dff7a;stroke-width:0.5;" x="777.6" xlink:href="#m4a946e8509" y="499.899106707"/>
    </g>
   </g>
   <g id="line2d_8">
    <g clip-path="url(#pd0e97e8ae3)">
     <use style="fill:#7dff7a;stroke:#7dff7a;stroke-width:0.5;" x="108.0" xlink:href="#m4a946e8509" y="139.013884041"/>
     <use style="fill:#7dff7a;stroke:#7dff7a;stroke-width:0.5;" x="174.96" xlink:href="#m4a946e8509" y="154.754995419"/>
     <use style="fill:#7dff7a;stroke:#7dff7a;stroke-width:0.5;" x="241.92" xlink:href="#m4a946e8509" y="172.726290988"/>
     <use style="fill:#7dff7a;stroke:#7dff7a;stroke-width:0.5;" x="308.88" xlink:href="#m4a946e8509" y="199.202192824"/>
     <use style="fill:#7dff7a;stroke:#7dff7a;stroke-width:0.5;" x="375.84" xlink:href="#m4a946e8509" y="240.642815633"/>
     <use style="fill:#7dff7a;stroke:#7dff7a;stroke-width:0.5;" x="442.8" xlink:href="#m4a946e8509" y="279.191154273"/>
     <use style="fill:#7dff7a;stroke:#7dff7a;stroke-width:0.5;" x="509.76" xlink:href="#m4a946e8509" y="367.864460687"/>
     <use style="fill:#7dff7a;stroke:#7dff7a;stroke-width:0.5;" x="576.72" xlink:href="#m4a946e8509" y="435.633502128"/>
     <use style="fill:#7dff7a;stroke:#7dff7a;stroke-width:0.5;" x="643.68" xlink:href="#m4a946e8509" y="459.993542295"/>
     <use style="fill:#7dff7a;stroke:#7dff7a;stroke-width:0.5;" x="710.64" xlink:href="#m4a946e8509" y="481.655865838"/>
     <use style="fill:#7dff7a;stroke:#7dff7a;stroke-width:0.5;" x="777.6" xlink:href="#m4a946e8509" y="498.973428497"/>
    </g>
   </g>
   <g id="line2d_9">
    <path clip-path="url(#pd0e97e8ae3)" d="M 108 142.98059 
L 174.96 158.087271 
L 241.92 177.505031 
L 308.88 202.866058 
L 375.84 243.462263 
L 442.8 285.378465 
L 509.76 372.282855 
L 576.72 436.94493 
L 643.68 460.767045 
L 710.64 482.336264 
L 777.6 499.436268 
" style="fill:none;stroke:#7dff7a;stroke-linecap:square;"/>
   </g>
   <g id="line2d_10">
    <defs>
     <path d="M 3 0 
L -3 -0 
" id="m01e7b38517" style="stroke:#ffe600;stroke-width:0.5;"/>
    </defs>
    <g clip-path="url(#pd0e97e8ae3)">
     <use style="fill:#ffe600;stroke:#ffe600;stroke-width:0.5;" x="108.0" xlink:href="#m01e7b38517" y="154.445228674"/>
     <use style="fill:#ffe600;stroke:#ffe600;stroke-width:0.5;" x="174.96" xlink:href="#m01e7b38517" y="174.170224112"/>
     <use style="fill:#ffe600;stroke:#ffe600;stroke-width:0.5;" x="241.92" xlink:href="#m01e7b38517" y="191.935213718"/>
     <use style="fill:#ffe600;stroke:#ffe600;stroke-width:0.5;" x="308.88" xlink:href="#m01e7b38517" y="210.960917319"/>
     <use style="fill:#ffe600;stroke:#ffe600;stroke-width:0.5;" x="375.84" xlink:href="#m01e7b38517" y="250.980992713"/>
     <use style="fill:#ffe600;stroke:#ffe600;stroke-width:0.5;" x="442.8" xlink:href="#m01e7b38517" y="297.081619608"/>
     <use style="fill:#ffe600;stroke:#ffe600;stroke-width:0.5;" x="509.76" xlink:href="#m01e7b38517" y="371.653222536"/>
     <use style="fill:#ffe600;stroke:#ffe600;stroke-width:0.5;" x="576.72" xlink:href="#m01e7b38517" y="443.473563735"/>
     <use style="fill:#ffe600;stroke:#ffe600;stroke-width:0.5;" x="643.68" xlink:href="#m01e7b38517" y="467.731753359"/>
     <use style="fill:#ffe600;stroke:#ffe600;stroke-width:0.5;" x="710.64" xlink:href="#m01e7b38517" y="487.576345232"/>
     <use style="fill:#ffe600;stroke:#ffe600;stroke-width:0.5;" x="777.6" xlink:href="#m01e7b38517" y="503.408296362"/>
    </g>
   </g>
   <g id="line2d_11">
    <g clip-path="url(#pd0e97e8ae3)">
     <use style="fill:#ffe600;stroke:#ffe600;stroke-width:0.5;" x="108.0" xlink:href="#m01e7b38517" y="145.65834407"/>
     <use style="fill:#ffe600;stroke:#ffe600;stroke-width:0.5;" x="174.96" xlink:href="#m01e7b38517" y="159.965296232"/>
     <use style="fill:#ffe600;stroke:#ffe600;stroke-width:0.5;" x="241.92" xlink:href="#m01e7b38517" y="182.664309027"/>
     <use style="fill:#ffe600;stroke:#ffe600;stroke-width:0.5;" x="308.88" xlink:href="#m01e7b38517" y="202.719467752"/>
     <use style="fill:#ffe600;stroke:#ffe600;stroke-width:0.5;" x="375.84" xlink:href="#m01e7b38517" y="238.139626254"/>
     <use style="fill:#ffe600;stroke:#ffe600;stroke-width:0.5;" x="442.8" xlink:href="#m01e7b38517" y="279.912380524"/>
     <use style="fill:#ffe600;stroke:#ffe600;stroke-width:0.5;" x="509.76" xlink:href="#m01e7b38517" y="361.678433206"/>
     <use style="fill:#ffe600;stroke:#ffe600;stroke-width:0.5;" x="576.72" xlink:href="#m01e7b38517" y="440.938415233"/>
     <use style="fill:#ffe600;stroke:#ffe600;stroke-width:0.5;" x="643.68" xlink:href="#m01e7b38517" y="464.964151527"/>
     <use style="fill:#ffe600;stroke:#ffe600;stroke-width:0.5;" x="710.64" xlink:href="#m01e7b38517" y="486.217413429"/>
     <use style="fill:#ffe600;stroke:#ffe600;stroke-width:0.5;" x="777.6" xlink:href="#m01e7b38517" y="502.713664784"/>
    </g>
   </g>
   <g id="line2d_12">
    <path clip-path="url(#pd0e97e8ae3)" d="M 108 150.051786 
L 174.96 167.06776 
L 241.92 187.299761 
L 308.88 206.840193 
L 375.84 244.560309 
L 442.8 288.497 
L 509.76 366.665828 
L 576.72 442.205989 
L 643.68 466.347952 
L 710.64 486.896879 
L 777.6 503.060981 
" style="fill:none;stroke:#ffe600;stroke-linecap:square;"/>
   </g>
   <g id="line2d_13">
    <defs>
     <path d="M 3 0 
L -3 -0 
" id="m05e2fb757d" style="stroke:#ff4700;stroke-width:0.5;"/>
    </defs>
    <g clip-path="url(#pd0e97e8ae3)">
     <use style="fill:#ff4700;stroke:#ff4700;stroke-width:0.5;" x="108.0" xlink:href="#m05e2fb757d" y="158.209987786"/>
     <use style="fill:#ff4700;stroke:#ff4700;stroke-width:0.5;" x="174.96" xlink:href="#m05e2fb757d" y="171.41641208"/>
     <use style="fill:#ff4700;stroke:#ff4700;stroke-width:0.5;" x="241.92" xlink:href="#m05e2fb757d" y="197.895901487"/>
     <use style="fill:#ff4700;stroke:#ff4700;stroke-width:0.5;" x="308.88" xlink:href="#m05e2fb757d" y="223.051861488"/>
     <use style="fill:#ff4700;stroke:#ff4700;stroke-width:0.5;" x="375.84" xlink:href="#m05e2fb757d" y="252.551198911"/>
     <use style="fill:#ff4700;stroke:#ff4700;stroke-width:0.5;" x="442.8" xlink:href="#m05e2fb757d" y="288.849315078"/>
     <use style="fill:#ff4700;stroke:#ff4700;stroke-width:0.5;" x="509.76" xlink:href="#m05e2fb757d" y="376.996611259"/>
     <use style="fill:#ff4700;stroke:#ff4700;stroke-width:0.5;" x="576.72" xlink:href="#m05e2fb757d" y="446.329713825"/>
     <use style="fill:#ff4700;stroke:#ff4700;stroke-width:0.5;" x="643.68" xlink:href="#m05e2fb757d" y="468.969804393"/>
     <use style="fill:#ff4700;stroke:#ff4700;stroke-width:0.5;" x="710.64" xlink:href="#m05e2fb757d" y="488.292254156"/>
     <use style="fill:#ff4700;stroke:#ff4700;stroke-width:0.5;" x="777.6" xlink:href="#m05e2fb757d" y="506.40887958"/>
    </g>
   </g>
   <g id="line2d_14">
    <g clip-path="url(#pd0e97e8ae3)">
     <use style="fill:#ff4700;stroke:#ff4700;stroke-width:0.5;" x="108.0" xlink:href="#m05e2fb757d" y="150.047292192"/>
     <use style="fill:#ff4700;stroke:#ff4700;stroke-width:0.5;" x="174.96" xlink:href="#m05e2fb757d" y="164.259730412"/>
     <use style="fill:#ff4700;stroke:#ff4700;stroke-width:0.5;" x="241.92" xlink:href="#m05e2fb757d" y="185.446877845"/>
     <use style="fill:#ff4700;stroke:#ff4700;stroke-width:0.5;" x="308.88" xlink:href="#m05e2fb757d" y="209.200591767"/>
     <use style="fill:#ff4700;stroke:#ff4700;stroke-width:0.5;" x="375.84" xlink:href="#m05e2fb757d" y="240.910729969"/>
     <use style="fill:#ff4700;stroke:#ff4700;stroke-width:0.5;" x="442.8" xlink:href="#m05e2fb757d" y="279.832915131"/>
     <use style="fill:#ff4700;stroke:#ff4700;stroke-width:0.5;" x="509.76" xlink:href="#m05e2fb757d" y="367.839270349"/>
     <use style="fill:#ff4700;stroke:#ff4700;stroke-width:0.5;" x="576.72" xlink:href="#m05e2fb757d" y="443.396719029"/>
     <use style="fill:#ff4700;stroke:#ff4700;stroke-width:0.5;" x="643.68" xlink:href="#m05e2fb757d" y="465.931005835"/>
     <use style="fill:#ff4700;stroke:#ff4700;stroke-width:0.5;" x="710.64" xlink:href="#m05e2fb757d" y="486.665757987"/>
     <use style="fill:#ff4700;stroke:#ff4700;stroke-width:0.5;" x="777.6" xlink:href="#m05e2fb757d" y="505.996934575"/>
    </g>
   </g>
   <g id="line2d_15">
    <path clip-path="url(#pd0e97e8ae3)" d="M 108 154.12864 
L 174.96 167.838071 
L 241.92 191.67139 
L 308.88 216.126227 
L 375.84 246.730964 
L 442.8 284.341115 
L 509.76 372.417941 
L 576.72 444.863216 
L 643.68 467.450405 
L 710.64 487.479006 
L 777.6 506.202907 
" style="fill:none;stroke:#ff4700;stroke-linecap:square;"/>
   </g>
   <g id="patch_3">
    <path d="M 108 57.6 
L 777.6 57.6 
" style="fill:none;stroke:#000000;stroke-linecap:square;stroke-linejoin:miter;"/>
   </g>
   <g id="patch_4">
    <path d="M 777.6 518.4 
L 777.6 57.6 
" style="fill:none;stroke:#000000;stroke-linecap:square;stroke-linejoin:miter;"/>
   </g>
   <g id="patch_5">
    <path d="M 108 518.4 
L 108 57.6 
" style="fill:none;stroke:#000000;stroke-linecap:square;stroke-linejoin:miter;"/>
   </g>
   <g id="patch_6">
    <path d="M 108 518.4 
L 777.6 518.4 
" style="fill:none;stroke:#000000;stroke-linecap:square;stroke-linejoin:miter;"/>
   </g>
   <g id="matplotlib.axis_1">
    <g id="xtick_1">
     <g id="line2d_16">
      <defs>
       <path d="M 0 0 
L 0 -4 
" id="m49a9b9fc45" style="stroke:#000000;stroke-width:0.5;"/>
      </defs>
      <g>
       <use style="stroke:#000000;stroke-width:0.5;" x="108.0" xlink:href="#m49a9b9fc45" y="518.4"/>
      </g>
     </g>
     <g id="line2d_17">
      <defs>
       <path d="M 0 0 
L 0 4 
" id="m1ce8352ae5" style="stroke:#000000;stroke-width:0.5;"/>
      </defs>
      <g>
       <use style="stroke:#000000;stroke-width:0.5;" x="108.0" xlink:href="#m1ce8352ae5" y="57.6"/>
      </g>
     </g>
     <g id="text_1">
      <!-- −0.5 -->
      <defs>
       <path d="M 31.78125 66.40625 
Q 24.171875 66.40625 20.328125 58.90625 
Q 16.5 51.421875 16.5 36.375 
Q 16.5 21.390625 20.328125 13.890625 
Q 24.171875 6.390625 31.78125 6.390625 
Q 39.453125 6.390625 43.28125 13.890625 
Q 47.125 21.390625 47.125 36.375 
Q 47.125 51.421875 43.28125 58.90625 
Q 39.453125 66.40625 31.78125 66.40625 
M 31.78125 74.21875 
Q 44.046875 74.21875 50.515625 64.515625 
Q 56.984375 54.828125 56.984375 36.375 
Q 56.984375 17.96875 50.515625 8.265625 
Q 44.046875 -1.421875 31.78125 -1.421875 
Q 19.53125 -1.421875 13.0625 8.265625 
Q 6.59375 17.96875 6.59375 36.375 
Q 6.59375 54.828125 13.0625 64.515625 
Q 19.53125 74.21875 31.78125 74.21875 
" id="BitstreamVeraSans-Roman-30"/>
       <path d="M 10.6875 12.40625 
L 21 12.40625 
L 21 0 
L 10.6875 0 
z
" id="BitstreamVeraSans-Roman-2e"/>
       <path d="M 10.796875 72.90625 
L 49.515625 72.90625 
L 49.515625 64.59375 
L 19.828125 64.59375 
L 19.828125 46.734375 
Q 21.96875 47.46875 24.109375 47.828125 
Q 26.265625 48.1875 28.421875 48.1875 
Q 40.625 48.1875 47.75 41.5 
Q 54.890625 34.8125 54.890625 23.390625 
Q 54.890625 11.625 47.5625 5.09375 
Q 40.234375 -1.421875 26.90625 -1.421875 
Q 22.3125 -1.421875 17.546875 -0.640625 
Q 12.796875 0.140625 7.71875 1.703125 
L 7.71875 11.625 
Q 12.109375 9.234375 16.796875 8.0625 
Q 21.484375 6.890625 26.703125 6.890625 
Q 35.15625 6.890625 40.078125 11.328125 
Q 45.015625 15.765625 45.015625 23.390625 
Q 45.015625 31 40.078125 35.4375 
Q 35.15625 39.890625 26.703125 39.890625 
Q 22.75 39.890625 18.8125 39.015625 
Q 14.890625 38.140625 10.796875 36.28125 
z
" id="BitstreamVeraSans-Roman-35"/>
       <path d="M 10.59375 35.5 
L 73.1875 35.5 
L 73.1875 27.203125 
L 10.59375 27.203125 
z
" id="BitstreamVeraSans-Roman-2212"/>
      </defs>
      <g transform="translate(83.7171875 537.596875)scale(0.2 -0.2)">
       <use xlink:href="#BitstreamVeraSans-Roman-2212"/>
       <use x="83.7890625" xlink:href="#BitstreamVeraSans-Roman-30"/>
       <use x="147.412109375" xlink:href="#BitstreamVeraSans-Roman-2e"/>
       <use x="179.19921875" xlink:href="#BitstreamVeraSans-Roman-35"/>
      </g>
     </g>
    </g>
    <g id="xtick_2">
     <g id="line2d_18">
      <g>
       <use style="stroke:#000000;stroke-width:0.5;" x="241.92" xlink:href="#m49a9b9fc45" y="518.4"/>
      </g>
     </g>
     <g id="line2d_19">
      <g>
       <use style="stroke:#000000;stroke-width:0.5;" x="241.92" xlink:href="#m1ce8352ae5" y="57.6"/>
      </g>
     </g>
     <g id="text_2">
      <!-- −0.4 -->
      <defs>
       <path d="M 37.796875 64.3125 
L 12.890625 25.390625 
L 37.796875 25.390625 
z
M 35.203125 72.90625 
L 47.609375 72.90625 
L 47.609375 25.390625 
L 58.015625 25.390625 
L 58.015625 17.1875 
L 47.609375 17.1875 
L 47.609375 0 
L 37.796875 0 
L 37.796875 17.1875 
L 4.890625 17.1875 
L 4.890625 26.703125 
z
" id="BitstreamVeraSans-Roman-34"/>
      </defs>
      <g transform="translate(217.6371875 537.596875)scale(0.2 -0.2)">
       <use xlink:href="#BitstreamVeraSans-Roman-2212"/>
       <use x="83.7890625" xlink:href="#BitstreamVeraSans-Roman-30"/>
       <use x="147.412109375" xlink:href="#BitstreamVeraSans-Roman-2e"/>
       <use x="179.19921875" xlink:href="#BitstreamVeraSans-Roman-34"/>
      </g>
     </g>
    </g>
    <g id="xtick_3">
     <g id="line2d_20">
      <g>
       <use style="stroke:#000000;stroke-width:0.5;" x="375.84" xlink:href="#m49a9b9fc45" y="518.4"/>
      </g>
     </g>
     <g id="line2d_21">
      <g>
       <use style="stroke:#000000;stroke-width:0.5;" x="375.84" xlink:href="#m1ce8352ae5" y="57.6"/>
      </g>
     </g>
     <g id="text_3">
      <!-- −0.3 -->
      <defs>
       <path d="M 40.578125 39.3125 
Q 47.65625 37.796875 51.625 33 
Q 55.609375 28.21875 55.609375 21.1875 
Q 55.609375 10.40625 48.1875 4.484375 
Q 40.765625 -1.421875 27.09375 -1.421875 
Q 22.515625 -1.421875 17.65625 -0.515625 
Q 12.796875 0.390625 7.625 2.203125 
L 7.625 11.71875 
Q 11.71875 9.328125 16.59375 8.109375 
Q 21.484375 6.890625 26.8125 6.890625 
Q 36.078125 6.890625 40.9375 10.546875 
Q 45.796875 14.203125 45.796875 21.1875 
Q 45.796875 27.640625 41.28125 31.265625 
Q 36.765625 34.90625 28.71875 34.90625 
L 20.21875 34.90625 
L 20.21875 43.015625 
L 29.109375 43.015625 
Q 36.375 43.015625 40.234375 45.921875 
Q 44.09375 48.828125 44.09375 54.296875 
Q 44.09375 59.90625 40.109375 62.90625 
Q 36.140625 65.921875 28.71875 65.921875 
Q 24.65625 65.921875 20.015625 65.03125 
Q 15.375 64.15625 9.8125 62.3125 
L 9.8125 71.09375 
Q 15.4375 72.65625 20.34375 73.4375 
Q 25.25 74.21875 29.59375 74.21875 
Q 40.828125 74.21875 47.359375 69.109375 
Q 53.90625 64.015625 53.90625 55.328125 
Q 53.90625 49.265625 50.4375 45.09375 
Q 46.96875 40.921875 40.578125 39.3125 
" id="BitstreamVeraSans-Roman-33"/>
      </defs>
      <g transform="translate(351.5571875 537.596875)scale(0.2 -0.2)">
       <use xlink:href="#BitstreamVeraSans-Roman-2212"/>
       <use x="83.7890625" xlink:href="#BitstreamVeraSans-Roman-30"/>
       <use x="147.412109375" xlink:href="#BitstreamVeraSans-Roman-2e"/>
       <use x="179.19921875" xlink:href="#BitstreamVeraSans-Roman-33"/>
      </g>
     </g>
    </g>
    <g id="xtick_4">
     <g id="line2d_22">
      <g>
       <use style="stroke:#000000;stroke-width:0.5;" x="509.76" xlink:href="#m49a9b9fc45" y="518.4"/>
      </g>
     </g>
     <g id="line2d_23">
      <g>
       <use style="stroke:#000000;stroke-width:0.5;" x="509.76" xlink:href="#m1ce8352ae5" y="57.6"/>
      </g>
     </g>
     <g id="text_4">
      <!-- −0.2 -->
      <defs>
       <path d="M 19.1875 8.296875 
L 53.609375 8.296875 
L 53.609375 0 
L 7.328125 0 
L 7.328125 8.296875 
Q 12.9375 14.109375 22.625 23.890625 
Q 32.328125 33.6875 34.8125 36.53125 
Q 39.546875 41.84375 41.421875 45.53125 
Q 43.3125 49.21875 43.3125 52.78125 
Q 43.3125 58.59375 39.234375 62.25 
Q 35.15625 65.921875 28.609375 65.921875 
Q 23.96875 65.921875 18.8125 64.3125 
Q 13.671875 62.703125 7.8125 59.421875 
L 7.8125 69.390625 
Q 13.765625 71.78125 18.9375 73 
Q 24.125 74.21875 28.421875 74.21875 
Q 39.75 74.21875 46.484375 68.546875 
Q 53.21875 62.890625 53.21875 53.421875 
Q 53.21875 48.921875 51.53125 44.890625 
Q 49.859375 40.875 45.40625 35.40625 
Q 44.1875 33.984375 37.640625 27.21875 
Q 31.109375 20.453125 19.1875 8.296875 
" id="BitstreamVeraSans-Roman-32"/>
      </defs>
      <g transform="translate(485.4771875 537.596875)scale(0.2 -0.2)">
       <use xlink:href="#BitstreamVeraSans-Roman-2212"/>
       <use x="83.7890625" xlink:href="#BitstreamVeraSans-Roman-30"/>
       <use x="147.412109375" xlink:href="#BitstreamVeraSans-Roman-2e"/>
       <use x="179.19921875" xlink:href="#BitstreamVeraSans-Roman-32"/>
      </g>
     </g>
    </g>
    <g id="xtick_5">
     <g id="line2d_24">
      <g>
       <use style="stroke:#000000;stroke-width:0.5;" x="643.68" xlink:href="#m49a9b9fc45" y="518.4"/>
      </g>
     </g>
     <g id="line2d_25">
      <g>
       <use style="stroke:#000000;stroke-width:0.5;" x="643.68" xlink:href="#m1ce8352ae5" y="57.6"/>
      </g>
     </g>
     <g id="text_5">
      <!-- −0.1 -->
      <defs>
       <path d="M 12.40625 8.296875 
L 28.515625 8.296875 
L 28.515625 63.921875 
L 10.984375 60.40625 
L 10.984375 69.390625 
L 28.421875 72.90625 
L 38.28125 72.90625 
L 38.28125 8.296875 
L 54.390625 8.296875 
L 54.390625 0 
L 12.40625 0 
z
" id="BitstreamVeraSans-Roman-31"/>
      </defs>
      <g transform="translate(619.3971875 537.596875)scale(0.2 -0.2)">
       <use xlink:href="#BitstreamVeraSans-Roman-2212"/>
       <use x="83.7890625" xlink:href="#BitstreamVeraSans-Roman-30"/>
       <use x="147.412109375" xlink:href="#BitstreamVeraSans-Roman-2e"/>
       <use x="179.19921875" xlink:href="#BitstreamVeraSans-Roman-31"/>
      </g>
     </g>
    </g>
    <g id="xtick_6">
     <g id="line2d_26">
      <g>
       <use style="stroke:#000000;stroke-width:0.5;" x="777.6" xlink:href="#m49a9b9fc45" y="518.4"/>
      </g>
     </g>
     <g id="line2d_27">
      <g>
       <use style="stroke:#000000;stroke-width:0.5;" x="777.6" xlink:href="#m1ce8352ae5" y="57.6"/>
      </g>
     </g>
     <g id="text_6">
      <!-- 0.0 -->
      <g transform="translate(761.696875 537.596875)scale(0.2 -0.2)">
       <use xlink:href="#BitstreamVeraSans-Roman-30"/>
       <use x="63.623046875" xlink:href="#BitstreamVeraSans-Roman-2e"/>
       <use x="95.41015625" xlink:href="#BitstreamVeraSans-Roman-30"/>
      </g>
     </g>
    </g>
    <g id="text_7">
     <!-- $s$ -->
     <defs>
      <path d="M 8.6875 6.109375 
Q 11.375 1.515625 19.484375 1.515625 
Q 23 1.515625 26.171875 2.703125 
Q 29.34375 3.90625 31.421875 6.296875 
Q 33.5 8.6875 33.5 12.109375 
Q 33.5 14.703125 31.640625 16.359375 
Q 29.78125 18.015625 27.09375 18.609375 
L 21.6875 19.671875 
Q 17.96875 20.609375 15.578125 23.140625 
Q 13.1875 25.6875 13.1875 29.296875 
Q 13.1875 33.734375 15.59375 37.15625 
Q 18.015625 40.578125 21.96875 42.375 
Q 25.921875 44.1875 30.171875 44.1875 
Q 34.71875 44.1875 38.296875 42.015625 
Q 41.890625 39.84375 41.890625 35.59375 
Q 41.890625 33.296875 40.59375 31.53125 
Q 39.3125 29.78125 37.015625 29.78125 
Q 35.6875 29.78125 34.734375 30.640625 
Q 33.796875 31.5 33.796875 32.8125 
Q 33.796875 33.984375 34.453125 35.078125 
Q 35.109375 36.1875 36.203125 36.84375 
Q 37.3125 37.5 38.484375 37.5 
Q 37.59375 39.65625 35.171875 40.625 
Q 32.765625 41.609375 29.984375 41.609375 
Q 27.4375 41.609375 24.890625 40.578125 
Q 22.359375 39.546875 20.8125 37.5625 
Q 19.28125 35.59375 19.28125 32.90625 
Q 19.28125 31.109375 20.546875 29.734375 
Q 21.828125 28.375 23.6875 27.78125 
L 29.5 26.609375 
Q 32.28125 26.03125 34.59375 24.53125 
Q 36.921875 23.046875 38.25 20.765625 
Q 39.59375 18.5 39.59375 15.578125 
Q 39.59375 11.859375 37.515625 8.25 
Q 35.453125 4.640625 32.421875 2.484375 
Q 27.09375 -1.125 19.390625 -1.125 
Q 14.0625 -1.125 9.609375 1.3125 
Q 5.171875 3.765625 5.171875 8.59375 
Q 5.171875 11.328125 6.75 13.34375 
Q 8.34375 15.375 11.078125 15.375 
Q 12.703125 15.375 13.796875 14.390625 
Q 14.890625 13.421875 14.890625 11.8125 
Q 14.890625 9.515625 13.171875 7.8125 
Q 11.46875 6.109375 9.1875 6.109375 
z
" id="Cmmi10-73"/>
     </defs>
     <g transform="translate(438.1 561.953125)scale(0.2 -0.2)">
      <use transform="translate(0.0 0.8125)" xlink:href="#Cmmi10-73"/>
     </g>
    </g>
   </g>
   <g id="matplotlib.axis_2">
    <g id="ytick_1">
     <g id="line2d_28">
      <defs>
       <path d="M 0 0 
L 4 0 
" id="mb081f99c42" style="stroke:#000000;stroke-width:0.5;"/>
      </defs>
      <g>
       <use style="stroke:#000000;stroke-width:0.5;" x="108.0" xlink:href="#mb081f99c42" y="518.4"/>
      </g>
     </g>
     <g id="line2d_29">
      <defs>
       <path d="M 0 0 
L -4 0 
" id="m9810c4c4b4" style="stroke:#000000;stroke-width:0.5;"/>
      </defs>
      <g>
       <use style="stroke:#000000;stroke-width:0.5;" x="777.6" xlink:href="#m9810c4c4b4" y="518.4"/>
      </g>
     </g>
     <g id="text_8">
      <!-- 0.3 -->
      <g transform="translate(72.19375 523.91875)scale(0.2 -0.2)">
       <use xlink:href="#BitstreamVeraSans-Roman-30"/>
       <use x="63.623046875" xlink:href="#BitstreamVeraSans-Roman-2e"/>
       <use x="95.41015625" xlink:href="#BitstreamVeraSans-Roman-33"/>
      </g>
     </g>
    </g>
    <g id="ytick_2">
     <g id="line2d_30">
      <g>
       <use style="stroke:#000000;stroke-width:0.5;" x="108.0" xlink:href="#mb081f99c42" y="441.6"/>
      </g>
     </g>
     <g id="line2d_31">
      <g>
       <use style="stroke:#000000;stroke-width:0.5;" x="777.6" xlink:href="#m9810c4c4b4" y="441.6"/>
      </g>
     </g>
     <g id="text_9">
      <!-- 0.4 -->
      <g transform="translate(72.19375 447.11875)scale(0.2 -0.2)">
       <use xlink:href="#BitstreamVeraSans-Roman-30"/>
       <use x="63.623046875" xlink:href="#BitstreamVeraSans-Roman-2e"/>
       <use x="95.41015625" xlink:href="#BitstreamVeraSans-Roman-34"/>
      </g>
     </g>
    </g>
    <g id="ytick_3">
     <g id="line2d_32">
      <g>
       <use style="stroke:#000000;stroke-width:0.5;" x="108.0" xlink:href="#mb081f99c42" y="364.8"/>
      </g>
     </g>
     <g id="line2d_33">
      <g>
       <use style="stroke:#000000;stroke-width:0.5;" x="777.6" xlink:href="#m9810c4c4b4" y="364.8"/>
      </g>
     </g>
     <g id="text_10">
      <!-- 0.5 -->
      <g transform="translate(72.19375 370.31875)scale(0.2 -0.2)">
       <use xlink:href="#BitstreamVeraSans-Roman-30"/>
       <use x="63.623046875" xlink:href="#BitstreamVeraSans-Roman-2e"/>
       <use x="95.41015625" xlink:href="#BitstreamVeraSans-Roman-35"/>
      </g>
     </g>
    </g>
    <g id="ytick_4">
     <g id="line2d_34">
      <g>
       <use style="stroke:#000000;stroke-width:0.5;" x="108.0" xlink:href="#mb081f99c42" y="288.0"/>
      </g>
     </g>
     <g id="line2d_35">
      <g>
       <use style="stroke:#000000;stroke-width:0.5;" x="777.6" xlink:href="#m9810c4c4b4" y="288.0"/>
      </g>
     </g>
     <g id="text_11">
      <!-- 0.6 -->
      <defs>
       <path d="M 33.015625 40.375 
Q 26.375 40.375 22.484375 35.828125 
Q 18.609375 31.296875 18.609375 23.390625 
Q 18.609375 15.53125 22.484375 10.953125 
Q 26.375 6.390625 33.015625 6.390625 
Q 39.65625 6.390625 43.53125 10.953125 
Q 47.40625 15.53125 47.40625 23.390625 
Q 47.40625 31.296875 43.53125 35.828125 
Q 39.65625 40.375 33.015625 40.375 
M 52.59375 71.296875 
L 52.59375 62.3125 
Q 48.875 64.0625 45.09375 64.984375 
Q 41.3125 65.921875 37.59375 65.921875 
Q 27.828125 65.921875 22.671875 59.328125 
Q 17.53125 52.734375 16.796875 39.40625 
Q 19.671875 43.65625 24.015625 45.921875 
Q 28.375 48.1875 33.59375 48.1875 
Q 44.578125 48.1875 50.953125 41.515625 
Q 57.328125 34.859375 57.328125 23.390625 
Q 57.328125 12.15625 50.6875 5.359375 
Q 44.046875 -1.421875 33.015625 -1.421875 
Q 20.359375 -1.421875 13.671875 8.265625 
Q 6.984375 17.96875 6.984375 36.375 
Q 6.984375 53.65625 15.1875 63.9375 
Q 23.390625 74.21875 37.203125 74.21875 
Q 40.921875 74.21875 44.703125 73.484375 
Q 48.484375 72.75 52.59375 71.296875 
" id="BitstreamVeraSans-Roman-36"/>
      </defs>
      <g transform="translate(72.19375 293.51875)scale(0.2 -0.2)">
       <use xlink:href="#BitstreamVeraSans-Roman-30"/>
       <use x="63.623046875" xlink:href="#BitstreamVeraSans-Roman-2e"/>
       <use x="95.41015625" xlink:href="#BitstreamVeraSans-Roman-36"/>
      </g>
     </g>
    </g>
    <g id="ytick_5">
     <g id="line2d_36">
      <g>
       <use style="stroke:#000000;stroke-width:0.5;" x="108.0" xlink:href="#mb081f99c42" y="211.2"/>
      </g>
     </g>
     <g id="line2d_37">
      <g>
       <use style="stroke:#000000;stroke-width:0.5;" x="777.6" xlink:href="#m9810c4c4b4" y="211.2"/>
      </g>
     </g>
     <g id="text_12">
      <!-- 0.7 -->
      <defs>
       <path d="M 8.203125 72.90625 
L 55.078125 72.90625 
L 55.078125 68.703125 
L 28.609375 0 
L 18.3125 0 
L 43.21875 64.59375 
L 8.203125 64.59375 
z
" id="BitstreamVeraSans-Roman-37"/>
      </defs>
      <g transform="translate(72.19375 216.71875)scale(0.2 -0.2)">
       <use xlink:href="#BitstreamVeraSans-Roman-30"/>
       <use x="63.623046875" xlink:href="#BitstreamVeraSans-Roman-2e"/>
       <use x="95.41015625" xlink:href="#BitstreamVeraSans-Roman-37"/>
      </g>
     </g>
    </g>
    <g id="ytick_6">
     <g id="line2d_38">
      <g>
       <use style="stroke:#000000;stroke-width:0.5;" x="108.0" xlink:href="#mb081f99c42" y="134.4"/>
      </g>
     </g>
     <g id="line2d_39">
      <g>
       <use style="stroke:#000000;stroke-width:0.5;" x="777.6" xlink:href="#m9810c4c4b4" y="134.4"/>
      </g>
     </g>
     <g id="text_13">
      <!-- 0.8 -->
      <defs>
       <path d="M 31.78125 34.625 
Q 24.75 34.625 20.71875 30.859375 
Q 16.703125 27.09375 16.703125 20.515625 
Q 16.703125 13.921875 20.71875 10.15625 
Q 24.75 6.390625 31.78125 6.390625 
Q 38.8125 6.390625 42.859375 10.171875 
Q 46.921875 13.96875 46.921875 20.515625 
Q 46.921875 27.09375 42.890625 30.859375 
Q 38.875 34.625 31.78125 34.625 
M 21.921875 38.8125 
Q 15.578125 40.375 12.03125 44.71875 
Q 8.5 49.078125 8.5 55.328125 
Q 8.5 64.0625 14.71875 69.140625 
Q 20.953125 74.21875 31.78125 74.21875 
Q 42.671875 74.21875 48.875 69.140625 
Q 55.078125 64.0625 55.078125 55.328125 
Q 55.078125 49.078125 51.53125 44.71875 
Q 48 40.375 41.703125 38.8125 
Q 48.828125 37.15625 52.796875 32.3125 
Q 56.78125 27.484375 56.78125 20.515625 
Q 56.78125 9.90625 50.3125 4.234375 
Q 43.84375 -1.421875 31.78125 -1.421875 
Q 19.734375 -1.421875 13.25 4.234375 
Q 6.78125 9.90625 6.78125 20.515625 
Q 6.78125 27.484375 10.78125 32.3125 
Q 14.796875 37.15625 21.921875 38.8125 
M 18.3125 54.390625 
Q 18.3125 48.734375 21.84375 45.5625 
Q 25.390625 42.390625 31.78125 42.390625 
Q 38.140625 42.390625 41.71875 45.5625 
Q 45.3125 48.734375 45.3125 54.390625 
Q 45.3125 60.0625 41.71875 63.234375 
Q 38.140625 66.40625 31.78125 66.40625 
Q 25.390625 66.40625 21.84375 63.234375 
Q 18.3125 60.0625 18.3125 54.390625 
" id="BitstreamVeraSans-Roman-38"/>
      </defs>
      <g transform="translate(72.19375 139.91875)scale(0.2 -0.2)">
       <use xlink:href="#BitstreamVeraSans-Roman-30"/>
       <use x="63.623046875" xlink:href="#BitstreamVeraSans-Roman-2e"/>
       <use x="95.41015625" xlink:href="#BitstreamVeraSans-Roman-38"/>
      </g>
     </g>
    </g>
    <g id="ytick_7">
     <g id="line2d_40">
      <g>
       <use style="stroke:#000000;stroke-width:0.5;" x="108.0" xlink:href="#mb081f99c42" y="57.6"/>
      </g>
     </g>
     <g id="line2d_41">
      <g>
       <use style="stroke:#000000;stroke-width:0.5;" x="777.6" xlink:href="#m9810c4c4b4" y="57.6"/>
      </g>
     </g>
     <g id="text_14">
      <!-- 0.9 -->
      <defs>
       <path d="M 10.984375 1.515625 
L 10.984375 10.5 
Q 14.703125 8.734375 18.5 7.8125 
Q 22.3125 6.890625 25.984375 6.890625 
Q 35.75 6.890625 40.890625 13.453125 
Q 46.046875 20.015625 46.78125 33.40625 
Q 43.953125 29.203125 39.59375 26.953125 
Q 35.25 24.703125 29.984375 24.703125 
Q 19.046875 24.703125 12.671875 31.3125 
Q 6.296875 37.9375 6.296875 49.421875 
Q 6.296875 60.640625 12.9375 67.421875 
Q 19.578125 74.21875 30.609375 74.21875 
Q 43.265625 74.21875 49.921875 64.515625 
Q 56.59375 54.828125 56.59375 36.375 
Q 56.59375 19.140625 48.40625 8.859375 
Q 40.234375 -1.421875 26.421875 -1.421875 
Q 22.703125 -1.421875 18.890625 -0.6875 
Q 15.09375 0.046875 10.984375 1.515625 
M 30.609375 32.421875 
Q 37.25 32.421875 41.125 36.953125 
Q 45.015625 41.5 45.015625 49.421875 
Q 45.015625 57.28125 41.125 61.84375 
Q 37.25 66.40625 30.609375 66.40625 
Q 23.96875 66.40625 20.09375 61.84375 
Q 16.21875 57.28125 16.21875 49.421875 
Q 16.21875 41.5 20.09375 36.953125 
Q 23.96875 32.421875 30.609375 32.421875 
" id="BitstreamVeraSans-Roman-39"/>
      </defs>
      <g transform="translate(72.19375 63.11875)scale(0.2 -0.2)">
       <use xlink:href="#BitstreamVeraSans-Roman-30"/>
       <use x="63.623046875" xlink:href="#BitstreamVeraSans-Roman-2e"/>
       <use x="95.41015625" xlink:href="#BitstreamVeraSans-Roman-39"/>
      </g>
     </g>
    </g>
    <g id="text_15">
     <!-- $&lt;w&gt;_s$ -->
     <defs>
      <path d="M 8.296875 -2 
Q 8.296875 -0.734375 9.625 -0.09375 
L 62.703125 25 
L 9.28125 50.296875 
Q 8.296875 50.59375 8.296875 52 
Q 8.296875 52.6875 8.859375 53.34375 
Q 9.421875 54 10.296875 54 
Q 10.5 54 11.078125 53.8125 
L 68.5 26.703125 
Q 69.390625 26.265625 69.390625 25 
Q 69.390625 23.6875 68.21875 23.1875 
L 11.078125 -3.8125 
Q 10.5 -4 10.296875 -4 
Q 9.421875 -4 8.859375 -3.34375 
Q 8.296875 -2.6875 8.296875 -2 
" id="Cmmi10-3e"/>
      <path d="M 9.28125 23.296875 
Q 8.296875 23.734375 8.296875 25 
Q 8.296875 26.265625 9.625 26.90625 
L 66.703125 53.8125 
Q 67.09375 54 67.390625 54 
Q 68.265625 54 68.828125 53.390625 
Q 69.390625 52.78125 69.390625 52 
Q 69.390625 50.78125 68.21875 50.09375 
L 14.984375 25 
L 68.5 -0.296875 
Q 69.390625 -0.59375 69.390625 -2 
Q 69.390625 -2.78125 68.828125 -3.390625 
Q 68.265625 -4 67.390625 -4 
Q 67.09375 -4 66.703125 -3.8125 
z
" id="Cmmi10-3c"/>
      <path d="M 10.796875 11.625 
Q 10.796875 13.71875 11.359375 16.453125 
Q 11.921875 19.1875 12.59375 21.3125 
Q 13.28125 23.4375 14.90625 27.828125 
Q 16.546875 32.234375 16.703125 32.625 
Q 18.015625 36.28125 18.015625 38.625 
Q 18.015625 41.609375 15.828125 41.609375 
Q 11.859375 41.609375 9.296875 37.53125 
Q 6.734375 33.453125 5.515625 28.421875 
Q 5.328125 27.78125 4.6875 27.78125 
L 3.515625 27.78125 
Q 2.6875 27.78125 2.6875 28.71875 
L 2.6875 29 
Q 4.296875 34.96875 7.609375 39.578125 
Q 10.9375 44.1875 16.015625 44.1875 
Q 19.578125 44.1875 22.046875 41.84375 
Q 24.515625 39.5 24.515625 35.890625 
Q 24.515625 34.03125 23.6875 31.984375 
Q 22.515625 28.953125 20.921875 24.703125 
Q 19.34375 20.453125 18.453125 16.984375 
Q 17.578125 13.53125 17.578125 10.296875 
Q 17.578125 6.390625 19.625 3.953125 
Q 21.6875 1.515625 25.59375 1.515625 
Q 30.90625 1.515625 34.421875 9.625 
Q 34.28125 10.203125 34.28125 11.28125 
Q 34.28125 13.96875 35.109375 17.390625 
L 40.71875 39.890625 
Q 41.0625 41.21875 42.28125 42.15625 
Q 43.5 43.109375 44.921875 43.109375 
Q 46.09375 43.109375 47 42.328125 
Q 47.90625 41.546875 47.90625 40.28125 
Q 47.90625 39.703125 47.796875 39.5 
L 42.1875 17.1875 
Q 41.21875 13.1875 41.21875 10.015625 
Q 41.21875 6.25 42.9375 3.875 
Q 44.671875 1.515625 48.390625 1.515625 
Q 54.828125 1.515625 58.984375 10.015625 
Q 60.546875 13.03125 62.46875 18.9375 
Q 64.40625 24.859375 64.40625 27.984375 
Q 64.40625 30.859375 63.46875 32.546875 
Q 62.546875 34.234375 60.90625 36.1875 
Q 59.28125 38.140625 59.28125 39.109375 
Q 59.28125 41.015625 60.90625 42.640625 
Q 62.546875 44.28125 64.5 44.28125 
Q 66.890625 44.28125 67.9375 42.078125 
Q 69 39.890625 69 37.109375 
Q 69 33.734375 67.875 28.53125 
Q 66.75 23.34375 65.03125 18.09375 
Q 63.328125 12.84375 61.8125 9.71875 
Q 56.34375 -1.125 48.1875 -1.125 
Q 44 -1.125 40.53125 0.484375 
Q 37.0625 2.09375 35.40625 5.609375 
Q 33.796875 2.734375 31.171875 0.796875 
Q 28.5625 -1.125 25.390625 -1.125 
Q 18.796875 -1.125 14.796875 2.015625 
Q 10.796875 5.171875 10.796875 11.625 
" id="Cmmi10-77"/>
     </defs>
     <g transform="translate(63.034375 322.1)rotate(-90.0)scale(0.2 -0.2)">
      <use transform="translate(17.55859375 0.0)" xlink:href="#Cmmi10-3c"/>
      <use transform="translate(112.802734375 0.0)" xlink:href="#Cmmi10-77"/>
      <use transform="translate(201.845703125 0.0)" xlink:href="#Cmmi10-3e"/>
      <use transform="translate(301.553984375 -17.006249999999994)scale(0.7)" xlink:href="#Cmmi10-73"/>
     </g>
    </g>
   </g>
   <g id="text_16">
    <!-- $\phi=0.65, l_p/\sigma=5, N_{clones}=10^2, t_{tot}=100$ — contr. trans. &amp; rot. EOM (1) -->
    <defs>
     <path d="M 41.109375 46.296875 
Q 39.59375 47.171875 37.8125 47.578125 
Q 36.03125 48 33.890625 48 
Q 26.265625 48 22.1875 43.046875 
Q 18.109375 38.09375 18.109375 28.8125 
L 18.109375 0 
L 9.078125 0 
L 9.078125 54.6875 
L 18.109375 54.6875 
L 18.109375 46.1875 
Q 20.953125 51.171875 25.484375 53.578125 
Q 30.03125 56 36.53125 56 
Q 37.453125 56 38.578125 55.875 
Q 39.703125 55.765625 41.0625 55.515625 
z
" id="BitstreamVeraSans-Roman-72"/>
     <path d="M 25 -2.203125 
Q 12.75 -2.203125 8.328125 7.875 
Q 3.90625 17.96875 3.90625 31.890625 
Q 3.90625 40.578125 5.484375 48.234375 
Q 7.078125 55.90625 11.78125 61.25 
Q 16.5 66.609375 25 66.609375 
Q 31.59375 66.609375 35.78125 63.375 
Q 39.984375 60.15625 42.1875 55.046875 
Q 44.390625 49.953125 45.1875 44.109375 
Q 46 38.28125 46 31.890625 
Q 46 23.296875 44.40625 15.796875 
Q 42.828125 8.296875 38.1875 3.046875 
Q 33.546875 -2.203125 25 -2.203125 
M 25 0.390625 
Q 30.5625 0.390625 33.296875 6.09375 
Q 36.03125 11.8125 36.671875 18.75 
Q 37.3125 25.6875 37.3125 33.5 
Q 37.3125 41.015625 36.671875 47.359375 
Q 36.03125 53.71875 33.3125 58.859375 
Q 30.609375 64.015625 25 64.015625 
Q 19.34375 64.015625 16.609375 58.828125 
Q 13.875 53.65625 13.234375 47.328125 
Q 12.59375 41.015625 12.59375 33.5 
Q 12.59375 27.9375 12.859375 23 
Q 13.140625 18.0625 14.3125 12.8125 
Q 15.484375 7.5625 18.09375 3.96875 
Q 20.703125 0.390625 25 0.390625 
" id="Cmr10-30"/>
     <path d="M 39.40625 66.21875 
Q 28.65625 66.21875 22.328125 58.203125 
Q 16.015625 50.203125 16.015625 36.375 
Q 16.015625 22.609375 22.328125 14.59375 
Q 28.65625 6.59375 39.40625 6.59375 
Q 50.140625 6.59375 56.421875 14.59375 
Q 62.703125 22.609375 62.703125 36.375 
Q 62.703125 50.203125 56.421875 58.203125 
Q 50.140625 66.21875 39.40625 66.21875 
M 39.40625 74.21875 
Q 54.734375 74.21875 63.90625 63.9375 
Q 73.09375 53.65625 73.09375 36.375 
Q 73.09375 19.140625 63.90625 8.859375 
Q 54.734375 -1.421875 39.40625 -1.421875 
Q 24.03125 -1.421875 14.8125 8.828125 
Q 5.609375 19.09375 5.609375 36.375 
Q 5.609375 53.65625 14.8125 63.9375 
Q 24.03125 74.21875 39.40625 74.21875 
" id="BitstreamVeraSans-Roman-4f"/>
     <path d="M 54.890625 33.015625 
L 54.890625 0 
L 45.90625 0 
L 45.90625 32.71875 
Q 45.90625 40.484375 42.875 44.328125 
Q 39.84375 48.1875 33.796875 48.1875 
Q 26.515625 48.1875 22.3125 43.546875 
Q 18.109375 38.921875 18.109375 30.90625 
L 18.109375 0 
L 9.078125 0 
L 9.078125 54.6875 
L 18.109375 54.6875 
L 18.109375 46.1875 
Q 21.34375 51.125 25.703125 53.5625 
Q 30.078125 56 35.796875 56 
Q 45.21875 56 50.046875 50.171875 
Q 54.890625 44.34375 54.890625 33.015625 
" id="BitstreamVeraSans-Roman-6e"/>
     <path id="BitstreamVeraSans-Roman-20"/>
     <path d="M 4.984375 0 
L 4.984375 2.6875 
Q 4.984375 2.9375 5.171875 3.21875 
L 20.703125 20.40625 
Q 24.21875 24.21875 26.40625 26.796875 
Q 28.609375 29.390625 30.75 32.765625 
Q 32.90625 36.140625 34.15625 39.625 
Q 35.40625 43.109375 35.40625 47.015625 
Q 35.40625 51.125 33.890625 54.859375 
Q 32.375 58.59375 29.375 60.84375 
Q 26.375 63.09375 22.125 63.09375 
Q 17.78125 63.09375 14.3125 60.46875 
Q 10.84375 57.859375 9.421875 53.71875 
Q 9.8125 53.8125 10.5 53.8125 
Q 12.75 53.8125 14.328125 52.296875 
Q 15.921875 50.78125 15.921875 48.390625 
Q 15.921875 46.09375 14.328125 44.5 
Q 12.75 42.921875 10.5 42.921875 
Q 8.15625 42.921875 6.5625 44.546875 
Q 4.984375 46.1875 4.984375 48.390625 
Q 4.984375 52.15625 6.390625 55.4375 
Q 7.8125 58.734375 10.46875 61.296875 
Q 13.140625 63.875 16.484375 65.234375 
Q 19.828125 66.609375 23.578125 66.609375 
Q 29.296875 66.609375 34.21875 64.1875 
Q 39.15625 61.765625 42.03125 57.34375 
Q 44.921875 52.9375 44.921875 47.015625 
Q 44.921875 42.671875 43.015625 38.765625 
Q 41.109375 34.859375 38.125 31.65625 
Q 35.15625 28.46875 30.515625 24.40625 
Q 25.875 20.359375 24.421875 19 
L 13.09375 8.109375 
L 22.703125 8.109375 
Q 29.78125 8.109375 34.546875 8.21875 
Q 39.3125 8.34375 39.59375 8.59375 
Q 40.765625 9.859375 42 17.828125 
L 44.921875 17.828125 
L 42.09375 0 
z
" id="Cmr10-32"/>
     <path d="M 18.703125 -1.125 
Q 14.265625 -1.125 10.8125 1 
Q 7.375 3.125 5.484375 6.734375 
Q 3.609375 10.359375 3.609375 14.703125 
Q 3.609375 19.34375 5.703125 24.46875 
Q 7.8125 29.59375 11.453125 33.84375 
Q 15.09375 38.09375 19.671875 40.59375 
Q 24.265625 43.109375 29.109375 43.109375 
L 54.296875 43.109375 
Q 55.328125 43.109375 56.046875 42.421875 
Q 56.78125 41.75 56.78125 40.578125 
Q 56.78125 39.109375 55.734375 38.015625 
Q 54.6875 36.921875 53.21875 36.921875 
L 41.015625 36.921875 
Q 43.890625 32.625 43.890625 26.515625 
Q 43.890625 21.484375 41.9375 16.59375 
Q 39.984375 11.71875 36.515625 7.6875 
Q 33.0625 3.65625 28.4375 1.265625 
Q 23.828125 -1.125 18.703125 -1.125 
M 18.796875 1.515625 
Q 24.265625 1.515625 28.484375 5.78125 
Q 32.71875 10.0625 34.953125 16.234375 
Q 37.203125 22.40625 37.203125 27.6875 
Q 37.203125 31.984375 34.828125 34.453125 
Q 32.46875 36.921875 28.21875 36.921875 
Q 22.40625 36.921875 18.328125 33.015625 
Q 14.265625 29.109375 12.234375 23.1875 
Q 10.203125 17.28125 10.203125 11.8125 
Q 10.203125 7.515625 12.46875 4.515625 
Q 14.75 1.515625 18.796875 1.515625 
" id="Cmmi10-be"/>
     <path d="M 4.6875 0 
Q 3.71875 0 3.71875 1.3125 
Q 3.765625 1.5625 3.90625 2.171875 
Q 4.046875 2.78125 4.3125 3.140625 
Q 4.59375 3.515625 4.984375 3.515625 
Q 14.546875 3.515625 16.109375 9.625 
L 29.6875 64.3125 
Q 26.90625 64.796875 20.90625 64.796875 
Q 19.921875 64.796875 19.921875 66.109375 
Q 19.96875 66.359375 20.109375 66.96875 
Q 20.265625 67.578125 20.53125 67.9375 
Q 20.796875 68.3125 21.1875 68.3125 
L 38.484375 68.3125 
Q 39.203125 68.3125 39.40625 67.671875 
L 61.625 14.796875 
L 72.703125 59.078125 
Q 72.90625 60.15625 72.90625 60.59375 
Q 72.90625 64.796875 65.1875 64.796875 
Q 64.203125 64.796875 64.203125 66.109375 
Q 64.546875 67.390625 64.734375 67.84375 
Q 64.9375 68.3125 65.921875 68.3125 
L 87.3125 68.3125 
Q 88.28125 68.3125 88.28125 67 
Q 88.234375 66.75 88.078125 66.140625 
Q 87.9375 65.53125 87.671875 65.15625 
Q 87.40625 64.796875 87.015625 64.796875 
Q 77.4375 64.796875 75.875 58.6875 
L 61.53125 0.875 
Q 61.1875 0 60.5 0 
L 59.28125 0 
Q 58.59375 0 58.40625 0.6875 
L 32.90625 61.1875 
L 32.71875 61.8125 
Q 32.515625 62.015625 32.515625 62.109375 
L 19.28125 9.1875 
Q 19.1875 8.9375 19.140625 8.5625 
Q 19.09375 8.203125 19 7.71875 
Q 19 5.125 21.234375 4.3125 
Q 23.484375 3.515625 26.8125 3.515625 
Q 27.78125 3.515625 27.78125 2.203125 
Q 27.4375 0.828125 27.1875 0.40625 
Q 26.953125 0 26.125 0 
z
" id="Cmmi10-4e"/>
     <path d="M 0 30.90625 
L 100 30.90625 
L 100 23.875 
L 0 23.875 
z
" id="BitstreamVeraSans-Roman-2014"/>
     <path d="M 34.28125 27.484375 
Q 23.390625 27.484375 19.1875 25 
Q 14.984375 22.515625 14.984375 16.5 
Q 14.984375 11.71875 18.140625 8.90625 
Q 21.296875 6.109375 26.703125 6.109375 
Q 34.1875 6.109375 38.703125 11.40625 
Q 43.21875 16.703125 43.21875 25.484375 
L 43.21875 27.484375 
z
M 52.203125 31.203125 
L 52.203125 0 
L 43.21875 0 
L 43.21875 8.296875 
Q 40.140625 3.328125 35.546875 0.953125 
Q 30.953125 -1.421875 24.3125 -1.421875 
Q 15.921875 -1.421875 10.953125 3.296875 
Q 6 8.015625 6 15.921875 
Q 6 25.140625 12.171875 29.828125 
Q 18.359375 34.515625 30.609375 34.515625 
L 43.21875 34.515625 
L 43.21875 35.40625 
Q 43.21875 41.609375 39.140625 45 
Q 35.0625 48.390625 27.6875 48.390625 
Q 23 48.390625 18.546875 47.265625 
Q 14.109375 46.140625 10.015625 43.890625 
L 10.015625 52.203125 
Q 14.9375 54.109375 19.578125 55.046875 
Q 24.21875 56 28.609375 56 
Q 40.484375 56 46.34375 49.84375 
Q 52.203125 43.703125 52.203125 31.203125 
" id="BitstreamVeraSans-Roman-61"/>
     <path d="M 44.28125 53.078125 
L 44.28125 44.578125 
Q 40.484375 46.53125 36.375 47.5 
Q 32.28125 48.484375 27.875 48.484375 
Q 21.1875 48.484375 17.84375 46.4375 
Q 14.5 44.390625 14.5 40.28125 
Q 14.5 37.15625 16.890625 35.375 
Q 19.28125 33.59375 26.515625 31.984375 
L 29.59375 31.296875 
Q 39.15625 29.25 43.1875 25.515625 
Q 47.21875 21.78125 47.21875 15.09375 
Q 47.21875 7.46875 41.1875 3.015625 
Q 35.15625 -1.421875 24.609375 -1.421875 
Q 20.21875 -1.421875 15.453125 -0.5625 
Q 10.6875 0.296875 5.421875 2 
L 5.421875 11.28125 
Q 10.40625 8.6875 15.234375 7.390625 
Q 20.0625 6.109375 24.8125 6.109375 
Q 31.15625 6.109375 34.5625 8.28125 
Q 37.984375 10.453125 37.984375 14.40625 
Q 37.984375 18.0625 35.515625 20.015625 
Q 33.0625 21.96875 24.703125 23.78125 
L 21.578125 24.515625 
Q 13.234375 26.265625 9.515625 29.90625 
Q 5.8125 33.546875 5.8125 39.890625 
Q 5.8125 47.609375 11.28125 51.796875 
Q 16.75 56 26.8125 56 
Q 31.78125 56 36.171875 55.265625 
Q 40.578125 54.546875 44.28125 53.078125 
" id="BitstreamVeraSans-Roman-73"/>
     <path d="M 8.40625 5.515625 
Q 8.40625 7.765625 10.0625 9.375 
Q 11.71875 10.984375 13.921875 10.984375 
Q 15.28125 10.984375 16.59375 10.25 
Q 17.921875 9.515625 18.65625 8.203125 
Q 19.390625 6.890625 19.390625 5.515625 
Q 19.390625 3.328125 17.765625 1.65625 
Q 16.15625 0 13.921875 0 
Q 11.71875 0 10.0625 1.65625 
Q 8.40625 3.328125 8.40625 5.515625 
" id="Cmmi10-3a"/>
     <path d="M 20.125 -1.125 
Q 15.328125 -1.125 11.734375 1.359375 
Q 8.15625 3.859375 6.265625 8.078125 
Q 4.390625 12.3125 4.390625 17 
Q 4.390625 24.125 7.984375 30.390625 
Q 11.578125 36.671875 17.71875 40.421875 
Q 23.875 44.1875 30.90625 44.1875 
Q 35.203125 44.1875 38.40625 41.96875 
Q 41.609375 39.75 41.609375 35.59375 
Q 41.609375 29.828125 37.015625 27.015625 
Q 32.421875 24.21875 26.65625 23.5625 
Q 20.90625 22.90625 13.921875 22.90625 
L 13.625 22.90625 
Q 12.015625 16.9375 12.015625 12.703125 
Q 12.015625 8.25 14.0625 4.875 
Q 16.109375 1.515625 20.3125 1.515625 
Q 26.265625 1.515625 31.75 4.25 
Q 37.25 6.984375 40.71875 11.8125 
Q 41.015625 12.109375 41.5 12.109375 
Q 42 12.109375 42.5 11.546875 
Q 43.015625 10.984375 43.015625 10.5 
Q 43.015625 10.109375 42.828125 9.90625 
Q 39.15625 4.78125 32.953125 1.828125 
Q 26.765625 -1.125 20.125 -1.125 
M 14.203125 25.484375 
Q 20.015625 25.484375 24.953125 26.015625 
Q 29.890625 26.5625 33.890625 28.734375 
Q 37.890625 30.90625 37.890625 35.5 
Q 37.890625 37.359375 36.859375 38.75 
Q 35.84375 40.140625 34.203125 40.875 
Q 32.5625 41.609375 30.8125 41.609375 
Q 26.5625 41.609375 23.171875 39.3125 
Q 19.78125 37.015625 17.578125 33.328125 
Q 15.375 29.640625 14.203125 25.484375 
" id="Cmmi10-65"/>
     <path d="M 24.3125 39.203125 
Q 19.875 35.25 17.796875 31.3125 
Q 15.71875 27.390625 15.71875 23.09375 
Q 15.71875 15.96875 20.890625 11.234375 
Q 26.078125 6.5 33.890625 6.5 
Q 38.53125 6.5 42.578125 8.03125 
Q 46.625 9.578125 50.203125 12.703125 
z
M 31.203125 44.671875 
L 56 19.28125 
Q 58.890625 23.640625 60.5 28.59375 
Q 62.109375 33.546875 62.40625 39.109375 
L 71.484375 39.109375 
Q 70.90625 32.671875 68.359375 26.359375 
Q 65.828125 20.0625 61.28125 13.921875 
L 74.90625 0 
L 62.59375 0 
L 55.609375 7.171875 
Q 50.53125 2.828125 44.96875 0.703125 
Q 39.40625 -1.421875 33.015625 -1.421875 
Q 21.234375 -1.421875 13.765625 5.296875 
Q 6.296875 12.015625 6.296875 22.515625 
Q 6.296875 28.765625 9.5625 34.25 
Q 12.84375 39.75 19.390625 44.578125 
Q 17.046875 47.65625 15.8125 50.703125 
Q 14.59375 53.765625 14.59375 56.6875 
Q 14.59375 64.59375 20.015625 69.40625 
Q 25.4375 74.21875 34.421875 74.21875 
Q 38.484375 74.21875 42.5 73.34375 
Q 46.53125 72.46875 50.6875 70.703125 
L 50.6875 61.8125 
Q 46.4375 64.109375 42.578125 65.296875 
Q 38.71875 66.5 35.40625 66.5 
Q 30.28125 66.5 27.078125 63.78125 
Q 23.875 61.078125 23.875 56.78125 
Q 23.875 54.296875 25.3125 51.78125 
Q 26.765625 49.265625 31.203125 44.671875 
" id="BitstreamVeraSans-Roman-26"/>
     <path d="M 9.8125 72.90625 
L 24.515625 72.90625 
L 43.109375 23.296875 
L 61.8125 72.90625 
L 76.515625 72.90625 
L 76.515625 0 
L 66.890625 0 
L 66.890625 64.015625 
L 48.09375 14.015625 
L 38.1875 14.015625 
L 19.390625 64.015625 
L 19.390625 0 
L 9.8125 0 
z
" id="BitstreamVeraSans-Roman-4d"/>
     <path d="M 30.609375 48.390625 
Q 23.390625 48.390625 19.1875 42.75 
Q 14.984375 37.109375 14.984375 27.296875 
Q 14.984375 17.484375 19.15625 11.84375 
Q 23.34375 6.203125 30.609375 6.203125 
Q 37.796875 6.203125 41.984375 11.859375 
Q 46.1875 17.53125 46.1875 27.296875 
Q 46.1875 37.015625 41.984375 42.703125 
Q 37.796875 48.390625 30.609375 48.390625 
M 30.609375 56 
Q 42.328125 56 49.015625 48.375 
Q 55.71875 40.765625 55.71875 27.296875 
Q 55.71875 13.875 49.015625 6.21875 
Q 42.328125 -1.421875 30.609375 -1.421875 
Q 18.84375 -1.421875 12.171875 6.21875 
Q 5.515625 13.875 5.515625 27.296875 
Q 5.515625 40.765625 12.171875 48.375 
Q 18.84375 56 30.609375 56 
" id="BitstreamVeraSans-Roman-6f"/>
     <path d="M 8.6875 11.375 
Q 9.71875 8.453125 11.84375 6.046875 
Q 13.96875 3.65625 16.875 2.3125 
Q 19.78125 0.984375 22.90625 0.984375 
Q 30.125 0.984375 32.859375 6.59375 
Q 35.59375 12.203125 35.59375 20.21875 
Q 35.59375 23.6875 35.46875 26.046875 
Q 35.359375 28.421875 34.8125 30.609375 
Q 33.890625 34.125 31.5625 36.765625 
Q 29.25 39.40625 25.875 39.40625 
Q 22.515625 39.40625 20.09375 38.375 
Q 17.671875 37.359375 16.15625 35.984375 
Q 14.65625 34.625 13.484375 33.109375 
Q 12.3125 31.59375 12.015625 31.5 
L 10.890625 31.5 
Q 10.640625 31.5 10.265625 31.8125 
Q 9.90625 32.125 9.90625 32.421875 
L 9.90625 65.828125 
Q 9.90625 66.0625 10.21875 66.328125 
Q 10.546875 66.609375 10.890625 66.609375 
L 11.1875 66.609375 
Q 17.921875 63.375 25.484375 63.375 
Q 32.90625 63.375 39.796875 66.609375 
L 40.09375 66.609375 
Q 40.4375 66.609375 40.71875 66.359375 
Q 41.015625 66.109375 41.015625 65.828125 
L 41.015625 64.890625 
Q 41.015625 64.40625 40.828125 64.40625 
Q 37.40625 59.859375 32.25 57.3125 
Q 27.09375 54.78125 21.578125 54.78125 
Q 17.578125 54.78125 13.375 55.90625 
L 13.375 37.015625 
Q 16.703125 39.703125 19.3125 40.84375 
Q 21.921875 42 25.984375 42 
Q 31.5 42 35.859375 38.8125 
Q 40.234375 35.640625 42.578125 30.53125 
Q 44.921875 25.4375 44.921875 20.125 
Q 44.921875 14.109375 41.96875 8.984375 
Q 39.015625 3.859375 33.9375 0.828125 
Q 28.859375 -2.203125 22.90625 -2.203125 
Q 17.96875 -2.203125 13.84375 0.328125 
Q 9.71875 2.875 7.34375 7.171875 
Q 4.984375 11.46875 4.984375 16.3125 
Q 4.984375 18.5625 6.4375 19.96875 
Q 7.90625 21.390625 10.109375 21.390625 
Q 12.3125 21.390625 13.796875 19.9375 
Q 15.28125 18.5 15.28125 16.3125 
Q 15.28125 14.15625 13.796875 12.671875 
Q 12.3125 11.1875 10.109375 11.1875 
Q 9.765625 11.1875 9.328125 11.25 
Q 8.890625 11.328125 8.6875 11.375 
" id="Cmr10-35"/>
     <path d="M 18.3125 70.21875 
L 18.3125 54.6875 
L 36.8125 54.6875 
L 36.8125 47.703125 
L 18.3125 47.703125 
L 18.3125 18.015625 
Q 18.3125 11.328125 20.140625 9.421875 
Q 21.96875 7.515625 27.59375 7.515625 
L 36.8125 7.515625 
L 36.8125 0 
L 27.59375 0 
Q 17.1875 0 13.234375 3.875 
Q 9.28125 7.765625 9.28125 18.015625 
L 9.28125 47.703125 
L 2.6875 47.703125 
L 2.6875 54.6875 
L 9.28125 54.6875 
L 9.28125 70.21875 
z
" id="BitstreamVeraSans-Roman-74"/>
     <path d="M 31 75.875 
Q 24.46875 64.65625 21.28125 53.65625 
Q 18.109375 42.671875 18.109375 31.390625 
Q 18.109375 20.125 21.3125 9.0625 
Q 24.515625 -2 31 -13.1875 
L 23.1875 -13.1875 
Q 15.875 -1.703125 12.234375 9.375 
Q 8.59375 20.453125 8.59375 31.390625 
Q 8.59375 42.28125 12.203125 53.3125 
Q 15.828125 64.359375 23.1875 75.875 
z
" id="BitstreamVeraSans-Roman-28"/>
     <path d="M 9.90625 -18.015625 
Q 9.90625 -17.578125 10.296875 -17.1875 
Q 13.921875 -13.71875 15.921875 -9.171875 
Q 17.921875 -4.640625 17.921875 0.390625 
L 17.921875 1.609375 
Q 16.3125 0 13.921875 0 
Q 11.625 0 10.015625 1.609375 
Q 8.40625 3.21875 8.40625 5.515625 
Q 8.40625 7.859375 10.015625 9.421875 
Q 11.625 10.984375 13.921875 10.984375 
Q 17.484375 10.984375 19 7.6875 
Q 20.515625 4.390625 20.515625 0.390625 
Q 20.515625 -5.171875 18.28125 -10.171875 
Q 16.0625 -15.1875 12.015625 -19.1875 
Q 11.625 -19.390625 11.375 -19.390625 
Q 10.890625 -19.390625 10.390625 -18.9375 
Q 9.90625 -18.5 9.90625 -18.015625 
" id="Cmmi10-3b"/>
     <path d="M 9.8125 72.90625 
L 55.90625 72.90625 
L 55.90625 64.59375 
L 19.671875 64.59375 
L 19.671875 43.015625 
L 54.390625 43.015625 
L 54.390625 34.71875 
L 19.671875 34.71875 
L 19.671875 8.296875 
L 56.78125 8.296875 
L 56.78125 0 
L 9.8125 0 
z
" id="BitstreamVeraSans-Roman-45"/>
     <path d="M 25 -2.203125 
Q 18.796875 -2.203125 14.640625 1.09375 
Q 10.5 4.390625 8.21875 9.640625 
Q 5.953125 14.890625 5.078125 20.65625 
Q 4.203125 26.421875 4.203125 32.328125 
Q 4.203125 40.234375 7.28125 48.1875 
Q 10.359375 56.15625 16.328125 61.375 
Q 22.3125 66.609375 30.515625 66.609375 
Q 33.9375 66.609375 36.890625 65.3125 
Q 39.84375 64.015625 41.53125 61.5 
Q 43.21875 58.984375 43.21875 55.421875 
Q 43.21875 53.375 41.828125 51.984375 
Q 40.4375 50.59375 38.375 50.59375 
Q 36.421875 50.59375 35 52 
Q 33.59375 53.421875 33.59375 55.421875 
Q 33.59375 57.375 35 58.78125 
Q 36.421875 60.203125 38.375 60.203125 
L 38.921875 60.203125 
Q 37.640625 62.015625 35.328125 62.859375 
Q 33.015625 63.71875 30.515625 63.71875 
Q 27.484375 63.71875 24.921875 62.390625 
Q 22.359375 61.078125 20.3125 58.828125 
Q 18.265625 56.59375 16.890625 53.875 
Q 15.53125 51.171875 14.765625 47.703125 
Q 14.015625 44.234375 13.8125 41.203125 
Q 13.625 38.1875 13.625 33.59375 
Q 15.375 37.703125 18.59375 40.3125 
Q 21.828125 42.921875 25.875 42.921875 
Q 30.328125 42.921875 33.984375 41.109375 
Q 37.640625 39.3125 40.28125 36.109375 
Q 42.921875 32.90625 44.3125 28.796875 
Q 45.703125 24.703125 45.703125 20.515625 
Q 45.703125 14.65625 43.09375 9.34375 
Q 40.484375 4.046875 35.734375 0.921875 
Q 31 -2.203125 25 -2.203125 
M 25 0.984375 
Q 28.859375 0.984375 31.203125 2.734375 
Q 33.546875 4.5 34.640625 7.390625 
Q 35.75 10.296875 36.015625 13.25 
Q 36.28125 16.21875 36.28125 20.515625 
Q 36.28125 26.171875 35.734375 30.171875 
Q 35.203125 34.1875 32.8125 37.234375 
Q 30.421875 40.28125 25.484375 40.28125 
Q 21.4375 40.28125 18.828125 37.546875 
Q 16.21875 34.8125 15.015625 30.640625 
Q 13.8125 26.46875 13.8125 22.609375 
Q 13.8125 21.296875 13.921875 20.609375 
Q 13.921875 20.453125 13.890625 20.359375 
Q 13.875 20.265625 13.8125 20.125 
Q 13.8125 15.828125 14.6875 11.421875 
Q 15.578125 7.03125 18.0625 4 
Q 20.5625 0.984375 25 0.984375 
" id="Cmr10-36"/>
     <path d="M 7.71875 1.703125 
Q 7.71875 2.296875 7.8125 2.59375 
L 15.28125 32.421875 
Q 16.015625 35.203125 16.015625 37.3125 
Q 16.015625 41.609375 13.09375 41.609375 
Q 9.96875 41.609375 8.453125 37.859375 
Q 6.9375 34.125 5.515625 28.421875 
Q 5.515625 28.125 5.21875 27.953125 
Q 4.9375 27.78125 4.6875 27.78125 
L 3.515625 27.78125 
Q 3.171875 27.78125 2.921875 28.140625 
Q 2.6875 28.515625 2.6875 28.8125 
Q 3.765625 33.15625 4.765625 36.171875 
Q 5.765625 39.203125 7.890625 41.6875 
Q 10.015625 44.1875 13.1875 44.1875 
Q 16.9375 44.1875 19.8125 41.8125 
Q 22.703125 39.453125 22.703125 35.796875 
Q 25.6875 39.703125 29.6875 41.9375 
Q 33.6875 44.1875 38.1875 44.1875 
Q 41.75 44.1875 44.328125 42.96875 
Q 46.921875 41.75 48.359375 39.28125 
Q 49.8125 36.8125 49.8125 33.40625 
Q 49.8125 29.296875 47.96875 23.484375 
Q 46.140625 17.671875 43.40625 10.5 
Q 42 7.234375 42 4.5 
Q 42 1.515625 44.28125 1.515625 
Q 48.1875 1.515625 50.796875 5.703125 
Q 53.421875 9.90625 54.5 14.703125 
Q 54.6875 15.28125 55.328125 15.28125 
L 56.5 15.28125 
Q 56.890625 15.28125 57.15625 15.03125 
Q 57.421875 14.796875 57.421875 14.40625 
Q 57.421875 14.3125 57.328125 14.109375 
Q 55.953125 8.453125 52.5625 3.65625 
Q 49.171875 -1.125 44.09375 -1.125 
Q 40.578125 -1.125 38.078125 1.296875 
Q 35.59375 3.71875 35.59375 7.171875 
Q 35.59375 9.03125 36.375 11.078125 
Q 37.640625 14.359375 39.28125 18.890625 
Q 40.921875 23.4375 41.96875 27.578125 
Q 43.015625 31.734375 43.015625 34.90625 
Q 43.015625 37.703125 41.859375 39.65625 
Q 40.71875 41.609375 37.984375 41.609375 
Q 34.328125 41.609375 31.25 39.984375 
Q 28.171875 38.375 25.875 35.71875 
Q 23.578125 33.0625 21.6875 29.390625 
L 14.890625 2.203125 
Q 14.546875 0.828125 13.34375 -0.140625 
Q 12.15625 -1.125 10.6875 -1.125 
Q 9.46875 -1.125 8.59375 -0.34375 
Q 7.71875 0.4375 7.71875 1.703125 
" id="Cmmi10-6e"/>
     <path d="M 11.71875 11.921875 
Q 11.71875 7.5625 13.9375 4.53125 
Q 16.15625 1.515625 20.3125 1.515625 
Q 26.265625 1.515625 31.75 4.25 
Q 37.25 6.984375 40.71875 11.8125 
Q 41.015625 12.109375 41.5 12.109375 
Q 42 12.109375 42.5 11.546875 
Q 43.015625 10.984375 43.015625 10.5 
Q 43.015625 10.109375 42.828125 9.90625 
Q 39.15625 4.78125 32.953125 1.828125 
Q 26.765625 -1.125 20.125 -1.125 
Q 15.328125 -1.125 11.671875 1.140625 
Q 8.015625 3.421875 6 7.21875 
Q 4 11.03125 4 15.828125 
Q 4 22.5625 7.765625 29.203125 
Q 11.53125 35.84375 17.78125 40.015625 
Q 24.03125 44.1875 30.90625 44.1875 
Q 35.40625 44.1875 38.984375 42.015625 
Q 42.578125 39.84375 42.578125 35.59375 
Q 42.578125 32.859375 40.984375 30.921875 
Q 39.40625 29 36.71875 29 
Q 35.109375 29 34 30 
Q 32.90625 31 32.90625 32.625 
Q 32.90625 34.96875 34.609375 36.625 
Q 36.328125 38.28125 38.625 38.28125 
L 38.8125 38.28125 
Q 37.640625 39.984375 35.421875 40.796875 
Q 33.203125 41.609375 30.8125 41.609375 
Q 24.953125 41.609375 20.546875 36.59375 
Q 16.15625 31.59375 13.9375 24.625 
Q 11.71875 17.671875 11.71875 11.921875 
" id="Cmmi10-63"/>
     <path d="M 20.125 -1.125 
Q 15.375 -1.125 11.6875 1.125 
Q 8.015625 3.375 6 7.171875 
Q 4 10.984375 4 15.828125 
Q 4 22.609375 7.78125 29.25 
Q 11.578125 35.890625 17.84375 40.03125 
Q 24.125 44.1875 31 44.1875 
Q 34.71875 44.1875 37.625 42.921875 
Q 40.53125 41.65625 42.671875 39.359375 
Q 44.828125 37.0625 45.96875 33.984375 
Q 47.125 30.90625 47.125 27.296875 
Q 47.125 22.078125 44.921875 17.015625 
Q 42.71875 11.96875 38.890625 7.84375 
Q 35.0625 3.71875 30.125 1.296875 
Q 25.203125 -1.125 20.125 -1.125 
M 20.3125 1.515625 
Q 24.75 1.515625 28.4375 4.53125 
Q 32.125 7.5625 34.484375 12.171875 
Q 36.859375 16.796875 38.125 21.921875 
Q 39.40625 27.046875 39.40625 31.203125 
Q 39.40625 35.546875 37.234375 38.578125 
Q 35.0625 41.609375 30.8125 41.609375 
Q 24.953125 41.609375 20.546875 36.59375 
Q 16.15625 31.59375 13.9375 24.625 
Q 11.71875 17.671875 11.71875 11.921875 
Q 11.71875 7.5625 13.9375 4.53125 
Q 16.15625 1.515625 20.3125 1.515625 
" id="Cmmi10-6f"/>
     <path d="M 6.203125 8.109375 
Q 6.203125 9.578125 6.5 10.890625 
L 13.71875 39.59375 
L 3.21875 39.59375 
Q 2.203125 39.59375 2.203125 40.921875 
Q 2.59375 43.109375 3.515625 43.109375 
L 14.59375 43.109375 
L 18.609375 59.421875 
Q 19 60.75 20.171875 61.671875 
Q 21.34375 62.59375 22.796875 62.59375 
Q 24.078125 62.59375 24.921875 61.828125 
Q 25.78125 61.078125 25.78125 59.8125 
Q 25.78125 59.515625 25.75 59.34375 
Q 25.734375 59.1875 25.6875 58.984375 
L 21.6875 43.109375 
L 31.984375 43.109375 
Q 33.015625 43.109375 33.015625 41.796875 
Q 32.953125 41.546875 32.8125 40.953125 
Q 32.671875 40.375 32.421875 39.984375 
Q 32.171875 39.59375 31.6875 39.59375 
L 20.796875 39.59375 
L 13.625 10.6875 
Q 12.890625 7.859375 12.890625 5.8125 
Q 12.890625 1.515625 15.828125 1.515625 
Q 20.21875 1.515625 23.609375 5.640625 
Q 27 9.765625 28.8125 14.703125 
Q 29.203125 15.28125 29.59375 15.28125 
L 30.8125 15.28125 
Q 31.203125 15.28125 31.4375 15.015625 
Q 31.6875 14.75 31.6875 14.40625 
Q 31.6875 14.203125 31.59375 14.109375 
Q 29.390625 8.0625 25.1875 3.46875 
Q 21 -1.125 15.578125 -1.125 
Q 11.625 -1.125 8.90625 1.453125 
Q 6.203125 4.046875 6.203125 8.109375 
" id="Cmmi10-74"/>
     <path d="M 19.390625 -19.484375 
L 23.875 -1.421875 
Q 18.796875 -1.421875 14.40625 0.953125 
Q 10.015625 3.328125 7.34375 7.5625 
Q 4.6875 11.8125 4.6875 16.796875 
Q 4.6875 22.21875 7.375 27.140625 
Q 10.0625 32.078125 14.71875 36.109375 
Q 19.390625 40.140625 24.75 42.3125 
Q 30.125 44.484375 35.40625 44.484375 
L 41.40625 68.796875 
Q 41.609375 69.390625 42.1875 69.390625 
L 43.40625 69.390625 
Q 43.796875 69.390625 44.03125 69.046875 
Q 44.28125 68.703125 44.28125 68.40625 
L 38.28125 44.484375 
Q 42.046875 44.484375 45.5625 43.109375 
Q 49.078125 41.75 51.78125 39.28125 
Q 54.5 36.8125 56 33.46875 
Q 57.515625 30.125 57.515625 26.3125 
Q 57.515625 20.90625 54.828125 15.96875 
Q 52.15625 11.03125 47.609375 7.078125 
Q 43.0625 3.125 37.46875 0.84375 
Q 31.890625 -1.421875 26.8125 -1.421875 
L 22.21875 -19.921875 
Q 22.015625 -20.515625 21.390625 -20.515625 
L 20.21875 -20.515625 
Q 19.828125 -20.515625 19.609375 -20.140625 
Q 19.390625 -19.78125 19.390625 -19.484375 
M 24.515625 1.21875 
L 34.71875 41.890625 
Q 32.171875 41.890625 29.390625 40.859375 
Q 26.609375 39.84375 24.140625 38.28125 
Q 21.6875 36.71875 19.671875 34.71875 
Q 17.234375 32.28125 15.375 28.953125 
Q 13.53125 25.640625 12.578125 21.953125 
Q 11.625 18.265625 11.625 14.703125 
Q 11.625 10.9375 13.234375 7.859375 
Q 14.84375 4.78125 17.765625 3 
Q 20.703125 1.21875 24.515625 1.21875 
M 27.484375 1.21875 
Q 31.25 1.21875 35.5 3.359375 
Q 39.75 5.515625 42.484375 8.40625 
Q 46.234375 12.109375 48.40625 17.5 
Q 50.59375 22.90625 50.59375 28.421875 
Q 50.59375 32.125 48.96875 35.21875 
Q 47.359375 38.328125 44.421875 40.109375 
Q 41.5 41.890625 37.703125 41.890625 
z
" id="Cmmi10-c1"/>
     <path d="M 9.28125 0 
L 9.28125 3.515625 
Q 21.78125 3.515625 21.78125 6.6875 
L 21.78125 59.1875 
Q 16.609375 56.6875 8.6875 56.6875 
L 8.6875 60.203125 
Q 20.953125 60.203125 27.203125 66.609375 
L 28.609375 66.609375 
Q 28.953125 66.609375 29.265625 66.328125 
Q 29.59375 66.0625 29.59375 65.71875 
L 29.59375 6.6875 
Q 29.59375 3.515625 42.09375 3.515625 
L 42.09375 0 
z
" id="Cmr10-31"/>
     <path d="M 7.515625 13.28125 
Q 6.6875 13.28125 6.140625 13.90625 
Q 5.609375 14.546875 5.609375 15.28125 
Q 5.609375 16.109375 6.140625 16.6875 
Q 6.6875 17.28125 7.515625 17.28125 
L 70.3125 17.28125 
Q 71.046875 17.28125 71.578125 16.6875 
Q 72.125 16.109375 72.125 15.28125 
Q 72.125 14.546875 71.578125 13.90625 
Q 71.046875 13.28125 70.3125 13.28125 
z
M 7.515625 32.71875 
Q 6.6875 32.71875 6.140625 33.296875 
Q 5.609375 33.890625 5.609375 34.71875 
Q 5.609375 35.453125 6.140625 36.078125 
Q 6.6875 36.71875 7.515625 36.71875 
L 70.3125 36.71875 
Q 71.046875 36.71875 71.578125 36.078125 
Q 72.125 35.453125 72.125 34.71875 
Q 72.125 33.890625 71.578125 33.296875 
Q 71.046875 32.71875 70.3125 32.71875 
z
" id="Cmr10-3d"/>
     <path d="M 8.015625 75.875 
L 15.828125 75.875 
Q 23.140625 64.359375 26.78125 53.3125 
Q 30.421875 42.28125 30.421875 31.390625 
Q 30.421875 20.453125 26.78125 9.375 
Q 23.140625 -1.703125 15.828125 -13.1875 
L 8.015625 -13.1875 
Q 14.5 -2 17.703125 9.0625 
Q 20.90625 20.125 20.90625 31.390625 
Q 20.90625 42.671875 17.703125 53.65625 
Q 14.5 64.65625 8.015625 75.875 
" id="BitstreamVeraSans-Roman-29"/>
     <path d="M 5.609375 -23 
Q 5.609375 -22.703125 5.71875 -22.609375 
L 40.484375 73.78125 
Q 40.671875 74.359375 41.15625 74.671875 
Q 41.65625 75 42.28125 75 
Q 43.171875 75 43.71875 74.453125 
Q 44.28125 73.921875 44.28125 73 
L 44.28125 72.609375 
L 9.515625 -23.78125 
Q 8.9375 -25 7.625 -25 
Q 6.78125 -25 6.1875 -24.40625 
Q 5.609375 -23.828125 5.609375 -23 
" id="Cmmi10-3d"/>
     <path d="M 4.390625 8.109375 
Q 4.390625 8.40625 4.46875 8.984375 
Q 4.546875 9.578125 4.609375 10.125 
Q 4.6875 10.6875 4.6875 10.984375 
L 17.09375 60.5 
Q 17.484375 62.203125 17.578125 63.1875 
Q 17.578125 64.796875 11.078125 64.796875 
Q 10.109375 64.796875 10.109375 66.109375 
Q 10.15625 66.359375 10.328125 66.984375 
Q 10.5 67.625 10.765625 67.96875 
Q 11.03125 68.3125 11.53125 68.3125 
L 25 69.390625 
Q 26.21875 69.390625 26.21875 68.109375 
L 11.8125 10.59375 
Q 11.078125 8.984375 11.078125 5.8125 
Q 11.078125 1.515625 14.015625 1.515625 
Q 17.09375 1.515625 18.625 5.34375 
Q 20.171875 9.1875 21.390625 14.703125 
Q 21.578125 15.28125 22.21875 15.28125 
L 23.390625 15.28125 
Q 23.78125 15.28125 24.046875 14.96875 
Q 24.3125 14.65625 24.3125 14.3125 
Q 23.140625 9.46875 22.1875 6.65625 
Q 21.234375 3.859375 19.140625 1.359375 
Q 17.046875 -1.125 13.8125 -1.125 
Q 9.8125 -1.125 7.09375 1.453125 
Q 4.390625 4.046875 4.390625 8.109375 
" id="Cmmi10-6c"/>
     <path d="M 48.78125 52.59375 
L 48.78125 44.1875 
Q 44.96875 46.296875 41.140625 47.34375 
Q 37.3125 48.390625 33.40625 48.390625 
Q 24.65625 48.390625 19.8125 42.84375 
Q 14.984375 37.3125 14.984375 27.296875 
Q 14.984375 17.28125 19.8125 11.734375 
Q 24.65625 6.203125 33.40625 6.203125 
Q 37.3125 6.203125 41.140625 7.25 
Q 44.96875 8.296875 48.78125 10.40625 
L 48.78125 2.09375 
Q 45.015625 0.34375 40.984375 -0.53125 
Q 36.96875 -1.421875 32.421875 -1.421875 
Q 20.0625 -1.421875 12.78125 6.34375 
Q 5.515625 14.109375 5.515625 27.296875 
Q 5.515625 40.671875 12.859375 48.328125 
Q 20.21875 56 33.015625 56 
Q 37.15625 56 41.109375 55.140625 
Q 45.0625 54.296875 48.78125 52.59375 
" id="BitstreamVeraSans-Roman-63"/>
     <path d="M -2.484375 -19.390625 
Q -3.421875 -19.390625 -3.421875 -18.109375 
Q -3.078125 -15.921875 -2.09375 -15.921875 
Q 1.03125 -15.921875 2.265625 -15.359375 
Q 3.515625 -14.796875 4.203125 -12.5 
L 15.484375 32.515625 
Q 16.21875 34.375 16.21875 37.3125 
Q 16.21875 41.609375 13.28125 41.609375 
Q 10.15625 41.609375 8.640625 37.859375 
Q 7.125 34.125 5.71875 28.421875 
Q 5.71875 27.78125 4.890625 27.78125 
L 3.71875 27.78125 
Q 3.46875 27.78125 3.171875 28.140625 
Q 2.875 28.515625 2.875 28.8125 
Q 3.953125 33.15625 4.953125 36.171875 
Q 5.953125 39.203125 8.078125 41.6875 
Q 10.203125 44.1875 13.375 44.1875 
Q 16.796875 44.1875 19.375 42.25 
Q 21.96875 40.328125 22.703125 37.015625 
Q 25.4375 40.1875 28.75 42.1875 
Q 32.078125 44.1875 35.59375 44.1875 
Q 39.796875 44.1875 42.890625 41.9375 
Q 46 39.703125 47.5625 36.0625 
Q 49.125 32.421875 49.125 28.21875 
Q 49.125 21.78125 45.828125 14.890625 
Q 42.53125 8.015625 36.890625 3.4375 
Q 31.25 -1.125 24.8125 -1.125 
Q 21.875 -1.125 19.5 0.53125 
Q 17.140625 2.203125 15.828125 4.890625 
L 11.28125 -12.890625 
Q 11.03125 -14.359375 10.984375 -14.59375 
Q 10.984375 -15.921875 17.578125 -15.921875 
Q 18.609375 -15.921875 18.609375 -17.1875 
Q 18.265625 -18.5 18.046875 -18.9375 
Q 17.828125 -19.390625 16.890625 -19.390625 
z
M 24.90625 1.515625 
Q 28.375 1.515625 31.34375 4.375 
Q 34.328125 7.234375 36.1875 10.796875 
Q 37.546875 13.484375 38.734375 17.359375 
Q 39.9375 21.234375 40.8125 25.625 
Q 41.703125 30.03125 41.703125 32.625 
Q 41.703125 34.90625 41.09375 36.90625 
Q 40.484375 38.921875 39.09375 40.265625 
Q 37.703125 41.609375 35.40625 41.609375 
Q 31.734375 41.609375 28.484375 38.984375 
Q 25.25 36.375 22.609375 32.515625 
L 22.609375 32.171875 
L 17.09375 10.109375 
Q 17.78125 6.546875 19.734375 4.03125 
Q 21.6875 1.515625 24.90625 1.515625 
" id="Cmmi10-70"/>
    </defs>
    <g transform="translate(47.28 52.6)scale(0.24 -0.24)">
     <use transform="translate(0.0 0.109375)" xlink:href="#Cmmi10-c1"/>
     <use transform="translate(77.080078125 0.109375)" xlink:href="#Cmr10-3d"/>
     <use transform="translate(172.32421875 0.109375)" xlink:href="#Cmr10-30"/>
     <use transform="translate(222.32421875 0.109375)" xlink:href="#Cmmi10-3a"/>
     <use transform="translate(267.568359375 0.109375)" xlink:href="#Cmr10-36"/>
     <use transform="translate(317.568359375 0.109375)" xlink:href="#Cmr10-35"/>
     <use transform="translate(367.568359375 0.109375)" xlink:href="#Cmmi10-3b"/>
     <use transform="translate(412.8125 0.109375)" xlink:href="#Cmmi10-6c"/>
     <use transform="translate(442.59765625 -16.896874999999994)scale(0.7)" xlink:href="#Cmmi10-70"/>
     <use transform="translate(484.180078125 0.109375)" xlink:href="#Cmmi10-3d"/>
     <use transform="translate(534.180078125 0.109375)" xlink:href="#Cmmi10-be"/>
     <use transform="translate(608.81875 0.109375)" xlink:href="#Cmr10-3d"/>
     <use transform="translate(704.062890625 0.109375)" xlink:href="#Cmr10-35"/>
     <use transform="translate(754.062890625 0.109375)" xlink:href="#Cmmi10-3b"/>
     <use transform="translate(799.30703125 0.109375)" xlink:href="#Cmmi10-4e"/>
     <use transform="translate(879.629296875 -16.896874999999994)scale(0.7)" xlink:href="#Cmmi10-63"/>
     <use transform="translate(909.8783203125 -16.896874999999994)scale(0.7)" xlink:href="#Cmmi10-6c"/>
     <use transform="translate(930.7279296875 -16.896874999999994)scale(0.7)" xlink:href="#Cmmi10-6f"/>
     <use transform="translate(964.6 -16.896874999999994)scale(0.7)" xlink:href="#Cmmi10-6e"/>
     <use transform="translate(1006.6068359375 -16.896874999999994)scale(0.7)" xlink:href="#Cmmi10-65"/>
     <use transform="translate(1039.1458984375001 -16.896874999999994)scale(0.7)" xlink:href="#Cmmi10-73"/>
     <use transform="translate(1095.8259765625 0.109375)" xlink:href="#Cmr10-3d"/>
     <use transform="translate(1191.0701171875 0.109375)" xlink:href="#Cmr10-31"/>
     <use transform="translate(1241.0701171875 0.109375)" xlink:href="#Cmr10-30"/>
     <use transform="translate(1295.5342578125 38.3734375)scale(0.7)" xlink:href="#Cmr10-32"/>
     <use transform="translate(1336.9116015625 0.109375)" xlink:href="#Cmmi10-3b"/>
     <use transform="translate(1382.1557421875 0.109375)" xlink:href="#Cmmi10-74"/>
     <use transform="translate(1418.2397265625 -16.896874999999994)scale(0.7)" xlink:href="#Cmmi10-74"/>
     <use transform="translate(1443.498515625 -16.896874999999994)scale(0.7)" xlink:href="#Cmmi10-6f"/>
     <use transform="translate(1477.3705859375 -16.896874999999994)scale(0.7)" xlink:href="#Cmmi10-74"/>
     <use transform="translate(1526.5653125 0.109375)" xlink:href="#Cmr10-3d"/>
     <use transform="translate(1621.809453125 0.109375)" xlink:href="#Cmr10-31"/>
     <use transform="translate(1671.809453125 0.109375)" xlink:href="#Cmr10-30"/>
     <use transform="translate(1721.809453125 0.109375)" xlink:href="#Cmr10-30"/>
     <use transform="translate(1771.809453125 0.109375)" xlink:href="#BitstreamVeraSans-Roman-20"/>
     <use transform="translate(1803.5965625 0.109375)" xlink:href="#BitstreamVeraSans-Roman-2014"/>
     <use transform="translate(1903.5965625 0.109375)" xlink:href="#BitstreamVeraSans-Roman-20"/>
     <use transform="translate(1935.383671875 0.109375)" xlink:href="#BitstreamVeraSans-Roman-63"/>
     <use transform="translate(1990.364140625 0.109375)" xlink:href="#BitstreamVeraSans-Roman-6f"/>
     <use transform="translate(2051.54578125 0.109375)" xlink:href="#BitstreamVeraSans-Roman-6e"/>
     <use transform="translate(2114.9246875 0.109375)" xlink:href="#BitstreamVeraSans-Roman-74"/>
     <use transform="translate(2154.133671875 0.109375)" xlink:href="#BitstreamVeraSans-Roman-72"/>
     <use transform="translate(2195.246953125 0.109375)" xlink:href="#BitstreamVeraSans-Roman-2e"/>
     <use transform="translate(2227.0340625 0.109375)" xlink:href="#BitstreamVeraSans-Roman-20"/>
     <use transform="translate(2258.821171875 0.109375)" xlink:href="#BitstreamVeraSans-Roman-74"/>
     <use transform="translate(2298.03015625 0.109375)" xlink:href="#BitstreamVeraSans-Roman-72"/>
     <use transform="translate(2339.1434375 0.109375)" xlink:href="#BitstreamVeraSans-Roman-61"/>
     <use transform="translate(2400.422734375 0.109375)" xlink:href="#BitstreamVeraSans-Roman-6e"/>
     <use transform="translate(2463.801640625 0.109375)" xlink:href="#BitstreamVeraSans-Roman-73"/>
     <use transform="translate(2515.90125 0.109375)" xlink:href="#BitstreamVeraSans-Roman-2e"/>
     <use transform="translate(2547.688359375 0.109375)" xlink:href="#BitstreamVeraSans-Roman-20"/>
     <use transform="translate(2579.47546875 0.109375)" xlink:href="#BitstreamVeraSans-Roman-26"/>
     <use transform="translate(2657.453984375 0.109375)" xlink:href="#BitstreamVeraSans-Roman-20"/>
     <use transform="translate(2689.24109375 0.109375)" xlink:href="#BitstreamVeraSans-Roman-72"/>
     <use transform="translate(2730.354375 0.109375)" xlink:href="#BitstreamVeraSans-Roman-6f"/>
     <use transform="translate(2791.536015625 0.109375)" xlink:href="#BitstreamVeraSans-Roman-74"/>
     <use transform="translate(2830.745 0.109375)" xlink:href="#BitstreamVeraSans-Roman-2e"/>
     <use transform="translate(2862.532109375 0.109375)" xlink:href="#BitstreamVeraSans-Roman-20"/>
     <use transform="translate(2894.31921875 0.109375)" xlink:href="#BitstreamVeraSans-Roman-45"/>
     <use transform="translate(2957.5028125 0.109375)" xlink:href="#BitstreamVeraSans-Roman-4f"/>
     <use transform="translate(3036.21375 0.109375)" xlink:href="#BitstreamVeraSans-Roman-4d"/>
     <use transform="translate(3122.493046875 0.109375)" xlink:href="#BitstreamVeraSans-Roman-20"/>
     <use transform="translate(3154.28015625 0.109375)" xlink:href="#BitstreamVeraSans-Roman-28"/>
     <use transform="translate(3193.293828125 0.109375)" xlink:href="#BitstreamVeraSans-Roman-31"/>
     <use transform="translate(3256.916875 0.109375)" xlink:href="#BitstreamVeraSans-Roman-29"/>
    </g>
   </g>
   <g id="legend_1">
    <g id="patch_7">
     <path d="M 692.4 155.325 
L 771.6 155.325 
L 771.6 63.6 
L 692.4 63.6 
z
" style="fill:#ffffff;stroke:#000000;stroke-linejoin:miter;"/>
    </g>
    <g id="LineCollection_6">
     <path d="M 700.8 79.325 
L 700.8 67.325 
" style="fill:none;stroke:#0028ff;"/>
     <path d="M 717.6 79.325 
L 717.6 67.325 
" style="fill:none;stroke:#0028ff;"/>
    </g>
    <g id="line2d_42">
     <g>
      <use style="fill:#0028ff;stroke:#0028ff;stroke-width:0.5;" x="700.8" xlink:href="#maa8a30b8da" y="79.325"/>
      <use style="fill:#0028ff;stroke:#0028ff;stroke-width:0.5;" x="717.6" xlink:href="#maa8a30b8da" y="79.325"/>
     </g>
    </g>
    <g id="line2d_43">
     <g>
      <use style="fill:#0028ff;stroke:#0028ff;stroke-width:0.5;" x="700.8" xlink:href="#maa8a30b8da" y="67.325"/>
      <use style="fill:#0028ff;stroke:#0028ff;stroke-width:0.5;" x="717.6" xlink:href="#maa8a30b8da" y="67.325"/>
     </g>
    </g>
    <g id="line2d_44">
     <path d="M 700.8 73.325 
L 717.6 73.325 
" style="fill:none;stroke:#0028ff;stroke-linecap:square;"/>
    </g>
    <g id="line2d_45"/>
    <g id="text_17">
     <!-- $N=10$ -->
     <g transform="translate(730.8 77.525)scale(0.12 -0.12)">
      <use transform="translate(0.0 0.6875)" xlink:href="#Cmmi10-4e"/>
      <use transform="translate(97.880859375 0.6875)" xlink:href="#Cmr10-3d"/>
      <use transform="translate(193.125 0.6875)" xlink:href="#Cmr10-31"/>
      <use transform="translate(243.125 0.6875)" xlink:href="#Cmr10-30"/>
     </g>
    </g>
    <g id="LineCollection_7">
     <path d="M 700.8 96.95 
L 700.8 84.95 
" style="fill:none;stroke:#00d4ff;"/>
     <path d="M 717.6 96.95 
L 717.6 84.95 
" style="fill:none;stroke:#00d4ff;"/>
    </g>
    <g id="line2d_46">
     <g>
      <use style="fill:#00d4ff;stroke:#00d4ff;stroke-width:0.5;" x="700.8" xlink:href="#m8ace41f083" y="96.95"/>
      <use style="fill:#00d4ff;stroke:#00d4ff;stroke-width:0.5;" x="717.6" xlink:href="#m8ace41f083" y="96.95"/>
     </g>
    </g>
    <g id="line2d_47">
     <g>
      <use style="fill:#00d4ff;stroke:#00d4ff;stroke-width:0.5;" x="700.8" xlink:href="#m8ace41f083" y="84.95"/>
      <use style="fill:#00d4ff;stroke:#00d4ff;stroke-width:0.5;" x="717.6" xlink:href="#m8ace41f083" y="84.95"/>
     </g>
    </g>
    <g id="line2d_48">
     <path d="M 700.8 90.95 
L 717.6 90.95 
" style="fill:none;stroke:#00d4ff;stroke-linecap:square;"/>
    </g>
    <g id="line2d_49"/>
    <g id="text_18">
     <!-- $N=20$ -->
     <g transform="translate(730.8 95.15)scale(0.12 -0.12)">
      <use transform="translate(0.0 0.6875)" xlink:href="#Cmmi10-4e"/>
      <use transform="translate(97.880859375 0.6875)" xlink:href="#Cmr10-3d"/>
      <use transform="translate(193.125 0.6875)" xlink:href="#Cmr10-32"/>
      <use transform="translate(243.125 0.6875)" xlink:href="#Cmr10-30"/>
     </g>
    </g>
    <g id="LineCollection_8">
     <path d="M 700.8 114.575 
L 700.8 102.575 
" style="fill:none;stroke:#7dff7a;"/>
     <path d="M 717.6 114.575 
L 717.6 102.575 
" style="fill:none;stroke:#7dff7a;"/>
    </g>
    <g id="line2d_50">
     <g>
      <use style="fill:#7dff7a;stroke:#7dff7a;stroke-width:0.5;" x="700.8" xlink:href="#m4a946e8509" y="114.575"/>
      <use style="fill:#7dff7a;stroke:#7dff7a;stroke-width:0.5;" x="717.6" xlink:href="#m4a946e8509" y="114.575"/>
     </g>
    </g>
    <g id="line2d_51">
     <g>
      <use style="fill:#7dff7a;stroke:#7dff7a;stroke-width:0.5;" x="700.8" xlink:href="#m4a946e8509" y="102.575"/>
      <use style="fill:#7dff7a;stroke:#7dff7a;stroke-width:0.5;" x="717.6" xlink:href="#m4a946e8509" y="102.575"/>
     </g>
    </g>
    <g id="line2d_52">
     <path d="M 700.8 108.575 
L 717.6 108.575 
" style="fill:none;stroke:#7dff7a;stroke-linecap:square;"/>
    </g>
    <g id="line2d_53"/>
    <g id="text_19">
     <!-- $N=30$ -->
     <defs>
      <path d="M 9.515625 7.71875 
Q 11.859375 4.296875 15.8125 2.640625 
Q 19.78125 0.984375 24.3125 0.984375 
Q 30.125 0.984375 32.5625 5.9375 
Q 35.015625 10.890625 35.015625 17.1875 
Q 35.015625 20.015625 34.5 22.84375 
Q 33.984375 25.6875 32.765625 28.125 
Q 31.546875 30.5625 29.421875 32.03125 
Q 27.296875 33.5 24.21875 33.5 
L 17.578125 33.5 
Q 16.703125 33.5 16.703125 34.421875 
L 16.703125 35.296875 
Q 16.703125 36.078125 17.578125 36.078125 
L 23.09375 36.53125 
Q 26.609375 36.53125 28.921875 39.15625 
Q 31.25 41.796875 32.328125 45.578125 
Q 33.40625 49.359375 33.40625 52.78125 
Q 33.40625 57.5625 31.15625 60.640625 
Q 28.90625 63.71875 24.3125 63.71875 
Q 20.515625 63.71875 17.046875 62.28125 
Q 13.578125 60.84375 11.53125 57.90625 
Q 11.71875 57.953125 11.859375 57.984375 
Q 12.015625 58.015625 12.203125 58.015625 
Q 14.453125 58.015625 15.96875 56.453125 
Q 17.484375 54.890625 17.484375 52.6875 
Q 17.484375 50.53125 15.96875 48.96875 
Q 14.453125 47.40625 12.203125 47.40625 
Q 10.015625 47.40625 8.453125 48.96875 
Q 6.890625 50.53125 6.890625 52.6875 
Q 6.890625 56.984375 9.46875 60.15625 
Q 12.0625 63.328125 16.140625 64.96875 
Q 20.21875 66.609375 24.3125 66.609375 
Q 27.34375 66.609375 30.703125 65.703125 
Q 34.078125 64.796875 36.8125 63.109375 
Q 39.546875 61.421875 41.28125 58.78125 
Q 43.015625 56.15625 43.015625 52.78125 
Q 43.015625 48.578125 41.140625 45.015625 
Q 39.265625 41.453125 35.984375 38.859375 
Q 32.71875 36.28125 28.8125 35.015625 
Q 33.15625 34.1875 37.0625 31.734375 
Q 40.96875 29.296875 43.328125 25.484375 
Q 45.703125 21.6875 45.703125 17.28125 
Q 45.703125 11.765625 42.671875 7.296875 
Q 39.65625 2.828125 34.71875 0.3125 
Q 29.78125 -2.203125 24.3125 -2.203125 
Q 19.625 -2.203125 14.90625 -0.40625 
Q 10.203125 1.375 7.203125 4.9375 
Q 4.203125 8.5 4.203125 13.484375 
Q 4.203125 15.96875 5.859375 17.625 
Q 7.515625 19.28125 10.015625 19.28125 
Q 11.625 19.28125 12.96875 18.53125 
Q 14.3125 17.78125 15.0625 16.40625 
Q 15.828125 15.046875 15.828125 13.484375 
Q 15.828125 11.03125 14.109375 9.375 
Q 12.40625 7.71875 10.015625 7.71875 
z
" id="Cmr10-33"/>
     </defs>
     <g transform="translate(730.8 112.775)scale(0.12 -0.12)">
      <use transform="translate(0.0 0.6875)" xlink:href="#Cmmi10-4e"/>
      <use transform="translate(97.880859375 0.6875)" xlink:href="#Cmr10-3d"/>
      <use transform="translate(193.125 0.6875)" xlink:href="#Cmr10-33"/>
      <use transform="translate(243.125 0.6875)" xlink:href="#Cmr10-30"/>
     </g>
    </g>
    <g id="LineCollection_9">
     <path d="M 700.8 132.2 
L 700.8 120.2 
" style="fill:none;stroke:#ffe600;"/>
     <path d="M 717.6 132.2 
L 717.6 120.2 
" style="fill:none;stroke:#ffe600;"/>
    </g>
    <g id="line2d_54">
     <g>
      <use style="fill:#ffe600;stroke:#ffe600;stroke-width:0.5;" x="700.8" xlink:href="#m01e7b38517" y="132.2"/>
      <use style="fill:#ffe600;stroke:#ffe600;stroke-width:0.5;" x="717.6" xlink:href="#m01e7b38517" y="132.2"/>
     </g>
    </g>
    <g id="line2d_55">
     <g>
      <use style="fill:#ffe600;stroke:#ffe600;stroke-width:0.5;" x="700.8" xlink:href="#m01e7b38517" y="120.2"/>
      <use style="fill:#ffe600;stroke:#ffe600;stroke-width:0.5;" x="717.6" xlink:href="#m01e7b38517" y="120.2"/>
     </g>
    </g>
    <g id="line2d_56">
     <path d="M 700.8 126.2 
L 717.6 126.2 
" style="fill:none;stroke:#ffe600;stroke-linecap:square;"/>
    </g>
    <g id="line2d_57"/>
    <g id="text_20">
     <!-- $N=40$ -->
     <defs>
      <path d="M 2.78125 16.5 
L 2.78125 20.015625 
L 33.6875 66.109375 
Q 34.03125 66.609375 34.71875 66.609375 
L 36.1875 66.609375 
Q 37.3125 66.609375 37.3125 65.484375 
L 37.3125 20.015625 
L 47.125 20.015625 
L 47.125 16.5 
L 37.3125 16.5 
L 37.3125 6.6875 
Q 37.3125 4.640625 40.234375 4.078125 
Q 43.171875 3.515625 47.015625 3.515625 
L 47.015625 0 
L 19.484375 0 
L 19.484375 3.515625 
Q 23.34375 3.515625 26.265625 4.078125 
Q 29.203125 4.640625 29.203125 6.6875 
L 29.203125 16.5 
z
M 6.109375 20.015625 
L 29.78125 20.015625 
L 29.78125 55.421875 
z
" id="Cmr10-34"/>
     </defs>
     <g transform="translate(730.8 130.4)scale(0.12 -0.12)">
      <use transform="translate(0.0 0.6875)" xlink:href="#Cmmi10-4e"/>
      <use transform="translate(97.880859375 0.6875)" xlink:href="#Cmr10-3d"/>
      <use transform="translate(193.125 0.6875)" xlink:href="#Cmr10-34"/>
      <use transform="translate(243.125 0.6875)" xlink:href="#Cmr10-30"/>
     </g>
    </g>
    <g id="LineCollection_10">
     <path d="M 700.8 149.825 
L 700.8 137.825 
" style="fill:none;stroke:#ff4700;"/>
     <path d="M 717.6 149.825 
L 717.6 137.825 
" style="fill:none;stroke:#ff4700;"/>
    </g>
    <g id="line2d_58">
     <g>
      <use style="fill:#ff4700;stroke:#ff4700;stroke-width:0.5;" x="700.8" xlink:href="#m05e2fb757d" y="149.825"/>
      <use style="fill:#ff4700;stroke:#ff4700;stroke-width:0.5;" x="717.6" xlink:href="#m05e2fb757d" y="149.825"/>
     </g>
    </g>
    <g id="line2d_59">
     <g>
      <use style="fill:#ff4700;stroke:#ff4700;stroke-width:0.5;" x="700.8" xlink:href="#m05e2fb757d" y="137.825"/>
      <use style="fill:#ff4700;stroke:#ff4700;stroke-width:0.5;" x="717.6" xlink:href="#m05e2fb757d" y="137.825"/>
     </g>
    </g>
    <g id="line2d_60">
     <path d="M 700.8 143.825 
L 717.6 143.825 
" style="fill:none;stroke:#ff4700;stroke-linecap:square;"/>
    </g>
    <g id="line2d_61"/>
    <g id="text_21">
     <!-- $N=50$ -->
     <g transform="translate(730.8 148.025)scale(0.12 -0.12)">
      <use transform="translate(0.0 0.6875)" xlink:href="#Cmmi10-4e"/>
      <use transform="translate(97.880859375 0.6875)" xlink:href="#Cmr10-3d"/>
      <use transform="translate(193.125 0.6875)" xlink:href="#Cmr10-35"/>
      <use transform="translate(243.125 0.6875)" xlink:href="#Cmr10-30"/>
     </g>
    </g>
   </g>
  </g>
 </g>
 <defs>
  <clipPath id="pd0e97e8ae3">
   <rect height="460.8" width="669.6" x="108.0" y="57.6"/>
  </clipPath>
 </defs>
</svg>
