<?xml version="1.0" encoding="utf-8" standalone="no"?>
<!DOCTYPE svg PUBLIC "-//W3C//DTD SVG 1.1//EN"
  "http://www.w3.org/Graphics/SVG/1.1/DTD/svg11.dtd">
<!-- Created with matplotlib (https://matplotlib.org/) -->
<svg height="576pt" version="1.1" viewBox="0 0 864 576" width="864pt" xmlns="http://www.w3.org/2000/svg" xmlns:xlink="http://www.w3.org/1999/xlink">
 <defs>
  <style type="text/css">
*{stroke-linecap:butt;stroke-linejoin:round;}
  </style>
 </defs>
 <g id="figure_1">
  <g id="patch_1">
   <path d="M 0 576 
L 864 576 
L 864 0 
L 0 0 
z
" style="fill:#ffffff;"/>
  </g>
  <g id="axes_1">
   <g id="patch_2">
    <path d="M 108 518.4 
L 777.6 518.4 
L 777.6 57.6 
L 108 57.6 
z
" style="fill:#ffffff;"/>
   </g>
   <g id="LineCollection_1">
    <path clip-path="url(#p53b16a734e)" d="M 179.742857 83.296092 
L 179.742857 76.855788 
" style="fill:none;stroke:#0028ff;"/>
    <path clip-path="url(#p53b16a734e)" d="M 239.528571 95.73724 
L 239.528571 90.393742 
" style="fill:none;stroke:#0028ff;"/>
    <path clip-path="url(#p53b16a734e)" d="M 299.314286 105.877721 
L 299.314286 100.874644 
" style="fill:none;stroke:#0028ff;"/>
    <path clip-path="url(#p53b16a734e)" d="M 359.1 127.255333 
L 359.1 121.684511 
" style="fill:none;stroke:#0028ff;"/>
    <path clip-path="url(#p53b16a734e)" d="M 418.885714 161.543419 
L 418.885714 155.305926 
" style="fill:none;stroke:#0028ff;"/>
    <path clip-path="url(#p53b16a734e)" d="M 478.671429 206.545891 
L 478.671429 198.752685 
" style="fill:none;stroke:#0028ff;"/>
    <path clip-path="url(#p53b16a734e)" d="M 538.457143 265.773389 
L 538.457143 257.092731 
" style="fill:none;stroke:#0028ff;"/>
    <path clip-path="url(#p53b16a734e)" d="M 598.242857 328.646 
L 598.242857 324.461887 
" style="fill:none;stroke:#0028ff;"/>
    <path clip-path="url(#p53b16a734e)" d="M 658.028571 374.731778 
L 658.028571 369.810048 
" style="fill:none;stroke:#0028ff;"/>
    <path clip-path="url(#p53b16a734e)" d="M 717.814286 408.770693 
L 717.814286 406.513522 
" style="fill:none;stroke:#0028ff;"/>
    <path clip-path="url(#p53b16a734e)" d="M 777.6 428.590512 
L 777.6 427.817713 
" style="fill:none;stroke:#0028ff;"/>
   </g>
   <g id="LineCollection_2">
    <path clip-path="url(#p53b16a734e)" d="M 179.742857 107.443106 
L 179.742857 100.93059 
" style="fill:none;stroke:#00d4ff;"/>
    <path clip-path="url(#p53b16a734e)" d="M 239.528571 117.55573 
L 239.528571 113.369578 
" style="fill:none;stroke:#00d4ff;"/>
    <path clip-path="url(#p53b16a734e)" d="M 299.314286 124.62266 
L 299.314286 120.667567 
" style="fill:none;stroke:#00d4ff;"/>
    <path clip-path="url(#p53b16a734e)" d="M 359.1 145.816132 
L 359.1 139.79912 
" style="fill:none;stroke:#00d4ff;"/>
    <path clip-path="url(#p53b16a734e)" d="M 418.885714 169.82502 
L 418.885714 163.492388 
" style="fill:none;stroke:#00d4ff;"/>
    <path clip-path="url(#p53b16a734e)" d="M 478.671429 213.056394 
L 478.671429 205.344283 
" style="fill:none;stroke:#00d4ff;"/>
    <path clip-path="url(#p53b16a734e)" d="M 538.457143 282.196141 
L 538.457143 270.933684 
" style="fill:none;stroke:#00d4ff;"/>
    <path clip-path="url(#p53b16a734e)" d="M 598.242857 377.340821 
L 598.242857 368.180164 
" style="fill:none;stroke:#00d4ff;"/>
    <path clip-path="url(#p53b16a734e)" d="M 658.028571 418.599722 
L 658.028571 413.476175 
" style="fill:none;stroke:#00d4ff;"/>
    <path clip-path="url(#p53b16a734e)" d="M 717.814286 447.253954 
L 717.814286 444.206252 
" style="fill:none;stroke:#00d4ff;"/>
    <path clip-path="url(#p53b16a734e)" d="M 777.6 468.120863 
L 777.6 467.090332 
" style="fill:none;stroke:#00d4ff;"/>
   </g>
   <g id="LineCollection_3">
    <path clip-path="url(#p53b16a734e)" d="M 179.742857 122.064069 
L 179.742857 118.074439 
" style="fill:none;stroke:#7dff7a;"/>
    <path clip-path="url(#p53b16a734e)" d="M 239.528571 139.036112 
L 239.528571 129.681068 
" style="fill:none;stroke:#7dff7a;"/>
    <path clip-path="url(#p53b16a734e)" d="M 299.314286 138.50541 
L 299.314286 135.722794 
" style="fill:none;stroke:#7dff7a;"/>
    <path clip-path="url(#p53b16a734e)" d="M 359.1 153.892781 
L 359.1 148.491352 
" style="fill:none;stroke:#7dff7a;"/>
    <path clip-path="url(#p53b16a734e)" d="M 418.885714 176.907955 
L 418.885714 171.903824 
" style="fill:none;stroke:#7dff7a;"/>
    <path clip-path="url(#p53b16a734e)" d="M 478.671429 218.717722 
L 478.671429 210.285763 
" style="fill:none;stroke:#7dff7a;"/>
    <path clip-path="url(#p53b16a734e)" d="M 538.457143 281.701397 
L 538.457143 270.81045 
" style="fill:none;stroke:#7dff7a;"/>
    <path clip-path="url(#p53b16a734e)" d="M 598.242857 386.098063 
L 598.242857 379.912036 
" style="fill:none;stroke:#7dff7a;"/>
    <path clip-path="url(#p53b16a734e)" d="M 658.028571 432.576538 
L 658.028571 429.039172 
" style="fill:none;stroke:#7dff7a;"/>
    <path clip-path="url(#p53b16a734e)" d="M 717.814286 454.199887 
L 717.814286 452.243476 
" style="fill:none;stroke:#7dff7a;"/>
    <path clip-path="url(#p53b16a734e)" d="M 777.6 473.138236 
L 777.6 472.653898 
" style="fill:none;stroke:#7dff7a;"/>
   </g>
   <g id="LineCollection_4">
    <path clip-path="url(#p53b16a734e)" d="M 179.742857 150.159039 
L 179.742857 141.479745 
" style="fill:none;stroke:#ffe600;"/>
    <path clip-path="url(#p53b16a734e)" d="M 239.528571 155.86369 
L 239.528571 145.486949 
" style="fill:none;stroke:#ffe600;"/>
    <path clip-path="url(#p53b16a734e)" d="M 299.314286 152.454411 
L 299.314286 146.622241 
" style="fill:none;stroke:#ffe600;"/>
    <path clip-path="url(#p53b16a734e)" d="M 359.1 164.776286 
L 359.1 162.684894 
" style="fill:none;stroke:#ffe600;"/>
    <path clip-path="url(#p53b16a734e)" d="M 418.885714 188.800316 
L 418.885714 181.24042 
" style="fill:none;stroke:#ffe600;"/>
    <path clip-path="url(#p53b16a734e)" d="M 478.671429 219.864398 
L 478.671429 214.139197 
" style="fill:none;stroke:#ffe600;"/>
    <path clip-path="url(#p53b16a734e)" d="M 538.457143 278.44275 
L 538.457143 270.37068 
" style="fill:none;stroke:#ffe600;"/>
    <path clip-path="url(#p53b16a734e)" d="M 598.242857 393.583535 
L 598.242857 386.147254 
" style="fill:none;stroke:#ffe600;"/>
    <path clip-path="url(#p53b16a734e)" d="M 658.028571 436.319428 
L 658.028571 432.087209 
" style="fill:none;stroke:#ffe600;"/>
    <path clip-path="url(#p53b16a734e)" d="M 717.814286 457.823242 
L 717.814286 455.030524 
" style="fill:none;stroke:#ffe600;"/>
    <path clip-path="url(#p53b16a734e)" d="M 777.6 476.508094 
L 777.6 475.98766 
" style="fill:none;stroke:#ffe600;"/>
   </g>
   <g id="LineCollection_5">
    <path clip-path="url(#p53b16a734e)" d="M 179.742857 162.914257 
L 179.742857 157.114355 
" style="fill:none;stroke:#ff4700;"/>
    <path clip-path="url(#p53b16a734e)" d="M 239.528571 167.016512 
L 239.528571 162.561172 
" style="fill:none;stroke:#ff4700;"/>
    <path clip-path="url(#p53b16a734e)" d="M 299.314286 176.675166 
L 299.314286 170.773339 
" style="fill:none;stroke:#ff4700;"/>
    <path clip-path="url(#p53b16a734e)" d="M 359.1 187.28783 
L 359.1 173.440014 
" style="fill:none;stroke:#ff4700;"/>
    <path clip-path="url(#p53b16a734e)" d="M 418.885714 193.128614 
L 418.885714 189.179678 
" style="fill:none;stroke:#ff4700;"/>
    <path clip-path="url(#p53b16a734e)" d="M 478.671429 227.837252 
L 478.671429 221.885767 
" style="fill:none;stroke:#ff4700;"/>
    <path clip-path="url(#p53b16a734e)" d="M 538.457143 281.408698 
L 538.457143 277.393643 
" style="fill:none;stroke:#ff4700;"/>
    <path clip-path="url(#p53b16a734e)" d="M 598.242857 400.766405 
L 598.242857 395.032377 
" style="fill:none;stroke:#ff4700;"/>
    <path clip-path="url(#p53b16a734e)" d="M 658.028571 439.812892 
L 658.028571 435.296254 
" style="fill:none;stroke:#ff4700;"/>
    <path clip-path="url(#p53b16a734e)" d="M 717.814286 461.087952 
L 717.814286 459.274317 
" style="fill:none;stroke:#ff4700;"/>
    <path clip-path="url(#p53b16a734e)" d="M 777.6 477.696703 
L 777.6 477.334479 
" style="fill:none;stroke:#ff4700;"/>
   </g>
   <g id="line2d_1">
    <defs>
     <path d="M 3 0 
L -3 -0 
" id="m32ac357408" style="stroke:#0028ff;stroke-width:0.5;"/>
    </defs>
    <g clip-path="url(#p53b16a734e)">
     <use style="fill:#0028ff;stroke:#0028ff;stroke-width:0.5;" x="179.742857" xlink:href="#m32ac357408" y="83.296092"/>
     <use style="fill:#0028ff;stroke:#0028ff;stroke-width:0.5;" x="239.528571" xlink:href="#m32ac357408" y="95.73724"/>
     <use style="fill:#0028ff;stroke:#0028ff;stroke-width:0.5;" x="299.314286" xlink:href="#m32ac357408" y="105.877721"/>
     <use style="fill:#0028ff;stroke:#0028ff;stroke-width:0.5;" x="359.1" xlink:href="#m32ac357408" y="127.255333"/>
     <use style="fill:#0028ff;stroke:#0028ff;stroke-width:0.5;" x="418.885714" xlink:href="#m32ac357408" y="161.543419"/>
     <use style="fill:#0028ff;stroke:#0028ff;stroke-width:0.5;" x="478.671429" xlink:href="#m32ac357408" y="206.545891"/>
     <use style="fill:#0028ff;stroke:#0028ff;stroke-width:0.5;" x="538.457143" xlink:href="#m32ac357408" y="265.773389"/>
     <use style="fill:#0028ff;stroke:#0028ff;stroke-width:0.5;" x="598.242857" xlink:href="#m32ac357408" y="328.646"/>
     <use style="fill:#0028ff;stroke:#0028ff;stroke-width:0.5;" x="658.028571" xlink:href="#m32ac357408" y="374.731778"/>
     <use style="fill:#0028ff;stroke:#0028ff;stroke-width:0.5;" x="717.814286" xlink:href="#m32ac357408" y="408.770693"/>
     <use style="fill:#0028ff;stroke:#0028ff;stroke-width:0.5;" x="777.6" xlink:href="#m32ac357408" y="428.590512"/>
    </g>
   </g>
   <g id="line2d_2">
    <g clip-path="url(#p53b16a734e)">
     <use style="fill:#0028ff;stroke:#0028ff;stroke-width:0.5;" x="179.742857" xlink:href="#m32ac357408" y="76.855788"/>
     <use style="fill:#0028ff;stroke:#0028ff;stroke-width:0.5;" x="239.528571" xlink:href="#m32ac357408" y="90.393742"/>
     <use style="fill:#0028ff;stroke:#0028ff;stroke-width:0.5;" x="299.314286" xlink:href="#m32ac357408" y="100.874644"/>
     <use style="fill:#0028ff;stroke:#0028ff;stroke-width:0.5;" x="359.1" xlink:href="#m32ac357408" y="121.684511"/>
     <use style="fill:#0028ff;stroke:#0028ff;stroke-width:0.5;" x="418.885714" xlink:href="#m32ac357408" y="155.305926"/>
     <use style="fill:#0028ff;stroke:#0028ff;stroke-width:0.5;" x="478.671429" xlink:href="#m32ac357408" y="198.752685"/>
     <use style="fill:#0028ff;stroke:#0028ff;stroke-width:0.5;" x="538.457143" xlink:href="#m32ac357408" y="257.092731"/>
     <use style="fill:#0028ff;stroke:#0028ff;stroke-width:0.5;" x="598.242857" xlink:href="#m32ac357408" y="324.461887"/>
     <use style="fill:#0028ff;stroke:#0028ff;stroke-width:0.5;" x="658.028571" xlink:href="#m32ac357408" y="369.810048"/>
     <use style="fill:#0028ff;stroke:#0028ff;stroke-width:0.5;" x="717.814286" xlink:href="#m32ac357408" y="406.513522"/>
     <use style="fill:#0028ff;stroke:#0028ff;stroke-width:0.5;" x="777.6" xlink:href="#m32ac357408" y="427.817713"/>
    </g>
   </g>
   <g id="line2d_3">
    <defs>
     <path d="M 3 0 
L -3 -0 
" id="ma7dd431702" style="stroke:#00d4ff;stroke-width:0.5;"/>
    </defs>
    <g clip-path="url(#p53b16a734e)">
     <use style="fill:#00d4ff;stroke:#00d4ff;stroke-width:0.5;" x="179.742857" xlink:href="#ma7dd431702" y="107.443106"/>
     <use style="fill:#00d4ff;stroke:#00d4ff;stroke-width:0.5;" x="239.528571" xlink:href="#ma7dd431702" y="117.55573"/>
     <use style="fill:#00d4ff;stroke:#00d4ff;stroke-width:0.5;" x="299.314286" xlink:href="#ma7dd431702" y="124.62266"/>
     <use style="fill:#00d4ff;stroke:#00d4ff;stroke-width:0.5;" x="359.1" xlink:href="#ma7dd431702" y="145.816132"/>
     <use style="fill:#00d4ff;stroke:#00d4ff;stroke-width:0.5;" x="418.885714" xlink:href="#ma7dd431702" y="169.82502"/>
     <use style="fill:#00d4ff;stroke:#00d4ff;stroke-width:0.5;" x="478.671429" xlink:href="#ma7dd431702" y="213.056394"/>
     <use style="fill:#00d4ff;stroke:#00d4ff;stroke-width:0.5;" x="538.457143" xlink:href="#ma7dd431702" y="282.196141"/>
     <use style="fill:#00d4ff;stroke:#00d4ff;stroke-width:0.5;" x="598.242857" xlink:href="#ma7dd431702" y="377.340821"/>
     <use style="fill:#00d4ff;stroke:#00d4ff;stroke-width:0.5;" x="658.028571" xlink:href="#ma7dd431702" y="418.599722"/>
     <use style="fill:#00d4ff;stroke:#00d4ff;stroke-width:0.5;" x="717.814286" xlink:href="#ma7dd431702" y="447.253954"/>
     <use style="fill:#00d4ff;stroke:#00d4ff;stroke-width:0.5;" x="777.6" xlink:href="#ma7dd431702" y="468.120863"/>
    </g>
   </g>
   <g id="line2d_4">
    <g clip-path="url(#p53b16a734e)">
     <use style="fill:#00d4ff;stroke:#00d4ff;stroke-width:0.5;" x="179.742857" xlink:href="#ma7dd431702" y="100.93059"/>
     <use style="fill:#00d4ff;stroke:#00d4ff;stroke-width:0.5;" x="239.528571" xlink:href="#ma7dd431702" y="113.369578"/>
     <use style="fill:#00d4ff;stroke:#00d4ff;stroke-width:0.5;" x="299.314286" xlink:href="#ma7dd431702" y="120.667567"/>
     <use style="fill:#00d4ff;stroke:#00d4ff;stroke-width:0.5;" x="359.1" xlink:href="#ma7dd431702" y="139.79912"/>
     <use style="fill:#00d4ff;stroke:#00d4ff;stroke-width:0.5;" x="418.885714" xlink:href="#ma7dd431702" y="163.492388"/>
     <use style="fill:#00d4ff;stroke:#00d4ff;stroke-width:0.5;" x="478.671429" xlink:href="#ma7dd431702" y="205.344283"/>
     <use style="fill:#00d4ff;stroke:#00d4ff;stroke-width:0.5;" x="538.457143" xlink:href="#ma7dd431702" y="270.933684"/>
     <use style="fill:#00d4ff;stroke:#00d4ff;stroke-width:0.5;" x="598.242857" xlink:href="#ma7dd431702" y="368.180164"/>
     <use style="fill:#00d4ff;stroke:#00d4ff;stroke-width:0.5;" x="658.028571" xlink:href="#ma7dd431702" y="413.476175"/>
     <use style="fill:#00d4ff;stroke:#00d4ff;stroke-width:0.5;" x="717.814286" xlink:href="#ma7dd431702" y="444.206252"/>
     <use style="fill:#00d4ff;stroke:#00d4ff;stroke-width:0.5;" x="777.6" xlink:href="#ma7dd431702" y="467.090332"/>
    </g>
   </g>
   <g id="line2d_5">
    <defs>
     <path d="M 3 0 
L -3 -0 
" id="m54d481c9ea" style="stroke:#7dff7a;stroke-width:0.5;"/>
    </defs>
    <g clip-path="url(#p53b16a734e)">
     <use style="fill:#7dff7a;stroke:#7dff7a;stroke-width:0.5;" x="179.742857" xlink:href="#m54d481c9ea" y="122.064069"/>
     <use style="fill:#7dff7a;stroke:#7dff7a;stroke-width:0.5;" x="239.528571" xlink:href="#m54d481c9ea" y="139.036112"/>
     <use style="fill:#7dff7a;stroke:#7dff7a;stroke-width:0.5;" x="299.314286" xlink:href="#m54d481c9ea" y="138.50541"/>
     <use style="fill:#7dff7a;stroke:#7dff7a;stroke-width:0.5;" x="359.1" xlink:href="#m54d481c9ea" y="153.892781"/>
     <use style="fill:#7dff7a;stroke:#7dff7a;stroke-width:0.5;" x="418.885714" xlink:href="#m54d481c9ea" y="176.907955"/>
     <use style="fill:#7dff7a;stroke:#7dff7a;stroke-width:0.5;" x="478.671429" xlink:href="#m54d481c9ea" y="218.717722"/>
     <use style="fill:#7dff7a;stroke:#7dff7a;stroke-width:0.5;" x="538.457143" xlink:href="#m54d481c9ea" y="281.701397"/>
     <use style="fill:#7dff7a;stroke:#7dff7a;stroke-width:0.5;" x="598.242857" xlink:href="#m54d481c9ea" y="386.098063"/>
     <use style="fill:#7dff7a;stroke:#7dff7a;stroke-width:0.5;" x="658.028571" xlink:href="#m54d481c9ea" y="432.576538"/>
     <use style="fill:#7dff7a;stroke:#7dff7a;stroke-width:0.5;" x="717.814286" xlink:href="#m54d481c9ea" y="454.199887"/>
     <use style="fill:#7dff7a;stroke:#7dff7a;stroke-width:0.5;" x="777.6" xlink:href="#m54d481c9ea" y="473.138236"/>
    </g>
   </g>
   <g id="line2d_6">
    <g clip-path="url(#p53b16a734e)">
     <use style="fill:#7dff7a;stroke:#7dff7a;stroke-width:0.5;" x="179.742857" xlink:href="#m54d481c9ea" y="118.074439"/>
     <use style="fill:#7dff7a;stroke:#7dff7a;stroke-width:0.5;" x="239.528571" xlink:href="#m54d481c9ea" y="129.681068"/>
     <use style="fill:#7dff7a;stroke:#7dff7a;stroke-width:0.5;" x="299.314286" xlink:href="#m54d481c9ea" y="135.722794"/>
     <use style="fill:#7dff7a;stroke:#7dff7a;stroke-width:0.5;" x="359.1" xlink:href="#m54d481c9ea" y="148.491352"/>
     <use style="fill:#7dff7a;stroke:#7dff7a;stroke-width:0.5;" x="418.885714" xlink:href="#m54d481c9ea" y="171.903824"/>
     <use style="fill:#7dff7a;stroke:#7dff7a;stroke-width:0.5;" x="478.671429" xlink:href="#m54d481c9ea" y="210.285763"/>
     <use style="fill:#7dff7a;stroke:#7dff7a;stroke-width:0.5;" x="538.457143" xlink:href="#m54d481c9ea" y="270.81045"/>
     <use style="fill:#7dff7a;stroke:#7dff7a;stroke-width:0.5;" x="598.242857" xlink:href="#m54d481c9ea" y="379.912036"/>
     <use style="fill:#7dff7a;stroke:#7dff7a;stroke-width:0.5;" x="658.028571" xlink:href="#m54d481c9ea" y="429.039172"/>
     <use style="fill:#7dff7a;stroke:#7dff7a;stroke-width:0.5;" x="717.814286" xlink:href="#m54d481c9ea" y="452.243476"/>
     <use style="fill:#7dff7a;stroke:#7dff7a;stroke-width:0.5;" x="777.6" xlink:href="#m54d481c9ea" y="472.653898"/>
    </g>
   </g>
   <g id="line2d_7">
    <defs>
     <path d="M 3 0 
L -3 -0 
" id="m75452c8fe7" style="stroke:#ffe600;stroke-width:0.5;"/>
    </defs>
    <g clip-path="url(#p53b16a734e)">
     <use style="fill:#ffe600;stroke:#ffe600;stroke-width:0.5;" x="179.742857" xlink:href="#m75452c8fe7" y="150.159039"/>
     <use style="fill:#ffe600;stroke:#ffe600;stroke-width:0.5;" x="239.528571" xlink:href="#m75452c8fe7" y="155.86369"/>
     <use style="fill:#ffe600;stroke:#ffe600;stroke-width:0.5;" x="299.314286" xlink:href="#m75452c8fe7" y="152.454411"/>
     <use style="fill:#ffe600;stroke:#ffe600;stroke-width:0.5;" x="359.1" xlink:href="#m75452c8fe7" y="164.776286"/>
     <use style="fill:#ffe600;stroke:#ffe600;stroke-width:0.5;" x="418.885714" xlink:href="#m75452c8fe7" y="188.800316"/>
     <use style="fill:#ffe600;stroke:#ffe600;stroke-width:0.5;" x="478.671429" xlink:href="#m75452c8fe7" y="219.864398"/>
     <use style="fill:#ffe600;stroke:#ffe600;stroke-width:0.5;" x="538.457143" xlink:href="#m75452c8fe7" y="278.44275"/>
     <use style="fill:#ffe600;stroke:#ffe600;stroke-width:0.5;" x="598.242857" xlink:href="#m75452c8fe7" y="393.583535"/>
     <use style="fill:#ffe600;stroke:#ffe600;stroke-width:0.5;" x="658.028571" xlink:href="#m75452c8fe7" y="436.319428"/>
     <use style="fill:#ffe600;stroke:#ffe600;stroke-width:0.5;" x="717.814286" xlink:href="#m75452c8fe7" y="457.823242"/>
     <use style="fill:#ffe600;stroke:#ffe600;stroke-width:0.5;" x="777.6" xlink:href="#m75452c8fe7" y="476.508094"/>
    </g>
   </g>
   <g id="line2d_8">
    <g clip-path="url(#p53b16a734e)">
     <use style="fill:#ffe600;stroke:#ffe600;stroke-width:0.5;" x="179.742857" xlink:href="#m75452c8fe7" y="141.479745"/>
     <use style="fill:#ffe600;stroke:#ffe600;stroke-width:0.5;" x="239.528571" xlink:href="#m75452c8fe7" y="145.486949"/>
     <use style="fill:#ffe600;stroke:#ffe600;stroke-width:0.5;" x="299.314286" xlink:href="#m75452c8fe7" y="146.622241"/>
     <use style="fill:#ffe600;stroke:#ffe600;stroke-width:0.5;" x="359.1" xlink:href="#m75452c8fe7" y="162.684894"/>
     <use style="fill:#ffe600;stroke:#ffe600;stroke-width:0.5;" x="418.885714" xlink:href="#m75452c8fe7" y="181.24042"/>
     <use style="fill:#ffe600;stroke:#ffe600;stroke-width:0.5;" x="478.671429" xlink:href="#m75452c8fe7" y="214.139197"/>
     <use style="fill:#ffe600;stroke:#ffe600;stroke-width:0.5;" x="538.457143" xlink:href="#m75452c8fe7" y="270.37068"/>
     <use style="fill:#ffe600;stroke:#ffe600;stroke-width:0.5;" x="598.242857" xlink:href="#m75452c8fe7" y="386.147254"/>
     <use style="fill:#ffe600;stroke:#ffe600;stroke-width:0.5;" x="658.028571" xlink:href="#m75452c8fe7" y="432.087209"/>
     <use style="fill:#ffe600;stroke:#ffe600;stroke-width:0.5;" x="717.814286" xlink:href="#m75452c8fe7" y="455.030524"/>
     <use style="fill:#ffe600;stroke:#ffe600;stroke-width:0.5;" x="777.6" xlink:href="#m75452c8fe7" y="475.98766"/>
    </g>
   </g>
   <g id="line2d_9">
    <defs>
     <path d="M 3 0 
L -3 -0 
" id="maf6612a2b0" style="stroke:#ff4700;stroke-width:0.5;"/>
    </defs>
    <g clip-path="url(#p53b16a734e)">
     <use style="fill:#ff4700;stroke:#ff4700;stroke-width:0.5;" x="179.742857" xlink:href="#maf6612a2b0" y="162.914257"/>
     <use style="fill:#ff4700;stroke:#ff4700;stroke-width:0.5;" x="239.528571" xlink:href="#maf6612a2b0" y="167.016512"/>
     <use style="fill:#ff4700;stroke:#ff4700;stroke-width:0.5;" x="299.314286" xlink:href="#maf6612a2b0" y="176.675166"/>
     <use style="fill:#ff4700;stroke:#ff4700;stroke-width:0.5;" x="359.1" xlink:href="#maf6612a2b0" y="187.28783"/>
     <use style="fill:#ff4700;stroke:#ff4700;stroke-width:0.5;" x="418.885714" xlink:href="#maf6612a2b0" y="193.128614"/>
     <use style="fill:#ff4700;stroke:#ff4700;stroke-width:0.5;" x="478.671429" xlink:href="#maf6612a2b0" y="227.837252"/>
     <use style="fill:#ff4700;stroke:#ff4700;stroke-width:0.5;" x="538.457143" xlink:href="#maf6612a2b0" y="281.408698"/>
     <use style="fill:#ff4700;stroke:#ff4700;stroke-width:0.5;" x="598.242857" xlink:href="#maf6612a2b0" y="400.766405"/>
     <use style="fill:#ff4700;stroke:#ff4700;stroke-width:0.5;" x="658.028571" xlink:href="#maf6612a2b0" y="439.812892"/>
     <use style="fill:#ff4700;stroke:#ff4700;stroke-width:0.5;" x="717.814286" xlink:href="#maf6612a2b0" y="461.087952"/>
     <use style="fill:#ff4700;stroke:#ff4700;stroke-width:0.5;" x="777.6" xlink:href="#maf6612a2b0" y="477.696703"/>
    </g>
   </g>
   <g id="line2d_10">
    <g clip-path="url(#p53b16a734e)">
     <use style="fill:#ff4700;stroke:#ff4700;stroke-width:0.5;" x="179.742857" xlink:href="#maf6612a2b0" y="157.114355"/>
     <use style="fill:#ff4700;stroke:#ff4700;stroke-width:0.5;" x="239.528571" xlink:href="#maf6612a2b0" y="162.561172"/>
     <use style="fill:#ff4700;stroke:#ff4700;stroke-width:0.5;" x="299.314286" xlink:href="#maf6612a2b0" y="170.773339"/>
     <use style="fill:#ff4700;stroke:#ff4700;stroke-width:0.5;" x="359.1" xlink:href="#maf6612a2b0" y="173.440014"/>
     <use style="fill:#ff4700;stroke:#ff4700;stroke-width:0.5;" x="418.885714" xlink:href="#maf6612a2b0" y="189.179678"/>
     <use style="fill:#ff4700;stroke:#ff4700;stroke-width:0.5;" x="478.671429" xlink:href="#maf6612a2b0" y="221.885767"/>
     <use style="fill:#ff4700;stroke:#ff4700;stroke-width:0.5;" x="538.457143" xlink:href="#maf6612a2b0" y="277.393643"/>
     <use style="fill:#ff4700;stroke:#ff4700;stroke-width:0.5;" x="598.242857" xlink:href="#maf6612a2b0" y="395.032377"/>
     <use style="fill:#ff4700;stroke:#ff4700;stroke-width:0.5;" x="658.028571" xlink:href="#maf6612a2b0" y="435.296254"/>
     <use style="fill:#ff4700;stroke:#ff4700;stroke-width:0.5;" x="717.814286" xlink:href="#maf6612a2b0" y="459.274317"/>
     <use style="fill:#ff4700;stroke:#ff4700;stroke-width:0.5;" x="777.6" xlink:href="#maf6612a2b0" y="477.334479"/>
    </g>
   </g>
   <g id="line2d_11">
    <path clip-path="url(#p53b16a734e)" d="M 179.742857 80.07594 
L 239.528571 93.065491 
L 299.314286 103.376183 
L 359.1 124.469922 
L 418.885714 158.424672 
L 478.671429 202.649288 
L 538.457143 261.43306 
L 598.242857 326.553943 
L 658.028571 372.270913 
L 717.814286 407.642107 
L 777.6 428.204112 
" style="fill:none;stroke:#0028ff;stroke-linecap:square;"/>
   </g>
   <g id="line2d_12">
    <path clip-path="url(#p53b16a734e)" d="M 179.742857 104.186848 
L 239.528571 115.462654 
L 299.314286 122.645114 
L 359.1 142.807626 
L 418.885714 166.658704 
L 478.671429 209.200338 
L 538.457143 276.564912 
L 598.242857 372.760492 
L 658.028571 416.037948 
L 717.814286 445.730103 
L 777.6 467.605597 
" style="fill:none;stroke:#00d4ff;stroke-linecap:square;"/>
   </g>
   <g id="line2d_13">
    <path clip-path="url(#p53b16a734e)" d="M 179.742857 120.069254 
L 239.528571 134.35859 
L 299.314286 137.114102 
L 359.1 151.192067 
L 418.885714 174.40589 
L 478.671429 214.501742 
L 538.457143 276.255924 
L 598.242857 383.005049 
L 658.028571 430.807855 
L 717.814286 453.221682 
L 777.6 472.896067 
" style="fill:none;stroke:#7dff7a;stroke-linecap:square;"/>
   </g>
   <g id="line2d_14">
    <path clip-path="url(#p53b16a734e)" d="M 179.742857 145.819392 
L 239.528571 150.67532 
L 299.314286 149.538326 
L 359.1 163.73059 
L 418.885714 185.020368 
L 478.671429 217.001798 
L 538.457143 274.406715 
L 598.242857 389.865395 
L 658.028571 434.203319 
L 717.814286 456.426883 
L 777.6 476.247877 
" style="fill:none;stroke:#ffe600;stroke-linecap:square;"/>
   </g>
   <g id="line2d_15">
    <path clip-path="url(#p53b16a734e)" d="M 179.742857 160.014306 
L 239.528571 164.788842 
L 299.314286 173.724253 
L 359.1 180.363922 
L 418.885714 191.154146 
L 478.671429 224.861509 
L 538.457143 279.40117 
L 598.242857 397.899391 
L 658.028571 437.554573 
L 717.814286 460.181134 
L 777.6 477.515591 
" style="fill:none;stroke:#ff4700;stroke-linecap:square;"/>
   </g>
   <g id="patch_3">
    <path d="M 108 518.4 
L 108 57.6 
" style="fill:none;stroke:#000000;stroke-linecap:square;stroke-linejoin:miter;"/>
   </g>
   <g id="patch_4">
    <path d="M 777.6 518.4 
L 777.6 57.6 
" style="fill:none;stroke:#000000;stroke-linecap:square;stroke-linejoin:miter;"/>
   </g>
   <g id="patch_5">
    <path d="M 108 518.4 
L 777.6 518.4 
" style="fill:none;stroke:#000000;stroke-linecap:square;stroke-linejoin:miter;"/>
   </g>
   <g id="patch_6">
    <path d="M 108 57.6 
L 777.6 57.6 
" style="fill:none;stroke:#000000;stroke-linecap:square;stroke-linejoin:miter;"/>
   </g>
   <g id="matplotlib.axis_1">
    <g id="xtick_1">
     <g id="line2d_16">
      <defs>
       <path d="M 0 0 
L 0 -4 
" id="mda8ea623be" style="stroke:#000000;stroke-width:0.5;"/>
      </defs>
      <g>
       <use style="stroke:#000000;stroke-width:0.5;" x="108" xlink:href="#mda8ea623be" y="518.4"/>
      </g>
     </g>
     <g id="line2d_17">
      <defs>
       <path d="M 0 0 
L 0 4 
" id="mc151c34bbb" style="stroke:#000000;stroke-width:0.5;"/>
      </defs>
      <g>
       <use style="stroke:#000000;stroke-width:0.5;" x="108" xlink:href="#mc151c34bbb" y="57.6"/>
      </g>
     </g>
     <g id="text_1">
      <!-- −1.4 -->
      <defs>
       <path d="M 10.59375 35.5 
L 73.1875 35.5 
L 73.1875 27.203125 
L 10.59375 27.203125 
z
" id="DejaVuSans-8722"/>
       <path d="M 12.40625 8.296875 
L 28.515625 8.296875 
L 28.515625 63.921875 
L 10.984375 60.40625 
L 10.984375 69.390625 
L 28.421875 72.90625 
L 38.28125 72.90625 
L 38.28125 8.296875 
L 54.390625 8.296875 
L 54.390625 0 
L 12.40625 0 
z
" id="DejaVuSans-49"/>
       <path d="M 10.6875 12.40625 
L 21 12.40625 
L 21 0 
L 10.6875 0 
z
" id="DejaVuSans-46"/>
       <path d="M 37.796875 64.3125 
L 12.890625 25.390625 
L 37.796875 25.390625 
z
M 35.203125 72.90625 
L 47.609375 72.90625 
L 47.609375 25.390625 
L 58.015625 25.390625 
L 58.015625 17.1875 
L 47.609375 17.1875 
L 47.609375 0 
L 37.796875 0 
L 37.796875 17.1875 
L 4.890625 17.1875 
L 4.890625 26.703125 
z
" id="DejaVuSans-52"/>
      </defs>
      <g transform="translate(83.717187 537.596875)scale(0.2 -0.2)">
       <use xlink:href="#DejaVuSans-8722"/>
       <use x="83.789062" xlink:href="#DejaVuSans-49"/>
       <use x="147.412109" xlink:href="#DejaVuSans-46"/>
       <use x="179.199219" xlink:href="#DejaVuSans-52"/>
      </g>
     </g>
    </g>
    <g id="xtick_2">
     <g id="line2d_18">
      <g>
       <use style="stroke:#000000;stroke-width:0.5;" x="203.657143" xlink:href="#mda8ea623be" y="518.4"/>
      </g>
     </g>
     <g id="line2d_19">
      <g>
       <use style="stroke:#000000;stroke-width:0.5;" x="203.657143" xlink:href="#mc151c34bbb" y="57.6"/>
      </g>
     </g>
     <g id="text_2">
      <!-- −1.2 -->
      <defs>
       <path d="M 19.1875 8.296875 
L 53.609375 8.296875 
L 53.609375 0 
L 7.328125 0 
L 7.328125 8.296875 
Q 12.9375 14.109375 22.625 23.890625 
Q 32.328125 33.6875 34.8125 36.53125 
Q 39.546875 41.84375 41.421875 45.53125 
Q 43.3125 49.21875 43.3125 52.78125 
Q 43.3125 58.59375 39.234375 62.25 
Q 35.15625 65.921875 28.609375 65.921875 
Q 23.96875 65.921875 18.8125 64.3125 
Q 13.671875 62.703125 7.8125 59.421875 
L 7.8125 69.390625 
Q 13.765625 71.78125 18.9375 73 
Q 24.125 74.21875 28.421875 74.21875 
Q 39.75 74.21875 46.484375 68.546875 
Q 53.21875 62.890625 53.21875 53.421875 
Q 53.21875 48.921875 51.53125 44.890625 
Q 49.859375 40.875 45.40625 35.40625 
Q 44.1875 33.984375 37.640625 27.21875 
Q 31.109375 20.453125 19.1875 8.296875 
z
" id="DejaVuSans-50"/>
      </defs>
      <g transform="translate(179.37433 537.596875)scale(0.2 -0.2)">
       <use xlink:href="#DejaVuSans-8722"/>
       <use x="83.789062" xlink:href="#DejaVuSans-49"/>
       <use x="147.412109" xlink:href="#DejaVuSans-46"/>
       <use x="179.199219" xlink:href="#DejaVuSans-50"/>
      </g>
     </g>
    </g>
    <g id="xtick_3">
     <g id="line2d_20">
      <g>
       <use style="stroke:#000000;stroke-width:0.5;" x="299.314286" xlink:href="#mda8ea623be" y="518.4"/>
      </g>
     </g>
     <g id="line2d_21">
      <g>
       <use style="stroke:#000000;stroke-width:0.5;" x="299.314286" xlink:href="#mc151c34bbb" y="57.6"/>
      </g>
     </g>
     <g id="text_3">
      <!-- −1.0 -->
      <defs>
       <path d="M 31.78125 66.40625 
Q 24.171875 66.40625 20.328125 58.90625 
Q 16.5 51.421875 16.5 36.375 
Q 16.5 21.390625 20.328125 13.890625 
Q 24.171875 6.390625 31.78125 6.390625 
Q 39.453125 6.390625 43.28125 13.890625 
Q 47.125 21.390625 47.125 36.375 
Q 47.125 51.421875 43.28125 58.90625 
Q 39.453125 66.40625 31.78125 66.40625 
z
M 31.78125 74.21875 
Q 44.046875 74.21875 50.515625 64.515625 
Q 56.984375 54.828125 56.984375 36.375 
Q 56.984375 17.96875 50.515625 8.265625 
Q 44.046875 -1.421875 31.78125 -1.421875 
Q 19.53125 -1.421875 13.0625 8.265625 
Q 6.59375 17.96875 6.59375 36.375 
Q 6.59375 54.828125 13.0625 64.515625 
Q 19.53125 74.21875 31.78125 74.21875 
z
" id="DejaVuSans-48"/>
      </defs>
      <g transform="translate(275.031473 537.596875)scale(0.2 -0.2)">
       <use xlink:href="#DejaVuSans-8722"/>
       <use x="83.789062" xlink:href="#DejaVuSans-49"/>
       <use x="147.412109" xlink:href="#DejaVuSans-46"/>
       <use x="179.199219" xlink:href="#DejaVuSans-48"/>
      </g>
     </g>
    </g>
    <g id="xtick_4">
     <g id="line2d_22">
      <g>
       <use style="stroke:#000000;stroke-width:0.5;" x="394.971429" xlink:href="#mda8ea623be" y="518.4"/>
      </g>
     </g>
     <g id="line2d_23">
      <g>
       <use style="stroke:#000000;stroke-width:0.5;" x="394.971429" xlink:href="#mc151c34bbb" y="57.6"/>
      </g>
     </g>
     <g id="text_4">
      <!-- −0.8 -->
      <defs>
       <path d="M 31.78125 34.625 
Q 24.75 34.625 20.71875 30.859375 
Q 16.703125 27.09375 16.703125 20.515625 
Q 16.703125 13.921875 20.71875 10.15625 
Q 24.75 6.390625 31.78125 6.390625 
Q 38.8125 6.390625 42.859375 10.171875 
Q 46.921875 13.96875 46.921875 20.515625 
Q 46.921875 27.09375 42.890625 30.859375 
Q 38.875 34.625 31.78125 34.625 
z
M 21.921875 38.8125 
Q 15.578125 40.375 12.03125 44.71875 
Q 8.5 49.078125 8.5 55.328125 
Q 8.5 64.0625 14.71875 69.140625 
Q 20.953125 74.21875 31.78125 74.21875 
Q 42.671875 74.21875 48.875 69.140625 
Q 55.078125 64.0625 55.078125 55.328125 
Q 55.078125 49.078125 51.53125 44.71875 
Q 48 40.375 41.703125 38.8125 
Q 48.828125 37.15625 52.796875 32.3125 
Q 56.78125 27.484375 56.78125 20.515625 
Q 56.78125 9.90625 50.3125 4.234375 
Q 43.84375 -1.421875 31.78125 -1.421875 
Q 19.734375 -1.421875 13.25 4.234375 
Q 6.78125 9.90625 6.78125 20.515625 
Q 6.78125 27.484375 10.78125 32.3125 
Q 14.796875 37.15625 21.921875 38.8125 
z
M 18.3125 54.390625 
Q 18.3125 48.734375 21.84375 45.5625 
Q 25.390625 42.390625 31.78125 42.390625 
Q 38.140625 42.390625 41.71875 45.5625 
Q 45.3125 48.734375 45.3125 54.390625 
Q 45.3125 60.0625 41.71875 63.234375 
Q 38.140625 66.40625 31.78125 66.40625 
Q 25.390625 66.40625 21.84375 63.234375 
Q 18.3125 60.0625 18.3125 54.390625 
z
" id="DejaVuSans-56"/>
      </defs>
      <g transform="translate(370.688616 537.596875)scale(0.2 -0.2)">
       <use xlink:href="#DejaVuSans-8722"/>
       <use x="83.789062" xlink:href="#DejaVuSans-48"/>
       <use x="147.412109" xlink:href="#DejaVuSans-46"/>
       <use x="179.199219" xlink:href="#DejaVuSans-56"/>
      </g>
     </g>
    </g>
    <g id="xtick_5">
     <g id="line2d_24">
      <g>
       <use style="stroke:#000000;stroke-width:0.5;" x="490.628571" xlink:href="#mda8ea623be" y="518.4"/>
      </g>
     </g>
     <g id="line2d_25">
      <g>
       <use style="stroke:#000000;stroke-width:0.5;" x="490.628571" xlink:href="#mc151c34bbb" y="57.6"/>
      </g>
     </g>
     <g id="text_5">
      <!-- −0.6 -->
      <defs>
       <path d="M 33.015625 40.375 
Q 26.375 40.375 22.484375 35.828125 
Q 18.609375 31.296875 18.609375 23.390625 
Q 18.609375 15.53125 22.484375 10.953125 
Q 26.375 6.390625 33.015625 6.390625 
Q 39.65625 6.390625 43.53125 10.953125 
Q 47.40625 15.53125 47.40625 23.390625 
Q 47.40625 31.296875 43.53125 35.828125 
Q 39.65625 40.375 33.015625 40.375 
z
M 52.59375 71.296875 
L 52.59375 62.3125 
Q 48.875 64.0625 45.09375 64.984375 
Q 41.3125 65.921875 37.59375 65.921875 
Q 27.828125 65.921875 22.671875 59.328125 
Q 17.53125 52.734375 16.796875 39.40625 
Q 19.671875 43.65625 24.015625 45.921875 
Q 28.375 48.1875 33.59375 48.1875 
Q 44.578125 48.1875 50.953125 41.515625 
Q 57.328125 34.859375 57.328125 23.390625 
Q 57.328125 12.15625 50.6875 5.359375 
Q 44.046875 -1.421875 33.015625 -1.421875 
Q 20.359375 -1.421875 13.671875 8.265625 
Q 6.984375 17.96875 6.984375 36.375 
Q 6.984375 53.65625 15.1875 63.9375 
Q 23.390625 74.21875 37.203125 74.21875 
Q 40.921875 74.21875 44.703125 73.484375 
Q 48.484375 72.75 52.59375 71.296875 
z
" id="DejaVuSans-54"/>
      </defs>
      <g transform="translate(466.345759 537.596875)scale(0.2 -0.2)">
       <use xlink:href="#DejaVuSans-8722"/>
       <use x="83.789062" xlink:href="#DejaVuSans-48"/>
       <use x="147.412109" xlink:href="#DejaVuSans-46"/>
       <use x="179.199219" xlink:href="#DejaVuSans-54"/>
      </g>
     </g>
    </g>
    <g id="xtick_6">
     <g id="line2d_26">
      <g>
       <use style="stroke:#000000;stroke-width:0.5;" x="586.285714" xlink:href="#mda8ea623be" y="518.4"/>
      </g>
     </g>
     <g id="line2d_27">
      <g>
       <use style="stroke:#000000;stroke-width:0.5;" x="586.285714" xlink:href="#mc151c34bbb" y="57.6"/>
      </g>
     </g>
     <g id="text_6">
      <!-- −0.4 -->
      <g transform="translate(562.002902 537.596875)scale(0.2 -0.2)">
       <use xlink:href="#DejaVuSans-8722"/>
       <use x="83.789062" xlink:href="#DejaVuSans-48"/>
       <use x="147.412109" xlink:href="#DejaVuSans-46"/>
       <use x="179.199219" xlink:href="#DejaVuSans-52"/>
      </g>
     </g>
    </g>
    <g id="xtick_7">
     <g id="line2d_28">
      <g>
       <use style="stroke:#000000;stroke-width:0.5;" x="681.942857" xlink:href="#mda8ea623be" y="518.4"/>
      </g>
     </g>
     <g id="line2d_29">
      <g>
       <use style="stroke:#000000;stroke-width:0.5;" x="681.942857" xlink:href="#mc151c34bbb" y="57.6"/>
      </g>
     </g>
     <g id="text_7">
      <!-- −0.2 -->
      <g transform="translate(657.660045 537.596875)scale(0.2 -0.2)">
       <use xlink:href="#DejaVuSans-8722"/>
       <use x="83.789062" xlink:href="#DejaVuSans-48"/>
       <use x="147.412109" xlink:href="#DejaVuSans-46"/>
       <use x="179.199219" xlink:href="#DejaVuSans-50"/>
      </g>
     </g>
    </g>
    <g id="xtick_8">
     <g id="line2d_30">
      <g>
       <use style="stroke:#000000;stroke-width:0.5;" x="777.6" xlink:href="#mda8ea623be" y="518.4"/>
      </g>
     </g>
     <g id="line2d_31">
      <g>
       <use style="stroke:#000000;stroke-width:0.5;" x="777.6" xlink:href="#mc151c34bbb" y="57.6"/>
      </g>
     </g>
     <g id="text_8">
      <!-- 0.0 -->
      <g transform="translate(761.696875 537.596875)scale(0.2 -0.2)">
       <use xlink:href="#DejaVuSans-48"/>
       <use x="63.623047" xlink:href="#DejaVuSans-46"/>
       <use x="95.410156" xlink:href="#DejaVuSans-48"/>
      </g>
     </g>
    </g>
    <g id="text_9">
     <!-- $s$ -->
     <defs>
      <path d="M 8.6875 6.109375 
Q 11.375 1.515625 19.484375 1.515625 
Q 23 1.515625 26.171875 2.703125 
Q 29.34375 3.90625 31.421875 6.296875 
Q 33.5 8.6875 33.5 12.109375 
Q 33.5 14.703125 31.640625 16.359375 
Q 29.78125 18.015625 27.09375 18.609375 
L 21.6875 19.671875 
Q 17.96875 20.609375 15.578125 23.140625 
Q 13.1875 25.6875 13.1875 29.296875 
Q 13.1875 33.734375 15.59375 37.15625 
Q 18.015625 40.578125 21.96875 42.375 
Q 25.921875 44.1875 30.171875 44.1875 
Q 34.71875 44.1875 38.296875 42.015625 
Q 41.890625 39.84375 41.890625 35.59375 
Q 41.890625 33.296875 40.59375 31.53125 
Q 39.3125 29.78125 37.015625 29.78125 
Q 35.6875 29.78125 34.734375 30.640625 
Q 33.796875 31.5 33.796875 32.8125 
Q 33.796875 33.984375 34.453125 35.078125 
Q 35.109375 36.1875 36.203125 36.84375 
Q 37.3125 37.5 38.484375 37.5 
Q 37.59375 39.65625 35.171875 40.625 
Q 32.765625 41.609375 29.984375 41.609375 
Q 27.4375 41.609375 24.890625 40.578125 
Q 22.359375 39.546875 20.8125 37.5625 
Q 19.28125 35.59375 19.28125 32.90625 
Q 19.28125 31.109375 20.546875 29.734375 
Q 21.828125 28.375 23.6875 27.78125 
L 29.5 26.609375 
Q 32.28125 26.03125 34.59375 24.53125 
Q 36.921875 23.046875 38.25 20.765625 
Q 39.59375 18.5 39.59375 15.578125 
Q 39.59375 11.859375 37.515625 8.25 
Q 35.453125 4.640625 32.421875 2.484375 
Q 27.09375 -1.125 19.390625 -1.125 
Q 14.0625 -1.125 9.609375 1.3125 
Q 5.171875 3.765625 5.171875 8.59375 
Q 5.171875 11.328125 6.75 13.34375 
Q 8.34375 15.375 11.078125 15.375 
Q 12.703125 15.375 13.796875 14.390625 
Q 14.890625 13.421875 14.890625 11.8125 
Q 14.890625 9.515625 13.171875 7.8125 
Q 11.46875 6.109375 9.1875 6.109375 
z
" id="Cmmi10-115"/>
     </defs>
     <g transform="translate(438.1 561.953125)scale(0.2 -0.2)">
      <use transform="translate(0 0.8125)" xlink:href="#Cmmi10-115"/>
     </g>
    </g>
   </g>
   <g id="matplotlib.axis_2">
    <g id="ytick_1">
     <g id="line2d_32">
      <defs>
       <path d="M 0 0 
L 4 0 
" id="md79c1e372b" style="stroke:#000000;stroke-width:0.5;"/>
      </defs>
      <g>
       <use style="stroke:#000000;stroke-width:0.5;" x="108" xlink:href="#md79c1e372b" y="518.4"/>
      </g>
     </g>
     <g id="line2d_33">
      <defs>
       <path d="M 0 0 
L -4 0 
" id="m0413e168de" style="stroke:#000000;stroke-width:0.5;"/>
      </defs>
      <g>
       <use style="stroke:#000000;stroke-width:0.5;" x="777.6" xlink:href="#m0413e168de" y="518.4"/>
      </g>
     </g>
     <g id="text_10">
      <!-- −0.8 -->
      <g transform="translate(55.434375 523.91875)scale(0.2 -0.2)">
       <use xlink:href="#DejaVuSans-8722"/>
       <use x="83.789062" xlink:href="#DejaVuSans-48"/>
       <use x="147.412109" xlink:href="#DejaVuSans-46"/>
       <use x="179.199219" xlink:href="#DejaVuSans-56"/>
      </g>
     </g>
    </g>
    <g id="ytick_2">
     <g id="line2d_34">
      <g>
       <use style="stroke:#000000;stroke-width:0.5;" x="108" xlink:href="#md79c1e372b" y="441.6"/>
      </g>
     </g>
     <g id="line2d_35">
      <g>
       <use style="stroke:#000000;stroke-width:0.5;" x="777.6" xlink:href="#m0413e168de" y="441.6"/>
      </g>
     </g>
     <g id="text_11">
      <!-- −0.7 -->
      <defs>
       <path d="M 8.203125 72.90625 
L 55.078125 72.90625 
L 55.078125 68.703125 
L 28.609375 0 
L 18.3125 0 
L 43.21875 64.59375 
L 8.203125 64.59375 
z
" id="DejaVuSans-55"/>
      </defs>
      <g transform="translate(55.434375 447.11875)scale(0.2 -0.2)">
       <use xlink:href="#DejaVuSans-8722"/>
       <use x="83.789062" xlink:href="#DejaVuSans-48"/>
       <use x="147.412109" xlink:href="#DejaVuSans-46"/>
       <use x="179.199219" xlink:href="#DejaVuSans-55"/>
      </g>
     </g>
    </g>
    <g id="ytick_3">
     <g id="line2d_36">
      <g>
       <use style="stroke:#000000;stroke-width:0.5;" x="108" xlink:href="#md79c1e372b" y="364.8"/>
      </g>
     </g>
     <g id="line2d_37">
      <g>
       <use style="stroke:#000000;stroke-width:0.5;" x="777.6" xlink:href="#m0413e168de" y="364.8"/>
      </g>
     </g>
     <g id="text_12">
      <!-- −0.6 -->
      <g transform="translate(55.434375 370.31875)scale(0.2 -0.2)">
       <use xlink:href="#DejaVuSans-8722"/>
       <use x="83.789062" xlink:href="#DejaVuSans-48"/>
       <use x="147.412109" xlink:href="#DejaVuSans-46"/>
       <use x="179.199219" xlink:href="#DejaVuSans-54"/>
      </g>
     </g>
    </g>
    <g id="ytick_4">
     <g id="line2d_38">
      <g>
       <use style="stroke:#000000;stroke-width:0.5;" x="108" xlink:href="#md79c1e372b" y="288"/>
      </g>
     </g>
     <g id="line2d_39">
      <g>
       <use style="stroke:#000000;stroke-width:0.5;" x="777.6" xlink:href="#m0413e168de" y="288"/>
      </g>
     </g>
     <g id="text_13">
      <!-- −0.5 -->
      <defs>
       <path d="M 10.796875 72.90625 
L 49.515625 72.90625 
L 49.515625 64.59375 
L 19.828125 64.59375 
L 19.828125 46.734375 
Q 21.96875 47.46875 24.109375 47.828125 
Q 26.265625 48.1875 28.421875 48.1875 
Q 40.625 48.1875 47.75 41.5 
Q 54.890625 34.8125 54.890625 23.390625 
Q 54.890625 11.625 47.5625 5.09375 
Q 40.234375 -1.421875 26.90625 -1.421875 
Q 22.3125 -1.421875 17.546875 -0.640625 
Q 12.796875 0.140625 7.71875 1.703125 
L 7.71875 11.625 
Q 12.109375 9.234375 16.796875 8.0625 
Q 21.484375 6.890625 26.703125 6.890625 
Q 35.15625 6.890625 40.078125 11.328125 
Q 45.015625 15.765625 45.015625 23.390625 
Q 45.015625 31 40.078125 35.4375 
Q 35.15625 39.890625 26.703125 39.890625 
Q 22.75 39.890625 18.8125 39.015625 
Q 14.890625 38.140625 10.796875 36.28125 
z
" id="DejaVuSans-53"/>
      </defs>
      <g transform="translate(55.434375 293.51875)scale(0.2 -0.2)">
       <use xlink:href="#DejaVuSans-8722"/>
       <use x="83.789062" xlink:href="#DejaVuSans-48"/>
       <use x="147.412109" xlink:href="#DejaVuSans-46"/>
       <use x="179.199219" xlink:href="#DejaVuSans-53"/>
      </g>
     </g>
    </g>
    <g id="ytick_5">
     <g id="line2d_40">
      <g>
       <use style="stroke:#000000;stroke-width:0.5;" x="108" xlink:href="#md79c1e372b" y="211.2"/>
      </g>
     </g>
     <g id="line2d_41">
      <g>
       <use style="stroke:#000000;stroke-width:0.5;" x="777.6" xlink:href="#m0413e168de" y="211.2"/>
      </g>
     </g>
     <g id="text_14">
      <!-- −0.4 -->
      <g transform="translate(55.434375 216.71875)scale(0.2 -0.2)">
       <use xlink:href="#DejaVuSans-8722"/>
       <use x="83.789062" xlink:href="#DejaVuSans-48"/>
       <use x="147.412109" xlink:href="#DejaVuSans-46"/>
       <use x="179.199219" xlink:href="#DejaVuSans-52"/>
      </g>
     </g>
    </g>
    <g id="ytick_6">
     <g id="line2d_42">
      <g>
       <use style="stroke:#000000;stroke-width:0.5;" x="108" xlink:href="#md79c1e372b" y="134.4"/>
      </g>
     </g>
     <g id="line2d_43">
      <g>
       <use style="stroke:#000000;stroke-width:0.5;" x="777.6" xlink:href="#m0413e168de" y="134.4"/>
      </g>
     </g>
     <g id="text_15">
      <!-- −0.3 -->
      <defs>
       <path d="M 40.578125 39.3125 
Q 47.65625 37.796875 51.625 33 
Q 55.609375 28.21875 55.609375 21.1875 
Q 55.609375 10.40625 48.1875 4.484375 
Q 40.765625 -1.421875 27.09375 -1.421875 
Q 22.515625 -1.421875 17.65625 -0.515625 
Q 12.796875 0.390625 7.625 2.203125 
L 7.625 11.71875 
Q 11.71875 9.328125 16.59375 8.109375 
Q 21.484375 6.890625 26.8125 6.890625 
Q 36.078125 6.890625 40.9375 10.546875 
Q 45.796875 14.203125 45.796875 21.1875 
Q 45.796875 27.640625 41.28125 31.265625 
Q 36.765625 34.90625 28.71875 34.90625 
L 20.21875 34.90625 
L 20.21875 43.015625 
L 29.109375 43.015625 
Q 36.375 43.015625 40.234375 45.921875 
Q 44.09375 48.828125 44.09375 54.296875 
Q 44.09375 59.90625 40.109375 62.90625 
Q 36.140625 65.921875 28.71875 65.921875 
Q 24.65625 65.921875 20.015625 65.03125 
Q 15.375 64.15625 9.8125 62.3125 
L 9.8125 71.09375 
Q 15.4375 72.65625 20.34375 73.4375 
Q 25.25 74.21875 29.59375 74.21875 
Q 40.828125 74.21875 47.359375 69.109375 
Q 53.90625 64.015625 53.90625 55.328125 
Q 53.90625 49.265625 50.4375 45.09375 
Q 46.96875 40.921875 40.578125 39.3125 
z
" id="DejaVuSans-51"/>
      </defs>
      <g transform="translate(55.434375 139.91875)scale(0.2 -0.2)">
       <use xlink:href="#DejaVuSans-8722"/>
       <use x="83.789062" xlink:href="#DejaVuSans-48"/>
       <use x="147.412109" xlink:href="#DejaVuSans-46"/>
       <use x="179.199219" xlink:href="#DejaVuSans-51"/>
      </g>
     </g>
    </g>
    <g id="ytick_7">
     <g id="line2d_44">
      <g>
       <use style="stroke:#000000;stroke-width:0.5;" x="108" xlink:href="#md79c1e372b" y="57.6"/>
      </g>
     </g>
     <g id="line2d_45">
      <g>
       <use style="stroke:#000000;stroke-width:0.5;" x="777.6" xlink:href="#m0413e168de" y="57.6"/>
      </g>
     </g>
     <g id="text_16">
      <!-- −0.2 -->
      <g transform="translate(55.434375 63.11875)scale(0.2 -0.2)">
       <use xlink:href="#DejaVuSans-8722"/>
       <use x="83.789062" xlink:href="#DejaVuSans-48"/>
       <use x="147.412109" xlink:href="#DejaVuSans-46"/>
       <use x="179.199219" xlink:href="#DejaVuSans-50"/>
      </g>
     </g>
    </g>
    <g id="text_17">
     <!-- $&lt;w_f&gt;_s$ -->
     <defs>
      <path d="M 9.28125 23.296875 
Q 8.296875 23.734375 8.296875 25 
Q 8.296875 26.265625 9.625 26.90625 
L 66.703125 53.8125 
Q 67.09375 54 67.390625 54 
Q 68.265625 54 68.828125 53.390625 
Q 69.390625 52.78125 69.390625 52 
Q 69.390625 50.78125 68.21875 50.09375 
L 14.984375 25 
L 68.5 -0.296875 
Q 69.390625 -0.59375 69.390625 -2 
Q 69.390625 -2.78125 68.828125 -3.390625 
Q 68.265625 -4 67.390625 -4 
Q 67.09375 -4 66.703125 -3.8125 
z
" id="Cmmi10-60"/>
      <path d="M 10.796875 11.625 
Q 10.796875 13.71875 11.359375 16.453125 
Q 11.921875 19.1875 12.59375 21.3125 
Q 13.28125 23.4375 14.90625 27.828125 
Q 16.546875 32.234375 16.703125 32.625 
Q 18.015625 36.28125 18.015625 38.625 
Q 18.015625 41.609375 15.828125 41.609375 
Q 11.859375 41.609375 9.296875 37.53125 
Q 6.734375 33.453125 5.515625 28.421875 
Q 5.328125 27.78125 4.6875 27.78125 
L 3.515625 27.78125 
Q 2.6875 27.78125 2.6875 28.71875 
L 2.6875 29 
Q 4.296875 34.96875 7.609375 39.578125 
Q 10.9375 44.1875 16.015625 44.1875 
Q 19.578125 44.1875 22.046875 41.84375 
Q 24.515625 39.5 24.515625 35.890625 
Q 24.515625 34.03125 23.6875 31.984375 
Q 22.515625 28.953125 20.921875 24.703125 
Q 19.34375 20.453125 18.453125 16.984375 
Q 17.578125 13.53125 17.578125 10.296875 
Q 17.578125 6.390625 19.625 3.953125 
Q 21.6875 1.515625 25.59375 1.515625 
Q 30.90625 1.515625 34.421875 9.625 
Q 34.28125 10.203125 34.28125 11.28125 
Q 34.28125 13.96875 35.109375 17.390625 
L 40.71875 39.890625 
Q 41.0625 41.21875 42.28125 42.15625 
Q 43.5 43.109375 44.921875 43.109375 
Q 46.09375 43.109375 47 42.328125 
Q 47.90625 41.546875 47.90625 40.28125 
Q 47.90625 39.703125 47.796875 39.5 
L 42.1875 17.1875 
Q 41.21875 13.1875 41.21875 10.015625 
Q 41.21875 6.25 42.9375 3.875 
Q 44.671875 1.515625 48.390625 1.515625 
Q 54.828125 1.515625 58.984375 10.015625 
Q 60.546875 13.03125 62.46875 18.9375 
Q 64.40625 24.859375 64.40625 27.984375 
Q 64.40625 30.859375 63.46875 32.546875 
Q 62.546875 34.234375 60.90625 36.1875 
Q 59.28125 38.140625 59.28125 39.109375 
Q 59.28125 41.015625 60.90625 42.640625 
Q 62.546875 44.28125 64.5 44.28125 
Q 66.890625 44.28125 67.9375 42.078125 
Q 69 39.890625 69 37.109375 
Q 69 33.734375 67.875 28.53125 
Q 66.75 23.34375 65.03125 18.09375 
Q 63.328125 12.84375 61.8125 9.71875 
Q 56.34375 -1.125 48.1875 -1.125 
Q 44 -1.125 40.53125 0.484375 
Q 37.0625 2.09375 35.40625 5.609375 
Q 33.796875 2.734375 31.171875 0.796875 
Q 28.5625 -1.125 25.390625 -1.125 
Q 18.796875 -1.125 14.796875 2.015625 
Q 10.796875 5.171875 10.796875 11.625 
z
" id="Cmmi10-119"/>
      <path d="M 9.71875 -16.5 
Q 11.578125 -17.921875 14.203125 -17.921875 
Q 17.78125 -17.921875 20.015625 -10.015625 
Q 20.953125 -6.203125 25.09375 15.09375 
L 29.6875 39.59375 
L 21.09375 39.59375 
Q 20.125 39.59375 20.125 40.921875 
Q 20.515625 43.109375 21.390625 43.109375 
L 30.328125 43.109375 
L 31.5 49.609375 
Q 32.078125 52.640625 32.5625 54.8125 
Q 33.0625 56.984375 33.625 58.828125 
Q 34.1875 60.6875 35.296875 62.984375 
Q 37.015625 66.265625 39.921875 68.390625 
Q 42.828125 70.515625 46.1875 70.515625 
Q 48.390625 70.515625 50.46875 69.703125 
Q 52.546875 68.890625 53.859375 67.28125 
Q 55.171875 65.671875 55.171875 63.484375 
Q 55.171875 60.9375 53.484375 59.046875 
Q 51.8125 57.171875 49.421875 57.171875 
Q 47.796875 57.171875 46.65625 58.171875 
Q 45.515625 59.1875 45.515625 60.796875 
Q 45.515625 62.984375 47 64.625 
Q 48.484375 66.265625 50.6875 66.5 
Q 48.828125 67.921875 46.09375 67.921875 
Q 44.578125 67.921875 43.234375 66.5 
Q 41.890625 65.09375 41.5 63.484375 
Q 40.875 60.9375 38.71875 49.703125 
L 37.5 43.109375 
L 47.796875 43.109375 
Q 48.78125 43.109375 48.78125 41.796875 
Q 48.734375 41.546875 48.578125 40.9375 
Q 48.4375 40.328125 48.171875 39.953125 
Q 47.90625 39.59375 47.515625 39.59375 
L 36.8125 39.59375 
L 32.171875 15.1875 
Q 31.296875 9.859375 30.140625 4.359375 
Q 29 -1.125 26.921875 -6.90625 
Q 24.859375 -12.703125 21.625 -16.609375 
Q 18.40625 -20.515625 14.015625 -20.515625 
Q 10.640625 -20.515625 7.984375 -18.578125 
Q 5.328125 -16.65625 5.328125 -13.484375 
Q 5.328125 -10.9375 6.953125 -9.046875 
Q 8.59375 -7.171875 11.078125 -7.171875 
Q 12.75 -7.171875 13.859375 -8.171875 
Q 14.984375 -9.1875 14.984375 -10.796875 
Q 14.984375 -12.9375 13.390625 -14.71875 
Q 11.8125 -16.5 9.71875 -16.5 
z
" id="Cmmi10-102"/>
      <path d="M 8.296875 -2 
Q 8.296875 -0.734375 9.625 -0.09375 
L 62.703125 25 
L 9.28125 50.296875 
Q 8.296875 50.59375 8.296875 52 
Q 8.296875 52.6875 8.859375 53.34375 
Q 9.421875 54 10.296875 54 
Q 10.5 54 11.078125 53.8125 
L 68.5 26.703125 
Q 69.390625 26.265625 69.390625 25 
Q 69.390625 23.6875 68.21875 23.1875 
L 11.078125 -3.8125 
Q 10.5 -4 10.296875 -4 
Q 9.421875 -4 8.859375 -3.34375 
Q 8.296875 -2.6875 8.296875 -2 
z
" id="Cmmi10-62"/>
     </defs>
     <g transform="translate(44.034375 326.2)rotate(-90)scale(0.2 -0.2)">
      <use transform="translate(17.558594 0)" xlink:href="#Cmmi10-60"/>
      <use transform="translate(112.802734 0)" xlink:href="#Cmmi10-119"/>
      <use transform="translate(184.287109 -17.00625)scale(0.7)" xlink:href="#Cmmi10-102"/>
      <use transform="translate(242.436914 0)" xlink:href="#Cmmi10-62"/>
      <use transform="translate(342.145195 -17.00625)scale(0.7)" xlink:href="#Cmmi10-115"/>
     </g>
    </g>
   </g>
   <g id="text_18">
    <!-- $\phi=0.65, l_p/\sigma=2, N_{clones}=1e+02, t_{tot}=100$ — contr. trans. &amp; rot. EOM (1) -->
    <defs>
     <path d="M 19.390625 -19.484375 
L 23.875 -1.421875 
Q 18.796875 -1.421875 14.40625 0.953125 
Q 10.015625 3.328125 7.34375 7.5625 
Q 4.6875 11.8125 4.6875 16.796875 
Q 4.6875 22.21875 7.375 27.140625 
Q 10.0625 32.078125 14.71875 36.109375 
Q 19.390625 40.140625 24.75 42.3125 
Q 30.125 44.484375 35.40625 44.484375 
L 41.40625 68.796875 
Q 41.609375 69.390625 42.1875 69.390625 
L 43.40625 69.390625 
Q 43.796875 69.390625 44.03125 69.046875 
Q 44.28125 68.703125 44.28125 68.40625 
L 38.28125 44.484375 
Q 42.046875 44.484375 45.5625 43.109375 
Q 49.078125 41.75 51.78125 39.28125 
Q 54.5 36.8125 56 33.46875 
Q 57.515625 30.125 57.515625 26.3125 
Q 57.515625 20.90625 54.828125 15.96875 
Q 52.15625 11.03125 47.609375 7.078125 
Q 43.0625 3.125 37.46875 0.84375 
Q 31.890625 -1.421875 26.8125 -1.421875 
L 22.21875 -19.921875 
Q 22.015625 -20.515625 21.390625 -20.515625 
L 20.21875 -20.515625 
Q 19.828125 -20.515625 19.609375 -20.140625 
Q 19.390625 -19.78125 19.390625 -19.484375 
z
M 24.515625 1.21875 
L 34.71875 41.890625 
Q 32.171875 41.890625 29.390625 40.859375 
Q 26.609375 39.84375 24.140625 38.28125 
Q 21.6875 36.71875 19.671875 34.71875 
Q 17.234375 32.28125 15.375 28.953125 
Q 13.53125 25.640625 12.578125 21.953125 
Q 11.625 18.265625 11.625 14.703125 
Q 11.625 10.9375 13.234375 7.859375 
Q 14.84375 4.78125 17.765625 3 
Q 20.703125 1.21875 24.515625 1.21875 
z
M 27.484375 1.21875 
Q 31.25 1.21875 35.5 3.359375 
Q 39.75 5.515625 42.484375 8.40625 
Q 46.234375 12.109375 48.40625 17.5 
Q 50.59375 22.90625 50.59375 28.421875 
Q 50.59375 32.125 48.96875 35.21875 
Q 47.359375 38.328125 44.421875 40.109375 
Q 41.5 41.890625 37.703125 41.890625 
z
" id="Cmmi10-193"/>
     <path d="M 7.515625 13.28125 
Q 6.6875 13.28125 6.140625 13.90625 
Q 5.609375 14.546875 5.609375 15.28125 
Q 5.609375 16.109375 6.140625 16.6875 
Q 6.6875 17.28125 7.515625 17.28125 
L 70.3125 17.28125 
Q 71.046875 17.28125 71.578125 16.6875 
Q 72.125 16.109375 72.125 15.28125 
Q 72.125 14.546875 71.578125 13.90625 
Q 71.046875 13.28125 70.3125 13.28125 
z
M 7.515625 32.71875 
Q 6.6875 32.71875 6.140625 33.296875 
Q 5.609375 33.890625 5.609375 34.71875 
Q 5.609375 35.453125 6.140625 36.078125 
Q 6.6875 36.71875 7.515625 36.71875 
L 70.3125 36.71875 
Q 71.046875 36.71875 71.578125 36.078125 
Q 72.125 35.453125 72.125 34.71875 
Q 72.125 33.890625 71.578125 33.296875 
Q 71.046875 32.71875 70.3125 32.71875 
z
" id="Cmr10-61"/>
     <path d="M 25 -2.203125 
Q 12.75 -2.203125 8.328125 7.875 
Q 3.90625 17.96875 3.90625 31.890625 
Q 3.90625 40.578125 5.484375 48.234375 
Q 7.078125 55.90625 11.78125 61.25 
Q 16.5 66.609375 25 66.609375 
Q 31.59375 66.609375 35.78125 63.375 
Q 39.984375 60.15625 42.1875 55.046875 
Q 44.390625 49.953125 45.1875 44.109375 
Q 46 38.28125 46 31.890625 
Q 46 23.296875 44.40625 15.796875 
Q 42.828125 8.296875 38.1875 3.046875 
Q 33.546875 -2.203125 25 -2.203125 
z
M 25 0.390625 
Q 30.5625 0.390625 33.296875 6.09375 
Q 36.03125 11.8125 36.671875 18.75 
Q 37.3125 25.6875 37.3125 33.5 
Q 37.3125 41.015625 36.671875 47.359375 
Q 36.03125 53.71875 33.3125 58.859375 
Q 30.609375 64.015625 25 64.015625 
Q 19.34375 64.015625 16.609375 58.828125 
Q 13.875 53.65625 13.234375 47.328125 
Q 12.59375 41.015625 12.59375 33.5 
Q 12.59375 27.9375 12.859375 23 
Q 13.140625 18.0625 14.3125 12.8125 
Q 15.484375 7.5625 18.09375 3.96875 
Q 20.703125 0.390625 25 0.390625 
z
" id="Cmr10-48"/>
     <path d="M 8.40625 5.515625 
Q 8.40625 7.765625 10.0625 9.375 
Q 11.71875 10.984375 13.921875 10.984375 
Q 15.28125 10.984375 16.59375 10.25 
Q 17.921875 9.515625 18.65625 8.203125 
Q 19.390625 6.890625 19.390625 5.515625 
Q 19.390625 3.328125 17.765625 1.65625 
Q 16.15625 0 13.921875 0 
Q 11.71875 0 10.0625 1.65625 
Q 8.40625 3.328125 8.40625 5.515625 
z
" id="Cmmi10-58"/>
     <path d="M 25 -2.203125 
Q 18.796875 -2.203125 14.640625 1.09375 
Q 10.5 4.390625 8.21875 9.640625 
Q 5.953125 14.890625 5.078125 20.65625 
Q 4.203125 26.421875 4.203125 32.328125 
Q 4.203125 40.234375 7.28125 48.1875 
Q 10.359375 56.15625 16.328125 61.375 
Q 22.3125 66.609375 30.515625 66.609375 
Q 33.9375 66.609375 36.890625 65.3125 
Q 39.84375 64.015625 41.53125 61.5 
Q 43.21875 58.984375 43.21875 55.421875 
Q 43.21875 53.375 41.828125 51.984375 
Q 40.4375 50.59375 38.375 50.59375 
Q 36.421875 50.59375 35 52 
Q 33.59375 53.421875 33.59375 55.421875 
Q 33.59375 57.375 35 58.78125 
Q 36.421875 60.203125 38.375 60.203125 
L 38.921875 60.203125 
Q 37.640625 62.015625 35.328125 62.859375 
Q 33.015625 63.71875 30.515625 63.71875 
Q 27.484375 63.71875 24.921875 62.390625 
Q 22.359375 61.078125 20.3125 58.828125 
Q 18.265625 56.59375 16.890625 53.875 
Q 15.53125 51.171875 14.765625 47.703125 
Q 14.015625 44.234375 13.8125 41.203125 
Q 13.625 38.1875 13.625 33.59375 
Q 15.375 37.703125 18.59375 40.3125 
Q 21.828125 42.921875 25.875 42.921875 
Q 30.328125 42.921875 33.984375 41.109375 
Q 37.640625 39.3125 40.28125 36.109375 
Q 42.921875 32.90625 44.3125 28.796875 
Q 45.703125 24.703125 45.703125 20.515625 
Q 45.703125 14.65625 43.09375 9.34375 
Q 40.484375 4.046875 35.734375 0.921875 
Q 31 -2.203125 25 -2.203125 
z
M 25 0.984375 
Q 28.859375 0.984375 31.203125 2.734375 
Q 33.546875 4.5 34.640625 7.390625 
Q 35.75 10.296875 36.015625 13.25 
Q 36.28125 16.21875 36.28125 20.515625 
Q 36.28125 26.171875 35.734375 30.171875 
Q 35.203125 34.1875 32.8125 37.234375 
Q 30.421875 40.28125 25.484375 40.28125 
Q 21.4375 40.28125 18.828125 37.546875 
Q 16.21875 34.8125 15.015625 30.640625 
Q 13.8125 26.46875 13.8125 22.609375 
Q 13.8125 21.296875 13.921875 20.609375 
Q 13.921875 20.453125 13.890625 20.359375 
Q 13.875 20.265625 13.8125 20.125 
Q 13.8125 15.828125 14.6875 11.421875 
Q 15.578125 7.03125 18.0625 4 
Q 20.5625 0.984375 25 0.984375 
z
" id="Cmr10-54"/>
     <path d="M 8.6875 11.375 
Q 9.71875 8.453125 11.84375 6.046875 
Q 13.96875 3.65625 16.875 2.3125 
Q 19.78125 0.984375 22.90625 0.984375 
Q 30.125 0.984375 32.859375 6.59375 
Q 35.59375 12.203125 35.59375 20.21875 
Q 35.59375 23.6875 35.46875 26.046875 
Q 35.359375 28.421875 34.8125 30.609375 
Q 33.890625 34.125 31.5625 36.765625 
Q 29.25 39.40625 25.875 39.40625 
Q 22.515625 39.40625 20.09375 38.375 
Q 17.671875 37.359375 16.15625 35.984375 
Q 14.65625 34.625 13.484375 33.109375 
Q 12.3125 31.59375 12.015625 31.5 
L 10.890625 31.5 
Q 10.640625 31.5 10.265625 31.8125 
Q 9.90625 32.125 9.90625 32.421875 
L 9.90625 65.828125 
Q 9.90625 66.0625 10.21875 66.328125 
Q 10.546875 66.609375 10.890625 66.609375 
L 11.1875 66.609375 
Q 17.921875 63.375 25.484375 63.375 
Q 32.90625 63.375 39.796875 66.609375 
L 40.09375 66.609375 
Q 40.4375 66.609375 40.71875 66.359375 
Q 41.015625 66.109375 41.015625 65.828125 
L 41.015625 64.890625 
Q 41.015625 64.40625 40.828125 64.40625 
Q 37.40625 59.859375 32.25 57.3125 
Q 27.09375 54.78125 21.578125 54.78125 
Q 17.578125 54.78125 13.375 55.90625 
L 13.375 37.015625 
Q 16.703125 39.703125 19.3125 40.84375 
Q 21.921875 42 25.984375 42 
Q 31.5 42 35.859375 38.8125 
Q 40.234375 35.640625 42.578125 30.53125 
Q 44.921875 25.4375 44.921875 20.125 
Q 44.921875 14.109375 41.96875 8.984375 
Q 39.015625 3.859375 33.9375 0.828125 
Q 28.859375 -2.203125 22.90625 -2.203125 
Q 17.96875 -2.203125 13.84375 0.328125 
Q 9.71875 2.875 7.34375 7.171875 
Q 4.984375 11.46875 4.984375 16.3125 
Q 4.984375 18.5625 6.4375 19.96875 
Q 7.90625 21.390625 10.109375 21.390625 
Q 12.3125 21.390625 13.796875 19.9375 
Q 15.28125 18.5 15.28125 16.3125 
Q 15.28125 14.15625 13.796875 12.671875 
Q 12.3125 11.1875 10.109375 11.1875 
Q 9.765625 11.1875 9.328125 11.25 
Q 8.890625 11.328125 8.6875 11.375 
z
" id="Cmr10-53"/>
     <path d="M 9.90625 -18.015625 
Q 9.90625 -17.578125 10.296875 -17.1875 
Q 13.921875 -13.71875 15.921875 -9.171875 
Q 17.921875 -4.640625 17.921875 0.390625 
L 17.921875 1.609375 
Q 16.3125 0 13.921875 0 
Q 11.625 0 10.015625 1.609375 
Q 8.40625 3.21875 8.40625 5.515625 
Q 8.40625 7.859375 10.015625 9.421875 
Q 11.625 10.984375 13.921875 10.984375 
Q 17.484375 10.984375 19 7.6875 
Q 20.515625 4.390625 20.515625 0.390625 
Q 20.515625 -5.171875 18.28125 -10.171875 
Q 16.0625 -15.1875 12.015625 -19.1875 
Q 11.625 -19.390625 11.375 -19.390625 
Q 10.890625 -19.390625 10.390625 -18.9375 
Q 9.90625 -18.5 9.90625 -18.015625 
z
" id="Cmmi10-59"/>
     <path d="M 4.390625 8.109375 
Q 4.390625 8.40625 4.46875 8.984375 
Q 4.546875 9.578125 4.609375 10.125 
Q 4.6875 10.6875 4.6875 10.984375 
L 17.09375 60.5 
Q 17.484375 62.203125 17.578125 63.1875 
Q 17.578125 64.796875 11.078125 64.796875 
Q 10.109375 64.796875 10.109375 66.109375 
Q 10.15625 66.359375 10.328125 66.984375 
Q 10.5 67.625 10.765625 67.96875 
Q 11.03125 68.3125 11.53125 68.3125 
L 25 69.390625 
Q 26.21875 69.390625 26.21875 68.109375 
L 11.8125 10.59375 
Q 11.078125 8.984375 11.078125 5.8125 
Q 11.078125 1.515625 14.015625 1.515625 
Q 17.09375 1.515625 18.625 5.34375 
Q 20.171875 9.1875 21.390625 14.703125 
Q 21.578125 15.28125 22.21875 15.28125 
L 23.390625 15.28125 
Q 23.78125 15.28125 24.046875 14.96875 
Q 24.3125 14.65625 24.3125 14.3125 
Q 23.140625 9.46875 22.1875 6.65625 
Q 21.234375 3.859375 19.140625 1.359375 
Q 17.046875 -1.125 13.8125 -1.125 
Q 9.8125 -1.125 7.09375 1.453125 
Q 4.390625 4.046875 4.390625 8.109375 
z
" id="Cmmi10-108"/>
     <path d="M -2.484375 -19.390625 
Q -3.421875 -19.390625 -3.421875 -18.109375 
Q -3.078125 -15.921875 -2.09375 -15.921875 
Q 1.03125 -15.921875 2.265625 -15.359375 
Q 3.515625 -14.796875 4.203125 -12.5 
L 15.484375 32.515625 
Q 16.21875 34.375 16.21875 37.3125 
Q 16.21875 41.609375 13.28125 41.609375 
Q 10.15625 41.609375 8.640625 37.859375 
Q 7.125 34.125 5.71875 28.421875 
Q 5.71875 27.78125 4.890625 27.78125 
L 3.71875 27.78125 
Q 3.46875 27.78125 3.171875 28.140625 
Q 2.875 28.515625 2.875 28.8125 
Q 3.953125 33.15625 4.953125 36.171875 
Q 5.953125 39.203125 8.078125 41.6875 
Q 10.203125 44.1875 13.375 44.1875 
Q 16.796875 44.1875 19.375 42.25 
Q 21.96875 40.328125 22.703125 37.015625 
Q 25.4375 40.1875 28.75 42.1875 
Q 32.078125 44.1875 35.59375 44.1875 
Q 39.796875 44.1875 42.890625 41.9375 
Q 46 39.703125 47.5625 36.0625 
Q 49.125 32.421875 49.125 28.21875 
Q 49.125 21.78125 45.828125 14.890625 
Q 42.53125 8.015625 36.890625 3.4375 
Q 31.25 -1.125 24.8125 -1.125 
Q 21.875 -1.125 19.5 0.53125 
Q 17.140625 2.203125 15.828125 4.890625 
L 11.28125 -12.890625 
Q 11.03125 -14.359375 10.984375 -14.59375 
Q 10.984375 -15.921875 17.578125 -15.921875 
Q 18.609375 -15.921875 18.609375 -17.1875 
Q 18.265625 -18.5 18.046875 -18.9375 
Q 17.828125 -19.390625 16.890625 -19.390625 
z
M 24.90625 1.515625 
Q 28.375 1.515625 31.34375 4.375 
Q 34.328125 7.234375 36.1875 10.796875 
Q 37.546875 13.484375 38.734375 17.359375 
Q 39.9375 21.234375 40.8125 25.625 
Q 41.703125 30.03125 41.703125 32.625 
Q 41.703125 34.90625 41.09375 36.90625 
Q 40.484375 38.921875 39.09375 40.265625 
Q 37.703125 41.609375 35.40625 41.609375 
Q 31.734375 41.609375 28.484375 38.984375 
Q 25.25 36.375 22.609375 32.515625 
L 22.609375 32.171875 
L 17.09375 10.109375 
Q 17.78125 6.546875 19.734375 4.03125 
Q 21.6875 1.515625 24.90625 1.515625 
z
" id="Cmmi10-112"/>
     <path d="M 5.609375 -23 
Q 5.609375 -22.703125 5.71875 -22.609375 
L 40.484375 73.78125 
Q 40.671875 74.359375 41.15625 74.671875 
Q 41.65625 75 42.28125 75 
Q 43.171875 75 43.71875 74.453125 
Q 44.28125 73.921875 44.28125 73 
L 44.28125 72.609375 
L 9.515625 -23.78125 
Q 8.9375 -25 7.625 -25 
Q 6.78125 -25 6.1875 -24.40625 
Q 5.609375 -23.828125 5.609375 -23 
z
" id="Cmmi10-61"/>
     <path d="M 18.703125 -1.125 
Q 14.265625 -1.125 10.8125 1 
Q 7.375 3.125 5.484375 6.734375 
Q 3.609375 10.359375 3.609375 14.703125 
Q 3.609375 19.34375 5.703125 24.46875 
Q 7.8125 29.59375 11.453125 33.84375 
Q 15.09375 38.09375 19.671875 40.59375 
Q 24.265625 43.109375 29.109375 43.109375 
L 54.296875 43.109375 
Q 55.328125 43.109375 56.046875 42.421875 
Q 56.78125 41.75 56.78125 40.578125 
Q 56.78125 39.109375 55.734375 38.015625 
Q 54.6875 36.921875 53.21875 36.921875 
L 41.015625 36.921875 
Q 43.890625 32.625 43.890625 26.515625 
Q 43.890625 21.484375 41.9375 16.59375 
Q 39.984375 11.71875 36.515625 7.6875 
Q 33.0625 3.65625 28.4375 1.265625 
Q 23.828125 -1.125 18.703125 -1.125 
z
M 18.796875 1.515625 
Q 24.265625 1.515625 28.484375 5.78125 
Q 32.71875 10.0625 34.953125 16.234375 
Q 37.203125 22.40625 37.203125 27.6875 
Q 37.203125 31.984375 34.828125 34.453125 
Q 32.46875 36.921875 28.21875 36.921875 
Q 22.40625 36.921875 18.328125 33.015625 
Q 14.265625 29.109375 12.234375 23.1875 
Q 10.203125 17.28125 10.203125 11.8125 
Q 10.203125 7.515625 12.46875 4.515625 
Q 14.75 1.515625 18.796875 1.515625 
z
" id="Cmmi10-190"/>
     <path d="M 4.984375 0 
L 4.984375 2.6875 
Q 4.984375 2.9375 5.171875 3.21875 
L 20.703125 20.40625 
Q 24.21875 24.21875 26.40625 26.796875 
Q 28.609375 29.390625 30.75 32.765625 
Q 32.90625 36.140625 34.15625 39.625 
Q 35.40625 43.109375 35.40625 47.015625 
Q 35.40625 51.125 33.890625 54.859375 
Q 32.375 58.59375 29.375 60.84375 
Q 26.375 63.09375 22.125 63.09375 
Q 17.78125 63.09375 14.3125 60.46875 
Q 10.84375 57.859375 9.421875 53.71875 
Q 9.8125 53.8125 10.5 53.8125 
Q 12.75 53.8125 14.328125 52.296875 
Q 15.921875 50.78125 15.921875 48.390625 
Q 15.921875 46.09375 14.328125 44.5 
Q 12.75 42.921875 10.5 42.921875 
Q 8.15625 42.921875 6.5625 44.546875 
Q 4.984375 46.1875 4.984375 48.390625 
Q 4.984375 52.15625 6.390625 55.4375 
Q 7.8125 58.734375 10.46875 61.296875 
Q 13.140625 63.875 16.484375 65.234375 
Q 19.828125 66.609375 23.578125 66.609375 
Q 29.296875 66.609375 34.21875 64.1875 
Q 39.15625 61.765625 42.03125 57.34375 
Q 44.921875 52.9375 44.921875 47.015625 
Q 44.921875 42.671875 43.015625 38.765625 
Q 41.109375 34.859375 38.125 31.65625 
Q 35.15625 28.46875 30.515625 24.40625 
Q 25.875 20.359375 24.421875 19 
L 13.09375 8.109375 
L 22.703125 8.109375 
Q 29.78125 8.109375 34.546875 8.21875 
Q 39.3125 8.34375 39.59375 8.59375 
Q 40.765625 9.859375 42 17.828125 
L 44.921875 17.828125 
L 42.09375 0 
z
" id="Cmr10-50"/>
     <path d="M 4.6875 0 
Q 3.71875 0 3.71875 1.3125 
Q 3.765625 1.5625 3.90625 2.171875 
Q 4.046875 2.78125 4.3125 3.140625 
Q 4.59375 3.515625 4.984375 3.515625 
Q 14.546875 3.515625 16.109375 9.625 
L 29.6875 64.3125 
Q 26.90625 64.796875 20.90625 64.796875 
Q 19.921875 64.796875 19.921875 66.109375 
Q 19.96875 66.359375 20.109375 66.96875 
Q 20.265625 67.578125 20.53125 67.9375 
Q 20.796875 68.3125 21.1875 68.3125 
L 38.484375 68.3125 
Q 39.203125 68.3125 39.40625 67.671875 
L 61.625 14.796875 
L 72.703125 59.078125 
Q 72.90625 60.15625 72.90625 60.59375 
Q 72.90625 64.796875 65.1875 64.796875 
Q 64.203125 64.796875 64.203125 66.109375 
Q 64.546875 67.390625 64.734375 67.84375 
Q 64.9375 68.3125 65.921875 68.3125 
L 87.3125 68.3125 
Q 88.28125 68.3125 88.28125 67 
Q 88.234375 66.75 88.078125 66.140625 
Q 87.9375 65.53125 87.671875 65.15625 
Q 87.40625 64.796875 87.015625 64.796875 
Q 77.4375 64.796875 75.875 58.6875 
L 61.53125 0.875 
Q 61.1875 0 60.5 0 
L 59.28125 0 
Q 58.59375 0 58.40625 0.6875 
L 32.90625 61.1875 
L 32.71875 61.8125 
Q 32.515625 62.015625 32.515625 62.109375 
L 19.28125 9.1875 
Q 19.1875 8.9375 19.140625 8.5625 
Q 19.09375 8.203125 19 7.71875 
Q 19 5.125 21.234375 4.3125 
Q 23.484375 3.515625 26.8125 3.515625 
Q 27.78125 3.515625 27.78125 2.203125 
Q 27.4375 0.828125 27.1875 0.40625 
Q 26.953125 0 26.125 0 
z
" id="Cmmi10-78"/>
     <path d="M 11.71875 11.921875 
Q 11.71875 7.5625 13.9375 4.53125 
Q 16.15625 1.515625 20.3125 1.515625 
Q 26.265625 1.515625 31.75 4.25 
Q 37.25 6.984375 40.71875 11.8125 
Q 41.015625 12.109375 41.5 12.109375 
Q 42 12.109375 42.5 11.546875 
Q 43.015625 10.984375 43.015625 10.5 
Q 43.015625 10.109375 42.828125 9.90625 
Q 39.15625 4.78125 32.953125 1.828125 
Q 26.765625 -1.125 20.125 -1.125 
Q 15.328125 -1.125 11.671875 1.140625 
Q 8.015625 3.421875 6 7.21875 
Q 4 11.03125 4 15.828125 
Q 4 22.5625 7.765625 29.203125 
Q 11.53125 35.84375 17.78125 40.015625 
Q 24.03125 44.1875 30.90625 44.1875 
Q 35.40625 44.1875 38.984375 42.015625 
Q 42.578125 39.84375 42.578125 35.59375 
Q 42.578125 32.859375 40.984375 30.921875 
Q 39.40625 29 36.71875 29 
Q 35.109375 29 34 30 
Q 32.90625 31 32.90625 32.625 
Q 32.90625 34.96875 34.609375 36.625 
Q 36.328125 38.28125 38.625 38.28125 
L 38.8125 38.28125 
Q 37.640625 39.984375 35.421875 40.796875 
Q 33.203125 41.609375 30.8125 41.609375 
Q 24.953125 41.609375 20.546875 36.59375 
Q 16.15625 31.59375 13.9375 24.625 
Q 11.71875 17.671875 11.71875 11.921875 
z
" id="Cmmi10-99"/>
     <path d="M 20.125 -1.125 
Q 15.375 -1.125 11.6875 1.125 
Q 8.015625 3.375 6 7.171875 
Q 4 10.984375 4 15.828125 
Q 4 22.609375 7.78125 29.25 
Q 11.578125 35.890625 17.84375 40.03125 
Q 24.125 44.1875 31 44.1875 
Q 34.71875 44.1875 37.625 42.921875 
Q 40.53125 41.65625 42.671875 39.359375 
Q 44.828125 37.0625 45.96875 33.984375 
Q 47.125 30.90625 47.125 27.296875 
Q 47.125 22.078125 44.921875 17.015625 
Q 42.71875 11.96875 38.890625 7.84375 
Q 35.0625 3.71875 30.125 1.296875 
Q 25.203125 -1.125 20.125 -1.125 
z
M 20.3125 1.515625 
Q 24.75 1.515625 28.4375 4.53125 
Q 32.125 7.5625 34.484375 12.171875 
Q 36.859375 16.796875 38.125 21.921875 
Q 39.40625 27.046875 39.40625 31.203125 
Q 39.40625 35.546875 37.234375 38.578125 
Q 35.0625 41.609375 30.8125 41.609375 
Q 24.953125 41.609375 20.546875 36.59375 
Q 16.15625 31.59375 13.9375 24.625 
Q 11.71875 17.671875 11.71875 11.921875 
Q 11.71875 7.5625 13.9375 4.53125 
Q 16.15625 1.515625 20.3125 1.515625 
z
" id="Cmmi10-111"/>
     <path d="M 7.71875 1.703125 
Q 7.71875 2.296875 7.8125 2.59375 
L 15.28125 32.421875 
Q 16.015625 35.203125 16.015625 37.3125 
Q 16.015625 41.609375 13.09375 41.609375 
Q 9.96875 41.609375 8.453125 37.859375 
Q 6.9375 34.125 5.515625 28.421875 
Q 5.515625 28.125 5.21875 27.953125 
Q 4.9375 27.78125 4.6875 27.78125 
L 3.515625 27.78125 
Q 3.171875 27.78125 2.921875 28.140625 
Q 2.6875 28.515625 2.6875 28.8125 
Q 3.765625 33.15625 4.765625 36.171875 
Q 5.765625 39.203125 7.890625 41.6875 
Q 10.015625 44.1875 13.1875 44.1875 
Q 16.9375 44.1875 19.8125 41.8125 
Q 22.703125 39.453125 22.703125 35.796875 
Q 25.6875 39.703125 29.6875 41.9375 
Q 33.6875 44.1875 38.1875 44.1875 
Q 41.75 44.1875 44.328125 42.96875 
Q 46.921875 41.75 48.359375 39.28125 
Q 49.8125 36.8125 49.8125 33.40625 
Q 49.8125 29.296875 47.96875 23.484375 
Q 46.140625 17.671875 43.40625 10.5 
Q 42 7.234375 42 4.5 
Q 42 1.515625 44.28125 1.515625 
Q 48.1875 1.515625 50.796875 5.703125 
Q 53.421875 9.90625 54.5 14.703125 
Q 54.6875 15.28125 55.328125 15.28125 
L 56.5 15.28125 
Q 56.890625 15.28125 57.15625 15.03125 
Q 57.421875 14.796875 57.421875 14.40625 
Q 57.421875 14.3125 57.328125 14.109375 
Q 55.953125 8.453125 52.5625 3.65625 
Q 49.171875 -1.125 44.09375 -1.125 
Q 40.578125 -1.125 38.078125 1.296875 
Q 35.59375 3.71875 35.59375 7.171875 
Q 35.59375 9.03125 36.375 11.078125 
Q 37.640625 14.359375 39.28125 18.890625 
Q 40.921875 23.4375 41.96875 27.578125 
Q 43.015625 31.734375 43.015625 34.90625 
Q 43.015625 37.703125 41.859375 39.65625 
Q 40.71875 41.609375 37.984375 41.609375 
Q 34.328125 41.609375 31.25 39.984375 
Q 28.171875 38.375 25.875 35.71875 
Q 23.578125 33.0625 21.6875 29.390625 
L 14.890625 2.203125 
Q 14.546875 0.828125 13.34375 -0.140625 
Q 12.15625 -1.125 10.6875 -1.125 
Q 9.46875 -1.125 8.59375 -0.34375 
Q 7.71875 0.4375 7.71875 1.703125 
z
" id="Cmmi10-110"/>
     <path d="M 20.125 -1.125 
Q 15.328125 -1.125 11.734375 1.359375 
Q 8.15625 3.859375 6.265625 8.078125 
Q 4.390625 12.3125 4.390625 17 
Q 4.390625 24.125 7.984375 30.390625 
Q 11.578125 36.671875 17.71875 40.421875 
Q 23.875 44.1875 30.90625 44.1875 
Q 35.203125 44.1875 38.40625 41.96875 
Q 41.609375 39.75 41.609375 35.59375 
Q 41.609375 29.828125 37.015625 27.015625 
Q 32.421875 24.21875 26.65625 23.5625 
Q 20.90625 22.90625 13.921875 22.90625 
L 13.625 22.90625 
Q 12.015625 16.9375 12.015625 12.703125 
Q 12.015625 8.25 14.0625 4.875 
Q 16.109375 1.515625 20.3125 1.515625 
Q 26.265625 1.515625 31.75 4.25 
Q 37.25 6.984375 40.71875 11.8125 
Q 41.015625 12.109375 41.5 12.109375 
Q 42 12.109375 42.5 11.546875 
Q 43.015625 10.984375 43.015625 10.5 
Q 43.015625 10.109375 42.828125 9.90625 
Q 39.15625 4.78125 32.953125 1.828125 
Q 26.765625 -1.125 20.125 -1.125 
z
M 14.203125 25.484375 
Q 20.015625 25.484375 24.953125 26.015625 
Q 29.890625 26.5625 33.890625 28.734375 
Q 37.890625 30.90625 37.890625 35.5 
Q 37.890625 37.359375 36.859375 38.75 
Q 35.84375 40.140625 34.203125 40.875 
Q 32.5625 41.609375 30.8125 41.609375 
Q 26.5625 41.609375 23.171875 39.3125 
Q 19.78125 37.015625 17.578125 33.328125 
Q 15.375 29.640625 14.203125 25.484375 
z
" id="Cmmi10-101"/>
     <path d="M 9.28125 0 
L 9.28125 3.515625 
Q 21.78125 3.515625 21.78125 6.6875 
L 21.78125 59.1875 
Q 16.609375 56.6875 8.6875 56.6875 
L 8.6875 60.203125 
Q 20.953125 60.203125 27.203125 66.609375 
L 28.609375 66.609375 
Q 28.953125 66.609375 29.265625 66.328125 
Q 29.59375 66.0625 29.59375 65.71875 
L 29.59375 6.6875 
Q 29.59375 3.515625 42.09375 3.515625 
L 42.09375 0 
z
" id="Cmr10-49"/>
     <path d="M 7.515625 23 
Q 6.6875 23 6.140625 23.625 
Q 5.609375 24.265625 5.609375 25 
Q 5.609375 25.734375 6.140625 26.359375 
Q 6.6875 27 7.515625 27 
L 36.921875 27 
L 36.921875 56.5 
Q 36.921875 57.28125 37.5 57.78125 
Q 38.09375 58.296875 38.921875 58.296875 
Q 39.65625 58.296875 40.28125 57.78125 
Q 40.921875 57.28125 40.921875 56.5 
L 40.921875 27 
L 70.3125 27 
Q 71.046875 27 71.578125 26.359375 
Q 72.125 25.734375 72.125 25 
Q 72.125 24.265625 71.578125 23.625 
Q 71.046875 23 70.3125 23 
L 40.921875 23 
L 40.921875 -6.5 
Q 40.921875 -7.28125 40.28125 -7.78125 
Q 39.65625 -8.296875 38.921875 -8.296875 
Q 38.09375 -8.296875 37.5 -7.78125 
Q 36.921875 -7.28125 36.921875 -6.5 
L 36.921875 23 
z
" id="Cmr10-43"/>
     <path d="M 6.203125 8.109375 
Q 6.203125 9.578125 6.5 10.890625 
L 13.71875 39.59375 
L 3.21875 39.59375 
Q 2.203125 39.59375 2.203125 40.921875 
Q 2.59375 43.109375 3.515625 43.109375 
L 14.59375 43.109375 
L 18.609375 59.421875 
Q 19 60.75 20.171875 61.671875 
Q 21.34375 62.59375 22.796875 62.59375 
Q 24.078125 62.59375 24.921875 61.828125 
Q 25.78125 61.078125 25.78125 59.8125 
Q 25.78125 59.515625 25.75 59.34375 
Q 25.734375 59.1875 25.6875 58.984375 
L 21.6875 43.109375 
L 31.984375 43.109375 
Q 33.015625 43.109375 33.015625 41.796875 
Q 32.953125 41.546875 32.8125 40.953125 
Q 32.671875 40.375 32.421875 39.984375 
Q 32.171875 39.59375 31.6875 39.59375 
L 20.796875 39.59375 
L 13.625 10.6875 
Q 12.890625 7.859375 12.890625 5.8125 
Q 12.890625 1.515625 15.828125 1.515625 
Q 20.21875 1.515625 23.609375 5.640625 
Q 27 9.765625 28.8125 14.703125 
Q 29.203125 15.28125 29.59375 15.28125 
L 30.8125 15.28125 
Q 31.203125 15.28125 31.4375 15.015625 
Q 31.6875 14.75 31.6875 14.40625 
Q 31.6875 14.203125 31.59375 14.109375 
Q 29.390625 8.0625 25.1875 3.46875 
Q 21 -1.125 15.578125 -1.125 
Q 11.625 -1.125 8.90625 1.453125 
Q 6.203125 4.046875 6.203125 8.109375 
z
" id="Cmmi10-116"/>
     <path id="DejaVuSans-32"/>
     <path d="M 4.890625 30.90625 
L 95.125 30.90625 
L 95.125 23.875 
L 4.890625 23.875 
z
" id="DejaVuSans-8212"/>
     <path d="M 48.78125 52.59375 
L 48.78125 44.1875 
Q 44.96875 46.296875 41.140625 47.34375 
Q 37.3125 48.390625 33.40625 48.390625 
Q 24.65625 48.390625 19.8125 42.84375 
Q 14.984375 37.3125 14.984375 27.296875 
Q 14.984375 17.28125 19.8125 11.734375 
Q 24.65625 6.203125 33.40625 6.203125 
Q 37.3125 6.203125 41.140625 7.25 
Q 44.96875 8.296875 48.78125 10.40625 
L 48.78125 2.09375 
Q 45.015625 0.34375 40.984375 -0.53125 
Q 36.96875 -1.421875 32.421875 -1.421875 
Q 20.0625 -1.421875 12.78125 6.34375 
Q 5.515625 14.109375 5.515625 27.296875 
Q 5.515625 40.671875 12.859375 48.328125 
Q 20.21875 56 33.015625 56 
Q 37.15625 56 41.109375 55.140625 
Q 45.0625 54.296875 48.78125 52.59375 
z
" id="DejaVuSans-99"/>
     <path d="M 30.609375 48.390625 
Q 23.390625 48.390625 19.1875 42.75 
Q 14.984375 37.109375 14.984375 27.296875 
Q 14.984375 17.484375 19.15625 11.84375 
Q 23.34375 6.203125 30.609375 6.203125 
Q 37.796875 6.203125 41.984375 11.859375 
Q 46.1875 17.53125 46.1875 27.296875 
Q 46.1875 37.015625 41.984375 42.703125 
Q 37.796875 48.390625 30.609375 48.390625 
z
M 30.609375 56 
Q 42.328125 56 49.015625 48.375 
Q 55.71875 40.765625 55.71875 27.296875 
Q 55.71875 13.875 49.015625 6.21875 
Q 42.328125 -1.421875 30.609375 -1.421875 
Q 18.84375 -1.421875 12.171875 6.21875 
Q 5.515625 13.875 5.515625 27.296875 
Q 5.515625 40.765625 12.171875 48.375 
Q 18.84375 56 30.609375 56 
z
" id="DejaVuSans-111"/>
     <path d="M 54.890625 33.015625 
L 54.890625 0 
L 45.90625 0 
L 45.90625 32.71875 
Q 45.90625 40.484375 42.875 44.328125 
Q 39.84375 48.1875 33.796875 48.1875 
Q 26.515625 48.1875 22.3125 43.546875 
Q 18.109375 38.921875 18.109375 30.90625 
L 18.109375 0 
L 9.078125 0 
L 9.078125 54.6875 
L 18.109375 54.6875 
L 18.109375 46.1875 
Q 21.34375 51.125 25.703125 53.5625 
Q 30.078125 56 35.796875 56 
Q 45.21875 56 50.046875 50.171875 
Q 54.890625 44.34375 54.890625 33.015625 
z
" id="DejaVuSans-110"/>
     <path d="M 18.3125 70.21875 
L 18.3125 54.6875 
L 36.8125 54.6875 
L 36.8125 47.703125 
L 18.3125 47.703125 
L 18.3125 18.015625 
Q 18.3125 11.328125 20.140625 9.421875 
Q 21.96875 7.515625 27.59375 7.515625 
L 36.8125 7.515625 
L 36.8125 0 
L 27.59375 0 
Q 17.1875 0 13.234375 3.875 
Q 9.28125 7.765625 9.28125 18.015625 
L 9.28125 47.703125 
L 2.6875 47.703125 
L 2.6875 54.6875 
L 9.28125 54.6875 
L 9.28125 70.21875 
z
" id="DejaVuSans-116"/>
     <path d="M 41.109375 46.296875 
Q 39.59375 47.171875 37.8125 47.578125 
Q 36.03125 48 33.890625 48 
Q 26.265625 48 22.1875 43.046875 
Q 18.109375 38.09375 18.109375 28.8125 
L 18.109375 0 
L 9.078125 0 
L 9.078125 54.6875 
L 18.109375 54.6875 
L 18.109375 46.1875 
Q 20.953125 51.171875 25.484375 53.578125 
Q 30.03125 56 36.53125 56 
Q 37.453125 56 38.578125 55.875 
Q 39.703125 55.765625 41.0625 55.515625 
z
" id="DejaVuSans-114"/>
     <path d="M 34.28125 27.484375 
Q 23.390625 27.484375 19.1875 25 
Q 14.984375 22.515625 14.984375 16.5 
Q 14.984375 11.71875 18.140625 8.90625 
Q 21.296875 6.109375 26.703125 6.109375 
Q 34.1875 6.109375 38.703125 11.40625 
Q 43.21875 16.703125 43.21875 25.484375 
L 43.21875 27.484375 
z
M 52.203125 31.203125 
L 52.203125 0 
L 43.21875 0 
L 43.21875 8.296875 
Q 40.140625 3.328125 35.546875 0.953125 
Q 30.953125 -1.421875 24.3125 -1.421875 
Q 15.921875 -1.421875 10.953125 3.296875 
Q 6 8.015625 6 15.921875 
Q 6 25.140625 12.171875 29.828125 
Q 18.359375 34.515625 30.609375 34.515625 
L 43.21875 34.515625 
L 43.21875 35.40625 
Q 43.21875 41.609375 39.140625 45 
Q 35.0625 48.390625 27.6875 48.390625 
Q 23 48.390625 18.546875 47.265625 
Q 14.109375 46.140625 10.015625 43.890625 
L 10.015625 52.203125 
Q 14.9375 54.109375 19.578125 55.046875 
Q 24.21875 56 28.609375 56 
Q 40.484375 56 46.34375 49.84375 
Q 52.203125 43.703125 52.203125 31.203125 
z
" id="DejaVuSans-97"/>
     <path d="M 44.28125 53.078125 
L 44.28125 44.578125 
Q 40.484375 46.53125 36.375 47.5 
Q 32.28125 48.484375 27.875 48.484375 
Q 21.1875 48.484375 17.84375 46.4375 
Q 14.5 44.390625 14.5 40.28125 
Q 14.5 37.15625 16.890625 35.375 
Q 19.28125 33.59375 26.515625 31.984375 
L 29.59375 31.296875 
Q 39.15625 29.25 43.1875 25.515625 
Q 47.21875 21.78125 47.21875 15.09375 
Q 47.21875 7.46875 41.1875 3.015625 
Q 35.15625 -1.421875 24.609375 -1.421875 
Q 20.21875 -1.421875 15.453125 -0.5625 
Q 10.6875 0.296875 5.421875 2 
L 5.421875 11.28125 
Q 10.40625 8.6875 15.234375 7.390625 
Q 20.0625 6.109375 24.8125 6.109375 
Q 31.15625 6.109375 34.5625 8.28125 
Q 37.984375 10.453125 37.984375 14.40625 
Q 37.984375 18.0625 35.515625 20.015625 
Q 33.0625 21.96875 24.703125 23.78125 
L 21.578125 24.515625 
Q 13.234375 26.265625 9.515625 29.90625 
Q 5.8125 33.546875 5.8125 39.890625 
Q 5.8125 47.609375 11.28125 51.796875 
Q 16.75 56 26.8125 56 
Q 31.78125 56 36.171875 55.265625 
Q 40.578125 54.546875 44.28125 53.078125 
z
" id="DejaVuSans-115"/>
     <path d="M 24.3125 39.203125 
Q 19.875 35.25 17.796875 31.3125 
Q 15.71875 27.390625 15.71875 23.09375 
Q 15.71875 15.96875 20.890625 11.234375 
Q 26.078125 6.5 33.890625 6.5 
Q 38.53125 6.5 42.578125 8.03125 
Q 46.625 9.578125 50.203125 12.703125 
z
M 31.203125 44.671875 
L 56 19.28125 
Q 58.890625 23.640625 60.5 28.59375 
Q 62.109375 33.546875 62.40625 39.109375 
L 71.484375 39.109375 
Q 70.90625 32.671875 68.359375 26.359375 
Q 65.828125 20.0625 61.28125 13.921875 
L 74.90625 0 
L 62.59375 0 
L 55.609375 7.171875 
Q 50.53125 2.828125 44.96875 0.703125 
Q 39.40625 -1.421875 33.015625 -1.421875 
Q 21.234375 -1.421875 13.765625 5.296875 
Q 6.296875 12.015625 6.296875 22.515625 
Q 6.296875 28.765625 9.5625 34.25 
Q 12.84375 39.75 19.390625 44.578125 
Q 17.046875 47.65625 15.8125 50.703125 
Q 14.59375 53.765625 14.59375 56.6875 
Q 14.59375 64.59375 20.015625 69.40625 
Q 25.4375 74.21875 34.421875 74.21875 
Q 38.484375 74.21875 42.5 73.34375 
Q 46.53125 72.46875 50.6875 70.703125 
L 50.6875 61.8125 
Q 46.4375 64.109375 42.578125 65.296875 
Q 38.71875 66.5 35.40625 66.5 
Q 30.28125 66.5 27.078125 63.78125 
Q 23.875 61.078125 23.875 56.78125 
Q 23.875 54.296875 25.3125 51.78125 
Q 26.765625 49.265625 31.203125 44.671875 
z
" id="DejaVuSans-38"/>
     <path d="M 9.8125 72.90625 
L 55.90625 72.90625 
L 55.90625 64.59375 
L 19.671875 64.59375 
L 19.671875 43.015625 
L 54.390625 43.015625 
L 54.390625 34.71875 
L 19.671875 34.71875 
L 19.671875 8.296875 
L 56.78125 8.296875 
L 56.78125 0 
L 9.8125 0 
z
" id="DejaVuSans-69"/>
     <path d="M 39.40625 66.21875 
Q 28.65625 66.21875 22.328125 58.203125 
Q 16.015625 50.203125 16.015625 36.375 
Q 16.015625 22.609375 22.328125 14.59375 
Q 28.65625 6.59375 39.40625 6.59375 
Q 50.140625 6.59375 56.421875 14.59375 
Q 62.703125 22.609375 62.703125 36.375 
Q 62.703125 50.203125 56.421875 58.203125 
Q 50.140625 66.21875 39.40625 66.21875 
z
M 39.40625 74.21875 
Q 54.734375 74.21875 63.90625 63.9375 
Q 73.09375 53.65625 73.09375 36.375 
Q 73.09375 19.140625 63.90625 8.859375 
Q 54.734375 -1.421875 39.40625 -1.421875 
Q 24.03125 -1.421875 14.8125 8.828125 
Q 5.609375 19.09375 5.609375 36.375 
Q 5.609375 53.65625 14.8125 63.9375 
Q 24.03125 74.21875 39.40625 74.21875 
z
" id="DejaVuSans-79"/>
     <path d="M 9.8125 72.90625 
L 24.515625 72.90625 
L 43.109375 23.296875 
L 61.8125 72.90625 
L 76.515625 72.90625 
L 76.515625 0 
L 66.890625 0 
L 66.890625 64.015625 
L 48.09375 14.015625 
L 38.1875 14.015625 
L 19.390625 64.015625 
L 19.390625 0 
L 9.8125 0 
z
" id="DejaVuSans-77"/>
     <path d="M 31 75.875 
Q 24.46875 64.65625 21.28125 53.65625 
Q 18.109375 42.671875 18.109375 31.390625 
Q 18.109375 20.125 21.3125 9.0625 
Q 24.515625 -2 31 -13.1875 
L 23.1875 -13.1875 
Q 15.875 -1.703125 12.234375 9.375 
Q 8.59375 20.453125 8.59375 31.390625 
Q 8.59375 42.28125 12.203125 53.3125 
Q 15.828125 64.359375 23.1875 75.875 
z
" id="DejaVuSans-40"/>
     <path d="M 8.015625 75.875 
L 15.828125 75.875 
Q 23.140625 64.359375 26.78125 53.3125 
Q 30.421875 42.28125 30.421875 31.390625 
Q 30.421875 20.453125 26.78125 9.375 
Q 23.140625 -1.703125 15.828125 -13.1875 
L 8.015625 -13.1875 
Q 14.5 -2 17.703125 9.0625 
Q 20.90625 20.125 20.90625 31.390625 
Q 20.90625 42.671875 17.703125 53.65625 
Q 14.5 64.65625 8.015625 75.875 
z
" id="DejaVuSans-41"/>
    </defs>
    <g transform="translate(29.76 50.16)scale(0.24 -0.24)">
     <use transform="translate(0 0.125)" xlink:href="#Cmmi10-193"/>
     <use transform="translate(77.080078 0.125)" xlink:href="#Cmr10-61"/>
     <use transform="translate(172.324219 0.125)" xlink:href="#Cmr10-48"/>
     <use transform="translate(222.324219 0.125)" xlink:href="#Cmmi10-58"/>
     <use transform="translate(250.009766 0.125)" xlink:href="#Cmr10-54"/>
     <use transform="translate(300.009766 0.125)" xlink:href="#Cmr10-53"/>
     <use transform="translate(350.009766 0.125)" xlink:href="#Cmmi10-59"/>
     <use transform="translate(395.253906 0.125)" xlink:href="#Cmmi10-108"/>
     <use transform="translate(425.039062 -16.88125)scale(0.7)" xlink:href="#Cmmi10-112"/>
     <use transform="translate(466.621484 0.125)" xlink:href="#Cmmi10-61"/>
     <use transform="translate(516.621484 0.125)" xlink:href="#Cmmi10-190"/>
     <use transform="translate(591.260156 0.125)" xlink:href="#Cmr10-61"/>
     <use transform="translate(686.504297 0.125)" xlink:href="#Cmr10-50"/>
     <use transform="translate(736.504297 0.125)" xlink:href="#Cmmi10-59"/>
     <use transform="translate(781.748438 0.125)" xlink:href="#Cmmi10-78"/>
     <use transform="translate(862.070703 -16.88125)scale(0.7)" xlink:href="#Cmmi10-99"/>
     <use transform="translate(892.319727 -16.88125)scale(0.7)" xlink:href="#Cmmi10-108"/>
     <use transform="translate(913.169336 -16.88125)scale(0.7)" xlink:href="#Cmmi10-111"/>
     <use transform="translate(947.041406 -16.88125)scale(0.7)" xlink:href="#Cmmi10-110"/>
     <use transform="translate(989.048242 -16.88125)scale(0.7)" xlink:href="#Cmmi10-101"/>
     <use transform="translate(1021.587305 -16.88125)scale(0.7)" xlink:href="#Cmmi10-115"/>
     <use transform="translate(1078.267383 0.125)" xlink:href="#Cmr10-61"/>
     <use transform="translate(1173.511523 0.125)" xlink:href="#Cmr10-49"/>
     <use transform="translate(1223.511523 0.125)" xlink:href="#Cmmi10-101"/>
     <use transform="translate(1287.554492 0.125)" xlink:href="#Cmr10-43"/>
     <use transform="translate(1382.798633 0.125)" xlink:href="#Cmr10-48"/>
     <use transform="translate(1432.798633 0.125)" xlink:href="#Cmr10-50"/>
     <use transform="translate(1482.798633 0.125)" xlink:href="#Cmmi10-59"/>
     <use transform="translate(1528.042773 0.125)" xlink:href="#Cmmi10-116"/>
     <use transform="translate(1564.126758 -16.88125)scale(0.7)" xlink:href="#Cmmi10-116"/>
     <use transform="translate(1589.385547 -16.88125)scale(0.7)" xlink:href="#Cmmi10-111"/>
     <use transform="translate(1623.257617 -16.88125)scale(0.7)" xlink:href="#Cmmi10-116"/>
     <use transform="translate(1672.452344 0.125)" xlink:href="#Cmr10-61"/>
     <use transform="translate(1767.696484 0.125)" xlink:href="#Cmr10-49"/>
     <use transform="translate(1817.696484 0.125)" xlink:href="#Cmr10-48"/>
     <use transform="translate(1867.696484 0.125)" xlink:href="#Cmr10-48"/>
     <use transform="translate(1917.696484 0.125)" xlink:href="#DejaVuSans-32"/>
     <use transform="translate(1949.483594 0.125)" xlink:href="#DejaVuSans-8212"/>
     <use transform="translate(2049.483594 0.125)" xlink:href="#DejaVuSans-32"/>
     <use transform="translate(2081.270703 0.125)" xlink:href="#DejaVuSans-99"/>
     <use transform="translate(2136.251172 0.125)" xlink:href="#DejaVuSans-111"/>
     <use transform="translate(2197.432813 0.125)" xlink:href="#DejaVuSans-110"/>
     <use transform="translate(2260.811719 0.125)" xlink:href="#DejaVuSans-116"/>
     <use transform="translate(2300.020703 0.125)" xlink:href="#DejaVuSans-114"/>
     <use transform="translate(2341.133984 0.125)" xlink:href="#DejaVuSans-46"/>
     <use transform="translate(2372.921094 0.125)" xlink:href="#DejaVuSans-32"/>
     <use transform="translate(2404.708203 0.125)" xlink:href="#DejaVuSans-116"/>
     <use transform="translate(2443.917188 0.125)" xlink:href="#DejaVuSans-114"/>
     <use transform="translate(2485.030469 0.125)" xlink:href="#DejaVuSans-97"/>
     <use transform="translate(2546.309766 0.125)" xlink:href="#DejaVuSans-110"/>
     <use transform="translate(2609.688672 0.125)" xlink:href="#DejaVuSans-115"/>
     <use transform="translate(2661.788281 0.125)" xlink:href="#DejaVuSans-46"/>
     <use transform="translate(2693.575391 0.125)" xlink:href="#DejaVuSans-32"/>
     <use transform="translate(2725.3625 0.125)" xlink:href="#DejaVuSans-38"/>
     <use transform="translate(2803.341016 0.125)" xlink:href="#DejaVuSans-32"/>
     <use transform="translate(2835.128125 0.125)" xlink:href="#DejaVuSans-114"/>
     <use transform="translate(2876.241406 0.125)" xlink:href="#DejaVuSans-111"/>
     <use transform="translate(2937.423047 0.125)" xlink:href="#DejaVuSans-116"/>
     <use transform="translate(2976.632031 0.125)" xlink:href="#DejaVuSans-46"/>
     <use transform="translate(3008.419141 0.125)" xlink:href="#DejaVuSans-32"/>
     <use transform="translate(3040.20625 0.125)" xlink:href="#DejaVuSans-69"/>
     <use transform="translate(3103.389844 0.125)" xlink:href="#DejaVuSans-79"/>
     <use transform="translate(3182.100781 0.125)" xlink:href="#DejaVuSans-77"/>
     <use transform="translate(3268.380078 0.125)" xlink:href="#DejaVuSans-32"/>
     <use transform="translate(3300.167188 0.125)" xlink:href="#DejaVuSans-40"/>
     <use transform="translate(3339.180859 0.125)" xlink:href="#DejaVuSans-49"/>
     <use transform="translate(3402.803906 0.125)" xlink:href="#DejaVuSans-41"/>
    </g>
   </g>
   <g id="legend_1">
    <g id="patch_7">
     <path d="M 693.12 155.26875 
L 771.6 155.26875 
L 771.6 63.6 
L 693.12 63.6 
z
" style="fill:#ffffff;stroke:#000000;stroke-linejoin:miter;"/>
    </g>
    <g id="LineCollection_6">
     <path d="M 701.52 79.318125 
L 701.52 67.318125 
" style="fill:none;stroke:#0028ff;"/>
     <path d="M 718.32 79.318125 
L 718.32 67.318125 
" style="fill:none;stroke:#0028ff;"/>
    </g>
    <g id="line2d_46">
     <g>
      <use style="fill:#0028ff;stroke:#0028ff;stroke-width:0.5;" x="701.52" xlink:href="#m32ac357408" y="79.318125"/>
      <use style="fill:#0028ff;stroke:#0028ff;stroke-width:0.5;" x="718.32" xlink:href="#m32ac357408" y="79.318125"/>
     </g>
    </g>
    <g id="line2d_47">
     <g>
      <use style="fill:#0028ff;stroke:#0028ff;stroke-width:0.5;" x="701.52" xlink:href="#m32ac357408" y="67.318125"/>
      <use style="fill:#0028ff;stroke:#0028ff;stroke-width:0.5;" x="718.32" xlink:href="#m32ac357408" y="67.318125"/>
     </g>
    </g>
    <g id="line2d_48">
     <path d="M 701.52 73.318125 
L 718.32 73.318125 
" style="fill:none;stroke:#0028ff;stroke-linecap:square;"/>
    </g>
    <g id="line2d_49"/>
    <g id="text_19">
     <!-- $N=10$ -->
     <g transform="translate(731.52 77.518125)scale(0.12 -0.12)">
      <use transform="translate(0 0.6875)" xlink:href="#Cmmi10-78"/>
      <use transform="translate(97.880859 0.6875)" xlink:href="#Cmr10-61"/>
      <use transform="translate(193.125 0.6875)" xlink:href="#Cmr10-49"/>
      <use transform="translate(243.125 0.6875)" xlink:href="#Cmr10-48"/>
     </g>
    </g>
    <g id="LineCollection_7">
     <path d="M 701.52 96.931875 
L 701.52 84.931875 
" style="fill:none;stroke:#00d4ff;"/>
     <path d="M 718.32 96.931875 
L 718.32 84.931875 
" style="fill:none;stroke:#00d4ff;"/>
    </g>
    <g id="line2d_50">
     <g>
      <use style="fill:#00d4ff;stroke:#00d4ff;stroke-width:0.5;" x="701.52" xlink:href="#ma7dd431702" y="96.931875"/>
      <use style="fill:#00d4ff;stroke:#00d4ff;stroke-width:0.5;" x="718.32" xlink:href="#ma7dd431702" y="96.931875"/>
     </g>
    </g>
    <g id="line2d_51">
     <g>
      <use style="fill:#00d4ff;stroke:#00d4ff;stroke-width:0.5;" x="701.52" xlink:href="#ma7dd431702" y="84.931875"/>
      <use style="fill:#00d4ff;stroke:#00d4ff;stroke-width:0.5;" x="718.32" xlink:href="#ma7dd431702" y="84.931875"/>
     </g>
    </g>
    <g id="line2d_52">
     <path d="M 701.52 90.931875 
L 718.32 90.931875 
" style="fill:none;stroke:#00d4ff;stroke-linecap:square;"/>
    </g>
    <g id="line2d_53"/>
    <g id="text_20">
     <!-- $N=20$ -->
     <g transform="translate(731.52 95.131875)scale(0.12 -0.12)">
      <use transform="translate(0 0.6875)" xlink:href="#Cmmi10-78"/>
      <use transform="translate(97.880859 0.6875)" xlink:href="#Cmr10-61"/>
      <use transform="translate(193.125 0.6875)" xlink:href="#Cmr10-50"/>
      <use transform="translate(243.125 0.6875)" xlink:href="#Cmr10-48"/>
     </g>
    </g>
    <g id="LineCollection_8">
     <path d="M 701.52 114.545625 
L 701.52 102.545625 
" style="fill:none;stroke:#7dff7a;"/>
     <path d="M 718.32 114.545625 
L 718.32 102.545625 
" style="fill:none;stroke:#7dff7a;"/>
    </g>
    <g id="line2d_54">
     <g>
      <use style="fill:#7dff7a;stroke:#7dff7a;stroke-width:0.5;" x="701.52" xlink:href="#m54d481c9ea" y="114.545625"/>
      <use style="fill:#7dff7a;stroke:#7dff7a;stroke-width:0.5;" x="718.32" xlink:href="#m54d481c9ea" y="114.545625"/>
     </g>
    </g>
    <g id="line2d_55">
     <g>
      <use style="fill:#7dff7a;stroke:#7dff7a;stroke-width:0.5;" x="701.52" xlink:href="#m54d481c9ea" y="102.545625"/>
      <use style="fill:#7dff7a;stroke:#7dff7a;stroke-width:0.5;" x="718.32" xlink:href="#m54d481c9ea" y="102.545625"/>
     </g>
    </g>
    <g id="line2d_56">
     <path d="M 701.52 108.545625 
L 718.32 108.545625 
" style="fill:none;stroke:#7dff7a;stroke-linecap:square;"/>
    </g>
    <g id="line2d_57"/>
    <g id="text_21">
     <!-- $N=30$ -->
     <defs>
      <path d="M 9.515625 7.71875 
Q 11.859375 4.296875 15.8125 2.640625 
Q 19.78125 0.984375 24.3125 0.984375 
Q 30.125 0.984375 32.5625 5.9375 
Q 35.015625 10.890625 35.015625 17.1875 
Q 35.015625 20.015625 34.5 22.84375 
Q 33.984375 25.6875 32.765625 28.125 
Q 31.546875 30.5625 29.421875 32.03125 
Q 27.296875 33.5 24.21875 33.5 
L 17.578125 33.5 
Q 16.703125 33.5 16.703125 34.421875 
L 16.703125 35.296875 
Q 16.703125 36.078125 17.578125 36.078125 
L 23.09375 36.53125 
Q 26.609375 36.53125 28.921875 39.15625 
Q 31.25 41.796875 32.328125 45.578125 
Q 33.40625 49.359375 33.40625 52.78125 
Q 33.40625 57.5625 31.15625 60.640625 
Q 28.90625 63.71875 24.3125 63.71875 
Q 20.515625 63.71875 17.046875 62.28125 
Q 13.578125 60.84375 11.53125 57.90625 
Q 11.71875 57.953125 11.859375 57.984375 
Q 12.015625 58.015625 12.203125 58.015625 
Q 14.453125 58.015625 15.96875 56.453125 
Q 17.484375 54.890625 17.484375 52.6875 
Q 17.484375 50.53125 15.96875 48.96875 
Q 14.453125 47.40625 12.203125 47.40625 
Q 10.015625 47.40625 8.453125 48.96875 
Q 6.890625 50.53125 6.890625 52.6875 
Q 6.890625 56.984375 9.46875 60.15625 
Q 12.0625 63.328125 16.140625 64.96875 
Q 20.21875 66.609375 24.3125 66.609375 
Q 27.34375 66.609375 30.703125 65.703125 
Q 34.078125 64.796875 36.8125 63.109375 
Q 39.546875 61.421875 41.28125 58.78125 
Q 43.015625 56.15625 43.015625 52.78125 
Q 43.015625 48.578125 41.140625 45.015625 
Q 39.265625 41.453125 35.984375 38.859375 
Q 32.71875 36.28125 28.8125 35.015625 
Q 33.15625 34.1875 37.0625 31.734375 
Q 40.96875 29.296875 43.328125 25.484375 
Q 45.703125 21.6875 45.703125 17.28125 
Q 45.703125 11.765625 42.671875 7.296875 
Q 39.65625 2.828125 34.71875 0.3125 
Q 29.78125 -2.203125 24.3125 -2.203125 
Q 19.625 -2.203125 14.90625 -0.40625 
Q 10.203125 1.375 7.203125 4.9375 
Q 4.203125 8.5 4.203125 13.484375 
Q 4.203125 15.96875 5.859375 17.625 
Q 7.515625 19.28125 10.015625 19.28125 
Q 11.625 19.28125 12.96875 18.53125 
Q 14.3125 17.78125 15.0625 16.40625 
Q 15.828125 15.046875 15.828125 13.484375 
Q 15.828125 11.03125 14.109375 9.375 
Q 12.40625 7.71875 10.015625 7.71875 
z
" id="Cmr10-51"/>
     </defs>
     <g transform="translate(731.52 112.745625)scale(0.12 -0.12)">
      <use transform="translate(0 0.6875)" xlink:href="#Cmmi10-78"/>
      <use transform="translate(97.880859 0.6875)" xlink:href="#Cmr10-61"/>
      <use transform="translate(193.125 0.6875)" xlink:href="#Cmr10-51"/>
      <use transform="translate(243.125 0.6875)" xlink:href="#Cmr10-48"/>
     </g>
    </g>
    <g id="LineCollection_9">
     <path d="M 701.52 132.159375 
L 701.52 120.159375 
" style="fill:none;stroke:#ffe600;"/>
     <path d="M 718.32 132.159375 
L 718.32 120.159375 
" style="fill:none;stroke:#ffe600;"/>
    </g>
    <g id="line2d_58">
     <g>
      <use style="fill:#ffe600;stroke:#ffe600;stroke-width:0.5;" x="701.52" xlink:href="#m75452c8fe7" y="132.159375"/>
      <use style="fill:#ffe600;stroke:#ffe600;stroke-width:0.5;" x="718.32" xlink:href="#m75452c8fe7" y="132.159375"/>
     </g>
    </g>
    <g id="line2d_59">
     <g>
      <use style="fill:#ffe600;stroke:#ffe600;stroke-width:0.5;" x="701.52" xlink:href="#m75452c8fe7" y="120.159375"/>
      <use style="fill:#ffe600;stroke:#ffe600;stroke-width:0.5;" x="718.32" xlink:href="#m75452c8fe7" y="120.159375"/>
     </g>
    </g>
    <g id="line2d_60">
     <path d="M 701.52 126.159375 
L 718.32 126.159375 
" style="fill:none;stroke:#ffe600;stroke-linecap:square;"/>
    </g>
    <g id="line2d_61"/>
    <g id="text_22">
     <!-- $N=40$ -->
     <defs>
      <path d="M 2.78125 16.5 
L 2.78125 20.015625 
L 33.6875 66.109375 
Q 34.03125 66.609375 34.71875 66.609375 
L 36.1875 66.609375 
Q 37.3125 66.609375 37.3125 65.484375 
L 37.3125 20.015625 
L 47.125 20.015625 
L 47.125 16.5 
L 37.3125 16.5 
L 37.3125 6.6875 
Q 37.3125 4.640625 40.234375 4.078125 
Q 43.171875 3.515625 47.015625 3.515625 
L 47.015625 0 
L 19.484375 0 
L 19.484375 3.515625 
Q 23.34375 3.515625 26.265625 4.078125 
Q 29.203125 4.640625 29.203125 6.6875 
L 29.203125 16.5 
z
M 6.109375 20.015625 
L 29.78125 20.015625 
L 29.78125 55.421875 
z
" id="Cmr10-52"/>
     </defs>
     <g transform="translate(731.52 130.359375)scale(0.12 -0.12)">
      <use transform="translate(0 0.6875)" xlink:href="#Cmmi10-78"/>
      <use transform="translate(97.880859 0.6875)" xlink:href="#Cmr10-61"/>
      <use transform="translate(193.125 0.6875)" xlink:href="#Cmr10-52"/>
      <use transform="translate(243.125 0.6875)" xlink:href="#Cmr10-48"/>
     </g>
    </g>
    <g id="LineCollection_10">
     <path d="M 701.52 149.773125 
L 701.52 137.773125 
" style="fill:none;stroke:#ff4700;"/>
     <path d="M 718.32 149.773125 
L 718.32 137.773125 
" style="fill:none;stroke:#ff4700;"/>
    </g>
    <g id="line2d_62">
     <g>
      <use style="fill:#ff4700;stroke:#ff4700;stroke-width:0.5;" x="701.52" xlink:href="#maf6612a2b0" y="149.773125"/>
      <use style="fill:#ff4700;stroke:#ff4700;stroke-width:0.5;" x="718.32" xlink:href="#maf6612a2b0" y="149.773125"/>
     </g>
    </g>
    <g id="line2d_63">
     <g>
      <use style="fill:#ff4700;stroke:#ff4700;stroke-width:0.5;" x="701.52" xlink:href="#maf6612a2b0" y="137.773125"/>
      <use style="fill:#ff4700;stroke:#ff4700;stroke-width:0.5;" x="718.32" xlink:href="#maf6612a2b0" y="137.773125"/>
     </g>
    </g>
    <g id="line2d_64">
     <path d="M 701.52 143.773125 
L 718.32 143.773125 
" style="fill:none;stroke:#ff4700;stroke-linecap:square;"/>
    </g>
    <g id="line2d_65"/>
    <g id="text_23">
     <!-- $N=50$ -->
     <g transform="translate(731.52 147.973125)scale(0.12 -0.12)">
      <use transform="translate(0 0.6875)" xlink:href="#Cmmi10-78"/>
      <use transform="translate(97.880859 0.6875)" xlink:href="#Cmr10-61"/>
      <use transform="translate(193.125 0.6875)" xlink:href="#Cmr10-53"/>
      <use transform="translate(243.125 0.6875)" xlink:href="#Cmr10-48"/>
     </g>
    </g>
   </g>
  </g>
 </g>
 <defs>
  <clipPath id="p53b16a734e">
   <rect height="460.8" width="669.6" x="108" y="57.6"/>
  </clipPath>
 </defs>
</svg>
