<?xml version="1.0" encoding="utf-8" standalone="no"?>
<!DOCTYPE svg PUBLIC "-//W3C//DTD SVG 1.1//EN"
  "http://www.w3.org/Graphics/SVG/1.1/DTD/svg11.dtd">
<!-- Created with matplotlib (https://matplotlib.org/) -->
<svg height="497.52pt" version="1.1" viewBox="0 0 920.16 497.52" width="920.16pt" xmlns="http://www.w3.org/2000/svg" xmlns:xlink="http://www.w3.org/1999/xlink">
 <defs>
  <style type="text/css">
*{stroke-linecap:butt;stroke-linejoin:round;}
  </style>
 </defs>
 <g id="figure_1">
  <g id="patch_1">
   <path d="M 0 497.52 
L 920.16 497.52 
L 920.16 0 
L 0 0 
z
" style="fill:#ffffff;"/>
  </g>
  <g id="axes_1">
   <g id="patch_2">
    <path d="M 96.6168 440.3052 
L 915.5592 440.3052 
L 915.5592 29.8512 
L 96.6168 29.8512 
z
" style="fill:#ffffff;"/>
   </g>
   <g id="matplotlib.axis_1">
    <g id="xtick_1">
     <g id="line2d_1">
      <defs>
       <path d="M 0 0 
L 0 3.5 
" id="m863e6da319" style="stroke:#000000;stroke-width:0.8;"/>
      </defs>
      <g>
       <use style="stroke:#000000;stroke-width:0.8;" x="133.841455" xlink:href="#m863e6da319" y="440.3052"/>
      </g>
     </g>
     <g id="text_1">
      <!-- $\mathdefault{10^{0}}$ -->
      <defs>
       <path d="M 12.40625 8.296875 
L 28.515625 8.296875 
L 28.515625 63.921875 
L 10.984375 60.40625 
L 10.984375 69.390625 
L 28.421875 72.90625 
L 38.28125 72.90625 
L 38.28125 8.296875 
L 54.390625 8.296875 
L 54.390625 0 
L 12.40625 0 
z
" id="DejaVuSans-49"/>
       <path d="M 31.78125 66.40625 
Q 24.171875 66.40625 20.328125 58.90625 
Q 16.5 51.421875 16.5 36.375 
Q 16.5 21.390625 20.328125 13.890625 
Q 24.171875 6.390625 31.78125 6.390625 
Q 39.453125 6.390625 43.28125 13.890625 
Q 47.125 21.390625 47.125 36.375 
Q 47.125 51.421875 43.28125 58.90625 
Q 39.453125 66.40625 31.78125 66.40625 
z
M 31.78125 74.21875 
Q 44.046875 74.21875 50.515625 64.515625 
Q 56.984375 54.828125 56.984375 36.375 
Q 56.984375 17.96875 50.515625 8.265625 
Q 44.046875 -1.421875 31.78125 -1.421875 
Q 19.53125 -1.421875 13.0625 8.265625 
Q 6.59375 17.96875 6.59375 36.375 
Q 6.59375 54.828125 13.0625 64.515625 
Q 19.53125 74.21875 31.78125 74.21875 
z
" id="DejaVuSans-48"/>
      </defs>
      <g transform="translate(116.241455 462.502075)scale(0.2 -0.2)">
       <use transform="translate(0 0.765625)" xlink:href="#DejaVuSans-49"/>
       <use transform="translate(63.623047 0.765625)" xlink:href="#DejaVuSans-48"/>
       <use transform="translate(128.203125 39.046875)scale(0.7)" xlink:href="#DejaVuSans-48"/>
      </g>
     </g>
    </g>
    <g id="xtick_2">
     <g id="line2d_2">
      <g>
       <use style="stroke:#000000;stroke-width:0.8;" x="506.088" xlink:href="#m863e6da319" y="440.3052"/>
      </g>
     </g>
     <g id="text_2">
      <!-- $\mathdefault{10^{1}}$ -->
      <g transform="translate(488.488 462.502075)scale(0.2 -0.2)">
       <use transform="translate(0 0.684375)" xlink:href="#DejaVuSans-49"/>
       <use transform="translate(63.623047 0.684375)" xlink:href="#DejaVuSans-48"/>
       <use transform="translate(128.203125 38.965625)scale(0.7)" xlink:href="#DejaVuSans-49"/>
      </g>
     </g>
    </g>
    <g id="xtick_3">
     <g id="line2d_3">
      <g>
       <use style="stroke:#000000;stroke-width:0.8;" x="878.334545" xlink:href="#m863e6da319" y="440.3052"/>
      </g>
     </g>
     <g id="text_3">
      <!-- $\mathdefault{10^{2}}$ -->
      <defs>
       <path d="M 19.1875 8.296875 
L 53.609375 8.296875 
L 53.609375 0 
L 7.328125 0 
L 7.328125 8.296875 
Q 12.9375 14.109375 22.625 23.890625 
Q 32.328125 33.6875 34.8125 36.53125 
Q 39.546875 41.84375 41.421875 45.53125 
Q 43.3125 49.21875 43.3125 52.78125 
Q 43.3125 58.59375 39.234375 62.25 
Q 35.15625 65.921875 28.609375 65.921875 
Q 23.96875 65.921875 18.8125 64.3125 
Q 13.671875 62.703125 7.8125 59.421875 
L 7.8125 69.390625 
Q 13.765625 71.78125 18.9375 73 
Q 24.125 74.21875 28.421875 74.21875 
Q 39.75 74.21875 46.484375 68.546875 
Q 53.21875 62.890625 53.21875 53.421875 
Q 53.21875 48.921875 51.53125 44.890625 
Q 49.859375 40.875 45.40625 35.40625 
Q 44.1875 33.984375 37.640625 27.21875 
Q 31.109375 20.453125 19.1875 8.296875 
z
" id="DejaVuSans-50"/>
      </defs>
      <g transform="translate(860.734545 462.502075)scale(0.2 -0.2)">
       <use transform="translate(0 0.765625)" xlink:href="#DejaVuSans-49"/>
       <use transform="translate(63.623047 0.765625)" xlink:href="#DejaVuSans-48"/>
       <use transform="translate(128.203125 39.046875)scale(0.7)" xlink:href="#DejaVuSans-50"/>
      </g>
     </g>
    </g>
    <g id="xtick_4">
     <g id="line2d_4">
      <defs>
       <path d="M 0 0 
L 0 2 
" id="m9090fe2519" style="stroke:#000000;stroke-width:0.6;"/>
      </defs>
      <g>
       <use style="stroke:#000000;stroke-width:0.6;" x="97.767037" xlink:href="#m9090fe2519" y="440.3052"/>
      </g>
     </g>
    </g>
    <g id="xtick_5">
     <g id="line2d_5">
      <g>
       <use style="stroke:#000000;stroke-width:0.6;" x="116.808387" xlink:href="#m9090fe2519" y="440.3052"/>
      </g>
     </g>
    </g>
    <g id="xtick_6">
     <g id="line2d_6">
      <g>
       <use style="stroke:#000000;stroke-width:0.6;" x="245.898831" xlink:href="#m9090fe2519" y="440.3052"/>
      </g>
     </g>
    </g>
    <g id="xtick_7">
     <g id="line2d_7">
      <g>
       <use style="stroke:#000000;stroke-width:0.6;" x="311.448193" xlink:href="#m9090fe2519" y="440.3052"/>
      </g>
     </g>
    </g>
    <g id="xtick_8">
     <g id="line2d_8">
      <g>
       <use style="stroke:#000000;stroke-width:0.6;" x="357.956206" xlink:href="#m9090fe2519" y="440.3052"/>
      </g>
     </g>
    </g>
    <g id="xtick_9">
     <g id="line2d_9">
      <g>
       <use style="stroke:#000000;stroke-width:0.6;" x="394.030624" xlink:href="#m9090fe2519" y="440.3052"/>
      </g>
     </g>
    </g>
    <g id="xtick_10">
     <g id="line2d_10">
      <g>
       <use style="stroke:#000000;stroke-width:0.6;" x="423.505569" xlink:href="#m9090fe2519" y="440.3052"/>
      </g>
     </g>
    </g>
    <g id="xtick_11">
     <g id="line2d_11">
      <g>
       <use style="stroke:#000000;stroke-width:0.6;" x="448.426281" xlink:href="#m9090fe2519" y="440.3052"/>
      </g>
     </g>
    </g>
    <g id="xtick_12">
     <g id="line2d_12">
      <g>
       <use style="stroke:#000000;stroke-width:0.6;" x="470.013582" xlink:href="#m9090fe2519" y="440.3052"/>
      </g>
     </g>
    </g>
    <g id="xtick_13">
     <g id="line2d_13">
      <g>
       <use style="stroke:#000000;stroke-width:0.6;" x="489.054932" xlink:href="#m9090fe2519" y="440.3052"/>
      </g>
     </g>
    </g>
    <g id="xtick_14">
     <g id="line2d_14">
      <g>
       <use style="stroke:#000000;stroke-width:0.6;" x="618.145376" xlink:href="#m9090fe2519" y="440.3052"/>
      </g>
     </g>
    </g>
    <g id="xtick_15">
     <g id="line2d_15">
      <g>
       <use style="stroke:#000000;stroke-width:0.6;" x="683.694739" xlink:href="#m9090fe2519" y="440.3052"/>
      </g>
     </g>
    </g>
    <g id="xtick_16">
     <g id="line2d_16">
      <g>
       <use style="stroke:#000000;stroke-width:0.6;" x="730.202752" xlink:href="#m9090fe2519" y="440.3052"/>
      </g>
     </g>
    </g>
    <g id="xtick_17">
     <g id="line2d_17">
      <g>
       <use style="stroke:#000000;stroke-width:0.6;" x="766.277169" xlink:href="#m9090fe2519" y="440.3052"/>
      </g>
     </g>
    </g>
    <g id="xtick_18">
     <g id="line2d_18">
      <g>
       <use style="stroke:#000000;stroke-width:0.6;" x="795.752115" xlink:href="#m9090fe2519" y="440.3052"/>
      </g>
     </g>
    </g>
    <g id="xtick_19">
     <g id="line2d_19">
      <g>
       <use style="stroke:#000000;stroke-width:0.6;" x="820.672826" xlink:href="#m9090fe2519" y="440.3052"/>
      </g>
     </g>
    </g>
    <g id="xtick_20">
     <g id="line2d_20">
      <g>
       <use style="stroke:#000000;stroke-width:0.6;" x="842.260128" xlink:href="#m9090fe2519" y="440.3052"/>
      </g>
     </g>
    </g>
    <g id="xtick_21">
     <g id="line2d_21">
      <g>
       <use style="stroke:#000000;stroke-width:0.6;" x="861.301478" xlink:href="#m9090fe2519" y="440.3052"/>
      </g>
     </g>
    </g>
    <g id="text_4">
     <!-- $\tau/(l_p/\sigma)$ -->
     <defs>
      <path d="M 32.859375 9.96875 
Q 34.1875 7.625 39.453125 7.625 
L 43.75 7.625 
L 42.28125 0 
L 36.921875 0 
Q 28.125 0 25 4.6875 
Q 21.921875 9.46875 23.96875 19.828125 
L 29 45.703125 
L 8.453125 45.703125 
L 10.203125 54.6875 
L 60.640625 54.6875 
L 58.890625 45.703125 
L 38.1875 45.703125 
L 33.015625 19.28125 
Q 31.640625 12.203125 32.859375 9.96875 
z
" id="DejaVuSans-Oblique-964"/>
      <path d="M 25.390625 72.90625 
L 33.6875 72.90625 
L 8.296875 -9.28125 
L 0 -9.28125 
z
" id="DejaVuSans-47"/>
      <path d="M 31 75.875 
Q 24.46875 64.65625 21.28125 53.65625 
Q 18.109375 42.671875 18.109375 31.390625 
Q 18.109375 20.125 21.3125 9.0625 
Q 24.515625 -2 31 -13.1875 
L 23.1875 -13.1875 
Q 15.875 -1.703125 12.234375 9.375 
Q 8.59375 20.453125 8.59375 31.390625 
Q 8.59375 42.28125 12.203125 53.3125 
Q 15.828125 64.359375 23.1875 75.875 
z
" id="DejaVuSans-40"/>
      <path d="M 18.3125 75.984375 
L 27.296875 75.984375 
L 12.5 0 
L 3.515625 0 
z
" id="DejaVuSans-Oblique-108"/>
      <path d="M 49.609375 33.6875 
Q 49.609375 40.875 46.484375 44.671875 
Q 43.359375 48.484375 37.5 48.484375 
Q 33.5 48.484375 29.859375 46.4375 
Q 26.21875 44.390625 23.390625 40.484375 
Q 20.609375 36.625 18.9375 31.15625 
Q 17.28125 25.6875 17.28125 20.3125 
Q 17.28125 13.484375 20.40625 9.796875 
Q 23.53125 6.109375 29.296875 6.109375 
Q 33.546875 6.109375 37.1875 8.109375 
Q 40.828125 10.109375 43.40625 13.921875 
Q 46.1875 17.921875 47.890625 23.34375 
Q 49.609375 28.765625 49.609375 33.6875 
z
M 21.78125 46.390625 
Q 25.390625 51.125 30.296875 53.5625 
Q 35.203125 56 41.21875 56 
Q 49.609375 56 54.25 50.5 
Q 58.890625 45.015625 58.890625 35.109375 
Q 58.890625 27 56 19.65625 
Q 53.125 12.3125 47.703125 6.5 
Q 44.09375 2.640625 39.546875 0.609375 
Q 35.015625 -1.421875 29.984375 -1.421875 
Q 24.171875 -1.421875 20.21875 1 
Q 16.265625 3.421875 14.3125 8.203125 
L 8.6875 -20.796875 
L -0.296875 -20.796875 
L 14.40625 54.6875 
L 23.390625 54.6875 
z
" id="DejaVuSans-Oblique-112"/>
      <path d="M 34.671875 47.5625 
Q 27.25 47.5625 22.21875 42.1875 
Q 16.890625 36.578125 15.140625 27.296875 
Q 13.1875 17.484375 16.3125 11.8125 
Q 19.390625 6.203125 26.65625 6.203125 
Q 33.84375 6.203125 39.109375 11.859375 
Q 44.4375 17.53125 46.34375 27.296875 
Q 48.046875 36.234375 45.015625 42.1875 
Q 42.1875 47.5625 34.671875 47.5625 
z
M 36.078125 54.734375 
L 65.921875 54.6875 
L 64.15625 45.703125 
L 54.109375 45.703125 
Q 57.90625 38.09375 55.859375 27.296875 
Q 53.21875 13.875 45.0625 6.25 
Q 36.859375 -1.421875 25.140625 -1.421875 
Q 13.375 -1.421875 8.203125 6.25 
Q 3.03125 13.875 5.671875 27.296875 
Q 8.25 40.765625 16.40625 48.390625 
Q 23.1875 54.734375 36.078125 54.734375 
z
" id="DejaVuSans-Oblique-963"/>
      <path d="M 8.015625 75.875 
L 15.828125 75.875 
Q 23.140625 64.359375 26.78125 53.3125 
Q 30.421875 42.28125 30.421875 31.390625 
Q 30.421875 20.453125 26.78125 9.375 
Q 23.140625 -1.703125 15.828125 -13.1875 
L 8.015625 -13.1875 
Q 14.5 -2 17.703125 9.0625 
Q 20.90625 20.125 20.90625 31.390625 
Q 20.90625 42.671875 17.703125 53.65625 
Q 14.5 64.65625 8.015625 75.875 
z
" id="DejaVuSans-41"/>
     </defs>
     <g transform="translate(471.688 485.86145)scale(0.2 -0.2)">
      <use transform="translate(0 0.015625)" xlink:href="#DejaVuSans-Oblique-964"/>
      <use transform="translate(60.205078 0.015625)" xlink:href="#DejaVuSans-47"/>
      <use transform="translate(93.896484 0.015625)" xlink:href="#DejaVuSans-40"/>
      <use transform="translate(132.910156 0.015625)" xlink:href="#DejaVuSans-Oblique-108"/>
      <use transform="translate(160.693359 -16.390625)scale(0.7)" xlink:href="#DejaVuSans-Oblique-112"/>
      <use transform="translate(207.861328 0.015625)" xlink:href="#DejaVuSans-47"/>
      <use transform="translate(241.552734 0.015625)" xlink:href="#DejaVuSans-Oblique-963"/>
      <use transform="translate(304.931641 0.015625)" xlink:href="#DejaVuSans-41"/>
     </g>
    </g>
   </g>
   <g id="matplotlib.axis_2">
    <g id="ytick_1">
     <g id="line2d_22">
      <defs>
       <path d="M 0 0 
L -3.5 0 
" id="m710b720a15" style="stroke:#000000;stroke-width:0.8;"/>
      </defs>
      <g>
       <use style="stroke:#000000;stroke-width:0.8;" x="96.6168" xlink:href="#m710b720a15" y="416.151678"/>
      </g>
     </g>
     <g id="text_5">
      <!-- $\mathdefault{10^{-4}}$ -->
      <defs>
       <path d="M 10.59375 35.5 
L 73.1875 35.5 
L 73.1875 27.203125 
L 10.59375 27.203125 
z
" id="DejaVuSans-8722"/>
       <path d="M 37.796875 64.3125 
L 12.890625 25.390625 
L 37.796875 25.390625 
z
M 35.203125 72.90625 
L 47.609375 72.90625 
L 47.609375 25.390625 
L 58.015625 25.390625 
L 58.015625 17.1875 
L 47.609375 17.1875 
L 47.609375 0 
L 37.796875 0 
L 37.796875 17.1875 
L 4.890625 17.1875 
L 4.890625 26.703125 
z
" id="DejaVuSans-52"/>
      </defs>
      <g transform="translate(42.6168 423.750116)scale(0.2 -0.2)">
       <use transform="translate(0 0.684375)" xlink:href="#DejaVuSans-49"/>
       <use transform="translate(63.623047 0.684375)" xlink:href="#DejaVuSans-48"/>
       <use transform="translate(128.203125 38.965625)scale(0.7)" xlink:href="#DejaVuSans-8722"/>
       <use transform="translate(186.855469 38.965625)scale(0.7)" xlink:href="#DejaVuSans-52"/>
      </g>
     </g>
    </g>
    <g id="ytick_2">
     <g id="line2d_23">
      <g>
       <use style="stroke:#000000;stroke-width:0.8;" x="96.6168" xlink:href="#m710b720a15" y="210.440535"/>
      </g>
     </g>
     <g id="text_6">
      <!-- $\mathdefault{10^{-3}}$ -->
      <defs>
       <path d="M 40.578125 39.3125 
Q 47.65625 37.796875 51.625 33 
Q 55.609375 28.21875 55.609375 21.1875 
Q 55.609375 10.40625 48.1875 4.484375 
Q 40.765625 -1.421875 27.09375 -1.421875 
Q 22.515625 -1.421875 17.65625 -0.515625 
Q 12.796875 0.390625 7.625 2.203125 
L 7.625 11.71875 
Q 11.71875 9.328125 16.59375 8.109375 
Q 21.484375 6.890625 26.8125 6.890625 
Q 36.078125 6.890625 40.9375 10.546875 
Q 45.796875 14.203125 45.796875 21.1875 
Q 45.796875 27.640625 41.28125 31.265625 
Q 36.765625 34.90625 28.71875 34.90625 
L 20.21875 34.90625 
L 20.21875 43.015625 
L 29.109375 43.015625 
Q 36.375 43.015625 40.234375 45.921875 
Q 44.09375 48.828125 44.09375 54.296875 
Q 44.09375 59.90625 40.109375 62.90625 
Q 36.140625 65.921875 28.71875 65.921875 
Q 24.65625 65.921875 20.015625 65.03125 
Q 15.375 64.15625 9.8125 62.3125 
L 9.8125 71.09375 
Q 15.4375 72.65625 20.34375 73.4375 
Q 25.25 74.21875 29.59375 74.21875 
Q 40.828125 74.21875 47.359375 69.109375 
Q 53.90625 64.015625 53.90625 55.328125 
Q 53.90625 49.265625 50.4375 45.09375 
Q 46.96875 40.921875 40.578125 39.3125 
z
" id="DejaVuSans-51"/>
      </defs>
      <g transform="translate(42.6168 218.038973)scale(0.2 -0.2)">
       <use transform="translate(0 0.765625)" xlink:href="#DejaVuSans-49"/>
       <use transform="translate(63.623047 0.765625)" xlink:href="#DejaVuSans-48"/>
       <use transform="translate(128.203125 39.046875)scale(0.7)" xlink:href="#DejaVuSans-8722"/>
       <use transform="translate(186.855469 39.046875)scale(0.7)" xlink:href="#DejaVuSans-51"/>
      </g>
     </g>
    </g>
    <g id="ytick_3">
     <g id="line2d_24">
      <defs>
       <path d="M 0 0 
L -2 0 
" id="mff5d86817f" style="stroke:#000000;stroke-width:0.6;"/>
      </defs>
      <g>
       <use style="stroke:#000000;stroke-width:0.6;" x="96.6168" xlink:href="#mff5d86817f" y="436.087148"/>
      </g>
     </g>
    </g>
    <g id="ytick_4">
     <g id="line2d_25">
      <g>
       <use style="stroke:#000000;stroke-width:0.6;" x="96.6168" xlink:href="#mff5d86817f" y="425.564504"/>
      </g>
     </g>
    </g>
    <g id="ytick_5">
     <g id="line2d_26">
      <g>
       <use style="stroke:#000000;stroke-width:0.6;" x="96.6168" xlink:href="#mff5d86817f" y="354.226454"/>
      </g>
     </g>
    </g>
    <g id="ytick_6">
     <g id="line2d_27">
      <g>
       <use style="stroke:#000000;stroke-width:0.6;" x="96.6168" xlink:href="#mff5d86817f" y="318.00252"/>
      </g>
     </g>
    </g>
    <g id="ytick_7">
     <g id="line2d_28">
      <g>
       <use style="stroke:#000000;stroke-width:0.6;" x="96.6168" xlink:href="#mff5d86817f" y="292.301229"/>
      </g>
     </g>
    </g>
    <g id="ytick_8">
     <g id="line2d_29">
      <g>
       <use style="stroke:#000000;stroke-width:0.6;" x="96.6168" xlink:href="#mff5d86817f" y="272.36576"/>
      </g>
     </g>
    </g>
    <g id="ytick_9">
     <g id="line2d_30">
      <g>
       <use style="stroke:#000000;stroke-width:0.6;" x="96.6168" xlink:href="#mff5d86817f" y="256.077295"/>
      </g>
     </g>
    </g>
    <g id="ytick_10">
     <g id="line2d_31">
      <g>
       <use style="stroke:#000000;stroke-width:0.6;" x="96.6168" xlink:href="#mff5d86817f" y="242.305595"/>
      </g>
     </g>
    </g>
    <g id="ytick_11">
     <g id="line2d_32">
      <g>
       <use style="stroke:#000000;stroke-width:0.6;" x="96.6168" xlink:href="#mff5d86817f" y="230.376005"/>
      </g>
     </g>
    </g>
    <g id="ytick_12">
     <g id="line2d_33">
      <g>
       <use style="stroke:#000000;stroke-width:0.6;" x="96.6168" xlink:href="#mff5d86817f" y="219.853361"/>
      </g>
     </g>
    </g>
    <g id="ytick_13">
     <g id="line2d_34">
      <g>
       <use style="stroke:#000000;stroke-width:0.6;" x="96.6168" xlink:href="#mff5d86817f" y="148.515311"/>
      </g>
     </g>
    </g>
    <g id="ytick_14">
     <g id="line2d_35">
      <g>
       <use style="stroke:#000000;stroke-width:0.6;" x="96.6168" xlink:href="#mff5d86817f" y="112.291377"/>
      </g>
     </g>
    </g>
    <g id="ytick_15">
     <g id="line2d_36">
      <g>
       <use style="stroke:#000000;stroke-width:0.6;" x="96.6168" xlink:href="#mff5d86817f" y="86.590086"/>
      </g>
     </g>
    </g>
    <g id="ytick_16">
     <g id="line2d_37">
      <g>
       <use style="stroke:#000000;stroke-width:0.6;" x="96.6168" xlink:href="#mff5d86817f" y="66.654617"/>
      </g>
     </g>
    </g>
    <g id="ytick_17">
     <g id="line2d_38">
      <g>
       <use style="stroke:#000000;stroke-width:0.6;" x="96.6168" xlink:href="#mff5d86817f" y="50.366152"/>
      </g>
     </g>
    </g>
    <g id="ytick_18">
     <g id="line2d_39">
      <g>
       <use style="stroke:#000000;stroke-width:0.6;" x="96.6168" xlink:href="#mff5d86817f" y="36.594452"/>
      </g>
     </g>
    </g>
    <g id="text_7">
     <!-- $\frac{\tau}{l_p/\sigma} Var(w(t_0, t_0 + \tau))_{t_0}$ -->
     <defs>
      <path d="M 20.609375 0 
L 7.8125 72.90625 
L 17.484375 72.90625 
L 28.078125 10.203125 
L 63.484375 72.90625 
L 74.21875 72.90625 
L 32.078125 0 
z
" id="DejaVuSans-Oblique-86"/>
      <path d="M 53.71875 31.203125 
L 47.609375 0 
L 38.625 0 
L 40.28125 8.296875 
Q 36.328125 3.421875 31.265625 1 
Q 26.21875 -1.421875 20.015625 -1.421875 
Q 13.03125 -1.421875 8.5625 2.84375 
Q 4.109375 7.125 4.109375 13.8125 
Q 4.109375 23.390625 11.75 28.953125 
Q 19.390625 34.515625 32.8125 34.515625 
L 45.3125 34.515625 
L 45.796875 36.921875 
Q 45.90625 37.3125 45.953125 37.765625 
Q 46 38.234375 46 39.203125 
Q 46 43.5625 42.453125 45.96875 
Q 38.921875 48.390625 32.515625 48.390625 
Q 28.125 48.390625 23.5 47.265625 
Q 18.890625 46.140625 14.015625 43.890625 
L 15.578125 52.203125 
Q 20.65625 54.109375 25.515625 55.046875 
Q 30.375 56 34.90625 56 
Q 44.578125 56 49.625 51.796875 
Q 54.6875 47.609375 54.6875 39.59375 
Q 54.6875 37.984375 54.4375 35.8125 
Q 54.203125 33.640625 53.71875 31.203125 
z
M 44 27.484375 
L 35.015625 27.484375 
Q 23.96875 27.484375 18.671875 24.53125 
Q 13.375 21.578125 13.375 15.375 
Q 13.375 11.078125 16.078125 8.640625 
Q 18.796875 6.203125 23.578125 6.203125 
Q 30.90625 6.203125 36.375 11.453125 
Q 41.84375 16.703125 43.609375 25.484375 
z
" id="DejaVuSans-Oblique-97"/>
      <path d="M 44.578125 46.390625 
Q 43.21875 47.125 41.453125 47.515625 
Q 39.703125 47.90625 37.703125 47.90625 
Q 30.515625 47.90625 25.140625 42.453125 
Q 19.78125 37.015625 18.015625 27.875 
L 12.5 0 
L 3.515625 0 
L 14.203125 54.6875 
L 23.1875 54.6875 
L 21.484375 46.1875 
Q 25.046875 50.921875 30 53.453125 
Q 34.96875 56 40.578125 56 
Q 42.046875 56 43.453125 55.828125 
Q 44.875 55.671875 46.296875 55.28125 
z
" id="DejaVuSans-Oblique-114"/>
      <path d="M 8.5 54.6875 
L 17.390625 54.6875 
L 19.671875 10.6875 
L 40.09375 54.6875 
L 50.484375 54.6875 
L 53.515625 10.6875 
L 72.90625 54.6875 
L 81.890625 54.6875 
L 56.890625 0 
L 46.390625 0 
L 43.703125 45.3125 
L 22.796875 0 
L 12.203125 0 
z
" id="DejaVuSans-Oblique-119"/>
      <path d="M 42.28125 54.6875 
L 40.921875 47.703125 
L 23 47.703125 
L 17.1875 18.015625 
Q 16.890625 16.359375 16.75 15.234375 
Q 16.609375 14.109375 16.609375 13.484375 
Q 16.609375 10.359375 18.484375 8.9375 
Q 20.359375 7.515625 24.515625 7.515625 
L 33.59375 7.515625 
L 32.078125 0 
L 23.484375 0 
Q 15.484375 0 11.546875 3.125 
Q 7.625 6.25 7.625 12.59375 
Q 7.625 13.71875 7.765625 15.0625 
Q 7.90625 16.40625 8.203125 18.015625 
L 14.015625 47.703125 
L 6.390625 47.703125 
L 7.8125 54.6875 
L 15.28125 54.6875 
L 18.3125 70.21875 
L 27.296875 70.21875 
L 24.3125 54.6875 
z
" id="DejaVuSans-Oblique-116"/>
      <path d="M 11.71875 12.40625 
L 22.015625 12.40625 
L 22.015625 4 
L 14.015625 -11.625 
L 7.71875 -11.625 
L 11.71875 4 
z
" id="DejaVuSans-44"/>
      <path d="M 46 62.703125 
L 46 35.5 
L 73.1875 35.5 
L 73.1875 27.203125 
L 46 27.203125 
L 46 0 
L 37.796875 0 
L 37.796875 27.203125 
L 10.59375 27.203125 
L 10.59375 35.5 
L 37.796875 35.5 
L 37.796875 62.703125 
z
" id="DejaVuSans-43"/>
     </defs>
     <g transform="translate(26.0168 336.3782)rotate(-90)scale(0.2 -0.2)">
      <use transform="translate(39 44.71875)scale(0.7)" xlink:href="#DejaVuSans-Oblique-964"/>
      <use transform="translate(0 -39.720313)scale(0.7)" xlink:href="#DejaVuSans-Oblique-108"/>
      <use transform="translate(19.448242 -51.204688)scale(0.49)" xlink:href="#DejaVuSans-Oblique-112"/>
      <use transform="translate(52.46582 -39.720313)scale(0.7)" xlink:href="#DejaVuSans-47"/>
      <use transform="translate(76.049805 -39.720313)scale(0.7)" xlink:href="#DejaVuSans-Oblique-963"/>
      <use transform="translate(132.915039 0.921875)" xlink:href="#DejaVuSans-Oblique-86"/>
      <use transform="translate(201.323242 0.921875)" xlink:href="#DejaVuSans-Oblique-97"/>
      <use transform="translate(262.602539 0.921875)" xlink:href="#DejaVuSans-Oblique-114"/>
      <use transform="translate(303.71582 0.921875)" xlink:href="#DejaVuSans-40"/>
      <use transform="translate(342.729492 0.921875)" xlink:href="#DejaVuSans-Oblique-119"/>
      <use transform="translate(424.516602 0.921875)" xlink:href="#DejaVuSans-40"/>
      <use transform="translate(463.530273 0.921875)" xlink:href="#DejaVuSans-Oblique-116"/>
      <use transform="translate(502.739258 -15.484375)scale(0.7)" xlink:href="#DejaVuSans-48"/>
      <use transform="translate(550.009766 0.921875)" xlink:href="#DejaVuSans-44"/>
      <use transform="translate(601.279297 0.921875)" xlink:href="#DejaVuSans-Oblique-116"/>
      <use transform="translate(640.488281 -15.484375)scale(0.7)" xlink:href="#DejaVuSans-48"/>
      <use transform="translate(707.241211 0.921875)" xlink:href="#DejaVuSans-43"/>
      <use transform="translate(810.512695 0.921875)" xlink:href="#DejaVuSans-Oblique-964"/>
      <use transform="translate(870.717773 0.921875)" xlink:href="#DejaVuSans-41"/>
      <use transform="translate(909.731445 0.921875)" xlink:href="#DejaVuSans-41"/>
      <use transform="translate(949.702148 -15.484375)scale(0.7)" xlink:href="#DejaVuSans-Oblique-116"/>
      <use transform="translate(977.148438 -26.96875)scale(0.49)" xlink:href="#DejaVuSans-48"/>
      <path d="M 0 19.71875 
L 0 25.96875 
L 120.415039 25.96875 
L 120.415039 19.71875 
L 0 19.71875 
z
"/>
     </g>
    </g>
   </g>
   <g id="line2d_40">
    <path clip-path="url(#p610480ee97)" d="M 133.841455 100.358629 
L 245.898831 86.299499 
L 311.448193 82.990611 
L 357.956206 83.415228 
L 394.030624 70.565263 
L 423.505569 82.500456 
L 448.426281 65.991584 
L 470.013582 94.009912 
L 489.054932 80.563846 
L 506.088 74.031638 
L 521.496284 64.142178 
L 535.562945 71.352437 
L 548.503019 78.479936 
L 560.483656 71.495443 
L 571.637363 62.6071 
L 582.070958 110.610537 
L 591.871815 79.904134 
L 601.112308 86.848154 
L 609.853065 63.368175 
L 618.145376 74.478215 
L 626.033019 53.987821 
L 633.55366 58.182085 
L 640.739937 50.493185 
L 647.620321 49.759164 
L 654.219794 48.5082 
L 660.560395 48.563693 
L 666.661671 78.852893 
L 672.541032 59.664127 
L 683.694739 73.125833 
L 688.995693 70.891429 
L 699.103023 93.22012 
L 703.929191 104.333531 
L 713.169684 49.345852 
L 721.910441 57.282166 
L 726.109758 100.034998 
L 734.194674 99.088851 
L 741.894444 77.214727 
L 749.244102 92.556446 
L 759.677697 56.650864 
L 766.277169 81.073245 
L 772.617771 86.486262 
L 781.685454 105.284294 
L 787.459804 193.613472 
L 795.752115 220.422268 
L 803.639758 84.489773 
L 811.160399 95.318058 
L 818.346676 98.0322 
L 825.22706 179.102598 
L 833.967817 167.439773 
L 840.226584 153.308269 
L 848.211645 131.608949 
L 855.820796 209.302644 
L 863.087845 203.993569 
L 870.042234 208.613437 
L 878.334545 194.879106 
" style="fill:none;stroke:#0010ff;stroke-linecap:square;stroke-width:1.5;"/>
   </g>
   <g id="line2d_41">
    <path clip-path="url(#p610480ee97)" d="M 133.841455 179.33327 
L 245.898831 169.104658 
L 311.448193 165.203315 
L 357.956206 171.479898 
L 394.030624 169.867382 
L 423.505569 162.868282 
L 448.426281 188.023521 
L 470.013582 184.208321 
L 489.054932 164.139006 
L 506.088 177.821286 
L 521.496284 170.276552 
L 535.562945 199.834711 
L 548.503019 169.736969 
L 560.483656 194.477263 
L 571.637363 179.80476 
L 582.070958 192.901251 
L 591.871815 195.035513 
L 601.112308 174.854613 
L 609.853065 194.172357 
L 618.145376 208.455542 
L 626.033019 221.332178 
L 633.55366 194.246732 
L 640.739937 242.978435 
L 647.620321 226.749691 
L 654.219794 217.546022 
L 660.560395 203.247208 
L 666.661671 202.901257 
L 672.541032 205.481766 
L 683.694739 178.584075 
L 688.995693 189.247491 
L 699.103023 206.713822 
L 703.929191 278.839894 
L 713.169684 245.341909 
L 721.910441 233.700878 
L 726.109758 213.195158 
L 734.194674 201.666496 
L 741.894444 219.090709 
L 749.244102 207.791319 
L 759.677697 238.510056 
L 766.277169 244.422036 
L 772.617771 224.645768 
L 781.685454 176.561514 
L 787.459804 223.076025 
L 795.752115 237.949147 
L 803.639758 226.182214 
L 811.160399 268.948863 
L 818.346676 293.860582 
L 825.22706 289.516298 
L 833.967817 287.326656 
L 840.226584 283.081154 
L 848.211645 250.725748 
L 855.820796 245.312871 
L 863.087845 271.630626 
L 870.042234 278.346163 
L 878.334545 314.522887 
" style="fill:none;stroke:#00a4ff;stroke-linecap:square;stroke-width:1.5;"/>
   </g>
   <g id="line2d_42">
    <path clip-path="url(#p610480ee97)" d="M 133.841455 233.704458 
L 245.898831 232.038295 
L 311.448193 230.062654 
L 357.956206 218.758843 
L 394.030624 242.360794 
L 423.505569 217.733432 
L 448.426281 228.031331 
L 470.013582 226.728401 
L 489.054932 226.396087 
L 506.088 256.908048 
L 521.496284 259.363942 
L 535.562945 233.464796 
L 548.503019 276.490409 
L 560.483656 255.828106 
L 571.637363 256.576559 
L 582.070958 245.388059 
L 591.871815 241.977247 
L 601.112308 266.63648 
L 609.853065 274.435459 
L 618.145376 254.27498 
L 626.033019 232.309033 
L 633.55366 250.968826 
L 640.739937 244.381834 
L 647.620321 259.018465 
L 654.219794 258.112528 
L 660.560395 265.429773 
L 666.661671 248.036156 
L 672.541032 232.934198 
L 683.694739 240.32748 
L 688.995693 241.887877 
L 699.103023 227.346016 
L 703.929191 217.551756 
L 713.169684 257.428456 
L 721.910441 257.653726 
L 726.109758 214.428142 
L 734.194674 205.288857 
L 741.894444 209.552828 
L 749.244102 238.927307 
L 759.677697 254.037886 
L 766.277169 224.512433 
L 772.617771 233.780348 
L 781.685454 240.936961 
L 787.459804 247.635946 
L 795.752115 251.770234 
L 803.639758 183.595371 
L 811.160399 199.585115 
L 818.346676 212.238219 
L 825.22706 266.528725 
L 833.967817 254.325691 
L 840.226584 256.601566 
L 848.211645 260.501419 
L 855.820796 281.868543 
L 863.087845 243.707403 
L 870.042234 270.444699 
L 878.334545 213.091776 
" style="fill:none;stroke:#40ffb7;stroke-linecap:square;stroke-width:1.5;"/>
   </g>
   <g id="line2d_43">
    <path clip-path="url(#p610480ee97)" d="M 133.841455 286.593861 
L 245.898831 278.302234 
L 311.448193 278.485017 
L 357.956206 270.450691 
L 394.030624 260.695143 
L 423.505569 265.039995 
L 448.426281 270.916065 
L 470.013582 271.819335 
L 489.054932 270.296892 
L 506.088 268.330838 
L 521.496284 253.502055 
L 535.562945 258.387194 
L 548.503019 270.826499 
L 560.483656 290.52083 
L 571.637363 250.929209 
L 582.070958 266.59617 
L 591.871815 284.941629 
L 601.112308 262.584679 
L 609.853065 285.298755 
L 618.145376 281.372182 
L 626.033019 297.696231 
L 633.55366 272.376718 
L 640.739937 269.756495 
L 647.620321 265.05363 
L 654.219794 277.873957 
L 660.560395 268.814968 
L 666.661671 288.025927 
L 672.541032 298.428882 
L 683.694739 294.928203 
L 688.995693 303.379128 
L 699.103023 264.826007 
L 703.929191 264.509525 
L 713.169684 256.962382 
L 721.910441 265.412909 
L 726.109758 269.319542 
L 734.194674 267.532751 
L 741.894444 291.728297 
L 749.244102 303.024568 
L 759.677697 276.540822 
L 766.277169 286.093412 
L 772.617771 287.493713 
L 781.685454 283.07896 
L 787.459804 308.329077 
L 795.752115 309.915051 
L 803.639758 334.705771 
L 811.160399 308.114462 
L 818.346676 355.991131 
L 825.22706 347.418887 
L 833.967817 324.473 
L 840.226584 318.443967 
L 848.211645 328.61494 
L 855.820796 279.477141 
L 863.087845 278.513961 
L 870.042234 280.638961 
L 878.334545 310.082261 
" style="fill:none;stroke:#b7ff40;stroke-linecap:square;stroke-width:1.5;"/>
   </g>
   <g id="line2d_44">
    <path clip-path="url(#p610480ee97)" d="M 133.841455 293.651011 
L 245.898831 273.503018 
L 311.448193 275.683867 
L 357.956206 263.996146 
L 394.030624 270.464703 
L 423.505569 264.89689 
L 448.426281 265.774666 
L 470.013582 290.570184 
L 489.054932 258.170956 
L 506.088 263.580508 
L 521.496284 279.10916 
L 535.562945 257.971083 
L 548.503019 272.217134 
L 560.483656 278.026888 
L 571.637363 281.421209 
L 582.070958 305.248806 
L 591.871815 290.157335 
L 601.112308 338.6922 
L 609.853065 272.432843 
L 618.145376 301.971326 
L 626.033019 303.604273 
L 633.55366 269.273804 
L 640.739937 295.183906 
L 647.620321 326.951117 
L 654.219794 284.220681 
L 660.560395 272.746842 
L 666.661671 300.16274 
L 672.541032 263.451741 
L 683.694739 258.944479 
L 688.995693 251.835091 
L 699.103023 257.247729 
L 703.929191 309.555194 
L 713.169684 277.418406 
L 721.910441 276.479464 
L 726.109758 313.177451 
L 734.194674 305.300796 
L 741.894444 248.226282 
L 749.244102 264.822119 
L 759.677697 290.775698 
L 766.277169 290.71399 
L 772.617771 287.789147 
L 781.685454 303.653085 
L 787.459804 304.490391 
L 795.752115 282.052828 
L 803.639758 284.151291 
L 811.160399 312.847904 
L 818.346676 286.613039 
L 825.22706 364.396421 
L 833.967817 346.617059 
L 840.226584 349.132787 
L 848.211645 349.273604 
L 855.820796 409.213968 
L 863.087845 421.6482 
L 870.042234 404.528435 
L 878.334545 355.215502 
" style="fill:none;stroke:#ffb900;stroke-linecap:square;stroke-width:1.5;"/>
   </g>
   <g id="line2d_45">
    <path clip-path="url(#p610480ee97)" d="M 133.841455 330.75576 
L 245.898831 299.744644 
L 311.448193 287.583925 
L 357.956206 274.045738 
L 394.030624 271.67938 
L 423.505569 267.641985 
L 448.426281 260.581432 
L 470.013582 251.654454 
L 489.054932 245.848585 
L 506.088 249.281885 
L 521.496284 248.52981 
L 535.562945 241.445446 
L 548.503019 228.605592 
L 560.483656 233.14137 
L 571.637363 232.869192 
L 582.070958 230.791888 
L 591.871815 251.048914 
L 601.112308 230.885551 
L 609.853065 223.793022 
L 618.145376 238.048603 
L 626.033019 215.301132 
L 633.55366 223.25662 
L 640.739937 212.662009 
L 647.620321 236.242085 
L 654.219794 203.548031 
L 660.560395 207.751761 
L 666.661671 232.698944 
L 672.541032 187.318605 
L 683.694739 277.808421 
L 688.995693 277.58112 
L 699.103023 246.97796 
L 703.929191 228.638396 
L 713.169684 212.86434 
L 721.910441 195.089114 
L 726.109758 261.204947 
L 734.194674 251.050177 
L 741.894444 304.342017 
L 749.244102 300.453697 
L 759.677697 227.084838 
L 766.277169 321.272992 
L 772.617771 327.059321 
L 781.685454 300.417327 
L 787.459804 326.431015 
L 795.752115 331.707308 
L 803.639758 201.333845 
L 811.160399 211.160977 
L 818.346676 220.174155 
L 825.22706 284.03203 
L 833.967817 269.855779 
L 840.226584 281.574107 
L 848.211645 276.879181 
L 855.820796 370.402781 
L 863.087845 329.550746 
L 870.042234 319.837794 
L 878.334545 253.007876 
" style="fill:none;stroke:#ff3000;stroke-linecap:square;stroke-width:1.5;"/>
   </g>
   <g id="patch_3">
    <path d="M 96.6168 440.3052 
L 96.6168 29.8512 
" style="fill:none;stroke:#000000;stroke-linecap:square;stroke-linejoin:miter;stroke-width:0.8;"/>
   </g>
   <g id="patch_4">
    <path d="M 915.5592 440.3052 
L 915.5592 29.8512 
" style="fill:none;stroke:#000000;stroke-linecap:square;stroke-linejoin:miter;stroke-width:0.8;"/>
   </g>
   <g id="patch_5">
    <path d="M 96.6168 440.3052 
L 915.5592 440.3052 
" style="fill:none;stroke:#000000;stroke-linecap:square;stroke-linejoin:miter;stroke-width:0.8;"/>
   </g>
   <g id="patch_6">
    <path d="M 96.6168 29.8512 
L 915.5592 29.8512 
" style="fill:none;stroke:#000000;stroke-linecap:square;stroke-linejoin:miter;stroke-width:0.8;"/>
   </g>
   <g id="text_8">
    <!-- $\phi=0.65, l_p/\sigma=20$ -->
    <defs>
     <path d="M 46.734375 75.984375 
L 42.78125 55.8125 
Q 52.546875 55.8125 57.5625 48.34375 
Q 62.75 40.71875 60.15625 27.296875 
Q 57.515625 13.875 49.359375 6.25 
Q 41.453125 -1.21875 31.6875 -1.21875 
L 27.875 -20.796875 
L 18.953125 -20.796875 
L 22.75 -1.21875 
Q 13.03125 -1.21875 7.953125 6.25 
Q 2.78125 13.875 5.421875 27.296875 
Q 8.015625 40.71875 16.15625 48.34375 
Q 24.125 55.8125 33.84375 55.8125 
L 37.796875 75.984375 
z
M 33.25 6.78125 
Q 38.765625 6.78125 43.5 11.8125 
Q 48.6875 17.4375 50.6875 27.296875 
Q 52.640625 37.0625 49.515625 42.78125 
Q 46.734375 47.796875 41.21875 47.796875 
z
M 24.3125 6.78125 
L 32.28125 47.796875 
Q 26.8125 47.796875 22.078125 42.78125 
Q 16.75 37.0625 14.890625 27.296875 
Q 13.03125 17.4375 16.0625 11.8125 
Q 18.796875 6.78125 24.3125 6.78125 
z
" id="DejaVuSans-Oblique-981"/>
     <path d="M 10.59375 45.40625 
L 73.1875 45.40625 
L 73.1875 37.203125 
L 10.59375 37.203125 
z
M 10.59375 25.484375 
L 73.1875 25.484375 
L 73.1875 17.1875 
L 10.59375 17.1875 
z
" id="DejaVuSans-61"/>
     <path d="M 10.6875 12.40625 
L 21 12.40625 
L 21 0 
L 10.6875 0 
z
" id="DejaVuSans-46"/>
     <path d="M 33.015625 40.375 
Q 26.375 40.375 22.484375 35.828125 
Q 18.609375 31.296875 18.609375 23.390625 
Q 18.609375 15.53125 22.484375 10.953125 
Q 26.375 6.390625 33.015625 6.390625 
Q 39.65625 6.390625 43.53125 10.953125 
Q 47.40625 15.53125 47.40625 23.390625 
Q 47.40625 31.296875 43.53125 35.828125 
Q 39.65625 40.375 33.015625 40.375 
z
M 52.59375 71.296875 
L 52.59375 62.3125 
Q 48.875 64.0625 45.09375 64.984375 
Q 41.3125 65.921875 37.59375 65.921875 
Q 27.828125 65.921875 22.671875 59.328125 
Q 17.53125 52.734375 16.796875 39.40625 
Q 19.671875 43.65625 24.015625 45.921875 
Q 28.375 48.1875 33.59375 48.1875 
Q 44.578125 48.1875 50.953125 41.515625 
Q 57.328125 34.859375 57.328125 23.390625 
Q 57.328125 12.15625 50.6875 5.359375 
Q 44.046875 -1.421875 33.015625 -1.421875 
Q 20.359375 -1.421875 13.671875 8.265625 
Q 6.984375 17.96875 6.984375 36.375 
Q 6.984375 53.65625 15.1875 63.9375 
Q 23.390625 74.21875 37.203125 74.21875 
Q 40.921875 74.21875 44.703125 73.484375 
Q 48.484375 72.75 52.59375 71.296875 
z
" id="DejaVuSans-54"/>
     <path d="M 10.796875 72.90625 
L 49.515625 72.90625 
L 49.515625 64.59375 
L 19.828125 64.59375 
L 19.828125 46.734375 
Q 21.96875 47.46875 24.109375 47.828125 
Q 26.265625 48.1875 28.421875 48.1875 
Q 40.625 48.1875 47.75 41.5 
Q 54.890625 34.8125 54.890625 23.390625 
Q 54.890625 11.625 47.5625 5.09375 
Q 40.234375 -1.421875 26.90625 -1.421875 
Q 22.3125 -1.421875 17.546875 -0.640625 
Q 12.796875 0.140625 7.71875 1.703125 
L 7.71875 11.625 
Q 12.109375 9.234375 16.796875 8.0625 
Q 21.484375 6.890625 26.703125 6.890625 
Q 35.15625 6.890625 40.078125 11.328125 
Q 45.015625 15.765625 45.015625 23.390625 
Q 45.015625 31 40.078125 35.4375 
Q 35.15625 39.890625 26.703125 39.890625 
Q 22.75 39.890625 18.8125 39.015625 
Q 14.890625 38.140625 10.796875 36.28125 
z
" id="DejaVuSans-53"/>
    </defs>
    <g transform="translate(399.888 22.4112)scale(0.24 -0.24)">
     <use transform="translate(0 0.015625)" xlink:href="#DejaVuSans-Oblique-981"/>
     <use transform="translate(85.449219 0.015625)" xlink:href="#DejaVuSans-61"/>
     <use transform="translate(188.720703 0.015625)" xlink:href="#DejaVuSans-48"/>
     <use transform="translate(252.34375 0.015625)" xlink:href="#DejaVuSans-46"/>
     <use transform="translate(284.130859 0.015625)" xlink:href="#DejaVuSans-54"/>
     <use transform="translate(347.753906 0.015625)" xlink:href="#DejaVuSans-53"/>
     <use transform="translate(411.376953 0.015625)" xlink:href="#DejaVuSans-44"/>
     <use transform="translate(462.646484 0.015625)" xlink:href="#DejaVuSans-Oblique-108"/>
     <use transform="translate(490.429688 -16.390625)scale(0.7)" xlink:href="#DejaVuSans-Oblique-112"/>
     <use transform="translate(537.597656 0.015625)" xlink:href="#DejaVuSans-47"/>
     <use transform="translate(571.289062 0.015625)" xlink:href="#DejaVuSans-Oblique-963"/>
     <use transform="translate(654.150391 0.015625)" xlink:href="#DejaVuSans-61"/>
     <use transform="translate(757.421875 0.015625)" xlink:href="#DejaVuSans-50"/>
     <use transform="translate(821.044922 0.015625)" xlink:href="#DejaVuSans-48"/>
    </g>
   </g>
   <g id="legend_1">
    <g id="patch_7">
     <path d="M 463.548 434.3052 
L 548.628 434.3052 
Q 551.028 434.3052 551.028 431.9052 
L 551.028 327.4227 
Q 551.028 325.0227 548.628 325.0227 
L 463.548 325.0227 
Q 461.148 325.0227 461.148 327.4227 
L 461.148 431.9052 
Q 461.148 434.3052 463.548 434.3052 
z
" style="fill:#ffffff;opacity:0.8;stroke:#cccccc;stroke-linejoin:miter;"/>
    </g>
    <g id="line2d_46">
     <path d="M 465.948 334.740825 
L 489.948 334.740825 
" style="fill:none;stroke:#0010ff;stroke-linecap:square;stroke-width:1.5;"/>
    </g>
    <g id="line2d_47"/>
    <g id="text_9">
     <!-- $N=10$ -->
     <defs>
      <path d="M 16.890625 72.90625 
L 30.171875 72.90625 
L 50.296875 10.40625 
L 62.5 72.90625 
L 72.125 72.90625 
L 57.90625 0 
L 44.578125 0 
L 24.515625 62.890625 
L 12.3125 0 
L 2.6875 0 
z
" id="DejaVuSans-Oblique-78"/>
     </defs>
     <g transform="translate(499.548 338.940825)scale(0.12 -0.12)">
      <use transform="translate(0 0.78125)" xlink:href="#DejaVuSans-Oblique-78"/>
      <use transform="translate(94.287109 0.78125)" xlink:href="#DejaVuSans-61"/>
      <use transform="translate(197.558594 0.78125)" xlink:href="#DejaVuSans-49"/>
      <use transform="translate(261.181641 0.78125)" xlink:href="#DejaVuSans-48"/>
     </g>
    </g>
    <g id="line2d_48">
     <path d="M 465.948 352.354575 
L 489.948 352.354575 
" style="fill:none;stroke:#00a4ff;stroke-linecap:square;stroke-width:1.5;"/>
    </g>
    <g id="line2d_49"/>
    <g id="text_10">
     <!-- $N=20$ -->
     <g transform="translate(499.548 356.554575)scale(0.12 -0.12)">
      <use transform="translate(0 0.78125)" xlink:href="#DejaVuSans-Oblique-78"/>
      <use transform="translate(94.287109 0.78125)" xlink:href="#DejaVuSans-61"/>
      <use transform="translate(197.558594 0.78125)" xlink:href="#DejaVuSans-50"/>
      <use transform="translate(261.181641 0.78125)" xlink:href="#DejaVuSans-48"/>
     </g>
    </g>
    <g id="line2d_50">
     <path d="M 465.948 369.968325 
L 489.948 369.968325 
" style="fill:none;stroke:#40ffb7;stroke-linecap:square;stroke-width:1.5;"/>
    </g>
    <g id="line2d_51"/>
    <g id="text_11">
     <!-- $N=50$ -->
     <g transform="translate(499.548 374.168325)scale(0.12 -0.12)">
      <use transform="translate(0 0.78125)" xlink:href="#DejaVuSans-Oblique-78"/>
      <use transform="translate(94.287109 0.78125)" xlink:href="#DejaVuSans-61"/>
      <use transform="translate(197.558594 0.78125)" xlink:href="#DejaVuSans-53"/>
      <use transform="translate(261.181641 0.78125)" xlink:href="#DejaVuSans-48"/>
     </g>
    </g>
    <g id="line2d_52">
     <path d="M 465.948 387.582075 
L 489.948 387.582075 
" style="fill:none;stroke:#b7ff40;stroke-linecap:square;stroke-width:1.5;"/>
    </g>
    <g id="line2d_53"/>
    <g id="text_12">
     <!-- $N=100$ -->
     <g transform="translate(499.548 391.782075)scale(0.12 -0.12)">
      <use transform="translate(0 0.78125)" xlink:href="#DejaVuSans-Oblique-78"/>
      <use transform="translate(94.287109 0.78125)" xlink:href="#DejaVuSans-61"/>
      <use transform="translate(197.558594 0.78125)" xlink:href="#DejaVuSans-49"/>
      <use transform="translate(261.181641 0.78125)" xlink:href="#DejaVuSans-48"/>
      <use transform="translate(324.804688 0.78125)" xlink:href="#DejaVuSans-48"/>
     </g>
    </g>
    <g id="line2d_54">
     <path d="M 465.948 405.195825 
L 489.948 405.195825 
" style="fill:none;stroke:#ffb900;stroke-linecap:square;stroke-width:1.5;"/>
    </g>
    <g id="line2d_55"/>
    <g id="text_13">
     <!-- $N=200$ -->
     <g transform="translate(499.548 409.395825)scale(0.12 -0.12)">
      <use transform="translate(0 0.78125)" xlink:href="#DejaVuSans-Oblique-78"/>
      <use transform="translate(94.287109 0.78125)" xlink:href="#DejaVuSans-61"/>
      <use transform="translate(197.558594 0.78125)" xlink:href="#DejaVuSans-50"/>
      <use transform="translate(261.181641 0.78125)" xlink:href="#DejaVuSans-48"/>
      <use transform="translate(324.804688 0.78125)" xlink:href="#DejaVuSans-48"/>
     </g>
    </g>
    <g id="line2d_56">
     <path d="M 465.948 422.809575 
L 489.948 422.809575 
" style="fill:none;stroke:#ff3000;stroke-linecap:square;stroke-width:1.5;"/>
    </g>
    <g id="line2d_57"/>
    <g id="text_14">
     <!-- $N=500$ -->
     <g transform="translate(499.548 427.009575)scale(0.12 -0.12)">
      <use transform="translate(0 0.78125)" xlink:href="#DejaVuSans-Oblique-78"/>
      <use transform="translate(94.287109 0.78125)" xlink:href="#DejaVuSans-61"/>
      <use transform="translate(197.558594 0.78125)" xlink:href="#DejaVuSans-53"/>
      <use transform="translate(261.181641 0.78125)" xlink:href="#DejaVuSans-48"/>
      <use transform="translate(324.804688 0.78125)" xlink:href="#DejaVuSans-48"/>
     </g>
    </g>
   </g>
  </g>
 </g>
 <defs>
  <clipPath id="p610480ee97">
   <rect height="410.454" width="818.9424" x="96.6168" y="29.8512"/>
  </clipPath>
 </defs>
</svg>
