<?xml version="1.0" encoding="utf-8" standalone="no"?>
<!DOCTYPE svg PUBLIC "-//W3C//DTD SVG 1.1//EN"
  "http://www.w3.org/Graphics/SVG/1.1/DTD/svg11.dtd">
<!-- Created with matplotlib (https://matplotlib.org/) -->
<svg height="497.52pt" version="1.1" viewBox="0 0 920.16 497.52" width="920.16pt" xmlns="http://www.w3.org/2000/svg" xmlns:xlink="http://www.w3.org/1999/xlink">
 <defs>
  <style type="text/css">
*{stroke-linecap:butt;stroke-linejoin:round;}
  </style>
 </defs>
 <g id="figure_1">
  <g id="patch_1">
   <path d="M 0 497.52 
L 920.16 497.52 
L 920.16 0 
L 0 0 
z
" style="fill:#ffffff;"/>
  </g>
  <g id="axes_1">
   <g id="patch_2">
    <path d="M 92.016 440.3052 
L 915.5592 440.3052 
L 915.5592 24.876 
L 92.016 24.876 
z
" style="fill:#ffffff;"/>
   </g>
   <g id="matplotlib.axis_1">
    <g id="xtick_1">
     <g id="line2d_1">
      <defs>
       <path d="M 0 0 
L 0 3.5 
" id="m8617bcbe66" style="stroke:#000000;stroke-width:0.8;"/>
      </defs>
      <g>
       <use style="stroke:#000000;stroke-width:0.8;" x="129.449782" xlink:href="#m8617bcbe66" y="440.3052"/>
      </g>
     </g>
     <g id="text_1">
      <!-- $\mathdefault{10^{-2}}$ -->
      <defs>
       <path d="M 12.40625 8.296875 
L 28.515625 8.296875 
L 28.515625 63.921875 
L 10.984375 60.40625 
L 10.984375 69.390625 
L 28.421875 72.90625 
L 38.28125 72.90625 
L 38.28125 8.296875 
L 54.390625 8.296875 
L 54.390625 0 
L 12.40625 0 
z
" id="DejaVuSans-49"/>
       <path d="M 31.78125 66.40625 
Q 24.171875 66.40625 20.328125 58.90625 
Q 16.5 51.421875 16.5 36.375 
Q 16.5 21.390625 20.328125 13.890625 
Q 24.171875 6.390625 31.78125 6.390625 
Q 39.453125 6.390625 43.28125 13.890625 
Q 47.125 21.390625 47.125 36.375 
Q 47.125 51.421875 43.28125 58.90625 
Q 39.453125 66.40625 31.78125 66.40625 
z
M 31.78125 74.21875 
Q 44.046875 74.21875 50.515625 64.515625 
Q 56.984375 54.828125 56.984375 36.375 
Q 56.984375 17.96875 50.515625 8.265625 
Q 44.046875 -1.421875 31.78125 -1.421875 
Q 19.53125 -1.421875 13.0625 8.265625 
Q 6.59375 17.96875 6.59375 36.375 
Q 6.59375 54.828125 13.0625 64.515625 
Q 19.53125 74.21875 31.78125 74.21875 
z
" id="DejaVuSans-48"/>
       <path d="M 10.59375 35.5 
L 73.1875 35.5 
L 73.1875 27.203125 
L 10.59375 27.203125 
z
" id="DejaVuSans-8722"/>
       <path d="M 19.1875 8.296875 
L 53.609375 8.296875 
L 53.609375 0 
L 7.328125 0 
L 7.328125 8.296875 
Q 12.9375 14.109375 22.625 23.890625 
Q 32.328125 33.6875 34.8125 36.53125 
Q 39.546875 41.84375 41.421875 45.53125 
Q 43.3125 49.21875 43.3125 52.78125 
Q 43.3125 58.59375 39.234375 62.25 
Q 35.15625 65.921875 28.609375 65.921875 
Q 23.96875 65.921875 18.8125 64.3125 
Q 13.671875 62.703125 7.8125 59.421875 
L 7.8125 69.390625 
Q 13.765625 71.78125 18.9375 73 
Q 24.125 74.21875 28.421875 74.21875 
Q 39.75 74.21875 46.484375 68.546875 
Q 53.21875 62.890625 53.21875 53.421875 
Q 53.21875 48.921875 51.53125 44.890625 
Q 49.859375 40.875 45.40625 35.40625 
Q 44.1875 33.984375 37.640625 27.21875 
Q 31.109375 20.453125 19.1875 8.296875 
z
" id="DejaVuSans-50"/>
      </defs>
      <g transform="translate(105.949782 462.502075)scale(0.2 -0.2)">
       <use transform="translate(0 0.765625)" xlink:href="#DejaVuSans-49"/>
       <use transform="translate(63.623047 0.765625)" xlink:href="#DejaVuSans-48"/>
       <use transform="translate(128.203125 39.046875)scale(0.7)" xlink:href="#DejaVuSans-8722"/>
       <use transform="translate(186.855469 39.046875)scale(0.7)" xlink:href="#DejaVuSans-50"/>
      </g>
     </g>
    </g>
    <g id="xtick_2">
     <g id="line2d_2">
      <g>
       <use style="stroke:#000000;stroke-width:0.8;" x="356.250398" xlink:href="#m8617bcbe66" y="440.3052"/>
      </g>
     </g>
     <g id="text_2">
      <!-- $\mathdefault{10^{-1}}$ -->
      <g transform="translate(332.750398 462.502075)scale(0.2 -0.2)">
       <use transform="translate(0 0.684375)" xlink:href="#DejaVuSans-49"/>
       <use transform="translate(63.623047 0.684375)" xlink:href="#DejaVuSans-48"/>
       <use transform="translate(128.203125 38.965625)scale(0.7)" xlink:href="#DejaVuSans-8722"/>
       <use transform="translate(186.855469 38.965625)scale(0.7)" xlink:href="#DejaVuSans-49"/>
      </g>
     </g>
    </g>
    <g id="xtick_3">
     <g id="line2d_3">
      <g>
       <use style="stroke:#000000;stroke-width:0.8;" x="583.051014" xlink:href="#m8617bcbe66" y="440.3052"/>
      </g>
     </g>
     <g id="text_3">
      <!-- $\mathdefault{10^{0}}$ -->
      <g transform="translate(565.451014 462.502075)scale(0.2 -0.2)">
       <use transform="translate(0 0.765625)" xlink:href="#DejaVuSans-49"/>
       <use transform="translate(63.623047 0.765625)" xlink:href="#DejaVuSans-48"/>
       <use transform="translate(128.203125 39.046875)scale(0.7)" xlink:href="#DejaVuSans-48"/>
      </g>
     </g>
    </g>
    <g id="xtick_4">
     <g id="line2d_4">
      <g>
       <use style="stroke:#000000;stroke-width:0.8;" x="809.85163" xlink:href="#m8617bcbe66" y="440.3052"/>
      </g>
     </g>
     <g id="text_4">
      <!-- $\mathdefault{10^{1}}$ -->
      <g transform="translate(792.25163 462.502075)scale(0.2 -0.2)">
       <use transform="translate(0 0.684375)" xlink:href="#DejaVuSans-49"/>
       <use transform="translate(63.623047 0.684375)" xlink:href="#DejaVuSans-48"/>
       <use transform="translate(128.203125 38.965625)scale(0.7)" xlink:href="#DejaVuSans-49"/>
      </g>
     </g>
    </g>
    <g id="xtick_5">
     <g id="line2d_5">
      <defs>
       <path d="M 0 0 
L 0 2 
" id="mbf4af596f7" style="stroke:#000000;stroke-width:0.6;"/>
      </defs>
      <g>
       <use style="stroke:#000000;stroke-width:0.6;" x="94.317922" xlink:href="#mbf4af596f7" y="440.3052"/>
      </g>
     </g>
    </g>
    <g id="xtick_6">
     <g id="line2d_6">
      <g>
       <use style="stroke:#000000;stroke-width:0.6;" x="107.470531" xlink:href="#mbf4af596f7" y="440.3052"/>
      </g>
     </g>
    </g>
    <g id="xtick_7">
     <g id="line2d_7">
      <g>
       <use style="stroke:#000000;stroke-width:0.6;" x="119.071955" xlink:href="#mbf4af596f7" y="440.3052"/>
      </g>
     </g>
    </g>
    <g id="xtick_8">
     <g id="line2d_8">
      <g>
       <use style="stroke:#000000;stroke-width:0.6;" x="197.72357" xlink:href="#mbf4af596f7" y="440.3052"/>
      </g>
     </g>
    </g>
    <g id="xtick_9">
     <g id="line2d_9">
      <g>
       <use style="stroke:#000000;stroke-width:0.6;" x="237.661176" xlink:href="#mbf4af596f7" y="440.3052"/>
      </g>
     </g>
    </g>
    <g id="xtick_10">
     <g id="line2d_10">
      <g>
       <use style="stroke:#000000;stroke-width:0.6;" x="265.997359" xlink:href="#mbf4af596f7" y="440.3052"/>
      </g>
     </g>
    </g>
    <g id="xtick_11">
     <g id="line2d_11">
      <g>
       <use style="stroke:#000000;stroke-width:0.6;" x="287.976609" xlink:href="#mbf4af596f7" y="440.3052"/>
      </g>
     </g>
    </g>
    <g id="xtick_12">
     <g id="line2d_12">
      <g>
       <use style="stroke:#000000;stroke-width:0.6;" x="305.934965" xlink:href="#mbf4af596f7" y="440.3052"/>
      </g>
     </g>
    </g>
    <g id="xtick_13">
     <g id="line2d_13">
      <g>
       <use style="stroke:#000000;stroke-width:0.6;" x="321.118538" xlink:href="#mbf4af596f7" y="440.3052"/>
      </g>
     </g>
    </g>
    <g id="xtick_14">
     <g id="line2d_14">
      <g>
       <use style="stroke:#000000;stroke-width:0.6;" x="334.271147" xlink:href="#mbf4af596f7" y="440.3052"/>
      </g>
     </g>
    </g>
    <g id="xtick_15">
     <g id="line2d_15">
      <g>
       <use style="stroke:#000000;stroke-width:0.6;" x="345.872571" xlink:href="#mbf4af596f7" y="440.3052"/>
      </g>
     </g>
    </g>
    <g id="xtick_16">
     <g id="line2d_16">
      <g>
       <use style="stroke:#000000;stroke-width:0.6;" x="424.524186" xlink:href="#mbf4af596f7" y="440.3052"/>
      </g>
     </g>
    </g>
    <g id="xtick_17">
     <g id="line2d_17">
      <g>
       <use style="stroke:#000000;stroke-width:0.6;" x="464.461792" xlink:href="#mbf4af596f7" y="440.3052"/>
      </g>
     </g>
    </g>
    <g id="xtick_18">
     <g id="line2d_18">
      <g>
       <use style="stroke:#000000;stroke-width:0.6;" x="492.797975" xlink:href="#mbf4af596f7" y="440.3052"/>
      </g>
     </g>
    </g>
    <g id="xtick_19">
     <g id="line2d_19">
      <g>
       <use style="stroke:#000000;stroke-width:0.6;" x="514.777225" xlink:href="#mbf4af596f7" y="440.3052"/>
      </g>
     </g>
    </g>
    <g id="xtick_20">
     <g id="line2d_20">
      <g>
       <use style="stroke:#000000;stroke-width:0.6;" x="532.735581" xlink:href="#mbf4af596f7" y="440.3052"/>
      </g>
     </g>
    </g>
    <g id="xtick_21">
     <g id="line2d_21">
      <g>
       <use style="stroke:#000000;stroke-width:0.6;" x="547.919154" xlink:href="#mbf4af596f7" y="440.3052"/>
      </g>
     </g>
    </g>
    <g id="xtick_22">
     <g id="line2d_22">
      <g>
       <use style="stroke:#000000;stroke-width:0.6;" x="561.071763" xlink:href="#mbf4af596f7" y="440.3052"/>
      </g>
     </g>
    </g>
    <g id="xtick_23">
     <g id="line2d_23">
      <g>
       <use style="stroke:#000000;stroke-width:0.6;" x="572.673187" xlink:href="#mbf4af596f7" y="440.3052"/>
      </g>
     </g>
    </g>
    <g id="xtick_24">
     <g id="line2d_24">
      <g>
       <use style="stroke:#000000;stroke-width:0.6;" x="651.324802" xlink:href="#mbf4af596f7" y="440.3052"/>
      </g>
     </g>
    </g>
    <g id="xtick_25">
     <g id="line2d_25">
      <g>
       <use style="stroke:#000000;stroke-width:0.6;" x="691.262408" xlink:href="#mbf4af596f7" y="440.3052"/>
      </g>
     </g>
    </g>
    <g id="xtick_26">
     <g id="line2d_26">
      <g>
       <use style="stroke:#000000;stroke-width:0.6;" x="719.598591" xlink:href="#mbf4af596f7" y="440.3052"/>
      </g>
     </g>
    </g>
    <g id="xtick_27">
     <g id="line2d_27">
      <g>
       <use style="stroke:#000000;stroke-width:0.6;" x="741.577841" xlink:href="#mbf4af596f7" y="440.3052"/>
      </g>
     </g>
    </g>
    <g id="xtick_28">
     <g id="line2d_28">
      <g>
       <use style="stroke:#000000;stroke-width:0.6;" x="759.536197" xlink:href="#mbf4af596f7" y="440.3052"/>
      </g>
     </g>
    </g>
    <g id="xtick_29">
     <g id="line2d_29">
      <g>
       <use style="stroke:#000000;stroke-width:0.6;" x="774.71977" xlink:href="#mbf4af596f7" y="440.3052"/>
      </g>
     </g>
    </g>
    <g id="xtick_30">
     <g id="line2d_30">
      <g>
       <use style="stroke:#000000;stroke-width:0.6;" x="787.872379" xlink:href="#mbf4af596f7" y="440.3052"/>
      </g>
     </g>
    </g>
    <g id="xtick_31">
     <g id="line2d_31">
      <g>
       <use style="stroke:#000000;stroke-width:0.6;" x="799.473803" xlink:href="#mbf4af596f7" y="440.3052"/>
      </g>
     </g>
    </g>
    <g id="xtick_32">
     <g id="line2d_32">
      <g>
       <use style="stroke:#000000;stroke-width:0.6;" x="878.125418" xlink:href="#mbf4af596f7" y="440.3052"/>
      </g>
     </g>
    </g>
    <g id="text_5">
     <!-- $\tau/(l_p/\sigma)$ -->
     <defs>
      <path d="M 32.859375 9.96875 
Q 34.1875 7.625 39.453125 7.625 
L 43.75 7.625 
L 42.28125 0 
L 36.921875 0 
Q 28.125 0 25 4.6875 
Q 21.921875 9.46875 23.96875 19.828125 
L 29 45.703125 
L 8.453125 45.703125 
L 10.203125 54.6875 
L 60.640625 54.6875 
L 58.890625 45.703125 
L 38.1875 45.703125 
L 33.015625 19.28125 
Q 31.640625 12.203125 32.859375 9.96875 
z
" id="DejaVuSans-Oblique-964"/>
      <path d="M 25.390625 72.90625 
L 33.6875 72.90625 
L 8.296875 -9.28125 
L 0 -9.28125 
z
" id="DejaVuSans-47"/>
      <path d="M 31 75.875 
Q 24.46875 64.65625 21.28125 53.65625 
Q 18.109375 42.671875 18.109375 31.390625 
Q 18.109375 20.125 21.3125 9.0625 
Q 24.515625 -2 31 -13.1875 
L 23.1875 -13.1875 
Q 15.875 -1.703125 12.234375 9.375 
Q 8.59375 20.453125 8.59375 31.390625 
Q 8.59375 42.28125 12.203125 53.3125 
Q 15.828125 64.359375 23.1875 75.875 
z
" id="DejaVuSans-40"/>
      <path d="M 18.3125 75.984375 
L 27.296875 75.984375 
L 12.5 0 
L 3.515625 0 
z
" id="DejaVuSans-Oblique-108"/>
      <path d="M 49.609375 33.6875 
Q 49.609375 40.875 46.484375 44.671875 
Q 43.359375 48.484375 37.5 48.484375 
Q 33.5 48.484375 29.859375 46.4375 
Q 26.21875 44.390625 23.390625 40.484375 
Q 20.609375 36.625 18.9375 31.15625 
Q 17.28125 25.6875 17.28125 20.3125 
Q 17.28125 13.484375 20.40625 9.796875 
Q 23.53125 6.109375 29.296875 6.109375 
Q 33.546875 6.109375 37.1875 8.109375 
Q 40.828125 10.109375 43.40625 13.921875 
Q 46.1875 17.921875 47.890625 23.34375 
Q 49.609375 28.765625 49.609375 33.6875 
z
M 21.78125 46.390625 
Q 25.390625 51.125 30.296875 53.5625 
Q 35.203125 56 41.21875 56 
Q 49.609375 56 54.25 50.5 
Q 58.890625 45.015625 58.890625 35.109375 
Q 58.890625 27 56 19.65625 
Q 53.125 12.3125 47.703125 6.5 
Q 44.09375 2.640625 39.546875 0.609375 
Q 35.015625 -1.421875 29.984375 -1.421875 
Q 24.171875 -1.421875 20.21875 1 
Q 16.265625 3.421875 14.3125 8.203125 
L 8.6875 -20.796875 
L -0.296875 -20.796875 
L 14.40625 54.6875 
L 23.390625 54.6875 
z
" id="DejaVuSans-Oblique-112"/>
      <path d="M 34.671875 47.5625 
Q 27.25 47.5625 22.21875 42.1875 
Q 16.890625 36.578125 15.140625 27.296875 
Q 13.1875 17.484375 16.3125 11.8125 
Q 19.390625 6.203125 26.65625 6.203125 
Q 33.84375 6.203125 39.109375 11.859375 
Q 44.4375 17.53125 46.34375 27.296875 
Q 48.046875 36.234375 45.015625 42.1875 
Q 42.1875 47.5625 34.671875 47.5625 
z
M 36.078125 54.734375 
L 65.921875 54.6875 
L 64.15625 45.703125 
L 54.109375 45.703125 
Q 57.90625 38.09375 55.859375 27.296875 
Q 53.21875 13.875 45.0625 6.25 
Q 36.859375 -1.421875 25.140625 -1.421875 
Q 13.375 -1.421875 8.203125 6.25 
Q 3.03125 13.875 5.671875 27.296875 
Q 8.25 40.765625 16.40625 48.390625 
Q 23.1875 54.734375 36.078125 54.734375 
z
" id="DejaVuSans-Oblique-963"/>
      <path d="M 8.015625 75.875 
L 15.828125 75.875 
Q 23.140625 64.359375 26.78125 53.3125 
Q 30.421875 42.28125 30.421875 31.390625 
Q 30.421875 20.453125 26.78125 9.375 
Q 23.140625 -1.703125 15.828125 -13.1875 
L 8.015625 -13.1875 
Q 14.5 -2 17.703125 9.0625 
Q 20.90625 20.125 20.90625 31.390625 
Q 20.90625 42.671875 17.703125 53.65625 
Q 14.5 64.65625 8.015625 75.875 
z
" id="DejaVuSans-41"/>
     </defs>
     <g transform="translate(469.3876 485.86145)scale(0.2 -0.2)">
      <use transform="translate(0 0.015625)" xlink:href="#DejaVuSans-Oblique-964"/>
      <use transform="translate(60.205078 0.015625)" xlink:href="#DejaVuSans-47"/>
      <use transform="translate(93.896484 0.015625)" xlink:href="#DejaVuSans-40"/>
      <use transform="translate(132.910156 0.015625)" xlink:href="#DejaVuSans-Oblique-108"/>
      <use transform="translate(160.693359 -16.390625)scale(0.7)" xlink:href="#DejaVuSans-Oblique-112"/>
      <use transform="translate(207.861328 0.015625)" xlink:href="#DejaVuSans-47"/>
      <use transform="translate(241.552734 0.015625)" xlink:href="#DejaVuSans-Oblique-963"/>
      <use transform="translate(304.931641 0.015625)" xlink:href="#DejaVuSans-41"/>
     </g>
    </g>
   </g>
   <g id="matplotlib.axis_2">
    <g id="ytick_1">
     <g id="line2d_33">
      <defs>
       <path d="M 0 0 
L -3.5 0 
" id="m797b7dbc96" style="stroke:#000000;stroke-width:0.8;"/>
      </defs>
      <g>
       <use style="stroke:#000000;stroke-width:0.8;" x="92.016" xlink:href="#m797b7dbc96" y="423.277983"/>
      </g>
     </g>
     <g id="text_6">
      <!-- $\mathdefault{10^{-4}}$ -->
      <defs>
       <path d="M 37.796875 64.3125 
L 12.890625 25.390625 
L 37.796875 25.390625 
z
M 35.203125 72.90625 
L 47.609375 72.90625 
L 47.609375 25.390625 
L 58.015625 25.390625 
L 58.015625 17.1875 
L 47.609375 17.1875 
L 47.609375 0 
L 37.796875 0 
L 37.796875 17.1875 
L 4.890625 17.1875 
L 4.890625 26.703125 
z
" id="DejaVuSans-52"/>
      </defs>
      <g transform="translate(38.016 430.876421)scale(0.2 -0.2)">
       <use transform="translate(0 0.684375)" xlink:href="#DejaVuSans-49"/>
       <use transform="translate(63.623047 0.684375)" xlink:href="#DejaVuSans-48"/>
       <use transform="translate(128.203125 38.965625)scale(0.7)" xlink:href="#DejaVuSans-8722"/>
       <use transform="translate(186.855469 38.965625)scale(0.7)" xlink:href="#DejaVuSans-52"/>
      </g>
     </g>
    </g>
    <g id="ytick_2">
     <g id="line2d_34">
      <g>
       <use style="stroke:#000000;stroke-width:0.8;" x="92.016" xlink:href="#m797b7dbc96" y="130.055308"/>
      </g>
     </g>
     <g id="text_7">
      <!-- $\mathdefault{10^{-3}}$ -->
      <defs>
       <path d="M 40.578125 39.3125 
Q 47.65625 37.796875 51.625 33 
Q 55.609375 28.21875 55.609375 21.1875 
Q 55.609375 10.40625 48.1875 4.484375 
Q 40.765625 -1.421875 27.09375 -1.421875 
Q 22.515625 -1.421875 17.65625 -0.515625 
Q 12.796875 0.390625 7.625 2.203125 
L 7.625 11.71875 
Q 11.71875 9.328125 16.59375 8.109375 
Q 21.484375 6.890625 26.8125 6.890625 
Q 36.078125 6.890625 40.9375 10.546875 
Q 45.796875 14.203125 45.796875 21.1875 
Q 45.796875 27.640625 41.28125 31.265625 
Q 36.765625 34.90625 28.71875 34.90625 
L 20.21875 34.90625 
L 20.21875 43.015625 
L 29.109375 43.015625 
Q 36.375 43.015625 40.234375 45.921875 
Q 44.09375 48.828125 44.09375 54.296875 
Q 44.09375 59.90625 40.109375 62.90625 
Q 36.140625 65.921875 28.71875 65.921875 
Q 24.65625 65.921875 20.015625 65.03125 
Q 15.375 64.15625 9.8125 62.3125 
L 9.8125 71.09375 
Q 15.4375 72.65625 20.34375 73.4375 
Q 25.25 74.21875 29.59375 74.21875 
Q 40.828125 74.21875 47.359375 69.109375 
Q 53.90625 64.015625 53.90625 55.328125 
Q 53.90625 49.265625 50.4375 45.09375 
Q 46.96875 40.921875 40.578125 39.3125 
z
" id="DejaVuSans-51"/>
      </defs>
      <g transform="translate(38.016 137.653745)scale(0.2 -0.2)">
       <use transform="translate(0 0.765625)" xlink:href="#DejaVuSans-49"/>
       <use transform="translate(63.623047 0.765625)" xlink:href="#DejaVuSans-48"/>
       <use transform="translate(128.203125 39.046875)scale(0.7)" xlink:href="#DejaVuSans-8722"/>
       <use transform="translate(186.855469 39.046875)scale(0.7)" xlink:href="#DejaVuSans-51"/>
      </g>
     </g>
    </g>
    <g id="ytick_3">
     <g id="line2d_35">
      <defs>
       <path d="M 0 0 
L -2 0 
" id="m02c6527dbe" style="stroke:#000000;stroke-width:0.6;"/>
      </defs>
      <g>
       <use style="stroke:#000000;stroke-width:0.6;" x="92.016" xlink:href="#m02c6527dbe" y="436.695117"/>
      </g>
     </g>
    </g>
    <g id="ytick_4">
     <g id="line2d_36">
      <g>
       <use style="stroke:#000000;stroke-width:0.6;" x="92.016" xlink:href="#m02c6527dbe" y="335.009163"/>
      </g>
     </g>
    </g>
    <g id="ytick_5">
     <g id="line2d_37">
      <g>
       <use style="stroke:#000000;stroke-width:0.6;" x="92.016" xlink:href="#m02c6527dbe" y="283.375213"/>
      </g>
     </g>
    </g>
    <g id="ytick_6">
     <g id="line2d_38">
      <g>
       <use style="stroke:#000000;stroke-width:0.6;" x="92.016" xlink:href="#m02c6527dbe" y="246.740342"/>
      </g>
     </g>
    </g>
    <g id="ytick_7">
     <g id="line2d_39">
      <g>
       <use style="stroke:#000000;stroke-width:0.6;" x="92.016" xlink:href="#m02c6527dbe" y="218.324129"/>
      </g>
     </g>
    </g>
    <g id="ytick_8">
     <g id="line2d_40">
      <g>
       <use style="stroke:#000000;stroke-width:0.6;" x="92.016" xlink:href="#m02c6527dbe" y="195.106392"/>
      </g>
     </g>
    </g>
    <g id="ytick_9">
     <g id="line2d_41">
      <g>
       <use style="stroke:#000000;stroke-width:0.6;" x="92.016" xlink:href="#m02c6527dbe" y="175.476075"/>
      </g>
     </g>
    </g>
    <g id="ytick_10">
     <g id="line2d_42">
      <g>
       <use style="stroke:#000000;stroke-width:0.6;" x="92.016" xlink:href="#m02c6527dbe" y="158.471521"/>
      </g>
     </g>
    </g>
    <g id="ytick_11">
     <g id="line2d_43">
      <g>
       <use style="stroke:#000000;stroke-width:0.6;" x="92.016" xlink:href="#m02c6527dbe" y="143.472442"/>
      </g>
     </g>
    </g>
    <g id="ytick_12">
     <g id="line2d_44">
      <g>
       <use style="stroke:#000000;stroke-width:0.6;" x="92.016" xlink:href="#m02c6527dbe" y="41.786487"/>
      </g>
     </g>
    </g>
    <g id="text_8">
     <!-- $\frac{\tau}{l_p/\sigma}$ $Var(w(t_0 ; \tau))$ -->
     <defs>
      <path id="DejaVuSans-32"/>
      <path d="M 20.609375 0 
L 7.8125 72.90625 
L 17.484375 72.90625 
L 28.078125 10.203125 
L 63.484375 72.90625 
L 74.21875 72.90625 
L 32.078125 0 
z
" id="DejaVuSans-Oblique-86"/>
      <path d="M 53.71875 31.203125 
L 47.609375 0 
L 38.625 0 
L 40.28125 8.296875 
Q 36.328125 3.421875 31.265625 1 
Q 26.21875 -1.421875 20.015625 -1.421875 
Q 13.03125 -1.421875 8.5625 2.84375 
Q 4.109375 7.125 4.109375 13.8125 
Q 4.109375 23.390625 11.75 28.953125 
Q 19.390625 34.515625 32.8125 34.515625 
L 45.3125 34.515625 
L 45.796875 36.921875 
Q 45.90625 37.3125 45.953125 37.765625 
Q 46 38.234375 46 39.203125 
Q 46 43.5625 42.453125 45.96875 
Q 38.921875 48.390625 32.515625 48.390625 
Q 28.125 48.390625 23.5 47.265625 
Q 18.890625 46.140625 14.015625 43.890625 
L 15.578125 52.203125 
Q 20.65625 54.109375 25.515625 55.046875 
Q 30.375 56 34.90625 56 
Q 44.578125 56 49.625 51.796875 
Q 54.6875 47.609375 54.6875 39.59375 
Q 54.6875 37.984375 54.4375 35.8125 
Q 54.203125 33.640625 53.71875 31.203125 
z
M 44 27.484375 
L 35.015625 27.484375 
Q 23.96875 27.484375 18.671875 24.53125 
Q 13.375 21.578125 13.375 15.375 
Q 13.375 11.078125 16.078125 8.640625 
Q 18.796875 6.203125 23.578125 6.203125 
Q 30.90625 6.203125 36.375 11.453125 
Q 41.84375 16.703125 43.609375 25.484375 
z
" id="DejaVuSans-Oblique-97"/>
      <path d="M 44.578125 46.390625 
Q 43.21875 47.125 41.453125 47.515625 
Q 39.703125 47.90625 37.703125 47.90625 
Q 30.515625 47.90625 25.140625 42.453125 
Q 19.78125 37.015625 18.015625 27.875 
L 12.5 0 
L 3.515625 0 
L 14.203125 54.6875 
L 23.1875 54.6875 
L 21.484375 46.1875 
Q 25.046875 50.921875 30 53.453125 
Q 34.96875 56 40.578125 56 
Q 42.046875 56 43.453125 55.828125 
Q 44.875 55.671875 46.296875 55.28125 
z
" id="DejaVuSans-Oblique-114"/>
      <path d="M 8.5 54.6875 
L 17.390625 54.6875 
L 19.671875 10.6875 
L 40.09375 54.6875 
L 50.484375 54.6875 
L 53.515625 10.6875 
L 72.90625 54.6875 
L 81.890625 54.6875 
L 56.890625 0 
L 46.390625 0 
L 43.703125 45.3125 
L 22.796875 0 
L 12.203125 0 
z
" id="DejaVuSans-Oblique-119"/>
      <path d="M 42.28125 54.6875 
L 40.921875 47.703125 
L 23 47.703125 
L 17.1875 18.015625 
Q 16.890625 16.359375 16.75 15.234375 
Q 16.609375 14.109375 16.609375 13.484375 
Q 16.609375 10.359375 18.484375 8.9375 
Q 20.359375 7.515625 24.515625 7.515625 
L 33.59375 7.515625 
L 32.078125 0 
L 23.484375 0 
Q 15.484375 0 11.546875 3.125 
Q 7.625 6.25 7.625 12.59375 
Q 7.625 13.71875 7.765625 15.0625 
Q 7.90625 16.40625 8.203125 18.015625 
L 14.015625 47.703125 
L 6.390625 47.703125 
L 7.8125 54.6875 
L 15.28125 54.6875 
L 18.3125 70.21875 
L 27.296875 70.21875 
L 24.3125 54.6875 
z
" id="DejaVuSans-Oblique-116"/>
      <path d="M 11.71875 51.703125 
L 22.015625 51.703125 
L 22.015625 39.3125 
L 11.71875 39.3125 
z
M 11.71875 12.40625 
L 22.015625 12.40625 
L 22.015625 4 
L 14.015625 -11.625 
L 7.71875 -11.625 
L 11.71875 4 
z
" id="DejaVuSans-59"/>
     </defs>
     <g transform="translate(21.416 309.9906)rotate(-90)scale(0.2 -0.2)">
      <use transform="translate(39 44.71875)scale(0.7)" xlink:href="#DejaVuSans-Oblique-964"/>
      <use transform="translate(0 -39.720313)scale(0.7)" xlink:href="#DejaVuSans-Oblique-108"/>
      <use transform="translate(19.448242 -51.204688)scale(0.49)" xlink:href="#DejaVuSans-Oblique-112"/>
      <use transform="translate(52.46582 -39.720313)scale(0.7)" xlink:href="#DejaVuSans-47"/>
      <use transform="translate(76.049805 -39.720313)scale(0.7)" xlink:href="#DejaVuSans-Oblique-963"/>
      <use transform="translate(132.915039 0.921875)" xlink:href="#DejaVuSans-32"/>
      <use transform="translate(164.702148 0.921875)" xlink:href="#DejaVuSans-Oblique-86"/>
      <use transform="translate(233.110352 0.921875)" xlink:href="#DejaVuSans-Oblique-97"/>
      <use transform="translate(294.389648 0.921875)" xlink:href="#DejaVuSans-Oblique-114"/>
      <use transform="translate(335.50293 0.921875)" xlink:href="#DejaVuSans-40"/>
      <use transform="translate(374.516602 0.921875)" xlink:href="#DejaVuSans-Oblique-119"/>
      <use transform="translate(456.303711 0.921875)" xlink:href="#DejaVuSans-40"/>
      <use transform="translate(495.317383 0.921875)" xlink:href="#DejaVuSans-Oblique-116"/>
      <use transform="translate(534.526367 -15.484375)scale(0.7)" xlink:href="#DejaVuSans-48"/>
      <use transform="translate(581.796875 0.921875)" xlink:href="#DejaVuSans-59"/>
      <use transform="translate(634.970703 0.921875)" xlink:href="#DejaVuSans-Oblique-964"/>
      <use transform="translate(695.175781 0.921875)" xlink:href="#DejaVuSans-41"/>
      <use transform="translate(734.189453 0.921875)" xlink:href="#DejaVuSans-41"/>
      <path d="M 0 19.71875 
L 0 25.96875 
L 120.415039 25.96875 
L 120.415039 19.71875 
L 0 19.71875 
z
"/>
     </g>
    </g>
   </g>
   <g id="line2d_45">
    <path clip-path="url(#p8a03ab156a)" d="M 129.449782 350.861984 
L 138.837668 347.177931 
L 147.408137 338.460046 
L 155.292204 331.973722 
L 162.59171 325.517357 
L 169.387388 320.987521 
L 175.74432 312.4839 
L 181.715739 308.80219 
L 187.345743 300.444208 
L 192.67127 297.501436 
L 197.72357 293.568153 
L 202.529316 286.891288 
L 207.111457 287.181771 
L 211.489878 279.638594 
L 215.681926 276.609644 
L 219.702821 272.939621 
L 223.565993 270.947239 
L 227.283349 265.834856 
L 230.865499 261.201573 
L 234.321933 261.771679 
L 237.661176 258.818616 
L 240.890917 253.748445 
L 244.018108 251.319934 
L 247.049063 248.744529 
L 249.989528 246.031538 
L 252.844749 244.712206 
L 255.619532 242.959317 
L 258.318283 240.057569 
L 260.945059 238.703376 
L 263.503599 236.539435 
L 265.997359 234.135194 
L 268.429538 230.282261 
L 270.803105 227.155475 
L 273.120818 227.309309 
L 275.385245 226.64268 
L 277.598782 222.265404 
L 281.88199 221.177649 
L 283.955714 217.099297 
L 285.986678 215.689659 
L 287.976609 217.52514 
L 289.927134 213.465167 
L 291.839781 214.097318 
L 293.715995 208.901982 
L 295.557138 208.724002 
L 297.364496 205.506385 
L 299.139287 204.649458 
L 300.882665 207.080093 
L 302.595721 206.812482 
L 304.279493 202.39948 
L 305.934965 200.445058 
L 307.563072 202.222492 
L 309.164705 199.010246 
L 310.740711 198.301199 
L 312.291897 195.811678 
L 313.819032 194.151027 
L 315.322851 193.770618 
L 316.804056 193.277665 
L 318.263316 192.2661 
L 319.701272 191.968607 
L 321.118538 191.517621 
L 322.5157 187.749307 
L 323.89332 188.229413 
L 326.592071 186.017401 
L 327.914215 184.099902 
L 329.218847 181.885762 
L 330.506424 181.592689 
L 331.777387 183.954926 
L 333.032159 179.791752 
L 334.271147 181.123427 
L 335.494744 180.004009 
L 336.703326 176.773191 
L 337.897259 176.822777 
L 339.076893 175.888182 
L 340.242567 175.237848 
L 341.394606 174.845195 
L 342.533327 171.608464 
L 343.659034 173.480711 
L 344.77202 170.683044 
L 345.872571 171.118642 
L 346.96096 169.678361 
L 348.037455 167.612471 
L 349.102311 170.424639 
L 350.155778 167.69232 
L 351.198098 167.316563 
L 353.250219 165.721679 
L 354.260466 162.363494 
L 355.260457 163.989446 
L 356.250398 165.033042 
L 357.230488 163.276442 
L 358.200922 161.908049 
L 359.161888 162.051095 
L 360.11357 162.391522 
L 361.056144 160.855556 
L 361.989784 158.451159 
L 362.914657 157.335288 
L 363.830926 158.791652 
L 364.738751 157.318213 
L 365.638284 158.092544 
L 366.529677 156.165838 
L 367.413076 155.789864 
L 368.288621 155.799086 
L 369.156453 155.505251 
L 370.016705 154.704602 
L 370.869509 156.200226 
L 371.714993 151.166392 
L 372.553281 153.173366 
L 373.384495 152.366921 
L 374.208753 150.092697 
L 375.026171 153.135501 
L 375.836861 151.100218 
L 376.640932 147.779399 
L 377.438494 150.649738 
L 378.229648 151.110196 
L 379.014499 149.577408 
L 379.793146 147.054327 
L 380.565685 148.465258 
L 381.332212 149.473516 
L 382.09282 145.801584 
L 382.8476 146.857823 
L 383.59664 144.725801 
L 384.340026 147.288829 
L 385.077844 145.519301 
L 385.810177 144.598453 
L 386.537104 144.293795 
L 387.258707 144.726116 
L 387.975061 141.645505 
L 388.686243 143.333339 
L 389.392326 141.140534 
L 390.093384 140.267348 
L 390.789488 140.578918 
L 391.480707 141.106602 
L 392.167109 141.975144 
L 393.525727 142.121026 
L 394.198072 141.287915 
L 394.86586 137.759419 
L 395.52915 138.774951 
L 396.188004 140.041406 
L 396.84248 140.315796 
L 397.492636 136.985012 
L 398.780213 137.859539 
L 399.417744 137.708914 
L 400.051176 136.371302 
L 400.68056 137.992917 
L 401.305947 133.710349 
L 402.544936 136.030815 
L 403.158634 134.678253 
L 403.768532 134.706572 
L 404.374677 134.479121 
L 404.977115 132.700277 
L 406.171048 137.822979 
L 406.762631 132.968042 
L 407.350682 132.1649 
L 408.516355 133.004665 
L 409.094059 130.455849 
L 409.668395 129.696668 
L 410.239401 133.721284 
L 411.371577 133.992191 
L 411.932822 132.674948 
L 412.490887 130.002689 
L 413.597621 129.165573 
L 414.146359 129.946706 
L 415.234749 129.995447 
L 415.774467 128.600303 
L 416.311243 127.873445 
L 417.3761 127.443532 
L 417.904242 129.429368 
L 418.952105 126.401593 
L 419.471886 129.513887 
L 419.988939 126.318071 
L 421.014971 125.531158 
L 421.524007 126.312948 
L 422.534255 126.271596 
L 423.035519 124.48203 
L 424.03046 125.052422 
L 424.524186 124.58897 
L 425.504276 125.252284 
L 425.990689 121.699471 
L 427.912667 124.266018 
L 428.387358 122.073194 
L 429.329932 122.678129 
L 429.797858 121.624681 
L 430.727094 123.412834 
L 431.647645 120.692688 
L 432.104715 122.886832 
L 433.012539 120.718733 
L 433.912073 120.415683 
L 434.358778 122.079067 
L 435.246155 120.729367 
L 436.12561 119.956118 
L 436.56241 118.613551 
L 437.430242 116.511364 
L 438.290494 119.526997 
L 439.143298 118.176656 
L 439.566947 118.790049 
L 440.408818 117.636203 
L 442.071275 116.395185 
L 442.892098 117.544738 
L 443.299959 117.460602 
L 444.110649 114.711828 
L 444.914721 115.991882 
L 446.503437 116.421322 
L 447.288288 116.703405 
L 448.066934 114.090561 
L 448.839473 114.389108 
L 449.606001 113.485856 
L 450.366609 114.894879 
L 451.121388 113.261842 
L 451.870428 111.021496 
L 452.613815 115.520007 
L 453.351633 113.741381 
L 454.083965 112.298525 
L 454.810893 111.233517 
L 455.532495 114.554499 
L 456.248849 113.133833 
L 456.960031 109.398251 
L 458.367173 112.053969 
L 459.063277 107.741049 
L 460.098294 111.287687 
L 460.782312 111.553786 
L 461.461613 110.203679 
L 462.136262 113.851043 
L 462.80632 110.603429 
L 463.802939 108.89591 
L 464.461792 107.190164 
L 465.116268 107.926727 
L 466.0899 108.515644 
L 466.733681 110.288733 
L 467.373283 106.073521 
L 468.324964 111.34563 
L 468.954348 106.769117 
L 469.579736 107.251797 
L 470.510435 107.720692 
L 471.126051 107.898425 
L 472.042321 109.047892 
L 472.648466 106.948339 
L 473.550746 101.355789 
L 474.147707 107.292796 
L 475.036419 107.121755 
L 475.62447 103.889128 
L 476.500016 104.008711 
L 477.079419 105.422626 
L 477.942183 102.703448 
L 478.797456 105.282346 
L 479.363539 106.279371 
L 480.206611 103.254059 
L 481.042527 103.680149 
L 481.59589 105.566636 
L 482.420148 103.265096 
L 483.237565 103.727847 
L 484.048255 100.712443 
L 484.585032 99.523331 
L 485.384751 103.241567 
L 486.17803 102.191746 
L 486.964971 100.80972 
L 488.520239 101.49324 
L 489.28876 99.481195 
L 489.797796 104.598351 
L 490.556451 99.560707 
L 491.309308 99.474186 
L 492.056454 101.343451 
L 492.797975 96.079108 
L 493.778065 100.34745 
L 494.506785 102.11459 
L 495.230154 101.316493 
L 495.948249 97.443254 
L 496.661147 100.325416 
L 497.368921 99.521602 
L 498.071647 95.201833 
L 499.000883 98.174388 
L 499.692101 101.577568 
L 501.060155 98.116709 
L 501.961747 100.041308 
L 502.632566 97.381686 
L 503.519944 98.63903 
L 504.18027 98.998895 
L 504.836198 97.979901 
L 505.70403 95.043647 
L 506.349923 97.196711 
L 507.204577 98.393407 
L 507.840735 96.140664 
L 508.682606 96.402448 
L 509.30932 94.900432 
L 510.138784 93.560396 
L 511.573748 98.565437 
L 512.384437 92.576195 
L 513.188509 93.411785 
L 513.98607 94.06953 
L 514.580032 94.765576 
L 515.366449 92.330026 
L 516.146637 94.303636 
L 516.920694 92.511739 
L 517.688716 94.288362 
L 518.450795 92.975005 
L 519.207023 93.489517 
L 519.95749 92.0944 
L 520.702282 91.24953 
L 521.441484 91.118337 
L 522.17518 95.675535 
L 522.903452 92.331932 
L 523.626378 93.944952 
L 524.344037 90.112661 
L 525.233819 92.617137 
L 525.939903 91.454169 
L 526.640961 92.704171 
L 527.337065 93.540041 
L 528.200333 90.19431 
L 528.885541 90.165758 
L 529.566015 92.323041 
L 530.41005 91.277031 
L 531.080109 88.298134 
L 531.911323 89.548869 
L 532.57128 91.756365 
L 533.390057 89.969082 
L 534.202083 90.98215 
L 534.846918 88.307912 
L 535.647071 86.429484 
L 536.440776 87.346804 
L 537.071167 86.702471 
L 537.853524 87.875477 
L 538.629716 87.703038 
L 539.39984 90.611884 
L 540.163988 84.768119 
L 540.922254 86.269948 
L 541.674727 87.496903 
L 542.421495 87.02084 
L 543.162645 89.774709 
L 543.898259 86.423943 
L 544.628419 85.536434 
L 545.353208 83.442033 
L 546.072701 85.194289 
L 546.929213 86.327856 
L 547.637327 84.839345 
L 548.340387 88.049838 
L 549.177488 88.777814 
L 549.869678 87.140106 
L 550.693936 86.81919 
L 551.375588 83.48215 
L 552.187391 85.789859 
L 552.85882 83.617554 
L 553.65854 83.737039 
L 554.320048 81.751683 
L 555.108038 83.947778 
L 555.889775 81.307753 
L 557.434877 85.818268 
L 558.071584 85.256272 
L 558.83024 82.973628 
L 560.330242 82.568021 
L 561.071763 81.171952 
L 561.807744 80.893922 
L 562.659494 84.149537 
L 563.383749 81.384063 
L 564.102718 80.48296 
L 564.816476 82.147232 
L 565.64271 82.502136 
L 567.158995 80.088612 
L 567.851023 80.898106 
L 568.652291 79.098885 
L 569.333943 81.368756 
L 570.123286 79.676039 
L 570.906354 80.152862 
L 571.572636 78.877307 
L 572.344311 78.942053 
L 573.109987 80.907984 
L 573.869757 77.308827 
L 574.623711 78.270631 
L 575.371938 77.521505 
L 576.114524 76.220194 
L 576.851553 76.957255 
L 577.583109 75.447681 
L 578.309271 79.462618 
L 579.132667 75.857971 
L 579.847536 79.358613 
L 580.557254 79.538162 
L 581.362147 77.701766 
L 582.061073 76.980237 
L 582.85382 78.321488 
L 583.640237 78.439523 
L 584.323239 75.134062 
L 585.098058 76.099752 
L 585.866828 78.518474 
L 586.629645 76.075769 
L 587.3866 75.924921 
L 588.137782 75.985341 
L 588.883279 76.170741 
L 589.623175 75.405638 
L 590.357555 74.071928 
L 591.0865 73.12198 
L 591.81009 75.027844 
L 592.617825 73.836625 
L 593.330293 73.01147 
L 594.125707 77.162135 
L 594.82739 73.109593 
L 595.610853 72.443146 
L 596.302072 72.259057 
L 597.073939 73.861262 
L 597.839804 75.00233 
L 598.59976 73.566461 
L 599.353897 71.424563 
L 600.102305 72.876313 
L 600.845068 72.618765 
L 601.582273 70.387838 
L 602.314001 72.703892 
L 603.120707 72.377965 
L 603.841136 73.223532 
L 604.556334 73.767478 
L 605.344956 71.249941 
L 606.049356 72.559491 
L 606.82616 72.773808 
L 607.596886 71.501854 
L 608.361628 71.190893 
L 609.044856 72.165988 
L 609.79848 73.002099 
L 610.546382 70.402752 
L 611.362569 73.738733 
L 612.098732 69.460957 
L 612.829435 70.671559 
L 613.554757 72.193484 
L 614.34649 68.815261 
L 615.060766 69.405873 
L 616.544095 70.795551 
L 617.312253 68.478136 
L 618.074466 69.877841 
L 618.830826 70.415838 
L 619.581423 68.832585 
L 620.326343 69.168621 
L 621.065671 71.40717 
L 622.593837 68.964074 
L 624.098655 66.623904 
L 624.810304 67.318813 
L 625.580829 67.889576 
L 626.345373 71.749002 
L 627.041029 68.506575 
L 628.541984 66.406073 
L 629.345552 67.77716 
L 630.081532 64.091645 
L 630.812054 63.515627 
L 631.537198 64.117063 
L 632.316792 65.135697 
L 633.090265 68.157523 
L 633.798888 68.154891 
L 634.560854 64.919574 
L 635.316971 67.352707 
L 636.067328 64.840157 
L 636.812011 65.997141 
L 637.551107 65.792438 
L 638.284698 66.735476 
L 639.068656 66.309103 
L 639.791073 62.419927 
L 640.56318 64.524497 
L 641.329281 64.875963 
L 642.035365 64.873992 
L 642.790144 68.895214 
L 643.539184 66.204569 
L 644.282571 64.491494 
L 645.072879 65.58453 
L 645.804823 63.394285 
L 646.531368 64.052047 
L 647.303907 66.742623 
L 648.070434 65.047425 
L 648.780517 64.731815 
L 649.535683 65.817483 
L 650.285102 62.408459 
L 651.028863 64.329194 
L 651.816066 63.865277 
L 652.548399 60.747459 
L 653.275326 64.448395 
L 654.044848 63.280194 
L 654.808404 62.447839 
L 655.566087 65.326893 
L 656.317986 59.741583 
L 657.064188 66.133011 
L 657.80478 61.923732 
L 658.539845 65.249147 
L 659.314887 60.673561 
L 660.03881 66.870637 
L 660.802192 63.028569 
L 661.559703 63.299217 
L 662.311433 65.668523 
L 663.057469 62.213614 
L 663.797897 63.748015 
L 664.532801 60.207574 
L 665.305004 61.677165 
L 666.02879 62.337022 
L 666.789398 59.917694 
L 667.544177 61.67647 
L 668.293217 64.031139 
L 669.036604 58.76912 
L 669.774422 62.061136 
L 671.27391 60.724871 
L 672.790526 64.621074 
L 673.540165 64.83638 
L 674.284143 63.945966 
L 675.022543 58.798115 
L 675.793873 61.645099 
L 676.521083 63.49296 
L 677.280811 62.155932 
L 678.034724 63.956386 
L 678.78291 60.886957 
L 679.525456 59.207597 
L 680.262446 60.889799 
L 681.030397 61.355828 
L 681.792406 60.049343 
L 682.512689 60.176305 
L 683.263359 56.735678 
L 684.008352 59.921066 
L 684.782825 62.52541 
L 685.516456 62.243293 
L 686.279206 58.930817 
L 687.036094 63.466339 
L 687.787211 66.026867 
L 688.532643 61.791154 
L 689.272477 62.872561 
L 690.006795 60.740361 
L 690.768682 60.638581 
L 691.524721 61.877475 
L 692.275001 57.797996 
L 693.019609 61.595632 
L 693.758631 61.033883 
L 694.523917 59.811658 
L 695.251779 60.713975 
L 696.005596 59.219282 
L 696.753687 59.551957 
L 697.526955 61.656316 
L 698.263623 63.065845 
L 699.025172 57.982448 
L 699.750761 61.372605 
L 700.500942 62.437466 
L 701.275116 60.693665 
L 702.013819 62.328668 
L 702.747024 61.048619 
L 703.503811 59.479075 
L 704.254828 63.324955 
L 705.000161 65.344087 
L 705.768238 62.502913 
L 706.50225 67.657506 
L 707.258747 58.442593 
L 708.009479 58.896712 
L 708.754531 56.39233 
L 709.493991 56.761024 
L 710.255018 60.345833 
L 711.010211 58.326371 
L 711.759658 59.979031 
L 712.503446 62.014621 
L 713.241659 63.381178 
L 714.000449 60.905776 
L 714.753437 61.807272 
L 715.500714 61.254907 
L 716.242363 64.963941 
L 717.003755 56.667836 
L 717.759307 54.366162 
L 718.509107 58.955301 
L 719.253242 62.051188 
L 719.991798 61.68306 
L 720.749198 57.574988 
L 721.50082 60.666854 
L 722.246749 56.374272 
L 722.987071 56.497584 
L 723.745483 57.247081 
L 724.4981 63.264795 
L 725.24501 59.553409 
L 725.986298 59.82892 
L 726.744954 62.067863 
L 728.244956 57.503637 
L 728.986477 63.404021 
L 729.744674 58.776056 
L 730.49708 63.523413 
L 731.243782 63.306382 
L 731.984865 60.942433 
L 732.741965 59.658802 
L 733.493291 55.824036 
L 734.238928 62.561134 
L 734.978964 60.81327 
L 735.734386 60.135219 
L 736.48406 64.27411 
L 737.22807 62.06502 
L 737.986936 57.891397 
L 738.74 58.722765 
L 739.48735 59.993343 
L 740.229072 58.511667 
L 740.985072 54.464844 
L 741.735313 61.93594 
L 742.479882 54.272863 
L 743.238238 59.272298 
L 743.971575 60.49797 
L 744.718575 53.521754 
L 745.47889 56.638456 
L 746.23338 63.535209 
L 746.982135 58.058153 
L 747.725242 61.124892 
L 748.481151 60.042878 
L 749.231304 55.795854 
L 749.975787 59.826128 
L 750.714685 61.316658 
L 752.229114 57.202039 
L 752.968911 65.510707 
L 754.466615 58.7009 
L 755.224165 66.134017 
L 755.975933 58.400087 
L 756.722007 57.912153 
L 757.462473 58.388259 
L 758.214053 66.599055 
L 758.959941 55.562291 
L 759.716611 61.527384 
L 760.467513 54.706648 
L 761.968376 59.377917 
L 762.718265 59.063368 
L 763.462488 62.439854 
L 764.216786 62.329756 
L 764.965352 52.448458 
L 765.708271 63.784071 
L 766.460932 52.892783 
L 767.207885 57.854093 
L 767.964287 58.867299 
L 768.714926 65.734475 
L 769.459886 57.358102 
L 770.213986 60.254661 
L 770.962356 57.025281 
L 771.705084 57.843354 
L 773.202528 61.686012 
L 773.95698 62.881513 
L 774.705698 68.314646 
L 775.448767 58.358873 
L 776.200134 65.41066 
L 776.95957 60.541932 
L 777.699543 59.120982 
L 778.447549 53.21447 
L 779.203363 56.129822 
L 779.953421 55.756828 
L 780.697811 65.836242 
L 782.196012 59.971485 
L 782.949597 64.051844 
L 783.69746 57.060852 
L 784.452436 53.439747 
L 785.201669 58.819711 
L 785.945245 54.950459 
L 786.695712 56.664792 
L 787.440504 58.887474 
L 788.191979 60.744918 
L 788.937765 58.302264 
L 789.690034 58.905788 
L 790.448597 56.894794 
L 791.189458 69.045785 
L 791.936604 61.016299 
L 792.68985 58.431804 
L 793.43738 53.583108 
L 794.190827 56.301537 
L 794.938555 54.309721 
L 795.692022 56.208678 
L 796.43977 56.61194 
L 797.193085 65.234952 
L 797.940682 62.929572 
L 798.682648 67.937374 
L 799.440964 64.920775 
L 800.182622 57.840981 
L 800.929522 60.608541 
L 801.681503 53.258889 
L 802.438406 63.129474 
L 803.178998 50.366868 
L 803.934985 61.296513 
L 804.685213 64.314987 
L 805.42977 54.290719 
L 806.178966 60.499052 
L 806.932653 52.624958 
L 807.680617 61.301737 
L 808.432937 55.939365 
L 809.179554 60.265683 
L 809.930397 58.71542 
L 810.675559 58.725843 
L 811.424821 65.818968 
L 812.178047 54.366826 
L 813.67691 64.547998 
L 814.422577 62.156362 
L 815.171972 64.085201 
L 815.924971 68.032119 
L 816.672257 57.475934 
L 817.423037 66.031361 
L 818.168139 61.001966 
L 818.91663 66.633299 
L 819.668392 60.425215 
L 820.423307 59.634293 
L 821.172481 64.400027 
L 821.916 76.916313 
L 822.671245 61.032603 
L 823.420744 60.430864 
L 824.164582 58.511562 
L 824.919752 49.932101 
L 825.669176 59.653341 
L 826.412941 71.162765 
L 827.167657 61.529319 
L 827.916634 64.438114 
L 828.659959 53.147284 
L 829.413869 59.865913 
L 830.162052 51.3254 
L 830.912549 60.378538 
L 831.657371 56.267141 
L 832.412271 61.503876 
L 833.161429 52.269886 
L 833.912648 60.482167 
L 834.658181 56.204625 
L 835.405713 64.188975 
L 836.155155 57.455441 
L 836.906423 63.615224 
L 837.659432 54.691512 
L 838.406727 52.822275 
L 839.155711 61.332347 
L 839.906303 63.364155 
L 840.651218 67.852497 
L 841.404842 56.407024 
L 842.152745 60.65674 
L 843.652693 56.931853 
L 844.404592 66.300686 
L 845.150795 54.993839 
L 845.898218 57.346938 
L 846.646792 58.869585 
L 847.396448 54.161736 
L 848.147119 52.582052 
L 848.898738 48.958678 
L 849.644666 62.49522 
L 850.39804 55.950908 
L 851.145695 63.661286 
L 851.894146 56.583989 
L 852.643332 51.034406 
L 853.393193 56.17232 
L 854.143672 45.348118 
L 854.894711 71.202778 
L 855.640066 57.895667 
L 856.392106 69.843406 
L 857.144542 51.168589 
L 857.891273 56.798073 
L 858.638388 56.097076 
L 859.391793 59.779331 
L 860.139479 56.159936 
L 860.8874 70.487929 
L 861.635506 59.817109 
L 862.38953 65.715551 
L 863.137826 69.920696 
L 863.88617 52.62654 
L 864.63452 54.69731 
L 865.382833 61.665129 
L 866.136628 60.591379 
L 866.884699 65.24339 
L 867.632609 61.960275 
L 868.380321 70.202416 
L 869.133191 63.487886 
L 869.880351 63.975038 
L 870.632514 61.099066 
L 871.378977 53.533347 
L 872.130295 60.872353 
L 872.881119 69.680992 
L 873.631418 54.369759 
L 874.376045 68.096302 
L 875.125239 43.759145 
L 875.878856 68.626438 
L 877.373972 47.523051 
L 878.125418 55.673219 
L 878.125418 55.673219 
" style="fill:none;stroke:#1f77b4;stroke-linecap:square;stroke-width:1.5;"/>
   </g>
   <g id="line2d_46">
    <path clip-path="url(#p8a03ab156a)" d="M 129.449782 421.422055 
L 138.837668 416.425846 
L 155.292204 400.325706 
L 162.59171 389.795109 
L 169.387388 390.142692 
L 175.74432 380.840966 
L 181.715739 377.704976 
L 187.345743 371.605836 
L 192.67127 374.61561 
L 197.72357 372.276431 
L 202.529316 361.503322 
L 207.111457 357.946945 
L 211.489878 355.481677 
L 215.681926 351.457909 
L 219.702821 354.437562 
L 223.565993 351.461873 
L 227.283349 352.148624 
L 230.865499 344.720499 
L 234.321933 346.08052 
L 237.661176 341.958242 
L 240.890917 340.445552 
L 244.018108 338.373845 
L 247.049063 332.408964 
L 249.989528 341.75602 
L 252.844749 333.034537 
L 255.619532 333.418933 
L 258.318283 330.76352 
L 260.945059 335.073394 
L 263.503599 331.993452 
L 265.997359 327.681036 
L 268.429538 324.918463 
L 270.803105 329.763869 
L 273.120818 331.069796 
L 275.385245 324.549109 
L 277.598782 322.634727 
L 279.763666 329.145603 
L 281.88199 316.075916 
L 283.955714 314.887055 
L 285.986678 323.608483 
L 287.976609 317.632471 
L 289.927134 321.079421 
L 291.839781 318.911924 
L 293.715995 319.504162 
L 295.557138 318.416442 
L 297.364496 319.302377 
L 299.139287 329.463698 
L 300.882665 318.027297 
L 302.595721 317.409055 
L 304.279493 316.45682 
L 305.934965 317.925684 
L 307.563072 315.337055 
L 309.164705 317.577328 
L 310.740711 316.81339 
L 312.291897 323.198808 
L 313.819032 314.818253 
L 315.322851 318.956484 
L 316.804056 317.078412 
L 318.263316 314.924205 
L 319.701272 312.356156 
L 321.118538 303.823651 
L 322.5157 315.36471 
L 323.89332 316.689675 
L 325.251938 316.759872 
L 326.592071 307.816015 
L 327.914215 309.630666 
L 329.218847 312.395971 
L 330.506424 309.181636 
L 331.777387 312.807645 
L 333.032159 310.741236 
L 334.271147 309.398494 
L 335.494744 315.884538 
L 336.703326 309.824615 
L 337.897259 307.726866 
L 339.076893 306.365471 
L 340.242567 310.2831 
L 341.394606 306.807368 
L 342.533327 309.944313 
L 343.659034 306.749915 
L 344.77202 308.878027 
L 345.872571 303.10315 
L 346.96096 302.050245 
L 348.037455 306.783507 
L 349.102311 307.081806 
L 350.155778 311.858607 
L 351.198098 312.408542 
L 352.229503 302.541767 
L 353.250219 306.068415 
L 354.260466 300.519391 
L 355.260457 306.178726 
L 356.250398 298.052035 
L 357.230488 309.984943 
L 359.161888 305.484569 
L 360.11357 309.373718 
L 361.056144 303.709822 
L 361.989784 307.33625 
L 362.914657 305.388648 
L 363.830926 301.852078 
L 364.738751 299.644092 
L 365.638284 304.423068 
L 366.529677 302.591889 
L 367.413076 298.913311 
L 368.288621 304.140571 
L 369.156453 304.441314 
L 370.016705 300.688339 
L 370.869509 301.72201 
L 371.714993 300.296478 
L 372.553281 300.376832 
L 373.384495 301.314843 
L 374.208753 299.297614 
L 375.026171 307.140627 
L 375.836861 304.273822 
L 376.640932 291.04494 
L 377.438494 300.655539 
L 378.229648 303.20235 
L 379.014499 304.621212 
L 379.793146 298.496601 
L 380.565685 301.795237 
L 381.332212 296.948338 
L 382.09282 296.723808 
L 382.8476 297.758269 
L 383.59664 296.487752 
L 384.340026 301.43683 
L 385.077844 301.963833 
L 385.810177 305.923553 
L 386.537104 297.328931 
L 387.258707 292.085011 
L 387.975061 300.285049 
L 388.686243 298.638859 
L 389.392326 296.244174 
L 390.093384 297.717523 
L 390.789488 297.830864 
L 391.480707 303.152455 
L 392.167109 294.8476 
L 393.525727 291.564818 
L 394.198072 287.943628 
L 394.86586 293.009346 
L 395.52915 291.301449 
L 396.188004 294.994992 
L 396.84248 295.173707 
L 397.492636 297.023318 
L 398.780213 298.482685 
L 399.417744 294.880421 
L 400.051176 294.6929 
L 400.68056 293.878804 
L 401.305947 288.707782 
L 402.544936 291.642816 
L 403.158634 289.801096 
L 403.768532 292.101406 
L 404.374677 291.219722 
L 404.977115 294.67284 
L 406.171048 293.669212 
L 406.762631 299.221916 
L 407.350682 299.863337 
L 408.516355 290.250187 
L 409.094059 296.706258 
L 409.668395 294.837642 
L 410.239401 291.364664 
L 411.371577 292.179645 
L 411.932822 292.099956 
L 412.490887 291.821128 
L 413.597621 291.878392 
L 414.146359 294.487196 
L 415.234749 286.382848 
L 415.774467 287.984549 
L 416.311243 286.098516 
L 417.3761 287.925049 
L 417.904242 285.347061 
L 418.952105 291.511737 
L 419.471886 286.278829 
L 419.988939 288.974017 
L 421.014971 288.792893 
L 421.524007 292.679142 
L 422.534255 288.452915 
L 423.035519 286.992842 
L 424.03046 285.82576 
L 425.504276 289.285895 
L 425.990689 286.907764 
L 426.956366 285.412306 
L 427.912667 278.418969 
L 428.387358 284.919026 
L 429.329932 290.114211 
L 429.797858 287.397268 
L 430.727094 278.836127 
L 431.647645 287.151122 
L 432.104715 285.755943 
L 433.012539 285.598513 
L 433.912073 283.53502 
L 434.358778 286.336918 
L 435.246155 285.264554 
L 436.12561 278.179493 
L 436.56241 281.97755 
L 437.430242 284.027392 
L 438.290494 282.631335 
L 439.143298 288.254816 
L 439.566947 277.668387 
L 440.408818 285.974461 
L 441.243554 279.73118 
L 442.071275 282.185641 
L 442.892098 281.576725 
L 443.299959 285.18529 
L 444.110649 277.400525 
L 444.914721 279.677037 
L 445.712282 279.055516 
L 446.503437 277.017344 
L 447.288288 281.006947 
L 448.066934 271.809544 
L 448.839473 285.938091 
L 449.606001 280.26805 
L 450.366609 278.928765 
L 451.121388 279.058485 
L 451.870428 272.574902 
L 452.613815 280.905148 
L 453.351633 276.227435 
L 454.083965 277.649244 
L 454.810893 277.863775 
L 455.532495 278.210026 
L 456.248849 270.143917 
L 456.960031 278.562906 
L 457.666115 275.524302 
L 458.367173 273.255006 
L 459.063277 276.619831 
L 460.098294 271.871224 
L 460.782312 275.433412 
L 461.461613 280.21875 
L 462.136262 275.039742 
L 462.80632 275.057578 
L 463.802939 273.767314 
L 464.461792 273.975158 
L 465.116268 275.462232 
L 466.0899 275.386048 
L 466.733681 264.846259 
L 467.373283 272.989391 
L 468.954348 281.046924 
L 469.579736 278.993367 
L 470.510435 267.320397 
L 471.126051 269.433519 
L 472.042321 273.601007 
L 472.648466 265.503909 
L 473.550746 275.658056 
L 474.147707 274.411626 
L 475.036419 269.750668 
L 475.62447 265.477953 
L 476.500016 277.716983 
L 477.079419 267.70672 
L 477.942183 270.798842 
L 478.797456 270.037046 
L 479.363539 272.223919 
L 480.206611 269.003683 
L 481.042527 276.715144 
L 481.59589 271.024417 
L 482.420148 260.318205 
L 483.237565 268.970632 
L 484.048255 268.386539 
L 484.585032 263.912937 
L 485.384751 273.927213 
L 486.17803 263.610695 
L 486.964971 263.808437 
L 487.745675 267.272952 
L 488.520239 265.182761 
L 489.28876 265.88148 
L 489.797796 262.439469 
L 490.556451 263.67586 
L 491.309308 276.633764 
L 492.056454 262.515851 
L 492.797975 264.440787 
L 493.778065 258.120037 
L 494.506785 261.424665 
L 495.230154 260.047308 
L 495.948249 268.973809 
L 496.661147 265.612489 
L 497.368921 257.235274 
L 498.071647 267.185853 
L 499.692101 263.304688 
L 500.378503 259.751099 
L 501.060155 262.373277 
L 501.961747 258.475893 
L 502.632566 263.866187 
L 503.519944 256.370434 
L 504.18027 251.742873 
L 504.836198 260.414628 
L 505.70403 259.701465 
L 506.349923 259.776662 
L 507.204577 261.939162 
L 507.840735 251.4858 
L 508.682606 255.909704 
L 509.30932 264.439677 
L 510.138784 253.517417 
L 510.961321 254.09551 
L 511.573748 257.85897 
L 513.188509 251.126796 
L 513.98607 253.167196 
L 514.580032 256.496328 
L 515.366449 256.274772 
L 516.146637 254.757706 
L 516.920694 254.353364 
L 517.688716 259.291715 
L 518.450795 250.722323 
L 519.207023 255.81807 
L 519.95749 253.27336 
L 520.702282 257.832158 
L 521.441484 253.038636 
L 522.17518 257.116414 
L 522.903452 251.26836 
L 523.626378 258.320176 
L 524.344037 251.789987 
L 525.233819 261.095909 
L 525.939903 254.454975 
L 526.640961 253.289559 
L 527.337065 246.189713 
L 528.200333 250.122899 
L 528.885541 252.430944 
L 529.566015 248.252747 
L 531.080109 252.041378 
L 531.911323 244.145698 
L 532.57128 250.754193 
L 533.390057 247.046816 
L 534.202083 244.132954 
L 534.846918 244.104414 
L 535.647071 249.632259 
L 536.440776 247.146084 
L 537.071167 248.375751 
L 537.853524 246.300703 
L 538.629716 251.997347 
L 539.39984 249.837074 
L 540.163988 244.096616 
L 540.922254 234.44047 
L 541.674727 245.981972 
L 542.421495 243.083705 
L 543.162645 249.955783 
L 543.898259 240.951557 
L 544.628419 238.746119 
L 545.353208 248.390985 
L 546.072701 243.544292 
L 546.929213 244.928914 
L 547.637327 246.304077 
L 548.340387 239.251297 
L 549.177488 237.006762 
L 549.869678 239.889421 
L 550.693936 246.421553 
L 551.375588 245.076458 
L 552.187391 253.673341 
L 552.85882 237.775337 
L 553.65854 242.339531 
L 554.320048 238.543318 
L 555.108038 238.818144 
L 555.889775 237.580999 
L 556.665356 233.720148 
L 557.434877 234.822063 
L 558.071584 226.067532 
L 558.83024 238.889742 
L 559.583096 244.078977 
L 560.330242 239.114057 
L 561.071763 241.907234 
L 561.807744 232.153413 
L 562.659494 240.636251 
L 563.383749 237.481822 
L 564.102718 235.264349 
L 564.816476 229.20904 
L 565.64271 234.133063 
L 566.345435 232.606192 
L 567.158995 238.886133 
L 567.851023 225.190673 
L 568.652291 226.354317 
L 569.333943 232.326094 
L 570.123286 234.129937 
L 570.906354 225.586185 
L 571.572636 232.962785 
L 572.344311 232.379864 
L 573.109987 229.236654 
L 573.869757 228.813133 
L 574.623711 225.751717 
L 575.371938 223.294906 
L 576.114524 223.975571 
L 576.851553 224.464758 
L 577.583109 228.602353 
L 578.309271 231.442884 
L 579.132667 221.882888 
L 579.847536 227.462223 
L 580.557254 221.983587 
L 581.362147 219.590071 
L 582.061073 220.316979 
L 582.85382 224.208837 
L 583.640237 223.167055 
L 585.098058 218.543469 
L 585.866828 216.621143 
L 586.629645 219.433651 
L 587.3866 222.979987 
L 588.137782 218.138278 
L 588.883279 228.061606 
L 589.623175 213.919713 
L 590.357555 215.506906 
L 591.0865 217.984708 
L 591.81009 215.131028 
L 592.617825 217.140141 
L 593.330293 213.135574 
L 594.125707 219.845061 
L 594.82739 217.797056 
L 595.610853 211.48621 
L 596.302072 213.99748 
L 597.073939 214.645974 
L 597.839804 213.345176 
L 598.59976 215.634173 
L 599.353897 214.387435 
L 600.102305 214.929957 
L 600.845068 215.29181 
L 601.582273 208.489647 
L 602.314001 216.470345 
L 603.120707 211.575283 
L 603.841136 216.397512 
L 604.556334 214.008334 
L 605.344956 213.715172 
L 606.049356 211.875867 
L 606.82616 212.502044 
L 607.596886 212.276875 
L 608.361628 212.468685 
L 609.044856 207.991191 
L 609.79848 213.728975 
L 610.546382 208.371435 
L 611.362569 214.242527 
L 612.098732 208.803576 
L 612.829435 209.497491 
L 613.554757 213.871154 
L 615.060766 202.194482 
L 615.840533 207.463359 
L 616.544095 208.861666 
L 617.312253 208.887895 
L 618.074466 207.662239 
L 618.830826 202.999167 
L 619.581423 206.716822 
L 620.326343 203.789964 
L 621.065671 204.412002 
L 621.799492 201.853752 
L 622.593837 198.029547 
L 623.316401 212.147355 
L 624.098655 206.034891 
L 624.810304 201.883336 
L 625.580829 200.391527 
L 626.345373 200.84135 
L 627.041029 207.851345 
L 627.794366 203.023767 
L 628.541984 205.368387 
L 629.345552 203.256362 
L 630.081532 203.34922 
L 630.812054 201.067721 
L 631.537198 199.869861 
L 632.316792 199.497778 
L 633.090265 202.761574 
L 633.798888 193.348264 
L 634.560854 198.143494 
L 635.316971 202.178559 
L 636.067328 204.635224 
L 636.812011 199.581858 
L 637.551107 201.088034 
L 638.284698 200.424425 
L 639.068656 203.143927 
L 639.791073 201.580103 
L 640.56318 200.598257 
L 641.329281 197.289519 
L 642.035365 201.264188 
L 642.790144 206.575621 
L 644.282571 197.483561 
L 645.072879 197.870852 
L 645.804823 199.328266 
L 646.531368 199.707113 
L 647.303907 193.512299 
L 648.070434 191.120124 
L 648.780517 197.89554 
L 649.535683 193.087343 
L 651.028863 197.323464 
L 651.816066 191.715443 
L 652.548399 197.780499 
L 653.275326 200.105472 
L 654.044848 196.209944 
L 654.808404 194.242197 
L 655.566087 197.364559 
L 656.317986 189.838679 
L 657.064188 198.111124 
L 657.80478 195.797793 
L 658.539845 201.399684 
L 659.314887 193.185831 
L 660.03881 198.600425 
L 660.802192 190.607507 
L 661.559703 192.106941 
L 662.311433 197.764573 
L 663.057469 193.11098 
L 663.797897 190.263603 
L 664.532801 183.683801 
L 665.305004 190.244843 
L 666.02879 192.384351 
L 666.789398 186.047435 
L 667.544177 196.213747 
L 668.293217 191.647191 
L 669.036604 185.232024 
L 670.54728 190.478498 
L 671.27391 187.814718 
L 672.035137 192.633532 
L 672.790526 188.162554 
L 673.540165 190.855069 
L 674.284143 187.448369 
L 675.793873 189.502424 
L 676.521083 195.764193 
L 677.280811 191.175801 
L 678.034724 195.225349 
L 678.78291 180.106017 
L 679.525456 189.87787 
L 680.262446 184.949124 
L 681.030397 183.213862 
L 681.792406 188.82265 
L 682.512689 185.485781 
L 683.263359 179.947355 
L 684.008352 188.483886 
L 684.782825 184.036632 
L 685.516456 184.247318 
L 686.279206 183.042842 
L 687.036094 189.086976 
L 687.787211 188.062412 
L 688.532643 182.588045 
L 689.272477 190.180885 
L 690.006795 178.404364 
L 690.768682 186.793849 
L 691.524721 188.148823 
L 692.275001 196.480688 
L 693.019609 181.116259 
L 693.758631 187.500834 
L 694.523917 186.246027 
L 695.251779 190.518598 
L 696.005596 181.030616 
L 696.753687 183.479306 
L 697.526955 179.352342 
L 698.263623 180.713917 
L 699.025172 199.199112 
L 699.750761 181.32431 
L 700.500942 176.901909 
L 701.275116 189.631189 
L 702.013819 179.537433 
L 702.747024 179.792248 
L 704.254828 178.067267 
L 705.000161 182.04188 
L 705.768238 176.713751 
L 706.50225 180.436198 
L 707.258747 178.64986 
L 708.009479 188.449014 
L 709.493991 177.929586 
L 710.255018 173.873456 
L 711.010211 182.239998 
L 711.759658 178.070103 
L 712.503446 179.537095 
L 713.241659 172.391653 
L 714.000449 176.057002 
L 714.753437 176.43183 
L 715.500714 188.603226 
L 716.242363 188.202975 
L 717.003755 188.531732 
L 717.759307 170.758327 
L 718.509107 186.085023 
L 719.253242 191.395156 
L 719.991798 176.304255 
L 720.749198 186.782044 
L 721.50082 173.898814 
L 722.246749 178.732406 
L 722.987071 165.419614 
L 723.745483 179.443669 
L 724.4981 170.520916 
L 725.24501 177.859587 
L 725.986298 166.61867 
L 727.49781 181.65297 
L 728.244956 169.750949 
L 728.986477 179.652529 
L 729.744674 160.133816 
L 730.49708 188.610797 
L 731.243782 184.739834 
L 731.984865 176.859764 
L 732.741965 176.486553 
L 733.493291 182.465492 
L 734.238928 184.871568 
L 734.978964 177.853664 
L 735.734386 176.853197 
L 736.48406 193.357195 
L 737.22807 166.951576 
L 737.986936 179.856644 
L 738.74 174.895761 
L 739.48735 172.730316 
L 740.229072 191.863521 
L 741.735313 172.327294 
L 742.479882 195.500434 
L 743.238238 174.093317 
L 743.971575 176.347328 
L 744.718575 185.618484 
L 745.47889 181.822881 
L 746.23338 175.323841 
L 746.982135 182.647155 
L 747.725242 175.934746 
L 748.481151 181.127419 
L 749.231304 189.649153 
L 749.975787 163.83846 
L 750.714685 177.35176 
L 751.465901 166.853886 
L 752.229114 163.761278 
L 752.968911 171.504794 
L 753.720609 166.74683 
L 754.466615 176.32122 
L 755.224165 190.602384 
L 755.975933 181.340957 
L 756.722007 162.560713 
L 757.462473 179.870757 
L 758.214053 182.237706 
L 758.959941 171.568279 
L 759.716611 189.907028 
L 760.467513 191.299962 
L 761.212734 165.845769 
L 761.968376 175.546093 
L 762.718265 167.393265 
L 763.462488 177.075596 
L 764.216786 171.736472 
L 764.965352 173.280701 
L 765.708271 177.574847 
L 766.460932 171.782911 
L 767.207885 168.324976 
L 767.964287 182.965716 
L 768.714926 163.149535 
L 769.459886 170.318126 
L 770.213986 171.359685 
L 770.962356 176.826574 
L 771.705084 163.471087 
L 772.456651 178.732064 
L 773.202528 164.970936 
L 773.95698 170.669137 
L 774.705698 156.676549 
L 776.200134 176.165329 
L 776.95957 172.739777 
L 777.699543 171.463681 
L 778.447549 163.479385 
L 779.203363 181.452282 
L 779.953421 186.923441 
L 780.697811 163.597808 
L 781.44976 176.29847 
L 782.196012 168.300225 
L 783.69746 157.598616 
L 784.452436 166.809834 
L 785.201669 164.450378 
L 785.945245 183.615747 
L 787.440504 172.832335 
L 788.191979 186.429001 
L 788.937765 176.94051 
L 789.690034 156.083503 
L 790.448597 154.401067 
L 791.189458 161.763815 
L 791.936604 170.552434 
L 792.68985 154.667306 
L 793.43738 173.718667 
L 794.190827 161.365806 
L 794.938555 174.116735 
L 795.692022 172.629167 
L 796.43977 169.550876 
L 797.193085 180.291084 
L 797.940682 152.98954 
L 798.682648 176.102926 
L 799.440964 174.431343 
L 800.182622 159.904414 
L 800.929522 159.183278 
L 801.681503 158.162334 
L 802.438406 179.283977 
L 803.178998 163.243903 
L 804.685213 162.69072 
L 805.42977 170.255381 
L 806.178966 174.359507 
L 806.932653 171.045126 
L 807.680617 170.508705 
L 808.432937 169.310895 
L 809.179554 169.900214 
L 809.930397 164.872798 
L 810.675559 174.927967 
L 811.424821 174.54148 
L 812.178047 167.272294 
L 812.925556 154.902396 
L 813.67691 166.056271 
L 814.422577 166.058432 
L 815.171972 175.567184 
L 815.924971 156.73152 
L 816.672257 155.605745 
L 817.423037 167.863414 
L 818.168139 170.856322 
L 818.91663 160.914862 
L 819.668392 160.600269 
L 820.423307 169.893114 
L 821.172481 171.785075 
L 821.916 171.606298 
L 822.671245 173.231824 
L 823.420744 188.550773 
L 824.164582 187.772682 
L 824.919752 146.054038 
L 825.669176 164.657688 
L 826.412941 165.289177 
L 827.167657 144.622952 
L 827.916634 169.605812 
L 828.659959 172.044577 
L 829.413869 166.47151 
L 830.162052 165.760113 
L 830.912549 163.643596 
L 831.657371 168.230002 
L 832.412271 167.13598 
L 833.161429 178.026451 
L 833.912648 178.448511 
L 834.658181 158.163109 
L 835.405713 169.792748 
L 836.155155 172.186324 
L 836.906423 164.845222 
L 837.659432 163.996694 
L 838.406727 176.050427 
L 839.155711 178.225542 
L 839.906303 152.763402 
L 840.651218 170.352402 
L 841.404842 170.583903 
L 842.152745 150.083217 
L 842.902053 149.961345 
L 843.652693 174.360963 
L 844.404592 173.100532 
L 845.150795 148.791281 
L 845.898218 146.219579 
L 846.646792 174.219881 
L 847.396448 176.896384 
L 848.147119 159.825868 
L 848.898738 161.867435 
L 849.644666 193.263451 
L 850.39804 196.641356 
L 851.145695 157.669018 
L 851.894146 156.293759 
L 852.643332 165.296311 
L 853.393193 167.401269 
L 854.143672 188.73232 
L 854.894711 191.000075 
L 855.640066 182.193402 
L 856.392106 182.289769 
L 857.144542 170.195011 
L 857.891273 170.675703 
L 858.638388 171.49037 
L 859.391793 171.94079 
L 860.139479 182.486041 
L 860.8874 181.254261 
L 861.635506 167.84741 
L 862.38953 166.12776 
L 863.137826 165.396647 
L 863.88617 180.047874 
L 864.63452 180.652664 
L 865.382833 146.461143 
L 866.136628 147.551249 
L 866.884699 194.751411 
L 867.632609 194.65314 
L 868.380321 189.74821 
L 869.133191 156.030292 
L 869.880351 158.821159 
L 870.632514 170.229327 
L 871.378977 170.916267 
L 872.130295 163.203643 
L 872.881119 161.476764 
L 873.631418 160.393527 
L 874.376045 199.918004 
L 875.125239 198.814165 
L 875.878856 198.831376 
L 876.626751 194.400393 
L 877.373972 196.382221 
L 878.125418 174.083474 
L 878.125418 174.083474 
" style="fill:none;stroke:#ff7f0e;stroke-linecap:square;stroke-width:1.5;"/>
   </g>
   <g id="line2d_47">
    <path clip-path="url(#p8a03ab156a)" d="M 92.016 59.907745 
L 915.5592 59.907745 
" style="fill:none;stroke:#000000;stroke-dasharray:5.55,2.4;stroke-dashoffset:0;stroke-width:1.5;"/>
   </g>
   <g id="patch_3">
    <path d="M 92.016 440.3052 
L 92.016 24.876 
" style="fill:none;stroke:#000000;stroke-linecap:square;stroke-linejoin:miter;stroke-width:0.8;"/>
   </g>
   <g id="patch_4">
    <path d="M 915.5592 440.3052 
L 915.5592 24.876 
" style="fill:none;stroke:#000000;stroke-linecap:square;stroke-linejoin:miter;stroke-width:0.8;"/>
   </g>
   <g id="patch_5">
    <path d="M 92.016 440.3052 
L 915.5592 440.3052 
" style="fill:none;stroke:#000000;stroke-linecap:square;stroke-linejoin:miter;stroke-width:0.8;"/>
   </g>
   <g id="patch_6">
    <path d="M 92.016 24.876 
L 915.5592 24.876 
" style="fill:none;stroke:#000000;stroke-linecap:square;stroke-linejoin:miter;stroke-width:0.8;"/>
   </g>
   <g id="text_9">
    <!-- $N=20, \phi=0.65$ -->
    <defs>
     <path d="M 16.890625 72.90625 
L 30.171875 72.90625 
L 50.296875 10.40625 
L 62.5 72.90625 
L 72.125 72.90625 
L 57.90625 0 
L 44.578125 0 
L 24.515625 62.890625 
L 12.3125 0 
L 2.6875 0 
z
" id="DejaVuSans-Oblique-78"/>
     <path d="M 10.59375 45.40625 
L 73.1875 45.40625 
L 73.1875 37.203125 
L 10.59375 37.203125 
z
M 10.59375 25.484375 
L 73.1875 25.484375 
L 73.1875 17.1875 
L 10.59375 17.1875 
z
" id="DejaVuSans-61"/>
     <path d="M 11.71875 12.40625 
L 22.015625 12.40625 
L 22.015625 4 
L 14.015625 -11.625 
L 7.71875 -11.625 
L 11.71875 4 
z
" id="DejaVuSans-44"/>
     <path d="M 46.734375 75.984375 
L 42.78125 55.8125 
Q 52.546875 55.8125 57.5625 48.34375 
Q 62.75 40.71875 60.15625 27.296875 
Q 57.515625 13.875 49.359375 6.25 
Q 41.453125 -1.21875 31.6875 -1.21875 
L 27.875 -20.796875 
L 18.953125 -20.796875 
L 22.75 -1.21875 
Q 13.03125 -1.21875 7.953125 6.25 
Q 2.78125 13.875 5.421875 27.296875 
Q 8.015625 40.71875 16.15625 48.34375 
Q 24.125 55.8125 33.84375 55.8125 
L 37.796875 75.984375 
z
M 33.25 6.78125 
Q 38.765625 6.78125 43.5 11.8125 
Q 48.6875 17.4375 50.6875 27.296875 
Q 52.640625 37.0625 49.515625 42.78125 
Q 46.734375 47.796875 41.21875 47.796875 
z
M 24.3125 6.78125 
L 32.28125 47.796875 
Q 26.8125 47.796875 22.078125 42.78125 
Q 16.75 37.0625 14.890625 27.296875 
Q 13.03125 17.4375 16.0625 11.8125 
Q 18.796875 6.78125 24.3125 6.78125 
z
" id="DejaVuSans-Oblique-981"/>
     <path d="M 10.6875 12.40625 
L 21 12.40625 
L 21 0 
L 10.6875 0 
z
" id="DejaVuSans-46"/>
     <path d="M 33.015625 40.375 
Q 26.375 40.375 22.484375 35.828125 
Q 18.609375 31.296875 18.609375 23.390625 
Q 18.609375 15.53125 22.484375 10.953125 
Q 26.375 6.390625 33.015625 6.390625 
Q 39.65625 6.390625 43.53125 10.953125 
Q 47.40625 15.53125 47.40625 23.390625 
Q 47.40625 31.296875 43.53125 35.828125 
Q 39.65625 40.375 33.015625 40.375 
z
M 52.59375 71.296875 
L 52.59375 62.3125 
Q 48.875 64.0625 45.09375 64.984375 
Q 41.3125 65.921875 37.59375 65.921875 
Q 27.828125 65.921875 22.671875 59.328125 
Q 17.53125 52.734375 16.796875 39.40625 
Q 19.671875 43.65625 24.015625 45.921875 
Q 28.375 48.1875 33.59375 48.1875 
Q 44.578125 48.1875 50.953125 41.515625 
Q 57.328125 34.859375 57.328125 23.390625 
Q 57.328125 12.15625 50.6875 5.359375 
Q 44.046875 -1.421875 33.015625 -1.421875 
Q 20.359375 -1.421875 13.671875 8.265625 
Q 6.984375 17.96875 6.984375 36.375 
Q 6.984375 53.65625 15.1875 63.9375 
Q 23.390625 74.21875 37.203125 74.21875 
Q 40.921875 74.21875 44.703125 73.484375 
Q 48.484375 72.75 52.59375 71.296875 
z
" id="DejaVuSans-54"/>
     <path d="M 10.796875 72.90625 
L 49.515625 72.90625 
L 49.515625 64.59375 
L 19.828125 64.59375 
L 19.828125 46.734375 
Q 21.96875 47.46875 24.109375 47.828125 
Q 26.265625 48.1875 28.421875 48.1875 
Q 40.625 48.1875 47.75 41.5 
Q 54.890625 34.8125 54.890625 23.390625 
Q 54.890625 11.625 47.5625 5.09375 
Q 40.234375 -1.421875 26.90625 -1.421875 
Q 22.3125 -1.421875 17.546875 -0.640625 
Q 12.796875 0.140625 7.71875 1.703125 
L 7.71875 11.625 
Q 12.109375 9.234375 16.796875 8.0625 
Q 21.484375 6.890625 26.703125 6.890625 
Q 35.15625 6.890625 40.078125 11.328125 
Q 45.015625 15.765625 45.015625 23.390625 
Q 45.015625 31 40.078125 35.4375 
Q 35.15625 39.890625 26.703125 39.890625 
Q 22.75 39.890625 18.8125 39.015625 
Q 14.890625 38.140625 10.796875 36.28125 
z
" id="DejaVuSans-53"/>
    </defs>
    <g transform="translate(409.2276 18.876)scale(0.24 -0.24)">
     <use transform="translate(0 0.015625)" xlink:href="#DejaVuSans-Oblique-78"/>
     <use transform="translate(94.287109 0.015625)" xlink:href="#DejaVuSans-61"/>
     <use transform="translate(197.558594 0.015625)" xlink:href="#DejaVuSans-50"/>
     <use transform="translate(261.181641 0.015625)" xlink:href="#DejaVuSans-48"/>
     <use transform="translate(324.804688 0.015625)" xlink:href="#DejaVuSans-44"/>
     <use transform="translate(376.074219 0.015625)" xlink:href="#DejaVuSans-Oblique-981"/>
     <use transform="translate(461.523438 0.015625)" xlink:href="#DejaVuSans-61"/>
     <use transform="translate(564.794922 0.015625)" xlink:href="#DejaVuSans-48"/>
     <use transform="translate(628.417969 0.015625)" xlink:href="#DejaVuSans-46"/>
     <use transform="translate(660.205078 0.015625)" xlink:href="#DejaVuSans-54"/>
     <use transform="translate(723.828125 0.015625)" xlink:href="#DejaVuSans-53"/>
    </g>
   </g>
   <g id="legend_1">
    <g id="patch_7">
     <path d="M 810.4392 434.3052 
L 907.1592 434.3052 
Q 909.5592 434.3052 909.5592 431.9052 
L 909.5592 395.4252 
Q 909.5592 393.0252 907.1592 393.0252 
L 810.4392 393.0252 
Q 808.0392 393.0252 808.0392 395.4252 
L 808.0392 431.9052 
Q 808.0392 434.3052 810.4392 434.3052 
z
" style="fill:#ffffff;opacity:0.8;stroke:#cccccc;stroke-linejoin:miter;"/>
    </g>
    <g id="line2d_48">
     <path d="M 812.8392 402.7452 
L 836.8392 402.7452 
" style="fill:none;stroke:#1f77b4;stroke-linecap:square;stroke-width:1.5;"/>
    </g>
    <g id="line2d_49"/>
    <g id="text_10">
     <!-- $l_p/\sigma = 20$ -->
     <g transform="translate(846.4392 406.9452)scale(0.12 -0.12)">
      <use transform="translate(0 0.015625)" xlink:href="#DejaVuSans-Oblique-108"/>
      <use transform="translate(27.783203 -16.390625)scale(0.7)" xlink:href="#DejaVuSans-Oblique-112"/>
      <use transform="translate(74.951172 0.015625)" xlink:href="#DejaVuSans-47"/>
      <use transform="translate(108.642578 0.015625)" xlink:href="#DejaVuSans-Oblique-963"/>
      <use transform="translate(191.503906 0.015625)" xlink:href="#DejaVuSans-61"/>
      <use transform="translate(294.775391 0.015625)" xlink:href="#DejaVuSans-50"/>
      <use transform="translate(358.398438 0.015625)" xlink:href="#DejaVuSans-48"/>
     </g>
    </g>
    <g id="line2d_50">
     <path d="M 812.8392 421.5852 
L 836.8392 421.5852 
" style="fill:none;stroke:#ff7f0e;stroke-linecap:square;stroke-width:1.5;"/>
    </g>
    <g id="line2d_51"/>
    <g id="text_11">
     <!-- $l_p/\sigma = 100$ -->
     <g transform="translate(846.4392 425.7852)scale(0.12 -0.12)">
      <use transform="translate(0 0.015625)" xlink:href="#DejaVuSans-Oblique-108"/>
      <use transform="translate(27.783203 -16.390625)scale(0.7)" xlink:href="#DejaVuSans-Oblique-112"/>
      <use transform="translate(74.951172 0.015625)" xlink:href="#DejaVuSans-47"/>
      <use transform="translate(108.642578 0.015625)" xlink:href="#DejaVuSans-Oblique-963"/>
      <use transform="translate(191.503906 0.015625)" xlink:href="#DejaVuSans-61"/>
      <use transform="translate(294.775391 0.015625)" xlink:href="#DejaVuSans-49"/>
      <use transform="translate(358.398438 0.015625)" xlink:href="#DejaVuSans-48"/>
      <use transform="translate(422.021484 0.015625)" xlink:href="#DejaVuSans-48"/>
     </g>
    </g>
   </g>
  </g>
 </g>
 <defs>
  <clipPath id="p8a03ab156a">
   <rect height="415.4292" width="823.5432" x="92.016" y="24.876"/>
  </clipPath>
 </defs>
</svg>
