<?xml version="1.0" encoding="utf-8" standalone="no"?>
<!DOCTYPE svg PUBLIC "-//W3C//DTD SVG 1.1//EN"
  "http://www.w3.org/Graphics/SVG/1.1/DTD/svg11.dtd">
<!-- Created with matplotlib (https://matplotlib.org/) -->
<svg height="497.52pt" version="1.1" viewBox="0 0 646.56 497.52" width="646.56pt" xmlns="http://www.w3.org/2000/svg" xmlns:xlink="http://www.w3.org/1999/xlink">
 <defs>
  <style type="text/css">
*{stroke-linecap:butt;stroke-linejoin:round;}
  </style>
 </defs>
 <g id="figure_1">
  <g id="patch_1">
   <path d="M 0 497.52 
L 646.56 497.52 
L 646.56 0 
L 0 0 
z
" style="fill:#ffffff;"/>
  </g>
  <g id="axes_1">
   <g id="patch_2">
    <path d="M 96.984 437.8176 
L 633.6288 437.8176 
L 633.6288 34.8264 
L 96.984 34.8264 
z
" style="fill:#ffffff;"/>
   </g>
   <g id="matplotlib.axis_1">
    <g id="xtick_1">
     <g id="line2d_1">
      <defs>
       <path d="M 0 0 
L 0 3.5 
" id="m60f1cafb43" style="stroke:#000000;stroke-width:0.8;"/>
      </defs>
      <g>
       <use style="stroke:#000000;stroke-width:0.8;" x="161.080867" xlink:href="#m60f1cafb43" y="437.8176"/>
      </g>
     </g>
     <g id="text_1">
      <!-- $\mathdefault{10^{-2}}$ -->
      <defs>
       <path d="M 12.40625 8.296875 
L 28.515625 8.296875 
L 28.515625 63.921875 
L 10.984375 60.40625 
L 10.984375 69.390625 
L 28.421875 72.90625 
L 38.28125 72.90625 
L 38.28125 8.296875 
L 54.390625 8.296875 
L 54.390625 0 
L 12.40625 0 
z
" id="DejaVuSans-49"/>
       <path d="M 31.78125 66.40625 
Q 24.171875 66.40625 20.328125 58.90625 
Q 16.5 51.421875 16.5 36.375 
Q 16.5 21.390625 20.328125 13.890625 
Q 24.171875 6.390625 31.78125 6.390625 
Q 39.453125 6.390625 43.28125 13.890625 
Q 47.125 21.390625 47.125 36.375 
Q 47.125 51.421875 43.28125 58.90625 
Q 39.453125 66.40625 31.78125 66.40625 
z
M 31.78125 74.21875 
Q 44.046875 74.21875 50.515625 64.515625 
Q 56.984375 54.828125 56.984375 36.375 
Q 56.984375 17.96875 50.515625 8.265625 
Q 44.046875 -1.421875 31.78125 -1.421875 
Q 19.53125 -1.421875 13.0625 8.265625 
Q 6.59375 17.96875 6.59375 36.375 
Q 6.59375 54.828125 13.0625 64.515625 
Q 19.53125 74.21875 31.78125 74.21875 
z
" id="DejaVuSans-48"/>
       <path d="M 10.59375 35.5 
L 73.1875 35.5 
L 73.1875 27.203125 
L 10.59375 27.203125 
z
" id="DejaVuSans-8722"/>
       <path d="M 19.1875 8.296875 
L 53.609375 8.296875 
L 53.609375 0 
L 7.328125 0 
L 7.328125 8.296875 
Q 12.9375 14.109375 22.625 23.890625 
Q 32.328125 33.6875 34.8125 36.53125 
Q 39.546875 41.84375 41.421875 45.53125 
Q 43.3125 49.21875 43.3125 52.78125 
Q 43.3125 58.59375 39.234375 62.25 
Q 35.15625 65.921875 28.609375 65.921875 
Q 23.96875 65.921875 18.8125 64.3125 
Q 13.671875 62.703125 7.8125 59.421875 
L 7.8125 69.390625 
Q 13.765625 71.78125 18.9375 73 
Q 24.125 74.21875 28.421875 74.21875 
Q 39.75 74.21875 46.484375 68.546875 
Q 53.21875 62.890625 53.21875 53.421875 
Q 53.21875 48.921875 51.53125 44.890625 
Q 49.859375 40.875 45.40625 35.40625 
Q 44.1875 33.984375 37.640625 27.21875 
Q 31.109375 20.453125 19.1875 8.296875 
z
" id="DejaVuSans-50"/>
      </defs>
      <g transform="translate(137.580867 460.014475)scale(0.2 -0.2)">
       <use transform="translate(0 0.765625)" xlink:href="#DejaVuSans-49"/>
       <use transform="translate(63.623047 0.765625)" xlink:href="#DejaVuSans-48"/>
       <use transform="translate(128.203125 39.046875)scale(0.7)" xlink:href="#DejaVuSans-8722"/>
       <use transform="translate(186.855469 39.046875)scale(0.7)" xlink:href="#DejaVuSans-50"/>
      </g>
     </g>
    </g>
    <g id="xtick_2">
     <g id="line2d_2">
      <g>
       <use style="stroke:#000000;stroke-width:0.8;" x="292.974439" xlink:href="#m60f1cafb43" y="437.8176"/>
      </g>
     </g>
     <g id="text_2">
      <!-- $\mathdefault{10^{-1}}$ -->
      <g transform="translate(269.474439 460.014475)scale(0.2 -0.2)">
       <use transform="translate(0 0.684375)" xlink:href="#DejaVuSans-49"/>
       <use transform="translate(63.623047 0.684375)" xlink:href="#DejaVuSans-48"/>
       <use transform="translate(128.203125 38.965625)scale(0.7)" xlink:href="#DejaVuSans-8722"/>
       <use transform="translate(186.855469 38.965625)scale(0.7)" xlink:href="#DejaVuSans-49"/>
      </g>
     </g>
    </g>
    <g id="xtick_3">
     <g id="line2d_3">
      <g>
       <use style="stroke:#000000;stroke-width:0.8;" x="424.868011" xlink:href="#m60f1cafb43" y="437.8176"/>
      </g>
     </g>
     <g id="text_3">
      <!-- $\mathdefault{10^{0}}$ -->
      <g transform="translate(407.268011 460.014475)scale(0.2 -0.2)">
       <use transform="translate(0 0.765625)" xlink:href="#DejaVuSans-49"/>
       <use transform="translate(63.623047 0.765625)" xlink:href="#DejaVuSans-48"/>
       <use transform="translate(128.203125 39.046875)scale(0.7)" xlink:href="#DejaVuSans-48"/>
      </g>
     </g>
    </g>
    <g id="xtick_4">
     <g id="line2d_4">
      <g>
       <use style="stroke:#000000;stroke-width:0.8;" x="556.761583" xlink:href="#m60f1cafb43" y="437.8176"/>
      </g>
     </g>
     <g id="text_4">
      <!-- $\mathdefault{10^{1}}$ -->
      <g transform="translate(539.161583 460.014475)scale(0.2 -0.2)">
       <use transform="translate(0 0.684375)" xlink:href="#DejaVuSans-49"/>
       <use transform="translate(63.623047 0.684375)" xlink:href="#DejaVuSans-48"/>
       <use transform="translate(128.203125 38.965625)scale(0.7)" xlink:href="#DejaVuSans-49"/>
      </g>
     </g>
    </g>
    <g id="xtick_5">
     <g id="line2d_5">
      <defs>
       <path d="M 0 0 
L 0 2 
" id="mb8fb1715f2" style="stroke:#000000;stroke-width:0.6;"/>
      </defs>
      <g>
       <use style="stroke:#000000;stroke-width:0.6;" x="108.595138" xlink:href="#mb8fb1715f2" y="437.8176"/>
      </g>
     </g>
    </g>
    <g id="xtick_6">
     <g id="line2d_6">
      <g>
       <use style="stroke:#000000;stroke-width:0.6;" x="121.376945" xlink:href="#mb8fb1715f2" y="437.8176"/>
      </g>
     </g>
    </g>
    <g id="xtick_7">
     <g id="line2d_7">
      <g>
       <use style="stroke:#000000;stroke-width:0.6;" x="131.820443" xlink:href="#mb8fb1715f2" y="437.8176"/>
      </g>
     </g>
    </g>
    <g id="xtick_8">
     <g id="line2d_8">
      <g>
       <use style="stroke:#000000;stroke-width:0.6;" x="140.650294" xlink:href="#mb8fb1715f2" y="437.8176"/>
      </g>
     </g>
    </g>
    <g id="xtick_9">
     <g id="line2d_9">
      <g>
       <use style="stroke:#000000;stroke-width:0.6;" x="148.299059" xlink:href="#mb8fb1715f2" y="437.8176"/>
      </g>
     </g>
    </g>
    <g id="xtick_10">
     <g id="line2d_10">
      <g>
       <use style="stroke:#000000;stroke-width:0.6;" x="155.045748" xlink:href="#mb8fb1715f2" y="437.8176"/>
      </g>
     </g>
    </g>
    <g id="xtick_11">
     <g id="line2d_11">
      <g>
       <use style="stroke:#000000;stroke-width:0.6;" x="200.784788" xlink:href="#mb8fb1715f2" y="437.8176"/>
      </g>
     </g>
    </g>
    <g id="xtick_12">
     <g id="line2d_12">
      <g>
       <use style="stroke:#000000;stroke-width:0.6;" x="224.010093" xlink:href="#mb8fb1715f2" y="437.8176"/>
      </g>
     </g>
    </g>
    <g id="xtick_13">
     <g id="line2d_13">
      <g>
       <use style="stroke:#000000;stroke-width:0.6;" x="240.48871" xlink:href="#mb8fb1715f2" y="437.8176"/>
      </g>
     </g>
    </g>
    <g id="xtick_14">
     <g id="line2d_14">
      <g>
       <use style="stroke:#000000;stroke-width:0.6;" x="253.270517" xlink:href="#mb8fb1715f2" y="437.8176"/>
      </g>
     </g>
    </g>
    <g id="xtick_15">
     <g id="line2d_15">
      <g>
       <use style="stroke:#000000;stroke-width:0.6;" x="263.714015" xlink:href="#mb8fb1715f2" y="437.8176"/>
      </g>
     </g>
    </g>
    <g id="xtick_16">
     <g id="line2d_16">
      <g>
       <use style="stroke:#000000;stroke-width:0.6;" x="272.543866" xlink:href="#mb8fb1715f2" y="437.8176"/>
      </g>
     </g>
    </g>
    <g id="xtick_17">
     <g id="line2d_17">
      <g>
       <use style="stroke:#000000;stroke-width:0.6;" x="280.192631" xlink:href="#mb8fb1715f2" y="437.8176"/>
      </g>
     </g>
    </g>
    <g id="xtick_18">
     <g id="line2d_18">
      <g>
       <use style="stroke:#000000;stroke-width:0.6;" x="286.93932" xlink:href="#mb8fb1715f2" y="437.8176"/>
      </g>
     </g>
    </g>
    <g id="xtick_19">
     <g id="line2d_19">
      <g>
       <use style="stroke:#000000;stroke-width:0.6;" x="332.67836" xlink:href="#mb8fb1715f2" y="437.8176"/>
      </g>
     </g>
    </g>
    <g id="xtick_20">
     <g id="line2d_20">
      <g>
       <use style="stroke:#000000;stroke-width:0.6;" x="355.903665" xlink:href="#mb8fb1715f2" y="437.8176"/>
      </g>
     </g>
    </g>
    <g id="xtick_21">
     <g id="line2d_21">
      <g>
       <use style="stroke:#000000;stroke-width:0.6;" x="372.382282" xlink:href="#mb8fb1715f2" y="437.8176"/>
      </g>
     </g>
    </g>
    <g id="xtick_22">
     <g id="line2d_22">
      <g>
       <use style="stroke:#000000;stroke-width:0.6;" x="385.164089" xlink:href="#mb8fb1715f2" y="437.8176"/>
      </g>
     </g>
    </g>
    <g id="xtick_23">
     <g id="line2d_23">
      <g>
       <use style="stroke:#000000;stroke-width:0.6;" x="395.607587" xlink:href="#mb8fb1715f2" y="437.8176"/>
      </g>
     </g>
    </g>
    <g id="xtick_24">
     <g id="line2d_24">
      <g>
       <use style="stroke:#000000;stroke-width:0.6;" x="404.437438" xlink:href="#mb8fb1715f2" y="437.8176"/>
      </g>
     </g>
    </g>
    <g id="xtick_25">
     <g id="line2d_25">
      <g>
       <use style="stroke:#000000;stroke-width:0.6;" x="412.086203" xlink:href="#mb8fb1715f2" y="437.8176"/>
      </g>
     </g>
    </g>
    <g id="xtick_26">
     <g id="line2d_26">
      <g>
       <use style="stroke:#000000;stroke-width:0.6;" x="418.832892" xlink:href="#mb8fb1715f2" y="437.8176"/>
      </g>
     </g>
    </g>
    <g id="xtick_27">
     <g id="line2d_27">
      <g>
       <use style="stroke:#000000;stroke-width:0.6;" x="464.571932" xlink:href="#mb8fb1715f2" y="437.8176"/>
      </g>
     </g>
    </g>
    <g id="xtick_28">
     <g id="line2d_28">
      <g>
       <use style="stroke:#000000;stroke-width:0.6;" x="487.797237" xlink:href="#mb8fb1715f2" y="437.8176"/>
      </g>
     </g>
    </g>
    <g id="xtick_29">
     <g id="line2d_29">
      <g>
       <use style="stroke:#000000;stroke-width:0.6;" x="504.275853" xlink:href="#mb8fb1715f2" y="437.8176"/>
      </g>
     </g>
    </g>
    <g id="xtick_30">
     <g id="line2d_30">
      <g>
       <use style="stroke:#000000;stroke-width:0.6;" x="517.057661" xlink:href="#mb8fb1715f2" y="437.8176"/>
      </g>
     </g>
    </g>
    <g id="xtick_31">
     <g id="line2d_31">
      <g>
       <use style="stroke:#000000;stroke-width:0.6;" x="527.501159" xlink:href="#mb8fb1715f2" y="437.8176"/>
      </g>
     </g>
    </g>
    <g id="xtick_32">
     <g id="line2d_32">
      <g>
       <use style="stroke:#000000;stroke-width:0.6;" x="536.33101" xlink:href="#mb8fb1715f2" y="437.8176"/>
      </g>
     </g>
    </g>
    <g id="xtick_33">
     <g id="line2d_33">
      <g>
       <use style="stroke:#000000;stroke-width:0.6;" x="543.979775" xlink:href="#mb8fb1715f2" y="437.8176"/>
      </g>
     </g>
    </g>
    <g id="xtick_34">
     <g id="line2d_34">
      <g>
       <use style="stroke:#000000;stroke-width:0.6;" x="550.726464" xlink:href="#mb8fb1715f2" y="437.8176"/>
      </g>
     </g>
    </g>
    <g id="xtick_35">
     <g id="line2d_35">
      <g>
       <use style="stroke:#000000;stroke-width:0.6;" x="596.465504" xlink:href="#mb8fb1715f2" y="437.8176"/>
      </g>
     </g>
    </g>
    <g id="xtick_36">
     <g id="line2d_36">
      <g>
       <use style="stroke:#000000;stroke-width:0.6;" x="619.690809" xlink:href="#mb8fb1715f2" y="437.8176"/>
      </g>
     </g>
    </g>
    <g id="text_5">
     <!-- $\tau/(l_p/\sigma)$ -->
     <defs>
      <path d="M 32.859375 9.96875 
Q 34.1875 7.625 39.453125 7.625 
L 43.75 7.625 
L 42.28125 0 
L 36.921875 0 
Q 28.125 0 25 4.6875 
Q 21.921875 9.46875 23.96875 19.828125 
L 29 45.703125 
L 8.453125 45.703125 
L 10.203125 54.6875 
L 60.640625 54.6875 
L 58.890625 45.703125 
L 38.1875 45.703125 
L 33.015625 19.28125 
Q 31.640625 12.203125 32.859375 9.96875 
z
" id="DejaVuSans-Oblique-964"/>
      <path d="M 25.390625 72.90625 
L 33.6875 72.90625 
L 8.296875 -9.28125 
L 0 -9.28125 
z
" id="DejaVuSans-47"/>
      <path d="M 31 75.875 
Q 24.46875 64.65625 21.28125 53.65625 
Q 18.109375 42.671875 18.109375 31.390625 
Q 18.109375 20.125 21.3125 9.0625 
Q 24.515625 -2 31 -13.1875 
L 23.1875 -13.1875 
Q 15.875 -1.703125 12.234375 9.375 
Q 8.59375 20.453125 8.59375 31.390625 
Q 8.59375 42.28125 12.203125 53.3125 
Q 15.828125 64.359375 23.1875 75.875 
z
" id="DejaVuSans-40"/>
      <path d="M 18.3125 75.984375 
L 27.296875 75.984375 
L 12.5 0 
L 3.515625 0 
z
" id="DejaVuSans-Oblique-108"/>
      <path d="M 49.609375 33.6875 
Q 49.609375 40.875 46.484375 44.671875 
Q 43.359375 48.484375 37.5 48.484375 
Q 33.5 48.484375 29.859375 46.4375 
Q 26.21875 44.390625 23.390625 40.484375 
Q 20.609375 36.625 18.9375 31.15625 
Q 17.28125 25.6875 17.28125 20.3125 
Q 17.28125 13.484375 20.40625 9.796875 
Q 23.53125 6.109375 29.296875 6.109375 
Q 33.546875 6.109375 37.1875 8.109375 
Q 40.828125 10.109375 43.40625 13.921875 
Q 46.1875 17.921875 47.890625 23.34375 
Q 49.609375 28.765625 49.609375 33.6875 
z
M 21.78125 46.390625 
Q 25.390625 51.125 30.296875 53.5625 
Q 35.203125 56 41.21875 56 
Q 49.609375 56 54.25 50.5 
Q 58.890625 45.015625 58.890625 35.109375 
Q 58.890625 27 56 19.65625 
Q 53.125 12.3125 47.703125 6.5 
Q 44.09375 2.640625 39.546875 0.609375 
Q 35.015625 -1.421875 29.984375 -1.421875 
Q 24.171875 -1.421875 20.21875 1 
Q 16.265625 3.421875 14.3125 8.203125 
L 8.6875 -20.796875 
L -0.296875 -20.796875 
L 14.40625 54.6875 
L 23.390625 54.6875 
z
" id="DejaVuSans-Oblique-112"/>
      <path d="M 34.671875 47.5625 
Q 27.25 47.5625 22.21875 42.1875 
Q 16.890625 36.578125 15.140625 27.296875 
Q 13.1875 17.484375 16.3125 11.8125 
Q 19.390625 6.203125 26.65625 6.203125 
Q 33.84375 6.203125 39.109375 11.859375 
Q 44.4375 17.53125 46.34375 27.296875 
Q 48.046875 36.234375 45.015625 42.1875 
Q 42.1875 47.5625 34.671875 47.5625 
z
M 36.078125 54.734375 
L 65.921875 54.6875 
L 64.15625 45.703125 
L 54.109375 45.703125 
Q 57.90625 38.09375 55.859375 27.296875 
Q 53.21875 13.875 45.0625 6.25 
Q 36.859375 -1.421875 25.140625 -1.421875 
Q 13.375 -1.421875 8.203125 6.25 
Q 3.03125 13.875 5.671875 27.296875 
Q 8.25 40.765625 16.40625 48.390625 
Q 23.1875 54.734375 36.078125 54.734375 
z
" id="DejaVuSans-Oblique-963"/>
      <path d="M 8.015625 75.875 
L 15.828125 75.875 
Q 23.140625 64.359375 26.78125 53.3125 
Q 30.421875 42.28125 30.421875 31.390625 
Q 30.421875 20.453125 26.78125 9.375 
Q 23.140625 -1.703125 15.828125 -13.1875 
L 8.015625 -13.1875 
Q 14.5 -2 17.703125 9.0625 
Q 20.90625 20.125 20.90625 31.390625 
Q 20.90625 42.671875 17.703125 53.65625 
Q 14.5 64.65625 8.015625 75.875 
z
" id="DejaVuSans-41"/>
     </defs>
     <g transform="translate(330.9064 483.37385)scale(0.2 -0.2)">
      <use transform="translate(0 0.015625)" xlink:href="#DejaVuSans-Oblique-964"/>
      <use transform="translate(60.205078 0.015625)" xlink:href="#DejaVuSans-47"/>
      <use transform="translate(93.896484 0.015625)" xlink:href="#DejaVuSans-40"/>
      <use transform="translate(132.910156 0.015625)" xlink:href="#DejaVuSans-Oblique-108"/>
      <use transform="translate(160.693359 -16.390625)scale(0.7)" xlink:href="#DejaVuSans-Oblique-112"/>
      <use transform="translate(207.861328 0.015625)" xlink:href="#DejaVuSans-47"/>
      <use transform="translate(241.552734 0.015625)" xlink:href="#DejaVuSans-Oblique-963"/>
      <use transform="translate(304.931641 0.015625)" xlink:href="#DejaVuSans-41"/>
     </g>
    </g>
   </g>
   <g id="matplotlib.axis_2">
    <g id="ytick_1">
     <g id="line2d_37">
      <defs>
       <path d="M 0 0 
L -3.5 0 
" id="mfe1fcc7e76" style="stroke:#000000;stroke-width:0.8;"/>
      </defs>
      <g>
       <use style="stroke:#000000;stroke-width:0.8;" x="96.984" xlink:href="#mfe1fcc7e76" y="145.789788"/>
      </g>
     </g>
     <g id="text_6">
      <!-- $\mathdefault{10^{-3}}$ -->
      <defs>
       <path d="M 40.578125 39.3125 
Q 47.65625 37.796875 51.625 33 
Q 55.609375 28.21875 55.609375 21.1875 
Q 55.609375 10.40625 48.1875 4.484375 
Q 40.765625 -1.421875 27.09375 -1.421875 
Q 22.515625 -1.421875 17.65625 -0.515625 
Q 12.796875 0.390625 7.625 2.203125 
L 7.625 11.71875 
Q 11.71875 9.328125 16.59375 8.109375 
Q 21.484375 6.890625 26.8125 6.890625 
Q 36.078125 6.890625 40.9375 10.546875 
Q 45.796875 14.203125 45.796875 21.1875 
Q 45.796875 27.640625 41.28125 31.265625 
Q 36.765625 34.90625 28.71875 34.90625 
L 20.21875 34.90625 
L 20.21875 43.015625 
L 29.109375 43.015625 
Q 36.375 43.015625 40.234375 45.921875 
Q 44.09375 48.828125 44.09375 54.296875 
Q 44.09375 59.90625 40.109375 62.90625 
Q 36.140625 65.921875 28.71875 65.921875 
Q 24.65625 65.921875 20.015625 65.03125 
Q 15.375 64.15625 9.8125 62.3125 
L 9.8125 71.09375 
Q 15.4375 72.65625 20.34375 73.4375 
Q 25.25 74.21875 29.59375 74.21875 
Q 40.828125 74.21875 47.359375 69.109375 
Q 53.90625 64.015625 53.90625 55.328125 
Q 53.90625 49.265625 50.4375 45.09375 
Q 46.96875 40.921875 40.578125 39.3125 
z
" id="DejaVuSans-51"/>
      </defs>
      <g transform="translate(42.984 153.388226)scale(0.2 -0.2)">
       <use transform="translate(0 0.765625)" xlink:href="#DejaVuSans-49"/>
       <use transform="translate(63.623047 0.765625)" xlink:href="#DejaVuSans-48"/>
       <use transform="translate(128.203125 39.046875)scale(0.7)" xlink:href="#DejaVuSans-8722"/>
       <use transform="translate(186.855469 39.046875)scale(0.7)" xlink:href="#DejaVuSans-51"/>
      </g>
     </g>
    </g>
    <g id="ytick_2">
     <g id="line2d_38">
      <defs>
       <path d="M 0 0 
L -2 0 
" id="mc7c15b5945" style="stroke:#000000;stroke-width:0.6;"/>
      </defs>
      <g>
       <use style="stroke:#000000;stroke-width:0.6;" x="96.984" xlink:href="#mc7c15b5945" y="354.906359"/>
      </g>
     </g>
    </g>
    <g id="ytick_3">
     <g id="line2d_39">
      <g>
       <use style="stroke:#000000;stroke-width:0.6;" x="96.984" xlink:href="#mc7c15b5945" y="302.223697"/>
      </g>
     </g>
    </g>
    <g id="ytick_4">
     <g id="line2d_40">
      <g>
       <use style="stroke:#000000;stroke-width:0.6;" x="96.984" xlink:href="#mc7c15b5945" y="264.844754"/>
      </g>
     </g>
    </g>
    <g id="ytick_5">
     <g id="line2d_41">
      <g>
       <use style="stroke:#000000;stroke-width:0.6;" x="96.984" xlink:href="#mc7c15b5945" y="235.851393"/>
      </g>
     </g>
    </g>
    <g id="ytick_6">
     <g id="line2d_42">
      <g>
       <use style="stroke:#000000;stroke-width:0.6;" x="96.984" xlink:href="#mc7c15b5945" y="212.162092"/>
      </g>
     </g>
    </g>
    <g id="ytick_7">
     <g id="line2d_43">
      <g>
       <use style="stroke:#000000;stroke-width:0.6;" x="96.984" xlink:href="#mc7c15b5945" y="192.133074"/>
      </g>
     </g>
    </g>
    <g id="ytick_8">
     <g id="line2d_44">
      <g>
       <use style="stroke:#000000;stroke-width:0.6;" x="96.984" xlink:href="#mc7c15b5945" y="174.783149"/>
      </g>
     </g>
    </g>
    <g id="ytick_9">
     <g id="line2d_45">
      <g>
       <use style="stroke:#000000;stroke-width:0.6;" x="96.984" xlink:href="#mc7c15b5945" y="159.479431"/>
      </g>
     </g>
    </g>
    <g id="ytick_10">
     <g id="line2d_46">
      <g>
       <use style="stroke:#000000;stroke-width:0.6;" x="96.984" xlink:href="#mc7c15b5945" y="55.728184"/>
      </g>
     </g>
    </g>
    <g id="text_7">
     <!-- $\frac{\tau}{l_p/\sigma}$ $Var(w(t_0, t_0 + \tau))_{t_0}$ -->
     <defs>
      <path id="DejaVuSans-32"/>
      <path d="M 20.609375 0 
L 7.8125 72.90625 
L 17.484375 72.90625 
L 28.078125 10.203125 
L 63.484375 72.90625 
L 74.21875 72.90625 
L 32.078125 0 
z
" id="DejaVuSans-Oblique-86"/>
      <path d="M 53.71875 31.203125 
L 47.609375 0 
L 38.625 0 
L 40.28125 8.296875 
Q 36.328125 3.421875 31.265625 1 
Q 26.21875 -1.421875 20.015625 -1.421875 
Q 13.03125 -1.421875 8.5625 2.84375 
Q 4.109375 7.125 4.109375 13.8125 
Q 4.109375 23.390625 11.75 28.953125 
Q 19.390625 34.515625 32.8125 34.515625 
L 45.3125 34.515625 
L 45.796875 36.921875 
Q 45.90625 37.3125 45.953125 37.765625 
Q 46 38.234375 46 39.203125 
Q 46 43.5625 42.453125 45.96875 
Q 38.921875 48.390625 32.515625 48.390625 
Q 28.125 48.390625 23.5 47.265625 
Q 18.890625 46.140625 14.015625 43.890625 
L 15.578125 52.203125 
Q 20.65625 54.109375 25.515625 55.046875 
Q 30.375 56 34.90625 56 
Q 44.578125 56 49.625 51.796875 
Q 54.6875 47.609375 54.6875 39.59375 
Q 54.6875 37.984375 54.4375 35.8125 
Q 54.203125 33.640625 53.71875 31.203125 
z
M 44 27.484375 
L 35.015625 27.484375 
Q 23.96875 27.484375 18.671875 24.53125 
Q 13.375 21.578125 13.375 15.375 
Q 13.375 11.078125 16.078125 8.640625 
Q 18.796875 6.203125 23.578125 6.203125 
Q 30.90625 6.203125 36.375 11.453125 
Q 41.84375 16.703125 43.609375 25.484375 
z
" id="DejaVuSans-Oblique-97"/>
      <path d="M 44.578125 46.390625 
Q 43.21875 47.125 41.453125 47.515625 
Q 39.703125 47.90625 37.703125 47.90625 
Q 30.515625 47.90625 25.140625 42.453125 
Q 19.78125 37.015625 18.015625 27.875 
L 12.5 0 
L 3.515625 0 
L 14.203125 54.6875 
L 23.1875 54.6875 
L 21.484375 46.1875 
Q 25.046875 50.921875 30 53.453125 
Q 34.96875 56 40.578125 56 
Q 42.046875 56 43.453125 55.828125 
Q 44.875 55.671875 46.296875 55.28125 
z
" id="DejaVuSans-Oblique-114"/>
      <path d="M 8.5 54.6875 
L 17.390625 54.6875 
L 19.671875 10.6875 
L 40.09375 54.6875 
L 50.484375 54.6875 
L 53.515625 10.6875 
L 72.90625 54.6875 
L 81.890625 54.6875 
L 56.890625 0 
L 46.390625 0 
L 43.703125 45.3125 
L 22.796875 0 
L 12.203125 0 
z
" id="DejaVuSans-Oblique-119"/>
      <path d="M 42.28125 54.6875 
L 40.921875 47.703125 
L 23 47.703125 
L 17.1875 18.015625 
Q 16.890625 16.359375 16.75 15.234375 
Q 16.609375 14.109375 16.609375 13.484375 
Q 16.609375 10.359375 18.484375 8.9375 
Q 20.359375 7.515625 24.515625 7.515625 
L 33.59375 7.515625 
L 32.078125 0 
L 23.484375 0 
Q 15.484375 0 11.546875 3.125 
Q 7.625 6.25 7.625 12.59375 
Q 7.625 13.71875 7.765625 15.0625 
Q 7.90625 16.40625 8.203125 18.015625 
L 14.015625 47.703125 
L 6.390625 47.703125 
L 7.8125 54.6875 
L 15.28125 54.6875 
L 18.3125 70.21875 
L 27.296875 70.21875 
L 24.3125 54.6875 
z
" id="DejaVuSans-Oblique-116"/>
      <path d="M 11.71875 12.40625 
L 22.015625 12.40625 
L 22.015625 4 
L 14.015625 -11.625 
L 7.71875 -11.625 
L 11.71875 4 
z
" id="DejaVuSans-44"/>
      <path d="M 46 62.703125 
L 46 35.5 
L 73.1875 35.5 
L 73.1875 27.203125 
L 46 27.203125 
L 46 0 
L 37.796875 0 
L 37.796875 27.203125 
L 10.59375 27.203125 
L 10.59375 35.5 
L 37.796875 35.5 
L 37.796875 62.703125 
z
" id="DejaVuSans-43"/>
     </defs>
     <g transform="translate(26.384 340.822)rotate(-90)scale(0.2 -0.2)">
      <use transform="translate(39 44.71875)scale(0.7)" xlink:href="#DejaVuSans-Oblique-964"/>
      <use transform="translate(0 -39.720313)scale(0.7)" xlink:href="#DejaVuSans-Oblique-108"/>
      <use transform="translate(19.448242 -51.204688)scale(0.49)" xlink:href="#DejaVuSans-Oblique-112"/>
      <use transform="translate(52.46582 -39.720313)scale(0.7)" xlink:href="#DejaVuSans-47"/>
      <use transform="translate(76.049805 -39.720313)scale(0.7)" xlink:href="#DejaVuSans-Oblique-963"/>
      <use transform="translate(132.915039 0.921875)" xlink:href="#DejaVuSans-32"/>
      <use transform="translate(164.702148 0.921875)" xlink:href="#DejaVuSans-Oblique-86"/>
      <use transform="translate(233.110352 0.921875)" xlink:href="#DejaVuSans-Oblique-97"/>
      <use transform="translate(294.389648 0.921875)" xlink:href="#DejaVuSans-Oblique-114"/>
      <use transform="translate(335.50293 0.921875)" xlink:href="#DejaVuSans-40"/>
      <use transform="translate(374.516602 0.921875)" xlink:href="#DejaVuSans-Oblique-119"/>
      <use transform="translate(456.303711 0.921875)" xlink:href="#DejaVuSans-40"/>
      <use transform="translate(495.317383 0.921875)" xlink:href="#DejaVuSans-Oblique-116"/>
      <use transform="translate(534.526367 -15.484375)scale(0.7)" xlink:href="#DejaVuSans-48"/>
      <use transform="translate(581.796875 0.921875)" xlink:href="#DejaVuSans-44"/>
      <use transform="translate(633.066406 0.921875)" xlink:href="#DejaVuSans-Oblique-116"/>
      <use transform="translate(672.275391 -15.484375)scale(0.7)" xlink:href="#DejaVuSans-48"/>
      <use transform="translate(739.02832 0.921875)" xlink:href="#DejaVuSans-43"/>
      <use transform="translate(842.299805 0.921875)" xlink:href="#DejaVuSans-Oblique-964"/>
      <use transform="translate(902.504883 0.921875)" xlink:href="#DejaVuSans-41"/>
      <use transform="translate(941.518555 0.921875)" xlink:href="#DejaVuSans-41"/>
      <use transform="translate(981.489258 -15.484375)scale(0.7)" xlink:href="#DejaVuSans-Oblique-116"/>
      <use transform="translate(1008.935547 -26.96875)scale(0.49)" xlink:href="#DejaVuSans-48"/>
      <path d="M 0 19.71875 
L 0 25.96875 
L 120.415039 25.96875 
L 120.415039 19.71875 
L 0 19.71875 
z
"/>
     </g>
    </g>
   </g>
   <g id="line2d_47">
    <path clip-path="url(#p27fb007fa6)" d="M 121.376945 419.499818 
L 161.080867 371.044978 
L 184.306172 337.041785 
L 200.784788 312.175776 
L 213.566596 293.139474 
L 224.010093 276.896532 
L 240.48871 253.182268 
L 247.235399 243.88161 
L 253.270517 235.894192 
L 258.729946 227.95189 
L 263.714015 221.909225 
L 268.298913 214.402303 
L 272.543866 210.010884 
L 276.495823 205.193124 
L 280.192631 199.785635 
L 283.665249 194.400149 
L 286.93932 191.551222 
L 290.036326 187.364159 
L 292.974439 185.33402 
L 295.769171 181.933188 
L 298.433868 179.046241 
L 300.980094 175.932566 
L 303.417936 172.547085 
L 305.756247 169.607234 
L 308.002835 168.399116 
L 310.164625 164.603676 
L 312.247787 164.912464 
L 314.257841 161.536996 
L 316.199744 161.245926 
L 318.077966 157.153515 
L 319.896552 156.443468 
L 321.659173 156.89161 
L 323.36917 152.020335 
L 325.029595 153.238493 
L 326.643241 150.738749 
L 328.212672 149.309705 
L 329.740247 149.117401 
L 331.22814 146.204866 
L 332.67836 144.885658 
L 334.092769 146.549699 
L 335.473093 143.353119 
L 336.820935 144.829526 
L 338.137789 143.241808 
L 339.425049 142.718857 
L 340.684015 140.174322 
L 343.121858 137.742071 
L 344.302944 140.750891 
L 345.460168 133.467377 
L 346.594475 134.930341 
L 347.706756 134.382872 
L 348.797849 135.859013 
L 350.919597 135.152115 
L 351.951709 136.063637 
L 352.965552 134.727635 
L 353.961762 129.543397 
L 354.940943 130.20365 
L 355.903665 131.610388 
L 356.850474 130.219104 
L 357.781888 127.983227 
L 358.698398 129.580601 
L 359.600474 126.671668 
L 360.488564 125.824329 
L 361.363094 132.032669 
L 362.224474 127.230199 
L 363.073092 127.719634 
L 363.90932 128.983987 
L 364.733517 128.10632 
L 365.546022 122.263894 
L 366.347163 125.964824 
L 367.137253 121.914864 
L 367.916594 125.826002 
L 368.685473 121.652848 
L 369.444168 122.840523 
L 370.192946 122.562625 
L 370.932061 122.082653 
L 371.661761 120.584899 
L 372.382282 121.617499 
L 373.093852 120.902627 
L 373.79669 122.717916 
L 374.49101 122.094929 
L 375.177014 119.441957 
L 375.854899 117.888721 
L 376.524856 118.434871 
L 377.187068 117.411063 
L 377.841711 120.891873 
L 378.488957 117.395543 
L 379.12897 118.982204 
L 379.761912 116.732929 
L 380.387937 113.75707 
L 381.007193 114.044864 
L 381.619826 114.867219 
L 382.225976 115.225669 
L 382.825779 114.276968 
L 384.006865 114.738254 
L 384.5884 113.518426 
L 385.164089 116.3491 
L 385.734051 118.124389 
L 386.298397 115.405083 
L 386.857237 114.709073 
L 387.410677 114.636411 
L 387.958822 118.190786 
L 388.50177 112.745721 
L 389.039621 113.216009 
L 389.572468 114.459362 
L 390.100404 113.399863 
L 390.623518 109.416348 
L 391.141899 110.759561 
L 391.65563 110.261097 
L 392.164795 112.753207 
L 392.669473 113.187383 
L 393.169744 109.472202 
L 393.665684 116.311073 
L 394.157366 112.090475 
L 394.644864 112.339312 
L 395.128248 111.266204 
L 395.607587 106.009341 
L 396.082948 107.701914 
L 396.554396 107.340344 
L 397.021996 106.486713 
L 397.485809 107.476419 
L 397.945897 105.705673 
L 398.402319 109.041132 
L 398.855133 105.780247 
L 399.304395 108.330058 
L 399.750161 105.011443 
L 400.192485 107.837232 
L 400.631419 106.748112 
L 401.067016 107.593267 
L 401.499325 104.395802 
L 401.928395 110.758827 
L 402.354276 102.851404 
L 402.777013 107.904507 
L 403.196653 106.618401 
L 403.613242 112.718158 
L 404.026822 107.576904 
L 404.437438 105.948768 
L 404.845131 102.173773 
L 405.249943 101.924047 
L 405.651914 104.032747 
L 406.051084 109.997798 
L 406.447492 109.226026 
L 406.841175 101.5714 
L 407.23217 99.502791 
L 407.620515 102.440999 
L 408.006245 104.422858 
L 408.389394 100.256224 
L 408.769998 104.580214 
L 409.14809 97.725467 
L 409.523702 101.359659 
L 409.896867 102.110404 
L 410.267617 103.588188 
L 410.635982 104.146318 
L 411.001994 95.631436 
L 411.365682 100.396787 
L 411.727075 103.001089 
L 412.086203 103.218013 
L 412.443093 103.14243 
L 412.797773 101.360503 
L 413.15027 96.542279 
L 413.500612 101.861299 
L 413.848824 101.320076 
L 414.194931 93.310808 
L 414.53896 100.828562 
L 414.880935 105.179499 
L 415.220881 98.060191 
L 415.558821 100.559146 
L 415.894779 94.21022 
L 416.228777 99.8223 
L 416.56084 96.028193 
L 416.890989 104.174789 
L 417.219246 102.673329 
L 417.545632 96.854369 
L 417.870169 102.145007 
L 418.192878 96.731505 
L 418.513779 102.064107 
L 419.150237 98.347606 
L 419.465834 99.734259 
L 419.779701 96.497771 
L 420.091858 94.901737 
L 420.402323 103.232257 
L 421.01825 94.649612 
L 421.323747 92.346543 
L 421.627624 99.293084 
L 421.929897 100.862819 
L 422.230584 95.73937 
L 422.5297 95.82391 
L 422.827263 95.34706 
L 423.123288 97.646389 
L 423.41779 89.730286 
L 423.710787 95.417336 
L 424.002292 93.893113 
L 424.292321 96.395204 
L 424.580889 91.825135 
L 424.868011 95.676899 
L 425.1537 97.704649 
L 425.437972 97.531798 
L 425.72084 92.456669 
L 426.002318 94.977077 
L 426.28242 99.332342 
L 426.561158 95.94376 
L 426.838547 98.788341 
L 427.114599 98.830649 
L 427.389327 98.531288 
L 427.662743 94.716839 
L 427.934861 88.894155 
L 428.205692 95.804697 
L 428.475248 97.896103 
L 428.743542 90.805155 
L 429.010585 96.228411 
L 429.276389 97.080799 
L 429.540965 100.715739 
L 429.804325 93.212691 
L 430.06648 89.228604 
L 430.32744 98.888168 
L 430.587216 98.003026 
L 430.84582 92.522335 
L 431.103262 93.134141 
L 431.359552 91.576174 
L 431.6147 95.232698 
L 431.868716 103.77765 
L 432.121611 90.866213 
L 432.373395 90.844601 
L 432.624076 95.053632 
L 432.873666 92.411838 
L 433.122172 95.457694 
L 433.369605 96.541142 
L 433.615974 88.410377 
L 433.861288 94.441809 
L 434.105555 93.140158 
L 434.348785 88.773124 
L 434.590987 90.033557 
L 434.832169 98.539925 
L 435.07234 92.112874 
L 435.311508 91.184787 
L 435.549682 96.512168 
L 435.786869 93.850494 
L 436.023078 89.924577 
L 436.258317 90.260912 
L 436.492594 93.007327 
L 436.725917 100.41017 
L 436.958293 87.569088 
L 437.18973 99.403517 
L 437.420236 90.238888 
L 437.649818 97.65547 
L 437.878484 95.421248 
L 438.10624 97.308885 
L 438.333095 90.419292 
L 438.559054 94.06852 
L 438.784126 89.733623 
L 439.008317 92.359759 
L 439.231633 92.373429 
L 439.454083 90.399383 
L 439.675671 84.131606 
L 439.896406 94.580674 
L 440.116294 88.22925 
L 440.335341 97.354295 
L 440.553553 86.210142 
L 440.770937 87.928845 
L 440.987499 85.453116 
L 441.203246 93.959822 
L 441.418183 90.110617 
L 441.632317 98.091356 
L 441.845653 89.39386 
L 442.058197 94.36285 
L 442.269956 89.672144 
L 442.480934 88.159786 
L 442.691139 81.58651 
L 442.900575 93.772008 
L 443.109248 87.081123 
L 443.524327 97.95121 
L 443.730744 94.943785 
L 443.936419 102.861319 
L 444.141359 98.453834 
L 444.345569 84.533013 
L 444.549052 91.135916 
L 444.751816 90.489647 
L 444.953864 96.54268 
L 445.155203 97.988775 
L 445.355836 86.536475 
L 445.555768 91.060477 
L 445.755005 90.134382 
L 445.953552 94.989339 
L 446.151413 92.486181 
L 446.348593 96.467275 
L 446.545096 94.128663 
L 446.740927 87.646673 
L 446.936092 88.057487 
L 447.130593 95.036551 
L 447.324437 92.45743 
L 447.517626 96.551237 
L 447.710166 96.155058 
L 447.902061 100.511983 
L 448.093316 82.603208 
L 448.283934 87.342993 
L 448.47392 85.360483 
L 448.663277 99.74781 
L 448.852011 89.922905 
L 449.040125 98.752182 
L 449.227623 90.559694 
L 449.41451 91.487555 
L 449.600788 83.907601 
L 450.156017 98.632176 
L 450.339904 87.651323 
L 450.523202 89.394376 
L 450.705916 89.996803 
L 450.888048 83.468337 
L 451.069604 93.375256 
L 451.430997 87.428688 
L 451.790124 97.921077 
L 451.968847 89.558082 
L 452.147014 91.590622 
L 452.324629 97.452787 
L 452.501694 97.53608 
L 452.678214 85.071261 
L 453.02963 95.512549 
L 453.204533 99.402766 
L 453.378904 85.644865 
L 453.552745 85.788637 
L 453.72606 93.862677 
L 453.898853 90.156902 
L 454.071125 94.02918 
L 454.242882 87.736707 
L 454.414124 91.601653 
L 454.584857 90.628615 
L 454.755082 96.217623 
L 454.924802 84.959334 
L 455.094021 94.689496 
L 455.262742 94.96534 
L 455.430967 78.319362 
L 455.5987 89.186164 
L 455.932699 94.02072 
L 456.098971 82.281893 
L 456.264762 83.005575 
L 456.430074 100.588629 
L 456.59491 89.666246 
L 456.759274 89.930024 
L 456.923167 86.662047 
L 457.086593 96.090331 
L 457.249553 96.297586 
L 457.412052 96.803218 
L 457.574091 99.667036 
L 457.896799 96.86185 
L 458.057474 97.081031 
L 458.2177 98.625639 
L 458.536813 90.53433 
L 458.695706 90.578731 
L 458.854158 84.255035 
L 459.012174 95.041138 
L 459.169755 83.81731 
L 459.326904 90.053255 
L 459.483622 90.191313 
L 459.639913 102.516901 
L 459.795779 79.146042 
L 459.951222 79.149142 
L 460.106244 93.156356 
L 460.260848 95.232479 
L 460.415036 105.05687 
L 460.568809 104.712046 
L 460.722171 95.97182 
L 460.875124 101.543714 
L 461.027669 94.254953 
L 461.179809 94.327313 
L 461.331546 93.240831 
L 461.482882 86.883629 
L 461.633819 87.17286 
L 461.784359 81.068891 
L 461.934505 97.526154 
L 462.084259 97.211523 
L 462.382596 77.01957 
L 462.531184 77.558256 
L 462.679388 85.357182 
L 462.827209 81.058682 
L 462.97465 81.134525 
L 463.121712 93.286243 
L 463.268397 87.887009 
L 463.414708 87.870664 
L 463.560646 96.022861 
L 463.706213 90.682334 
L 463.851411 90.902812 
L 463.996242 97.450172 
L 464.140708 80.505079 
L 464.28481 80.600307 
L 464.428551 101.106201 
L 464.571932 91.075527 
L 464.714955 91.045874 
L 464.857622 86.657828 
L 464.999934 86.754097 
L 465.283502 90.982579 
L 465.424762 91.697526 
L 465.565673 84.252692 
L 465.706239 84.494592 
L 465.846461 106.491972 
L 465.986341 92.224715 
L 466.12588 92.421815 
L 466.26508 94.194112 
L 466.403942 94.509154 
L 466.542468 83.585428 
L 466.68066 99.106648 
L 466.81852 99.377322 
L 466.956049 94.208258 
L 467.093248 93.933202 
L 467.230119 89.640067 
L 467.366664 90.066084 
L 467.502885 87.665477 
L 467.638782 82.404026 
L 467.774358 82.357678 
L 467.909613 95.120028 
L 468.04455 94.95787 
L 468.17917 83.502205 
L 468.313474 83.589893 
L 468.447464 87.033772 
L 468.581141 86.86479 
L 468.714507 93.84293 
L 468.847563 94.107182 
L 468.980311 87.026745 
L 469.112751 95.491649 
L 469.244887 95.803174 
L 469.508247 97.828501 
L 469.639474 92.926092 
L 469.770401 92.624609 
L 469.90103 97.690631 
L 470.031361 97.742341 
L 470.161397 103.096524 
L 470.291138 103.362176 
L 470.420586 78.542193 
L 470.549742 78.961749 
L 470.678607 88.408589 
L 471.063473 89.731648 
L 471.191189 80.03538 
L 471.318621 80.195727 
L 471.44577 98.741095 
L 471.572638 98.78912 
L 471.699225 100.574541 
L 471.825533 100.297537 
L 471.951563 85.018237 
L 472.077316 84.96619 
L 472.202794 99.43115 
L 472.327998 99.590178 
L 472.452928 101.292167 
L 472.577587 101.240783 
L 472.701975 82.874836 
L 472.826094 83.013233 
L 472.949944 88.841591 
L 473.073527 88.54229 
L 473.196843 88.72089 
L 473.319895 87.628616 
L 473.442683 87.716057 
L 473.565209 86.314336 
L 473.687473 86.292373 
L 473.809477 96.686445 
L 473.931221 96.580634 
L 474.052707 92.262495 
L 474.173936 92.3906 
L 474.294909 90.128819 
L 474.536091 90.259798 
L 474.656302 94.151401 
L 474.776261 94.034162 
L 474.89597 89.257974 
L 475.015429 89.117142 
L 475.13464 89.972279 
L 475.253603 89.593523 
L 475.372319 89.648327 
L 475.609017 88.972557 
L 475.727 80.312183 
L 475.84474 80.250264 
L 475.962239 101.312203 
L 476.196516 102.121991 
L 476.313296 89.258795 
L 476.429838 89.048157 
L 476.546144 81.355585 
L 476.77805 81.54602 
L 477.009021 82.467558 
L 477.124158 103.097107 
L 477.239064 103.176985 
L 477.468187 95.515113 
L 477.582405 95.456264 
L 477.696397 105.035619 
L 477.923701 104.786749 
L 478.037016 93.372525 
L 478.150107 93.394156 
L 478.375622 92.49785 
L 478.488047 92.72623 
L 478.600252 87.742096 
L 478.712238 87.912933 
L 478.824005 97.571604 
L 478.935555 97.40935 
L 479.046887 97.477384 
L 479.268906 85.688414 
L 479.379593 85.514908 
L 479.490067 96.141398 
L 479.600328 96.139591 
L 479.710377 101.767479 
L 480.039262 99.284076 
L 480.148472 99.575183 
L 480.257474 99.926065 
L 480.474859 86.188691 
L 480.583242 85.975436 
L 480.691421 94.901845 
L 480.799396 94.75402 
L 480.907167 87.818825 
L 481.014737 87.87932 
L 481.122104 88.17339 
L 481.229271 102.54299 
L 481.336238 102.471084 
L 481.443005 102.556088 
L 481.549574 97.615653 
L 481.762118 98.004197 
L 481.973877 89.935829 
L 482.079464 90.175206 
L 482.290054 94.137469 
L 482.39506 94.406178 
L 482.604496 97.214076 
L 482.708928 97.645237 
L 482.917221 89.125672 
L 483.021084 89.216161 
L 483.228248 92.577002 
L 483.331549 92.660754 
L 483.537595 98.918111 
L 483.640341 99.042741 
L 483.742902 93.141264 
L 483.845281 93.397811 
L 483.947476 93.371453 
L 484.151322 90.263544 
L 484.354445 89.174868 
L 484.657786 90.166329 
L 484.758543 86.788639 
L 484.859124 86.891356 
L 484.959528 87.247092 
L 485.059757 93.598972 
L 485.159811 93.352049 
L 485.25969 93.396519 
L 485.458927 92.049464 
L 485.558286 92.383517 
L 485.657474 92.322592 
L 485.756489 92.736166 
L 485.954009 92.372202 
L 486.052514 98.061804 
L 486.15085 97.876817 
L 486.249017 97.672236 
L 486.347017 74.81162 
L 486.444849 75.108628 
L 486.640013 75.746363 
L 486.737346 101.227475 
L 486.834515 101.061142 
L 486.931518 100.982386 
L 487.125034 89.356197 
L 487.221547 89.338714 
L 487.317898 89.51357 
L 487.510116 79.464246 
L 487.605983 79.606386 
L 487.797237 87.689432 
L 487.987855 88.348467 
L 488.082927 86.829103 
L 488.177841 87.053345 
L 488.367199 87.545609 
L 488.555932 97.655694 
L 488.650067 97.85659 
L 488.837872 90.347809 
L 488.931545 90.106041 
L 489.025064 90.181231 
L 489.118431 107.434326 
L 489.211646 107.253781 
L 489.397622 107.316246 
L 489.582997 91.873349 
L 489.767773 92.210843 
L 489.951956 98.707881 
L 490.043825 98.875829 
L 490.227123 99.827418 
L 490.409837 99.810599 
L 490.500976 98.496753 
L 490.59197 98.727255 
L 490.773525 98.511721 
L 490.954507 94.345366 
L 491.134918 93.827349 
L 491.404475 96.045148 
L 491.494046 95.958289 
L 491.583477 96.410995 
L 491.672769 86.13626 
L 491.761921 86.512105 
L 491.939812 86.89818 
L 492.117151 99.331608 
L 492.205616 99.058995 
L 492.293944 99.519461 
L 492.470192 86.884842 
L 492.558113 86.935311 
L 492.6459 87.179282 
L 492.82107 102.746255 
L 492.995706 103.719336 
L 493.082825 88.174396 
L 493.169812 88.230984 
L 493.256666 88.510713 
L 493.34339 88.402922 
L 493.429982 88.530461 
L 493.516443 83.962444 
L 493.602774 84.324395 
L 493.775047 85.173763 
L 493.946803 88.258018 
L 494.118046 88.905028 
L 494.203476 88.728322 
L 494.373954 83.950845 
L 494.459003 84.07387 
L 494.543926 83.961414 
L 494.628724 79.097665 
L 494.713396 79.336094 
L 494.966664 78.917227 
L 495.050838 83.433563 
L 495.134889 83.42916 
L 495.302621 83.976142 
L 495.386304 99.494635 
L 495.469864 99.203821 
L 495.553303 98.909438 
L 495.63662 99.001496 
L 495.719817 98.971718 
L 495.802892 100.016365 
L 495.885848 99.81712 
L 495.968683 99.795694 
L 496.133995 100.163515 
L 496.298832 101.767212 
L 496.5452 102.904695 
L 496.627088 102.12208 
L 496.953475 103.932903 
L 497.115973 85.03155 
L 497.278012 84.537839 
L 497.35886 84.167472 
L 497.520214 102.24003 
L 497.761396 102.825179 
L 497.921622 95.755724 
L 498.0814 96.223762 
L 498.161123 96.135266 
L 498.240735 95.234406 
L 498.478908 96.710022 
L 498.55808 96.908407 
L 498.637142 90.589275 
L 498.716095 90.613074 
L 498.952305 89.88829 
L 499.109238 107.078218 
L 499.421821 109.172274 
L 499.577475 82.038627 
L 499.655144 81.943067 
L 499.732707 82.211274 
L 499.810166 82.018621 
L 499.88752 99.279128 
L 499.964769 98.770305 
L 500.195895 98.367228 
L 500.272731 98.348721 
L 500.349463 123.068363 
L 500.426093 123.055399 
L 500.50262 123.029796 
L 500.579045 122.657581 
L 500.655368 122.830236 
L 500.73159 80.508841 
L 500.807711 80.847866 
L 500.959649 81.28956 
L 501.111185 81.930378 
L 501.186803 94.757899 
L 501.262321 94.438698 
L 501.41306 94.488783 
L 501.488281 94.208735 
L 501.563403 94.355569 
L 501.638427 81.516643 
L 501.713352 81.879378 
L 501.86291 82.43785 
L 501.937543 82.387864 
L 502.012079 82.515204 
L 502.16086 90.400495 
L 502.309255 89.903725 
L 502.457267 90.231816 
L 502.53113 89.957066 
L 502.604898 90.080259 
L 502.752149 90.102085 
L 502.899023 90.111891 
L 502.972318 99.294323 
L 503.045521 99.145218 
L 503.191645 99.639347 
L 503.264567 99.564838 
L 503.337397 99.736867 
L 503.410134 97.493929 
L 503.48278 97.785018 
L 503.555333 97.7209 
L 503.772442 98.079478 
L 503.916726 102.83092 
L 504.132473 103.458675 
L 504.204208 103.875581 
L 504.275853 94.041007 
L 504.34741 94.516767 
L 505.058097 97.484283 
L 505.199182 98.084578 
L 505.339921 105.741731 
L 505.620365 106.723258 
L 505.690262 85.758539 
L 505.760074 85.79372 
L 505.829801 85.741874 
L 506.038474 86.505477 
L 506.107863 86.858275 
L 506.177168 119.679899 
L 506.24639 119.627881 
L 506.384582 119.392505 
L 506.591247 119.707826 
L 506.728611 97.783674 
L 506.797169 98.051836 
L 506.865646 97.946656 
L 507.002354 98.500575 
L 507.070586 98.734987 
L 507.206806 95.47496 
L 507.274795 95.340649 
L 507.545947 96.050371 
L 507.681043 85.917228 
L 507.883091 85.290486 
L 507.950282 85.457851 
L 508.017395 85.515743 
L 508.151385 95.485409 
L 508.484995 94.960345 
L 508.551484 95.270264 
L 508.617897 93.066457 
L 508.684232 93.209281 
L 508.750491 92.985666 
L 509.014762 93.984819 
L 509.146441 98.89585 
L 509.212168 98.866943 
L 509.277819 98.983645 
L 509.539674 100.088327 
L 509.670154 104.557131 
L 509.930225 103.876307 
L 509.995059 103.92387 
L 510.05982 102.937578 
L 510.124507 103.207504 
L 510.511105 105.124779 
L 510.575285 80.265459 
L 510.639393 80.393866 
L 510.958862 81.456013 
L 511.022542 81.496999 
L 511.149692 103.26051 
L 511.21316 103.277611 
L 511.592504 105.488973 
L 511.718395 109.001386 
L 511.906716 110.624913 
L 512.031919 110.536307 
L 512.281508 110.775341 
L 512.405896 110.497615 
L 512.591973 111.01618 
L 512.653865 115.05244 
L 512.71569 114.895357 
L 513.023817 113.793304 
L 513.085244 113.765128 
L 513.146605 113.43018 
L 513.26913 93.421368 
L 513.513398 94.477336 
L 513.695917 95.699208 
L 513.817275 106.600464 
L 513.877857 106.255891 
L 513.938376 106.378541 
L 514.059221 106.94805 
L 514.179812 106.86076 
L 514.240012 106.789206 
L 514.360223 109.03039 
L 514.778987 108.172473 
L 514.838561 106.713027 
L 514.898074 106.803976 
L 515.135507 106.533946 
L 515.312938 105.935313 
L 515.37196 105.83033 
L 515.548661 106.307885 
L 515.607441 106.292291 
L 515.900437 109.399694 
L 515.958857 105.837041 
L 516.017217 106.04144 
L 516.191942 106.920289 
L 516.481971 105.972996 
L 516.539802 118.162449 
L 516.597573 117.764314 
L 516.885561 116.643591 
L 517.000352 117.535147 
L 517.172108 122.446407 
L 517.229246 122.815267 
L 517.286327 122.616148 
L 517.343351 122.654847 
L 517.570881 121.901282 
L 517.627623 121.784569 
L 517.684308 109.22795 
L 517.740938 109.458439 
L 518.079543 111.531761 
L 518.191969 111.900873 
L 518.304174 101.212785 
L 518.527927 101.001677 
L 518.695169 101.496603 
L 518.750809 101.588664 
L 518.861925 113.325512 
L 519.083514 112.668276 
L 519.138778 112.82049 
L 519.193988 112.820478 
L 519.3593 113.660004 
L 519.469244 96.609736 
L 519.633765 97.874751 
L 519.6885 97.722582 
L 519.852394 98.717244 
L 520.124511 100.531993 
L 520.17878 100.442913 
L 520.232997 100.731002 
L 520.287163 100.655263 
L 520.341278 100.46561 
L 520.395342 100.50121 
L 520.557228 101.330749 
L 520.664899 115.050484 
L 520.718658 114.897222 
L 521.093568 114.060604 
L 521.146927 114.281892 
L 521.200236 114.18015 
L 521.359866 90.359248 
L 521.519053 89.933425 
L 521.624932 90.239055 
L 521.783385 91.444823 
L 521.941401 120.133833 
L 521.993976 119.99202 
L 522.046503 120.110079 
L 522.098982 120.038707 
L 522.151412 120.077577 
L 522.25613 120.505189 
L 522.308417 120.442097 
L 522.412849 120.439208 
L 522.464993 78.716782 
L 522.56914 79.146016 
L 522.725006 79.758406 
L 522.776867 79.717331 
L 523.087052 81.394272 
L 523.138586 112.687021 
L 523.241517 111.996362 
L 523.498036 110.569114 
L 523.702427 110.818682 
L 523.753411 83.799156 
L 523.855244 83.963473 
L 523.956895 83.390833 
L 524.109035 84.079531 
L 524.159659 84.049233 
L 524.361707 85.111537 
L 524.412108 109.177692 
L 524.512777 108.727675 
L 524.963611 107.039292 
L 524.61327 108.761604 
L 525.013485 107.299707 
L 525.063316 100.963167 
L 525.162848 101.292988 
L 525.410924 101.965578 
L 525.509855 101.888867 
L 525.559256 101.86344 
L 525.608614 102.146783 
L 525.65793 102.046446 
L 525.805624 90.528918 
L 526.001959 90.910503 
L 526.050938 90.627995 
L 526.099875 90.97564 
L 526.295206 91.568197 
L 526.343934 91.962845 
L 526.489872 107.070754 
L 526.732279 106.244321 
L 526.780638 106.347553 
L 527.02182 107.540077 
L 527.166043 110.39741 
L 527.453405 109.504636 
L 527.501159 109.644171 
L 527.548873 109.809954 
L 527.596547 109.662362 
L 527.929161 108.162969 
L 528.118362 106.554613 
L 528.212729 106.387318 
L 528.259854 106.570432 
L 528.353988 106.888978 
L 528.400997 107.320785 
L 528.4949 109.511773 
L 528.541794 109.493551 
L 528.728985 110.535845 
L 528.775688 110.350453 
L 528.822352 110.441225 
L 528.868979 110.535348 
L 529.008631 110.096761 
L 529.101544 110.423177 
L 529.147944 112.021849 
L 529.240631 111.735618 
L 529.333168 112.198977 
L 529.379381 112.054128 
L 529.56386 110.954195 
L 529.70183 110.634533 
L 529.793626 111.401689 
L 529.839469 114.015649 
L 529.931045 113.572677 
L 529.976778 113.543616 
L 530.159346 112.731595 
L 530.204897 112.771586 
L 530.250412 112.402608 
L 530.341334 112.447745 
L 530.522745 112.82978 
L 530.613236 82.051347 
L 530.658428 82.114723 
L 530.748705 81.805305 
L 530.973776 82.512807 
L 531.018685 82.392054 
L 531.063558 82.533616 
L 531.287398 83.939473 
L 531.421284 117.273851 
L 531.865322 118.989922 
L 531.997865 119.695612 
L 532.130102 109.826306 
L 532.174113 109.794419 
L 532.393664 109.067328 
L 532.524991 108.792514 
L 532.5687 108.858978 
L 532.743204 110.533163 
L 532.786746 98.802054 
L 532.873733 99.502747 
L 533.478968 103.329206 
L 533.521956 103.343289 
L 533.650724 79.094085 
L 533.821967 78.412713 
L 533.907397 78.72721 
L 534.077875 79.329286 
L 534.205402 79.297087 
L 534.290262 79.277529 
L 534.417317 80.416814 
L 534.459606 80.343751 
L 534.586287 80.814266 
L 534.628451 80.571748 
L 534.670585 80.884244 
L 534.754759 80.752961 
L 534.7968 80.809267 
L 534.83881 80.770697 
L 534.880789 80.839419 
L 534.922738 81.019226 
L 535.006543 80.955943 
L 535.048399 80.918234 
L 535.090225 93.248705 
L 535.173786 93.070282 
L 535.506814 90.510462 
L 535.548306 90.375788 
L 535.713977 88.804083 
L 535.75532 88.861435 
L 535.837917 88.893721 
L 535.961588 101.026538 
L 536.12607 100.502346 
L 536.208134 100.454975 
L 536.37191 101.347586 
L 536.657396 102.712923 
L 536.698064 104.771764 
L 536.779313 104.499394 
L 537.143515 102.978531 
L 537.183839 103.009422 
L 537.264403 102.59227 
L 537.465317 104.173651 
L 537.545486 95.834394 
L 537.585529 95.892687 
L 537.944656 95.37748 
L 538.063867 95.05455 
L 538.301546 96.712652 
L 538.420017 106.535082 
L 538.616925 107.101613 
L 538.656226 107.009372 
L 538.891465 108.322872 
L 538.930578 108.25831 
L 539.125742 110.325723 
L 539.203622 124.162001 
L 539.242522 124.103375 
L 539.359065 124.831988 
L 539.39786 124.667769 
L 539.436628 124.676562 
L 539.552777 124.943759 
L 539.591441 124.915131 
L 539.630079 124.649083 
L 539.668691 124.743022 
L 539.707277 124.894537 
L 539.78437 124.77947 
L 539.938247 124.736625 
L 539.976652 124.431297 
L 540.091712 100.727642 
L 540.473584 98.874845 
L 540.587651 98.697575 
L 540.852928 99.381356 
L 540.928496 123.954437 
L 540.966243 123.644692 
L 541.003965 123.554778 
L 541.041662 123.60863 
L 541.079334 123.704451 
L 541.154604 123.354961 
L 541.229776 123.411324 
L 541.267324 123.363563 
L 541.417274 123.82377 
L 541.4547 123.759784 
L 541.641464 125.809347 
L 541.716 125.693431 
L 541.864781 115.850479 
L 542.124222 113.823217 
L 542.161189 113.788736 
L 542.529554 110.82479 
L 542.602944 111.273839 
L 542.639604 131.532752 
L 542.712853 131.038172 
L 543.004915 128.12933 
L 543.114056 127.014007 
L 543.15039 127.030411 
L 543.367912 126.246152 
L 543.476364 125.003065 
L 543.512469 125.22585 
L 543.548551 123.292673 
L 543.620647 123.554808 
L 543.728622 123.852998 
L 543.764569 123.669285 
L 543.836394 123.804362 
L 544.051331 123.681694 
L 544.372232 124.938068 
L 544.407777 124.92035 
L 544.549736 95.075607 
L 544.585171 95.274648 
L 544.620584 95.067724 
L 544.867865 93.254668 
L 544.938321 93.401491 
L 544.973516 93.251716 
L 545.00869 93.543136 
L 545.043842 93.570751 
L 545.114082 93.890076 
L 545.14917 93.732709 
L 545.359246 93.121317 
L 545.394184 120.509107 
L 545.49887 120.233827 
L 545.603365 119.638796 
L 545.672922 119.862861 
L 545.707669 120.034538 
L 545.742396 119.700238 
L 545.88109 119.274368 
L 546.019449 119.787718 
L 546.053986 119.63739 
L 546.191929 118.365318 
L 546.226363 118.401138 
L 546.260776 118.73813 
L 546.295168 118.695324 
L 546.32954 140.746503 
L 546.432532 139.968677 
L 547.216044 137.138734 
L 547.249868 137.344346 
L 547.283672 114.73515 
L 547.384964 114.96854 
L 547.418688 115.072547 
L 547.620618 113.175162 
L 547.654204 113.278988 
L 547.68777 113.245676 
L 547.788351 112.86979 
L 547.821838 112.94011 
L 547.922184 113.304808 
L 547.955593 113.282114 
L 548.155642 111.641695 
L 548.188916 111.65493 
L 548.255406 112.092766 
L 548.288621 84.462628 
L 548.388153 84.794441 
L 548.421292 84.861343 
L 548.454412 84.830763 
L 548.487513 84.604062 
L 548.520594 84.714192 
L 548.553657 84.943993 
L 548.5867 84.492332 
L 548.619724 84.606713 
L 548.65273 84.373183 
L 548.916089 82.717156 
L 549.178244 83.499176 
L 549.210929 83.342502 
L 549.243595 83.486552 
L 549.308873 110.06551 
L 549.374075 109.817532 
L 549.56924 108.845252 
L 549.73137 107.316757 
L 549.763741 107.331687 
L 549.828428 106.993346 
L 549.989828 106.140692 
L 550.150774 106.728956 
L 550.182909 106.636585 
L 550.215026 106.808886 
L 550.247125 107.389582 
L 550.279206 67.080496 
L 550.375341 67.192278 
L 550.407351 67.180072 
L 550.439342 67.271749 
L 550.821852 70.304885 
L 551.296425 75.83817 
L 551.327924 99.054544 
L 551.422317 98.838315 
L 551.641963 97.293495 
L 551.673273 97.332591 
L 551.860771 95.727836 
L 551.923134 95.763707 
L 551.98543 95.874977 
L 552.109818 95.276183 
L 552.202932 94.762127 
L 552.264924 94.855135 
L 552.326849 95.067541 
L 552.450499 87.496096 
L 552.543061 86.997236 
L 552.573882 87.20905 
L 552.727738 87.487874 
L 553.034216 85.209624 
L 553.095316 85.503487 
L 553.125841 85.575109 
L 553.24778 84.938552 
L 553.399839 86.094511 
L 553.521196 100.601687 
L 553.793314 103.122232 
L 553.97401 102.444033 
L 554.004071 102.547702 
L 554.034116 102.677484 
L 554.064145 102.392817 
L 554.124156 102.247986 
L 554.154138 102.398172 
L 554.24399 102.672964 
L 554.423272 104.271921 
L 554.453098 104.136648 
L 554.512703 103.61259 
L 554.631728 85.292666 
L 554.928213 83.536529 
L 554.957777 83.575265 
L 555.046378 82.693097 
L 555.1643 82.93156 
L 555.575126 86.605475 
L 555.604358 87.048562 
L 555.662778 124.319303 
L 555.721139 124.160327 
L 555.750296 124.023873 
L 555.77944 124.044673 
L 555.86678 124.609262 
L 555.895864 124.512849 
L 556.156956 122.620163 
L 556.214815 121.534852 
L 556.301495 121.65563 
L 556.388043 122.192801 
L 556.503238 123.247465 
L 556.618202 122.411111 
L 556.646907 122.498004 
L 556.732935 123.869936 
L 556.818835 107.047963 
L 556.847439 107.08113 
L 556.87603 107.16284 
L 557.075763 106.052371 
L 557.10424 106.207687 
L 557.132702 105.988202 
L 557.16115 106.011564 
L 557.38823 105.452778 
L 557.416551 105.648263 
L 557.473153 105.555174 
L 557.614412 103.958688 
L 557.755324 102.955127 
L 557.783465 103.049886 
L 557.811592 102.910232 
L 557.867804 102.199698 
L 557.89589 102.383606 
L 557.95202 159.758649 
L 558.008095 159.404126 
L 558.175992 160.356303 
L 558.28765 159.094996 
L 558.371251 159.341375 
L 558.399091 159.24235 
L 558.426917 159.368251 
L 558.45473 159.656371 
L 558.482529 159.44272 
L 558.732119 156.348868 
L 558.897909 154.358692 
L 559.008171 152.858663 
L 559.035703 152.86495 
L 559.063222 153.151292 
L 559.090727 153.058202 
L 559.145699 136.054193 
L 559.228058 136.202953 
L 559.255485 136.187061 
L 559.447105 134.400247 
L 559.501736 135.100465 
L 559.610842 135.652893 
L 559.638086 135.54383 
L 560.180264 130.991229 
L 560.288086 131.211902 
L 560.42258 125.498996 
L 560.44944 125.491401 
L 560.637114 122.882208 
L 560.824175 120.968128 
L 560.850848 121.183881 
L 560.877509 121.234736 
L 560.904157 121.093005 
L 561.090349 120.642733 
L 561.222974 121.275399 
L 561.249462 121.190606 
L 561.275938 121.11867 
L 561.302402 121.381739 
L 561.38172 121.171026 
L 561.460928 122.012423 
L 561.513673 122.582159 
L 561.540027 88.508816 
L 561.645322 88.555324 
L 561.671616 88.538429 
L 562.142848 84.819891 
L 562.168915 85.011052 
L 562.351047 85.509795 
L 562.428927 85.355828 
L 562.454864 85.229826 
L 562.480788 85.488592 
L 562.636091 87.215279 
L 562.687765 87.204517 
L 562.713584 87.134886 
L 562.765189 87.251832 
L 562.790973 87.357835 
L 562.893996 93.091943 
L 562.919723 92.858552 
L 563.073841 92.021939 
L 563.304244 91.780531 
L 563.329787 91.860294 
L 563.406349 92.905914 
L 563.457333 92.513945 
L 563.686201 91.842136 
L 563.711575 92.156222 
L 563.787628 91.890352 
L 563.86358 90.897616 
L 563.939432 91.296975 
L 563.964694 91.287507 
L 564.065629 91.651997 
L 564.090835 103.66895 
L 564.191548 102.511717 
L 564.417507 100.597223 
L 564.592639 101.08587 
L 564.692475 100.207536 
L 564.742328 100.322935 
L 564.817025 101.144475 
L 564.891626 101.134552 
L 564.916471 101.047098 
L 564.941305 101.260832 
L 565.015744 101.843289 
L 565.040536 101.670211 
L 565.164332 101.060095 
L 565.386494 102.670214 
L 565.411125 109.334652 
L 565.509546 109.083539 
L 566.581154 99.512137 
L 566.653493 99.978348 
L 566.725741 99.964458 
L 566.749804 86.049278 
L 566.845953 86.868722 
L 567.157326 88.155853 
L 567.181208 87.975412 
L 567.371905 86.262215 
L 567.538246 87.163957 
L 567.56197 87.296714 
L 567.609388 86.940208 
L 567.633082 86.943652 
L 567.680441 86.484401 
L 567.751406 86.747411 
L 567.775041 86.893086 
L 567.822283 86.635473 
L 568.081419 84.962893 
L 568.128409 85.659615 
L 568.245715 129.907953 
L 568.315984 130.950173 
L 568.386166 130.48362 
L 568.409541 130.485059 
L 568.456263 130.891898 
L 568.502946 130.463779 
L 568.526274 130.597999 
L 568.82867 132.696811 
L 568.875051 132.216631 
L 568.898227 132.16661 
L 569.152552 128.406306 
L 569.244754 128.066142 
L 569.313808 128.995859 
L 569.38278 128.980321 
L 569.474612 128.072206 
L 569.520474 128.250141 
L 569.566298 82.721966 
L 569.634966 82.910502 
L 569.886047 81.350039 
L 569.908818 81.498713 
L 570.181368 83.405241 
L 570.565273 86.68247 
L 570.767479 85.774291 
L 570.834723 86.057415 
L 570.857121 85.757479 
L 570.946622 85.780092 
L 570.99132 85.332527 
L 571.125205 105.431024 
L 571.347655 107.610674 
L 571.569243 111.497207 
L 571.65764 112.474303 
L 571.812005 112.293183 
L 571.900028 112.19284 
L 572.272622 109.511701 
L 572.294464 109.65457 
L 572.338123 109.634999 
L 572.35994 109.320321 
L 572.403549 110.034329 
L 572.468901 110.710562 
L 572.490668 57.6329 
L 572.59938 58.929445 
L 572.859452 60.169017 
L 572.881071 60.056886 
L 572.902683 60.078528 
L 572.924286 59.97467 
L 573.376079 54.255498 
L 573.397504 54.299546 
L 573.461732 54.301939 
L 573.483126 54.435651 
L 573.504511 54.229306 
L 573.525889 54.29826 
L 573.653985 53.144182 
L 573.675307 53.191505 
L 573.994183 55.372963 
L 574.057746 114.647313 
L 574.121238 114.345771 
L 574.248012 113.806777 
L 574.269114 114.018913 
L 574.290208 113.947949 
L 574.311294 114.191916 
L 574.332373 114.250614 
L 574.353443 114.019303 
L 574.395561 113.803961 
L 574.416609 113.928397 
L 574.437649 114.282318 
L 574.500721 113.899004 
L 574.605689 113.181027 
L 574.689524 112.161482 
L 574.731396 112.563225 
L 574.773237 112.807096 
L 574.794147 112.526871 
L 574.981986 110.981202 
L 575.023645 110.896755 
L 575.169212 112.060595 
L 575.397216 109.458002 
L 575.417899 109.427867 
L 575.562468 105.793302 
L 575.583092 97.154683 
L 575.686096 98.81988 
L 575.994002 102.37604 
L 576.157544 104.0265 
L 576.381655 105.38203 
L 576.401985 105.20968 
L 576.442624 105.091926 
L 576.483235 105.157739 
L 576.604893 106.738447 
L 576.665625 106.045757 
L 576.685855 106.120995 
L 576.726293 106.024279 
L 576.746501 105.655875 
L 576.807084 106.050205 
L 576.948194 106.940145 
L 576.968324 106.837277 
L 576.988447 106.706153 
L 577.028673 106.743081 
L 577.189291 108.517539 
L 577.309461 123.994716 
L 577.409409 124.905116 
L 577.469295 124.483913 
L 577.509184 124.708668 
L 577.628685 126.100414 
L 577.708214 125.429945 
L 577.747937 125.205474 
L 577.787632 125.512049 
L 577.8273 125.384824 
L 577.965923 124.577037 
L 577.985698 124.621201 
L 578.005467 124.514997 
L 578.02523 124.221774 
L 578.084475 124.685039 
L 578.10421 124.764882 
L 578.123938 124.150904 
L 578.202783 124.527071 
L 578.222477 124.544442 
L 578.261845 123.911476 
L 578.320847 124.032444 
L 578.379788 124.713761 
L 578.419048 124.343208 
L 578.536667 123.321104 
L 578.556247 123.414309 
L 578.693118 122.375588 
L 578.732165 122.572216 
L 578.790684 122.486289 
L 578.849143 123.302573 
L 578.868617 84.018377 
L 578.965884 84.898495 
L 578.985318 84.923222 
L 579.121169 86.336517 
L 579.159924 86.314802 
L 579.237357 86.628432 
L 579.372612 87.521468 
L 579.488292 87.184845 
L 579.507549 87.264873 
L 579.757306 82.689608 
L 579.929578 81.277754 
L 580.253576 77.897761 
L 580.272577 77.888182 
L 580.386455 76.906549 
L 580.424365 77.151821 
L 580.462249 77.172917 
L 580.481181 77.318223 
L 580.556849 77.048534 
L 580.670164 118.053598 
L 580.689028 118.079519 
L 580.726738 117.791272 
L 580.783255 118.123944 
L 580.820903 118.038493 
L 580.877328 118.20656 
L 581.25208 124.151802 
L 581.308082 123.748734 
L 581.382666 123.876197 
L 581.457153 123.170688 
L 581.550126 122.693871 
L 581.680035 121.970881 
L 581.624396 122.80521 
L 581.69857 122.140486 
L 581.754137 122.906856 
L 581.828143 122.425994 
L 581.902054 121.236591 
L 582.086414 117.718931 
L 582.196746 116.531247 
L 582.270182 115.179567 
L 582.306865 115.68494 
L 582.435072 129.45979 
L 582.562991 129.921338 
L 582.654188 128.90415 
L 582.67241 129.569739 
L 582.854311 132.695886 
L 582.908769 132.317278 
L 582.92691 132.230557 
L 582.945046 132.549934 
L 583.053738 133.726651 
L 583.108007 133.452867 
L 583.252472 132.974801 
L 583.270505 133.108756 
L 583.324569 132.89585 
L 583.576194 130.41791 
L 583.665793 130.694386 
L 583.880261 128.882094 
L 583.933753 128.122879 
L 583.969386 128.5382 
L 584.093928 130.43499 
L 584.111698 130.350745 
L 584.83555 117.41291 
L 584.853091 117.502419 
L 585.010721 117.198444 
L 585.028208 117.257959 
L 585.098105 117.799571 
L 585.133022 117.217144 
L 585.167917 117.121565 
L 585.272476 117.739112 
L 585.289884 117.545792 
L 585.324683 117.680356 
L 585.342075 117.526479 
L 585.411591 116.694298 
L 585.446317 117.069331 
L 585.481022 117.353542 
L 585.515706 117.034258 
L 585.53304 117.124853 
L 585.688812 115.420746 
L 585.740642 115.512234 
L 585.792425 115.890161 
L 585.99909 117.988414 
L 586.016278 117.943941 
L 586.084981 108.649665 
L 586.136454 108.839988 
L 586.170743 108.570863 
L 586.205012 109.024572 
L 586.273489 109.805466 
L 586.341883 109.40256 
L 586.495474 108.794285 
L 586.512514 108.809292 
L 586.529549 108.699721 
L 586.546579 108.730733 
L 586.563604 108.697604 
L 586.580624 108.866225 
L 586.665648 109.358507 
L 586.682638 109.744844 
L 586.733577 108.966619 
L 586.818374 107.559701 
L 586.886122 108.306288 
L 586.919966 108.521068 
L 586.970694 109.483778 
L 587.021377 108.511044 
L 587.038262 108.562332 
L 587.055141 108.329228 
L 587.088885 108.089593 
L 587.139464 107.164919 
L 587.223663 107.282784 
L 587.307739 108.148711 
L 587.341335 107.755981 
L 587.475521 107.089068 
L 587.876203 101.61561 
L 587.926092 100.741007 
L 587.959327 101.335531 
L 588.009143 113.321029 
L 588.075498 113.022143 
L 588.191434 114.512332 
L 588.257578 115.437316 
L 588.307136 115.02517 
L 588.340151 114.901323 
L 588.356651 115.029995 
L 588.537841 117.066355 
L 588.570723 116.86969 
L 588.91485 120.235304 
L 589.077997 121.955045 
L 589.12685 121.58345 
L 589.20818 120.740131 
L 589.435291 117.556608 
L 589.483841 118.248816 
L 589.54851 117.723325 
L 589.613106 116.754201 
L 589.88683 114.134707 
L 589.902891 114.387209 
L 589.918947 114.37528 
L 589.951046 113.885544 
L 589.967089 114.214216 
L 590.047236 115.478811 
L 590.079263 115.198523 
L 590.271051 111.436487 
L 590.446294 109.236615 
L 590.668559 105.663643 
L 590.716075 105.718584 
L 590.889964 106.815327 
L 590.905746 106.709076 
L 590.96883 108.351392 
L 591.031845 107.798171 
L 591.173376 105.767327 
L 591.18908 105.858442 
L 591.283215 106.073458 
L 591.220476 105.794867 
L 591.298889 105.919228 
L 591.455393 102.389298 
L 591.736028 96.522524 
L 591.813739 95.760451 
L 591.937858 94.774482 
L 591.953354 94.827492 
L 591.968845 94.628348 
L 591.984333 94.412587 
L 592.03077 94.843546 
L 592.046241 94.744891 
L 592.169857 137.804107 
L 592.370167 140.289349 
L 592.416292 140.129075 
L 592.69227 144.864079 
L 592.799237 146.644658 
L 592.951701 150.583721 
L 593.012573 150.496121 
L 593.406673 147.110854 
L 593.436876 147.332415 
L 594.067495 157.083152 
L 594.142109 158.29895 
L 594.171927 159.155957 
L 594.216625 158.265105 
L 594.231516 100.637082 
L 594.33565 102.639964 
L 594.35051 102.641669 
L 594.38022 103.090016 
L 594.409915 102.629043 
L 594.469257 102.972953 
L 594.528539 103.391442 
L 594.54335 103.330969 
L 594.646918 103.957433 
L 594.661698 103.8319 
L 594.676475 103.669972 
L 594.706016 104.143701 
L 594.985901 108.288216 
L 594.779803 103.820733 
L 595.015284 108.139466 
L 595.029969 108.135937 
L 595.059329 108.435323 
L 595.132662 108.359188 
L 595.147317 108.220922 
L 595.191261 108.726913 
L 595.337497 109.502952 
L 595.381295 110.01064 
L 595.454218 109.879398 
L 595.468791 109.5977 
L 595.541603 110.269191 
L 595.556154 110.26551 
L 595.80296 112.676834 
L 595.817445 112.574215 
L 595.933192 111.596941 
L 595.962093 111.865355 
L 595.976537 111.878107 
L 596.01985 112.603384 
L 596.077549 111.607615 
L 596.163988 110.29621 
L 596.192773 109.98011 
L 596.235922 110.335534 
L 596.293404 111.023374 
L 596.336477 110.37065 
L 596.408195 109.159717 
L 596.451182 110.013089 
L 596.579951 115.451567 
L 596.722689 116.589068 
L 596.751194 116.364752 
L 596.765441 116.050955 
L 596.793924 116.453598 
L 596.865072 116.235686 
L 596.907718 116.705124 
L 596.978724 116.529027 
L 597.177074 113.322556 
L 597.275992 112.334883 
L 597.290109 112.438424 
L 597.431091 114.254922 
L 597.459245 114.349365 
L 597.473317 114.203416 
L 597.487386 114.11701 
L 597.529571 114.435208 
L 597.669965 115.640091 
L 597.837985 116.210612 
L 597.86594 116.312097 
L 598.019452 118.211891 
L 598.061247 118.550276 
L 598.089094 118.032087 
L 598.103012 118.026151 
L 598.422203 114.047175 
L 598.491357 114.856587 
L 598.518995 114.18814 
L 598.794649 109.344754 
L 598.863355 124.336641 
L 598.918261 123.357042 
L 598.98682 121.556365 
L 599.178348 115.147191 
L 599.219307 115.579076 
L 599.410061 117.680773 
L 599.559495 116.750659 
L 599.762642 118.68345 
L 599.816693 117.831188 
L 599.870693 118.19111 
L 599.992008 120.102927 
L 600.018932 120.009793 
L 600.166787 119.395488 
L 600.045843 120.107488 
L 600.18021 119.602693 
L 600.193629 119.590029 
L 600.207046 119.644509 
L 600.514755 114.666137 
L 600.528096 114.815004 
L 600.58143 114.210349 
L 600.780991 111.274123 
L 600.900395 111.627371 
L 600.953384 111.533222 
L 601.032775 112.147014 
L 601.09885 111.310131 
L 601.27029 107.830287 
L 601.283456 107.930643 
L 601.872836 95.824284 
L 601.885865 95.8298 
L 602.041978 93.092584 
L 602.054969 93.311552 
L 602.093922 92.2745 
L 602.262414 89.441296 
L 602.352935 88.903061 
L 602.314158 89.657225 
L 602.391686 89.079145 
L 602.46911 89.825552 
L 602.507783 89.380698 
L 602.58505 87.786015 
L 602.662213 88.123107 
L 603.11027 94.193366 
L 603.173993 93.671149 
L 603.288516 92.196236 
L 603.32664 92.244404 
L 603.339342 92.404979 
L 603.402811 92.101461 
L 603.630718 90.04337 
L 603.681242 89.315854 
L 603.744333 89.763014 
L 603.782154 90.223988 
L 603.832544 140.930462 
L 603.895469 140.444861 
L 604.033661 142.235449 
L 604.058752 141.647863 
L 604.071292 141.617287 
L 604.607971 129.992012 
L 604.645227 130.415566 
L 604.682458 129.602459 
L 604.694863 129.817642 
L 604.732063 129.508746 
L 604.769238 130.426912 
L 604.892981 132.29405 
L 604.954752 131.585856 
L 605.164278 128.053584 
L 605.176579 128.052577 
L 605.483255 124.284 
L 605.495488 124.334025 
L 605.519946 124.155232 
L 605.544393 124.645903 
L 605.56883 124.887191 
L 605.617673 124.519552 
L 605.739599 122.418422 
L 605.776126 122.838493 
L 605.81263 123.392089 
L 605.873418 122.470644 
L 606.224723 114.406488 
L 606.333312 112.483029 
L 606.453725 109.419208 
L 606.537864 109.543463 
L 606.561881 109.424569 
L 606.597888 109.656087 
L 606.669833 110.645303 
L 606.729719 110.2038 
L 606.861248 111.452073 
L 606.88513 111.298431 
L 607.277749 100.59598 
L 607.313309 100.848566 
L 607.372526 100.382685 
L 607.644139 98.40332 
L 607.714783 98.079044 
L 607.738312 98.259088 
L 607.797091 99.390385 
L 607.879281 99.186944 
L 607.996492 100.097118 
L 607.902743 99.09268 
L 608.031608 99.873044 
L 608.241855 96.804307 
L 608.253513 96.986984 
L 608.300121 96.424748 
L 608.393222 94.379406 
L 608.439716 94.739722 
L 608.451334 94.743216 
L 608.798771 98.956346 
L 608.810316 98.85575 
L 608.868006 99.247852 
L 608.891066 99.567388 
L 608.925639 98.593366 
L 609.01773 96.878839 
L 609.052226 96.290014 
L 609.132636 96.645588 
L 609.144114 96.701778 
L 609.167063 96.445897 
L 609.212933 95.164823 
L 609.235855 95.479549 
" style="fill:none;stroke:#1f77b4;stroke-linecap:square;stroke-width:1.5;"/>
   </g>
   <g id="line2d_48">
    <path clip-path="url(#p27fb007fa6)" d="M 96.984 92.16 
L 633.6288 92.16 
" style="fill:none;stroke:#000000;stroke-dasharray:5.55,2.4;stroke-dashoffset:0;stroke-width:1.5;"/>
   </g>
   <g id="patch_3">
    <path d="M 96.984 437.8176 
L 96.984 34.8264 
" style="fill:none;stroke:#000000;stroke-linecap:square;stroke-linejoin:miter;stroke-width:0.8;"/>
   </g>
   <g id="patch_4">
    <path d="M 633.6288 437.8176 
L 633.6288 34.8264 
" style="fill:none;stroke:#000000;stroke-linecap:square;stroke-linejoin:miter;stroke-width:0.8;"/>
   </g>
   <g id="patch_5">
    <path d="M 96.984 437.8176 
L 633.6288 437.8176 
" style="fill:none;stroke:#000000;stroke-linecap:square;stroke-linejoin:miter;stroke-width:0.8;"/>
   </g>
   <g id="patch_6">
    <path d="M 96.984 34.8264 
L 633.6288 34.8264 
" style="fill:none;stroke:#000000;stroke-linecap:square;stroke-linejoin:miter;stroke-width:0.8;"/>
   </g>
   <g id="text_8">
    <!-- $N=20, \phi=0.65, l_p/\sigma=20$ -->
    <defs>
     <path d="M 16.890625 72.90625 
L 30.171875 72.90625 
L 50.296875 10.40625 
L 62.5 72.90625 
L 72.125 72.90625 
L 57.90625 0 
L 44.578125 0 
L 24.515625 62.890625 
L 12.3125 0 
L 2.6875 0 
z
" id="DejaVuSans-Oblique-78"/>
     <path d="M 10.59375 45.40625 
L 73.1875 45.40625 
L 73.1875 37.203125 
L 10.59375 37.203125 
z
M 10.59375 25.484375 
L 73.1875 25.484375 
L 73.1875 17.1875 
L 10.59375 17.1875 
z
" id="DejaVuSans-61"/>
     <path d="M 46.734375 75.984375 
L 42.78125 55.8125 
Q 52.546875 55.8125 57.5625 48.34375 
Q 62.75 40.71875 60.15625 27.296875 
Q 57.515625 13.875 49.359375 6.25 
Q 41.453125 -1.21875 31.6875 -1.21875 
L 27.875 -20.796875 
L 18.953125 -20.796875 
L 22.75 -1.21875 
Q 13.03125 -1.21875 7.953125 6.25 
Q 2.78125 13.875 5.421875 27.296875 
Q 8.015625 40.71875 16.15625 48.34375 
Q 24.125 55.8125 33.84375 55.8125 
L 37.796875 75.984375 
z
M 33.25 6.78125 
Q 38.765625 6.78125 43.5 11.8125 
Q 48.6875 17.4375 50.6875 27.296875 
Q 52.640625 37.0625 49.515625 42.78125 
Q 46.734375 47.796875 41.21875 47.796875 
z
M 24.3125 6.78125 
L 32.28125 47.796875 
Q 26.8125 47.796875 22.078125 42.78125 
Q 16.75 37.0625 14.890625 27.296875 
Q 13.03125 17.4375 16.0625 11.8125 
Q 18.796875 6.78125 24.3125 6.78125 
z
" id="DejaVuSans-Oblique-981"/>
     <path d="M 10.6875 12.40625 
L 21 12.40625 
L 21 0 
L 10.6875 0 
z
" id="DejaVuSans-46"/>
     <path d="M 33.015625 40.375 
Q 26.375 40.375 22.484375 35.828125 
Q 18.609375 31.296875 18.609375 23.390625 
Q 18.609375 15.53125 22.484375 10.953125 
Q 26.375 6.390625 33.015625 6.390625 
Q 39.65625 6.390625 43.53125 10.953125 
Q 47.40625 15.53125 47.40625 23.390625 
Q 47.40625 31.296875 43.53125 35.828125 
Q 39.65625 40.375 33.015625 40.375 
z
M 52.59375 71.296875 
L 52.59375 62.3125 
Q 48.875 64.0625 45.09375 64.984375 
Q 41.3125 65.921875 37.59375 65.921875 
Q 27.828125 65.921875 22.671875 59.328125 
Q 17.53125 52.734375 16.796875 39.40625 
Q 19.671875 43.65625 24.015625 45.921875 
Q 28.375 48.1875 33.59375 48.1875 
Q 44.578125 48.1875 50.953125 41.515625 
Q 57.328125 34.859375 57.328125 23.390625 
Q 57.328125 12.15625 50.6875 5.359375 
Q 44.046875 -1.421875 33.015625 -1.421875 
Q 20.359375 -1.421875 13.671875 8.265625 
Q 6.984375 17.96875 6.984375 36.375 
Q 6.984375 53.65625 15.1875 63.9375 
Q 23.390625 74.21875 37.203125 74.21875 
Q 40.921875 74.21875 44.703125 73.484375 
Q 48.484375 72.75 52.59375 71.296875 
z
" id="DejaVuSans-54"/>
     <path d="M 10.796875 72.90625 
L 49.515625 72.90625 
L 49.515625 64.59375 
L 19.828125 64.59375 
L 19.828125 46.734375 
Q 21.96875 47.46875 24.109375 47.828125 
Q 26.265625 48.1875 28.421875 48.1875 
Q 40.625 48.1875 47.75 41.5 
Q 54.890625 34.8125 54.890625 23.390625 
Q 54.890625 11.625 47.5625 5.09375 
Q 40.234375 -1.421875 26.90625 -1.421875 
Q 22.3125 -1.421875 17.546875 -0.640625 
Q 12.796875 0.140625 7.71875 1.703125 
L 7.71875 11.625 
Q 12.109375 9.234375 16.796875 8.0625 
Q 21.484375 6.890625 26.703125 6.890625 
Q 35.15625 6.890625 40.078125 11.328125 
Q 45.015625 15.765625 45.015625 23.390625 
Q 45.015625 31 40.078125 35.4375 
Q 35.15625 39.890625 26.703125 39.890625 
Q 22.75 39.890625 18.8125 39.015625 
Q 14.890625 38.140625 10.796875 36.28125 
z
" id="DejaVuSans-53"/>
    </defs>
    <g transform="translate(213.9864 27.3864)scale(0.24 -0.24)">
     <use transform="translate(0 0.015625)" xlink:href="#DejaVuSans-Oblique-78"/>
     <use transform="translate(94.287109 0.015625)" xlink:href="#DejaVuSans-61"/>
     <use transform="translate(197.558594 0.015625)" xlink:href="#DejaVuSans-50"/>
     <use transform="translate(261.181641 0.015625)" xlink:href="#DejaVuSans-48"/>
     <use transform="translate(324.804688 0.015625)" xlink:href="#DejaVuSans-44"/>
     <use transform="translate(376.074219 0.015625)" xlink:href="#DejaVuSans-Oblique-981"/>
     <use transform="translate(461.523438 0.015625)" xlink:href="#DejaVuSans-61"/>
     <use transform="translate(564.794922 0.015625)" xlink:href="#DejaVuSans-48"/>
     <use transform="translate(628.417969 0.015625)" xlink:href="#DejaVuSans-46"/>
     <use transform="translate(660.205078 0.015625)" xlink:href="#DejaVuSans-54"/>
     <use transform="translate(723.828125 0.015625)" xlink:href="#DejaVuSans-53"/>
     <use transform="translate(787.451172 0.015625)" xlink:href="#DejaVuSans-44"/>
     <use transform="translate(838.720703 0.015625)" xlink:href="#DejaVuSans-Oblique-108"/>
     <use transform="translate(866.503906 -16.390625)scale(0.7)" xlink:href="#DejaVuSans-Oblique-112"/>
     <use transform="translate(913.671875 0.015625)" xlink:href="#DejaVuSans-47"/>
     <use transform="translate(947.363281 0.015625)" xlink:href="#DejaVuSans-Oblique-963"/>
     <use transform="translate(1030.224609 0.015625)" xlink:href="#DejaVuSans-61"/>
     <use transform="translate(1133.496094 0.015625)" xlink:href="#DejaVuSans-50"/>
     <use transform="translate(1197.119141 0.015625)" xlink:href="#DejaVuSans-48"/>
    </g>
   </g>
  </g>
 </g>
 <defs>
  <clipPath id="p27fb007fa6">
   <rect height="402.9912" width="536.6448" x="96.984" y="34.8264"/>
  </clipPath>
 </defs>
</svg>
