<?xml version="1.0" encoding="utf-8" standalone="no"?>
<!DOCTYPE svg PUBLIC "-//W3C//DTD SVG 1.1//EN"
  "http://www.w3.org/Graphics/SVG/1.1/DTD/svg11.dtd">
<!-- Created with matplotlib (https://matplotlib.org/) -->
<svg height="497.52pt" version="1.1" viewBox="0 0 920.16 497.52" width="920.16pt" xmlns="http://www.w3.org/2000/svg" xmlns:xlink="http://www.w3.org/1999/xlink">
 <defs>
  <style type="text/css">
*{stroke-linecap:butt;stroke-linejoin:round;}
  </style>
 </defs>
 <g id="figure_1">
  <g id="patch_1">
   <path d="M 0 497.52 
L 920.16 497.52 
L 920.16 0 
L 0 0 
z
" style="fill:#ffffff;"/>
  </g>
  <g id="axes_1">
   <g id="patch_2">
    <path d="M 82.8144 440.3052 
L 915.5592 440.3052 
L 915.5592 32.3388 
L 82.8144 32.3388 
z
" style="fill:#ffffff;"/>
   </g>
   <g id="matplotlib.axis_1">
    <g id="xtick_1">
     <g id="line2d_1">
      <defs>
       <path d="M 0 0 
L 0 3.5 
" id="meafbff4de3" style="stroke:#000000;stroke-width:0.8;"/>
      </defs>
      <g>
       <use style="stroke:#000000;stroke-width:0.8;" x="120.666436" xlink:href="#meafbff4de3" y="440.3052"/>
      </g>
     </g>
     <g id="text_1">
      <!-- $\mathdefault{10^{-4}}$ -->
      <defs>
       <path d="M 12.40625 8.296875 
L 28.515625 8.296875 
L 28.515625 63.921875 
L 10.984375 60.40625 
L 10.984375 69.390625 
L 28.421875 72.90625 
L 38.28125 72.90625 
L 38.28125 8.296875 
L 54.390625 8.296875 
L 54.390625 0 
L 12.40625 0 
z
" id="DejaVuSans-49"/>
       <path d="M 31.78125 66.40625 
Q 24.171875 66.40625 20.328125 58.90625 
Q 16.5 51.421875 16.5 36.375 
Q 16.5 21.390625 20.328125 13.890625 
Q 24.171875 6.390625 31.78125 6.390625 
Q 39.453125 6.390625 43.28125 13.890625 
Q 47.125 21.390625 47.125 36.375 
Q 47.125 51.421875 43.28125 58.90625 
Q 39.453125 66.40625 31.78125 66.40625 
z
M 31.78125 74.21875 
Q 44.046875 74.21875 50.515625 64.515625 
Q 56.984375 54.828125 56.984375 36.375 
Q 56.984375 17.96875 50.515625 8.265625 
Q 44.046875 -1.421875 31.78125 -1.421875 
Q 19.53125 -1.421875 13.0625 8.265625 
Q 6.59375 17.96875 6.59375 36.375 
Q 6.59375 54.828125 13.0625 64.515625 
Q 19.53125 74.21875 31.78125 74.21875 
z
" id="DejaVuSans-48"/>
       <path d="M 10.59375 35.5 
L 73.1875 35.5 
L 73.1875 27.203125 
L 10.59375 27.203125 
z
" id="DejaVuSans-8722"/>
       <path d="M 37.796875 64.3125 
L 12.890625 25.390625 
L 37.796875 25.390625 
z
M 35.203125 72.90625 
L 47.609375 72.90625 
L 47.609375 25.390625 
L 58.015625 25.390625 
L 58.015625 17.1875 
L 47.609375 17.1875 
L 47.609375 0 
L 37.796875 0 
L 37.796875 17.1875 
L 4.890625 17.1875 
L 4.890625 26.703125 
z
" id="DejaVuSans-52"/>
      </defs>
      <g transform="translate(97.166436 462.502075)scale(0.2 -0.2)">
       <use transform="translate(0 0.684375)" xlink:href="#DejaVuSans-49"/>
       <use transform="translate(63.623047 0.684375)" xlink:href="#DejaVuSans-48"/>
       <use transform="translate(128.203125 38.965625)scale(0.7)" xlink:href="#DejaVuSans-8722"/>
       <use transform="translate(186.855469 38.965625)scale(0.7)" xlink:href="#DejaVuSans-52"/>
      </g>
     </g>
    </g>
    <g id="xtick_2">
     <g id="line2d_2">
      <g>
       <use style="stroke:#000000;stroke-width:0.8;" x="233.696979" xlink:href="#meafbff4de3" y="440.3052"/>
      </g>
     </g>
     <g id="text_2">
      <!-- $\mathdefault{10^{-3}}$ -->
      <defs>
       <path d="M 40.578125 39.3125 
Q 47.65625 37.796875 51.625 33 
Q 55.609375 28.21875 55.609375 21.1875 
Q 55.609375 10.40625 48.1875 4.484375 
Q 40.765625 -1.421875 27.09375 -1.421875 
Q 22.515625 -1.421875 17.65625 -0.515625 
Q 12.796875 0.390625 7.625 2.203125 
L 7.625 11.71875 
Q 11.71875 9.328125 16.59375 8.109375 
Q 21.484375 6.890625 26.8125 6.890625 
Q 36.078125 6.890625 40.9375 10.546875 
Q 45.796875 14.203125 45.796875 21.1875 
Q 45.796875 27.640625 41.28125 31.265625 
Q 36.765625 34.90625 28.71875 34.90625 
L 20.21875 34.90625 
L 20.21875 43.015625 
L 29.109375 43.015625 
Q 36.375 43.015625 40.234375 45.921875 
Q 44.09375 48.828125 44.09375 54.296875 
Q 44.09375 59.90625 40.109375 62.90625 
Q 36.140625 65.921875 28.71875 65.921875 
Q 24.65625 65.921875 20.015625 65.03125 
Q 15.375 64.15625 9.8125 62.3125 
L 9.8125 71.09375 
Q 15.4375 72.65625 20.34375 73.4375 
Q 25.25 74.21875 29.59375 74.21875 
Q 40.828125 74.21875 47.359375 69.109375 
Q 53.90625 64.015625 53.90625 55.328125 
Q 53.90625 49.265625 50.4375 45.09375 
Q 46.96875 40.921875 40.578125 39.3125 
z
" id="DejaVuSans-51"/>
      </defs>
      <g transform="translate(210.196979 462.502075)scale(0.2 -0.2)">
       <use transform="translate(0 0.765625)" xlink:href="#DejaVuSans-49"/>
       <use transform="translate(63.623047 0.765625)" xlink:href="#DejaVuSans-48"/>
       <use transform="translate(128.203125 39.046875)scale(0.7)" xlink:href="#DejaVuSans-8722"/>
       <use transform="translate(186.855469 39.046875)scale(0.7)" xlink:href="#DejaVuSans-51"/>
      </g>
     </g>
    </g>
    <g id="xtick_3">
     <g id="line2d_3">
      <g>
       <use style="stroke:#000000;stroke-width:0.8;" x="346.727521" xlink:href="#meafbff4de3" y="440.3052"/>
      </g>
     </g>
     <g id="text_3">
      <!-- $\mathdefault{10^{-2}}$ -->
      <defs>
       <path d="M 19.1875 8.296875 
L 53.609375 8.296875 
L 53.609375 0 
L 7.328125 0 
L 7.328125 8.296875 
Q 12.9375 14.109375 22.625 23.890625 
Q 32.328125 33.6875 34.8125 36.53125 
Q 39.546875 41.84375 41.421875 45.53125 
Q 43.3125 49.21875 43.3125 52.78125 
Q 43.3125 58.59375 39.234375 62.25 
Q 35.15625 65.921875 28.609375 65.921875 
Q 23.96875 65.921875 18.8125 64.3125 
Q 13.671875 62.703125 7.8125 59.421875 
L 7.8125 69.390625 
Q 13.765625 71.78125 18.9375 73 
Q 24.125 74.21875 28.421875 74.21875 
Q 39.75 74.21875 46.484375 68.546875 
Q 53.21875 62.890625 53.21875 53.421875 
Q 53.21875 48.921875 51.53125 44.890625 
Q 49.859375 40.875 45.40625 35.40625 
Q 44.1875 33.984375 37.640625 27.21875 
Q 31.109375 20.453125 19.1875 8.296875 
z
" id="DejaVuSans-50"/>
      </defs>
      <g transform="translate(323.227521 462.502075)scale(0.2 -0.2)">
       <use transform="translate(0 0.765625)" xlink:href="#DejaVuSans-49"/>
       <use transform="translate(63.623047 0.765625)" xlink:href="#DejaVuSans-48"/>
       <use transform="translate(128.203125 39.046875)scale(0.7)" xlink:href="#DejaVuSans-8722"/>
       <use transform="translate(186.855469 39.046875)scale(0.7)" xlink:href="#DejaVuSans-50"/>
      </g>
     </g>
    </g>
    <g id="xtick_4">
     <g id="line2d_4">
      <g>
       <use style="stroke:#000000;stroke-width:0.8;" x="459.758064" xlink:href="#meafbff4de3" y="440.3052"/>
      </g>
     </g>
     <g id="text_4">
      <!-- $\mathdefault{10^{-1}}$ -->
      <g transform="translate(436.258064 462.502075)scale(0.2 -0.2)">
       <use transform="translate(0 0.684375)" xlink:href="#DejaVuSans-49"/>
       <use transform="translate(63.623047 0.684375)" xlink:href="#DejaVuSans-48"/>
       <use transform="translate(128.203125 38.965625)scale(0.7)" xlink:href="#DejaVuSans-8722"/>
       <use transform="translate(186.855469 38.965625)scale(0.7)" xlink:href="#DejaVuSans-49"/>
      </g>
     </g>
    </g>
    <g id="xtick_5">
     <g id="line2d_5">
      <g>
       <use style="stroke:#000000;stroke-width:0.8;" x="572.788607" xlink:href="#meafbff4de3" y="440.3052"/>
      </g>
     </g>
     <g id="text_5">
      <!-- $\mathdefault{10^{0}}$ -->
      <g transform="translate(555.188607 462.502075)scale(0.2 -0.2)">
       <use transform="translate(0 0.765625)" xlink:href="#DejaVuSans-49"/>
       <use transform="translate(63.623047 0.765625)" xlink:href="#DejaVuSans-48"/>
       <use transform="translate(128.203125 39.046875)scale(0.7)" xlink:href="#DejaVuSans-48"/>
      </g>
     </g>
    </g>
    <g id="xtick_6">
     <g id="line2d_6">
      <g>
       <use style="stroke:#000000;stroke-width:0.8;" x="685.819149" xlink:href="#meafbff4de3" y="440.3052"/>
      </g>
     </g>
     <g id="text_6">
      <!-- $\mathdefault{10^{1}}$ -->
      <g transform="translate(668.219149 462.502075)scale(0.2 -0.2)">
       <use transform="translate(0 0.684375)" xlink:href="#DejaVuSans-49"/>
       <use transform="translate(63.623047 0.684375)" xlink:href="#DejaVuSans-48"/>
       <use transform="translate(128.203125 38.965625)scale(0.7)" xlink:href="#DejaVuSans-49"/>
      </g>
     </g>
    </g>
    <g id="xtick_7">
     <g id="line2d_7">
      <g>
       <use style="stroke:#000000;stroke-width:0.8;" x="798.849692" xlink:href="#meafbff4de3" y="440.3052"/>
      </g>
     </g>
     <g id="text_7">
      <!-- $\mathdefault{10^{2}}$ -->
      <g transform="translate(781.249692 462.502075)scale(0.2 -0.2)">
       <use transform="translate(0 0.765625)" xlink:href="#DejaVuSans-49"/>
       <use transform="translate(63.623047 0.765625)" xlink:href="#DejaVuSans-48"/>
       <use transform="translate(128.203125 39.046875)scale(0.7)" xlink:href="#DejaVuSans-50"/>
      </g>
     </g>
    </g>
    <g id="xtick_8">
     <g id="line2d_8">
      <g>
       <use style="stroke:#000000;stroke-width:0.8;" x="911.880234" xlink:href="#meafbff4de3" y="440.3052"/>
      </g>
     </g>
     <g id="text_8">
      <!-- $\mathdefault{10^{3}}$ -->
      <g transform="translate(894.280234 462.502075)scale(0.2 -0.2)">
       <use transform="translate(0 0.765625)" xlink:href="#DejaVuSans-49"/>
       <use transform="translate(63.623047 0.765625)" xlink:href="#DejaVuSans-48"/>
       <use transform="translate(128.203125 39.046875)scale(0.7)" xlink:href="#DejaVuSans-51"/>
      </g>
     </g>
    </g>
    <g id="xtick_9">
     <g id="line2d_9">
      <defs>
       <path d="M 0 0 
L 0 2 
" id="ma85962ef6a" style="stroke:#000000;stroke-width:0.6;"/>
      </defs>
      <g>
       <use style="stroke:#000000;stroke-width:0.6;" x="86.640853" xlink:href="#ma85962ef6a" y="440.3052"/>
      </g>
     </g>
    </g>
    <g id="xtick_10">
     <g id="line2d_10">
      <g>
       <use style="stroke:#000000;stroke-width:0.6;" x="95.590752" xlink:href="#ma85962ef6a" y="440.3052"/>
      </g>
     </g>
    </g>
    <g id="xtick_11">
     <g id="line2d_11">
      <g>
       <use style="stroke:#000000;stroke-width:0.6;" x="103.157784" xlink:href="#ma85962ef6a" y="440.3052"/>
      </g>
     </g>
    </g>
    <g id="xtick_12">
     <g id="line2d_12">
      <g>
       <use style="stroke:#000000;stroke-width:0.6;" x="109.712645" xlink:href="#ma85962ef6a" y="440.3052"/>
      </g>
     </g>
    </g>
    <g id="xtick_13">
     <g id="line2d_13">
      <g>
       <use style="stroke:#000000;stroke-width:0.6;" x="115.494442" xlink:href="#ma85962ef6a" y="440.3052"/>
      </g>
     </g>
    </g>
    <g id="xtick_14">
     <g id="line2d_14">
      <g>
       <use style="stroke:#000000;stroke-width:0.6;" x="154.69202" xlink:href="#ma85962ef6a" y="440.3052"/>
      </g>
     </g>
    </g>
    <g id="xtick_15">
     <g id="line2d_15">
      <g>
       <use style="stroke:#000000;stroke-width:0.6;" x="174.595711" xlink:href="#ma85962ef6a" y="440.3052"/>
      </g>
     </g>
    </g>
    <g id="xtick_16">
     <g id="line2d_16">
      <g>
       <use style="stroke:#000000;stroke-width:0.6;" x="188.717604" xlink:href="#ma85962ef6a" y="440.3052"/>
      </g>
     </g>
    </g>
    <g id="xtick_17">
     <g id="line2d_17">
      <g>
       <use style="stroke:#000000;stroke-width:0.6;" x="199.671395" xlink:href="#ma85962ef6a" y="440.3052"/>
      </g>
     </g>
    </g>
    <g id="xtick_18">
     <g id="line2d_18">
      <g>
       <use style="stroke:#000000;stroke-width:0.6;" x="208.621294" xlink:href="#ma85962ef6a" y="440.3052"/>
      </g>
     </g>
    </g>
    <g id="xtick_19">
     <g id="line2d_19">
      <g>
       <use style="stroke:#000000;stroke-width:0.6;" x="216.188326" xlink:href="#ma85962ef6a" y="440.3052"/>
      </g>
     </g>
    </g>
    <g id="xtick_20">
     <g id="line2d_20">
      <g>
       <use style="stroke:#000000;stroke-width:0.6;" x="222.743188" xlink:href="#ma85962ef6a" y="440.3052"/>
      </g>
     </g>
    </g>
    <g id="xtick_21">
     <g id="line2d_21">
      <g>
       <use style="stroke:#000000;stroke-width:0.6;" x="228.524985" xlink:href="#ma85962ef6a" y="440.3052"/>
      </g>
     </g>
    </g>
    <g id="xtick_22">
     <g id="line2d_22">
      <g>
       <use style="stroke:#000000;stroke-width:0.6;" x="267.722563" xlink:href="#ma85962ef6a" y="440.3052"/>
      </g>
     </g>
    </g>
    <g id="xtick_23">
     <g id="line2d_23">
      <g>
       <use style="stroke:#000000;stroke-width:0.6;" x="287.626253" xlink:href="#ma85962ef6a" y="440.3052"/>
      </g>
     </g>
    </g>
    <g id="xtick_24">
     <g id="line2d_24">
      <g>
       <use style="stroke:#000000;stroke-width:0.6;" x="301.748146" xlink:href="#ma85962ef6a" y="440.3052"/>
      </g>
     </g>
    </g>
    <g id="xtick_25">
     <g id="line2d_25">
      <g>
       <use style="stroke:#000000;stroke-width:0.6;" x="312.701938" xlink:href="#ma85962ef6a" y="440.3052"/>
      </g>
     </g>
    </g>
    <g id="xtick_26">
     <g id="line2d_26">
      <g>
       <use style="stroke:#000000;stroke-width:0.6;" x="321.651837" xlink:href="#ma85962ef6a" y="440.3052"/>
      </g>
     </g>
    </g>
    <g id="xtick_27">
     <g id="line2d_27">
      <g>
       <use style="stroke:#000000;stroke-width:0.6;" x="329.218869" xlink:href="#ma85962ef6a" y="440.3052"/>
      </g>
     </g>
    </g>
    <g id="xtick_28">
     <g id="line2d_28">
      <g>
       <use style="stroke:#000000;stroke-width:0.6;" x="335.77373" xlink:href="#ma85962ef6a" y="440.3052"/>
      </g>
     </g>
    </g>
    <g id="xtick_29">
     <g id="line2d_29">
      <g>
       <use style="stroke:#000000;stroke-width:0.6;" x="341.555528" xlink:href="#ma85962ef6a" y="440.3052"/>
      </g>
     </g>
    </g>
    <g id="xtick_30">
     <g id="line2d_30">
      <g>
       <use style="stroke:#000000;stroke-width:0.6;" x="380.753105" xlink:href="#ma85962ef6a" y="440.3052"/>
      </g>
     </g>
    </g>
    <g id="xtick_31">
     <g id="line2d_31">
      <g>
       <use style="stroke:#000000;stroke-width:0.6;" x="400.656796" xlink:href="#ma85962ef6a" y="440.3052"/>
      </g>
     </g>
    </g>
    <g id="xtick_32">
     <g id="line2d_32">
      <g>
       <use style="stroke:#000000;stroke-width:0.6;" x="414.778689" xlink:href="#ma85962ef6a" y="440.3052"/>
      </g>
     </g>
    </g>
    <g id="xtick_33">
     <g id="line2d_33">
      <g>
       <use style="stroke:#000000;stroke-width:0.6;" x="425.73248" xlink:href="#ma85962ef6a" y="440.3052"/>
      </g>
     </g>
    </g>
    <g id="xtick_34">
     <g id="line2d_34">
      <g>
       <use style="stroke:#000000;stroke-width:0.6;" x="434.68238" xlink:href="#ma85962ef6a" y="440.3052"/>
      </g>
     </g>
    </g>
    <g id="xtick_35">
     <g id="line2d_35">
      <g>
       <use style="stroke:#000000;stroke-width:0.6;" x="442.249411" xlink:href="#ma85962ef6a" y="440.3052"/>
      </g>
     </g>
    </g>
    <g id="xtick_36">
     <g id="line2d_36">
      <g>
       <use style="stroke:#000000;stroke-width:0.6;" x="448.804273" xlink:href="#ma85962ef6a" y="440.3052"/>
      </g>
     </g>
    </g>
    <g id="xtick_37">
     <g id="line2d_37">
      <g>
       <use style="stroke:#000000;stroke-width:0.6;" x="454.58607" xlink:href="#ma85962ef6a" y="440.3052"/>
      </g>
     </g>
    </g>
    <g id="xtick_38">
     <g id="line2d_38">
      <g>
       <use style="stroke:#000000;stroke-width:0.6;" x="493.783648" xlink:href="#ma85962ef6a" y="440.3052"/>
      </g>
     </g>
    </g>
    <g id="xtick_39">
     <g id="line2d_39">
      <g>
       <use style="stroke:#000000;stroke-width:0.6;" x="513.687338" xlink:href="#ma85962ef6a" y="440.3052"/>
      </g>
     </g>
    </g>
    <g id="xtick_40">
     <g id="line2d_40">
      <g>
       <use style="stroke:#000000;stroke-width:0.6;" x="527.809232" xlink:href="#ma85962ef6a" y="440.3052"/>
      </g>
     </g>
    </g>
    <g id="xtick_41">
     <g id="line2d_41">
      <g>
       <use style="stroke:#000000;stroke-width:0.6;" x="538.763023" xlink:href="#ma85962ef6a" y="440.3052"/>
      </g>
     </g>
    </g>
    <g id="xtick_42">
     <g id="line2d_42">
      <g>
       <use style="stroke:#000000;stroke-width:0.6;" x="547.712922" xlink:href="#ma85962ef6a" y="440.3052"/>
      </g>
     </g>
    </g>
    <g id="xtick_43">
     <g id="line2d_43">
      <g>
       <use style="stroke:#000000;stroke-width:0.6;" x="555.279954" xlink:href="#ma85962ef6a" y="440.3052"/>
      </g>
     </g>
    </g>
    <g id="xtick_44">
     <g id="line2d_44">
      <g>
       <use style="stroke:#000000;stroke-width:0.6;" x="561.834815" xlink:href="#ma85962ef6a" y="440.3052"/>
      </g>
     </g>
    </g>
    <g id="xtick_45">
     <g id="line2d_45">
      <g>
       <use style="stroke:#000000;stroke-width:0.6;" x="567.616613" xlink:href="#ma85962ef6a" y="440.3052"/>
      </g>
     </g>
    </g>
    <g id="xtick_46">
     <g id="line2d_46">
      <g>
       <use style="stroke:#000000;stroke-width:0.6;" x="606.81419" xlink:href="#ma85962ef6a" y="440.3052"/>
      </g>
     </g>
    </g>
    <g id="xtick_47">
     <g id="line2d_47">
      <g>
       <use style="stroke:#000000;stroke-width:0.6;" x="626.717881" xlink:href="#ma85962ef6a" y="440.3052"/>
      </g>
     </g>
    </g>
    <g id="xtick_48">
     <g id="line2d_48">
      <g>
       <use style="stroke:#000000;stroke-width:0.6;" x="640.839774" xlink:href="#ma85962ef6a" y="440.3052"/>
      </g>
     </g>
    </g>
    <g id="xtick_49">
     <g id="line2d_49">
      <g>
       <use style="stroke:#000000;stroke-width:0.6;" x="651.793565" xlink:href="#ma85962ef6a" y="440.3052"/>
      </g>
     </g>
    </g>
    <g id="xtick_50">
     <g id="line2d_50">
      <g>
       <use style="stroke:#000000;stroke-width:0.6;" x="660.743465" xlink:href="#ma85962ef6a" y="440.3052"/>
      </g>
     </g>
    </g>
    <g id="xtick_51">
     <g id="line2d_51">
      <g>
       <use style="stroke:#000000;stroke-width:0.6;" x="668.310497" xlink:href="#ma85962ef6a" y="440.3052"/>
      </g>
     </g>
    </g>
    <g id="xtick_52">
     <g id="line2d_52">
      <g>
       <use style="stroke:#000000;stroke-width:0.6;" x="674.865358" xlink:href="#ma85962ef6a" y="440.3052"/>
      </g>
     </g>
    </g>
    <g id="xtick_53">
     <g id="line2d_53">
      <g>
       <use style="stroke:#000000;stroke-width:0.6;" x="680.647155" xlink:href="#ma85962ef6a" y="440.3052"/>
      </g>
     </g>
    </g>
    <g id="xtick_54">
     <g id="line2d_54">
      <g>
       <use style="stroke:#000000;stroke-width:0.6;" x="719.844733" xlink:href="#ma85962ef6a" y="440.3052"/>
      </g>
     </g>
    </g>
    <g id="xtick_55">
     <g id="line2d_55">
      <g>
       <use style="stroke:#000000;stroke-width:0.6;" x="739.748423" xlink:href="#ma85962ef6a" y="440.3052"/>
      </g>
     </g>
    </g>
    <g id="xtick_56">
     <g id="line2d_56">
      <g>
       <use style="stroke:#000000;stroke-width:0.6;" x="753.870317" xlink:href="#ma85962ef6a" y="440.3052"/>
      </g>
     </g>
    </g>
    <g id="xtick_57">
     <g id="line2d_57">
      <g>
       <use style="stroke:#000000;stroke-width:0.6;" x="764.824108" xlink:href="#ma85962ef6a" y="440.3052"/>
      </g>
     </g>
    </g>
    <g id="xtick_58">
     <g id="line2d_58">
      <g>
       <use style="stroke:#000000;stroke-width:0.6;" x="773.774007" xlink:href="#ma85962ef6a" y="440.3052"/>
      </g>
     </g>
    </g>
    <g id="xtick_59">
     <g id="line2d_59">
      <g>
       <use style="stroke:#000000;stroke-width:0.6;" x="781.341039" xlink:href="#ma85962ef6a" y="440.3052"/>
      </g>
     </g>
    </g>
    <g id="xtick_60">
     <g id="line2d_60">
      <g>
       <use style="stroke:#000000;stroke-width:0.6;" x="787.8959" xlink:href="#ma85962ef6a" y="440.3052"/>
      </g>
     </g>
    </g>
    <g id="xtick_61">
     <g id="line2d_61">
      <g>
       <use style="stroke:#000000;stroke-width:0.6;" x="793.677698" xlink:href="#ma85962ef6a" y="440.3052"/>
      </g>
     </g>
    </g>
    <g id="xtick_62">
     <g id="line2d_62">
      <g>
       <use style="stroke:#000000;stroke-width:0.6;" x="832.875276" xlink:href="#ma85962ef6a" y="440.3052"/>
      </g>
     </g>
    </g>
    <g id="xtick_63">
     <g id="line2d_63">
      <g>
       <use style="stroke:#000000;stroke-width:0.6;" x="852.778966" xlink:href="#ma85962ef6a" y="440.3052"/>
      </g>
     </g>
    </g>
    <g id="xtick_64">
     <g id="line2d_64">
      <g>
       <use style="stroke:#000000;stroke-width:0.6;" x="866.900859" xlink:href="#ma85962ef6a" y="440.3052"/>
      </g>
     </g>
    </g>
    <g id="xtick_65">
     <g id="line2d_65">
      <g>
       <use style="stroke:#000000;stroke-width:0.6;" x="877.854651" xlink:href="#ma85962ef6a" y="440.3052"/>
      </g>
     </g>
    </g>
    <g id="xtick_66">
     <g id="line2d_66">
      <g>
       <use style="stroke:#000000;stroke-width:0.6;" x="886.80455" xlink:href="#ma85962ef6a" y="440.3052"/>
      </g>
     </g>
    </g>
    <g id="xtick_67">
     <g id="line2d_67">
      <g>
       <use style="stroke:#000000;stroke-width:0.6;" x="894.371582" xlink:href="#ma85962ef6a" y="440.3052"/>
      </g>
     </g>
    </g>
    <g id="xtick_68">
     <g id="line2d_68">
      <g>
       <use style="stroke:#000000;stroke-width:0.6;" x="900.926443" xlink:href="#ma85962ef6a" y="440.3052"/>
      </g>
     </g>
    </g>
    <g id="xtick_69">
     <g id="line2d_69">
      <g>
       <use style="stroke:#000000;stroke-width:0.6;" x="906.70824" xlink:href="#ma85962ef6a" y="440.3052"/>
      </g>
     </g>
    </g>
    <g id="text_9">
     <!-- $\tau/(l_p/\sigma)$ -->
     <defs>
      <path d="M 32.859375 9.96875 
Q 34.1875 7.625 39.453125 7.625 
L 43.75 7.625 
L 42.28125 0 
L 36.921875 0 
Q 28.125 0 25 4.6875 
Q 21.921875 9.46875 23.96875 19.828125 
L 29 45.703125 
L 8.453125 45.703125 
L 10.203125 54.6875 
L 60.640625 54.6875 
L 58.890625 45.703125 
L 38.1875 45.703125 
L 33.015625 19.28125 
Q 31.640625 12.203125 32.859375 9.96875 
z
" id="DejaVuSans-Oblique-964"/>
      <path d="M 25.390625 72.90625 
L 33.6875 72.90625 
L 8.296875 -9.28125 
L 0 -9.28125 
z
" id="DejaVuSans-47"/>
      <path d="M 31 75.875 
Q 24.46875 64.65625 21.28125 53.65625 
Q 18.109375 42.671875 18.109375 31.390625 
Q 18.109375 20.125 21.3125 9.0625 
Q 24.515625 -2 31 -13.1875 
L 23.1875 -13.1875 
Q 15.875 -1.703125 12.234375 9.375 
Q 8.59375 20.453125 8.59375 31.390625 
Q 8.59375 42.28125 12.203125 53.3125 
Q 15.828125 64.359375 23.1875 75.875 
z
" id="DejaVuSans-40"/>
      <path d="M 18.3125 75.984375 
L 27.296875 75.984375 
L 12.5 0 
L 3.515625 0 
z
" id="DejaVuSans-Oblique-108"/>
      <path d="M 49.609375 33.6875 
Q 49.609375 40.875 46.484375 44.671875 
Q 43.359375 48.484375 37.5 48.484375 
Q 33.5 48.484375 29.859375 46.4375 
Q 26.21875 44.390625 23.390625 40.484375 
Q 20.609375 36.625 18.9375 31.15625 
Q 17.28125 25.6875 17.28125 20.3125 
Q 17.28125 13.484375 20.40625 9.796875 
Q 23.53125 6.109375 29.296875 6.109375 
Q 33.546875 6.109375 37.1875 8.109375 
Q 40.828125 10.109375 43.40625 13.921875 
Q 46.1875 17.921875 47.890625 23.34375 
Q 49.609375 28.765625 49.609375 33.6875 
z
M 21.78125 46.390625 
Q 25.390625 51.125 30.296875 53.5625 
Q 35.203125 56 41.21875 56 
Q 49.609375 56 54.25 50.5 
Q 58.890625 45.015625 58.890625 35.109375 
Q 58.890625 27 56 19.65625 
Q 53.125 12.3125 47.703125 6.5 
Q 44.09375 2.640625 39.546875 0.609375 
Q 35.015625 -1.421875 29.984375 -1.421875 
Q 24.171875 -1.421875 20.21875 1 
Q 16.265625 3.421875 14.3125 8.203125 
L 8.6875 -20.796875 
L -0.296875 -20.796875 
L 14.40625 54.6875 
L 23.390625 54.6875 
z
" id="DejaVuSans-Oblique-112"/>
      <path d="M 34.671875 47.5625 
Q 27.25 47.5625 22.21875 42.1875 
Q 16.890625 36.578125 15.140625 27.296875 
Q 13.1875 17.484375 16.3125 11.8125 
Q 19.390625 6.203125 26.65625 6.203125 
Q 33.84375 6.203125 39.109375 11.859375 
Q 44.4375 17.53125 46.34375 27.296875 
Q 48.046875 36.234375 45.015625 42.1875 
Q 42.1875 47.5625 34.671875 47.5625 
z
M 36.078125 54.734375 
L 65.921875 54.6875 
L 64.15625 45.703125 
L 54.109375 45.703125 
Q 57.90625 38.09375 55.859375 27.296875 
Q 53.21875 13.875 45.0625 6.25 
Q 36.859375 -1.421875 25.140625 -1.421875 
Q 13.375 -1.421875 8.203125 6.25 
Q 3.03125 13.875 5.671875 27.296875 
Q 8.25 40.765625 16.40625 48.390625 
Q 23.1875 54.734375 36.078125 54.734375 
z
" id="DejaVuSans-Oblique-963"/>
      <path d="M 8.015625 75.875 
L 15.828125 75.875 
Q 23.140625 64.359375 26.78125 53.3125 
Q 30.421875 42.28125 30.421875 31.390625 
Q 30.421875 20.453125 26.78125 9.375 
Q 23.140625 -1.703125 15.828125 -13.1875 
L 8.015625 -13.1875 
Q 14.5 -2 17.703125 9.0625 
Q 20.90625 20.125 20.90625 31.390625 
Q 20.90625 42.671875 17.703125 53.65625 
Q 14.5 64.65625 8.015625 75.875 
z
" id="DejaVuSans-41"/>
     </defs>
     <g transform="translate(464.7868 485.86145)scale(0.2 -0.2)">
      <use transform="translate(0 0.015625)" xlink:href="#DejaVuSans-Oblique-964"/>
      <use transform="translate(60.205078 0.015625)" xlink:href="#DejaVuSans-47"/>
      <use transform="translate(93.896484 0.015625)" xlink:href="#DejaVuSans-40"/>
      <use transform="translate(132.910156 0.015625)" xlink:href="#DejaVuSans-Oblique-108"/>
      <use transform="translate(160.693359 -16.390625)scale(0.7)" xlink:href="#DejaVuSans-Oblique-112"/>
      <use transform="translate(207.861328 0.015625)" xlink:href="#DejaVuSans-47"/>
      <use transform="translate(241.552734 0.015625)" xlink:href="#DejaVuSans-Oblique-963"/>
      <use transform="translate(304.931641 0.015625)" xlink:href="#DejaVuSans-41"/>
     </g>
    </g>
   </g>
   <g id="matplotlib.axis_2">
    <g id="ytick_1">
     <g id="line2d_70">
      <defs>
       <path d="M 0 0 
L -3.5 0 
" id="m8daafd0d76" style="stroke:#000000;stroke-width:0.8;"/>
      </defs>
      <g>
       <use style="stroke:#000000;stroke-width:0.8;" x="82.8144" xlink:href="#m8daafd0d76" y="306.267416"/>
      </g>
     </g>
     <g id="text_10">
      <!-- $\mathdefault{10^{-1}}$ -->
      <g transform="translate(28.8144 313.865854)scale(0.2 -0.2)">
       <use transform="translate(0 0.684375)" xlink:href="#DejaVuSans-49"/>
       <use transform="translate(63.623047 0.684375)" xlink:href="#DejaVuSans-48"/>
       <use transform="translate(128.203125 38.965625)scale(0.7)" xlink:href="#DejaVuSans-8722"/>
       <use transform="translate(186.855469 38.965625)scale(0.7)" xlink:href="#DejaVuSans-49"/>
      </g>
     </g>
    </g>
    <g id="ytick_2">
     <g id="line2d_71">
      <g>
       <use style="stroke:#000000;stroke-width:0.8;" x="82.8144" xlink:href="#m8daafd0d76" y="141.607366"/>
      </g>
     </g>
     <g id="text_11">
      <!-- $\mathdefault{10^{0}}$ -->
      <g transform="translate(40.6144 149.205804)scale(0.2 -0.2)">
       <use transform="translate(0 0.765625)" xlink:href="#DejaVuSans-49"/>
       <use transform="translate(63.623047 0.765625)" xlink:href="#DejaVuSans-48"/>
       <use transform="translate(128.203125 39.046875)scale(0.7)" xlink:href="#DejaVuSans-48"/>
      </g>
     </g>
    </g>
    <g id="ytick_3">
     <g id="line2d_72">
      <defs>
       <path d="M 0 0 
L -2 0 
" id="m81250d2251" style="stroke:#000000;stroke-width:0.6;"/>
      </defs>
      <g>
       <use style="stroke:#000000;stroke-width:0.6;" x="82.8144" xlink:href="#m81250d2251" y="421.359852"/>
      </g>
     </g>
    </g>
    <g id="ytick_4">
     <g id="line2d_73">
      <g>
       <use style="stroke:#000000;stroke-width:0.6;" x="82.8144" xlink:href="#m81250d2251" y="392.364657"/>
      </g>
     </g>
    </g>
    <g id="ytick_5">
     <g id="line2d_74">
      <g>
       <use style="stroke:#000000;stroke-width:0.6;" x="82.8144" xlink:href="#m81250d2251" y="371.792238"/>
      </g>
     </g>
    </g>
    <g id="ytick_6">
     <g id="line2d_75">
      <g>
       <use style="stroke:#000000;stroke-width:0.6;" x="82.8144" xlink:href="#m81250d2251" y="355.83503"/>
      </g>
     </g>
    </g>
    <g id="ytick_7">
     <g id="line2d_76">
      <g>
       <use style="stroke:#000000;stroke-width:0.6;" x="82.8144" xlink:href="#m81250d2251" y="342.797042"/>
      </g>
     </g>
    </g>
    <g id="ytick_8">
     <g id="line2d_77">
      <g>
       <use style="stroke:#000000;stroke-width:0.6;" x="82.8144" xlink:href="#m81250d2251" y="331.773581"/>
      </g>
     </g>
    </g>
    <g id="ytick_9">
     <g id="line2d_78">
      <g>
       <use style="stroke:#000000;stroke-width:0.6;" x="82.8144" xlink:href="#m81250d2251" y="322.224624"/>
      </g>
     </g>
    </g>
    <g id="ytick_10">
     <g id="line2d_79">
      <g>
       <use style="stroke:#000000;stroke-width:0.6;" x="82.8144" xlink:href="#m81250d2251" y="313.801847"/>
      </g>
     </g>
    </g>
    <g id="ytick_11">
     <g id="line2d_80">
      <g>
       <use style="stroke:#000000;stroke-width:0.6;" x="82.8144" xlink:href="#m81250d2251" y="256.699802"/>
      </g>
     </g>
    </g>
    <g id="ytick_12">
     <g id="line2d_81">
      <g>
       <use style="stroke:#000000;stroke-width:0.6;" x="82.8144" xlink:href="#m81250d2251" y="227.704607"/>
      </g>
     </g>
    </g>
    <g id="ytick_13">
     <g id="line2d_82">
      <g>
       <use style="stroke:#000000;stroke-width:0.6;" x="82.8144" xlink:href="#m81250d2251" y="207.132188"/>
      </g>
     </g>
    </g>
    <g id="ytick_14">
     <g id="line2d_83">
      <g>
       <use style="stroke:#000000;stroke-width:0.6;" x="82.8144" xlink:href="#m81250d2251" y="191.174981"/>
      </g>
     </g>
    </g>
    <g id="ytick_15">
     <g id="line2d_84">
      <g>
       <use style="stroke:#000000;stroke-width:0.6;" x="82.8144" xlink:href="#m81250d2251" y="178.136993"/>
      </g>
     </g>
    </g>
    <g id="ytick_16">
     <g id="line2d_85">
      <g>
       <use style="stroke:#000000;stroke-width:0.6;" x="82.8144" xlink:href="#m81250d2251" y="167.113531"/>
      </g>
     </g>
    </g>
    <g id="ytick_17">
     <g id="line2d_86">
      <g>
       <use style="stroke:#000000;stroke-width:0.6;" x="82.8144" xlink:href="#m81250d2251" y="157.564574"/>
      </g>
     </g>
    </g>
    <g id="ytick_18">
     <g id="line2d_87">
      <g>
       <use style="stroke:#000000;stroke-width:0.6;" x="82.8144" xlink:href="#m81250d2251" y="149.141797"/>
      </g>
     </g>
    </g>
    <g id="ytick_19">
     <g id="line2d_88">
      <g>
       <use style="stroke:#000000;stroke-width:0.6;" x="82.8144" xlink:href="#m81250d2251" y="92.039752"/>
      </g>
     </g>
    </g>
    <g id="ytick_20">
     <g id="line2d_89">
      <g>
       <use style="stroke:#000000;stroke-width:0.6;" x="82.8144" xlink:href="#m81250d2251" y="63.044557"/>
      </g>
     </g>
    </g>
    <g id="ytick_21">
     <g id="line2d_90">
      <g>
       <use style="stroke:#000000;stroke-width:0.6;" x="82.8144" xlink:href="#m81250d2251" y="42.472138"/>
      </g>
     </g>
    </g>
    <g id="text_12">
     <!-- $\tau N &lt;\delta w(t_0; \tau)^2&gt;$ -->
     <defs>
      <path d="M 16.890625 72.90625 
L 30.171875 72.90625 
L 50.296875 10.40625 
L 62.5 72.90625 
L 72.125 72.90625 
L 57.90625 0 
L 44.578125 0 
L 24.515625 62.890625 
L 12.3125 0 
L 2.6875 0 
z
" id="DejaVuSans-Oblique-78"/>
      <path d="M 73.1875 49.21875 
L 22.796875 31.296875 
L 73.1875 13.484375 
L 73.1875 4.59375 
L 10.59375 27.296875 
L 10.59375 35.40625 
L 73.1875 58.109375 
z
" id="DejaVuSans-60"/>
      <path d="M 54.25 63.328125 
Q 49.953125 66.75 38.28125 66.75 
Q 25.921875 66.75 24.8125 61.03125 
Q 23.921875 56.546875 36.375 54.203125 
Q 46.140625 52.390625 50.828125 46.921875 
Q 56.5 40.328125 53.859375 26.8125 
Q 51.3125 13.875 43.171875 6.25 
Q 34.96875 -1.421875 23.25 -1.421875 
Q 11.578125 -1.421875 6.34375 6.25 
Q 1.125 13.875 3.765625 27.296875 
Q 5.671875 37.25 13.921875 45.3125 
Q 17.140625 48.4375 21.140625 50.203125 
Q 14.265625 54.046875 15.625 60.9375 
Q 18.21875 74.21875 39.75 74.21875 
Q 50.53125 74.21875 55.71875 70.796875 
z
M 27.390625 47.75 
Q 23.828125 46.34375 20.40625 42.78125 
Q 15.140625 37.25 13.234375 27.296875 
Q 11.28125 17.390625 14.359375 11.8125 
Q 17.484375 6.203125 24.75 6.203125 
Q 31.9375 6.203125 37.203125 11.859375 
Q 42.53125 17.53125 44.34375 26.8125 
Q 46.1875 36.53125 42.671875 41.21875 
Q 38.921875 46.234375 32.859375 46.78125 
Q 29.78125 47.078125 27.390625 47.75 
z
" id="DejaVuSans-Oblique-948"/>
      <path d="M 8.5 54.6875 
L 17.390625 54.6875 
L 19.671875 10.6875 
L 40.09375 54.6875 
L 50.484375 54.6875 
L 53.515625 10.6875 
L 72.90625 54.6875 
L 81.890625 54.6875 
L 56.890625 0 
L 46.390625 0 
L 43.703125 45.3125 
L 22.796875 0 
L 12.203125 0 
z
" id="DejaVuSans-Oblique-119"/>
      <path d="M 42.28125 54.6875 
L 40.921875 47.703125 
L 23 47.703125 
L 17.1875 18.015625 
Q 16.890625 16.359375 16.75 15.234375 
Q 16.609375 14.109375 16.609375 13.484375 
Q 16.609375 10.359375 18.484375 8.9375 
Q 20.359375 7.515625 24.515625 7.515625 
L 33.59375 7.515625 
L 32.078125 0 
L 23.484375 0 
Q 15.484375 0 11.546875 3.125 
Q 7.625 6.25 7.625 12.59375 
Q 7.625 13.71875 7.765625 15.0625 
Q 7.90625 16.40625 8.203125 18.015625 
L 14.015625 47.703125 
L 6.390625 47.703125 
L 7.8125 54.6875 
L 15.28125 54.6875 
L 18.3125 70.21875 
L 27.296875 70.21875 
L 24.3125 54.6875 
z
" id="DejaVuSans-Oblique-116"/>
      <path d="M 11.71875 51.703125 
L 22.015625 51.703125 
L 22.015625 39.3125 
L 11.71875 39.3125 
z
M 11.71875 12.40625 
L 22.015625 12.40625 
L 22.015625 4 
L 14.015625 -11.625 
L 7.71875 -11.625 
L 11.71875 4 
z
" id="DejaVuSans-59"/>
      <path d="M 10.59375 49.21875 
L 10.59375 58.109375 
L 73.1875 35.40625 
L 73.1875 27.296875 
L 10.59375 4.59375 
L 10.59375 13.484375 
L 60.890625 31.296875 
z
" id="DejaVuSans-62"/>
     </defs>
     <g transform="translate(20.655025 321.322)rotate(-90)scale(0.2 -0.2)">
      <use transform="translate(0 0.765625)" xlink:href="#DejaVuSans-Oblique-964"/>
      <use transform="translate(60.205078 0.765625)" xlink:href="#DejaVuSans-Oblique-78"/>
      <use transform="translate(154.492188 0.765625)" xlink:href="#DejaVuSans-60"/>
      <use transform="translate(257.763672 0.765625)" xlink:href="#DejaVuSans-Oblique-948"/>
      <use transform="translate(318.945312 0.765625)" xlink:href="#DejaVuSans-Oblique-119"/>
      <use transform="translate(400.732422 0.765625)" xlink:href="#DejaVuSans-40"/>
      <use transform="translate(439.746094 0.765625)" xlink:href="#DejaVuSans-Oblique-116"/>
      <use transform="translate(478.955078 -15.640625)scale(0.7)" xlink:href="#DejaVuSans-48"/>
      <use transform="translate(526.225586 0.765625)" xlink:href="#DejaVuSans-59"/>
      <use transform="translate(579.399414 0.765625)" xlink:href="#DejaVuSans-Oblique-964"/>
      <use transform="translate(639.604492 0.765625)" xlink:href="#DejaVuSans-41"/>
      <use transform="translate(679.575195 39.046875)scale(0.7)" xlink:href="#DejaVuSans-50"/>
      <use transform="translate(746.328125 0.765625)" xlink:href="#DejaVuSans-62"/>
     </g>
    </g>
   </g>
   <g id="line2d_91">
    <path clip-path="url(#p7f46d338da)" d="M 120.666436 336.235226 
L 154.69202 336.652723 
L 174.595711 337.05448 
L 188.717604 337.489725 
L 199.671395 337.770796 
L 208.621294 338.099486 
L 222.743188 338.723486 
L 228.524985 338.995219 
L 233.696979 339.252716 
L 242.646878 339.607637 
L 250.21391 340.009481 
L 259.744746 340.594051 
L 265.20465 340.752181 
L 274.583272 341.179714 
L 280.601642 341.283135 
L 289.235858 341.250596 
L 296.576152 341.249146 
L 304.143184 340.992747 
L 311.710216 340.441948 
L 319.133924 339.608679 
L 327.068662 338.393059 
L 334.530916 336.95478 
L 342.63444 334.594889 
L 350.048786 332.174877 
L 357.681313 329.178297 
L 365.304414 325.461939 
L 373.063198 321.219273 
L 380.753105 316.381505 
L 388.249961 311.599401 
L 396.027222 305.710535 
L 403.671256 299.867874 
L 411.2163 294.000505 
L 418.896309 287.941576 
L 426.51168 281.619521 
L 434.189023 275.254809 
L 441.826839 269.350877 
L 449.474642 263.559071 
L 457.136698 256.882506 
L 464.792417 251.242072 
L 472.410056 245.296945 
L 480.085356 239.551863 
L 487.703345 233.866623 
L 495.353649 228.135849 
L 503.019065 223.113292 
L 510.649965 218.526114 
L 518.306439 213.7104 
L 525.945757 209.151421 
L 533.601936 205.49225 
L 541.242141 200.142647 
L 548.893109 197.956702 
L 556.539946 194.764013 
L 564.18308 192.195999 
L 571.831936 185.62355 
L 579.478276 184.640772 
L 587.126016 178.956654 
L 594.771531 179.011454 
L 602.418712 177.668194 
L 610.066591 172.028933 
L 617.712972 177.260192 
L 625.360813 172.152221 
L 633.007563 169.581629 
L 640.654114 169.175094 
L 648.300801 164.645372 
L 655.948185 165.468487 
L 663.594537 162.322329 
L 671.241569 157.589513 
L 678.88866 170.935102 
L 686.535498 157.605444 
L 694.182219 170.92349 
L 701.828909 162.788274 
L 709.475891 185.014722 
L 717.122808 159.80807 
L 724.769534 183.500303 
L 732.416426 195.575261 
L 740.063378 186.968265 
L 747.710219 227.895663 
L 755.357165 194.134372 
L 763.004056 195.924845 
L 770.650915 170.260391 
L 778.297772 226.146622 
L 785.944648 198.419281 
L 793.591554 232.590601 
L 801.238418 299.889206 
L 808.885279 239.053634 
L 816.532168 227.441294 
L 824.179028 238.385175 
L 831.825916 220.816582 
L 839.472785 297.770571 
L 847.119657 270.063153 
L 854.766535 264.696419 
L 862.413409 411.136009 
L 870.060289 421.761273 
L 877.707164 383.691547 
" style="fill:none;stroke:#0000ff;stroke-linecap:square;stroke-width:1.5;"/>
   </g>
   <g id="line2d_92">
    <path clip-path="url(#p7f46d338da)" d="M 120.666436 336.147916 
L 154.69202 336.619422 
L 174.595711 337.074094 
L 188.717604 337.466744 
L 199.671395 337.864817 
L 208.621294 338.244577 
L 222.743188 338.780404 
L 228.524985 339.04806 
L 233.696979 339.443395 
L 242.646878 339.969462 
L 250.21391 340.242904 
L 259.744746 340.646515 
L 265.20465 340.992954 
L 274.583272 341.45008 
L 280.601642 341.603538 
L 289.235858 341.71987 
L 296.576152 341.775328 
L 304.143184 341.421939 
L 311.710216 340.995308 
L 319.133924 340.089262 
L 327.068662 339.008664 
L 334.530916 337.448324 
L 342.63444 335.175662 
L 350.048786 332.406468 
L 357.681313 329.586806 
L 365.304414 326.099459 
L 373.063198 321.803507 
L 380.753105 316.960217 
L 388.249961 312.212875 
L 396.027222 306.393325 
L 403.671256 301.010875 
L 411.2163 294.882723 
L 418.896309 288.418953 
L 426.51168 282.115888 
L 434.189023 276.240599 
L 441.826839 269.297945 
L 449.474642 263.271891 
L 457.136698 257.136637 
L 464.792417 251.220854 
L 472.410056 245.383341 
L 480.085356 239.010214 
L 487.703345 233.295941 
L 495.353649 228.132624 
L 503.019065 223.333583 
L 510.649965 217.580633 
L 518.306439 213.503689 
L 525.945757 208.711105 
L 533.601936 205.119234 
L 541.242141 200.7988 
L 548.893109 196.745726 
L 556.539946 194.464432 
L 564.18308 191.83424 
L 571.831936 189.456144 
L 579.478276 188.925929 
L 587.126016 190.170586 
L 594.771531 184.9019 
L 602.418712 180.394622 
L 610.066591 180.808732 
L 617.712972 177.057931 
L 625.360813 181.345375 
L 633.007563 180.135968 
L 640.654114 174.698023 
L 648.300801 178.862101 
L 655.948185 175.102316 
L 663.594537 171.264643 
L 671.241569 171.536265 
L 678.88866 173.714158 
L 686.535498 181.339401 
L 694.182219 170.877984 
L 701.828909 195.923829 
L 709.475891 172.756177 
L 717.122808 174.029472 
L 724.769534 180.531723 
L 732.416426 195.379181 
L 740.063378 195.339267 
L 747.710219 177.227112 
L 755.357165 193.644963 
L 763.004056 218.816868 
L 770.650915 229.498337 
L 778.297772 210.579334 
L 785.944648 173.860926 
L 793.591554 258.900281 
L 801.238418 171.040353 
L 808.885279 261.63774 
L 816.532168 237.024996 
L 824.179028 265.129737 
L 831.825916 243.0714 
L 839.472785 284.695102 
L 847.119657 166.19065 
L 854.766535 216.275434 
L 862.413409 212.569189 
L 870.060289 186.035455 
L 877.707164 196.175131 
" style="fill:none;stroke:#0080ff;stroke-linecap:square;stroke-width:1.5;"/>
   </g>
   <g id="line2d_93">
    <path clip-path="url(#p7f46d338da)" d="M 120.666436 336.080504 
L 154.69202 336.570825 
L 174.595711 337.103129 
L 188.717604 337.560068 
L 199.671395 338.034402 
L 208.621294 338.390872 
L 222.743188 339.139842 
L 228.524985 339.471627 
L 233.696979 339.693519 
L 242.646878 340.190495 
L 250.21391 340.734187 
L 259.744746 341.281298 
L 265.20465 341.668315 
L 274.583272 342.244214 
L 280.601642 342.251288 
L 289.235858 342.33518 
L 296.576152 342.515348 
L 304.143184 342.578169 
L 311.710216 341.734863 
L 319.133924 340.890619 
L 327.068662 340.200283 
L 334.530916 338.612191 
L 342.63444 336.185603 
L 350.048786 333.890102 
L 357.681313 330.667865 
L 365.304414 326.877478 
L 373.063198 322.398704 
L 380.753105 317.892222 
L 388.249961 312.878549 
L 396.027222 306.963968 
L 403.671256 301.243482 
L 411.2163 295.018727 
L 418.896309 288.863144 
L 426.51168 282.585396 
L 434.189023 275.907348 
L 441.826839 269.941094 
L 449.474642 263.360484 
L 457.136698 257.243888 
L 464.792417 250.901244 
L 472.410056 245.156427 
L 480.085356 238.418091 
L 487.703345 232.579185 
L 495.353649 226.44455 
L 503.019065 220.586547 
L 510.649965 215.744887 
L 518.306439 210.567556 
L 525.945757 205.976062 
L 533.601936 201.171849 
L 541.242141 195.70673 
L 548.893109 194.14046 
L 556.539946 191.343945 
L 564.18308 188.450878 
L 571.831936 185.637009 
L 579.478276 185.511164 
L 587.126016 183.321761 
L 594.771531 183.350067 
L 602.418712 178.855772 
L 610.066591 178.168387 
L 617.712972 173.704641 
L 625.360813 175.257405 
L 633.007563 172.745883 
L 640.654114 172.990181 
L 648.300801 167.80369 
L 655.948185 175.304164 
L 663.594537 169.670195 
L 671.241569 175.456211 
L 678.88866 164.272635 
L 686.535498 171.458409 
L 694.182219 160.037517 
L 701.828909 165.913541 
L 709.475891 174.66035 
L 717.122808 165.805354 
L 724.769534 163.40524 
L 732.416426 166.137448 
L 740.063378 160.45092 
L 747.710219 168.772826 
L 755.357165 183.073788 
L 763.004056 183.728602 
L 770.650915 163.414131 
L 778.297772 170.530817 
L 785.944648 165.629503 
L 793.591554 225.868925 
L 801.238418 219.818576 
L 808.885279 206.169684 
L 816.532168 259.746282 
L 824.179028 246.002135 
L 831.825916 218.307774 
L 839.472785 206.745845 
L 847.119657 262.222922 
L 854.766535 301.867796 
L 862.413409 366.756327 
L 870.060289 327.865069 
L 877.707164 263.856676 
" style="fill:none;stroke:#16ffe1;stroke-linecap:square;stroke-width:1.5;"/>
   </g>
   <g id="line2d_94">
    <path clip-path="url(#p7f46d338da)" d="M 120.666436 336.04758 
L 154.69202 336.58281 
L 174.595711 337.07196 
L 188.717604 337.517864 
L 199.671395 337.98162 
L 208.621294 338.428563 
L 222.743188 339.23551 
L 228.524985 339.620892 
L 233.696979 339.987476 
L 242.646878 340.427443 
L 250.21391 341.003627 
L 259.744746 341.588915 
L 265.20465 341.964082 
L 274.583272 342.321518 
L 280.601642 342.609458 
L 289.235858 342.779793 
L 296.576152 342.708306 
L 304.143184 342.575631 
L 311.710216 341.991669 
L 319.133924 341.376761 
L 327.068662 339.806376 
L 334.530916 338.184196 
L 342.63444 335.950949 
L 350.048786 333.48229 
L 357.681313 330.028674 
L 365.304414 326.197838 
L 373.063198 321.835547 
L 380.753105 316.884589 
L 388.249961 311.61931 
L 396.027222 305.571065 
L 403.671256 299.559352 
L 411.2163 293.139186 
L 418.896309 286.778932 
L 426.51168 280.077771 
L 434.189023 273.329298 
L 441.826839 267.10393 
L 449.474642 260.222322 
L 457.136698 253.417509 
L 464.792417 246.874299 
L 472.410056 240.093342 
L 480.085356 233.949363 
L 487.703345 227.489016 
L 495.353649 220.826034 
L 503.019065 214.867166 
L 510.649965 209.722924 
L 518.306439 203.698434 
L 525.945757 199.772591 
L 533.601936 194.856377 
L 541.242141 191.060261 
L 548.893109 186.036181 
L 556.539946 181.420726 
L 564.18308 178.641601 
L 571.831936 179.742291 
L 579.478276 173.620204 
L 587.126016 173.395794 
L 594.771531 171.171369 
L 602.418712 170.318611 
L 610.066591 169.357373 
L 617.712972 163.861609 
L 625.360813 164.715406 
L 633.007563 167.449067 
L 640.654114 163.286403 
L 648.300801 157.927612 
L 655.948185 164.635679 
L 663.594537 159.158536 
L 671.241569 154.78952 
L 678.88866 151.919403 
L 686.535498 146.611026 
L 694.182219 156.058643 
L 701.828909 137.378401 
L 709.475891 156.681305 
L 717.122808 167.192469 
L 724.769534 154.439834 
L 732.416426 154.802711 
L 740.063378 166.00259 
L 747.710219 190.167004 
L 755.357165 152.893237 
L 763.004056 161.555563 
L 770.650915 212.276752 
L 778.297772 170.686316 
L 785.944648 143.523178 
L 793.591554 147.300802 
L 801.238418 149.874464 
L 808.885279 151.840129 
L 816.532168 199.613891 
L 824.179028 154.426806 
L 831.825916 147.850655 
L 839.472785 146.583535 
L 847.119657 169.40043 
L 854.766535 195.070949 
L 862.413409 199.342066 
L 870.060289 183.125479 
L 877.707164 161.670193 
" style="fill:none;stroke:#7dff7a;stroke-linecap:square;stroke-width:1.5;"/>
   </g>
   <g id="line2d_95">
    <path clip-path="url(#p7f46d338da)" d="M 120.666436 335.995223 
L 154.69202 336.531934 
L 174.595711 337.052471 
L 188.717604 337.628446 
L 199.671395 337.942517 
L 208.621294 338.460854 
L 222.743188 339.135434 
L 228.524985 339.484173 
L 233.696979 339.74902 
L 242.646878 340.323631 
L 250.21391 340.86306 
L 259.744746 341.407265 
L 265.20465 341.702777 
L 274.583272 342.137463 
L 280.601642 342.227752 
L 289.235858 342.348754 
L 296.576152 342.293415 
L 304.143184 341.920874 
L 311.710216 341.444652 
L 319.133924 340.295292 
L 327.068662 338.932867 
L 334.530916 337.276471 
L 342.63444 334.862643 
L 350.048786 331.742133 
L 357.681313 328.288923 
L 365.304414 324.325087 
L 373.063198 319.713482 
L 380.753105 314.429058 
L 388.249961 309.25364 
L 396.027222 303.371162 
L 403.671256 296.780987 
L 411.2163 290.075566 
L 418.896309 283.612198 
L 426.51168 276.788637 
L 434.189023 270.064976 
L 441.826839 262.760235 
L 449.474642 256.116558 
L 457.136698 249.161 
L 464.792417 242.247784 
L 472.410056 234.776713 
L 480.085356 228.205127 
L 487.703345 221.76614 
L 495.353649 215.619542 
L 503.019065 208.80897 
L 510.649965 202.051496 
L 518.306439 196.44388 
L 525.945757 191.056868 
L 533.601936 184.484823 
L 541.242141 179.062296 
L 548.893109 176.03254 
L 556.539946 170.664066 
L 564.18308 166.324675 
L 571.831936 162.912958 
L 579.478276 160.294932 
L 587.126016 157.308938 
L 594.771531 153.462039 
L 602.418712 153.034089 
L 610.066591 146.0898 
L 617.712972 155.272142 
L 625.360813 148.029134 
L 633.007563 143.171164 
L 640.654114 143.142929 
L 648.300801 152.085997 
L 655.948185 143.11348 
L 663.594537 152.389785 
L 671.241569 140.501299 
L 678.88866 145.078648 
L 686.535498 151.034356 
L 694.182219 142.441418 
L 701.828909 146.77506 
L 709.475891 139.437969 
L 717.122808 159.253276 
L 724.769534 140.097891 
L 732.416426 140.978833 
L 740.063378 133.943763 
L 747.710219 133.106753 
L 755.357165 131.412864 
L 763.004056 122.695723 
L 770.650915 118.666931 
L 778.297772 137.64531 
L 785.944648 118.002582 
L 793.591554 165.504156 
L 801.238418 99.789716 
L 808.885279 130.749781 
L 816.532168 114.446985 
L 824.179028 146.955658 
L 831.825916 135.591177 
L 839.472785 126.440411 
L 847.119657 105.293511 
L 854.766535 92.995761 
L 862.413409 257.206505 
L 870.060289 212.195667 
L 877.707164 139.499326 
" style="fill:none;stroke:#e4ff13;stroke-linecap:square;stroke-width:1.5;"/>
   </g>
   <g id="line2d_96">
    <path clip-path="url(#p7f46d338da)" d="M 120.666436 335.9355 
L 154.69202 336.576567 
L 174.595711 337.097818 
L 188.717604 337.614723 
L 199.671395 338.10922 
L 208.621294 338.597371 
L 222.743188 339.36081 
L 228.524985 339.683839 
L 233.696979 339.982278 
L 242.646878 340.594588 
L 250.21391 341.1316 
L 259.744746 341.620395 
L 265.20465 341.870736 
L 274.583272 342.191803 
L 280.601642 342.420584 
L 289.235858 342.588923 
L 296.576152 342.588965 
L 304.143184 341.984147 
L 311.710216 341.583275 
L 319.133924 340.587102 
L 327.068662 338.973566 
L 334.530916 337.197216 
L 342.63444 334.35442 
L 350.048786 331.167298 
L 357.681313 327.806993 
L 365.304414 323.957581 
L 373.063198 319.007273 
L 380.753105 313.575689 
L 388.249961 308.147674 
L 396.027222 301.934261 
L 403.671256 295.54112 
L 411.2163 288.915475 
L 418.896309 282.054929 
L 426.51168 274.863728 
L 434.189023 267.795674 
L 441.826839 260.859125 
L 449.474642 253.55566 
L 457.136698 246.45156 
L 464.792417 238.893025 
L 472.410056 231.7671 
L 480.085356 224.390562 
L 487.703345 217.504721 
L 495.353649 210.0499 
L 503.019065 202.660258 
L 510.649965 196.483405 
L 518.306439 190.47012 
L 525.945757 183.00227 
L 533.601936 177.181358 
L 541.242141 171.513579 
L 548.893109 165.585502 
L 556.539946 160.434424 
L 564.18308 154.251391 
L 571.831936 150.724656 
L 579.478276 145.956755 
L 587.126016 144.643491 
L 594.771531 137.454277 
L 602.418712 134.618941 
L 610.066591 133.627653 
L 617.712972 129.665672 
L 625.360813 132.399168 
L 633.007563 127.772057 
L 640.654114 127.824048 
L 648.300801 124.035703 
L 655.948185 121.801231 
L 663.594537 116.630847 
L 671.241569 119.877718 
L 678.88866 118.732828 
L 686.535498 125.884702 
L 694.182219 132.955929 
L 701.828909 121.905531 
L 709.475891 129.599907 
L 717.122808 120.400886 
L 724.769534 122.816703 
L 732.416426 121.913184 
L 740.063378 122.57409 
L 747.710219 115.860779 
L 755.357165 115.205233 
L 763.004056 99.181031 
L 770.650915 122.761626 
L 778.297772 101.36484 
L 785.944648 105.215458 
L 793.591554 120.059286 
L 801.238418 158.813148 
L 808.885279 112.357491 
L 816.532168 108.143028 
L 824.179028 157.682473 
L 831.825916 227.627675 
L 839.472785 218.001796 
L 847.119657 173.680247 
L 854.766535 255.40422 
L 862.413409 152.563762 
L 870.060289 130.808084 
L 877.707164 246.112629 
" style="fill:none;stroke:#ff9400;stroke-linecap:square;stroke-width:1.5;"/>
   </g>
   <g id="line2d_97">
    <path clip-path="url(#p7f46d338da)" d="M 120.666436 336.015492 
L 154.69202 336.583369 
L 174.595711 337.197219 
L 188.717604 337.694277 
L 199.671395 338.15318 
L 208.621294 338.643407 
L 222.743188 339.364164 
L 228.524985 339.664946 
L 233.696979 340.019494 
L 242.646878 340.486824 
L 250.21391 341.172192 
L 259.744746 341.580079 
L 265.20465 341.980253 
L 274.583272 342.257671 
L 280.601642 342.361174 
L 289.235858 342.23572 
L 296.576152 342.292431 
L 304.143184 341.849975 
L 311.710216 341.026209 
L 319.133924 340.193147 
L 327.068662 338.560537 
L 334.530916 336.491025 
L 342.63444 333.819439 
L 350.048786 330.761335 
L 357.681313 326.754435 
L 365.304414 322.569783 
L 373.063198 317.752548 
L 380.753105 312.329468 
L 388.249961 306.515519 
L 396.027222 300.279122 
L 403.671256 293.585625 
L 411.2163 286.60461 
L 418.896309 279.712996 
L 426.51168 272.809901 
L 434.189023 265.777608 
L 441.826839 258.29323 
L 449.474642 251.116047 
L 457.136698 243.640244 
L 464.792417 236.563196 
L 472.410056 229.553245 
L 480.085356 222.326573 
L 487.703345 215.635593 
L 495.353649 208.473207 
L 503.019065 200.830673 
L 510.649965 194.082043 
L 518.306439 187.416476 
L 525.945757 181.289507 
L 533.601936 174.49095 
L 541.242141 167.78613 
L 548.893109 161.857895 
L 556.539946 156.583565 
L 564.18308 149.553903 
L 571.831936 144.119832 
L 579.478276 140.166657 
L 587.126016 133.676246 
L 594.771531 128.554755 
L 602.418712 122.151242 
L 610.066591 120.079805 
L 617.712972 117.650108 
L 625.360813 109.407213 
L 633.007563 103.970063 
L 640.654114 105.876249 
L 648.300801 104.570168 
L 655.948185 95.441993 
L 663.594537 93.619494 
L 671.241569 93.617763 
L 678.88866 84.086084 
L 686.535498 86.010176 
L 694.182219 81.610163 
L 701.828909 87.81213 
L 709.475891 79.468506 
L 717.122808 82.35772 
L 724.769534 77.40045 
L 732.416426 100.486616 
L 740.063378 56.336073 
L 747.710219 81.403932 
L 755.357165 83.826687 
L 763.004056 82.920869 
L 770.650915 84.580874 
L 778.297772 95.075541 
L 785.944648 102.697756 
L 793.591554 68.638713 
L 801.238418 59.026524 
L 808.885279 50.882727 
L 816.532168 85.333589 
L 824.179028 118.831418 
L 831.825916 56.702222 
L 839.472785 108.254008 
L 847.119657 140.828967 
L 854.766535 82.296648 
L 862.413409 204.205886 
L 870.060289 295.646898 
L 877.707164 266.975361 
" style="fill:none;stroke:#ff1e00;stroke-linecap:square;stroke-width:1.5;"/>
   </g>
   <g id="patch_3">
    <path d="M 82.8144 440.3052 
L 82.8144 32.3388 
" style="fill:none;stroke:#000000;stroke-linecap:square;stroke-linejoin:miter;stroke-width:0.8;"/>
   </g>
   <g id="patch_4">
    <path d="M 915.5592 440.3052 
L 915.5592 32.3388 
" style="fill:none;stroke:#000000;stroke-linecap:square;stroke-linejoin:miter;stroke-width:0.8;"/>
   </g>
   <g id="patch_5">
    <path d="M 82.8144 440.3052 
L 915.5592 440.3052 
" style="fill:none;stroke:#000000;stroke-linecap:square;stroke-linejoin:miter;stroke-width:0.8;"/>
   </g>
   <g id="patch_6">
    <path d="M 82.8144 32.3388 
L 915.5592 32.3388 
" style="fill:none;stroke:#000000;stroke-linecap:square;stroke-linejoin:miter;stroke-width:0.8;"/>
   </g>
   <g id="text_13">
    <!-- $\phi = 0.65, l_p/\sigma = 10$ $(N_{iter}=10^7, dt=10^{-3})$ -->
    <defs>
     <path d="M 46.734375 75.984375 
L 42.78125 55.8125 
Q 52.546875 55.8125 57.5625 48.34375 
Q 62.75 40.71875 60.15625 27.296875 
Q 57.515625 13.875 49.359375 6.25 
Q 41.453125 -1.21875 31.6875 -1.21875 
L 27.875 -20.796875 
L 18.953125 -20.796875 
L 22.75 -1.21875 
Q 13.03125 -1.21875 7.953125 6.25 
Q 2.78125 13.875 5.421875 27.296875 
Q 8.015625 40.71875 16.15625 48.34375 
Q 24.125 55.8125 33.84375 55.8125 
L 37.796875 75.984375 
z
M 33.25 6.78125 
Q 38.765625 6.78125 43.5 11.8125 
Q 48.6875 17.4375 50.6875 27.296875 
Q 52.640625 37.0625 49.515625 42.78125 
Q 46.734375 47.796875 41.21875 47.796875 
z
M 24.3125 6.78125 
L 32.28125 47.796875 
Q 26.8125 47.796875 22.078125 42.78125 
Q 16.75 37.0625 14.890625 27.296875 
Q 13.03125 17.4375 16.0625 11.8125 
Q 18.796875 6.78125 24.3125 6.78125 
z
" id="DejaVuSans-Oblique-981"/>
     <path d="M 10.59375 45.40625 
L 73.1875 45.40625 
L 73.1875 37.203125 
L 10.59375 37.203125 
z
M 10.59375 25.484375 
L 73.1875 25.484375 
L 73.1875 17.1875 
L 10.59375 17.1875 
z
" id="DejaVuSans-61"/>
     <path d="M 10.6875 12.40625 
L 21 12.40625 
L 21 0 
L 10.6875 0 
z
" id="DejaVuSans-46"/>
     <path d="M 33.015625 40.375 
Q 26.375 40.375 22.484375 35.828125 
Q 18.609375 31.296875 18.609375 23.390625 
Q 18.609375 15.53125 22.484375 10.953125 
Q 26.375 6.390625 33.015625 6.390625 
Q 39.65625 6.390625 43.53125 10.953125 
Q 47.40625 15.53125 47.40625 23.390625 
Q 47.40625 31.296875 43.53125 35.828125 
Q 39.65625 40.375 33.015625 40.375 
z
M 52.59375 71.296875 
L 52.59375 62.3125 
Q 48.875 64.0625 45.09375 64.984375 
Q 41.3125 65.921875 37.59375 65.921875 
Q 27.828125 65.921875 22.671875 59.328125 
Q 17.53125 52.734375 16.796875 39.40625 
Q 19.671875 43.65625 24.015625 45.921875 
Q 28.375 48.1875 33.59375 48.1875 
Q 44.578125 48.1875 50.953125 41.515625 
Q 57.328125 34.859375 57.328125 23.390625 
Q 57.328125 12.15625 50.6875 5.359375 
Q 44.046875 -1.421875 33.015625 -1.421875 
Q 20.359375 -1.421875 13.671875 8.265625 
Q 6.984375 17.96875 6.984375 36.375 
Q 6.984375 53.65625 15.1875 63.9375 
Q 23.390625 74.21875 37.203125 74.21875 
Q 40.921875 74.21875 44.703125 73.484375 
Q 48.484375 72.75 52.59375 71.296875 
z
" id="DejaVuSans-54"/>
     <path d="M 10.796875 72.90625 
L 49.515625 72.90625 
L 49.515625 64.59375 
L 19.828125 64.59375 
L 19.828125 46.734375 
Q 21.96875 47.46875 24.109375 47.828125 
Q 26.265625 48.1875 28.421875 48.1875 
Q 40.625 48.1875 47.75 41.5 
Q 54.890625 34.8125 54.890625 23.390625 
Q 54.890625 11.625 47.5625 5.09375 
Q 40.234375 -1.421875 26.90625 -1.421875 
Q 22.3125 -1.421875 17.546875 -0.640625 
Q 12.796875 0.140625 7.71875 1.703125 
L 7.71875 11.625 
Q 12.109375 9.234375 16.796875 8.0625 
Q 21.484375 6.890625 26.703125 6.890625 
Q 35.15625 6.890625 40.078125 11.328125 
Q 45.015625 15.765625 45.015625 23.390625 
Q 45.015625 31 40.078125 35.4375 
Q 35.15625 39.890625 26.703125 39.890625 
Q 22.75 39.890625 18.8125 39.015625 
Q 14.890625 38.140625 10.796875 36.28125 
z
" id="DejaVuSans-53"/>
     <path d="M 11.71875 12.40625 
L 22.015625 12.40625 
L 22.015625 4 
L 14.015625 -11.625 
L 7.71875 -11.625 
L 11.71875 4 
z
" id="DejaVuSans-44"/>
     <path id="DejaVuSans-32"/>
     <path d="M 18.3125 75.984375 
L 27.296875 75.984375 
L 25.09375 64.59375 
L 16.109375 64.59375 
z
M 14.203125 54.6875 
L 23.1875 54.6875 
L 12.5 0 
L 3.515625 0 
z
" id="DejaVuSans-Oblique-105"/>
     <path d="M 48.09375 32.234375 
Q 48.25 33.015625 48.3125 33.84375 
Q 48.390625 34.671875 48.390625 35.5 
Q 48.390625 41.453125 44.890625 44.921875 
Q 41.40625 48.390625 35.40625 48.390625 
Q 28.71875 48.390625 23.578125 44.15625 
Q 18.453125 39.9375 15.828125 32.171875 
z
M 55.90625 25.203125 
L 14.109375 25.203125 
Q 13.8125 23.34375 13.71875 22.265625 
Q 13.625 21.1875 13.625 20.40625 
Q 13.625 13.625 17.796875 9.90625 
Q 21.96875 6.203125 29.59375 6.203125 
Q 35.453125 6.203125 40.671875 7.515625 
Q 45.90625 8.84375 50.390625 11.375 
L 48.6875 2.484375 
Q 43.84375 0.53125 38.6875 -0.4375 
Q 33.546875 -1.421875 28.21875 -1.421875 
Q 16.84375 -1.421875 10.71875 4.015625 
Q 4.59375 9.46875 4.59375 19.484375 
Q 4.59375 28.03125 7.640625 35.375 
Q 10.6875 42.71875 16.609375 48.484375 
Q 20.40625 52.09375 25.65625 54.046875 
Q 30.90625 56 36.8125 56 
Q 46.09375 56 51.578125 50.4375 
Q 57.078125 44.875 57.078125 35.5 
Q 57.078125 33.25 56.78125 30.6875 
Q 56.5 28.125 55.90625 25.203125 
z
" id="DejaVuSans-Oblique-101"/>
     <path d="M 44.578125 46.390625 
Q 43.21875 47.125 41.453125 47.515625 
Q 39.703125 47.90625 37.703125 47.90625 
Q 30.515625 47.90625 25.140625 42.453125 
Q 19.78125 37.015625 18.015625 27.875 
L 12.5 0 
L 3.515625 0 
L 14.203125 54.6875 
L 23.1875 54.6875 
L 21.484375 46.1875 
Q 25.046875 50.921875 30 53.453125 
Q 34.96875 56 40.578125 56 
Q 42.046875 56 43.453125 55.828125 
Q 44.875 55.671875 46.296875 55.28125 
z
" id="DejaVuSans-Oblique-114"/>
     <path d="M 8.203125 72.90625 
L 55.078125 72.90625 
L 55.078125 68.703125 
L 28.609375 0 
L 18.3125 0 
L 43.21875 64.59375 
L 8.203125 64.59375 
z
" id="DejaVuSans-55"/>
     <path d="M 41.796875 8.203125 
Q 38.1875 3.46875 33.25 1.015625 
Q 28.328125 -1.421875 22.3125 -1.421875 
Q 14.109375 -1.421875 9.34375 4.171875 
Q 4.59375 9.765625 4.59375 19.484375 
Q 4.59375 27.59375 7.46875 34.9375 
Q 10.359375 42.28125 15.828125 48.09375 
Q 19.4375 51.953125 23.96875 53.96875 
Q 28.515625 56 33.5 56 
Q 38.765625 56 42.796875 53.453125 
Q 46.828125 50.921875 49.03125 46.1875 
L 54.890625 75.984375 
L 63.921875 75.984375 
L 49.125 0 
L 40.09375 0 
z
M 13.921875 21.09375 
Q 13.921875 14.015625 17.109375 10.0625 
Q 20.3125 6.109375 25.984375 6.109375 
Q 30.171875 6.109375 33.765625 8.125 
Q 37.359375 10.15625 40.09375 14.109375 
Q 42.96875 18.21875 44.625 23.578125 
Q 46.296875 28.953125 46.296875 34.1875 
Q 46.296875 40.96875 43.09375 44.765625 
Q 39.890625 48.578125 34.28125 48.578125 
Q 30.03125 48.578125 26.359375 46.578125 
Q 22.703125 44.578125 20.125 40.828125 
Q 17.28125 36.765625 15.59375 31.390625 
Q 13.921875 26.03125 13.921875 21.09375 
z
" id="DejaVuSans-Oblique-100"/>
    </defs>
    <g transform="translate(259.1868 24.8988)scale(0.24 -0.24)">
     <use transform="translate(0 0.765625)" xlink:href="#DejaVuSans-Oblique-981"/>
     <use transform="translate(85.449219 0.765625)" xlink:href="#DejaVuSans-61"/>
     <use transform="translate(188.720703 0.765625)" xlink:href="#DejaVuSans-48"/>
     <use transform="translate(252.34375 0.765625)" xlink:href="#DejaVuSans-46"/>
     <use transform="translate(284.130859 0.765625)" xlink:href="#DejaVuSans-54"/>
     <use transform="translate(347.753906 0.765625)" xlink:href="#DejaVuSans-53"/>
     <use transform="translate(411.376953 0.765625)" xlink:href="#DejaVuSans-44"/>
     <use transform="translate(462.646484 0.765625)" xlink:href="#DejaVuSans-Oblique-108"/>
     <use transform="translate(490.429688 -15.640625)scale(0.7)" xlink:href="#DejaVuSans-Oblique-112"/>
     <use transform="translate(537.597656 0.765625)" xlink:href="#DejaVuSans-47"/>
     <use transform="translate(571.289062 0.765625)" xlink:href="#DejaVuSans-Oblique-963"/>
     <use transform="translate(654.150391 0.765625)" xlink:href="#DejaVuSans-61"/>
     <use transform="translate(757.421875 0.765625)" xlink:href="#DejaVuSans-49"/>
     <use transform="translate(821.044922 0.765625)" xlink:href="#DejaVuSans-48"/>
     <use transform="translate(884.667969 0.765625)" xlink:href="#DejaVuSans-32"/>
     <use transform="translate(916.455078 0.765625)" xlink:href="#DejaVuSans-40"/>
     <use transform="translate(955.46875 0.765625)" xlink:href="#DejaVuSans-Oblique-78"/>
     <use transform="translate(1030.273438 -15.640625)scale(0.7)" xlink:href="#DejaVuSans-Oblique-105"/>
     <use transform="translate(1049.72168 -15.640625)scale(0.7)" xlink:href="#DejaVuSans-Oblique-116"/>
     <use transform="translate(1077.167969 -15.640625)scale(0.7)" xlink:href="#DejaVuSans-Oblique-101"/>
     <use transform="translate(1120.234375 -15.640625)scale(0.7)" xlink:href="#DejaVuSans-Oblique-114"/>
     <use transform="translate(1171.230469 0.765625)" xlink:href="#DejaVuSans-61"/>
     <use transform="translate(1274.501953 0.765625)" xlink:href="#DejaVuSans-49"/>
     <use transform="translate(1338.125 0.765625)" xlink:href="#DejaVuSans-48"/>
     <use transform="translate(1402.705078 39.046875)scale(0.7)" xlink:href="#DejaVuSans-55"/>
     <use transform="translate(1449.975586 0.765625)" xlink:href="#DejaVuSans-44"/>
     <use transform="translate(1501.245117 0.765625)" xlink:href="#DejaVuSans-Oblique-100"/>
     <use transform="translate(1564.72168 0.765625)" xlink:href="#DejaVuSans-Oblique-116"/>
     <use transform="translate(1623.413086 0.765625)" xlink:href="#DejaVuSans-61"/>
     <use transform="translate(1726.68457 0.765625)" xlink:href="#DejaVuSans-49"/>
     <use transform="translate(1790.307617 0.765625)" xlink:href="#DejaVuSans-48"/>
     <use transform="translate(1854.887695 39.046875)scale(0.7)" xlink:href="#DejaVuSans-8722"/>
     <use transform="translate(1913.540039 39.046875)scale(0.7)" xlink:href="#DejaVuSans-51"/>
     <use transform="translate(1960.810547 0.765625)" xlink:href="#DejaVuSans-41"/>
    </g>
   </g>
   <g id="legend_1">
    <g id="patch_7">
     <path d="M 91.2144 165.23505 
L 183.9744 165.23505 
Q 186.3744 165.23505 186.3744 162.83505 
L 186.3744 40.7388 
Q 186.3744 38.3388 183.9744 38.3388 
L 91.2144 38.3388 
Q 88.8144 38.3388 88.8144 40.7388 
L 88.8144 162.83505 
Q 88.8144 165.23505 91.2144 165.23505 
z
" style="fill:#ffffff;opacity:0.8;stroke:#cccccc;stroke-linejoin:miter;"/>
    </g>
    <g id="line2d_98">
     <path d="M 93.6144 48.056925 
L 117.6144 48.056925 
" style="fill:none;stroke:#0000ff;stroke-linecap:square;stroke-width:1.5;"/>
    </g>
    <g id="line2d_99"/>
    <g id="text_14">
     <!-- $N = 10$ -->
     <g transform="translate(127.2144 52.256925)scale(0.12 -0.12)">
      <use transform="translate(0 0.78125)" xlink:href="#DejaVuSans-Oblique-78"/>
      <use transform="translate(94.287109 0.78125)" xlink:href="#DejaVuSans-61"/>
      <use transform="translate(197.558594 0.78125)" xlink:href="#DejaVuSans-49"/>
      <use transform="translate(261.181641 0.78125)" xlink:href="#DejaVuSans-48"/>
     </g>
    </g>
    <g id="line2d_100">
     <path d="M 93.6144 65.670675 
L 117.6144 65.670675 
" style="fill:none;stroke:#0080ff;stroke-linecap:square;stroke-width:1.5;"/>
    </g>
    <g id="line2d_101"/>
    <g id="text_15">
     <!-- $N = 20$ -->
     <g transform="translate(127.2144 69.870675)scale(0.12 -0.12)">
      <use transform="translate(0 0.78125)" xlink:href="#DejaVuSans-Oblique-78"/>
      <use transform="translate(94.287109 0.78125)" xlink:href="#DejaVuSans-61"/>
      <use transform="translate(197.558594 0.78125)" xlink:href="#DejaVuSans-50"/>
      <use transform="translate(261.181641 0.78125)" xlink:href="#DejaVuSans-48"/>
     </g>
    </g>
    <g id="line2d_102">
     <path d="M 93.6144 83.284425 
L 117.6144 83.284425 
" style="fill:none;stroke:#16ffe1;stroke-linecap:square;stroke-width:1.5;"/>
    </g>
    <g id="line2d_103"/>
    <g id="text_16">
     <!-- $N = 50$ -->
     <g transform="translate(127.2144 87.484425)scale(0.12 -0.12)">
      <use transform="translate(0 0.78125)" xlink:href="#DejaVuSans-Oblique-78"/>
      <use transform="translate(94.287109 0.78125)" xlink:href="#DejaVuSans-61"/>
      <use transform="translate(197.558594 0.78125)" xlink:href="#DejaVuSans-53"/>
      <use transform="translate(261.181641 0.78125)" xlink:href="#DejaVuSans-48"/>
     </g>
    </g>
    <g id="line2d_104">
     <path d="M 93.6144 100.898175 
L 117.6144 100.898175 
" style="fill:none;stroke:#7dff7a;stroke-linecap:square;stroke-width:1.5;"/>
    </g>
    <g id="line2d_105"/>
    <g id="text_17">
     <!-- $N = 100$ -->
     <g transform="translate(127.2144 105.098175)scale(0.12 -0.12)">
      <use transform="translate(0 0.78125)" xlink:href="#DejaVuSans-Oblique-78"/>
      <use transform="translate(94.287109 0.78125)" xlink:href="#DejaVuSans-61"/>
      <use transform="translate(197.558594 0.78125)" xlink:href="#DejaVuSans-49"/>
      <use transform="translate(261.181641 0.78125)" xlink:href="#DejaVuSans-48"/>
      <use transform="translate(324.804688 0.78125)" xlink:href="#DejaVuSans-48"/>
     </g>
    </g>
    <g id="line2d_106">
     <path d="M 93.6144 118.511925 
L 117.6144 118.511925 
" style="fill:none;stroke:#e4ff13;stroke-linecap:square;stroke-width:1.5;"/>
    </g>
    <g id="line2d_107"/>
    <g id="text_18">
     <!-- $N = 200$ -->
     <g transform="translate(127.2144 122.711925)scale(0.12 -0.12)">
      <use transform="translate(0 0.78125)" xlink:href="#DejaVuSans-Oblique-78"/>
      <use transform="translate(94.287109 0.78125)" xlink:href="#DejaVuSans-61"/>
      <use transform="translate(197.558594 0.78125)" xlink:href="#DejaVuSans-50"/>
      <use transform="translate(261.181641 0.78125)" xlink:href="#DejaVuSans-48"/>
      <use transform="translate(324.804688 0.78125)" xlink:href="#DejaVuSans-48"/>
     </g>
    </g>
    <g id="line2d_108">
     <path d="M 93.6144 136.125675 
L 117.6144 136.125675 
" style="fill:none;stroke:#ff9400;stroke-linecap:square;stroke-width:1.5;"/>
    </g>
    <g id="line2d_109"/>
    <g id="text_19">
     <!-- $N = 500$ -->
     <g transform="translate(127.2144 140.325675)scale(0.12 -0.12)">
      <use transform="translate(0 0.78125)" xlink:href="#DejaVuSans-Oblique-78"/>
      <use transform="translate(94.287109 0.78125)" xlink:href="#DejaVuSans-61"/>
      <use transform="translate(197.558594 0.78125)" xlink:href="#DejaVuSans-53"/>
      <use transform="translate(261.181641 0.78125)" xlink:href="#DejaVuSans-48"/>
      <use transform="translate(324.804688 0.78125)" xlink:href="#DejaVuSans-48"/>
     </g>
    </g>
    <g id="line2d_110">
     <path d="M 93.6144 153.739425 
L 117.6144 153.739425 
" style="fill:none;stroke:#ff1e00;stroke-linecap:square;stroke-width:1.5;"/>
    </g>
    <g id="line2d_111"/>
    <g id="text_20">
     <!-- $N = 1000$ -->
     <g transform="translate(127.2144 157.939425)scale(0.12 -0.12)">
      <use transform="translate(0 0.78125)" xlink:href="#DejaVuSans-Oblique-78"/>
      <use transform="translate(94.287109 0.78125)" xlink:href="#DejaVuSans-61"/>
      <use transform="translate(197.558594 0.78125)" xlink:href="#DejaVuSans-49"/>
      <use transform="translate(261.181641 0.78125)" xlink:href="#DejaVuSans-48"/>
      <use transform="translate(324.804688 0.78125)" xlink:href="#DejaVuSans-48"/>
      <use transform="translate(388.427734 0.78125)" xlink:href="#DejaVuSans-48"/>
     </g>
    </g>
   </g>
  </g>
 </g>
 <defs>
  <clipPath id="p7f46d338da">
   <rect height="407.9664" width="832.7448" x="82.8144" y="32.3388"/>
  </clipPath>
 </defs>
</svg>
