<?xml version="1.0" encoding="utf-8" standalone="no"?>
<!DOCTYPE svg PUBLIC "-//W3C//DTD SVG 1.1//EN"
  "http://www.w3.org/Graphics/SVG/1.1/DTD/svg11.dtd">
<!-- Created with matplotlib (https://matplotlib.org/) -->
<svg height="497.52pt" version="1.1" viewBox="0 0 920.16 497.52" width="920.16pt" xmlns="http://www.w3.org/2000/svg" xmlns:xlink="http://www.w3.org/1999/xlink">
 <defs>
  <style type="text/css">
*{stroke-linecap:butt;stroke-linejoin:round;}
  </style>
 </defs>
 <g id="figure_1">
  <g id="patch_1">
   <path d="M 0 497.52 
L 920.16 497.52 
L 920.16 0 
L 0 0 
z
" style="fill:#ffffff;"/>
  </g>
  <g id="axes_1">
   <g id="patch_2">
    <path d="M 87.4152 440.3052 
L 915.5592 440.3052 
L 915.5592 32.3388 
L 87.4152 32.3388 
z
" style="fill:#ffffff;"/>
   </g>
   <g id="matplotlib.axis_1">
    <g id="xtick_1">
     <g id="line2d_1">
      <defs>
       <path d="M 0 0 
L 0 3.5 
" id="m436b93d037" style="stroke:#000000;stroke-width:0.8;"/>
      </defs>
      <g>
       <use style="stroke:#000000;stroke-width:0.8;" x="91.193922" xlink:href="#m436b93d037" y="440.3052"/>
      </g>
     </g>
     <g id="text_1">
      <!-- $\mathdefault{10^{-5}}$ -->
      <defs>
       <path d="M 12.40625 8.296875 
L 28.515625 8.296875 
L 28.515625 63.921875 
L 10.984375 60.40625 
L 10.984375 69.390625 
L 28.421875 72.90625 
L 38.28125 72.90625 
L 38.28125 8.296875 
L 54.390625 8.296875 
L 54.390625 0 
L 12.40625 0 
z
" id="DejaVuSans-49"/>
       <path d="M 31.78125 66.40625 
Q 24.171875 66.40625 20.328125 58.90625 
Q 16.5 51.421875 16.5 36.375 
Q 16.5 21.390625 20.328125 13.890625 
Q 24.171875 6.390625 31.78125 6.390625 
Q 39.453125 6.390625 43.28125 13.890625 
Q 47.125 21.390625 47.125 36.375 
Q 47.125 51.421875 43.28125 58.90625 
Q 39.453125 66.40625 31.78125 66.40625 
z
M 31.78125 74.21875 
Q 44.046875 74.21875 50.515625 64.515625 
Q 56.984375 54.828125 56.984375 36.375 
Q 56.984375 17.96875 50.515625 8.265625 
Q 44.046875 -1.421875 31.78125 -1.421875 
Q 19.53125 -1.421875 13.0625 8.265625 
Q 6.59375 17.96875 6.59375 36.375 
Q 6.59375 54.828125 13.0625 64.515625 
Q 19.53125 74.21875 31.78125 74.21875 
z
" id="DejaVuSans-48"/>
       <path d="M 10.59375 35.5 
L 73.1875 35.5 
L 73.1875 27.203125 
L 10.59375 27.203125 
z
" id="DejaVuSans-8722"/>
       <path d="M 10.796875 72.90625 
L 49.515625 72.90625 
L 49.515625 64.59375 
L 19.828125 64.59375 
L 19.828125 46.734375 
Q 21.96875 47.46875 24.109375 47.828125 
Q 26.265625 48.1875 28.421875 48.1875 
Q 40.625 48.1875 47.75 41.5 
Q 54.890625 34.8125 54.890625 23.390625 
Q 54.890625 11.625 47.5625 5.09375 
Q 40.234375 -1.421875 26.90625 -1.421875 
Q 22.3125 -1.421875 17.546875 -0.640625 
Q 12.796875 0.140625 7.71875 1.703125 
L 7.71875 11.625 
Q 12.109375 9.234375 16.796875 8.0625 
Q 21.484375 6.890625 26.703125 6.890625 
Q 35.15625 6.890625 40.078125 11.328125 
Q 45.015625 15.765625 45.015625 23.390625 
Q 45.015625 31 40.078125 35.4375 
Q 35.15625 39.890625 26.703125 39.890625 
Q 22.75 39.890625 18.8125 39.015625 
Q 14.890625 38.140625 10.796875 36.28125 
z
" id="DejaVuSans-53"/>
      </defs>
      <g transform="translate(67.693922 462.502075)scale(0.2 -0.2)">
       <use transform="translate(0 0.684375)" xlink:href="#DejaVuSans-49"/>
       <use transform="translate(63.623047 0.684375)" xlink:href="#DejaVuSans-48"/>
       <use transform="translate(128.203125 38.965625)scale(0.7)" xlink:href="#DejaVuSans-8722"/>
       <use transform="translate(186.855469 38.965625)scale(0.7)" xlink:href="#DejaVuSans-53"/>
      </g>
     </g>
    </g>
    <g id="xtick_2">
     <g id="line2d_2">
      <g>
       <use style="stroke:#000000;stroke-width:0.8;" x="203.688316" xlink:href="#m436b93d037" y="440.3052"/>
      </g>
     </g>
     <g id="text_2">
      <!-- $\mathdefault{10^{-4}}$ -->
      <defs>
       <path d="M 37.796875 64.3125 
L 12.890625 25.390625 
L 37.796875 25.390625 
z
M 35.203125 72.90625 
L 47.609375 72.90625 
L 47.609375 25.390625 
L 58.015625 25.390625 
L 58.015625 17.1875 
L 47.609375 17.1875 
L 47.609375 0 
L 37.796875 0 
L 37.796875 17.1875 
L 4.890625 17.1875 
L 4.890625 26.703125 
z
" id="DejaVuSans-52"/>
      </defs>
      <g transform="translate(180.188316 462.502075)scale(0.2 -0.2)">
       <use transform="translate(0 0.684375)" xlink:href="#DejaVuSans-49"/>
       <use transform="translate(63.623047 0.684375)" xlink:href="#DejaVuSans-48"/>
       <use transform="translate(128.203125 38.965625)scale(0.7)" xlink:href="#DejaVuSans-8722"/>
       <use transform="translate(186.855469 38.965625)scale(0.7)" xlink:href="#DejaVuSans-52"/>
      </g>
     </g>
    </g>
    <g id="xtick_3">
     <g id="line2d_3">
      <g>
       <use style="stroke:#000000;stroke-width:0.8;" x="316.18271" xlink:href="#m436b93d037" y="440.3052"/>
      </g>
     </g>
     <g id="text_3">
      <!-- $\mathdefault{10^{-3}}$ -->
      <defs>
       <path d="M 40.578125 39.3125 
Q 47.65625 37.796875 51.625 33 
Q 55.609375 28.21875 55.609375 21.1875 
Q 55.609375 10.40625 48.1875 4.484375 
Q 40.765625 -1.421875 27.09375 -1.421875 
Q 22.515625 -1.421875 17.65625 -0.515625 
Q 12.796875 0.390625 7.625 2.203125 
L 7.625 11.71875 
Q 11.71875 9.328125 16.59375 8.109375 
Q 21.484375 6.890625 26.8125 6.890625 
Q 36.078125 6.890625 40.9375 10.546875 
Q 45.796875 14.203125 45.796875 21.1875 
Q 45.796875 27.640625 41.28125 31.265625 
Q 36.765625 34.90625 28.71875 34.90625 
L 20.21875 34.90625 
L 20.21875 43.015625 
L 29.109375 43.015625 
Q 36.375 43.015625 40.234375 45.921875 
Q 44.09375 48.828125 44.09375 54.296875 
Q 44.09375 59.90625 40.109375 62.90625 
Q 36.140625 65.921875 28.71875 65.921875 
Q 24.65625 65.921875 20.015625 65.03125 
Q 15.375 64.15625 9.8125 62.3125 
L 9.8125 71.09375 
Q 15.4375 72.65625 20.34375 73.4375 
Q 25.25 74.21875 29.59375 74.21875 
Q 40.828125 74.21875 47.359375 69.109375 
Q 53.90625 64.015625 53.90625 55.328125 
Q 53.90625 49.265625 50.4375 45.09375 
Q 46.96875 40.921875 40.578125 39.3125 
z
" id="DejaVuSans-51"/>
      </defs>
      <g transform="translate(292.68271 462.502075)scale(0.2 -0.2)">
       <use transform="translate(0 0.765625)" xlink:href="#DejaVuSans-49"/>
       <use transform="translate(63.623047 0.765625)" xlink:href="#DejaVuSans-48"/>
       <use transform="translate(128.203125 39.046875)scale(0.7)" xlink:href="#DejaVuSans-8722"/>
       <use transform="translate(186.855469 39.046875)scale(0.7)" xlink:href="#DejaVuSans-51"/>
      </g>
     </g>
    </g>
    <g id="xtick_4">
     <g id="line2d_4">
      <g>
       <use style="stroke:#000000;stroke-width:0.8;" x="428.677103" xlink:href="#m436b93d037" y="440.3052"/>
      </g>
     </g>
     <g id="text_4">
      <!-- $\mathdefault{10^{-2}}$ -->
      <defs>
       <path d="M 19.1875 8.296875 
L 53.609375 8.296875 
L 53.609375 0 
L 7.328125 0 
L 7.328125 8.296875 
Q 12.9375 14.109375 22.625 23.890625 
Q 32.328125 33.6875 34.8125 36.53125 
Q 39.546875 41.84375 41.421875 45.53125 
Q 43.3125 49.21875 43.3125 52.78125 
Q 43.3125 58.59375 39.234375 62.25 
Q 35.15625 65.921875 28.609375 65.921875 
Q 23.96875 65.921875 18.8125 64.3125 
Q 13.671875 62.703125 7.8125 59.421875 
L 7.8125 69.390625 
Q 13.765625 71.78125 18.9375 73 
Q 24.125 74.21875 28.421875 74.21875 
Q 39.75 74.21875 46.484375 68.546875 
Q 53.21875 62.890625 53.21875 53.421875 
Q 53.21875 48.921875 51.53125 44.890625 
Q 49.859375 40.875 45.40625 35.40625 
Q 44.1875 33.984375 37.640625 27.21875 
Q 31.109375 20.453125 19.1875 8.296875 
z
" id="DejaVuSans-50"/>
      </defs>
      <g transform="translate(405.177103 462.502075)scale(0.2 -0.2)">
       <use transform="translate(0 0.765625)" xlink:href="#DejaVuSans-49"/>
       <use transform="translate(63.623047 0.765625)" xlink:href="#DejaVuSans-48"/>
       <use transform="translate(128.203125 39.046875)scale(0.7)" xlink:href="#DejaVuSans-8722"/>
       <use transform="translate(186.855469 39.046875)scale(0.7)" xlink:href="#DejaVuSans-50"/>
      </g>
     </g>
    </g>
    <g id="xtick_5">
     <g id="line2d_5">
      <g>
       <use style="stroke:#000000;stroke-width:0.8;" x="541.171497" xlink:href="#m436b93d037" y="440.3052"/>
      </g>
     </g>
     <g id="text_5">
      <!-- $\mathdefault{10^{-1}}$ -->
      <g transform="translate(517.671497 462.502075)scale(0.2 -0.2)">
       <use transform="translate(0 0.684375)" xlink:href="#DejaVuSans-49"/>
       <use transform="translate(63.623047 0.684375)" xlink:href="#DejaVuSans-48"/>
       <use transform="translate(128.203125 38.965625)scale(0.7)" xlink:href="#DejaVuSans-8722"/>
       <use transform="translate(186.855469 38.965625)scale(0.7)" xlink:href="#DejaVuSans-49"/>
      </g>
     </g>
    </g>
    <g id="xtick_6">
     <g id="line2d_6">
      <g>
       <use style="stroke:#000000;stroke-width:0.8;" x="653.665891" xlink:href="#m436b93d037" y="440.3052"/>
      </g>
     </g>
     <g id="text_6">
      <!-- $\mathdefault{10^{0}}$ -->
      <g transform="translate(636.065891 462.502075)scale(0.2 -0.2)">
       <use transform="translate(0 0.765625)" xlink:href="#DejaVuSans-49"/>
       <use transform="translate(63.623047 0.765625)" xlink:href="#DejaVuSans-48"/>
       <use transform="translate(128.203125 39.046875)scale(0.7)" xlink:href="#DejaVuSans-48"/>
      </g>
     </g>
    </g>
    <g id="xtick_7">
     <g id="line2d_7">
      <g>
       <use style="stroke:#000000;stroke-width:0.8;" x="766.160284" xlink:href="#m436b93d037" y="440.3052"/>
      </g>
     </g>
     <g id="text_7">
      <!-- $\mathdefault{10^{1}}$ -->
      <g transform="translate(748.560284 462.502075)scale(0.2 -0.2)">
       <use transform="translate(0 0.684375)" xlink:href="#DejaVuSans-49"/>
       <use transform="translate(63.623047 0.684375)" xlink:href="#DejaVuSans-48"/>
       <use transform="translate(128.203125 38.965625)scale(0.7)" xlink:href="#DejaVuSans-49"/>
      </g>
     </g>
    </g>
    <g id="xtick_8">
     <g id="line2d_8">
      <g>
       <use style="stroke:#000000;stroke-width:0.8;" x="878.654678" xlink:href="#m436b93d037" y="440.3052"/>
      </g>
     </g>
     <g id="text_8">
      <!-- $\mathdefault{10^{2}}$ -->
      <g transform="translate(861.054678 462.502075)scale(0.2 -0.2)">
       <use transform="translate(0 0.765625)" xlink:href="#DejaVuSans-49"/>
       <use transform="translate(63.623047 0.765625)" xlink:href="#DejaVuSans-48"/>
       <use transform="translate(128.203125 39.046875)scale(0.7)" xlink:href="#DejaVuSans-50"/>
      </g>
     </g>
    </g>
    <g id="xtick_9">
     <g id="line2d_9">
      <defs>
       <path d="M 0 0 
L 0 2 
" id="mbaaee5330c" style="stroke:#000000;stroke-width:0.6;"/>
      </defs>
      <g>
       <use style="stroke:#000000;stroke-width:0.6;" x="125.058109" xlink:href="#mbaaee5330c" y="440.3052"/>
      </g>
     </g>
    </g>
    <g id="xtick_10">
     <g id="line2d_10">
      <g>
       <use style="stroke:#000000;stroke-width:0.6;" x="144.867389" xlink:href="#mbaaee5330c" y="440.3052"/>
      </g>
     </g>
    </g>
    <g id="xtick_11">
     <g id="line2d_11">
      <g>
       <use style="stroke:#000000;stroke-width:0.6;" x="158.922296" xlink:href="#mbaaee5330c" y="440.3052"/>
      </g>
     </g>
    </g>
    <g id="xtick_12">
     <g id="line2d_12">
      <g>
       <use style="stroke:#000000;stroke-width:0.6;" x="169.824129" xlink:href="#mbaaee5330c" y="440.3052"/>
      </g>
     </g>
    </g>
    <g id="xtick_13">
     <g id="line2d_13">
      <g>
       <use style="stroke:#000000;stroke-width:0.6;" x="178.731575" xlink:href="#mbaaee5330c" y="440.3052"/>
      </g>
     </g>
    </g>
    <g id="xtick_14">
     <g id="line2d_14">
      <g>
       <use style="stroke:#000000;stroke-width:0.6;" x="186.262714" xlink:href="#mbaaee5330c" y="440.3052"/>
      </g>
     </g>
    </g>
    <g id="xtick_15">
     <g id="line2d_15">
      <g>
       <use style="stroke:#000000;stroke-width:0.6;" x="192.786483" xlink:href="#mbaaee5330c" y="440.3052"/>
      </g>
     </g>
    </g>
    <g id="xtick_16">
     <g id="line2d_16">
      <g>
       <use style="stroke:#000000;stroke-width:0.6;" x="198.540855" xlink:href="#mbaaee5330c" y="440.3052"/>
      </g>
     </g>
    </g>
    <g id="xtick_17">
     <g id="line2d_17">
      <g>
       <use style="stroke:#000000;stroke-width:0.6;" x="237.552503" xlink:href="#mbaaee5330c" y="440.3052"/>
      </g>
     </g>
    </g>
    <g id="xtick_18">
     <g id="line2d_18">
      <g>
       <use style="stroke:#000000;stroke-width:0.6;" x="257.361782" xlink:href="#mbaaee5330c" y="440.3052"/>
      </g>
     </g>
    </g>
    <g id="xtick_19">
     <g id="line2d_19">
      <g>
       <use style="stroke:#000000;stroke-width:0.6;" x="271.41669" xlink:href="#mbaaee5330c" y="440.3052"/>
      </g>
     </g>
    </g>
    <g id="xtick_20">
     <g id="line2d_20">
      <g>
       <use style="stroke:#000000;stroke-width:0.6;" x="282.318523" xlink:href="#mbaaee5330c" y="440.3052"/>
      </g>
     </g>
    </g>
    <g id="xtick_21">
     <g id="line2d_21">
      <g>
       <use style="stroke:#000000;stroke-width:0.6;" x="291.225969" xlink:href="#mbaaee5330c" y="440.3052"/>
      </g>
     </g>
    </g>
    <g id="xtick_22">
     <g id="line2d_22">
      <g>
       <use style="stroke:#000000;stroke-width:0.6;" x="298.757108" xlink:href="#mbaaee5330c" y="440.3052"/>
      </g>
     </g>
    </g>
    <g id="xtick_23">
     <g id="line2d_23">
      <g>
       <use style="stroke:#000000;stroke-width:0.6;" x="305.280876" xlink:href="#mbaaee5330c" y="440.3052"/>
      </g>
     </g>
    </g>
    <g id="xtick_24">
     <g id="line2d_24">
      <g>
       <use style="stroke:#000000;stroke-width:0.6;" x="311.035248" xlink:href="#mbaaee5330c" y="440.3052"/>
      </g>
     </g>
    </g>
    <g id="xtick_25">
     <g id="line2d_25">
      <g>
       <use style="stroke:#000000;stroke-width:0.6;" x="350.046897" xlink:href="#mbaaee5330c" y="440.3052"/>
      </g>
     </g>
    </g>
    <g id="xtick_26">
     <g id="line2d_26">
      <g>
       <use style="stroke:#000000;stroke-width:0.6;" x="369.856176" xlink:href="#mbaaee5330c" y="440.3052"/>
      </g>
     </g>
    </g>
    <g id="xtick_27">
     <g id="line2d_27">
      <g>
       <use style="stroke:#000000;stroke-width:0.6;" x="383.911083" xlink:href="#mbaaee5330c" y="440.3052"/>
      </g>
     </g>
    </g>
    <g id="xtick_28">
     <g id="line2d_28">
      <g>
       <use style="stroke:#000000;stroke-width:0.6;" x="394.812917" xlink:href="#mbaaee5330c" y="440.3052"/>
      </g>
     </g>
    </g>
    <g id="xtick_29">
     <g id="line2d_29">
      <g>
       <use style="stroke:#000000;stroke-width:0.6;" x="403.720363" xlink:href="#mbaaee5330c" y="440.3052"/>
      </g>
     </g>
    </g>
    <g id="xtick_30">
     <g id="line2d_30">
      <g>
       <use style="stroke:#000000;stroke-width:0.6;" x="411.251501" xlink:href="#mbaaee5330c" y="440.3052"/>
      </g>
     </g>
    </g>
    <g id="xtick_31">
     <g id="line2d_31">
      <g>
       <use style="stroke:#000000;stroke-width:0.6;" x="417.77527" xlink:href="#mbaaee5330c" y="440.3052"/>
      </g>
     </g>
    </g>
    <g id="xtick_32">
     <g id="line2d_32">
      <g>
       <use style="stroke:#000000;stroke-width:0.6;" x="423.529642" xlink:href="#mbaaee5330c" y="440.3052"/>
      </g>
     </g>
    </g>
    <g id="xtick_33">
     <g id="line2d_33">
      <g>
       <use style="stroke:#000000;stroke-width:0.6;" x="462.54129" xlink:href="#mbaaee5330c" y="440.3052"/>
      </g>
     </g>
    </g>
    <g id="xtick_34">
     <g id="line2d_34">
      <g>
       <use style="stroke:#000000;stroke-width:0.6;" x="482.35057" xlink:href="#mbaaee5330c" y="440.3052"/>
      </g>
     </g>
    </g>
    <g id="xtick_35">
     <g id="line2d_35">
      <g>
       <use style="stroke:#000000;stroke-width:0.6;" x="496.405477" xlink:href="#mbaaee5330c" y="440.3052"/>
      </g>
     </g>
    </g>
    <g id="xtick_36">
     <g id="line2d_36">
      <g>
       <use style="stroke:#000000;stroke-width:0.6;" x="507.30731" xlink:href="#mbaaee5330c" y="440.3052"/>
      </g>
     </g>
    </g>
    <g id="xtick_37">
     <g id="line2d_37">
      <g>
       <use style="stroke:#000000;stroke-width:0.6;" x="516.214756" xlink:href="#mbaaee5330c" y="440.3052"/>
      </g>
     </g>
    </g>
    <g id="xtick_38">
     <g id="line2d_38">
      <g>
       <use style="stroke:#000000;stroke-width:0.6;" x="523.745895" xlink:href="#mbaaee5330c" y="440.3052"/>
      </g>
     </g>
    </g>
    <g id="xtick_39">
     <g id="line2d_39">
      <g>
       <use style="stroke:#000000;stroke-width:0.6;" x="530.269664" xlink:href="#mbaaee5330c" y="440.3052"/>
      </g>
     </g>
    </g>
    <g id="xtick_40">
     <g id="line2d_40">
      <g>
       <use style="stroke:#000000;stroke-width:0.6;" x="536.024036" xlink:href="#mbaaee5330c" y="440.3052"/>
      </g>
     </g>
    </g>
    <g id="xtick_41">
     <g id="line2d_41">
      <g>
       <use style="stroke:#000000;stroke-width:0.6;" x="575.035684" xlink:href="#mbaaee5330c" y="440.3052"/>
      </g>
     </g>
    </g>
    <g id="xtick_42">
     <g id="line2d_42">
      <g>
       <use style="stroke:#000000;stroke-width:0.6;" x="594.844963" xlink:href="#mbaaee5330c" y="440.3052"/>
      </g>
     </g>
    </g>
    <g id="xtick_43">
     <g id="line2d_43">
      <g>
       <use style="stroke:#000000;stroke-width:0.6;" x="608.899871" xlink:href="#mbaaee5330c" y="440.3052"/>
      </g>
     </g>
    </g>
    <g id="xtick_44">
     <g id="line2d_44">
      <g>
       <use style="stroke:#000000;stroke-width:0.6;" x="619.801704" xlink:href="#mbaaee5330c" y="440.3052"/>
      </g>
     </g>
    </g>
    <g id="xtick_45">
     <g id="line2d_45">
      <g>
       <use style="stroke:#000000;stroke-width:0.6;" x="628.70915" xlink:href="#mbaaee5330c" y="440.3052"/>
      </g>
     </g>
    </g>
    <g id="xtick_46">
     <g id="line2d_46">
      <g>
       <use style="stroke:#000000;stroke-width:0.6;" x="636.240289" xlink:href="#mbaaee5330c" y="440.3052"/>
      </g>
     </g>
    </g>
    <g id="xtick_47">
     <g id="line2d_47">
      <g>
       <use style="stroke:#000000;stroke-width:0.6;" x="642.764058" xlink:href="#mbaaee5330c" y="440.3052"/>
      </g>
     </g>
    </g>
    <g id="xtick_48">
     <g id="line2d_48">
      <g>
       <use style="stroke:#000000;stroke-width:0.6;" x="648.51843" xlink:href="#mbaaee5330c" y="440.3052"/>
      </g>
     </g>
    </g>
    <g id="xtick_49">
     <g id="line2d_49">
      <g>
       <use style="stroke:#000000;stroke-width:0.6;" x="687.530078" xlink:href="#mbaaee5330c" y="440.3052"/>
      </g>
     </g>
    </g>
    <g id="xtick_50">
     <g id="line2d_50">
      <g>
       <use style="stroke:#000000;stroke-width:0.6;" x="707.339357" xlink:href="#mbaaee5330c" y="440.3052"/>
      </g>
     </g>
    </g>
    <g id="xtick_51">
     <g id="line2d_51">
      <g>
       <use style="stroke:#000000;stroke-width:0.6;" x="721.394264" xlink:href="#mbaaee5330c" y="440.3052"/>
      </g>
     </g>
    </g>
    <g id="xtick_52">
     <g id="line2d_52">
      <g>
       <use style="stroke:#000000;stroke-width:0.6;" x="732.296098" xlink:href="#mbaaee5330c" y="440.3052"/>
      </g>
     </g>
    </g>
    <g id="xtick_53">
     <g id="line2d_53">
      <g>
       <use style="stroke:#000000;stroke-width:0.6;" x="741.203544" xlink:href="#mbaaee5330c" y="440.3052"/>
      </g>
     </g>
    </g>
    <g id="xtick_54">
     <g id="line2d_54">
      <g>
       <use style="stroke:#000000;stroke-width:0.6;" x="748.734682" xlink:href="#mbaaee5330c" y="440.3052"/>
      </g>
     </g>
    </g>
    <g id="xtick_55">
     <g id="line2d_55">
      <g>
       <use style="stroke:#000000;stroke-width:0.6;" x="755.258451" xlink:href="#mbaaee5330c" y="440.3052"/>
      </g>
     </g>
    </g>
    <g id="xtick_56">
     <g id="line2d_56">
      <g>
       <use style="stroke:#000000;stroke-width:0.6;" x="761.012823" xlink:href="#mbaaee5330c" y="440.3052"/>
      </g>
     </g>
    </g>
    <g id="xtick_57">
     <g id="line2d_57">
      <g>
       <use style="stroke:#000000;stroke-width:0.6;" x="800.024471" xlink:href="#mbaaee5330c" y="440.3052"/>
      </g>
     </g>
    </g>
    <g id="xtick_58">
     <g id="line2d_58">
      <g>
       <use style="stroke:#000000;stroke-width:0.6;" x="819.833751" xlink:href="#mbaaee5330c" y="440.3052"/>
      </g>
     </g>
    </g>
    <g id="xtick_59">
     <g id="line2d_59">
      <g>
       <use style="stroke:#000000;stroke-width:0.6;" x="833.888658" xlink:href="#mbaaee5330c" y="440.3052"/>
      </g>
     </g>
    </g>
    <g id="xtick_60">
     <g id="line2d_60">
      <g>
       <use style="stroke:#000000;stroke-width:0.6;" x="844.790491" xlink:href="#mbaaee5330c" y="440.3052"/>
      </g>
     </g>
    </g>
    <g id="xtick_61">
     <g id="line2d_61">
      <g>
       <use style="stroke:#000000;stroke-width:0.6;" x="853.697938" xlink:href="#mbaaee5330c" y="440.3052"/>
      </g>
     </g>
    </g>
    <g id="xtick_62">
     <g id="line2d_62">
      <g>
       <use style="stroke:#000000;stroke-width:0.6;" x="861.229076" xlink:href="#mbaaee5330c" y="440.3052"/>
      </g>
     </g>
    </g>
    <g id="xtick_63">
     <g id="line2d_63">
      <g>
       <use style="stroke:#000000;stroke-width:0.6;" x="867.752845" xlink:href="#mbaaee5330c" y="440.3052"/>
      </g>
     </g>
    </g>
    <g id="xtick_64">
     <g id="line2d_64">
      <g>
       <use style="stroke:#000000;stroke-width:0.6;" x="873.507217" xlink:href="#mbaaee5330c" y="440.3052"/>
      </g>
     </g>
    </g>
    <g id="xtick_65">
     <g id="line2d_65">
      <g>
       <use style="stroke:#000000;stroke-width:0.6;" x="912.518865" xlink:href="#mbaaee5330c" y="440.3052"/>
      </g>
     </g>
    </g>
    <g id="text_9">
     <!-- $\tau/(l_p/\sigma)$ -->
     <defs>
      <path d="M 32.859375 9.96875 
Q 34.1875 7.625 39.453125 7.625 
L 43.75 7.625 
L 42.28125 0 
L 36.921875 0 
Q 28.125 0 25 4.6875 
Q 21.921875 9.46875 23.96875 19.828125 
L 29 45.703125 
L 8.453125 45.703125 
L 10.203125 54.6875 
L 60.640625 54.6875 
L 58.890625 45.703125 
L 38.1875 45.703125 
L 33.015625 19.28125 
Q 31.640625 12.203125 32.859375 9.96875 
z
" id="DejaVuSans-Oblique-964"/>
      <path d="M 25.390625 72.90625 
L 33.6875 72.90625 
L 8.296875 -9.28125 
L 0 -9.28125 
z
" id="DejaVuSans-47"/>
      <path d="M 31 75.875 
Q 24.46875 64.65625 21.28125 53.65625 
Q 18.109375 42.671875 18.109375 31.390625 
Q 18.109375 20.125 21.3125 9.0625 
Q 24.515625 -2 31 -13.1875 
L 23.1875 -13.1875 
Q 15.875 -1.703125 12.234375 9.375 
Q 8.59375 20.453125 8.59375 31.390625 
Q 8.59375 42.28125 12.203125 53.3125 
Q 15.828125 64.359375 23.1875 75.875 
z
" id="DejaVuSans-40"/>
      <path d="M 18.3125 75.984375 
L 27.296875 75.984375 
L 12.5 0 
L 3.515625 0 
z
" id="DejaVuSans-Oblique-108"/>
      <path d="M 49.609375 33.6875 
Q 49.609375 40.875 46.484375 44.671875 
Q 43.359375 48.484375 37.5 48.484375 
Q 33.5 48.484375 29.859375 46.4375 
Q 26.21875 44.390625 23.390625 40.484375 
Q 20.609375 36.625 18.9375 31.15625 
Q 17.28125 25.6875 17.28125 20.3125 
Q 17.28125 13.484375 20.40625 9.796875 
Q 23.53125 6.109375 29.296875 6.109375 
Q 33.546875 6.109375 37.1875 8.109375 
Q 40.828125 10.109375 43.40625 13.921875 
Q 46.1875 17.921875 47.890625 23.34375 
Q 49.609375 28.765625 49.609375 33.6875 
z
M 21.78125 46.390625 
Q 25.390625 51.125 30.296875 53.5625 
Q 35.203125 56 41.21875 56 
Q 49.609375 56 54.25 50.5 
Q 58.890625 45.015625 58.890625 35.109375 
Q 58.890625 27 56 19.65625 
Q 53.125 12.3125 47.703125 6.5 
Q 44.09375 2.640625 39.546875 0.609375 
Q 35.015625 -1.421875 29.984375 -1.421875 
Q 24.171875 -1.421875 20.21875 1 
Q 16.265625 3.421875 14.3125 8.203125 
L 8.6875 -20.796875 
L -0.296875 -20.796875 
L 14.40625 54.6875 
L 23.390625 54.6875 
z
" id="DejaVuSans-Oblique-112"/>
      <path d="M 34.671875 47.5625 
Q 27.25 47.5625 22.21875 42.1875 
Q 16.890625 36.578125 15.140625 27.296875 
Q 13.1875 17.484375 16.3125 11.8125 
Q 19.390625 6.203125 26.65625 6.203125 
Q 33.84375 6.203125 39.109375 11.859375 
Q 44.4375 17.53125 46.34375 27.296875 
Q 48.046875 36.234375 45.015625 42.1875 
Q 42.1875 47.5625 34.671875 47.5625 
z
M 36.078125 54.734375 
L 65.921875 54.6875 
L 64.15625 45.703125 
L 54.109375 45.703125 
Q 57.90625 38.09375 55.859375 27.296875 
Q 53.21875 13.875 45.0625 6.25 
Q 36.859375 -1.421875 25.140625 -1.421875 
Q 13.375 -1.421875 8.203125 6.25 
Q 3.03125 13.875 5.671875 27.296875 
Q 8.25 40.765625 16.40625 48.390625 
Q 23.1875 54.734375 36.078125 54.734375 
z
" id="DejaVuSans-Oblique-963"/>
      <path d="M 8.015625 75.875 
L 15.828125 75.875 
Q 23.140625 64.359375 26.78125 53.3125 
Q 30.421875 42.28125 30.421875 31.390625 
Q 30.421875 20.453125 26.78125 9.375 
Q 23.140625 -1.703125 15.828125 -13.1875 
L 8.015625 -13.1875 
Q 14.5 -2 17.703125 9.0625 
Q 20.90625 20.125 20.90625 31.390625 
Q 20.90625 42.671875 17.703125 53.65625 
Q 14.5 64.65625 8.015625 75.875 
z
" id="DejaVuSans-41"/>
     </defs>
     <g transform="translate(467.0872 485.86145)scale(0.2 -0.2)">
      <use transform="translate(0 0.015625)" xlink:href="#DejaVuSans-Oblique-964"/>
      <use transform="translate(60.205078 0.015625)" xlink:href="#DejaVuSans-47"/>
      <use transform="translate(93.896484 0.015625)" xlink:href="#DejaVuSans-40"/>
      <use transform="translate(132.910156 0.015625)" xlink:href="#DejaVuSans-Oblique-108"/>
      <use transform="translate(160.693359 -16.390625)scale(0.7)" xlink:href="#DejaVuSans-Oblique-112"/>
      <use transform="translate(207.861328 0.015625)" xlink:href="#DejaVuSans-47"/>
      <use transform="translate(241.552734 0.015625)" xlink:href="#DejaVuSans-Oblique-963"/>
      <use transform="translate(304.931641 0.015625)" xlink:href="#DejaVuSans-41"/>
     </g>
    </g>
   </g>
   <g id="matplotlib.axis_2">
    <g id="ytick_1">
     <g id="line2d_66">
      <defs>
       <path d="M 0 0 
L -3.5 0 
" id="mfe4e4abcb4" style="stroke:#000000;stroke-width:0.8;"/>
      </defs>
      <g>
       <use style="stroke:#000000;stroke-width:0.8;" x="87.4152" xlink:href="#mfe4e4abcb4" y="393.202097"/>
      </g>
     </g>
     <g id="text_10">
      <!-- $\mathdefault{10^{-3}}$ -->
      <g transform="translate(33.4152 400.800534)scale(0.2 -0.2)">
       <use transform="translate(0 0.765625)" xlink:href="#DejaVuSans-49"/>
       <use transform="translate(63.623047 0.765625)" xlink:href="#DejaVuSans-48"/>
       <use transform="translate(128.203125 39.046875)scale(0.7)" xlink:href="#DejaVuSans-8722"/>
       <use transform="translate(186.855469 39.046875)scale(0.7)" xlink:href="#DejaVuSans-51"/>
      </g>
     </g>
    </g>
    <g id="ytick_2">
     <g id="line2d_67">
      <g>
       <use style="stroke:#000000;stroke-width:0.8;" x="87.4152" xlink:href="#mfe4e4abcb4" y="331.845511"/>
      </g>
     </g>
     <g id="text_11">
      <!-- $\mathdefault{10^{-2}}$ -->
      <g transform="translate(33.4152 339.443948)scale(0.2 -0.2)">
       <use transform="translate(0 0.765625)" xlink:href="#DejaVuSans-49"/>
       <use transform="translate(63.623047 0.765625)" xlink:href="#DejaVuSans-48"/>
       <use transform="translate(128.203125 39.046875)scale(0.7)" xlink:href="#DejaVuSans-8722"/>
       <use transform="translate(186.855469 39.046875)scale(0.7)" xlink:href="#DejaVuSans-50"/>
      </g>
     </g>
    </g>
    <g id="ytick_3">
     <g id="line2d_68">
      <g>
       <use style="stroke:#000000;stroke-width:0.8;" x="87.4152" xlink:href="#mfe4e4abcb4" y="270.488925"/>
      </g>
     </g>
     <g id="text_12">
      <!-- $\mathdefault{10^{-1}}$ -->
      <g transform="translate(33.4152 278.087362)scale(0.2 -0.2)">
       <use transform="translate(0 0.684375)" xlink:href="#DejaVuSans-49"/>
       <use transform="translate(63.623047 0.684375)" xlink:href="#DejaVuSans-48"/>
       <use transform="translate(128.203125 38.965625)scale(0.7)" xlink:href="#DejaVuSans-8722"/>
       <use transform="translate(186.855469 38.965625)scale(0.7)" xlink:href="#DejaVuSans-49"/>
      </g>
     </g>
    </g>
    <g id="ytick_4">
     <g id="line2d_69">
      <g>
       <use style="stroke:#000000;stroke-width:0.8;" x="87.4152" xlink:href="#mfe4e4abcb4" y="209.132339"/>
      </g>
     </g>
     <g id="text_13">
      <!-- $\mathdefault{10^{0}}$ -->
      <g transform="translate(45.2152 216.730776)scale(0.2 -0.2)">
       <use transform="translate(0 0.765625)" xlink:href="#DejaVuSans-49"/>
       <use transform="translate(63.623047 0.765625)" xlink:href="#DejaVuSans-48"/>
       <use transform="translate(128.203125 39.046875)scale(0.7)" xlink:href="#DejaVuSans-48"/>
      </g>
     </g>
    </g>
    <g id="ytick_5">
     <g id="line2d_70">
      <g>
       <use style="stroke:#000000;stroke-width:0.8;" x="87.4152" xlink:href="#mfe4e4abcb4" y="147.775753"/>
      </g>
     </g>
     <g id="text_14">
      <!-- $\mathdefault{10^{1}}$ -->
      <g transform="translate(45.2152 155.37419)scale(0.2 -0.2)">
       <use transform="translate(0 0.684375)" xlink:href="#DejaVuSans-49"/>
       <use transform="translate(63.623047 0.684375)" xlink:href="#DejaVuSans-48"/>
       <use transform="translate(128.203125 38.965625)scale(0.7)" xlink:href="#DejaVuSans-49"/>
      </g>
     </g>
    </g>
    <g id="ytick_6">
     <g id="line2d_71">
      <g>
       <use style="stroke:#000000;stroke-width:0.8;" x="87.4152" xlink:href="#mfe4e4abcb4" y="86.419167"/>
      </g>
     </g>
     <g id="text_15">
      <!-- $\mathdefault{10^{2}}$ -->
      <g transform="translate(45.2152 94.017604)scale(0.2 -0.2)">
       <use transform="translate(0 0.765625)" xlink:href="#DejaVuSans-49"/>
       <use transform="translate(63.623047 0.765625)" xlink:href="#DejaVuSans-48"/>
       <use transform="translate(128.203125 39.046875)scale(0.7)" xlink:href="#DejaVuSans-50"/>
      </g>
     </g>
    </g>
    <g id="ytick_7">
     <g id="line2d_72">
      <defs>
       <path d="M 0 0 
L -2 0 
" id="mb518e737ab" style="stroke:#000000;stroke-width:0.6;"/>
      </defs>
      <g>
       <use style="stroke:#000000;stroke-width:0.6;" x="87.4152" xlink:href="#mb518e737ab" y="436.08851"/>
      </g>
     </g>
    </g>
    <g id="ytick_8">
     <g id="line2d_73">
      <g>
       <use style="stroke:#000000;stroke-width:0.6;" x="87.4152" xlink:href="#mb518e737ab" y="425.284151"/>
      </g>
     </g>
    </g>
    <g id="ytick_9">
     <g id="line2d_74">
      <g>
       <use style="stroke:#000000;stroke-width:0.6;" x="87.4152" xlink:href="#mb518e737ab" y="417.618337"/>
      </g>
     </g>
    </g>
    <g id="ytick_10">
     <g id="line2d_75">
      <g>
       <use style="stroke:#000000;stroke-width:0.6;" x="87.4152" xlink:href="#mb518e737ab" y="411.672269"/>
      </g>
     </g>
    </g>
    <g id="ytick_11">
     <g id="line2d_76">
      <g>
       <use style="stroke:#000000;stroke-width:0.6;" x="87.4152" xlink:href="#mb518e737ab" y="406.813978"/>
      </g>
     </g>
    </g>
    <g id="ytick_12">
     <g id="line2d_77">
      <g>
       <use style="stroke:#000000;stroke-width:0.6;" x="87.4152" xlink:href="#mb518e737ab" y="402.706352"/>
      </g>
     </g>
    </g>
    <g id="ytick_13">
     <g id="line2d_78">
      <g>
       <use style="stroke:#000000;stroke-width:0.6;" x="87.4152" xlink:href="#mb518e737ab" y="399.148164"/>
      </g>
     </g>
    </g>
    <g id="ytick_14">
     <g id="line2d_79">
      <g>
       <use style="stroke:#000000;stroke-width:0.6;" x="87.4152" xlink:href="#mb518e737ab" y="396.00962"/>
      </g>
     </g>
    </g>
    <g id="ytick_15">
     <g id="line2d_80">
      <g>
       <use style="stroke:#000000;stroke-width:0.6;" x="87.4152" xlink:href="#mb518e737ab" y="374.731924"/>
      </g>
     </g>
    </g>
    <g id="ytick_16">
     <g id="line2d_81">
      <g>
       <use style="stroke:#000000;stroke-width:0.6;" x="87.4152" xlink:href="#mb518e737ab" y="363.927565"/>
      </g>
     </g>
    </g>
    <g id="ytick_17">
     <g id="line2d_82">
      <g>
       <use style="stroke:#000000;stroke-width:0.6;" x="87.4152" xlink:href="#mb518e737ab" y="356.261751"/>
      </g>
     </g>
    </g>
    <g id="ytick_18">
     <g id="line2d_83">
      <g>
       <use style="stroke:#000000;stroke-width:0.6;" x="87.4152" xlink:href="#mb518e737ab" y="350.315683"/>
      </g>
     </g>
    </g>
    <g id="ytick_19">
     <g id="line2d_84">
      <g>
       <use style="stroke:#000000;stroke-width:0.6;" x="87.4152" xlink:href="#mb518e737ab" y="345.457392"/>
      </g>
     </g>
    </g>
    <g id="ytick_20">
     <g id="line2d_85">
      <g>
       <use style="stroke:#000000;stroke-width:0.6;" x="87.4152" xlink:href="#mb518e737ab" y="341.349766"/>
      </g>
     </g>
    </g>
    <g id="ytick_21">
     <g id="line2d_86">
      <g>
       <use style="stroke:#000000;stroke-width:0.6;" x="87.4152" xlink:href="#mb518e737ab" y="337.791578"/>
      </g>
     </g>
    </g>
    <g id="ytick_22">
     <g id="line2d_87">
      <g>
       <use style="stroke:#000000;stroke-width:0.6;" x="87.4152" xlink:href="#mb518e737ab" y="334.653034"/>
      </g>
     </g>
    </g>
    <g id="ytick_23">
     <g id="line2d_88">
      <g>
       <use style="stroke:#000000;stroke-width:0.6;" x="87.4152" xlink:href="#mb518e737ab" y="313.375338"/>
      </g>
     </g>
    </g>
    <g id="ytick_24">
     <g id="line2d_89">
      <g>
       <use style="stroke:#000000;stroke-width:0.6;" x="87.4152" xlink:href="#mb518e737ab" y="302.570979"/>
      </g>
     </g>
    </g>
    <g id="ytick_25">
     <g id="line2d_90">
      <g>
       <use style="stroke:#000000;stroke-width:0.6;" x="87.4152" xlink:href="#mb518e737ab" y="294.905165"/>
      </g>
     </g>
    </g>
    <g id="ytick_26">
     <g id="line2d_91">
      <g>
       <use style="stroke:#000000;stroke-width:0.6;" x="87.4152" xlink:href="#mb518e737ab" y="288.959097"/>
      </g>
     </g>
    </g>
    <g id="ytick_27">
     <g id="line2d_92">
      <g>
       <use style="stroke:#000000;stroke-width:0.6;" x="87.4152" xlink:href="#mb518e737ab" y="284.100807"/>
      </g>
     </g>
    </g>
    <g id="ytick_28">
     <g id="line2d_93">
      <g>
       <use style="stroke:#000000;stroke-width:0.6;" x="87.4152" xlink:href="#mb518e737ab" y="279.99318"/>
      </g>
     </g>
    </g>
    <g id="ytick_29">
     <g id="line2d_94">
      <g>
       <use style="stroke:#000000;stroke-width:0.6;" x="87.4152" xlink:href="#mb518e737ab" y="276.434992"/>
      </g>
     </g>
    </g>
    <g id="ytick_30">
     <g id="line2d_95">
      <g>
       <use style="stroke:#000000;stroke-width:0.6;" x="87.4152" xlink:href="#mb518e737ab" y="273.296448"/>
      </g>
     </g>
    </g>
    <g id="ytick_31">
     <g id="line2d_96">
      <g>
       <use style="stroke:#000000;stroke-width:0.6;" x="87.4152" xlink:href="#mb518e737ab" y="252.018752"/>
      </g>
     </g>
    </g>
    <g id="ytick_32">
     <g id="line2d_97">
      <g>
       <use style="stroke:#000000;stroke-width:0.6;" x="87.4152" xlink:href="#mb518e737ab" y="241.214393"/>
      </g>
     </g>
    </g>
    <g id="ytick_33">
     <g id="line2d_98">
      <g>
       <use style="stroke:#000000;stroke-width:0.6;" x="87.4152" xlink:href="#mb518e737ab" y="233.548579"/>
      </g>
     </g>
    </g>
    <g id="ytick_34">
     <g id="line2d_99">
      <g>
       <use style="stroke:#000000;stroke-width:0.6;" x="87.4152" xlink:href="#mb518e737ab" y="227.602511"/>
      </g>
     </g>
    </g>
    <g id="ytick_35">
     <g id="line2d_100">
      <g>
       <use style="stroke:#000000;stroke-width:0.6;" x="87.4152" xlink:href="#mb518e737ab" y="222.744221"/>
      </g>
     </g>
    </g>
    <g id="ytick_36">
     <g id="line2d_101">
      <g>
       <use style="stroke:#000000;stroke-width:0.6;" x="87.4152" xlink:href="#mb518e737ab" y="218.636594"/>
      </g>
     </g>
    </g>
    <g id="ytick_37">
     <g id="line2d_102">
      <g>
       <use style="stroke:#000000;stroke-width:0.6;" x="87.4152" xlink:href="#mb518e737ab" y="215.078406"/>
      </g>
     </g>
    </g>
    <g id="ytick_38">
     <g id="line2d_103">
      <g>
       <use style="stroke:#000000;stroke-width:0.6;" x="87.4152" xlink:href="#mb518e737ab" y="211.939862"/>
      </g>
     </g>
    </g>
    <g id="ytick_39">
     <g id="line2d_104">
      <g>
       <use style="stroke:#000000;stroke-width:0.6;" x="87.4152" xlink:href="#mb518e737ab" y="190.662166"/>
      </g>
     </g>
    </g>
    <g id="ytick_40">
     <g id="line2d_105">
      <g>
       <use style="stroke:#000000;stroke-width:0.6;" x="87.4152" xlink:href="#mb518e737ab" y="179.857807"/>
      </g>
     </g>
    </g>
    <g id="ytick_41">
     <g id="line2d_106">
      <g>
       <use style="stroke:#000000;stroke-width:0.6;" x="87.4152" xlink:href="#mb518e737ab" y="172.191993"/>
      </g>
     </g>
    </g>
    <g id="ytick_42">
     <g id="line2d_107">
      <g>
       <use style="stroke:#000000;stroke-width:0.6;" x="87.4152" xlink:href="#mb518e737ab" y="166.245926"/>
      </g>
     </g>
    </g>
    <g id="ytick_43">
     <g id="line2d_108">
      <g>
       <use style="stroke:#000000;stroke-width:0.6;" x="87.4152" xlink:href="#mb518e737ab" y="161.387635"/>
      </g>
     </g>
    </g>
    <g id="ytick_44">
     <g id="line2d_109">
      <g>
       <use style="stroke:#000000;stroke-width:0.6;" x="87.4152" xlink:href="#mb518e737ab" y="157.280008"/>
      </g>
     </g>
    </g>
    <g id="ytick_45">
     <g id="line2d_110">
      <g>
       <use style="stroke:#000000;stroke-width:0.6;" x="87.4152" xlink:href="#mb518e737ab" y="153.72182"/>
      </g>
     </g>
    </g>
    <g id="ytick_46">
     <g id="line2d_111">
      <g>
       <use style="stroke:#000000;stroke-width:0.6;" x="87.4152" xlink:href="#mb518e737ab" y="150.583276"/>
      </g>
     </g>
    </g>
    <g id="ytick_47">
     <g id="line2d_112">
      <g>
       <use style="stroke:#000000;stroke-width:0.6;" x="87.4152" xlink:href="#mb518e737ab" y="129.30558"/>
      </g>
     </g>
    </g>
    <g id="ytick_48">
     <g id="line2d_113">
      <g>
       <use style="stroke:#000000;stroke-width:0.6;" x="87.4152" xlink:href="#mb518e737ab" y="118.501221"/>
      </g>
     </g>
    </g>
    <g id="ytick_49">
     <g id="line2d_114">
      <g>
       <use style="stroke:#000000;stroke-width:0.6;" x="87.4152" xlink:href="#mb518e737ab" y="110.835407"/>
      </g>
     </g>
    </g>
    <g id="ytick_50">
     <g id="line2d_115">
      <g>
       <use style="stroke:#000000;stroke-width:0.6;" x="87.4152" xlink:href="#mb518e737ab" y="104.88934"/>
      </g>
     </g>
    </g>
    <g id="ytick_51">
     <g id="line2d_116">
      <g>
       <use style="stroke:#000000;stroke-width:0.6;" x="87.4152" xlink:href="#mb518e737ab" y="100.031049"/>
      </g>
     </g>
    </g>
    <g id="ytick_52">
     <g id="line2d_117">
      <g>
       <use style="stroke:#000000;stroke-width:0.6;" x="87.4152" xlink:href="#mb518e737ab" y="95.923422"/>
      </g>
     </g>
    </g>
    <g id="ytick_53">
     <g id="line2d_118">
      <g>
       <use style="stroke:#000000;stroke-width:0.6;" x="87.4152" xlink:href="#mb518e737ab" y="92.365234"/>
      </g>
     </g>
    </g>
    <g id="ytick_54">
     <g id="line2d_119">
      <g>
       <use style="stroke:#000000;stroke-width:0.6;" x="87.4152" xlink:href="#mb518e737ab" y="89.22669"/>
      </g>
     </g>
    </g>
    <g id="ytick_55">
     <g id="line2d_120">
      <g>
       <use style="stroke:#000000;stroke-width:0.6;" x="87.4152" xlink:href="#mb518e737ab" y="67.948994"/>
      </g>
     </g>
    </g>
    <g id="ytick_56">
     <g id="line2d_121">
      <g>
       <use style="stroke:#000000;stroke-width:0.6;" x="87.4152" xlink:href="#mb518e737ab" y="57.144635"/>
      </g>
     </g>
    </g>
    <g id="ytick_57">
     <g id="line2d_122">
      <g>
       <use style="stroke:#000000;stroke-width:0.6;" x="87.4152" xlink:href="#mb518e737ab" y="49.478821"/>
      </g>
     </g>
    </g>
    <g id="ytick_58">
     <g id="line2d_123">
      <g>
       <use style="stroke:#000000;stroke-width:0.6;" x="87.4152" xlink:href="#mb518e737ab" y="43.532754"/>
      </g>
     </g>
    </g>
    <g id="ytick_59">
     <g id="line2d_124">
      <g>
       <use style="stroke:#000000;stroke-width:0.6;" x="87.4152" xlink:href="#mb518e737ab" y="38.674463"/>
      </g>
     </g>
    </g>
    <g id="ytick_60">
     <g id="line2d_125">
      <g>
       <use style="stroke:#000000;stroke-width:0.6;" x="87.4152" xlink:href="#mb518e737ab" y="34.566836"/>
      </g>
     </g>
    </g>
    <g id="text_16">
     <!-- $\tau N &lt;\delta w_f(t_0; \tau)^2&gt;$ -->
     <defs>
      <path d="M 16.890625 72.90625 
L 30.171875 72.90625 
L 50.296875 10.40625 
L 62.5 72.90625 
L 72.125 72.90625 
L 57.90625 0 
L 44.578125 0 
L 24.515625 62.890625 
L 12.3125 0 
L 2.6875 0 
z
" id="DejaVuSans-Oblique-78"/>
      <path d="M 73.1875 49.21875 
L 22.796875 31.296875 
L 73.1875 13.484375 
L 73.1875 4.59375 
L 10.59375 27.296875 
L 10.59375 35.40625 
L 73.1875 58.109375 
z
" id="DejaVuSans-60"/>
      <path d="M 54.25 63.328125 
Q 49.953125 66.75 38.28125 66.75 
Q 25.921875 66.75 24.8125 61.03125 
Q 23.921875 56.546875 36.375 54.203125 
Q 46.140625 52.390625 50.828125 46.921875 
Q 56.5 40.328125 53.859375 26.8125 
Q 51.3125 13.875 43.171875 6.25 
Q 34.96875 -1.421875 23.25 -1.421875 
Q 11.578125 -1.421875 6.34375 6.25 
Q 1.125 13.875 3.765625 27.296875 
Q 5.671875 37.25 13.921875 45.3125 
Q 17.140625 48.4375 21.140625 50.203125 
Q 14.265625 54.046875 15.625 60.9375 
Q 18.21875 74.21875 39.75 74.21875 
Q 50.53125 74.21875 55.71875 70.796875 
z
M 27.390625 47.75 
Q 23.828125 46.34375 20.40625 42.78125 
Q 15.140625 37.25 13.234375 27.296875 
Q 11.28125 17.390625 14.359375 11.8125 
Q 17.484375 6.203125 24.75 6.203125 
Q 31.9375 6.203125 37.203125 11.859375 
Q 42.53125 17.53125 44.34375 26.8125 
Q 46.1875 36.53125 42.671875 41.21875 
Q 38.921875 46.234375 32.859375 46.78125 
Q 29.78125 47.078125 27.390625 47.75 
z
" id="DejaVuSans-Oblique-948"/>
      <path d="M 8.5 54.6875 
L 17.390625 54.6875 
L 19.671875 10.6875 
L 40.09375 54.6875 
L 50.484375 54.6875 
L 53.515625 10.6875 
L 72.90625 54.6875 
L 81.890625 54.6875 
L 56.890625 0 
L 46.390625 0 
L 43.703125 45.3125 
L 22.796875 0 
L 12.203125 0 
z
" id="DejaVuSans-Oblique-119"/>
      <path d="M 47.796875 75.984375 
L 46.390625 68.5 
L 37.796875 68.5 
Q 32.90625 68.5 30.6875 66.578125 
Q 28.46875 64.65625 27.390625 59.515625 
L 26.421875 54.6875 
L 41.21875 54.6875 
L 39.890625 47.703125 
L 25.09375 47.703125 
L 15.828125 0 
L 6.78125 0 
L 16.109375 47.703125 
L 7.515625 47.703125 
L 8.796875 54.6875 
L 17.390625 54.6875 
L 18.109375 58.5 
Q 19.96875 68.171875 24.625 72.078125 
Q 29.296875 75.984375 39.3125 75.984375 
z
" id="DejaVuSans-Oblique-102"/>
      <path d="M 42.28125 54.6875 
L 40.921875 47.703125 
L 23 47.703125 
L 17.1875 18.015625 
Q 16.890625 16.359375 16.75 15.234375 
Q 16.609375 14.109375 16.609375 13.484375 
Q 16.609375 10.359375 18.484375 8.9375 
Q 20.359375 7.515625 24.515625 7.515625 
L 33.59375 7.515625 
L 32.078125 0 
L 23.484375 0 
Q 15.484375 0 11.546875 3.125 
Q 7.625 6.25 7.625 12.59375 
Q 7.625 13.71875 7.765625 15.0625 
Q 7.90625 16.40625 8.203125 18.015625 
L 14.015625 47.703125 
L 6.390625 47.703125 
L 7.8125 54.6875 
L 15.28125 54.6875 
L 18.3125 70.21875 
L 27.296875 70.21875 
L 24.3125 54.6875 
z
" id="DejaVuSans-Oblique-116"/>
      <path d="M 11.71875 51.703125 
L 22.015625 51.703125 
L 22.015625 39.3125 
L 11.71875 39.3125 
z
M 11.71875 12.40625 
L 22.015625 12.40625 
L 22.015625 4 
L 14.015625 -11.625 
L 7.71875 -11.625 
L 11.71875 4 
z
" id="DejaVuSans-59"/>
      <path d="M 10.59375 49.21875 
L 10.59375 58.109375 
L 73.1875 35.40625 
L 73.1875 27.296875 
L 10.59375 4.59375 
L 10.59375 13.484375 
L 60.890625 31.296875 
z
" id="DejaVuSans-62"/>
     </defs>
     <g transform="translate(25.255825 324.022)rotate(-90)scale(0.2 -0.2)">
      <use transform="translate(0 0.765625)" xlink:href="#DejaVuSans-Oblique-964"/>
      <use transform="translate(60.205078 0.765625)" xlink:href="#DejaVuSans-Oblique-78"/>
      <use transform="translate(154.492188 0.765625)" xlink:href="#DejaVuSans-60"/>
      <use transform="translate(257.763672 0.765625)" xlink:href="#DejaVuSans-Oblique-948"/>
      <use transform="translate(318.945312 0.765625)" xlink:href="#DejaVuSans-Oblique-119"/>
      <use transform="translate(400.732422 -15.640625)scale(0.7)" xlink:href="#DejaVuSans-Oblique-102"/>
      <use transform="translate(428.110352 0.765625)" xlink:href="#DejaVuSans-40"/>
      <use transform="translate(467.124023 0.765625)" xlink:href="#DejaVuSans-Oblique-116"/>
      <use transform="translate(506.333008 -15.640625)scale(0.7)" xlink:href="#DejaVuSans-48"/>
      <use transform="translate(553.603516 0.765625)" xlink:href="#DejaVuSans-59"/>
      <use transform="translate(606.777344 0.765625)" xlink:href="#DejaVuSans-Oblique-964"/>
      <use transform="translate(666.982422 0.765625)" xlink:href="#DejaVuSans-41"/>
      <use transform="translate(706.953125 39.046875)scale(0.7)" xlink:href="#DejaVuSans-50"/>
      <use transform="translate(773.706055 0.765625)" xlink:href="#DejaVuSans-62"/>
     </g>
    </g>
   </g>
   <g id="line2d_126">
    <path clip-path="url(#p755ba32ece)" d="M 125.058109 421.761273 
L 158.922296 403.420591 
L 178.731575 392.714514 
L 192.786483 385.137708 
L 203.688316 379.27583 
L 212.595762 374.498414 
L 226.65067 366.986748 
L 232.405042 363.922629 
L 237.552503 361.186516 
L 246.459949 356.468146 
L 253.991088 352.495731 
L 260.514856 349.063712 
L 268.91072 344.668924 
L 276.073135 340.938112 
L 284.234678 336.701755 
L 292.827939 332.26907 
L 300.133415 328.515208 
L 307.664554 324.666535 
L 315.195692 320.837493 
L 322.584186 317.097387 
L 330.481287 313.118481 
L 337.908144 309.392166 
L 345.439283 305.630058 
L 353.352407 301.699947 
L 360.94873 297.950759 
L 368.535671 294.236729 
L 375.971108 290.634895 
L 383.666192 286.950736 
L 391.162246 283.399727 
L 398.753514 279.917041 
L 406.413254 276.430765 
L 414.098269 273.081894 
L 421.648217 269.848803 
L 429.259882 266.706271 
L 436.846162 263.714438 
L 444.48347 260.829712 
L 452.065085 258.108877 
L 459.673999 255.347191 
L 467.286483 252.746217 
L 474.868262 250.243773 
L 482.480678 247.915462 
L 490.076741 245.732644 
L 497.683296 243.725258 
L 505.292563 241.852415 
L 512.896379 240.213322 
L 520.499674 238.244355 
L 528.1096 236.990657 
L 535.708169 235.626715 
L 543.312621 235.026846 
L 550.91852 234.357799 
L 558.522782 233.207067 
L 566.126283 231.6635 
L 573.73358 230.744761 
L 581.334198 229.44276 
L 588.938903 228.490071 
L 596.544547 226.502985 
L 604.149777 224.354182 
L 611.753552 222.374489 
L 619.35804 221.728135 
L 626.963497 219.704602 
L 634.567637 217.695913 
L 642.173007 215.264047 
L 649.777736 214.415955 
L 657.382429 214.75131 
L 664.986474 210.86695 
L 672.591073 209.084874 
L 680.196162 210.65979 
L 687.800477 208.010696 
L 695.405203 206.031261 
L 703.009768 207.919692 
L 710.614418 203.047267 
L 718.219037 204.755648 
L 725.82367 197.919031 
L 733.428442 203.571381 
L 741.033066 199.533017 
L 748.637573 198.976766 
L 756.242205 202.097024 
L 763.846889 208.782423 
L 771.451531 210.438857 
L 779.056154 201.913622 
L 786.660747 193.787182 
L 794.265378 204.069652 
L 801.870017 194.182247 
L 809.474651 209.917944 
L 817.079272 196.25407 
L 824.683902 203.998939 
L 832.288535 204.047261 
L 839.89316 213.197391 
L 847.497776 190.019444 
L 855.102399 185.137457 
L 862.707034 245.429064 
L 870.311658 251.585708 
L 877.916291 219.179708 
" style="fill:none;stroke:#0000ff;stroke-linecap:square;stroke-width:1.5;"/>
   </g>
   <g id="line2d_127">
    <path clip-path="url(#p755ba32ece)" d="M 125.058109 420.040391 
L 158.922296 401.706025 
L 178.731575 391.004074 
L 192.786483 383.431053 
L 203.688316 377.572434 
L 212.595762 372.797819 
L 226.65067 365.291994 
L 232.405042 362.230389 
L 237.552503 359.496983 
L 246.459949 354.782556 
L 253.991088 350.811954 
L 260.514856 347.384534 
L 268.91072 342.9915 
L 276.073135 339.262476 
L 284.234678 335.028326 
L 292.827939 330.597425 
L 300.133415 326.845511 
L 307.664554 322.996641 
L 315.195692 319.160311 
L 322.584186 315.407218 
L 330.481287 311.421183 
L 337.908144 307.682456 
L 345.439283 303.915642 
L 353.352407 299.97861 
L 360.94873 296.205489 
L 368.535671 292.473668 
L 375.971108 288.832795 
L 383.666192 285.122831 
L 391.162246 281.556435 
L 398.753514 277.995954 
L 406.413254 274.486491 
L 414.098269 271.051533 
L 421.648217 267.781529 
L 429.259882 264.573268 
L 436.846162 261.46122 
L 444.48347 258.442018 
L 452.065085 255.509566 
L 459.673999 252.657515 
L 467.286483 249.81871 
L 474.868262 247.131565 
L 482.480678 244.595361 
L 490.076741 241.889846 
L 497.683296 239.721933 
L 505.292563 237.539707 
L 512.896379 235.765174 
L 520.499674 233.422175 
L 528.1096 231.896009 
L 535.708169 230.464786 
L 543.312621 229.347299 
L 550.91852 227.914692 
L 558.522782 226.693722 
L 566.126283 224.88478 
L 573.73358 225.400925 
L 581.334198 224.649915 
L 588.938903 223.422226 
L 596.544547 221.673795 
L 604.149777 219.787607 
L 611.753552 219.655629 
L 619.35804 218.990045 
L 626.963497 218.454083 
L 634.567637 218.672336 
L 642.173007 217.755832 
L 649.777736 217.715033 
L 657.382429 216.222314 
L 664.986474 214.544459 
L 672.591073 212.382622 
L 680.196162 212.392896 
L 687.800477 213.56345 
L 695.405203 210.600081 
L 703.009768 208.44866 
L 710.614418 210.113284 
L 718.219037 209.370693 
L 725.82367 204.902437 
L 733.428442 206.326038 
L 741.033066 209.15064 
L 748.637573 204.000753 
L 756.242205 206.107324 
L 763.846889 196.605876 
L 771.451531 208.331087 
L 779.056154 205.561409 
L 786.660747 202.26152 
L 794.265378 207.049683 
L 801.870017 198.964912 
L 809.474651 192.615425 
L 817.079272 197.371723 
L 824.683902 195.751808 
L 832.288535 200.235702 
L 839.89316 193.099083 
L 847.497776 192.002811 
L 855.102399 192.790899 
L 862.707034 290.471947 
L 870.311658 396.178254 
L 877.916291 226.805967 
" style="fill:none;stroke:#0080ff;stroke-linecap:square;stroke-width:1.5;"/>
   </g>
   <g id="line2d_128">
    <path clip-path="url(#p755ba32ece)" d="M 125.058109 418.889588 
L 158.922296 400.572797 
L 178.731575 389.883898 
L 192.786483 382.322132 
L 203.688316 376.473645 
L 212.595762 371.708725 
L 226.65067 364.220828 
L 232.405042 361.166513 
L 237.552503 358.440708 
L 246.459949 353.741406 
L 253.991088 349.783129 
L 260.514856 346.368098 
L 268.91072 341.992232 
L 276.073135 338.274773 
L 284.234678 334.05736 
L 292.827939 329.6456 
L 300.133415 325.909156 
L 307.664554 322.067219 
L 315.195692 318.249255 
L 322.584186 314.512804 
L 330.481287 310.535373 
L 337.908144 306.808998 
L 345.439283 303.046423 
L 353.352407 299.104166 
L 360.94873 295.330859 
L 368.535671 291.590102 
L 375.971108 287.965314 
L 383.666192 284.209596 
L 391.162246 280.657406 
L 398.753514 277.0603 
L 406.413254 273.533051 
L 414.098269 270.026473 
L 421.648217 266.71763 
L 429.259882 263.466504 
L 436.846162 260.311547 
L 444.48347 257.237709 
L 452.065085 254.259956 
L 459.673999 251.275567 
L 467.286483 248.245271 
L 474.868262 245.616971 
L 482.480678 242.620579 
L 490.076741 240.10538 
L 497.683296 237.696795 
L 505.292563 235.219826 
L 512.896379 233.001256 
L 520.499674 230.865427 
L 528.1096 228.773732 
L 535.708169 227.322337 
L 543.312621 225.330076 
L 550.91852 224.683264 
L 558.522782 223.154281 
L 566.126283 222.087719 
L 573.73358 221.155575 
L 581.334198 220.362594 
L 588.938903 220.592032 
L 596.544547 218.550768 
L 604.149777 218.396094 
L 611.753552 218.651401 
L 619.35804 217.739249 
L 626.963497 216.871936 
L 634.567637 214.723761 
L 642.173007 214.615672 
L 649.777736 214.180337 
L 657.382429 212.64903 
L 664.986474 211.418069 
L 672.591073 210.371128 
L 680.196162 213.215424 
L 687.800477 211.420573 
L 695.405203 207.55696 
L 703.009768 206.718938 
L 710.614418 204.903207 
L 718.219037 208.794903 
L 725.82367 209.172414 
L 733.428442 205.984954 
L 741.033066 206.850962 
L 748.637573 198.039632 
L 756.242205 206.392796 
L 763.846889 205.569182 
L 771.451531 210.306418 
L 779.056154 203.151155 
L 786.660747 190.455561 
L 794.265378 199.241683 
L 801.870017 196.184192 
L 809.474651 193.176351 
L 817.079272 189.165927 
L 824.683902 192.369063 
L 832.288535 193.947422 
L 839.89316 198.17654 
L 847.497776 205.809761 
L 855.102399 204.751627 
L 862.707034 198.869492 
L 870.311658 192.600413 
L 877.916291 206.543449 
" style="fill:none;stroke:#16ffe1;stroke-linecap:square;stroke-width:1.5;"/>
   </g>
   <g id="line2d_129">
    <path clip-path="url(#p755ba32ece)" d="M 125.058109 417.070451 
L 158.922296 398.763906 
L 178.731575 388.082437 
L 192.786483 380.526639 
L 203.688316 374.684662 
L 212.595762 369.925059 
L 226.65067 362.445884 
L 232.405042 359.396468 
L 237.552503 356.674963 
L 246.459949 351.981353 
L 253.991088 348.031298 
L 260.514856 344.621948 
L 268.91072 340.253723 
L 276.073135 336.541868 
L 284.234678 332.333722 
L 292.827939 327.924059 
L 300.133415 324.18784 
L 307.664554 320.354363 
L 315.195692 316.531951 
L 322.584186 312.795908 
L 330.481287 308.827608 
L 337.908144 305.083464 
L 345.439283 301.31772 
L 353.352407 297.359586 
L 360.94873 293.584017 
L 368.535671 289.843281 
L 375.971108 286.166853 
L 383.666192 282.420089 
L 391.162246 278.797226 
L 398.753514 275.166014 
L 406.413254 271.593108 
L 414.098269 268.071999 
L 421.648217 264.689641 
L 429.259882 261.324142 
L 436.846162 258.090628 
L 444.48347 254.920242 
L 452.065085 251.833465 
L 459.673999 248.715817 
L 467.286483 245.718724 
L 474.868262 242.699621 
L 482.480678 239.876654 
L 490.076741 236.920014 
L 497.683296 234.369079 
L 505.292563 231.484909 
L 512.896379 229.298597 
L 520.499674 226.675848 
L 528.1096 224.003067 
L 535.708169 222.422992 
L 543.312621 220.190111 
L 550.91852 218.46377 
L 558.522782 216.338535 
L 566.126283 215.777381 
L 573.73358 213.946268 
L 581.334198 212.69901 
L 588.938903 211.796201 
L 596.544547 211.083825 
L 604.149777 209.743938 
L 611.753552 210.086324 
L 619.35804 210.56686 
L 626.963497 207.101278 
L 634.567637 208.374026 
L 642.173007 208.814927 
L 649.777736 209.302388 
L 657.382429 207.638149 
L 664.986474 205.234709 
L 672.591073 205.826401 
L 680.196162 206.740162 
L 687.800477 208.319041 
L 695.405203 206.975585 
L 703.009768 204.786478 
L 710.614418 206.269849 
L 718.219037 208.163916 
L 725.82367 202.427277 
L 733.428442 201.713702 
L 741.033066 201.553879 
L 748.637573 200.066148 
L 756.242205 200.731168 
L 763.846889 201.782988 
L 771.451531 190.786164 
L 779.056154 196.788576 
L 786.660747 201.375701 
L 794.265378 189.379709 
L 801.870017 195.382003 
L 809.474651 196.429609 
L 817.079272 218.256946 
L 824.683902 195.821951 
L 832.288535 187.572725 
L 839.89316 182.989385 
L 847.497776 209.048414 
L 855.102399 203.997769 
L 862.707034 366.233917 
L 870.311658 257.741731 
L 877.916291 208.348978 
" style="fill:none;stroke:#7dff7a;stroke-linecap:square;stroke-width:1.5;"/>
   </g>
   <g id="line2d_130">
    <path clip-path="url(#p755ba32ece)" d="M 125.058109 414.798069 
L 158.922296 396.497002 
L 178.731575 385.819349 
L 192.786483 378.266765 
L 203.688316 372.427129 
L 212.595762 367.669597 
L 226.65067 360.193832 
L 232.405042 357.145149 
L 237.552503 354.425107 
L 246.459949 349.73397 
L 253.991088 345.784226 
L 260.514856 342.374666 
L 268.91072 338.004444 
L 276.073135 334.292963 
L 284.234678 330.079689 
L 292.827939 325.667114 
L 300.133415 321.928354 
L 307.664554 318.080768 
L 315.195692 314.250401 
L 322.584186 310.506204 
L 330.481287 306.506273 
L 337.908144 302.755628 
L 345.439283 298.970665 
L 353.352407 294.980008 
L 360.94873 291.187728 
L 368.535671 287.397263 
L 375.971108 283.703242 
L 383.666192 279.930871 
L 391.162246 276.254279 
L 398.753514 272.606357 
L 406.413254 268.941566 
L 414.098269 265.33086 
L 421.648217 261.860833 
L 429.259882 258.412636 
L 436.846162 255.098908 
L 444.48347 251.719189 
L 452.065085 248.499243 
L 459.673999 245.322777 
L 467.286483 242.063809 
L 474.868262 238.929981 
L 482.480678 235.722676 
L 490.076741 232.860364 
L 497.683296 229.664917 
L 505.292563 226.809142 
L 512.896379 223.767893 
L 520.499674 221.162325 
L 528.1096 218.537905 
L 535.708169 216.016328 
L 543.312621 213.762876 
L 550.91852 210.887985 
L 558.522782 207.991815 
L 566.126283 206.219289 
L 573.73358 204.178772 
L 581.334198 200.968944 
L 588.938903 199.267996 
L 596.544547 197.899217 
L 604.149777 195.197419 
L 611.753552 194.445737 
L 619.35804 192.325007 
L 626.963497 192.653931 
L 634.567637 190.737422 
L 642.173007 189.735263 
L 649.777736 189.010318 
L 657.382429 187.149408 
L 664.986474 189.524591 
L 672.591073 189.295874 
L 680.196162 188.812157 
L 687.800477 188.658443 
L 695.405203 184.129848 
L 703.009768 186.186653 
L 710.614418 186.741101 
L 718.219037 193.513616 
L 725.82367 189.882963 
L 733.428442 197.317098 
L 741.033066 185.552936 
L 748.637573 190.273634 
L 756.242205 195.426299 
L 763.846889 186.70143 
L 771.451531 197.375203 
L 779.056154 192.953566 
L 786.660747 199.431154 
L 794.265378 200.325058 
L 801.870017 206.804099 
L 809.474651 187.410939 
L 817.079272 200.908065 
L 824.683902 197.940572 
L 832.288535 189.722349 
L 839.89316 225.004298 
L 847.497776 214.212766 
L 855.102399 260.998131 
L 862.707034 205.274618 
L 870.311658 230.916437 
L 877.916291 198.206676 
" style="fill:none;stroke:#e4ff13;stroke-linecap:square;stroke-width:1.5;"/>
   </g>
   <g id="line2d_131">
    <path clip-path="url(#p755ba32ece)" d="M 125.058109 408.566583 
L 158.922296 390.264693 
L 178.731575 379.585568 
L 192.786483 372.030902 
L 203.688316 366.18814 
L 212.595762 361.427834 
L 226.65067 353.944797 
L 232.405042 350.892539 
L 237.552503 348.168333 
L 246.459949 343.467302 
L 253.991088 339.508313 
L 260.514856 336.086923 
L 268.91072 331.701672 
L 276.073135 327.971297 
L 284.234678 323.73608 
L 292.827939 319.291706 
L 300.133415 315.518413 
L 307.664554 311.643299 
L 315.195692 307.77245 
L 322.584186 303.981818 
L 330.481287 299.939906 
L 337.908144 296.144772 
L 345.439283 292.283375 
L 353.352407 288.254483 
L 360.94873 284.382768 
L 368.535671 280.522091 
L 375.971108 276.75811 
L 383.666192 272.87538 
L 391.162246 269.118197 
L 398.753514 265.326529 
L 406.413254 261.551896 
L 414.098269 257.823195 
L 421.648217 254.171109 
L 429.259882 250.564354 
L 436.846162 246.971884 
L 444.48347 243.401134 
L 452.065085 239.899018 
L 459.673999 236.431835 
L 467.286483 232.912941 
L 474.868262 229.522677 
L 482.480678 226.060839 
L 490.076741 222.56769 
L 497.683296 219.199611 
L 505.292563 215.781586 
L 512.896379 212.49874 
L 520.499674 209.274289 
L 528.1096 205.926221 
L 535.708169 202.780588 
L 543.312621 199.69311 
L 550.91852 196.603472 
L 558.522782 193.586945 
L 566.126283 190.527829 
L 573.73358 187.656766 
L 581.334198 184.526751 
L 588.938903 181.422678 
L 596.544547 178.772607 
L 604.149777 176.575529 
L 611.753552 173.655625 
L 619.35804 171.74445 
L 626.963497 168.20596 
L 634.567637 166.191182 
L 642.173007 165.070094 
L 649.777736 163.644204 
L 657.382429 159.802128 
L 664.986474 159.714503 
L 672.591073 156.946525 
L 680.196162 153.427058 
L 687.800477 152.149426 
L 695.405203 151.424119 
L 703.009768 156.841526 
L 710.614418 151.224118 
L 718.219037 151.165568 
L 725.82367 151.015282 
L 733.428442 146.028683 
L 741.033066 153.872866 
L 748.637573 158.549833 
L 756.242205 158.128818 
L 763.846889 166.968329 
L 771.451531 153.922084 
L 779.056154 169.758301 
L 786.660747 161.724472 
L 794.265378 175.070846 
L 801.870017 155.566211 
L 809.474651 174.61581 
L 817.079272 167.898437 
L 824.683902 177.443013 
L 832.288535 188.853032 
L 839.89316 214.272037 
L 847.497776 206.875085 
L 855.102399 167.535287 
L 862.707034 257.105285 
L 870.311658 361.261061 
L 877.916291 267.512318 
" style="fill:none;stroke:#ff9400;stroke-linecap:square;stroke-width:1.5;"/>
   </g>
   <g id="line2d_132">
    <path clip-path="url(#p755ba32ece)" d="M 125.058109 376.110193 
L 158.922296 357.749723 
L 178.731575 347.023931 
L 192.786483 339.426294 
L 203.688316 333.541435 
L 212.595762 328.739727 
L 226.65067 321.176641 
L 232.405042 318.084507 
L 237.552503 315.321027 
L 246.459949 310.544639 
L 253.991088 306.510769 
L 260.514856 303.019649 
L 268.91072 298.529625 
L 276.073135 294.70407 
L 284.234678 290.345897 
L 292.827939 285.759405 
L 300.133415 281.861338 
L 307.664554 277.844349 
L 315.195692 273.825797 
L 322.584186 269.883624 
L 330.481287 265.666685 
L 337.908144 261.700694 
L 345.439283 257.675115 
L 353.352407 253.448015 
L 360.94873 249.387911 
L 368.535671 245.330472 
L 375.971108 241.353022 
L 383.666192 237.23887 
L 391.162246 233.233069 
L 398.753514 229.186016 
L 406.413254 225.102014 
L 414.098269 221.012478 
L 421.648217 217.003136 
L 429.259882 212.961883 
L 436.846162 208.948503 
L 444.48347 204.911536 
L 452.065085 200.903845 
L 459.673999 196.885225 
L 467.286483 192.866339 
L 474.868262 188.858032 
L 482.480678 184.830909 
L 490.076741 180.848581 
L 497.683296 176.813706 
L 505.292563 172.80352 
L 512.896379 168.775381 
L 520.499674 164.754043 
L 528.1096 160.748477 
L 535.708169 156.747174 
L 543.312621 152.737216 
L 550.91852 148.761224 
L 558.522782 144.726627 
L 566.126283 140.796028 
L 573.73358 136.778749 
L 581.334198 132.789594 
L 588.938903 128.79499 
L 596.544547 124.953709 
L 604.149777 120.910414 
L 611.753552 117.033081 
L 619.35804 113.081989 
L 626.963497 109.394659 
L 634.567637 105.461207 
L 642.173007 101.741251 
L 649.777736 97.878661 
L 657.382429 94.418064 
L 664.986474 90.963577 
L 672.591073 87.649062 
L 680.196162 84.429685 
L 687.800477 81.12332 
L 695.405203 78.620299 
L 703.009768 74.437386 
L 710.614418 72.330702 
L 718.219037 71.143145 
L 725.82367 68.463779 
L 733.428442 67.743919 
L 741.033066 65.12996 
L 748.637573 63.647607 
L 756.242205 59.097855 
L 763.846889 60.476157 
L 771.451531 66.398367 
L 779.056154 50.882727 
L 786.660747 63.710949 
L 794.265378 61.392333 
L 801.870017 56.705497 
L 809.474651 55.511372 
L 817.079272 69.670718 
L 824.683902 71.497103 
L 832.288535 67.952189 
L 839.89316 64.342009 
L 847.497776 58.0472 
L 855.102399 53.577943 
L 862.707034 127.989718 
L 870.311658 93.692223 
L 877.916291 103.437731 
" style="fill:none;stroke:#ff1e00;stroke-linecap:square;stroke-width:1.5;"/>
   </g>
   <g id="patch_3">
    <path d="M 87.4152 440.3052 
L 87.4152 32.3388 
" style="fill:none;stroke:#000000;stroke-linecap:square;stroke-linejoin:miter;stroke-width:0.8;"/>
   </g>
   <g id="patch_4">
    <path d="M 915.5592 440.3052 
L 915.5592 32.3388 
" style="fill:none;stroke:#000000;stroke-linecap:square;stroke-linejoin:miter;stroke-width:0.8;"/>
   </g>
   <g id="patch_5">
    <path d="M 87.4152 440.3052 
L 915.5592 440.3052 
" style="fill:none;stroke:#000000;stroke-linecap:square;stroke-linejoin:miter;stroke-width:0.8;"/>
   </g>
   <g id="patch_6">
    <path d="M 87.4152 32.3388 
L 915.5592 32.3388 
" style="fill:none;stroke:#000000;stroke-linecap:square;stroke-linejoin:miter;stroke-width:0.8;"/>
   </g>
   <g id="text_17">
    <!-- $\phi = 0.65, l_p/\sigma = 50$ $(N_{iter}=10^7, dt=10^{-3})$ -->
    <defs>
     <path d="M 46.734375 75.984375 
L 42.78125 55.8125 
Q 52.546875 55.8125 57.5625 48.34375 
Q 62.75 40.71875 60.15625 27.296875 
Q 57.515625 13.875 49.359375 6.25 
Q 41.453125 -1.21875 31.6875 -1.21875 
L 27.875 -20.796875 
L 18.953125 -20.796875 
L 22.75 -1.21875 
Q 13.03125 -1.21875 7.953125 6.25 
Q 2.78125 13.875 5.421875 27.296875 
Q 8.015625 40.71875 16.15625 48.34375 
Q 24.125 55.8125 33.84375 55.8125 
L 37.796875 75.984375 
z
M 33.25 6.78125 
Q 38.765625 6.78125 43.5 11.8125 
Q 48.6875 17.4375 50.6875 27.296875 
Q 52.640625 37.0625 49.515625 42.78125 
Q 46.734375 47.796875 41.21875 47.796875 
z
M 24.3125 6.78125 
L 32.28125 47.796875 
Q 26.8125 47.796875 22.078125 42.78125 
Q 16.75 37.0625 14.890625 27.296875 
Q 13.03125 17.4375 16.0625 11.8125 
Q 18.796875 6.78125 24.3125 6.78125 
z
" id="DejaVuSans-Oblique-981"/>
     <path d="M 10.59375 45.40625 
L 73.1875 45.40625 
L 73.1875 37.203125 
L 10.59375 37.203125 
z
M 10.59375 25.484375 
L 73.1875 25.484375 
L 73.1875 17.1875 
L 10.59375 17.1875 
z
" id="DejaVuSans-61"/>
     <path d="M 10.6875 12.40625 
L 21 12.40625 
L 21 0 
L 10.6875 0 
z
" id="DejaVuSans-46"/>
     <path d="M 33.015625 40.375 
Q 26.375 40.375 22.484375 35.828125 
Q 18.609375 31.296875 18.609375 23.390625 
Q 18.609375 15.53125 22.484375 10.953125 
Q 26.375 6.390625 33.015625 6.390625 
Q 39.65625 6.390625 43.53125 10.953125 
Q 47.40625 15.53125 47.40625 23.390625 
Q 47.40625 31.296875 43.53125 35.828125 
Q 39.65625 40.375 33.015625 40.375 
z
M 52.59375 71.296875 
L 52.59375 62.3125 
Q 48.875 64.0625 45.09375 64.984375 
Q 41.3125 65.921875 37.59375 65.921875 
Q 27.828125 65.921875 22.671875 59.328125 
Q 17.53125 52.734375 16.796875 39.40625 
Q 19.671875 43.65625 24.015625 45.921875 
Q 28.375 48.1875 33.59375 48.1875 
Q 44.578125 48.1875 50.953125 41.515625 
Q 57.328125 34.859375 57.328125 23.390625 
Q 57.328125 12.15625 50.6875 5.359375 
Q 44.046875 -1.421875 33.015625 -1.421875 
Q 20.359375 -1.421875 13.671875 8.265625 
Q 6.984375 17.96875 6.984375 36.375 
Q 6.984375 53.65625 15.1875 63.9375 
Q 23.390625 74.21875 37.203125 74.21875 
Q 40.921875 74.21875 44.703125 73.484375 
Q 48.484375 72.75 52.59375 71.296875 
z
" id="DejaVuSans-54"/>
     <path d="M 11.71875 12.40625 
L 22.015625 12.40625 
L 22.015625 4 
L 14.015625 -11.625 
L 7.71875 -11.625 
L 11.71875 4 
z
" id="DejaVuSans-44"/>
     <path id="DejaVuSans-32"/>
     <path d="M 18.3125 75.984375 
L 27.296875 75.984375 
L 25.09375 64.59375 
L 16.109375 64.59375 
z
M 14.203125 54.6875 
L 23.1875 54.6875 
L 12.5 0 
L 3.515625 0 
z
" id="DejaVuSans-Oblique-105"/>
     <path d="M 48.09375 32.234375 
Q 48.25 33.015625 48.3125 33.84375 
Q 48.390625 34.671875 48.390625 35.5 
Q 48.390625 41.453125 44.890625 44.921875 
Q 41.40625 48.390625 35.40625 48.390625 
Q 28.71875 48.390625 23.578125 44.15625 
Q 18.453125 39.9375 15.828125 32.171875 
z
M 55.90625 25.203125 
L 14.109375 25.203125 
Q 13.8125 23.34375 13.71875 22.265625 
Q 13.625 21.1875 13.625 20.40625 
Q 13.625 13.625 17.796875 9.90625 
Q 21.96875 6.203125 29.59375 6.203125 
Q 35.453125 6.203125 40.671875 7.515625 
Q 45.90625 8.84375 50.390625 11.375 
L 48.6875 2.484375 
Q 43.84375 0.53125 38.6875 -0.4375 
Q 33.546875 -1.421875 28.21875 -1.421875 
Q 16.84375 -1.421875 10.71875 4.015625 
Q 4.59375 9.46875 4.59375 19.484375 
Q 4.59375 28.03125 7.640625 35.375 
Q 10.6875 42.71875 16.609375 48.484375 
Q 20.40625 52.09375 25.65625 54.046875 
Q 30.90625 56 36.8125 56 
Q 46.09375 56 51.578125 50.4375 
Q 57.078125 44.875 57.078125 35.5 
Q 57.078125 33.25 56.78125 30.6875 
Q 56.5 28.125 55.90625 25.203125 
z
" id="DejaVuSans-Oblique-101"/>
     <path d="M 44.578125 46.390625 
Q 43.21875 47.125 41.453125 47.515625 
Q 39.703125 47.90625 37.703125 47.90625 
Q 30.515625 47.90625 25.140625 42.453125 
Q 19.78125 37.015625 18.015625 27.875 
L 12.5 0 
L 3.515625 0 
L 14.203125 54.6875 
L 23.1875 54.6875 
L 21.484375 46.1875 
Q 25.046875 50.921875 30 53.453125 
Q 34.96875 56 40.578125 56 
Q 42.046875 56 43.453125 55.828125 
Q 44.875 55.671875 46.296875 55.28125 
z
" id="DejaVuSans-Oblique-114"/>
     <path d="M 8.203125 72.90625 
L 55.078125 72.90625 
L 55.078125 68.703125 
L 28.609375 0 
L 18.3125 0 
L 43.21875 64.59375 
L 8.203125 64.59375 
z
" id="DejaVuSans-55"/>
     <path d="M 41.796875 8.203125 
Q 38.1875 3.46875 33.25 1.015625 
Q 28.328125 -1.421875 22.3125 -1.421875 
Q 14.109375 -1.421875 9.34375 4.171875 
Q 4.59375 9.765625 4.59375 19.484375 
Q 4.59375 27.59375 7.46875 34.9375 
Q 10.359375 42.28125 15.828125 48.09375 
Q 19.4375 51.953125 23.96875 53.96875 
Q 28.515625 56 33.5 56 
Q 38.765625 56 42.796875 53.453125 
Q 46.828125 50.921875 49.03125 46.1875 
L 54.890625 75.984375 
L 63.921875 75.984375 
L 49.125 0 
L 40.09375 0 
z
M 13.921875 21.09375 
Q 13.921875 14.015625 17.109375 10.0625 
Q 20.3125 6.109375 25.984375 6.109375 
Q 30.171875 6.109375 33.765625 8.125 
Q 37.359375 10.15625 40.09375 14.109375 
Q 42.96875 18.21875 44.625 23.578125 
Q 46.296875 28.953125 46.296875 34.1875 
Q 46.296875 40.96875 43.09375 44.765625 
Q 39.890625 48.578125 34.28125 48.578125 
Q 30.03125 48.578125 26.359375 46.578125 
Q 22.703125 44.578125 20.125 40.828125 
Q 17.28125 36.765625 15.59375 31.390625 
Q 13.921875 26.03125 13.921875 21.09375 
z
" id="DejaVuSans-Oblique-100"/>
    </defs>
    <g transform="translate(261.4872 24.8988)scale(0.24 -0.24)">
     <use transform="translate(0 0.765625)" xlink:href="#DejaVuSans-Oblique-981"/>
     <use transform="translate(85.449219 0.765625)" xlink:href="#DejaVuSans-61"/>
     <use transform="translate(188.720703 0.765625)" xlink:href="#DejaVuSans-48"/>
     <use transform="translate(252.34375 0.765625)" xlink:href="#DejaVuSans-46"/>
     <use transform="translate(284.130859 0.765625)" xlink:href="#DejaVuSans-54"/>
     <use transform="translate(347.753906 0.765625)" xlink:href="#DejaVuSans-53"/>
     <use transform="translate(411.376953 0.765625)" xlink:href="#DejaVuSans-44"/>
     <use transform="translate(462.646484 0.765625)" xlink:href="#DejaVuSans-Oblique-108"/>
     <use transform="translate(490.429688 -15.640625)scale(0.7)" xlink:href="#DejaVuSans-Oblique-112"/>
     <use transform="translate(537.597656 0.765625)" xlink:href="#DejaVuSans-47"/>
     <use transform="translate(571.289062 0.765625)" xlink:href="#DejaVuSans-Oblique-963"/>
     <use transform="translate(654.150391 0.765625)" xlink:href="#DejaVuSans-61"/>
     <use transform="translate(757.421875 0.765625)" xlink:href="#DejaVuSans-53"/>
     <use transform="translate(821.044922 0.765625)" xlink:href="#DejaVuSans-48"/>
     <use transform="translate(884.667969 0.765625)" xlink:href="#DejaVuSans-32"/>
     <use transform="translate(916.455078 0.765625)" xlink:href="#DejaVuSans-40"/>
     <use transform="translate(955.46875 0.765625)" xlink:href="#DejaVuSans-Oblique-78"/>
     <use transform="translate(1030.273438 -15.640625)scale(0.7)" xlink:href="#DejaVuSans-Oblique-105"/>
     <use transform="translate(1049.72168 -15.640625)scale(0.7)" xlink:href="#DejaVuSans-Oblique-116"/>
     <use transform="translate(1077.167969 -15.640625)scale(0.7)" xlink:href="#DejaVuSans-Oblique-101"/>
     <use transform="translate(1120.234375 -15.640625)scale(0.7)" xlink:href="#DejaVuSans-Oblique-114"/>
     <use transform="translate(1171.230469 0.765625)" xlink:href="#DejaVuSans-61"/>
     <use transform="translate(1274.501953 0.765625)" xlink:href="#DejaVuSans-49"/>
     <use transform="translate(1338.125 0.765625)" xlink:href="#DejaVuSans-48"/>
     <use transform="translate(1402.705078 39.046875)scale(0.7)" xlink:href="#DejaVuSans-55"/>
     <use transform="translate(1449.975586 0.765625)" xlink:href="#DejaVuSans-44"/>
     <use transform="translate(1501.245117 0.765625)" xlink:href="#DejaVuSans-Oblique-100"/>
     <use transform="translate(1564.72168 0.765625)" xlink:href="#DejaVuSans-Oblique-116"/>
     <use transform="translate(1623.413086 0.765625)" xlink:href="#DejaVuSans-61"/>
     <use transform="translate(1726.68457 0.765625)" xlink:href="#DejaVuSans-49"/>
     <use transform="translate(1790.307617 0.765625)" xlink:href="#DejaVuSans-48"/>
     <use transform="translate(1854.887695 39.046875)scale(0.7)" xlink:href="#DejaVuSans-8722"/>
     <use transform="translate(1913.540039 39.046875)scale(0.7)" xlink:href="#DejaVuSans-51"/>
     <use transform="translate(1960.810547 0.765625)" xlink:href="#DejaVuSans-41"/>
    </g>
   </g>
   <g id="legend_1">
    <g id="patch_7">
     <path d="M 95.8152 165.23505 
L 188.5752 165.23505 
Q 190.9752 165.23505 190.9752 162.83505 
L 190.9752 40.7388 
Q 190.9752 38.3388 188.5752 38.3388 
L 95.8152 38.3388 
Q 93.4152 38.3388 93.4152 40.7388 
L 93.4152 162.83505 
Q 93.4152 165.23505 95.8152 165.23505 
z
" style="fill:#ffffff;opacity:0.8;stroke:#cccccc;stroke-linejoin:miter;"/>
    </g>
    <g id="line2d_133">
     <path d="M 98.2152 48.056925 
L 122.2152 48.056925 
" style="fill:none;stroke:#0000ff;stroke-linecap:square;stroke-width:1.5;"/>
    </g>
    <g id="line2d_134"/>
    <g id="text_18">
     <!-- $N = 10$ -->
     <g transform="translate(131.8152 52.256925)scale(0.12 -0.12)">
      <use transform="translate(0 0.78125)" xlink:href="#DejaVuSans-Oblique-78"/>
      <use transform="translate(94.287109 0.78125)" xlink:href="#DejaVuSans-61"/>
      <use transform="translate(197.558594 0.78125)" xlink:href="#DejaVuSans-49"/>
      <use transform="translate(261.181641 0.78125)" xlink:href="#DejaVuSans-48"/>
     </g>
    </g>
    <g id="line2d_135">
     <path d="M 98.2152 65.670675 
L 122.2152 65.670675 
" style="fill:none;stroke:#0080ff;stroke-linecap:square;stroke-width:1.5;"/>
    </g>
    <g id="line2d_136"/>
    <g id="text_19">
     <!-- $N = 20$ -->
     <g transform="translate(131.8152 69.870675)scale(0.12 -0.12)">
      <use transform="translate(0 0.78125)" xlink:href="#DejaVuSans-Oblique-78"/>
      <use transform="translate(94.287109 0.78125)" xlink:href="#DejaVuSans-61"/>
      <use transform="translate(197.558594 0.78125)" xlink:href="#DejaVuSans-50"/>
      <use transform="translate(261.181641 0.78125)" xlink:href="#DejaVuSans-48"/>
     </g>
    </g>
    <g id="line2d_137">
     <path d="M 98.2152 83.284425 
L 122.2152 83.284425 
" style="fill:none;stroke:#16ffe1;stroke-linecap:square;stroke-width:1.5;"/>
    </g>
    <g id="line2d_138"/>
    <g id="text_20">
     <!-- $N = 50$ -->
     <g transform="translate(131.8152 87.484425)scale(0.12 -0.12)">
      <use transform="translate(0 0.78125)" xlink:href="#DejaVuSans-Oblique-78"/>
      <use transform="translate(94.287109 0.78125)" xlink:href="#DejaVuSans-61"/>
      <use transform="translate(197.558594 0.78125)" xlink:href="#DejaVuSans-53"/>
      <use transform="translate(261.181641 0.78125)" xlink:href="#DejaVuSans-48"/>
     </g>
    </g>
    <g id="line2d_139">
     <path d="M 98.2152 100.898175 
L 122.2152 100.898175 
" style="fill:none;stroke:#7dff7a;stroke-linecap:square;stroke-width:1.5;"/>
    </g>
    <g id="line2d_140"/>
    <g id="text_21">
     <!-- $N = 100$ -->
     <g transform="translate(131.8152 105.098175)scale(0.12 -0.12)">
      <use transform="translate(0 0.78125)" xlink:href="#DejaVuSans-Oblique-78"/>
      <use transform="translate(94.287109 0.78125)" xlink:href="#DejaVuSans-61"/>
      <use transform="translate(197.558594 0.78125)" xlink:href="#DejaVuSans-49"/>
      <use transform="translate(261.181641 0.78125)" xlink:href="#DejaVuSans-48"/>
      <use transform="translate(324.804688 0.78125)" xlink:href="#DejaVuSans-48"/>
     </g>
    </g>
    <g id="line2d_141">
     <path d="M 98.2152 118.511925 
L 122.2152 118.511925 
" style="fill:none;stroke:#e4ff13;stroke-linecap:square;stroke-width:1.5;"/>
    </g>
    <g id="line2d_142"/>
    <g id="text_22">
     <!-- $N = 200$ -->
     <g transform="translate(131.8152 122.711925)scale(0.12 -0.12)">
      <use transform="translate(0 0.78125)" xlink:href="#DejaVuSans-Oblique-78"/>
      <use transform="translate(94.287109 0.78125)" xlink:href="#DejaVuSans-61"/>
      <use transform="translate(197.558594 0.78125)" xlink:href="#DejaVuSans-50"/>
      <use transform="translate(261.181641 0.78125)" xlink:href="#DejaVuSans-48"/>
      <use transform="translate(324.804688 0.78125)" xlink:href="#DejaVuSans-48"/>
     </g>
    </g>
    <g id="line2d_143">
     <path d="M 98.2152 136.125675 
L 122.2152 136.125675 
" style="fill:none;stroke:#ff9400;stroke-linecap:square;stroke-width:1.5;"/>
    </g>
    <g id="line2d_144"/>
    <g id="text_23">
     <!-- $N = 500$ -->
     <g transform="translate(131.8152 140.325675)scale(0.12 -0.12)">
      <use transform="translate(0 0.78125)" xlink:href="#DejaVuSans-Oblique-78"/>
      <use transform="translate(94.287109 0.78125)" xlink:href="#DejaVuSans-61"/>
      <use transform="translate(197.558594 0.78125)" xlink:href="#DejaVuSans-53"/>
      <use transform="translate(261.181641 0.78125)" xlink:href="#DejaVuSans-48"/>
      <use transform="translate(324.804688 0.78125)" xlink:href="#DejaVuSans-48"/>
     </g>
    </g>
    <g id="line2d_145">
     <path d="M 98.2152 153.739425 
L 122.2152 153.739425 
" style="fill:none;stroke:#ff1e00;stroke-linecap:square;stroke-width:1.5;"/>
    </g>
    <g id="line2d_146"/>
    <g id="text_24">
     <!-- $N = 1000$ -->
     <g transform="translate(131.8152 157.939425)scale(0.12 -0.12)">
      <use transform="translate(0 0.78125)" xlink:href="#DejaVuSans-Oblique-78"/>
      <use transform="translate(94.287109 0.78125)" xlink:href="#DejaVuSans-61"/>
      <use transform="translate(197.558594 0.78125)" xlink:href="#DejaVuSans-49"/>
      <use transform="translate(261.181641 0.78125)" xlink:href="#DejaVuSans-48"/>
      <use transform="translate(324.804688 0.78125)" xlink:href="#DejaVuSans-48"/>
      <use transform="translate(388.427734 0.78125)" xlink:href="#DejaVuSans-48"/>
     </g>
    </g>
   </g>
  </g>
 </g>
 <defs>
  <clipPath id="p755ba32ece">
   <rect height="407.9664" width="828.144" x="87.4152" y="32.3388"/>
  </clipPath>
 </defs>
</svg>
