<?xml version="1.0" encoding="utf-8" standalone="no"?>
<!DOCTYPE svg PUBLIC "-//W3C//DTD SVG 1.1//EN"
  "http://www.w3.org/Graphics/SVG/1.1/DTD/svg11.dtd">
<!-- Created with matplotlib (https://matplotlib.org/) -->
<svg height="497.52pt" version="1.1" viewBox="0 0 920.16 497.52" width="920.16pt" xmlns="http://www.w3.org/2000/svg" xmlns:xlink="http://www.w3.org/1999/xlink">
 <defs>
  <style type="text/css">
*{stroke-linecap:butt;stroke-linejoin:round;}
  </style>
 </defs>
 <g id="figure_1">
  <g id="patch_1">
   <path d="M 0 497.52 
L 920.16 497.52 
L 920.16 0 
L 0 0 
z
" style="fill:#ffffff;"/>
  </g>
  <g id="axes_1">
   <g id="patch_2">
    <path d="M 82.8144 440.3052 
L 915.5592 440.3052 
L 915.5592 32.3388 
L 82.8144 32.3388 
z
" style="fill:#ffffff;"/>
   </g>
   <g id="matplotlib.axis_1">
    <g id="xtick_1">
     <g id="line2d_1">
      <defs>
       <path d="M 0 0 
L 0 3.5 
" id="mef1882eda2" style="stroke:#000000;stroke-width:0.8;"/>
      </defs>
      <g>
       <use style="stroke:#000000;stroke-width:0.8;" x="210.815238" xlink:href="#mef1882eda2" y="440.3052"/>
      </g>
     </g>
     <g id="text_1">
      <!-- $\mathdefault{10^{-4}}$ -->
      <defs>
       <path d="M 12.40625 8.296875 
L 28.515625 8.296875 
L 28.515625 63.921875 
L 10.984375 60.40625 
L 10.984375 69.390625 
L 28.421875 72.90625 
L 38.28125 72.90625 
L 38.28125 8.296875 
L 54.390625 8.296875 
L 54.390625 0 
L 12.40625 0 
z
" id="DejaVuSans-49"/>
       <path d="M 31.78125 66.40625 
Q 24.171875 66.40625 20.328125 58.90625 
Q 16.5 51.421875 16.5 36.375 
Q 16.5 21.390625 20.328125 13.890625 
Q 24.171875 6.390625 31.78125 6.390625 
Q 39.453125 6.390625 43.28125 13.890625 
Q 47.125 21.390625 47.125 36.375 
Q 47.125 51.421875 43.28125 58.90625 
Q 39.453125 66.40625 31.78125 66.40625 
z
M 31.78125 74.21875 
Q 44.046875 74.21875 50.515625 64.515625 
Q 56.984375 54.828125 56.984375 36.375 
Q 56.984375 17.96875 50.515625 8.265625 
Q 44.046875 -1.421875 31.78125 -1.421875 
Q 19.53125 -1.421875 13.0625 8.265625 
Q 6.59375 17.96875 6.59375 36.375 
Q 6.59375 54.828125 13.0625 64.515625 
Q 19.53125 74.21875 31.78125 74.21875 
z
" id="DejaVuSans-48"/>
       <path d="M 10.59375 35.5 
L 73.1875 35.5 
L 73.1875 27.203125 
L 10.59375 27.203125 
z
" id="DejaVuSans-8722"/>
       <path d="M 37.796875 64.3125 
L 12.890625 25.390625 
L 37.796875 25.390625 
z
M 35.203125 72.90625 
L 47.609375 72.90625 
L 47.609375 25.390625 
L 58.015625 25.390625 
L 58.015625 17.1875 
L 47.609375 17.1875 
L 47.609375 0 
L 37.796875 0 
L 37.796875 17.1875 
L 4.890625 17.1875 
L 4.890625 26.703125 
z
" id="DejaVuSans-52"/>
      </defs>
      <g transform="translate(187.315238 462.502075)scale(0.2 -0.2)">
       <use transform="translate(0 0.684375)" xlink:href="#DejaVuSans-49"/>
       <use transform="translate(63.623047 0.684375)" xlink:href="#DejaVuSans-48"/>
       <use transform="translate(128.203125 38.965625)scale(0.7)" xlink:href="#DejaVuSans-8722"/>
       <use transform="translate(186.855469 38.965625)scale(0.7)" xlink:href="#DejaVuSans-52"/>
      </g>
     </g>
    </g>
    <g id="xtick_2">
     <g id="line2d_2">
      <g>
       <use style="stroke:#000000;stroke-width:0.8;" x="391.11284" xlink:href="#mef1882eda2" y="440.3052"/>
      </g>
     </g>
     <g id="text_2">
      <!-- $\mathdefault{10^{-2}}$ -->
      <defs>
       <path d="M 19.1875 8.296875 
L 53.609375 8.296875 
L 53.609375 0 
L 7.328125 0 
L 7.328125 8.296875 
Q 12.9375 14.109375 22.625 23.890625 
Q 32.328125 33.6875 34.8125 36.53125 
Q 39.546875 41.84375 41.421875 45.53125 
Q 43.3125 49.21875 43.3125 52.78125 
Q 43.3125 58.59375 39.234375 62.25 
Q 35.15625 65.921875 28.609375 65.921875 
Q 23.96875 65.921875 18.8125 64.3125 
Q 13.671875 62.703125 7.8125 59.421875 
L 7.8125 69.390625 
Q 13.765625 71.78125 18.9375 73 
Q 24.125 74.21875 28.421875 74.21875 
Q 39.75 74.21875 46.484375 68.546875 
Q 53.21875 62.890625 53.21875 53.421875 
Q 53.21875 48.921875 51.53125 44.890625 
Q 49.859375 40.875 45.40625 35.40625 
Q 44.1875 33.984375 37.640625 27.21875 
Q 31.109375 20.453125 19.1875 8.296875 
z
" id="DejaVuSans-50"/>
      </defs>
      <g transform="translate(367.61284 462.502075)scale(0.2 -0.2)">
       <use transform="translate(0 0.765625)" xlink:href="#DejaVuSans-49"/>
       <use transform="translate(63.623047 0.765625)" xlink:href="#DejaVuSans-48"/>
       <use transform="translate(128.203125 39.046875)scale(0.7)" xlink:href="#DejaVuSans-8722"/>
       <use transform="translate(186.855469 39.046875)scale(0.7)" xlink:href="#DejaVuSans-50"/>
      </g>
     </g>
    </g>
    <g id="xtick_3">
     <g id="line2d_3">
      <g>
       <use style="stroke:#000000;stroke-width:0.8;" x="571.410443" xlink:href="#mef1882eda2" y="440.3052"/>
      </g>
     </g>
     <g id="text_3">
      <!-- $\mathdefault{10^{0}}$ -->
      <g transform="translate(553.810443 462.502075)scale(0.2 -0.2)">
       <use transform="translate(0 0.765625)" xlink:href="#DejaVuSans-49"/>
       <use transform="translate(63.623047 0.765625)" xlink:href="#DejaVuSans-48"/>
       <use transform="translate(128.203125 39.046875)scale(0.7)" xlink:href="#DejaVuSans-48"/>
      </g>
     </g>
    </g>
    <g id="xtick_4">
     <g id="line2d_4">
      <g>
       <use style="stroke:#000000;stroke-width:0.8;" x="751.708045" xlink:href="#mef1882eda2" y="440.3052"/>
      </g>
     </g>
     <g id="text_4">
      <!-- $\mathdefault{10^{2}}$ -->
      <g transform="translate(734.108045 462.502075)scale(0.2 -0.2)">
       <use transform="translate(0 0.765625)" xlink:href="#DejaVuSans-49"/>
       <use transform="translate(63.623047 0.765625)" xlink:href="#DejaVuSans-48"/>
       <use transform="translate(128.203125 39.046875)scale(0.7)" xlink:href="#DejaVuSans-50"/>
      </g>
     </g>
    </g>
    <g id="text_5">
     <!-- $\tau/(l_p/\sigma)$ -->
     <defs>
      <path d="M 32.859375 9.96875 
Q 34.1875 7.625 39.453125 7.625 
L 43.75 7.625 
L 42.28125 0 
L 36.921875 0 
Q 28.125 0 25 4.6875 
Q 21.921875 9.46875 23.96875 19.828125 
L 29 45.703125 
L 8.453125 45.703125 
L 10.203125 54.6875 
L 60.640625 54.6875 
L 58.890625 45.703125 
L 38.1875 45.703125 
L 33.015625 19.28125 
Q 31.640625 12.203125 32.859375 9.96875 
z
" id="DejaVuSans-Oblique-964"/>
      <path d="M 25.390625 72.90625 
L 33.6875 72.90625 
L 8.296875 -9.28125 
L 0 -9.28125 
z
" id="DejaVuSans-47"/>
      <path d="M 31 75.875 
Q 24.46875 64.65625 21.28125 53.65625 
Q 18.109375 42.671875 18.109375 31.390625 
Q 18.109375 20.125 21.3125 9.0625 
Q 24.515625 -2 31 -13.1875 
L 23.1875 -13.1875 
Q 15.875 -1.703125 12.234375 9.375 
Q 8.59375 20.453125 8.59375 31.390625 
Q 8.59375 42.28125 12.203125 53.3125 
Q 15.828125 64.359375 23.1875 75.875 
z
" id="DejaVuSans-40"/>
      <path d="M 18.3125 75.984375 
L 27.296875 75.984375 
L 12.5 0 
L 3.515625 0 
z
" id="DejaVuSans-Oblique-108"/>
      <path d="M 49.609375 33.6875 
Q 49.609375 40.875 46.484375 44.671875 
Q 43.359375 48.484375 37.5 48.484375 
Q 33.5 48.484375 29.859375 46.4375 
Q 26.21875 44.390625 23.390625 40.484375 
Q 20.609375 36.625 18.9375 31.15625 
Q 17.28125 25.6875 17.28125 20.3125 
Q 17.28125 13.484375 20.40625 9.796875 
Q 23.53125 6.109375 29.296875 6.109375 
Q 33.546875 6.109375 37.1875 8.109375 
Q 40.828125 10.109375 43.40625 13.921875 
Q 46.1875 17.921875 47.890625 23.34375 
Q 49.609375 28.765625 49.609375 33.6875 
z
M 21.78125 46.390625 
Q 25.390625 51.125 30.296875 53.5625 
Q 35.203125 56 41.21875 56 
Q 49.609375 56 54.25 50.5 
Q 58.890625 45.015625 58.890625 35.109375 
Q 58.890625 27 56 19.65625 
Q 53.125 12.3125 47.703125 6.5 
Q 44.09375 2.640625 39.546875 0.609375 
Q 35.015625 -1.421875 29.984375 -1.421875 
Q 24.171875 -1.421875 20.21875 1 
Q 16.265625 3.421875 14.3125 8.203125 
L 8.6875 -20.796875 
L -0.296875 -20.796875 
L 14.40625 54.6875 
L 23.390625 54.6875 
z
" id="DejaVuSans-Oblique-112"/>
      <path d="M 34.671875 47.5625 
Q 27.25 47.5625 22.21875 42.1875 
Q 16.890625 36.578125 15.140625 27.296875 
Q 13.1875 17.484375 16.3125 11.8125 
Q 19.390625 6.203125 26.65625 6.203125 
Q 33.84375 6.203125 39.109375 11.859375 
Q 44.4375 17.53125 46.34375 27.296875 
Q 48.046875 36.234375 45.015625 42.1875 
Q 42.1875 47.5625 34.671875 47.5625 
z
M 36.078125 54.734375 
L 65.921875 54.6875 
L 64.15625 45.703125 
L 54.109375 45.703125 
Q 57.90625 38.09375 55.859375 27.296875 
Q 53.21875 13.875 45.0625 6.25 
Q 36.859375 -1.421875 25.140625 -1.421875 
Q 13.375 -1.421875 8.203125 6.25 
Q 3.03125 13.875 5.671875 27.296875 
Q 8.25 40.765625 16.40625 48.390625 
Q 23.1875 54.734375 36.078125 54.734375 
z
" id="DejaVuSans-Oblique-963"/>
      <path d="M 8.015625 75.875 
L 15.828125 75.875 
Q 23.140625 64.359375 26.78125 53.3125 
Q 30.421875 42.28125 30.421875 31.390625 
Q 30.421875 20.453125 26.78125 9.375 
Q 23.140625 -1.703125 15.828125 -13.1875 
L 8.015625 -13.1875 
Q 14.5 -2 17.703125 9.0625 
Q 20.90625 20.125 20.90625 31.390625 
Q 20.90625 42.671875 17.703125 53.65625 
Q 14.5 64.65625 8.015625 75.875 
z
" id="DejaVuSans-41"/>
     </defs>
     <g transform="translate(464.7868 485.86145)scale(0.2 -0.2)">
      <use transform="translate(0 0.015625)" xlink:href="#DejaVuSans-Oblique-964"/>
      <use transform="translate(60.205078 0.015625)" xlink:href="#DejaVuSans-47"/>
      <use transform="translate(93.896484 0.015625)" xlink:href="#DejaVuSans-40"/>
      <use transform="translate(132.910156 0.015625)" xlink:href="#DejaVuSans-Oblique-108"/>
      <use transform="translate(160.693359 -16.390625)scale(0.7)" xlink:href="#DejaVuSans-Oblique-112"/>
      <use transform="translate(207.861328 0.015625)" xlink:href="#DejaVuSans-47"/>
      <use transform="translate(241.552734 0.015625)" xlink:href="#DejaVuSans-Oblique-963"/>
      <use transform="translate(304.931641 0.015625)" xlink:href="#DejaVuSans-41"/>
     </g>
    </g>
   </g>
   <g id="matplotlib.axis_2">
    <g id="ytick_1">
     <g id="line2d_5">
      <defs>
       <path d="M 0 0 
L -3.5 0 
" id="m79c099f293" style="stroke:#000000;stroke-width:0.8;"/>
      </defs>
      <g>
       <use style="stroke:#000000;stroke-width:0.8;" x="82.8144" xlink:href="#m79c099f293" y="418.507437"/>
      </g>
     </g>
     <g id="text_6">
      <!-- $\mathdefault{10^{-6}}$ -->
      <defs>
       <path d="M 33.015625 40.375 
Q 26.375 40.375 22.484375 35.828125 
Q 18.609375 31.296875 18.609375 23.390625 
Q 18.609375 15.53125 22.484375 10.953125 
Q 26.375 6.390625 33.015625 6.390625 
Q 39.65625 6.390625 43.53125 10.953125 
Q 47.40625 15.53125 47.40625 23.390625 
Q 47.40625 31.296875 43.53125 35.828125 
Q 39.65625 40.375 33.015625 40.375 
z
M 52.59375 71.296875 
L 52.59375 62.3125 
Q 48.875 64.0625 45.09375 64.984375 
Q 41.3125 65.921875 37.59375 65.921875 
Q 27.828125 65.921875 22.671875 59.328125 
Q 17.53125 52.734375 16.796875 39.40625 
Q 19.671875 43.65625 24.015625 45.921875 
Q 28.375 48.1875 33.59375 48.1875 
Q 44.578125 48.1875 50.953125 41.515625 
Q 57.328125 34.859375 57.328125 23.390625 
Q 57.328125 12.15625 50.6875 5.359375 
Q 44.046875 -1.421875 33.015625 -1.421875 
Q 20.359375 -1.421875 13.671875 8.265625 
Q 6.984375 17.96875 6.984375 36.375 
Q 6.984375 53.65625 15.1875 63.9375 
Q 23.390625 74.21875 37.203125 74.21875 
Q 40.921875 74.21875 44.703125 73.484375 
Q 48.484375 72.75 52.59375 71.296875 
z
" id="DejaVuSans-54"/>
      </defs>
      <g transform="translate(28.8144 426.105874)scale(0.2 -0.2)">
       <use transform="translate(0 0.765625)" xlink:href="#DejaVuSans-49"/>
       <use transform="translate(63.623047 0.765625)" xlink:href="#DejaVuSans-48"/>
       <use transform="translate(128.203125 39.046875)scale(0.7)" xlink:href="#DejaVuSans-8722"/>
       <use transform="translate(186.855469 39.046875)scale(0.7)" xlink:href="#DejaVuSans-54"/>
      </g>
     </g>
    </g>
    <g id="ytick_2">
     <g id="line2d_6">
      <g>
       <use style="stroke:#000000;stroke-width:0.8;" x="82.8144" xlink:href="#m79c099f293" y="352.615176"/>
      </g>
     </g>
     <g id="text_7">
      <!-- $\mathdefault{10^{-5}}$ -->
      <defs>
       <path d="M 10.796875 72.90625 
L 49.515625 72.90625 
L 49.515625 64.59375 
L 19.828125 64.59375 
L 19.828125 46.734375 
Q 21.96875 47.46875 24.109375 47.828125 
Q 26.265625 48.1875 28.421875 48.1875 
Q 40.625 48.1875 47.75 41.5 
Q 54.890625 34.8125 54.890625 23.390625 
Q 54.890625 11.625 47.5625 5.09375 
Q 40.234375 -1.421875 26.90625 -1.421875 
Q 22.3125 -1.421875 17.546875 -0.640625 
Q 12.796875 0.140625 7.71875 1.703125 
L 7.71875 11.625 
Q 12.109375 9.234375 16.796875 8.0625 
Q 21.484375 6.890625 26.703125 6.890625 
Q 35.15625 6.890625 40.078125 11.328125 
Q 45.015625 15.765625 45.015625 23.390625 
Q 45.015625 31 40.078125 35.4375 
Q 35.15625 39.890625 26.703125 39.890625 
Q 22.75 39.890625 18.8125 39.015625 
Q 14.890625 38.140625 10.796875 36.28125 
z
" id="DejaVuSans-53"/>
      </defs>
      <g transform="translate(28.8144 360.213614)scale(0.2 -0.2)">
       <use transform="translate(0 0.684375)" xlink:href="#DejaVuSans-49"/>
       <use transform="translate(63.623047 0.684375)" xlink:href="#DejaVuSans-48"/>
       <use transform="translate(128.203125 38.965625)scale(0.7)" xlink:href="#DejaVuSans-8722"/>
       <use transform="translate(186.855469 38.965625)scale(0.7)" xlink:href="#DejaVuSans-53"/>
      </g>
     </g>
    </g>
    <g id="ytick_3">
     <g id="line2d_7">
      <g>
       <use style="stroke:#000000;stroke-width:0.8;" x="82.8144" xlink:href="#m79c099f293" y="286.722915"/>
      </g>
     </g>
     <g id="text_8">
      <!-- $\mathdefault{10^{-4}}$ -->
      <g transform="translate(28.8144 294.321353)scale(0.2 -0.2)">
       <use transform="translate(0 0.684375)" xlink:href="#DejaVuSans-49"/>
       <use transform="translate(63.623047 0.684375)" xlink:href="#DejaVuSans-48"/>
       <use transform="translate(128.203125 38.965625)scale(0.7)" xlink:href="#DejaVuSans-8722"/>
       <use transform="translate(186.855469 38.965625)scale(0.7)" xlink:href="#DejaVuSans-52"/>
      </g>
     </g>
    </g>
    <g id="ytick_4">
     <g id="line2d_8">
      <g>
       <use style="stroke:#000000;stroke-width:0.8;" x="82.8144" xlink:href="#m79c099f293" y="220.830655"/>
      </g>
     </g>
     <g id="text_9">
      <!-- $\mathdefault{10^{-3}}$ -->
      <defs>
       <path d="M 40.578125 39.3125 
Q 47.65625 37.796875 51.625 33 
Q 55.609375 28.21875 55.609375 21.1875 
Q 55.609375 10.40625 48.1875 4.484375 
Q 40.765625 -1.421875 27.09375 -1.421875 
Q 22.515625 -1.421875 17.65625 -0.515625 
Q 12.796875 0.390625 7.625 2.203125 
L 7.625 11.71875 
Q 11.71875 9.328125 16.59375 8.109375 
Q 21.484375 6.890625 26.8125 6.890625 
Q 36.078125 6.890625 40.9375 10.546875 
Q 45.796875 14.203125 45.796875 21.1875 
Q 45.796875 27.640625 41.28125 31.265625 
Q 36.765625 34.90625 28.71875 34.90625 
L 20.21875 34.90625 
L 20.21875 43.015625 
L 29.109375 43.015625 
Q 36.375 43.015625 40.234375 45.921875 
Q 44.09375 48.828125 44.09375 54.296875 
Q 44.09375 59.90625 40.109375 62.90625 
Q 36.140625 65.921875 28.71875 65.921875 
Q 24.65625 65.921875 20.015625 65.03125 
Q 15.375 64.15625 9.8125 62.3125 
L 9.8125 71.09375 
Q 15.4375 72.65625 20.34375 73.4375 
Q 25.25 74.21875 29.59375 74.21875 
Q 40.828125 74.21875 47.359375 69.109375 
Q 53.90625 64.015625 53.90625 55.328125 
Q 53.90625 49.265625 50.4375 45.09375 
Q 46.96875 40.921875 40.578125 39.3125 
z
" id="DejaVuSans-51"/>
      </defs>
      <g transform="translate(28.8144 228.429092)scale(0.2 -0.2)">
       <use transform="translate(0 0.765625)" xlink:href="#DejaVuSans-49"/>
       <use transform="translate(63.623047 0.765625)" xlink:href="#DejaVuSans-48"/>
       <use transform="translate(128.203125 39.046875)scale(0.7)" xlink:href="#DejaVuSans-8722"/>
       <use transform="translate(186.855469 39.046875)scale(0.7)" xlink:href="#DejaVuSans-51"/>
      </g>
     </g>
    </g>
    <g id="ytick_5">
     <g id="line2d_9">
      <g>
       <use style="stroke:#000000;stroke-width:0.8;" x="82.8144" xlink:href="#m79c099f293" y="154.938394"/>
      </g>
     </g>
     <g id="text_10">
      <!-- $\mathdefault{10^{-2}}$ -->
      <g transform="translate(28.8144 162.536832)scale(0.2 -0.2)">
       <use transform="translate(0 0.765625)" xlink:href="#DejaVuSans-49"/>
       <use transform="translate(63.623047 0.765625)" xlink:href="#DejaVuSans-48"/>
       <use transform="translate(128.203125 39.046875)scale(0.7)" xlink:href="#DejaVuSans-8722"/>
       <use transform="translate(186.855469 39.046875)scale(0.7)" xlink:href="#DejaVuSans-50"/>
      </g>
     </g>
    </g>
    <g id="ytick_6">
     <g id="line2d_10">
      <g>
       <use style="stroke:#000000;stroke-width:0.8;" x="82.8144" xlink:href="#m79c099f293" y="89.046134"/>
      </g>
     </g>
     <g id="text_11">
      <!-- $\mathdefault{10^{-1}}$ -->
      <g transform="translate(28.8144 96.644571)scale(0.2 -0.2)">
       <use transform="translate(0 0.684375)" xlink:href="#DejaVuSans-49"/>
       <use transform="translate(63.623047 0.684375)" xlink:href="#DejaVuSans-48"/>
       <use transform="translate(128.203125 38.965625)scale(0.7)" xlink:href="#DejaVuSans-8722"/>
       <use transform="translate(186.855469 38.965625)scale(0.7)" xlink:href="#DejaVuSans-49"/>
      </g>
     </g>
    </g>
    <g id="ytick_7">
     <g id="line2d_11">
      <defs>
       <path d="M 0 0 
L -2 0 
" id="m53a2663014" style="stroke:#000000;stroke-width:0.6;"/>
      </defs>
      <g>
       <use style="stroke:#000000;stroke-width:0.6;" x="82.8144" xlink:href="#m53a2663014" y="438.342984"/>
      </g>
     </g>
    </g>
    <g id="ytick_8">
     <g id="line2d_12">
      <g>
       <use style="stroke:#000000;stroke-width:0.6;" x="82.8144" xlink:href="#m53a2663014" y="433.125552"/>
      </g>
     </g>
    </g>
    <g id="ytick_9">
     <g id="line2d_13">
      <g>
       <use style="stroke:#000000;stroke-width:0.6;" x="82.8144" xlink:href="#m53a2663014" y="428.714277"/>
      </g>
     </g>
    </g>
    <g id="ytick_10">
     <g id="line2d_14">
      <g>
       <use style="stroke:#000000;stroke-width:0.6;" x="82.8144" xlink:href="#m53a2663014" y="424.893056"/>
      </g>
     </g>
    </g>
    <g id="ytick_11">
     <g id="line2d_15">
      <g>
       <use style="stroke:#000000;stroke-width:0.6;" x="82.8144" xlink:href="#m53a2663014" y="421.522501"/>
      </g>
     </g>
    </g>
    <g id="ytick_12">
     <g id="line2d_16">
      <g>
       <use style="stroke:#000000;stroke-width:0.6;" x="82.8144" xlink:href="#m53a2663014" y="398.67189"/>
      </g>
     </g>
    </g>
    <g id="ytick_13">
     <g id="line2d_17">
      <g>
       <use style="stroke:#000000;stroke-width:0.6;" x="82.8144" xlink:href="#m53a2663014" y="387.068839"/>
      </g>
     </g>
    </g>
    <g id="ytick_14">
     <g id="line2d_18">
      <g>
       <use style="stroke:#000000;stroke-width:0.6;" x="82.8144" xlink:href="#m53a2663014" y="378.836343"/>
      </g>
     </g>
    </g>
    <g id="ytick_15">
     <g id="line2d_19">
      <g>
       <use style="stroke:#000000;stroke-width:0.6;" x="82.8144" xlink:href="#m53a2663014" y="372.450723"/>
      </g>
     </g>
    </g>
    <g id="ytick_16">
     <g id="line2d_20">
      <g>
       <use style="stroke:#000000;stroke-width:0.6;" x="82.8144" xlink:href="#m53a2663014" y="367.233292"/>
      </g>
     </g>
    </g>
    <g id="ytick_17">
     <g id="line2d_21">
      <g>
       <use style="stroke:#000000;stroke-width:0.6;" x="82.8144" xlink:href="#m53a2663014" y="362.822016"/>
      </g>
     </g>
    </g>
    <g id="ytick_18">
     <g id="line2d_22">
      <g>
       <use style="stroke:#000000;stroke-width:0.6;" x="82.8144" xlink:href="#m53a2663014" y="359.000796"/>
      </g>
     </g>
    </g>
    <g id="ytick_19">
     <g id="line2d_23">
      <g>
       <use style="stroke:#000000;stroke-width:0.6;" x="82.8144" xlink:href="#m53a2663014" y="355.630241"/>
      </g>
     </g>
    </g>
    <g id="ytick_20">
     <g id="line2d_24">
      <g>
       <use style="stroke:#000000;stroke-width:0.6;" x="82.8144" xlink:href="#m53a2663014" y="332.779629"/>
      </g>
     </g>
    </g>
    <g id="ytick_21">
     <g id="line2d_25">
      <g>
       <use style="stroke:#000000;stroke-width:0.6;" x="82.8144" xlink:href="#m53a2663014" y="321.176578"/>
      </g>
     </g>
    </g>
    <g id="ytick_22">
     <g id="line2d_26">
      <g>
       <use style="stroke:#000000;stroke-width:0.6;" x="82.8144" xlink:href="#m53a2663014" y="312.944082"/>
      </g>
     </g>
    </g>
    <g id="ytick_23">
     <g id="line2d_27">
      <g>
       <use style="stroke:#000000;stroke-width:0.6;" x="82.8144" xlink:href="#m53a2663014" y="306.558462"/>
      </g>
     </g>
    </g>
    <g id="ytick_24">
     <g id="line2d_28">
      <g>
       <use style="stroke:#000000;stroke-width:0.6;" x="82.8144" xlink:href="#m53a2663014" y="301.341031"/>
      </g>
     </g>
    </g>
    <g id="ytick_25">
     <g id="line2d_29">
      <g>
       <use style="stroke:#000000;stroke-width:0.6;" x="82.8144" xlink:href="#m53a2663014" y="296.929756"/>
      </g>
     </g>
    </g>
    <g id="ytick_26">
     <g id="line2d_30">
      <g>
       <use style="stroke:#000000;stroke-width:0.6;" x="82.8144" xlink:href="#m53a2663014" y="293.108535"/>
      </g>
     </g>
    </g>
    <g id="ytick_27">
     <g id="line2d_31">
      <g>
       <use style="stroke:#000000;stroke-width:0.6;" x="82.8144" xlink:href="#m53a2663014" y="289.73798"/>
      </g>
     </g>
    </g>
    <g id="ytick_28">
     <g id="line2d_32">
      <g>
       <use style="stroke:#000000;stroke-width:0.6;" x="82.8144" xlink:href="#m53a2663014" y="266.887369"/>
      </g>
     </g>
    </g>
    <g id="ytick_29">
     <g id="line2d_33">
      <g>
       <use style="stroke:#000000;stroke-width:0.6;" x="82.8144" xlink:href="#m53a2663014" y="255.284317"/>
      </g>
     </g>
    </g>
    <g id="ytick_30">
     <g id="line2d_34">
      <g>
       <use style="stroke:#000000;stroke-width:0.6;" x="82.8144" xlink:href="#m53a2663014" y="247.051822"/>
      </g>
     </g>
    </g>
    <g id="ytick_31">
     <g id="line2d_35">
      <g>
       <use style="stroke:#000000;stroke-width:0.6;" x="82.8144" xlink:href="#m53a2663014" y="240.666202"/>
      </g>
     </g>
    </g>
    <g id="ytick_32">
     <g id="line2d_36">
      <g>
       <use style="stroke:#000000;stroke-width:0.6;" x="82.8144" xlink:href="#m53a2663014" y="235.448771"/>
      </g>
     </g>
    </g>
    <g id="ytick_33">
     <g id="line2d_37">
      <g>
       <use style="stroke:#000000;stroke-width:0.6;" x="82.8144" xlink:href="#m53a2663014" y="231.037495"/>
      </g>
     </g>
    </g>
    <g id="ytick_34">
     <g id="line2d_38">
      <g>
       <use style="stroke:#000000;stroke-width:0.6;" x="82.8144" xlink:href="#m53a2663014" y="227.216275"/>
      </g>
     </g>
    </g>
    <g id="ytick_35">
     <g id="line2d_39">
      <g>
       <use style="stroke:#000000;stroke-width:0.6;" x="82.8144" xlink:href="#m53a2663014" y="223.845719"/>
      </g>
     </g>
    </g>
    <g id="ytick_36">
     <g id="line2d_40">
      <g>
       <use style="stroke:#000000;stroke-width:0.6;" x="82.8144" xlink:href="#m53a2663014" y="200.995108"/>
      </g>
     </g>
    </g>
    <g id="ytick_37">
     <g id="line2d_41">
      <g>
       <use style="stroke:#000000;stroke-width:0.6;" x="82.8144" xlink:href="#m53a2663014" y="189.392057"/>
      </g>
     </g>
    </g>
    <g id="ytick_38">
     <g id="line2d_42">
      <g>
       <use style="stroke:#000000;stroke-width:0.6;" x="82.8144" xlink:href="#m53a2663014" y="181.159561"/>
      </g>
     </g>
    </g>
    <g id="ytick_39">
     <g id="line2d_43">
      <g>
       <use style="stroke:#000000;stroke-width:0.6;" x="82.8144" xlink:href="#m53a2663014" y="174.773941"/>
      </g>
     </g>
    </g>
    <g id="ytick_40">
     <g id="line2d_44">
      <g>
       <use style="stroke:#000000;stroke-width:0.6;" x="82.8144" xlink:href="#m53a2663014" y="169.55651"/>
      </g>
     </g>
    </g>
    <g id="ytick_41">
     <g id="line2d_45">
      <g>
       <use style="stroke:#000000;stroke-width:0.6;" x="82.8144" xlink:href="#m53a2663014" y="165.145235"/>
      </g>
     </g>
    </g>
    <g id="ytick_42">
     <g id="line2d_46">
      <g>
       <use style="stroke:#000000;stroke-width:0.6;" x="82.8144" xlink:href="#m53a2663014" y="161.324014"/>
      </g>
     </g>
    </g>
    <g id="ytick_43">
     <g id="line2d_47">
      <g>
       <use style="stroke:#000000;stroke-width:0.6;" x="82.8144" xlink:href="#m53a2663014" y="157.953459"/>
      </g>
     </g>
    </g>
    <g id="ytick_44">
     <g id="line2d_48">
      <g>
       <use style="stroke:#000000;stroke-width:0.6;" x="82.8144" xlink:href="#m53a2663014" y="135.102847"/>
      </g>
     </g>
    </g>
    <g id="ytick_45">
     <g id="line2d_49">
      <g>
       <use style="stroke:#000000;stroke-width:0.6;" x="82.8144" xlink:href="#m53a2663014" y="123.499796"/>
      </g>
     </g>
    </g>
    <g id="ytick_46">
     <g id="line2d_50">
      <g>
       <use style="stroke:#000000;stroke-width:0.6;" x="82.8144" xlink:href="#m53a2663014" y="115.2673"/>
      </g>
     </g>
    </g>
    <g id="ytick_47">
     <g id="line2d_51">
      <g>
       <use style="stroke:#000000;stroke-width:0.6;" x="82.8144" xlink:href="#m53a2663014" y="108.881681"/>
      </g>
     </g>
    </g>
    <g id="ytick_48">
     <g id="line2d_52">
      <g>
       <use style="stroke:#000000;stroke-width:0.6;" x="82.8144" xlink:href="#m53a2663014" y="103.664249"/>
      </g>
     </g>
    </g>
    <g id="ytick_49">
     <g id="line2d_53">
      <g>
       <use style="stroke:#000000;stroke-width:0.6;" x="82.8144" xlink:href="#m53a2663014" y="99.252974"/>
      </g>
     </g>
    </g>
    <g id="ytick_50">
     <g id="line2d_54">
      <g>
       <use style="stroke:#000000;stroke-width:0.6;" x="82.8144" xlink:href="#m53a2663014" y="95.431754"/>
      </g>
     </g>
    </g>
    <g id="ytick_51">
     <g id="line2d_55">
      <g>
       <use style="stroke:#000000;stroke-width:0.6;" x="82.8144" xlink:href="#m53a2663014" y="92.061198"/>
      </g>
     </g>
    </g>
    <g id="ytick_52">
     <g id="line2d_56">
      <g>
       <use style="stroke:#000000;stroke-width:0.6;" x="82.8144" xlink:href="#m53a2663014" y="69.210587"/>
      </g>
     </g>
    </g>
    <g id="ytick_53">
     <g id="line2d_57">
      <g>
       <use style="stroke:#000000;stroke-width:0.6;" x="82.8144" xlink:href="#m53a2663014" y="57.607536"/>
      </g>
     </g>
    </g>
    <g id="ytick_54">
     <g id="line2d_58">
      <g>
       <use style="stroke:#000000;stroke-width:0.6;" x="82.8144" xlink:href="#m53a2663014" y="49.37504"/>
      </g>
     </g>
    </g>
    <g id="ytick_55">
     <g id="line2d_59">
      <g>
       <use style="stroke:#000000;stroke-width:0.6;" x="82.8144" xlink:href="#m53a2663014" y="42.98942"/>
      </g>
     </g>
    </g>
    <g id="ytick_56">
     <g id="line2d_60">
      <g>
       <use style="stroke:#000000;stroke-width:0.6;" x="82.8144" xlink:href="#m53a2663014" y="37.771989"/>
      </g>
     </g>
    </g>
    <g id="ytick_57">
     <g id="line2d_61">
      <g>
       <use style="stroke:#000000;stroke-width:0.6;" x="82.8144" xlink:href="#m53a2663014" y="33.360713"/>
      </g>
     </g>
    </g>
    <g id="text_12">
     <!-- $\tau &lt;\delta w_f(t_0; \tau)^2&gt;$ -->
     <defs>
      <path d="M 73.1875 49.21875 
L 22.796875 31.296875 
L 73.1875 13.484375 
L 73.1875 4.59375 
L 10.59375 27.296875 
L 10.59375 35.40625 
L 73.1875 58.109375 
z
" id="DejaVuSans-60"/>
      <path d="M 54.25 63.328125 
Q 49.953125 66.75 38.28125 66.75 
Q 25.921875 66.75 24.8125 61.03125 
Q 23.921875 56.546875 36.375 54.203125 
Q 46.140625 52.390625 50.828125 46.921875 
Q 56.5 40.328125 53.859375 26.8125 
Q 51.3125 13.875 43.171875 6.25 
Q 34.96875 -1.421875 23.25 -1.421875 
Q 11.578125 -1.421875 6.34375 6.25 
Q 1.125 13.875 3.765625 27.296875 
Q 5.671875 37.25 13.921875 45.3125 
Q 17.140625 48.4375 21.140625 50.203125 
Q 14.265625 54.046875 15.625 60.9375 
Q 18.21875 74.21875 39.75 74.21875 
Q 50.53125 74.21875 55.71875 70.796875 
z
M 27.390625 47.75 
Q 23.828125 46.34375 20.40625 42.78125 
Q 15.140625 37.25 13.234375 27.296875 
Q 11.28125 17.390625 14.359375 11.8125 
Q 17.484375 6.203125 24.75 6.203125 
Q 31.9375 6.203125 37.203125 11.859375 
Q 42.53125 17.53125 44.34375 26.8125 
Q 46.1875 36.53125 42.671875 41.21875 
Q 38.921875 46.234375 32.859375 46.78125 
Q 29.78125 47.078125 27.390625 47.75 
z
" id="DejaVuSans-Oblique-948"/>
      <path d="M 8.5 54.6875 
L 17.390625 54.6875 
L 19.671875 10.6875 
L 40.09375 54.6875 
L 50.484375 54.6875 
L 53.515625 10.6875 
L 72.90625 54.6875 
L 81.890625 54.6875 
L 56.890625 0 
L 46.390625 0 
L 43.703125 45.3125 
L 22.796875 0 
L 12.203125 0 
z
" id="DejaVuSans-Oblique-119"/>
      <path d="M 47.796875 75.984375 
L 46.390625 68.5 
L 37.796875 68.5 
Q 32.90625 68.5 30.6875 66.578125 
Q 28.46875 64.65625 27.390625 59.515625 
L 26.421875 54.6875 
L 41.21875 54.6875 
L 39.890625 47.703125 
L 25.09375 47.703125 
L 15.828125 0 
L 6.78125 0 
L 16.109375 47.703125 
L 7.515625 47.703125 
L 8.796875 54.6875 
L 17.390625 54.6875 
L 18.109375 58.5 
Q 19.96875 68.171875 24.625 72.078125 
Q 29.296875 75.984375 39.3125 75.984375 
z
" id="DejaVuSans-Oblique-102"/>
      <path d="M 42.28125 54.6875 
L 40.921875 47.703125 
L 23 47.703125 
L 17.1875 18.015625 
Q 16.890625 16.359375 16.75 15.234375 
Q 16.609375 14.109375 16.609375 13.484375 
Q 16.609375 10.359375 18.484375 8.9375 
Q 20.359375 7.515625 24.515625 7.515625 
L 33.59375 7.515625 
L 32.078125 0 
L 23.484375 0 
Q 15.484375 0 11.546875 3.125 
Q 7.625 6.25 7.625 12.59375 
Q 7.625 13.71875 7.765625 15.0625 
Q 7.90625 16.40625 8.203125 18.015625 
L 14.015625 47.703125 
L 6.390625 47.703125 
L 7.8125 54.6875 
L 15.28125 54.6875 
L 18.3125 70.21875 
L 27.296875 70.21875 
L 24.3125 54.6875 
z
" id="DejaVuSans-Oblique-116"/>
      <path d="M 11.71875 51.703125 
L 22.015625 51.703125 
L 22.015625 39.3125 
L 11.71875 39.3125 
z
M 11.71875 12.40625 
L 22.015625 12.40625 
L 22.015625 4 
L 14.015625 -11.625 
L 7.71875 -11.625 
L 11.71875 4 
z
" id="DejaVuSans-59"/>
      <path d="M 10.59375 49.21875 
L 10.59375 58.109375 
L 73.1875 35.40625 
L 73.1875 27.296875 
L 10.59375 4.59375 
L 10.59375 13.484375 
L 60.890625 31.296875 
z
" id="DejaVuSans-62"/>
     </defs>
     <g transform="translate(20.655025 316.622)rotate(-90)scale(0.2 -0.2)">
      <use transform="translate(0 0.765625)" xlink:href="#DejaVuSans-Oblique-964"/>
      <use transform="translate(79.6875 0.765625)" xlink:href="#DejaVuSans-60"/>
      <use transform="translate(182.958984 0.765625)" xlink:href="#DejaVuSans-Oblique-948"/>
      <use transform="translate(244.140625 0.765625)" xlink:href="#DejaVuSans-Oblique-119"/>
      <use transform="translate(325.927734 -15.640625)scale(0.7)" xlink:href="#DejaVuSans-Oblique-102"/>
      <use transform="translate(353.305664 0.765625)" xlink:href="#DejaVuSans-40"/>
      <use transform="translate(392.319336 0.765625)" xlink:href="#DejaVuSans-Oblique-116"/>
      <use transform="translate(431.52832 -15.640625)scale(0.7)" xlink:href="#DejaVuSans-48"/>
      <use transform="translate(478.798828 0.765625)" xlink:href="#DejaVuSans-59"/>
      <use transform="translate(531.972656 0.765625)" xlink:href="#DejaVuSans-Oblique-964"/>
      <use transform="translate(592.177734 0.765625)" xlink:href="#DejaVuSans-41"/>
      <use transform="translate(632.148438 39.046875)scale(0.7)" xlink:href="#DejaVuSans-50"/>
      <use transform="translate(698.901367 0.765625)" xlink:href="#DejaVuSans-62"/>
     </g>
    </g>
   </g>
   <g id="line2d_62">
    <path clip-path="url(#p308db66fe5)" d="M 273.826546 349.91332 
L 300.964039 333.291592 
L 316.838455 323.890778 
L 328.101532 317.491109 
L 336.837854 312.726075 
L 343.975948 308.968338 
L 355.239025 303.333419 
L 359.850364 301.13071 
L 363.975347 299.216924 
L 371.113441 296.03398 
L 377.148614 293.481113 
L 384.750041 290.380805 
L 389.10465 288.7106 
L 396.584678 285.964383 
L 401.384697 284.291896 
L 408.271015 281.985292 
L 414.125351 280.143931 
L 420.160523 278.309328 
L 426.195696 276.58939 
L 432.116559 274.939472 
L 438.445 273.297548 
L 444.396606 271.847513 
L 450.859664 270.392272 
L 456.773061 269.037097 
L 462.86047 267.693338 
L 468.940361 266.496937 
L 475.128468 265.240168 
L 481.261641 264.12854 
L 487.240844 263.006774 
L 493.443688 261.84377 
L 499.540274 261.041039 
L 505.663014 260.092517 
L 511.683189 258.898701 
L 517.833909 258.129358 
L 523.945924 257.362976 
L 530.028069 256.551725 
L 536.119534 255.755945 
L 542.223526 255.629627 
L 548.323475 254.27163 
L 554.424155 254.084667 
L 560.511081 252.876029 
L 566.627442 252.370102 
L 572.719452 251.488208 
L 578.808679 250.559117 
L 584.917861 250.671209 
L 591.01636 249.584678 
L 597.1125 249.305742 
L 603.220129 249.547142 
L 609.313584 248.43817 
L 615.414551 247.760208 
L 621.516921 248.33358 
L 627.614258 247.38812 
L 633.714598 247.43609 
L 639.815208 247.258917 
L 645.915141 248.329418 
L 652.014482 246.573184 
L 658.11348 247.36681 
L 664.213644 247.05898 
L 670.314354 246.740982 
L 676.412981 247.377408 
L 682.513162 246.09905 
L 688.613453 247.374022 
L 694.712889 245.588225 
L 700.812759 248.034467 
L 706.912727 246.239427 
L 713.012472 245.586703 
L 719.112435 244.627998 
L 725.212044 246.955865 
L 731.311869 244.967481 
L 737.411587 236.788826 
L 743.511453 251.353453 
L 749.611356 250.415913 
L 755.711059 241.958501 
L 761.810887 245.636588 
L 767.910734 244.710037 
L 774.010523 246.71962 
L 780.110317 236.682871 
L 786.210135 239.534967 
L 792.309886 241.541191 
L 798.409731 230.93163 
L 804.509502 244.828784 
L 810.609332 249.928925 
L 816.709107 250.428855 
L 822.80891 240.095705 
L 828.908743 243.754071 
L 835.008523 263.506464 
L 841.108332 253.939354 
L 847.208135 246.484254 
L 853.307945 262.345463 
L 859.407751 241.233142 
L 865.507554 250.509252 
L 871.607359 243.795321 
L 877.707164 233.184344 
" style="fill:none;stroke:#0010ff;stroke-linecap:square;stroke-width:1.5;"/>
   </g>
   <g id="line2d_63">
    <path clip-path="url(#p308db66fe5)" d="M 237.952731 392.455757 
L 265.090224 374.097952 
L 280.96464 363.572957 
L 292.227717 356.282775 
L 300.964039 350.763085 
L 308.102133 346.354642 
L 319.365211 339.611883 
L 323.976549 336.935797 
L 328.101532 334.580928 
L 335.239627 330.620309 
L 341.274799 327.370465 
L 348.876226 323.432281 
L 353.230835 321.239786 
L 360.710863 317.606623 
L 365.510882 315.326257 
L 372.3972 312.202985 
L 378.251536 309.647405 
L 384.286709 307.077797 
L 390.321881 304.597505 
L 396.242744 302.248382 
L 402.571185 299.765972 
L 408.522791 297.524855 
L 414.98585 295.128671 
L 420.899246 292.952073 
L 426.986655 290.686583 
L 433.066546 288.54516 
L 439.254654 286.361427 
L 445.387827 284.177534 
L 451.367029 282.104068 
L 457.569873 279.815285 
L 463.66646 277.759101 
L 469.684096 275.535209 
L 475.809375 273.394838 
L 481.960094 271.315661 
L 488.006254 269.383973 
L 494.154254 267.163562 
L 500.245719 265.250883 
L 506.308434 263.255758 
L 512.414341 261.238925 
L 518.52012 259.209006 
L 524.637266 257.205516 
L 530.731502 255.633737 
L 536.826701 253.706841 
L 542.918655 251.603382 
L 549.03018 249.815434 
L 555.11881 248.463192 
L 561.22853 246.607399 
L 567.320245 245.257221 
L 573.424897 243.200984 
L 579.521646 242.576325 
L 585.621325 240.533737 
L 591.721804 239.984955 
L 597.820845 238.739731 
L 603.92092 237.793373 
L 610.017966 235.188068 
L 616.118178 235.102128 
L 622.218283 232.769187 
L 628.317873 231.242548 
L 634.417052 232.417316 
L 640.516388 230.983467 
L 646.615268 231.449019 
L 652.715109 230.171461 
L 658.814725 229.686607 
L 664.913797 228.825142 
L 671.013704 228.798858 
L 677.112876 228.048691 
L 683.212506 223.801105 
L 689.312031 224.56388 
L 695.411349 224.077203 
L 701.510687 228.148302 
L 707.610115 226.083197 
L 713.70965 225.177032 
L 719.809134 227.870931 
L 725.90863 229.92661 
L 732.008049 226.271511 
L 738.107461 226.559619 
L 744.206924 220.487255 
L 750.306385 222.698591 
L 756.405804 233.772547 
L 762.505263 217.80913 
L 768.604677 216.567195 
L 774.704152 227.670134 
L 780.803613 233.215114 
L 786.903048 233.653559 
L 793.002489 246.427565 
L 799.101934 308.734733 
L 805.20138 302.974031 
L 811.300839 250.274803 
L 817.400291 238.882697 
L 823.499737 243.0303 
L 829.599175 289.662495 
L 835.698627 252.753067 
L 841.798076 260.244458 
" style="fill:none;stroke:#00a4ff;stroke-linecap:square;stroke-width:1.5;"/>
   </g>
   <g id="line2d_64">
    <path clip-path="url(#p308db66fe5)" d="M 210.815238 414.404749 
L 237.952731 395.465899 
L 253.827147 384.527676 
L 265.090224 376.883238 
L 273.826546 371.045712 
L 280.96464 366.338802 
L 292.227717 359.076019 
L 296.839056 356.150824 
L 300.964039 353.571093 
L 308.102133 349.17843 
L 314.137306 345.540469 
L 321.738733 341.062375 
L 326.093342 338.545437 
L 333.57337 334.306588 
L 338.373389 331.636707 
L 345.259707 327.893677 
L 351.114043 324.76676 
L 357.149215 321.592252 
L 363.184388 318.513528 
L 369.105251 315.463397 
L 375.433692 312.308111 
L 381.385298 309.29789 
L 387.848356 306.071167 
L 393.761753 303.100264 
L 399.849162 300.101474 
L 405.929053 297.105976 
L 412.11716 294.044785 
L 418.250333 290.920751 
L 424.229536 287.956386 
L 430.43238 284.90286 
L 436.528966 281.81624 
L 442.546602 278.84958 
L 448.671881 275.840465 
L 454.745608 272.902182 
L 460.868761 269.971239 
L 466.960388 267.063224 
L 473.059981 264.203501 
L 479.170941 261.247965 
L 485.276847 258.35305 
L 491.352382 255.534881 
L 497.473905 252.579734 
L 503.54972 249.854525 
L 509.651307 247.061789 
L 515.764947 244.148998 
L 521.851059 241.474983 
L 527.957567 238.919548 
L 534.050392 236.343465 
L 540.156666 233.911987 
L 546.250198 231.014814 
L 552.352315 228.697457 
L 558.451138 226.708982 
L 564.547007 224.175975 
L 570.647439 221.877804 
L 576.745865 220.124598 
L 582.845407 217.516525 
L 588.943176 215.494049 
L 595.042272 213.329129 
L 601.141925 212.337375 
L 607.240384 211.718776 
L 613.340007 208.221971 
L 619.43876 205.831117 
L 625.537354 206.913142 
L 631.636056 206.298968 
L 637.735315 201.893255 
L 643.833751 201.800347 
L 649.932729 201.477289 
L 656.031753 197.997774 
L 662.130577 198.574371 
L 668.229306 196.472633 
L 674.328011 201.538526 
L 680.426949 195.974125 
L 686.525835 198.963562 
L 692.624569 196.570465 
L 698.723435 206.649882 
L 704.822348 188.858362 
L 710.921174 197.991956 
L 717.020084 199.724813 
L 723.118948 202.044422 
L 729.217789 201.651029 
L 735.316627 207.43922 
L 741.41548 205.561617 
L 747.514357 196.098841 
L 753.613201 192.647147 
L 759.712043 189.628532 
L 765.810906 204.551824 
L 771.909747 214.972061 
L 778.00861 190.577466 
L 784.107458 205.398469 
L 790.206308 226.571161 
L 796.305162 201.051205 
L 802.404015 241.953624 
L 808.502871 266.188106 
L 814.601723 288.983335 
" style="fill:none;stroke:#40ffb7;stroke-linecap:square;stroke-width:1.5;"/>
   </g>
   <g id="line2d_65">
    <path clip-path="url(#p308db66fe5)" d="M 183.677744 421.647778 
L 210.815238 402.302328 
L 226.689654 391.059798 
L 237.952731 383.14595 
L 246.689052 377.054696 
L 253.827147 372.113829 
L 265.090224 364.394589 
L 269.701563 361.266146 
L 273.826546 358.476956 
L 280.96464 353.695786 
L 286.999813 349.684027 
L 294.60124 344.677933 
L 298.955849 341.838322 
L 306.435876 336.986049 
L 311.235896 333.898308 
L 318.122213 329.502918 
L 323.976549 325.76623 
L 330.011722 321.960152 
L 336.046895 318.141653 
L 341.967758 314.421727 
L 348.296199 310.421404 
L 354.247805 306.679138 
L 360.710863 302.589458 
L 366.624259 298.865123 
L 372.711668 295.024481 
L 378.79156 291.134116 
L 384.979667 287.228944 
L 390.916594 283.435333 
L 397.092043 279.508405 
L 403.151213 275.665946 
L 409.26855 271.782514 
L 415.409109 267.879239 
L 421.444282 264.101082 
L 427.608114 260.202965 
L 433.665301 256.463176 
L 439.76644 252.66258 
L 445.874182 248.848399 
L 451.992127 245.122741 
L 458.06862 241.418437 
L 464.184621 237.592951 
L 470.258705 233.755949 
L 476.367888 229.945074 
L 482.456894 226.17351 
L 488.562527 222.438727 
L 494.657993 218.624003 
L 500.760637 214.965302 
L 506.851853 211.311358 
L 512.949524 207.448189 
L 519.045646 203.81467 
L 525.144687 200.097493 
L 531.242714 196.430056 
L 537.344145 192.682735 
L 543.438021 189.004772 
L 549.536563 185.69009 
L 555.634759 181.846271 
L 561.733062 178.551705 
L 567.829774 175.000995 
L 573.92741 171.175971 
L 580.025993 167.845977 
L 586.123278 164.789289 
L 592.220817 161.184508 
L 598.319214 158.753275 
L 604.416081 155.187451 
L 610.514273 152.138469 
L 616.611816 149.035841 
L 622.709259 147.578581 
L 628.807143 145.482832 
L 634.904626 141.89804 
L 641.002231 138.621745 
L 647.099996 138.939753 
L 653.197708 139.493238 
L 659.295326 142.264451 
L 665.392938 141.569133 
L 671.490666 138.837478 
L 677.588392 130.050598 
L 683.686021 138.689205 
L 689.783615 145.463167 
L 695.881296 148.94833 
L 701.978986 143.52606 
L 708.076647 152.802787 
L 714.174322 156.277883 
L 720.271963 160.561217 
L 726.369619 160.1628 
L 732.467305 145.284175 
L 738.564956 165.297496 
L 744.662614 161.988158 
L 750.760268 175.700591 
L 756.857932 147.566552 
L 762.955606 196.207698 
L 769.053256 189.633339 
L 775.150921 138.93218 
L 781.248583 174.466764 
L 787.346246 165.75274 
" style="fill:none;stroke:#b7ff40;stroke-linecap:square;stroke-width:1.5;"/>
   </g>
   <g id="line2d_66">
    <path clip-path="url(#p308db66fe5)" d="M 147.80393 400.152045 
L 174.941423 380.434311 
L 190.815839 368.915634 
L 202.078916 360.756355 
L 210.815238 354.436469 
L 217.953332 349.279803 
L 229.216409 341.15763 
L 233.827748 337.836915 
L 237.952731 334.86915 
L 245.090825 329.739676 
L 251.125998 325.407609 
L 256.353903 321.658415 
L 263.082034 316.836473 
L 268.821725 312.728122 
L 275.362081 308.047779 
L 282.248399 303.122238 
L 288.102734 298.936014 
L 294.137907 294.622076 
L 300.17308 290.306461 
L 306.093943 286.072869 
L 312.422384 281.5442 
L 318.37399 277.28503 
L 324.409163 272.961868 
L 330.750445 268.422287 
L 336.837854 264.062047 
L 342.917745 259.70467 
L 348.876226 255.433194 
L 355.042779 251.01491 
L 361.049836 246.712988 
L 367.133195 242.366764 
L 373.271424 237.980859 
L 379.429908 233.589012 
L 385.480153 229.283287 
L 391.579857 224.943291 
L 397.659219 220.633229 
L 403.779472 216.297837 
L 409.855094 211.993885 
L 415.952593 207.678196 
L 422.052954 203.362221 
L 428.128708 199.057607 
L 434.229013 194.732786 
L 440.316214 190.456072 
L 446.411823 186.122926 
L 452.509605 181.816294 
L 458.603019 177.490382 
L 464.696015 173.171774 
L 470.794325 168.870104 
L 476.883535 164.573011 
L 482.977458 160.266625 
L 489.072541 155.996715 
L 495.166313 151.663868 
L 501.259474 147.442707 
L 507.355678 143.128457 
L 513.446529 138.844411 
L 519.540655 134.554513 
L 525.635533 130.429272 
L 531.730081 126.087084 
L 537.823461 121.923126 
L 543.917414 117.679957 
L 550.012142 113.720048 
L 556.105816 109.495822 
L 562.200475 105.500876 
L 568.294621 101.352751 
L 574.388738 97.636335 
L 580.482335 93.926481 
L 586.576377 90.366947 
L 592.67081 86.909583 
L 598.764624 83.358801 
L 604.858767 80.670748 
L 610.952781 76.178622 
L 617.046863 73.916204 
L 623.140921 72.64086 
L 629.234989 69.763427 
L 635.329169 68.990352 
L 641.423231 66.183161 
L 647.517198 64.591228 
L 653.611266 59.705144 
L 659.705376 61.185334 
L 665.799451 67.545333 
L 671.893512 50.882727 
L 677.987549 64.659252 
L 684.081616 62.169237 
L 690.175688 57.135934 
L 696.269758 55.853536 
L 702.363817 71.059587 
L 708.457883 73.020984 
L 714.551951 69.214018 
L 720.646014 65.336962 
L 726.740068 58.57682 
L 732.83413 53.777181 
L 738.928199 133.689713 
L 745.022261 96.856837 
L 751.116329 107.322765 
" style="fill:none;stroke:#ffb900;stroke-linecap:square;stroke-width:1.5;"/>
   </g>
   <g id="line2d_67">
    <path clip-path="url(#p308db66fe5)" d="M 120.666436 421.761273 
L 147.80393 401.98291 
L 163.678346 390.421695 
L 174.941423 382.226258 
L 183.677744 375.874674 
L 190.815839 370.689389 
L 202.078916 362.516279 
L 206.690255 359.173398 
L 210.815238 356.18474 
L 217.953332 351.017416 
L 223.988505 346.652845 
L 229.216409 342.874426 
L 235.944541 338.016777 
L 241.684232 333.876863 
L 248.224588 329.162062 
L 255.110905 324.202844 
L 260.965241 319.989155 
L 267.000414 315.649474 
L 273.035587 311.311468 
L 278.95645 307.057722 
L 285.284891 302.514421 
L 291.236497 298.244503 
L 297.27167 293.915721 
L 303.245332 289.639601 
L 309.385892 285.242448 
L 315.511171 280.871622 
L 321.507752 276.597094 
L 327.70805 272.195482 
L 333.743223 267.926787 
L 339.850965 263.622343 
L 345.886138 259.390299 
L 351.974541 255.152261 
L 358.070461 250.936834 
L 364.209552 246.708283 
L 370.255842 242.580922 
L 376.357655 238.426968 
L 382.474274 234.265222 
L 388.523392 230.18361 
L 394.630205 226.058022 
L 400.716469 222.003598 
L 406.804123 217.850749 
L 412.887966 213.775948 
L 418.987226 209.699398 
L 425.060801 205.625914 
L 431.157027 201.501658 
L 437.246463 197.584068 
L 443.328088 193.552041 
L 449.420696 189.507711 
L 455.508812 185.500329 
L 461.593621 181.584934 
L 467.681444 177.404271 
L 473.768011 173.473254 
L 479.858682 169.569625 
L 485.945994 165.493464 
L 492.033236 161.521993 
L 498.123167 157.393572 
L 504.211024 153.542503 
L 510.298137 149.415148 
L 516.386024 145.552894 
L 522.473612 141.598749 
L 528.562234 137.723223 
L 534.649671 133.933127 
L 540.738586 130.046216 
L 546.825879 126.456238 
L 552.913939 122.222715 
L 559.002183 120.293835 
L 565.089996 115.450903 
L 571.177979 113.611231 
L 577.266116 111.237385 
L 583.353989 105.212896 
L 589.4421 103.987653 
L 595.530134 101.973975 
L 601.618101 97.719516 
L 607.706062 99.29877 
L 613.794051 94.148452 
L 619.882159 98.372692 
L 625.970097 95.536792 
L 632.058108 92.254009 
L 638.146062 86.378568 
L 644.234118 84.86926 
L 650.322102 82.695592 
L 656.410099 82.031621 
L 662.498094 85.42689 
L 668.586089 80.80873 
L 674.674077 83.316214 
L 680.762067 101.454458 
L 686.850072 78.501359 
L 692.938051 72.374045 
L 699.026059 81.919897 
L 705.114052 70.496875 
L 711.202047 63.494678 
L 717.290046 70.715169 
L 723.37804 65.828398 
" style="fill:none;stroke:#ff3000;stroke-linecap:square;stroke-width:1.5;"/>
   </g>
   <g id="patch_3">
    <path d="M 82.8144 440.3052 
L 82.8144 32.3388 
" style="fill:none;stroke:#000000;stroke-linecap:square;stroke-linejoin:miter;stroke-width:0.8;"/>
   </g>
   <g id="patch_4">
    <path d="M 915.5592 440.3052 
L 915.5592 32.3388 
" style="fill:none;stroke:#000000;stroke-linecap:square;stroke-linejoin:miter;stroke-width:0.8;"/>
   </g>
   <g id="patch_5">
    <path d="M 82.8144 440.3052 
L 915.5592 440.3052 
" style="fill:none;stroke:#000000;stroke-linecap:square;stroke-linejoin:miter;stroke-width:0.8;"/>
   </g>
   <g id="patch_6">
    <path d="M 82.8144 32.3388 
L 915.5592 32.3388 
" style="fill:none;stroke:#000000;stroke-linecap:square;stroke-linejoin:miter;stroke-width:0.8;"/>
   </g>
   <g id="text_13">
    <!-- $N = 1000, \phi = 0.65$ $(N_{iter}=10^7, dt=10^{-3})$ -->
    <defs>
     <path d="M 16.890625 72.90625 
L 30.171875 72.90625 
L 50.296875 10.40625 
L 62.5 72.90625 
L 72.125 72.90625 
L 57.90625 0 
L 44.578125 0 
L 24.515625 62.890625 
L 12.3125 0 
L 2.6875 0 
z
" id="DejaVuSans-Oblique-78"/>
     <path d="M 10.59375 45.40625 
L 73.1875 45.40625 
L 73.1875 37.203125 
L 10.59375 37.203125 
z
M 10.59375 25.484375 
L 73.1875 25.484375 
L 73.1875 17.1875 
L 10.59375 17.1875 
z
" id="DejaVuSans-61"/>
     <path d="M 11.71875 12.40625 
L 22.015625 12.40625 
L 22.015625 4 
L 14.015625 -11.625 
L 7.71875 -11.625 
L 11.71875 4 
z
" id="DejaVuSans-44"/>
     <path d="M 46.734375 75.984375 
L 42.78125 55.8125 
Q 52.546875 55.8125 57.5625 48.34375 
Q 62.75 40.71875 60.15625 27.296875 
Q 57.515625 13.875 49.359375 6.25 
Q 41.453125 -1.21875 31.6875 -1.21875 
L 27.875 -20.796875 
L 18.953125 -20.796875 
L 22.75 -1.21875 
Q 13.03125 -1.21875 7.953125 6.25 
Q 2.78125 13.875 5.421875 27.296875 
Q 8.015625 40.71875 16.15625 48.34375 
Q 24.125 55.8125 33.84375 55.8125 
L 37.796875 75.984375 
z
M 33.25 6.78125 
Q 38.765625 6.78125 43.5 11.8125 
Q 48.6875 17.4375 50.6875 27.296875 
Q 52.640625 37.0625 49.515625 42.78125 
Q 46.734375 47.796875 41.21875 47.796875 
z
M 24.3125 6.78125 
L 32.28125 47.796875 
Q 26.8125 47.796875 22.078125 42.78125 
Q 16.75 37.0625 14.890625 27.296875 
Q 13.03125 17.4375 16.0625 11.8125 
Q 18.796875 6.78125 24.3125 6.78125 
z
" id="DejaVuSans-Oblique-981"/>
     <path d="M 10.6875 12.40625 
L 21 12.40625 
L 21 0 
L 10.6875 0 
z
" id="DejaVuSans-46"/>
     <path id="DejaVuSans-32"/>
     <path d="M 18.3125 75.984375 
L 27.296875 75.984375 
L 25.09375 64.59375 
L 16.109375 64.59375 
z
M 14.203125 54.6875 
L 23.1875 54.6875 
L 12.5 0 
L 3.515625 0 
z
" id="DejaVuSans-Oblique-105"/>
     <path d="M 48.09375 32.234375 
Q 48.25 33.015625 48.3125 33.84375 
Q 48.390625 34.671875 48.390625 35.5 
Q 48.390625 41.453125 44.890625 44.921875 
Q 41.40625 48.390625 35.40625 48.390625 
Q 28.71875 48.390625 23.578125 44.15625 
Q 18.453125 39.9375 15.828125 32.171875 
z
M 55.90625 25.203125 
L 14.109375 25.203125 
Q 13.8125 23.34375 13.71875 22.265625 
Q 13.625 21.1875 13.625 20.40625 
Q 13.625 13.625 17.796875 9.90625 
Q 21.96875 6.203125 29.59375 6.203125 
Q 35.453125 6.203125 40.671875 7.515625 
Q 45.90625 8.84375 50.390625 11.375 
L 48.6875 2.484375 
Q 43.84375 0.53125 38.6875 -0.4375 
Q 33.546875 -1.421875 28.21875 -1.421875 
Q 16.84375 -1.421875 10.71875 4.015625 
Q 4.59375 9.46875 4.59375 19.484375 
Q 4.59375 28.03125 7.640625 35.375 
Q 10.6875 42.71875 16.609375 48.484375 
Q 20.40625 52.09375 25.65625 54.046875 
Q 30.90625 56 36.8125 56 
Q 46.09375 56 51.578125 50.4375 
Q 57.078125 44.875 57.078125 35.5 
Q 57.078125 33.25 56.78125 30.6875 
Q 56.5 28.125 55.90625 25.203125 
z
" id="DejaVuSans-Oblique-101"/>
     <path d="M 44.578125 46.390625 
Q 43.21875 47.125 41.453125 47.515625 
Q 39.703125 47.90625 37.703125 47.90625 
Q 30.515625 47.90625 25.140625 42.453125 
Q 19.78125 37.015625 18.015625 27.875 
L 12.5 0 
L 3.515625 0 
L 14.203125 54.6875 
L 23.1875 54.6875 
L 21.484375 46.1875 
Q 25.046875 50.921875 30 53.453125 
Q 34.96875 56 40.578125 56 
Q 42.046875 56 43.453125 55.828125 
Q 44.875 55.671875 46.296875 55.28125 
z
" id="DejaVuSans-Oblique-114"/>
     <path d="M 8.203125 72.90625 
L 55.078125 72.90625 
L 55.078125 68.703125 
L 28.609375 0 
L 18.3125 0 
L 43.21875 64.59375 
L 8.203125 64.59375 
z
" id="DejaVuSans-55"/>
     <path d="M 41.796875 8.203125 
Q 38.1875 3.46875 33.25 1.015625 
Q 28.328125 -1.421875 22.3125 -1.421875 
Q 14.109375 -1.421875 9.34375 4.171875 
Q 4.59375 9.765625 4.59375 19.484375 
Q 4.59375 27.59375 7.46875 34.9375 
Q 10.359375 42.28125 15.828125 48.09375 
Q 19.4375 51.953125 23.96875 53.96875 
Q 28.515625 56 33.5 56 
Q 38.765625 56 42.796875 53.453125 
Q 46.828125 50.921875 49.03125 46.1875 
L 54.890625 75.984375 
L 63.921875 75.984375 
L 49.125 0 
L 40.09375 0 
z
M 13.921875 21.09375 
Q 13.921875 14.015625 17.109375 10.0625 
Q 20.3125 6.109375 25.984375 6.109375 
Q 30.171875 6.109375 33.765625 8.125 
Q 37.359375 10.15625 40.09375 14.109375 
Q 42.96875 18.21875 44.625 23.578125 
Q 46.296875 28.953125 46.296875 34.1875 
Q 46.296875 40.96875 43.09375 44.765625 
Q 39.890625 48.578125 34.28125 48.578125 
Q 30.03125 48.578125 26.359375 46.578125 
Q 22.703125 44.578125 20.125 40.828125 
Q 17.28125 36.765625 15.59375 31.390625 
Q 13.921875 26.03125 13.921875 21.09375 
z
" id="DejaVuSans-Oblique-100"/>
    </defs>
    <g transform="translate(255.5868 26.3388)scale(0.24 -0.24)">
     <use transform="translate(0 0.765625)" xlink:href="#DejaVuSans-Oblique-78"/>
     <use transform="translate(94.287109 0.765625)" xlink:href="#DejaVuSans-61"/>
     <use transform="translate(197.558594 0.765625)" xlink:href="#DejaVuSans-49"/>
     <use transform="translate(261.181641 0.765625)" xlink:href="#DejaVuSans-48"/>
     <use transform="translate(324.804688 0.765625)" xlink:href="#DejaVuSans-48"/>
     <use transform="translate(388.427734 0.765625)" xlink:href="#DejaVuSans-48"/>
     <use transform="translate(452.050781 0.765625)" xlink:href="#DejaVuSans-44"/>
     <use transform="translate(503.320312 0.765625)" xlink:href="#DejaVuSans-Oblique-981"/>
     <use transform="translate(588.769531 0.765625)" xlink:href="#DejaVuSans-61"/>
     <use transform="translate(692.041016 0.765625)" xlink:href="#DejaVuSans-48"/>
     <use transform="translate(755.664062 0.765625)" xlink:href="#DejaVuSans-46"/>
     <use transform="translate(787.451172 0.765625)" xlink:href="#DejaVuSans-54"/>
     <use transform="translate(851.074219 0.765625)" xlink:href="#DejaVuSans-53"/>
     <use transform="translate(914.697266 0.765625)" xlink:href="#DejaVuSans-32"/>
     <use transform="translate(946.484375 0.765625)" xlink:href="#DejaVuSans-40"/>
     <use transform="translate(985.498047 0.765625)" xlink:href="#DejaVuSans-Oblique-78"/>
     <use transform="translate(1060.302734 -15.640625)scale(0.7)" xlink:href="#DejaVuSans-Oblique-105"/>
     <use transform="translate(1079.750977 -15.640625)scale(0.7)" xlink:href="#DejaVuSans-Oblique-116"/>
     <use transform="translate(1107.197266 -15.640625)scale(0.7)" xlink:href="#DejaVuSans-Oblique-101"/>
     <use transform="translate(1150.263672 -15.640625)scale(0.7)" xlink:href="#DejaVuSans-Oblique-114"/>
     <use transform="translate(1201.259766 0.765625)" xlink:href="#DejaVuSans-61"/>
     <use transform="translate(1304.53125 0.765625)" xlink:href="#DejaVuSans-49"/>
     <use transform="translate(1368.154297 0.765625)" xlink:href="#DejaVuSans-48"/>
     <use transform="translate(1432.734375 39.046875)scale(0.7)" xlink:href="#DejaVuSans-55"/>
     <use transform="translate(1480.004883 0.765625)" xlink:href="#DejaVuSans-44"/>
     <use transform="translate(1531.274414 0.765625)" xlink:href="#DejaVuSans-Oblique-100"/>
     <use transform="translate(1594.750977 0.765625)" xlink:href="#DejaVuSans-Oblique-116"/>
     <use transform="translate(1653.442383 0.765625)" xlink:href="#DejaVuSans-61"/>
     <use transform="translate(1756.713867 0.765625)" xlink:href="#DejaVuSans-49"/>
     <use transform="translate(1820.336914 0.765625)" xlink:href="#DejaVuSans-48"/>
     <use transform="translate(1884.916992 39.046875)scale(0.7)" xlink:href="#DejaVuSans-8722"/>
     <use transform="translate(1943.569336 39.046875)scale(0.7)" xlink:href="#DejaVuSans-51"/>
     <use transform="translate(1990.839844 0.765625)" xlink:href="#DejaVuSans-41"/>
    </g>
   </g>
   <g id="legend_1">
    <g id="patch_7">
     <path d="M 810.4392 154.9788 
L 907.1592 154.9788 
Q 909.5592 154.9788 909.5592 152.5788 
L 909.5592 40.7388 
Q 909.5592 38.3388 907.1592 38.3388 
L 810.4392 38.3388 
Q 808.0392 38.3388 808.0392 40.7388 
L 808.0392 152.5788 
Q 808.0392 154.9788 810.4392 154.9788 
z
" style="fill:#ffffff;opacity:0.8;stroke:#cccccc;stroke-linejoin:miter;"/>
    </g>
    <g id="line2d_68">
     <path d="M 812.8392 48.0588 
L 836.8392 48.0588 
" style="fill:none;stroke:#0010ff;stroke-linecap:square;stroke-width:1.5;"/>
    </g>
    <g id="line2d_69"/>
    <g id="text_14">
     <!-- $l_p/\sigma = 2$ -->
     <g transform="translate(846.4392 52.2588)scale(0.12 -0.12)">
      <use transform="translate(0 0.015625)" xlink:href="#DejaVuSans-Oblique-108"/>
      <use transform="translate(27.783203 -16.390625)scale(0.7)" xlink:href="#DejaVuSans-Oblique-112"/>
      <use transform="translate(74.951172 0.015625)" xlink:href="#DejaVuSans-47"/>
      <use transform="translate(108.642578 0.015625)" xlink:href="#DejaVuSans-Oblique-963"/>
      <use transform="translate(191.503906 0.015625)" xlink:href="#DejaVuSans-61"/>
      <use transform="translate(294.775391 0.015625)" xlink:href="#DejaVuSans-50"/>
     </g>
    </g>
    <g id="line2d_70">
     <path d="M 812.8392 66.8988 
L 836.8392 66.8988 
" style="fill:none;stroke:#00a4ff;stroke-linecap:square;stroke-width:1.5;"/>
    </g>
    <g id="line2d_71"/>
    <g id="text_15">
     <!-- $l_p/\sigma = 5$ -->
     <g transform="translate(846.4392 71.0988)scale(0.12 -0.12)">
      <use transform="translate(0 0.015625)" xlink:href="#DejaVuSans-Oblique-108"/>
      <use transform="translate(27.783203 -16.390625)scale(0.7)" xlink:href="#DejaVuSans-Oblique-112"/>
      <use transform="translate(74.951172 0.015625)" xlink:href="#DejaVuSans-47"/>
      <use transform="translate(108.642578 0.015625)" xlink:href="#DejaVuSans-Oblique-963"/>
      <use transform="translate(191.503906 0.015625)" xlink:href="#DejaVuSans-61"/>
      <use transform="translate(294.775391 0.015625)" xlink:href="#DejaVuSans-53"/>
     </g>
    </g>
    <g id="line2d_72">
     <path d="M 812.8392 85.7388 
L 836.8392 85.7388 
" style="fill:none;stroke:#40ffb7;stroke-linecap:square;stroke-width:1.5;"/>
    </g>
    <g id="line2d_73"/>
    <g id="text_16">
     <!-- $l_p/\sigma = 10$ -->
     <g transform="translate(846.4392 89.9388)scale(0.12 -0.12)">
      <use transform="translate(0 0.015625)" xlink:href="#DejaVuSans-Oblique-108"/>
      <use transform="translate(27.783203 -16.390625)scale(0.7)" xlink:href="#DejaVuSans-Oblique-112"/>
      <use transform="translate(74.951172 0.015625)" xlink:href="#DejaVuSans-47"/>
      <use transform="translate(108.642578 0.015625)" xlink:href="#DejaVuSans-Oblique-963"/>
      <use transform="translate(191.503906 0.015625)" xlink:href="#DejaVuSans-61"/>
      <use transform="translate(294.775391 0.015625)" xlink:href="#DejaVuSans-49"/>
      <use transform="translate(358.398438 0.015625)" xlink:href="#DejaVuSans-48"/>
     </g>
    </g>
    <g id="line2d_74">
     <path d="M 812.8392 104.5788 
L 836.8392 104.5788 
" style="fill:none;stroke:#b7ff40;stroke-linecap:square;stroke-width:1.5;"/>
    </g>
    <g id="line2d_75"/>
    <g id="text_17">
     <!-- $l_p/\sigma = 20$ -->
     <g transform="translate(846.4392 108.7788)scale(0.12 -0.12)">
      <use transform="translate(0 0.015625)" xlink:href="#DejaVuSans-Oblique-108"/>
      <use transform="translate(27.783203 -16.390625)scale(0.7)" xlink:href="#DejaVuSans-Oblique-112"/>
      <use transform="translate(74.951172 0.015625)" xlink:href="#DejaVuSans-47"/>
      <use transform="translate(108.642578 0.015625)" xlink:href="#DejaVuSans-Oblique-963"/>
      <use transform="translate(191.503906 0.015625)" xlink:href="#DejaVuSans-61"/>
      <use transform="translate(294.775391 0.015625)" xlink:href="#DejaVuSans-50"/>
      <use transform="translate(358.398438 0.015625)" xlink:href="#DejaVuSans-48"/>
     </g>
    </g>
    <g id="line2d_76">
     <path d="M 812.8392 123.4188 
L 836.8392 123.4188 
" style="fill:none;stroke:#ffb900;stroke-linecap:square;stroke-width:1.5;"/>
    </g>
    <g id="line2d_77"/>
    <g id="text_18">
     <!-- $l_p/\sigma = 50$ -->
     <g transform="translate(846.4392 127.6188)scale(0.12 -0.12)">
      <use transform="translate(0 0.015625)" xlink:href="#DejaVuSans-Oblique-108"/>
      <use transform="translate(27.783203 -16.390625)scale(0.7)" xlink:href="#DejaVuSans-Oblique-112"/>
      <use transform="translate(74.951172 0.015625)" xlink:href="#DejaVuSans-47"/>
      <use transform="translate(108.642578 0.015625)" xlink:href="#DejaVuSans-Oblique-963"/>
      <use transform="translate(191.503906 0.015625)" xlink:href="#DejaVuSans-61"/>
      <use transform="translate(294.775391 0.015625)" xlink:href="#DejaVuSans-53"/>
      <use transform="translate(358.398438 0.015625)" xlink:href="#DejaVuSans-48"/>
     </g>
    </g>
    <g id="line2d_78">
     <path d="M 812.8392 142.2588 
L 836.8392 142.2588 
" style="fill:none;stroke:#ff3000;stroke-linecap:square;stroke-width:1.5;"/>
    </g>
    <g id="line2d_79"/>
    <g id="text_19">
     <!-- $l_p/\sigma = 100$ -->
     <g transform="translate(846.4392 146.4588)scale(0.12 -0.12)">
      <use transform="translate(0 0.015625)" xlink:href="#DejaVuSans-Oblique-108"/>
      <use transform="translate(27.783203 -16.390625)scale(0.7)" xlink:href="#DejaVuSans-Oblique-112"/>
      <use transform="translate(74.951172 0.015625)" xlink:href="#DejaVuSans-47"/>
      <use transform="translate(108.642578 0.015625)" xlink:href="#DejaVuSans-Oblique-963"/>
      <use transform="translate(191.503906 0.015625)" xlink:href="#DejaVuSans-61"/>
      <use transform="translate(294.775391 0.015625)" xlink:href="#DejaVuSans-49"/>
      <use transform="translate(358.398438 0.015625)" xlink:href="#DejaVuSans-48"/>
      <use transform="translate(422.021484 0.015625)" xlink:href="#DejaVuSans-48"/>
     </g>
    </g>
   </g>
  </g>
 </g>
 <defs>
  <clipPath id="p308db66fe5">
   <rect height="407.9664" width="832.7448" x="82.8144" y="32.3388"/>
  </clipPath>
 </defs>
</svg>
