<?xml version="1.0" encoding="utf-8" standalone="no"?>
<!DOCTYPE svg PUBLIC "-//W3C//DTD SVG 1.1//EN"
  "http://www.w3.org/Graphics/SVG/1.1/DTD/svg11.dtd">
<!-- Created with matplotlib (https://matplotlib.org/) -->
<svg height="497.52pt" version="1.1" viewBox="0 0 920.16 497.52" width="920.16pt" xmlns="http://www.w3.org/2000/svg" xmlns:xlink="http://www.w3.org/1999/xlink">
 <defs>
  <style type="text/css">
*{stroke-linecap:butt;stroke-linejoin:round;}
  </style>
 </defs>
 <g id="figure_1">
  <g id="patch_1">
   <path d="M 0 497.52 
L 920.16 497.52 
L 920.16 0 
L 0 0 
z
" style="fill:#ffffff;"/>
  </g>
  <g id="axes_1">
   <g id="patch_2">
    <path d="M 82.8144 440.3052 
L 915.5592 440.3052 
L 915.5592 32.3388 
L 82.8144 32.3388 
z
" style="fill:#ffffff;"/>
   </g>
   <g id="matplotlib.axis_1">
    <g id="xtick_1">
     <g id="line2d_1">
      <defs>
       <path d="M 0 0 
L 0 3.5 
" id="ma057a70473" style="stroke:#000000;stroke-width:0.8;"/>
      </defs>
      <g>
       <use style="stroke:#000000;stroke-width:0.8;" x="120.666436" xlink:href="#ma057a70473" y="440.3052"/>
      </g>
     </g>
     <g id="text_1">
      <!-- $\mathdefault{10^{-5}}$ -->
      <defs>
       <path d="M 12.40625 8.296875 
L 28.515625 8.296875 
L 28.515625 63.921875 
L 10.984375 60.40625 
L 10.984375 69.390625 
L 28.421875 72.90625 
L 38.28125 72.90625 
L 38.28125 8.296875 
L 54.390625 8.296875 
L 54.390625 0 
L 12.40625 0 
z
" id="DejaVuSans-49"/>
       <path d="M 31.78125 66.40625 
Q 24.171875 66.40625 20.328125 58.90625 
Q 16.5 51.421875 16.5 36.375 
Q 16.5 21.390625 20.328125 13.890625 
Q 24.171875 6.390625 31.78125 6.390625 
Q 39.453125 6.390625 43.28125 13.890625 
Q 47.125 21.390625 47.125 36.375 
Q 47.125 51.421875 43.28125 58.90625 
Q 39.453125 66.40625 31.78125 66.40625 
z
M 31.78125 74.21875 
Q 44.046875 74.21875 50.515625 64.515625 
Q 56.984375 54.828125 56.984375 36.375 
Q 56.984375 17.96875 50.515625 8.265625 
Q 44.046875 -1.421875 31.78125 -1.421875 
Q 19.53125 -1.421875 13.0625 8.265625 
Q 6.59375 17.96875 6.59375 36.375 
Q 6.59375 54.828125 13.0625 64.515625 
Q 19.53125 74.21875 31.78125 74.21875 
z
" id="DejaVuSans-48"/>
       <path d="M 10.59375 35.5 
L 73.1875 35.5 
L 73.1875 27.203125 
L 10.59375 27.203125 
z
" id="DejaVuSans-8722"/>
       <path d="M 10.796875 72.90625 
L 49.515625 72.90625 
L 49.515625 64.59375 
L 19.828125 64.59375 
L 19.828125 46.734375 
Q 21.96875 47.46875 24.109375 47.828125 
Q 26.265625 48.1875 28.421875 48.1875 
Q 40.625 48.1875 47.75 41.5 
Q 54.890625 34.8125 54.890625 23.390625 
Q 54.890625 11.625 47.5625 5.09375 
Q 40.234375 -1.421875 26.90625 -1.421875 
Q 22.3125 -1.421875 17.546875 -0.640625 
Q 12.796875 0.140625 7.71875 1.703125 
L 7.71875 11.625 
Q 12.109375 9.234375 16.796875 8.0625 
Q 21.484375 6.890625 26.703125 6.890625 
Q 35.15625 6.890625 40.078125 11.328125 
Q 45.015625 15.765625 45.015625 23.390625 
Q 45.015625 31 40.078125 35.4375 
Q 35.15625 39.890625 26.703125 39.890625 
Q 22.75 39.890625 18.8125 39.015625 
Q 14.890625 38.140625 10.796875 36.28125 
z
" id="DejaVuSans-53"/>
      </defs>
      <g transform="translate(97.166436 462.502075)scale(0.2 -0.2)">
       <use transform="translate(0 0.684375)" xlink:href="#DejaVuSans-49"/>
       <use transform="translate(63.623047 0.684375)" xlink:href="#DejaVuSans-48"/>
       <use transform="translate(128.203125 38.965625)scale(0.7)" xlink:href="#DejaVuSans-8722"/>
       <use transform="translate(186.855469 38.965625)scale(0.7)" xlink:href="#DejaVuSans-53"/>
      </g>
     </g>
    </g>
    <g id="xtick_2">
     <g id="line2d_2">
      <g>
       <use style="stroke:#000000;stroke-width:0.8;" x="233.898559" xlink:href="#ma057a70473" y="440.3052"/>
      </g>
     </g>
     <g id="text_2">
      <!-- $\mathdefault{10^{-4}}$ -->
      <defs>
       <path d="M 37.796875 64.3125 
L 12.890625 25.390625 
L 37.796875 25.390625 
z
M 35.203125 72.90625 
L 47.609375 72.90625 
L 47.609375 25.390625 
L 58.015625 25.390625 
L 58.015625 17.1875 
L 47.609375 17.1875 
L 47.609375 0 
L 37.796875 0 
L 37.796875 17.1875 
L 4.890625 17.1875 
L 4.890625 26.703125 
z
" id="DejaVuSans-52"/>
      </defs>
      <g transform="translate(210.398559 462.502075)scale(0.2 -0.2)">
       <use transform="translate(0 0.684375)" xlink:href="#DejaVuSans-49"/>
       <use transform="translate(63.623047 0.684375)" xlink:href="#DejaVuSans-48"/>
       <use transform="translate(128.203125 38.965625)scale(0.7)" xlink:href="#DejaVuSans-8722"/>
       <use transform="translate(186.855469 38.965625)scale(0.7)" xlink:href="#DejaVuSans-52"/>
      </g>
     </g>
    </g>
    <g id="xtick_3">
     <g id="line2d_3">
      <g>
       <use style="stroke:#000000;stroke-width:0.8;" x="347.130681" xlink:href="#ma057a70473" y="440.3052"/>
      </g>
     </g>
     <g id="text_3">
      <!-- $\mathdefault{10^{-3}}$ -->
      <defs>
       <path d="M 40.578125 39.3125 
Q 47.65625 37.796875 51.625 33 
Q 55.609375 28.21875 55.609375 21.1875 
Q 55.609375 10.40625 48.1875 4.484375 
Q 40.765625 -1.421875 27.09375 -1.421875 
Q 22.515625 -1.421875 17.65625 -0.515625 
Q 12.796875 0.390625 7.625 2.203125 
L 7.625 11.71875 
Q 11.71875 9.328125 16.59375 8.109375 
Q 21.484375 6.890625 26.8125 6.890625 
Q 36.078125 6.890625 40.9375 10.546875 
Q 45.796875 14.203125 45.796875 21.1875 
Q 45.796875 27.640625 41.28125 31.265625 
Q 36.765625 34.90625 28.71875 34.90625 
L 20.21875 34.90625 
L 20.21875 43.015625 
L 29.109375 43.015625 
Q 36.375 43.015625 40.234375 45.921875 
Q 44.09375 48.828125 44.09375 54.296875 
Q 44.09375 59.90625 40.109375 62.90625 
Q 36.140625 65.921875 28.71875 65.921875 
Q 24.65625 65.921875 20.015625 65.03125 
Q 15.375 64.15625 9.8125 62.3125 
L 9.8125 71.09375 
Q 15.4375 72.65625 20.34375 73.4375 
Q 25.25 74.21875 29.59375 74.21875 
Q 40.828125 74.21875 47.359375 69.109375 
Q 53.90625 64.015625 53.90625 55.328125 
Q 53.90625 49.265625 50.4375 45.09375 
Q 46.96875 40.921875 40.578125 39.3125 
z
" id="DejaVuSans-51"/>
      </defs>
      <g transform="translate(323.630681 462.502075)scale(0.2 -0.2)">
       <use transform="translate(0 0.765625)" xlink:href="#DejaVuSans-49"/>
       <use transform="translate(63.623047 0.765625)" xlink:href="#DejaVuSans-48"/>
       <use transform="translate(128.203125 39.046875)scale(0.7)" xlink:href="#DejaVuSans-8722"/>
       <use transform="translate(186.855469 39.046875)scale(0.7)" xlink:href="#DejaVuSans-51"/>
      </g>
     </g>
    </g>
    <g id="xtick_4">
     <g id="line2d_4">
      <g>
       <use style="stroke:#000000;stroke-width:0.8;" x="460.362804" xlink:href="#ma057a70473" y="440.3052"/>
      </g>
     </g>
     <g id="text_4">
      <!-- $\mathdefault{10^{-2}}$ -->
      <defs>
       <path d="M 19.1875 8.296875 
L 53.609375 8.296875 
L 53.609375 0 
L 7.328125 0 
L 7.328125 8.296875 
Q 12.9375 14.109375 22.625 23.890625 
Q 32.328125 33.6875 34.8125 36.53125 
Q 39.546875 41.84375 41.421875 45.53125 
Q 43.3125 49.21875 43.3125 52.78125 
Q 43.3125 58.59375 39.234375 62.25 
Q 35.15625 65.921875 28.609375 65.921875 
Q 23.96875 65.921875 18.8125 64.3125 
Q 13.671875 62.703125 7.8125 59.421875 
L 7.8125 69.390625 
Q 13.765625 71.78125 18.9375 73 
Q 24.125 74.21875 28.421875 74.21875 
Q 39.75 74.21875 46.484375 68.546875 
Q 53.21875 62.890625 53.21875 53.421875 
Q 53.21875 48.921875 51.53125 44.890625 
Q 49.859375 40.875 45.40625 35.40625 
Q 44.1875 33.984375 37.640625 27.21875 
Q 31.109375 20.453125 19.1875 8.296875 
z
" id="DejaVuSans-50"/>
      </defs>
      <g transform="translate(436.862804 462.502075)scale(0.2 -0.2)">
       <use transform="translate(0 0.765625)" xlink:href="#DejaVuSans-49"/>
       <use transform="translate(63.623047 0.765625)" xlink:href="#DejaVuSans-48"/>
       <use transform="translate(128.203125 39.046875)scale(0.7)" xlink:href="#DejaVuSans-8722"/>
       <use transform="translate(186.855469 39.046875)scale(0.7)" xlink:href="#DejaVuSans-50"/>
      </g>
     </g>
    </g>
    <g id="xtick_5">
     <g id="line2d_5">
      <g>
       <use style="stroke:#000000;stroke-width:0.8;" x="573.594926" xlink:href="#ma057a70473" y="440.3052"/>
      </g>
     </g>
     <g id="text_5">
      <!-- $\mathdefault{10^{-1}}$ -->
      <g transform="translate(550.094926 462.502075)scale(0.2 -0.2)">
       <use transform="translate(0 0.684375)" xlink:href="#DejaVuSans-49"/>
       <use transform="translate(63.623047 0.684375)" xlink:href="#DejaVuSans-48"/>
       <use transform="translate(128.203125 38.965625)scale(0.7)" xlink:href="#DejaVuSans-8722"/>
       <use transform="translate(186.855469 38.965625)scale(0.7)" xlink:href="#DejaVuSans-49"/>
      </g>
     </g>
    </g>
    <g id="xtick_6">
     <g id="line2d_6">
      <g>
       <use style="stroke:#000000;stroke-width:0.8;" x="686.827049" xlink:href="#ma057a70473" y="440.3052"/>
      </g>
     </g>
     <g id="text_6">
      <!-- $\mathdefault{10^{0}}$ -->
      <g transform="translate(669.227049 462.502075)scale(0.2 -0.2)">
       <use transform="translate(0 0.765625)" xlink:href="#DejaVuSans-49"/>
       <use transform="translate(63.623047 0.765625)" xlink:href="#DejaVuSans-48"/>
       <use transform="translate(128.203125 39.046875)scale(0.7)" xlink:href="#DejaVuSans-48"/>
      </g>
     </g>
    </g>
    <g id="xtick_7">
     <g id="line2d_7">
      <g>
       <use style="stroke:#000000;stroke-width:0.8;" x="800.059171" xlink:href="#ma057a70473" y="440.3052"/>
      </g>
     </g>
     <g id="text_7">
      <!-- $\mathdefault{10^{1}}$ -->
      <g transform="translate(782.459171 462.502075)scale(0.2 -0.2)">
       <use transform="translate(0 0.684375)" xlink:href="#DejaVuSans-49"/>
       <use transform="translate(63.623047 0.684375)" xlink:href="#DejaVuSans-48"/>
       <use transform="translate(128.203125 38.965625)scale(0.7)" xlink:href="#DejaVuSans-49"/>
      </g>
     </g>
    </g>
    <g id="xtick_8">
     <g id="line2d_8">
      <g>
       <use style="stroke:#000000;stroke-width:0.8;" x="913.291294" xlink:href="#ma057a70473" y="440.3052"/>
      </g>
     </g>
     <g id="text_8">
      <!-- $\mathdefault{10^{2}}$ -->
      <g transform="translate(895.691294 462.502075)scale(0.2 -0.2)">
       <use transform="translate(0 0.765625)" xlink:href="#DejaVuSans-49"/>
       <use transform="translate(63.623047 0.765625)" xlink:href="#DejaVuSans-48"/>
       <use transform="translate(128.203125 39.046875)scale(0.7)" xlink:href="#DejaVuSans-50"/>
      </g>
     </g>
    </g>
    <g id="xtick_9">
     <g id="line2d_9">
      <defs>
       <path d="M 0 0 
L 0 2 
" id="mb519a7761a" style="stroke:#000000;stroke-width:0.6;"/>
      </defs>
      <g>
       <use style="stroke:#000000;stroke-width:0.6;" x="86.580171" xlink:href="#mb519a7761a" y="440.3052"/>
      </g>
     </g>
    </g>
    <g id="xtick_10">
     <g id="line2d_10">
      <g>
       <use style="stroke:#000000;stroke-width:0.6;" x="95.546032" xlink:href="#mb519a7761a" y="440.3052"/>
      </g>
     </g>
    </g>
    <g id="xtick_11">
     <g id="line2d_11">
      <g>
       <use style="stroke:#000000;stroke-width:0.6;" x="103.126559" xlink:href="#mb519a7761a" y="440.3052"/>
      </g>
     </g>
    </g>
    <g id="xtick_12">
     <g id="line2d_12">
      <g>
       <use style="stroke:#000000;stroke-width:0.6;" x="109.69311" xlink:href="#mb519a7761a" y="440.3052"/>
      </g>
     </g>
    </g>
    <g id="xtick_13">
     <g id="line2d_13">
      <g>
       <use style="stroke:#000000;stroke-width:0.6;" x="115.485219" xlink:href="#mb519a7761a" y="440.3052"/>
      </g>
     </g>
    </g>
    <g id="xtick_14">
     <g id="line2d_14">
      <g>
       <use style="stroke:#000000;stroke-width:0.6;" x="154.752702" xlink:href="#mb519a7761a" y="440.3052"/>
      </g>
     </g>
    </g>
    <g id="xtick_15">
     <g id="line2d_15">
      <g>
       <use style="stroke:#000000;stroke-width:0.6;" x="174.691889" xlink:href="#mb519a7761a" y="440.3052"/>
      </g>
     </g>
    </g>
    <g id="xtick_16">
     <g id="line2d_16">
      <g>
       <use style="stroke:#000000;stroke-width:0.6;" x="188.838967" xlink:href="#mb519a7761a" y="440.3052"/>
      </g>
     </g>
    </g>
    <g id="xtick_17">
     <g id="line2d_17">
      <g>
       <use style="stroke:#000000;stroke-width:0.6;" x="199.812293" xlink:href="#mb519a7761a" y="440.3052"/>
      </g>
     </g>
    </g>
    <g id="xtick_18">
     <g id="line2d_18">
      <g>
       <use style="stroke:#000000;stroke-width:0.6;" x="208.778154" xlink:href="#mb519a7761a" y="440.3052"/>
      </g>
     </g>
    </g>
    <g id="xtick_19">
     <g id="line2d_19">
      <g>
       <use style="stroke:#000000;stroke-width:0.6;" x="216.358681" xlink:href="#mb519a7761a" y="440.3052"/>
      </g>
     </g>
    </g>
    <g id="xtick_20">
     <g id="line2d_20">
      <g>
       <use style="stroke:#000000;stroke-width:0.6;" x="222.925232" xlink:href="#mb519a7761a" y="440.3052"/>
      </g>
     </g>
    </g>
    <g id="xtick_21">
     <g id="line2d_21">
      <g>
       <use style="stroke:#000000;stroke-width:0.6;" x="228.717341" xlink:href="#mb519a7761a" y="440.3052"/>
      </g>
     </g>
    </g>
    <g id="xtick_22">
     <g id="line2d_22">
      <g>
       <use style="stroke:#000000;stroke-width:0.6;" x="267.984824" xlink:href="#mb519a7761a" y="440.3052"/>
      </g>
     </g>
    </g>
    <g id="xtick_23">
     <g id="line2d_23">
      <g>
       <use style="stroke:#000000;stroke-width:0.6;" x="287.924011" xlink:href="#mb519a7761a" y="440.3052"/>
      </g>
     </g>
    </g>
    <g id="xtick_24">
     <g id="line2d_24">
      <g>
       <use style="stroke:#000000;stroke-width:0.6;" x="302.071089" xlink:href="#mb519a7761a" y="440.3052"/>
      </g>
     </g>
    </g>
    <g id="xtick_25">
     <g id="line2d_25">
      <g>
       <use style="stroke:#000000;stroke-width:0.6;" x="313.044416" xlink:href="#mb519a7761a" y="440.3052"/>
      </g>
     </g>
    </g>
    <g id="xtick_26">
     <g id="line2d_26">
      <g>
       <use style="stroke:#000000;stroke-width:0.6;" x="322.010276" xlink:href="#mb519a7761a" y="440.3052"/>
      </g>
     </g>
    </g>
    <g id="xtick_27">
     <g id="line2d_27">
      <g>
       <use style="stroke:#000000;stroke-width:0.6;" x="329.590804" xlink:href="#mb519a7761a" y="440.3052"/>
      </g>
     </g>
    </g>
    <g id="xtick_28">
     <g id="line2d_28">
      <g>
       <use style="stroke:#000000;stroke-width:0.6;" x="336.157355" xlink:href="#mb519a7761a" y="440.3052"/>
      </g>
     </g>
    </g>
    <g id="xtick_29">
     <g id="line2d_29">
      <g>
       <use style="stroke:#000000;stroke-width:0.6;" x="341.949464" xlink:href="#mb519a7761a" y="440.3052"/>
      </g>
     </g>
    </g>
    <g id="xtick_30">
     <g id="line2d_30">
      <g>
       <use style="stroke:#000000;stroke-width:0.6;" x="381.216947" xlink:href="#mb519a7761a" y="440.3052"/>
      </g>
     </g>
    </g>
    <g id="xtick_31">
     <g id="line2d_31">
      <g>
       <use style="stroke:#000000;stroke-width:0.6;" x="401.156134" xlink:href="#mb519a7761a" y="440.3052"/>
      </g>
     </g>
    </g>
    <g id="xtick_32">
     <g id="line2d_32">
      <g>
       <use style="stroke:#000000;stroke-width:0.6;" x="415.303212" xlink:href="#mb519a7761a" y="440.3052"/>
      </g>
     </g>
    </g>
    <g id="xtick_33">
     <g id="line2d_33">
      <g>
       <use style="stroke:#000000;stroke-width:0.6;" x="426.276538" xlink:href="#mb519a7761a" y="440.3052"/>
      </g>
     </g>
    </g>
    <g id="xtick_34">
     <g id="line2d_34">
      <g>
       <use style="stroke:#000000;stroke-width:0.6;" x="435.242399" xlink:href="#mb519a7761a" y="440.3052"/>
      </g>
     </g>
    </g>
    <g id="xtick_35">
     <g id="line2d_35">
      <g>
       <use style="stroke:#000000;stroke-width:0.6;" x="442.822926" xlink:href="#mb519a7761a" y="440.3052"/>
      </g>
     </g>
    </g>
    <g id="xtick_36">
     <g id="line2d_36">
      <g>
       <use style="stroke:#000000;stroke-width:0.6;" x="449.389477" xlink:href="#mb519a7761a" y="440.3052"/>
      </g>
     </g>
    </g>
    <g id="xtick_37">
     <g id="line2d_37">
      <g>
       <use style="stroke:#000000;stroke-width:0.6;" x="455.181586" xlink:href="#mb519a7761a" y="440.3052"/>
      </g>
     </g>
    </g>
    <g id="xtick_38">
     <g id="line2d_38">
      <g>
       <use style="stroke:#000000;stroke-width:0.6;" x="494.449069" xlink:href="#mb519a7761a" y="440.3052"/>
      </g>
     </g>
    </g>
    <g id="xtick_39">
     <g id="line2d_39">
      <g>
       <use style="stroke:#000000;stroke-width:0.6;" x="514.388256" xlink:href="#mb519a7761a" y="440.3052"/>
      </g>
     </g>
    </g>
    <g id="xtick_40">
     <g id="line2d_40">
      <g>
       <use style="stroke:#000000;stroke-width:0.6;" x="528.535334" xlink:href="#mb519a7761a" y="440.3052"/>
      </g>
     </g>
    </g>
    <g id="xtick_41">
     <g id="line2d_41">
      <g>
       <use style="stroke:#000000;stroke-width:0.6;" x="539.508661" xlink:href="#mb519a7761a" y="440.3052"/>
      </g>
     </g>
    </g>
    <g id="xtick_42">
     <g id="line2d_42">
      <g>
       <use style="stroke:#000000;stroke-width:0.6;" x="548.474521" xlink:href="#mb519a7761a" y="440.3052"/>
      </g>
     </g>
    </g>
    <g id="xtick_43">
     <g id="line2d_43">
      <g>
       <use style="stroke:#000000;stroke-width:0.6;" x="556.055048" xlink:href="#mb519a7761a" y="440.3052"/>
      </g>
     </g>
    </g>
    <g id="xtick_44">
     <g id="line2d_44">
      <g>
       <use style="stroke:#000000;stroke-width:0.6;" x="562.6216" xlink:href="#mb519a7761a" y="440.3052"/>
      </g>
     </g>
    </g>
    <g id="xtick_45">
     <g id="line2d_45">
      <g>
       <use style="stroke:#000000;stroke-width:0.6;" x="568.413708" xlink:href="#mb519a7761a" y="440.3052"/>
      </g>
     </g>
    </g>
    <g id="xtick_46">
     <g id="line2d_46">
      <g>
       <use style="stroke:#000000;stroke-width:0.6;" x="607.681192" xlink:href="#mb519a7761a" y="440.3052"/>
      </g>
     </g>
    </g>
    <g id="xtick_47">
     <g id="line2d_47">
      <g>
       <use style="stroke:#000000;stroke-width:0.6;" x="627.620379" xlink:href="#mb519a7761a" y="440.3052"/>
      </g>
     </g>
    </g>
    <g id="xtick_48">
     <g id="line2d_48">
      <g>
       <use style="stroke:#000000;stroke-width:0.6;" x="641.767457" xlink:href="#mb519a7761a" y="440.3052"/>
      </g>
     </g>
    </g>
    <g id="xtick_49">
     <g id="line2d_49">
      <g>
       <use style="stroke:#000000;stroke-width:0.6;" x="652.740783" xlink:href="#mb519a7761a" y="440.3052"/>
      </g>
     </g>
    </g>
    <g id="xtick_50">
     <g id="line2d_50">
      <g>
       <use style="stroke:#000000;stroke-width:0.6;" x="661.706644" xlink:href="#mb519a7761a" y="440.3052"/>
      </g>
     </g>
    </g>
    <g id="xtick_51">
     <g id="line2d_51">
      <g>
       <use style="stroke:#000000;stroke-width:0.6;" x="669.287171" xlink:href="#mb519a7761a" y="440.3052"/>
      </g>
     </g>
    </g>
    <g id="xtick_52">
     <g id="line2d_52">
      <g>
       <use style="stroke:#000000;stroke-width:0.6;" x="675.853722" xlink:href="#mb519a7761a" y="440.3052"/>
      </g>
     </g>
    </g>
    <g id="xtick_53">
     <g id="line2d_53">
      <g>
       <use style="stroke:#000000;stroke-width:0.6;" x="681.645831" xlink:href="#mb519a7761a" y="440.3052"/>
      </g>
     </g>
    </g>
    <g id="xtick_54">
     <g id="line2d_54">
      <g>
       <use style="stroke:#000000;stroke-width:0.6;" x="720.913314" xlink:href="#mb519a7761a" y="440.3052"/>
      </g>
     </g>
    </g>
    <g id="xtick_55">
     <g id="line2d_55">
      <g>
       <use style="stroke:#000000;stroke-width:0.6;" x="740.852501" xlink:href="#mb519a7761a" y="440.3052"/>
      </g>
     </g>
    </g>
    <g id="xtick_56">
     <g id="line2d_56">
      <g>
       <use style="stroke:#000000;stroke-width:0.6;" x="754.999579" xlink:href="#mb519a7761a" y="440.3052"/>
      </g>
     </g>
    </g>
    <g id="xtick_57">
     <g id="line2d_57">
      <g>
       <use style="stroke:#000000;stroke-width:0.6;" x="765.972906" xlink:href="#mb519a7761a" y="440.3052"/>
      </g>
     </g>
    </g>
    <g id="xtick_58">
     <g id="line2d_58">
      <g>
       <use style="stroke:#000000;stroke-width:0.6;" x="774.938766" xlink:href="#mb519a7761a" y="440.3052"/>
      </g>
     </g>
    </g>
    <g id="xtick_59">
     <g id="line2d_59">
      <g>
       <use style="stroke:#000000;stroke-width:0.6;" x="782.519293" xlink:href="#mb519a7761a" y="440.3052"/>
      </g>
     </g>
    </g>
    <g id="xtick_60">
     <g id="line2d_60">
      <g>
       <use style="stroke:#000000;stroke-width:0.6;" x="789.085845" xlink:href="#mb519a7761a" y="440.3052"/>
      </g>
     </g>
    </g>
    <g id="xtick_61">
     <g id="line2d_61">
      <g>
       <use style="stroke:#000000;stroke-width:0.6;" x="794.877953" xlink:href="#mb519a7761a" y="440.3052"/>
      </g>
     </g>
    </g>
    <g id="xtick_62">
     <g id="line2d_62">
      <g>
       <use style="stroke:#000000;stroke-width:0.6;" x="834.145436" xlink:href="#mb519a7761a" y="440.3052"/>
      </g>
     </g>
    </g>
    <g id="xtick_63">
     <g id="line2d_63">
      <g>
       <use style="stroke:#000000;stroke-width:0.6;" x="854.084623" xlink:href="#mb519a7761a" y="440.3052"/>
      </g>
     </g>
    </g>
    <g id="xtick_64">
     <g id="line2d_64">
      <g>
       <use style="stroke:#000000;stroke-width:0.6;" x="868.231702" xlink:href="#mb519a7761a" y="440.3052"/>
      </g>
     </g>
    </g>
    <g id="xtick_65">
     <g id="line2d_65">
      <g>
       <use style="stroke:#000000;stroke-width:0.6;" x="879.205028" xlink:href="#mb519a7761a" y="440.3052"/>
      </g>
     </g>
    </g>
    <g id="xtick_66">
     <g id="line2d_66">
      <g>
       <use style="stroke:#000000;stroke-width:0.6;" x="888.170889" xlink:href="#mb519a7761a" y="440.3052"/>
      </g>
     </g>
    </g>
    <g id="xtick_67">
     <g id="line2d_67">
      <g>
       <use style="stroke:#000000;stroke-width:0.6;" x="895.751416" xlink:href="#mb519a7761a" y="440.3052"/>
      </g>
     </g>
    </g>
    <g id="xtick_68">
     <g id="line2d_68">
      <g>
       <use style="stroke:#000000;stroke-width:0.6;" x="902.317967" xlink:href="#mb519a7761a" y="440.3052"/>
      </g>
     </g>
    </g>
    <g id="xtick_69">
     <g id="line2d_69">
      <g>
       <use style="stroke:#000000;stroke-width:0.6;" x="908.110076" xlink:href="#mb519a7761a" y="440.3052"/>
      </g>
     </g>
    </g>
    <g id="text_9">
     <!-- $\tau/(l_p/\sigma)$ -->
     <defs>
      <path d="M 32.859375 9.96875 
Q 34.1875 7.625 39.453125 7.625 
L 43.75 7.625 
L 42.28125 0 
L 36.921875 0 
Q 28.125 0 25 4.6875 
Q 21.921875 9.46875 23.96875 19.828125 
L 29 45.703125 
L 8.453125 45.703125 
L 10.203125 54.6875 
L 60.640625 54.6875 
L 58.890625 45.703125 
L 38.1875 45.703125 
L 33.015625 19.28125 
Q 31.640625 12.203125 32.859375 9.96875 
z
" id="DejaVuSans-Oblique-964"/>
      <path d="M 25.390625 72.90625 
L 33.6875 72.90625 
L 8.296875 -9.28125 
L 0 -9.28125 
z
" id="DejaVuSans-47"/>
      <path d="M 31 75.875 
Q 24.46875 64.65625 21.28125 53.65625 
Q 18.109375 42.671875 18.109375 31.390625 
Q 18.109375 20.125 21.3125 9.0625 
Q 24.515625 -2 31 -13.1875 
L 23.1875 -13.1875 
Q 15.875 -1.703125 12.234375 9.375 
Q 8.59375 20.453125 8.59375 31.390625 
Q 8.59375 42.28125 12.203125 53.3125 
Q 15.828125 64.359375 23.1875 75.875 
z
" id="DejaVuSans-40"/>
      <path d="M 18.3125 75.984375 
L 27.296875 75.984375 
L 12.5 0 
L 3.515625 0 
z
" id="DejaVuSans-Oblique-108"/>
      <path d="M 49.609375 33.6875 
Q 49.609375 40.875 46.484375 44.671875 
Q 43.359375 48.484375 37.5 48.484375 
Q 33.5 48.484375 29.859375 46.4375 
Q 26.21875 44.390625 23.390625 40.484375 
Q 20.609375 36.625 18.9375 31.15625 
Q 17.28125 25.6875 17.28125 20.3125 
Q 17.28125 13.484375 20.40625 9.796875 
Q 23.53125 6.109375 29.296875 6.109375 
Q 33.546875 6.109375 37.1875 8.109375 
Q 40.828125 10.109375 43.40625 13.921875 
Q 46.1875 17.921875 47.890625 23.34375 
Q 49.609375 28.765625 49.609375 33.6875 
z
M 21.78125 46.390625 
Q 25.390625 51.125 30.296875 53.5625 
Q 35.203125 56 41.21875 56 
Q 49.609375 56 54.25 50.5 
Q 58.890625 45.015625 58.890625 35.109375 
Q 58.890625 27 56 19.65625 
Q 53.125 12.3125 47.703125 6.5 
Q 44.09375 2.640625 39.546875 0.609375 
Q 35.015625 -1.421875 29.984375 -1.421875 
Q 24.171875 -1.421875 20.21875 1 
Q 16.265625 3.421875 14.3125 8.203125 
L 8.6875 -20.796875 
L -0.296875 -20.796875 
L 14.40625 54.6875 
L 23.390625 54.6875 
z
" id="DejaVuSans-Oblique-112"/>
      <path d="M 34.671875 47.5625 
Q 27.25 47.5625 22.21875 42.1875 
Q 16.890625 36.578125 15.140625 27.296875 
Q 13.1875 17.484375 16.3125 11.8125 
Q 19.390625 6.203125 26.65625 6.203125 
Q 33.84375 6.203125 39.109375 11.859375 
Q 44.4375 17.53125 46.34375 27.296875 
Q 48.046875 36.234375 45.015625 42.1875 
Q 42.1875 47.5625 34.671875 47.5625 
z
M 36.078125 54.734375 
L 65.921875 54.6875 
L 64.15625 45.703125 
L 54.109375 45.703125 
Q 57.90625 38.09375 55.859375 27.296875 
Q 53.21875 13.875 45.0625 6.25 
Q 36.859375 -1.421875 25.140625 -1.421875 
Q 13.375 -1.421875 8.203125 6.25 
Q 3.03125 13.875 5.671875 27.296875 
Q 8.25 40.765625 16.40625 48.390625 
Q 23.1875 54.734375 36.078125 54.734375 
z
" id="DejaVuSans-Oblique-963"/>
      <path d="M 8.015625 75.875 
L 15.828125 75.875 
Q 23.140625 64.359375 26.78125 53.3125 
Q 30.421875 42.28125 30.421875 31.390625 
Q 30.421875 20.453125 26.78125 9.375 
Q 23.140625 -1.703125 15.828125 -13.1875 
L 8.015625 -13.1875 
Q 14.5 -2 17.703125 9.0625 
Q 20.90625 20.125 20.90625 31.390625 
Q 20.90625 42.671875 17.703125 53.65625 
Q 14.5 64.65625 8.015625 75.875 
z
" id="DejaVuSans-41"/>
     </defs>
     <g transform="translate(464.7868 485.86145)scale(0.2 -0.2)">
      <use transform="translate(0 0.015625)" xlink:href="#DejaVuSans-Oblique-964"/>
      <use transform="translate(60.205078 0.015625)" xlink:href="#DejaVuSans-47"/>
      <use transform="translate(93.896484 0.015625)" xlink:href="#DejaVuSans-40"/>
      <use transform="translate(132.910156 0.015625)" xlink:href="#DejaVuSans-Oblique-108"/>
      <use transform="translate(160.693359 -16.390625)scale(0.7)" xlink:href="#DejaVuSans-Oblique-112"/>
      <use transform="translate(207.861328 0.015625)" xlink:href="#DejaVuSans-47"/>
      <use transform="translate(241.552734 0.015625)" xlink:href="#DejaVuSans-Oblique-963"/>
      <use transform="translate(304.931641 0.015625)" xlink:href="#DejaVuSans-41"/>
     </g>
    </g>
   </g>
   <g id="matplotlib.axis_2">
    <g id="ytick_1">
     <g id="line2d_70">
      <defs>
       <path d="M 0 0 
L -3.5 0 
" id="m83001110ed" style="stroke:#000000;stroke-width:0.8;"/>
      </defs>
      <g>
       <use style="stroke:#000000;stroke-width:0.8;" x="82.8144" xlink:href="#m83001110ed" y="400.277438"/>
      </g>
     </g>
     <g id="text_10">
      <!-- $\mathdefault{10^{-2}}$ -->
      <g transform="translate(28.8144 407.875876)scale(0.2 -0.2)">
       <use transform="translate(0 0.765625)" xlink:href="#DejaVuSans-49"/>
       <use transform="translate(63.623047 0.765625)" xlink:href="#DejaVuSans-48"/>
       <use transform="translate(128.203125 39.046875)scale(0.7)" xlink:href="#DejaVuSans-8722"/>
       <use transform="translate(186.855469 39.046875)scale(0.7)" xlink:href="#DejaVuSans-50"/>
      </g>
     </g>
    </g>
    <g id="ytick_2">
     <g id="line2d_71">
      <g>
       <use style="stroke:#000000;stroke-width:0.8;" x="82.8144" xlink:href="#m83001110ed" y="320.607955"/>
      </g>
     </g>
     <g id="text_11">
      <!-- $\mathdefault{10^{-1}}$ -->
      <g transform="translate(28.8144 328.206393)scale(0.2 -0.2)">
       <use transform="translate(0 0.684375)" xlink:href="#DejaVuSans-49"/>
       <use transform="translate(63.623047 0.684375)" xlink:href="#DejaVuSans-48"/>
       <use transform="translate(128.203125 38.965625)scale(0.7)" xlink:href="#DejaVuSans-8722"/>
       <use transform="translate(186.855469 38.965625)scale(0.7)" xlink:href="#DejaVuSans-49"/>
      </g>
     </g>
    </g>
    <g id="ytick_3">
     <g id="line2d_72">
      <g>
       <use style="stroke:#000000;stroke-width:0.8;" x="82.8144" xlink:href="#m83001110ed" y="240.938473"/>
      </g>
     </g>
     <g id="text_12">
      <!-- $\mathdefault{10^{0}}$ -->
      <g transform="translate(40.6144 248.53691)scale(0.2 -0.2)">
       <use transform="translate(0 0.765625)" xlink:href="#DejaVuSans-49"/>
       <use transform="translate(63.623047 0.765625)" xlink:href="#DejaVuSans-48"/>
       <use transform="translate(128.203125 39.046875)scale(0.7)" xlink:href="#DejaVuSans-48"/>
      </g>
     </g>
    </g>
    <g id="ytick_4">
     <g id="line2d_73">
      <g>
       <use style="stroke:#000000;stroke-width:0.8;" x="82.8144" xlink:href="#m83001110ed" y="161.26899"/>
      </g>
     </g>
     <g id="text_13">
      <!-- $\mathdefault{10^{1}}$ -->
      <g transform="translate(40.6144 168.867427)scale(0.2 -0.2)">
       <use transform="translate(0 0.684375)" xlink:href="#DejaVuSans-49"/>
       <use transform="translate(63.623047 0.684375)" xlink:href="#DejaVuSans-48"/>
       <use transform="translate(128.203125 38.965625)scale(0.7)" xlink:href="#DejaVuSans-49"/>
      </g>
     </g>
    </g>
    <g id="ytick_5">
     <g id="line2d_74">
      <g>
       <use style="stroke:#000000;stroke-width:0.8;" x="82.8144" xlink:href="#m83001110ed" y="81.599507"/>
      </g>
     </g>
     <g id="text_14">
      <!-- $\mathdefault{10^{2}}$ -->
      <g transform="translate(40.6144 89.197944)scale(0.2 -0.2)">
       <use transform="translate(0 0.765625)" xlink:href="#DejaVuSans-49"/>
       <use transform="translate(63.623047 0.765625)" xlink:href="#DejaVuSans-48"/>
       <use transform="translate(128.203125 39.046875)scale(0.7)" xlink:href="#DejaVuSans-50"/>
      </g>
     </g>
    </g>
    <g id="ytick_6">
     <g id="line2d_75">
      <defs>
       <path d="M 0 0 
L -2 0 
" id="medad7a9c12" style="stroke:#000000;stroke-width:0.6;"/>
      </defs>
      <g>
       <use style="stroke:#000000;stroke-width:0.6;" x="82.8144" xlink:href="#medad7a9c12" y="431.981113"/>
      </g>
     </g>
    </g>
    <g id="ytick_7">
     <g id="line2d_76">
      <g>
       <use style="stroke:#000000;stroke-width:0.6;" x="82.8144" xlink:href="#medad7a9c12" y="424.260342"/>
      </g>
     </g>
    </g>
    <g id="ytick_8">
     <g id="line2d_77">
      <g>
       <use style="stroke:#000000;stroke-width:0.6;" x="82.8144" xlink:href="#medad7a9c12" y="417.952013"/>
      </g>
     </g>
    </g>
    <g id="ytick_9">
     <g id="line2d_78">
      <g>
       <use style="stroke:#000000;stroke-width:0.6;" x="82.8144" xlink:href="#medad7a9c12" y="412.618397"/>
      </g>
     </g>
    </g>
    <g id="ytick_10">
     <g id="line2d_79">
      <g>
       <use style="stroke:#000000;stroke-width:0.6;" x="82.8144" xlink:href="#medad7a9c12" y="407.998209"/>
      </g>
     </g>
    </g>
    <g id="ytick_11">
     <g id="line2d_80">
      <g>
       <use style="stroke:#000000;stroke-width:0.6;" x="82.8144" xlink:href="#medad7a9c12" y="403.922914"/>
      </g>
     </g>
    </g>
    <g id="ytick_12">
     <g id="line2d_81">
      <g>
       <use style="stroke:#000000;stroke-width:0.6;" x="82.8144" xlink:href="#medad7a9c12" y="376.294534"/>
      </g>
     </g>
    </g>
    <g id="ytick_13">
     <g id="line2d_82">
      <g>
       <use style="stroke:#000000;stroke-width:0.6;" x="82.8144" xlink:href="#medad7a9c12" y="362.265435"/>
      </g>
     </g>
    </g>
    <g id="ytick_14">
     <g id="line2d_83">
      <g>
       <use style="stroke:#000000;stroke-width:0.6;" x="82.8144" xlink:href="#medad7a9c12" y="352.31163"/>
      </g>
     </g>
    </g>
    <g id="ytick_15">
     <g id="line2d_84">
      <g>
       <use style="stroke:#000000;stroke-width:0.6;" x="82.8144" xlink:href="#medad7a9c12" y="344.590859"/>
      </g>
     </g>
    </g>
    <g id="ytick_16">
     <g id="line2d_85">
      <g>
       <use style="stroke:#000000;stroke-width:0.6;" x="82.8144" xlink:href="#medad7a9c12" y="338.282531"/>
      </g>
     </g>
    </g>
    <g id="ytick_17">
     <g id="line2d_86">
      <g>
       <use style="stroke:#000000;stroke-width:0.6;" x="82.8144" xlink:href="#medad7a9c12" y="332.948914"/>
      </g>
     </g>
    </g>
    <g id="ytick_18">
     <g id="line2d_87">
      <g>
       <use style="stroke:#000000;stroke-width:0.6;" x="82.8144" xlink:href="#medad7a9c12" y="328.328726"/>
      </g>
     </g>
    </g>
    <g id="ytick_19">
     <g id="line2d_88">
      <g>
       <use style="stroke:#000000;stroke-width:0.6;" x="82.8144" xlink:href="#medad7a9c12" y="324.253431"/>
      </g>
     </g>
    </g>
    <g id="ytick_20">
     <g id="line2d_89">
      <g>
       <use style="stroke:#000000;stroke-width:0.6;" x="82.8144" xlink:href="#medad7a9c12" y="296.625051"/>
      </g>
     </g>
    </g>
    <g id="ytick_21">
     <g id="line2d_90">
      <g>
       <use style="stroke:#000000;stroke-width:0.6;" x="82.8144" xlink:href="#medad7a9c12" y="282.595952"/>
      </g>
     </g>
    </g>
    <g id="ytick_22">
     <g id="line2d_91">
      <g>
       <use style="stroke:#000000;stroke-width:0.6;" x="82.8144" xlink:href="#medad7a9c12" y="272.642147"/>
      </g>
     </g>
    </g>
    <g id="ytick_23">
     <g id="line2d_92">
      <g>
       <use style="stroke:#000000;stroke-width:0.6;" x="82.8144" xlink:href="#medad7a9c12" y="264.921377"/>
      </g>
     </g>
    </g>
    <g id="ytick_24">
     <g id="line2d_93">
      <g>
       <use style="stroke:#000000;stroke-width:0.6;" x="82.8144" xlink:href="#medad7a9c12" y="258.613048"/>
      </g>
     </g>
    </g>
    <g id="ytick_25">
     <g id="line2d_94">
      <g>
       <use style="stroke:#000000;stroke-width:0.6;" x="82.8144" xlink:href="#medad7a9c12" y="253.279432"/>
      </g>
     </g>
    </g>
    <g id="ytick_26">
     <g id="line2d_95">
      <g>
       <use style="stroke:#000000;stroke-width:0.6;" x="82.8144" xlink:href="#medad7a9c12" y="248.659243"/>
      </g>
     </g>
    </g>
    <g id="ytick_27">
     <g id="line2d_96">
      <g>
       <use style="stroke:#000000;stroke-width:0.6;" x="82.8144" xlink:href="#medad7a9c12" y="244.583948"/>
      </g>
     </g>
    </g>
    <g id="ytick_28">
     <g id="line2d_97">
      <g>
       <use style="stroke:#000000;stroke-width:0.6;" x="82.8144" xlink:href="#medad7a9c12" y="216.955569"/>
      </g>
     </g>
    </g>
    <g id="ytick_29">
     <g id="line2d_98">
      <g>
       <use style="stroke:#000000;stroke-width:0.6;" x="82.8144" xlink:href="#medad7a9c12" y="202.926469"/>
      </g>
     </g>
    </g>
    <g id="ytick_30">
     <g id="line2d_99">
      <g>
       <use style="stroke:#000000;stroke-width:0.6;" x="82.8144" xlink:href="#medad7a9c12" y="192.972664"/>
      </g>
     </g>
    </g>
    <g id="ytick_31">
     <g id="line2d_100">
      <g>
       <use style="stroke:#000000;stroke-width:0.6;" x="82.8144" xlink:href="#medad7a9c12" y="185.251894"/>
      </g>
     </g>
    </g>
    <g id="ytick_32">
     <g id="line2d_101">
      <g>
       <use style="stroke:#000000;stroke-width:0.6;" x="82.8144" xlink:href="#medad7a9c12" y="178.943565"/>
      </g>
     </g>
    </g>
    <g id="ytick_33">
     <g id="line2d_102">
      <g>
       <use style="stroke:#000000;stroke-width:0.6;" x="82.8144" xlink:href="#medad7a9c12" y="173.609949"/>
      </g>
     </g>
    </g>
    <g id="ytick_34">
     <g id="line2d_103">
      <g>
       <use style="stroke:#000000;stroke-width:0.6;" x="82.8144" xlink:href="#medad7a9c12" y="168.98976"/>
      </g>
     </g>
    </g>
    <g id="ytick_35">
     <g id="line2d_104">
      <g>
       <use style="stroke:#000000;stroke-width:0.6;" x="82.8144" xlink:href="#medad7a9c12" y="164.914465"/>
      </g>
     </g>
    </g>
    <g id="ytick_36">
     <g id="line2d_105">
      <g>
       <use style="stroke:#000000;stroke-width:0.6;" x="82.8144" xlink:href="#medad7a9c12" y="137.286086"/>
      </g>
     </g>
    </g>
    <g id="ytick_37">
     <g id="line2d_106">
      <g>
       <use style="stroke:#000000;stroke-width:0.6;" x="82.8144" xlink:href="#medad7a9c12" y="123.256986"/>
      </g>
     </g>
    </g>
    <g id="ytick_38">
     <g id="line2d_107">
      <g>
       <use style="stroke:#000000;stroke-width:0.6;" x="82.8144" xlink:href="#medad7a9c12" y="113.303182"/>
      </g>
     </g>
    </g>
    <g id="ytick_39">
     <g id="line2d_108">
      <g>
       <use style="stroke:#000000;stroke-width:0.6;" x="82.8144" xlink:href="#medad7a9c12" y="105.582411"/>
      </g>
     </g>
    </g>
    <g id="ytick_40">
     <g id="line2d_109">
      <g>
       <use style="stroke:#000000;stroke-width:0.6;" x="82.8144" xlink:href="#medad7a9c12" y="99.274082"/>
      </g>
     </g>
    </g>
    <g id="ytick_41">
     <g id="line2d_110">
      <g>
       <use style="stroke:#000000;stroke-width:0.6;" x="82.8144" xlink:href="#medad7a9c12" y="93.940466"/>
      </g>
     </g>
    </g>
    <g id="ytick_42">
     <g id="line2d_111">
      <g>
       <use style="stroke:#000000;stroke-width:0.6;" x="82.8144" xlink:href="#medad7a9c12" y="89.320278"/>
      </g>
     </g>
    </g>
    <g id="ytick_43">
     <g id="line2d_112">
      <g>
       <use style="stroke:#000000;stroke-width:0.6;" x="82.8144" xlink:href="#medad7a9c12" y="85.244983"/>
      </g>
     </g>
    </g>
    <g id="ytick_44">
     <g id="line2d_113">
      <g>
       <use style="stroke:#000000;stroke-width:0.6;" x="82.8144" xlink:href="#medad7a9c12" y="57.616603"/>
      </g>
     </g>
    </g>
    <g id="ytick_45">
     <g id="line2d_114">
      <g>
       <use style="stroke:#000000;stroke-width:0.6;" x="82.8144" xlink:href="#medad7a9c12" y="43.587503"/>
      </g>
     </g>
    </g>
    <g id="ytick_46">
     <g id="line2d_115">
      <g>
       <use style="stroke:#000000;stroke-width:0.6;" x="82.8144" xlink:href="#medad7a9c12" y="33.633699"/>
      </g>
     </g>
    </g>
    <g id="text_15">
     <!-- $\tau N &lt;\delta w(t_0; \tau)^2&gt;$ -->
     <defs>
      <path d="M 16.890625 72.90625 
L 30.171875 72.90625 
L 50.296875 10.40625 
L 62.5 72.90625 
L 72.125 72.90625 
L 57.90625 0 
L 44.578125 0 
L 24.515625 62.890625 
L 12.3125 0 
L 2.6875 0 
z
" id="DejaVuSans-Oblique-78"/>
      <path d="M 73.1875 49.21875 
L 22.796875 31.296875 
L 73.1875 13.484375 
L 73.1875 4.59375 
L 10.59375 27.296875 
L 10.59375 35.40625 
L 73.1875 58.109375 
z
" id="DejaVuSans-60"/>
      <path d="M 54.25 63.328125 
Q 49.953125 66.75 38.28125 66.75 
Q 25.921875 66.75 24.8125 61.03125 
Q 23.921875 56.546875 36.375 54.203125 
Q 46.140625 52.390625 50.828125 46.921875 
Q 56.5 40.328125 53.859375 26.8125 
Q 51.3125 13.875 43.171875 6.25 
Q 34.96875 -1.421875 23.25 -1.421875 
Q 11.578125 -1.421875 6.34375 6.25 
Q 1.125 13.875 3.765625 27.296875 
Q 5.671875 37.25 13.921875 45.3125 
Q 17.140625 48.4375 21.140625 50.203125 
Q 14.265625 54.046875 15.625 60.9375 
Q 18.21875 74.21875 39.75 74.21875 
Q 50.53125 74.21875 55.71875 70.796875 
z
M 27.390625 47.75 
Q 23.828125 46.34375 20.40625 42.78125 
Q 15.140625 37.25 13.234375 27.296875 
Q 11.28125 17.390625 14.359375 11.8125 
Q 17.484375 6.203125 24.75 6.203125 
Q 31.9375 6.203125 37.203125 11.859375 
Q 42.53125 17.53125 44.34375 26.8125 
Q 46.1875 36.53125 42.671875 41.21875 
Q 38.921875 46.234375 32.859375 46.78125 
Q 29.78125 47.078125 27.390625 47.75 
z
" id="DejaVuSans-Oblique-948"/>
      <path d="M 8.5 54.6875 
L 17.390625 54.6875 
L 19.671875 10.6875 
L 40.09375 54.6875 
L 50.484375 54.6875 
L 53.515625 10.6875 
L 72.90625 54.6875 
L 81.890625 54.6875 
L 56.890625 0 
L 46.390625 0 
L 43.703125 45.3125 
L 22.796875 0 
L 12.203125 0 
z
" id="DejaVuSans-Oblique-119"/>
      <path d="M 42.28125 54.6875 
L 40.921875 47.703125 
L 23 47.703125 
L 17.1875 18.015625 
Q 16.890625 16.359375 16.75 15.234375 
Q 16.609375 14.109375 16.609375 13.484375 
Q 16.609375 10.359375 18.484375 8.9375 
Q 20.359375 7.515625 24.515625 7.515625 
L 33.59375 7.515625 
L 32.078125 0 
L 23.484375 0 
Q 15.484375 0 11.546875 3.125 
Q 7.625 6.25 7.625 12.59375 
Q 7.625 13.71875 7.765625 15.0625 
Q 7.90625 16.40625 8.203125 18.015625 
L 14.015625 47.703125 
L 6.390625 47.703125 
L 7.8125 54.6875 
L 15.28125 54.6875 
L 18.3125 70.21875 
L 27.296875 70.21875 
L 24.3125 54.6875 
z
" id="DejaVuSans-Oblique-116"/>
      <path d="M 11.71875 51.703125 
L 22.015625 51.703125 
L 22.015625 39.3125 
L 11.71875 39.3125 
z
M 11.71875 12.40625 
L 22.015625 12.40625 
L 22.015625 4 
L 14.015625 -11.625 
L 7.71875 -11.625 
L 11.71875 4 
z
" id="DejaVuSans-59"/>
      <path d="M 10.59375 49.21875 
L 10.59375 58.109375 
L 73.1875 35.40625 
L 73.1875 27.296875 
L 10.59375 4.59375 
L 10.59375 13.484375 
L 60.890625 31.296875 
z
" id="DejaVuSans-62"/>
     </defs>
     <g transform="translate(20.655025 321.322)rotate(-90)scale(0.2 -0.2)">
      <use transform="translate(0 0.765625)" xlink:href="#DejaVuSans-Oblique-964"/>
      <use transform="translate(60.205078 0.765625)" xlink:href="#DejaVuSans-Oblique-78"/>
      <use transform="translate(154.492188 0.765625)" xlink:href="#DejaVuSans-60"/>
      <use transform="translate(257.763672 0.765625)" xlink:href="#DejaVuSans-Oblique-948"/>
      <use transform="translate(318.945312 0.765625)" xlink:href="#DejaVuSans-Oblique-119"/>
      <use transform="translate(400.732422 0.765625)" xlink:href="#DejaVuSans-40"/>
      <use transform="translate(439.746094 0.765625)" xlink:href="#DejaVuSans-Oblique-116"/>
      <use transform="translate(478.955078 -15.640625)scale(0.7)" xlink:href="#DejaVuSans-48"/>
      <use transform="translate(526.225586 0.765625)" xlink:href="#DejaVuSans-59"/>
      <use transform="translate(579.399414 0.765625)" xlink:href="#DejaVuSans-Oblique-964"/>
      <use transform="translate(639.604492 0.765625)" xlink:href="#DejaVuSans-41"/>
      <use transform="translate(679.575195 39.046875)scale(0.7)" xlink:href="#DejaVuSans-50"/>
      <use transform="translate(746.328125 0.765625)" xlink:href="#DejaVuSans-62"/>
     </g>
    </g>
   </g>
   <g id="line2d_116">
    <path clip-path="url(#pce8694d42d)" d="M 120.666436 413.669598 
L 154.752702 412.526245 
L 174.691889 411.403057 
L 188.838967 410.324778 
L 199.812293 409.269837 
L 208.778154 408.241173 
L 222.925232 406.311378 
L 228.717341 405.366914 
L 233.898559 404.402296 
L 242.864419 402.661986 
L 250.444946 400.959912 
L 257.011498 399.354018 
L 265.462421 397.020496 
L 272.671806 394.854403 
L 280.886872 392.121179 
L 289.536486 388.916064 
L 296.889872 386.006741 
L 304.470399 382.811382 
L 312.050926 379.45155 
L 319.487873 375.933264 
L 327.436762 371.87815 
L 334.912324 367.913006 
L 342.492851 363.86422 
L 349.996118 359.630546 
L 357.709017 355.224227 
L 365.402723 350.729685 
L 372.934777 346.321826 
L 380.72271 341.702413 
L 388.303238 337.244588 
L 395.974916 332.724854 
L 403.555443 328.390807 
L 411.202831 324.139493 
L 418.859659 319.867593 
L 426.570713 315.801634 
L 434.165205 312.087623 
L 441.829436 308.263852 
L 449.512264 304.664122 
L 457.110307 301.363016 
L 464.780818 297.97081 
L 472.425518 294.84904 
L 480.071965 291.701865 
L 487.713624 289.000429 
L 495.374649 286.836961 
L 503.003412 284.314744 
L 510.660625 282.624087 
L 518.30931 280.880947 
L 525.948183 279.402059 
L 533.600852 278.024075 
L 541.247879 277.531336 
L 548.890752 275.434663 
L 556.537411 274.160786 
L 564.182492 273.577538 
L 571.832728 272.161184 
L 579.478745 269.869032 
L 587.124674 269.361889 
L 594.77398 268.064778 
L 602.420682 265.035984 
L 610.066449 264.001993 
L 617.713187 261.279423 
L 625.359551 258.42841 
L 633.007214 258.329643 
L 640.653388 255.481397 
L 648.301418 253.136705 
L 655.947411 253.024012 
L 663.594368 251.169376 
L 671.241554 248.961175 
L 678.888201 246.348227 
L 686.535061 241.872705 
L 694.182114 242.65329 
L 701.828836 239.378418 
L 709.475856 240.236162 
L 717.12278 237.524652 
L 724.76962 239.654631 
L 732.416452 234.418055 
L 740.063319 231.131687 
L 747.710335 237.639833 
L 755.357139 225.277532 
L 763.004033 236.180121 
L 770.650856 241.642235 
L 778.297808 230.572101 
L 785.944669 223.003606 
L 793.591547 242.192347 
L 801.238422 240.161822 
L 808.885296 236.486788 
L 816.532161 233.857229 
L 824.17903 249.95918 
L 831.825918 273.041795 
L 839.472773 284.105705 
L 847.119663 241.69 
L 854.766536 237.002902 
L 862.413411 320.865104 
L 870.06029 416.999078 
L 877.707164 379.240861 
" style="fill:none;stroke:#0000ff;stroke-linecap:square;stroke-width:1.5;"/>
   </g>
   <g id="line2d_117">
    <path clip-path="url(#pce8694d42d)" d="M 120.666436 413.670586 
L 154.752702 412.540722 
L 174.691889 411.435655 
L 188.838967 410.333781 
L 199.812293 409.285812 
L 208.778154 408.306181 
L 222.925232 406.300193 
L 228.717341 405.323842 
L 233.898559 404.384109 
L 242.864419 402.606972 
L 250.444946 400.887675 
L 257.011498 399.225171 
L 265.462421 396.865865 
L 272.671806 394.641432 
L 280.886872 391.919587 
L 289.536486 388.709975 
L 296.889872 385.81106 
L 304.470399 382.556932 
L 312.050926 379.132231 
L 319.487873 375.56721 
L 327.436762 371.518605 
L 334.912324 367.59871 
L 342.492851 363.455438 
L 349.996118 359.205048 
L 357.709017 354.766595 
L 365.402723 350.260576 
L 372.934777 345.799825 
L 380.72271 341.142489 
L 388.303238 336.636683 
L 395.974916 332.11994 
L 403.555443 327.744069 
L 411.202831 323.447489 
L 418.859659 319.11575 
L 426.570713 314.974086 
L 434.165205 311.124722 
L 441.829436 307.106994 
L 449.512264 303.451118 
L 457.110307 299.944073 
L 464.780818 296.459502 
L 472.425518 292.675715 
L 480.071965 289.941698 
L 487.713624 286.645443 
L 495.374649 283.988255 
L 503.003412 281.712889 
L 510.660625 278.958013 
L 518.30931 277.114782 
L 525.948183 274.839027 
L 533.600852 273.777941 
L 541.247879 272.455834 
L 548.890752 270.631704 
L 556.537411 270.003167 
L 564.182492 268.530912 
L 571.832728 268.096604 
L 579.478745 267.290006 
L 587.124674 266.864057 
L 594.77398 263.715248 
L 602.420682 263.004735 
L 610.066449 263.518836 
L 617.713187 262.514698 
L 625.359551 260.669445 
L 633.007214 259.812751 
L 640.653388 257.737059 
L 648.301418 257.804541 
L 655.947411 258.699652 
L 663.594368 254.934275 
L 671.241554 256.259698 
L 678.888201 257.555064 
L 686.535061 256.168384 
L 694.182114 252.855513 
L 701.828836 253.058591 
L 709.475856 254.060883 
L 717.12278 251.131184 
L 724.76962 261.819698 
L 732.416452 253.005605 
L 740.063319 257.21499 
L 747.710335 251.57434 
L 755.357139 251.259465 
L 763.004033 252.901745 
L 770.650856 255.428822 
L 778.297808 250.432797 
L 785.944669 260.651223 
L 793.591547 254.236579 
L 801.238422 299.047924 
L 808.885296 266.177589 
L 816.532161 309.660841 
L 824.17903 296.11898 
L 831.825918 312.880594 
L 839.472773 285.107889 
L 847.119663 301.324669 
L 854.766536 298.923143 
L 862.413411 294.963459 
L 870.06029 297.499965 
L 877.707164 276.67433 
" style="fill:none;stroke:#0080ff;stroke-linecap:square;stroke-width:1.5;"/>
   </g>
   <g id="line2d_118">
    <path clip-path="url(#pce8694d42d)" d="M 120.666436 413.505806 
L 154.752702 412.254684 
L 174.691889 411.064286 
L 188.838967 409.892796 
L 199.812293 408.793594 
L 208.778154 407.671486 
L 222.925232 405.57421 
L 228.717341 404.564309 
L 233.898559 403.563044 
L 242.864419 401.621671 
L 250.444946 399.815518 
L 257.011498 398.076181 
L 265.462421 395.599555 
L 272.671806 393.261838 
L 280.886872 390.418103 
L 289.536486 387.076805 
L 296.889872 384.021631 
L 304.470399 380.664573 
L 312.050926 377.111993 
L 319.487873 373.457907 
L 327.436762 369.308735 
L 334.912324 365.256586 
L 342.492851 361.011609 
L 349.996118 356.707584 
L 357.709017 352.198214 
L 365.402723 347.615228 
L 372.934777 343.06494 
L 380.72271 338.328183 
L 388.303238 333.736493 
L 395.974916 329.124404 
L 403.555443 324.639505 
L 411.202831 320.160872 
L 418.859659 315.843576 
L 426.570713 311.585607 
L 434.165205 307.450319 
L 441.829436 303.394136 
L 449.512264 299.347206 
L 457.110307 295.538024 
L 464.780818 291.812781 
L 472.425518 287.955695 
L 480.071965 284.559094 
L 487.713624 281.140321 
L 495.374649 277.816185 
L 503.003412 274.641924 
L 510.660625 272.024293 
L 518.30931 269.505603 
L 525.948183 266.14424 
L 533.600852 264.475259 
L 541.247879 262.540984 
L 548.890752 261.440358 
L 556.537411 259.919654 
L 564.182492 259.202058 
L 571.832728 256.236068 
L 579.478745 256.665368 
L 587.124674 255.67202 
L 594.77398 255.64298 
L 602.420682 254.445569 
L 610.066449 254.367423 
L 617.713187 253.584154 
L 625.359551 252.262016 
L 633.007214 248.256544 
L 640.653388 249.042397 
L 648.301418 249.845668 
L 655.947411 246.75393 
L 663.594368 250.189427 
L 671.241554 250.02705 
L 678.888201 249.87843 
L 686.535061 248.273758 
L 694.182114 248.155949 
L 701.828836 244.652363 
L 709.475856 248.79447 
L 717.12278 246.321677 
L 724.76962 247.121081 
L 732.416452 243.189054 
L 740.063319 250.295394 
L 747.710335 247.243155 
L 755.357139 246.324258 
L 763.004033 247.72211 
L 770.650856 239.204728 
L 778.297808 243.734607 
L 785.944669 242.14275 
L 793.591547 240.881844 
L 801.238422 258.09852 
L 808.885296 240.782311 
L 816.532161 283.519987 
L 824.17903 266.972012 
L 831.825918 280.015936 
L 839.472773 259.305835 
L 847.119663 315.436905 
L 854.766536 289.889898 
L 862.413411 359.742384 
L 870.06029 421.761273 
L 877.707164 300.622009 
" style="fill:none;stroke:#16ffe1;stroke-linecap:square;stroke-width:1.5;"/>
   </g>
   <g id="line2d_119">
    <path clip-path="url(#pce8694d42d)" d="M 120.666436 413.338149 
L 154.752702 411.986327 
L 174.691889 410.662505 
L 188.838967 409.384346 
L 199.812293 408.137417 
L 208.778154 406.924296 
L 222.925232 404.638296 
L 228.717341 403.555347 
L 233.898559 402.479864 
L 242.864419 400.432003 
L 250.444946 398.488666 
L 257.011498 396.5902 
L 265.462421 393.968754 
L 272.671806 391.511387 
L 280.886872 388.512803 
L 289.536486 385.037192 
L 296.889872 381.843939 
L 304.470399 378.370574 
L 312.050926 374.675482 
L 319.487873 370.874071 
L 327.436762 366.641641 
L 334.912324 362.516561 
L 342.492851 358.210171 
L 349.996118 353.809307 
L 357.709017 349.210753 
L 365.402723 344.552887 
L 372.934777 339.968851 
L 380.72271 335.173018 
L 388.303238 330.498955 
L 395.974916 325.849532 
L 403.555443 321.254726 
L 411.202831 316.692511 
L 418.859659 312.186842 
L 426.570713 307.775379 
L 434.165205 303.563291 
L 441.829436 299.362839 
L 449.512264 295.213693 
L 457.110307 291.346241 
L 464.780818 287.263657 
L 472.425518 283.277657 
L 480.071965 279.394013 
L 487.713624 276.055241 
L 495.374649 272.105618 
L 503.003412 268.504794 
L 510.660625 265.449989 
L 518.30931 262.320028 
L 525.948183 258.923195 
L 533.600852 256.808041 
L 541.247879 253.347151 
L 548.890752 251.445185 
L 556.537411 248.834323 
L 564.182492 246.597521 
L 571.832728 245.224003 
L 579.478745 243.536707 
L 587.124674 242.515982 
L 594.77398 239.999456 
L 602.420682 240.492496 
L 610.066449 240.290274 
L 617.713187 237.997073 
L 625.359551 238.109818 
L 633.007214 233.33789 
L 640.653388 236.577909 
L 648.301418 236.264269 
L 655.947411 235.099227 
L 663.594368 232.140343 
L 671.241554 231.580511 
L 678.888201 229.850455 
L 686.535061 232.678046 
L 694.182114 231.813241 
L 701.828836 233.279272 
L 709.475856 231.776415 
L 717.12278 233.435823 
L 724.76962 234.480256 
L 732.416452 235.605714 
L 740.063319 239.525727 
L 747.710335 245.878899 
L 755.357139 231.361435 
L 763.004033 246.193752 
L 770.650856 238.443208 
L 778.297808 246.835541 
L 785.944669 219.039566 
L 793.591547 237.946672 
L 801.238422 236.7446 
L 808.885296 289.160117 
L 816.532161 220.127033 
L 824.17903 268.131115 
L 831.825918 270.418037 
L 839.472773 290.904907 
L 847.119663 244.395321 
L 854.766536 214.308187 
L 862.413411 246.623695 
L 870.06029 279.364536 
L 877.707164 299.672154 
" style="fill:none;stroke:#7dff7a;stroke-linecap:square;stroke-width:1.5;"/>
   </g>
   <g id="line2d_120">
    <path clip-path="url(#pce8694d42d)" d="M 120.666436 413.369235 
L 154.752702 411.99675 
L 174.691889 410.689132 
L 188.838967 409.425456 
L 199.812293 408.19973 
L 208.778154 406.97607 
L 222.925232 404.702681 
L 228.717341 403.607575 
L 233.898559 402.525029 
L 242.864419 400.452265 
L 250.444946 398.499833 
L 257.011498 396.683424 
L 265.462421 394.040055 
L 272.671806 391.549707 
L 280.886872 388.547119 
L 289.536486 385.034861 
L 296.889872 381.844331 
L 304.470399 378.350664 
L 312.050926 374.624953 
L 319.487873 370.808021 
L 327.436762 366.580755 
L 334.912324 362.427855 
L 342.492851 358.096541 
L 349.996118 353.684773 
L 357.709017 349.09903 
L 365.402723 344.456645 
L 372.934777 339.820881 
L 380.72271 335.052635 
L 388.303238 330.378165 
L 395.974916 325.680711 
L 403.555443 321.130018 
L 411.202831 316.553104 
L 418.859659 312.005166 
L 426.570713 307.633518 
L 434.165205 303.344802 
L 441.829436 299.172966 
L 449.512264 294.917102 
L 457.110307 290.844312 
L 464.780818 286.967946 
L 472.425518 282.766299 
L 480.071965 278.902953 
L 487.713624 275.411373 
L 495.374649 271.663733 
L 503.003412 267.686839 
L 510.660625 264.485142 
L 518.30931 261.673654 
L 525.948183 257.946428 
L 533.600852 254.944717 
L 541.247879 252.661855 
L 548.890752 249.585209 
L 556.537411 247.336691 
L 564.182492 244.375485 
L 571.832728 242.906815 
L 579.478745 240.514704 
L 587.124674 239.231412 
L 594.77398 237.608494 
L 602.420682 235.571541 
L 610.066449 235.166582 
L 617.713187 234.318234 
L 625.359551 233.088574 
L 633.007214 234.388503 
L 640.653388 232.571476 
L 648.301418 232.304787 
L 655.947411 229.36221 
L 663.594368 230.694582 
L 671.241554 233.826078 
L 678.888201 233.534225 
L 686.535061 228.042845 
L 694.182114 235.408733 
L 701.828836 236.042981 
L 709.475856 234.668332 
L 717.12278 241.728242 
L 724.76962 245.387371 
L 732.416452 232.555032 
L 740.063319 244.878453 
L 747.710335 235.453148 
L 755.357139 240.280038 
L 763.004033 237.772153 
L 770.650856 244.082102 
L 778.297808 245.443732 
L 785.944669 250.069938 
L 793.591547 268.729197 
L 801.238422 266.332846 
L 808.885296 260.4887 
L 816.532161 274.757506 
L 824.17903 237.342357 
L 831.825918 237.068339 
L 839.472773 302.242589 
L 847.119663 252.849947 
L 854.766536 267.28368 
L 862.413411 260.962575 
L 870.06029 288.517717 
L 877.707164 335.785632 
" style="fill:none;stroke:#e4ff13;stroke-linecap:square;stroke-width:1.5;"/>
   </g>
   <g id="line2d_121">
    <path clip-path="url(#pce8694d42d)" d="M 120.666436 413.10044 
L 154.752702 411.529233 
L 174.691889 410.037126 
L 188.838967 408.571928 
L 199.812293 407.204936 
L 208.778154 405.818204 
L 222.925232 403.23691 
L 228.717341 402.078083 
L 233.898559 400.897157 
L 242.864419 398.641196 
L 250.444946 396.523749 
L 257.011498 394.490265 
L 265.462421 391.673926 
L 272.671806 388.989801 
L 280.886872 385.776121 
L 289.536486 382.045581 
L 296.889872 378.704484 
L 304.470399 375.040695 
L 312.050926 371.172858 
L 319.487873 367.249948 
L 327.436762 362.85349 
L 334.912324 358.562596 
L 342.492851 354.12258 
L 349.996118 349.624848 
L 357.709017 344.886244 
L 365.402723 340.150576 
L 372.934777 335.430709 
L 380.72271 330.528631 
L 388.303238 325.795893 
L 395.974916 320.996683 
L 403.555443 316.304295 
L 411.202831 311.608657 
L 418.859659 306.955068 
L 426.570713 302.452594 
L 434.165205 297.93314 
L 441.829436 293.565222 
L 449.512264 289.248655 
L 457.110307 284.940018 
L 464.780818 280.622175 
L 472.425518 276.467186 
L 480.071965 272.320469 
L 487.713624 268.101023 
L 495.374649 264.113299 
L 503.003412 260.089672 
L 510.660625 256.084917 
L 518.30931 252.279586 
L 525.948183 248.587204 
L 533.600852 244.796569 
L 541.247879 241.258252 
L 548.890752 238.036166 
L 556.537411 234.57072 
L 564.182492 231.038974 
L 571.832728 227.738491 
L 579.478745 224.580141 
L 587.124674 221.279861 
L 594.77398 218.741105 
L 602.420682 215.261294 
L 610.066449 211.380153 
L 617.713187 210.535258 
L 625.359551 207.991443 
L 633.007214 206.074444 
L 640.653388 202.482817 
L 648.301418 200.423968 
L 655.947411 201.545506 
L 663.594368 198.173693 
L 671.241554 196.757796 
L 678.888201 196.57312 
L 686.535061 195.322997 
L 694.182114 199.063343 
L 701.828836 192.82207 
L 709.475856 196.869063 
L 717.12278 193.354023 
L 724.76962 188.400639 
L 732.416452 200.46732 
L 740.063319 197.646425 
L 747.710335 188.628107 
L 755.357139 200.341591 
L 763.004033 203.279098 
L 770.650856 211.11019 
L 778.297808 185.017173 
L 785.944669 192.189958 
L 793.591547 181.412063 
L 801.238422 189.745703 
L 808.885296 205.154934 
L 816.532161 179.901737 
L 824.17903 190.855083 
L 831.825918 179.047366 
L 839.472773 188.068963 
L 847.119663 229.643294 
L 854.766536 337.713252 
L 862.413411 294.88065 
L 870.06029 342.253644 
L 877.707164 351.019581 
" style="fill:none;stroke:#ff9400;stroke-linecap:square;stroke-width:1.5;"/>
   </g>
   <g id="line2d_122">
    <path clip-path="url(#pce8694d42d)" d="M 120.666436 410.766384 
L 154.752702 407.288858 
L 174.691889 404.111928 
L 188.838967 401.18203 
L 199.812293 398.495129 
L 208.778154 395.981966 
L 222.925232 391.455471 
L 228.717341 389.403243 
L 233.898559 387.425003 
L 242.864419 383.827685 
L 250.444946 380.550032 
L 257.011498 377.522628 
L 265.462421 373.481823 
L 272.671806 369.818451 
L 280.886872 365.465362 
L 289.536486 360.647613 
L 296.889872 356.449548 
L 304.470399 351.986911 
L 312.050926 347.379438 
L 319.487873 342.785799 
L 327.436762 337.772796 
L 334.912324 332.987845 
L 342.492851 328.076024 
L 349.996118 323.143046 
L 357.709017 318.044799 
L 365.402723 312.936359 
L 372.934777 307.894082 
L 380.72271 302.693827 
L 388.303238 297.612281 
L 395.974916 292.458956 
L 403.555443 287.396318 
L 411.202831 282.319517 
L 418.859659 277.238428 
L 426.570713 272.163066 
L 434.165205 267.15733 
L 441.829436 262.167261 
L 449.512264 257.140879 
L 457.110307 252.220381 
L 464.780818 247.230308 
L 472.425518 242.326209 
L 480.071965 237.311798 
L 487.713624 232.3738 
L 495.374649 227.456451 
L 503.003412 222.551351 
L 510.660625 217.555505 
L 518.30931 212.798512 
L 525.948183 207.92569 
L 533.600852 203.024699 
L 541.247879 198.182077 
L 548.890752 193.449425 
L 556.537411 188.40772 
L 564.182492 183.645316 
L 571.832728 178.933493 
L 579.478745 174.021712 
L 587.124674 169.191172 
L 594.77398 164.230576 
L 602.420682 159.588644 
L 610.066449 154.606963 
L 617.713187 149.934601 
L 625.359551 145.152847 
L 633.007214 140.482144 
L 640.653388 135.906556 
L 648.301418 131.208512 
L 655.947411 126.885789 
L 663.594368 121.767327 
L 671.241554 119.422121 
L 678.888201 113.628514 
L 686.535061 111.337744 
L 694.182114 108.503963 
L 701.828836 101.182616 
L 709.475856 99.652673 
L 717.12278 97.284624 
L 724.76962 92.138563 
L 732.416452 94.118299 
L 740.063319 87.941821 
L 747.710335 92.980435 
L 755.357139 89.627103 
L 763.004033 85.49995 
L 770.650856 78.556508 
L 778.297808 76.617331 
L 785.944669 73.993344 
L 793.591547 73.219719 
L 801.238422 77.503706 
L 808.885296 72.076759 
L 816.532161 75.028483 
L 824.17903 96.919894 
L 831.825918 69.082132 
L 839.472773 61.77368 
L 847.119663 73.485791 
L 854.766536 59.501964 
L 862.413411 50.882727 
L 870.06029 59.747289 
L 877.707164 53.638042 
" style="fill:none;stroke:#ff1e00;stroke-linecap:square;stroke-width:1.5;"/>
   </g>
   <g id="patch_3">
    <path d="M 82.8144 440.3052 
L 82.8144 32.3388 
" style="fill:none;stroke:#000000;stroke-linecap:square;stroke-linejoin:miter;stroke-width:0.8;"/>
   </g>
   <g id="patch_4">
    <path d="M 915.5592 440.3052 
L 915.5592 32.3388 
" style="fill:none;stroke:#000000;stroke-linecap:square;stroke-linejoin:miter;stroke-width:0.8;"/>
   </g>
   <g id="patch_5">
    <path d="M 82.8144 440.3052 
L 915.5592 440.3052 
" style="fill:none;stroke:#000000;stroke-linecap:square;stroke-linejoin:miter;stroke-width:0.8;"/>
   </g>
   <g id="patch_6">
    <path d="M 82.8144 32.3388 
L 915.5592 32.3388 
" style="fill:none;stroke:#000000;stroke-linecap:square;stroke-linejoin:miter;stroke-width:0.8;"/>
   </g>
   <g id="text_16">
    <!-- $\phi = 0.65, l_p/\sigma = 100$ $(N_{iter}=10^7, dt=10^{-3})$ -->
    <defs>
     <path d="M 46.734375 75.984375 
L 42.78125 55.8125 
Q 52.546875 55.8125 57.5625 48.34375 
Q 62.75 40.71875 60.15625 27.296875 
Q 57.515625 13.875 49.359375 6.25 
Q 41.453125 -1.21875 31.6875 -1.21875 
L 27.875 -20.796875 
L 18.953125 -20.796875 
L 22.75 -1.21875 
Q 13.03125 -1.21875 7.953125 6.25 
Q 2.78125 13.875 5.421875 27.296875 
Q 8.015625 40.71875 16.15625 48.34375 
Q 24.125 55.8125 33.84375 55.8125 
L 37.796875 75.984375 
z
M 33.25 6.78125 
Q 38.765625 6.78125 43.5 11.8125 
Q 48.6875 17.4375 50.6875 27.296875 
Q 52.640625 37.0625 49.515625 42.78125 
Q 46.734375 47.796875 41.21875 47.796875 
z
M 24.3125 6.78125 
L 32.28125 47.796875 
Q 26.8125 47.796875 22.078125 42.78125 
Q 16.75 37.0625 14.890625 27.296875 
Q 13.03125 17.4375 16.0625 11.8125 
Q 18.796875 6.78125 24.3125 6.78125 
z
" id="DejaVuSans-Oblique-981"/>
     <path d="M 10.59375 45.40625 
L 73.1875 45.40625 
L 73.1875 37.203125 
L 10.59375 37.203125 
z
M 10.59375 25.484375 
L 73.1875 25.484375 
L 73.1875 17.1875 
L 10.59375 17.1875 
z
" id="DejaVuSans-61"/>
     <path d="M 10.6875 12.40625 
L 21 12.40625 
L 21 0 
L 10.6875 0 
z
" id="DejaVuSans-46"/>
     <path d="M 33.015625 40.375 
Q 26.375 40.375 22.484375 35.828125 
Q 18.609375 31.296875 18.609375 23.390625 
Q 18.609375 15.53125 22.484375 10.953125 
Q 26.375 6.390625 33.015625 6.390625 
Q 39.65625 6.390625 43.53125 10.953125 
Q 47.40625 15.53125 47.40625 23.390625 
Q 47.40625 31.296875 43.53125 35.828125 
Q 39.65625 40.375 33.015625 40.375 
z
M 52.59375 71.296875 
L 52.59375 62.3125 
Q 48.875 64.0625 45.09375 64.984375 
Q 41.3125 65.921875 37.59375 65.921875 
Q 27.828125 65.921875 22.671875 59.328125 
Q 17.53125 52.734375 16.796875 39.40625 
Q 19.671875 43.65625 24.015625 45.921875 
Q 28.375 48.1875 33.59375 48.1875 
Q 44.578125 48.1875 50.953125 41.515625 
Q 57.328125 34.859375 57.328125 23.390625 
Q 57.328125 12.15625 50.6875 5.359375 
Q 44.046875 -1.421875 33.015625 -1.421875 
Q 20.359375 -1.421875 13.671875 8.265625 
Q 6.984375 17.96875 6.984375 36.375 
Q 6.984375 53.65625 15.1875 63.9375 
Q 23.390625 74.21875 37.203125 74.21875 
Q 40.921875 74.21875 44.703125 73.484375 
Q 48.484375 72.75 52.59375 71.296875 
z
" id="DejaVuSans-54"/>
     <path d="M 11.71875 12.40625 
L 22.015625 12.40625 
L 22.015625 4 
L 14.015625 -11.625 
L 7.71875 -11.625 
L 11.71875 4 
z
" id="DejaVuSans-44"/>
     <path id="DejaVuSans-32"/>
     <path d="M 18.3125 75.984375 
L 27.296875 75.984375 
L 25.09375 64.59375 
L 16.109375 64.59375 
z
M 14.203125 54.6875 
L 23.1875 54.6875 
L 12.5 0 
L 3.515625 0 
z
" id="DejaVuSans-Oblique-105"/>
     <path d="M 48.09375 32.234375 
Q 48.25 33.015625 48.3125 33.84375 
Q 48.390625 34.671875 48.390625 35.5 
Q 48.390625 41.453125 44.890625 44.921875 
Q 41.40625 48.390625 35.40625 48.390625 
Q 28.71875 48.390625 23.578125 44.15625 
Q 18.453125 39.9375 15.828125 32.171875 
z
M 55.90625 25.203125 
L 14.109375 25.203125 
Q 13.8125 23.34375 13.71875 22.265625 
Q 13.625 21.1875 13.625 20.40625 
Q 13.625 13.625 17.796875 9.90625 
Q 21.96875 6.203125 29.59375 6.203125 
Q 35.453125 6.203125 40.671875 7.515625 
Q 45.90625 8.84375 50.390625 11.375 
L 48.6875 2.484375 
Q 43.84375 0.53125 38.6875 -0.4375 
Q 33.546875 -1.421875 28.21875 -1.421875 
Q 16.84375 -1.421875 10.71875 4.015625 
Q 4.59375 9.46875 4.59375 19.484375 
Q 4.59375 28.03125 7.640625 35.375 
Q 10.6875 42.71875 16.609375 48.484375 
Q 20.40625 52.09375 25.65625 54.046875 
Q 30.90625 56 36.8125 56 
Q 46.09375 56 51.578125 50.4375 
Q 57.078125 44.875 57.078125 35.5 
Q 57.078125 33.25 56.78125 30.6875 
Q 56.5 28.125 55.90625 25.203125 
z
" id="DejaVuSans-Oblique-101"/>
     <path d="M 44.578125 46.390625 
Q 43.21875 47.125 41.453125 47.515625 
Q 39.703125 47.90625 37.703125 47.90625 
Q 30.515625 47.90625 25.140625 42.453125 
Q 19.78125 37.015625 18.015625 27.875 
L 12.5 0 
L 3.515625 0 
L 14.203125 54.6875 
L 23.1875 54.6875 
L 21.484375 46.1875 
Q 25.046875 50.921875 30 53.453125 
Q 34.96875 56 40.578125 56 
Q 42.046875 56 43.453125 55.828125 
Q 44.875 55.671875 46.296875 55.28125 
z
" id="DejaVuSans-Oblique-114"/>
     <path d="M 8.203125 72.90625 
L 55.078125 72.90625 
L 55.078125 68.703125 
L 28.609375 0 
L 18.3125 0 
L 43.21875 64.59375 
L 8.203125 64.59375 
z
" id="DejaVuSans-55"/>
     <path d="M 41.796875 8.203125 
Q 38.1875 3.46875 33.25 1.015625 
Q 28.328125 -1.421875 22.3125 -1.421875 
Q 14.109375 -1.421875 9.34375 4.171875 
Q 4.59375 9.765625 4.59375 19.484375 
Q 4.59375 27.59375 7.46875 34.9375 
Q 10.359375 42.28125 15.828125 48.09375 
Q 19.4375 51.953125 23.96875 53.96875 
Q 28.515625 56 33.5 56 
Q 38.765625 56 42.796875 53.453125 
Q 46.828125 50.921875 49.03125 46.1875 
L 54.890625 75.984375 
L 63.921875 75.984375 
L 49.125 0 
L 40.09375 0 
z
M 13.921875 21.09375 
Q 13.921875 14.015625 17.109375 10.0625 
Q 20.3125 6.109375 25.984375 6.109375 
Q 30.171875 6.109375 33.765625 8.125 
Q 37.359375 10.15625 40.09375 14.109375 
Q 42.96875 18.21875 44.625 23.578125 
Q 46.296875 28.953125 46.296875 34.1875 
Q 46.296875 40.96875 43.09375 44.765625 
Q 39.890625 48.578125 34.28125 48.578125 
Q 30.03125 48.578125 26.359375 46.578125 
Q 22.703125 44.578125 20.125 40.828125 
Q 17.28125 36.765625 15.59375 31.390625 
Q 13.921875 26.03125 13.921875 21.09375 
z
" id="DejaVuSans-Oblique-100"/>
    </defs>
    <g transform="translate(251.5068 24.8988)scale(0.24 -0.24)">
     <use transform="translate(0 0.765625)" xlink:href="#DejaVuSans-Oblique-981"/>
     <use transform="translate(85.449219 0.765625)" xlink:href="#DejaVuSans-61"/>
     <use transform="translate(188.720703 0.765625)" xlink:href="#DejaVuSans-48"/>
     <use transform="translate(252.34375 0.765625)" xlink:href="#DejaVuSans-46"/>
     <use transform="translate(284.130859 0.765625)" xlink:href="#DejaVuSans-54"/>
     <use transform="translate(347.753906 0.765625)" xlink:href="#DejaVuSans-53"/>
     <use transform="translate(411.376953 0.765625)" xlink:href="#DejaVuSans-44"/>
     <use transform="translate(462.646484 0.765625)" xlink:href="#DejaVuSans-Oblique-108"/>
     <use transform="translate(490.429688 -15.640625)scale(0.7)" xlink:href="#DejaVuSans-Oblique-112"/>
     <use transform="translate(537.597656 0.765625)" xlink:href="#DejaVuSans-47"/>
     <use transform="translate(571.289062 0.765625)" xlink:href="#DejaVuSans-Oblique-963"/>
     <use transform="translate(654.150391 0.765625)" xlink:href="#DejaVuSans-61"/>
     <use transform="translate(757.421875 0.765625)" xlink:href="#DejaVuSans-49"/>
     <use transform="translate(821.044922 0.765625)" xlink:href="#DejaVuSans-48"/>
     <use transform="translate(884.667969 0.765625)" xlink:href="#DejaVuSans-48"/>
     <use transform="translate(948.291016 0.765625)" xlink:href="#DejaVuSans-32"/>
     <use transform="translate(980.078125 0.765625)" xlink:href="#DejaVuSans-40"/>
     <use transform="translate(1019.091797 0.765625)" xlink:href="#DejaVuSans-Oblique-78"/>
     <use transform="translate(1093.896484 -15.640625)scale(0.7)" xlink:href="#DejaVuSans-Oblique-105"/>
     <use transform="translate(1113.344727 -15.640625)scale(0.7)" xlink:href="#DejaVuSans-Oblique-116"/>
     <use transform="translate(1140.791016 -15.640625)scale(0.7)" xlink:href="#DejaVuSans-Oblique-101"/>
     <use transform="translate(1183.857422 -15.640625)scale(0.7)" xlink:href="#DejaVuSans-Oblique-114"/>
     <use transform="translate(1234.853516 0.765625)" xlink:href="#DejaVuSans-61"/>
     <use transform="translate(1338.125 0.765625)" xlink:href="#DejaVuSans-49"/>
     <use transform="translate(1401.748047 0.765625)" xlink:href="#DejaVuSans-48"/>
     <use transform="translate(1466.328125 39.046875)scale(0.7)" xlink:href="#DejaVuSans-55"/>
     <use transform="translate(1513.598633 0.765625)" xlink:href="#DejaVuSans-44"/>
     <use transform="translate(1564.868164 0.765625)" xlink:href="#DejaVuSans-Oblique-100"/>
     <use transform="translate(1628.344727 0.765625)" xlink:href="#DejaVuSans-Oblique-116"/>
     <use transform="translate(1687.036133 0.765625)" xlink:href="#DejaVuSans-61"/>
     <use transform="translate(1790.307617 0.765625)" xlink:href="#DejaVuSans-49"/>
     <use transform="translate(1853.930664 0.765625)" xlink:href="#DejaVuSans-48"/>
     <use transform="translate(1918.510742 39.046875)scale(0.7)" xlink:href="#DejaVuSans-8722"/>
     <use transform="translate(1977.163086 39.046875)scale(0.7)" xlink:href="#DejaVuSans-51"/>
     <use transform="translate(2024.433594 0.765625)" xlink:href="#DejaVuSans-41"/>
    </g>
   </g>
   <g id="legend_1">
    <g id="patch_7">
     <path d="M 91.2144 165.23505 
L 183.9744 165.23505 
Q 186.3744 165.23505 186.3744 162.83505 
L 186.3744 40.7388 
Q 186.3744 38.3388 183.9744 38.3388 
L 91.2144 38.3388 
Q 88.8144 38.3388 88.8144 40.7388 
L 88.8144 162.83505 
Q 88.8144 165.23505 91.2144 165.23505 
z
" style="fill:#ffffff;opacity:0.8;stroke:#cccccc;stroke-linejoin:miter;"/>
    </g>
    <g id="line2d_123">
     <path d="M 93.6144 48.056925 
L 117.6144 48.056925 
" style="fill:none;stroke:#0000ff;stroke-linecap:square;stroke-width:1.5;"/>
    </g>
    <g id="line2d_124"/>
    <g id="text_17">
     <!-- $N = 10$ -->
     <g transform="translate(127.2144 52.256925)scale(0.12 -0.12)">
      <use transform="translate(0 0.78125)" xlink:href="#DejaVuSans-Oblique-78"/>
      <use transform="translate(94.287109 0.78125)" xlink:href="#DejaVuSans-61"/>
      <use transform="translate(197.558594 0.78125)" xlink:href="#DejaVuSans-49"/>
      <use transform="translate(261.181641 0.78125)" xlink:href="#DejaVuSans-48"/>
     </g>
    </g>
    <g id="line2d_125">
     <path d="M 93.6144 65.670675 
L 117.6144 65.670675 
" style="fill:none;stroke:#0080ff;stroke-linecap:square;stroke-width:1.5;"/>
    </g>
    <g id="line2d_126"/>
    <g id="text_18">
     <!-- $N = 20$ -->
     <g transform="translate(127.2144 69.870675)scale(0.12 -0.12)">
      <use transform="translate(0 0.78125)" xlink:href="#DejaVuSans-Oblique-78"/>
      <use transform="translate(94.287109 0.78125)" xlink:href="#DejaVuSans-61"/>
      <use transform="translate(197.558594 0.78125)" xlink:href="#DejaVuSans-50"/>
      <use transform="translate(261.181641 0.78125)" xlink:href="#DejaVuSans-48"/>
     </g>
    </g>
    <g id="line2d_127">
     <path d="M 93.6144 83.284425 
L 117.6144 83.284425 
" style="fill:none;stroke:#16ffe1;stroke-linecap:square;stroke-width:1.5;"/>
    </g>
    <g id="line2d_128"/>
    <g id="text_19">
     <!-- $N = 50$ -->
     <g transform="translate(127.2144 87.484425)scale(0.12 -0.12)">
      <use transform="translate(0 0.78125)" xlink:href="#DejaVuSans-Oblique-78"/>
      <use transform="translate(94.287109 0.78125)" xlink:href="#DejaVuSans-61"/>
      <use transform="translate(197.558594 0.78125)" xlink:href="#DejaVuSans-53"/>
      <use transform="translate(261.181641 0.78125)" xlink:href="#DejaVuSans-48"/>
     </g>
    </g>
    <g id="line2d_129">
     <path d="M 93.6144 100.898175 
L 117.6144 100.898175 
" style="fill:none;stroke:#7dff7a;stroke-linecap:square;stroke-width:1.5;"/>
    </g>
    <g id="line2d_130"/>
    <g id="text_20">
     <!-- $N = 100$ -->
     <g transform="translate(127.2144 105.098175)scale(0.12 -0.12)">
      <use transform="translate(0 0.78125)" xlink:href="#DejaVuSans-Oblique-78"/>
      <use transform="translate(94.287109 0.78125)" xlink:href="#DejaVuSans-61"/>
      <use transform="translate(197.558594 0.78125)" xlink:href="#DejaVuSans-49"/>
      <use transform="translate(261.181641 0.78125)" xlink:href="#DejaVuSans-48"/>
      <use transform="translate(324.804688 0.78125)" xlink:href="#DejaVuSans-48"/>
     </g>
    </g>
    <g id="line2d_131">
     <path d="M 93.6144 118.511925 
L 117.6144 118.511925 
" style="fill:none;stroke:#e4ff13;stroke-linecap:square;stroke-width:1.5;"/>
    </g>
    <g id="line2d_132"/>
    <g id="text_21">
     <!-- $N = 200$ -->
     <g transform="translate(127.2144 122.711925)scale(0.12 -0.12)">
      <use transform="translate(0 0.78125)" xlink:href="#DejaVuSans-Oblique-78"/>
      <use transform="translate(94.287109 0.78125)" xlink:href="#DejaVuSans-61"/>
      <use transform="translate(197.558594 0.78125)" xlink:href="#DejaVuSans-50"/>
      <use transform="translate(261.181641 0.78125)" xlink:href="#DejaVuSans-48"/>
      <use transform="translate(324.804688 0.78125)" xlink:href="#DejaVuSans-48"/>
     </g>
    </g>
    <g id="line2d_133">
     <path d="M 93.6144 136.125675 
L 117.6144 136.125675 
" style="fill:none;stroke:#ff9400;stroke-linecap:square;stroke-width:1.5;"/>
    </g>
    <g id="line2d_134"/>
    <g id="text_22">
     <!-- $N = 500$ -->
     <g transform="translate(127.2144 140.325675)scale(0.12 -0.12)">
      <use transform="translate(0 0.78125)" xlink:href="#DejaVuSans-Oblique-78"/>
      <use transform="translate(94.287109 0.78125)" xlink:href="#DejaVuSans-61"/>
      <use transform="translate(197.558594 0.78125)" xlink:href="#DejaVuSans-53"/>
      <use transform="translate(261.181641 0.78125)" xlink:href="#DejaVuSans-48"/>
      <use transform="translate(324.804688 0.78125)" xlink:href="#DejaVuSans-48"/>
     </g>
    </g>
    <g id="line2d_135">
     <path d="M 93.6144 153.739425 
L 117.6144 153.739425 
" style="fill:none;stroke:#ff1e00;stroke-linecap:square;stroke-width:1.5;"/>
    </g>
    <g id="line2d_136"/>
    <g id="text_23">
     <!-- $N = 1000$ -->
     <g transform="translate(127.2144 157.939425)scale(0.12 -0.12)">
      <use transform="translate(0 0.78125)" xlink:href="#DejaVuSans-Oblique-78"/>
      <use transform="translate(94.287109 0.78125)" xlink:href="#DejaVuSans-61"/>
      <use transform="translate(197.558594 0.78125)" xlink:href="#DejaVuSans-49"/>
      <use transform="translate(261.181641 0.78125)" xlink:href="#DejaVuSans-48"/>
      <use transform="translate(324.804688 0.78125)" xlink:href="#DejaVuSans-48"/>
      <use transform="translate(388.427734 0.78125)" xlink:href="#DejaVuSans-48"/>
     </g>
    </g>
   </g>
  </g>
 </g>
 <defs>
  <clipPath id="pce8694d42d">
   <rect height="407.9664" width="832.7448" x="82.8144" y="32.3388"/>
  </clipPath>
 </defs>
</svg>
