<?xml version="1.0" encoding="utf-8" standalone="no"?>
<!DOCTYPE svg PUBLIC "-//W3C//DTD SVG 1.1//EN"
  "http://www.w3.org/Graphics/SVG/1.1/DTD/svg11.dtd">
<!-- Created with matplotlib (https://matplotlib.org/) -->
<svg height="497.52pt" version="1.1" viewBox="0 0 920.16 497.52" width="920.16pt" xmlns="http://www.w3.org/2000/svg" xmlns:xlink="http://www.w3.org/1999/xlink">
 <defs>
  <style type="text/css">
*{stroke-linecap:butt;stroke-linejoin:round;}
  </style>
 </defs>
 <g id="figure_1">
  <g id="patch_1">
   <path d="M 0 497.52 
L 920.16 497.52 
L 920.16 0 
L 0 0 
z
" style="fill:#ffffff;"/>
  </g>
  <g id="axes_1">
   <g id="patch_2">
    <path d="M 87.4152 440.3052 
L 915.5592 440.3052 
L 915.5592 32.3388 
L 87.4152 32.3388 
z
" style="fill:#ffffff;"/>
   </g>
   <g id="matplotlib.axis_1">
    <g id="xtick_1">
     <g id="line2d_1">
      <defs>
       <path d="M 0 0 
L 0 3.5 
" id="m51d7470913" style="stroke:#000000;stroke-width:0.8;"/>
      </defs>
      <g>
       <use style="stroke:#000000;stroke-width:0.8;" x="214.708851" xlink:href="#m51d7470913" y="440.3052"/>
      </g>
     </g>
     <g id="text_1">
      <!-- $\mathdefault{10^{-4}}$ -->
      <defs>
       <path d="M 12.40625 8.296875 
L 28.515625 8.296875 
L 28.515625 63.921875 
L 10.984375 60.40625 
L 10.984375 69.390625 
L 28.421875 72.90625 
L 38.28125 72.90625 
L 38.28125 8.296875 
L 54.390625 8.296875 
L 54.390625 0 
L 12.40625 0 
z
" id="DejaVuSans-49"/>
       <path d="M 31.78125 66.40625 
Q 24.171875 66.40625 20.328125 58.90625 
Q 16.5 51.421875 16.5 36.375 
Q 16.5 21.390625 20.328125 13.890625 
Q 24.171875 6.390625 31.78125 6.390625 
Q 39.453125 6.390625 43.28125 13.890625 
Q 47.125 21.390625 47.125 36.375 
Q 47.125 51.421875 43.28125 58.90625 
Q 39.453125 66.40625 31.78125 66.40625 
z
M 31.78125 74.21875 
Q 44.046875 74.21875 50.515625 64.515625 
Q 56.984375 54.828125 56.984375 36.375 
Q 56.984375 17.96875 50.515625 8.265625 
Q 44.046875 -1.421875 31.78125 -1.421875 
Q 19.53125 -1.421875 13.0625 8.265625 
Q 6.59375 17.96875 6.59375 36.375 
Q 6.59375 54.828125 13.0625 64.515625 
Q 19.53125 74.21875 31.78125 74.21875 
z
" id="DejaVuSans-48"/>
       <path d="M 10.59375 35.5 
L 73.1875 35.5 
L 73.1875 27.203125 
L 10.59375 27.203125 
z
" id="DejaVuSans-8722"/>
       <path d="M 37.796875 64.3125 
L 12.890625 25.390625 
L 37.796875 25.390625 
z
M 35.203125 72.90625 
L 47.609375 72.90625 
L 47.609375 25.390625 
L 58.015625 25.390625 
L 58.015625 17.1875 
L 47.609375 17.1875 
L 47.609375 0 
L 37.796875 0 
L 37.796875 17.1875 
L 4.890625 17.1875 
L 4.890625 26.703125 
z
" id="DejaVuSans-52"/>
      </defs>
      <g transform="translate(191.208851 462.502075)scale(0.2 -0.2)">
       <use transform="translate(0 0.684375)" xlink:href="#DejaVuSans-49"/>
       <use transform="translate(63.623047 0.684375)" xlink:href="#DejaVuSans-48"/>
       <use transform="translate(128.203125 38.965625)scale(0.7)" xlink:href="#DejaVuSans-8722"/>
       <use transform="translate(186.855469 38.965625)scale(0.7)" xlink:href="#DejaVuSans-52"/>
      </g>
     </g>
    </g>
    <g id="xtick_2">
     <g id="line2d_2">
      <g>
       <use style="stroke:#000000;stroke-width:0.8;" x="394.010334" xlink:href="#m51d7470913" y="440.3052"/>
      </g>
     </g>
     <g id="text_2">
      <!-- $\mathdefault{10^{-2}}$ -->
      <defs>
       <path d="M 19.1875 8.296875 
L 53.609375 8.296875 
L 53.609375 0 
L 7.328125 0 
L 7.328125 8.296875 
Q 12.9375 14.109375 22.625 23.890625 
Q 32.328125 33.6875 34.8125 36.53125 
Q 39.546875 41.84375 41.421875 45.53125 
Q 43.3125 49.21875 43.3125 52.78125 
Q 43.3125 58.59375 39.234375 62.25 
Q 35.15625 65.921875 28.609375 65.921875 
Q 23.96875 65.921875 18.8125 64.3125 
Q 13.671875 62.703125 7.8125 59.421875 
L 7.8125 69.390625 
Q 13.765625 71.78125 18.9375 73 
Q 24.125 74.21875 28.421875 74.21875 
Q 39.75 74.21875 46.484375 68.546875 
Q 53.21875 62.890625 53.21875 53.421875 
Q 53.21875 48.921875 51.53125 44.890625 
Q 49.859375 40.875 45.40625 35.40625 
Q 44.1875 33.984375 37.640625 27.21875 
Q 31.109375 20.453125 19.1875 8.296875 
z
" id="DejaVuSans-50"/>
      </defs>
      <g transform="translate(370.510334 462.502075)scale(0.2 -0.2)">
       <use transform="translate(0 0.765625)" xlink:href="#DejaVuSans-49"/>
       <use transform="translate(63.623047 0.765625)" xlink:href="#DejaVuSans-48"/>
       <use transform="translate(128.203125 39.046875)scale(0.7)" xlink:href="#DejaVuSans-8722"/>
       <use transform="translate(186.855469 39.046875)scale(0.7)" xlink:href="#DejaVuSans-50"/>
      </g>
     </g>
    </g>
    <g id="xtick_3">
     <g id="line2d_3">
      <g>
       <use style="stroke:#000000;stroke-width:0.8;" x="573.311817" xlink:href="#m51d7470913" y="440.3052"/>
      </g>
     </g>
     <g id="text_3">
      <!-- $\mathdefault{10^{0}}$ -->
      <g transform="translate(555.711817 462.502075)scale(0.2 -0.2)">
       <use transform="translate(0 0.765625)" xlink:href="#DejaVuSans-49"/>
       <use transform="translate(63.623047 0.765625)" xlink:href="#DejaVuSans-48"/>
       <use transform="translate(128.203125 39.046875)scale(0.7)" xlink:href="#DejaVuSans-48"/>
      </g>
     </g>
    </g>
    <g id="xtick_4">
     <g id="line2d_4">
      <g>
       <use style="stroke:#000000;stroke-width:0.8;" x="752.6133" xlink:href="#m51d7470913" y="440.3052"/>
      </g>
     </g>
     <g id="text_4">
      <!-- $\mathdefault{10^{2}}$ -->
      <g transform="translate(735.0133 462.502075)scale(0.2 -0.2)">
       <use transform="translate(0 0.765625)" xlink:href="#DejaVuSans-49"/>
       <use transform="translate(63.623047 0.765625)" xlink:href="#DejaVuSans-48"/>
       <use transform="translate(128.203125 39.046875)scale(0.7)" xlink:href="#DejaVuSans-50"/>
      </g>
     </g>
    </g>
    <g id="text_5">
     <!-- $\tau/(l_p/\sigma)$ -->
     <defs>
      <path d="M 32.859375 9.96875 
Q 34.1875 7.625 39.453125 7.625 
L 43.75 7.625 
L 42.28125 0 
L 36.921875 0 
Q 28.125 0 25 4.6875 
Q 21.921875 9.46875 23.96875 19.828125 
L 29 45.703125 
L 8.453125 45.703125 
L 10.203125 54.6875 
L 60.640625 54.6875 
L 58.890625 45.703125 
L 38.1875 45.703125 
L 33.015625 19.28125 
Q 31.640625 12.203125 32.859375 9.96875 
z
" id="DejaVuSans-Oblique-964"/>
      <path d="M 25.390625 72.90625 
L 33.6875 72.90625 
L 8.296875 -9.28125 
L 0 -9.28125 
z
" id="DejaVuSans-47"/>
      <path d="M 31 75.875 
Q 24.46875 64.65625 21.28125 53.65625 
Q 18.109375 42.671875 18.109375 31.390625 
Q 18.109375 20.125 21.3125 9.0625 
Q 24.515625 -2 31 -13.1875 
L 23.1875 -13.1875 
Q 15.875 -1.703125 12.234375 9.375 
Q 8.59375 20.453125 8.59375 31.390625 
Q 8.59375 42.28125 12.203125 53.3125 
Q 15.828125 64.359375 23.1875 75.875 
z
" id="DejaVuSans-40"/>
      <path d="M 18.3125 75.984375 
L 27.296875 75.984375 
L 12.5 0 
L 3.515625 0 
z
" id="DejaVuSans-Oblique-108"/>
      <path d="M 49.609375 33.6875 
Q 49.609375 40.875 46.484375 44.671875 
Q 43.359375 48.484375 37.5 48.484375 
Q 33.5 48.484375 29.859375 46.4375 
Q 26.21875 44.390625 23.390625 40.484375 
Q 20.609375 36.625 18.9375 31.15625 
Q 17.28125 25.6875 17.28125 20.3125 
Q 17.28125 13.484375 20.40625 9.796875 
Q 23.53125 6.109375 29.296875 6.109375 
Q 33.546875 6.109375 37.1875 8.109375 
Q 40.828125 10.109375 43.40625 13.921875 
Q 46.1875 17.921875 47.890625 23.34375 
Q 49.609375 28.765625 49.609375 33.6875 
z
M 21.78125 46.390625 
Q 25.390625 51.125 30.296875 53.5625 
Q 35.203125 56 41.21875 56 
Q 49.609375 56 54.25 50.5 
Q 58.890625 45.015625 58.890625 35.109375 
Q 58.890625 27 56 19.65625 
Q 53.125 12.3125 47.703125 6.5 
Q 44.09375 2.640625 39.546875 0.609375 
Q 35.015625 -1.421875 29.984375 -1.421875 
Q 24.171875 -1.421875 20.21875 1 
Q 16.265625 3.421875 14.3125 8.203125 
L 8.6875 -20.796875 
L -0.296875 -20.796875 
L 14.40625 54.6875 
L 23.390625 54.6875 
z
" id="DejaVuSans-Oblique-112"/>
      <path d="M 34.671875 47.5625 
Q 27.25 47.5625 22.21875 42.1875 
Q 16.890625 36.578125 15.140625 27.296875 
Q 13.1875 17.484375 16.3125 11.8125 
Q 19.390625 6.203125 26.65625 6.203125 
Q 33.84375 6.203125 39.109375 11.859375 
Q 44.4375 17.53125 46.34375 27.296875 
Q 48.046875 36.234375 45.015625 42.1875 
Q 42.1875 47.5625 34.671875 47.5625 
z
M 36.078125 54.734375 
L 65.921875 54.6875 
L 64.15625 45.703125 
L 54.109375 45.703125 
Q 57.90625 38.09375 55.859375 27.296875 
Q 53.21875 13.875 45.0625 6.25 
Q 36.859375 -1.421875 25.140625 -1.421875 
Q 13.375 -1.421875 8.203125 6.25 
Q 3.03125 13.875 5.671875 27.296875 
Q 8.25 40.765625 16.40625 48.390625 
Q 23.1875 54.734375 36.078125 54.734375 
z
" id="DejaVuSans-Oblique-963"/>
      <path d="M 8.015625 75.875 
L 15.828125 75.875 
Q 23.140625 64.359375 26.78125 53.3125 
Q 30.421875 42.28125 30.421875 31.390625 
Q 30.421875 20.453125 26.78125 9.375 
Q 23.140625 -1.703125 15.828125 -13.1875 
L 8.015625 -13.1875 
Q 14.5 -2 17.703125 9.0625 
Q 20.90625 20.125 20.90625 31.390625 
Q 20.90625 42.671875 17.703125 53.65625 
Q 14.5 64.65625 8.015625 75.875 
z
" id="DejaVuSans-41"/>
     </defs>
     <g transform="translate(467.0872 485.86145)scale(0.2 -0.2)">
      <use transform="translate(0 0.015625)" xlink:href="#DejaVuSans-Oblique-964"/>
      <use transform="translate(60.205078 0.015625)" xlink:href="#DejaVuSans-47"/>
      <use transform="translate(93.896484 0.015625)" xlink:href="#DejaVuSans-40"/>
      <use transform="translate(132.910156 0.015625)" xlink:href="#DejaVuSans-Oblique-108"/>
      <use transform="translate(160.693359 -16.390625)scale(0.7)" xlink:href="#DejaVuSans-Oblique-112"/>
      <use transform="translate(207.861328 0.015625)" xlink:href="#DejaVuSans-47"/>
      <use transform="translate(241.552734 0.015625)" xlink:href="#DejaVuSans-Oblique-963"/>
      <use transform="translate(304.931641 0.015625)" xlink:href="#DejaVuSans-41"/>
     </g>
    </g>
   </g>
   <g id="matplotlib.axis_2">
    <g id="ytick_1">
     <g id="line2d_5">
      <defs>
       <path d="M 0 0 
L -3.5 0 
" id="mcad08c10b7" style="stroke:#000000;stroke-width:0.8;"/>
      </defs>
      <g>
       <use style="stroke:#000000;stroke-width:0.8;" x="87.4152" xlink:href="#mcad08c10b7" y="399.602234"/>
      </g>
     </g>
     <g id="text_6">
      <!-- $\mathdefault{10^{-5}}$ -->
      <defs>
       <path d="M 10.796875 72.90625 
L 49.515625 72.90625 
L 49.515625 64.59375 
L 19.828125 64.59375 
L 19.828125 46.734375 
Q 21.96875 47.46875 24.109375 47.828125 
Q 26.265625 48.1875 28.421875 48.1875 
Q 40.625 48.1875 47.75 41.5 
Q 54.890625 34.8125 54.890625 23.390625 
Q 54.890625 11.625 47.5625 5.09375 
Q 40.234375 -1.421875 26.90625 -1.421875 
Q 22.3125 -1.421875 17.546875 -0.640625 
Q 12.796875 0.140625 7.71875 1.703125 
L 7.71875 11.625 
Q 12.109375 9.234375 16.796875 8.0625 
Q 21.484375 6.890625 26.703125 6.890625 
Q 35.15625 6.890625 40.078125 11.328125 
Q 45.015625 15.765625 45.015625 23.390625 
Q 45.015625 31 40.078125 35.4375 
Q 35.15625 39.890625 26.703125 39.890625 
Q 22.75 39.890625 18.8125 39.015625 
Q 14.890625 38.140625 10.796875 36.28125 
z
" id="DejaVuSans-53"/>
      </defs>
      <g transform="translate(33.4152 407.200672)scale(0.2 -0.2)">
       <use transform="translate(0 0.684375)" xlink:href="#DejaVuSans-49"/>
       <use transform="translate(63.623047 0.684375)" xlink:href="#DejaVuSans-48"/>
       <use transform="translate(128.203125 38.965625)scale(0.7)" xlink:href="#DejaVuSans-8722"/>
       <use transform="translate(186.855469 38.965625)scale(0.7)" xlink:href="#DejaVuSans-53"/>
      </g>
     </g>
    </g>
    <g id="ytick_2">
     <g id="line2d_6">
      <g>
       <use style="stroke:#000000;stroke-width:0.8;" x="87.4152" xlink:href="#mcad08c10b7" y="344.991533"/>
      </g>
     </g>
     <g id="text_7">
      <!-- $\mathdefault{10^{-4}}$ -->
      <g transform="translate(33.4152 352.589971)scale(0.2 -0.2)">
       <use transform="translate(0 0.684375)" xlink:href="#DejaVuSans-49"/>
       <use transform="translate(63.623047 0.684375)" xlink:href="#DejaVuSans-48"/>
       <use transform="translate(128.203125 38.965625)scale(0.7)" xlink:href="#DejaVuSans-8722"/>
       <use transform="translate(186.855469 38.965625)scale(0.7)" xlink:href="#DejaVuSans-52"/>
      </g>
     </g>
    </g>
    <g id="ytick_3">
     <g id="line2d_7">
      <g>
       <use style="stroke:#000000;stroke-width:0.8;" x="87.4152" xlink:href="#mcad08c10b7" y="290.380832"/>
      </g>
     </g>
     <g id="text_8">
      <!-- $\mathdefault{10^{-3}}$ -->
      <defs>
       <path d="M 40.578125 39.3125 
Q 47.65625 37.796875 51.625 33 
Q 55.609375 28.21875 55.609375 21.1875 
Q 55.609375 10.40625 48.1875 4.484375 
Q 40.765625 -1.421875 27.09375 -1.421875 
Q 22.515625 -1.421875 17.65625 -0.515625 
Q 12.796875 0.390625 7.625 2.203125 
L 7.625 11.71875 
Q 11.71875 9.328125 16.59375 8.109375 
Q 21.484375 6.890625 26.8125 6.890625 
Q 36.078125 6.890625 40.9375 10.546875 
Q 45.796875 14.203125 45.796875 21.1875 
Q 45.796875 27.640625 41.28125 31.265625 
Q 36.765625 34.90625 28.71875 34.90625 
L 20.21875 34.90625 
L 20.21875 43.015625 
L 29.109375 43.015625 
Q 36.375 43.015625 40.234375 45.921875 
Q 44.09375 48.828125 44.09375 54.296875 
Q 44.09375 59.90625 40.109375 62.90625 
Q 36.140625 65.921875 28.71875 65.921875 
Q 24.65625 65.921875 20.015625 65.03125 
Q 15.375 64.15625 9.8125 62.3125 
L 9.8125 71.09375 
Q 15.4375 72.65625 20.34375 73.4375 
Q 25.25 74.21875 29.59375 74.21875 
Q 40.828125 74.21875 47.359375 69.109375 
Q 53.90625 64.015625 53.90625 55.328125 
Q 53.90625 49.265625 50.4375 45.09375 
Q 46.96875 40.921875 40.578125 39.3125 
z
" id="DejaVuSans-51"/>
      </defs>
      <g transform="translate(33.4152 297.97927)scale(0.2 -0.2)">
       <use transform="translate(0 0.765625)" xlink:href="#DejaVuSans-49"/>
       <use transform="translate(63.623047 0.765625)" xlink:href="#DejaVuSans-48"/>
       <use transform="translate(128.203125 39.046875)scale(0.7)" xlink:href="#DejaVuSans-8722"/>
       <use transform="translate(186.855469 39.046875)scale(0.7)" xlink:href="#DejaVuSans-51"/>
      </g>
     </g>
    </g>
    <g id="ytick_4">
     <g id="line2d_8">
      <g>
       <use style="stroke:#000000;stroke-width:0.8;" x="87.4152" xlink:href="#mcad08c10b7" y="235.770131"/>
      </g>
     </g>
     <g id="text_9">
      <!-- $\mathdefault{10^{-2}}$ -->
      <g transform="translate(33.4152 243.368568)scale(0.2 -0.2)">
       <use transform="translate(0 0.765625)" xlink:href="#DejaVuSans-49"/>
       <use transform="translate(63.623047 0.765625)" xlink:href="#DejaVuSans-48"/>
       <use transform="translate(128.203125 39.046875)scale(0.7)" xlink:href="#DejaVuSans-8722"/>
       <use transform="translate(186.855469 39.046875)scale(0.7)" xlink:href="#DejaVuSans-50"/>
      </g>
     </g>
    </g>
    <g id="ytick_5">
     <g id="line2d_9">
      <g>
       <use style="stroke:#000000;stroke-width:0.8;" x="87.4152" xlink:href="#mcad08c10b7" y="181.15943"/>
      </g>
     </g>
     <g id="text_10">
      <!-- $\mathdefault{10^{-1}}$ -->
      <g transform="translate(33.4152 188.757867)scale(0.2 -0.2)">
       <use transform="translate(0 0.684375)" xlink:href="#DejaVuSans-49"/>
       <use transform="translate(63.623047 0.684375)" xlink:href="#DejaVuSans-48"/>
       <use transform="translate(128.203125 38.965625)scale(0.7)" xlink:href="#DejaVuSans-8722"/>
       <use transform="translate(186.855469 38.965625)scale(0.7)" xlink:href="#DejaVuSans-49"/>
      </g>
     </g>
    </g>
    <g id="ytick_6">
     <g id="line2d_10">
      <g>
       <use style="stroke:#000000;stroke-width:0.8;" x="87.4152" xlink:href="#mcad08c10b7" y="126.548729"/>
      </g>
     </g>
     <g id="text_11">
      <!-- $\mathdefault{10^{0}}$ -->
      <g transform="translate(45.2152 134.147166)scale(0.2 -0.2)">
       <use transform="translate(0 0.765625)" xlink:href="#DejaVuSans-49"/>
       <use transform="translate(63.623047 0.765625)" xlink:href="#DejaVuSans-48"/>
       <use transform="translate(128.203125 39.046875)scale(0.7)" xlink:href="#DejaVuSans-48"/>
      </g>
     </g>
    </g>
    <g id="ytick_7">
     <g id="line2d_11">
      <g>
       <use style="stroke:#000000;stroke-width:0.8;" x="87.4152" xlink:href="#mcad08c10b7" y="71.938027"/>
      </g>
     </g>
     <g id="text_12">
      <!-- $\mathdefault{10^{1}}$ -->
      <g transform="translate(45.2152 79.536465)scale(0.2 -0.2)">
       <use transform="translate(0 0.684375)" xlink:href="#DejaVuSans-49"/>
       <use transform="translate(63.623047 0.684375)" xlink:href="#DejaVuSans-48"/>
       <use transform="translate(128.203125 38.965625)scale(0.7)" xlink:href="#DejaVuSans-49"/>
      </g>
     </g>
    </g>
    <g id="ytick_8">
     <g id="line2d_12">
      <defs>
       <path d="M 0 0 
L -2 0 
" id="mdde4b1c994" style="stroke:#000000;stroke-width:0.6;"/>
      </defs>
      <g>
       <use style="stroke:#000000;stroke-width:0.6;" x="87.4152" xlink:href="#mdde4b1c994" y="437.773477"/>
      </g>
     </g>
    </g>
    <g id="ytick_9">
     <g id="line2d_13">
      <g>
       <use style="stroke:#000000;stroke-width:0.6;" x="87.4152" xlink:href="#mdde4b1c994" y="428.157009"/>
      </g>
     </g>
    </g>
    <g id="ytick_10">
     <g id="line2d_14">
      <g>
       <use style="stroke:#000000;stroke-width:0.6;" x="87.4152" xlink:href="#mdde4b1c994" y="421.334017"/>
      </g>
     </g>
    </g>
    <g id="ytick_11">
     <g id="line2d_15">
      <g>
       <use style="stroke:#000000;stroke-width:0.6;" x="87.4152" xlink:href="#mdde4b1c994" y="416.041694"/>
      </g>
     </g>
    </g>
    <g id="ytick_12">
     <g id="line2d_16">
      <g>
       <use style="stroke:#000000;stroke-width:0.6;" x="87.4152" xlink:href="#mdde4b1c994" y="411.71755"/>
      </g>
     </g>
    </g>
    <g id="ytick_13">
     <g id="line2d_17">
      <g>
       <use style="stroke:#000000;stroke-width:0.6;" x="87.4152" xlink:href="#mdde4b1c994" y="408.061539"/>
      </g>
     </g>
    </g>
    <g id="ytick_14">
     <g id="line2d_18">
      <g>
       <use style="stroke:#000000;stroke-width:0.6;" x="87.4152" xlink:href="#mdde4b1c994" y="404.894558"/>
      </g>
     </g>
    </g>
    <g id="ytick_15">
     <g id="line2d_19">
      <g>
       <use style="stroke:#000000;stroke-width:0.6;" x="87.4152" xlink:href="#mdde4b1c994" y="402.101083"/>
      </g>
     </g>
    </g>
    <g id="ytick_16">
     <g id="line2d_20">
      <g>
       <use style="stroke:#000000;stroke-width:0.6;" x="87.4152" xlink:href="#mdde4b1c994" y="383.162775"/>
      </g>
     </g>
    </g>
    <g id="ytick_17">
     <g id="line2d_21">
      <g>
       <use style="stroke:#000000;stroke-width:0.6;" x="87.4152" xlink:href="#mdde4b1c994" y="373.546308"/>
      </g>
     </g>
    </g>
    <g id="ytick_18">
     <g id="line2d_22">
      <g>
       <use style="stroke:#000000;stroke-width:0.6;" x="87.4152" xlink:href="#mdde4b1c994" y="366.723316"/>
      </g>
     </g>
    </g>
    <g id="ytick_19">
     <g id="line2d_23">
      <g>
       <use style="stroke:#000000;stroke-width:0.6;" x="87.4152" xlink:href="#mdde4b1c994" y="361.430992"/>
      </g>
     </g>
    </g>
    <g id="ytick_20">
     <g id="line2d_24">
      <g>
       <use style="stroke:#000000;stroke-width:0.6;" x="87.4152" xlink:href="#mdde4b1c994" y="357.106849"/>
      </g>
     </g>
    </g>
    <g id="ytick_21">
     <g id="line2d_25">
      <g>
       <use style="stroke:#000000;stroke-width:0.6;" x="87.4152" xlink:href="#mdde4b1c994" y="353.450838"/>
      </g>
     </g>
    </g>
    <g id="ytick_22">
     <g id="line2d_26">
      <g>
       <use style="stroke:#000000;stroke-width:0.6;" x="87.4152" xlink:href="#mdde4b1c994" y="350.283857"/>
      </g>
     </g>
    </g>
    <g id="ytick_23">
     <g id="line2d_27">
      <g>
       <use style="stroke:#000000;stroke-width:0.6;" x="87.4152" xlink:href="#mdde4b1c994" y="347.490382"/>
      </g>
     </g>
    </g>
    <g id="ytick_24">
     <g id="line2d_28">
      <g>
       <use style="stroke:#000000;stroke-width:0.6;" x="87.4152" xlink:href="#mdde4b1c994" y="328.552074"/>
      </g>
     </g>
    </g>
    <g id="ytick_25">
     <g id="line2d_29">
      <g>
       <use style="stroke:#000000;stroke-width:0.6;" x="87.4152" xlink:href="#mdde4b1c994" y="318.935607"/>
      </g>
     </g>
    </g>
    <g id="ytick_26">
     <g id="line2d_30">
      <g>
       <use style="stroke:#000000;stroke-width:0.6;" x="87.4152" xlink:href="#mdde4b1c994" y="312.112615"/>
      </g>
     </g>
    </g>
    <g id="ytick_27">
     <g id="line2d_31">
      <g>
       <use style="stroke:#000000;stroke-width:0.6;" x="87.4152" xlink:href="#mdde4b1c994" y="306.820291"/>
      </g>
     </g>
    </g>
    <g id="ytick_28">
     <g id="line2d_32">
      <g>
       <use style="stroke:#000000;stroke-width:0.6;" x="87.4152" xlink:href="#mdde4b1c994" y="302.496148"/>
      </g>
     </g>
    </g>
    <g id="ytick_29">
     <g id="line2d_33">
      <g>
       <use style="stroke:#000000;stroke-width:0.6;" x="87.4152" xlink:href="#mdde4b1c994" y="298.840137"/>
      </g>
     </g>
    </g>
    <g id="ytick_30">
     <g id="line2d_34">
      <g>
       <use style="stroke:#000000;stroke-width:0.6;" x="87.4152" xlink:href="#mdde4b1c994" y="295.673156"/>
      </g>
     </g>
    </g>
    <g id="ytick_31">
     <g id="line2d_35">
      <g>
       <use style="stroke:#000000;stroke-width:0.6;" x="87.4152" xlink:href="#mdde4b1c994" y="292.879681"/>
      </g>
     </g>
    </g>
    <g id="ytick_32">
     <g id="line2d_36">
      <g>
       <use style="stroke:#000000;stroke-width:0.6;" x="87.4152" xlink:href="#mdde4b1c994" y="273.941373"/>
      </g>
     </g>
    </g>
    <g id="ytick_33">
     <g id="line2d_37">
      <g>
       <use style="stroke:#000000;stroke-width:0.6;" x="87.4152" xlink:href="#mdde4b1c994" y="264.324906"/>
      </g>
     </g>
    </g>
    <g id="ytick_34">
     <g id="line2d_38">
      <g>
       <use style="stroke:#000000;stroke-width:0.6;" x="87.4152" xlink:href="#mdde4b1c994" y="257.501914"/>
      </g>
     </g>
    </g>
    <g id="ytick_35">
     <g id="line2d_39">
      <g>
       <use style="stroke:#000000;stroke-width:0.6;" x="87.4152" xlink:href="#mdde4b1c994" y="252.20959"/>
      </g>
     </g>
    </g>
    <g id="ytick_36">
     <g id="line2d_40">
      <g>
       <use style="stroke:#000000;stroke-width:0.6;" x="87.4152" xlink:href="#mdde4b1c994" y="247.885447"/>
      </g>
     </g>
    </g>
    <g id="ytick_37">
     <g id="line2d_41">
      <g>
       <use style="stroke:#000000;stroke-width:0.6;" x="87.4152" xlink:href="#mdde4b1c994" y="244.229436"/>
      </g>
     </g>
    </g>
    <g id="ytick_38">
     <g id="line2d_42">
      <g>
       <use style="stroke:#000000;stroke-width:0.6;" x="87.4152" xlink:href="#mdde4b1c994" y="241.062455"/>
      </g>
     </g>
    </g>
    <g id="ytick_39">
     <g id="line2d_43">
      <g>
       <use style="stroke:#000000;stroke-width:0.6;" x="87.4152" xlink:href="#mdde4b1c994" y="238.26898"/>
      </g>
     </g>
    </g>
    <g id="ytick_40">
     <g id="line2d_44">
      <g>
       <use style="stroke:#000000;stroke-width:0.6;" x="87.4152" xlink:href="#mdde4b1c994" y="219.330672"/>
      </g>
     </g>
    </g>
    <g id="ytick_41">
     <g id="line2d_45">
      <g>
       <use style="stroke:#000000;stroke-width:0.6;" x="87.4152" xlink:href="#mdde4b1c994" y="209.714205"/>
      </g>
     </g>
    </g>
    <g id="ytick_42">
     <g id="line2d_46">
      <g>
       <use style="stroke:#000000;stroke-width:0.6;" x="87.4152" xlink:href="#mdde4b1c994" y="202.891213"/>
      </g>
     </g>
    </g>
    <g id="ytick_43">
     <g id="line2d_47">
      <g>
       <use style="stroke:#000000;stroke-width:0.6;" x="87.4152" xlink:href="#mdde4b1c994" y="197.598889"/>
      </g>
     </g>
    </g>
    <g id="ytick_44">
     <g id="line2d_48">
      <g>
       <use style="stroke:#000000;stroke-width:0.6;" x="87.4152" xlink:href="#mdde4b1c994" y="193.274746"/>
      </g>
     </g>
    </g>
    <g id="ytick_45">
     <g id="line2d_49">
      <g>
       <use style="stroke:#000000;stroke-width:0.6;" x="87.4152" xlink:href="#mdde4b1c994" y="189.618734"/>
      </g>
     </g>
    </g>
    <g id="ytick_46">
     <g id="line2d_50">
      <g>
       <use style="stroke:#000000;stroke-width:0.6;" x="87.4152" xlink:href="#mdde4b1c994" y="186.451754"/>
      </g>
     </g>
    </g>
    <g id="ytick_47">
     <g id="line2d_51">
      <g>
       <use style="stroke:#000000;stroke-width:0.6;" x="87.4152" xlink:href="#mdde4b1c994" y="183.658278"/>
      </g>
     </g>
    </g>
    <g id="ytick_48">
     <g id="line2d_52">
      <g>
       <use style="stroke:#000000;stroke-width:0.6;" x="87.4152" xlink:href="#mdde4b1c994" y="164.719971"/>
      </g>
     </g>
    </g>
    <g id="ytick_49">
     <g id="line2d_53">
      <g>
       <use style="stroke:#000000;stroke-width:0.6;" x="87.4152" xlink:href="#mdde4b1c994" y="155.103504"/>
      </g>
     </g>
    </g>
    <g id="ytick_50">
     <g id="line2d_54">
      <g>
       <use style="stroke:#000000;stroke-width:0.6;" x="87.4152" xlink:href="#mdde4b1c994" y="148.280511"/>
      </g>
     </g>
    </g>
    <g id="ytick_51">
     <g id="line2d_55">
      <g>
       <use style="stroke:#000000;stroke-width:0.6;" x="87.4152" xlink:href="#mdde4b1c994" y="142.988188"/>
      </g>
     </g>
    </g>
    <g id="ytick_52">
     <g id="line2d_56">
      <g>
       <use style="stroke:#000000;stroke-width:0.6;" x="87.4152" xlink:href="#mdde4b1c994" y="138.664044"/>
      </g>
     </g>
    </g>
    <g id="ytick_53">
     <g id="line2d_57">
      <g>
       <use style="stroke:#000000;stroke-width:0.6;" x="87.4152" xlink:href="#mdde4b1c994" y="135.008033"/>
      </g>
     </g>
    </g>
    <g id="ytick_54">
     <g id="line2d_58">
      <g>
       <use style="stroke:#000000;stroke-width:0.6;" x="87.4152" xlink:href="#mdde4b1c994" y="131.841052"/>
      </g>
     </g>
    </g>
    <g id="ytick_55">
     <g id="line2d_59">
      <g>
       <use style="stroke:#000000;stroke-width:0.6;" x="87.4152" xlink:href="#mdde4b1c994" y="129.047577"/>
      </g>
     </g>
    </g>
    <g id="ytick_56">
     <g id="line2d_60">
      <g>
       <use style="stroke:#000000;stroke-width:0.6;" x="87.4152" xlink:href="#mdde4b1c994" y="110.109269"/>
      </g>
     </g>
    </g>
    <g id="ytick_57">
     <g id="line2d_61">
      <g>
       <use style="stroke:#000000;stroke-width:0.6;" x="87.4152" xlink:href="#mdde4b1c994" y="100.492802"/>
      </g>
     </g>
    </g>
    <g id="ytick_58">
     <g id="line2d_62">
      <g>
       <use style="stroke:#000000;stroke-width:0.6;" x="87.4152" xlink:href="#mdde4b1c994" y="93.66981"/>
      </g>
     </g>
    </g>
    <g id="ytick_59">
     <g id="line2d_63">
      <g>
       <use style="stroke:#000000;stroke-width:0.6;" x="87.4152" xlink:href="#mdde4b1c994" y="88.377487"/>
      </g>
     </g>
    </g>
    <g id="ytick_60">
     <g id="line2d_64">
      <g>
       <use style="stroke:#000000;stroke-width:0.6;" x="87.4152" xlink:href="#mdde4b1c994" y="84.053343"/>
      </g>
     </g>
    </g>
    <g id="ytick_61">
     <g id="line2d_65">
      <g>
       <use style="stroke:#000000;stroke-width:0.6;" x="87.4152" xlink:href="#mdde4b1c994" y="80.397332"/>
      </g>
     </g>
    </g>
    <g id="ytick_62">
     <g id="line2d_66">
      <g>
       <use style="stroke:#000000;stroke-width:0.6;" x="87.4152" xlink:href="#mdde4b1c994" y="77.230351"/>
      </g>
     </g>
    </g>
    <g id="ytick_63">
     <g id="line2d_67">
      <g>
       <use style="stroke:#000000;stroke-width:0.6;" x="87.4152" xlink:href="#mdde4b1c994" y="74.436876"/>
      </g>
     </g>
    </g>
    <g id="ytick_64">
     <g id="line2d_68">
      <g>
       <use style="stroke:#000000;stroke-width:0.6;" x="87.4152" xlink:href="#mdde4b1c994" y="55.498568"/>
      </g>
     </g>
    </g>
    <g id="ytick_65">
     <g id="line2d_69">
      <g>
       <use style="stroke:#000000;stroke-width:0.6;" x="87.4152" xlink:href="#mdde4b1c994" y="45.882101"/>
      </g>
     </g>
    </g>
    <g id="ytick_66">
     <g id="line2d_70">
      <g>
       <use style="stroke:#000000;stroke-width:0.6;" x="87.4152" xlink:href="#mdde4b1c994" y="39.059109"/>
      </g>
     </g>
    </g>
    <g id="ytick_67">
     <g id="line2d_71">
      <g>
       <use style="stroke:#000000;stroke-width:0.6;" x="87.4152" xlink:href="#mdde4b1c994" y="33.766785"/>
      </g>
     </g>
    </g>
    <g id="text_13">
     <!-- $\tau (l_p/\sigma) &lt;\delta w(t_0; \tau)^2&gt;$ -->
     <defs>
      <path d="M 73.1875 49.21875 
L 22.796875 31.296875 
L 73.1875 13.484375 
L 73.1875 4.59375 
L 10.59375 27.296875 
L 10.59375 35.40625 
L 73.1875 58.109375 
z
" id="DejaVuSans-60"/>
      <path d="M 54.25 63.328125 
Q 49.953125 66.75 38.28125 66.75 
Q 25.921875 66.75 24.8125 61.03125 
Q 23.921875 56.546875 36.375 54.203125 
Q 46.140625 52.390625 50.828125 46.921875 
Q 56.5 40.328125 53.859375 26.8125 
Q 51.3125 13.875 43.171875 6.25 
Q 34.96875 -1.421875 23.25 -1.421875 
Q 11.578125 -1.421875 6.34375 6.25 
Q 1.125 13.875 3.765625 27.296875 
Q 5.671875 37.25 13.921875 45.3125 
Q 17.140625 48.4375 21.140625 50.203125 
Q 14.265625 54.046875 15.625 60.9375 
Q 18.21875 74.21875 39.75 74.21875 
Q 50.53125 74.21875 55.71875 70.796875 
z
M 27.390625 47.75 
Q 23.828125 46.34375 20.40625 42.78125 
Q 15.140625 37.25 13.234375 27.296875 
Q 11.28125 17.390625 14.359375 11.8125 
Q 17.484375 6.203125 24.75 6.203125 
Q 31.9375 6.203125 37.203125 11.859375 
Q 42.53125 17.53125 44.34375 26.8125 
Q 46.1875 36.53125 42.671875 41.21875 
Q 38.921875 46.234375 32.859375 46.78125 
Q 29.78125 47.078125 27.390625 47.75 
z
" id="DejaVuSans-Oblique-948"/>
      <path d="M 8.5 54.6875 
L 17.390625 54.6875 
L 19.671875 10.6875 
L 40.09375 54.6875 
L 50.484375 54.6875 
L 53.515625 10.6875 
L 72.90625 54.6875 
L 81.890625 54.6875 
L 56.890625 0 
L 46.390625 0 
L 43.703125 45.3125 
L 22.796875 0 
L 12.203125 0 
z
" id="DejaVuSans-Oblique-119"/>
      <path d="M 42.28125 54.6875 
L 40.921875 47.703125 
L 23 47.703125 
L 17.1875 18.015625 
Q 16.890625 16.359375 16.75 15.234375 
Q 16.609375 14.109375 16.609375 13.484375 
Q 16.609375 10.359375 18.484375 8.9375 
Q 20.359375 7.515625 24.515625 7.515625 
L 33.59375 7.515625 
L 32.078125 0 
L 23.484375 0 
Q 15.484375 0 11.546875 3.125 
Q 7.625 6.25 7.625 12.59375 
Q 7.625 13.71875 7.765625 15.0625 
Q 7.90625 16.40625 8.203125 18.015625 
L 14.015625 47.703125 
L 6.390625 47.703125 
L 7.8125 54.6875 
L 15.28125 54.6875 
L 18.3125 70.21875 
L 27.296875 70.21875 
L 24.3125 54.6875 
z
" id="DejaVuSans-Oblique-116"/>
      <path d="M 11.71875 51.703125 
L 22.015625 51.703125 
L 22.015625 39.3125 
L 11.71875 39.3125 
z
M 11.71875 12.40625 
L 22.015625 12.40625 
L 22.015625 4 
L 14.015625 -11.625 
L 7.71875 -11.625 
L 11.71875 4 
z
" id="DejaVuSans-59"/>
      <path d="M 10.59375 49.21875 
L 10.59375 58.109375 
L 73.1875 35.40625 
L 73.1875 27.296875 
L 10.59375 4.59375 
L 10.59375 13.484375 
L 60.890625 31.296875 
z
" id="DejaVuSans-62"/>
     </defs>
     <g transform="translate(23.2152 338.822)rotate(-90)scale(0.2 -0.2)">
      <use transform="translate(0 0.765625)" xlink:href="#DejaVuSans-Oblique-964"/>
      <use transform="translate(60.205078 0.765625)" xlink:href="#DejaVuSans-40"/>
      <use transform="translate(99.21875 0.765625)" xlink:href="#DejaVuSans-Oblique-108"/>
      <use transform="translate(127.001953 -15.640625)scale(0.7)" xlink:href="#DejaVuSans-Oblique-112"/>
      <use transform="translate(174.169922 0.765625)" xlink:href="#DejaVuSans-47"/>
      <use transform="translate(207.861328 0.765625)" xlink:href="#DejaVuSans-Oblique-963"/>
      <use transform="translate(271.240234 0.765625)" xlink:href="#DejaVuSans-41"/>
      <use transform="translate(329.736328 0.765625)" xlink:href="#DejaVuSans-60"/>
      <use transform="translate(433.007812 0.765625)" xlink:href="#DejaVuSans-Oblique-948"/>
      <use transform="translate(494.189453 0.765625)" xlink:href="#DejaVuSans-Oblique-119"/>
      <use transform="translate(575.976562 0.765625)" xlink:href="#DejaVuSans-40"/>
      <use transform="translate(614.990234 0.765625)" xlink:href="#DejaVuSans-Oblique-116"/>
      <use transform="translate(654.199219 -15.640625)scale(0.7)" xlink:href="#DejaVuSans-48"/>
      <use transform="translate(701.469727 0.765625)" xlink:href="#DejaVuSans-59"/>
      <use transform="translate(754.643555 0.765625)" xlink:href="#DejaVuSans-Oblique-964"/>
      <use transform="translate(814.848633 0.765625)" xlink:href="#DejaVuSans-41"/>
      <use transform="translate(854.819336 39.046875)scale(0.7)" xlink:href="#DejaVuSans-50"/>
      <use transform="translate(921.572266 0.765625)" xlink:href="#DejaVuSans-62"/>
     </g>
    </g>
   </g>
   <g id="line2d_72">
    <path clip-path="url(#pa10a50c37f)" d="M 277.37203 299.86313 
L 304.359592 300.62589 
L 320.146304 301.297616 
L 331.347155 301.881206 
L 340.035209 302.432276 
L 347.133867 302.931157 
L 358.334717 303.828457 
L 362.920579 304.261216 
L 367.022772 304.614528 
L 374.121429 305.311429 
L 380.123258 305.931482 
L 387.682688 306.797584 
L 392.013239 307.194416 
L 399.45194 308.193956 
L 404.22544 308.823975 
L 411.073712 309.598719 
L 416.895703 310.340597 
L 422.897533 311.074858 
L 428.899362 311.826239 
L 434.787513 312.555475 
L 441.08099 313.239381 
L 446.999714 313.95695 
L 453.427065 314.53846 
L 459.307791 315.278119 
L 465.361568 315.671789 
L 471.407869 315.926739 
L 477.561787 316.223714 
L 483.661076 316.362646 
L 489.607244 316.576956 
L 495.775818 316.411234 
L 501.838721 316.159458 
L 507.927634 315.921599 
L 513.914549 315.514796 
L 520.031286 315.246356 
L 526.109534 314.283727 
L 532.158075 313.869221 
L 538.215886 313.063685 
L 544.286154 312.711874 
L 550.352401 312.196572 
L 556.419377 311.073073 
L 562.472673 310.359241 
L 568.555242 309.776996 
L 574.613594 309.112635 
L 580.669179 308.632769 
L 586.744609 308.405637 
L 592.809414 307.881092 
L 598.871874 307.462713 
L 604.945759 307.590037 
L 611.005548 306.834138 
L 617.072809 306.206115 
L 623.141464 305.996334 
L 629.205114 306.478948 
L 635.27175 306.105005 
L 641.338655 305.323019 
L 647.404887 305.476204 
L 653.47053 305.93779 
L 659.535832 303.642437 
L 665.602294 303.299287 
L 671.669297 302.159438 
L 677.734231 304.434803 
L 683.800709 304.247902 
L 689.867297 302.049573 
L 695.933035 305.465182 
L 701.999204 303.685134 
L 708.06547 304.024607 
L 714.131514 303.014188 
L 720.197776 303.480241 
L 726.263686 305.964533 
L 732.32981 303.503702 
L 738.395828 300.4616 
L 744.461993 303.131663 
L 750.528195 311.075021 
L 756.594198 303.517728 
L 762.660325 304.727386 
L 768.726471 299.376534 
L 774.79256 300.992724 
L 780.858653 308.724475 
L 786.92477 311.535134 
L 792.990822 312.116587 
L 799.056966 302.048847 
L 805.123036 305.920762 
L 811.189166 291.971178 
L 817.25524 308.994623 
L 823.321342 318.253757 
L 829.387474 318.148136 
L 835.453554 331.137976 
L 841.519663 322.535835 
L 847.585765 353.186785 
L 853.651875 332.389749 
L 859.71798 331.7912 
L 865.784082 421.761273 
L 871.850187 342.05167 
L 877.916291 365.239197 
" style="fill:none;stroke:#0010ff;stroke-linecap:square;stroke-width:1.5;"/>
   </g>
   <g id="line2d_73">
    <path clip-path="url(#pa10a50c37f)" d="M 241.696413 300.197826 
L 268.683975 300.555495 
L 284.470687 300.901098 
L 295.671538 301.231702 
L 304.359592 301.543375 
L 311.45825 301.818289 
L 322.6591 302.330183 
L 327.244962 302.575144 
L 331.347155 302.79336 
L 338.445812 303.215215 
L 344.447641 303.577106 
L 352.007071 304.058443 
L 356.337622 304.363614 
L 363.776323 304.865498 
L 368.549823 305.193024 
L 375.398095 305.570344 
L 381.220086 306.01581 
L 387.221916 306.380456 
L 393.223745 306.632639 
L 399.111896 306.900108 
L 405.405373 307.127006 
L 411.324097 307.200226 
L 417.751448 307.130777 
L 423.632174 306.981381 
L 429.685951 306.723813 
L 435.732252 306.199214 
L 441.88617 305.645914 
L 447.985459 304.766015 
L 453.931627 303.806168 
L 460.100201 302.614068 
L 466.163105 301.42504 
L 472.147494 299.890176 
L 478.238932 298.35226 
L 484.35567 296.822762 
L 490.368425 295.165812 
L 496.482458 293.544873 
L 502.540269 291.686382 
L 508.569488 290.175831 
L 514.64166 288.463026 
L 520.713706 286.553353 
L 526.797056 284.82145 
L 532.857622 283.186797 
L 538.919145 281.652988 
L 544.977443 279.972341 
L 551.055202 278.430701 
L 557.110193 276.997014 
L 563.186158 275.537952 
L 569.244218 273.962191 
L 575.315141 272.635595 
L 581.378207 271.811813 
L 587.444186 270.043554 
L 593.510961 269.142436 
L 599.576306 268.071207 
L 605.642678 267.069109 
L 611.70604 265.022622 
L 617.772549 265.246186 
L 623.838951 263.83692 
L 629.904841 261.858853 
L 635.970324 263.194681 
L 642.035962 260.834904 
L 648.101147 262.477189 
L 654.167286 260.790587 
L 660.233203 260.403086 
L 666.298578 260.242558 
L 672.364785 261.36888 
L 678.430259 259.347051 
L 684.49619 256.81198 
L 690.562015 258.187661 
L 696.627635 254.70157 
L 702.693276 261.272369 
L 708.759005 258.3142 
L 714.824841 258.13618 
L 720.890626 256.688181 
L 726.956423 259.220593 
L 733.022144 257.526099 
L 739.087858 257.224549 
L 745.153621 254.010639 
L 751.219384 251.855617 
L 757.285104 262.734256 
L 763.350865 250.162235 
L 769.416581 251.494942 
L 775.482357 254.230261 
L 781.548119 255.189254 
L 787.613856 259.917939 
L 793.679597 256.275109 
L 799.745344 356.406813 
L 805.811092 306.976147 
L 811.876852 274.003895 
L 817.942605 262.768014 
L 824.008353 252.137711 
L 830.074093 310.787129 
L 836.139846 264.249679 
L 842.205596 271.01245 
" style="fill:none;stroke:#00a4ff;stroke-linecap:square;stroke-width:1.5;"/>
   </g>
   <g id="line2d_74">
    <path clip-path="url(#pa10a50c37f)" d="M 214.708851 300.246998 
L 241.696413 300.435338 
L 257.483125 300.638926 
L 268.683975 300.803779 
L 277.37203 300.955977 
L 284.470687 301.118564 
L 295.671538 301.357609 
L 300.257399 301.457365 
L 304.359592 301.574954 
L 311.45825 301.729947 
L 317.460079 301.957254 
L 325.019509 302.092533 
L 329.350059 302.225254 
L 336.788761 302.317261 
L 341.562261 302.351589 
L 348.410533 302.309981 
L 354.232524 302.32879 
L 360.234353 302.182046 
L 366.236183 301.908838 
L 372.124334 301.632547 
L 378.417811 301.09108 
L 384.336535 300.404711 
L 390.763886 299.518661 
L 396.644611 298.504418 
L 402.698388 297.175501 
L 408.744689 295.78763 
L 414.898608 294.189959 
L 420.997896 292.391356 
L 426.944065 290.463117 
L 433.112639 288.394771 
L 439.175542 286.174824 
L 445.159932 283.85952 
L 451.251369 281.573866 
L 457.291539 279.284404 
L 463.380863 276.952093 
L 469.438834 274.469845 
L 475.504728 272.08948 
L 481.581926 269.610076 
L 487.654098 267.262921 
L 493.696066 264.93802 
L 499.783769 262.541242 
L 505.826016 260.32213 
L 511.893892 257.946672 
L 517.973755 255.411971 
L 524.026242 253.173739 
L 530.099012 250.963055 
L 536.158176 248.931001 
L 542.230713 246.67621 
L 548.290579 244.452508 
L 554.358983 242.486366 
L 560.424111 240.737096 
L 566.4863 238.405657 
L 572.553029 236.603408 
L 578.617762 235.292309 
L 584.683605 233.139717 
L 590.747684 231.441138 
L 596.813083 229.317366 
L 602.879037 228.630359 
L 608.943803 227.824532 
L 615.009727 225.090716 
L 621.074784 223.287446 
L 627.139685 223.919646 
L 633.204692 223.486475 
L 639.270254 220.45905 
L 645.334996 219.854604 
L 651.400278 219.85403 
L 657.465606 216.69278 
L 663.530735 217.330919 
L 669.59577 215.871623 
L 675.66078 217.92855 
L 681.726022 215.161327 
L 687.791213 216.119556 
L 693.856252 214.475441 
L 699.921422 222.132136 
L 705.98664 207.489287 
L 712.051771 215.803225 
L 718.116985 216.606749 
L 724.182154 216.306328 
L 730.247299 216.856881 
L 736.312442 220.337513 
L 742.3776 222.865476 
L 748.442782 211.569547 
L 754.50793 208.381595 
L 760.573077 205.680646 
L 766.638245 217.106524 
L 772.70339 228.216322 
L 778.768558 207.610723 
L 784.833711 224.708247 
L 790.898866 235.511969 
L 796.964025 216.099301 
L 803.029182 256.531385 
L 809.094343 286.85846 
L 815.1595 277.349337 
" style="fill:none;stroke:#40ffb7;stroke-linecap:square;stroke-width:1.5;"/>
   </g>
   <g id="line2d_75">
    <path clip-path="url(#pa10a50c37f)" d="M 187.721288 299.983402 
L 214.708851 299.912917 
L 230.495563 299.818796 
L 241.696413 299.71067 
L 250.384468 299.576082 
L 257.483125 299.47104 
L 268.683975 299.182346 
L 273.269837 299.037922 
L 277.37203 298.829656 
L 284.470687 298.545543 
L 290.472517 298.192652 
L 298.031947 297.610948 
L 302.362497 297.232153 
L 309.801199 296.444012 
L 314.574698 295.860011 
L 321.42297 294.782106 
L 327.244962 293.823115 
L 333.246791 292.522639 
L 339.24862 291.152136 
L 345.136771 289.551703 
L 351.430249 287.730272 
L 357.348973 285.719818 
L 363.776323 283.436304 
L 369.657049 281.194633 
L 375.710826 278.677765 
L 381.757127 276.067882 
L 387.911046 273.214664 
L 393.815171 270.421466 
L 399.956502 267.426293 
L 405.982196 264.403013 
L 412.065735 261.323446 
L 418.172369 258.218426 
L 424.174199 255.181202 
L 430.303977 251.997787 
L 436.327698 248.89904 
L 442.39513 245.800142 
L 448.469127 242.6577 
L 454.553271 239.562348 
L 460.596193 236.418325 
L 466.678404 233.281065 
L 472.718929 230.128931 
L 478.794359 227.003305 
L 484.849725 223.838996 
L 490.921624 220.761177 
L 496.983414 217.582427 
L 503.052341 214.480099 
L 509.109904 211.541658 
L 515.173887 208.343802 
L 521.236329 205.247519 
L 527.301673 202.180445 
L 533.366009 199.079894 
L 539.433731 196.020374 
L 545.493939 192.970059 
L 551.558788 190.192313 
L 557.623292 186.995434 
L 563.687903 184.334674 
L 569.750931 181.347571 
L 575.814878 178.111451 
L 581.879767 175.414717 
L 587.943366 172.847853 
L 594.007217 169.891029 
L 600.071921 167.934245 
L 606.135104 165.045531 
L 612.199604 162.384023 
L 618.263459 159.794684 
L 624.327214 158.540587 
L 630.391409 156.742926 
L 636.455204 153.786288 
L 642.51912 151.159105 
L 648.583196 151.23391 
L 654.647219 151.93721 
L 660.711148 154.267234 
L 666.775072 153.249493 
L 672.839111 151.088969 
L 678.903148 143.869329 
L 684.967089 150.912453 
L 691.030993 156.440269 
L 697.094986 158.383319 
L 703.158988 154.164211 
L 709.222959 161.536796 
L 715.286946 164.083997 
L 721.350898 167.858301 
L 727.414865 167.735414 
L 733.478863 155.206893 
L 739.542825 170.168105 
L 745.606794 170.455932 
L 751.67076 180.774945 
L 757.734735 155.997794 
L 763.79872 196.233062 
L 769.862681 189.310591 
L 775.926658 149.603769 
L 781.990631 178.147216 
L 788.054605 172.477016 
" style="fill:none;stroke:#b7ff40;stroke-linecap:square;stroke-width:1.5;"/>
   </g>
   <g id="line2d_76">
    <path clip-path="url(#pa10a50c37f)" d="M 152.045671 297.398286 
L 179.033234 295.023455 
L 194.819946 292.843151 
L 206.020796 290.840647 
L 214.708851 288.994642 
L 221.807508 287.268943 
L 233.008359 284.151697 
L 237.59422 282.711213 
L 241.696413 281.378881 
L 248.79507 278.865988 
L 254.7969 276.581583 
L 259.995921 274.503435 
L 266.68688 271.666361 
L 272.39486 269.126581 
L 278.899081 266.090791 
L 285.747353 262.770274 
L 291.569345 259.845242 
L 297.571174 256.748702 
L 303.573003 253.578588 
L 309.461154 250.390399 
L 315.754632 246.926198 
L 321.673356 243.606479 
L 327.675185 240.203939 
L 333.981432 236.587485 
L 340.035209 233.088563 
L 346.08151 229.557896 
L 352.007071 226.090919 
L 358.139555 222.481327 
L 364.113424 218.956587 
L 370.163173 215.383516 
L 376.267489 211.767764 
L 382.391948 208.141729 
L 388.408767 204.586299 
L 394.474771 200.993357 
L 400.520545 197.429373 
L 406.606984 193.837516 
L 412.64904 190.272287 
L 418.712851 186.693915 
L 424.779507 183.113954 
L 430.821694 179.549924 
L 436.888296 175.963821 
L 442.941866 172.421842 
L 449.003797 168.818528 
L 455.06789 165.253052 
L 461.127639 161.666827 
L 467.186972 158.096249 
L 473.25159 154.524008 
L 479.307157 150.971272 
L 485.367413 147.391571 
L 491.428821 143.849227 
L 497.488925 140.263905 
L 503.548423 136.768841 
L 509.610946 133.184929 
L 515.668146 129.643385 
L 521.728603 126.082619 
L 527.789808 122.661473 
L 533.850684 119.07638 
L 539.910399 115.622509 
L 545.970683 112.09931 
L 552.031739 108.808664 
L 558.091746 105.304863 
L 564.152734 101.995263 
L 570.21321 98.560627 
L 576.273657 95.468016 
L 582.333588 92.394525 
L 588.393961 89.45588 
L 594.454724 86.610653 
L 600.51487 83.65406 
L 606.575344 81.4179 
L 612.63569 77.675405 
L 618.696103 75.821324 
L 624.756492 74.695277 
L 630.816891 72.363431 
L 636.877401 71.679896 
L 642.937794 69.452399 
L 648.998093 68.046084 
L 655.058492 64.042804 
L 661.118933 65.272482 
L 667.179339 70.55747 
L 673.239731 56.724745 
L 679.300099 68.116093 
L 685.360497 66.088223 
L 691.420901 61.92146 
L 697.481302 60.832715 
L 703.541692 73.452499 
L 709.602089 74.936972 
L 715.662489 71.865718 
L 721.722882 68.351528 
L 727.783268 63.050518 
L 733.84366 59.065442 
L 739.904061 125.207374 
L 745.964454 94.815859 
L 752.024854 103.587271 
" style="fill:none;stroke:#ffb900;stroke-linecap:square;stroke-width:1.5;"/>
   </g>
   <g id="line2d_77">
    <path clip-path="url(#pa10a50c37f)" d="M 125.058109 297.570645 
L 152.045671 295.18692 
L 167.832383 293.009243 
L 179.033234 291.000898 
L 187.721288 289.15912 
L 194.819946 287.436433 
L 206.020796 284.333676 
L 210.606658 282.926944 
L 214.708851 281.570928 
L 221.807508 279.10509 
L 227.809337 276.858371 
L 233.008359 274.783189 
L 239.699318 272.013356 
L 245.407298 269.50224 
L 251.911519 266.518347 
L 258.759791 263.215945 
L 264.581782 260.338315 
L 270.583612 257.27933 
L 276.585441 254.121065 
L 282.473592 250.972283 
L 288.767069 247.536041 
L 294.685793 244.256121 
L 300.687623 240.889236 
L 306.628282 237.507849 
L 312.734916 234.013175 
L 318.826353 230.511514 
L 324.789804 227.055206 
L 330.955847 223.49061 
L 336.957676 220.007384 
L 343.031674 216.474956 
L 349.033503 213.004692 
L 355.088269 209.524718 
L 361.150509 206.041806 
L 367.255682 202.562819 
L 373.268568 199.131559 
L 379.336669 195.711037 
L 385.419495 192.265624 
L 391.435192 188.892792 
L 397.508266 185.472267 
L 403.560904 182.110676 
L 409.614925 178.673468 
L 415.665155 175.28864 
L 421.730718 171.917966 
L 427.770737 168.555688 
L 433.833282 165.131207 
L 439.889075 161.870451 
L 445.9371 158.530298 
L 451.996047 155.170837 
L 458.050527 151.851385 
L 464.101718 148.607315 
L 470.155907 145.151399 
L 476.208847 141.886933 
L 482.265867 138.65714 
L 488.319548 135.290283 
L 494.373159 131.979113 
L 500.429443 128.578795 
L 506.483666 125.396909 
L 512.537148 121.982137 
L 518.5914 118.779394 
L 524.645355 115.501665 
L 530.700339 112.300058 
L 536.754144 109.163649 
L 542.809418 105.943301 
L 548.86308 102.980223 
L 554.917504 99.471692 
L 560.972111 97.864134 
L 567.02629 93.892815 
L 573.080638 92.32257 
L 579.135139 90.38011 
L 585.189377 85.361578 
L 591.243852 84.312854 
L 597.29825 82.689638 
L 603.352583 79.162189 
L 609.406908 80.51923 
L 615.461262 76.285467 
L 621.515733 79.739264 
L 627.570037 77.44067 
L 633.624412 74.611648 
L 639.678731 69.852156 
L 645.733152 68.522916 
L 651.787501 66.724263 
L 657.841862 66.19397 
L 663.896222 69.130496 
L 669.950582 65.41051 
L 676.004934 67.433815 
L 682.059288 82.439628 
L 688.113659 63.357796 
L 694.168002 58.348102 
L 700.222374 66.376353 
L 706.276732 56.790919 
L 712.331092 50.882727 
L 718.385456 56.959081 
L 724.439814 52.771401 
" style="fill:none;stroke:#ff3000;stroke-linecap:square;stroke-width:1.5;"/>
   </g>
   <g id="patch_3">
    <path d="M 87.4152 440.3052 
L 87.4152 32.3388 
" style="fill:none;stroke:#000000;stroke-linecap:square;stroke-linejoin:miter;stroke-width:0.8;"/>
   </g>
   <g id="patch_4">
    <path d="M 915.5592 440.3052 
L 915.5592 32.3388 
" style="fill:none;stroke:#000000;stroke-linecap:square;stroke-linejoin:miter;stroke-width:0.8;"/>
   </g>
   <g id="patch_5">
    <path d="M 87.4152 440.3052 
L 915.5592 440.3052 
" style="fill:none;stroke:#000000;stroke-linecap:square;stroke-linejoin:miter;stroke-width:0.8;"/>
   </g>
   <g id="patch_6">
    <path d="M 87.4152 32.3388 
L 915.5592 32.3388 
" style="fill:none;stroke:#000000;stroke-linecap:square;stroke-linejoin:miter;stroke-width:0.8;"/>
   </g>
   <g id="text_14">
    <!-- $N = 1000, \phi = 0.65$ $(N_{iter}=10^7, dt=10^{-3})$ -->
    <defs>
     <path d="M 16.890625 72.90625 
L 30.171875 72.90625 
L 50.296875 10.40625 
L 62.5 72.90625 
L 72.125 72.90625 
L 57.90625 0 
L 44.578125 0 
L 24.515625 62.890625 
L 12.3125 0 
L 2.6875 0 
z
" id="DejaVuSans-Oblique-78"/>
     <path d="M 10.59375 45.40625 
L 73.1875 45.40625 
L 73.1875 37.203125 
L 10.59375 37.203125 
z
M 10.59375 25.484375 
L 73.1875 25.484375 
L 73.1875 17.1875 
L 10.59375 17.1875 
z
" id="DejaVuSans-61"/>
     <path d="M 11.71875 12.40625 
L 22.015625 12.40625 
L 22.015625 4 
L 14.015625 -11.625 
L 7.71875 -11.625 
L 11.71875 4 
z
" id="DejaVuSans-44"/>
     <path d="M 46.734375 75.984375 
L 42.78125 55.8125 
Q 52.546875 55.8125 57.5625 48.34375 
Q 62.75 40.71875 60.15625 27.296875 
Q 57.515625 13.875 49.359375 6.25 
Q 41.453125 -1.21875 31.6875 -1.21875 
L 27.875 -20.796875 
L 18.953125 -20.796875 
L 22.75 -1.21875 
Q 13.03125 -1.21875 7.953125 6.25 
Q 2.78125 13.875 5.421875 27.296875 
Q 8.015625 40.71875 16.15625 48.34375 
Q 24.125 55.8125 33.84375 55.8125 
L 37.796875 75.984375 
z
M 33.25 6.78125 
Q 38.765625 6.78125 43.5 11.8125 
Q 48.6875 17.4375 50.6875 27.296875 
Q 52.640625 37.0625 49.515625 42.78125 
Q 46.734375 47.796875 41.21875 47.796875 
z
M 24.3125 6.78125 
L 32.28125 47.796875 
Q 26.8125 47.796875 22.078125 42.78125 
Q 16.75 37.0625 14.890625 27.296875 
Q 13.03125 17.4375 16.0625 11.8125 
Q 18.796875 6.78125 24.3125 6.78125 
z
" id="DejaVuSans-Oblique-981"/>
     <path d="M 10.6875 12.40625 
L 21 12.40625 
L 21 0 
L 10.6875 0 
z
" id="DejaVuSans-46"/>
     <path d="M 33.015625 40.375 
Q 26.375 40.375 22.484375 35.828125 
Q 18.609375 31.296875 18.609375 23.390625 
Q 18.609375 15.53125 22.484375 10.953125 
Q 26.375 6.390625 33.015625 6.390625 
Q 39.65625 6.390625 43.53125 10.953125 
Q 47.40625 15.53125 47.40625 23.390625 
Q 47.40625 31.296875 43.53125 35.828125 
Q 39.65625 40.375 33.015625 40.375 
z
M 52.59375 71.296875 
L 52.59375 62.3125 
Q 48.875 64.0625 45.09375 64.984375 
Q 41.3125 65.921875 37.59375 65.921875 
Q 27.828125 65.921875 22.671875 59.328125 
Q 17.53125 52.734375 16.796875 39.40625 
Q 19.671875 43.65625 24.015625 45.921875 
Q 28.375 48.1875 33.59375 48.1875 
Q 44.578125 48.1875 50.953125 41.515625 
Q 57.328125 34.859375 57.328125 23.390625 
Q 57.328125 12.15625 50.6875 5.359375 
Q 44.046875 -1.421875 33.015625 -1.421875 
Q 20.359375 -1.421875 13.671875 8.265625 
Q 6.984375 17.96875 6.984375 36.375 
Q 6.984375 53.65625 15.1875 63.9375 
Q 23.390625 74.21875 37.203125 74.21875 
Q 40.921875 74.21875 44.703125 73.484375 
Q 48.484375 72.75 52.59375 71.296875 
z
" id="DejaVuSans-54"/>
     <path id="DejaVuSans-32"/>
     <path d="M 18.3125 75.984375 
L 27.296875 75.984375 
L 25.09375 64.59375 
L 16.109375 64.59375 
z
M 14.203125 54.6875 
L 23.1875 54.6875 
L 12.5 0 
L 3.515625 0 
z
" id="DejaVuSans-Oblique-105"/>
     <path d="M 48.09375 32.234375 
Q 48.25 33.015625 48.3125 33.84375 
Q 48.390625 34.671875 48.390625 35.5 
Q 48.390625 41.453125 44.890625 44.921875 
Q 41.40625 48.390625 35.40625 48.390625 
Q 28.71875 48.390625 23.578125 44.15625 
Q 18.453125 39.9375 15.828125 32.171875 
z
M 55.90625 25.203125 
L 14.109375 25.203125 
Q 13.8125 23.34375 13.71875 22.265625 
Q 13.625 21.1875 13.625 20.40625 
Q 13.625 13.625 17.796875 9.90625 
Q 21.96875 6.203125 29.59375 6.203125 
Q 35.453125 6.203125 40.671875 7.515625 
Q 45.90625 8.84375 50.390625 11.375 
L 48.6875 2.484375 
Q 43.84375 0.53125 38.6875 -0.4375 
Q 33.546875 -1.421875 28.21875 -1.421875 
Q 16.84375 -1.421875 10.71875 4.015625 
Q 4.59375 9.46875 4.59375 19.484375 
Q 4.59375 28.03125 7.640625 35.375 
Q 10.6875 42.71875 16.609375 48.484375 
Q 20.40625 52.09375 25.65625 54.046875 
Q 30.90625 56 36.8125 56 
Q 46.09375 56 51.578125 50.4375 
Q 57.078125 44.875 57.078125 35.5 
Q 57.078125 33.25 56.78125 30.6875 
Q 56.5 28.125 55.90625 25.203125 
z
" id="DejaVuSans-Oblique-101"/>
     <path d="M 44.578125 46.390625 
Q 43.21875 47.125 41.453125 47.515625 
Q 39.703125 47.90625 37.703125 47.90625 
Q 30.515625 47.90625 25.140625 42.453125 
Q 19.78125 37.015625 18.015625 27.875 
L 12.5 0 
L 3.515625 0 
L 14.203125 54.6875 
L 23.1875 54.6875 
L 21.484375 46.1875 
Q 25.046875 50.921875 30 53.453125 
Q 34.96875 56 40.578125 56 
Q 42.046875 56 43.453125 55.828125 
Q 44.875 55.671875 46.296875 55.28125 
z
" id="DejaVuSans-Oblique-114"/>
     <path d="M 8.203125 72.90625 
L 55.078125 72.90625 
L 55.078125 68.703125 
L 28.609375 0 
L 18.3125 0 
L 43.21875 64.59375 
L 8.203125 64.59375 
z
" id="DejaVuSans-55"/>
     <path d="M 41.796875 8.203125 
Q 38.1875 3.46875 33.25 1.015625 
Q 28.328125 -1.421875 22.3125 -1.421875 
Q 14.109375 -1.421875 9.34375 4.171875 
Q 4.59375 9.765625 4.59375 19.484375 
Q 4.59375 27.59375 7.46875 34.9375 
Q 10.359375 42.28125 15.828125 48.09375 
Q 19.4375 51.953125 23.96875 53.96875 
Q 28.515625 56 33.5 56 
Q 38.765625 56 42.796875 53.453125 
Q 46.828125 50.921875 49.03125 46.1875 
L 54.890625 75.984375 
L 63.921875 75.984375 
L 49.125 0 
L 40.09375 0 
z
M 13.921875 21.09375 
Q 13.921875 14.015625 17.109375 10.0625 
Q 20.3125 6.109375 25.984375 6.109375 
Q 30.171875 6.109375 33.765625 8.125 
Q 37.359375 10.15625 40.09375 14.109375 
Q 42.96875 18.21875 44.625 23.578125 
Q 46.296875 28.953125 46.296875 34.1875 
Q 46.296875 40.96875 43.09375 44.765625 
Q 39.890625 48.578125 34.28125 48.578125 
Q 30.03125 48.578125 26.359375 46.578125 
Q 22.703125 44.578125 20.125 40.828125 
Q 17.28125 36.765625 15.59375 31.390625 
Q 13.921875 26.03125 13.921875 21.09375 
z
" id="DejaVuSans-Oblique-100"/>
    </defs>
    <g transform="translate(257.8872 26.3388)scale(0.24 -0.24)">
     <use transform="translate(0 0.765625)" xlink:href="#DejaVuSans-Oblique-78"/>
     <use transform="translate(94.287109 0.765625)" xlink:href="#DejaVuSans-61"/>
     <use transform="translate(197.558594 0.765625)" xlink:href="#DejaVuSans-49"/>
     <use transform="translate(261.181641 0.765625)" xlink:href="#DejaVuSans-48"/>
     <use transform="translate(324.804688 0.765625)" xlink:href="#DejaVuSans-48"/>
     <use transform="translate(388.427734 0.765625)" xlink:href="#DejaVuSans-48"/>
     <use transform="translate(452.050781 0.765625)" xlink:href="#DejaVuSans-44"/>
     <use transform="translate(503.320312 0.765625)" xlink:href="#DejaVuSans-Oblique-981"/>
     <use transform="translate(588.769531 0.765625)" xlink:href="#DejaVuSans-61"/>
     <use transform="translate(692.041016 0.765625)" xlink:href="#DejaVuSans-48"/>
     <use transform="translate(755.664062 0.765625)" xlink:href="#DejaVuSans-46"/>
     <use transform="translate(787.451172 0.765625)" xlink:href="#DejaVuSans-54"/>
     <use transform="translate(851.074219 0.765625)" xlink:href="#DejaVuSans-53"/>
     <use transform="translate(914.697266 0.765625)" xlink:href="#DejaVuSans-32"/>
     <use transform="translate(946.484375 0.765625)" xlink:href="#DejaVuSans-40"/>
     <use transform="translate(985.498047 0.765625)" xlink:href="#DejaVuSans-Oblique-78"/>
     <use transform="translate(1060.302734 -15.640625)scale(0.7)" xlink:href="#DejaVuSans-Oblique-105"/>
     <use transform="translate(1079.750977 -15.640625)scale(0.7)" xlink:href="#DejaVuSans-Oblique-116"/>
     <use transform="translate(1107.197266 -15.640625)scale(0.7)" xlink:href="#DejaVuSans-Oblique-101"/>
     <use transform="translate(1150.263672 -15.640625)scale(0.7)" xlink:href="#DejaVuSans-Oblique-114"/>
     <use transform="translate(1201.259766 0.765625)" xlink:href="#DejaVuSans-61"/>
     <use transform="translate(1304.53125 0.765625)" xlink:href="#DejaVuSans-49"/>
     <use transform="translate(1368.154297 0.765625)" xlink:href="#DejaVuSans-48"/>
     <use transform="translate(1432.734375 39.046875)scale(0.7)" xlink:href="#DejaVuSans-55"/>
     <use transform="translate(1480.004883 0.765625)" xlink:href="#DejaVuSans-44"/>
     <use transform="translate(1531.274414 0.765625)" xlink:href="#DejaVuSans-Oblique-100"/>
     <use transform="translate(1594.750977 0.765625)" xlink:href="#DejaVuSans-Oblique-116"/>
     <use transform="translate(1653.442383 0.765625)" xlink:href="#DejaVuSans-61"/>
     <use transform="translate(1756.713867 0.765625)" xlink:href="#DejaVuSans-49"/>
     <use transform="translate(1820.336914 0.765625)" xlink:href="#DejaVuSans-48"/>
     <use transform="translate(1884.916992 39.046875)scale(0.7)" xlink:href="#DejaVuSans-8722"/>
     <use transform="translate(1943.569336 39.046875)scale(0.7)" xlink:href="#DejaVuSans-51"/>
     <use transform="translate(1990.839844 0.765625)" xlink:href="#DejaVuSans-41"/>
    </g>
   </g>
   <g id="legend_1">
    <g id="patch_7">
     <path d="M 810.4392 154.9788 
L 907.1592 154.9788 
Q 909.5592 154.9788 909.5592 152.5788 
L 909.5592 40.7388 
Q 909.5592 38.3388 907.1592 38.3388 
L 810.4392 38.3388 
Q 808.0392 38.3388 808.0392 40.7388 
L 808.0392 152.5788 
Q 808.0392 154.9788 810.4392 154.9788 
z
" style="fill:#ffffff;opacity:0.8;stroke:#cccccc;stroke-linejoin:miter;"/>
    </g>
    <g id="line2d_78">
     <path d="M 812.8392 48.0588 
L 836.8392 48.0588 
" style="fill:none;stroke:#0010ff;stroke-linecap:square;stroke-width:1.5;"/>
    </g>
    <g id="line2d_79"/>
    <g id="text_15">
     <!-- $l_p/\sigma = 2$ -->
     <g transform="translate(846.4392 52.2588)scale(0.12 -0.12)">
      <use transform="translate(0 0.015625)" xlink:href="#DejaVuSans-Oblique-108"/>
      <use transform="translate(27.783203 -16.390625)scale(0.7)" xlink:href="#DejaVuSans-Oblique-112"/>
      <use transform="translate(74.951172 0.015625)" xlink:href="#DejaVuSans-47"/>
      <use transform="translate(108.642578 0.015625)" xlink:href="#DejaVuSans-Oblique-963"/>
      <use transform="translate(191.503906 0.015625)" xlink:href="#DejaVuSans-61"/>
      <use transform="translate(294.775391 0.015625)" xlink:href="#DejaVuSans-50"/>
     </g>
    </g>
    <g id="line2d_80">
     <path d="M 812.8392 66.8988 
L 836.8392 66.8988 
" style="fill:none;stroke:#00a4ff;stroke-linecap:square;stroke-width:1.5;"/>
    </g>
    <g id="line2d_81"/>
    <g id="text_16">
     <!-- $l_p/\sigma = 5$ -->
     <g transform="translate(846.4392 71.0988)scale(0.12 -0.12)">
      <use transform="translate(0 0.015625)" xlink:href="#DejaVuSans-Oblique-108"/>
      <use transform="translate(27.783203 -16.390625)scale(0.7)" xlink:href="#DejaVuSans-Oblique-112"/>
      <use transform="translate(74.951172 0.015625)" xlink:href="#DejaVuSans-47"/>
      <use transform="translate(108.642578 0.015625)" xlink:href="#DejaVuSans-Oblique-963"/>
      <use transform="translate(191.503906 0.015625)" xlink:href="#DejaVuSans-61"/>
      <use transform="translate(294.775391 0.015625)" xlink:href="#DejaVuSans-53"/>
     </g>
    </g>
    <g id="line2d_82">
     <path d="M 812.8392 85.7388 
L 836.8392 85.7388 
" style="fill:none;stroke:#40ffb7;stroke-linecap:square;stroke-width:1.5;"/>
    </g>
    <g id="line2d_83"/>
    <g id="text_17">
     <!-- $l_p/\sigma = 10$ -->
     <g transform="translate(846.4392 89.9388)scale(0.12 -0.12)">
      <use transform="translate(0 0.015625)" xlink:href="#DejaVuSans-Oblique-108"/>
      <use transform="translate(27.783203 -16.390625)scale(0.7)" xlink:href="#DejaVuSans-Oblique-112"/>
      <use transform="translate(74.951172 0.015625)" xlink:href="#DejaVuSans-47"/>
      <use transform="translate(108.642578 0.015625)" xlink:href="#DejaVuSans-Oblique-963"/>
      <use transform="translate(191.503906 0.015625)" xlink:href="#DejaVuSans-61"/>
      <use transform="translate(294.775391 0.015625)" xlink:href="#DejaVuSans-49"/>
      <use transform="translate(358.398438 0.015625)" xlink:href="#DejaVuSans-48"/>
     </g>
    </g>
    <g id="line2d_84">
     <path d="M 812.8392 104.5788 
L 836.8392 104.5788 
" style="fill:none;stroke:#b7ff40;stroke-linecap:square;stroke-width:1.5;"/>
    </g>
    <g id="line2d_85"/>
    <g id="text_18">
     <!-- $l_p/\sigma = 20$ -->
     <g transform="translate(846.4392 108.7788)scale(0.12 -0.12)">
      <use transform="translate(0 0.015625)" xlink:href="#DejaVuSans-Oblique-108"/>
      <use transform="translate(27.783203 -16.390625)scale(0.7)" xlink:href="#DejaVuSans-Oblique-112"/>
      <use transform="translate(74.951172 0.015625)" xlink:href="#DejaVuSans-47"/>
      <use transform="translate(108.642578 0.015625)" xlink:href="#DejaVuSans-Oblique-963"/>
      <use transform="translate(191.503906 0.015625)" xlink:href="#DejaVuSans-61"/>
      <use transform="translate(294.775391 0.015625)" xlink:href="#DejaVuSans-50"/>
      <use transform="translate(358.398438 0.015625)" xlink:href="#DejaVuSans-48"/>
     </g>
    </g>
    <g id="line2d_86">
     <path d="M 812.8392 123.4188 
L 836.8392 123.4188 
" style="fill:none;stroke:#ffb900;stroke-linecap:square;stroke-width:1.5;"/>
    </g>
    <g id="line2d_87"/>
    <g id="text_19">
     <!-- $l_p/\sigma = 50$ -->
     <g transform="translate(846.4392 127.6188)scale(0.12 -0.12)">
      <use transform="translate(0 0.015625)" xlink:href="#DejaVuSans-Oblique-108"/>
      <use transform="translate(27.783203 -16.390625)scale(0.7)" xlink:href="#DejaVuSans-Oblique-112"/>
      <use transform="translate(74.951172 0.015625)" xlink:href="#DejaVuSans-47"/>
      <use transform="translate(108.642578 0.015625)" xlink:href="#DejaVuSans-Oblique-963"/>
      <use transform="translate(191.503906 0.015625)" xlink:href="#DejaVuSans-61"/>
      <use transform="translate(294.775391 0.015625)" xlink:href="#DejaVuSans-53"/>
      <use transform="translate(358.398438 0.015625)" xlink:href="#DejaVuSans-48"/>
     </g>
    </g>
    <g id="line2d_88">
     <path d="M 812.8392 142.2588 
L 836.8392 142.2588 
" style="fill:none;stroke:#ff3000;stroke-linecap:square;stroke-width:1.5;"/>
    </g>
    <g id="line2d_89"/>
    <g id="text_20">
     <!-- $l_p/\sigma = 100$ -->
     <g transform="translate(846.4392 146.4588)scale(0.12 -0.12)">
      <use transform="translate(0 0.015625)" xlink:href="#DejaVuSans-Oblique-108"/>
      <use transform="translate(27.783203 -16.390625)scale(0.7)" xlink:href="#DejaVuSans-Oblique-112"/>
      <use transform="translate(74.951172 0.015625)" xlink:href="#DejaVuSans-47"/>
      <use transform="translate(108.642578 0.015625)" xlink:href="#DejaVuSans-Oblique-963"/>
      <use transform="translate(191.503906 0.015625)" xlink:href="#DejaVuSans-61"/>
      <use transform="translate(294.775391 0.015625)" xlink:href="#DejaVuSans-49"/>
      <use transform="translate(358.398438 0.015625)" xlink:href="#DejaVuSans-48"/>
      <use transform="translate(422.021484 0.015625)" xlink:href="#DejaVuSans-48"/>
     </g>
    </g>
   </g>
  </g>
 </g>
 <defs>
  <clipPath id="pa10a50c37f">
   <rect height="407.9664" width="828.144" x="87.4152" y="32.3388"/>
  </clipPath>
 </defs>
</svg>
