<?xml version="1.0" encoding="utf-8" standalone="no"?>
<!DOCTYPE svg PUBLIC "-//W3C//DTD SVG 1.1//EN"
  "http://www.w3.org/Graphics/SVG/1.1/DTD/svg11.dtd">
<!-- Created with matplotlib (https://matplotlib.org/) -->
<svg height="497.52pt" version="1.1" viewBox="0 0 920.16 497.52" width="920.16pt" xmlns="http://www.w3.org/2000/svg" xmlns:xlink="http://www.w3.org/1999/xlink">
 <defs>
  <style type="text/css">
*{stroke-linecap:butt;stroke-linejoin:round;}
  </style>
 </defs>
 <g id="figure_1">
  <g id="patch_1">
   <path d="M 0 497.52 
L 920.16 497.52 
L 920.16 0 
L 0 0 
z
" style="fill:#ffffff;"/>
  </g>
  <g id="axes_1">
   <g id="patch_2">
    <path d="M 87.4152 440.3052 
L 915.5592 440.3052 
L 915.5592 32.3388 
L 87.4152 32.3388 
z
" style="fill:#ffffff;"/>
   </g>
   <g id="matplotlib.axis_1">
    <g id="xtick_1">
     <g id="line2d_1">
      <defs>
       <path d="M 0 0 
L 0 3.5 
" id="m4531836eba" style="stroke:#000000;stroke-width:0.8;"/>
      </defs>
      <g>
       <use style="stroke:#000000;stroke-width:0.8;" x="214.708851" xlink:href="#m4531836eba" y="440.3052"/>
      </g>
     </g>
     <g id="text_1">
      <!-- $\mathdefault{10^{-4}}$ -->
      <defs>
       <path d="M 12.40625 8.296875 
L 28.515625 8.296875 
L 28.515625 63.921875 
L 10.984375 60.40625 
L 10.984375 69.390625 
L 28.421875 72.90625 
L 38.28125 72.90625 
L 38.28125 8.296875 
L 54.390625 8.296875 
L 54.390625 0 
L 12.40625 0 
z
" id="DejaVuSans-49"/>
       <path d="M 31.78125 66.40625 
Q 24.171875 66.40625 20.328125 58.90625 
Q 16.5 51.421875 16.5 36.375 
Q 16.5 21.390625 20.328125 13.890625 
Q 24.171875 6.390625 31.78125 6.390625 
Q 39.453125 6.390625 43.28125 13.890625 
Q 47.125 21.390625 47.125 36.375 
Q 47.125 51.421875 43.28125 58.90625 
Q 39.453125 66.40625 31.78125 66.40625 
z
M 31.78125 74.21875 
Q 44.046875 74.21875 50.515625 64.515625 
Q 56.984375 54.828125 56.984375 36.375 
Q 56.984375 17.96875 50.515625 8.265625 
Q 44.046875 -1.421875 31.78125 -1.421875 
Q 19.53125 -1.421875 13.0625 8.265625 
Q 6.59375 17.96875 6.59375 36.375 
Q 6.59375 54.828125 13.0625 64.515625 
Q 19.53125 74.21875 31.78125 74.21875 
z
" id="DejaVuSans-48"/>
       <path d="M 10.59375 35.5 
L 73.1875 35.5 
L 73.1875 27.203125 
L 10.59375 27.203125 
z
" id="DejaVuSans-8722"/>
       <path d="M 37.796875 64.3125 
L 12.890625 25.390625 
L 37.796875 25.390625 
z
M 35.203125 72.90625 
L 47.609375 72.90625 
L 47.609375 25.390625 
L 58.015625 25.390625 
L 58.015625 17.1875 
L 47.609375 17.1875 
L 47.609375 0 
L 37.796875 0 
L 37.796875 17.1875 
L 4.890625 17.1875 
L 4.890625 26.703125 
z
" id="DejaVuSans-52"/>
      </defs>
      <g transform="translate(191.208851 462.502075)scale(0.2 -0.2)">
       <use transform="translate(0 0.684375)" xlink:href="#DejaVuSans-49"/>
       <use transform="translate(63.623047 0.684375)" xlink:href="#DejaVuSans-48"/>
       <use transform="translate(128.203125 38.965625)scale(0.7)" xlink:href="#DejaVuSans-8722"/>
       <use transform="translate(186.855469 38.965625)scale(0.7)" xlink:href="#DejaVuSans-52"/>
      </g>
     </g>
    </g>
    <g id="xtick_2">
     <g id="line2d_2">
      <g>
       <use style="stroke:#000000;stroke-width:0.8;" x="394.010334" xlink:href="#m4531836eba" y="440.3052"/>
      </g>
     </g>
     <g id="text_2">
      <!-- $\mathdefault{10^{-2}}$ -->
      <defs>
       <path d="M 19.1875 8.296875 
L 53.609375 8.296875 
L 53.609375 0 
L 7.328125 0 
L 7.328125 8.296875 
Q 12.9375 14.109375 22.625 23.890625 
Q 32.328125 33.6875 34.8125 36.53125 
Q 39.546875 41.84375 41.421875 45.53125 
Q 43.3125 49.21875 43.3125 52.78125 
Q 43.3125 58.59375 39.234375 62.25 
Q 35.15625 65.921875 28.609375 65.921875 
Q 23.96875 65.921875 18.8125 64.3125 
Q 13.671875 62.703125 7.8125 59.421875 
L 7.8125 69.390625 
Q 13.765625 71.78125 18.9375 73 
Q 24.125 74.21875 28.421875 74.21875 
Q 39.75 74.21875 46.484375 68.546875 
Q 53.21875 62.890625 53.21875 53.421875 
Q 53.21875 48.921875 51.53125 44.890625 
Q 49.859375 40.875 45.40625 35.40625 
Q 44.1875 33.984375 37.640625 27.21875 
Q 31.109375 20.453125 19.1875 8.296875 
z
" id="DejaVuSans-50"/>
      </defs>
      <g transform="translate(370.510334 462.502075)scale(0.2 -0.2)">
       <use transform="translate(0 0.765625)" xlink:href="#DejaVuSans-49"/>
       <use transform="translate(63.623047 0.765625)" xlink:href="#DejaVuSans-48"/>
       <use transform="translate(128.203125 39.046875)scale(0.7)" xlink:href="#DejaVuSans-8722"/>
       <use transform="translate(186.855469 39.046875)scale(0.7)" xlink:href="#DejaVuSans-50"/>
      </g>
     </g>
    </g>
    <g id="xtick_3">
     <g id="line2d_3">
      <g>
       <use style="stroke:#000000;stroke-width:0.8;" x="573.311817" xlink:href="#m4531836eba" y="440.3052"/>
      </g>
     </g>
     <g id="text_3">
      <!-- $\mathdefault{10^{0}}$ -->
      <g transform="translate(555.711817 462.502075)scale(0.2 -0.2)">
       <use transform="translate(0 0.765625)" xlink:href="#DejaVuSans-49"/>
       <use transform="translate(63.623047 0.765625)" xlink:href="#DejaVuSans-48"/>
       <use transform="translate(128.203125 39.046875)scale(0.7)" xlink:href="#DejaVuSans-48"/>
      </g>
     </g>
    </g>
    <g id="xtick_4">
     <g id="line2d_4">
      <g>
       <use style="stroke:#000000;stroke-width:0.8;" x="752.6133" xlink:href="#m4531836eba" y="440.3052"/>
      </g>
     </g>
     <g id="text_4">
      <!-- $\mathdefault{10^{2}}$ -->
      <g transform="translate(735.0133 462.502075)scale(0.2 -0.2)">
       <use transform="translate(0 0.765625)" xlink:href="#DejaVuSans-49"/>
       <use transform="translate(63.623047 0.765625)" xlink:href="#DejaVuSans-48"/>
       <use transform="translate(128.203125 39.046875)scale(0.7)" xlink:href="#DejaVuSans-50"/>
      </g>
     </g>
    </g>
    <g id="text_5">
     <!-- $\tau/(l_p/\sigma)$ -->
     <defs>
      <path d="M 32.859375 9.96875 
Q 34.1875 7.625 39.453125 7.625 
L 43.75 7.625 
L 42.28125 0 
L 36.921875 0 
Q 28.125 0 25 4.6875 
Q 21.921875 9.46875 23.96875 19.828125 
L 29 45.703125 
L 8.453125 45.703125 
L 10.203125 54.6875 
L 60.640625 54.6875 
L 58.890625 45.703125 
L 38.1875 45.703125 
L 33.015625 19.28125 
Q 31.640625 12.203125 32.859375 9.96875 
z
" id="DejaVuSans-Oblique-964"/>
      <path d="M 25.390625 72.90625 
L 33.6875 72.90625 
L 8.296875 -9.28125 
L 0 -9.28125 
z
" id="DejaVuSans-47"/>
      <path d="M 31 75.875 
Q 24.46875 64.65625 21.28125 53.65625 
Q 18.109375 42.671875 18.109375 31.390625 
Q 18.109375 20.125 21.3125 9.0625 
Q 24.515625 -2 31 -13.1875 
L 23.1875 -13.1875 
Q 15.875 -1.703125 12.234375 9.375 
Q 8.59375 20.453125 8.59375 31.390625 
Q 8.59375 42.28125 12.203125 53.3125 
Q 15.828125 64.359375 23.1875 75.875 
z
" id="DejaVuSans-40"/>
      <path d="M 18.3125 75.984375 
L 27.296875 75.984375 
L 12.5 0 
L 3.515625 0 
z
" id="DejaVuSans-Oblique-108"/>
      <path d="M 49.609375 33.6875 
Q 49.609375 40.875 46.484375 44.671875 
Q 43.359375 48.484375 37.5 48.484375 
Q 33.5 48.484375 29.859375 46.4375 
Q 26.21875 44.390625 23.390625 40.484375 
Q 20.609375 36.625 18.9375 31.15625 
Q 17.28125 25.6875 17.28125 20.3125 
Q 17.28125 13.484375 20.40625 9.796875 
Q 23.53125 6.109375 29.296875 6.109375 
Q 33.546875 6.109375 37.1875 8.109375 
Q 40.828125 10.109375 43.40625 13.921875 
Q 46.1875 17.921875 47.890625 23.34375 
Q 49.609375 28.765625 49.609375 33.6875 
z
M 21.78125 46.390625 
Q 25.390625 51.125 30.296875 53.5625 
Q 35.203125 56 41.21875 56 
Q 49.609375 56 54.25 50.5 
Q 58.890625 45.015625 58.890625 35.109375 
Q 58.890625 27 56 19.65625 
Q 53.125 12.3125 47.703125 6.5 
Q 44.09375 2.640625 39.546875 0.609375 
Q 35.015625 -1.421875 29.984375 -1.421875 
Q 24.171875 -1.421875 20.21875 1 
Q 16.265625 3.421875 14.3125 8.203125 
L 8.6875 -20.796875 
L -0.296875 -20.796875 
L 14.40625 54.6875 
L 23.390625 54.6875 
z
" id="DejaVuSans-Oblique-112"/>
      <path d="M 34.671875 47.5625 
Q 27.25 47.5625 22.21875 42.1875 
Q 16.890625 36.578125 15.140625 27.296875 
Q 13.1875 17.484375 16.3125 11.8125 
Q 19.390625 6.203125 26.65625 6.203125 
Q 33.84375 6.203125 39.109375 11.859375 
Q 44.4375 17.53125 46.34375 27.296875 
Q 48.046875 36.234375 45.015625 42.1875 
Q 42.1875 47.5625 34.671875 47.5625 
z
M 36.078125 54.734375 
L 65.921875 54.6875 
L 64.15625 45.703125 
L 54.109375 45.703125 
Q 57.90625 38.09375 55.859375 27.296875 
Q 53.21875 13.875 45.0625 6.25 
Q 36.859375 -1.421875 25.140625 -1.421875 
Q 13.375 -1.421875 8.203125 6.25 
Q 3.03125 13.875 5.671875 27.296875 
Q 8.25 40.765625 16.40625 48.390625 
Q 23.1875 54.734375 36.078125 54.734375 
z
" id="DejaVuSans-Oblique-963"/>
      <path d="M 8.015625 75.875 
L 15.828125 75.875 
Q 23.140625 64.359375 26.78125 53.3125 
Q 30.421875 42.28125 30.421875 31.390625 
Q 30.421875 20.453125 26.78125 9.375 
Q 23.140625 -1.703125 15.828125 -13.1875 
L 8.015625 -13.1875 
Q 14.5 -2 17.703125 9.0625 
Q 20.90625 20.125 20.90625 31.390625 
Q 20.90625 42.671875 17.703125 53.65625 
Q 14.5 64.65625 8.015625 75.875 
z
" id="DejaVuSans-41"/>
     </defs>
     <g transform="translate(467.0872 485.86145)scale(0.2 -0.2)">
      <use transform="translate(0 0.015625)" xlink:href="#DejaVuSans-Oblique-964"/>
      <use transform="translate(60.205078 0.015625)" xlink:href="#DejaVuSans-47"/>
      <use transform="translate(93.896484 0.015625)" xlink:href="#DejaVuSans-40"/>
      <use transform="translate(132.910156 0.015625)" xlink:href="#DejaVuSans-Oblique-108"/>
      <use transform="translate(160.693359 -16.390625)scale(0.7)" xlink:href="#DejaVuSans-Oblique-112"/>
      <use transform="translate(207.861328 0.015625)" xlink:href="#DejaVuSans-47"/>
      <use transform="translate(241.552734 0.015625)" xlink:href="#DejaVuSans-Oblique-963"/>
      <use transform="translate(304.931641 0.015625)" xlink:href="#DejaVuSans-41"/>
     </g>
    </g>
   </g>
   <g id="matplotlib.axis_2">
    <g id="ytick_1">
     <g id="line2d_5">
      <defs>
       <path d="M 0 0 
L -3.5 0 
" id="mf30abeb08d" style="stroke:#000000;stroke-width:0.8;"/>
      </defs>
      <g>
       <use style="stroke:#000000;stroke-width:0.8;" x="87.4152" xlink:href="#mf30abeb08d" y="419.189745"/>
      </g>
     </g>
     <g id="text_6">
      <!-- $\mathdefault{10^{-3}}$ -->
      <defs>
       <path d="M 40.578125 39.3125 
Q 47.65625 37.796875 51.625 33 
Q 55.609375 28.21875 55.609375 21.1875 
Q 55.609375 10.40625 48.1875 4.484375 
Q 40.765625 -1.421875 27.09375 -1.421875 
Q 22.515625 -1.421875 17.65625 -0.515625 
Q 12.796875 0.390625 7.625 2.203125 
L 7.625 11.71875 
Q 11.71875 9.328125 16.59375 8.109375 
Q 21.484375 6.890625 26.8125 6.890625 
Q 36.078125 6.890625 40.9375 10.546875 
Q 45.796875 14.203125 45.796875 21.1875 
Q 45.796875 27.640625 41.28125 31.265625 
Q 36.765625 34.90625 28.71875 34.90625 
L 20.21875 34.90625 
L 20.21875 43.015625 
L 29.109375 43.015625 
Q 36.375 43.015625 40.234375 45.921875 
Q 44.09375 48.828125 44.09375 54.296875 
Q 44.09375 59.90625 40.109375 62.90625 
Q 36.140625 65.921875 28.71875 65.921875 
Q 24.65625 65.921875 20.015625 65.03125 
Q 15.375 64.15625 9.8125 62.3125 
L 9.8125 71.09375 
Q 15.4375 72.65625 20.34375 73.4375 
Q 25.25 74.21875 29.59375 74.21875 
Q 40.828125 74.21875 47.359375 69.109375 
Q 53.90625 64.015625 53.90625 55.328125 
Q 53.90625 49.265625 50.4375 45.09375 
Q 46.96875 40.921875 40.578125 39.3125 
z
" id="DejaVuSans-51"/>
      </defs>
      <g transform="translate(33.4152 426.788183)scale(0.2 -0.2)">
       <use transform="translate(0 0.765625)" xlink:href="#DejaVuSans-49"/>
       <use transform="translate(63.623047 0.765625)" xlink:href="#DejaVuSans-48"/>
       <use transform="translate(128.203125 39.046875)scale(0.7)" xlink:href="#DejaVuSans-8722"/>
       <use transform="translate(186.855469 39.046875)scale(0.7)" xlink:href="#DejaVuSans-51"/>
      </g>
     </g>
    </g>
    <g id="ytick_2">
     <g id="line2d_6">
      <g>
       <use style="stroke:#000000;stroke-width:0.8;" x="87.4152" xlink:href="#mf30abeb08d" y="332.018878"/>
      </g>
     </g>
     <g id="text_7">
      <!-- $\mathdefault{10^{-2}}$ -->
      <g transform="translate(33.4152 339.617315)scale(0.2 -0.2)">
       <use transform="translate(0 0.765625)" xlink:href="#DejaVuSans-49"/>
       <use transform="translate(63.623047 0.765625)" xlink:href="#DejaVuSans-48"/>
       <use transform="translate(128.203125 39.046875)scale(0.7)" xlink:href="#DejaVuSans-8722"/>
       <use transform="translate(186.855469 39.046875)scale(0.7)" xlink:href="#DejaVuSans-50"/>
      </g>
     </g>
    </g>
    <g id="ytick_3">
     <g id="line2d_7">
      <g>
       <use style="stroke:#000000;stroke-width:0.8;" x="87.4152" xlink:href="#mf30abeb08d" y="244.84801"/>
      </g>
     </g>
     <g id="text_8">
      <!-- $\mathdefault{10^{-1}}$ -->
      <g transform="translate(33.4152 252.446448)scale(0.2 -0.2)">
       <use transform="translate(0 0.684375)" xlink:href="#DejaVuSans-49"/>
       <use transform="translate(63.623047 0.684375)" xlink:href="#DejaVuSans-48"/>
       <use transform="translate(128.203125 38.965625)scale(0.7)" xlink:href="#DejaVuSans-8722"/>
       <use transform="translate(186.855469 38.965625)scale(0.7)" xlink:href="#DejaVuSans-49"/>
      </g>
     </g>
    </g>
    <g id="ytick_4">
     <g id="line2d_8">
      <g>
       <use style="stroke:#000000;stroke-width:0.8;" x="87.4152" xlink:href="#mf30abeb08d" y="157.677142"/>
      </g>
     </g>
     <g id="text_9">
      <!-- $\mathdefault{10^{0}}$ -->
      <g transform="translate(45.2152 165.27558)scale(0.2 -0.2)">
       <use transform="translate(0 0.765625)" xlink:href="#DejaVuSans-49"/>
       <use transform="translate(63.623047 0.765625)" xlink:href="#DejaVuSans-48"/>
       <use transform="translate(128.203125 39.046875)scale(0.7)" xlink:href="#DejaVuSans-48"/>
      </g>
     </g>
    </g>
    <g id="ytick_5">
     <g id="line2d_9">
      <g>
       <use style="stroke:#000000;stroke-width:0.8;" x="87.4152" xlink:href="#mf30abeb08d" y="70.506275"/>
      </g>
     </g>
     <g id="text_10">
      <!-- $\mathdefault{10^{1}}$ -->
      <g transform="translate(45.2152 78.104712)scale(0.2 -0.2)">
       <use transform="translate(0 0.684375)" xlink:href="#DejaVuSans-49"/>
       <use transform="translate(63.623047 0.684375)" xlink:href="#DejaVuSans-48"/>
       <use transform="translate(128.203125 38.965625)scale(0.7)" xlink:href="#DejaVuSans-49"/>
      </g>
     </g>
    </g>
    <g id="ytick_6">
     <g id="line2d_10">
      <defs>
       <path d="M 0 0 
L -2 0 
" id="mcb2c523ec2" style="stroke:#000000;stroke-width:0.6;"/>
      </defs>
      <g>
       <use style="stroke:#000000;stroke-width:0.6;" x="87.4152" xlink:href="#mcb2c523ec2" y="438.528493"/>
      </g>
     </g>
    </g>
    <g id="ytick_7">
     <g id="line2d_11">
      <g>
       <use style="stroke:#000000;stroke-width:0.6;" x="87.4152" xlink:href="#mcb2c523ec2" y="432.692684"/>
      </g>
     </g>
    </g>
    <g id="ytick_8">
     <g id="line2d_12">
      <g>
       <use style="stroke:#000000;stroke-width:0.6;" x="87.4152" xlink:href="#mcb2c523ec2" y="427.637475"/>
      </g>
     </g>
    </g>
    <g id="ytick_9">
     <g id="line2d_13">
      <g>
       <use style="stroke:#000000;stroke-width:0.6;" x="87.4152" xlink:href="#mcb2c523ec2" y="423.178465"/>
      </g>
     </g>
    </g>
    <g id="ytick_10">
     <g id="line2d_14">
      <g>
       <use style="stroke:#000000;stroke-width:0.6;" x="87.4152" xlink:href="#mcb2c523ec2" y="392.948699"/>
      </g>
     </g>
    </g>
    <g id="ytick_11">
     <g id="line2d_15">
      <g>
       <use style="stroke:#000000;stroke-width:0.6;" x="87.4152" xlink:href="#mcb2c523ec2" y="377.598672"/>
      </g>
     </g>
    </g>
    <g id="ytick_12">
     <g id="line2d_16">
      <g>
       <use style="stroke:#000000;stroke-width:0.6;" x="87.4152" xlink:href="#mcb2c523ec2" y="366.707654"/>
      </g>
     </g>
    </g>
    <g id="ytick_13">
     <g id="line2d_17">
      <g>
       <use style="stroke:#000000;stroke-width:0.6;" x="87.4152" xlink:href="#mcb2c523ec2" y="358.259924"/>
      </g>
     </g>
    </g>
    <g id="ytick_14">
     <g id="line2d_18">
      <g>
       <use style="stroke:#000000;stroke-width:0.6;" x="87.4152" xlink:href="#mcb2c523ec2" y="351.357626"/>
      </g>
     </g>
    </g>
    <g id="ytick_15">
     <g id="line2d_19">
      <g>
       <use style="stroke:#000000;stroke-width:0.6;" x="87.4152" xlink:href="#mcb2c523ec2" y="345.521816"/>
      </g>
     </g>
    </g>
    <g id="ytick_16">
     <g id="line2d_20">
      <g>
       <use style="stroke:#000000;stroke-width:0.6;" x="87.4152" xlink:href="#mcb2c523ec2" y="340.466608"/>
      </g>
     </g>
    </g>
    <g id="ytick_17">
     <g id="line2d_21">
      <g>
       <use style="stroke:#000000;stroke-width:0.6;" x="87.4152" xlink:href="#mcb2c523ec2" y="336.007598"/>
      </g>
     </g>
    </g>
    <g id="ytick_18">
     <g id="line2d_22">
      <g>
       <use style="stroke:#000000;stroke-width:0.6;" x="87.4152" xlink:href="#mcb2c523ec2" y="305.777832"/>
      </g>
     </g>
    </g>
    <g id="ytick_19">
     <g id="line2d_23">
      <g>
       <use style="stroke:#000000;stroke-width:0.6;" x="87.4152" xlink:href="#mcb2c523ec2" y="290.427804"/>
      </g>
     </g>
    </g>
    <g id="ytick_20">
     <g id="line2d_24">
      <g>
       <use style="stroke:#000000;stroke-width:0.6;" x="87.4152" xlink:href="#mcb2c523ec2" y="279.536786"/>
      </g>
     </g>
    </g>
    <g id="ytick_21">
     <g id="line2d_25">
      <g>
       <use style="stroke:#000000;stroke-width:0.6;" x="87.4152" xlink:href="#mcb2c523ec2" y="271.089056"/>
      </g>
     </g>
    </g>
    <g id="ytick_22">
     <g id="line2d_26">
      <g>
       <use style="stroke:#000000;stroke-width:0.6;" x="87.4152" xlink:href="#mcb2c523ec2" y="264.186758"/>
      </g>
     </g>
    </g>
    <g id="ytick_23">
     <g id="line2d_27">
      <g>
       <use style="stroke:#000000;stroke-width:0.6;" x="87.4152" xlink:href="#mcb2c523ec2" y="258.350948"/>
      </g>
     </g>
    </g>
    <g id="ytick_24">
     <g id="line2d_28">
      <g>
       <use style="stroke:#000000;stroke-width:0.6;" x="87.4152" xlink:href="#mcb2c523ec2" y="253.29574"/>
      </g>
     </g>
    </g>
    <g id="ytick_25">
     <g id="line2d_29">
      <g>
       <use style="stroke:#000000;stroke-width:0.6;" x="87.4152" xlink:href="#mcb2c523ec2" y="248.83673"/>
      </g>
     </g>
    </g>
    <g id="ytick_26">
     <g id="line2d_30">
      <g>
       <use style="stroke:#000000;stroke-width:0.6;" x="87.4152" xlink:href="#mcb2c523ec2" y="218.606964"/>
      </g>
     </g>
    </g>
    <g id="ytick_27">
     <g id="line2d_31">
      <g>
       <use style="stroke:#000000;stroke-width:0.6;" x="87.4152" xlink:href="#mcb2c523ec2" y="203.256936"/>
      </g>
     </g>
    </g>
    <g id="ytick_28">
     <g id="line2d_32">
      <g>
       <use style="stroke:#000000;stroke-width:0.6;" x="87.4152" xlink:href="#mcb2c523ec2" y="192.365918"/>
      </g>
     </g>
    </g>
    <g id="ytick_29">
     <g id="line2d_33">
      <g>
       <use style="stroke:#000000;stroke-width:0.6;" x="87.4152" xlink:href="#mcb2c523ec2" y="183.918188"/>
      </g>
     </g>
    </g>
    <g id="ytick_30">
     <g id="line2d_34">
      <g>
       <use style="stroke:#000000;stroke-width:0.6;" x="87.4152" xlink:href="#mcb2c523ec2" y="177.01589"/>
      </g>
     </g>
    </g>
    <g id="ytick_31">
     <g id="line2d_35">
      <g>
       <use style="stroke:#000000;stroke-width:0.6;" x="87.4152" xlink:href="#mcb2c523ec2" y="171.180081"/>
      </g>
     </g>
    </g>
    <g id="ytick_32">
     <g id="line2d_36">
      <g>
       <use style="stroke:#000000;stroke-width:0.6;" x="87.4152" xlink:href="#mcb2c523ec2" y="166.124872"/>
      </g>
     </g>
    </g>
    <g id="ytick_33">
     <g id="line2d_37">
      <g>
       <use style="stroke:#000000;stroke-width:0.6;" x="87.4152" xlink:href="#mcb2c523ec2" y="161.665863"/>
      </g>
     </g>
    </g>
    <g id="ytick_34">
     <g id="line2d_38">
      <g>
       <use style="stroke:#000000;stroke-width:0.6;" x="87.4152" xlink:href="#mcb2c523ec2" y="131.436097"/>
      </g>
     </g>
    </g>
    <g id="ytick_35">
     <g id="line2d_39">
      <g>
       <use style="stroke:#000000;stroke-width:0.6;" x="87.4152" xlink:href="#mcb2c523ec2" y="116.086069"/>
      </g>
     </g>
    </g>
    <g id="ytick_36">
     <g id="line2d_40">
      <g>
       <use style="stroke:#000000;stroke-width:0.6;" x="87.4152" xlink:href="#mcb2c523ec2" y="105.195051"/>
      </g>
     </g>
    </g>
    <g id="ytick_37">
     <g id="line2d_41">
      <g>
       <use style="stroke:#000000;stroke-width:0.6;" x="87.4152" xlink:href="#mcb2c523ec2" y="96.747321"/>
      </g>
     </g>
    </g>
    <g id="ytick_38">
     <g id="line2d_42">
      <g>
       <use style="stroke:#000000;stroke-width:0.6;" x="87.4152" xlink:href="#mcb2c523ec2" y="89.845023"/>
      </g>
     </g>
    </g>
    <g id="ytick_39">
     <g id="line2d_43">
      <g>
       <use style="stroke:#000000;stroke-width:0.6;" x="87.4152" xlink:href="#mcb2c523ec2" y="84.009213"/>
      </g>
     </g>
    </g>
    <g id="ytick_40">
     <g id="line2d_44">
      <g>
       <use style="stroke:#000000;stroke-width:0.6;" x="87.4152" xlink:href="#mcb2c523ec2" y="78.954005"/>
      </g>
     </g>
    </g>
    <g id="ytick_41">
     <g id="line2d_45">
      <g>
       <use style="stroke:#000000;stroke-width:0.6;" x="87.4152" xlink:href="#mcb2c523ec2" y="74.494995"/>
      </g>
     </g>
    </g>
    <g id="ytick_42">
     <g id="line2d_46">
      <g>
       <use style="stroke:#000000;stroke-width:0.6;" x="87.4152" xlink:href="#mcb2c523ec2" y="44.265229"/>
      </g>
     </g>
    </g>
    <g id="text_11">
     <!-- $\tau (l_p/\sigma) &lt;\delta w(t_0; \tau)^2&gt;$ -->
     <defs>
      <path d="M 73.1875 49.21875 
L 22.796875 31.296875 
L 73.1875 13.484375 
L 73.1875 4.59375 
L 10.59375 27.296875 
L 10.59375 35.40625 
L 73.1875 58.109375 
z
" id="DejaVuSans-60"/>
      <path d="M 54.25 63.328125 
Q 49.953125 66.75 38.28125 66.75 
Q 25.921875 66.75 24.8125 61.03125 
Q 23.921875 56.546875 36.375 54.203125 
Q 46.140625 52.390625 50.828125 46.921875 
Q 56.5 40.328125 53.859375 26.8125 
Q 51.3125 13.875 43.171875 6.25 
Q 34.96875 -1.421875 23.25 -1.421875 
Q 11.578125 -1.421875 6.34375 6.25 
Q 1.125 13.875 3.765625 27.296875 
Q 5.671875 37.25 13.921875 45.3125 
Q 17.140625 48.4375 21.140625 50.203125 
Q 14.265625 54.046875 15.625 60.9375 
Q 18.21875 74.21875 39.75 74.21875 
Q 50.53125 74.21875 55.71875 70.796875 
z
M 27.390625 47.75 
Q 23.828125 46.34375 20.40625 42.78125 
Q 15.140625 37.25 13.234375 27.296875 
Q 11.28125 17.390625 14.359375 11.8125 
Q 17.484375 6.203125 24.75 6.203125 
Q 31.9375 6.203125 37.203125 11.859375 
Q 42.53125 17.53125 44.34375 26.8125 
Q 46.1875 36.53125 42.671875 41.21875 
Q 38.921875 46.234375 32.859375 46.78125 
Q 29.78125 47.078125 27.390625 47.75 
z
" id="DejaVuSans-Oblique-948"/>
      <path d="M 8.5 54.6875 
L 17.390625 54.6875 
L 19.671875 10.6875 
L 40.09375 54.6875 
L 50.484375 54.6875 
L 53.515625 10.6875 
L 72.90625 54.6875 
L 81.890625 54.6875 
L 56.890625 0 
L 46.390625 0 
L 43.703125 45.3125 
L 22.796875 0 
L 12.203125 0 
z
" id="DejaVuSans-Oblique-119"/>
      <path d="M 42.28125 54.6875 
L 40.921875 47.703125 
L 23 47.703125 
L 17.1875 18.015625 
Q 16.890625 16.359375 16.75 15.234375 
Q 16.609375 14.109375 16.609375 13.484375 
Q 16.609375 10.359375 18.484375 8.9375 
Q 20.359375 7.515625 24.515625 7.515625 
L 33.59375 7.515625 
L 32.078125 0 
L 23.484375 0 
Q 15.484375 0 11.546875 3.125 
Q 7.625 6.25 7.625 12.59375 
Q 7.625 13.71875 7.765625 15.0625 
Q 7.90625 16.40625 8.203125 18.015625 
L 14.015625 47.703125 
L 6.390625 47.703125 
L 7.8125 54.6875 
L 15.28125 54.6875 
L 18.3125 70.21875 
L 27.296875 70.21875 
L 24.3125 54.6875 
z
" id="DejaVuSans-Oblique-116"/>
      <path d="M 11.71875 51.703125 
L 22.015625 51.703125 
L 22.015625 39.3125 
L 11.71875 39.3125 
z
M 11.71875 12.40625 
L 22.015625 12.40625 
L 22.015625 4 
L 14.015625 -11.625 
L 7.71875 -11.625 
L 11.71875 4 
z
" id="DejaVuSans-59"/>
      <path d="M 10.59375 49.21875 
L 10.59375 58.109375 
L 73.1875 35.40625 
L 73.1875 27.296875 
L 10.59375 4.59375 
L 10.59375 13.484375 
L 60.890625 31.296875 
z
" id="DejaVuSans-62"/>
     </defs>
     <g transform="translate(23.2152 338.822)rotate(-90)scale(0.2 -0.2)">
      <use transform="translate(0 0.765625)" xlink:href="#DejaVuSans-Oblique-964"/>
      <use transform="translate(60.205078 0.765625)" xlink:href="#DejaVuSans-40"/>
      <use transform="translate(99.21875 0.765625)" xlink:href="#DejaVuSans-Oblique-108"/>
      <use transform="translate(127.001953 -15.640625)scale(0.7)" xlink:href="#DejaVuSans-Oblique-112"/>
      <use transform="translate(174.169922 0.765625)" xlink:href="#DejaVuSans-47"/>
      <use transform="translate(207.861328 0.765625)" xlink:href="#DejaVuSans-Oblique-963"/>
      <use transform="translate(271.240234 0.765625)" xlink:href="#DejaVuSans-41"/>
      <use transform="translate(329.736328 0.765625)" xlink:href="#DejaVuSans-60"/>
      <use transform="translate(433.007812 0.765625)" xlink:href="#DejaVuSans-Oblique-948"/>
      <use transform="translate(494.189453 0.765625)" xlink:href="#DejaVuSans-Oblique-119"/>
      <use transform="translate(575.976562 0.765625)" xlink:href="#DejaVuSans-40"/>
      <use transform="translate(614.990234 0.765625)" xlink:href="#DejaVuSans-Oblique-116"/>
      <use transform="translate(654.199219 -15.640625)scale(0.7)" xlink:href="#DejaVuSans-48"/>
      <use transform="translate(701.469727 0.765625)" xlink:href="#DejaVuSans-59"/>
      <use transform="translate(754.643555 0.765625)" xlink:href="#DejaVuSans-Oblique-964"/>
      <use transform="translate(814.848633 0.765625)" xlink:href="#DejaVuSans-41"/>
      <use transform="translate(854.819336 39.046875)scale(0.7)" xlink:href="#DejaVuSans-50"/>
      <use transform="translate(921.572266 0.765625)" xlink:href="#DejaVuSans-62"/>
     </g>
    </g>
   </g>
   <g id="line2d_47">
    <path clip-path="url(#pced8856fdd)" d="M 277.37203 259.788857 
L 304.359592 261.148361 
L 320.146304 262.350316 
L 331.347155 263.378965 
L 340.035209 264.371377 
L 347.133867 265.214983 
L 358.334717 266.695171 
L 362.920579 267.389467 
L 367.022772 267.991853 
L 374.121429 269.192963 
L 380.123258 270.146565 
L 387.682688 271.623294 
L 392.013239 272.359463 
L 399.45194 273.833935 
L 404.22544 274.587841 
L 411.073712 275.99447 
L 416.895703 277.061317 
L 422.897533 278.048204 
L 428.899362 279.182095 
L 434.787513 280.298856 
L 441.08099 281.074813 
L 446.999714 282.051295 
L 453.427065 282.764264 
L 459.307791 283.316834 
L 465.361568 283.984321 
L 471.407869 284.11481 
L 477.561787 284.244411 
L 483.661076 284.147489 
L 489.607244 284.129659 
L 495.775818 283.70136 
L 501.838721 282.964872 
L 507.927634 282.281405 
L 513.914549 281.615378 
L 520.031286 280.213941 
L 526.109534 279.369986 
L 532.158075 278.168361 
L 538.215886 277.410602 
L 544.286154 275.829647 
L 550.352401 274.807569 
L 556.419377 274.070995 
L 562.472673 272.798165 
L 568.555242 271.570761 
L 574.613594 270.210365 
L 580.669179 269.73236 
L 586.744609 268.762782 
L 592.809414 267.874186 
L 598.871874 266.864507 
L 604.945759 265.981478 
L 611.005548 263.879509 
L 617.072809 265.409228 
L 623.141464 263.711383 
L 629.205114 262.27535 
L 635.27175 262.097188 
L 641.338655 262.121931 
L 647.404887 262.014812 
L 653.47053 259.31858 
L 659.535832 263.250794 
L 665.602294 262.791679 
L 671.669297 261.175972 
L 677.734231 260.424042 
L 683.800709 262.405113 
L 689.867297 260.386366 
L 695.933035 258.408208 
L 701.999204 264.342445 
L 708.06547 257.62016 
L 714.131514 262.212063 
L 720.197776 265.04844 
L 726.263686 259.227646 
L 732.32981 264.096616 
L 738.395828 264.048415 
L 744.461993 268.280145 
L 750.528195 256.662598 
L 756.594198 272.643074 
L 762.660325 265.862749 
L 768.726471 260.341571 
L 774.79256 271.734355 
L 780.858653 279.926804 
L 786.92477 261.724496 
L 792.990822 277.31361 
L 799.056966 286.24754 
L 805.123036 310.558295 
L 811.189166 258.684549 
L 817.25524 282.612215 
L 823.321342 274.587599 
L 829.387474 274.470363 
L 835.453554 273.667086 
L 841.519663 279.863056 
L 847.585765 279.071675 
L 853.651875 310.23411 
L 859.71798 280.311949 
L 865.784082 334.354681 
L 871.850187 421.761273 
L 877.916291 396.913204 
" style="fill:none;stroke:#0010ff;stroke-linecap:square;stroke-width:1.5;"/>
   </g>
   <g id="line2d_48">
    <path clip-path="url(#pced8856fdd)" d="M 241.696413 260.580191 
L 268.683975 261.119522 
L 284.470687 261.630458 
L 295.671538 262.08752 
L 304.359592 262.556199 
L 311.45825 262.945466 
L 322.6591 263.74715 
L 327.244962 264.051706 
L 331.347155 264.422717 
L 338.445812 265.037882 
L 344.447641 265.597059 
L 352.007071 266.279361 
L 356.337622 266.755396 
L 363.776323 267.611512 
L 368.549823 267.969893 
L 375.398095 268.664718 
L 381.220086 269.220376 
L 387.221916 269.797175 
L 393.223745 270.141437 
L 399.111896 270.434706 
L 405.405373 270.609755 
L 411.324097 270.832114 
L 417.751448 270.598171 
L 423.632174 270.596898 
L 429.685951 269.977644 
L 435.732252 269.210683 
L 441.88617 268.108276 
L 447.985459 267.095247 
L 453.931627 265.420999 
L 460.100201 263.98345 
L 466.163105 261.971996 
L 472.147494 259.860727 
L 478.238932 257.509285 
L 484.35567 255.209944 
L 490.368425 252.771489 
L 496.482458 250.232122 
L 502.540269 247.486703 
L 508.569488 245.169498 
L 514.64166 242.831169 
L 520.713706 240.121889 
L 526.797056 237.255975 
L 532.857622 235.031198 
L 538.919145 232.508943 
L 544.977443 230.805926 
L 551.055202 228.477977 
L 557.110193 226.442086 
L 563.186158 224.405038 
L 569.244218 222.268432 
L 575.315141 220.677214 
L 581.378207 219.199969 
L 587.444186 218.387723 
L 593.510961 215.906524 
L 599.576306 214.350927 
L 605.642678 215.710233 
L 611.70604 212.796172 
L 617.772549 214.214228 
L 623.838951 209.813665 
L 629.904841 210.850693 
L 635.970324 209.805057 
L 642.035962 209.309525 
L 648.101147 211.721459 
L 654.167286 205.852394 
L 660.233203 212.709548 
L 666.298578 206.05199 
L 672.364785 208.80518 
L 678.430259 205.471426 
L 684.49619 207.219184 
L 690.562015 203.829988 
L 696.627635 212.378578 
L 702.693276 211.673791 
L 708.759005 208.894444 
L 714.824841 201.518851 
L 720.890626 207.996623 
L 726.956423 206.323916 
L 733.022144 203.2201 
L 739.087858 208.79096 
L 745.153621 213.941425 
L 751.219384 217.727233 
L 757.285104 198.095249 
L 763.350865 209.513711 
L 769.416581 204.975643 
L 775.482357 197.679039 
L 781.548119 197.994935 
L 787.613856 204.223405 
L 793.679597 186.166331 
L 799.745344 211.421934 
L 805.811092 219.512902 
L 811.876852 205.436782 
L 817.942605 225.151415 
L 824.008353 208.510088 
L 830.074093 222.050088 
L 836.139846 171.078527 
L 842.205596 180.446023 
" style="fill:none;stroke:#00a4ff;stroke-linecap:square;stroke-width:1.5;"/>
   </g>
   <g id="line2d_49">
    <path clip-path="url(#pced8856fdd)" d="M 214.708851 260.712939 
L 241.696413 260.933962 
L 257.483125 261.146651 
L 268.683975 261.37707 
L 277.37203 261.525868 
L 284.470687 261.699876 
L 295.671538 262.030221 
L 300.257399 262.174077 
L 304.359592 262.310395 
L 311.45825 262.49829 
L 317.460079 262.711026 
L 325.019509 263.020496 
L 329.350059 263.10421 
L 336.788761 263.330546 
L 341.562261 263.385297 
L 348.410533 263.368071 
L 354.232524 263.367303 
L 360.234353 263.231566 
L 366.236183 262.939973 
L 372.124334 262.498842 
L 378.417811 261.855294 
L 384.336535 261.09387 
L 390.763886 259.844546 
L 396.644611 258.563394 
L 402.698388 256.977008 
L 408.744689 255.009571 
L 414.898608 252.763508 
L 420.997896 250.202399 
L 426.944065 247.670758 
L 433.112639 244.553198 
L 439.175542 241.460099 
L 445.159932 238.353919 
L 451.251369 235.146328 
L 457.291539 231.799439 
L 463.380863 228.429967 
L 469.438834 225.304431 
L 475.504728 222.238254 
L 481.581926 218.703687 
L 487.654098 215.717647 
L 493.696066 212.570303 
L 499.783769 209.528862 
L 505.826016 206.519102 
L 511.893892 203.485235 
L 517.973755 200.826299 
L 524.026242 198.397852 
L 530.099012 195.848417 
L 536.158176 193.434898 
L 542.230713 191.497737 
L 548.290579 188.665662 
L 554.358983 187.508425 
L 560.424111 185.818219 
L 566.4863 184.458714 
L 572.553029 180.979267 
L 578.617762 180.458985 
L 584.683605 177.449819 
L 590.747684 177.478829 
L 596.813083 176.767709 
L 602.879037 173.78229 
L 608.943803 176.551713 
L 615.009727 173.847559 
L 621.074784 172.48669 
L 627.139685 172.27147 
L 633.204692 169.87344 
L 639.270254 170.309196 
L 645.334996 168.643623 
L 651.400278 166.138075 
L 657.465606 173.203217 
L 663.530735 166.146509 
L 669.59577 173.19707 
L 675.66078 168.890294 
L 681.726022 180.656954 
L 687.791213 167.312577 
L 693.856252 179.855222 
L 699.921422 186.247693 
L 705.98664 181.691158 
L 712.051771 203.358081 
L 718.116985 185.484887 
L 724.182154 186.432762 
L 730.247299 172.846025 
L 736.312442 202.432141 
L 742.3776 187.753314 
L 748.442782 205.843577 
L 754.50793 241.471392 
L 760.573077 209.2651 
L 766.638245 203.117539 
L 772.70339 208.911219 
L 778.768558 199.610423 
L 784.833711 240.349789 
L 790.898866 225.681509 
L 796.964025 222.840365 
L 803.029182 300.365339 
L 809.094343 305.990343 
L 815.1595 285.836269 
" style="fill:none;stroke:#40ffb7;stroke-linecap:square;stroke-width:1.5;"/>
   </g>
   <g id="line2d_50">
    <path clip-path="url(#pced8856fdd)" d="M 187.721288 260.606378 
L 214.708851 260.557454 
L 230.495563 260.574379 
L 241.696413 260.519757 
L 250.384468 260.548749 
L 257.483125 260.520075 
L 268.683975 260.351019 
L 273.269837 260.332364 
L 277.37203 260.308604 
L 284.470687 260.097397 
L 290.472517 259.935069 
L 298.031947 259.590681 
L 302.362497 259.39062 
L 309.801199 258.921049 
L 314.574698 258.634875 
L 321.42297 257.838814 
L 327.244962 257.0651 
L 333.246791 256.112909 
L 339.24862 254.882619 
L 345.136771 253.492104 
L 351.430249 251.798472 
L 357.348973 249.759253 
L 363.776323 247.337565 
L 369.657049 244.94093 
L 375.710826 242.256722 
L 381.757127 239.082409 
L 387.911046 235.655593 
L 393.815171 232.250446 
L 399.956502 228.660703 
L 405.982196 224.817377 
L 412.065735 220.992045 
L 418.172369 216.970862 
L 424.174199 213.104894 
L 430.303977 209.412726 
L 436.327698 205.709908 
L 442.39513 201.920132 
L 448.469127 198.271162 
L 454.553271 194.676018 
L 460.596193 191.14963 
L 466.678404 187.336502 
L 472.718929 184.524686 
L 478.794359 181.080465 
L 484.849725 177.844044 
L 490.921624 175.760414 
L 496.983414 172.905442 
L 503.052341 170.495514 
L 509.109904 168.221045 
L 515.173887 166.789682 
L 521.236329 163.609273 
L 527.301673 161.557275 
L 533.366009 160.071982 
L 539.433731 157.856437 
L 545.493939 155.912745 
L 551.558788 154.696165 
L 557.623292 154.086615 
L 563.687903 151.818932 
L 569.750931 147.892857 
L 575.814878 147.123817 
L 581.879767 143.530052 
L 587.943366 141.001575 
L 594.007217 142.775287 
L 600.071921 140.175054 
L 606.135104 138.962974 
L 612.199604 138.500414 
L 618.263459 139.49264 
L 624.327214 137.112842 
L 630.391409 136.186074 
L 636.455204 136.319691 
L 642.51912 133.581431 
L 648.583196 141.414337 
L 654.647219 143.675669 
L 660.711148 145.631986 
L 666.775072 146.663222 
L 672.839111 142.553087 
L 678.903148 145.093513 
L 684.967089 143.020561 
L 691.030993 143.215978 
L 697.094986 169.11356 
L 703.158988 163.499624 
L 709.222959 162.268416 
L 715.286946 174.518377 
L 721.350898 184.882108 
L 727.414865 216.284811 
L 733.478863 213.192163 
L 739.542825 188.890845 
L 745.606794 224.880051 
L 751.67076 213.466552 
L 757.734735 228.705514 
L 763.79872 205.572813 
L 769.862681 203.483289 
L 775.926658 208.738604 
L 781.990631 210.187732 
L 788.054605 229.284814 
" style="fill:none;stroke:#b7ff40;stroke-linecap:square;stroke-width:1.5;"/>
   </g>
   <g id="line2d_51">
    <path clip-path="url(#pced8856fdd)" d="M 152.045671 260.262654 
L 179.033234 259.726362 
L 194.819946 259.219761 
L 206.020796 258.692257 
L 214.708851 258.214325 
L 221.807508 257.610162 
L 233.008359 256.62813 
L 237.59422 256.117566 
L 241.696413 255.7312 
L 248.79507 254.616447 
L 254.7969 253.625052 
L 259.995921 252.701687 
L 266.68688 251.282227 
L 272.39486 249.878879 
L 278.899081 248.089604 
L 285.747353 245.916924 
L 291.569345 243.78078 
L 297.571174 241.406805 
L 303.573003 238.76025 
L 309.461154 235.885777 
L 315.754632 232.477965 
L 321.673356 229.089915 
L 327.675185 225.478526 
L 333.981432 221.376864 
L 340.035209 217.279468 
L 346.08151 212.969365 
L 352.007071 208.642064 
L 358.139555 204.130949 
L 364.113424 199.624041 
L 370.163173 195.059864 
L 376.267489 190.442399 
L 382.391948 185.99715 
L 388.408767 181.595072 
L 394.474771 177.398 
L 400.520545 173.284514 
L 406.606984 169.202815 
L 412.64904 165.537381 
L 418.712851 161.701258 
L 424.779507 157.992763 
L 430.821694 154.496906 
L 436.888296 151.24339 
L 442.941866 148.224125 
L 449.003797 145.275306 
L 455.06789 142.651399 
L 461.127639 140.499755 
L 467.186972 137.723465 
L 473.25159 135.927367 
L 479.307157 133.974132 
L 485.367413 132.921391 
L 491.428821 131.96054 
L 497.488925 130.602878 
L 503.548423 128.589869 
L 509.610946 127.291443 
L 515.668146 125.284615 
L 521.728603 123.782069 
L 527.789808 120.766366 
L 533.850684 117.646728 
L 539.910399 115.321961 
L 545.970683 114.203352 
L 552.031739 110.963259 
L 558.091746 108.204494 
L 564.152734 104.863653 
L 570.21321 103.102453 
L 576.273657 104.209604 
L 582.333588 98.559458 
L 588.393961 95.971256 
L 594.454724 98.434323 
L 600.51487 94.15634 
L 606.575344 92.280286 
L 612.63569 94.722399 
L 618.696103 88.778518 
L 624.756492 90.647545 
L 630.816891 79.688654 
L 636.877401 90.043759 
L 642.937794 83.203252 
L 648.998093 82.328383 
L 655.058492 88.067981 
L 661.118933 96.270542 
L 667.179339 99.234109 
L 673.239731 85.19533 
L 679.300099 75.572632 
L 685.360497 87.924481 
L 691.420901 76.041863 
L 697.481302 94.502274 
L 703.541692 77.766155 
L 709.602089 85.514328 
L 715.662489 84.66836 
L 721.722882 100.708067 
L 727.783268 73.453866 
L 733.84366 65.447835 
L 739.904061 168.426293 
L 745.964454 171.688693 
L 752.024854 115.543426 
" style="fill:none;stroke:#ffb900;stroke-linecap:square;stroke-width:1.5;"/>
   </g>
   <g id="line2d_52">
    <path clip-path="url(#pced8856fdd)" d="M 125.058109 259.501126 
L 152.045671 258.250119 
L 167.832383 257.021176 
L 179.033234 255.84137 
L 187.721288 254.6871 
L 194.819946 253.561581 
L 206.020796 251.450084 
L 210.606658 250.416692 
L 214.708851 249.361249 
L 221.807508 247.457079 
L 227.809337 245.594743 
L 233.008359 243.837643 
L 239.699318 241.284406 
L 245.407298 238.914362 
L 251.911519 235.923788 
L 258.759791 232.41689 
L 264.581782 229.233636 
L 270.583612 225.737414 
L 276.585441 222.061233 
L 282.473592 218.211678 
L 288.767069 213.774749 
L 294.685793 209.436262 
L 300.687623 205.006258 
L 306.628282 200.373957 
L 312.734916 195.552754 
L 318.826353 190.635023 
L 324.789804 185.812136 
L 330.955847 180.757776 
L 336.957676 175.880219 
L 343.031674 170.934924 
L 349.033503 166.192799 
L 355.088269 161.541197 
L 361.150509 156.86707 
L 367.255682 152.418275 
L 373.268568 148.354567 
L 379.336669 144.170764 
L 385.419495 140.232097 
L 391.435192 136.620171 
L 397.508266 132.908567 
L 403.560904 129.492862 
L 409.614925 126.049361 
L 415.665155 123.093568 
L 421.730718 120.726396 
L 427.770737 117.966696 
L 433.833282 116.116853 
L 439.889075 114.209585 
L 445.9371 112.59145 
L 451.996047 111.083721 
L 458.050527 110.544587 
L 464.101718 108.2505 
L 470.155907 106.856678 
L 476.208847 106.218514 
L 482.265867 104.668802 
L 488.319548 102.160829 
L 494.373159 101.605936 
L 500.429443 100.186694 
L 506.483666 96.872719 
L 512.537148 95.741372 
L 518.5914 92.762455 
L 524.645355 89.643 
L 530.700339 89.534933 
L 536.754144 86.418508 
L 542.809418 83.853048 
L 548.86308 83.729744 
L 554.917504 81.700482 
L 560.972111 79.284366 
L 567.02629 76.425392 
L 573.080638 71.528471 
L 579.135139 72.382553 
L 585.189377 68.799332 
L 591.243852 69.737837 
L 597.29825 66.771021 
L 603.352583 69.101551 
L 609.406908 63.371918 
L 615.461262 59.776119 
L 621.515733 66.897048 
L 627.570037 53.370757 
L 633.624412 65.299894 
L 639.678731 71.276301 
L 645.733152 59.163844 
L 651.787501 50.882727 
L 657.841862 71.878209 
L 663.896222 69.656497 
L 669.950582 65.635436 
L 676.004934 62.758288 
L 682.059288 80.376339 
L 688.113659 105.632327 
L 694.168002 117.737975 
L 700.222374 71.328563 
L 706.276732 66.200145 
L 712.331092 157.958503 
L 718.385456 263.144098 
L 724.439814 221.830706 
" style="fill:none;stroke:#ff3000;stroke-linecap:square;stroke-width:1.5;"/>
   </g>
   <g id="patch_3">
    <path d="M 87.4152 440.3052 
L 87.4152 32.3388 
" style="fill:none;stroke:#000000;stroke-linecap:square;stroke-linejoin:miter;stroke-width:0.8;"/>
   </g>
   <g id="patch_4">
    <path d="M 915.5592 440.3052 
L 915.5592 32.3388 
" style="fill:none;stroke:#000000;stroke-linecap:square;stroke-linejoin:miter;stroke-width:0.8;"/>
   </g>
   <g id="patch_5">
    <path d="M 87.4152 440.3052 
L 915.5592 440.3052 
" style="fill:none;stroke:#000000;stroke-linecap:square;stroke-linejoin:miter;stroke-width:0.8;"/>
   </g>
   <g id="patch_6">
    <path d="M 87.4152 32.3388 
L 915.5592 32.3388 
" style="fill:none;stroke:#000000;stroke-linecap:square;stroke-linejoin:miter;stroke-width:0.8;"/>
   </g>
   <g id="text_12">
    <!-- $N = 10, \phi = 0.65$ $(N_{iter}=10^7, dt=10^{-3})$ -->
    <defs>
     <path d="M 16.890625 72.90625 
L 30.171875 72.90625 
L 50.296875 10.40625 
L 62.5 72.90625 
L 72.125 72.90625 
L 57.90625 0 
L 44.578125 0 
L 24.515625 62.890625 
L 12.3125 0 
L 2.6875 0 
z
" id="DejaVuSans-Oblique-78"/>
     <path d="M 10.59375 45.40625 
L 73.1875 45.40625 
L 73.1875 37.203125 
L 10.59375 37.203125 
z
M 10.59375 25.484375 
L 73.1875 25.484375 
L 73.1875 17.1875 
L 10.59375 17.1875 
z
" id="DejaVuSans-61"/>
     <path d="M 11.71875 12.40625 
L 22.015625 12.40625 
L 22.015625 4 
L 14.015625 -11.625 
L 7.71875 -11.625 
L 11.71875 4 
z
" id="DejaVuSans-44"/>
     <path d="M 46.734375 75.984375 
L 42.78125 55.8125 
Q 52.546875 55.8125 57.5625 48.34375 
Q 62.75 40.71875 60.15625 27.296875 
Q 57.515625 13.875 49.359375 6.25 
Q 41.453125 -1.21875 31.6875 -1.21875 
L 27.875 -20.796875 
L 18.953125 -20.796875 
L 22.75 -1.21875 
Q 13.03125 -1.21875 7.953125 6.25 
Q 2.78125 13.875 5.421875 27.296875 
Q 8.015625 40.71875 16.15625 48.34375 
Q 24.125 55.8125 33.84375 55.8125 
L 37.796875 75.984375 
z
M 33.25 6.78125 
Q 38.765625 6.78125 43.5 11.8125 
Q 48.6875 17.4375 50.6875 27.296875 
Q 52.640625 37.0625 49.515625 42.78125 
Q 46.734375 47.796875 41.21875 47.796875 
z
M 24.3125 6.78125 
L 32.28125 47.796875 
Q 26.8125 47.796875 22.078125 42.78125 
Q 16.75 37.0625 14.890625 27.296875 
Q 13.03125 17.4375 16.0625 11.8125 
Q 18.796875 6.78125 24.3125 6.78125 
z
" id="DejaVuSans-Oblique-981"/>
     <path d="M 10.6875 12.40625 
L 21 12.40625 
L 21 0 
L 10.6875 0 
z
" id="DejaVuSans-46"/>
     <path d="M 33.015625 40.375 
Q 26.375 40.375 22.484375 35.828125 
Q 18.609375 31.296875 18.609375 23.390625 
Q 18.609375 15.53125 22.484375 10.953125 
Q 26.375 6.390625 33.015625 6.390625 
Q 39.65625 6.390625 43.53125 10.953125 
Q 47.40625 15.53125 47.40625 23.390625 
Q 47.40625 31.296875 43.53125 35.828125 
Q 39.65625 40.375 33.015625 40.375 
z
M 52.59375 71.296875 
L 52.59375 62.3125 
Q 48.875 64.0625 45.09375 64.984375 
Q 41.3125 65.921875 37.59375 65.921875 
Q 27.828125 65.921875 22.671875 59.328125 
Q 17.53125 52.734375 16.796875 39.40625 
Q 19.671875 43.65625 24.015625 45.921875 
Q 28.375 48.1875 33.59375 48.1875 
Q 44.578125 48.1875 50.953125 41.515625 
Q 57.328125 34.859375 57.328125 23.390625 
Q 57.328125 12.15625 50.6875 5.359375 
Q 44.046875 -1.421875 33.015625 -1.421875 
Q 20.359375 -1.421875 13.671875 8.265625 
Q 6.984375 17.96875 6.984375 36.375 
Q 6.984375 53.65625 15.1875 63.9375 
Q 23.390625 74.21875 37.203125 74.21875 
Q 40.921875 74.21875 44.703125 73.484375 
Q 48.484375 72.75 52.59375 71.296875 
z
" id="DejaVuSans-54"/>
     <path d="M 10.796875 72.90625 
L 49.515625 72.90625 
L 49.515625 64.59375 
L 19.828125 64.59375 
L 19.828125 46.734375 
Q 21.96875 47.46875 24.109375 47.828125 
Q 26.265625 48.1875 28.421875 48.1875 
Q 40.625 48.1875 47.75 41.5 
Q 54.890625 34.8125 54.890625 23.390625 
Q 54.890625 11.625 47.5625 5.09375 
Q 40.234375 -1.421875 26.90625 -1.421875 
Q 22.3125 -1.421875 17.546875 -0.640625 
Q 12.796875 0.140625 7.71875 1.703125 
L 7.71875 11.625 
Q 12.109375 9.234375 16.796875 8.0625 
Q 21.484375 6.890625 26.703125 6.890625 
Q 35.15625 6.890625 40.078125 11.328125 
Q 45.015625 15.765625 45.015625 23.390625 
Q 45.015625 31 40.078125 35.4375 
Q 35.15625 39.890625 26.703125 39.890625 
Q 22.75 39.890625 18.8125 39.015625 
Q 14.890625 38.140625 10.796875 36.28125 
z
" id="DejaVuSans-53"/>
     <path id="DejaVuSans-32"/>
     <path d="M 18.3125 75.984375 
L 27.296875 75.984375 
L 25.09375 64.59375 
L 16.109375 64.59375 
z
M 14.203125 54.6875 
L 23.1875 54.6875 
L 12.5 0 
L 3.515625 0 
z
" id="DejaVuSans-Oblique-105"/>
     <path d="M 48.09375 32.234375 
Q 48.25 33.015625 48.3125 33.84375 
Q 48.390625 34.671875 48.390625 35.5 
Q 48.390625 41.453125 44.890625 44.921875 
Q 41.40625 48.390625 35.40625 48.390625 
Q 28.71875 48.390625 23.578125 44.15625 
Q 18.453125 39.9375 15.828125 32.171875 
z
M 55.90625 25.203125 
L 14.109375 25.203125 
Q 13.8125 23.34375 13.71875 22.265625 
Q 13.625 21.1875 13.625 20.40625 
Q 13.625 13.625 17.796875 9.90625 
Q 21.96875 6.203125 29.59375 6.203125 
Q 35.453125 6.203125 40.671875 7.515625 
Q 45.90625 8.84375 50.390625 11.375 
L 48.6875 2.484375 
Q 43.84375 0.53125 38.6875 -0.4375 
Q 33.546875 -1.421875 28.21875 -1.421875 
Q 16.84375 -1.421875 10.71875 4.015625 
Q 4.59375 9.46875 4.59375 19.484375 
Q 4.59375 28.03125 7.640625 35.375 
Q 10.6875 42.71875 16.609375 48.484375 
Q 20.40625 52.09375 25.65625 54.046875 
Q 30.90625 56 36.8125 56 
Q 46.09375 56 51.578125 50.4375 
Q 57.078125 44.875 57.078125 35.5 
Q 57.078125 33.25 56.78125 30.6875 
Q 56.5 28.125 55.90625 25.203125 
z
" id="DejaVuSans-Oblique-101"/>
     <path d="M 44.578125 46.390625 
Q 43.21875 47.125 41.453125 47.515625 
Q 39.703125 47.90625 37.703125 47.90625 
Q 30.515625 47.90625 25.140625 42.453125 
Q 19.78125 37.015625 18.015625 27.875 
L 12.5 0 
L 3.515625 0 
L 14.203125 54.6875 
L 23.1875 54.6875 
L 21.484375 46.1875 
Q 25.046875 50.921875 30 53.453125 
Q 34.96875 56 40.578125 56 
Q 42.046875 56 43.453125 55.828125 
Q 44.875 55.671875 46.296875 55.28125 
z
" id="DejaVuSans-Oblique-114"/>
     <path d="M 8.203125 72.90625 
L 55.078125 72.90625 
L 55.078125 68.703125 
L 28.609375 0 
L 18.3125 0 
L 43.21875 64.59375 
L 8.203125 64.59375 
z
" id="DejaVuSans-55"/>
     <path d="M 41.796875 8.203125 
Q 38.1875 3.46875 33.25 1.015625 
Q 28.328125 -1.421875 22.3125 -1.421875 
Q 14.109375 -1.421875 9.34375 4.171875 
Q 4.59375 9.765625 4.59375 19.484375 
Q 4.59375 27.59375 7.46875 34.9375 
Q 10.359375 42.28125 15.828125 48.09375 
Q 19.4375 51.953125 23.96875 53.96875 
Q 28.515625 56 33.5 56 
Q 38.765625 56 42.796875 53.453125 
Q 46.828125 50.921875 49.03125 46.1875 
L 54.890625 75.984375 
L 63.921875 75.984375 
L 49.125 0 
L 40.09375 0 
z
M 13.921875 21.09375 
Q 13.921875 14.015625 17.109375 10.0625 
Q 20.3125 6.109375 25.984375 6.109375 
Q 30.171875 6.109375 33.765625 8.125 
Q 37.359375 10.15625 40.09375 14.109375 
Q 42.96875 18.21875 44.625 23.578125 
Q 46.296875 28.953125 46.296875 34.1875 
Q 46.296875 40.96875 43.09375 44.765625 
Q 39.890625 48.578125 34.28125 48.578125 
Q 30.03125 48.578125 26.359375 46.578125 
Q 22.703125 44.578125 20.125 40.828125 
Q 17.28125 36.765625 15.59375 31.390625 
Q 13.921875 26.03125 13.921875 21.09375 
z
" id="DejaVuSans-Oblique-100"/>
    </defs>
    <g transform="translate(273.1272 26.3388)scale(0.24 -0.24)">
     <use transform="translate(0 0.765625)" xlink:href="#DejaVuSans-Oblique-78"/>
     <use transform="translate(94.287109 0.765625)" xlink:href="#DejaVuSans-61"/>
     <use transform="translate(197.558594 0.765625)" xlink:href="#DejaVuSans-49"/>
     <use transform="translate(261.181641 0.765625)" xlink:href="#DejaVuSans-48"/>
     <use transform="translate(324.804688 0.765625)" xlink:href="#DejaVuSans-44"/>
     <use transform="translate(376.074219 0.765625)" xlink:href="#DejaVuSans-Oblique-981"/>
     <use transform="translate(461.523438 0.765625)" xlink:href="#DejaVuSans-61"/>
     <use transform="translate(564.794922 0.765625)" xlink:href="#DejaVuSans-48"/>
     <use transform="translate(628.417969 0.765625)" xlink:href="#DejaVuSans-46"/>
     <use transform="translate(660.205078 0.765625)" xlink:href="#DejaVuSans-54"/>
     <use transform="translate(723.828125 0.765625)" xlink:href="#DejaVuSans-53"/>
     <use transform="translate(787.451172 0.765625)" xlink:href="#DejaVuSans-32"/>
     <use transform="translate(819.238281 0.765625)" xlink:href="#DejaVuSans-40"/>
     <use transform="translate(858.251953 0.765625)" xlink:href="#DejaVuSans-Oblique-78"/>
     <use transform="translate(933.056641 -15.640625)scale(0.7)" xlink:href="#DejaVuSans-Oblique-105"/>
     <use transform="translate(952.504883 -15.640625)scale(0.7)" xlink:href="#DejaVuSans-Oblique-116"/>
     <use transform="translate(979.951172 -15.640625)scale(0.7)" xlink:href="#DejaVuSans-Oblique-101"/>
     <use transform="translate(1023.017578 -15.640625)scale(0.7)" xlink:href="#DejaVuSans-Oblique-114"/>
     <use transform="translate(1074.013672 0.765625)" xlink:href="#DejaVuSans-61"/>
     <use transform="translate(1177.285156 0.765625)" xlink:href="#DejaVuSans-49"/>
     <use transform="translate(1240.908203 0.765625)" xlink:href="#DejaVuSans-48"/>
     <use transform="translate(1305.488281 39.046875)scale(0.7)" xlink:href="#DejaVuSans-55"/>
     <use transform="translate(1352.758789 0.765625)" xlink:href="#DejaVuSans-44"/>
     <use transform="translate(1404.02832 0.765625)" xlink:href="#DejaVuSans-Oblique-100"/>
     <use transform="translate(1467.504883 0.765625)" xlink:href="#DejaVuSans-Oblique-116"/>
     <use transform="translate(1526.196289 0.765625)" xlink:href="#DejaVuSans-61"/>
     <use transform="translate(1629.467773 0.765625)" xlink:href="#DejaVuSans-49"/>
     <use transform="translate(1693.09082 0.765625)" xlink:href="#DejaVuSans-48"/>
     <use transform="translate(1757.670898 39.046875)scale(0.7)" xlink:href="#DejaVuSans-8722"/>
     <use transform="translate(1816.323242 39.046875)scale(0.7)" xlink:href="#DejaVuSans-51"/>
     <use transform="translate(1863.59375 0.765625)" xlink:href="#DejaVuSans-41"/>
    </g>
   </g>
   <g id="legend_1">
    <g id="patch_7">
     <path d="M 810.4392 154.9788 
L 907.1592 154.9788 
Q 909.5592 154.9788 909.5592 152.5788 
L 909.5592 40.7388 
Q 909.5592 38.3388 907.1592 38.3388 
L 810.4392 38.3388 
Q 808.0392 38.3388 808.0392 40.7388 
L 808.0392 152.5788 
Q 808.0392 154.9788 810.4392 154.9788 
z
" style="fill:#ffffff;opacity:0.8;stroke:#cccccc;stroke-linejoin:miter;"/>
    </g>
    <g id="line2d_53">
     <path d="M 812.8392 48.0588 
L 836.8392 48.0588 
" style="fill:none;stroke:#0010ff;stroke-linecap:square;stroke-width:1.5;"/>
    </g>
    <g id="line2d_54"/>
    <g id="text_13">
     <!-- $l_p/\sigma = 2$ -->
     <g transform="translate(846.4392 52.2588)scale(0.12 -0.12)">
      <use transform="translate(0 0.015625)" xlink:href="#DejaVuSans-Oblique-108"/>
      <use transform="translate(27.783203 -16.390625)scale(0.7)" xlink:href="#DejaVuSans-Oblique-112"/>
      <use transform="translate(74.951172 0.015625)" xlink:href="#DejaVuSans-47"/>
      <use transform="translate(108.642578 0.015625)" xlink:href="#DejaVuSans-Oblique-963"/>
      <use transform="translate(191.503906 0.015625)" xlink:href="#DejaVuSans-61"/>
      <use transform="translate(294.775391 0.015625)" xlink:href="#DejaVuSans-50"/>
     </g>
    </g>
    <g id="line2d_55">
     <path d="M 812.8392 66.8988 
L 836.8392 66.8988 
" style="fill:none;stroke:#00a4ff;stroke-linecap:square;stroke-width:1.5;"/>
    </g>
    <g id="line2d_56"/>
    <g id="text_14">
     <!-- $l_p/\sigma = 5$ -->
     <g transform="translate(846.4392 71.0988)scale(0.12 -0.12)">
      <use transform="translate(0 0.015625)" xlink:href="#DejaVuSans-Oblique-108"/>
      <use transform="translate(27.783203 -16.390625)scale(0.7)" xlink:href="#DejaVuSans-Oblique-112"/>
      <use transform="translate(74.951172 0.015625)" xlink:href="#DejaVuSans-47"/>
      <use transform="translate(108.642578 0.015625)" xlink:href="#DejaVuSans-Oblique-963"/>
      <use transform="translate(191.503906 0.015625)" xlink:href="#DejaVuSans-61"/>
      <use transform="translate(294.775391 0.015625)" xlink:href="#DejaVuSans-53"/>
     </g>
    </g>
    <g id="line2d_57">
     <path d="M 812.8392 85.7388 
L 836.8392 85.7388 
" style="fill:none;stroke:#40ffb7;stroke-linecap:square;stroke-width:1.5;"/>
    </g>
    <g id="line2d_58"/>
    <g id="text_15">
     <!-- $l_p/\sigma = 10$ -->
     <g transform="translate(846.4392 89.9388)scale(0.12 -0.12)">
      <use transform="translate(0 0.015625)" xlink:href="#DejaVuSans-Oblique-108"/>
      <use transform="translate(27.783203 -16.390625)scale(0.7)" xlink:href="#DejaVuSans-Oblique-112"/>
      <use transform="translate(74.951172 0.015625)" xlink:href="#DejaVuSans-47"/>
      <use transform="translate(108.642578 0.015625)" xlink:href="#DejaVuSans-Oblique-963"/>
      <use transform="translate(191.503906 0.015625)" xlink:href="#DejaVuSans-61"/>
      <use transform="translate(294.775391 0.015625)" xlink:href="#DejaVuSans-49"/>
      <use transform="translate(358.398438 0.015625)" xlink:href="#DejaVuSans-48"/>
     </g>
    </g>
    <g id="line2d_59">
     <path d="M 812.8392 104.5788 
L 836.8392 104.5788 
" style="fill:none;stroke:#b7ff40;stroke-linecap:square;stroke-width:1.5;"/>
    </g>
    <g id="line2d_60"/>
    <g id="text_16">
     <!-- $l_p/\sigma = 20$ -->
     <g transform="translate(846.4392 108.7788)scale(0.12 -0.12)">
      <use transform="translate(0 0.015625)" xlink:href="#DejaVuSans-Oblique-108"/>
      <use transform="translate(27.783203 -16.390625)scale(0.7)" xlink:href="#DejaVuSans-Oblique-112"/>
      <use transform="translate(74.951172 0.015625)" xlink:href="#DejaVuSans-47"/>
      <use transform="translate(108.642578 0.015625)" xlink:href="#DejaVuSans-Oblique-963"/>
      <use transform="translate(191.503906 0.015625)" xlink:href="#DejaVuSans-61"/>
      <use transform="translate(294.775391 0.015625)" xlink:href="#DejaVuSans-50"/>
      <use transform="translate(358.398438 0.015625)" xlink:href="#DejaVuSans-48"/>
     </g>
    </g>
    <g id="line2d_61">
     <path d="M 812.8392 123.4188 
L 836.8392 123.4188 
" style="fill:none;stroke:#ffb900;stroke-linecap:square;stroke-width:1.5;"/>
    </g>
    <g id="line2d_62"/>
    <g id="text_17">
     <!-- $l_p/\sigma = 50$ -->
     <g transform="translate(846.4392 127.6188)scale(0.12 -0.12)">
      <use transform="translate(0 0.015625)" xlink:href="#DejaVuSans-Oblique-108"/>
      <use transform="translate(27.783203 -16.390625)scale(0.7)" xlink:href="#DejaVuSans-Oblique-112"/>
      <use transform="translate(74.951172 0.015625)" xlink:href="#DejaVuSans-47"/>
      <use transform="translate(108.642578 0.015625)" xlink:href="#DejaVuSans-Oblique-963"/>
      <use transform="translate(191.503906 0.015625)" xlink:href="#DejaVuSans-61"/>
      <use transform="translate(294.775391 0.015625)" xlink:href="#DejaVuSans-53"/>
      <use transform="translate(358.398438 0.015625)" xlink:href="#DejaVuSans-48"/>
     </g>
    </g>
    <g id="line2d_63">
     <path d="M 812.8392 142.2588 
L 836.8392 142.2588 
" style="fill:none;stroke:#ff3000;stroke-linecap:square;stroke-width:1.5;"/>
    </g>
    <g id="line2d_64"/>
    <g id="text_18">
     <!-- $l_p/\sigma = 100$ -->
     <g transform="translate(846.4392 146.4588)scale(0.12 -0.12)">
      <use transform="translate(0 0.015625)" xlink:href="#DejaVuSans-Oblique-108"/>
      <use transform="translate(27.783203 -16.390625)scale(0.7)" xlink:href="#DejaVuSans-Oblique-112"/>
      <use transform="translate(74.951172 0.015625)" xlink:href="#DejaVuSans-47"/>
      <use transform="translate(108.642578 0.015625)" xlink:href="#DejaVuSans-Oblique-963"/>
      <use transform="translate(191.503906 0.015625)" xlink:href="#DejaVuSans-61"/>
      <use transform="translate(294.775391 0.015625)" xlink:href="#DejaVuSans-49"/>
      <use transform="translate(358.398438 0.015625)" xlink:href="#DejaVuSans-48"/>
      <use transform="translate(422.021484 0.015625)" xlink:href="#DejaVuSans-48"/>
     </g>
    </g>
   </g>
  </g>
 </g>
 <defs>
  <clipPath id="pced8856fdd">
   <rect height="407.9664" width="828.144" x="87.4152" y="32.3388"/>
  </clipPath>
 </defs>
</svg>
