<?xml version="1.0" encoding="utf-8" standalone="no"?>
<!DOCTYPE svg PUBLIC "-//W3C//DTD SVG 1.1//EN"
  "http://www.w3.org/Graphics/SVG/1.1/DTD/svg11.dtd">
<!-- Created with matplotlib (https://matplotlib.org/) -->
<svg height="360pt" version="1.1" viewBox="0 0 405 360" width="405pt" xmlns="http://www.w3.org/2000/svg" xmlns:xlink="http://www.w3.org/1999/xlink">
 <defs>
  <style type="text/css">
*{stroke-linecap:butt;stroke-linejoin:round;}
  </style>
 </defs>
 <g id="figure_1">
  <g id="patch_1">
   <path d="M 0 360 
L 405 360 
L 405 0 
L 0 0 
z
" style="fill:#ffffff;"/>
  </g>
  <g id="axes_1">
   <g id="patch_2">
    <path d="M 85.05 295.2 
L 384.75 295.2 
L 384.75 14.4 
L 85.05 14.4 
z
" style="fill:#ffffff;"/>
   </g>
   <g id="line2d_1">
    <path clip-path="url(#pc043127098)" d="M 85.05 50.704266 
L 88.077273 51.810464 
L 91.104545 52.92252 
L 94.131818 54.040517 
L 97.159091 55.164595 
L 100.186364 56.294852 
L 103.213636 57.431411 
L 106.240909 58.574384 
L 109.268182 59.723924 
L 112.295455 60.880143 
L 115.322727 62.043186 
L 118.35 63.213177 
L 121.377273 64.390285 
L 124.404545 65.574661 
L 127.431818 66.766461 
L 130.459091 67.965827 
L 133.486364 69.172946 
L 136.513636 70.387997 
L 139.540909 71.611155 
L 142.568182 72.842603 
L 145.595455 74.082548 
L 148.622727 75.331195 
L 151.65 76.588742 
L 154.677273 77.855422 
L 157.704545 79.131461 
L 160.731818 80.417097 
L 163.759091 81.712579 
L 166.786364 83.018181 
L 169.813636 84.334156 
L 172.840909 85.660794 
L 175.868182 86.998395 
L 178.895455 88.347254 
L 181.922727 89.707706 
L 184.95 91.08009 
L 187.977273 92.46475 
L 191.004545 93.862069 
L 194.031818 95.272423 
L 197.059091 96.696227 
L 200.086364 98.133907 
L 203.113636 99.585921 
L 206.140909 101.052727 
L 209.168182 102.53483 
L 212.195455 104.032745 
L 215.222727 105.54704 
L 218.25 107.078284 
L 221.277273 108.6271 
L 224.304545 110.194128 
L 227.331818 111.780068 
L 230.359091 113.385629 
L 233.386364 115.011594 
L 236.413636 116.658793 
L 239.440909 118.32806 
L 242.468182 120.02035 
L 245.495455 121.736632 
L 248.522727 123.47796 
L 251.55 125.245442 
L 254.577273 127.040279 
L 257.604545 128.863752 
L 260.631818 130.717231 
L 263.659091 132.602178 
L 266.686364 134.52018 
L 269.713636 136.472936 
L 272.740909 138.462279 
L 275.768182 140.49019 
L 278.795455 142.558806 
L 281.822727 144.670458 
L 284.85 146.827661 
L 287.877273 149.033159 
L 290.904545 151.289958 
L 293.931818 153.601318 
L 296.959091 155.970829 
L 299.986364 158.402429 
L 303.013636 160.900444 
L 306.040909 163.46967 
L 309.068182 166.115387 
L 312.095455 168.843473 
L 315.122727 171.660469 
L 318.15 174.573664 
L 321.177273 177.591216 
L 324.204545 180.722298 
L 327.231818 183.977221 
L 330.259091 187.36763 
L 333.286364 190.906707 
L 336.313636 194.609401 
L 339.340909 198.4927 
L 342.368182 202.575917 
L 345.395455 206.881006 
L 348.422727 211.432854 
L 351.45 216.259537 
L 354.477273 221.392415 
L 357.504545 226.865917 
L 360.531818 232.716798 
L 363.559091 238.98242 
L 366.586364 245.697515 
L 369.613636 252.888735 
L 372.640909 260.566455 
L 375.668182 268.714021 
L 378.695455 277.276442 
L 381.722727 286.153015 
L 384.75 295.2 
" style="fill:none;stroke:#0000ff;stroke-linecap:square;stroke-width:4;"/>
   </g>
   <g id="line2d_2">
    <path clip-path="url(#pc043127098)" d="M 85.05 77.82372 
L 88.077273 78.962552 
L 91.104545 80.107227 
L 94.131818 81.257836 
L 97.159091 82.414473 
L 100.186364 83.577233 
L 103.213636 84.746215 
L 106.240909 85.921521 
L 109.268182 87.103253 
L 112.295455 88.291519 
L 115.322727 89.486429 
L 118.35 90.688095 
L 121.377273 91.896635 
L 124.404545 93.112166 
L 127.431818 94.334814 
L 130.459091 95.564703 
L 133.486364 96.801966 
L 136.513636 98.046736 
L 139.540909 99.299153 
L 142.568182 100.55936 
L 145.595455 101.827503 
L 148.622727 103.103737 
L 151.65 104.388218 
L 154.677273 105.681109 
L 157.704545 106.982578 
L 160.731818 108.2928 
L 163.759091 109.611954 
L 166.786364 110.940226 
L 169.813636 112.277809 
L 172.840909 113.624903 
L 175.868182 114.981716 
L 178.895455 116.348462 
L 181.922727 117.725365 
L 184.95 119.112655 
L 187.977273 120.510575 
L 191.004545 121.919374 
L 194.031818 123.339312 
L 197.059091 124.770662 
L 200.086364 126.213706 
L 203.113636 127.668738 
L 206.140909 129.136066 
L 209.168182 130.616012 
L 212.195455 132.108912 
L 215.222727 133.615116 
L 218.25 135.134993 
L 221.277273 136.668929 
L 224.304545 138.217327 
L 227.331818 139.780614 
L 230.359091 141.359236 
L 233.386364 142.953663 
L 236.413636 144.56439 
L 239.440909 146.191942 
L 242.468182 147.83687 
L 245.495455 149.499759 
L 248.522727 151.181228 
L 251.55 152.881934 
L 254.577273 154.602575 
L 257.604545 156.343895 
L 260.631818 158.106685 
L 263.659091 159.891792 
L 266.686364 161.700122 
L 269.713636 163.532646 
L 272.740909 165.390408 
L 275.768182 167.274533 
L 278.795455 169.186235 
L 281.822727 171.126828 
L 284.85 173.097739 
L 287.877273 175.10052 
L 290.904545 177.136865 
L 293.931818 179.208629 
L 296.959091 181.317851 
L 299.986364 183.466777 
L 303.013636 185.657891 
L 306.040909 187.893956 
L 309.068182 190.178047 
L 312.095455 192.513611 
L 315.122727 194.904523 
L 318.15 197.355164 
L 321.177273 199.870503 
L 324.204545 202.456213 
L 327.231818 205.118796 
L 330.259091 207.865749 
L 333.286364 210.705755 
L 336.313636 213.648931 
L 339.340909 216.707116 
L 342.368182 219.894236 
L 345.395455 223.226743 
L 348.422727 226.724139 
L 351.45 230.409598 
L 354.477273 234.310681 
L 357.504545 238.460115 
L 360.531818 242.896564 
L 363.559091 247.665283 
L 366.586364 252.818396 
L 369.613636 258.414474 
L 372.640909 264.51694 
L 375.668182 271.190845 
L 378.695455 278.497788 
L 381.722727 286.489317 
L 384.75 295.2 
" style="fill:none;stroke:#008000;stroke-linecap:square;stroke-width:4;"/>
   </g>
   <g id="patch_3">
    <path d="M 85.05 295.2 
L 85.05 14.4 
" style="fill:none;stroke:#000000;stroke-linecap:square;stroke-linejoin:miter;"/>
   </g>
   <g id="patch_4">
    <path d="M 384.75 295.2 
L 384.75 14.4 
" style="fill:none;stroke:#000000;stroke-linecap:square;stroke-linejoin:miter;"/>
   </g>
   <g id="patch_5">
    <path d="M 85.05 295.2 
L 384.75 295.2 
" style="fill:none;stroke:#000000;stroke-linecap:square;stroke-linejoin:miter;"/>
   </g>
   <g id="patch_6">
    <path d="M 85.05 14.4 
L 384.75 14.4 
" style="fill:none;stroke:#000000;stroke-linecap:square;stroke-linejoin:miter;"/>
   </g>
   <g id="matplotlib.axis_1">
    <g id="xtick_1">
     <g id="line2d_3">
      <defs>
       <path d="M 0 0 
L 0 -10 
" id="mf18c83f5da" style="stroke:#000000;stroke-width:0.5;"/>
      </defs>
      <g>
       <use style="stroke:#000000;stroke-width:0.5;" x="85.05" xlink:href="#mf18c83f5da" y="295.2"/>
      </g>
     </g>
     <g id="line2d_4">
      <defs>
       <path d="M 0 0 
L 0 10 
" id="m3d6cd58fb2" style="stroke:#000000;stroke-width:0.5;"/>
      </defs>
      <g>
       <use style="stroke:#000000;stroke-width:0.5;" x="85.05" xlink:href="#m3d6cd58fb2" y="14.4"/>
      </g>
     </g>
     <g id="text_1">
      <!-- $-4$ -->
      <defs>
       <path d="M 65.90625 23 
C 67.59375 23 69.40625 23 69.40625 25 
C 69.40625 27 67.59375 27 65.90625 27 
L 11.796875 27 
C 10.09375 27 8.296875 27 8.296875 25 
C 8.296875 23 10.09375 23 11.796875 23 
z
" id="CMSY10-0"/>
       <path d="M 33.59375 64.40625 
C 33.59375 66.5 33.5 66.5 31.703125 66.5 
L 2 19.59375 
L 2 17 
L 27.796875 17 
L 27.796875 7.140625 
C 27.796875 3.5 27.59375 2.5 20.59375 2.5 
L 18.703125 2.5 
L 18.703125 0 
C 21.90625 0 27.296875 0 30.703125 0 
C 34.09375 0 39.5 0 42.703125 0 
L 42.703125 2.5 
L 40.796875 2.5 
C 33.796875 2.5 33.59375 3.5 33.59375 7.140625 
L 33.59375 17 
L 43.796875 17 
L 43.796875 19.59375 
L 33.59375 19.59375 
z
M 28.09375 57.859375 
L 28.09375 19.59375 
L 4 19.59375 
z
" id="CMR17-52"/>
      </defs>
      <g transform="translate(66.573313 320.494961)scale(0.3 -0.3)">
       <use transform="scale(0.996264)" xlink:href="#CMSY10-0"/>
       <use transform="translate(77.487468 0)scale(0.996264)" xlink:href="#CMR17-52"/>
      </g>
     </g>
    </g>
    <g id="xtick_2">
     <g id="line2d_5">
      <g>
       <use style="stroke:#000000;stroke-width:0.5;" x="122.5125" xlink:href="#mf18c83f5da" y="295.2"/>
      </g>
     </g>
     <g id="line2d_6">
      <g>
       <use style="stroke:#000000;stroke-width:0.5;" x="122.5125" xlink:href="#m3d6cd58fb2" y="14.4"/>
      </g>
     </g>
    </g>
    <g id="xtick_3">
     <g id="line2d_7">
      <g>
       <use style="stroke:#000000;stroke-width:0.5;" x="159.975" xlink:href="#mf18c83f5da" y="295.2"/>
      </g>
     </g>
     <g id="line2d_8">
      <g>
       <use style="stroke:#000000;stroke-width:0.5;" x="159.975" xlink:href="#m3d6cd58fb2" y="14.4"/>
      </g>
     </g>
     <g id="text_2">
      <!-- $-3$ -->
      <defs>
       <path d="M 22.09375 33.703125 
C 31 33.703125 34.90625 25.96875 34.90625 17.03125 
C 34.90625 5 28.5 0.390625 22.703125 0.390625 
C 17.40625 0.390625 8.796875 3.03125 6.09375 10.828125 
C 6.59375 10.625 7.09375 10.625 7.59375 10.625 
C 10 10.625 11.796875 12.21875 11.796875 14.8125 
C 11.796875 17.703125 9.59375 19 7.59375 19 
C 5.90625 19 3.296875 18.203125 3.296875 14.46875 
C 3.296875 5.234375 12.296875 -2 22.90625 -2 
C 34 -2 42.5 6.71875 42.5 16.953125 
C 42.5 26.671875 34.5 33.703125 25 34.796875 
C 32.59375 36.375 39.90625 43.0625 39.90625 52.015625 
C 39.90625 59.6875 32 65.296875 23 65.296875 
C 13.90625 65.296875 5.90625 59.828125 5.90625 52.015625 
C 5.90625 48.59375 8.5 48 9.796875 48 
C 11.90625 48 13.703125 49.296875 13.703125 51.890625 
C 13.703125 54.46875 11.90625 55.765625 9.796875 55.765625 
C 9.40625 55.765625 8.90625 55.765625 8.5 55.578125 
C 11.40625 61.859375 19.296875 63 22.796875 63 
C 26.296875 63 32.90625 61.328125 32.90625 51.875 
C 32.90625 49.109375 32.5 44.1875 29.09375 39.84375 
C 26.09375 36 22.703125 36 19.40625 35.6875 
C 18.90625 35.6875 16.59375 35.453125 16.203125 35.453125 
C 15.5 35.359375 15.09375 35.265625 15.09375 34.5 
C 15.09375 33.796875 15.203125 33.703125 17.203125 33.703125 
z
" id="CMR17-51"/>
      </defs>
      <g transform="translate(141.498313 320.494961)scale(0.3 -0.3)">
       <use transform="scale(0.996264)" xlink:href="#CMSY10-0"/>
       <use transform="translate(77.487468 0)scale(0.996264)" xlink:href="#CMR17-51"/>
      </g>
     </g>
    </g>
    <g id="xtick_4">
     <g id="line2d_9">
      <g>
       <use style="stroke:#000000;stroke-width:0.5;" x="197.4375" xlink:href="#mf18c83f5da" y="295.2"/>
      </g>
     </g>
     <g id="line2d_10">
      <g>
       <use style="stroke:#000000;stroke-width:0.5;" x="197.4375" xlink:href="#m3d6cd58fb2" y="14.4"/>
      </g>
     </g>
    </g>
    <g id="xtick_5">
     <g id="line2d_11">
      <g>
       <use style="stroke:#000000;stroke-width:0.5;" x="234.9" xlink:href="#mf18c83f5da" y="295.2"/>
      </g>
     </g>
     <g id="line2d_12">
      <g>
       <use style="stroke:#000000;stroke-width:0.5;" x="234.9" xlink:href="#m3d6cd58fb2" y="14.4"/>
      </g>
     </g>
     <g id="text_3">
      <!-- $-2$ -->
      <defs>
       <path d="M 41.703125 15.453125 
L 39.90625 15.453125 
C 38.90625 8.375 38.09375 7.171875 37.703125 6.5625 
C 37.203125 5.765625 30 5.765625 28.59375 5.765625 
L 9.40625 5.765625 
C 13 9.671875 20 16.75 28.5 24.953125 
C 34.59375 30.734375 41.703125 37.53125 41.703125 47.421875 
C 41.703125 59.21875 32.296875 66 21.796875 66 
C 10.796875 66 4.09375 56.3125 4.09375 47.34375 
C 4.09375 43.4375 7 42.9375 8.203125 42.9375 
C 9.203125 42.9375 12.203125 43.546875 12.203125 47.03125 
C 12.203125 50.109375 9.59375 51 8.203125 51 
C 7.59375 51 7 50.90625 6.59375 50.703125 
C 8.5 59.21875 14.296875 63.40625 20.40625 63.40625 
C 29.09375 63.40625 34.796875 56.515625 34.796875 47.421875 
C 34.796875 38.734375 29.703125 31.25 24 24.75 
L 4.09375 2.28125 
L 4.09375 0 
L 39.296875 0 
z
" id="CMR17-50"/>
      </defs>
      <g transform="translate(216.423313 320.494961)scale(0.3 -0.3)">
       <use transform="scale(0.996264)" xlink:href="#CMSY10-0"/>
       <use transform="translate(77.487468 0)scale(0.996264)" xlink:href="#CMR17-50"/>
      </g>
     </g>
    </g>
    <g id="xtick_6">
     <g id="line2d_13">
      <g>
       <use style="stroke:#000000;stroke-width:0.5;" x="272.3625" xlink:href="#mf18c83f5da" y="295.2"/>
      </g>
     </g>
     <g id="line2d_14">
      <g>
       <use style="stroke:#000000;stroke-width:0.5;" x="272.3625" xlink:href="#m3d6cd58fb2" y="14.4"/>
      </g>
     </g>
    </g>
    <g id="xtick_7">
     <g id="line2d_15">
      <g>
       <use style="stroke:#000000;stroke-width:0.5;" x="309.825" xlink:href="#mf18c83f5da" y="295.2"/>
      </g>
     </g>
     <g id="line2d_16">
      <g>
       <use style="stroke:#000000;stroke-width:0.5;" x="309.825" xlink:href="#m3d6cd58fb2" y="14.4"/>
      </g>
     </g>
     <g id="text_4">
      <!-- $-1$ -->
      <defs>
       <path d="M 26.59375 63.40625 
C 26.59375 65.5 26.5 65.5 25.09375 65.5 
C 21.203125 61.1875 15.296875 59.796875 9.703125 59.796875 
C 9.40625 59.796875 8.90625 59.796875 8.796875 59.5 
C 8.703125 59.296875 8.703125 59.09375 8.703125 57 
C 11.796875 57 17 57.59375 21 59.984375 
L 21 7.203125 
C 21 3.6875 20.796875 2.5 12.203125 2.5 
L 9.203125 2.5 
L 9.203125 0 
C 14 0 19 0 23.796875 0 
C 28.59375 0 33.59375 0 38.40625 0 
L 38.40625 2.5 
L 35.40625 2.5 
C 26.796875 2.5 26.59375 3.59375 26.59375 7.15625 
z
" id="CMR17-49"/>
      </defs>
      <g transform="translate(291.348313 320.494961)scale(0.3 -0.3)">
       <use transform="scale(0.996264)" xlink:href="#CMSY10-0"/>
       <use transform="translate(77.487468 0)scale(0.996264)" xlink:href="#CMR17-49"/>
      </g>
     </g>
    </g>
    <g id="xtick_8">
     <g id="line2d_17">
      <g>
       <use style="stroke:#000000;stroke-width:0.5;" x="347.2875" xlink:href="#mf18c83f5da" y="295.2"/>
      </g>
     </g>
     <g id="line2d_18">
      <g>
       <use style="stroke:#000000;stroke-width:0.5;" x="347.2875" xlink:href="#m3d6cd58fb2" y="14.4"/>
      </g>
     </g>
    </g>
    <g id="xtick_9">
     <g id="line2d_19">
      <g>
       <use style="stroke:#000000;stroke-width:0.5;" x="384.75" xlink:href="#mf18c83f5da" y="295.2"/>
      </g>
     </g>
     <g id="line2d_20">
      <g>
       <use style="stroke:#000000;stroke-width:0.5;" x="384.75" xlink:href="#m3d6cd58fb2" y="14.4"/>
      </g>
     </g>
     <g id="text_5">
      <!-- $0$ -->
      <defs>
       <path d="M 42 31.640625 
C 42 37.75 41.90625 48.125 37.703125 56.109375 
C 34 63.109375 28.09375 65.59375 22.90625 65.59375 
C 18.09375 65.59375 12 63.40625 8.203125 56.203125 
C 4.203125 48.71875 3.796875 39.4375 3.796875 31.640625 
C 3.796875 25.953125 3.90625 17.28125 7 9.671875 
C 11.296875 -0.609375 19 -2 22.90625 -2 
C 27.5 -2 34.5 -0.109375 38.59375 9.375 
C 41.59375 16.28125 42 24.359375 42 31.640625 
z
M 22.90625 -0.40625 
C 16.5 -0.40625 12.703125 5.078125 11.296875 12.6875 
C 10.203125 18.5625 10.203125 27.15625 10.203125 32.75 
C 10.203125 40.4375 10.203125 46.828125 11.5 52.921875 
C 13.40625 61.390625 19 64 22.90625 64 
C 27 64 32.296875 61.296875 34.203125 53.125 
C 35.5 47.4375 35.59375 40.734375 35.59375 32.75 
C 35.59375 26.25 35.59375 18.265625 34.40625 12.375 
C 32.296875 1.484375 26.40625 -0.40625 22.90625 -0.40625 
z
" id="CMR17-48"/>
      </defs>
      <g transform="translate(377.896428 320.494961)scale(0.3 -0.3)">
       <use transform="scale(0.996264)" xlink:href="#CMR17-48"/>
      </g>
     </g>
    </g>
    <g id="text_6">
     <!-- $s$ -->
     <defs>
      <path d="M 22.796875 20 
C 24.5 19.703125 27.203125 19.109375 27.796875 19 
C 29.09375 18.625 33.59375 17.03125 33.59375 12.234375 
C 33.59375 9.15625 30.796875 1.09375 19.203125 1.09375 
C 17.09375 1.09375 9.59375 1.09375 7.59375 6.8125 
C 11.59375 6.3125 13.59375 9.421875 13.59375 11.640625 
C 13.59375 13.75 12.203125 14.84375 10.203125 14.84375 
C 8 14.84375 5.09375 13.140625 5.09375 8.625 
C 5.09375 2.703125 11.09375 -1 19.09375 -1 
C 34.296875 -1 38.796875 10.171875 38.796875 15.375 
C 38.796875 16.859375 38.796875 19.65625 35.59375 22.84375 
C 33.09375 25.25 30.703125 25.75 25.296875 26.84375 
C 22.59375 27.4375 18.296875 28.34375 18.296875 32.828125 
C 18.296875 34.828125 20.09375 42.015625 29.59375 42.015625 
C 33.796875 42.015625 37.90625 40.453125 38.90625 37 
C 34.5 37 34.296875 33.203125 34.296875 33.109375 
C 34.296875 31 36.203125 30.40625 37.09375 30.40625 
C 38.5 30.40625 41.296875 31.484375 41.296875 35.640625 
C 41.296875 39.765625 37.5 44 29.703125 44 
C 16.59375 44 13.09375 33.75 13.09375 29.671875 
C 13.09375 22.09375 20.5 20.5 22.796875 20 
z
" id="CMMI12-115"/>
     </defs>
     <g transform="translate(228.007497 353.155881)scale(0.3 -0.3)">
      <use transform="scale(0.996264)" xlink:href="#CMMI12-115"/>
     </g>
    </g>
   </g>
   <g id="matplotlib.axis_2">
    <g id="ytick_1">
     <g id="line2d_21">
      <defs>
       <path d="M 0 0 
L 10 0 
" id="m7b012bdf06" style="stroke:#000000;stroke-width:0.5;"/>
      </defs>
      <g>
       <use style="stroke:#000000;stroke-width:0.5;" x="85.05" xlink:href="#m7b012bdf06" y="295.2"/>
      </g>
     </g>
     <g id="line2d_22">
      <defs>
       <path d="M 0 0 
L -10 0 
" id="m26f724935b" style="stroke:#000000;stroke-width:0.5;"/>
      </defs>
      <g>
       <use style="stroke:#000000;stroke-width:0.5;" x="384.75" xlink:href="#m26f724935b" y="295.2"/>
      </g>
     </g>
     <g id="text_7">
      <!-- $0.0$ -->
      <defs>
       <path d="M 18.40625 4.796875 
C 18.40625 7.6875 16 9.671875 13.59375 9.671875 
C 10.703125 9.671875 8.703125 7.28125 8.703125 4.890625 
C 8.703125 2 11.09375 0 13.5 0 
C 16.40625 0 18.40625 2.390625 18.40625 4.796875 
z
" id="CMMI12-58"/>
      </defs>
      <g transform="translate(45.506561 302.664501)scale(0.3 -0.3)">
       <use transform="scale(0.996264)" xlink:href="#CMR17-48"/>
       <use transform="translate(45.690477 0)scale(0.996264)" xlink:href="#CMMI12-58"/>
       <use transform="translate(72.787654 0)scale(0.996264)" xlink:href="#CMR17-48"/>
      </g>
     </g>
    </g>
    <g id="ytick_2">
     <g id="line2d_23">
      <g>
       <use style="stroke:#000000;stroke-width:0.5;" x="85.05" xlink:href="#m7b012bdf06" y="239.04"/>
      </g>
     </g>
     <g id="line2d_24">
      <g>
       <use style="stroke:#000000;stroke-width:0.5;" x="384.75" xlink:href="#m26f724935b" y="239.04"/>
      </g>
     </g>
     <g id="text_8">
      <!-- $0.5$ -->
      <defs>
       <path d="M 11.40625 57.6875 
C 12.40625 57.28125 16.5 56 20.703125 56 
C 30 56 35.09375 61.109375 38 64.0625 
C 38 64.953125 38 65.5 37.40625 65.5 
C 37.296875 65.5 37.09375 65.5 36.296875 65.046875 
C 32.796875 63.40625 28.703125 62.078125 23.703125 62.078125 
C 20.703125 62.078125 16.203125 62.484375 11.296875 64.671875 
C 10.203125 65.171875 10 65.171875 9.90625 65.171875 
C 9.40625 65.171875 9.296875 65.0625 9.296875 63.078125 
L 9.296875 34.421875 
C 9.296875 32.640625 9.296875 32.140625 10.296875 32.140625 
C 10.796875 32.140625 11 32.34375 11.5 33.03125 
C 14.703125 37.515625 19.09375 39.40625 24.09375 39.40625 
C 27.59375 39.40625 35.09375 37.21875 35.09375 20.140625 
C 35.09375 16.953125 35.09375 11.171875 32.09375 6.578125 
C 29.59375 2.484375 25.703125 0.390625 21.40625 0.390625 
C 14.796875 0.390625 8.09375 5 6.296875 12.71875 
C 6.703125 12.609375 7.5 12.421875 7.90625 12.421875 
C 9.203125 12.421875 11.703125 13.125 11.703125 16.21875 
C 11.703125 18.90625 9.796875 20 7.90625 20 
C 5.59375 20 4.09375 18.59375 4.09375 15.796875 
C 4.09375 7.09375 11 -2 21.59375 -2 
C 31.90625 -2 41.703125 6.875 41.703125 19.75 
C 41.703125 31.71875 33.90625 41 24.203125 41 
C 19.09375 41 14.796875 39.109375 11.40625 35.53125 
z
" id="CMR17-53"/>
      </defs>
      <g transform="translate(45.506561 246.504501)scale(0.3 -0.3)">
       <use transform="scale(0.996264)" xlink:href="#CMR17-48"/>
       <use transform="translate(45.690477 0)scale(0.996264)" xlink:href="#CMMI12-58"/>
       <use transform="translate(72.787654 0)scale(0.996264)" xlink:href="#CMR17-53"/>
      </g>
     </g>
    </g>
    <g id="ytick_3">
     <g id="line2d_25">
      <g>
       <use style="stroke:#000000;stroke-width:0.5;" x="85.05" xlink:href="#m7b012bdf06" y="182.88"/>
      </g>
     </g>
     <g id="line2d_26">
      <g>
       <use style="stroke:#000000;stroke-width:0.5;" x="384.75" xlink:href="#m26f724935b" y="182.88"/>
      </g>
     </g>
     <g id="text_9">
      <!-- $1.0$ -->
      <g transform="translate(45.506561 190.344501)scale(0.3 -0.3)">
       <use transform="scale(0.996264)" xlink:href="#CMR17-49"/>
       <use transform="translate(45.690477 0)scale(0.996264)" xlink:href="#CMMI12-58"/>
       <use transform="translate(72.787654 0)scale(0.996264)" xlink:href="#CMR17-48"/>
      </g>
     </g>
    </g>
    <g id="ytick_4">
     <g id="line2d_27">
      <g>
       <use style="stroke:#000000;stroke-width:0.5;" x="85.05" xlink:href="#m7b012bdf06" y="126.72"/>
      </g>
     </g>
     <g id="line2d_28">
      <g>
       <use style="stroke:#000000;stroke-width:0.5;" x="384.75" xlink:href="#m26f724935b" y="126.72"/>
      </g>
     </g>
     <g id="text_10">
      <!-- $1.5$ -->
      <g transform="translate(45.506561 134.184501)scale(0.3 -0.3)">
       <use transform="scale(0.996264)" xlink:href="#CMR17-49"/>
       <use transform="translate(45.690477 0)scale(0.996264)" xlink:href="#CMMI12-58"/>
       <use transform="translate(72.787654 0)scale(0.996264)" xlink:href="#CMR17-53"/>
      </g>
     </g>
    </g>
    <g id="ytick_5">
     <g id="line2d_29">
      <g>
       <use style="stroke:#000000;stroke-width:0.5;" x="85.05" xlink:href="#m7b012bdf06" y="70.56"/>
      </g>
     </g>
     <g id="line2d_30">
      <g>
       <use style="stroke:#000000;stroke-width:0.5;" x="384.75" xlink:href="#m26f724935b" y="70.56"/>
      </g>
     </g>
     <g id="text_11">
      <!-- $2.0$ -->
      <g transform="translate(45.506561 78.024501)scale(0.3 -0.3)">
       <use transform="scale(0.996264)" xlink:href="#CMR17-50"/>
       <use transform="translate(45.690477 0)scale(0.996264)" xlink:href="#CMMI12-58"/>
       <use transform="translate(72.787654 0)scale(0.996264)" xlink:href="#CMR17-48"/>
      </g>
     </g>
    </g>
    <g id="ytick_6">
     <g id="line2d_31">
      <g>
       <use style="stroke:#000000;stroke-width:0.5;" x="85.05" xlink:href="#m7b012bdf06" y="14.4"/>
      </g>
     </g>
     <g id="line2d_32">
      <g>
       <use style="stroke:#000000;stroke-width:0.5;" x="384.75" xlink:href="#m26f724935b" y="14.4"/>
      </g>
     </g>
     <g id="text_12">
      <!-- $2.5$ -->
      <g transform="translate(45.506561 21.864501)scale(0.3 -0.3)">
       <use transform="scale(0.996264)" xlink:href="#CMR17-50"/>
       <use transform="translate(45.690477 0)scale(0.996264)" xlink:href="#CMMI12-58"/>
       <use transform="translate(72.787654 0)scale(0.996264)" xlink:href="#CMR17-53"/>
      </g>
     </g>
    </g>
    <g id="text_13">
     <!-- $h(s)$ -->
     <defs>
      <path d="M 28.09375 66.515625 
C 28.203125 66.921875 28.40625 67.515625 28.40625 68 
C 28.40625 69 27.40625 69 27.203125 69 
C 27.09375 69 22.203125 68.5625 21.703125 68.4375 
C 20 68.328125 18.5 68.09375 16.703125 68.09375 
C 14.203125 67.890625 13.5 67.796875 13.5 66 
C 13.5 65 14.296875 65 15.703125 65 
C 20.59375 65 20.703125 64.109375 20.703125 63.125 
C 20.703125 62.53125 20.5 61.734375 20.40625 61.4375 
L 5.90625 3.875 
C 5.5 2.375 5.5 2.1875 5.5 1.578125 
C 5.5 -0.59375 7.203125 -1 8.203125 -1 
C 9.90625 -1 11.203125 0.296875 11.703125 1.390625 
L 16.203125 19.453125 
C 16.703125 21.65625 17.296875 23.75 17.796875 25.9375 
C 18.90625 30.140625 18.90625 30.234375 20.796875 33.125 
C 22.703125 36.015625 27.203125 42.015625 34.90625 42.015625 
C 38.90625 42.015625 40.296875 39.015625 40.296875 35.03125 
C 40.296875 29.4375 36.40625 18.5625 34.203125 12.578125 
C 33.296875 10.171875 32.796875 8.875 32.796875 7.078125 
C 32.796875 2.59375 35.90625 -1 40.703125 -1 
C 50 -1 53.5 13.671875 53.5 14.265625 
C 53.5 14.765625 53.09375 15.171875 52.5 15.171875 
C 51.59375 15.171875 51.5 14.875 51 13.171875 
C 48.703125 5.1875 45 1 41 1 
C 40 1 38.40625 1 38.40625 4.203125 
C 38.40625 6.8125 39.59375 10 40 11.09375 
C 41.796875 15.90625 46.296875 27.703125 46.296875 33.515625 
C 46.296875 39.5 42.796875 44 35.203125 44 
C 29.5 44 24.5 41.3125 20.40625 36.125 
z
" id="CMMI12-104"/>
      <path d="M 30.59375 -24.390625 
C 30.59375 -24.296875 30.59375 -24.09375 30.296875 -23.796875 
C 25.703125 -19.125 13.40625 -6.359375 13.40625 24.703125 
C 13.40625 55.765625 25.5 68.421875 30.40625 73.390625 
C 30.40625 73.5 30.59375 73.703125 30.59375 74 
C 30.59375 74.296875 30.296875 74.5 29.90625 74.5 
C 28.796875 74.5 20.296875 67.125 15.40625 56.15625 
C 10.40625 45.109375 9 34.359375 9 24.8125 
C 9 17.625 9.703125 5.484375 15.703125 -7.359375 
C 20.5 -17.734375 28.703125 -25 29.90625 -25 
C 30.40625 -25 30.59375 -24.796875 30.59375 -24.390625 
z
" id="CMR17-40"/>
      <path d="M 26.296875 24.703125 
C 26.296875 31.875 25.59375 44.015625 19.59375 56.859375 
C 14.796875 67.234375 6.59375 74.5 5.40625 74.5 
C 5.09375 74.5 4.703125 74.390625 4.703125 73.890625 
C 4.703125 73.703125 4.796875 73.59375 4.90625 73.390625 
C 9.703125 68.40625 21.90625 55.75 21.90625 24.75 
C 21.90625 -6.359375 9.796875 -19.015625 4.90625 -24.015625 
C 4.796875 -24.203125 4.703125 -24.3125 4.703125 -24.5 
C 4.703125 -25 5.09375 -25 5.40625 -25 
C 6.5 -25 15 -17.625 19.90625 -6.65625 
C 24.90625 4.390625 26.296875 15.140625 26.296875 24.703125 
z
" id="CMR17-41"/>
     </defs>
     <g transform="translate(33.059587 180.699923)rotate(-90)scale(0.3 -0.3)">
      <use transform="scale(0.996264)" xlink:href="#CMMI12-104"/>
      <use transform="translate(56.154624 0)scale(0.996264)" xlink:href="#CMR17-40"/>
      <use transform="translate(91.435392 0)scale(0.996264)" xlink:href="#CMMI12-115"/>
      <use transform="translate(137.385439 0)scale(0.996264)" xlink:href="#CMR17-41"/>
     </g>
    </g>
   </g>
   <g id="legend_1">
    <g id="line2d_33">
     <path d="M 219.920812 41.782854 
L 237.920812 41.782854 
" style="fill:none;stroke:#0000ff;stroke-linecap:square;stroke-width:4;"/>
    </g>
    <g id="line2d_34"/>
    <g id="text_14">
     <!-- $h_p(s)$ -->
     <defs>
      <path d="M 4.296875 -12.328125 
C 3.59375 -15.3125 3.203125 -16.109375 -0.90625 -16.109375 
C -2.09375 -16.109375 -3.09375 -16.109375 -3.09375 -18 
C -3.09375 -18.203125 -3 -19 -1.90625 -19 
C -0.59375 -19 0.796875 -19 2.09375 -19 
L 6.40625 -19 
C 8.5 -19 13.59375 -19 15.703125 -19 
C 16.296875 -19 17.5 -19 17.5 -17.203125 
C 17.5 -16.109375 16.796875 -16.109375 15.09375 -16.109375 
C 10.5 -16.109375 10.203125 -15.421875 10.203125 -14.640625 
C 10.203125 -13.453125 14.703125 3.421875 15.296875 5.6875 
C 16.40625 2.890625 19.09375 -1 24.296875 -1 
C 35.59375 -1 47.796875 13.671875 47.796875 28.34375 
C 47.796875 37.515625 42.59375 44 35.09375 44 
C 28.703125 44 23.296875 37.8125 22.203125 36.421875 
C 21.40625 41.40625 17.5 44 13.5 44 
C 10.59375 44 8.296875 42.609375 6.40625 38.8125 
C 4.59375 35.21875 3.203125 29.140625 3.203125 28.734375 
C 3.203125 28.34375 3.59375 27.84375 4.296875 27.84375 
C 5.09375 27.84375 5.203125 27.9375 5.796875 30.234375 
C 7.296875 36.125 9.203125 42.015625 13.203125 42.015625 
C 15.5 42.015625 16.296875 40.421875 16.296875 37.453125 
C 16.296875 35.078125 16 34.078125 15.59375 32.296875 
z
M 21.59375 31.140625 
C 22.296875 33.921875 25.09375 36.828125 26.703125 38.21875 
C 27.796875 39.21875 31.09375 42.015625 34.90625 42.015625 
C 39.296875 42.015625 41.296875 37.625 41.296875 32.4375 
C 41.296875 27.640625 38.5 16.359375 36 11.171875 
C 33.5 5.78125 28.90625 1 24.296875 1 
C 17.5 1 16.40625 9.578125 16.40625 9.984375 
C 16.40625 10.28125 16.59375 11.078125 16.703125 11.578125 
z
" id="CMMI12-112"/>
     </defs>
     <g transform="translate(259.920812 48.782854)scale(0.2 -0.2)">
      <use transform="translate(0 14.943915)scale(0.996264)" xlink:href="#CMMI12-104"/>
      <use transform="translate(56.154624 0)scale(0.697382)" xlink:href="#CMMI12-112"/>
      <use transform="translate(90.924262 14.943915)scale(0.996264)" xlink:href="#CMR17-40"/>
      <use transform="translate(126.20503 14.943915)scale(0.996264)" xlink:href="#CMMI12-115"/>
      <use transform="translate(172.155078 14.943915)scale(0.996264)" xlink:href="#CMR17-41"/>
     </g>
    </g>
    <g id="line2d_35">
     <path d="M 219.920812 75.487571 
L 237.920812 75.487571 
" style="fill:none;stroke:#008000;stroke-linecap:square;stroke-width:4;"/>
    </g>
    <g id="line2d_36"/>
    <g id="text_15">
     <!-- $\frac{1}{2} \, \partial^2_{\theta} \phi_s(\theta=0)$ -->
     <defs>
      <path d="M 45.40625 33.515625 
C 44.796875 39.125 41.296875 45.859375 32.296875 45.859375 
C 18.203125 45.859375 3.796875 31.515625 3.796875 15.5625 
C 3.796875 9.4375 8 -2.09375 21.59375 -2.09375 
C 45.203125 -2.09375 55.296875 32.296875 55.296875 46 
C 55.296875 60.40625 47.203125 71.5 34.40625 71.5 
C 19.90625 71.5 15.59375 58.796875 15.59375 56.09375 
C 15.59375 55.203125 16.203125 53 19 53 
C 22.5 53 24 56.203125 24 57.90625 
C 24 61 20.90625 61 19.59375 61 
C 23.703125 68.40625 31.296875 69.09375 34 69.09375 
C 42.796875 69.09375 48.40625 62.109375 48.40625 50.96875 
C 48.40625 44.578125 46.5 37.1875 45.5 33.515625 
z
M 21.90625 0.59375 
C 12.5 0.59375 10.90625 8.03125 10.90625 12.25 
C 10.90625 16.65625 13.703125 27 15.203125 30.703125 
C 16.5 33.71875 22.203125 43.859375 32.59375 43.859375 
C 41.703125 43.859375 43.796875 35.921875 43.796875 30.515625 
C 43.796875 23.078125 37.296875 0.59375 21.90625 0.59375 
z
" id="CMMI12-64"/>
      <path d="M 44.296875 50 
C 44.296875 60.15625 41.09375 70 32.90625 70 
C 18.90625 70 4 40.859375 4 19 
C 4 14.421875 5 -1 15.5 -1 
C 29.09375 -1 44.296875 27.4375 44.296875 50 
z
M 14 36 
C 15.5 41.859375 17.59375 50.21875 21.59375 57.265625 
C 24.90625 63.234375 28.40625 68 32.796875 68 
C 36.09375 68 38.296875 65.21875 38.296875 55.6875 
C 38.296875 52.09375 38 47.140625 35.09375 36 
z
M 34.40625 33.015625 
C 31.90625 23.28125 29.796875 17 26.203125 10.734375 
C 23.296875 5.671875 19.796875 1 15.59375 1 
C 12.5 1 10 3.390625 10 13.21875 
C 10 19.6875 11.59375 26.453125 13.203125 33.015625 
z
" id="CMMI12-18"/>
      <path d="M 43 68.59375 
C 43 69.5 42.296875 69.5 42 69.5 
C 41.09375 69.5 41 69.296875 40.59375 67.59375 
L 35.203125 45.921875 
C 34.90625 44.625 34.796875 44.515625 34.703125 44.421875 
C 34.59375 44.21875 33.90625 44.125 33.703125 44.125 
C 17.296875 42.71875 4.703125 29.125 4.703125 16.515625 
C 4.703125 5.640625 13 -1 23.40625 -1 
C 22.59375 -4.078125 21.90625 -7.234375 21.09375 -10.296875 
C 19.703125 -15.546875 18.90625 -18.8125 18.90625 -19.203125 
C 18.90625 -19.390625 18.90625 -20 19.90625 -20 
C 20.203125 -20 20.59375 -20 20.796875 -19.59375 
C 21 -19.390625 21.59375 -17.015625 22 -15.75 
L 25.703125 -1 
C 42.796875 -1 55.796875 13.34375 55.796875 26.25 
C 55.796875 36.609375 48.203125 44 37.09375 44 
z
M 36.5 42.203125 
C 43.09375 42.203125 49.703125 38.484375 49.703125 28.5625 
C 49.703125 17.140625 41.796875 2 26.203125 0.78125 
z
M 23.90625 0.78125 
C 19 0.78125 10.796875 3.4375 10.796875 14.65625 
C 10.796875 27.515625 19.90625 41.8125 34.296875 41.8125 
z
" id="CMMI12-30"/>
      <path d="M 64.296875 31.515625 
C 65.796875 31.515625 67.296875 31.515625 67.296875 33.203125 
C 67.296875 35 65.59375 35 63.90625 35 
L 8 35 
C 6.296875 35 4.59375 35 4.59375 33.203125 
C 4.59375 31.515625 6.09375 31.515625 7.59375 31.515625 
z
M 63.90625 14 
C 65.59375 14 67.296875 14 67.296875 15.796875 
C 67.296875 17.484375 65.796875 17.484375 64.296875 17.484375 
L 7.59375 17.484375 
C 6.09375 17.484375 4.59375 17.484375 4.59375 15.796875 
C 4.59375 14 6.296875 14 8 14 
z
" id="CMR17-61"/>
     </defs>
     <g transform="translate(259.920812 82.487571)scale(0.2 -0.2)">
      <use transform="translate(0 73.581354)scale(0.697382)" xlink:href="#CMR17-49"/>
      <use transform="scale(0.697382)" xlink:href="#CMR17-50"/>
      <use transform="translate(49.783101 34.355253)scale(0.996264)" xlink:href="#CMMI12-64"/>
      <use transform="translate(106.698665 70.508892)scale(0.697382)" xlink:href="#CMR17-50"/>
      <use transform="translate(101.27923 9.725903)scale(0.697382)" xlink:href="#CMMI12-18"/>
      <use transform="translate(139.179979 34.355253)scale(0.996264)" xlink:href="#CMMI12-30"/>
      <use transform="translate(196.91416 19.411338)scale(0.697382)" xlink:href="#CMMI12-115"/>
      <use transform="translate(229.577181 34.355253)scale(0.996264)" xlink:href="#CMR17-40"/>
      <use transform="translate(264.857948 34.355253)scale(0.996264)" xlink:href="#CMMI12-18"/>
      <use transform="translate(340.701465 34.355253)scale(0.996264)" xlink:href="#CMR17-61"/>
      <use transform="translate(440.090262 34.355253)scale(0.996264)" xlink:href="#CMR17-48"/>
      <use transform="translate(485.780739 34.355253)scale(0.996264)" xlink:href="#CMR17-41"/>
      <path d="M 0 58.766138 
L 31.983182 58.766138 
L 31.983182 59.757583 
L 0 59.757583 
L 0 58.766138 
z
"/>
     </g>
    </g>
    <g id="line2d_37">
     <path d="M 219.920812 103.928185 
L 237.920812 103.928185 
" style="fill:none;"/>
    </g>
    <g id="line2d_38"/>
    <g id="text_16">
     <!-- $D_r=0.5$ -->
     <defs>
      <path d="M 15.703125 7.375 
C 14.796875 3.890625 14.59375 2.890625 7.59375 2.890625 
C 5.703125 2.890625 4.703125 2.890625 4.703125 1.09375 
C 4.703125 0 5.296875 0 7.296875 0 
L 39 0 
C 59.203125 0 78.90625 20.8125 78.90625 43.015625 
C 78.90625 57.359375 70.296875 68 56 68 
L 23.90625 68 
C 22 68 21.09375 68 21.09375 66.109375 
C 21.09375 65.109375 22 65.109375 23.5 65.109375 
C 29.59375 65.109375 29.59375 64.3125 29.59375 63.21875 
C 29.59375 63.03125 29.59375 62.421875 29.203125 60.921875 
z
M 36.796875 61.421875 
C 37.703125 65.109375 38.09375 65.109375 42 65.109375 
L 53 65.109375 
C 62.40625 65.109375 71 60.03125 71 46.296875 
C 71 41.3125 69 24 59.296875 13.046875 
C 56.5 9.765625 48.90625 2.890625 37.40625 2.890625 
L 26 2.890625 
C 24.59375 2.890625 24.40625 2.890625 23.796875 3 
C 22.703125 3.09375 22.59375 3.296875 22.59375 4.09375 
C 22.59375 4.796875 22.796875 5.390625 23 6.28125 
z
" id="CMMI12-68"/>
      <path d="M 38.90625 40.8125 
C 35.796875 40.21875 34.203125 38.015625 34.203125 35.828125 
C 34.203125 33.421875 36.09375 32.625 37.5 32.625 
C 40.296875 32.625 42.59375 35.03125 42.59375 38.015625 
C 42.59375 41.21875 39.5 44 34.5 44 
C 30.5 44 25.90625 42.203125 21.703125 36.125 
C 21 41.40625 17 44 13 44 
C 9.09375 44 7.09375 41.015625 5.90625 38.8125 
C 4.203125 35.21875 2.703125 29.234375 2.703125 28.734375 
C 2.703125 28.34375 3.09375 27.84375 3.796875 27.84375 
C 4.59375 27.84375 4.703125 27.9375 5.296875 30.234375 
C 6.796875 36.21875 8.703125 42.015625 12.703125 42.015625 
C 15.09375 42.015625 15.796875 40.3125 15.796875 37.421875 
C 15.796875 35.21875 14.796875 31.328125 14.09375 28.234375 
L 11.296875 17.46875 
C 10.90625 15.5625 9.796875 11.078125 9.296875 9.28125 
C 8.59375 6.6875 7.5 2 7.5 1.5 
C 7.5 0.09375 8.59375 -1 10.09375 -1 
C 11.203125 -1 13.09375 -0.296875 13.703125 1.703125 
C 14 2.5 17.703125 17.5625 18.296875 19.859375 
C 18.796875 22.046875 19.40625 24.15625 19.90625 26.34375 
C 20.296875 27.734375 20.703125 29.34375 21 30.640625 
C 21.296875 31.53125 24 36.421875 26.5 38.625 
C 27.703125 39.71875 30.296875 42.015625 34.40625 42.015625 
C 36 42.015625 37.59375 41.71875 38.90625 40.8125 
z
" id="CMMI12-114"/>
     </defs>
     <g transform="translate(259.920812 110.928185)scale(0.2 -0.2)">
      <use transform="translate(0 14.943915)scale(0.996264)" xlink:href="#CMMI12-68"/>
      <use transform="translate(80.99423 0)scale(0.697382)" xlink:href="#CMMI12-114"/>
      <use transform="translate(141.83564 14.943915)scale(0.996264)" xlink:href="#CMR17-61"/>
      <use transform="translate(241.224437 14.943915)scale(0.996264)" xlink:href="#CMR17-48"/>
      <use transform="translate(286.914914 14.943915)scale(0.996264)" xlink:href="#CMMI12-58"/>
      <use transform="translate(314.012091 14.943915)scale(0.996264)" xlink:href="#CMR17-53"/>
     </g>
    </g>
   </g>
   <g id="legend_2">
    <g id="line2d_39">
     <path d="M 219.920812 41.782854 
L 237.920812 41.782854 
" style="fill:none;stroke:#0000ff;stroke-linecap:square;stroke-width:4;"/>
    </g>
    <g id="line2d_40"/>
    <g id="text_17">
     <!-- $h_p(s)$ -->
     <g transform="translate(259.920812 48.782854)scale(0.2 -0.2)">
      <use transform="translate(0 14.943915)scale(0.996264)" xlink:href="#CMMI12-104"/>
      <use transform="translate(56.154624 0)scale(0.697382)" xlink:href="#CMMI12-112"/>
      <use transform="translate(90.924262 14.943915)scale(0.996264)" xlink:href="#CMR17-40"/>
      <use transform="translate(126.20503 14.943915)scale(0.996264)" xlink:href="#CMMI12-115"/>
      <use transform="translate(172.155078 14.943915)scale(0.996264)" xlink:href="#CMR17-41"/>
     </g>
    </g>
    <g id="line2d_41">
     <path d="M 219.920812 75.487571 
L 237.920812 75.487571 
" style="fill:none;stroke:#008000;stroke-linecap:square;stroke-width:4;"/>
    </g>
    <g id="line2d_42"/>
    <g id="text_18">
     <!-- $\frac{1}{2} \, \partial^2_{\theta} \phi_s(\theta=0)$ -->
     <g transform="translate(259.920812 82.487571)scale(0.2 -0.2)">
      <use transform="translate(0 73.581354)scale(0.697382)" xlink:href="#CMR17-49"/>
      <use transform="scale(0.697382)" xlink:href="#CMR17-50"/>
      <use transform="translate(49.783101 34.355253)scale(0.996264)" xlink:href="#CMMI12-64"/>
      <use transform="translate(106.698665 70.508892)scale(0.697382)" xlink:href="#CMR17-50"/>
      <use transform="translate(101.27923 9.725903)scale(0.697382)" xlink:href="#CMMI12-18"/>
      <use transform="translate(139.179979 34.355253)scale(0.996264)" xlink:href="#CMMI12-30"/>
      <use transform="translate(196.91416 19.411338)scale(0.697382)" xlink:href="#CMMI12-115"/>
      <use transform="translate(229.577181 34.355253)scale(0.996264)" xlink:href="#CMR17-40"/>
      <use transform="translate(264.857948 34.355253)scale(0.996264)" xlink:href="#CMMI12-18"/>
      <use transform="translate(340.701465 34.355253)scale(0.996264)" xlink:href="#CMR17-61"/>
      <use transform="translate(440.090262 34.355253)scale(0.996264)" xlink:href="#CMR17-48"/>
      <use transform="translate(485.780739 34.355253)scale(0.996264)" xlink:href="#CMR17-41"/>
      <path d="M 0 58.766138 
L 31.983182 58.766138 
L 31.983182 59.757583 
L 0 59.757583 
L 0 58.766138 
z
"/>
     </g>
    </g>
    <g id="line2d_43">
     <path d="M 219.920812 103.928185 
L 237.920812 103.928185 
" style="fill:none;"/>
    </g>
    <g id="line2d_44"/>
    <g id="text_19">
     <!-- $D_r=0.5$ -->
     <g transform="translate(259.920812 110.928185)scale(0.2 -0.2)">
      <use transform="translate(0 14.943915)scale(0.996264)" xlink:href="#CMMI12-68"/>
      <use transform="translate(80.99423 0)scale(0.697382)" xlink:href="#CMMI12-114"/>
      <use transform="translate(141.83564 14.943915)scale(0.996264)" xlink:href="#CMR17-61"/>
      <use transform="translate(241.224437 14.943915)scale(0.996264)" xlink:href="#CMR17-48"/>
      <use transform="translate(286.914914 14.943915)scale(0.996264)" xlink:href="#CMMI12-58"/>
      <use transform="translate(314.012091 14.943915)scale(0.996264)" xlink:href="#CMR17-53"/>
     </g>
    </g>
   </g>
  </g>
  <g id="axes_2">
   <g id="patch_7">
    <path d="M 105.05 275.2 
L 217.4375 275.2 
L 217.4375 169.9 
L 105.05 169.9 
z
" style="fill:#ffffff;"/>
   </g>
   <g id="line2d_45">
    <path clip-path="url(#pa8adbf0ddc)" d="M 105.05 222.651884 
L 106.185227 222.31157 
L 107.320455 221.966234 
L 108.455682 221.61573 
L 109.590909 221.260013 
L 110.726136 220.898948 
L 111.861364 220.532437 
L 112.996591 220.160352 
L 114.131818 219.782636 
L 115.267045 219.399139 
L 116.402273 219.009765 
L 117.5375 218.614366 
L 118.672727 218.212873 
L 119.807955 217.805167 
L 120.943182 217.391127 
L 122.078409 216.970584 
L 123.213636 216.543455 
L 124.348864 216.109621 
L 125.484091 215.668942 
L 126.619318 215.221274 
L 127.754545 214.766508 
L 128.889773 214.304518 
L 130.025 213.835135 
L 131.160227 213.358253 
L 132.295455 212.873726 
L 133.430682 212.381413 
L 134.565909 211.881178 
L 135.701136 211.37291 
L 136.836364 210.856431 
L 137.971591 210.331616 
L 139.106818 209.79834 
L 140.242045 209.256431 
L 141.377273 208.705777 
L 142.5125 208.146252 
L 143.647727 207.577697 
L 144.782955 207.000012 
L 145.918182 206.413041 
L 147.053409 205.816687 
L 148.188636 205.210826 
L 149.323864 204.595372 
L 150.459091 203.97019 
L 151.594318 203.335207 
L 152.729545 202.690327 
L 153.864773 202.035523 
L 155 201.370709 
L 156.135227 200.695878 
L 157.270455 200.01099 
L 158.405682 199.316095 
L 159.540909 198.611176 
L 160.676136 197.896339 
L 161.811364 197.171718 
L 162.946591 196.437367 
L 164.081818 195.693558 
L 165.217045 194.940496 
L 166.352273 194.178501 
L 167.4875 193.407919 
L 168.622727 192.629218 
L 169.757955 191.842944 
L 170.893182 191.049741 
L 172.028409 190.250348 
L 173.163636 189.44568 
L 174.298864 188.636785 
L 175.434091 187.824885 
L 176.569318 187.01142 
L 177.704545 186.198033 
L 178.839773 185.386683 
L 179.975 184.579591 
L 181.110227 183.779353 
L 182.245455 182.989023 
L 183.380682 182.212053 
L 184.515909 181.45251 
L 185.651136 180.715094 
L 186.786364 180.00522 
L 187.921591 179.329268 
L 189.056818 178.694537 
L 190.192045 178.109608 
L 191.327273 177.584476 
L 192.4625 177.13077 
L 193.597727 176.762099 
L 194.732955 176.494468 
L 195.868182 176.346619 
L 197.003409 176.340646 
L 198.138636 176.502639 
L 199.273864 176.863459 
L 200.409091 177.459781 
L 201.544318 178.335222 
L 202.679545 179.541908 
L 203.814773 181.142195 
L 204.95 183.210983 
L 206.085227 185.838285 
L 207.220455 189.132218 
L 208.355682 193.222263 
L 209.490909 198.26209 
L 210.626136 204.430727 
L 211.761364 211.929423 
L 212.896591 220.969935 
L 214.031818 231.748318 
L 215.167045 244.39981 
L 216.302273 258.938348 
" style="fill:none;stroke:#0000ff;stroke-linecap:square;stroke-width:4;"/>
   </g>
   <g id="patch_8">
    <path d="M 105.05 275.2 
L 105.05 169.9 
" style="fill:none;stroke:#000000;stroke-linecap:square;stroke-linejoin:miter;"/>
   </g>
   <g id="patch_9">
    <path d="M 217.4375 275.2 
L 217.4375 169.9 
" style="fill:none;stroke:#000000;stroke-linecap:square;stroke-linejoin:miter;"/>
   </g>
   <g id="patch_10">
    <path d="M 105.05 275.2 
L 217.4375 275.2 
" style="fill:none;stroke:#000000;stroke-linecap:square;stroke-linejoin:miter;"/>
   </g>
   <g id="patch_11">
    <path d="M 105.05 169.9 
L 217.4375 169.9 
" style="fill:none;stroke:#000000;stroke-linecap:square;stroke-linejoin:miter;"/>
   </g>
   <g id="matplotlib.axis_3">
    <g id="xtick_10">
     <g id="line2d_46">
      <g>
       <use style="stroke:#000000;stroke-width:0.5;" x="105.05" xlink:href="#mf18c83f5da" y="275.2"/>
      </g>
     </g>
     <g id="line2d_47">
      <g>
       <use style="stroke:#000000;stroke-width:0.5;" x="105.05" xlink:href="#m3d6cd58fb2" y="169.9"/>
      </g>
     </g>
     <g id="text_20">
      <!-- $-4$ -->
      <g transform="translate(92.732209 161.656027)scale(0.2 -0.2)">
       <use transform="scale(0.996264)" xlink:href="#CMSY10-0"/>
       <use transform="translate(77.487468 0)scale(0.996264)" xlink:href="#CMR17-52"/>
      </g>
     </g>
    </g>
    <g id="xtick_11">
     <g id="line2d_48">
      <g>
       <use style="stroke:#000000;stroke-width:0.5;" x="119.098437" xlink:href="#mf18c83f5da" y="275.2"/>
      </g>
     </g>
     <g id="line2d_49">
      <g>
       <use style="stroke:#000000;stroke-width:0.5;" x="119.098437" xlink:href="#m3d6cd58fb2" y="169.9"/>
      </g>
     </g>
    </g>
    <g id="xtick_12">
     <g id="line2d_50">
      <g>
       <use style="stroke:#000000;stroke-width:0.5;" x="133.146875" xlink:href="#mf18c83f5da" y="275.2"/>
      </g>
     </g>
     <g id="line2d_51">
      <g>
       <use style="stroke:#000000;stroke-width:0.5;" x="133.146875" xlink:href="#m3d6cd58fb2" y="169.9"/>
      </g>
     </g>
    </g>
    <g id="xtick_13">
     <g id="line2d_52">
      <g>
       <use style="stroke:#000000;stroke-width:0.5;" x="147.195312" xlink:href="#mf18c83f5da" y="275.2"/>
      </g>
     </g>
     <g id="line2d_53">
      <g>
       <use style="stroke:#000000;stroke-width:0.5;" x="147.195312" xlink:href="#m3d6cd58fb2" y="169.9"/>
      </g>
     </g>
    </g>
    <g id="xtick_14">
     <g id="line2d_54">
      <g>
       <use style="stroke:#000000;stroke-width:0.5;" x="161.24375" xlink:href="#mf18c83f5da" y="275.2"/>
      </g>
     </g>
     <g id="line2d_55">
      <g>
       <use style="stroke:#000000;stroke-width:0.5;" x="161.24375" xlink:href="#m3d6cd58fb2" y="169.9"/>
      </g>
     </g>
    </g>
    <g id="xtick_15">
     <g id="line2d_56">
      <g>
       <use style="stroke:#000000;stroke-width:0.5;" x="175.292188" xlink:href="#mf18c83f5da" y="275.2"/>
      </g>
     </g>
     <g id="line2d_57">
      <g>
       <use style="stroke:#000000;stroke-width:0.5;" x="175.292188" xlink:href="#m3d6cd58fb2" y="169.9"/>
      </g>
     </g>
    </g>
    <g id="xtick_16">
     <g id="line2d_58">
      <g>
       <use style="stroke:#000000;stroke-width:0.5;" x="189.340625" xlink:href="#mf18c83f5da" y="275.2"/>
      </g>
     </g>
     <g id="line2d_59">
      <g>
       <use style="stroke:#000000;stroke-width:0.5;" x="189.340625" xlink:href="#m3d6cd58fb2" y="169.9"/>
      </g>
     </g>
    </g>
    <g id="xtick_17">
     <g id="line2d_60">
      <g>
       <use style="stroke:#000000;stroke-width:0.5;" x="203.389063" xlink:href="#mf18c83f5da" y="275.2"/>
      </g>
     </g>
     <g id="line2d_61">
      <g>
       <use style="stroke:#000000;stroke-width:0.5;" x="203.389063" xlink:href="#m3d6cd58fb2" y="169.9"/>
      </g>
     </g>
    </g>
    <g id="xtick_18">
     <g id="line2d_62">
      <g>
       <use style="stroke:#000000;stroke-width:0.5;" x="217.4375" xlink:href="#mf18c83f5da" y="275.2"/>
      </g>
     </g>
     <g id="line2d_63">
      <g>
       <use style="stroke:#000000;stroke-width:0.5;" x="217.4375" xlink:href="#m3d6cd58fb2" y="169.9"/>
      </g>
     </g>
     <g id="text_21">
      <!-- $0$ -->
      <g transform="translate(212.868452 161.656027)scale(0.2 -0.2)">
       <use transform="scale(0.996264)" xlink:href="#CMR17-48"/>
      </g>
     </g>
    </g>
    <g id="text_22">
     <!-- $s$ -->
     <g transform="translate(154.351247 142.459387)scale(0.3 -0.3)">
      <use transform="scale(0.996264)" xlink:href="#CMMI12-115"/>
     </g>
    </g>
   </g>
   <g id="matplotlib.axis_4">
    <g id="ytick_7">
     <g id="line2d_64">
      <g>
       <use style="stroke:#000000;stroke-width:0.5;" x="105.05" xlink:href="#m7b012bdf06" y="275.2"/>
      </g>
     </g>
     <g id="line2d_65">
      <g>
       <use style="stroke:#000000;stroke-width:0.5;" x="217.4375" xlink:href="#m26f724935b" y="275.2"/>
      </g>
     </g>
     <g id="text_23">
      <!-- $1$ -->
      <g transform="translate(221.4375 280.176334)scale(0.2 -0.2)">
       <use transform="scale(0.996264)" xlink:href="#CMR17-49"/>
      </g>
     </g>
    </g>
    <g id="ytick_8">
     <g id="line2d_66">
      <g>
       <use style="stroke:#000000;stroke-width:0.5;" x="105.05" xlink:href="#m7b012bdf06" y="254.14"/>
      </g>
     </g>
     <g id="line2d_67">
      <g>
       <use style="stroke:#000000;stroke-width:0.5;" x="217.4375" xlink:href="#m26f724935b" y="254.14"/>
      </g>
     </g>
    </g>
    <g id="ytick_9">
     <g id="line2d_68">
      <g>
       <use style="stroke:#000000;stroke-width:0.5;" x="105.05" xlink:href="#m7b012bdf06" y="233.08"/>
      </g>
     </g>
     <g id="line2d_69">
      <g>
       <use style="stroke:#000000;stroke-width:0.5;" x="217.4375" xlink:href="#m26f724935b" y="233.08"/>
      </g>
     </g>
    </g>
    <g id="ytick_10">
     <g id="line2d_70">
      <g>
       <use style="stroke:#000000;stroke-width:0.5;" x="105.05" xlink:href="#m7b012bdf06" y="212.02"/>
      </g>
     </g>
     <g id="line2d_71">
      <g>
       <use style="stroke:#000000;stroke-width:0.5;" x="217.4375" xlink:href="#m26f724935b" y="212.02"/>
      </g>
     </g>
    </g>
    <g id="ytick_11">
     <g id="line2d_72">
      <g>
       <use style="stroke:#000000;stroke-width:0.5;" x="105.05" xlink:href="#m7b012bdf06" y="190.96"/>
      </g>
     </g>
     <g id="line2d_73">
      <g>
       <use style="stroke:#000000;stroke-width:0.5;" x="217.4375" xlink:href="#m26f724935b" y="190.96"/>
      </g>
     </g>
    </g>
    <g id="ytick_12">
     <g id="line2d_74">
      <g>
       <use style="stroke:#000000;stroke-width:0.5;" x="105.05" xlink:href="#m7b012bdf06" y="169.9"/>
      </g>
     </g>
     <g id="line2d_75">
      <g>
       <use style="stroke:#000000;stroke-width:0.5;" x="217.4375" xlink:href="#m26f724935b" y="169.9"/>
      </g>
     </g>
     <g id="text_24">
      <!-- $1.25$ -->
      <g transform="translate(221.4375 174.876334)scale(0.2 -0.2)">
       <use transform="scale(0.996264)" xlink:href="#CMR17-49"/>
       <use transform="translate(45.690477 0)scale(0.996264)" xlink:href="#CMMI12-58"/>
       <use transform="translate(72.787654 0)scale(0.996264)" xlink:href="#CMR17-50"/>
       <use transform="translate(118.478131 0)scale(0.996264)" xlink:href="#CMR17-53"/>
      </g>
     </g>
    </g>
    <g id="text_25">
     <!-- $\mathrm{ratio}$ -->
     <defs>
      <path d="M 15 23.390625 
C 15 33 19.09375 42 26.59375 42 
C 27.296875 42 28 41.90625 28.703125 41.59375 
C 28.703125 41.59375 26.5 40.890625 26.5 38.3125 
C 26.5 35.90625 28.40625 34.90625 29.90625 34.90625 
C 31.09375 34.90625 33.296875 35.609375 33.296875 38.40625 
C 33.296875 41.609375 30.09375 43.59375 26.703125 43.59375 
C 19.09375 43.59375 15.796875 36.203125 14.796875 32.703125 
L 14.703125 32.703125 
L 14.703125 43.59375 
L 3.09375 42.5 
L 3.09375 39.90625 
C 9 39.90625 9.90625 39.296875 9.90625 34.5 
L 9.90625 6.6875 
C 9.90625 2.875 9.5 2.390625 3.09375 2.390625 
L 3.09375 -0.203125 
C 5.5 0 10.09375 0 12.703125 0 
C 15.59375 0 20.703125 0 23.40625 -0.203125 
L 23.40625 2.390625 
C 16.203125 2.390625 15 2.390625 15 6.875 
z
" id="CMR17-114"/>
      <path d="M 36 25.828125 
C 36 32.375 36 35.84375 31.796875 39.734375 
C 28.09375 43 23.796875 44 20.40625 44 
C 12.5 44 6.796875 37.609375 6.796875 30.796875 
C 6.796875 27 9.796875 27 10.40625 27 
C 11.703125 27 14 27.78125 14 30.53125 
C 14 33 12.09375 34.078125 10.40625 34.078125 
C 10 34.078125 9.5 33.96875 9.203125 33.875 
C 11.296875 40.5 16.703125 42.40625 20.203125 42.40625 
C 25.203125 42.40625 30.703125 37.953125 30.703125 29.453125 
L 30.703125 25 
C 24.796875 25 17.703125 24.203125 12.09375 21.203125 
C 5.796875 17.703125 4 12.703125 4 8.90625 
C 4 1.203125 13 -1 18.296875 -1 
C 23.796875 -1 28.90625 2.171875 31.09375 7.984375 
C 31.296875 3.640625 34.09375 -0.28125 38.5 -0.28125 
C 40.59375 -0.28125 45.90625 1.09375 45.90625 8.859375 
L 45.90625 14.375 
L 44.09375 14.375 
L 44.09375 8.78125 
C 44.09375 2.78125 41.40625 2 40.09375 2 
C 36 2 36 7.15625 36 11.53125 
z
M 30.703125 13.59375 
C 30.703125 4.953125 24.5 0.59375 19 0.59375 
C 14 0.59375 10.09375 4.296875 10.09375 8.90625 
C 10.09375 11.890625 11.40625 17.1875 17.203125 20.390625 
C 22 23.09375 27.5 23.5 30.703125 23.5 
z
" id="CMR17-97"/>
      <path d="M 15.09375 40 
L 29.09375 40 
L 29.09375 42.578125 
L 15.09375 42.578125 
L 15.09375 61 
L 13.296875 61 
C 13.09375 50.703125 9.59375 41.6875 1.09375 41.6875 
L 1.09375 40 
L 9.796875 40 
L 9.796875 12.046875 
C 9.796875 10.15625 9.796875 -1 21.40625 -1 
C 27.296875 -1 30.703125 4.78125 30.703125 12.140625 
L 30.703125 17.8125 
L 28.90625 17.8125 
L 28.90625 12.234375 
C 28.90625 5.375 26.203125 0.796875 22 0.796875 
C 19.09375 0.796875 15.09375 2.78125 15.09375 11.84375 
z
" id="CMR17-116"/>
      <path d="M 15.5 61.078125 
C 15.5 63.265625 13.703125 65.15625 11.40625 65.15625 
C 9.203125 65.15625 7.296875 63.375 7.296875 61.078125 
C 7.296875 58.890625 9.09375 57 11.40625 57 
C 13.59375 57 15.5 58.796875 15.5 61.078125 
z
M 3.796875 42.28125 
L 3.796875 39.703125 
C 9.40625 39.703125 10.203125 39.09375 10.203125 34.328125 
L 10.203125 6.671875 
C 10.203125 2.875 9.796875 2.390625 3.40625 2.390625 
L 3.40625 -0.203125 
C 5.796875 0 10.09375 0 12.59375 0 
C 15 0 19.09375 0 21.40625 -0.203125 
L 21.40625 2.390625 
C 15.5 2.390625 15.296875 2.984375 15.296875 6.5625 
L 15.296875 43.375 
z
" id="CMR17-105"/>
      <path d="M 43.09375 21.1875 
C 43.09375 34 33.796875 44 22.90625 44 
C 12 44 2.703125 34 2.703125 21.1875 
C 2.703125 8.609375 12 -1 22.90625 -1 
C 33.796875 -1 43.09375 8.609375 43.09375 21.1875 
z
M 22.90625 0.796875 
C 18.203125 0.796875 14.203125 3.59375 11.90625 7.5 
C 9.40625 11.984375 9.09375 17.59375 9.09375 22 
C 9.09375 26.203125 9.296875 31.40625 11.90625 35.90625 
C 13.90625 39.203125 17.796875 42.40625 22.90625 42.40625 
C 27.40625 42.40625 31.203125 39.90625 33.59375 36.40625 
C 36.703125 31.703125 36.703125 25.109375 36.703125 22 
C 36.703125 18.09375 36.5 12.109375 33.796875 7.296875 
C 31 2.703125 26.703125 0.796875 22.90625 0.796875 
z
" id="CMR17-111"/>
     </defs>
     <g transform="translate(280.566182 250.572023)rotate(-90)scale(0.3 -0.3)">
      <use transform="scale(0.996264)" xlink:href="#CMR17-114"/>
      <use transform="translate(35.280768 0)scale(0.996264)" xlink:href="#CMR17-97"/>
      <use transform="translate(80.971245 0)scale(0.996264)" xlink:href="#CMR17-116"/>
      <use transform="translate(116.252013 0)scale(0.996264)" xlink:href="#CMR17-105"/>
      <use transform="translate(141.123071 0)scale(0.996264)" xlink:href="#CMR17-111"/>
     </g>
    </g>
   </g>
  </g>
 </g>
 <defs>
  <clipPath id="pc043127098">
   <rect height="280.8" width="299.7" x="85.05" y="14.4"/>
  </clipPath>
  <clipPath id="pa8adbf0ddc">
   <rect height="105.3" width="112.3875" x="105.05" y="169.9"/>
  </clipPath>
 </defs>
</svg>
