<?xml version="1.0" encoding="utf-8" standalone="no"?>
<!DOCTYPE svg PUBLIC "-//W3C//DTD SVG 1.1//EN"
  "http://www.w3.org/Graphics/SVG/1.1/DTD/svg11.dtd">
<!-- Created with matplotlib (https://matplotlib.org/) -->
<svg height="360pt" version="1.1" viewBox="0 0 405 360" width="405pt" xmlns="http://www.w3.org/2000/svg" xmlns:xlink="http://www.w3.org/1999/xlink">
 <defs>
  <style type="text/css">
*{stroke-linecap:butt;stroke-linejoin:round;}
  </style>
 </defs>
 <g id="figure_1">
  <g id="patch_1">
   <path d="M 0 360 
L 405 360 
L 405 0 
L 0 0 
z
" style="fill:#ffffff;"/>
  </g>
  <g id="axes_1">
   <g id="patch_2">
    <path d="M 85.05 288 
L 384.75 288 
L 384.75 14.4 
L 85.05 14.4 
z
" style="fill:#ffffff;"/>
   </g>
   <g id="line2d_1">
    <path clip-path="url(#pe79e8e8634)" d="M 117.208085 36.904914 
L 119.5857 46.947693 
L 121.963314 56.785517 
L 124.340929 66.418386 
L 126.718543 75.846301 
L 129.096157 85.069261 
L 131.473772 94.087266 
L 133.851386 102.900317 
L 136.229001 111.508413 
L 138.606615 119.911554 
L 140.98423 128.109741 
L 143.361844 136.102973 
L 145.739458 143.89125 
L 148.117073 151.474573 
L 150.494687 158.852941 
L 152.872302 166.026354 
L 155.249916 172.994813 
L 157.627531 179.758317 
L 160.005145 186.316866 
L 162.38276 192.670461 
L 164.760374 198.819101 
L 167.137988 204.762786 
L 169.515603 210.501517 
L 171.893217 216.035293 
L 174.270832 221.364114 
L 176.648446 226.487981 
L 179.026061 231.406893 
L 181.403675 236.12085 
L 183.78129 240.629853 
L 186.158904 244.933901 
L 188.536518 249.032994 
L 190.914133 252.927133 
L 193.291747 256.616317 
L 195.669362 260.100546 
L 198.046976 263.379821 
L 200.424591 266.454141 
L 202.802205 269.323506 
L 205.179819 271.987917 
L 207.557434 274.447373 
L 209.935048 276.701874 
L 212.312663 278.751421 
L 214.690277 280.596013 
L 217.067892 282.23565 
L 219.445506 283.670333 
L 221.823121 284.900061 
L 224.200735 285.924834 
L 226.578349 286.744653 
L 228.955964 287.359517 
L 231.333578 287.769426 
L 233.711193 287.974381 
L 236.088807 287.974381 
L 238.466422 287.769426 
L 240.844036 287.359517 
L 243.221651 286.744653 
L 245.599265 285.924834 
L 247.976879 284.900061 
L 250.354494 283.670333 
L 252.732108 282.23565 
L 255.109723 280.596013 
L 257.487337 278.751421 
L 259.864952 276.701874 
L 262.242566 274.447373 
L 264.620181 271.987917 
L 266.997795 269.323506 
L 269.375409 266.454141 
L 271.753024 263.379821 
L 274.130638 260.100546 
L 276.508253 256.616317 
L 278.885867 252.927133 
L 281.263482 249.032994 
L 283.641096 244.933901 
L 286.01871 240.629853 
L 288.396325 236.12085 
L 290.773939 231.406893 
L 293.151554 226.487981 
L 295.529168 221.364114 
L 297.906783 216.035293 
L 300.284397 210.501517 
L 302.662012 204.762786 
L 305.039626 198.819101 
L 307.41724 192.670461 
L 309.794855 186.316866 
L 312.172469 179.758317 
L 314.550084 172.994813 
L 316.927698 166.026354 
L 319.305313 158.852941 
L 321.682927 151.474573 
L 324.060542 143.89125 
L 326.438156 136.102973 
L 328.81577 128.109741 
L 331.193385 119.911554 
L 333.570999 111.508413 
L 335.948614 102.900317 
L 338.326228 94.087266 
L 340.703843 85.069261 
L 343.081457 75.846301 
L 345.459071 66.418386 
L 347.836686 56.785517 
L 350.2143 46.947693 
L 352.591915 36.904914 
" style="fill:none;stroke:#ff0000;stroke-linecap:square;stroke-width:4;"/>
   </g>
   <g id="line2d_2">
    <path clip-path="url(#pe79e8e8634)" d="M 117.208085 84.46999 
L 119.5857 90.927576 
L 121.963314 97.378661 
L 124.340929 103.816747 
L 126.718543 110.235353 
L 129.096157 116.628015 
L 131.473772 122.988297 
L 133.851386 129.309795 
L 136.229001 135.586142 
L 138.606615 141.81102 
L 140.98423 147.97816 
L 143.361844 154.081353 
L 145.739458 160.114453 
L 148.117073 166.071386 
L 150.494687 171.946153 
L 152.872302 177.732838 
L 155.249916 183.425616 
L 157.627531 189.018755 
L 160.005145 194.506621 
L 162.38276 199.88369 
L 164.760374 205.144547 
L 167.137988 210.283895 
L 169.515603 215.296559 
L 171.893217 220.177491 
L 174.270832 224.921778 
L 176.648446 229.524642 
L 179.026061 233.981448 
L 181.403675 238.287708 
L 183.78129 242.439088 
L 186.158904 246.431405 
L 188.536518 250.260642 
L 190.914133 253.922941 
L 193.291747 257.414615 
L 195.669362 260.732149 
L 198.046976 263.872202 
L 200.424591 266.831612 
L 202.802205 269.607399 
L 205.179819 272.196769 
L 207.557434 274.597113 
L 209.935048 276.806016 
L 212.312663 278.821253 
L 214.690277 280.640794 
L 217.067892 282.262808 
L 219.445506 283.685662 
L 221.823121 284.907922 
L 224.200735 285.928358 
L 226.578349 286.745943 
L 228.955964 287.359853 
L 231.333578 287.76947 
L 233.711193 287.974381 
L 236.088807 287.974381 
L 238.466422 287.76947 
L 240.844036 287.359853 
L 243.221651 286.745943 
L 245.599265 285.928358 
L 247.976879 284.907922 
L 250.354494 283.685662 
L 252.732108 282.262808 
L 255.109723 280.640794 
L 257.487337 278.821253 
L 259.864952 276.806016 
L 262.242566 274.597113 
L 264.620181 272.196769 
L 266.997795 269.607399 
L 269.375409 266.831612 
L 271.753024 263.872202 
L 274.130638 260.732149 
L 276.508253 257.414615 
L 278.885867 253.922941 
L 281.263482 250.260642 
L 283.641096 246.431405 
L 286.01871 242.439088 
L 288.396325 238.287708 
L 290.773939 233.981448 
L 293.151554 229.524642 
L 295.529168 224.921778 
L 297.906783 220.177491 
L 300.284397 215.296559 
L 302.662012 210.283895 
L 305.039626 205.144547 
L 307.41724 199.88369 
L 309.794855 194.506621 
L 312.172469 189.018755 
L 314.550084 183.425616 
L 316.927698 177.732838 
L 319.305313 171.946153 
L 321.682927 166.071386 
L 324.060542 160.114453 
L 326.438156 154.081353 
L 328.81577 147.97816 
L 331.193385 141.81102 
L 333.570999 135.586142 
L 335.948614 129.309795 
L 338.326228 122.988297 
L 340.703843 116.628015 
L 343.081457 110.235353 
L 345.459071 103.816747 
L 347.836686 97.378661 
L 350.2143 90.927576 
L 352.591915 84.46999 
" style="fill:none;stroke:#008000;stroke-linecap:square;stroke-width:4;"/>
   </g>
   <g id="line2d_3">
    <path clip-path="url(#pe79e8e8634)" d="M 117.208085 52.189851 
L 119.5857 61.015763 
L 121.963314 69.712812 
L 124.340929 78.277409 
L 126.718543 86.706111 
L 129.096157 94.99561 
L 131.473772 103.142725 
L 133.851386 111.144394 
L 136.229001 118.997669 
L 138.606615 126.699706 
L 140.98423 134.247764 
L 143.361844 141.639196 
L 145.739458 148.87145 
L 148.117073 155.942058 
L 150.494687 162.848639 
L 152.872302 169.588895 
L 155.249916 176.160603 
L 157.627531 182.56162 
L 160.005145 188.789876 
L 162.38276 194.843373 
L 164.760374 200.720186 
L 167.137988 206.418458 
L 169.515603 211.936401 
L 171.893217 217.272293 
L 174.270832 222.42448 
L 176.648446 227.391372 
L 179.026061 232.171444 
L 181.403675 236.763236 
L 183.78129 241.165349 
L 186.158904 245.376449 
L 188.536518 249.395263 
L 190.914133 253.220582 
L 193.291747 256.851256 
L 195.669362 260.286198 
L 198.046976 263.524383 
L 200.424591 266.564846 
L 202.802205 269.406683 
L 205.179819 272.049051 
L 207.557434 274.491167 
L 209.935048 276.732308 
L 212.312663 278.771814 
L 214.690277 280.609082 
L 217.067892 282.243571 
L 219.445506 283.674802 
L 221.823121 284.902351 
L 224.200735 285.925861 
L 226.578349 286.745028 
L 228.955964 287.359614 
L 231.333578 287.769439 
L 233.711193 287.974381 
L 236.088807 287.974381 
L 238.466422 287.769439 
L 240.844036 287.359614 
L 243.221651 286.745028 
L 245.599265 285.925861 
L 247.976879 284.902351 
L 250.354494 283.674802 
L 252.732108 282.243571 
L 255.109723 280.609082 
L 257.487337 278.771814 
L 259.864952 276.732308 
L 262.242566 274.491167 
L 264.620181 272.049051 
L 266.997795 269.406683 
L 269.375409 266.564846 
L 271.753024 263.524383 
L 274.130638 260.286198 
L 276.508253 256.851256 
L 278.885867 253.220582 
L 281.263482 249.395263 
L 283.641096 245.376449 
L 286.01871 241.165349 
L 288.396325 236.763236 
L 290.773939 232.171444 
L 293.151554 227.391372 
L 295.529168 222.42448 
L 297.906783 217.272293 
L 300.284397 211.936401 
L 302.662012 206.418458 
L 305.039626 200.720186 
L 307.41724 194.843373 
L 309.794855 188.789876 
L 312.172469 182.56162 
L 314.550084 176.160603 
L 316.927698 169.588895 
L 319.305313 162.848639 
L 321.682927 155.942058 
L 324.060542 148.87145 
L 326.438156 141.639196 
L 328.81577 134.247764 
L 331.193385 126.699706 
L 333.570999 118.997669 
L 335.948614 111.144394 
L 338.326228 103.142725 
L 340.703843 94.99561 
L 343.081457 86.706111 
L 345.459071 78.277409 
L 347.836686 69.712812 
L 350.2143 61.015763 
L 352.591915 52.189851 
" style="fill:none;stroke:#0000ff;stroke-linecap:square;stroke-width:4;"/>
   </g>
   <g id="patch_3">
    <path d="M 85.05 288 
L 85.05 14.4 
" style="fill:none;stroke:#000000;stroke-linecap:square;stroke-linejoin:miter;"/>
   </g>
   <g id="patch_4">
    <path d="M 384.75 288 
L 384.75 14.4 
" style="fill:none;stroke:#000000;stroke-linecap:square;stroke-linejoin:miter;"/>
   </g>
   <g id="patch_5">
    <path d="M 85.05 288 
L 384.75 288 
" style="fill:none;stroke:#000000;stroke-linecap:square;stroke-linejoin:miter;"/>
   </g>
   <g id="patch_6">
    <path d="M 85.05 14.4 
L 384.75 14.4 
" style="fill:none;stroke:#000000;stroke-linecap:square;stroke-linejoin:miter;"/>
   </g>
   <g id="matplotlib.axis_1">
    <g id="xtick_1">
     <g id="line2d_4">
      <defs>
       <path d="M 0 0 
L 0 -10 
" id="mcf8a57cdb0" style="stroke:#000000;stroke-width:0.5;"/>
      </defs>
      <g>
       <use style="stroke:#000000;stroke-width:0.5;" x="117.208085" xlink:href="#mcf8a57cdb0" y="288"/>
      </g>
     </g>
     <g id="line2d_5">
      <defs>
       <path d="M 0 0 
L 0 10 
" id="mbefc9d8511" style="stroke:#000000;stroke-width:0.5;"/>
      </defs>
      <g>
       <use style="stroke:#000000;stroke-width:0.5;" x="117.208085" xlink:href="#mbefc9d8511" y="14.4"/>
      </g>
     </g>
     <g id="text_1">
      <!-- $-\frac{\pi}{2}$ -->
      <defs>
       <path d="M 65.90625 23 
C 67.59375 23 69.40625 23 69.40625 25 
C 69.40625 27 67.59375 27 65.90625 27 
L 11.796875 27 
C 10.09375 27 8.296875 27 8.296875 25 
C 8.296875 23 10.09375 23 11.796875 23 
z
" id="CMSY10-0"/>
       <path d="M 25.90625 37.625 
L 37.203125 37.625 
C 34.5 26.4375 32.796875 19.15625 32.796875 11.1875 
C 32.796875 9.78125 32.796875 -1 36.90625 -1 
C 39 -1 40.796875 0.890625 40.796875 2.59375 
C 40.796875 3.078125 40.796875 3.28125 40.09375 4.78125 
C 37.40625 11.671875 37.40625 20.25 37.40625 20.953125 
C 37.40625 21.546875 37.40625 28.625 39.5 37.625 
L 50.703125 37.625 
C 52 37.625 55.296875 37.625 55.296875 40.8125 
C 55.296875 43 53.40625 43 51.59375 43 
L 18.703125 43 
C 16.40625 43 13 43 8.40625 38.125 
C 5.796875 35.21875 2.59375 29.9375 2.59375 29.34375 
C 2.59375 28.75 3.09375 28.546875 3.703125 28.546875 
C 4.40625 28.546875 4.5 28.84375 5 29.4375 
C 10.203125 37.625 15.40625 37.625 17.90625 37.625 
L 23.59375 37.625 
C 21.40625 30.140625 18.90625 21.453125 10.703125 4 
C 9.90625 2.40625 9.90625 2.1875 9.90625 1.59375 
C 9.90625 -0.5 11.703125 -1 12.59375 -1 
C 15.5 -1 16.296875 1.59375 17.5 5.78125 
C 19.09375 10.875 19.09375 11.078125 20.09375 15.0625 
z
" id="CMMI12-25"/>
       <path d="M 41.703125 15.453125 
L 39.90625 15.453125 
C 38.90625 8.375 38.09375 7.171875 37.703125 6.5625 
C 37.203125 5.765625 30 5.765625 28.59375 5.765625 
L 9.40625 5.765625 
C 13 9.671875 20 16.75 28.5 24.953125 
C 34.59375 30.734375 41.703125 37.53125 41.703125 47.421875 
C 41.703125 59.21875 32.296875 66 21.796875 66 
C 10.796875 66 4.09375 56.3125 4.09375 47.34375 
C 4.09375 43.4375 7 42.9375 8.203125 42.9375 
C 9.203125 42.9375 12.203125 43.546875 12.203125 47.03125 
C 12.203125 50.109375 9.59375 51 8.203125 51 
C 7.59375 51 7 50.90625 6.59375 50.703125 
C 8.5 59.21875 14.296875 63.40625 20.40625 63.40625 
C 29.09375 63.40625 34.796875 56.515625 34.796875 47.421875 
C 34.796875 38.734375 29.703125 31.25 24 24.75 
L 4.09375 2.28125 
L 4.09375 0 
L 39.296875 0 
z
" id="CMR17-50"/>
      </defs>
      <g transform="translate(98.801638 322.716289)scale(0.3 -0.3)">
       <use transform="translate(0 34.355253)scale(0.996264)" xlink:href="#CMSY10-0"/>
       <use transform="translate(78.682981 73.581354)scale(0.697382)" xlink:href="#CMMI12-25"/>
       <use transform="translate(83.310009 0)scale(0.697382)" xlink:href="#CMR17-50"/>
       <path d="M 78.682981 58.766138 
L 119.920203 58.766138 
L 119.920203 59.757583 
L 78.682981 59.757583 
L 78.682981 58.766138 
z
"/>
      </g>
     </g>
    </g>
    <g id="xtick_2">
     <g id="line2d_6">
      <g>
       <use style="stroke:#000000;stroke-width:0.5;" x="156.438723" xlink:href="#mcf8a57cdb0" y="288"/>
      </g>
     </g>
     <g id="line2d_7">
      <g>
       <use style="stroke:#000000;stroke-width:0.5;" x="156.438723" xlink:href="#mbefc9d8511" y="14.4"/>
      </g>
     </g>
     <g id="text_2">
      <!-- $-\frac{\pi}{3}$ -->
      <defs>
       <path d="M 22.09375 33.703125 
C 31 33.703125 34.90625 25.96875 34.90625 17.03125 
C 34.90625 5 28.5 0.390625 22.703125 0.390625 
C 17.40625 0.390625 8.796875 3.03125 6.09375 10.828125 
C 6.59375 10.625 7.09375 10.625 7.59375 10.625 
C 10 10.625 11.796875 12.21875 11.796875 14.8125 
C 11.796875 17.703125 9.59375 19 7.59375 19 
C 5.90625 19 3.296875 18.203125 3.296875 14.46875 
C 3.296875 5.234375 12.296875 -2 22.90625 -2 
C 34 -2 42.5 6.71875 42.5 16.953125 
C 42.5 26.671875 34.5 33.703125 25 34.796875 
C 32.59375 36.375 39.90625 43.0625 39.90625 52.015625 
C 39.90625 59.6875 32 65.296875 23 65.296875 
C 13.90625 65.296875 5.90625 59.828125 5.90625 52.015625 
C 5.90625 48.59375 8.5 48 9.796875 48 
C 11.90625 48 13.703125 49.296875 13.703125 51.890625 
C 13.703125 54.46875 11.90625 55.765625 9.796875 55.765625 
C 9.40625 55.765625 8.90625 55.765625 8.5 55.578125 
C 11.40625 61.859375 19.296875 63 22.796875 63 
C 26.296875 63 32.90625 61.328125 32.90625 51.875 
C 32.90625 49.109375 32.5 44.1875 29.09375 39.84375 
C 26.09375 36 22.703125 36 19.40625 35.6875 
C 18.90625 35.6875 16.59375 35.453125 16.203125 35.453125 
C 15.5 35.359375 15.09375 35.265625 15.09375 34.5 
C 15.09375 33.796875 15.203125 33.703125 17.203125 33.703125 
z
" id="CMR17-51"/>
      </defs>
      <g transform="translate(138.032276 322.716289)scale(0.3 -0.3)">
       <use transform="translate(0 34.355253)scale(0.996264)" xlink:href="#CMSY10-0"/>
       <use transform="translate(78.682981 73.581354)scale(0.697382)" xlink:href="#CMMI12-25"/>
       <use transform="translate(83.310009 0)scale(0.697382)" xlink:href="#CMR17-51"/>
       <path d="M 78.682981 58.766138 
L 119.920203 58.766138 
L 119.920203 59.757583 
L 78.682981 59.757583 
L 78.682981 58.766138 
z
"/>
      </g>
     </g>
    </g>
    <g id="xtick_3">
     <g id="line2d_8">
      <g>
       <use style="stroke:#000000;stroke-width:0.5;" x="195.669362" xlink:href="#mcf8a57cdb0" y="288"/>
      </g>
     </g>
     <g id="line2d_9">
      <g>
       <use style="stroke:#000000;stroke-width:0.5;" x="195.669362" xlink:href="#mbefc9d8511" y="14.4"/>
      </g>
     </g>
     <g id="text_3">
      <!-- $-\frac{\pi}{6}$ -->
      <defs>
       <path d="M 10.59375 34 
C 10.59375 57.65625 21.796875 63 28.296875 63 
C 30.40625 63 35.5 62.640625 37.5 59 
C 35.90625 59 32.90625 59 32.90625 55.515625 
C 32.90625 52.828125 35.09375 51.921875 36.5 51.921875 
C 37.40625 51.921875 40.09375 52.3125 40.09375 55.625 
C 40.09375 61.78125 35.09375 65.296875 28.203125 65.296875 
C 16.296875 65.296875 3.796875 52.96875 3.796875 31 
C 3.796875 3.953125 15.09375 -2 23.09375 -2 
C 32.796875 -2 42 6.671875 42 20.046875 
C 42 32.515625 33.90625 41.59375 23.703125 41.59375 
C 17.59375 41.59375 13.09375 37.609375 10.59375 30.625 
z
M 23.09375 0.390625 
C 10.796875 0.390625 10.796875 18.75 10.796875 22.4375 
C 10.796875 29.625 14.203125 40 23.5 40 
C 25.203125 40 30.09375 40 33.40625 33.125 
C 35.203125 29.21875 35.203125 25.140625 35.203125 20.140625 
C 35.203125 14.75 35.203125 10.78125 33.09375 6.78125 
C 30.90625 2.671875 27.703125 0.390625 23.09375 0.390625 
z
" id="CMR17-54"/>
      </defs>
      <g transform="translate(177.262914 322.716289)scale(0.3 -0.3)">
       <use transform="translate(0 34.355253)scale(0.996264)" xlink:href="#CMSY10-0"/>
       <use transform="translate(78.682981 73.581354)scale(0.697382)" xlink:href="#CMMI12-25"/>
       <use transform="translate(83.310009 0)scale(0.697382)" xlink:href="#CMR17-54"/>
       <path d="M 78.682981 58.766138 
L 119.920203 58.766138 
L 119.920203 59.757583 
L 78.682981 59.757583 
L 78.682981 58.766138 
z
"/>
      </g>
     </g>
    </g>
    <g id="xtick_4">
     <g id="line2d_10">
      <g>
       <use style="stroke:#000000;stroke-width:0.5;" x="234.9" xlink:href="#mcf8a57cdb0" y="288"/>
      </g>
     </g>
     <g id="line2d_11">
      <g>
       <use style="stroke:#000000;stroke-width:0.5;" x="234.9" xlink:href="#mbefc9d8511" y="14.4"/>
      </g>
     </g>
     <g id="text_4">
      <!-- $0$ -->
      <defs>
       <path d="M 42 31.640625 
C 42 37.75 41.90625 48.125 37.703125 56.109375 
C 34 63.109375 28.09375 65.59375 22.90625 65.59375 
C 18.09375 65.59375 12 63.40625 8.203125 56.203125 
C 4.203125 48.71875 3.796875 39.4375 3.796875 31.640625 
C 3.796875 25.953125 3.90625 17.28125 7 9.671875 
C 11.296875 -0.609375 19 -2 22.90625 -2 
C 27.5 -2 34.5 -0.109375 38.59375 9.375 
C 41.59375 16.28125 42 24.359375 42 31.640625 
z
M 22.90625 -0.40625 
C 16.5 -0.40625 12.703125 5.078125 11.296875 12.6875 
C 10.203125 18.5625 10.203125 27.15625 10.203125 32.75 
C 10.203125 40.4375 10.203125 46.828125 11.5 52.921875 
C 13.40625 61.390625 19 64 22.90625 64 
C 27 64 32.296875 61.296875 34.203125 53.125 
C 35.5 47.4375 35.59375 40.734375 35.59375 32.75 
C 35.59375 26.25 35.59375 18.265625 34.40625 12.375 
C 32.296875 1.484375 26.40625 -0.40625 22.90625 -0.40625 
z
" id="CMR17-48"/>
      </defs>
      <g transform="translate(228.046428 319.294961)scale(0.3 -0.3)">
       <use transform="scale(0.996264)" xlink:href="#CMR17-48"/>
      </g>
     </g>
    </g>
    <g id="xtick_5">
     <g id="line2d_12">
      <g>
       <use style="stroke:#000000;stroke-width:0.5;" x="274.130638" xlink:href="#mcf8a57cdb0" y="288"/>
      </g>
     </g>
     <g id="line2d_13">
      <g>
       <use style="stroke:#000000;stroke-width:0.5;" x="274.130638" xlink:href="#mbefc9d8511" y="14.4"/>
      </g>
     </g>
     <g id="text_5">
      <!-- $\frac{\pi}{6}$ -->
      <g transform="translate(267.945063 322.716289)scale(0.3 -0.3)">
       <use transform="translate(0 73.581354)scale(0.697382)" xlink:href="#CMMI12-25"/>
       <use transform="translate(4.627027 0)scale(0.697382)" xlink:href="#CMR17-54"/>
       <path d="M 0 58.766138 
L 41.237221 58.766138 
L 41.237221 59.757583 
L 0 59.757583 
L 0 58.766138 
z
"/>
      </g>
     </g>
    </g>
    <g id="xtick_6">
     <g id="line2d_14">
      <g>
       <use style="stroke:#000000;stroke-width:0.5;" x="313.361277" xlink:href="#mcf8a57cdb0" y="288"/>
      </g>
     </g>
     <g id="line2d_15">
      <g>
       <use style="stroke:#000000;stroke-width:0.5;" x="313.361277" xlink:href="#mbefc9d8511" y="14.4"/>
      </g>
     </g>
     <g id="text_6">
      <!-- $\frac{\pi}{3}$ -->
      <g transform="translate(307.175702 322.716289)scale(0.3 -0.3)">
       <use transform="translate(0 73.581354)scale(0.697382)" xlink:href="#CMMI12-25"/>
       <use transform="translate(4.627027 0)scale(0.697382)" xlink:href="#CMR17-51"/>
       <path d="M 0 58.766138 
L 41.237221 58.766138 
L 41.237221 59.757583 
L 0 59.757583 
L 0 58.766138 
z
"/>
      </g>
     </g>
    </g>
    <g id="xtick_7">
     <g id="line2d_16">
      <g>
       <use style="stroke:#000000;stroke-width:0.5;" x="352.591915" xlink:href="#mcf8a57cdb0" y="288"/>
      </g>
     </g>
     <g id="line2d_17">
      <g>
       <use style="stroke:#000000;stroke-width:0.5;" x="352.591915" xlink:href="#mbefc9d8511" y="14.4"/>
      </g>
     </g>
     <g id="text_7">
      <!-- $\frac{\pi}{2}$ -->
      <g transform="translate(346.40634 322.716289)scale(0.3 -0.3)">
       <use transform="translate(0 73.581354)scale(0.697382)" xlink:href="#CMMI12-25"/>
       <use transform="translate(4.627027 0)scale(0.697382)" xlink:href="#CMR17-50"/>
       <path d="M 0 58.766138 
L 41.237221 58.766138 
L 41.237221 59.757583 
L 0 59.757583 
L 0 58.766138 
z
"/>
      </g>
     </g>
    </g>
    <g id="text_8">
     <!-- $\theta$ -->
     <defs>
      <path d="M 44.296875 50 
C 44.296875 60.15625 41.09375 70 32.90625 70 
C 18.90625 70 4 40.859375 4 19 
C 4 14.421875 5 -1 15.5 -1 
C 29.09375 -1 44.296875 27.4375 44.296875 50 
z
M 14 36 
C 15.5 41.859375 17.59375 50.21875 21.59375 57.265625 
C 24.90625 63.234375 28.40625 68 32.796875 68 
C 36.09375 68 38.296875 65.21875 38.296875 55.6875 
C 38.296875 52.09375 38 47.140625 35.09375 36 
z
M 34.40625 33.015625 
C 31.90625 23.28125 29.796875 17 26.203125 10.734375 
C 23.296875 5.671875 19.796875 1 15.59375 1 
C 12.5 1 10 3.390625 10 13.21875 
C 10 19.6875 11.59375 26.453125 13.203125 33.015625 
z
" id="CMMI12-18"/>
     </defs>
     <g transform="translate(228.081035 355.377209)scale(0.3 -0.3)">
      <use transform="scale(0.996264)" xlink:href="#CMMI12-18"/>
     </g>
    </g>
   </g>
   <g id="matplotlib.axis_2">
    <g id="ytick_1">
     <g id="line2d_18">
      <defs>
       <path d="M 0 0 
L 10 0 
" id="mf809544711" style="stroke:#000000;stroke-width:0.5;"/>
      </defs>
      <g>
       <use style="stroke:#000000;stroke-width:0.5;" x="85.05" xlink:href="#mf809544711" y="288"/>
      </g>
     </g>
     <g id="line2d_19">
      <defs>
       <path d="M 0 0 
L -10 0 
" id="ma9fa030418" style="stroke:#000000;stroke-width:0.5;"/>
      </defs>
      <g>
       <use style="stroke:#000000;stroke-width:0.5;" x="384.75" xlink:href="#ma9fa030418" y="288"/>
      </g>
     </g>
     <g id="text_9">
      <!-- $0.0$ -->
      <defs>
       <path d="M 18.40625 4.796875 
C 18.40625 7.6875 16 9.671875 13.59375 9.671875 
C 10.703125 9.671875 8.703125 7.28125 8.703125 4.890625 
C 8.703125 2 11.09375 0 13.5 0 
C 16.40625 0 18.40625 2.390625 18.40625 4.796875 
z
" id="CMMI12-58"/>
      </defs>
      <g transform="translate(45.506561 295.464501)scale(0.3 -0.3)">
       <use transform="scale(0.996264)" xlink:href="#CMR17-48"/>
       <use transform="translate(45.690477 0)scale(0.996264)" xlink:href="#CMMI12-58"/>
       <use transform="translate(72.787654 0)scale(0.996264)" xlink:href="#CMR17-48"/>
      </g>
     </g>
    </g>
    <g id="ytick_2">
     <g id="line2d_20">
      <g>
       <use style="stroke:#000000;stroke-width:0.5;" x="85.05" xlink:href="#mf809544711" y="233.28"/>
      </g>
     </g>
     <g id="line2d_21">
      <g>
       <use style="stroke:#000000;stroke-width:0.5;" x="384.75" xlink:href="#ma9fa030418" y="233.28"/>
      </g>
     </g>
     <g id="text_10">
      <!-- $0.5$ -->
      <defs>
       <path d="M 11.40625 57.6875 
C 12.40625 57.28125 16.5 56 20.703125 56 
C 30 56 35.09375 61.109375 38 64.0625 
C 38 64.953125 38 65.5 37.40625 65.5 
C 37.296875 65.5 37.09375 65.5 36.296875 65.046875 
C 32.796875 63.40625 28.703125 62.078125 23.703125 62.078125 
C 20.703125 62.078125 16.203125 62.484375 11.296875 64.671875 
C 10.203125 65.171875 10 65.171875 9.90625 65.171875 
C 9.40625 65.171875 9.296875 65.0625 9.296875 63.078125 
L 9.296875 34.421875 
C 9.296875 32.640625 9.296875 32.140625 10.296875 32.140625 
C 10.796875 32.140625 11 32.34375 11.5 33.03125 
C 14.703125 37.515625 19.09375 39.40625 24.09375 39.40625 
C 27.59375 39.40625 35.09375 37.21875 35.09375 20.140625 
C 35.09375 16.953125 35.09375 11.171875 32.09375 6.578125 
C 29.59375 2.484375 25.703125 0.390625 21.40625 0.390625 
C 14.796875 0.390625 8.09375 5 6.296875 12.71875 
C 6.703125 12.609375 7.5 12.421875 7.90625 12.421875 
C 9.203125 12.421875 11.703125 13.125 11.703125 16.21875 
C 11.703125 18.90625 9.796875 20 7.90625 20 
C 5.59375 20 4.09375 18.59375 4.09375 15.796875 
C 4.09375 7.09375 11 -2 21.59375 -2 
C 31.90625 -2 41.703125 6.875 41.703125 19.75 
C 41.703125 31.71875 33.90625 41 24.203125 41 
C 19.09375 41 14.796875 39.109375 11.40625 35.53125 
z
" id="CMR17-53"/>
      </defs>
      <g transform="translate(45.506561 240.744501)scale(0.3 -0.3)">
       <use transform="scale(0.996264)" xlink:href="#CMR17-48"/>
       <use transform="translate(45.690477 0)scale(0.996264)" xlink:href="#CMMI12-58"/>
       <use transform="translate(72.787654 0)scale(0.996264)" xlink:href="#CMR17-53"/>
      </g>
     </g>
    </g>
    <g id="ytick_3">
     <g id="line2d_22">
      <g>
       <use style="stroke:#000000;stroke-width:0.5;" x="85.05" xlink:href="#mf809544711" y="178.56"/>
      </g>
     </g>
     <g id="line2d_23">
      <g>
       <use style="stroke:#000000;stroke-width:0.5;" x="384.75" xlink:href="#ma9fa030418" y="178.56"/>
      </g>
     </g>
     <g id="text_11">
      <!-- $1.0$ -->
      <defs>
       <path d="M 26.59375 63.40625 
C 26.59375 65.5 26.5 65.5 25.09375 65.5 
C 21.203125 61.1875 15.296875 59.796875 9.703125 59.796875 
C 9.40625 59.796875 8.90625 59.796875 8.796875 59.5 
C 8.703125 59.296875 8.703125 59.09375 8.703125 57 
C 11.796875 57 17 57.59375 21 59.984375 
L 21 7.203125 
C 21 3.6875 20.796875 2.5 12.203125 2.5 
L 9.203125 2.5 
L 9.203125 0 
C 14 0 19 0 23.796875 0 
C 28.59375 0 33.59375 0 38.40625 0 
L 38.40625 2.5 
L 35.40625 2.5 
C 26.796875 2.5 26.59375 3.59375 26.59375 7.15625 
z
" id="CMR17-49"/>
      </defs>
      <g transform="translate(45.506561 186.024501)scale(0.3 -0.3)">
       <use transform="scale(0.996264)" xlink:href="#CMR17-49"/>
       <use transform="translate(45.690477 0)scale(0.996264)" xlink:href="#CMMI12-58"/>
       <use transform="translate(72.787654 0)scale(0.996264)" xlink:href="#CMR17-48"/>
      </g>
     </g>
    </g>
    <g id="ytick_4">
     <g id="line2d_24">
      <g>
       <use style="stroke:#000000;stroke-width:0.5;" x="85.05" xlink:href="#mf809544711" y="123.84"/>
      </g>
     </g>
     <g id="line2d_25">
      <g>
       <use style="stroke:#000000;stroke-width:0.5;" x="384.75" xlink:href="#ma9fa030418" y="123.84"/>
      </g>
     </g>
     <g id="text_12">
      <!-- $1.5$ -->
      <g transform="translate(45.506561 131.304501)scale(0.3 -0.3)">
       <use transform="scale(0.996264)" xlink:href="#CMR17-49"/>
       <use transform="translate(45.690477 0)scale(0.996264)" xlink:href="#CMMI12-58"/>
       <use transform="translate(72.787654 0)scale(0.996264)" xlink:href="#CMR17-53"/>
      </g>
     </g>
    </g>
    <g id="ytick_5">
     <g id="line2d_26">
      <g>
       <use style="stroke:#000000;stroke-width:0.5;" x="85.05" xlink:href="#mf809544711" y="69.12"/>
      </g>
     </g>
     <g id="line2d_27">
      <g>
       <use style="stroke:#000000;stroke-width:0.5;" x="384.75" xlink:href="#ma9fa030418" y="69.12"/>
      </g>
     </g>
     <g id="text_13">
      <!-- $2.0$ -->
      <g transform="translate(45.506561 76.584501)scale(0.3 -0.3)">
       <use transform="scale(0.996264)" xlink:href="#CMR17-50"/>
       <use transform="translate(45.690477 0)scale(0.996264)" xlink:href="#CMMI12-58"/>
       <use transform="translate(72.787654 0)scale(0.996264)" xlink:href="#CMR17-48"/>
      </g>
     </g>
    </g>
    <g id="ytick_6">
     <g id="line2d_28">
      <g>
       <use style="stroke:#000000;stroke-width:0.5;" x="85.05" xlink:href="#mf809544711" y="14.4"/>
      </g>
     </g>
     <g id="line2d_29">
      <g>
       <use style="stroke:#000000;stroke-width:0.5;" x="384.75" xlink:href="#ma9fa030418" y="14.4"/>
      </g>
     </g>
     <g id="text_14">
      <!-- $2.5$ -->
      <g transform="translate(45.506561 21.864501)scale(0.3 -0.3)">
       <use transform="scale(0.996264)" xlink:href="#CMR17-50"/>
       <use transform="translate(45.690477 0)scale(0.996264)" xlink:href="#CMMI12-58"/>
       <use transform="translate(72.787654 0)scale(0.996264)" xlink:href="#CMR17-53"/>
      </g>
     </g>
    </g>
    <g id="text_15">
     <!-- $\phi_s(\theta)$ -->
     <defs>
      <path d="M 43 68.59375 
C 43 69.5 42.296875 69.5 42 69.5 
C 41.09375 69.5 41 69.296875 40.59375 67.59375 
L 35.203125 45.921875 
C 34.90625 44.625 34.796875 44.515625 34.703125 44.421875 
C 34.59375 44.21875 33.90625 44.125 33.703125 44.125 
C 17.296875 42.71875 4.703125 29.125 4.703125 16.515625 
C 4.703125 5.640625 13 -1 23.40625 -1 
C 22.59375 -4.078125 21.90625 -7.234375 21.09375 -10.296875 
C 19.703125 -15.546875 18.90625 -18.8125 18.90625 -19.203125 
C 18.90625 -19.390625 18.90625 -20 19.90625 -20 
C 20.203125 -20 20.59375 -20 20.796875 -19.59375 
C 21 -19.390625 21.59375 -17.015625 22 -15.75 
L 25.703125 -1 
C 42.796875 -1 55.796875 13.34375 55.796875 26.25 
C 55.796875 36.609375 48.203125 44 37.09375 44 
z
M 36.5 42.203125 
C 43.09375 42.203125 49.703125 38.484375 49.703125 28.5625 
C 49.703125 17.140625 41.796875 2 26.203125 0.78125 
z
M 23.90625 0.78125 
C 19 0.78125 10.796875 3.4375 10.796875 14.65625 
C 10.796875 27.515625 19.90625 41.8125 34.296875 41.8125 
z
" id="CMMI12-30"/>
      <path d="M 22.796875 20 
C 24.5 19.703125 27.203125 19.109375 27.796875 19 
C 29.09375 18.625 33.59375 17.03125 33.59375 12.234375 
C 33.59375 9.15625 30.796875 1.09375 19.203125 1.09375 
C 17.09375 1.09375 9.59375 1.09375 7.59375 6.8125 
C 11.59375 6.3125 13.59375 9.421875 13.59375 11.640625 
C 13.59375 13.75 12.203125 14.84375 10.203125 14.84375 
C 8 14.84375 5.09375 13.140625 5.09375 8.625 
C 5.09375 2.703125 11.09375 -1 19.09375 -1 
C 34.296875 -1 38.796875 10.171875 38.796875 15.375 
C 38.796875 16.859375 38.796875 19.65625 35.59375 22.84375 
C 33.09375 25.25 30.703125 25.75 25.296875 26.84375 
C 22.59375 27.4375 18.296875 28.34375 18.296875 32.828125 
C 18.296875 34.828125 20.09375 42.015625 29.59375 42.015625 
C 33.796875 42.015625 37.90625 40.453125 38.90625 37 
C 34.5 37 34.296875 33.203125 34.296875 33.109375 
C 34.296875 31 36.203125 30.40625 37.09375 30.40625 
C 38.5 30.40625 41.296875 31.484375 41.296875 35.640625 
C 41.296875 39.765625 37.5 44 29.703125 44 
C 16.59375 44 13.09375 33.75 13.09375 29.671875 
C 13.09375 22.09375 20.5 20.5 22.796875 20 
z
" id="CMMI12-115"/>
      <path d="M 30.59375 -24.390625 
C 30.59375 -24.296875 30.59375 -24.09375 30.296875 -23.796875 
C 25.703125 -19.125 13.40625 -6.359375 13.40625 24.703125 
C 13.40625 55.765625 25.5 68.421875 30.40625 73.390625 
C 30.40625 73.5 30.59375 73.703125 30.59375 74 
C 30.59375 74.296875 30.296875 74.5 29.90625 74.5 
C 28.796875 74.5 20.296875 67.125 15.40625 56.15625 
C 10.40625 45.109375 9 34.359375 9 24.8125 
C 9 17.625 9.703125 5.484375 15.703125 -7.359375 
C 20.5 -17.734375 28.703125 -25 29.90625 -25 
C 30.40625 -25 30.59375 -24.796875 30.59375 -24.390625 
z
" id="CMR17-40"/>
      <path d="M 26.296875 24.703125 
C 26.296875 31.875 25.59375 44.015625 19.59375 56.859375 
C 14.796875 67.234375 6.59375 74.5 5.40625 74.5 
C 5.09375 74.5 4.703125 74.390625 4.703125 73.890625 
C 4.703125 73.703125 4.796875 73.59375 4.90625 73.390625 
C 9.703125 68.40625 21.90625 55.75 21.90625 24.75 
C 21.90625 -6.359375 9.796875 -19.015625 4.90625 -24.015625 
C 4.796875 -24.203125 4.703125 -24.3125 4.703125 -24.5 
C 4.703125 -25 5.09375 -25 5.40625 -25 
C 6.5 -25 15 -17.625 19.90625 -6.65625 
C 24.90625 4.390625 26.296875 15.140625 26.296875 24.703125 
z
" id="CMR17-41"/>
     </defs>
     <g transform="translate(34.140601 182.743562)rotate(-90)scale(0.3 -0.3)">
      <use transform="translate(0 14.943915)scale(0.996264)" xlink:href="#CMMI12-30"/>
      <use transform="translate(57.73418 0)scale(0.697382)" xlink:href="#CMMI12-115"/>
      <use transform="translate(90.397201 14.943915)scale(0.996264)" xlink:href="#CMR17-40"/>
      <use transform="translate(125.677969 14.943915)scale(0.996264)" xlink:href="#CMMI12-18"/>
      <use transform="translate(173.847477 14.943915)scale(0.996264)" xlink:href="#CMR17-41"/>
     </g>
    </g>
   </g>
   <g id="legend_1">
    <g id="line2d_30">
     <path d="M 154.344738 39.596641 
L 172.344738 39.596641 
" style="fill:none;stroke:#0000ff;stroke-linecap:square;stroke-width:4;"/>
    </g>
    <g id="line2d_31"/>
    <g id="text_16">
     <!-- $\phi_s$ -->
     <g transform="translate(194.344738 46.596641)scale(0.2 -0.2)">
      <use transform="translate(0 14.943915)scale(0.996264)" xlink:href="#CMMI12-30"/>
      <use transform="translate(57.73418 0)scale(0.697382)" xlink:href="#CMMI12-115"/>
     </g>
    </g>
    <g id="line2d_32">
     <path d="M 154.344738 74.281751 
L 172.344738 74.281751 
" style="fill:none;stroke:#008000;stroke-linecap:square;stroke-width:4;"/>
    </g>
    <g id="line2d_33"/>
    <g id="text_17">
     <!-- $\phi^{(g)}_s$ -->
     <defs>
      <path d="M 33.796875 12.671875 
C 33.40625 11.078125 33.203125 10.671875 31.90625 9.1875 
C 27.796875 3.890625 23.59375 2 20.5 2 
C 17.203125 2 14.09375 4.59375 14.09375 11.46875 
C 14.09375 16.765625 17.09375 27.9375 19.296875 32.4375 
C 22.203125 38.015625 26.703125 42.015625 30.90625 42.015625 
C 37.5 42.015625 38.796875 33.828125 38.796875 33.234375 
L 38.5 31.828125 
z
M 40 37.421875 
C 38.703125 40.3125 35.90625 44 30.90625 44 
C 20 44 7.59375 30.328125 7.59375 15.46875 
C 7.59375 5.09375 13.90625 0 20.296875 0 
C 25.59375 0 30.296875 4.1875 32.09375 6.1875 
L 29.90625 -2.671875 
C 28.5 -8.0625 27.90625 -10.53125 24.296875 -13.96875 
C 20.203125 -18 16.40625 -18 14.203125 -18 
C 11.203125 -18 8.703125 -17.796875 6.203125 -17.015625 
C 9.40625 -16.140625 10.203125 -13.40625 10.203125 -12.328125 
C 10.203125 -10.765625 9 -9.1875 6.796875 -9.1875 
C 4.40625 -9.1875 1.796875 -11.15625 1.796875 -14.40625 
C 1.796875 -18.4375 5.90625 -20 14.40625 -20 
C 27.296875 -20 34 -11.765625 35.296875 -6.40625 
L 46.40625 38.046875 
C 46.703125 39.234375 46.703125 39.4375 46.703125 39.625 
C 46.703125 41.015625 45.59375 42.109375 44.09375 42.109375 
C 41.703125 42.109375 40.296875 40.109375 40 37.421875 
z
" id="CMMI12-103"/>
     </defs>
     <g transform="translate(194.344738 81.281751)scale(0.2 -0.2)">
      <use transform="translate(0 24.62935)scale(0.996264)" xlink:href="#CMMI12-30"/>
      <use transform="translate(57.73418 60.782989)scale(0.697382)" xlink:href="#CMR17-40"/>
      <use transform="translate(82.430601 60.782989)scale(0.697382)" xlink:href="#CMMI12-103"/>
      <use transform="translate(117.630282 60.782989)scale(0.697382)" xlink:href="#CMR17-41"/>
      <use transform="translate(57.73418 0)scale(0.697382)" xlink:href="#CMMI12-115"/>
     </g>
    </g>
    <g id="line2d_34">
     <path d="M 154.344738 107.986468 
L 172.344738 107.986468 
" style="fill:none;stroke:#ff0000;stroke-linecap:square;stroke-width:4;"/>
    </g>
    <g id="line2d_35"/>
    <g id="text_18">
     <!-- $\frac{1}{2} \, \theta^2 \, \partial^2_{\theta} \phi_s(\theta = 0)$ -->
     <defs>
      <path d="M 45.40625 33.515625 
C 44.796875 39.125 41.296875 45.859375 32.296875 45.859375 
C 18.203125 45.859375 3.796875 31.515625 3.796875 15.5625 
C 3.796875 9.4375 8 -2.09375 21.59375 -2.09375 
C 45.203125 -2.09375 55.296875 32.296875 55.296875 46 
C 55.296875 60.40625 47.203125 71.5 34.40625 71.5 
C 19.90625 71.5 15.59375 58.796875 15.59375 56.09375 
C 15.59375 55.203125 16.203125 53 19 53 
C 22.5 53 24 56.203125 24 57.90625 
C 24 61 20.90625 61 19.59375 61 
C 23.703125 68.40625 31.296875 69.09375 34 69.09375 
C 42.796875 69.09375 48.40625 62.109375 48.40625 50.96875 
C 48.40625 44.578125 46.5 37.1875 45.5 33.515625 
z
M 21.90625 0.59375 
C 12.5 0.59375 10.90625 8.03125 10.90625 12.25 
C 10.90625 16.65625 13.703125 27 15.203125 30.703125 
C 16.5 33.71875 22.203125 43.859375 32.59375 43.859375 
C 41.703125 43.859375 43.796875 35.921875 43.796875 30.515625 
C 43.796875 23.078125 37.296875 0.59375 21.90625 0.59375 
z
" id="CMMI12-64"/>
      <path d="M 64.296875 31.515625 
C 65.796875 31.515625 67.296875 31.515625 67.296875 33.203125 
C 67.296875 35 65.59375 35 63.90625 35 
L 8 35 
C 6.296875 35 4.59375 35 4.59375 33.203125 
C 4.59375 31.515625 6.09375 31.515625 7.59375 31.515625 
z
M 63.90625 14 
C 65.59375 14 67.296875 14 67.296875 15.796875 
C 67.296875 17.484375 65.796875 17.484375 64.296875 17.484375 
L 7.59375 17.484375 
C 6.09375 17.484375 4.59375 17.484375 4.59375 15.796875 
C 4.59375 14 6.296875 14 8 14 
z
" id="CMR17-61"/>
     </defs>
     <g transform="translate(194.344738 114.986468)scale(0.2 -0.2)">
      <use transform="translate(0 73.581354)scale(0.697382)" xlink:href="#CMR17-49"/>
      <use transform="scale(0.697382)" xlink:href="#CMR17-50"/>
      <use transform="translate(49.783101 34.355253)scale(0.996264)" xlink:href="#CMMI12-18"/>
      <use transform="translate(97.952609 70.508892)scale(0.697382)" xlink:href="#CMR17-50"/>
      <use transform="translate(147.038328 34.355253)scale(0.996264)" xlink:href="#CMMI12-64"/>
      <use transform="translate(203.953892 70.508892)scale(0.697382)" xlink:href="#CMR17-50"/>
      <use transform="translate(198.534457 9.725903)scale(0.697382)" xlink:href="#CMMI12-18"/>
      <use transform="translate(236.435206 34.355253)scale(0.996264)" xlink:href="#CMMI12-30"/>
      <use transform="translate(294.169387 19.411338)scale(0.697382)" xlink:href="#CMMI12-115"/>
      <use transform="translate(326.832408 34.355253)scale(0.996264)" xlink:href="#CMR17-40"/>
      <use transform="translate(362.113175 34.355253)scale(0.996264)" xlink:href="#CMMI12-18"/>
      <use transform="translate(437.956692 34.355253)scale(0.996264)" xlink:href="#CMR17-61"/>
      <use transform="translate(537.345489 34.355253)scale(0.996264)" xlink:href="#CMR17-48"/>
      <use transform="translate(583.035966 34.355253)scale(0.996264)" xlink:href="#CMR17-41"/>
      <path d="M 0 58.766138 
L 31.983182 58.766138 
L 31.983182 59.757583 
L 0 59.757583 
L 0 58.766138 
z
"/>
     </g>
    </g>
   </g>
   <g id="legend_2">
    <g id="line2d_36">
     <path d="M 259.544107 233.199649 
L 276.644107 233.199649 
" style="fill:none;"/>
    </g>
    <g id="line2d_37"/>
    <g id="text_19">
     <!-- $s=-1.0$ -->
     <g transform="translate(297.544107 239.849649)scale(0.19 -0.19)">
      <use transform="scale(0.996264)" xlink:href="#CMMI12-115"/>
      <use transform="translate(73.624056 0)scale(0.996264)" xlink:href="#CMR17-61"/>
      <use transform="translate(173.012853 0)scale(0.996264)" xlink:href="#CMSY10-0"/>
      <use transform="translate(250.500321 0)scale(0.996264)" xlink:href="#CMR17-49"/>
      <use transform="translate(296.190798 0)scale(0.996264)" xlink:href="#CMMI12-58"/>
      <use transform="translate(323.287975 0)scale(0.996264)" xlink:href="#CMR17-48"/>
     </g>
    </g>
    <g id="line2d_38">
     <path d="M 259.544107 260.218229 
L 276.644107 260.218229 
" style="fill:none;"/>
    </g>
    <g id="line2d_39"/>
    <g id="text_20">
     <!-- $D_r=0.5$ -->
     <defs>
      <path d="M 15.703125 7.375 
C 14.796875 3.890625 14.59375 2.890625 7.59375 2.890625 
C 5.703125 2.890625 4.703125 2.890625 4.703125 1.09375 
C 4.703125 0 5.296875 0 7.296875 0 
L 39 0 
C 59.203125 0 78.90625 20.8125 78.90625 43.015625 
C 78.90625 57.359375 70.296875 68 56 68 
L 23.90625 68 
C 22 68 21.09375 68 21.09375 66.109375 
C 21.09375 65.109375 22 65.109375 23.5 65.109375 
C 29.59375 65.109375 29.59375 64.3125 29.59375 63.21875 
C 29.59375 63.03125 29.59375 62.421875 29.203125 60.921875 
z
M 36.796875 61.421875 
C 37.703125 65.109375 38.09375 65.109375 42 65.109375 
L 53 65.109375 
C 62.40625 65.109375 71 60.03125 71 46.296875 
C 71 41.3125 69 24 59.296875 13.046875 
C 56.5 9.765625 48.90625 2.890625 37.40625 2.890625 
L 26 2.890625 
C 24.59375 2.890625 24.40625 2.890625 23.796875 3 
C 22.703125 3.09375 22.59375 3.296875 22.59375 4.09375 
C 22.59375 4.796875 22.796875 5.390625 23 6.28125 
z
" id="CMMI12-68"/>
      <path d="M 38.90625 40.8125 
C 35.796875 40.21875 34.203125 38.015625 34.203125 35.828125 
C 34.203125 33.421875 36.09375 32.625 37.5 32.625 
C 40.296875 32.625 42.59375 35.03125 42.59375 38.015625 
C 42.59375 41.21875 39.5 44 34.5 44 
C 30.5 44 25.90625 42.203125 21.703125 36.125 
C 21 41.40625 17 44 13 44 
C 9.09375 44 7.09375 41.015625 5.90625 38.8125 
C 4.203125 35.21875 2.703125 29.234375 2.703125 28.734375 
C 2.703125 28.34375 3.09375 27.84375 3.796875 27.84375 
C 4.59375 27.84375 4.703125 27.9375 5.296875 30.234375 
C 6.796875 36.21875 8.703125 42.015625 12.703125 42.015625 
C 15.09375 42.015625 15.796875 40.3125 15.796875 37.421875 
C 15.796875 35.21875 14.796875 31.328125 14.09375 28.234375 
L 11.296875 17.46875 
C 10.90625 15.5625 9.796875 11.078125 9.296875 9.28125 
C 8.59375 6.6875 7.5 2 7.5 1.5 
C 7.5 0.09375 8.59375 -1 10.09375 -1 
C 11.203125 -1 13.09375 -0.296875 13.703125 1.703125 
C 14 2.5 17.703125 17.5625 18.296875 19.859375 
C 18.796875 22.046875 19.40625 24.15625 19.90625 26.34375 
C 20.296875 27.734375 20.703125 29.34375 21 30.640625 
C 21.296875 31.53125 24 36.421875 26.5 38.625 
C 27.703125 39.71875 30.296875 42.015625 34.40625 42.015625 
C 36 42.015625 37.59375 41.71875 38.90625 40.8125 
z
" id="CMMI12-114"/>
     </defs>
     <g transform="translate(297.544107 266.868229)scale(0.19 -0.19)">
      <use transform="translate(0 14.943915)scale(0.996264)" xlink:href="#CMMI12-68"/>
      <use transform="translate(80.99423 0)scale(0.697382)" xlink:href="#CMMI12-114"/>
      <use transform="translate(141.83564 14.943915)scale(0.996264)" xlink:href="#CMR17-61"/>
      <use transform="translate(241.224437 14.943915)scale(0.996264)" xlink:href="#CMR17-48"/>
      <use transform="translate(286.914914 14.943915)scale(0.996264)" xlink:href="#CMMI12-58"/>
      <use transform="translate(314.012091 14.943915)scale(0.996264)" xlink:href="#CMR17-53"/>
     </g>
    </g>
   </g>
   <g id="legend_3">
    <g id="line2d_40">
     <path d="M 259.544107 233.199649 
L 276.644107 233.199649 
" style="fill:none;"/>
    </g>
    <g id="line2d_41"/>
    <g id="text_21">
     <!-- $s=-1.0$ -->
     <g transform="translate(297.544107 239.849649)scale(0.19 -0.19)">
      <use transform="scale(0.996264)" xlink:href="#CMMI12-115"/>
      <use transform="translate(73.624056 0)scale(0.996264)" xlink:href="#CMR17-61"/>
      <use transform="translate(173.012853 0)scale(0.996264)" xlink:href="#CMSY10-0"/>
      <use transform="translate(250.500321 0)scale(0.996264)" xlink:href="#CMR17-49"/>
      <use transform="translate(296.190798 0)scale(0.996264)" xlink:href="#CMMI12-58"/>
      <use transform="translate(323.287975 0)scale(0.996264)" xlink:href="#CMR17-48"/>
     </g>
    </g>
    <g id="line2d_42">
     <path d="M 259.544107 260.218229 
L 276.644107 260.218229 
" style="fill:none;"/>
    </g>
    <g id="line2d_43"/>
    <g id="text_22">
     <!-- $D_r=0.5$ -->
     <g transform="translate(297.544107 266.868229)scale(0.19 -0.19)">
      <use transform="translate(0 14.943915)scale(0.996264)" xlink:href="#CMMI12-68"/>
      <use transform="translate(80.99423 0)scale(0.697382)" xlink:href="#CMMI12-114"/>
      <use transform="translate(141.83564 14.943915)scale(0.996264)" xlink:href="#CMR17-61"/>
      <use transform="translate(241.224437 14.943915)scale(0.996264)" xlink:href="#CMR17-48"/>
      <use transform="translate(286.914914 14.943915)scale(0.996264)" xlink:href="#CMMI12-58"/>
      <use transform="translate(314.012091 14.943915)scale(0.996264)" xlink:href="#CMR17-53"/>
     </g>
    </g>
   </g>
  </g>
 </g>
 <defs>
  <clipPath id="pe79e8e8634">
   <rect height="273.6" width="299.7" x="85.05" y="14.4"/>
  </clipPath>
 </defs>
</svg>
