<?xml version="1.0" encoding="utf-8" standalone="no"?>
<!DOCTYPE svg PUBLIC "-//W3C//DTD SVG 1.1//EN"
  "http://www.w3.org/Graphics/SVG/1.1/DTD/svg11.dtd">
<!-- Created with matplotlib (https://matplotlib.org/) -->
<svg height="360pt" version="1.1" viewBox="0 0 405 360" width="405pt" xmlns="http://www.w3.org/2000/svg" xmlns:xlink="http://www.w3.org/1999/xlink">
 <defs>
  <style type="text/css">
*{stroke-linecap:butt;stroke-linejoin:round;}
  </style>
 </defs>
 <g id="figure_1">
  <g id="patch_1">
   <path d="M 0 360 
L 405 360 
L 405 0 
L 0 0 
z
" style="fill:#ffffff;"/>
  </g>
  <g id="axes_1">
   <g id="patch_2">
    <path d="M 101.25 288 
L 384.75 288 
L 384.75 14.4 
L 101.25 14.4 
z
" style="fill:#ffffff;"/>
   </g>
   <g id="LineCollection_1">
    <path clip-path="url(#p0d1c66e581)" d="M 380.03063 75.77786 
L 381.234233 75.77786 
" style="fill:none;stroke:#004cff;stroke-width:4;"/>
    <path clip-path="url(#p0d1c66e581)" d="M 354.085981 113.508303 
L 354.892408 113.508303 
" style="fill:none;stroke:#004cff;stroke-width:4;"/>
    <path clip-path="url(#p0d1c66e581)" d="M 320.092452 156.783666 
L 321.68396 156.783666 
" style="fill:none;stroke:#004cff;stroke-width:4;"/>
    <path clip-path="url(#p0d1c66e581)" d="M 283.037124 199.113655 
L 283.948592 199.113655 
" style="fill:none;stroke:#004cff;stroke-width:4;"/>
    <path clip-path="url(#p0d1c66e581)" d="M 246.996213 234.6856 
L 247.860813 234.6856 
" style="fill:none;stroke:#004cff;stroke-width:4;"/>
    <path clip-path="url(#p0d1c66e581)" d="M 217.763311 259.215698 
L 218.391383 259.215698 
" style="fill:none;stroke:#004cff;stroke-width:4;"/>
    <path clip-path="url(#p0d1c66e581)" d="M 195.930866 274.198761 
L 196.355992 274.198761 
" style="fill:none;stroke:#004cff;stroke-width:4;"/>
    <path clip-path="url(#p0d1c66e581)" d="M 181.89917 281.678623 
L 182.33325 281.678623 
" style="fill:none;stroke:#004cff;stroke-width:4;"/>
    <path clip-path="url(#p0d1c66e581)" d="M 171.643695 285.692764 
L 171.80343 285.692764 
" style="fill:none;stroke:#004cff;stroke-width:4;"/>
    <path clip-path="url(#p0d1c66e581)" d="M 163.898949 287.507023 
L 164.105628 287.507023 
" style="fill:none;stroke:#004cff;stroke-width:4;"/>
    <path clip-path="url(#p0d1c66e581)" d="M 157.841632 288 
L 157.978206 288 
" style="fill:none;stroke:#004cff;stroke-width:4;"/>
   </g>
   <g id="LineCollection_2">
    <path clip-path="url(#p0d1c66e581)" d="M 380.632431 76.670306 
L 380.632431 74.885413 
" style="fill:none;stroke:#004cff;stroke-width:4;"/>
    <path clip-path="url(#p0d1c66e581)" d="M 354.489194 114.031742 
L 354.489194 112.984864 
" style="fill:none;stroke:#004cff;stroke-width:4;"/>
    <path clip-path="url(#p0d1c66e581)" d="M 320.888206 157.701126 
L 320.888206 155.866206 
" style="fill:none;stroke:#004cff;stroke-width:4;"/>
    <path clip-path="url(#p0d1c66e581)" d="M 283.492858 199.576806 
L 283.492858 198.650504 
" style="fill:none;stroke:#004cff;stroke-width:4;"/>
    <path clip-path="url(#p0d1c66e581)" d="M 247.428513 235.072727 
L 247.428513 234.298472 
" style="fill:none;stroke:#004cff;stroke-width:4;"/>
    <path clip-path="url(#p0d1c66e581)" d="M 218.077347 259.441952 
L 218.077347 258.989445 
" style="fill:none;stroke:#004cff;stroke-width:4;"/>
    <path clip-path="url(#p0d1c66e581)" d="M 196.143429 274.32087 
L 196.143429 274.076652 
" style="fill:none;stroke:#004cff;stroke-width:4;"/>
    <path clip-path="url(#p0d1c66e581)" d="M 182.11621 281.770132 
L 182.11621 281.587113 
" style="fill:none;stroke:#004cff;stroke-width:4;"/>
    <path clip-path="url(#p0d1c66e581)" d="M 171.723562 285.715981 
L 171.723562 285.669546 
" style="fill:none;stroke:#004cff;stroke-width:4;"/>
    <path clip-path="url(#p0d1c66e581)" d="M 164.002289 287.522065 
L 164.002289 287.49198 
" style="fill:none;stroke:#004cff;stroke-width:4;"/>
    <path clip-path="url(#p0d1c66e581)" d="M 157.909919 288 
L 157.909919 288 
" style="fill:none;stroke:#004cff;stroke-width:4;"/>
   </g>
   <g id="LineCollection_3">
    <path clip-path="url(#p0d1c66e581)" d="M 371.9665 46.67228 
L 372.990309 46.67228 
" style="fill:none;stroke:#29ffce;stroke-width:4;"/>
    <path clip-path="url(#p0d1c66e581)" d="M 346.339448 83.564434 
L 347.573231 83.564434 
" style="fill:none;stroke:#29ffce;stroke-width:4;"/>
    <path clip-path="url(#p0d1c66e581)" d="M 314.562844 124.472628 
L 315.933549 124.472628 
" style="fill:none;stroke:#29ffce;stroke-width:4;"/>
    <path clip-path="url(#p0d1c66e581)" d="M 266.401562 178.767083 
L 268.342915 178.767083 
" style="fill:none;stroke:#29ffce;stroke-width:4;"/>
    <path clip-path="url(#p0d1c66e581)" d="M 213.372947 231.398631 
L 214.680826 231.398631 
" style="fill:none;stroke:#29ffce;stroke-width:4;"/>
    <path clip-path="url(#p0d1c66e581)" d="M 174.59596 264.356596 
L 175.137272 264.356596 
" style="fill:none;stroke:#29ffce;stroke-width:4;"/>
    <path clip-path="url(#p0d1c66e581)" d="M 154.310452 278.372889 
L 154.77691 278.372889 
" style="fill:none;stroke:#29ffce;stroke-width:4;"/>
    <path clip-path="url(#p0d1c66e581)" d="M 143.646961 284.179666 
L 143.852458 284.179666 
" style="fill:none;stroke:#29ffce;stroke-width:4;"/>
    <path clip-path="url(#p0d1c66e581)" d="M 137.00176 286.748169 
L 137.135459 286.748169 
" style="fill:none;stroke:#29ffce;stroke-width:4;"/>
    <path clip-path="url(#p0d1c66e581)" d="M 132.64571 287.758109 
L 132.728621 287.758109 
" style="fill:none;stroke:#29ffce;stroke-width:4;"/>
    <path clip-path="url(#p0d1c66e581)" d="M 129.586013 288 
L 129.645052 288 
" style="fill:none;stroke:#29ffce;stroke-width:4;"/>
   </g>
   <g id="LineCollection_4">
    <path clip-path="url(#p0d1c66e581)" d="M 372.478404 47.398946 
L 372.478404 45.945613 
" style="fill:none;stroke:#29ffce;stroke-width:4;"/>
    <path clip-path="url(#p0d1c66e581)" d="M 346.956339 84.361747 
L 346.956339 82.767122 
" style="fill:none;stroke:#29ffce;stroke-width:4;"/>
    <path clip-path="url(#p0d1c66e581)" d="M 315.248197 125.277179 
L 315.248197 123.668076 
" style="fill:none;stroke:#29ffce;stroke-width:4;"/>
    <path clip-path="url(#p0d1c66e581)" d="M 267.372238 179.807201 
L 267.372238 177.726965 
" style="fill:none;stroke:#29ffce;stroke-width:4;"/>
    <path clip-path="url(#p0d1c66e581)" d="M 214.026887 231.966579 
L 214.026887 230.830682 
" style="fill:none;stroke:#29ffce;stroke-width:4;"/>
    <path clip-path="url(#p0d1c66e581)" d="M 174.866616 264.547364 
L 174.866616 264.165828 
" style="fill:none;stroke:#29ffce;stroke-width:4;"/>
    <path clip-path="url(#p0d1c66e581)" d="M 154.543681 278.504579 
L 154.543681 278.241198 
" style="fill:none;stroke:#29ffce;stroke-width:4;"/>
    <path clip-path="url(#p0d1c66e581)" d="M 143.74971 284.222434 
L 143.74971 284.136897 
" style="fill:none;stroke:#29ffce;stroke-width:4;"/>
    <path clip-path="url(#p0d1c66e581)" d="M 137.068609 286.767152 
L 137.068609 286.729186 
" style="fill:none;stroke:#29ffce;stroke-width:4;"/>
    <path clip-path="url(#p0d1c66e581)" d="M 132.687165 287.764125 
L 132.687165 287.752092 
" style="fill:none;stroke:#29ffce;stroke-width:4;"/>
    <path clip-path="url(#p0d1c66e581)" d="M 129.615532 288 
L 129.615532 288 
" style="fill:none;stroke:#29ffce;stroke-width:4;"/>
   </g>
   <g id="LineCollection_5">
    <path clip-path="url(#p0d1c66e581)" d="M 365.474023 31.712027 
L 366.861108 31.712027 
" style="fill:none;stroke:#ceff29;stroke-width:4;"/>
    <path clip-path="url(#p0d1c66e581)" d="M 340.08649 67.403361 
L 342.48417 67.403361 
" style="fill:none;stroke:#ceff29;stroke-width:4;"/>
    <path clip-path="url(#p0d1c66e581)" d="M 306.013071 111.75948 
L 307.223478 111.75948 
" style="fill:none;stroke:#ceff29;stroke-width:4;"/>
    <path clip-path="url(#p0d1c66e581)" d="M 263.269152 158.802242 
L 266.212568 158.802242 
" style="fill:none;stroke:#ceff29;stroke-width:4;"/>
    <path clip-path="url(#p0d1c66e581)" d="M 201.608291 219.682736 
L 203.788416 219.682736 
" style="fill:none;stroke:#ceff29;stroke-width:4;"/>
    <path clip-path="url(#p0d1c66e581)" d="M 140.290162 271.978568 
L 141.162093 271.978568 
" style="fill:none;stroke:#ceff29;stroke-width:4;"/>
    <path clip-path="url(#p0d1c66e581)" d="M 124.617813 283.11257 
L 124.805089 283.11257 
" style="fill:none;stroke:#ceff29;stroke-width:4;"/>
    <path clip-path="url(#p0d1c66e581)" d="M 118.741755 286.293287 
L 118.868285 286.293287 
" style="fill:none;stroke:#ceff29;stroke-width:4;"/>
    <path clip-path="url(#p0d1c66e581)" d="M 115.797908 287.446802 
L 115.847871 287.446802 
" style="fill:none;stroke:#ceff29;stroke-width:4;"/>
    <path clip-path="url(#p0d1c66e581)" d="M 113.893796 287.893268 
L 113.936234 287.893268 
" style="fill:none;stroke:#ceff29;stroke-width:4;"/>
    <path clip-path="url(#p0d1c66e581)" d="M 112.568567 288 
L 112.593319 288 
" style="fill:none;stroke:#ceff29;stroke-width:4;"/>
   </g>
   <g id="LineCollection_6">
    <path clip-path="url(#p0d1c66e581)" d="M 366.167565 32.723401 
L 366.167565 30.700654 
" style="fill:none;stroke:#ceff29;stroke-width:4;"/>
    <path clip-path="url(#p0d1c66e581)" d="M 341.28533 69.026708 
L 341.28533 65.780014 
" style="fill:none;stroke:#ceff29;stroke-width:4;"/>
    <path clip-path="url(#p0d1c66e581)" d="M 306.618274 112.474379 
L 306.618274 111.044581 
" style="fill:none;stroke:#ceff29;stroke-width:4;"/>
    <path clip-path="url(#p0d1c66e581)" d="M 264.74086 160.325176 
L 264.74086 157.279308 
" style="fill:none;stroke:#ceff29;stroke-width:4;"/>
    <path clip-path="url(#p0d1c66e581)" d="M 202.698354 220.663345 
L 202.698354 218.702128 
" style="fill:none;stroke:#ceff29;stroke-width:4;"/>
    <path clip-path="url(#p0d1c66e581)" d="M 140.726127 272.287983 
L 140.726127 271.669152 
" style="fill:none;stroke:#ceff29;stroke-width:4;"/>
    <path clip-path="url(#p0d1c66e581)" d="M 124.711451 283.163477 
L 124.711451 283.061664 
" style="fill:none;stroke:#ceff29;stroke-width:4;"/>
    <path clip-path="url(#p0d1c66e581)" d="M 118.80502 286.320469 
L 118.80502 286.266105 
" style="fill:none;stroke:#ceff29;stroke-width:4;"/>
    <path clip-path="url(#p0d1c66e581)" d="M 115.82289 287.453953 
L 115.82289 287.439652 
" style="fill:none;stroke:#ceff29;stroke-width:4;"/>
    <path clip-path="url(#p0d1c66e581)" d="M 113.915015 287.896356 
L 113.915015 287.890181 
" style="fill:none;stroke:#ceff29;stroke-width:4;"/>
    <path clip-path="url(#p0d1c66e581)" d="M 112.580943 288 
L 112.580943 288 
" style="fill:none;stroke:#ceff29;stroke-width:4;"/>
   </g>
   <g id="LineCollection_7">
    <path clip-path="url(#p0d1c66e581)" d="M 358.463723 32.685241 
L 360.785382 32.685241 
" style="fill:none;stroke:#ff6800;stroke-width:4;"/>
    <path clip-path="url(#p0d1c66e581)" d="M 333.673017 68.391236 
L 335.333759 68.391236 
" style="fill:none;stroke:#ff6800;stroke-width:4;"/>
    <path clip-path="url(#p0d1c66e581)" d="M 297.920423 113.026475 
L 299.685323 113.026475 
" style="fill:none;stroke:#ff6800;stroke-width:4;"/>
    <path clip-path="url(#p0d1c66e581)" d="M 252.642554 161.391575 
L 256.820356 161.391575 
" style="fill:none;stroke:#ff6800;stroke-width:4;"/>
    <path clip-path="url(#p0d1c66e581)" d="M 190.723689 220.090881 
L 196.297539 220.090881 
" style="fill:none;stroke:#ff6800;stroke-width:4;"/>
    <path clip-path="url(#p0d1c66e581)" d="M 126.603464 275.798794 
L 127.432076 275.798794 
" style="fill:none;stroke:#ff6800;stroke-width:4;"/>
    <path clip-path="url(#p0d1c66e581)" d="M 113.479579 285.27778 
L 113.580619 285.27778 
" style="fill:none;stroke:#ff6800;stroke-width:4;"/>
    <path clip-path="url(#p0d1c66e581)" d="M 110.135463 287.097037 
L 110.20636 287.097037 
" style="fill:none;stroke:#ff6800;stroke-width:4;"/>
    <path clip-path="url(#p0d1c66e581)" d="M 108.545714 287.716963 
L 108.59202 287.716963 
" style="fill:none;stroke:#ff6800;stroke-width:4;"/>
    <path clip-path="url(#p0d1c66e581)" d="M 107.571119 287.947588 
L 107.588129 287.947588 
" style="fill:none;stroke:#ff6800;stroke-width:4;"/>
    <path clip-path="url(#p0d1c66e581)" d="M 106.904834 288 
L 106.925801 288 
" style="fill:none;stroke:#ff6800;stroke-width:4;"/>
   </g>
   <g id="LineCollection_8">
    <path clip-path="url(#p0d1c66e581)" d="M 359.624553 34.362624 
L 359.624553 31.007858 
" style="fill:none;stroke:#ff6800;stroke-width:4;"/>
    <path clip-path="url(#p0d1c66e581)" d="M 334.503388 69.418607 
L 334.503388 67.363866 
" style="fill:none;stroke:#ff6800;stroke-width:4;"/>
    <path clip-path="url(#p0d1c66e581)" d="M 298.802873 114.047522 
L 298.802873 112.005427 
" style="fill:none;stroke:#ff6800;stroke-width:4;"/>
    <path clip-path="url(#p0d1c66e581)" d="M 254.731455 163.596114 
L 254.731455 159.187036 
" style="fill:none;stroke:#ff6800;stroke-width:4;"/>
    <path clip-path="url(#p0d1c66e581)" d="M 193.510614 222.49903 
L 193.510614 217.682732 
" style="fill:none;stroke:#ff6800;stroke-width:4;"/>
    <path clip-path="url(#p0d1c66e581)" d="M 127.01777 276.099567 
L 127.01777 275.498021 
" style="fill:none;stroke:#ff6800;stroke-width:4;"/>
    <path clip-path="url(#p0d1c66e581)" d="M 113.530099 285.307432 
L 113.530099 285.248128 
" style="fill:none;stroke:#ff6800;stroke-width:4;"/>
    <path clip-path="url(#p0d1c66e581)" d="M 110.170911 287.112208 
L 110.170911 287.081865 
" style="fill:none;stroke:#ff6800;stroke-width:4;"/>
    <path clip-path="url(#p0d1c66e581)" d="M 108.568867 287.723612 
L 108.568867 287.710314 
" style="fill:none;stroke:#ff6800;stroke-width:4;"/>
    <path clip-path="url(#p0d1c66e581)" d="M 107.579624 287.948822 
L 107.579624 287.946354 
" style="fill:none;stroke:#ff6800;stroke-width:4;"/>
    <path clip-path="url(#p0d1c66e581)" d="M 106.915318 288 
L 106.915318 288 
" style="fill:none;stroke:#ff6800;stroke-width:4;"/>
   </g>
   <g id="line2d_1">
    <defs>
     <path d="M 0 3 
L 0 -3 
" id="m3ef1809edd" style="stroke:#004cff;stroke-width:0.5;"/>
    </defs>
    <g clip-path="url(#p0d1c66e581)">
     <use style="fill:#004cff;stroke:#004cff;stroke-width:0.5;" x="380.03063" xlink:href="#m3ef1809edd" y="75.77786"/>
     <use style="fill:#004cff;stroke:#004cff;stroke-width:0.5;" x="354.085981" xlink:href="#m3ef1809edd" y="113.508303"/>
     <use style="fill:#004cff;stroke:#004cff;stroke-width:0.5;" x="320.092452" xlink:href="#m3ef1809edd" y="156.783666"/>
     <use style="fill:#004cff;stroke:#004cff;stroke-width:0.5;" x="283.037124" xlink:href="#m3ef1809edd" y="199.113655"/>
     <use style="fill:#004cff;stroke:#004cff;stroke-width:0.5;" x="246.996213" xlink:href="#m3ef1809edd" y="234.6856"/>
     <use style="fill:#004cff;stroke:#004cff;stroke-width:0.5;" x="217.763311" xlink:href="#m3ef1809edd" y="259.215698"/>
     <use style="fill:#004cff;stroke:#004cff;stroke-width:0.5;" x="195.930866" xlink:href="#m3ef1809edd" y="274.198761"/>
     <use style="fill:#004cff;stroke:#004cff;stroke-width:0.5;" x="181.89917" xlink:href="#m3ef1809edd" y="281.678623"/>
     <use style="fill:#004cff;stroke:#004cff;stroke-width:0.5;" x="171.643695" xlink:href="#m3ef1809edd" y="285.692764"/>
     <use style="fill:#004cff;stroke:#004cff;stroke-width:0.5;" x="163.898949" xlink:href="#m3ef1809edd" y="287.507023"/>
     <use style="fill:#004cff;stroke:#004cff;stroke-width:0.5;" x="157.841632" xlink:href="#m3ef1809edd" y="288"/>
    </g>
   </g>
   <g id="line2d_2">
    <g clip-path="url(#p0d1c66e581)">
     <use style="fill:#004cff;stroke:#004cff;stroke-width:0.5;" x="381.234233" xlink:href="#m3ef1809edd" y="75.77786"/>
     <use style="fill:#004cff;stroke:#004cff;stroke-width:0.5;" x="354.892408" xlink:href="#m3ef1809edd" y="113.508303"/>
     <use style="fill:#004cff;stroke:#004cff;stroke-width:0.5;" x="321.68396" xlink:href="#m3ef1809edd" y="156.783666"/>
     <use style="fill:#004cff;stroke:#004cff;stroke-width:0.5;" x="283.948592" xlink:href="#m3ef1809edd" y="199.113655"/>
     <use style="fill:#004cff;stroke:#004cff;stroke-width:0.5;" x="247.860813" xlink:href="#m3ef1809edd" y="234.6856"/>
     <use style="fill:#004cff;stroke:#004cff;stroke-width:0.5;" x="218.391383" xlink:href="#m3ef1809edd" y="259.215698"/>
     <use style="fill:#004cff;stroke:#004cff;stroke-width:0.5;" x="196.355992" xlink:href="#m3ef1809edd" y="274.198761"/>
     <use style="fill:#004cff;stroke:#004cff;stroke-width:0.5;" x="182.33325" xlink:href="#m3ef1809edd" y="281.678623"/>
     <use style="fill:#004cff;stroke:#004cff;stroke-width:0.5;" x="171.80343" xlink:href="#m3ef1809edd" y="285.692764"/>
     <use style="fill:#004cff;stroke:#004cff;stroke-width:0.5;" x="164.105628" xlink:href="#m3ef1809edd" y="287.507023"/>
     <use style="fill:#004cff;stroke:#004cff;stroke-width:0.5;" x="157.978206" xlink:href="#m3ef1809edd" y="288"/>
    </g>
   </g>
   <g id="line2d_3">
    <defs>
     <path d="M 3 0 
L -3 -0 
" id="m5f308e7b12" style="stroke:#004cff;stroke-width:0.5;"/>
    </defs>
    <g clip-path="url(#p0d1c66e581)">
     <use style="fill:#004cff;stroke:#004cff;stroke-width:0.5;" x="380.632431" xlink:href="#m5f308e7b12" y="76.670306"/>
     <use style="fill:#004cff;stroke:#004cff;stroke-width:0.5;" x="354.489194" xlink:href="#m5f308e7b12" y="114.031742"/>
     <use style="fill:#004cff;stroke:#004cff;stroke-width:0.5;" x="320.888206" xlink:href="#m5f308e7b12" y="157.701126"/>
     <use style="fill:#004cff;stroke:#004cff;stroke-width:0.5;" x="283.492858" xlink:href="#m5f308e7b12" y="199.576806"/>
     <use style="fill:#004cff;stroke:#004cff;stroke-width:0.5;" x="247.428513" xlink:href="#m5f308e7b12" y="235.072727"/>
     <use style="fill:#004cff;stroke:#004cff;stroke-width:0.5;" x="218.077347" xlink:href="#m5f308e7b12" y="259.441952"/>
     <use style="fill:#004cff;stroke:#004cff;stroke-width:0.5;" x="196.143429" xlink:href="#m5f308e7b12" y="274.32087"/>
     <use style="fill:#004cff;stroke:#004cff;stroke-width:0.5;" x="182.11621" xlink:href="#m5f308e7b12" y="281.770132"/>
     <use style="fill:#004cff;stroke:#004cff;stroke-width:0.5;" x="171.723562" xlink:href="#m5f308e7b12" y="285.715981"/>
     <use style="fill:#004cff;stroke:#004cff;stroke-width:0.5;" x="164.002289" xlink:href="#m5f308e7b12" y="287.522065"/>
     <use style="fill:#004cff;stroke:#004cff;stroke-width:0.5;" x="157.909919" xlink:href="#m5f308e7b12" y="288"/>
    </g>
   </g>
   <g id="line2d_4">
    <g clip-path="url(#p0d1c66e581)">
     <use style="fill:#004cff;stroke:#004cff;stroke-width:0.5;" x="380.632431" xlink:href="#m5f308e7b12" y="74.885413"/>
     <use style="fill:#004cff;stroke:#004cff;stroke-width:0.5;" x="354.489194" xlink:href="#m5f308e7b12" y="112.984864"/>
     <use style="fill:#004cff;stroke:#004cff;stroke-width:0.5;" x="320.888206" xlink:href="#m5f308e7b12" y="155.866206"/>
     <use style="fill:#004cff;stroke:#004cff;stroke-width:0.5;" x="283.492858" xlink:href="#m5f308e7b12" y="198.650504"/>
     <use style="fill:#004cff;stroke:#004cff;stroke-width:0.5;" x="247.428513" xlink:href="#m5f308e7b12" y="234.298472"/>
     <use style="fill:#004cff;stroke:#004cff;stroke-width:0.5;" x="218.077347" xlink:href="#m5f308e7b12" y="258.989445"/>
     <use style="fill:#004cff;stroke:#004cff;stroke-width:0.5;" x="196.143429" xlink:href="#m5f308e7b12" y="274.076652"/>
     <use style="fill:#004cff;stroke:#004cff;stroke-width:0.5;" x="182.11621" xlink:href="#m5f308e7b12" y="281.587113"/>
     <use style="fill:#004cff;stroke:#004cff;stroke-width:0.5;" x="171.723562" xlink:href="#m5f308e7b12" y="285.669546"/>
     <use style="fill:#004cff;stroke:#004cff;stroke-width:0.5;" x="164.002289" xlink:href="#m5f308e7b12" y="287.49198"/>
     <use style="fill:#004cff;stroke:#004cff;stroke-width:0.5;" x="157.909919" xlink:href="#m5f308e7b12" y="288"/>
    </g>
   </g>
   <g id="line2d_5">
    <defs>
     <path d="M 0 3 
L 0 -3 
" id="m9f5da15592" style="stroke:#29ffce;stroke-width:0.5;"/>
    </defs>
    <g clip-path="url(#p0d1c66e581)">
     <use style="fill:#29ffce;stroke:#29ffce;stroke-width:0.5;" x="371.9665" xlink:href="#m9f5da15592" y="46.67228"/>
     <use style="fill:#29ffce;stroke:#29ffce;stroke-width:0.5;" x="346.339448" xlink:href="#m9f5da15592" y="83.564434"/>
     <use style="fill:#29ffce;stroke:#29ffce;stroke-width:0.5;" x="314.562844" xlink:href="#m9f5da15592" y="124.472628"/>
     <use style="fill:#29ffce;stroke:#29ffce;stroke-width:0.5;" x="266.401562" xlink:href="#m9f5da15592" y="178.767083"/>
     <use style="fill:#29ffce;stroke:#29ffce;stroke-width:0.5;" x="213.372947" xlink:href="#m9f5da15592" y="231.398631"/>
     <use style="fill:#29ffce;stroke:#29ffce;stroke-width:0.5;" x="174.59596" xlink:href="#m9f5da15592" y="264.356596"/>
     <use style="fill:#29ffce;stroke:#29ffce;stroke-width:0.5;" x="154.310452" xlink:href="#m9f5da15592" y="278.372889"/>
     <use style="fill:#29ffce;stroke:#29ffce;stroke-width:0.5;" x="143.646961" xlink:href="#m9f5da15592" y="284.179666"/>
     <use style="fill:#29ffce;stroke:#29ffce;stroke-width:0.5;" x="137.00176" xlink:href="#m9f5da15592" y="286.748169"/>
     <use style="fill:#29ffce;stroke:#29ffce;stroke-width:0.5;" x="132.64571" xlink:href="#m9f5da15592" y="287.758109"/>
     <use style="fill:#29ffce;stroke:#29ffce;stroke-width:0.5;" x="129.586013" xlink:href="#m9f5da15592" y="288"/>
    </g>
   </g>
   <g id="line2d_6">
    <g clip-path="url(#p0d1c66e581)">
     <use style="fill:#29ffce;stroke:#29ffce;stroke-width:0.5;" x="372.990309" xlink:href="#m9f5da15592" y="46.67228"/>
     <use style="fill:#29ffce;stroke:#29ffce;stroke-width:0.5;" x="347.573231" xlink:href="#m9f5da15592" y="83.564434"/>
     <use style="fill:#29ffce;stroke:#29ffce;stroke-width:0.5;" x="315.933549" xlink:href="#m9f5da15592" y="124.472628"/>
     <use style="fill:#29ffce;stroke:#29ffce;stroke-width:0.5;" x="268.342915" xlink:href="#m9f5da15592" y="178.767083"/>
     <use style="fill:#29ffce;stroke:#29ffce;stroke-width:0.5;" x="214.680826" xlink:href="#m9f5da15592" y="231.398631"/>
     <use style="fill:#29ffce;stroke:#29ffce;stroke-width:0.5;" x="175.137272" xlink:href="#m9f5da15592" y="264.356596"/>
     <use style="fill:#29ffce;stroke:#29ffce;stroke-width:0.5;" x="154.77691" xlink:href="#m9f5da15592" y="278.372889"/>
     <use style="fill:#29ffce;stroke:#29ffce;stroke-width:0.5;" x="143.852458" xlink:href="#m9f5da15592" y="284.179666"/>
     <use style="fill:#29ffce;stroke:#29ffce;stroke-width:0.5;" x="137.135459" xlink:href="#m9f5da15592" y="286.748169"/>
     <use style="fill:#29ffce;stroke:#29ffce;stroke-width:0.5;" x="132.728621" xlink:href="#m9f5da15592" y="287.758109"/>
     <use style="fill:#29ffce;stroke:#29ffce;stroke-width:0.5;" x="129.645052" xlink:href="#m9f5da15592" y="288"/>
    </g>
   </g>
   <g id="line2d_7">
    <defs>
     <path d="M 3 0 
L -3 -0 
" id="mcc78bc2c27" style="stroke:#29ffce;stroke-width:0.5;"/>
    </defs>
    <g clip-path="url(#p0d1c66e581)">
     <use style="fill:#29ffce;stroke:#29ffce;stroke-width:0.5;" x="372.478404" xlink:href="#mcc78bc2c27" y="47.398946"/>
     <use style="fill:#29ffce;stroke:#29ffce;stroke-width:0.5;" x="346.956339" xlink:href="#mcc78bc2c27" y="84.361747"/>
     <use style="fill:#29ffce;stroke:#29ffce;stroke-width:0.5;" x="315.248197" xlink:href="#mcc78bc2c27" y="125.277179"/>
     <use style="fill:#29ffce;stroke:#29ffce;stroke-width:0.5;" x="267.372238" xlink:href="#mcc78bc2c27" y="179.807201"/>
     <use style="fill:#29ffce;stroke:#29ffce;stroke-width:0.5;" x="214.026887" xlink:href="#mcc78bc2c27" y="231.966579"/>
     <use style="fill:#29ffce;stroke:#29ffce;stroke-width:0.5;" x="174.866616" xlink:href="#mcc78bc2c27" y="264.547364"/>
     <use style="fill:#29ffce;stroke:#29ffce;stroke-width:0.5;" x="154.543681" xlink:href="#mcc78bc2c27" y="278.504579"/>
     <use style="fill:#29ffce;stroke:#29ffce;stroke-width:0.5;" x="143.74971" xlink:href="#mcc78bc2c27" y="284.222434"/>
     <use style="fill:#29ffce;stroke:#29ffce;stroke-width:0.5;" x="137.068609" xlink:href="#mcc78bc2c27" y="286.767152"/>
     <use style="fill:#29ffce;stroke:#29ffce;stroke-width:0.5;" x="132.687165" xlink:href="#mcc78bc2c27" y="287.764125"/>
     <use style="fill:#29ffce;stroke:#29ffce;stroke-width:0.5;" x="129.615532" xlink:href="#mcc78bc2c27" y="288"/>
    </g>
   </g>
   <g id="line2d_8">
    <g clip-path="url(#p0d1c66e581)">
     <use style="fill:#29ffce;stroke:#29ffce;stroke-width:0.5;" x="372.478404" xlink:href="#mcc78bc2c27" y="45.945613"/>
     <use style="fill:#29ffce;stroke:#29ffce;stroke-width:0.5;" x="346.956339" xlink:href="#mcc78bc2c27" y="82.767122"/>
     <use style="fill:#29ffce;stroke:#29ffce;stroke-width:0.5;" x="315.248197" xlink:href="#mcc78bc2c27" y="123.668076"/>
     <use style="fill:#29ffce;stroke:#29ffce;stroke-width:0.5;" x="267.372238" xlink:href="#mcc78bc2c27" y="177.726965"/>
     <use style="fill:#29ffce;stroke:#29ffce;stroke-width:0.5;" x="214.026887" xlink:href="#mcc78bc2c27" y="230.830682"/>
     <use style="fill:#29ffce;stroke:#29ffce;stroke-width:0.5;" x="174.866616" xlink:href="#mcc78bc2c27" y="264.165828"/>
     <use style="fill:#29ffce;stroke:#29ffce;stroke-width:0.5;" x="154.543681" xlink:href="#mcc78bc2c27" y="278.241198"/>
     <use style="fill:#29ffce;stroke:#29ffce;stroke-width:0.5;" x="143.74971" xlink:href="#mcc78bc2c27" y="284.136897"/>
     <use style="fill:#29ffce;stroke:#29ffce;stroke-width:0.5;" x="137.068609" xlink:href="#mcc78bc2c27" y="286.729186"/>
     <use style="fill:#29ffce;stroke:#29ffce;stroke-width:0.5;" x="132.687165" xlink:href="#mcc78bc2c27" y="287.752092"/>
     <use style="fill:#29ffce;stroke:#29ffce;stroke-width:0.5;" x="129.615532" xlink:href="#mcc78bc2c27" y="288"/>
    </g>
   </g>
   <g id="line2d_9">
    <defs>
     <path d="M 0 3 
L 0 -3 
" id="m7f3b2497b6" style="stroke:#ceff29;stroke-width:0.5;"/>
    </defs>
    <g clip-path="url(#p0d1c66e581)">
     <use style="fill:#ceff29;stroke:#ceff29;stroke-width:0.5;" x="365.474023" xlink:href="#m7f3b2497b6" y="31.712027"/>
     <use style="fill:#ceff29;stroke:#ceff29;stroke-width:0.5;" x="340.08649" xlink:href="#m7f3b2497b6" y="67.403361"/>
     <use style="fill:#ceff29;stroke:#ceff29;stroke-width:0.5;" x="306.013071" xlink:href="#m7f3b2497b6" y="111.75948"/>
     <use style="fill:#ceff29;stroke:#ceff29;stroke-width:0.5;" x="263.269152" xlink:href="#m7f3b2497b6" y="158.802242"/>
     <use style="fill:#ceff29;stroke:#ceff29;stroke-width:0.5;" x="201.608291" xlink:href="#m7f3b2497b6" y="219.682736"/>
     <use style="fill:#ceff29;stroke:#ceff29;stroke-width:0.5;" x="140.290162" xlink:href="#m7f3b2497b6" y="271.978568"/>
     <use style="fill:#ceff29;stroke:#ceff29;stroke-width:0.5;" x="124.617813" xlink:href="#m7f3b2497b6" y="283.11257"/>
     <use style="fill:#ceff29;stroke:#ceff29;stroke-width:0.5;" x="118.741755" xlink:href="#m7f3b2497b6" y="286.293287"/>
     <use style="fill:#ceff29;stroke:#ceff29;stroke-width:0.5;" x="115.797908" xlink:href="#m7f3b2497b6" y="287.446802"/>
     <use style="fill:#ceff29;stroke:#ceff29;stroke-width:0.5;" x="113.893796" xlink:href="#m7f3b2497b6" y="287.893268"/>
     <use style="fill:#ceff29;stroke:#ceff29;stroke-width:0.5;" x="112.568567" xlink:href="#m7f3b2497b6" y="288"/>
    </g>
   </g>
   <g id="line2d_10">
    <g clip-path="url(#p0d1c66e581)">
     <use style="fill:#ceff29;stroke:#ceff29;stroke-width:0.5;" x="366.861108" xlink:href="#m7f3b2497b6" y="31.712027"/>
     <use style="fill:#ceff29;stroke:#ceff29;stroke-width:0.5;" x="342.48417" xlink:href="#m7f3b2497b6" y="67.403361"/>
     <use style="fill:#ceff29;stroke:#ceff29;stroke-width:0.5;" x="307.223478" xlink:href="#m7f3b2497b6" y="111.75948"/>
     <use style="fill:#ceff29;stroke:#ceff29;stroke-width:0.5;" x="266.212568" xlink:href="#m7f3b2497b6" y="158.802242"/>
     <use style="fill:#ceff29;stroke:#ceff29;stroke-width:0.5;" x="203.788416" xlink:href="#m7f3b2497b6" y="219.682736"/>
     <use style="fill:#ceff29;stroke:#ceff29;stroke-width:0.5;" x="141.162093" xlink:href="#m7f3b2497b6" y="271.978568"/>
     <use style="fill:#ceff29;stroke:#ceff29;stroke-width:0.5;" x="124.805089" xlink:href="#m7f3b2497b6" y="283.11257"/>
     <use style="fill:#ceff29;stroke:#ceff29;stroke-width:0.5;" x="118.868285" xlink:href="#m7f3b2497b6" y="286.293287"/>
     <use style="fill:#ceff29;stroke:#ceff29;stroke-width:0.5;" x="115.847871" xlink:href="#m7f3b2497b6" y="287.446802"/>
     <use style="fill:#ceff29;stroke:#ceff29;stroke-width:0.5;" x="113.936234" xlink:href="#m7f3b2497b6" y="287.893268"/>
     <use style="fill:#ceff29;stroke:#ceff29;stroke-width:0.5;" x="112.593319" xlink:href="#m7f3b2497b6" y="288"/>
    </g>
   </g>
   <g id="line2d_11">
    <defs>
     <path d="M 3 0 
L -3 -0 
" id="m511eec2204" style="stroke:#ceff29;stroke-width:0.5;"/>
    </defs>
    <g clip-path="url(#p0d1c66e581)">
     <use style="fill:#ceff29;stroke:#ceff29;stroke-width:0.5;" x="366.167565" xlink:href="#m511eec2204" y="32.723401"/>
     <use style="fill:#ceff29;stroke:#ceff29;stroke-width:0.5;" x="341.28533" xlink:href="#m511eec2204" y="69.026708"/>
     <use style="fill:#ceff29;stroke:#ceff29;stroke-width:0.5;" x="306.618274" xlink:href="#m511eec2204" y="112.474379"/>
     <use style="fill:#ceff29;stroke:#ceff29;stroke-width:0.5;" x="264.74086" xlink:href="#m511eec2204" y="160.325176"/>
     <use style="fill:#ceff29;stroke:#ceff29;stroke-width:0.5;" x="202.698354" xlink:href="#m511eec2204" y="220.663345"/>
     <use style="fill:#ceff29;stroke:#ceff29;stroke-width:0.5;" x="140.726127" xlink:href="#m511eec2204" y="272.287983"/>
     <use style="fill:#ceff29;stroke:#ceff29;stroke-width:0.5;" x="124.711451" xlink:href="#m511eec2204" y="283.163477"/>
     <use style="fill:#ceff29;stroke:#ceff29;stroke-width:0.5;" x="118.80502" xlink:href="#m511eec2204" y="286.320469"/>
     <use style="fill:#ceff29;stroke:#ceff29;stroke-width:0.5;" x="115.82289" xlink:href="#m511eec2204" y="287.453953"/>
     <use style="fill:#ceff29;stroke:#ceff29;stroke-width:0.5;" x="113.915015" xlink:href="#m511eec2204" y="287.896356"/>
     <use style="fill:#ceff29;stroke:#ceff29;stroke-width:0.5;" x="112.580943" xlink:href="#m511eec2204" y="288"/>
    </g>
   </g>
   <g id="line2d_12">
    <g clip-path="url(#p0d1c66e581)">
     <use style="fill:#ceff29;stroke:#ceff29;stroke-width:0.5;" x="366.167565" xlink:href="#m511eec2204" y="30.700654"/>
     <use style="fill:#ceff29;stroke:#ceff29;stroke-width:0.5;" x="341.28533" xlink:href="#m511eec2204" y="65.780014"/>
     <use style="fill:#ceff29;stroke:#ceff29;stroke-width:0.5;" x="306.618274" xlink:href="#m511eec2204" y="111.044581"/>
     <use style="fill:#ceff29;stroke:#ceff29;stroke-width:0.5;" x="264.74086" xlink:href="#m511eec2204" y="157.279308"/>
     <use style="fill:#ceff29;stroke:#ceff29;stroke-width:0.5;" x="202.698354" xlink:href="#m511eec2204" y="218.702128"/>
     <use style="fill:#ceff29;stroke:#ceff29;stroke-width:0.5;" x="140.726127" xlink:href="#m511eec2204" y="271.669152"/>
     <use style="fill:#ceff29;stroke:#ceff29;stroke-width:0.5;" x="124.711451" xlink:href="#m511eec2204" y="283.061664"/>
     <use style="fill:#ceff29;stroke:#ceff29;stroke-width:0.5;" x="118.80502" xlink:href="#m511eec2204" y="286.266105"/>
     <use style="fill:#ceff29;stroke:#ceff29;stroke-width:0.5;" x="115.82289" xlink:href="#m511eec2204" y="287.439652"/>
     <use style="fill:#ceff29;stroke:#ceff29;stroke-width:0.5;" x="113.915015" xlink:href="#m511eec2204" y="287.890181"/>
     <use style="fill:#ceff29;stroke:#ceff29;stroke-width:0.5;" x="112.580943" xlink:href="#m511eec2204" y="288"/>
    </g>
   </g>
   <g id="line2d_13">
    <defs>
     <path d="M 0 3 
L 0 -3 
" id="m156ce140e3" style="stroke:#ff6800;stroke-width:0.5;"/>
    </defs>
    <g clip-path="url(#p0d1c66e581)">
     <use style="fill:#ff6800;stroke:#ff6800;stroke-width:0.5;" x="358.463723" xlink:href="#m156ce140e3" y="32.685241"/>
     <use style="fill:#ff6800;stroke:#ff6800;stroke-width:0.5;" x="333.673017" xlink:href="#m156ce140e3" y="68.391236"/>
     <use style="fill:#ff6800;stroke:#ff6800;stroke-width:0.5;" x="297.920423" xlink:href="#m156ce140e3" y="113.026475"/>
     <use style="fill:#ff6800;stroke:#ff6800;stroke-width:0.5;" x="252.642554" xlink:href="#m156ce140e3" y="161.391575"/>
     <use style="fill:#ff6800;stroke:#ff6800;stroke-width:0.5;" x="190.723689" xlink:href="#m156ce140e3" y="220.090881"/>
     <use style="fill:#ff6800;stroke:#ff6800;stroke-width:0.5;" x="126.603464" xlink:href="#m156ce140e3" y="275.798794"/>
     <use style="fill:#ff6800;stroke:#ff6800;stroke-width:0.5;" x="113.479579" xlink:href="#m156ce140e3" y="285.27778"/>
     <use style="fill:#ff6800;stroke:#ff6800;stroke-width:0.5;" x="110.135463" xlink:href="#m156ce140e3" y="287.097037"/>
     <use style="fill:#ff6800;stroke:#ff6800;stroke-width:0.5;" x="108.545714" xlink:href="#m156ce140e3" y="287.716963"/>
     <use style="fill:#ff6800;stroke:#ff6800;stroke-width:0.5;" x="107.571119" xlink:href="#m156ce140e3" y="287.947588"/>
     <use style="fill:#ff6800;stroke:#ff6800;stroke-width:0.5;" x="106.904834" xlink:href="#m156ce140e3" y="288"/>
    </g>
   </g>
   <g id="line2d_14">
    <g clip-path="url(#p0d1c66e581)">
     <use style="fill:#ff6800;stroke:#ff6800;stroke-width:0.5;" x="360.785382" xlink:href="#m156ce140e3" y="32.685241"/>
     <use style="fill:#ff6800;stroke:#ff6800;stroke-width:0.5;" x="335.333759" xlink:href="#m156ce140e3" y="68.391236"/>
     <use style="fill:#ff6800;stroke:#ff6800;stroke-width:0.5;" x="299.685323" xlink:href="#m156ce140e3" y="113.026475"/>
     <use style="fill:#ff6800;stroke:#ff6800;stroke-width:0.5;" x="256.820356" xlink:href="#m156ce140e3" y="161.391575"/>
     <use style="fill:#ff6800;stroke:#ff6800;stroke-width:0.5;" x="196.297539" xlink:href="#m156ce140e3" y="220.090881"/>
     <use style="fill:#ff6800;stroke:#ff6800;stroke-width:0.5;" x="127.432076" xlink:href="#m156ce140e3" y="275.798794"/>
     <use style="fill:#ff6800;stroke:#ff6800;stroke-width:0.5;" x="113.580619" xlink:href="#m156ce140e3" y="285.27778"/>
     <use style="fill:#ff6800;stroke:#ff6800;stroke-width:0.5;" x="110.20636" xlink:href="#m156ce140e3" y="287.097037"/>
     <use style="fill:#ff6800;stroke:#ff6800;stroke-width:0.5;" x="108.59202" xlink:href="#m156ce140e3" y="287.716963"/>
     <use style="fill:#ff6800;stroke:#ff6800;stroke-width:0.5;" x="107.588129" xlink:href="#m156ce140e3" y="287.947588"/>
     <use style="fill:#ff6800;stroke:#ff6800;stroke-width:0.5;" x="106.925801" xlink:href="#m156ce140e3" y="288"/>
    </g>
   </g>
   <g id="line2d_15">
    <defs>
     <path d="M 3 0 
L -3 -0 
" id="md9553a9185" style="stroke:#ff6800;stroke-width:0.5;"/>
    </defs>
    <g clip-path="url(#p0d1c66e581)">
     <use style="fill:#ff6800;stroke:#ff6800;stroke-width:0.5;" x="359.624553" xlink:href="#md9553a9185" y="34.362624"/>
     <use style="fill:#ff6800;stroke:#ff6800;stroke-width:0.5;" x="334.503388" xlink:href="#md9553a9185" y="69.418607"/>
     <use style="fill:#ff6800;stroke:#ff6800;stroke-width:0.5;" x="298.802873" xlink:href="#md9553a9185" y="114.047522"/>
     <use style="fill:#ff6800;stroke:#ff6800;stroke-width:0.5;" x="254.731455" xlink:href="#md9553a9185" y="163.596114"/>
     <use style="fill:#ff6800;stroke:#ff6800;stroke-width:0.5;" x="193.510614" xlink:href="#md9553a9185" y="222.49903"/>
     <use style="fill:#ff6800;stroke:#ff6800;stroke-width:0.5;" x="127.01777" xlink:href="#md9553a9185" y="276.099567"/>
     <use style="fill:#ff6800;stroke:#ff6800;stroke-width:0.5;" x="113.530099" xlink:href="#md9553a9185" y="285.307432"/>
     <use style="fill:#ff6800;stroke:#ff6800;stroke-width:0.5;" x="110.170911" xlink:href="#md9553a9185" y="287.112208"/>
     <use style="fill:#ff6800;stroke:#ff6800;stroke-width:0.5;" x="108.568867" xlink:href="#md9553a9185" y="287.723612"/>
     <use style="fill:#ff6800;stroke:#ff6800;stroke-width:0.5;" x="107.579624" xlink:href="#md9553a9185" y="287.948822"/>
     <use style="fill:#ff6800;stroke:#ff6800;stroke-width:0.5;" x="106.915318" xlink:href="#md9553a9185" y="288"/>
    </g>
   </g>
   <g id="line2d_16">
    <g clip-path="url(#p0d1c66e581)">
     <use style="fill:#ff6800;stroke:#ff6800;stroke-width:0.5;" x="359.624553" xlink:href="#md9553a9185" y="31.007858"/>
     <use style="fill:#ff6800;stroke:#ff6800;stroke-width:0.5;" x="334.503388" xlink:href="#md9553a9185" y="67.363866"/>
     <use style="fill:#ff6800;stroke:#ff6800;stroke-width:0.5;" x="298.802873" xlink:href="#md9553a9185" y="112.005427"/>
     <use style="fill:#ff6800;stroke:#ff6800;stroke-width:0.5;" x="254.731455" xlink:href="#md9553a9185" y="159.187036"/>
     <use style="fill:#ff6800;stroke:#ff6800;stroke-width:0.5;" x="193.510614" xlink:href="#md9553a9185" y="217.682732"/>
     <use style="fill:#ff6800;stroke:#ff6800;stroke-width:0.5;" x="127.01777" xlink:href="#md9553a9185" y="275.498021"/>
     <use style="fill:#ff6800;stroke:#ff6800;stroke-width:0.5;" x="113.530099" xlink:href="#md9553a9185" y="285.248128"/>
     <use style="fill:#ff6800;stroke:#ff6800;stroke-width:0.5;" x="110.170911" xlink:href="#md9553a9185" y="287.081865"/>
     <use style="fill:#ff6800;stroke:#ff6800;stroke-width:0.5;" x="108.568867" xlink:href="#md9553a9185" y="287.710314"/>
     <use style="fill:#ff6800;stroke:#ff6800;stroke-width:0.5;" x="107.579624" xlink:href="#md9553a9185" y="287.946354"/>
     <use style="fill:#ff6800;stroke:#ff6800;stroke-width:0.5;" x="106.915318" xlink:href="#md9553a9185" y="288"/>
    </g>
   </g>
   <g id="line2d_17">
    <path clip-path="url(#p0d1c66e581)" d="M 359.624553 18.318683 
L 334.503388 55.220101 
L 298.802873 101.710314 
L 254.731455 151.833249 
L 193.510614 211.869678 
L 127.01777 268.112982 
L 113.530099 278.639084 
L 110.170911 281.220299 
L 108.568867 282.445804 
L 107.579624 283.200776 
L 106.915318 283.707011 
" style="fill:none;stroke:#000000;stroke-dasharray:6,6;stroke-dashoffset:0;stroke-width:4;"/>
   </g>
   <g id="line2d_18">
    <path clip-path="url(#p0d1c66e581)" d="M 359.624553 26.359205 
L 334.503388 61.632199 
L 298.802873 106.112706 
L 254.731455 154.323939 
L 193.510614 212.686807 
L 127.01777 268.170388 
L 113.530099 278.651854 
L 110.170911 281.227004 
L 108.568867 282.450306 
L 107.579624 283.204138 
L 106.915318 283.709702 
" style="fill:none;stroke:#000000;stroke-linecap:square;stroke-width:4;"/>
   </g>
   <g id="line2d_19">
    <path clip-path="url(#p0d1c66e581)" d="M 380.632431 75.77786 
L 354.489194 113.508303 
L 320.888206 156.783666 
L 283.492858 199.113655 
L 247.428513 234.6856 
L 218.077347 259.215698 
L 196.143429 274.198761 
L 182.11621 281.678623 
L 171.723562 285.692764 
L 164.002289 287.507023 
L 157.909919 288 
" style="fill:none;stroke:#004cff;stroke-linecap:square;stroke-width:4;"/>
   </g>
   <g id="line2d_20">
    <path clip-path="url(#p0d1c66e581)" d="M 372.478404 46.67228 
L 346.956339 83.564434 
L 315.248197 124.472628 
L 267.372238 178.767083 
L 214.026887 231.398631 
L 174.866616 264.356596 
L 154.543681 278.372889 
L 143.74971 284.179666 
L 137.068609 286.748169 
L 132.687165 287.758109 
L 129.615532 288 
" style="fill:none;stroke:#29ffce;stroke-linecap:square;stroke-width:4;"/>
   </g>
   <g id="line2d_21">
    <path clip-path="url(#p0d1c66e581)" d="M 366.167565 31.712027 
L 341.28533 67.403361 
L 306.618274 111.75948 
L 264.74086 158.802242 
L 202.698354 219.682736 
L 140.726127 271.978568 
L 124.711451 283.11257 
L 118.80502 286.293287 
L 115.82289 287.446802 
L 113.915015 287.893268 
L 112.580943 288 
" style="fill:none;stroke:#ceff29;stroke-linecap:square;stroke-width:4;"/>
   </g>
   <g id="line2d_22">
    <path clip-path="url(#p0d1c66e581)" d="M 359.624553 32.685241 
L 334.503388 68.391236 
L 298.802873 113.026475 
L 254.731455 161.391575 
L 193.510614 220.090881 
L 127.01777 275.798794 
L 113.530099 285.27778 
L 110.170911 287.097037 
L 108.568867 287.716963 
L 107.579624 287.947588 
L 106.915318 288 
" style="fill:none;stroke:#ff6800;stroke-linecap:square;stroke-width:4;"/>
   </g>
   <g id="patch_3">
    <path d="M 101.25 288 
L 101.25 14.4 
" style="fill:none;stroke:#000000;stroke-linecap:square;stroke-linejoin:miter;"/>
   </g>
   <g id="patch_4">
    <path d="M 384.75 288 
L 384.75 14.4 
" style="fill:none;stroke:#000000;stroke-linecap:square;stroke-linejoin:miter;"/>
   </g>
   <g id="patch_5">
    <path d="M 101.25 288 
L 384.75 288 
" style="fill:none;stroke:#000000;stroke-linecap:square;stroke-linejoin:miter;"/>
   </g>
   <g id="patch_6">
    <path d="M 101.25 14.4 
L 384.75 14.4 
" style="fill:none;stroke:#000000;stroke-linecap:square;stroke-linejoin:miter;"/>
   </g>
   <g id="matplotlib.axis_1">
    <g id="xtick_1">
     <g id="line2d_23">
      <defs>
       <path d="M 0 0 
L 0 -10 
" id="mc70004ebcf" style="stroke:#000000;stroke-width:0.5;"/>
      </defs>
      <g>
       <use style="stroke:#000000;stroke-width:0.5;" x="101.25" xlink:href="#mc70004ebcf" y="288"/>
      </g>
     </g>
     <g id="line2d_24">
      <defs>
       <path d="M 0 0 
L 0 10 
" id="md369a1140c" style="stroke:#000000;stroke-width:0.5;"/>
      </defs>
      <g>
       <use style="stroke:#000000;stroke-width:0.5;" x="101.25" xlink:href="#md369a1140c" y="14.4"/>
      </g>
     </g>
     <g id="text_1">
      <!-- $0$ -->
      <defs>
       <path d="M 42 31.640625 
C 42 37.75 41.90625 48.125 37.703125 56.109375 
C 34 63.109375 28.09375 65.59375 22.90625 65.59375 
C 18.09375 65.59375 12 63.40625 8.203125 56.203125 
C 4.203125 48.71875 3.796875 39.4375 3.796875 31.640625 
C 3.796875 25.953125 3.90625 17.28125 7 9.671875 
C 11.296875 -0.609375 19 -2 22.90625 -2 
C 27.5 -2 34.5 -0.109375 38.59375 9.375 
C 41.59375 16.28125 42 24.359375 42 31.640625 
z
M 22.90625 -0.40625 
C 16.5 -0.40625 12.703125 5.078125 11.296875 12.6875 
C 10.203125 18.5625 10.203125 27.15625 10.203125 32.75 
C 10.203125 40.4375 10.203125 46.828125 11.5 52.921875 
C 13.40625 61.390625 19 64 22.90625 64 
C 27 64 32.296875 61.296875 34.203125 53.125 
C 35.5 47.4375 35.59375 40.734375 35.59375 32.75 
C 35.59375 26.25 35.59375 18.265625 34.40625 12.375 
C 32.296875 1.484375 26.40625 -0.40625 22.90625 -0.40625 
z
" id="CMR17-48"/>
      </defs>
      <g transform="translate(94.396428 313.294961)scale(0.3 -0.3)">
       <use transform="scale(0.996264)" xlink:href="#CMR17-48"/>
      </g>
     </g>
    </g>
    <g id="xtick_2">
     <g id="line2d_25">
      <g>
       <use style="stroke:#000000;stroke-width:0.5;" x="157.95" xlink:href="#mc70004ebcf" y="288"/>
      </g>
     </g>
     <g id="line2d_26">
      <g>
       <use style="stroke:#000000;stroke-width:0.5;" x="157.95" xlink:href="#md369a1140c" y="14.4"/>
      </g>
     </g>
     <g id="text_2">
      <!-- $0.1$ -->
      <defs>
       <path d="M 18.40625 4.796875 
C 18.40625 7.6875 16 9.671875 13.59375 9.671875 
C 10.703125 9.671875 8.703125 7.28125 8.703125 4.890625 
C 8.703125 2 11.09375 0 13.5 0 
C 16.40625 0 18.40625 2.390625 18.40625 4.796875 
z
" id="CMMI12-58"/>
       <path d="M 26.59375 63.40625 
C 26.59375 65.5 26.5 65.5 25.09375 65.5 
C 21.203125 61.1875 15.296875 59.796875 9.703125 59.796875 
C 9.40625 59.796875 8.90625 59.796875 8.796875 59.5 
C 8.703125 59.296875 8.703125 59.09375 8.703125 57 
C 11.796875 57 17 57.59375 21 59.984375 
L 21 7.203125 
C 21 3.6875 20.796875 2.5 12.203125 2.5 
L 9.203125 2.5 
L 9.203125 0 
C 14 0 19 0 23.796875 0 
C 28.59375 0 33.59375 0 38.40625 0 
L 38.40625 2.5 
L 35.40625 2.5 
C 26.796875 2.5 26.59375 3.59375 26.59375 7.15625 
z
" id="CMR17-49"/>
      </defs>
      <g transform="translate(140.17828 313.294961)scale(0.3 -0.3)">
       <use transform="scale(0.996264)" xlink:href="#CMR17-48"/>
       <use transform="translate(45.690477 0)scale(0.996264)" xlink:href="#CMMI12-58"/>
       <use transform="translate(72.787654 0)scale(0.996264)" xlink:href="#CMR17-49"/>
      </g>
     </g>
    </g>
    <g id="xtick_3">
     <g id="line2d_27">
      <g>
       <use style="stroke:#000000;stroke-width:0.5;" x="214.65" xlink:href="#mc70004ebcf" y="288"/>
      </g>
     </g>
     <g id="line2d_28">
      <g>
       <use style="stroke:#000000;stroke-width:0.5;" x="214.65" xlink:href="#md369a1140c" y="14.4"/>
      </g>
     </g>
     <g id="text_3">
      <!-- $0.2$ -->
      <defs>
       <path d="M 41.703125 15.453125 
L 39.90625 15.453125 
C 38.90625 8.375 38.09375 7.171875 37.703125 6.5625 
C 37.203125 5.765625 30 5.765625 28.59375 5.765625 
L 9.40625 5.765625 
C 13 9.671875 20 16.75 28.5 24.953125 
C 34.59375 30.734375 41.703125 37.53125 41.703125 47.421875 
C 41.703125 59.21875 32.296875 66 21.796875 66 
C 10.796875 66 4.09375 56.3125 4.09375 47.34375 
C 4.09375 43.4375 7 42.9375 8.203125 42.9375 
C 9.203125 42.9375 12.203125 43.546875 12.203125 47.03125 
C 12.203125 50.109375 9.59375 51 8.203125 51 
C 7.59375 51 7 50.90625 6.59375 50.703125 
C 8.5 59.21875 14.296875 63.40625 20.40625 63.40625 
C 29.09375 63.40625 34.796875 56.515625 34.796875 47.421875 
C 34.796875 38.734375 29.703125 31.25 24 24.75 
L 4.09375 2.28125 
L 4.09375 0 
L 39.296875 0 
z
" id="CMR17-50"/>
      </defs>
      <g transform="translate(196.87828 313.294961)scale(0.3 -0.3)">
       <use transform="scale(0.996264)" xlink:href="#CMR17-48"/>
       <use transform="translate(45.690477 0)scale(0.996264)" xlink:href="#CMMI12-58"/>
       <use transform="translate(72.787654 0)scale(0.996264)" xlink:href="#CMR17-50"/>
      </g>
     </g>
    </g>
    <g id="xtick_4">
     <g id="line2d_29">
      <g>
       <use style="stroke:#000000;stroke-width:0.5;" x="271.35" xlink:href="#mc70004ebcf" y="288"/>
      </g>
     </g>
     <g id="line2d_30">
      <g>
       <use style="stroke:#000000;stroke-width:0.5;" x="271.35" xlink:href="#md369a1140c" y="14.4"/>
      </g>
     </g>
     <g id="text_4">
      <!-- $0.3$ -->
      <defs>
       <path d="M 22.09375 33.703125 
C 31 33.703125 34.90625 25.96875 34.90625 17.03125 
C 34.90625 5 28.5 0.390625 22.703125 0.390625 
C 17.40625 0.390625 8.796875 3.03125 6.09375 10.828125 
C 6.59375 10.625 7.09375 10.625 7.59375 10.625 
C 10 10.625 11.796875 12.21875 11.796875 14.8125 
C 11.796875 17.703125 9.59375 19 7.59375 19 
C 5.90625 19 3.296875 18.203125 3.296875 14.46875 
C 3.296875 5.234375 12.296875 -2 22.90625 -2 
C 34 -2 42.5 6.71875 42.5 16.953125 
C 42.5 26.671875 34.5 33.703125 25 34.796875 
C 32.59375 36.375 39.90625 43.0625 39.90625 52.015625 
C 39.90625 59.6875 32 65.296875 23 65.296875 
C 13.90625 65.296875 5.90625 59.828125 5.90625 52.015625 
C 5.90625 48.59375 8.5 48 9.796875 48 
C 11.90625 48 13.703125 49.296875 13.703125 51.890625 
C 13.703125 54.46875 11.90625 55.765625 9.796875 55.765625 
C 9.40625 55.765625 8.90625 55.765625 8.5 55.578125 
C 11.40625 61.859375 19.296875 63 22.796875 63 
C 26.296875 63 32.90625 61.328125 32.90625 51.875 
C 32.90625 49.109375 32.5 44.1875 29.09375 39.84375 
C 26.09375 36 22.703125 36 19.40625 35.6875 
C 18.90625 35.6875 16.59375 35.453125 16.203125 35.453125 
C 15.5 35.359375 15.09375 35.265625 15.09375 34.5 
C 15.09375 33.796875 15.203125 33.703125 17.203125 33.703125 
z
" id="CMR17-51"/>
      </defs>
      <g transform="translate(253.57828 313.294961)scale(0.3 -0.3)">
       <use transform="scale(0.996264)" xlink:href="#CMR17-48"/>
       <use transform="translate(45.690477 0)scale(0.996264)" xlink:href="#CMMI12-58"/>
       <use transform="translate(72.787654 0)scale(0.996264)" xlink:href="#CMR17-51"/>
      </g>
     </g>
    </g>
    <g id="xtick_5">
     <g id="line2d_31">
      <g>
       <use style="stroke:#000000;stroke-width:0.5;" x="328.05" xlink:href="#mc70004ebcf" y="288"/>
      </g>
     </g>
     <g id="line2d_32">
      <g>
       <use style="stroke:#000000;stroke-width:0.5;" x="328.05" xlink:href="#md369a1140c" y="14.4"/>
      </g>
     </g>
     <g id="text_5">
      <!-- $0.4$ -->
      <defs>
       <path d="M 33.59375 64.40625 
C 33.59375 66.5 33.5 66.5 31.703125 66.5 
L 2 19.59375 
L 2 17 
L 27.796875 17 
L 27.796875 7.140625 
C 27.796875 3.5 27.59375 2.5 20.59375 2.5 
L 18.703125 2.5 
L 18.703125 0 
C 21.90625 0 27.296875 0 30.703125 0 
C 34.09375 0 39.5 0 42.703125 0 
L 42.703125 2.5 
L 40.796875 2.5 
C 33.796875 2.5 33.59375 3.5 33.59375 7.140625 
L 33.59375 17 
L 43.796875 17 
L 43.796875 19.59375 
L 33.59375 19.59375 
z
M 28.09375 57.859375 
L 28.09375 19.59375 
L 4 19.59375 
z
" id="CMR17-52"/>
      </defs>
      <g transform="translate(310.27828 313.294961)scale(0.3 -0.3)">
       <use transform="scale(0.996264)" xlink:href="#CMR17-48"/>
       <use transform="translate(45.690477 0)scale(0.996264)" xlink:href="#CMMI12-58"/>
       <use transform="translate(72.787654 0)scale(0.996264)" xlink:href="#CMR17-52"/>
      </g>
     </g>
    </g>
    <g id="xtick_6">
     <g id="line2d_33">
      <g>
       <use style="stroke:#000000;stroke-width:0.5;" x="384.75" xlink:href="#mc70004ebcf" y="288"/>
      </g>
     </g>
     <g id="line2d_34">
      <g>
       <use style="stroke:#000000;stroke-width:0.5;" x="384.75" xlink:href="#md369a1140c" y="14.4"/>
      </g>
     </g>
     <g id="text_6">
      <!-- $0.5$ -->
      <defs>
       <path d="M 11.40625 57.6875 
C 12.40625 57.28125 16.5 56 20.703125 56 
C 30 56 35.09375 61.109375 38 64.0625 
C 38 64.953125 38 65.5 37.40625 65.5 
C 37.296875 65.5 37.09375 65.5 36.296875 65.046875 
C 32.796875 63.40625 28.703125 62.078125 23.703125 62.078125 
C 20.703125 62.078125 16.203125 62.484375 11.296875 64.671875 
C 10.203125 65.171875 10 65.171875 9.90625 65.171875 
C 9.40625 65.171875 9.296875 65.0625 9.296875 63.078125 
L 9.296875 34.421875 
C 9.296875 32.640625 9.296875 32.140625 10.296875 32.140625 
C 10.796875 32.140625 11 32.34375 11.5 33.03125 
C 14.703125 37.515625 19.09375 39.40625 24.09375 39.40625 
C 27.59375 39.40625 35.09375 37.21875 35.09375 20.140625 
C 35.09375 16.953125 35.09375 11.171875 32.09375 6.578125 
C 29.59375 2.484375 25.703125 0.390625 21.40625 0.390625 
C 14.796875 0.390625 8.09375 5 6.296875 12.71875 
C 6.703125 12.609375 7.5 12.421875 7.90625 12.421875 
C 9.203125 12.421875 11.703125 13.125 11.703125 16.21875 
C 11.703125 18.90625 9.796875 20 7.90625 20 
C 5.59375 20 4.09375 18.59375 4.09375 15.796875 
C 4.09375 7.09375 11 -2 21.59375 -2 
C 31.90625 -2 41.703125 6.875 41.703125 19.75 
C 41.703125 31.71875 33.90625 41 24.203125 41 
C 19.09375 41 14.796875 39.109375 11.40625 35.53125 
z
" id="CMR17-53"/>
      </defs>
      <g transform="translate(366.97828 313.294961)scale(0.3 -0.3)">
       <use transform="scale(0.996264)" xlink:href="#CMR17-48"/>
       <use transform="translate(45.690477 0)scale(0.996264)" xlink:href="#CMMI12-58"/>
       <use transform="translate(72.787654 0)scale(0.996264)" xlink:href="#CMR17-53"/>
      </g>
     </g>
    </g>
    <g id="text_7">
     <!-- $p^2$ -->
     <defs>
      <path d="M 4.296875 -12.328125 
C 3.59375 -15.3125 3.203125 -16.109375 -0.90625 -16.109375 
C -2.09375 -16.109375 -3.09375 -16.109375 -3.09375 -18 
C -3.09375 -18.203125 -3 -19 -1.90625 -19 
C -0.59375 -19 0.796875 -19 2.09375 -19 
L 6.40625 -19 
C 8.5 -19 13.59375 -19 15.703125 -19 
C 16.296875 -19 17.5 -19 17.5 -17.203125 
C 17.5 -16.109375 16.796875 -16.109375 15.09375 -16.109375 
C 10.5 -16.109375 10.203125 -15.421875 10.203125 -14.640625 
C 10.203125 -13.453125 14.703125 3.421875 15.296875 5.6875 
C 16.40625 2.890625 19.09375 -1 24.296875 -1 
C 35.59375 -1 47.796875 13.671875 47.796875 28.34375 
C 47.796875 37.515625 42.59375 44 35.09375 44 
C 28.703125 44 23.296875 37.8125 22.203125 36.421875 
C 21.40625 41.40625 17.5 44 13.5 44 
C 10.59375 44 8.296875 42.609375 6.40625 38.8125 
C 4.59375 35.21875 3.203125 29.140625 3.203125 28.734375 
C 3.203125 28.34375 3.59375 27.84375 4.296875 27.84375 
C 5.09375 27.84375 5.203125 27.9375 5.796875 30.234375 
C 7.296875 36.125 9.203125 42.015625 13.203125 42.015625 
C 15.5 42.015625 16.296875 40.421875 16.296875 37.453125 
C 16.296875 35.078125 16 34.078125 15.59375 32.296875 
z
M 21.59375 31.140625 
C 22.296875 33.921875 25.09375 36.828125 26.703125 38.21875 
C 27.796875 39.21875 31.09375 42.015625 34.90625 42.015625 
C 39.296875 42.015625 41.296875 37.625 41.296875 32.4375 
C 41.296875 27.640625 38.5 16.359375 36 11.171875 
C 33.5 5.78125 28.90625 1 24.296875 1 
C 17.5 1 16.40625 9.578125 16.40625 9.984375 
C 16.40625 10.28125 16.59375 11.078125 16.703125 11.578125 
z
" id="CMMI12-112"/>
     </defs>
     <g transform="translate(230.858595 348.438757)scale(0.3 -0.3)">
      <use transform="scale(0.996264)" xlink:href="#CMMI12-112"/>
      <use transform="translate(48.959514 36.153639)scale(0.697382)" xlink:href="#CMR17-50"/>
     </g>
    </g>
   </g>
   <g id="matplotlib.axis_2">
    <g id="ytick_1">
     <g id="line2d_35">
      <defs>
       <path d="M 0 0 
L 10 0 
" id="m40a3866b08" style="stroke:#000000;stroke-width:0.5;"/>
      </defs>
      <g>
       <use style="stroke:#000000;stroke-width:0.5;" x="101.25" xlink:href="#m40a3866b08" y="288"/>
      </g>
     </g>
     <g id="line2d_36">
      <defs>
       <path d="M 0 0 
L -10 0 
" id="m1071c9111c" style="stroke:#000000;stroke-width:0.5;"/>
      </defs>
      <g>
       <use style="stroke:#000000;stroke-width:0.5;" x="384.75" xlink:href="#m1071c9111c" y="288"/>
      </g>
     </g>
     <g id="text_8">
      <!-- $0.00$ -->
      <g transform="translate(47.999417 295.464501)scale(0.3 -0.3)">
       <use transform="scale(0.996264)" xlink:href="#CMR17-48"/>
       <use transform="translate(45.690477 0)scale(0.996264)" xlink:href="#CMMI12-58"/>
       <use transform="translate(72.787654 0)scale(0.996264)" xlink:href="#CMR17-48"/>
       <use transform="translate(118.478131 0)scale(0.996264)" xlink:href="#CMR17-48"/>
      </g>
     </g>
    </g>
    <g id="ytick_2">
     <g id="line2d_37">
      <g>
       <use style="stroke:#000000;stroke-width:0.5;" x="101.25" xlink:href="#m40a3866b08" y="253.8"/>
      </g>
     </g>
     <g id="line2d_38">
      <g>
       <use style="stroke:#000000;stroke-width:0.5;" x="384.75" xlink:href="#m1071c9111c" y="253.8"/>
      </g>
     </g>
     <g id="text_9">
      <!-- $0.02$ -->
      <g transform="translate(47.999417 261.264501)scale(0.3 -0.3)">
       <use transform="scale(0.996264)" xlink:href="#CMR17-48"/>
       <use transform="translate(45.690477 0)scale(0.996264)" xlink:href="#CMMI12-58"/>
       <use transform="translate(72.787654 0)scale(0.996264)" xlink:href="#CMR17-48"/>
       <use transform="translate(118.478131 0)scale(0.996264)" xlink:href="#CMR17-50"/>
      </g>
     </g>
    </g>
    <g id="ytick_3">
     <g id="line2d_39">
      <g>
       <use style="stroke:#000000;stroke-width:0.5;" x="101.25" xlink:href="#m40a3866b08" y="219.6"/>
      </g>
     </g>
     <g id="line2d_40">
      <g>
       <use style="stroke:#000000;stroke-width:0.5;" x="384.75" xlink:href="#m1071c9111c" y="219.6"/>
      </g>
     </g>
     <g id="text_10">
      <!-- $0.04$ -->
      <g transform="translate(47.999417 227.064501)scale(0.3 -0.3)">
       <use transform="scale(0.996264)" xlink:href="#CMR17-48"/>
       <use transform="translate(45.690477 0)scale(0.996264)" xlink:href="#CMMI12-58"/>
       <use transform="translate(72.787654 0)scale(0.996264)" xlink:href="#CMR17-48"/>
       <use transform="translate(118.478131 0)scale(0.996264)" xlink:href="#CMR17-52"/>
      </g>
     </g>
    </g>
    <g id="ytick_4">
     <g id="line2d_41">
      <g>
       <use style="stroke:#000000;stroke-width:0.5;" x="101.25" xlink:href="#m40a3866b08" y="185.4"/>
      </g>
     </g>
     <g id="line2d_42">
      <g>
       <use style="stroke:#000000;stroke-width:0.5;" x="384.75" xlink:href="#m1071c9111c" y="185.4"/>
      </g>
     </g>
     <g id="text_11">
      <!-- $0.06$ -->
      <defs>
       <path d="M 10.59375 34 
C 10.59375 57.65625 21.796875 63 28.296875 63 
C 30.40625 63 35.5 62.640625 37.5 59 
C 35.90625 59 32.90625 59 32.90625 55.515625 
C 32.90625 52.828125 35.09375 51.921875 36.5 51.921875 
C 37.40625 51.921875 40.09375 52.3125 40.09375 55.625 
C 40.09375 61.78125 35.09375 65.296875 28.203125 65.296875 
C 16.296875 65.296875 3.796875 52.96875 3.796875 31 
C 3.796875 3.953125 15.09375 -2 23.09375 -2 
C 32.796875 -2 42 6.671875 42 20.046875 
C 42 32.515625 33.90625 41.59375 23.703125 41.59375 
C 17.59375 41.59375 13.09375 37.609375 10.59375 30.625 
z
M 23.09375 0.390625 
C 10.796875 0.390625 10.796875 18.75 10.796875 22.4375 
C 10.796875 29.625 14.203125 40 23.5 40 
C 25.203125 40 30.09375 40 33.40625 33.125 
C 35.203125 29.21875 35.203125 25.140625 35.203125 20.140625 
C 35.203125 14.75 35.203125 10.78125 33.09375 6.78125 
C 30.90625 2.671875 27.703125 0.390625 23.09375 0.390625 
z
" id="CMR17-54"/>
      </defs>
      <g transform="translate(47.999417 192.864501)scale(0.3 -0.3)">
       <use transform="scale(0.996264)" xlink:href="#CMR17-48"/>
       <use transform="translate(45.690477 0)scale(0.996264)" xlink:href="#CMMI12-58"/>
       <use transform="translate(72.787654 0)scale(0.996264)" xlink:href="#CMR17-48"/>
       <use transform="translate(118.478131 0)scale(0.996264)" xlink:href="#CMR17-54"/>
      </g>
     </g>
    </g>
    <g id="ytick_5">
     <g id="line2d_43">
      <g>
       <use style="stroke:#000000;stroke-width:0.5;" x="101.25" xlink:href="#m40a3866b08" y="151.2"/>
      </g>
     </g>
     <g id="line2d_44">
      <g>
       <use style="stroke:#000000;stroke-width:0.5;" x="384.75" xlink:href="#m1071c9111c" y="151.2"/>
      </g>
     </g>
     <g id="text_12">
      <!-- $0.08$ -->
      <defs>
       <path d="M 27.203125 35.375 
C 33.5 38.546875 39.90625 43.328125 39.90625 50.984375 
C 39.90625 60.015625 31.09375 65.296875 23 65.296875 
C 13.90625 65.296875 5.90625 58.734375 5.90625 49.6875 
C 5.90625 47.203125 6.5 42.921875 10.40625 39.140625 
C 11.40625 38.15625 15.59375 35.171875 18.296875 33.28125 
C 13.796875 30.984375 3.296875 25.53125 3.296875 14.59375 
C 3.296875 4.359375 13.09375 -2 22.796875 -2 
C 33.5 -2 42.5 5.65625 42.5 15.78125 
C 42.5 24.84375 36.40625 29.015625 32.40625 31.703125 
z
M 14.09375 44.09375 
C 13.296875 44.59375 9.296875 47.671875 9.296875 52.359375 
C 9.296875 58.421875 15.59375 63 22.796875 63 
C 30.703125 63 36.5 57.4375 36.5 50.96875 
C 36.5 41.703125 26.09375 36.421875 25.59375 36.421875 
C 25.5 36.421875 25.40625 36.421875 24.59375 37.03125 
z
M 32.5 23.734375 
C 34 22.640625 38.796875 19.375 38.796875 13.296875 
C 38.796875 5.953125 31.40625 0.390625 23 0.390625 
C 13.90625 0.390625 7 6.84375 7 14.6875 
C 7 22.546875 13.09375 29.09375 20 32.1875 
z
" id="CMR17-56"/>
      </defs>
      <g transform="translate(47.999417 158.664501)scale(0.3 -0.3)">
       <use transform="scale(0.996264)" xlink:href="#CMR17-48"/>
       <use transform="translate(45.690477 0)scale(0.996264)" xlink:href="#CMMI12-58"/>
       <use transform="translate(72.787654 0)scale(0.996264)" xlink:href="#CMR17-48"/>
       <use transform="translate(118.478131 0)scale(0.996264)" xlink:href="#CMR17-56"/>
      </g>
     </g>
    </g>
    <g id="ytick_6">
     <g id="line2d_45">
      <g>
       <use style="stroke:#000000;stroke-width:0.5;" x="101.25" xlink:href="#m40a3866b08" y="117"/>
      </g>
     </g>
     <g id="line2d_46">
      <g>
       <use style="stroke:#000000;stroke-width:0.5;" x="384.75" xlink:href="#m1071c9111c" y="117"/>
      </g>
     </g>
     <g id="text_13">
      <!-- $0.10$ -->
      <g transform="translate(47.999417 124.464501)scale(0.3 -0.3)">
       <use transform="scale(0.996264)" xlink:href="#CMR17-48"/>
       <use transform="translate(45.690477 0)scale(0.996264)" xlink:href="#CMMI12-58"/>
       <use transform="translate(72.787654 0)scale(0.996264)" xlink:href="#CMR17-49"/>
       <use transform="translate(118.478131 0)scale(0.996264)" xlink:href="#CMR17-48"/>
      </g>
     </g>
    </g>
    <g id="ytick_7">
     <g id="line2d_47">
      <g>
       <use style="stroke:#000000;stroke-width:0.5;" x="101.25" xlink:href="#m40a3866b08" y="82.8"/>
      </g>
     </g>
     <g id="line2d_48">
      <g>
       <use style="stroke:#000000;stroke-width:0.5;" x="384.75" xlink:href="#m1071c9111c" y="82.8"/>
      </g>
     </g>
     <g id="text_14">
      <!-- $0.12$ -->
      <g transform="translate(47.999417 90.264501)scale(0.3 -0.3)">
       <use transform="scale(0.996264)" xlink:href="#CMR17-48"/>
       <use transform="translate(45.690477 0)scale(0.996264)" xlink:href="#CMMI12-58"/>
       <use transform="translate(72.787654 0)scale(0.996264)" xlink:href="#CMR17-49"/>
       <use transform="translate(118.478131 0)scale(0.996264)" xlink:href="#CMR17-50"/>
      </g>
     </g>
    </g>
    <g id="ytick_8">
     <g id="line2d_49">
      <g>
       <use style="stroke:#000000;stroke-width:0.5;" x="101.25" xlink:href="#m40a3866b08" y="48.6"/>
      </g>
     </g>
     <g id="line2d_50">
      <g>
       <use style="stroke:#000000;stroke-width:0.5;" x="384.75" xlink:href="#m1071c9111c" y="48.6"/>
      </g>
     </g>
     <g id="text_15">
      <!-- $0.14$ -->
      <g transform="translate(47.999417 56.064501)scale(0.3 -0.3)">
       <use transform="scale(0.996264)" xlink:href="#CMR17-48"/>
       <use transform="translate(45.690477 0)scale(0.996264)" xlink:href="#CMMI12-58"/>
       <use transform="translate(72.787654 0)scale(0.996264)" xlink:href="#CMR17-49"/>
       <use transform="translate(118.478131 0)scale(0.996264)" xlink:href="#CMR17-52"/>
      </g>
     </g>
    </g>
    <g id="ytick_9">
     <g id="line2d_51">
      <g>
       <use style="stroke:#000000;stroke-width:0.5;" x="101.25" xlink:href="#m40a3866b08" y="14.4"/>
      </g>
     </g>
     <g id="line2d_52">
      <g>
       <use style="stroke:#000000;stroke-width:0.5;" x="384.75" xlink:href="#m1071c9111c" y="14.4"/>
      </g>
     </g>
     <g id="text_16">
      <!-- $0.16$ -->
      <g transform="translate(47.999417 21.864501)scale(0.3 -0.3)">
       <use transform="scale(0.996264)" xlink:href="#CMR17-48"/>
       <use transform="translate(45.690477 0)scale(0.996264)" xlink:href="#CMMI12-58"/>
       <use transform="translate(72.787654 0)scale(0.996264)" xlink:href="#CMR17-49"/>
       <use transform="translate(118.478131 0)scale(0.996264)" xlink:href="#CMR17-54"/>
      </g>
     </g>
    </g>
    <g id="text_17">
     <!-- $I(p^2)$ -->
     <defs>
      <path d="M 36.796875 60.625 
C 37.703125 64.109375 37.90625 65.109375 45.203125 65.109375 
C 47.40625 65.109375 48.203125 65.109375 48.203125 67 
C 48.203125 68 47.09375 68 46.796875 68 
C 45 68 42.796875 68 41 68 
L 28.703125 68 
C 26.703125 68 24.40625 68 22.40625 68 
C 21.59375 68 20.5 68 20.5 66.109375 
C 20.5 65.109375 21.296875 65.109375 23.296875 65.109375 
C 29.5 65.109375 29.5 64.3125 29.5 63.21875 
C 29.5 62.53125 29.296875 61.921875 29.09375 61.03125 
L 15.59375 7.375 
C 14.703125 3.890625 14.5 2.890625 7.203125 2.890625 
C 5 2.890625 4.09375 2.890625 4.09375 1 
C 4.09375 0 5.09375 0 5.59375 0 
C 7.40625 0 9.59375 0 11.40625 0 
L 23.703125 0 
C 25.703125 0 27.90625 0 29.90625 0 
C 30.703125 0 31.90625 0 31.90625 1.796875 
C 31.90625 2.890625 31.296875 2.890625 29.09375 2.890625 
C 22.90625 2.890625 22.90625 3.6875 22.90625 4.875 
C 22.90625 5.078125 22.90625 5.578125 23.296875 7.171875 
z
" id="CMMI12-73"/>
      <path d="M 30.59375 -24.390625 
C 30.59375 -24.296875 30.59375 -24.09375 30.296875 -23.796875 
C 25.703125 -19.125 13.40625 -6.359375 13.40625 24.703125 
C 13.40625 55.765625 25.5 68.421875 30.40625 73.390625 
C 30.40625 73.5 30.59375 73.703125 30.59375 74 
C 30.59375 74.296875 30.296875 74.5 29.90625 74.5 
C 28.796875 74.5 20.296875 67.125 15.40625 56.15625 
C 10.40625 45.109375 9 34.359375 9 24.8125 
C 9 17.625 9.703125 5.484375 15.703125 -7.359375 
C 20.5 -17.734375 28.703125 -25 29.90625 -25 
C 30.40625 -25 30.59375 -24.796875 30.59375 -24.390625 
z
" id="CMR17-40"/>
      <path d="M 26.296875 24.703125 
C 26.296875 31.875 25.59375 44.015625 19.59375 56.859375 
C 14.796875 67.234375 6.59375 74.5 5.40625 74.5 
C 5.09375 74.5 4.703125 74.390625 4.703125 73.890625 
C 4.703125 73.703125 4.796875 73.59375 4.90625 73.390625 
C 9.703125 68.40625 21.90625 55.75 21.90625 24.75 
C 21.90625 -6.359375 9.796875 -19.015625 4.90625 -24.015625 
C 4.796875 -24.203125 4.703125 -24.3125 4.703125 -24.5 
C 4.703125 -25 5.09375 -25 5.40625 -25 
C 6.5 -25 15 -17.625 19.90625 -6.65625 
C 24.90625 4.390625 26.296875 15.140625 26.296875 24.703125 
z
" id="CMR17-41"/>
     </defs>
     <g transform="translate(35.552444 181.803164)rotate(-90)scale(0.3 -0.3)">
      <use transform="scale(0.996264)" xlink:href="#CMMI12-73"/>
      <use transform="translate(50.856514 0)scale(0.996264)" xlink:href="#CMR17-40"/>
      <use transform="translate(86.137282 0)scale(0.996264)" xlink:href="#CMMI12-112"/>
      <use transform="translate(135.096796 36.153639)scale(0.697382)" xlink:href="#CMR17-50"/>
      <use transform="translate(167.57811 0)scale(0.996264)" xlink:href="#CMR17-41"/>
     </g>
    </g>
   </g>
   <g id="legend_1">
    <g id="line2d_53">
     <path d="M 125.25 39.596641 
L 143.25 39.596641 
" style="fill:none;stroke:#004cff;stroke-linecap:square;stroke-width:4;"/>
    </g>
    <g id="line2d_54"/>
    <g id="text_18">
     <!-- $10$ -->
     <g transform="translate(165.25 46.596641)scale(0.2 -0.2)">
      <use transform="scale(0.996264)" xlink:href="#CMR17-49"/>
      <use transform="translate(45.690477 0)scale(0.996264)" xlink:href="#CMR17-48"/>
     </g>
    </g>
    <g id="line2d_55">
     <path d="M 125.25 68.037254 
L 143.25 68.037254 
" style="fill:none;stroke:#29ffce;stroke-linecap:square;stroke-width:4;"/>
    </g>
    <g id="line2d_56"/>
    <g id="text_19">
     <!-- $20$ -->
     <g transform="translate(165.25 75.037254)scale(0.2 -0.2)">
      <use transform="scale(0.996264)" xlink:href="#CMR17-50"/>
      <use transform="translate(45.690477 0)scale(0.996264)" xlink:href="#CMR17-48"/>
     </g>
    </g>
    <g id="line2d_57">
     <path d="M 125.25 96.477867 
L 143.25 96.477867 
" style="fill:none;stroke:#ceff29;stroke-linecap:square;stroke-width:4;"/>
    </g>
    <g id="line2d_58"/>
    <g id="text_20">
     <!-- $50$ -->
     <g transform="translate(165.25 103.477867)scale(0.2 -0.2)">
      <use transform="scale(0.996264)" xlink:href="#CMR17-53"/>
      <use transform="translate(45.690477 0)scale(0.996264)" xlink:href="#CMR17-48"/>
     </g>
    </g>
    <g id="line2d_59">
     <path d="M 125.25 124.918481 
L 143.25 124.918481 
" style="fill:none;stroke:#ff6800;stroke-linecap:square;stroke-width:4;"/>
    </g>
    <g id="line2d_60"/>
    <g id="text_21">
     <!-- $N=100$ -->
     <defs>
      <path d="M 74 57.78125 
C 75.09375 62.09375 76.703125 65.09375 84.296875 65.09375 
C 84.59375 65.09375 85.796875 65.09375 85.796875 66.859375 
C 85.796875 68 84.90625 68 84.5 68 
C 82.5 68 77.40625 68 75.40625 68 
L 70.59375 68 
C 69.203125 68 67.40625 68 66 68 
C 65.40625 68 64.203125 68 64.203125 66.09375 
C 64.203125 65.09375 65 65.09375 65.703125 65.09375 
C 71.703125 65.09375 72.09375 62.796875 72.09375 60.984375 
C 72.09375 60.09375 72 59.78125 71.703125 58.390625 
L 60.40625 13.28125 
L 39 66.390625 
C 38.296875 68 38.203125 68 36 68 
L 23.796875 68 
C 21.796875 68 20.90625 68 20.90625 66.09375 
C 20.90625 65.09375 21.59375 65.09375 23.5 65.09375 
C 24 65.09375 29.90625 65.09375 29.90625 64.296875 
C 29.90625 64.09375 29.703125 63.296875 29.59375 63 
L 16.296875 9.921875 
C 15.09375 5 12.703125 2.90625 6.09375 2.90625 
C 5.59375 2.90625 4.59375 2.90625 4.59375 1.046875 
C 4.59375 0 5.59375 0 5.90625 0 
C 7.90625 0 13 0 15 0 
L 19.796875 0 
C 21.203125 0 22.90625 0 24.296875 0 
C 25 0 26.09375 0 26.09375 1.90625 
C 26.09375 2.8125 25.09375 2.90625 24.703125 2.90625 
C 21.40625 2.90625 18.203125 3.5 18.203125 7.09375 
C 18.203125 7.890625 18.40625 8.78125 18.59375 9.578125 
L 32.09375 63 
C 32.703125 62 32.703125 61.8125 33.09375 60.90625 
L 56.90625 1.796875 
C 57.40625 0.59375 57.59375 0 58.5 0 
C 59.5 0 59.59375 0.296875 60 2 
z
" id="CMMI12-78"/>
      <path d="M 64.296875 31.515625 
C 65.796875 31.515625 67.296875 31.515625 67.296875 33.203125 
C 67.296875 35 65.59375 35 63.90625 35 
L 8 35 
C 6.296875 35 4.59375 35 4.59375 33.203125 
C 4.59375 31.515625 6.09375 31.515625 7.59375 31.515625 
z
M 63.90625 14 
C 65.59375 14 67.296875 14 67.296875 15.796875 
C 67.296875 17.484375 65.796875 17.484375 64.296875 17.484375 
L 7.59375 17.484375 
C 6.09375 17.484375 4.59375 17.484375 4.59375 15.796875 
C 4.59375 14 6.296875 14 8 14 
z
" id="CMR17-61"/>
     </defs>
     <g transform="translate(165.25 131.918481)scale(0.2 -0.2)">
      <use transform="scale(0.996264)" xlink:href="#CMMI12-78"/>
      <use transform="translate(116.195781 0)scale(0.996264)" xlink:href="#CMR17-61"/>
      <use transform="translate(215.584578 0)scale(0.996264)" xlink:href="#CMR17-49"/>
      <use transform="translate(261.275056 0)scale(0.996264)" xlink:href="#CMR17-48"/>
      <use transform="translate(306.965533 0)scale(0.996264)" xlink:href="#CMR17-48"/>
     </g>
    </g>
    <g id="line2d_61">
     <path d="M 125.25 154.088475 
L 143.25 154.088475 
" style="fill:none;stroke:#000000;stroke-linecap:square;stroke-width:4;"/>
    </g>
    <g id="line2d_62"/>
    <g id="text_22">
     <!-- $I((p, 0))$ -->
     <defs>
      <path d="M 19.5 -0.484375 
C 19.5 5.359375 17.59375 9.671875 13.5 9.671875 
C 10.296875 9.671875 8.703125 7.078125 8.703125 4.890625 
C 8.703125 2.6875 10.203125 0 13.59375 0 
C 14.90625 0 16 0.40625 16.90625 1.296875 
C 17.09375 1.5 17.203125 1.5 17.296875 1.5 
C 17.5 1.5 17.5 0.078125 17.5 -0.421875 
C 17.5 -3.75 16.90625 -10.296875 11.09375 -16.875 
C 10 -18.078125 10 -18.28125 10 -18.484375 
C 10 -19 10.5 -19.5 11 -19.5 
C 11.796875 -19.5 19.5 -12.046875 19.5 -0.484375 
z
" id="CMMI12-59"/>
     </defs>
     <g transform="translate(165.25 161.088475)scale(0.2 -0.2)">
      <use transform="scale(0.996264)" xlink:href="#CMMI12-73"/>
      <use transform="translate(50.856514 0)scale(0.996264)" xlink:href="#CMR17-40"/>
      <use transform="translate(86.137282 0)scale(0.996264)" xlink:href="#CMR17-40"/>
      <use transform="translate(121.41805 0)scale(0.996264)" xlink:href="#CMMI12-112"/>
      <use transform="translate(170.377564 0)scale(0.996264)" xlink:href="#CMMI12-59"/>
      <use transform="translate(214.079146 0)scale(0.996264)" xlink:href="#CMR17-48"/>
      <use transform="translate(259.769623 0)scale(0.996264)" xlink:href="#CMR17-41"/>
      <use transform="translate(295.050391 0)scale(0.996264)" xlink:href="#CMR17-41"/>
     </g>
    </g>
   </g>
   <g id="legend_2">
    <g id="line2d_63">
     <path d="M 238.966867 224.348927 
L 256.966867 224.348927 
" style="fill:none;"/>
    </g>
    <g id="line2d_64"/>
    <g id="text_23">
     <!-- $D_r=0.5$ -->
     <defs>
      <path d="M 15.703125 7.375 
C 14.796875 3.890625 14.59375 2.890625 7.59375 2.890625 
C 5.703125 2.890625 4.703125 2.890625 4.703125 1.09375 
C 4.703125 0 5.296875 0 7.296875 0 
L 39 0 
C 59.203125 0 78.90625 20.8125 78.90625 43.015625 
C 78.90625 57.359375 70.296875 68 56 68 
L 23.90625 68 
C 22 68 21.09375 68 21.09375 66.109375 
C 21.09375 65.109375 22 65.109375 23.5 65.109375 
C 29.59375 65.109375 29.59375 64.3125 29.59375 63.21875 
C 29.59375 63.03125 29.59375 62.421875 29.203125 60.921875 
z
M 36.796875 61.421875 
C 37.703125 65.109375 38.09375 65.109375 42 65.109375 
L 53 65.109375 
C 62.40625 65.109375 71 60.03125 71 46.296875 
C 71 41.3125 69 24 59.296875 13.046875 
C 56.5 9.765625 48.90625 2.890625 37.40625 2.890625 
L 26 2.890625 
C 24.59375 2.890625 24.40625 2.890625 23.796875 3 
C 22.703125 3.09375 22.59375 3.296875 22.59375 4.09375 
C 22.59375 4.796875 22.796875 5.390625 23 6.28125 
z
" id="CMMI12-68"/>
      <path d="M 38.90625 40.8125 
C 35.796875 40.21875 34.203125 38.015625 34.203125 35.828125 
C 34.203125 33.421875 36.09375 32.625 37.5 32.625 
C 40.296875 32.625 42.59375 35.03125 42.59375 38.015625 
C 42.59375 41.21875 39.5 44 34.5 44 
C 30.5 44 25.90625 42.203125 21.703125 36.125 
C 21 41.40625 17 44 13 44 
C 9.09375 44 7.09375 41.015625 5.90625 38.8125 
C 4.203125 35.21875 2.703125 29.234375 2.703125 28.734375 
C 2.703125 28.34375 3.09375 27.84375 3.796875 27.84375 
C 4.59375 27.84375 4.703125 27.9375 5.296875 30.234375 
C 6.796875 36.21875 8.703125 42.015625 12.703125 42.015625 
C 15.09375 42.015625 15.796875 40.3125 15.796875 37.421875 
C 15.796875 35.21875 14.796875 31.328125 14.09375 28.234375 
L 11.296875 17.46875 
C 10.90625 15.5625 9.796875 11.078125 9.296875 9.28125 
C 8.59375 6.6875 7.5 2 7.5 1.5 
C 7.5 0.09375 8.59375 -1 10.09375 -1 
C 11.203125 -1 13.09375 -0.296875 13.703125 1.703125 
C 14 2.5 17.703125 17.5625 18.296875 19.859375 
C 18.796875 22.046875 19.40625 24.15625 19.90625 26.34375 
C 20.296875 27.734375 20.703125 29.34375 21 30.640625 
C 21.296875 31.53125 24 36.421875 26.5 38.625 
C 27.703125 39.71875 30.296875 42.015625 34.40625 42.015625 
C 36 42.015625 37.59375 41.71875 38.90625 40.8125 
z
" id="CMMI12-114"/>
     </defs>
     <g transform="translate(278.966867 231.348927)scale(0.2 -0.2)">
      <use transform="translate(0 14.943915)scale(0.996264)" xlink:href="#CMMI12-68"/>
      <use transform="translate(80.99423 0)scale(0.697382)" xlink:href="#CMMI12-114"/>
      <use transform="translate(141.83564 14.943915)scale(0.996264)" xlink:href="#CMR17-61"/>
      <use transform="translate(241.224437 14.943915)scale(0.996264)" xlink:href="#CMR17-48"/>
      <use transform="translate(286.914914 14.943915)scale(0.996264)" xlink:href="#CMMI12-58"/>
      <use transform="translate(314.012091 14.943915)scale(0.996264)" xlink:href="#CMR17-53"/>
     </g>
    </g>
    <g id="line2d_65">
     <path d="M 238.966867 258.756027 
L 256.966867 258.756027 
" style="fill:none;stroke:#000000;stroke-dasharray:6,6;stroke-dashoffset:0;stroke-width:4;"/>
    </g>
    <g id="line2d_66"/>
    <g id="text_24">
     <!-- $-\inf_s \tilde{B}_{s, p^2}$ -->
     <defs>
      <path d="M 65.90625 23 
C 67.59375 23 69.40625 23 69.40625 25 
C 69.40625 27 67.59375 27 65.90625 27 
L 11.796875 27 
C 10.09375 27 8.296875 27 8.296875 25 
C 8.296875 23 10.09375 23 11.796875 23 
z
" id="CMSY10-0"/>
      <path d="M 15.5 61.078125 
C 15.5 63.265625 13.703125 65.15625 11.40625 65.15625 
C 9.203125 65.15625 7.296875 63.375 7.296875 61.078125 
C 7.296875 58.890625 9.09375 57 11.40625 57 
C 13.59375 57 15.5 58.796875 15.5 61.078125 
z
M 3.796875 42.28125 
L 3.796875 39.703125 
C 9.40625 39.703125 10.203125 39.09375 10.203125 34.328125 
L 10.203125 6.671875 
C 10.203125 2.875 9.796875 2.390625 3.40625 2.390625 
L 3.40625 -0.203125 
C 5.796875 0 10.09375 0 12.59375 0 
C 15 0 19.09375 0 21.40625 -0.203125 
L 21.40625 2.390625 
C 15.5 2.390625 15.296875 2.984375 15.296875 6.5625 
L 15.296875 43.375 
z
" id="CMR17-105"/>
      <path d="M 41.5 30.203125 
C 41.5 35.296875 40.5 43.59375 28.703125 43.59375 
C 20.796875 43.59375 16.703125 37.5 15.203125 33.5 
L 15.09375 33.5 
L 15.09375 43.59375 
L 3.296875 42.5 
L 3.296875 39.90625 
C 9.203125 39.90625 10.09375 39.296875 10.09375 34.5 
L 10.09375 6.6875 
C 10.09375 2.875 9.703125 2.390625 3.296875 2.390625 
L 3.296875 -0.203125 
C 5.703125 0 10.09375 0 12.703125 0 
C 15.296875 0 19.796875 0 22.203125 -0.203125 
L 22.203125 2.390625 
C 15.796875 2.390625 15.40625 2.78125 15.40625 6.6875 
L 15.40625 25.90625 
C 15.40625 35.109375 21 42 28 42 
C 35.40625 42 36.203125 35.40625 36.203125 30.59375 
L 36.203125 6.6875 
C 36.203125 2.875 35.796875 2.390625 29.40625 2.390625 
L 29.40625 -0.203125 
C 31.796875 0 36.203125 0 38.796875 0 
C 41.40625 0 45.90625 0 48.296875 -0.203125 
L 48.296875 2.390625 
C 41.90625 2.390625 41.5 2.78125 41.5 6.6875 
z
" id="CMR17-110"/>
      <path d="M 15.296875 40 
L 26.703125 40 
L 26.703125 42.578125 
L 15.09375 42.578125 
L 15.09375 54.59375 
C 15.09375 62.84375 19.296875 68 23.59375 68 
C 24.90625 68 26.40625 67.609375 27.40625 66.90625 
C 26.59375 66.703125 24.5 66.015625 24.5 63.546875 
C 24.5 60.953125 26.5 60.15625 27.90625 60.15625 
C 29.296875 60.15625 31.296875 60.953125 31.296875 63.546875 
C 31.296875 67.3125 27.703125 69.59375 23.703125 69.59375 
C 18 69.59375 10.203125 64.9375 10.203125 54.390625 
L 10.203125 42.578125 
L 2.203125 42.578125 
L 2.203125 40 
L 10.203125 40 
L 10.203125 6.671875 
C 10.203125 2.875 9.796875 2.390625 3.40625 2.390625 
L 3.40625 -0.203125 
C 5.796875 0 10.40625 0 13 0 
C 15.90625 0 21 0 23.703125 -0.203125 
L 23.703125 2.390625 
C 16.5 2.390625 15.296875 2.390625 15.296875 6.859375 
z
" id="CMR17-102"/>
      <path d="M 22.796875 20 
C 24.5 19.703125 27.203125 19.109375 27.796875 19 
C 29.09375 18.625 33.59375 17.03125 33.59375 12.234375 
C 33.59375 9.15625 30.796875 1.09375 19.203125 1.09375 
C 17.09375 1.09375 9.59375 1.09375 7.59375 6.8125 
C 11.59375 6.3125 13.59375 9.421875 13.59375 11.640625 
C 13.59375 13.75 12.203125 14.84375 10.203125 14.84375 
C 8 14.84375 5.09375 13.140625 5.09375 8.625 
C 5.09375 2.703125 11.09375 -1 19.09375 -1 
C 34.296875 -1 38.796875 10.171875 38.796875 15.375 
C 38.796875 16.859375 38.796875 19.65625 35.59375 22.84375 
C 33.09375 25.25 30.703125 25.75 25.296875 26.84375 
C 22.59375 27.4375 18.296875 28.34375 18.296875 32.828125 
C 18.296875 34.828125 20.09375 42.015625 29.59375 42.015625 
C 33.796875 42.015625 37.90625 40.453125 38.90625 37 
C 34.5 37 34.296875 33.203125 34.296875 33.109375 
C 34.296875 31 36.203125 30.40625 37.09375 30.40625 
C 38.5 30.40625 41.296875 31.484375 41.296875 35.640625 
C 41.296875 39.765625 37.5 44 29.703125 44 
C 16.59375 44 13.09375 33.75 13.09375 29.671875 
C 13.09375 22.09375 20.5 20.5 22.796875 20 
z
" id="CMMI12-115"/>
      <path d="M 37.5 65.375 
C 34.09375 62.1875 32.203125 60.390625 29.09375 60.390625 
C 26.90625 60.390625 25.40625 61.4375 23.296875 62.875 
C 21.296875 64.234375 19.703125 65.375 17.5 65.375 
C 13.90625 65.375 11.40625 62.5625 7.203125 58.09375 
L 8.296875 57 
C 11.703125 60.15625 13.59375 62 16.703125 62 
C 18.90625 62 20.40625 60.9375 22.5 59.5 
C 24.5 58.15625 26.09375 57 28.296875 57 
C 31.90625 57 34.40625 59.8125 38.59375 64.28125 
z
" id="CMR17-126"/>
      <path d="M 36.59375 61.265625 
C 37.5 65 37.90625 65 41.796875 65 
L 54.796875 65 
C 66.09375 65 66.09375 55.375 66.09375 54.453125 
C 66.09375 46.34375 58 36 44.796875 36 
L 30.40625 36 
z
M 53.5 35.546875 
C 64.40625 37.53125 74.296875 45.09375 74.296875 54.265625 
C 74.296875 62.03125 67.40625 68 56.09375 68 
L 24 68 
C 22.09375 68 21.203125 68 21.203125 66.03125 
C 21.203125 65 22.09375 65 23.59375 65 
C 29.703125 65 29.703125 64.25 29.703125 63.1875 
C 29.703125 63 29.703125 62.390625 29.296875 60.890625 
L 15.796875 7.375 
C 14.90625 3.890625 14.703125 2.890625 7.703125 2.890625 
C 5.796875 2.890625 4.796875 2.890625 4.796875 1.09375 
C 4.796875 0 5.40625 0 7.40625 0 
L 41.703125 0 
C 57 0 68.796875 11.546875 68.796875 21.609375 
C 68.796875 29.78125 61.59375 34.75 53.5 35.546875 
z
M 39.296875 2.890625 
L 25.796875 2.890625 
C 24.40625 2.890625 24.203125 2.890625 23.59375 3 
C 22.5 3.09375 22.40625 3.296875 22.40625 4.078125 
C 22.40625 4.765625 22.59375 5.359375 22.796875 6.234375 
L 29.796875 34 
L 48.59375 34 
C 60.40625 34 60.40625 23.171875 60.40625 22.390625 
C 60.40625 12.9375 51.703125 2.890625 39.296875 2.890625 
z
" id="CMMI12-66"/>
     </defs>
     <g transform="translate(278.966867 265.756027)scale(0.2 -0.2)">
      <use transform="translate(0 17.940992)scale(0.996264)" xlink:href="#CMSY10-0"/>
      <use transform="translate(94.091873 17.940992)scale(0.996264)" xlink:href="#CMR17-105"/>
      <use transform="translate(118.962931 17.940992)scale(0.996264)" xlink:href="#CMR17-110"/>
      <use transform="translate(169.858301 17.940992)scale(0.996264)" xlink:href="#CMR17-102"/>
      <use transform="translate(203.237326 2.997077)scale(0.697382)" xlink:href="#CMMI12-115"/>
      <use transform="translate(277.356428 43.130725)scale(0.996264)" xlink:href="#CMR17-126"/>
      <use transform="translate(252.504752 17.940992)scale(0.996264)" xlink:href="#CMMI12-66"/>
      <use transform="translate(326.612772 0)scale(0.697382)" xlink:href="#CMMI12-115"/>
      <use transform="translate(358.777661 0)scale(0.697382)" xlink:href="#CMMI12-59"/>
      <use transform="translate(377.745594 0)scale(0.697382)" xlink:href="#CMMI12-112"/>
      <use transform="translate(412.0171 20.146573)scale(0.498132)" xlink:href="#CMR17-50"/>
     </g>
    </g>
   </g>
   <g id="legend_3">
    <g id="line2d_67">
     <path d="M 174.813098 40.363996 
L 192.813098 40.363996 
" style="fill:none;"/>
    </g>
    <g id="line2d_68"/>
    <g id="text_25">
     <!-- $t_{\mathrm{max}}=10^2$ -->
     <defs>
      <path d="M 20.09375 40.09375 
L 29.296875 40.09375 
C 31.203125 40.09375 32.203125 40.09375 32.203125 41.890625 
C 32.203125 43 31.59375 43 29.59375 43 
L 20.796875 43 
L 24.5 57.6875 
C 24.90625 59.078125 24.90625 59.28125 24.90625 60 
C 24.90625 61.609375 23.59375 62.5 22.296875 62.5 
C 21.5 62.5 19.203125 62.203125 18.40625 58.984375 
L 14.5 43 
L 5.09375 43 
C 3.09375 43 2.203125 43 2.203125 41.09375 
C 2.203125 40.09375 2.90625 40.09375 4.796875 40.09375 
L 13.703125 40.09375 
L 7.09375 13.765625 
C 6.296875 10.28125 6 9.28125 6 7.984375 
C 6 3.296875 9.296875 -1 14.90625 -1 
C 25 -1 30.40625 13.5625 30.40625 14.25 
C 30.40625 14.859375 30 15.15625 29.40625 15.15625 
C 29.203125 15.15625 28.796875 15.15625 28.59375 14.75 
C 28.5 14.65625 28.40625 14.546875 27.703125 12.953125 
C 25.59375 7.984375 21 1 15.203125 1 
C 12.203125 1 12 3.5 12 5.6875 
C 12 5.78125 12 7.6875 12.296875 8.875 
z
" id="CMMI12-116"/>
      <path d="M 67.59375 30.203125 
C 67.59375 35.1875 66.703125 43.59375 54.796875 43.59375 
C 48 43.59375 43.296875 39 41.5 33.609375 
L 41.40625 33.609375 
C 40.203125 41.8125 34.296875 43.59375 28.703125 43.59375 
C 20.796875 43.59375 16.703125 37.5 15.203125 33.5 
L 15.09375 33.5 
L 15.09375 43.59375 
L 3.296875 42.5 
L 3.296875 39.90625 
C 9.203125 39.90625 10.09375 39.296875 10.09375 34.5 
L 10.09375 6.6875 
C 10.09375 2.875 9.703125 2.390625 3.296875 2.390625 
L 3.296875 -0.203125 
C 5.703125 0 10.09375 0 12.703125 0 
C 15.296875 0 19.796875 0 22.203125 -0.203125 
L 22.203125 2.390625 
C 15.796875 2.390625 15.40625 2.78125 15.40625 6.6875 
L 15.40625 25.90625 
C 15.40625 35.109375 21 42 28 42 
C 35.40625 42 36.203125 35.40625 36.203125 30.59375 
L 36.203125 6.6875 
C 36.203125 2.875 35.796875 2.390625 29.40625 2.390625 
L 29.40625 -0.203125 
C 31.796875 0 36.203125 0 38.796875 0 
C 41.40625 0 45.90625 0 48.296875 -0.203125 
L 48.296875 2.390625 
C 41.90625 2.390625 41.5 2.78125 41.5 6.6875 
L 41.5 25.90625 
C 41.5 35.109375 47.09375 42 54.09375 42 
C 61.5 42 62.296875 35.40625 62.296875 30.59375 
L 62.296875 6.6875 
C 62.296875 2.875 61.90625 2.390625 55.5 2.390625 
L 55.5 -0.203125 
C 57.90625 0 62.296875 0 64.90625 0 
C 67.5 0 72 0 74.40625 -0.203125 
L 74.40625 2.390625 
C 68 2.390625 67.59375 2.78125 67.59375 6.6875 
z
" id="CMR17-109"/>
      <path d="M 36 25.828125 
C 36 32.375 36 35.84375 31.796875 39.734375 
C 28.09375 43 23.796875 44 20.40625 44 
C 12.5 44 6.796875 37.609375 6.796875 30.796875 
C 6.796875 27 9.796875 27 10.40625 27 
C 11.703125 27 14 27.78125 14 30.53125 
C 14 33 12.09375 34.078125 10.40625 34.078125 
C 10 34.078125 9.5 33.96875 9.203125 33.875 
C 11.296875 40.5 16.703125 42.40625 20.203125 42.40625 
C 25.203125 42.40625 30.703125 37.953125 30.703125 29.453125 
L 30.703125 25 
C 24.796875 25 17.703125 24.203125 12.09375 21.203125 
C 5.796875 17.703125 4 12.703125 4 8.90625 
C 4 1.203125 13 -1 18.296875 -1 
C 23.796875 -1 28.90625 2.171875 31.09375 7.984375 
C 31.296875 3.640625 34.09375 -0.28125 38.5 -0.28125 
C 40.59375 -0.28125 45.90625 1.09375 45.90625 8.859375 
L 45.90625 14.375 
L 44.09375 14.375 
L 44.09375 8.78125 
C 44.09375 2.78125 41.40625 2 40.09375 2 
C 36 2 36 7.15625 36 11.53125 
z
M 30.703125 13.59375 
C 30.703125 4.953125 24.5 0.59375 19 0.59375 
C 14 0.59375 10.09375 4.296875 10.09375 8.90625 
C 10.09375 11.890625 11.40625 17.1875 17.203125 20.390625 
C 22 23.09375 27.5 23.5 30.703125 23.5 
z
" id="CMR17-97"/>
      <path d="M 26 23.078125 
C 29 26.96875 32.40625 31.34375 35.203125 34.625 
C 38.5 38.40625 42.296875 40 46.703125 40 
L 46.703125 42.59375 
C 45 42.59375 41.5 42.59375 39.703125 42.59375 
C 37 42.59375 33.90625 42.59375 31.59375 42.6875 
L 31.59375 40.09375 
C 33 39.890625 33.796875 38.890625 33.796875 37.5 
C 33.796875 35.703125 32.796875 34.609375 32.296875 33.921875 
L 24.90625 24.578125 
L 16.09375 36.03125 
C 15.203125 37.125 15.203125 37.3125 15.203125 37.8125 
C 15.203125 39.015625 16.203125 40 17.90625 40 
L 17.90625 42.6875 
C 15.5 42.59375 11.203125 42.59375 8.703125 42.59375 
C 6 42.59375 2.796875 42.59375 0.59375 42.6875 
L 0.59375 40 
C 6 40 7.203125 39.59375 9.59375 36.609375 
L 21.09375 21.796875 
C 21.296875 21.59375 21.796875 21 21.796875 20.703125 
C 21.796875 20.296875 13.09375 9.671875 12 8.28125 
C 7.5 2.890625 2.796875 2.5 0.09375 2.5 
L 0.09375 0 
C 1.796875 0 5.296875 0 7.09375 0 
C 9.09375 0 13.5 0 15.296875 -0.09375 
L 15.296875 2.5 
C 14.703125 2.59375 13.09375 2.796875 13.09375 5.078125 
C 13.09375 6.875 13.90625 7.96875 14.796875 9.15625 
L 23.09375 19.3125 
L 31.796875 8 
C 32.59375 6.90625 33.796875 5.40625 33.796875 4.703125 
C 33.796875 3.296875 32.59375 2.5 31 2.5 
L 31 -0.09375 
C 33.40625 0 37.703125 0 40.203125 0 
C 42.90625 0 46.09375 0 48.296875 -0.09375 
L 48.296875 2.5 
C 43.296875 2.5 41.796875 2.6875 39.40625 5.78125 
z
" id="CMR17-120"/>
     </defs>
     <g transform="translate(214.813098 47.363996)scale(0.2 -0.2)">
      <use transform="translate(0 14.943915)scale(0.996264)" xlink:href="#CMMI12-116"/>
      <use transform="translate(35.22633 0)scale(0.697382)" xlink:href="#CMR17-109"/>
      <use transform="translate(89.069797 0)scale(0.697382)" xlink:href="#CMR17-97"/>
      <use transform="translate(121.052979 0)scale(0.697382)" xlink:href="#CMR17-120"/>
      <use transform="translate(183.030007 14.943915)scale(0.996264)" xlink:href="#CMR17-61"/>
      <use transform="translate(282.418804 14.943915)scale(0.996264)" xlink:href="#CMR17-49"/>
      <use transform="translate(328.109281 14.943915)scale(0.996264)" xlink:href="#CMR17-48"/>
      <use transform="translate(373.799758 51.097553)scale(0.697382)" xlink:href="#CMR17-50"/>
     </g>
    </g>
    <g id="line2d_69">
     <path d="M 174.813098 69.571965 
L 192.813098 69.571965 
" style="fill:none;"/>
    </g>
    <g id="line2d_70"/>
    <g id="text_26">
     <!-- $N_{\mathrm{clones}}=10^3$ -->
     <defs>
      <path d="M 34.90625 35 
C 33 35 30.203125 35 30.203125 31.515625 
C 30.203125 28.71875 32.5 27.921875 33.796875 27.921875 
C 34.5 27.921875 37.40625 28.234375 37.40625 31.625 
C 37.40625 38.546875 30.59375 43.796875 22.90625 43.796875 
C 12.296875 43.796875 3.296875 34.03125 3.296875 21.296875 
C 3.296875 8.0625 12.703125 -1 22.90625 -1 
C 35.296875 -1 38.40625 10.578125 38.40625 11.6875 
C 38.40625 12.09375 38.296875 12.390625 37.59375 12.390625 
C 36.90625 12.390625 36.796875 12.296875 36.40625 10.984375 
C 33.796875 2.8125 28.09375 0.796875 23.796875 0.796875 
C 17.40625 0.796875 9.703125 6.671875 9.703125 21.390625 
C 9.703125 36.53125 17.09375 42 23 42 
C 26.90625 42 32.703125 40.203125 34.90625 35 
z
" id="CMR17-99"/>
      <path d="M 15.296875 68.6875 
L 3.40625 67.59375 
L 3.40625 65 
C 9.296875 65 10.203125 64.40625 10.203125 59.640625 
L 10.203125 6.65625 
C 10.203125 2.875 9.796875 2.390625 3.40625 2.390625 
L 3.40625 -0.203125 
C 5.796875 0 10.203125 0 12.703125 0 
C 15.296875 0 19.703125 0 22.09375 -0.203125 
L 22.09375 2.390625 
C 15.703125 2.390625 15.296875 2.78125 15.296875 6.65625 
z
" id="CMR17-108"/>
      <path d="M 43.09375 21.1875 
C 43.09375 34 33.796875 44 22.90625 44 
C 12 44 2.703125 34 2.703125 21.1875 
C 2.703125 8.609375 12 -1 22.90625 -1 
C 33.796875 -1 43.09375 8.609375 43.09375 21.1875 
z
M 22.90625 0.796875 
C 18.203125 0.796875 14.203125 3.59375 11.90625 7.5 
C 9.40625 11.984375 9.09375 17.59375 9.09375 22 
C 9.09375 26.203125 9.296875 31.40625 11.90625 35.90625 
C 13.90625 39.203125 17.796875 42.40625 22.90625 42.40625 
C 27.40625 42.40625 31.203125 39.90625 33.59375 36.40625 
C 36.703125 31.703125 36.703125 25.109375 36.703125 22 
C 36.703125 18.09375 36.5 12.109375 33.796875 7.296875 
C 31 2.703125 26.703125 0.796875 22.90625 0.796875 
z
" id="CMR17-111"/>
      <path d="M 38.09375 23 
C 38.5 23.40625 38.5 23.609375 38.5 24.625 
C 38.5 34.96875 33.09375 44 21.703125 44 
C 11.09375 44 2.703125 33.890625 2.703125 21.609375 
C 2.703125 8.609375 12.203125 -1 22.796875 -1 
C 34 -1 38.40625 9.484375 38.40625 11.5625 
C 38.40625 12.25 37.796875 12.25 37.59375 12.25 
C 36.90625 12.25 36.796875 12.046875 36.40625 10.875 
C 34.203125 4.140625 28.703125 0.796875 23.5 0.796875 
C 19.203125 0.796875 14.90625 3.171875 12.203125 7.5 
C 9.09375 12.546875 9.09375 18.375 9.09375 23 
z
M 9.203125 24.5 
C 9.90625 39.140625 17.59375 42.40625 21.59375 42.40625 
C 28.40625 42.40625 33 35.890625 33.09375 24.5 
z
" id="CMR17-101"/>
      <path d="M 30.90625 42.140625 
C 30.90625 43.953125 30.796875 44.046875 30.203125 44.046875 
C 29.796875 44.046875 29.703125 43.953125 28.5 42.453125 
C 28.203125 42.046875 27.296875 41.03125 27 40.640625 
C 23.796875 44.046875 19.296875 44.046875 17.59375 44.046875 
C 6.5 44.046875 2.5 38.234375 2.5 32.4375 
C 2.5 23.40625 12.703125 21.328125 15.59375 20.703125 
C 21.90625 19.421875 24.09375 19.015625 26.203125 17.203125 
C 27.5 16.015625 29.703125 13.8125 29.703125 10.21875 
C 29.703125 6 27.296875 0.59375 18.09375 0.59375 
C 9.40625 0.59375 6.296875 7.1875 4.5 15.953125 
C 4.203125 17.34375 4.203125 17.453125 3.40625 17.453125 
C 2.59375 17.453125 2.5 17.34375 2.5 15.359375 
L 2.5 0.984375 
C 2.5 -0.796875 2.59375 -0.90625 3.203125 -0.90625 
C 3.703125 -0.90625 3.796875 -0.796875 4.296875 0 
C 4.90625 0.890625 6.40625 3.296875 7 4.3125 
C 9 1.609375 12.5 -1 18.09375 -1 
C 28 -1 33.296875 4.421875 33.296875 12.25 
C 33.296875 17.375 30.59375 20.078125 29.296875 21.28125 
C 26.296875 24.390625 22.796875 25.09375 18.59375 25.890625 
C 13.09375 27.109375 6.09375 28.515625 6.09375 34.640625 
C 6.09375 37.234375 7.5 42.765625 17.59375 42.765625 
C 28.296875 42.765625 28.90625 32.71875 29.09375 29.5 
C 29.203125 29 29.703125 28.890625 30 28.890625 
C 30.90625 28.890625 30.90625 29.203125 30.90625 30.90625 
z
" id="CMR17-115"/>
     </defs>
     <g transform="translate(214.813098 76.571965)scale(0.2 -0.2)">
      <use transform="translate(0 14.943915)scale(0.996264)" xlink:href="#CMMI12-78"/>
      <use transform="translate(78.115119 0)scale(0.697382)" xlink:href="#CMR17-99"/>
      <use transform="translate(106.45495 0)scale(0.697382)" xlink:href="#CMR17-108"/>
      <use transform="translate(123.864609 0)scale(0.697382)" xlink:href="#CMR17-111"/>
      <use transform="translate(155.847791 0)scale(0.697382)" xlink:href="#CMR17-110"/>
      <use transform="translate(191.4744 0)scale(0.697382)" xlink:href="#CMR17-101"/>
      <use transform="translate(219.814231 0)scale(0.697382)" xlink:href="#CMR17-115"/>
      <use transform="translate(273.047194 14.943915)scale(0.996264)" xlink:href="#CMR17-61"/>
      <use transform="translate(372.435991 14.943915)scale(0.996264)" xlink:href="#CMR17-49"/>
      <use transform="translate(418.126468 14.943915)scale(0.996264)" xlink:href="#CMR17-48"/>
      <use transform="translate(463.816946 51.097553)scale(0.697382)" xlink:href="#CMR17-51"/>
     </g>
    </g>
   </g>
   <g id="legend_4">
    <g id="line2d_71">
     <path d="M 174.813098 40.363996 
L 192.813098 40.363996 
" style="fill:none;"/>
    </g>
    <g id="line2d_72"/>
    <g id="text_27">
     <!-- $t_{\mathrm{max}}=10^2$ -->
     <g transform="translate(214.813098 47.363996)scale(0.2 -0.2)">
      <use transform="translate(0 14.943915)scale(0.996264)" xlink:href="#CMMI12-116"/>
      <use transform="translate(35.22633 0)scale(0.697382)" xlink:href="#CMR17-109"/>
      <use transform="translate(89.069797 0)scale(0.697382)" xlink:href="#CMR17-97"/>
      <use transform="translate(121.052979 0)scale(0.697382)" xlink:href="#CMR17-120"/>
      <use transform="translate(183.030007 14.943915)scale(0.996264)" xlink:href="#CMR17-61"/>
      <use transform="translate(282.418804 14.943915)scale(0.996264)" xlink:href="#CMR17-49"/>
      <use transform="translate(328.109281 14.943915)scale(0.996264)" xlink:href="#CMR17-48"/>
      <use transform="translate(373.799758 51.097553)scale(0.697382)" xlink:href="#CMR17-50"/>
     </g>
    </g>
    <g id="line2d_73">
     <path d="M 174.813098 69.571965 
L 192.813098 69.571965 
" style="fill:none;"/>
    </g>
    <g id="line2d_74"/>
    <g id="text_28">
     <!-- $N_{\mathrm{clones}}=10^3$ -->
     <g transform="translate(214.813098 76.571965)scale(0.2 -0.2)">
      <use transform="translate(0 14.943915)scale(0.996264)" xlink:href="#CMMI12-78"/>
      <use transform="translate(78.115119 0)scale(0.697382)" xlink:href="#CMR17-99"/>
      <use transform="translate(106.45495 0)scale(0.697382)" xlink:href="#CMR17-108"/>
      <use transform="translate(123.864609 0)scale(0.697382)" xlink:href="#CMR17-111"/>
      <use transform="translate(155.847791 0)scale(0.697382)" xlink:href="#CMR17-110"/>
      <use transform="translate(191.4744 0)scale(0.697382)" xlink:href="#CMR17-101"/>
      <use transform="translate(219.814231 0)scale(0.697382)" xlink:href="#CMR17-115"/>
      <use transform="translate(273.047194 14.943915)scale(0.996264)" xlink:href="#CMR17-61"/>
      <use transform="translate(372.435991 14.943915)scale(0.996264)" xlink:href="#CMR17-49"/>
      <use transform="translate(418.126468 14.943915)scale(0.996264)" xlink:href="#CMR17-48"/>
      <use transform="translate(463.816946 51.097553)scale(0.697382)" xlink:href="#CMR17-51"/>
     </g>
    </g>
   </g>
  </g>
 </g>
 <defs>
  <clipPath id="p0d1c66e581">
   <rect height="273.6" width="283.5" x="101.25" y="14.4"/>
  </clipPath>
 </defs>
</svg>
